<?xml version="1.0" encoding="utf-8"?>
<!-- Generator: Adobe Illustrator 16.0.0, SVG Export Plug-In . SVG Version: 6.00 Build 0)  -->
<!DOCTYPE svg PUBLIC "-//W3C//DTD SVG 1.1//EN" "http://www.w3.org/Graphics/SVG/1.1/DTD/svg11.dtd">
<svg version="1.1" xmlns="http://www.w3.org/2000/svg" xmlns:xlink="http://www.w3.org/1999/xlink" x="0px" y="0px" width="181px"
	 height="209px" viewBox="0 0 181 209" enable-background="new 0 0 181 209" xml:space="preserve">
<g id="Layer_1" display="none">
	<polygon display="inline" stroke="#FFFFFF" stroke-width="10" stroke-miterlimit="10" points="172.183,156.677 90.007,203.632 
		8.255,155.942 8.679,61.299 90.854,14.344 172.606,62.033 	"/>
</g>
<g id="Layer_1_copy">
	<polygon stroke="#FFFFFF" stroke-width="10" stroke-miterlimit="10" points="175.98,152.849 90.354,202.96 4.723,154.851 
		4.713,56.628 90.338,6.515 175.971,54.627 	"/>
</g>
<g id="Layer_3">
	<path fill="#FEFEFE" d="M78.306,42.483l4.155,0.393c-1.078,0.393-2.155,0.785-3.234,1.155
		C78.922,43.514,78.617,42.996,78.306,42.483z"/>
	<path fill="#FEFEFE" d="M94.69,44.029l0.997,0.093c0.809,0.774,1.584,1.583,2.338,2.414c-0.016,0.51-0.053,1.534-0.067,2.043
		c2.233-0.204,4.085-1.727,6.361-1.759c0.559,0.777,1.27,1.316,2.147,1.624c-0.029-1.126-0.195-2.333,0.602-3.248l0.329,0.032
		c1.334,1.104,2.758,2.096,4.061,3.237c-1.15,0.279-2.308,0.535-3.445,0.854c1.416,0.533,2.892,0.902,4.366,1.249
		c0.901,1.883,1.738,3.788,2.586,5.694c-0.508,0.503-0.921,1.195-1.696,1.262c-2.713,0.52-4.91,2.25-7.036,3.898
		c0.982,2.021,2.186,3.926,3.241,5.897c0.187,3.125-2.458,5.258-3.593,7.919c-0.422-0.528-0.843-1.062-1.258-1.596
		c-0.491-2.552-1.202-5.058-1.804-7.587c-0.629,0.492-1.709,0.688-1.872,1.599c0.252,0.821,0.675,1.575,1.063,2.342
		c-0.296,1.303-0.605,2.612-1.22,3.813c0.298,0.349,0.897,1.045,1.195,1.394c-0.982,0.289-1.978,0.537-2.973,0.77
		c-0.249,0.454-0.503,0.914-0.747,1.368c-0.98-0.031-2.026-0.314-2.92,0.236c-1.726,1.073-3.789,0.547-5.701,0.574
		c-0.058,0.366-0.177,1.102-0.235,1.473c-2.709-0.148-5.129,1.123-7.409,2.42c-0.149,1.092-0.319,2.189-0.489,3.28
		c5.58-0.176,10.54-3.023,15.976-3.892c0.491,0.305,0.968,0.641,1.427,1.005c-1.02,1.005-1.884,2.417-3.338,2.821
		c-2.077,0.224-4.216-0.045-6.249,0.544c-1.866,0.481-3.33,1.816-5.032,2.65c-2.053,0.918-4.341,1.045-6.467,1.728l-0.02,0.689
		c1.162,0.255,2.341,0.43,3.503,0.685c1.932-0.178,3.602,0.828,4.903,2.158c1.202,1.316,2.967,1.724,4.581,2.292
		c-0.708,3.096-1.492,6.37-3.818,8.691c1.174-0.479,2.283-1.115,3.473-1.565c1.215,0.664,2.193,1.662,3.326,2.455
		c-0.032-0.616-0.071-1.227-0.104-1.837c1.018-0.286,2.045-0.633,2.833-1.374c-1.538-0.364-3.099-0.606-4.646-0.921
		c0.83-1.657,1.684-3.302,2.674-4.872c0.578,1.093,0.983,2.266,1.562,3.355c1.079,0.697,2.332,1.074,3.452,1.702
		c1.03,1.828-1.071,2.019-2.297,2.475c-1.304,1.198-2.863,2.136-3.863,3.631c0.854,2.368,2.238,4.617,2.49,7.151
		c-1.087-0.776-2.545-1.341-3.193-2.565c-0.514-2.525-2.074-4.635-3.539-6.689c-1.054-0.139-2.234,0.11-3.213-0.353
		c-1.982-1.513-3.74-3.364-6.005-4.488c-0.257,0.172-0.784,0.521-1.049,0.694c2.708,3.271,6.19,5.729,9.042,8.858
		c1.738,2.18,3.049,4.676,4.756,6.887c1.263,1.452,0.59,3.388,0.604,5.103c-2.842,2.402-6.598,0.822-9.812,0.424
		c-4.653-0.287-9.252-1.43-13.927-1.09c-4.123,0.403-7.722-2.061-11.698-2.677c-0.111-1.209-0.21-2.418-0.7-3.538
		c-0.433,1.207-0.819,2.429-1.232,3.645c1.107,1.559,2.565,2.904,3.329,4.685c0.267,5.391-1.583,10.931,0.166,16.229
		c0.361,1.653,2.206,2.337,2.884,3.795c-0.161,1.054-1.586,1.446-1.754,2.521c-0.419,1.461-0.072,3.381-1.481,4.371
		c-0.271-0.161-0.813-0.479-1.085-0.635c-0.193-1.646-0.075-3.323-0.473-4.939c-1.35-6.003-2.542-12.128-5.246-17.709
		c-1.67-3.379-1.677-7.239-2.872-10.768c-1.052-3.031-2.651-5.853-3.417-8.986c1.01-1.125,1.376-2.511,1.124-3.99
		c0.633-1.345,0.149-2.587-0.715-3.67c0.188-2.78,0.39-5.682,1.852-8.14c0.733,1.041,1.218,2.216,1.616,3.412
		c-0.456,1.075-0.879,2.164-1.292,3.26c0.287-0.109,0.867-0.317,1.152-0.419c2.052,0.524,2.843-1.372,3.94-2.634
		c2.612-0.164,5.511-0.217,7.492-2.232c-3.472-0.243-7.761,2.354-10.644-0.56c1.052-1.806,3.25-1.985,5.113-1.9
		c1.781,0.117,3.637-0.977,5.319-0.048c0.969,0.636,1.617,1.624,2.428,2.431c0.017-0.645,0.049-1.945,0.065-2.596
		c1.293-2.271,2.243-4.716,3.438-7.036c-1.257,0.347-2.435,0.917-3.543,1.599c-1.534-1.382-3.22-2.675-5.234-3.248
		c-2.51-0.799-4.687-2.313-7.002-3.51c-1.259-0.59-3.771-0.821-3.218-2.81c0.498-2.908,2.267-5.399,3.165-8.19
		c1.591-4.699,3.445-9.306,5.577-13.791c1.479-3.046,4.281-5.484,7.581-6.331c2.071-0.27,3.555-2.474,5.771-1.439
		c0.591-0.714,1.196-1.415,1.808-2.116c0.5,0.648,1.023,1.282,1.519,1.936c0.432-0.335,0.854-0.701,1.319-1
		c3.899,0.492,8.172,1.181,11.775-0.816c2.763,0.794,5.734,0.457,8.423,1.503C94.766,45.008,94.717,44.357,94.69,44.029z"/>
	<path fill="#101010" d="M95.688,44.122l11.381,1.074c-0.797,0.914-0.631,2.121-0.602,3.248c-0.878-0.308-1.589-0.847-2.147-1.624
		c-2.276,0.032-4.128,1.555-6.361,1.759c0.015-0.51,0.052-1.534,0.067-2.043C97.271,45.706,96.496,44.896,95.688,44.122z"/>
	<path fill="#FEFEFE" d="M115.837,57.812c1.976,0.495,2.892,2.633,4.442,3.829c0.199,1.294-0.4,2.563-0.543,3.849
		c2.266-0.197,3.474,2.288,2.906,4.23c-0.27,1.103,0.005,2.438-0.847,3.313c-0.608,0.825-1.773,0.738-2.619,1.119
		c0.526,0.678,1.382,0.782,2.147,1.006c-0.312,0.848-0.37,1.959-1.317,2.365c-1.567,0.834-2.644,2.273-3.964,3.417
		c-0.751-1.644-1.183-3.42-1.272-5.222c0.18-1.201,1.341-2.053,1.382-3.274c-0.599-3-1.799-5.828-2.67-8.748
		C114.261,61.725,115.518,59.944,115.837,57.812z"/>
	<path fill="#FEFEFE" d="M107.709,61.591c1.398-0.71,2.827-1.375,4.301-1.92c0.498,1.446,0.483,3.922-0.998,4.688
		C109.716,63.848,108.93,62.341,107.709,61.591z"/>
	<path fill="#FEFEFE" d="M111.416,65.368c0.188-0.021,0.562-0.065,0.748-0.086c1.247,2.084,2.347,4.507,1.931,6.991
		c-0.438,0.606-0.999,1.109-1.508,1.65c0.711,2.584,0.886,5.613,2.937,7.565c-0.003,1.291-0.278,2.542-1.195,3.494
		c-1.313,1.421-0.752,3.755-2.35,4.976c-1.574-0.289-3.836,0.115-4.298-1.922c0.769-1.186,1.324-2.483,1.905-3.759
		c1.411-0.598,3.59,0.265,4.397-1.356c-0.594-1.444-1.437-2.798-2.583-3.873c-0.018-0.406-0.062-1.214-0.082-1.615
		c-0.557,0.346-1.108,0.699-1.652,1.063c0.076,0.497,0.23,1.483,0.308,1.979c-1.591,1.074-3.006-0.301-4.183-1.311
		c-1.148,0.476-2.386,0.652-3.582,0.949c-0.564,0.919-1.032,1.885-1.569,2.813c-0.961-1.018-0.316-2.301,0.001-3.422
		c0.765-0.124,1.541-0.057,2.309-0.108c0.187-1.297-0.006-2.602-0.086-3.902c0.674,0.131,1.345,0.273,2.016,0.426
		c0.29,0.758,0.556,1.553,1.234,2.065c0.02-0.683,0.057-2.05,0.076-2.734c1.467-0.581,3.157-0.647,4.47-1.562
		c0.681-1.437,1.103-2.998,1.43-4.551C111.263,68.056,110.056,66.6,111.416,65.368z"/>
	<path fill="#101010" d="M119.142,71.266c-0.823-0.511-0.793-0.946,0.089-1.313C120.021,70.433,119.995,70.868,119.142,71.266z"/>
	<path fill="#FEFEFE" d="M121.205,81.305c0.225-1.142-0.001-3.113,1.671-3.107c0.854,2.755,1.367,5.619,1.559,8.496
		c0.243,2.175,1.146,4.216,1.373,6.4c0.237,2.37,2.063,4.156,2.646,6.42c0.098,1.829-0.166,3.669-0.521,5.463
		c-0.849,2.817-0.377,5.853-1.326,8.646c-0.544,1.122-1.328,2.11-1.973,3.174c0.671,0.146,1.347,0.262,2.028,0.343
		c0.871-0.244,0.96-1.235,1.205-1.954c0.364-1.521,1.049-2.931,1.779-4.299c-0.28-1.096-1.225-2.252-0.576-3.381
		c0.665-1.438,1.673-2.76,1.81-4.398c0.514-3.435,1.888-6.62,3.146-9.827c1.222,0.93,1.593,2.937,3.356,3.008
		c-0.238-1.523-0.819-2.978-0.988-4.509c0.521-1.486,2.576-2.371,3.763-1.074c0.602,1.62-0.943,3.166-0.521,4.817
		c0.344,1.819,0.971,3.575,1.546,5.333c0.962-2.135,1.316-4.477,1.271-6.803c-0.156-1.796-0.659-3.546-0.642-5.359
		c0.705,0.528,1.503,1.07,1.673,2.001c0.81,2.784,0.474,5.759-0.057,8.563c-0.751,5.048-2.135,10.082-4.728,14.512
		c-1.625,2.212-3.994,4.461-6.951,4.256c-1.567-0.025-3.798-0.226-4.406,1.628c-1.643,7.211-2.859,14.513-3.199,21.908
		c0.17,2.198,2.339,3.739,2.239,5.999c-0.128,3.011-0.659,5.984-0.877,8.986c-0.245,0.998-0.204,2.655-1.561,2.791
		c-2.938,0.402-6.046,0.777-8.536,2.527c-3.124,2.628-6.259,5.331-8.62,8.699c-0.903,0.229-1.798,0.486-2.681,0.775l-4.288-0.404
		c-0.011-0.417-0.035-1.253-0.045-1.668c-2.422-0.412-4.767,0.241-7.044,0.998l-1.659-0.156c0.934-0.91,2.041-1.763,2.204-3.157
		c0.448-2.452,3.138-3.439,5.326-3.678c0.04-0.339,0.115-1.023,0.152-1.361c0.202-0.229,0.595-0.697,0.795-0.928
		c0.176-2.022,1.753-3.198,3.179-4.385c1.368-2.013,2.713-4.166,5.002-5.26c0.257-3.078,3.159-4.669,5.223-6.53
		c1.387-2.229,2.782-4.468,4.504-6.451c2.313-2.429,3.607-5.662,4.41-8.866c-1.725,1.836-2.273,4.438-3.945,6.324
		c-1.939,2.138-3.654,4.544-6.022,6.242c-2.364,1.115-3.691,3.512-5.82,4.945c-1.096,0.998-2.948,0.453-3.697,1.95
		c-0.267,0.019-0.786,0.061-1.052,0.081c-0.47,1.76-2.426,2.225-3.854,2.962c-0.761-0.211-1.434-0.651-2.137-0.988
		c-0.232,0.567-0.457,1.143-0.68,1.717c-5.346,0.789-9.473,4.662-14.483,6.361c-2.104,0.565-4.308,0.4-6.453,0.208
		c-0.15-0.371-0.457-1.114-0.613-1.483c-0.595,0.294-1.19,0.586-1.786,0.877c-0.263-0.536-0.533-1.066-0.798-1.599
		c-0.787,0-1.567-0.013-2.352-0.024c0.522-1.38,1.176-2.705,1.781-4.051c-1.201,0.1-2.401,0.199-3.596,0.3
		c0.703-1.5,2.022-2.517,3.213-3.619c-0.405-1.908,0.016-3.817,0.641-5.618c0.027-0.874,0.057-1.742,0.083-2.605
		c-0.406,0.008-1.222,0.023-1.633,0.036c-0.338-0.283-1.021-0.854-1.359-1.138c-0.932,1.354-1.876,2.733-3.151,3.797
		c0.488-1.183,1.159-2.278,1.728-3.422c-1.843-0.472-3.449-1.437-4.373-3.149c0.728-0.684,1.526-1.294,2.203-2.034
		c-1.051-0.996-2.224-2.025-1.534-3.615c-0.453-1.104-0.818-2.246-0.952-3.434c1.004,0.849,1.871,1.847,2.856,2.714
		c1.232,1.172,3.056,1.02,4.617,1.204c1.037-0.553,2.157-0.931,3.325-1.051c-0.004,0.517-0.007,1.56-0.01,2.083
		c3.331,0.482,6.983,0.66,9.991-1.101c2.001-1.246,4.005-2.65,6.413-2.931c1.752-0.165,2.709-1.83,4.132-2.644
		c2.253-0.351,0.724,2.108,1.275,3.338c0.827,1.95,0.327,4.105,0.741,6.146c0.732-0.869,1.473-1.755,1.966-2.785
		c0.234-1.639,0.123-3.333,0.709-4.902c0.724-1.296,2.244-1.8,3.46-2.5c0.484,0.766,1.01,1.522,1.339,2.373
		c0.214,1.433-0.41,2.816-0.714,4.187c0.468,0.259,0.931,0.544,1.419,0.776c2.067-2.128-0.49-5.694,1.794-7.918
		c0.67,2.285,0.8,4.682,1.5,6.963c2.054-2.245,0.59-5.473,0.374-8.135c1.121-1.708,2.687-3.231,2.837-5.4
		c0.801-0.409,1.633-0.772,2.364-1.306c0.142-3.06-0.759-6.134-2.373-8.725c1.947-0.919,3.361-2.533,4.597-4.242
		c1.916,2.081,2.331,5.006,1.902,7.715c-0.359,1.467-1.55,2.482-2.383,3.686c-0.198,1.478,0.226,2.921,0.707,4.303
		c0.729,1.991,0.439,4.401-0.771,6.138c-1.715,1.552-4.22,2.675-4.702,5.18c0.215,0.099,0.658,0.299,0.871,0.396
		c2.334-1.015,4.908-1.515,7.084-2.849c1.944-2.127,1.05-5.283,1.549-7.878c1.056-1.126,2.342-2.307,2.226-4.005
		c-1.741,0.006-2.858,1.726-4.304,2.511c-0.308-1.406-1.287-3.139,0.01-4.342c1.437-0.7,2.841,1.628,4.208,0.128
		c0.576-1.543-1.438-1.199-2.323-1.597c-0.241-2.978-0.743-5.93-1.134-8.883c-0.034-1.251-1.461-1.178-2.334-1.524
		c-0.502-0.743-1.006-1.493-1.499-2.236c-1.478,2.107-3.2,4.035-4.627,6.183c0.277,2.414,0.573,4.835,0.646,7.264
		c-0.357-0.028-1.069-0.086-1.422-0.113c-0.91-2.146-2.704-3.665-4.037-5.521c0.577-1.989,0.676-4.049,0.149-6.076
		c0.819-2.091,3.12-2.355,4.925-3.203c-1.072-1.012-2.162-2.025-3.065-3.201c1.869-1.7,4.297-2.358,6.703-2.902
		c0.835,0.921,1.088,2.228,1.126,3.432c-0.904,0.471-2.035,0.539-2.825,1.167c0.142,1.076,0.65,2.051,0.935,3.089
		c0.688-0.384,1.232-0.969,1.874-1.414c1.32-0.329,2.672-0.557,3.962-1.013c0.194,1.037,0.338,2.083,0.584,3.112
		c2.082-0.647,0.966-2.972,1.023-4.545c1.031,0.389,1.938,1.032,2.367,2.078c0.697,1.476,2.314,2.999,1.429,4.741
		c-1.119,1.266-2.833,1.796-4.135,2.853c0.58,2.061,0.515,4.303,1.553,6.226c0.259-1.543,0.351-3.102,0.497-4.656
		c1.504-1.284,2.535-2.975,3.619-4.602c-0.264-1.122-0.376-2.283-0.697-3.393c-1-1.775-2.422-3.449-2.722-5.522
		c0.513-1.138,1.213-2.179,1.815-3.267c-0.641-1.555-1.781-2.803-2.647-4.223C119.999,85.642,121.022,83.541,121.205,81.305z"/>
	<path fill="#FEFEFE" d="M118.479,81.991c0.609-0.414,1.459,0.071,1.133,0.844c-0.183,1.454-0.713,2.849-1.288,4.187
		C116.393,86.098,116.991,83.02,118.479,81.991z"/>
	<path fill="#FEFEFE" d="M105.551,81.794c0.693-0.316,2.786-1.175,2.369,0.437c-0.207,2.437-2.502,6.282-5.325,4.566
		C102.329,84.918,103.761,82.603,105.551,81.794z"/>
	<path fill="#101010" d="M80.127,81.975c1.508-0.33,0.823,2.033-0.392,1.592C78.726,83.349,79.419,82.083,80.127,81.975z"/>
	<path fill="#FEFEFE" d="M113.938,93.417c-1.498-2.708,0.985-5.205,2.236-7.442c0.629,1.488,0.997,3.072,1.446,4.621
		c0.56-0.267,1.119-0.535,1.671-0.803c0.643,0.595,1.651,1.139,1.328,2.193c-0.339,1.957-1.389,3.707-2.102,5.539
		c-0.472-0.775-1.469-1.465-1.322-2.485c0.149-1.233,0.472-2.49-0.359-3.579C115.898,92.069,115.213,94.927,113.938,93.417z"/>
	<path fill="#FEFEFE" d="M49.672,83.817c1.554-0.388,3.586-0.252,4.696,1.026c-0.893,1.366-3.058,0.864-4.462,0.788
		C48.666,85.79,48.421,83.85,49.672,83.817z"/>
	<path fill="#101010" d="M74.32,85.928c2.791,0.494,6.875-0.817,8.551,2.144c-2.232,0.076-4.476-0.079-6.659-0.583
		C75.285,87.374,74.68,86.749,74.32,85.928z"/>
	<path fill="#FEFEFE" d="M106.884,91.252c0.49,0.221,0.982,0.441,1.471,0.661c-0.287,0.608-0.224,1.66-1.1,1.728
		c-2.933,0.59-5.842,1.389-8.811,1.776c-2.85-0.168-5.883-0.179-8.431-1.638c-2.242-1.009-3.99-2.849-6.348-3.65
		c2.109-0.206,4.168,0.618,6.284,0.442c4.427,0.412,9.178-0.602,13.29,1.545C104.507,92.917,105.733,91.701,106.884,91.252z"/>
	<path fill="#FEFEFE" d="M116.003,95.95c0.67,0.653,1.428,1.366,1.172,2.409C115.585,98.59,115.405,97.084,116.003,95.95z"/>
	<path fill="#101010" d="M134.729,97.98c0.738-0.148,1.48-0.264,2.23-0.345c0.412,1.219,1.814,2.385,1.069,3.735
		c-0.683-0.334-1.24-0.87-1.869-1.277c-0.916,0.004-1.835,0.035-2.752,0.094C133.716,99.386,133.561,98.05,134.729,97.98z"/>
	<path fill="#FEFEFE" d="M97.22,98.156c1.12-0.854,2.376-1.961,3.898-1.666c1.314,0.068,2.354,0.969,3.467,1.569
		c0.108,0.381,0.334,1.155,0.444,1.537c-1.226,1.851-2.713,3.508-4.229,5.125c-1.092,0.015-1.44-1.441-0.47-1.961
		c1.05-0.644-0.398-1.2-0.791-1.552C98.999,100.026,98.099,99.088,97.22,98.156z"/>
	<path fill="#101010" d="M61.918,93.085c0.218,0.015,0.654,0.039,0.878,0.048c0.156,0.842,0.41,1.669,0.543,2.519
		c-0.983,1.193-1.607,2.747-2.885,3.666c-0.9,0.894-1.941-0.869-1.296-1.628C60.117,96.102,62.385,95.359,61.918,93.085z"/>
	<path fill="#101010" d="M134.551,106.358c1.136-1.111,1.813-2.768,3.47-3.224c-0.132,3.106-3.646,4.454-6.147,5.354
		C131.961,106.957,133.692,107.193,134.551,106.358z"/>
	<path fill="#101010" d="M138.417,106.729c0.846-0.627,1.753,0.84,0.788,1.295C138.349,108.645,137.467,107.206,138.417,106.729z"/>
	<path fill="#101010" d="M55.86,107.099c-0.088-1.985,0.445-4.256,2.009-5.631c1.204,0.333,0.11,1.393,0.007,2.073
		c-1.076,1.934,0.752,3.927,1.823,5.45c2.973,1.779,5.603,4.578,9.21,4.868c0.478,0.291,0.923,0.632,1.336,1.02
		c1.192,0.169,2.391,0.325,3.58,0.54c-0.181,0.776-0.361,1.557-0.536,2.331c-1.051,0.368-2.078,0.783-3.093,1.231
		c-0.677-0.497-1.317-1.053-2.04-1.484c-1.608-0.646-3.324,0.04-4.973,0.052c-0.87-0.424-1.66-1.027-2.258-1.785
		c-0.856-1.17-0.776-2.73-1.52-3.958C58.414,110.1,57.123,108.601,55.86,107.099z"/>
	<path fill="#FEFEFE" d="M101.221,107.104c0.291-0.777,1.083-1.018,1.802-1.24c-0.1,0.709-0.248,1.415-0.436,2.104
		C101.97,107.902,101.072,108.01,101.221,107.104z"/>
	<path fill="#FEFEFE" d="M95.648,106.779c1.316-0.252,2.7-1.043,4.041-0.546c0.256,0.726,0.363,1.496,0.518,2.245
		c1.209,2.431,3.917,3.752,4.905,6.257c0.699,2.055-1.945,2.472-3.022,3.58c-0.087,0.857,0.094,1.745-0.122,2.583
		c-0.594,0.821-1.314,1.542-1.976,2.31c0.351,0.639,0.828,1.291,0.593,2.067c-0.324,0.031-0.966,0.094-1.282,0.127
		c-0.445-1.959-1.103-3.857-1.63-5.795c0.318-0.931,0.831-1.781,1.149-2.713c-0.359-2.022-0.891-4.022-1.584-5.953
		C96.799,109.512,95.652,108.329,95.648,106.779z"/>
	<path fill="#101010" d="M80.28,108.394c0.725-0.591,1.19-2.188,2.304-1.303c-0.109,1.265-0.962,2.271-1.854,3.093
		c-1.517,1.365-3.068,2.8-5.056,3.438c0.152-0.757,1.551-1.899,0.398-2.547c-3.512-0.002-7.041,0.312-10.543,0.628
		c0.517-0.794,1.153-1.565,2.119-1.795c2.604-0.794,5.381-1.662,8.1-0.938C77.247,109.338,79.116,109.715,80.28,108.394z"/>
	<path fill="#FEFEFE" d="M79.701,126.212c0.728-0.623,1.379-1.522,2.444-1.541c0.839,0.271,1.521,0.84,2.222,1.35
		c1.607-0.555,3.989-0.792,5.052,0.809c-2.333,1.285-5.112,1.37-7.211,3.077c-0.956-0.285-1.69-1.022-2.536-1.519
		c-1.962,0.595-4.124,0.285-5.96,1.294c-1.736,0.94-3.675-0.112-5.51-0.028c-2.108,0.005-3.226-2.066-4.516-3.403
		c-0.387-1.256,1.469-1.231,2.267-1.589c1.372-0.524,2.291,0.677,3.059,1.592c1.006-1.26,2.498-1.702,4.05-1.31
		c0.484,0.535,0.972,1.063,1.474,1.596c0.945-0.677,1.96-1.245,3.063-1.616C78.292,125.352,78.995,125.786,79.701,126.212z"/>
	<path fill="#FEFEFE" d="M73.691,131.385c1.731-0.745,3.589-1.492,5.513-1.159c-0.001,0.438-0.006,1.319-0.002,1.763
		c-1.839,0.248-3.775,0.999-5.597,0.581C73.628,132.273,73.667,131.682,73.691,131.385z"/>
	<path fill="#101010" d="M101.608,137.457c1.859-1.302,2.908-3.607,5.159-4.345c0.093,1.678-1.322,2.689-2.36,3.761
		c-1.766,1.796-3.84,3.229-5.999,4.497c0.223-0.574,0.682-1.734,0.903-2.313c-2.15,0.744-2.48,3.064-3.457,4.779
		c-0.241,0.113-0.735,0.342-0.98,0.454c-0.345-1.526,1.005-2.899,1.145-4.447c1.748-2.053,3.48-4.136,5.333-6.089
		c0.159,0.098,0.475,0.29,0.626,0.385C102.013,135.266,101.329,136.31,101.608,137.457z"/>
	<path fill="#101010" d="M72.146,141.791c1.422-0.909,2.851-0.085,4.064,0.744C74.843,142.618,72.945,143.334,72.146,141.791z"/>
	<path fill="#FEFEFE" d="M63.467,146.423c0.197-0.848,0.903-1.178,1.722-1.111c0.003,0.394-0.004,1.186-0.008,1.581
		C64.539,146.979,63.787,147.201,63.467,146.423z"/>
	<path fill="#101010" d="M98.171,165.444c0.856-0.204,1.726-0.622,2.585-0.671c0.805,0.185,0.194,0.761-0.03,1.132
		c-1.014,0.714-2.253,0.997-3.435,1.317C97.571,166.62,97.863,166.028,98.171,165.444z"/>
	<path fill="#101010" d="M105.976,166.57c0.503-0.751,1.917,0.053,1.141,0.789C106.601,168.057,105.27,167.313,105.976,166.57z"/>
	<path fill="#101010" d="M102.199,168.192c0.403-0.548,0.581-1.39,1.344-1.566c1.117,0.369,0.515,1.628,0.63,2.478
		C103.507,168.81,102.848,168.504,102.199,168.192z"/>
	<path fill="#FEFEFE" d="M77.617,168.838c0.356-1.038,0.455-2.905,2.015-2.472c0.858,0.896,1.519,1.952,2.335,2.883L77.617,168.838z
		"/>
	<path fill="#101010" d="M92.733,170.265c2.277-0.757,4.622-1.41,7.044-0.998c0.01,0.415,0.034,1.251,0.045,1.668L92.733,170.265z"
		/>
</g>
<g id="Layer_4" display="none">
	
		<rect x="-12.333" y="171.999" transform="matrix(0.866 0.5 -0.5 0.866 113.54 0.5907)" display="inline" fill="none" width="136.001" height="80.333"/>
	
		<text transform="matrix(0.866 0.5 -0.5 0.866 12.6982 150.6924)" display="inline" fill="#FFFFFF" font-family="'QuartzMS'" font-size="12">May the sour</text>
</g>
<g id="Layer_5" display="none">
	
		<rect x="97" y="146" transform="matrix(0.866 -0.5 0.5 0.866 -68.3862 108.4446)" display="inline" fill="none" width="142.334" height="71.666"/>
	
		<text transform="matrix(0.866 -0.5 0.5 0.866 92.8555 193.6953)" display="inline" fill="#FFFFFF" font-family="'QuartzMS'" font-size="12">ce be with you</text>
</g>
<g id="Layer_6" display="none">
	<rect x="27" y="150.334" display="inline" fill="none" width="175.667" height="70"/>
	<text transform="matrix(1 0 0 1 27.0005 158.7344)" display="inline" fill="#FFFFFF" font-family="'QuartzMS'" font-size="12">may the source</text>
</g>
<g id="Layer_7" display="none">
	<rect x="63.333" y="161.334" display="inline" fill="none" width="146" height="69"/>
	<text transform="matrix(1 0 0 1 63.3335 169.7334)" display="inline" fill="#FFFFFF" font-family="'QuartzMS'" font-size="12">be with you</text>
</g>
<g id="Layer_8" display="none">
	<rect x="51.333" y="158" display="inline" fill="none" width="153.667" height="116.666"/>
	<text transform="matrix(1 0 0 1 51.3335 168.0215)" display="inline" fill="#FFFFFF" font-family="'DokChampa'" font-size="14">Airgidfaolchu</text>
</g>
</svg>