<?xml version="1.0" encoding="UTF-8" standalone="no"?>
<svg
   xmlns:osb="http://www.openswatchbook.org/uri/2009/osb"
   xmlns:dc="http://purl.org/dc/elements/1.1/"
   xmlns:cc="http://creativecommons.org/ns#"
   xmlns:rdf="http://www.w3.org/1999/02/22-rdf-syntax-ns#"
   xmlns:svg="http://www.w3.org/2000/svg"
   xmlns="http://www.w3.org/2000/svg"
   id="svg8"
   version="1.1"
   viewBox="0 0 43.900002 50.799999"
   height="50.799999mm"
   width="43.900002mm">
  <defs
     id="defs2">
    <linearGradient
       osb:paint="solid"
       id="linearGradient4541">
      <stop
         id="stop4539"
         offset="0"
         style="stop-color:#000000;stop-opacity:1;" />
    </linearGradient>
    <clipPath
       id="clipPath195"
       clipPathUnits="userSpaceOnUse">
      <g
         id="use197">
        <path
           style="fill:#ff0000;stroke-width:0.26458332"
           d="m -89.219072,129.89278 c -1.365954,-0.12388 -2.643042,-0.31449 -2.837971,-0.42358 -0.369906,-0.20701 -0.17888,-0.55894 7.56789,-13.94269 1.853065,-3.20146 6.017848,-10.40474 9.255078,-16.007291 3.23722,-5.60255 6.90108,-11.91286 8.1419,-14.02291 1.24082,-2.11006 2.61864,-4.49131 3.06181,-5.29167 0.44318,-0.80037 1.91406,-3.339 3.26863,-5.6414 l 2.46286,-4.186189 -0.42808,-0.840894 c -0.23544,-0.462494 -0.85189,-1.436205 -1.3699,-2.16381 -5.55587,-7.803986 -13.03058,-11.556637 -24.999429,-12.55087 -4.615821,-0.383429 -9.326714,-0.351237 -17.778816,0.121494 -14.5439,0.813443 -17.05695,0.915257 -22.6496,0.917604 -14.28426,0.006 -24.29106,-1.891945 -33.81784,-6.414058 -6.84071,-3.247107 -12.69981,-7.682545 -18.25617,-13.820246 l -1.67311,-1.848159 0.1705,-1.856008 c 0.23801,-2.590969 1.6058,-9.133014 2.67627,-12.800451 3.9827,-13.6447353 10.60308,-25.1647963 20.34677,-35.405219 2.5629,-2.693554 7.93099,-7.503393 10.10566,-9.054719 l 0.89103,-0.635635 2.58241,2.644063 c 8.27759,8.475202 18.3597,12.246883 32.74491,12.249748 7.05984,0.0013 13.294052,-0.679127 30.294795,-3.307003 13.52515,-2.09064 19.92722,-2.667884 26.85521,-2.421396 9.32638,0.331817 15.61194,2.096707 21.83562,6.131106 2.76487,1.7922817 7.40726,6.5381527 9.57384,9.78724868 1.95412,2.93047502 4.15932,7.37314102 5.61261,11.30735032 l 0.9516,2.5761 -1.5524,2.715567 c -0.85382,1.493559 -3.19428,5.573067 -5.20103,9.065567 -2.00674,3.492497 -3.85113,6.707187 -4.09866,7.14375 -0.95861,1.690727 -6.60352,11.407812 -10.14443,17.4625 -2.04249,3.492497 -4.08826,7.004843 -4.54617,7.805208 -1.62468,2.839789 -11.16386,19.185861 -17.52492,30.030211 -2.36917,4.03897 -10.87269,18.667791 -11.76559,20.240621 -0.37175,0.65485 -2.25709,3.92906 -4.18964,7.27604 -1.93255,3.34698 -4.01809,6.97839 -4.63452,8.0698 -2.745866,4.86162 -3.546334,6.23786 -3.797109,6.52835 -0.1475,0.17086 -0.956535,0.38363 -1.79786,0.47283 -0.841322,0.0892 -1.827334,0.19639 -2.191136,0.23822 -0.363802,0.0418 -1.779058,-0.0253 -3.145012,-0.14918 z"
           id="path276" />
        <path
           style="fill:#000000;stroke-width:0.26458332"
           d="m -118.41937,125.90004 c -2.43748,-0.29962 -4.43177,-0.65354 -4.43177,-0.78649 0,-0.13295 4.29602,-8.63504 9.54671,-18.89354 5.2507,-10.258491 9.48413,-18.714391 9.40763,-18.790891 -0.23925,-0.23925 -3.35863,-0.82463 -6.6584,-1.24953 -4.00369,-0.51554 -8.32042,-0.83849 -17.98449,-1.34546 -12.1626,-0.63805 -17.56947,-1.2825 -23.37239,-2.78578 -17.33692,-4.49124 -25.8452,-16.095543 -28.21977,-38.488503 -0.62297,-5.87475 -0.92399,-5.714711 3.10727,-1.651963 10.53658,10.618894 22.55232,15.735777 40.28281,17.154382 4.73953,0.379207 17.16529,0.171321 25.26771,-0.422743 8.15248,-0.597731 17.332561,-0.785953 20.9457,-0.429456 3.808415,0.375764 7.525938,1.296731 9.766594,2.419551 2.617931,1.311873 2.566551,0.997368 0.728711,4.460296 -2.748652,5.179155 -8.938978,16.462206 -16.494116,30.063686 -7.059199,12.708641 -13.715389,24.836361 -16.009859,29.170311 -0.63559,1.20055 -1.22198,2.16888 -1.30309,2.15186 -0.0811,-0.017 -2.14178,-0.2761 -4.57925,-0.57573 z"
           id="path278" />
      </g>
    </clipPath>
  </defs>
  <metadata
     id="metadata5">
    <rdf:RDF>
      <cc:Work
         rdf:about="">
        <dc:format>image/svg+xml</dc:format>
        <dc:type
           rdf:resource="http://purl.org/dc/dcmitype/StillImage" />
        <dc:title></dc:title>
      </cc:Work>
    </rdf:RDF>
  </metadata>
  <g
     transform="translate(0,-246.2)"
     id="layer1">
    <path
       transform="matrix(0.42688065,-0.01994286,0.01990022,0.42779545,-49.328054,211.46166)"
       d="m 209.99999,180.05415 -52.68898,27.23083 -49.92708,-32.01458 2.7619,-59.24542 52.68898,-27.230825 49.92708,32.014585 z"
       id="path4596"
       style="fill:#000000;fill-opacity:1;stroke:none;stroke-width:4;stroke-miterlimit:4;stroke-dasharray:none;stroke-dashoffset:0;stroke-opacity:1" />
  </g>
  <g
     id="layer2">
    <path
       transform="matrix(1.3894212,0.09856402,-0.09856402,1.3894212,69.795594,-376.53549)"
       d="M 3.3868034e-8,296.99999 -12.755128,305.62214 l -13.844562,-6.73519 -1.089433,-15.35734 12.755128,-8.62215 13.8445617,6.7352 z"
       id="path5831"
       style="fill:#ffffff;fill-opacity:1;stroke:none;stroke-width:4;stroke-miterlimit:4;stroke-dasharray:none;stroke-dashoffset:0;stroke-opacity:1" />
    <path
       id="path2838-7"
       d="m 19.703424,45.062117 c -0.06776,-0.03792 3.222845,-5.580096 4.641997,-8.031901 0.33947,-0.586486 1.102427,-1.906076 1.695465,-2.932422 0.593035,-1.026347 1.264228,-2.182351 1.491537,-2.568897 0.227309,-0.386548 0.479716,-0.822776 0.560904,-0.969396 0.08119,-0.14662 0.350642,-0.611679 0.598787,-1.033464 l 0.451179,-0.76688 -0.07842,-0.154045 c -0.04313,-0.08473 -0.156061,-0.263104 -0.250955,-0.396394 -1.017796,-1.429636 -2.387111,-2.117094 -4.579718,-2.29923 -0.845585,-0.07024 -1.708587,-0.06434 -3.256952,0.02226 -2.664338,0.149018 -3.124711,0.167669 -4.149243,0.1681 -2.616775,0.0011 -4.449948,-0.346592 -6.195185,-1.175011 C 9.2723977,24.352437 7.613187,23.112346 6.2848702,21.709444 5.6207119,21.007993 3.9450484,18.390272 3.9450484,18.390272 l -0.022763,-0.873094 -0.011056,-2.459152 c 8.7657166,-5.0899987 0,0 8.7657166,-5.0899987 0.40829,0.8938177 0.533907,1.0552307 1.041454,1.6247007 1.516394,1.552596 3.363364,2.243541 5.998632,2.244066 1.293311,2.38e-4 2.435375,-0.124411 5.549789,-0.605819 2.47771,-0.38299 3.650523,-0.488737 4.919681,-0.443583 1.708526,0.06079 2.859996,0.384102 4.000129,1.123175 0.506505,0.328333 1.356957,1.197743 1.753859,1.792954 0.357981,0.536842 0.761957,1.350706 1.02819,2.071425 l 0.174325,0.471923 -0.284387,0.497473 c -0.156414,0.273609 -0.58517,1.020945 -0.952792,1.660746 -0.36762,0.639801 -0.705499,1.228709 -0.750845,1.308684 -0.17561,0.309729 -1.209717,2.089829 -1.858387,3.199005 -0.374169,0.6398 -0.74894,1.283238 -0.832823,1.429858 -0.297632,0.520229 -2.045141,3.514711 -3.21044,5.501319 -2.812506,4.679368 -5.544782,9.768979 -8.265718,14.019657 -0.578739,-0.415552 -1.284189,-0.801494 -1.284189,-0.801494 z"
       style="fill:#ff0000;stroke-width:0.04846977" />
    <path
       style="fill:#000000;stroke-width:0.04846977"
       d="m 15.362851,42.550192 c 0,-0.02436 2.74193,-5.345573 3.70382,-7.224857 0.96189,-1.879284 1.737423,-3.428344 1.723409,-3.442358 -0.04383,-0.04383 -0.615277,-0.151066 -1.219771,-0.228905 -0.733446,-0.09444 -1.52424,-0.153605 -3.294628,-0.246479 C 14.047578,31.290707 13.057079,31.17265 11.994026,30.897258 8.8180267,30.074496 5.6446924,28.105126 4.142676,24.263061 3.9394514,23.743225 3.8795907,23.171937 3.8970351,21.464685 l 0.020793,-2.034972 0.677257,0.93305 c 0.4326882,0.59611 3.2393186,5.625242 10.1780329,6.323611 0.868247,0.06947 3.144559,0.03139 4.628863,-0.07745 1.493476,-0.1095 3.175201,-0.143981 3.837102,-0.07867 0.697674,0.06884 1.378698,0.237551 1.789169,0.443244 0.479587,0.240325 0.470175,0.182711 0.133497,0.817095 -0.503534,0.948783 -1.637559,3.015757 -3.021605,5.50745 -1.293195,2.328134 -2.51256,4.549843 -2.932891,5.343792 -0.116435,0.219932 -2.452845,4.654323 -2.467704,4.651203 z"
       id="path2834-5" />
  </g>
  <g
     id="layer3" />
</svg>
