<svg xmlns:rdf="http://www.w3.org/1999/02/22-rdf-syntax-ns#" xmlns="http://www.w3.org/2000/svg" height="144" width="125" version="1.1" xmlns:cc="http://creativecommons.org/ns#" xmlns:dc="http://purl.org/dc/elements/1.1/" viewBox="0 0 125 144.00101">
 <path fill="#ffeb3b" d="m62.5 0-62.5 36v72.001l62.5 36 62.5-36v-72z"/>
 <g fill="#212121" transform="translate(-36.713,-27.212)">
  <path d="m70.053 114.01q-0.2-0.44-0.56-1.28t-0.84-1.92q-0.44-1.12-1-2.4-0.52-1.32-1.08-2.72h-10.24l-3.44 8.32h-4.32l12.92-30.36q0.24 0.56 0.84 2.04 0.64 1.48 1.48 3.56 0.88 2.04 1.92 4.56 1.08 2.48 2.16 5.04 1.12 2.56 2.16 5.04 1.08 2.48 1.96 4.56t1.48 3.56q0.64 1.44 0.88 2h-4.32zm-12.2-12h7.24q-0.56-1.32-1.08-2.52-0.48-1.24-0.92-2.24-0.4-1.04-0.72-1.8t-0.48-1.2q-0.04-0.08-0.2-0.56-0.12-0.48-0.2-0.88-0.08 0.4-0.24 0.88t-0.2 0.56l-3.2 7.76z"/>
  <path d="m82.353 99.532h3.96q1.6 0 2.68-0.56t1.68-1.36q0.64-0.8 0.88-1.72 0.28-0.92 0.28-1.64 0-0.76-0.28-1.64-0.24-0.92-0.88-1.68-0.64-0.8-1.72-1.32-1.04-0.52-2.6-0.52h-4v10.44zm-4.4 14.48v-29h7.92q2.28 0 4.16 0.6 1.92 0.6 3.28 1.8 1.4 1.16 2.16 2.88 0.76 1.68 0.76 3.88 0 1.72-0.52 3.44-0.52 1.68-1.68 3.04-1.16 1.32-3.04 2.16t-4.56 0.84h-4.08v10.36h-4.4z"/>
  <path d="m101 85.012h4.36v29h-4.36v-29z"/>
  <path d="m111.12 100.77q0-0.96 0.68-1.6 0.72-0.68 1.56-0.68 0.8 0 1.48 0.68 0.72 0.64 0.72 1.6 0 1.04-0.72 1.68-0.68 0.6-1.48 0.6-0.84 0-1.56-0.6-0.68-0.64-0.68-1.68zm0 11q0-0.96 0.68-1.6 0.72-0.68 1.56-0.68 0.8 0 1.48 0.68 0.72 0.64 0.72 1.6 0 1.04-0.72 1.64-0.68 0.6-1.48 0.6-0.84 0-1.56-0.6-0.68-0.6-0.68-1.64z"/>
  <path d="m118.99 114.77 11.28-30.6h3.72q-2.88 7.68-5.68 15.32-2.76 7.6-5.64 15.28h-3.68z"/>
  <path d="m134.85 114.77 11.28-30.6h3.72q-2.88 7.68-5.68 15.32-2.76 7.6-5.64 15.28h-3.68z"/>
 </g>
</svg>
