<?xml version="1.0" encoding="UTF-8" standalone="no"?>
<svg width="181px" height="209px" viewBox="0 0 181 209" version="1.1" xmlns="http://www.w3.org/2000/svg" xmlns:xlink="http://www.w3.org/1999/xlink" xmlns:sketch="http://www.bohemiancoding.com/sketch/ns">
    <!-- Generator: Sketch 3.3.3 (12081) - http://www.bohemiancoding.com/sketch -->
    <title>apis_and_ipas copy</title>
    <desc>Created with Sketch.</desc>
    <defs></defs>
    <g id="Page-1" stroke="none" stroke-width="1" fill="none" fill-rule="evenodd" sketch:type="MSPage">
        <g id="apis_and_ipas" sketch:type="MSLayerGroup">
            <g id="Page-1">
                <g id="Icon">
                    <path d="M180.183595,52.2593277 L180.183595,156.730818 L90.1096735,208.966563 L0.0357349171,156.730818 L0.0357349171,52.2593277 L90.1096735,0.0235829293 L180.183595,52.2593277 L180.183595,52.2593277 Z" id="outline" stroke-opacity="0" stroke="#FFFFFF" stroke-width="5.86025493" stroke-dasharray="12,4" fill="#DC3E33" sketch:type="MSShapeGroup"></path>
                    <path d="M180.183595,52.2593277 L180.183595,156.730818 L90.1096735,208.966563 L0.0357349171,156.730818 L90.1096724,104.495073 L180.183595,52.2593277 L180.183595,52.2593277 Z" id="outline-copy" stroke-opacity="0" stroke="#FFFFFF" stroke-width="5.86025493" stroke-dasharray="12,4" fill="#CF372C" sketch:type="MSShapeGroup"></path>
                    <g id="Two-pints" transform="translate(26.672655, 55.157810)" sketch:type="MSShapeGroup">
                        <path d="M62.8821578,119.995788 L62.8684734,119.995788 L62.8821578,119.995788 M62.824104,119.995788 L62.8055898,119.995788 L62.824104,119.995788 M62.761874,119.995788 L62.7489945,119.995788 L62.761874,119.995788 M62.700874,119.99508 L62.6896045,119.99508 L62.700874,119.99508 M62.6352115,119.99508 L62.6344066,119.99508 L62.6352115,119.99508 M132.81111,49.2661553 L132.81111,49.2013809 L132.81111,49.2661553 M132.81111,49.1931668 L132.81111,49.1462053 L132.81111,49.1931668 M132.81111,49.1211926 L132.81111,49.0896151 L132.81111,49.1211926 M132.810412,49.0612614 L132.810412,49.0337322 L132.810412,49.0612614 M132.810412,49.0004181 L132.810412,48.9785568 L132.810412,49.0004181 M132.810412,48.9354242 L132.810412,48.9240886 L132.810412,48.9354242 M132.809712,48.8787316 L132.809712,48.8682058 L132.809712,48.8787316 M132.809712,48.8185957 L132.809712,48.8137376 L132.809712,48.8185957" id="Fill-42" fill="#E5E5E1"></path>
                        <path d="M114.200358,54.8490881 L109.193426,49.5211158 C116.150448,42.8215372 119.314193,37.765198 118.346484,34.899609 L112.662505,18.0887669 C112.511584,17.6431187 112.370446,17.2222286 111.13583,17.6501924 L101.216292,21.0873429 L98.864445,14.1309861 L108.784683,10.6938355 C113.55685,9.04069275 117.976169,11.1027002 119.534286,15.7084394 L125.217566,32.5185742 C127.283641,38.633151 123.885831,45.5201849 114.200358,54.8490881" id="Fill-44" fill="#FFFFFF"></path>
                        <path d="M59.7948626,18.4092092 L74.9791565,74.4583181 C75.790355,76.8591598 78.3713775,78.1402221 80.7448842,77.3182482 L116.532641,64.9186164 C118.904751,64.0966429 120.170109,61.483588 119.357513,59.0806243 L97.5515749,5.32695733 L59.7948626,18.4092092" id="Fill-45" fill="#FFFFFF"></path>
                        <path d="M60.6039649,13.6308697 L75.5248464,70.8903031 C76.2857381,73.1376434 78.699071,74.3345273 80.9188622,73.5670221 L114.405778,61.9631903 C116.62557,61.1949777 117.809178,58.7502788 117.048985,56.5029383 L94.3214536,1.94922659 L60.6039649,13.6308697" id="Fill-46" fill="#EEA32D"></path>
                        <path d="M92.9247392,43.7595206 C92.006639,43.7595206 91.2590227,43.0096998 91.2520359,42.0780827 C91.2450482,41.1422214 91.9884721,40.3775456 92.9121628,40.3704718 L92.9247392,40.3704718 C93.190947,40.3704718 93.4431793,40.4334285 93.6667659,40.5451942 L94.4311511,42.8066822 C94.1614504,43.3669257 93.595498,43.754569 92.9373156,43.7595206 L92.9247392,43.7595206" id="Fill-47" fill="#F3B43D"></path>
                        <path d="M76.2577898,18.5867611 C75.3389905,18.5867611 74.5913743,17.8362329 74.5836886,16.9053232 C74.5767015,15.9694619 75.3208241,15.2047861 76.2459118,15.1977123 L76.2584885,15.1977123 C77.1765891,15.1977123 77.9242053,15.9475332 77.9311923,16.8791503 C77.9388781,17.8157189 77.1947555,18.5796874 76.2710652,18.5867611 L76.2577898,18.5867611" id="Fill-48" fill="#F3B43D"></path>
                        <path d="M87.9157109,23.5313345 C87.1052115,23.4195688 86.4770739,22.718557 86.4714843,21.8654589 C86.4672918,21.4000041 86.6496544,20.9762845 86.9480018,20.6678677 L87.9157109,23.5313345" id="Fill-49" fill="#F3B43D"></path>
                        <path d="M94.4912397,50.8729154 C93.8658973,50.8729154 93.3565398,50.3628958 93.3516487,49.7276702 C93.3467586,49.0903225 93.8533209,48.5711069 94.4821563,48.5661552 L94.4926369,48.5661552 C95.1179793,48.5661552 95.6266383,49.0768823 95.6315293,49.7106932 C95.6364204,50.3480409 95.1305566,50.8679638 94.5003232,50.8729154 L94.4912397,50.8729154" id="Fill-50" fill="#F3B43D"></path>
                        <path id="Fill-51" fill="#D6594E" d="M106.608212,27.6525197 L106.20925,26.6685567 C106.453797,26.878648 106.610307,27.1906018 106.613103,27.540754 C106.613103,27.5789524 106.611704,27.6157361 106.608212,27.6525197"></path>
                        <path d="M105.472813,28.7029763 L105.467223,28.7029763 L104.652532,26.7477831 C104.857951,26.5327401 105.145119,26.3983382 105.46373,26.3962161 L105.472813,26.3962161 C105.752994,26.3962161 106.010119,26.498786 106.20925,26.6685567 L106.608212,27.6525197 C106.557205,28.2382288 106.0737,28.698732 105.481896,28.7029763 L105.472813,28.7029763" id="Fill-52" fill="#FFFFFE"></path>
                        <path d="M105.467223,28.7029763 C104.843977,28.7001468 104.337414,28.1908345 104.332523,27.5584384 C104.330428,27.2436551 104.452701,26.957167 104.652532,26.7477831 L105.467223,28.7029763" id="Fill-53" fill="#F3B43D"></path>
                        <path d="M98.4724703,62.0997143 C97.8471279,62.0997143 97.3363732,61.5889873 97.3314822,60.9544691 C97.3272906,60.3157067 97.8331534,59.7971985 98.4626883,59.7922468 L98.4717717,59.7922468 C99.0978127,59.7922468 99.6064717,60.3015591 99.6113627,60.9367847 C99.6162538,61.573425 99.1103901,62.0947627 98.4801566,62.0997143 L98.4724703,62.0997143" id="Fill-54" fill="#F3B43D"></path>
                        <path d="M102.944892,31.9830889 L102.06522,29.8616617 C102.663313,30.0561907 103.09721,30.6213859 103.102101,31.2926877 C103.104197,31.5409776 103.047602,31.7758271 102.944892,31.9830889" id="Fill-55" fill="#F3B43D"></path>
                        <path d="M80.764448,36.5852913 C79.9420702,36.5852913 79.2734079,35.9154041 79.2671195,35.0821126 C79.2608312,34.2445768 79.9246025,33.5619569 80.7525699,33.5548831 L80.7637493,33.5548831 C81.5854284,33.5548831 82.2547893,34.2254776 82.2610777,35.0594765 C82.2673661,35.8963049 81.602896,36.5789248 80.7756273,36.5852913 L80.764448,36.5852913" id="Fill-56" fill="#F3B43D"></path>
                        <path d="M83.687138,47.005679 C83.4935962,47.005679 83.3126317,46.9526257 83.1568197,46.8613739 L82.7096474,45.5378693 C82.8647603,45.1495187 83.2392671,44.8743486 83.6780546,44.8715191 L83.6864394,44.8715191 C84.2656668,44.8715191 84.7365956,45.3433403 84.7414867,45.9304642 C84.7456791,46.5204176 84.2775455,47.0007274 83.6948234,47.005679 L83.687138,47.005679" id="Fill-57" fill="#F3B43D"></path>
                        <path d="M88.548041,33.1530924 C88.2364177,33.1530924 87.9827872,32.8991436 87.9806905,32.5829456 C87.9778962,32.2653328 88.2301294,32.0064323 88.5438485,32.0036028 L88.5487396,32.0036028 C88.8603629,32.0036028 89.1132947,32.2575516 89.1160891,32.5737496 C89.1181849,32.8920698 88.8659525,33.1509702 88.5522325,33.1530924 L88.548041,33.1530924" id="Fill-58" fill="#F3B43D"></path>
                        <path d="M81.2060306,70.120675 C79.7087022,70.120675 78.3098914,69.1685444 77.7970407,67.6540477 L65.1434624,19.0932439 L72.8662675,16.4186471 L82.7096474,45.5378693 C82.6593405,45.6637826 82.632091,45.8017214 82.6327897,45.9467339 C82.6355845,46.337914 82.8458953,46.6774555 83.1568197,46.8613739 L90.0523562,67.2614528 L82.3714734,69.9240243 C81.9857873,70.0570116 81.5924154,70.120675 81.2060306,70.120675 M82.696372,59.3720642 L82.6823978,59.3720642 C81.7573102,59.379138 81.0131876,60.1431063 81.0208733,61.0803825 C81.0271617,62.0105847 81.7740792,62.7604056 82.6921797,62.7604056 L82.7075513,62.7604056 C83.6312418,62.7533318 84.3753643,61.9893633 84.367678,61.0542095 C84.3606912,60.1225924 83.6137735,59.3720642 82.696372,59.3720642 M74.0624533,44.3183494 L74.0491779,44.3183494 C73.1254876,44.3254232 72.3820637,45.0893915 72.3883521,46.0259603 C72.3960379,46.9568699 73.143654,47.7066908 74.0624533,47.7066908 L74.0743314,47.7066908 C75.0001177,47.699617 75.7435416,46.9356486 75.7358559,45.9997873 C75.7288688,45.0681702 74.9819513,44.3183494 74.0624533,44.3183494 M75.6177745,29.0637391 L75.60939,29.0637391 C74.9784579,29.0679835 74.4725942,29.5879064 74.4774852,30.2259615 C74.4816773,30.8604798 74.9910345,31.3704994 75.6170757,31.3704994 L75.6261589,31.3704994 C76.254995,31.3655477 76.7615573,30.8456248 76.7566663,30.2082771 C76.7517754,29.5737588 76.2424182,29.0637391 75.6177745,29.0637391" id="Fill-59" fill="#F3B43D"></path>
                        <path d="M82.6921797,62.7604056 C81.7740792,62.7604056 81.0271617,62.0105847 81.0208733,61.0803825 C81.0131876,60.1431063 81.7573102,59.379138 82.6823978,59.3720642 L82.696372,59.3720642 C83.6137735,59.3720642 84.3606912,60.1225924 84.367678,61.0542095 C84.3753643,61.9893633 83.6312418,62.7533318 82.7075513,62.7604056 L82.6921797,62.7604056" id="Fill-60" fill="#F6C15D"></path>
                        <path d="M74.0624533,47.7066908 C73.143654,47.7066908 72.3960379,46.9568699 72.3883521,46.0259603 C72.3820637,45.0893915 73.1254876,44.3254232 74.0491779,44.3183494 L74.0624533,44.3183494 C74.9819513,44.3183494 75.7288688,45.0681702 75.7358559,45.9997873 C75.7435416,46.9356486 75.0001177,47.699617 74.0743314,47.7066908 L74.0624533,47.7066908" id="Fill-61" fill="#F6C15D"></path>
                        <path d="M75.6170757,31.3704994 C74.9910345,31.3704994 74.4816773,30.8604798 74.4774852,30.2259615 C74.4725942,29.5879064 74.9784579,29.0679835 75.60939,29.0637391 L75.6177745,29.0637391 C76.2424182,29.0637391 76.7517754,29.5737588 76.7566663,30.2082771 C76.7615573,30.8456248 76.254995,31.3655477 75.6261589,31.3704994 L75.6170757,31.3704994" id="Fill-62" fill="#F6C15D"></path>
                        <path d="M83.1568197,46.8613739 C82.8458953,46.6774555 82.6355845,46.337914 82.6327897,45.9467339 C82.632091,45.8017214 82.6593405,45.6637826 82.7096474,45.5378693 L83.1568197,46.8613739" id="Fill-63" fill="#F6C15D"></path>
                        <path d="M101.372104,63.3390409 L94.4311511,42.8066822 C94.5408477,42.5789064 94.6009364,42.3228355 94.5988406,42.0519097 C94.5939496,41.3905112 94.2152508,40.8203644 93.6667659,40.5451942 L87.9157109,23.5313345 C87.989774,23.5419452 88.0659329,23.5468969 88.1427904,23.5468969 L88.1567649,23.5468969 C89.0818528,23.5398231 89.8252767,22.7758546 89.8189885,21.8399933 C89.8113022,20.9083762 89.0636859,20.157848 88.1441885,20.157848 L88.1316112,20.157848 C87.6669715,20.161385 87.2484459,20.3566213 86.9480018,20.6678677 L84.1853164,12.4962351 L93.5228321,9.26068737 L102.06522,29.8616617 C101.920588,29.8142675 101.766174,29.7888018 101.60617,29.7888018 C101.602676,29.7888018 101.598485,29.7888018 101.594292,29.7895092 C100.766325,29.7951682 100.101855,30.4784955 100.108143,31.3160313 C100.11513,32.1493227 100.783093,32.8199173 101.605471,32.8199173 L101.616651,32.8199173 C102.199372,32.8149656 102.701043,32.475424 102.944892,31.9830889 L113.202605,56.7229329 C113.166971,58.2041828 112.23839,59.5750817 110.771805,60.0822718 L101.372104,63.3390409 M101.773161,53.0205156 L101.759186,53.0205156 C100.835497,53.0275894 100.092073,53.7915578 100.098361,54.7281265 C100.106046,55.6583288 100.852964,56.408857 101.770366,56.408857 L101.78434,56.408857 C102.710127,56.4017833 103.453551,55.6378148 103.445865,54.7026609 C103.439576,53.7703364 102.691961,53.0205156 101.773161,53.0205156 M97.148421,32.8538714 L97.1442295,32.8538714 C96.8312081,32.8559935 96.5782762,33.1156013 96.5810715,33.4332141 C96.5831672,33.7494121 96.8374972,34.0033609 97.148421,34.0033609 L97.153312,34.0033609 C97.467032,34.0012388 97.7185658,33.7423383 97.71647,33.4247256 C97.7136748,33.1085276 97.4607429,32.8538714 97.148421,32.8538714 M94.2501857,29.4987767 L94.2452947,29.4987767 C93.9322742,29.5008989 93.6800409,29.7597993 93.6821376,30.077412 C93.6849319,30.3936102 93.9392619,30.6482663 94.2501857,30.6482663 L94.2543781,30.6482663 C94.5680972,30.6454367 94.8203305,30.3865364 94.8175361,30.0689235 C94.8154395,29.7527255 94.561809,29.4987767 94.2501857,29.4987767" id="Fill-64" fill="#F3B43D"></path>
                        <path d="M94.4311511,42.8066822 L93.6667659,40.5451942 C94.2152508,40.8203644 94.5939496,41.3905112 94.5988406,42.0519097 C94.6009364,42.3228355 94.5408477,42.5789064 94.4311511,42.8066822" id="Fill-65" fill="#F6C15D"></path>
                        <path d="M101.770366,56.408857 C100.852964,56.408857 100.106046,55.6583288 100.098361,54.7281265 C100.092073,53.7915578 100.835497,53.0275894 101.759186,53.0205156 L101.773161,53.0205156 C102.691961,53.0205156 103.439576,53.7703364 103.445865,54.7026609 C103.453551,55.6378148 102.710127,56.4017833 101.78434,56.408857 L101.770366,56.408857" id="Fill-66" fill="#F6C15D"></path>
                        <path d="M88.1427904,23.5468969 C88.0659329,23.5468969 87.989774,23.5419452 87.9157109,23.5313345 L86.9480018,20.6678677 C87.2484459,20.3566213 87.6669715,20.161385 88.1316112,20.157848 L88.1441885,20.157848 C89.0636859,20.157848 89.8113022,20.9083762 89.8189885,21.8399933 C89.8252767,22.7758546 89.0818528,23.5398231 88.1567649,23.5468969 L88.1427904,23.5468969" id="Fill-67" fill="#F6C15D"></path>
                        <path d="M101.605471,32.8199173 C100.783093,32.8199173 100.11513,32.1493227 100.108143,31.3160313 C100.101855,30.4784955 100.766325,29.7951682 101.594292,29.7895092 C101.598485,29.7888018 101.602676,29.7888018 101.60617,29.7888018 C101.766174,29.7888018 101.920588,29.8142675 102.06522,29.8616617 L102.944892,31.9830889 C102.701043,32.475424 102.199372,32.8149656 101.616651,32.8199173 L101.605471,32.8199173" id="Fill-68" fill="#F6C15D"></path>
                        <path d="M94.2501857,30.6482663 C93.9392619,30.6482663 93.6849319,30.3936102 93.6821376,30.077412 C93.6800409,29.7597993 93.9322742,29.5008989 94.2452947,29.4987767 L94.2501857,29.4987767 C94.561809,29.4987767 94.8154395,29.7527255 94.8175361,30.0689235 C94.8203305,30.3865364 94.5680972,30.6454367 94.2543781,30.6482663 L94.2501857,30.6482663" id="Fill-69" fill="#F6C15D"></path>
                        <path d="M97.148421,34.0033609 C96.8374972,34.0033609 96.5831672,33.7494121 96.5810715,33.4332141 C96.5782762,33.1156013 96.8312081,32.8559935 97.1442295,32.8538714 L97.148421,32.8538714 C97.4607429,32.8538714 97.7136748,33.1085276 97.71647,33.4247256 C97.7185658,33.7423383 97.467032,34.0012388 97.153312,34.0033609 L97.148421,34.0033609" id="Fill-70" fill="#F6C15D"></path>
                        <path d="M70.4683061,14.5660236 C68.8473065,9.76929229 63.6915499,7.21212018 58.952921,8.85323754 C54.2156897,10.4950623 51.6884675,15.7148058 53.3108645,20.5108298 C54.9325627,25.3082685 60.0876207,27.8654405 64.8255508,26.2236158 C69.5634809,24.5824984 72.090703,19.362755 70.4683061,14.5660236" id="Fill-71" fill="#F9FAFB"></path>
                        <path d="M81.3283043,10.8034791 C79.9825952,6.82376954 75.7051128,4.70092771 71.7734902,6.06263067 C67.8418677,7.42504101 65.7457476,11.7563175 67.0907579,15.7367345 C68.4371657,19.716444 72.7146482,21.8399933 76.6462707,20.4768756 C80.5778933,19.1151727 82.6747121,14.7838961 81.3283043,10.8034791" id="Fill-72" fill="#F9FAFB"></path>
                        <path d="M72.1941116,7.3054941 C71.0433417,3.90441986 67.3877082,2.09070226 64.0269291,3.25433936 C60.6668486,4.41868384 58.8760633,8.12039377 60.0261346,11.5221754 C61.1762058,14.923957 64.8318392,16.738382 68.1919197,15.5740375 C71.5520002,14.409693 73.3434841,10.7079831 72.1941116,7.3054941" id="Fill-73" fill="#F9FAFB"></path>
                        <path d="M90.6211029,5.4167944 C89.2229914,1.28358376 84.780614,-0.921313964 80.6980708,0.49344234 C76.6148289,1.90819874 74.4383576,6.40641643 75.8350722,10.5389197 C77.233883,14.6728377 81.6755615,16.8770281 85.7574056,15.4622718 C89.8406484,14.0475154 92.0178182,9.55071241 90.6211029,5.4167944" id="Fill-74" fill="#F9FAFB"></path>
                        <path d="M99.2941498,4.57855132 C98.165738,1.2404337 94.5771807,-0.540037116 91.2792854,0.602378596 C87.9820877,1.74479431 86.2234434,5.37788856 87.3518543,8.71600618 C88.4809646,12.0555385 92.0688234,13.835302 95.3667196,12.6928863 C98.664615,11.5504705 100.422561,7.91737622 99.2941498,4.57855132" id="Fill-75" fill="#F9FAFB"></path>
                        <path d="M101.838839,3.91715271 C101.010173,1.46750212 98.3781454,0.16097461 95.9585234,0.999217779 C93.5389023,1.83675349 92.2490902,4.50286185 93.077057,6.95251244 C93.9050247,9.40145567 96.5370531,10.7072757 98.9566742,9.86974001 C101.376994,9.03078947 102.666108,6.36609594 101.838839,3.91715271" id="Fill-76" fill="#F9FAFB"></path>
                        <path d="M104.573577,10.8020644 C103.675739,8.1479815 100.825016,6.73181045 98.2027696,7.64079141 C95.5819213,8.54835753 94.185206,11.4358753 95.0809477,14.0899581 C95.9794847,16.7433337 98.8302087,18.1587973 101.451057,17.2498164 C104.073303,16.3415429 105.470717,13.4547325 104.573577,10.8020644" id="Fill-77" fill="#F9FAFB"></path>
                        <path d="M100.092073,14.0050728 C99.3668149,11.8610095 97.0645767,10.7185937 94.9467969,11.452145 C92.8297156,12.1849887 91.7013039,14.5179219 92.4258632,16.6612778 C93.1504215,18.8039262 95.4540578,19.9470493 97.5704404,19.2142055 C99.6875216,18.479947 100.815933,16.1477212 100.092073,14.0050728" id="Fill-78" fill="#F9FAFB"></path>
                        <path d="M103.581414,19.6046783 C102.922533,17.6600958 100.835497,16.6252015 98.9154502,17.2908443 C96.9968018,17.9550724 95.9731965,20.0687184 96.631378,22.0118862 C97.2867652,23.9543467 99.3751997,24.9920705 101.294547,24.3264276 C103.213894,23.6614921 104.236102,21.5471388 103.581414,19.6046783" id="Fill-79" fill="#F9FAFB"></path>
                        <path d="M10.5961293,67.246598 L15.9007105,62.2227982 C9.34195076,55.1235509 6.47375979,49.8896598 7.60566459,47.0863201 L14.2468718,30.6390704 C14.4222471,30.202618 14.589238,29.7909239 15.7952058,30.2910403 L25.5023379,34.3075335 L28.2496527,27.5018482 L18.5446167,23.4846475 C13.8744611,21.5527978 9.34334821,23.3509531 7.52391598,27.856952 L0.882708787,44.3034944 C-1.53272026,50.2857915 1.46333405,57.3616954 10.5961293,67.246598" id="Fill-80" fill="#FFFFFF"></path>
                        <path d="M67.0055157,34.0776356 L48.6218438,89.1350005 C47.6723014,91.4849104 45.0221069,92.6110564 42.7030994,91.6497303 L7.68811197,77.159088 C5.36700837,76.1991759 4.25466733,73.5160903 5.20281228,71.1675953 L30.0669888,18.790486 L67.0055157,34.0776356" id="Fill-81" fill="#FFFFFF"></path>
                        <path d="M66.5101327,29.5383899 L48.3905719,85.6023541 C47.5067079,87.7916898 45.0367798,88.841439 42.8728851,87.9451903 L10.2376927,74.4413408 C8.07589419,73.545093 7.03831478,71.0445116 7.92287743,68.8537612 L33.6520528,15.9404594 L66.5101327,29.5383899" id="Fill-82" fill="#EEA32D"></path>
                        <path d="M34.0440273,80.6365588 C33.1245293,80.6365588 32.3769132,79.8881527 32.3692273,78.9565363 C32.3622403,78.0199673 33.1063629,77.2545839 34.0314506,77.2475102 L34.0440273,77.2475102 C34.5422052,77.2475102 34.9907749,77.4689198 35.2975071,77.8204868 L34.16141,80.6323149 C34.1271734,80.6351448 34.092238,80.6365588 34.056604,80.6365588 L34.0440273,80.6365588" id="Fill-83" fill="#F3B43D"></path>
                        <path id="Fill-84" fill="#F3B43D" d="M42.620652,59.6826031 C42.661177,59.4130921 42.7645856,59.1640949 42.9155062,58.9518815 L42.620652,59.6826031"></path>
                        <path d="M53.6036225,74.2142725 L54.4777046,71.596974 C54.6747399,71.8728513 54.7928214,72.2109779 54.7956162,72.5781072 C54.8012059,73.3484424 54.2981371,74.0034744 53.6036225,74.2142725" id="Fill-85" fill="#D6594E"></path>
                        <path d="M53.1208163,74.2857184 C52.7588862,74.2857184 52.4235069,74.1690004 52.149614,73.9709348 L53.1431748,70.8966689 C53.6916596,70.9037426 54.1772607,71.177498 54.4777046,71.596974 L53.6036225,74.2142725 C53.454798,74.2595455 53.2968904,74.2843035 53.1340916,74.2857184 L53.1208163,74.2857184" id="Fill-86" fill="#FFFFFE"></path>
                        <path d="M52.149614,73.9709348 C51.7282938,73.6660548 51.4523046,73.1680601 51.4474137,72.6042801 C51.4411253,71.6677111 52.1845493,70.9037426 53.1082395,70.8966689 L53.1215149,70.8966689 L53.1431748,70.8966689 L52.149614,73.9709348" id="Fill-87" fill="#F3B43D"></path>
                        <path d="M27.3329495,36.4402787 C26.5434109,36.3087064 25.9397283,35.6183053 25.9327412,34.7814769 C25.9257542,33.8449082 26.6698768,33.0809398 27.5949645,33.073866 L27.6075412,33.073866 C28.046329,33.073866 28.4459892,33.2450515 28.744337,33.5251733 L27.3329495,36.4402787" id="Fill-88" fill="#F3B43D"></path>
                        <path d="M39.4925421,41.4230505 C38.5744415,41.4230505 37.8268253,40.6732296 37.820537,39.7416126 C37.8198383,39.6715822 37.8233318,39.6022591 37.8310176,39.5336434 L38.1726851,38.6883265 C38.4759238,38.2936095 38.9482496,38.0382459 39.4806641,38.0340017 L39.4925421,38.0340017 C40.4120401,38.0340017 41.160355,38.7838226 41.167342,39.716147 C41.1750279,40.6520083 40.4309052,41.4159768 39.5058176,41.4230505 L39.4925421,41.4230505" id="Fill-89" fill="#F3B43D"></path>
                        <path d="M49.4665802,32.9359273 C48.8412377,32.9359273 48.3318805,32.4252003 48.3269896,31.790682 C48.3220986,31.1533343 48.8293597,30.6334113 49.4581958,30.6284597 L49.4665802,30.6284597 C50.0933201,30.6284597 50.6019786,31.1391867 50.6061708,31.7737049 C50.6110618,32.4110527 50.1058968,32.9309756 49.4749647,32.9359273 L49.4665802,32.9359273" id="Fill-90" fill="#F3B43D"></path>
                        <path d="M50.2344589,79.8966413 L50.7822449,78.2010565 C50.894038,78.377901 50.9590177,78.5872851 50.9604152,78.8129385 C50.9646074,79.3052735 50.6627661,79.7282855 50.2344589,79.8966413" id="Fill-91" fill="#FFFFFE"></path>
                        <path d="M49.8187284,79.9751609 C49.1940846,79.9751609 48.6854261,79.4644337 48.6812339,78.8313297 C48.6763429,78.1925679 49.1822066,77.6733521 49.8117413,77.6676933 L49.8187284,77.6676933 C50.2239782,77.6676933 50.57962,77.8799063 50.7822449,78.2010565 L50.2344589,79.8966413 C50.1086916,79.9461582 49.9717451,79.973746 49.8285103,79.9751609 L49.8187284,79.9751609" id="Fill-92" fill="#F3B43D"></path>
                        <path d="M39.857267,55.1341615 C39.0348892,55.1341615 38.3669256,54.4635671 38.3606372,53.6302756 C38.3536502,52.7927398 39.0188189,52.1094125 39.8460877,52.1030461 L39.857267,52.1030461 C40.6796448,52.1030461 41.3483071,52.7736406 41.3545955,53.6069321 C41.3608839,54.4437604 40.6964138,55.1277952 39.8684463,55.1341615 L39.857267,55.1341615" id="Fill-93" fill="#F3B43D"></path>
                        <path d="M35.0340947,64.8811253 C34.4562642,64.8811253 33.9860346,64.4093041 33.9825411,63.8228876 C33.9776502,63.2329342 34.4457837,62.751917 35.0278064,62.746258 L35.0354921,62.746258 C35.6147199,62.746258 36.0856483,63.2202014 36.0905393,63.8073252 C36.0947314,64.3972787 35.626598,64.8768811 35.0438766,64.8811253 L35.0340947,64.8811253" id="Fill-94" fill="#F3B43D"></path>
                        <path d="M45.5999373,48.5244199 C45.2883142,48.5244199 45.0339849,48.2704712 45.0311901,47.9542731 C45.029094,47.635953 45.2813271,47.3770525 45.5950464,47.3749304 L45.5999373,47.3749304 C45.9115606,47.3749304 46.1644923,47.6295866 46.1665885,47.9457846 C46.1693833,48.2633974 45.9178489,48.5215904 45.6034309,48.5244199 L45.5999373,48.5244199" id="Fill-95" fill="#F3B43D"></path>
                        <path d="M39.897792,51.0292461 C39.5861688,51.0292461 39.3318396,50.7752973 39.3297435,50.4590993 C39.3269487,50.140779 39.5791818,49.8818787 39.8922024,49.8797565 L39.8970933,49.8797565 C40.2094152,49.8797565 40.4623471,50.1337053 40.4651419,50.4499033 C40.467238,50.7675161 40.2150048,51.0264166 39.9012856,51.0292461 L39.897792,51.0292461" id="Fill-96" fill="#F3B43D"></path>
                        <path d="M35.4009157,56.3183126 C35.0892926,56.3183126 34.8349632,56.0643639 34.8328672,55.7474585 C34.8300723,55.4298456 35.0837028,55.1709452 35.3960247,55.1688231 L35.4009157,55.1688231 C35.7125389,55.1688231 35.9654707,55.4234793 35.9682656,55.7396773 C35.9703617,56.0572901 35.7188272,56.3154831 35.4051079,56.3183126 L35.4009157,56.3183126" id="Fill-97" fill="#F3B43D"></path>
                        <path d="M42.8645006,84.4443755 C42.4103413,84.4443755 41.9484962,84.3573682 41.5020226,84.1720351 L33.9874321,81.0638156 L34.16141,80.6323149 C35.0361908,80.5707735 35.7237182,79.8301481 35.7167312,78.9303634 C35.7132376,78.5045216 35.5553299,78.1161712 35.2975071,77.8204868 L42.620652,59.6826031 C42.6073766,59.7710255 42.6003895,59.8622772 42.601787,59.9549437 C42.6080752,60.8851461 43.3563902,61.6356743 44.2744907,61.6356743 L44.2870675,61.6356743 C45.2121551,61.6286005 45.9555791,60.8639247 45.9478933,59.9280634 C45.941605,58.995739 45.19329,58.2459181 44.2744907,58.2459181 C44.2695998,58.2459181 44.2654075,58.2459181 44.2612154,58.2466254 C43.7064422,58.2508698 43.2166488,58.528162 42.9155062,58.9518815 L54.0724548,31.3188607 L61.6268716,34.4447649 L46.2001265,82.1772291 C45.6299817,83.5891559 44.2842726,84.4443755 42.8645006,84.4443755 M56.8218656,44.2716624 C56.8190708,44.2716624 56.816276,44.2716624 56.8127824,44.2723697 C56.1832477,44.2766141 55.6766853,44.7972444 55.6815763,45.4345921 C55.6864672,46.0691104 56.1958244,46.57913 56.8218656,46.57913 L56.8309488,46.57913 C57.4604835,46.5748857 57.9670459,46.0549628 57.9621549,45.4169077 C57.957264,44.7823894 57.4479068,44.2716624 56.8218656,44.2716624" id="Fill-98" fill="#F3B43D"></path>
                        <path d="M34.16141,80.6323149 L35.2975071,77.8204868 C35.5553299,78.1161712 35.7132376,78.5045216 35.7167312,78.9303634 C35.7237182,79.8301481 35.0361908,80.5707735 34.16141,80.6323149" id="Fill-99" fill="#F6C15D"></path>
                        <path d="M44.2744907,61.6356743 C43.3563902,61.6356743 42.6080752,60.8851461 42.601787,59.9549437 C42.6003895,59.8622772 42.6073766,59.7710255 42.620652,59.6826031 L42.9155062,58.9518815 C43.2166488,58.528162 43.7064422,58.2508698 44.2612154,58.2466254 C44.2654075,58.2459181 44.2695998,58.2459181 44.2744907,58.2459181 C45.19329,58.2459181 45.941605,58.995739 45.9478933,59.9280634 C45.9555791,60.8639247 45.2121551,61.6286005 44.2870675,61.6356743 L44.2744907,61.6356743" id="Fill-100" fill="#F6C15D"></path>
                        <path d="M56.8218656,46.57913 C56.1958244,46.57913 55.6864672,46.0691104 55.6815763,45.4345921 C55.6766853,44.7972444 56.1832477,44.2766141 56.8127824,44.2723697 C56.816276,44.2716624 56.8190708,44.2716624 56.8218656,44.2716624 C57.4479068,44.2716624 57.957264,44.7823894 57.9621549,45.4169077 C57.9670459,46.0549628 57.4604835,46.5748857 56.8309488,46.57913 L56.8218656,46.57913" id="Fill-101" fill="#F6C15D"></path>
                        <path d="M22.9143283,76.477883 L13.7172521,72.6743102 C12.2828072,72.0808204 11.4338786,70.6561611 11.4841855,69.1749108 L27.3329495,36.4402787 C27.4223839,36.4551336 27.5132159,36.4629148 27.6068425,36.4629148 L27.6201179,36.4629148 C28.5438082,36.455841 29.2879309,35.6918726 29.280245,34.7553039 C29.2767515,34.2693351 29.070633,33.8321754 28.744337,33.5251733 L33.8623636,22.9555287 L42.9986524,26.7357577 L38.1726851,38.6883265 C37.9889253,38.9274203 37.8666516,39.2174454 37.8310176,39.5336434 L22.9143283,76.477883 M25.4108074,62.1937957 L25.3982307,62.1937957 C24.4745404,62.2008694 23.7311165,62.9648378 23.7374048,63.9014065 C23.7450906,64.8323163 24.4927068,65.5828445 25.4108074,65.5828445 L25.4240828,65.5828445 C26.3491704,65.5757707 27.0918956,64.8118022 27.0849086,63.8766483 C27.0786203,62.9443239 26.3303053,62.1937957 25.4108074,62.1937957 M19.0162437,55.8698348 L19.0050644,55.8698348 C18.177097,55.8762013 17.5126269,56.5588212 17.5189153,57.3970643 C17.5259023,58.2303558 18.1938659,58.8995355 19.0162437,58.8995355 L19.0274229,58.8995355 C19.8546917,58.8938766 20.5191618,58.2112566 20.5128734,57.3737208 C20.5065851,56.5390146 19.8379227,55.8698348 19.0162437,55.8698348 M26.9661285,46.9398928 L26.957744,46.9398928 C26.3282092,46.9448445 25.8216469,47.4633527 25.8265378,48.1021152 C25.8314288,48.735926 26.3400873,49.2473604 26.9668272,49.2473604 L26.9752117,49.2473604 C27.6047464,49.2424088 28.1106101,48.7217785 28.1057191,48.0844308 C28.1015269,47.4492051 27.591471,46.9398928 26.9661285,46.9398928" id="Fill-102" fill="#F3B43D"></path>
                        <path d="M27.6068425,36.4629148 C27.5132159,36.4629148 27.4223839,36.4551336 27.3329495,36.4402787 L28.744337,33.5251733 C29.070633,33.8321754 29.2767515,34.2693351 29.280245,34.7553039 C29.2879309,35.6918726 28.5438082,36.455841 27.6201179,36.4629148 L27.6068425,36.4629148" id="Fill-103" fill="#F6C15D"></path>
                        <path d="M25.4108074,65.5828445 C24.4927068,65.5828445 23.7450906,64.8323163 23.7374048,63.9014065 C23.7311165,62.9648378 24.4745404,62.2008694 25.3982307,62.1937957 L25.4108074,62.1937957 C26.3303053,62.1937957 27.0786203,62.9443239 27.0849086,63.8766483 C27.0918956,64.8118022 26.3491704,65.5757707 25.4240828,65.5828445 L25.4108074,65.5828445" id="Fill-104" fill="#F6C15D"></path>
                        <path id="Fill-105" fill="#F6C15D" d="M37.8310176,39.5336434 C37.8666516,39.2174454 37.9889253,38.9274203 38.1726851,38.6883265 L37.8310176,39.5336434"></path>
                        <path d="M26.9668272,49.2473604 C26.3400873,49.2473604 25.8314288,48.735926 25.8265378,48.1021152 C25.8216469,47.4633527 26.3282092,46.9448445 26.957744,46.9398928 L26.9661285,46.9398928 C27.591471,46.9398928 28.1015269,47.4492051 28.1057191,48.0844308 C28.1106101,48.7217785 27.6047464,49.2424088 26.9752117,49.2473604 L26.9668272,49.2473604" id="Fill-106" fill="#F6C15D"></path>
                        <path d="M19.0162437,58.8995355 C18.1938659,58.8995355 17.5259023,58.2303558 17.5189153,57.3970643 C17.5126269,56.5588212 18.177097,55.8762013 19.0050644,55.8698348 L19.0162437,55.8698348 C19.8379227,55.8698348 20.5065851,56.5390146 20.5128734,57.3737208 C20.5191618,58.2112566 19.8546917,58.8938766 19.0274229,58.8995355 L19.0162437,58.8995355" id="Fill-107" fill="#F6C15D"></path>
                        <path d="M56.5731261,29.6119573 C58.4666212,24.9185031 63.7621192,22.669748 68.395942,24.5881575 C73.0311622,26.5065671 75.2537483,31.8656641 73.3595544,36.5584108 C71.4639632,41.251865 66.1698625,43.5006202 61.5346423,41.582918 C56.899422,39.6638011 54.6775348,34.3039966 56.5731261,29.6119573" id="Fill-108" fill="#F9FAFB"></path>
                        <path d="M45.9478933,25.2148946 C47.5192847,21.3207778 51.9127524,19.4540067 55.7591327,21.0456077 C59.6041157,22.6379159 61.4487014,27.0844951 59.8759126,30.9793193 C58.3038225,34.8727287 53.9110535,36.7394997 50.0646732,35.1478988 C46.2182928,33.556298 44.3758032,29.108304 45.9478933,25.2148946" id="Fill-109" fill="#F9FAFB"></path>
                        <path d="M55.2679419,22.2622981 C56.6115549,18.9340838 60.3664047,17.3382387 63.6538197,18.6992343 C66.940536,20.0595225 68.5168183,23.8602654 67.1718079,27.1884797 C65.8281949,30.5174013 62.0747425,32.1125391 58.7866288,30.7522509 C55.4985151,29.3912553 53.924329,25.5905124 55.2679419,22.2622981" id="Fill-110" fill="#F9FAFB"></path>
                        <path d="M36.9813903,19.2884803 C38.6135691,15.2443993 43.1761238,13.3061831 47.17063,14.9593259 C51.1637388,16.6124686 53.0788938,21.2309407 51.4460163,25.2750217 C49.81244,29.3191027 45.250584,31.2573189 41.2574753,29.6041761 C37.262969,27.9503259 35.347814,23.3325612 36.9813903,19.2884803" id="Fill-111" fill="#F9FAFB"></path>
                        <path d="M28.3712277,17.9402174 C29.6896872,14.6742524 33.3732689,13.1088246 36.6005951,14.4443545 C39.8272226,15.7791771 41.3727619,19.5091823 40.055001,22.7751473 C38.7351441,26.0418196 35.0508636,27.6072475 31.8242362,26.2724249 C28.5976086,24.9376023 27.0520694,21.2061824 28.3712277,17.9402174" id="Fill-112" fill="#F9FAFB"></path>
                        <path d="M25.8684603,17.1295621 C26.8361691,14.7329648 29.5394653,13.5841827 31.9073822,14.5639015 C34.2739018,15.5429129 35.4079028,18.2804663 34.440194,20.6770636 C33.4724852,23.0729535 30.7698877,24.2217356 28.4026694,23.2420169 C26.0354512,22.2615908 24.9000528,19.525452 25.8684603,17.1295621" id="Fill-113" fill="#F9FAFB"></path>
                        <path d="M22.7424465,23.8418735 C23.7905066,21.2443809 26.7180876,20.0001027 29.2830399,21.0611699 C31.8472934,22.1222372 33.0770173,25.0875665 32.0282584,27.6843517 C30.9801985,30.2797222 28.0512199,31.5240005 25.4876651,30.4629332 C22.9220141,29.4018659 21.6936878,26.4365366 22.7424465,23.8418735" id="Fill-114" fill="#F9FAFB"></path>
                        <path d="M27.0318069,27.3030749 C27.8786394,25.2056987 30.2430629,24.2019291 32.3147282,25.0578566 C34.3856948,25.9159063 35.3792558,28.3103815 34.5324233,30.4077577 C33.6855907,32.5037192 31.3197699,33.5089036 29.2481046,32.6515612 C27.1778366,31.7949262 26.1849744,29.4004512 27.0318069,27.3030749" id="Fill-115" fill="#F9FAFB"></path>
                        <path d="M23.2266502,32.6883449 C23.9945289,30.786205 26.1381611,29.875102 28.0155859,30.6525105 C29.8944083,31.4292117 30.7936437,33.6001554 30.0250664,35.5015879 C29.2585851,37.4016057 27.1135556,38.3141235 25.2375281,37.5367149 C23.3580071,36.7593063 22.4594703,34.5883627 23.2266502,32.6883449" id="Fill-116" fill="#F9FAFB"></path>
                    </g>
                    <g id="Text" transform="translate(1.096127, 6.199287)" font-weight="normal" font-family="American Captain" fill="#FFFFFF" font-size="40" sketch:type="MSTextLayer">
                        <g id="APIs" transform="translate(139.426912, 145.231536) rotate(-30.000000) translate(-139.426912, -145.231536) translate(107.926912, 125.231536)">
                            <text>
                                <tspan x="0.958954801" y="38.1235825">APIs</tspan>
                            </text>
                        </g>
                        <g id="IPAs" transform="translate(52.654404, 44.583006) rotate(-30.000000) translate(-52.654404, -44.583006) translate(6.654404, 20.083006)">
                            <text>
                                <tspan x="0.0905453369" y="38.7316848">IPAs</tspan>
                            </text>
                        </g>
                    </g>
                </g>
            </g>
        </g>
    </g>
</svg>