<?xml version="1.0" encoding="utf-8"?>
<!-- Generator: Adobe Illustrator 18.1.1, SVG Export Plug-In . SVG Version: 6.00 Build 0)  -->
<!DOCTYPE svg PUBLIC "-//W3C//DTD SVG 1.1//EN" "http://www.w3.org/Graphics/SVG/1.1/DTD/svg11.dtd">
<svg version="1.1" xmlns="http://www.w3.org/2000/svg" xmlns:xlink="http://www.w3.org/1999/xlink" x="0px" y="0px"
	 viewBox="0 0 144 144" enable-background="new 0 0 144 144" xml:space="preserve">
<g id="Background">
	<polygon fill="#5FBFEA" points="8.5,35.8 8.5,107.8 70.9,143.8 133.2,107.8 133.2,35.8 70.9,-0.2 	"/>
</g>
<g id="Layer_4">
	<g>
		<g>
			<path fill="#EB2227" d="M77.8,83.1c0-2.6,0.7-4.9,0.7-7.5c0-3.1,0.3-6.3-0.2-9.3c-0.2-1.1-0.2-2.6-0.7-3.6
				c-0.6-1.3-2.3-2.1-3.6-3c-1.5-1-2.7-2.5-4.3-3.2c-0.9-0.4-1.5-0.6-2.2-1.4c-0.9-1.1-0.8-2.6-1.5-3.7c-1.7-2.7-5.6-3-8.3-3.8
				c-2-0.7-5.7-1.4-7.3-2.8c-2.1-1.9-4.1-7.2-5.5-10L28.6,51.2l43.3,43.3l5.5-5.5c0.1-0.6,0.2-1.1,0.3-1.6
				C77.8,85.9,77.8,84.5,77.8,83.1z"/>
			<path d="M71.8,97.3L71.8,97.3c-0.8,0-1.5-0.3-2-0.8L26.6,53.2c-1.1-1.1-1.1-2.9,0-4L43,32.7c0.6-0.6,1.6-0.9,2.5-0.8
				c0.9,0.1,1.7,0.7,2.1,1.5c0.4,0.8,0.9,1.8,1.4,2.9c1,2.1,2.4,5.3,3.5,6.3c0.8,0.7,3.2,1.4,4.6,1.8c0.6,0.2,1.2,0.3,1.7,0.5
				c0.5,0.2,1.2,0.3,1.8,0.5c2.7,0.7,6.1,1.5,8,4.5c0.6,0.9,0.8,1.8,1,2.5c0.1,0.3,0.2,0.8,0.3,0.9c0.2,0.2,0.2,0.2,0.7,0.5
				c0.1,0.1,0.3,0.1,0.5,0.2c1.3,0.6,2.3,1.5,3.2,2.2c0.5,0.4,1,0.9,1.5,1.2c0.2,0.2,0.5,0.3,0.7,0.5c1.3,0.8,3,1.8,3.9,3.7
				c0.6,1.2,0.8,2.7,0.9,3.8c0,0.2,0.1,0.5,0.1,0.7c0.3,2.3,0.3,4.7,0.2,7c0,0.9,0,1.8,0,2.6c0,1.5-0.2,2.9-0.4,4.2
				c-0.2,1.2-0.3,2.3-0.3,3.3c0,0.2,0,0.4,0,0.6c0,1.3,0,2.6-0.2,4c-0.1,0.4-0.1,0.7-0.2,1c-0.1,0.2-0.1,0.5-0.1,0.6
				C80,90,79.8,90.5,79.3,91l-5.5,5.5C73.3,97,72.6,97.3,71.8,97.3z M32.6,51.2l39.2,39.2l2.8-2.8c0.1-0.2,0.1-0.5,0.1-0.6
				c0.1-1,0.1-2,0.1-3.2c0-0.2,0-0.4,0-0.7c0-1.5,0.2-2.9,0.4-4.2c0.2-1.2,0.3-2.3,0.3-3.3c0-0.9,0-1.9,0-2.8c0-2.2,0.1-4.2-0.2-6.2
				c0-0.3-0.1-0.5-0.1-0.8c-0.1-0.7-0.2-1.6-0.4-2c-0.2-0.3-1.1-0.9-1.7-1.2c-0.3-0.2-0.6-0.4-0.9-0.6c-0.8-0.5-1.5-1.1-2.1-1.6
				c-0.7-0.6-1.3-1.1-1.9-1.4c-0.1-0.1-0.3-0.1-0.4-0.2c-0.8-0.4-1.8-0.8-2.8-2c-0.9-1.1-1.2-2.3-1.4-3.1c-0.1-0.3-0.2-0.7-0.3-0.8
				c-0.7-1.1-2.7-1.6-4.6-2.1c-0.7-0.2-1.5-0.4-2.2-0.6c-0.4-0.1-0.9-0.3-1.5-0.4c-2.3-0.6-5.1-1.4-6.8-2.9
				c-1.8-1.6-3.2-4.5-4.5-7.3L32.6,51.2z"/>
		</g>
		<g>
			<path fill="#FFFFFF" d="M77.3,88.9l37.8-37.8l-17-17l-52.5,0L45,34.7c1.4,2.8,3.3,8.1,5.5,10c1.6,1.4,5.2,2.2,7.3,2.8
				c2.7,0.9,6.6,1.2,8.3,3.8c0.7,1.1,0.6,2.6,1.5,3.7c0.7,0.8,1.3,1,2.2,1.4c1.6,0.8,2.8,2.2,4.3,3.2c1.3,0.9,3,1.6,3.6,3
				c0.5,1,0.6,2.5,0.7,3.6c0.4,3,0.1,6.2,0.2,9.3c0,2.6-0.7,4.9-0.7,7.5c0,1.4,0.1,2.8-0.1,4.2C77.6,87.8,77.4,88.4,77.3,88.9z"/>
			<path d="M77.3,91.8c-0.4,0-0.9-0.1-1.3-0.3c-1.1-0.6-1.7-1.8-1.5-3c0.1-0.3,0.1-0.7,0.2-0.9c0.1-0.2,0.1-0.5,0.1-0.6
				c0.1-1,0.1-2,0.1-3.2c0-0.2,0-0.4,0-0.7c0-1.5,0.2-2.9,0.4-4.2c0.2-1.2,0.3-2.3,0.3-3.3c0-0.9,0-1.9,0-2.8c0-2.2,0.1-4.2-0.2-6.1
				c0-0.3-0.1-0.5-0.1-0.8c-0.1-0.7-0.2-1.6-0.4-2c-0.2-0.3-1.1-0.9-1.7-1.2c-0.3-0.2-0.6-0.4-0.9-0.6c-0.8-0.5-1.5-1.1-2.1-1.6
				c-0.7-0.6-1.3-1.1-1.9-1.4c-0.1-0.1-0.3-0.1-0.4-0.2c-0.8-0.4-1.8-0.8-2.8-2c-0.9-1.1-1.2-2.3-1.4-3.1c-0.1-0.3-0.2-0.7-0.3-0.8
				c-0.7-1.1-2.7-1.6-4.6-2.1c-0.7-0.2-1.5-0.4-2.2-0.6c-0.4-0.1-0.9-0.3-1.5-0.4c-2.3-0.6-5.1-1.4-6.8-2.9c-2-1.8-3.6-5.2-4.9-8.2
				c-0.4-1-0.9-1.9-1.2-2.6c-0.6-1.1-0.4-2.4,0.5-3.3l0.6-0.6c0.5-0.5,1.3-0.8,2-0.8l52.5,0c0.8,0,1.5,0.3,2,0.8l17,17
				c0.5,0.5,0.8,1.3,0.8,2c0,0.8-0.3,1.5-0.8,2L79.3,91C78.8,91.5,78.1,91.8,77.3,91.8z M49.2,37c0.9,2.1,2.2,4.7,3.2,5.6
				c0.8,0.7,3.2,1.4,4.6,1.8c0.6,0.2,1.2,0.3,1.7,0.5c0.5,0.2,1.2,0.3,1.8,0.5c2.7,0.7,6.1,1.5,8,4.5c0.6,0.9,0.8,1.8,1,2.5
				c0.1,0.3,0.2,0.8,0.3,0.9c0.2,0.2,0.2,0.2,0.7,0.5c0.1,0.1,0.3,0.1,0.5,0.2c1.3,0.6,2.3,1.5,3.2,2.2c0.5,0.4,1,0.9,1.5,1.2
				c0.2,0.2,0.5,0.3,0.7,0.5c1.3,0.8,3,1.8,3.9,3.7c0.6,1.2,0.8,2.7,0.9,3.8c0,0.2,0.1,0.5,0.1,0.7c0.3,2.3,0.3,4.7,0.2,7
				c0,0.9,0,1.8,0,2.6c0,1.5-0.2,2.9-0.4,4.2c-0.1,0.6-0.2,1.2-0.2,1.7l30.4-30.4L96.9,37L49.2,37z"/>
		</g>
	</g>
	<g>
		<path d="M35.1,107.6H31l-1.1,2.4h-1.6l4.8-10.3l4.6,10.3h-1.6L35.1,107.6z M34.5,106.2l-1.4-3.3l-1.5,3.3H34.5z"/>
		<path d="M38.7,103.8h1.4v0.5c0.3-0.3,0.5-0.5,0.7-0.6c0.2-0.1,0.4-0.2,0.7-0.2c0.4,0,0.8,0.1,1.2,0.4l-0.6,1.3
			c-0.3-0.2-0.5-0.3-0.8-0.3c-0.8,0-1.2,0.6-1.2,1.7v3.2h-1.4V103.8z"/>
		<path d="M45.1,99.3v10.6h-1.4V99.3H45.1z"/>
		<path d="M46.7,101.3c0-0.2,0.1-0.5,0.3-0.6c0.2-0.2,0.4-0.3,0.6-0.3c0.3,0,0.5,0.1,0.7,0.3c0.2,0.2,0.3,0.4,0.3,0.6
			c0,0.3-0.1,0.5-0.3,0.7c-0.2,0.2-0.4,0.3-0.6,0.3c-0.3,0-0.5-0.1-0.7-0.3C46.8,101.7,46.7,101.5,46.7,101.3z M48.3,103.8v6.1h-1.4
			v-6.1H48.3z"/>
		<path d="M50.1,103.8h1.4v0.6c0.5-0.5,1.1-0.7,1.7-0.7c0.7,0,1.3,0.2,1.7,0.7c0.3,0.4,0.5,1,0.5,1.9v3.8H54v-3.4
			c0-0.6-0.1-1-0.3-1.2c-0.2-0.2-0.5-0.4-0.9-0.4c-0.5,0-0.8,0.2-1,0.5c-0.2,0.3-0.3,0.8-0.3,1.6v3h-1.4V103.8z"/>
		<path d="M63.1,109.8c0,0.3,0,0.5,0,0.8c0,0.2,0,0.4-0.1,0.6c-0.1,0.5-0.3,0.9-0.6,1.2c-0.6,0.6-1.3,1-2.3,1c-0.8,0-1.5-0.2-2-0.7
			c-0.5-0.5-0.9-1.1-0.9-1.9h1.4c0.1,0.3,0.1,0.5,0.3,0.7c0.3,0.4,0.7,0.6,1.3,0.6c1,0,1.6-0.6,1.6-1.9v-0.9
			c-0.6,0.6-1.2,0.9-1.9,0.9c-0.8,0-1.5-0.3-2-0.9c-0.5-0.6-0.8-1.4-0.8-2.3c0-0.9,0.2-1.7,0.7-2.3c0.5-0.7,1.2-1,2.1-1
			c0.8,0,1.4,0.3,1.9,0.9v-0.7h1.4V109.8z M61.7,106.9c0-0.6-0.2-1.1-0.5-1.4c-0.3-0.4-0.7-0.5-1.2-0.5c-0.5,0-1,0.2-1.3,0.6
			c-0.3,0.4-0.4,0.8-0.4,1.4c0,0.6,0.1,1,0.4,1.4c0.3,0.4,0.7,0.6,1.3,0.6c0.5,0,1-0.2,1.3-0.6C61.6,107.9,61.7,107.4,61.7,106.9z"
			/>
		<path d="M66.3,105.1v4.8h-1.4v-4.8h-0.6v-1.3h0.6v-2.2h1.4v2.2h1.1v1.3H66.3z"/>
		<path d="M68.2,106.8c0-0.9,0.3-1.6,0.9-2.3c0.6-0.6,1.4-0.9,2.3-0.9c0.9,0,1.7,0.3,2.3,0.9c0.6,0.6,0.9,1.4,0.9,2.3
			c0,0.9-0.3,1.7-0.9,2.3c-0.6,0.6-1.4,0.9-2.3,0.9c-0.9,0-1.7-0.3-2.3-0.9C68.5,108.5,68.2,107.8,68.2,106.8z M69.7,106.9
			c0,0.6,0.2,1.1,0.5,1.5c0.3,0.4,0.8,0.5,1.3,0.5c0.6,0,1-0.2,1.3-0.5c0.3-0.4,0.5-0.8,0.5-1.4s-0.2-1.1-0.5-1.4
			c-0.3-0.4-0.8-0.5-1.3-0.5c-0.5,0-1,0.2-1.3,0.5C69.8,105.8,69.7,106.3,69.7,106.9z"/>
		<path d="M76.2,103.8h1.4v0.6c0.5-0.5,1.1-0.7,1.7-0.7c0.7,0,1.3,0.2,1.7,0.7c0.3,0.4,0.5,1,0.5,1.9v3.8h-1.4v-3.4
			c0-0.6-0.1-1-0.3-1.2c-0.2-0.2-0.5-0.4-0.9-0.4c-0.5,0-0.8,0.2-1,0.5c-0.2,0.3-0.3,0.8-0.3,1.6v3h-1.4V103.8z"/>
		<path d="M90.8,105.8l3,4.1H92l-2.8-4H89v4h-1.5v-9.7h1.7c1.3,0,2.2,0.2,2.8,0.7c0.6,0.5,0.9,1.2,0.9,2.1c0,0.7-0.2,1.3-0.6,1.8
			C92,105.3,91.5,105.7,90.8,105.8z M89,104.7h0.5c1.4,0,2.1-0.5,2.1-1.6c0-1-0.7-1.5-2-1.5H89V104.7z"/>
		<path d="M96.2,103.8v3.5c0,1,0.4,1.5,1.2,1.5c0.8,0,1.2-0.5,1.2-1.5v-3.5h1.4v3.5c0,0.5-0.1,0.9-0.2,1.3c-0.1,0.3-0.3,0.6-0.6,0.9
			c-0.5,0.4-1.1,0.6-1.8,0.6c-0.7,0-1.3-0.2-1.8-0.6c-0.3-0.3-0.5-0.5-0.6-0.9c-0.1-0.3-0.2-0.7-0.2-1.3v-3.5H96.2z"/>
		<path d="M103.2,99.3v5.2c0.6-0.6,1.2-0.9,1.9-0.9c0.8,0,1.5,0.3,2.1,0.9c0.5,0.6,0.8,1.4,0.8,2.3c0,0.9-0.3,1.7-0.8,2.3
			c-0.5,0.6-1.2,0.9-2.1,0.9c-0.7,0-1.3-0.3-1.9-0.8v0.6h-1.4V99.3H103.2z M106.6,106.9c0-0.6-0.2-1.1-0.5-1.4
			c-0.3-0.4-0.7-0.6-1.2-0.6c-0.5,0-0.9,0.2-1.3,0.5c-0.3,0.4-0.5,0.8-0.5,1.4c0,0.6,0.2,1.1,0.5,1.4c0.3,0.4,0.7,0.5,1.3,0.5
			c0.5,0,0.9-0.2,1.2-0.5C106.4,107.9,106.6,107.5,106.6,106.9z"/>
		<path d="M111.2,108.8l-2.8-5h1.6l1.9,3.5l1.7-3.5h1.6l-4.9,9.5h-1.6L111.2,108.8z"/>
	</g>
</g>
<g id="Cut_Path" display="none">
	<polygon display="inline" fill="none" stroke="#EA0A8A" stroke-miterlimit="10" points="134.5,108.2 72,144.3 9.5,108.2 9.5,36 
		72,-0.1 134.5,36 	"/>
</g>
</svg>
