<?xml version="1.0" encoding="utf-8"?>
<!-- Generator: Adobe Illustrator 19.1.0, SVG Export Plug-In . SVG Version: 6.00 Build 0)  -->
<svg version="1.1" id="Layer_1" xmlns="http://www.w3.org/2000/svg" xmlns:xlink="http://www.w3.org/1999/xlink" x="0px" y="0px"
	 viewBox="0 0 124.7 144" style="enable-background:new 0 0 124.7 144;" xml:space="preserve">
<style type="text/css">
	.st0{fill:#004574;}
	.st1{opacity:0.8;fill:#8BBFE0;}
	.st2{fill:#FFFFFF;}
	.st3{opacity:0.8;fill:#0071BB;}
	.st4{opacity:0.8;}
	.st5{fill:#8BBFE0;}
</style>
<g>
	<polygon class="st0" points="124.7,108 62.4,144 0,108 0,36 62.4,0 124.7,36 	"/>
	<polygon class="st1" points="62.4,0 124.7,36 124.7,108 114.7,39 	"/>
	<g>
		<path class="st2" d="M44.8,91.9c0.7,0,1.4-0.2,2.1-0.7l1,1.3c-0.4,0.4-0.9,0.6-1.4,0.8c-0.6,0.2-1.2,0.3-1.8,0.3
			c-0.9,0-1.7-0.2-2.3-0.5c-0.6-0.4-1.1-0.9-1.4-1.5c-0.3-0.7-0.5-1.4-0.5-2.3c0-0.8,0.2-1.6,0.5-2.2c0.3-0.7,0.8-1.2,1.4-1.6
			c0.6-0.4,1.3-0.6,2.2-0.6c0.8,0,1.5,0.2,2,0.5c0.6,0.3,1,0.8,1.3,1.5c0.3,0.6,0.5,1.4,0.5,2.3c0,0.3,0,0.6,0,0.9h-5.3
			C43,91.3,43.6,91.9,44.8,91.9z M43.3,87c-0.3,0.3-0.4,0.8-0.5,1.5h3c0-1.3-0.5-2-1.5-2C43.9,86.5,43.5,86.7,43.3,87z"/>
		<path class="st2" d="M48.5,93.4l2.8-4.3l-2.6-3.9h2.7l1.3,2.6l1.3-2.6h2.6L54.2,89l2.8,4.4h-2.8l-1.6-3.1l-1.6,3.1H48.5z"/>
		<path class="st2" d="M63,91.6c0.3-0.1,0.6-0.3,0.9-0.5l1.1,1.5c-0.4,0.3-0.8,0.6-1.4,0.8c-0.5,0.2-1.1,0.3-1.7,0.3
			c-0.9,0-1.6-0.2-2.3-0.5c-0.6-0.4-1.1-0.9-1.5-1.5s-0.5-1.4-0.5-2.3s0.2-1.6,0.5-2.3c0.4-0.7,0.8-1.2,1.5-1.6
			c0.6-0.4,1.4-0.6,2.3-0.6c0.6,0,1.2,0.1,1.6,0.3c0.5,0.2,0.9,0.4,1.4,0.8L64,87.4c-0.6-0.4-1.2-0.6-1.8-0.6
			c-1.2,0-1.8,0.9-1.8,2.6c0,0.9,0.2,1.5,0.5,1.8c0.3,0.4,0.8,0.5,1.3,0.5C62.4,91.7,62.7,91.7,63,91.6z"/>
		<path class="st2" d="M70.4,91.9c0.7,0,1.4-0.2,2.1-0.7l1,1.3c-0.4,0.4-0.9,0.6-1.4,0.8c-0.6,0.2-1.2,0.3-1.8,0.3
			c-0.9,0-1.7-0.2-2.3-0.5c-0.6-0.4-1.1-0.9-1.4-1.5c-0.3-0.7-0.5-1.4-0.5-2.3c0-0.8,0.2-1.6,0.5-2.2c0.3-0.7,0.8-1.2,1.4-1.6
			c0.6-0.4,1.3-0.6,2.2-0.6c0.8,0,1.5,0.2,2,0.5c0.6,0.3,1,0.8,1.3,1.5c0.3,0.6,0.5,1.4,0.5,2.3c0,0.3,0,0.6,0,0.9h-5.3
			C68.5,91.3,69.2,91.9,70.4,91.9z M68.8,87c-0.3,0.3-0.4,0.8-0.5,1.5h3c0-1.3-0.5-2-1.5-2C69.5,86.5,69.1,86.7,68.8,87z"/>
		<path class="st2" d="M79.1,90.8c0,0.6,0.4,0.9,1.1,0.9c0.4,0,0.8-0.1,1.2-0.2l0.6,1.6c-0.7,0.4-1.5,0.5-2.4,0.5
			c-1,0-1.7-0.3-2.2-0.8c-0.5-0.6-0.7-1.3-0.7-2.3v-6.9h-2.4v-1.7h4.9V90.8z"/>
		<path class="st2" d="M87.6,90.8c0,0.6,0.4,0.9,1.1,0.9c0.4,0,0.8-0.1,1.2-0.2l0.6,1.6c-0.7,0.4-1.5,0.5-2.4,0.5
			c-1,0-1.7-0.3-2.2-0.8c-0.5-0.6-0.7-1.3-0.7-2.3v-6.9h-2.4v-1.7h4.9V90.8z"/>
		<path class="st2" d="M95.9,91.9c0.7,0,1.4-0.2,2.1-0.7l1,1.3c-0.4,0.4-0.9,0.6-1.4,0.8c-0.6,0.2-1.2,0.3-1.8,0.3
			c-0.9,0-1.7-0.2-2.3-0.5c-0.6-0.4-1.1-0.9-1.4-1.5c-0.3-0.7-0.5-1.4-0.5-2.3c0-0.8,0.2-1.6,0.5-2.2c0.3-0.7,0.8-1.2,1.4-1.6
			c0.6-0.4,1.3-0.6,2.2-0.6c0.8,0,1.5,0.2,2,0.5c0.6,0.3,1,0.8,1.3,1.5c0.3,0.6,0.5,1.4,0.5,2.3c0,0.3,0,0.6,0,0.9h-5.3
			C94.1,91.3,94.8,91.9,95.9,91.9z M94.4,87c-0.3,0.3-0.4,0.8-0.5,1.5h3c0-1.3-0.5-2-1.5-2C95,86.5,94.7,86.7,94.4,87z"/>
		<path class="st2" d="M100.3,85.2h2.1l0.2,0.9c0.4-0.4,0.8-0.7,1.2-0.9s0.9-0.3,1.4-0.3c0.7,0,1.3,0.2,1.7,0.7
			c0.4,0.4,0.6,1,0.6,1.8v6H105v-5.3c0-0.5-0.1-0.9-0.2-1.1s-0.3-0.3-0.6-0.3c-0.2,0-0.5,0.1-0.7,0.2s-0.5,0.4-0.7,0.7v5.7h-2.4
			V85.2z"/>
		<path class="st2" d="M113.6,93.7c-1.1,0-1.8-0.3-2.4-0.8s-0.8-1.3-0.8-2.3v-3.7h-1.7v-1.7h1.7v-1.8l2.4-0.3v2.1h2.6l-0.2,1.7h-2.4
			v3.7c0,0.4,0.1,0.7,0.3,0.9c0.2,0.2,0.5,0.3,0.9,0.3c0.5,0,1-0.1,1.4-0.4l0.8,1.6C115.5,93.4,114.6,93.7,113.6,93.7z"/>
	</g>
	<g>
		<g>
			<path class="st2" d="M44.5,102.3c-0.3,0.1-0.6,0.1-0.8,0.1c-0.6,0-1.1-0.2-1.4-0.5c-0.3-0.3-0.5-0.8-0.5-1.3v-3.2h-1.3v-0.8h1.3
				v-1.3l1-0.1v1.4h1.9l-0.1,0.8h-1.8v3.2c0,0.3,0.1,0.5,0.2,0.7c0.2,0.2,0.4,0.2,0.8,0.2c0.4,0,0.7-0.1,1.1-0.3l0.4,0.7
				C45,102.1,44.7,102.2,44.5,102.3z"/>
			<path class="st2" d="M50.5,97.3c0.4,0.5,0.6,1.3,0.6,2.2c0,0.9-0.2,1.6-0.7,2.2c-0.4,0.5-1,0.8-1.8,0.8c-0.8,0-1.4-0.3-1.8-0.8
				c-0.4-0.5-0.6-1.2-0.6-2.2c0-0.9,0.2-1.6,0.7-2.2s1.1-0.8,1.8-0.8S50.1,96.7,50.5,97.3z M47.6,97.8c-0.2,0.4-0.3,0.9-0.3,1.6
				c0,0.7,0.1,1.3,0.3,1.6c0.2,0.4,0.6,0.5,1.1,0.5c0.5,0,0.8-0.2,1.1-0.5c0.2-0.4,0.3-0.9,0.3-1.6c0-0.7-0.1-1.3-0.3-1.6
				c-0.2-0.4-0.6-0.5-1-0.5C48.2,97.3,47.9,97.5,47.6,97.8z"/>
			<path class="st2" d="M59.6,101.1c0.3,0.3,0.7,0.4,1.1,0.4c0.3,0,0.5,0,0.8-0.1c0.2-0.1,0.5-0.2,0.7-0.4l0.5,0.7
				c-0.3,0.2-0.6,0.4-0.9,0.5c-0.4,0.1-0.7,0.2-1.1,0.2c-0.8,0-1.5-0.3-2-0.8s-0.7-1.3-0.7-2.1c0-0.6,0.1-1.1,0.3-1.5
				s0.5-0.8,0.9-1.1c0.4-0.3,0.8-0.4,1.3-0.4c0.7,0,1.3,0.3,1.7,0.8c0.4,0.5,0.6,1.2,0.6,2c0,0.2,0,0.3,0,0.5h-3.8
				C59.2,100.4,59.3,100.8,59.6,101.1z M59.6,97.7c-0.3,0.3-0.4,0.7-0.4,1.3h2.8c0-0.6-0.1-1-0.4-1.3c-0.2-0.3-0.6-0.5-1-0.5
				C60.2,97.3,59.8,97.4,59.6,97.7z"/>
			<path class="st2" d="M68.5,101.5c0.1,0.1,0.2,0.2,0.3,0.2l-0.2,0.7c-0.6-0.1-0.9-0.3-1.1-0.8c-0.2,0.3-0.5,0.5-0.8,0.6
				s-0.6,0.2-1,0.2c-0.6,0-1-0.2-1.4-0.5c-0.3-0.3-0.5-0.7-0.5-1.3c0-0.6,0.2-1,0.7-1.4c0.5-0.3,1.1-0.5,2-0.5h0.8v-0.4
				c0-0.4-0.1-0.7-0.3-0.8c-0.2-0.2-0.5-0.3-1-0.3c-0.4,0-0.9,0.1-1.5,0.3l-0.3-0.8c0.7-0.3,1.3-0.4,1.9-0.4c0.7,0,1.3,0.2,1.6,0.5
				c0.4,0.3,0.6,0.8,0.6,1.4v2.6C68.4,101.2,68.4,101.4,68.5,101.5z M66.7,101.4c0.2-0.1,0.4-0.3,0.6-0.6v-1.4h-0.8
				c-0.6,0-1,0.1-1.3,0.3c-0.3,0.2-0.4,0.5-0.4,0.8c0,0.3,0.1,0.6,0.3,0.8c0.2,0.2,0.4,0.3,0.8,0.3
				C66.2,101.6,66.5,101.6,66.7,101.4z"/>
			<path class="st2" d="M74.2,101l0.5,0.7c-0.3,0.2-0.5,0.4-0.9,0.5c-0.3,0.1-0.7,0.2-1,0.2c-0.9,0-1.5-0.3-2-0.8
				c-0.5-0.5-0.7-1.2-0.7-2.1c0-0.6,0.1-1.1,0.3-1.5c0.2-0.5,0.5-0.8,0.9-1.1c0.4-0.3,0.9-0.4,1.4-0.4c0.7,0,1.4,0.2,1.9,0.7
				l-0.5,0.7c-0.5-0.3-1-0.5-1.4-0.5c-0.5,0-0.9,0.2-1.2,0.5c-0.3,0.4-0.4,0.9-0.4,1.6c0,0.7,0.1,1.2,0.4,1.6
				c0.3,0.3,0.7,0.5,1.2,0.5C73.2,101.5,73.7,101.4,74.2,101z"/>
			<path class="st2" d="M77,97.4c0.2-0.3,0.5-0.5,0.8-0.7c0.3-0.1,0.6-0.2,1-0.2c0.5,0,0.9,0.1,1.2,0.4c0.3,0.3,0.4,0.7,0.4,1.3v4.1
				h-1v-4c0-0.3-0.1-0.6-0.2-0.7c-0.1-0.2-0.4-0.2-0.7-0.2c-0.3,0-0.5,0.1-0.8,0.3c-0.3,0.2-0.5,0.4-0.6,0.6v4.1h-1v-7.9l1-0.1V97.4
				z"/>
			<path class="st2" d="M91.8,97.3c0.4,0.5,0.6,1.3,0.6,2.2c0,0.9-0.2,1.6-0.7,2.2c-0.4,0.5-1,0.8-1.8,0.8c-0.8,0-1.4-0.3-1.8-0.8
				c-0.4-0.5-0.6-1.2-0.6-2.2c0-0.9,0.2-1.6,0.7-2.2s1.1-0.8,1.8-0.8S91.4,96.7,91.8,97.3z M88.9,97.8c-0.2,0.4-0.3,0.9-0.3,1.6
				c0,0.7,0.1,1.3,0.3,1.6c0.2,0.4,0.6,0.5,1.1,0.5c0.5,0,0.8-0.2,1.1-0.5c0.2-0.4,0.3-0.9,0.3-1.6c0-0.7-0.1-1.3-0.3-1.6
				c-0.2-0.4-0.6-0.5-1-0.5C89.5,97.3,89.2,97.5,88.9,97.8z"/>
			<path class="st2" d="M97.6,102.3c-0.3,0.1-0.6,0.1-0.8,0.1c-0.6,0-1.1-0.2-1.4-0.5c-0.3-0.3-0.5-0.8-0.5-1.3v-3.2h-1.3v-0.8h1.3
				v-1.3l1-0.1v1.4h1.9l-0.1,0.8h-1.8v3.2c0,0.3,0.1,0.5,0.2,0.7c0.2,0.2,0.4,0.2,0.8,0.2c0.4,0,0.7-0.1,1.1-0.3l0.4,0.7
				C98.1,102.1,97.8,102.2,97.6,102.3z"/>
			<path class="st2" d="M100.6,97.4c0.2-0.3,0.5-0.5,0.8-0.7c0.3-0.1,0.6-0.2,1-0.2c0.5,0,0.9,0.1,1.2,0.4c0.3,0.3,0.4,0.7,0.4,1.3
				v4.1h-1v-4c0-0.3-0.1-0.6-0.2-0.7c-0.1-0.2-0.4-0.2-0.7-0.2c-0.3,0-0.5,0.1-0.8,0.3c-0.3,0.2-0.5,0.4-0.6,0.6v4.1h-1v-7.9l1-0.1
				V97.4z"/>
			<path class="st2" d="M106.8,101.1c0.3,0.3,0.7,0.4,1.1,0.4c0.3,0,0.5,0,0.8-0.1c0.2-0.1,0.5-0.2,0.7-0.4l0.5,0.7
				c-0.3,0.2-0.6,0.4-0.9,0.5c-0.4,0.1-0.7,0.2-1.1,0.2c-0.8,0-1.5-0.3-2-0.8s-0.7-1.3-0.7-2.1c0-0.6,0.1-1.1,0.3-1.5
				s0.5-0.8,0.9-1.1s0.8-0.4,1.3-0.4c0.7,0,1.3,0.3,1.7,0.8c0.4,0.5,0.6,1.2,0.6,2c0,0.2,0,0.3,0,0.5h-3.8
				C106.4,100.4,106.5,100.8,106.8,101.1z M106.8,97.7c-0.3,0.3-0.4,0.7-0.4,1.3h2.8c0-0.6-0.1-1-0.4-1.3c-0.2-0.3-0.6-0.5-1-0.5
				C107.4,97.3,107,97.4,106.8,97.7z"/>
			<path class="st2" d="M116.1,96.6l-0.2,2h-0.8v-1.2h0c-0.9,0-1.5,0.6-1.8,1.8v2.3h1.1v0.8h-3v-0.8h0.9v-4.1h-0.9v-0.8h1.7l0.2,1.3
				c0.2-0.5,0.5-0.8,0.8-1.1c0.3-0.2,0.7-0.4,1.2-0.4C115.6,96.5,115.8,96.5,116.1,96.6z"/>
		</g>
	</g>
	<polygon class="st3" points="0,36 0,108 62.4,144 10,105 	"/>
	<g class="st4">
		<path class="st5" d="M46,109.8h-0.5l-0.2-2.9c0-0.3,0-0.8-0.1-1.4c0-0.3,0-0.5,0-0.5l-1,3.8h-0.6l-1-3.8l0,0.4c0,0.5,0,1,0,1.5
			l-0.2,2.9h-0.5l0.3-5.2H43l0.9,3.6l0.9-3.6h0.8L46,109.8z"/>
		<path class="st5" d="M48.7,108.4l-0.5,1.4h-0.5l1.7-5.2h0.6l1.7,5.2h-0.5l-0.5-1.4H48.7z M50.7,107.9l-0.9-2.9l-1,2.9H50.7z"/>
		<path class="st5" d="M54.3,109.8v-5.2h0.5v5.2H54.3z M57.1,104.6h0.6l-2.2,2.4l2.4,2.8h-0.6l-2.4-2.8L57.1,104.6z"/>
		<path class="st5" d="M60.8,106.9h2v0.4h-2v2h2.4v0.4h-2.9v-5.2h2.8l-0.1,0.4h-2.3V106.9z"/>
		<path class="st5" d="M69,109.3l-0.1,0.5h-3.3v-0.4l2.9-4.4H66v-0.5h3.1v0.4l-2.8,4.4H69z"/>
		<path class="st5" d="M74.9,108.1c0,0.3-0.1,0.7-0.2,0.9c-0.1,0.3-0.3,0.5-0.6,0.6c-0.3,0.1-0.5,0.2-0.9,0.2
			c-0.3,0-0.6-0.1-0.9-0.2s-0.4-0.4-0.6-0.6c-0.1-0.3-0.2-0.6-0.2-0.9v-3.6h0.5v3.7c0,0.4,0.1,0.6,0.3,0.8s0.5,0.3,0.9,0.3
			c0.4,0,0.7-0.1,0.9-0.3s0.3-0.5,0.3-0.8v-3.7h0.5V108.1z"/>
		<path class="st5" d="M80.5,106.9c-0.2,0.2-0.6,0.4-1,0.5l1.6,2.4h-0.6l-1.5-2.3h-0.8v2.3h-0.5v-5.2h1.3c0.6,0,1.1,0.1,1.4,0.4
			c0.3,0.2,0.5,0.6,0.5,1.1C80.9,106.4,80.7,106.7,80.5,106.9z M80,105.2c-0.2-0.2-0.5-0.2-1-0.2h-0.9v2.1H79c0.4,0,0.8-0.1,1-0.3
			s0.3-0.4,0.3-0.8C80.3,105.6,80.2,105.4,80,105.2z"/>
		<path class="st5" d="M86.4,105h-1.2v4.4h1.2v0.4h-2.9v-0.4h1.2V105h-1.2v-0.4h2.9V105z"/>
		<path class="st5" d="M92.1,104.6c0.2,0.1,0.4,0.2,0.7,0.4l-0.3,0.3c-0.2-0.1-0.3-0.2-0.5-0.3c-0.2-0.1-0.4-0.1-0.6-0.1
			c-0.5,0-0.9,0.2-1.2,0.5s-0.5,0.9-0.5,1.7c0,0.8,0.2,1.4,0.5,1.7s0.7,0.5,1.2,0.5c0.3,0,0.5,0,0.7-0.1c0.2-0.1,0.4-0.2,0.5-0.3
			l0.3,0.3c-0.4,0.4-0.9,0.5-1.5,0.5c-0.4,0-0.8-0.1-1.1-0.3c-0.3-0.2-0.6-0.5-0.8-0.9c-0.2-0.4-0.3-0.9-0.3-1.5s0.1-1.1,0.3-1.5
			s0.5-0.7,0.8-0.9c0.3-0.2,0.7-0.3,1.1-0.3C91.6,104.5,91.8,104.5,92.1,104.6z"/>
		<path class="st5" d="M97.8,107.2h-2.2v2.6h-0.5v-5.2h0.5v2.3h2.2v-2.3h0.5v5.2h-0.5V107.2z"/>
		<path class="st5" d="M102.1,108.8c0.1-0.1,0.3-0.2,0.4-0.2c0.2,0,0.3,0.1,0.4,0.2c0.1,0.1,0.2,0.3,0.2,0.4c0,0.2-0.1,0.3-0.2,0.4
			c-0.1,0.1-0.3,0.2-0.4,0.2c-0.2,0-0.3-0.1-0.4-0.2c-0.1-0.1-0.2-0.3-0.2-0.4C101.9,109.1,102,108.9,102.1,108.8z"/>
		<path class="st5" d="M109.6,104.6c0.2,0.1,0.4,0.2,0.7,0.4l-0.3,0.3c-0.2-0.1-0.3-0.2-0.5-0.3c-0.2-0.1-0.4-0.1-0.6-0.1
			c-0.5,0-0.9,0.2-1.2,0.5s-0.5,0.9-0.5,1.7c0,0.8,0.2,1.4,0.5,1.7s0.7,0.5,1.2,0.5c0.3,0,0.5,0,0.7-0.1c0.2-0.1,0.4-0.2,0.5-0.3
			l0.3,0.3c-0.4,0.4-0.9,0.5-1.5,0.5c-0.4,0-0.8-0.1-1.1-0.3c-0.3-0.2-0.6-0.5-0.8-0.9c-0.2-0.4-0.3-0.9-0.3-1.5s0.1-1.1,0.3-1.5
			s0.5-0.7,0.8-0.9c0.3-0.2,0.7-0.3,1.1-0.3C109.2,104.5,109.4,104.5,109.6,104.6z"/>
		<path class="st5" d="M115.4,107.2h-2.2v2.6h-0.5v-5.2h0.5v2.3h2.2v-2.3h0.5v5.2h-0.5V107.2z"/>
	</g>
	<g>
		<g>
			<path class="st2" d="M32.9,92.3c-0.1-0.2-0.2-0.5-0.2-0.7c0-0.6,0.2-1,0.6-1.3s1-0.4,1.8-0.4c0.7,0,1.3,0.2,1.8,0.5
				c0.5,0.3,0.7,0.8,0.7,1.4c0,0.5-0.2,0.9-0.6,1.2l0.5,0.1v0.8H31l-0.1-0.9h2.6C33.2,92.7,33.1,92.5,32.9,92.3z M36.5,91.1
				c-0.3-0.2-0.7-0.3-1.3-0.3c-1.2,0-1.8,0.3-1.8,1c0,0.2,0.1,0.4,0.2,0.6c0.1,0.2,0.3,0.3,0.5,0.5h2.3c0.2-0.1,0.3-0.3,0.4-0.4
				c0.1-0.2,0.2-0.4,0.2-0.6C37,91.5,36.8,91.3,36.5,91.1z"/>
			<path class="st2" d="M36.6,87.8c0.2-0.2,0.4-0.6,0.4-0.9c0-0.2,0-0.4-0.1-0.6c-0.1-0.2-0.2-0.4-0.3-0.6l0.5-0.4
				c0.2,0.2,0.3,0.5,0.4,0.8c0.1,0.3,0.1,0.6,0.1,0.9c0,0.7-0.2,1.2-0.7,1.6c-0.4,0.4-1,0.6-1.8,0.6c-0.5,0-0.9-0.1-1.3-0.3
				c-0.4-0.2-0.7-0.4-0.9-0.7c-0.2-0.3-0.3-0.7-0.3-1.1c0-0.6,0.2-1.1,0.6-1.4c0.4-0.3,1-0.5,1.7-0.5c0.1,0,0.3,0,0.4,0v3.1
				C36,88.2,36.3,88,36.6,87.8z M33.8,87.8c0.2,0.2,0.6,0.3,1.1,0.4v-2.3c-0.5,0-0.8,0.1-1.1,0.3c-0.3,0.2-0.4,0.5-0.4,0.8
				C33.4,87.3,33.5,87.6,33.8,87.8z"/>
		</g>
	</g>
</g>
</svg>
