<?xml version="1.0" encoding="UTF-8" standalone="no"?>
<svg
   xmlns:dc="http://purl.org/dc/elements/1.1/"
   xmlns:cc="http://creativecommons.org/ns#"
   xmlns:rdf="http://www.w3.org/1999/02/22-rdf-syntax-ns#"
   xmlns:svg="http://www.w3.org/2000/svg"
   xmlns="http://www.w3.org/2000/svg"
   xmlns:sodipodi="http://sodipodi.sourceforge.net/DTD/sodipodi-0.dtd"
   xmlns:inkscape="http://www.inkscape.org/namespaces/inkscape"
   width="180"
   height="180"
   viewBox="0 0 180.00001 180"
   id="svg2985"
   version="1.1"
   inkscape:version="0.91 r13725"
   sodipodi:docname="bionode-logo.svg"
   inkscape:export-filename="/Users/bmpvieira/Desktop/bionode-logo.png"
   inkscape:export-xdpi="104.62427"
   inkscape:export-ydpi="104.62427">
  <metadata
     id="metadata2997">
    <rdf:RDF>
      <cc:Work
         rdf:about="">
        <dc:format>image/svg+xml</dc:format>
        <dc:type
           rdf:resource="http://purl.org/dc/dcmitype/StillImage" />
        <dc:title />
      </cc:Work>
    </rdf:RDF>
  </metadata>
  <defs
     id="defs2995" />
  <sodipodi:namedview
     pagecolor="#ffffff"
     bordercolor="#666666"
     borderopacity="1"
     objecttolerance="10"
     gridtolerance="10"
     guidetolerance="10"
     inkscape:pageopacity="0"
     inkscape:pageshadow="2"
     inkscape:window-width="1418"
     inkscape:window-height="833"
     id="namedview2993"
     showgrid="false"
     units="in"
     inkscape:zoom="2.0149341"
     inkscape:cx="70.957341"
     inkscape:cy="94.317255"
     inkscape:window-x="25"
     inkscape:window-y="0"
     inkscape:window-maximized="0"
     inkscape:current-layer="svg2985" />
  <g
     id="g3412">
    <path
       id="path4285"
       d="M 163.65095,41.853779 94.188709,1.1438839 c -2.596929,-1.52518409 -5.792894,-1.52518409 -8.390417,0 L 16.349049,41.853779 c -2.602858,1.524607 -4.199051,4.336814 -4.199051,7.380592 v 81.497199 c 0,3.03839 1.596193,5.85599 4.193733,7.38057 l 69.449251,40.74891 c 2.602833,1.51861 5.798213,1.51861 8.395727,0 l 69.462241,-40.74891 c 2.59989,-1.52458 4.19906,-4.34159 4.19906,-7.38057 V 49.239772 c 0,-3.049179 -1.59917,-5.861386 -4.19906,-7.385993 z"
       clip-rule="evenodd"
       inkscape:connector-curvature="0"
       style="fill:#ffffff;fill-rule:evenodd" />
    <g
       id="g3018">
      <path
         style="fill:none;stroke:#000000;stroke-width:0.51289743;stroke-miterlimit:10"
         inkscape:connector-curvature="0"
         stroke-miterlimit="10"
         d="m 135.9508,118.14355 m -72.086282,0 m 61.203342,35.83798"
         id="path4283" />
      <path
         style="fill:#99c222;fill-rule:evenodd"
         inkscape:connector-curvature="0"
         clip-rule="evenodd"
         d="m 93.609589,13.449839 c -2.237251,-1.31137 -4.990557,-1.31137 -7.228325,0 L 57.913796,30.136286 H 122.08114 L 93.609589,13.449839 z M 52.122174,70.847042 H 51.927771 V 70.470741 C 47.258332,61.446767 44.158452,50.652936 43.120234,38.807218 l -16.569212,9.714041 c -2.242349,1.313428 -3.617479,3.736128 -3.617479,6.358341 v 70.20952 c 0,2.61756 1.37513,5.0449 3.61289,6.35834 l 16.614515,9.74711 c 1.079943,-11.66066 4.158456,-22.28805 8.767332,-31.19262 v -0.37631 h 0.194411 C 56.38954,101.50624 61.906857,94.862047 68.331581,90.23583 61.906348,85.610639 56.38904,78.966454 52.122174,70.847042 z m 6.619143,79.490398 27.635366,16.21504 c 2.242349,1.30827 4.995138,1.30827 7.232906,0 L 121.25208,150.33744 H 58.741309 z M 57.524964,38.002934 c 0.288064,2.929251 0.714539,5.789754 1.300318,8.555148 h 62.351478 c 0.58579,-2.765394 1.01226,-5.62538 1.30032,-8.555148 H 57.524964 z m 95.928606,10.518325 -16.57176,-9.711456 c -1.0377,11.848302 -4.13759,22.642133 -8.80957,31.666107 v 0.371132 h -0.19237 c -4.26635,8.119412 -9.78417,14.763597 -16.20889,19.389305 6.42472,4.626217 11.94254,11.270413 16.20889,19.389813 h 0.19237 v 0.37113 c 4.61141,8.9051 7.68942,19.53248 8.76937,31.19263 l 16.61196,-9.74246 c 2.23725,-1.31344 3.61289,-3.74026 3.61289,-6.35834 V 54.884252 c 0,-2.626865 -1.37564,-5.049565 -3.61289,-6.362993 z M 121.1793,133.91771 H 58.823246 c -0.583226,2.76539 -1.009718,5.62538 -1.298282,8.55257 h 64.952116 c -0.28806,-2.92719 -0.71453,-5.78718 -1.29777,-8.55257 z M 60.945988,54.427314 c 1.009718,3.031596 2.192973,5.892099 3.538077,8.552572 h 51.034425 c 1.34511,-2.660473 2.52836,-5.520976 3.53808,-8.552572 H 60.945996 z M 115.51848,117.49333 H 64.484065 c -1.345104,2.66046 -2.528359,5.52096 -3.538077,8.55256 h 58.110572 c -1.00972,-3.03211 -2.19348,-5.8921 -3.53808,-8.55256 z M 69.338746,70.847042 c 5.69339,7.505337 12.914081,12.079356 20.662524,12.079356 7.748452,0 14.96914,-4.574019 20.66253,-12.079356 H 69.338746 z M 90.00127,97.546814 c -7.748443,0 -14.969134,4.574006 -20.662524,12.079346 H 110.6638 C 104.97041,102.12031 97.749213,97.546814 90.00127,97.546814 z"
         id="path4287" />
      <g
         id="text4289"
         style="font-size:12.00000095px;font-style:normal;font-variant:normal;font-weight:600;font-stretch:normal;text-align:start;line-height:80.00000119%;letter-spacing:0px;word-spacing:0px;writing-mode:lr-tb;text-anchor:start;fill:#99c222;fill-opacity:1;stroke:none;font-family:Source Code Pro;-inkscape-font-specification:Source Code Pro Semi-Bold"
         inkscape:transform-center-y="-4.8951711"
         inkscape:transform-center-x="-6.0080146"
         transform="matrix(0.79314158,0.46866334,-0.46143976,0.80555776,-264.19244,-244.37352)">
        <path
           inkscape:connector-curvature="0"
           id="path4324"
           style="line-height:80.00000119%;fill:#99c222;font-family:Source Code Pro;-inkscape-font-specification:Source Code Pro Semi-Bold"
           d="m 479.43182,198.61835 1.092,0 0.12,-0.648 0.036,0 c 0.51599,0.504 1.164,0.792 1.716,0.792 1.35599,0 2.616,-1.164 2.616,-3.192 0,-1.812 -0.88801,-2.988 -2.412,-2.988 -0.636,0 -1.30801,0.3 -1.824,0.78 l 0.048,-1.032 0,-2.184 -1.392,0 0,8.472 m 1.392,-1.536 0,-2.652 c 0.47999,-0.492 0.948,-0.708 1.392,-0.708 0.95999,0 1.368,0.696 1.368,1.872 0,1.332 -0.63601,2.028 -1.464,2.028 -0.372,0 -0.86401,-0.144 -1.296,-0.54" />
        <path
           inkscape:connector-curvature="0"
           id="path4326"
           style="line-height:80.00000119%;fill:#99c222;font-family:Source Code Pro;-inkscape-font-specification:Source Code Pro Semi-Bold"
           d="m 486.65113,193.81835 2.556,0 0,4.8 1.38,0 0,-5.892 -3.936,0 0,1.092 m 3.144,-2.124 c 0.576,0 0.984,-0.372 0.984,-0.924 0,-0.552 -0.408,-0.936 -0.984,-0.936 -0.564,0 -0.984,0.384 -0.984,0.936 0,0.552 0.42,0.924 0.984,0.924" />
        <path
           inkscape:connector-curvature="0"
           id="path4328"
           style="line-height:80.00000119%;fill:#99c222;font-family:Source Code Pro;-inkscape-font-specification:Source Code Pro Semi-Bold"
           d="m 493.47444,195.67835 c 0,1.956 1.416,3.084 2.964,3.084 1.548,0 2.964,-1.128 2.964,-3.084 0,-1.968 -1.416,-3.096 -2.964,-3.096 -1.548,0 -2.964,1.128 -2.964,3.096 m 1.428,0 c 0,-1.188 0.576,-1.968 1.536,-1.968 0.96,0 1.536,0.78 1.536,1.968 0,1.176 -0.576,1.956 -1.536,1.956 -0.96,0 -1.536,-0.78 -1.536,-1.956" />
        <path
           inkscape:connector-curvature="0"
           id="path4330"
           style="line-height:80.00000119%;fill:#99c222;font-family:Source Code Pro;-inkscape-font-specification:Source Code Pro Semi-Bold"
           d="m 501.01775,198.61835 1.392,0 0,-4.02 c 0.54,-0.552 0.93601,-0.828 1.512,-0.828 0.804,0 1.104,0.432 1.104,1.38 l 0,3.468 1.392,0 0,-3.648 c 0,-1.524 -0.624,-2.388 -1.98,-2.388 -0.89999,0 -1.572,0.468 -2.124,1.032 l -0.048,0 -0.108,-0.888 -1.14,0 0,5.892" />
        <path
           inkscape:connector-curvature="0"
           id="path4332"
           style="line-height:80.00000119%;fill:#99c222;font-family:Source Code Pro;-inkscape-font-specification:Source Code Pro Semi-Bold"
           d="m 507.86507,195.67835 c 0,1.956 1.416,3.084 2.964,3.084 1.548,0 2.964,-1.128 2.964,-3.084 0,-1.968 -1.416,-3.096 -2.964,-3.096 -1.548,0 -2.964,1.128 -2.964,3.096 m 1.428,0 c 0,-1.188 0.576,-1.968 1.536,-1.968 0.96,0 1.536,0.78 1.536,1.968 0,1.176 -0.576,1.956 -1.536,1.956 -0.96,0 -1.536,-0.78 -1.536,-1.956" />
        <path
           inkscape:connector-curvature="0"
           id="path4334"
           style="line-height:80.00000119%;fill:#99c222;font-family:Source Code Pro;-inkscape-font-specification:Source Code Pro Semi-Bold"
           d="m 515.06038,195.67835 c 0,1.944 1.008,3.084 2.52,3.084 0.66,0 1.32,-0.372 1.776,-0.828 l 0.036,0 0.108,0.684 1.14,0 0,-8.472 -1.392,0 0,2.136 0.06,0.996 c -0.48,-0.432 -0.948,-0.696 -1.644,-0.696 -1.344,0 -2.604,1.176 -2.604,3.096 m 1.428,-0.012 c 0,-1.236 0.684,-1.944 1.5,-1.944 0.432,0 0.84,0.144 1.26,0.54 l 0,2.652 c -0.408,0.48 -0.84,0.708 -1.332,0.708 -0.9,0 -1.428,-0.684 -1.428,-1.956" />
        <path
           inkscape:connector-curvature="0"
           id="path4336"
           style="line-height:80.00000119%;fill:#99c222;font-family:Source Code Pro;-inkscape-font-specification:Source Code Pro Semi-Bold"
           d="m 522.36369,195.67835 c 0,1.944 1.42801,3.084 3.216,3.084 0.864,0 1.668,-0.288 2.304,-0.684 l -0.468,-0.864 c -0.54,0.3 -1.044,0.48 -1.656,0.48 -1.06799,0 -1.884,-0.588 -1.98,-1.644 l 4.284,0 c 0.024,-0.144 0.06,-0.408 0.06,-0.672 0,-1.632 -0.984,-2.796 -2.736,-2.796 -1.53599,0 -3.024,1.164 -3.024,3.096 m 1.404,-0.564 c 0.156,-0.96 0.864,-1.464 1.656,-1.464 0.936,0 1.428,0.552 1.428,1.464 l -3.084,0" />
        <path
           inkscape:connector-curvature="0"
           id="path4338"
           style="line-height:80.00000119%;fill:#99c222;font-family:Source Code Pro;-inkscape-font-specification:Source Code Pro Semi-Bold"
           d="m 531.22701,197.55035 c 0,0.696 0.504,1.212 1.188,1.212 0.684,0 1.188,-0.516 1.188,-1.212 0,-0.696 -0.504,-1.212 -1.188,-1.212 -0.684,0 -1.188,0.516 -1.188,1.212" />
        <path
           inkscape:connector-curvature="0"
           id="path4340"
           style="line-height:80.00000119%;fill:#99c222;font-family:Source Code Pro;-inkscape-font-specification:Source Code Pro Semi-Bold"
           d="m 537.01832,193.81835 2.556,0 0,4.8 1.38,0 0,-5.892 -3.936,0 0,1.092 m 3.144,-2.124 c 0.576,0 0.984,-0.372 0.984,-0.924 0,-0.552 -0.408,-0.936 -0.984,-0.936 -0.564,0 -0.984,0.384 -0.984,0.936 0,0.552 0.42,0.924 0.984,0.924" />
        <path
           inkscape:connector-curvature="0"
           id="path4342"
           style="line-height:80.00000119%;fill:#99c222;font-family:Source Code Pro;-inkscape-font-specification:Source Code Pro Semi-Bold"
           d="m 543.84164,195.67835 c 0,1.956 1.416,3.084 2.964,3.084 1.54799,0 2.964,-1.128 2.964,-3.084 0,-1.968 -1.41601,-3.096 -2.964,-3.096 -1.548,0 -2.964,1.128 -2.964,3.096 m 1.428,0 c 0,-1.188 0.576,-1.968 1.536,-1.968 0.95999,0 1.536,0.78 1.536,1.968 0,1.176 -0.57601,1.956 -1.536,1.956 -0.96,0 -1.536,-0.78 -1.536,-1.956" />
      </g>
    </g>
  </g>
</svg>
