<?xml version="1.0" encoding="utf-8"?>
<!-- Generator: Adobe Illustrator 16.0.4, SVG Export Plug-In . SVG Version: 6.00 Build 0)  -->
<!DOCTYPE svg PUBLIC "-//W3C//DTD SVG 1.1//EN" "http://www.w3.org/Graphics/SVG/1.1/DTD/svg11.dtd">
<svg version="1.1" xmlns="http://www.w3.org/2000/svg" xmlns:xlink="http://www.w3.org/1999/xlink" x="0px" y="0px"
	 width="124.56px" height="144px" viewBox="0 0 124.56 144" enable-background="new 0 0 124.56 144" xml:space="preserve">
<g id="Layer_1">
	<polygon points="-0.119,36 62.234,0 124.589,36 124.589,108 62.234,144 -0.119,108 	"/>
</g>
<g id="Layer_2">
	<g>
		<g>
			<path fill-rule="evenodd" clip-rule="evenodd" fill="#3C3E3F" d="M59.969,125.92c-1.347-1.465-2.407-3.114-3.34-4.821
				c-1.294-2.366-2.486-4.776-2.91-7.518c-0.434-2.797,0.51-5.078,2.342-7.021c1.917-2.034,3.998-3.904,5.15-6.54
				c1.137-2.6,0.761-5.082-0.441-7.529c-0.112-0.227-0.22-0.508-0.533-0.474c-0.336,0.039-0.299,0.388-0.373,0.609
				c-0.807,2.416-2.289,4.059-4.77,4.987c-3.234,1.209-5.302,3.562-5.758,7.122c-0.02,0.149-0.145,0.283-0.231,0.447
				c-0.613-0.351-0.484-0.915-0.555-1.392c-0.445-3.017-0.493-6.055-0.143-9.069c0.276-2.374,0.66-4.76,1.833-6.915
				c0.152-0.279,0.228-0.576-0.041-0.829c-0.248-0.233-0.492-0.036-0.707,0.071c-2.647,1.328-5.272,2.685-7.771,4.3
				c-3.666,2.373-7.532,3.195-11.646,0.996c-0.821-0.44-1.762-0.664-2.659-0.954c-0.288-0.094-0.658-0.1-0.67-0.469
				c-0.013-0.417,0.435-0.384,0.681-0.446c2.933-0.76,5.598-2.159,8.332-3.401c2.39-1.088,4.034-3.032,5.764-4.873
				c0.703-0.749,1.312-1.583,1.936-2.397c0.226-0.296,0.542-0.619,0.315-1.036c-0.193-0.359-0.583-0.306-0.925-0.314
				c-3.607-0.087-7.218-0.331-10.818-0.214c-3.515,0.114-6.954,0.937-10.268,2.145c-1.909,0.697-3.584,0.455-5.221-0.718
				c-1.602-1.148-3.285-2.198-4.58-3.707c-0.257-0.301-0.854-0.712-0.441-1.204c0.356-0.424,0.776,0.086,1.156,0.215
				c2.999,1.024,5.991,1.873,9.116,0.404c1.222-0.574,2.195-1.475,3.287-2.221c1.895-1.299,3.667-2.897,6.219-2.719
				c0.99,0.069,1.949,0.283,2.889,0.578c1.887,0.598,3.781,0.616,5.715,0.244c0.545-0.105,0.945-0.402,1.374-0.664
				c0.973-0.592,1.288-0.194,1.37,0.773c0.295,3.492,1.425,6.713,3.412,9.581c3.158,4.554,7.595,7.215,12.971,8.354
				c2.96,0.627,5.924,0.623,8.916,0.091c1.326-0.232,1.94,1.054,2.523,1.902c2.418,3.509,2.202,7.718-0.48,11.111
				c-2.469,3.123-4.885,6.302-7.527,9.272c-1.655,1.858-1.92,4.014-2.252,6.263C59.816,120.584,59.939,123.22,59.969,125.92z"/>
			<path fill-rule="evenodd" clip-rule="evenodd" fill="#3C3E3F" d="M53.007,44.807c-0.297-2.177,0.728-4.066,1.575-5.979
				c1.322-2.988,2.952-5.81,4.794-8.513c2.667-3.913,3.3-8.258,2.723-12.887c-0.217-1.736-0.051-3.513-0.316-5.26
				c-0.077-0.505-0.068-1.04,0.002-1.546c0.06-0.453-0.594-1.056-0.039-1.259c0.566-0.208,0.735,0.61,0.974,0.999
				c3.107,5.075,5.028,10.631,6.195,16.419c0.566,2.808-0.278,5.539-1.82,7.975c-1.152,1.814-2.26,3.644-3.022,5.661
				c-0.71,1.887-0.665,3.788,0.014,5.658c0.234,0.645,0.14,0.824-0.544,0.853c-3.019,0.13-5.96,0.669-8.719,1.943
				c-0.716,0.331-0.982,0.114-1.256-0.5C53.065,47.242,52.895,46.071,53.007,44.807z"/>
			<path fill-rule="evenodd" clip-rule="evenodd" fill="#3C3E3F" d="M105.574,63.728c2.716-0.319,5.536,0.455,8.224,1.834
				c0.921,0.473,1.737,1.101,2.454,1.849c0.253,0.266,0.702,0.513,0.48,0.954c-0.232,0.465-0.654,0.153-1.022,0.115
				c-2.123-0.22-4.165-0.867-6.336-0.925c-3.51-0.095-6.58,1.057-9.435,2.884c-2.714,1.737-5.519,3.291-8.435,4.633
				c-1.979,0.91-4.102,1.2-6.28,1.058c-0.795-0.054-1.054-0.344-0.797-1.164c0.71-2.268,1.027-4.604,0.848-6.974
				c-0.08-1.065,0.434-1.47,1.337-1.65c5.065-1.01,10.137-2.007,15.271-2.594C102.988,63.62,104.121,63.728,105.574,63.728z"/>
			<path fill-rule="evenodd" clip-rule="evenodd" fill="#3C3E3F" d="M33.776,31.925c3.411-0.281,5.803,1.741,6.84,4.918
				c0.929,2.849,2.201,5.535,4.546,7.499c1.546,1.296,3.105,2.568,4.492,4.037c0.321,0.34,0.574,0.745,0.887,1.097
				c0.599,0.676,0.43,1.265-0.208,1.764c-2.081,1.625-3.878,3.503-5.223,5.787c-0.34,0.576-0.666,0.443-0.97,0.017
				c-1.669-2.332-3.637-4.503-4.647-7.22c-0.908-2.441-1.646-5.032-1.683-7.609c-0.052-3.712-3.389-6.851-6.235-7.442
				c-1.045-0.218-2.054-0.635-3.155-0.531c-0.241,0.022-0.579,0.067-0.636-0.266c-0.05-0.292,0.267-0.387,0.463-0.548
				C29.877,32.086,31.806,31.871,33.776,31.925z"/>
			<path fill-rule="evenodd" clip-rule="evenodd" fill="#3C3E3F" d="M108.828,89.378c-2.048-0.808-3.422-2.149-4.999-3.157
				c-1.896-1.21-3.885-2.224-5.978-3.003c-2.623-0.98-4.965,0.097-7.248,1.256c-1.717,0.874-3.479,1.177-5.418,1.027
				c-1.721-0.134-3.412-0.267-5.042-0.869c-1.345-0.498-1.397-0.763-0.413-1.782c1.315-1.362,2.513-2.818,3.31-4.558
				c0.366-0.799,0.797-1.237,1.782-0.88c1.86,0.675,3.734,0.033,5.592-0.123c2.348-0.196,4.668-0.435,6.962,0.389
				c0.994,0.355,1.857,0.852,2.59,1.609c1.854,1.911,3.856,3.665,5.875,5.397C107.213,85.863,108.295,87.285,108.828,89.378z"/>
			<path fill-rule="evenodd" clip-rule="evenodd" fill="#3C3E3F" d="M73.29,23.626c1.226,2.05,1.669,4.34,2.188,6.611
				c1.349,5.921,1.029,11.935,1.007,17.928c-0.009,2.562-0.126,2.596-2.399,1.403c-2.068-1.086-4.247-1.877-6.519-2.338
				c-1.103-0.224-0.955-0.551-0.443-1.208c1.752-2.256,3.062-4.757,3.978-7.453c0.88-2.594,1.48-5.25,1.819-7.981
				C73.207,28.275,73.062,25.964,73.29,23.626z"/>
			<path fill-rule="evenodd" clip-rule="evenodd" fill="#3C3E3F" d="M30.519,52.845c2.083,0.053,3.843,0.667,4.924,2.643
				c0.408,0.745,0.979,1.402,1.474,2.1c1.218,1.714,3.054,2.131,4.965,2.226c1.179,0.058,1.427,0.428,1.02,1.505
				c-0.605,1.602-1.193,3.222-1.042,4.993c0.067,0.772-0.441,0.839-1.01,0.724c-4.811-0.975-8.346-3.624-10.417-8.098
				c-0.883-1.901-3.463-3.123-5.775-2.639c-0.584,0.123-1.415,0.747-1.716,0.183c-0.308-0.574,0.705-0.804,1.126-1.174
				C25.898,53.69,28.044,52.832,30.519,52.845z"/>
			<path fill-rule="evenodd" clip-rule="evenodd" fill="#3C3E3F" d="M82.204,93.618c0.062,5.374-2.469,9.229-6.939,11.959
				c-0.258,0.156-0.483,0.386-0.76,0.486c-0.4,0.146-0.722,0.854-1.206,0.377c-0.371-0.362-0.103-0.881,0.084-1.326
				c0.975-2.335,1.977-4.662,2.765-7.071c1.114-3.405-0.205-6.919-3.305-8.761c-0.301-0.177-0.867-0.176-0.792-0.688
				c0.053-0.36,0.517-0.418,0.818-0.56c1.672-0.783,3.334-1.569,4.648-2.931c0.82-0.851,1.432-0.65,2.118,0.319
				C81.39,87.898,82.136,90.645,82.204,93.618z"/>
			<path fill-rule="evenodd" clip-rule="evenodd" fill="#3C3E3F" d="M105.686,58.105c-1.679-0.509-3.189-0.838-4.594-1.421
				c-2.453-1.019-4.425-0.352-6.18,1.428c-1.326,1.345-2.723,2.601-4.223,3.761c-1.534,1.185-3.346,1.197-5.084,1.558
				c-0.434,0.091-0.847-0.187-0.931-0.549c-0.438-1.845-1.277-3.526-2.194-5.317c1.695-0.027,3.134-0.38,4.542-0.904
				c1.604-0.595,2.665-1.85,3.809-3.008c1.423-1.441,3.041-2.36,5.157-2.086c1.23,0.159,2.195,0.936,3.24,1.469
				c2.253,1.149,4.407,2.501,6.085,4.469C105.41,57.622,105.477,57.767,105.686,58.105z"/>
			<path fill-rule="evenodd" clip-rule="evenodd" fill="#3C3E3F" d="M89.18,43.64c-0.098,2.671-1.177,4.796-2.771,6.651
				c-1.201,1.397-2.587,2.624-3.785,4.037c-1.07,1.264-1.246,1.181-2.4,0.062c-1.015-0.985-1.92-2.088-3.111-2.888
				c-0.293-0.197-0.69-0.473-0.477-0.948c0.961-2.127,1.583-4.534,4.022-5.556c1.077-0.451,2.068-1.027,3.087-1.575
				c1.701-0.914,2.074-2.649,2.783-4.188c0.053-0.115,0.045-0.261,0.106-0.371c0.345-0.621,0.244-1.857,0.895-1.813
				c0.663,0.045,0.646,1.249,0.812,1.948C88.711,40.577,88.927,42.189,89.18,43.64z"/>
		</g>
		<g>
			<path fill-rule="evenodd" clip-rule="evenodd" fill="#98BCE3" d="M17.006,89.985c1.914-0.066,3.838,0.197,5.742-0.193
				c2.29-0.469,4.003-1.776,5.354-3.638c0.856-1.181,1.771-2.321,2.618-3.513c1.448-2.037,3.511-2.69,5.879-2.708
				c2.122-0.019,4.147-0.35,5.915-1.665c0.646-0.479,1.094-1.127,1.684-1.839c1.076,2.498,2.317,4.741,4.088,6.649
				c5.431,5.854,12.131,7.403,19.746,5.798c1.807-0.381,3.53-1.03,5.138-1.931c0.668-0.377,1.215-0.32,1.868-0.048
				c3.555,1.475,5.701,6.295,4.817,9.652c-0.928,3.528-2.222,6.95-3.807,10.17c-1.928,3.916-1.481,7.629-0.424,11.506
				c0.438,1.606,1.034,3.149,1.796,4.6c-0.209,0.259-0.368,0.088-0.473,0.011c-2.907-2.123-5.627-4.435-7.879-7.283
				c-2.764-3.493-2.77-7.082-0.643-10.826c0.955-1.682,1.692-3.436,2.019-5.355c0.546-3.213-0.526-5.997-3.19-8.165
				c-0.249,0.428-0.094,0.887-0.127,1.322c-0.168,2.158-0.832,3.986-2.655,5.409c-3.06,2.39-4.276,5.561-3.318,9.478
				c-0.591-0.188-0.75-0.664-0.927-1.041c-2.056-4.376-3.547-8.908-3.593-13.808c-0.006-0.66,0.141-1.321,0.198-1.984
				c0.024-0.292,0.027-0.622-0.282-0.771c-0.278-0.138-0.457,0.108-0.637,0.274c-2.063,1.896-4.012,3.913-5.764,6.092
				c-2.683,3.34-5.851,5.382-10.364,4.657c-1.25-0.2-2.561-0.03-3.825-0.03c-0.146-0.667,0.317-0.759,0.595-0.938
				c2.047-1.32,3.788-3.005,5.62-4.589c3.141-2.714,4.645-6.351,5.972-10.11c0.126-0.358,0.293-0.724-0.026-1.054
				c-0.197-0.202-0.47-0.176-0.7-0.058c-2.296,1.182-4.863,1.431-7.301,2.115c-4.535,1.273-8.5,3.632-12.238,6.405
				c-1.006,0.746-2.074,1.169-3.266,0.896c-2.679-0.613-5.364-1.25-7.609-2.985C17.006,90.32,17.006,90.152,17.006,89.985z"/>
			<path fill-rule="evenodd" clip-rule="evenodd" fill="#98BCE3" d="M43.596,14.338c3.464,2.358,5.843,5.259,8.114,8.252
				c1.109,1.461,2.097,3.016,3.126,4.536c2.134,3.154,2.431,6.569,1.448,10.172c-0.682,2.5-1.32,5.005-0.705,7.629
				c0.263,1.119,0.796,2.1,1.455,3.022c0.301,0.424,0.507,0.707-0.228,0.979c-2.834,1.056-5.498,2.43-7.67,4.596
				c-0.587,0.586-0.82-0.01-1.062-0.295c-1.899-2.241-2.393-4.878-2.135-7.729c0.353-3.915,1.216-7.718,2.253-11.508
				c0.982-3.587,0.361-7.108-1.011-10.524C46.005,20.542,44.873,17.597,43.596,14.338z"/>
			<path fill-rule="evenodd" clip-rule="evenodd" fill="#98BCE3" d="M112.555,52.74c-1.467,0.758-2.923,0.645-4.309,0.834
				c-4.33,0.586-7.931,2.449-10.634,5.912c-1.936,2.474-4.146,4.686-6.407,6.845c-1.561,1.488-3.442,2.461-5.554,2.987
				c-0.814,0.202-1.225,0.135-1.213-0.882c0.026-2.396-0.508-4.709-1.3-6.959c-0.177-0.5-0.371-0.921,0.254-1.267
				c5.65-3.123,11.168-6.508,17.344-8.56c2.823-0.938,5.702-1.164,8.611-0.508C110.48,51.396,111.541,51.874,112.555,52.74z"/>
			<path fill-rule="evenodd" clip-rule="evenodd" fill="#98BCE3" d="M19.811,47.883c0.15-0.385,0.209-0.618,0.324-0.818
				c2.418-4.191,9.353-4.768,12.221-0.904c2.421,3.259,5.343,5.681,9.265,6.875c1.396,0.423,2.671,1.158,3.851,2.049
				c0.793,0.601,0.993,1.109,0.328,2.033c-1.549,2.15-2.604,4.55-3.108,7.401c-2.899-2.048-5.963-3.72-7.892-6.712
				c-1.401-2.17-2.659-4.427-3.795-6.761c-1.101-2.259-3.128-3.428-5.614-3.68C23.564,47.182,21.735,47.286,19.811,47.883z"/>
			<path fill-rule="evenodd" clip-rule="evenodd" fill="#98BCE3" d="M82.203,78.703c-0.255-0.438,0.027-0.783,0.188-1.16
				c0.838-1.954,1.711-3.899,1.859-6.063c0.04-0.598,0.36-0.78,0.9-0.781c1.454-0.008,2.753-0.558,4.05-1.156
				c2.607-1.203,5.16-2.577,8.186-2.411c0.981,0.053,1.918,0.223,2.769,0.679c2.465,1.323,5.033,2.421,7.582,3.563
				c1.664,0.745,2.837,1.791,3.424,3.079c-1.628,0.018-3.023-0.704-4.477-1.103c-2.056-0.563-4.133-0.938-6.245-1.209
				c-2.91-0.372-5.186,0.828-7.004,2.864c-2.371,2.651-5.475,3.328-8.749,3.681c-0.824,0.09-1.667,0.006-2.501,0.005L82.203,78.703z
				"/>
			<path fill-rule="evenodd" clip-rule="evenodd" fill="#98BCE3" d="M60.759,49.932c11.266,0.164,19.019,6.866,20.086,16.729
				c0.938,8.685-6.344,19.058-13.492,19.757c0.118-0.412,0.511-0.498,0.791-0.68c5.095-3.32,7.686-8.216,8.236-14.073
				c0.849-8.988-3.347-15.804-11.89-20.013C63.308,51.068,62.095,50.545,60.759,49.932z"/>
			<path fill-rule="evenodd" clip-rule="evenodd" fill="#98BCE3" d="M69.605,48.602c-3.407-0.702-6.691-1.097-10.145-0.426
				c2.957-8.143,2.052-15.984-0.859-23.837C62.145,26.707,67.819,39.264,69.605,48.602z"/>
			<path fill-rule="evenodd" clip-rule="evenodd" fill="#98BCE3" d="M42.619,67.205c0.021,2.368-0.204,4.553,0.63,6.626
				c0.208,0.518-0.147,0.541-0.494,0.6c-4.622,0.788-8.687-0.553-11.887-3.805c-2.187-2.222-4.5-2.3-6.843-0.997
				c-0.433,0.24-0.855,0.497-1.609,0.936c1.252-2.654,2.794-4.542,5.208-5.639c2.443-1.11,4.732-1.145,6.797,0.866
				C36.768,68.08,39.529,68.343,42.619,67.205z"/>
			<path fill-rule="evenodd" clip-rule="evenodd" fill="#98BCE3" d="M82.186,78.691c0.943,1.043,2.206,1.722,3.103,2.841
				c4.662,5.83,4.924,13.03-0.999,19.026c-0.198,0.204-0.393,0.547-0.706,0.401c-0.408-0.188-0.334-0.624-0.298-0.999
				c0.227-2.446,0.431-4.893,0.438-7.354c0.011-4-2.032-6.574-5.958-7.47c-0.283-0.064-0.564-0.133-1.009-0.236
				c1.549-1.355,2.95-2.723,4.07-4.354c0.429-0.628,0.528-1.526,1.377-1.843L82.186,78.691z"/>
			<path fill-rule="evenodd" clip-rule="evenodd" fill="#98BCE3" d="M77.47,53.02c1.84-0.664,3.388-1.571,4.681-2.92
				c0.98-1.026,1.391-2.358,2.075-3.542c0.463-0.8,0.938-1.584,1.706-2.123c1.089-0.761,2.217-1.149,3.625-0.913
				c2.548,0.427,5.093,0.798,7.494,1.809c0.654,0.275,1.265,0.606,2.152,1.297c-1.689,0-3.034,0.104-4.357-0.022
				c-2.842-0.273-4.655,0.996-5.89,3.464c-0.724,1.447-1.509,2.867-2.442,4.211c-1.136,1.636-2.746,2.496-4.514,3.187
				c-0.32,0.125-0.644,0.299-0.872-0.103C80.193,55.722,78.814,54.444,77.47,53.02z"/>
			<path fill-rule="evenodd" clip-rule="evenodd" fill="#98BCE3" d="M75.701,32.297c1.678,1.874,2.887,3.908,3.766,6.112
				c0.728,1.823,0.508,3.688-0.114,5.5c-0.789,2.289-2.018,4.38-3.012,6.577c-0.332,0.734-0.738,1.053-1.613,0.463
				c-1.204-0.809-2.555-1.398-3.949-1.849c-0.49-0.16-0.947-0.362-0.833-1.032c0.228-1.308,0.257-2.649,0.671-3.928
				c0.262-0.812,0.633-1.602,1.312-2.087c2.914-2.086,4.106-4.904,3.777-8.429C75.664,33.185,75.701,32.74,75.701,32.297z"/>
		</g>
	</g>
	<rect x="7.667" y="95.746" opacity="0.6" width="109.715" height="16.254"/>
	<g>
		<path fill="#FFFFFF" d="M9.219,101.536c0-0.169-0.091-0.248-0.25-0.248H8.507v-0.938h1.029c0.508,0,0.7,0.214,0.7,0.576
			c0,0.169-0.012,0.306-0.012,0.306h0.023c0,0,0.474-1.018,1.898-1.018c1.537,0,2.52,1.221,2.52,2.994
			c0,1.82-1.107,2.993-2.599,2.993c-1.265,0-1.751-0.915-1.751-0.915h-0.022c0,0,0.022,0.205,0.022,0.496v2.544H9.219V101.536z
			 M11.896,105.266c0.904,0,1.649-0.745,1.649-2.046c0-1.243-0.667-2.045-1.615-2.045c-0.847,0-1.649,0.599-1.649,2.055
			C10.281,104.247,10.834,105.266,11.896,105.266z"/>
		<path fill="#FFFFFF" d="M16.047,101.536c0-0.169-0.091-0.248-0.249-0.248h-0.463v-0.938h1.04c0.497,0,0.734,0.203,0.734,0.667
			v0.36c0,0.226-0.022,0.396-0.022,0.396h0.022c0.271-0.835,0.926-1.491,1.808-1.491c0.146,0,0.293,0.022,0.293,0.022v1.087
			c0,0-0.147-0.036-0.327-0.036c-0.701,0-1.345,0.498-1.604,1.345c-0.102,0.328-0.136,0.678-0.136,1.029v2.338h-1.096V101.536z"/>
		<path fill="#FFFFFF" d="M22.715,100.215c1.706,0,3.084,1.255,3.084,2.982c0,1.741-1.379,3.005-3.084,3.005
			c-1.706,0-3.073-1.264-3.073-3.005C19.642,101.47,21.009,100.215,22.715,100.215z M22.715,105.254
			c1.084,0,1.966-0.859,1.966-2.057c0-1.188-0.881-2.033-1.966-2.033c-1.073,0-1.955,0.846-1.955,2.033
			C20.761,104.395,21.642,105.254,22.715,105.254z"/>
		<path fill="#FFFFFF" d="M26.233,107.446c0.418,0,1.22-0.137,1.22-1.254v-4.656c0-0.169-0.09-0.248-0.249-0.248h-0.463v-0.938
			h1.084c0.508,0,0.722,0.214,0.722,0.724v5.186c0,1.909-1.468,2.135-2.191,2.135c-0.225,0-0.373-0.023-0.373-0.023v-0.937
			C25.984,107.435,26.086,107.446,26.233,107.446z M27.475,98.09h0.995v1.143h-0.995V98.09z"/>
		<path fill="#FFFFFF" d="M32.72,100.215c1.604,0,2.463,1.197,2.463,2.677c0,0.147-0.034,0.453-0.034,0.453H30.98
			c0.067,1.22,0.949,1.909,1.965,1.909c0.983,0,1.672-0.667,1.672-0.667l0.475,0.78c0,0-0.847,0.835-2.204,0.835
			c-1.807,0-3.04-1.3-3.04-2.993C29.85,101.392,31.093,100.215,32.72,100.215z M34.053,102.542
			c-0.034-0.949-0.632-1.457-1.344-1.457c-0.836,0-1.515,0.508-1.684,1.457H34.053z"/>
		<path fill="#FFFFFF" d="M39.163,100.215c0.689,0,2.057,0.283,2.057,1.255v0.588h-0.995v-0.317c0-0.405-0.644-0.586-1.062-0.586
			c-1.118,0-1.954,0.835-1.954,2.043c0,1.3,0.949,2.033,2.011,2.033c1.074,0,1.774-0.791,1.774-0.791l0.474,0.78
			c0,0-0.814,0.982-2.327,0.982c-1.797,0-3.051-1.274-3.051-2.993C36.09,101.525,37.322,100.215,39.163,100.215z"/>
		<path fill="#FFFFFF" d="M42.714,101.232h-0.746v-0.882h0.769v-1.571h1.073v1.571h1.368v0.882H43.81v2.619
			c0,1.142,0.792,1.289,1.209,1.289c0.159,0,0.261-0.021,0.261-0.021v0.97c0,0-0.147,0.022-0.385,0.022
			c-0.724,0-2.181-0.226-2.181-2.135V101.232z"/>
		<path fill="#FFFFFF" d="M46.524,99.277c0-0.17-0.09-0.25-0.249-0.25h-0.463V98.09h1.084c0.508,0,0.723,0.215,0.723,0.722v1.867
			c0,0.271-0.022,0.476-0.022,0.476h0.022c0,0,0.498-0.939,1.842-0.939c1.537,0,2.509,1.221,2.509,2.994
			c0,1.82-1.096,2.993-2.599,2.993c-1.276,0-1.796-0.96-1.796-0.96h-0.022c0,0,0.022,0.183,0.022,0.43v0.396h-1.05V99.277z
			 M49.213,105.266c0.904,0,1.65-0.745,1.65-2.046c0-1.243-0.667-2.045-1.626-2.045c-0.848,0-1.639,0.599-1.639,2.055
			C47.598,104.247,48.128,105.266,49.213,105.266z"/>
		<path fill="#FFFFFF" d="M53.228,99.277c0-0.17-0.091-0.25-0.249-0.25h-0.463V98.09h1.085c0.509,0,0.723,0.215,0.723,0.722v6.069
			c0,0.17,0.091,0.248,0.249,0.248h0.463v0.938H53.95c-0.509,0-0.723-0.215-0.723-0.723V99.277z"/>
		<path fill="#FFFFFF" d="M59.183,102.508h0.249v-0.055c0-1.008-0.373-1.368-1.265-1.368c-0.272,0-0.938,0.069-0.938,0.44v0.328
			h-1.028v-0.565c0-0.938,1.423-1.073,1.977-1.073c1.854,0,2.351,0.971,2.351,2.238v2.428c0,0.17,0.09,0.248,0.249,0.248h0.463
			v0.938h-1.027c-0.509,0-0.713-0.248-0.713-0.655c0-0.192,0.022-0.34,0.022-0.34H59.5c0,0-0.452,1.13-1.819,1.13
			c-0.983,0-1.943-0.599-1.943-1.739C55.738,102.621,58.223,102.508,59.183,102.508z M57.917,105.32
			c0.927,0,1.526-0.971,1.526-1.817v-0.193H59.16c-0.825,0-2.315,0.047-2.315,1.098C56.844,104.869,57.194,105.32,57.917,105.32z"/>
		<path fill="#FFFFFF" d="M64.948,100.215c0.69,0,2.057,0.283,2.057,1.255v0.588h-0.994v-0.317c0-0.405-0.644-0.586-1.062-0.586
			c-1.118,0-1.954,0.835-1.954,2.043c0,1.3,0.949,2.033,2.011,2.033c1.074,0,1.774-0.791,1.774-0.791l0.475,0.78
			c0,0-0.813,0.982-2.33,0.982c-1.793,0-3.048-1.274-3.048-2.993C61.875,101.525,63.108,100.215,64.948,100.215z"/>
		<path fill="#FFFFFF" d="M68.376,99.277c0-0.17-0.09-0.25-0.249-0.25h-0.463V98.09h1.083c0.51,0,0.724,0.147,0.724,0.657v3.706
			h0.51c0.201,0,0.451-0.059,0.597-0.248l1.322-1.854h1.254l-1.546,2.125c-0.261,0.349-0.431,0.427-0.431,0.427v0.024
			c0,0,0.191,0.066,0.383,0.43l0.849,1.546c0.091,0.182,0.203,0.227,0.486,0.227h0.35v0.938h-0.792c-0.53,0-0.698-0.09-0.948-0.53
			l-1.039-1.922c-0.124-0.213-0.383-0.237-0.562-0.237h-0.432v2.689h-1.095V99.277z"/>
		<path fill="#FFFFFF" d="M74.251,99.277c0-0.17-0.09-0.25-0.247-0.25H73.54V98.09h1.085c0.508,0,0.724,0.215,0.724,0.722v6.069
			c0,0.17,0.09,0.248,0.246,0.248h0.467v0.938h-1.087c-0.507,0-0.724-0.215-0.724-0.723V99.277z"/>
		<path fill="#FFFFFF" d="M77.361,101.536c0-0.169-0.09-0.248-0.249-0.248h-0.464v-0.938h1.074c0.509,0,0.723,0.214,0.723,0.724
			v3.807c0,0.17,0.092,0.248,0.247,0.248h0.465v0.938h-1.072c-0.509,0-0.724-0.215-0.724-0.723V101.536z M77.384,98.09h0.981v1.143
			h-0.981V98.09z"/>
		<path fill="#FFFFFF" d="M82.379,100.215c1.425,0,1.831,0.893,1.831,0.893h0.021c0,0,0-0.09,0-0.181
			c0-0.338,0.181-0.576,0.633-0.576h1.062v0.938h-0.451c-0.148,0-0.249,0.079-0.249,0.226v4.315c0,1.887-1.435,2.61-2.882,2.61
			c-0.688,0-1.39-0.191-1.955-0.476l0.372-0.88c0,0,0.702,0.384,1.561,0.384c0.994,0,1.808-0.438,1.808-1.594v-0.382
			c0-0.183,0.022-0.363,0.022-0.363H84.13c-0.338,0.555-0.87,0.87-1.704,0.87c-1.583,0-2.555-1.276-2.555-2.926
			C79.871,101.436,80.785,100.215,82.379,100.215z M84.164,103.086c0-1.493-0.734-1.922-1.615-1.922
			c-0.995,0-1.559,0.723-1.559,1.886c0,1.188,0.622,2.001,1.648,2.001C83.43,105.051,84.164,104.575,84.164,103.086z"/>
		<path fill="#FFFFFF" d="M87.094,99.277c0-0.17-0.09-0.25-0.247-0.25h-0.465V98.09h1.084c0.509,0,0.724,0.215,0.724,0.7v2.228
			c0,0.271-0.022,0.474-0.022,0.474h0.022c0.247-0.553,0.984-1.276,2.125-1.276c1.343,0,1.953,0.734,1.953,2.191v2.475
			c0,0.17,0.092,0.248,0.249,0.248h0.465v0.938h-1.073c-0.509,0-0.724-0.215-0.724-0.723v-2.689c0-0.802-0.171-1.436-1.086-1.436
			c-0.87,0-1.57,0.59-1.807,1.412c-0.078,0.227-0.103,0.486-0.103,0.758v2.678h-1.096V99.277z"/>
		<path fill="#FFFFFF" d="M94.216,101.232h-0.745v-0.882h0.769v-1.571h1.074v1.571h1.365v0.882h-1.365v2.619
			c0,1.142,0.789,1.289,1.206,1.289c0.159,0,0.261-0.021,0.261-0.021v0.97c0,0-0.146,0.022-0.386,0.022
			c-0.723,0-2.179-0.226-2.179-2.135V101.232z"/>
		<path fill="#FFFFFF" d="M97.979,104.902h1.118v1.165h-1.118V104.902z"/>
		<path fill="#FFFFFF" d="M103.236,100.215c1.705,0,3.084,1.255,3.084,2.982c0,1.741-1.379,3.005-3.084,3.005
			c-1.707,0-3.074-1.264-3.074-3.005C100.162,101.47,101.529,100.215,103.236,100.215z M103.236,105.254
			c1.083,0,1.966-0.859,1.966-2.057c0-1.188-0.883-2.033-1.966-2.033c-1.075,0-1.957,0.846-1.957,2.033
			C101.279,104.395,102.161,105.254,103.236,105.254z"/>
		<path fill="#FFFFFF" d="M107.691,101.536c0-0.169-0.091-0.248-0.249-0.248h-0.464v-0.938h1.04c0.496,0,0.734,0.203,0.734,0.667
			v0.36c0,0.226-0.022,0.396-0.022,0.396h0.022c0.272-0.835,0.927-1.491,1.808-1.491c0.147,0,0.295,0.022,0.295,0.022v1.087
			c0,0-0.147-0.036-0.33-0.036c-0.698,0-1.342,0.498-1.602,1.345c-0.104,0.328-0.136,0.678-0.136,1.029v2.338h-1.097V101.536z"/>
		<path fill="#FFFFFF" d="M113.805,100.215c1.424,0,1.831,0.893,1.831,0.893h0.021c0,0,0-0.09,0-0.181
			c0-0.338,0.18-0.576,0.633-0.576h1.062v0.938h-0.45c-0.147,0-0.25,0.079-0.25,0.226v4.315c0,1.887-1.435,2.61-2.881,2.61
			c-0.689,0-1.391-0.191-1.956-0.476l0.373-0.88c0,0,0.701,0.384,1.56,0.384c0.994,0,1.809-0.438,1.809-1.594v-0.382
			c0-0.183,0.021-0.363,0.021-0.363h-0.021c-0.339,0.555-0.871,0.87-1.705,0.87c-1.583,0-2.554-1.276-2.554-2.926
			C111.298,101.436,112.211,100.215,113.805,100.215z M115.591,103.086c0-1.493-0.736-1.922-1.616-1.922
			c-0.995,0-1.559,0.723-1.559,1.886c0,1.188,0.622,2.001,1.649,2.001C114.854,105.051,115.591,104.575,115.591,103.086z"/>
	</g>
</g>
</svg>
