<?xml version="1.0" encoding="UTF-8" standalone="no"?>
<!-- Created with Inkscape (http://www.inkscape.org/) -->

<svg
   xmlns:dc="http://purl.org/dc/elements/1.1/"
   xmlns:cc="http://creativecommons.org/ns#"
   xmlns:rdf="http://www.w3.org/1999/02/22-rdf-syntax-ns#"
   xmlns:svg="http://www.w3.org/2000/svg"
   xmlns="http://www.w3.org/2000/svg"
   xmlns:sodipodi="http://sodipodi.sourceforge.net/DTD/sodipodi-0.dtd"
   xmlns:inkscape="http://www.inkscape.org/namespaces/inkscape"
   width="47mm"
   height="54mm"
   viewBox="0 0 47 54"
   version="1.1"
   id="svg23178"
   inkscape:version="0.92.1 r15371"
   sodipodi:docname="blug.svg">
  <defs
     id="defs23172">
    <clipPath
       clipPathUnits="userSpaceOnUse"
       id="clipPath244-2">
      <path
         inkscape:connector-curvature="0"
         d="m 58.658,671.51 4.696,-38.112 37.941,4.673 -4.692,38.113 z"
         id="path246-9" />
    </clipPath>
  </defs>
  <sodipodi:namedview
     id="base"
     pagecolor="#ffffff"
     bordercolor="#666666"
     borderopacity="1.0"
     inkscape:pageopacity="0.0"
     inkscape:pageshadow="2"
     inkscape:zoom="1.6048009"
     inkscape:cx="60.321314"
     inkscape:cy="93.928174"
     inkscape:document-units="mm"
     inkscape:current-layer="g24407"
     showgrid="false"
     inkscape:pagecheckerboard="true"
     inkscape:window-width="1920"
     inkscape:window-height="1025"
     inkscape:window-x="0"
     inkscape:window-y="27"
     inkscape:window-maximized="1" />
  <metadata
     id="metadata23175">
    <rdf:RDF>
      <cc:Work
         rdf:about="">
        <dc:format>image/svg+xml</dc:format>
        <dc:type
           rdf:resource="http://purl.org/dc/dcmitype/StillImage" />
        <dc:title></dc:title>
      </cc:Work>
    </rdf:RDF>
  </metadata>
  <g
     inkscape:label="Layer 1"
     inkscape:groupmode="layer"
     id="layer1"
     transform="translate(0,-243)">
    <g
       transform="matrix(0.28222223,0,0,0.28222223,-98.648245,-75.568918)"
       id="g24222">
      <g
         id="g24407">
        <path
           style="color:#000000;display:inline;overflow:visible;visibility:visible;fill:#191f1f;fill-opacity:1;fill-rule:nonzero;stroke:#ffffe7;stroke-width:9.37499905;stroke-linecap:round;stroke-linejoin:miter;stroke-miterlimit:4;stroke-dasharray:none;stroke-dashoffset:7.51718092;stroke-opacity:1;marker:none;enable-background:accumulate"
           inkscape:transform-center-x="0.34781178"
           inkscape:transform-center-y="-1.5562528"
           d="m 509.99936,1179.6496 -0.0285,89.402 -77.15824,44.6761 -77.12969,-44.7258 0.0285,-89.402 77.15823,-44.6762 z"
           id="path20685"
           inkscape:connector-curvature="0" />
        <g
           transform="matrix(2.3021522,0,0,-2.3021522,249.08609,2724.2359)"
           id="g4544"
           style="fill:#dc6900;fill-opacity:0.94117647;stroke:#0b1316;stroke-opacity:1">
          <g
             id="g4546"
             clip-path="url(#clipPath244-2)"
             style="fill:#dc6900;fill-opacity:0.94117647">
            <g
               id="g4548"
               transform="translate(63.2539,645.6108)"
               style="fill:#dc6900;fill-opacity:0.94117647">
              <path
                 inkscape:connector-curvature="0"
                 d="M 0,0 C -0.003,-0.336 -0.021,-0.678 0.127,-0.928 0.383,-1.336 1.002,-1.516 1.32,-1.878 1.101,-1.511 0.948,-1.104 0.719,-0.73 0.544,-0.448 0.252,-0.233 0,0 M -1.075,2.314 C -1.115,2.022 -1.21,1.712 -1.115,1.489 -1.025,1.292 -0.773,1.171 -0.541,1.044 -0.604,1.332 -0.654,1.618 -0.762,1.879 -0.833,2.045 -0.95,2.18 -1.075,2.314 m -0.708,2.605 c 0.039,-0.174 0.111,-0.332 0.192,-0.502 0.017,0.13 0.023,0.257 -0.005,0.373 -0.027,0.108 -0.107,0.207 -0.206,0.305 0.005,-0.053 0.005,-0.117 0.019,-0.176 M 1.531,-2.22 c 0.192,-0.359 0.34,-0.744 0.6,-1.045 C 2.252,-3.408 2.41,-3.502 2.57,-3.605 2.494,-3.494 2.433,-3.391 2.346,-3.292 2.051,-2.956 1.795,-2.583 1.531,-2.22 M -2.25,6.867 C -2.242,6.785 -2.2,6.7 -2.155,6.615 c 0.044,0.135 0.085,0.269 0.071,0.391 -0.041,0.336 0,0.677 -0.01,1.031 C -2.17,7.646 -2.299,7.26 -2.25,6.867 M 34.992,5.162 C 34.916,4.776 34.853,4.399 34.744,4.023 34.602,3.517 34.413,3.027 34.229,2.543 34.041,2.045 33.822,1.592 33.592,1.117 33.463,0.844 33.477,0.48 33.471,0.138 c 0.131,0.181 0.257,0.369 0.354,0.562 0.235,0.457 0.287,1.012 0.477,1.48 0.188,0.485 0.663,0.879 0.815,1.376 0.143,0.486 -0.201,1.099 -0.125,1.606 m 0.355,7.733 c 0.005,-0.09 0,-0.198 0.012,-0.288 0.037,-0.192 0.063,-0.39 0.094,-0.583 0.082,0.13 0.149,0.256 0.136,0.368 -0.032,0.183 -0.136,0.34 -0.242,0.503 m -2.863,-5.2 C 32.453,7.283 32.817,6.831 32.744,6.427 32.678,6.022 32.35,5.665 32.256,5.27 32.156,4.875 32.27,4.417 32.141,4.027 32.009,3.642 31.809,3.279 31.646,2.897 31.494,2.521 31.229,2.197 31.046,1.839 30.934,1.615 30.754,1.422 30.574,1.233 30.279,1.108 30.242,1.044 29.87,0.897 29.82,0.879 29.799,0.856 29.758,0.83 c 0.094,0.067 0.184,0.134 0.238,0.228 0.264,0.421 0.211,1.024 0.426,1.476 0.22,0.458 0.273,0.964 0.439,1.453 0.112,0.327 0.399,0.593 0.489,0.929 0.089,0.349 0.277,0.676 0.341,1.036 0.063,0.353 0.073,0.726 0.108,1.085 0.031,0.363 0.17,0.717 0.175,1.077 0.008,0.353 0.005,0.726 -0.018,1.084 -0.032,0.49 -0.234,0.969 -0.31,1.435 -0.08,0.471 -0.036,0.974 -0.162,1.445 -0.13,0.47 -0.233,0.964 -0.403,1.417 -0.179,0.458 -0.359,0.941 -0.583,1.376 -0.219,0.436 -0.52,0.861 -0.789,1.284 -0.018,0.026 -0.046,0.04 -0.063,0.062 0.17,-0.282 0.346,-0.57 0.479,-0.874 0.207,-0.44 0.369,-0.929 0.525,-1.395 0.159,-0.458 0.247,-0.964 0.354,-1.435 0.117,-0.48 0.059,-0.992 0.127,-1.484 C 31.197,10.544 31.373,10.06 31.395,9.57 31.404,9.208 31.399,8.827 31.385,8.45 31.373,8.086 31.229,7.718 31.189,7.342 31.145,6.978 31.131,6.597 31.063,6.234 30.992,5.867 30.804,5.521 30.705,5.153 30.615,4.813 30.332,4.538 30.215,4.198 30.045,3.695 29.973,3.176 29.758,2.709 29.538,2.229 29.574,1.623 29.31,1.185 29.049,0.736 28.322,0.614 28.023,0.206 27.973,0.152 27.955,0.072 27.919,0.009 c -0.023,0 -0.03,-0.005 -0.05,-0.014 v 0.018 c -0.039,0.099 -0.267,0.198 -0.533,0.323 -0.287,0.144 -0.687,0.233 -1.139,0.323 -0.305,0.053 -0.636,0.144 -0.978,0.175 0.108,0.112 0.216,0.224 0.279,0.363 0.147,0.337 0.377,0.642 0.452,0.995 0.075,0.355 -0.125,0.76 -0.112,1.136 0.017,0.39 0.336,0.794 0.301,1.202 -0.045,0.408 -0.319,0.799 -0.409,1.224 -0.085,0.421 -0.117,0.879 -0.242,1.314 -0.126,0.434 -0.523,0.799 -0.677,1.246 -0.157,0.44 0.041,1.033 -0.129,1.489 -0.171,0.445 -0.431,0.866 -0.619,1.324 0.206,0.045 0.408,0.085 0.582,0.189 0.328,0.202 0.637,0.426 0.937,0.641 0.305,0.229 0.565,0.493 0.834,0.731 0.278,0.242 0.643,0.395 0.889,0.649 0.314,0.324 0.353,0.88 0.619,1.216 0.273,0.346 0.726,0.543 0.946,0.897 0.224,0.355 0.234,0.821 0.403,1.171 0.184,0.367 0.295,0.722 0.427,1.063 0.04,0.112 0.085,0.215 0.13,0.318 0.162,-0.242 0.282,-0.503 0.444,-0.757 0.156,-0.261 0.812,-0.247 0.96,-0.516 0.148,-0.279 -0.279,-0.831 -0.148,-1.122 0.09,-0.197 0.685,-0.193 0.771,-0.399 0.166,-0.408 0.224,-0.862 0.354,-1.274 0.13,-0.412 -0.157,-0.924 -0.063,-1.35 0.098,-0.412 0.395,-0.767 0.457,-1.184 0.059,-0.412 0.081,-0.835 0.109,-1.246 0.03,-0.426 0.52,-0.839 0.515,-1.252 C 33.221,8.49 32.521,8.114 32.484,7.695 M 28.973,0.197 C 28.852,0.148 28.75,0.122 28.655,0.103 c 0.003,0.014 0.013,0.027 0.023,0.035 0.197,0.257 0.573,0.391 0.89,0.57 C 29.385,0.534 29.341,0.355 28.973,0.197 m -3.569,-7.884 c -0.449,-0.224 -1.058,-0.094 -1.531,-0.287 -0.322,-0.13 -0.637,-0.277 -0.951,-0.404 0.109,0.09 0.217,0.18 0.342,0.225 0.179,0.062 0.322,0.21 0.507,0.278 0.403,0.17 0.862,0.193 1.247,0.386 0.238,0.12 0.537,0.115 0.82,0.134 -0.135,-0.121 -0.274,-0.242 -0.434,-0.332 m -5.027,6.059 c -0.387,0.081 -0.831,0.112 -1.271,0.081 -0.399,-0.037 -0.793,-0.202 -1.197,-0.364 -0.184,-0.067 -0.346,-0.17 -0.511,-0.264 -0.171,0.148 -0.332,0.318 -0.515,0.466 -0.324,0.252 -0.647,0.511 -0.944,0.861 -0.277,0.327 -0.668,0.605 -0.921,1.015 -0.204,0.308 -0.387,0.64 -0.58,0.99 -0.176,0.336 -0.319,0.718 -0.489,1.077 -0.175,0.354 -0.277,0.753 -0.439,1.139 -0.121,0.277 -0.391,0.492 -0.512,0.789 -0.094,0.211 0.045,0.52 -0.044,0.736 -0.162,0.39 -0.369,0.744 -0.499,1.129 -0.125,0.386 -0.471,0.723 -0.574,1.104 -0.098,0.409 -0.209,0.802 -0.277,1.197 -0.073,0.404 0.113,0.825 0.071,1.221 -0.04,0.39 -0.215,0.784 -0.21,1.16 -0.005,0.395 0.12,0.776 0.157,1.141 0.035,0.376 0.107,0.743 0.189,1.075 0.084,0.36 0.142,0.713 0.273,1.028 0.129,0.323 0.286,0.631 0.461,0.897 0.252,0.358 0.614,0.6 0.945,0.842 0.186,0.131 0.324,0.405 0.539,0.489 0.35,0.144 0.777,-0.068 1.162,-0.063 0.368,0.009 0.748,0.149 1.139,0.037 0.367,-0.094 0.668,-0.405 1.045,-0.602 0.364,-0.193 0.834,-0.246 1.188,-0.52 0.279,-0.211 0.632,-0.371 0.903,-0.632 0.264,-0.248 0.438,-0.615 0.69,-0.911 0.251,-0.278 0.557,-0.537 0.789,-0.856 0.234,-0.318 0.387,-0.704 0.602,-1.041 0.211,-0.341 0.211,-0.802 0.408,-1.176 0.139,-0.268 0.48,-0.438 0.609,-0.72 0.108,-0.238 0.032,-0.557 0.13,-0.799 0.153,-0.368 0.368,-0.704 0.507,-1.059 0.19,-0.484 0.453,-0.932 0.615,-1.403 0.17,-0.484 0.304,-0.959 0.43,-1.413 C 24.381,4.547 24.561,4.112 24.633,3.677 24.717,3.225 24.807,2.785 24.816,2.364 24.83,1.947 24.654,1.542 24.588,1.162 24.555,1.014 24.501,0.889 24.447,0.762 24.209,0.705 23.977,0.632 23.748,0.538 23.551,0.454 23.395,0.314 23.219,0.216 22.856,-0.01 22.555,-0.292 22.291,-0.579 22.012,-0.888 21.807,-1.21 21.635,-1.511 21.537,-1.683 21.457,-1.843 21.389,-2 c -0.274,0.143 -0.61,0.296 -1.012,0.372 m -3.935,-1.35 c -0.277,-0.304 -0.479,-0.627 -0.651,-0.938 -0.304,-0.542 -0.501,-1 -0.456,-1.183 -0.197,-0.049 -0.346,-0.059 -0.687,-0.202 -0.511,-0.202 -0.492,-0.233 -1,-0.44 -0.586,-0.247 -0.452,-0.565 -1.036,-0.798 -0.089,-0.04 -0.167,-0.063 -0.247,-0.063 -0.197,0.081 -0.389,0.162 -0.588,0.225 -0.384,0.13 -0.816,0.196 -1.192,0.354 -0.376,0.166 -0.649,0.574 -1.017,0.75 C 9.204,-5.085 8.756,-5.036 8.41,-4.83 8.064,-4.614 7.827,-4.221 7.5,-3.986 7.168,-3.753 6.773,-3.588 6.46,-3.318 6.15,-3.063 6.105,-2.511 5.809,-2.215 5.526,-1.937 5.314,-1.605 5.047,-1.305 4.844,-1.071 4.545,-0.946 4.355,-0.708 4.172,-0.462 3.902,-0.287 3.725,-0.031 3.553,0.216 3.393,0.475 3.23,0.745 3.072,1.004 2.85,1.233 2.705,1.503 2.563,1.78 2.482,2.086 2.351,2.369 2.256,2.574 1.957,2.7 1.871,2.915 1.701,3.319 1.683,3.781 1.549,4.189 1.468,4.453 1.534,4.745 1.58,5.037 1.715,4.817 1.863,4.597 1.947,4.373 2.127,3.919 2.473,3.547 2.691,3.103 2.917,2.665 3.182,2.274 3.449,1.853 3.563,1.673 3.665,1.493 3.777,1.319 3.764,1.332 3.75,1.354 3.74,1.377 3.494,1.799 3.244,2.192 3.042,2.637 2.84,3.086 2.518,3.458 2.355,3.929 2.195,4.39 1.821,4.781 1.71,5.261 1.638,5.548 1.643,5.848 1.646,6.154 1.894,6.006 2.136,5.839 2.428,5.731 2.791,5.592 3.109,5.251 3.521,5.149 3.917,5.042 4.401,5.284 4.836,5.22 5.258,5.153 5.674,5.1 6.123,5.081 6.563,5.055 7.02,4.74 7.478,4.772 7.842,4.804 8.186,5.067 8.559,5.126 8.922,5.189 9.271,5.305 9.644,5.399 9.846,5.454 10.061,5.485 10.271,5.53 10.276,5.512 10.281,5.503 10.281,5.498 10.365,5.297 10.343,5.05 10.424,4.844 10.545,4.557 10.867,4.359 10.988,4.077 11.115,3.785 11.335,3.562 11.46,3.288 11.63,2.915 11.702,2.512 11.877,2.157 12.061,1.803 12.105,1.373 12.295,1.044 12.49,0.712 12.766,0.431 12.98,0.126 c 0.211,-0.319 0.319,-0.709 0.557,-0.982 0.229,-0.274 0.614,-0.422 0.869,-0.655 0.332,-0.305 0.57,-0.758 0.948,-0.974 0.339,-0.202 0.751,-0.327 1.143,-0.443 -0.018,-0.013 -0.037,-0.032 -0.055,-0.05 M 0.768,6.552 C 0.898,6.503 1.037,6.445 1.172,6.391 1.176,6.26 1.198,6.149 1.207,6.022 1.028,6.194 0.84,6.368 0.768,6.552 m 0.063,3.88 c 0.035,0.408 0.023,0.839 0.089,1.242 0.068,0.409 0.228,0.794 0.32,1.193 0.012,0.036 0.035,0.063 0.049,0.094 C 1.284,12.935 1.279,12.916 1.275,12.89 1.181,12.548 1.279,12.14 1.212,11.787 1.148,11.432 1.162,11.074 1.127,10.714 1.092,10.36 1.131,10.005 1.123,9.643 1.117,9.54 1.092,9.432 1.068,9.323 1.014,9.697 0.799,10.073 0.831,10.432 m 1.637,5.907 c 0.184,0.367 0.686,0.541 0.901,0.896 0.031,0.05 0.063,0.094 0.094,0.149 C 3.396,17.061 3.373,16.706 3.207,16.445 2.952,16.016 2.535,15.692 2.32,15.231 2.221,15.024 2.063,14.84 1.908,14.643 c 0.022,0.193 0.039,0.381 0.111,0.552 0.157,0.381 0.27,0.784 0.449,1.144 m 10.691,4.959 c 0.306,0.118 0.647,-0.035 0.767,-0.326 0.127,-0.306 -0.018,-0.634 -0.313,-0.759 -0.306,-0.121 -0.65,0.01 -0.776,0.309 -0.12,0.301 0.027,0.656 0.322,0.776 m -1.287,-2.99 c 0.162,0.308 0.476,0.587 0.86,0.753 0.272,0.103 0.539,0.121 0.795,0.103 0.462,-0.04 0.879,-0.242 0.992,-0.512 0.08,-0.205 -0.027,-0.452 -0.207,-0.681 -0.189,-0.242 -0.493,-0.468 -0.874,-0.619 -0.237,-0.103 -0.467,-0.166 -0.686,-0.188 -0.471,-0.041 -0.843,0.085 -0.96,0.368 -0.081,0.197 -0.071,0.496 0.08,0.776 m -1.009,2.03 c 0.301,0.118 0.647,-0.017 0.767,-0.313 0.126,-0.305 -0.026,-0.642 -0.327,-0.762 -0.3,-0.126 -0.655,0.004 -0.777,0.309 -0.12,0.296 0.037,0.641 0.337,0.766 M 9.262,18.365 c 0.054,-0.309 0.019,-0.64 0.125,-0.914 0.167,-0.404 0.435,-0.759 0.718,-1.072 0.023,-0.019 0.059,-0.045 0.086,-0.068 -0.032,-0.04 -0.063,-0.076 -0.082,-0.12 C 9.961,15.904 9.994,15.536 9.877,15.212 9.724,14.795 9.473,14.41 9.379,13.948 9.312,13.607 9.154,13.271 9.119,12.907 9.105,12.768 9.088,12.634 9.074,12.495 8.77,12.32 8.732,12.136 8.293,11.957 7.705,11.714 7.611,11.948 7.029,11.71 6.535,11.504 6.5,11.593 6.006,11.392 5.454,11.163 5.549,10.935 4.997,10.709 4.364,10.44 4.311,10.571 3.684,10.307 3.127,10.083 3.131,10.06 2.576,9.84 2.15,9.665 2.059,9.75 1.688,9.62 c 0,0.251 -0.005,0.515 0.031,0.781 0.041,0.371 0.036,0.739 0.102,1.107 0.068,0.363 -0.012,0.767 0.087,1.13 0.094,0.337 0.08,0.727 0.197,1.068 0.17,0.497 0.645,0.883 0.865,1.358 0.219,0.463 0.623,0.817 0.887,1.261 0.26,0.44 0.17,1.098 0.472,1.507 0.301,0.413 0.776,0.681 1.112,1.054 0.336,0.372 0.717,0.69 1.085,1.022 0.372,0.327 0.548,0.933 0.942,1.225 0.399,0.29 0.839,0.574 1.264,0.825 0.422,0.246 0.965,0.3 1.414,0.515 C 9.895,22.19 9.625,21.891 9.473,21.51 9.316,21.133 9.293,20.703 9.231,20.272 9.186,19.953 9.129,19.64 9.133,19.315 9.137,18.993 9.199,18.684 9.262,18.365 M 4.746,19.19 c 0.256,0.315 0.467,0.655 0.754,0.947 0.283,0.286 0.431,0.712 0.74,0.983 0.228,0.205 0.399,0.488 0.641,0.672 0.238,0.188 0.601,0.233 0.851,0.403 0.252,0.171 0.561,0.247 0.827,0.418 0.263,0.157 0.627,0.112 0.9,0.26 0.274,0.143 0.27,0.847 0.552,0.978 0.212,0.089 0.673,-0.395 0.884,-0.31 0.403,0.166 0.735,0.466 1.144,0.592 0.416,0.134 0.775,0.421 1.188,0.515 0.417,0.095 0.793,0.422 1.216,0.485 0.412,0.063 0.852,0.054 1.273,0.08 0.417,0.036 0.843,-0.157 1.261,-0.16 0.412,0 0.802,-0.329 1.214,-0.364 0.409,-0.036 0.852,0.296 1.26,0.225 0.408,-0.073 0.781,-0.296 1.18,-0.395 0.394,-0.09 0.762,-0.27 1.148,-0.395 0.386,-0.13 0.87,-0.014 1.242,-0.166 0.377,-0.161 0.79,-0.278 1.149,-0.462 0.363,-0.184 0.758,-0.336 1.107,-0.556 0.35,-0.211 0.4,-0.865 0.732,-1.098 0.327,-0.238 0.887,-0.167 1.207,-0.431 0.304,-0.256 0.753,-0.39 1.044,-0.687 0.086,-0.08 0.135,-0.188 0.193,-0.296 -0.484,-0.215 -0.48,-0.349 -1.023,-0.578 -0.461,-0.18 -0.546,0.018 -1.008,-0.18 -0.561,-0.223 -0.526,-0.309 -1.082,-0.538 -0.632,-0.255 -0.61,-0.318 -1.242,-0.569 -0.552,-0.233 -0.534,-0.269 -1.086,-0.493 -0.488,-0.216 -0.596,0.045 -1.09,-0.162 -0.582,-0.237 -0.457,-0.543 -1.039,-0.776 -0.412,-0.174 -0.584,-0.031 -0.885,-0.054 -0.048,0.037 -0.09,0.086 -0.129,0.122 -0.293,0.246 -0.574,0.51 -0.871,0.726 -0.385,0.255 -0.877,0.34 -1.269,0.533 -0.399,0.207 -0.83,0.296 -1.232,0.418 h -0.005 c -0.005,0.219 -0.032,0.448 -0.077,0.673 -0.045,0.242 -0.134,0.466 -0.227,0.69 -0.149,0.359 -0.422,0.677 -0.683,1.013 -0.255,0.337 -0.493,0.723 -0.834,1.01 -0.255,0.21 -0.511,0.452 -0.802,0.61 -0.287,0.166 -0.633,0.223 -0.943,0.314 -0.416,0.135 -0.821,0.166 -1.224,0.125 -0.227,-0.023 -0.427,-0.084 -0.637,-0.17 -0.296,-0.126 -0.534,-0.3 -0.752,-0.521 C 10.07,22.519 9.832,22.407 9.59,22.303 9.137,22.105 8.571,22.065 8.137,21.833 7.702,21.595 7.253,21.325 6.85,21.056 6.438,20.778 6.275,20.195 5.894,19.882 5.521,19.567 5.131,19.267 4.791,18.908 4.541,18.647 4.234,18.423 3.947,18.186 c 0.024,0.019 0.032,0.04 0.05,0.063 0.233,0.332 0.484,0.637 0.749,0.941 m 30.076,-5.422 c -0.078,0.301 -0.504,0.489 -0.597,0.79 -0.094,0.296 -0.077,0.619 -0.184,0.91 -0.063,0.165 0.139,0.43 0.125,0.624 0.094,-0.327 0.172,-0.655 0.277,-0.983 0.087,-0.269 0.297,-0.497 0.485,-0.73 -0.012,0.08 -0.012,0.17 -0.035,0.25 -0.113,0.378 -0.251,0.741 -0.381,1.091 -0.135,0.363 -0.278,0.718 -0.43,1.062 -0.104,0.247 -0.154,0.512 -0.225,0.763 0.04,-0.341 0.04,-0.7 0.165,-0.987 0.05,-0.116 0.073,-0.238 0.113,-0.354 -0.197,0.377 -0.703,0.601 -0.887,0.963 -0.189,0.381 -0.346,0.781 -0.557,1.148 -0.22,0.369 -0.58,0.629 -0.817,0.978 -0.237,0.347 -0.397,0.732 -0.653,1.064 -0.266,0.328 -0.167,0.968 -0.446,1.273 -0.277,0.306 -0.936,0.256 -1.232,0.543 -0.301,0.287 -0.48,0.691 -0.793,0.956 -0.32,0.264 -0.736,0.385 -1.064,0.623 -0.332,0.251 -0.493,0.734 -0.839,0.96 -0.156,0.099 -0.287,0.242 -0.431,0.39 0.306,-0.171 0.611,-0.35 0.902,-0.552 0.354,-0.247 0.749,-0.417 1.108,-0.654 -0.194,0.348 -0.319,0.775 -0.614,0.986 -0.414,0.305 -1.037,0.296 -1.472,0.56 -0.246,0.14 -0.498,0.261 -0.748,0.373 0.05,-0.077 0.099,-0.152 0.146,-0.225 -0.339,0.103 -0.783,0.037 -1.101,0.176 -0.373,0.179 -0.672,0.516 -1.054,0.664 -0.378,0.143 -0.831,0.089 -1.221,0.206 -0.385,0.12 -0.731,0.422 -1.125,0.52 -0.395,0.099 -0.766,0.358 -1.167,0.43 -0.404,0.072 -0.855,-0.184 -1.259,-0.138 -0.404,0.04 -0.813,-0.113 -1.22,-0.099 -0.31,0.022 -0.602,0.201 -0.911,0.196 -0.305,0 -0.61,0.082 -0.919,0.059 -0.301,-0.01 -0.633,0.139 -0.937,0.107 -0.305,-0.035 -0.607,-0.178 -0.906,-0.228 -0.301,-0.045 -0.557,-0.376 -0.856,-0.444 -0.302,-0.059 -0.677,0.193 -0.978,0.112 -0.301,-0.076 -0.457,-0.614 -0.759,-0.713 -0.296,-0.089 -0.637,-0.022 -0.932,-0.135 -0.18,-0.072 -0.467,0.131 -0.651,0.054 C 9.338,26.196 9.024,25.815 8.639,25.622 8.248,25.429 7.777,25.389 7.406,25.173 7.037,24.958 6.777,24.564 6.428,24.316 6.082,24.084 5.541,24.098 5.209,23.837 4.88,23.568 4.531,23.298 4.227,23.025 3.917,22.748 3.725,22.321 3.438,22.016 3.15,21.725 2.835,21.433 2.566,21.124 2.297,20.81 2.338,20.258 2.096,19.917 1.854,19.59 1.49,19.343 1.271,18.993 1.047,18.657 0.975,18.221 0.776,17.873 0.579,17.513 0.418,17.15 0.247,16.786 0.072,16.419 -0.08,16.047 -0.229,15.67 -0.376,15.289 -0.86,15.029 -0.985,14.643 -1.102,14.257 -0.977,13.796 -1.075,13.4 -1.17,12.998 -1.668,12.683 -1.734,12.28 -1.807,11.885 -1.722,11.441 -1.767,11.041 -1.807,10.643 -1.282,10.198 -1.299,9.791 -1.313,9.485 -1.95,9.194 -1.95,8.893 -1.945,8.58 -1.842,8.27 -1.824,7.97 -1.807,7.665 -1.936,7.333 -1.905,7.027 -1.869,6.719 -1.591,6.436 -1.546,6.131 -1.502,5.834 -1.184,5.58 -1.12,5.288 -1.057,4.982 -1.147,4.646 -1.066,4.345 c 0.081,-0.303 0,-0.645 0.093,-0.946 0.095,-0.296 0.692,-0.412 0.803,-0.708 0.072,-0.179 0.036,-0.386 0.108,-0.57 0.166,-0.409 0.14,-0.892 0.333,-1.265 0.188,-0.389 0.43,-0.753 0.64,-1.12 0.22,-0.372 0.175,-0.906 0.413,-1.257 0.239,-0.35 0.57,-0.654 0.83,-0.981 0.26,-0.332 0.785,-0.423 1.063,-0.741 0.282,-0.305 0.421,-0.748 0.726,-1.03 0.296,-0.283 0.623,-0.553 0.937,-0.812 0.319,-0.274 0.677,-0.467 1.009,-0.713 0.332,-0.243 0.445,-0.83 0.786,-1.046 0.345,-0.224 1.05,0.161 1.409,-0.036 0.357,-0.197 0.609,-0.583 0.977,-0.744 0.367,-0.18 0.79,-0.202 1.17,-0.35 0.382,-0.152 0.726,-0.363 1.109,-0.489 0.389,-0.116 0.779,-0.197 1.174,-0.291 0.395,-0.104 0.682,-0.718 1.085,-0.789 0.395,-0.073 0.86,0.251 1.264,0.202 0.162,-0.014 0.319,-0.077 0.477,-0.126 -0.257,-0.014 -0.516,-0.154 -0.777,-0.116 -0.12,0.012 -0.247,0.007 -0.372,-0.01 0.502,-0.081 1,-0.286 1.516,-0.315 0.529,-0.021 1.086,-0.17 1.623,-0.151 0.319,0.008 0.633,0.147 0.951,0.274 -0.184,-0.059 -0.367,-0.123 -0.556,-0.131 -0.381,-0.018 -0.776,0.229 -1.166,0.234 -0.102,-0.005 -0.211,0.031 -0.319,0.054 0.252,0.045 0.507,0.201 0.754,0.201 0.305,0.004 0.628,-0.345 0.934,-0.337 0.303,0.023 0.628,0.045 0.931,0.086 0.306,0.031 0.579,0.34 0.879,0.386 0.307,0.049 0.674,-0.189 0.975,-0.131 0.299,0.072 0.457,0.767 0.752,0.848 0.238,0.058 0.535,-0.093 0.799,-0.121 -0.207,-0.139 -0.391,-0.332 -0.584,-0.52 0.139,0 0.275,-0.005 0.404,0.04 0.368,0.108 0.674,0.426 1.031,0.548 0.36,0.139 0.875,-0.103 1.226,0.053 0.352,0.152 0.689,0.395 1.026,0.566 0.246,0.115 0.404,0.393 0.565,0.668 0.152,0.017 0.3,0.049 0.422,0.12 0.368,0.212 0.556,0.732 0.906,0.979 0.349,0.233 0.592,0.604 0.924,0.861 0.332,0.254 0.834,0.309 1.14,0.59 0.313,0.283 0.367,0.822 0.654,1.113 0.287,0.302 0.762,0.431 1.026,0.741 0.266,0.313 0.578,0.601 0.82,0.932 0.248,0.322 0.369,0.741 0.589,1.089 0.229,0.351 0.407,0.713 0.605,1.073 0.198,0.355 0.39,0.713 0.565,1.085 0.171,0.364 0.27,0.767 0.413,1.143 0.149,0.382 0.071,0.822 0.193,1.216 0.121,0.391 0.323,0.732 0.421,1.13 0.095,0.395 0.732,0.678 0.808,1.077 0.066,0.403 -0.081,0.847 -0.036,1.256 0.05,0.403 0.13,0.812 0.143,1.215 0.014,0.305 -0.277,0.619 -0.277,0.929 0,0.296 -0.278,0.583 -0.292,0.892 -0.018,0.31 0.076,0.597 0.04,0.906 -0.031,0.3 -0.121,0.587 -0.17,0.896 -0.046,0.297 0.35,0.682 0.287,0.988 -0.062,0.291 -0.211,0.583 -0.291,0.878 M -2.103,10.427 c 0.014,0.161 -0.052,0.331 -0.106,0.503 -0.1,-0.274 -0.193,-0.548 -0.211,-0.826 -0.015,-0.256 0.072,-0.501 0.161,-0.762 0.013,0.367 0.13,0.727 0.156,1.085 M 9.908,-8.48 c -0.076,0.026 -0.152,0.036 -0.234,0.071 0.469,-0.202 0.885,-0.538 1.364,-0.691 0.12,-0.036 0.243,-0.058 0.368,-0.081 -0.018,0.01 -0.031,0.01 -0.054,0.014 -0.506,0.148 -0.956,0.494 -1.444,0.687 M 6.997,-7.301 C 6.555,-7.05 6.221,-6.602 5.799,-6.306 5.701,-6.23 5.571,-6.193 5.451,-6.144 5.5,-6.176 5.545,-6.226 5.594,-6.256 6.006,-6.548 6.343,-6.988 6.777,-7.247 7.213,-7.512 7.652,-7.816 8.105,-8.042 8.521,-8.251 9.039,-8.225 9.491,-8.355 9.123,-8.239 8.756,-8.141 8.415,-7.983 7.939,-7.755 7.445,-7.57 6.997,-7.301 m 24.877,5.014 c 0.14,0.108 0.274,0.202 0.369,0.336 0.155,0.224 0.282,0.467 0.403,0.722 -0.158,-0.134 -0.308,-0.277 -0.421,-0.435 -0.134,-0.183 -0.243,-0.403 -0.351,-0.623 M 21.179,27.752 c -0.144,0.139 -0.296,0.252 -0.466,0.291 -0.149,0.031 -0.301,0.028 -0.459,0.028 0.028,-0.013 0.059,-0.018 0.086,-0.018 0.291,-0.054 0.565,-0.172 0.839,-0.301 m -4.493,0.179 c 0.384,0.005 0.757,-0.05 1.142,-0.076 0.153,-0.013 0.318,0.121 0.485,0.229 -0.266,0.023 -0.524,0.077 -0.79,0.081 -0.529,0.026 -1.071,0.233 -1.615,0.215 -0.474,-0.014 -0.959,-0.089 -1.439,-0.167 0.349,-0.016 0.726,-0.335 1.08,-0.313 0.383,0.031 0.75,0.036 1.137,0.031 m 15.3,-7.799 c -0.045,0.063 -0.072,0.136 -0.121,0.193 -0.291,0.413 -0.318,1.053 -0.65,1.435 -0.004,0.005 -0.014,0.018 -0.023,0.018 0.235,-0.394 0.198,-1.009 0.477,-1.372 0.075,-0.108 0.192,-0.206 0.317,-0.274 m -20.871,6.983 c -0.342,-0.004 -0.744,0.18 -1.059,0.072 -0.107,-0.04 -0.201,-0.108 -0.3,-0.166 0.353,-0.062 0.718,-0.17 1.013,-0.067 0.122,0.036 0.237,0.094 0.346,0.161 m 19.867,-5.081 c -0.252,0.309 -0.503,0.615 -0.78,0.888 -0.229,0.233 -0.628,0.283 -0.981,0.372 0.201,-0.152 0.407,-0.313 0.59,-0.488 0.324,-0.319 0.822,-0.472 1.171,-0.772 M 6.096,24.958 C 5.773,24.95 5.463,24.94 5.244,24.779 4.992,24.599 4.822,24.308 4.639,24.043 c 0.299,0.036 0.6,0.067 0.807,0.22 0.25,0.188 0.44,0.449 0.65,0.695 m -7.795,-10.48 c -0.026,-0.099 -0.023,-0.202 -0.035,-0.292 0.009,0.103 0.035,0.197 0.045,0.296 0,0 0,-0.004 -0.004,-0.004 z M 8.047,26.159 C 8.029,26.156 8.02,26.147 8.002,26.143 7.939,26.106 7.887,26.07 7.837,26.021 c 0.013,0.013 0.03,0.013 0.05,0.023 0.052,0.035 0.105,0.076 0.16,0.115 m -8.861,-9.924 c -0.014,-0.04 -0.038,-0.068 -0.049,-0.112 -0.19,-0.48 -0.639,-0.866 -0.791,-1.358 -0.022,-0.09 -0.026,-0.181 -0.035,-0.283 0.148,0.506 0.564,0.919 0.753,1.399 0.04,0.117 0.084,0.232 0.122,0.354 m -0.924,-2.237 c -0.006,-0.27 0,-0.553 -0.059,-0.808 -0.066,-0.332 -0.108,-0.655 -0.144,-0.991 0.099,0.211 0.197,0.417 0.238,0.636 0.076,0.368 -0.022,0.772 -0.035,1.163 m 2.933,5.982 c 0.299,0.417 0.686,0.74 1.012,1.14 0.068,0.075 0.117,0.174 0.162,0.273 C 2.338,21.352 2.315,21.308 2.284,21.268 1.957,20.882 1.131,20.872 0.84,20.451 0.544,20.042 0.449,19.469 0.186,19.033 0.117,18.913 0.078,18.783 0.05,18.644 c 0.028,0.057 0.037,0.134 0.067,0.193 0.266,0.443 0.786,0.713 1.078,1.143"
                 style="fill:#dc6900;fill-opacity:0.94117647;fill-rule:nonzero;stroke:none"
                 id="path4550" />
            </g>
          </g>
        </g>
        <path
           style="color:#000000;display:inline;overflow:visible;visibility:visible;fill:none;fill-opacity:1;fill-rule:nonzero;stroke:#0093d9;stroke-width:1.00275588;stroke-linecap:round;stroke-linejoin:miter;stroke-miterlimit:4;stroke-dasharray:2.00551176, 4.01102351;stroke-dashoffset:7.52321625;stroke-opacity:1;marker:none;enable-background:accumulate"
           inkscape:transform-center-x="0.34925356"
           inkscape:transform-center-y="-1.5566024"
           d="m 509.99936,1179.6496 -0.0287,89.4216 -77.47667,44.6859 -77.44799,-44.7356 0.0287,-89.4216 77.47666,-44.686 z"
           id="path20683"
           inkscape:connector-curvature="0"
           inkscape:export-xdpi="105.17595"
           inkscape:export-ydpi="105.17595" />
        <g
           aria-label="beijinglug.club"
           transform="matrix(0.91661813,-0.54252372,0.14382631,1.0058396,-227.33671,494.07949)"
           style="font-style:normal;font-weight:normal;font-size:10.45737839px;line-height:125%;font-family:sans-serif;letter-spacing:0px;word-spacing:0px;fill:#fffff6;fill-opacity:1;stroke:none;stroke-width:0.26143447px;stroke-linecap:butt;stroke-linejoin:miter;stroke-opacity:1"
           id="text21075">
          <path
             d="m 554.71048,1094.1822 q -0.18994,1.6208 -0.98767,2.5958 -0.79773,0.975 -2.06396,0.9433 -1.08263,-0.025 -1.64611,-0.8737 l -0.25958,0.7408 h -1.62711 l 1.68409,-9.7247 h 1.79173 l -0.6901,3.5011 q 0.72175,-0.7787 1.67143,-0.7534 0.994,0.013 1.55747,0.7154 0.56981,0.6965 0.6078,1.9311 0.0127,0.3925 -0.038,0.9243 z m -1.77273,-0.133 q 0.057,-0.5381 0.038,-0.8357 -0.0696,-1.1016 -0.91169,-1.1206 -0.79139,-0.025 -1.31055,0.7154 l -0.49383,2.7224 q 0.24058,0.6838 1.02565,0.7091 1.31688,0.038 1.61445,-1.912 z"
             style="font-style:italic;font-variant:normal;font-weight:bold;font-stretch:normal;font-size:12.96625996px;font-family:Roboto;-inkscape-font-specification:'Roboto Bold Italic';letter-spacing:-0.5510661px;fill:#fffff6;fill-opacity:1;stroke-width:0.26143447px"
             id="path4567"
             inkscape:connector-curvature="0" />
          <path
             d="m 557.97078,1097.715 q -0.89902,-0.01 -1.59545,-0.4368 -0.6901,-0.4369 -1.03199,-1.1903 -0.34188,-0.7598 -0.26591,-1.6714 l 0.019,-0.2533 q 0.095,-1.0003 0.58247,-1.836 0.4875,-0.8357 1.25357,-1.2853 0.76607,-0.4558 1.69676,-0.4305 1.32321,0.025 2.00065,0.975 0.68377,0.9434 0.51916,2.3932 l -0.1013,0.7787 h -4.19758 q -0.0253,0.6648 0.32289,1.0637 0.34822,0.3988 0.94968,0.4115 0.975,0.025 1.70942,-0.7534 l 0.81672,1.013 q -0.3862,0.5825 -1.11428,0.9117 -0.72809,0.3229 -1.56381,0.3102 z m 0.56981,-5.6284 q -0.49383,-0.013 -0.88003,0.3102 -0.37988,0.3229 -0.68377,1.1206 h 2.4565 l 0.038,-0.1646 q 0.038,-0.2532 0.006,-0.4812 -0.0633,-0.3672 -0.31022,-0.5698 -0.24692,-0.2089 -0.62679,-0.2152 z"
             style="font-style:italic;font-variant:normal;font-weight:bold;font-stretch:normal;font-size:12.96625996px;font-family:Roboto;-inkscape-font-specification:'Roboto Bold Italic';letter-spacing:-0.5510661px;fill:#fffff6;fill-opacity:1;stroke-width:0.26143447px"
             id="path4569"
             inkscape:connector-curvature="0" />
          <path
             d="m 562.91518,1097.5884 h -1.79805 l 1.19026,-6.8504 h 1.79806 z m -0.39886,-8.5914 q -0.0127,-0.4242 0.27857,-0.7028 0.29124,-0.2786 0.70276,-0.2786 0.4052,-0.013 0.70276,0.2469 0.29757,0.2596 0.31023,0.6712 0.0127,0.3925 -0.26591,0.6837 -0.27224,0.2913 -0.71542,0.3039 -0.39887,0.013 -0.70276,-0.2406 -0.29757,-0.2532 -0.31023,-0.6837 z"
             style="font-style:italic;font-variant:normal;font-weight:bold;font-stretch:normal;font-size:12.96625996px;font-family:Roboto;-inkscape-font-specification:'Roboto Bold Italic';letter-spacing:-0.5510661px;fill:#fffff6;fill-opacity:1;stroke-width:0.26143447px"
             id="path4571"
             inkscape:connector-curvature="0" />
          <path
             d="m 566.95422,1090.738 -1.22825,7.2239 q -0.14561,1.146 -0.82938,1.7854 -0.67744,0.6395 -1.75374,0.6268 -0.43052,-0.013 -0.94967,-0.1203 l 0.14561,-1.4562 q 0.31656,0.07 0.55082,0.082 0.84204,0.013 1.02565,-0.9117 l 1.24091,-7.2302 z m -1.62711,-1.741 q -0.0127,-0.4179 0.26591,-0.6901 0.27857,-0.2786 0.71542,-0.2913 0.43685,0 0.71543,0.2596 0.2849,0.2596 0.29756,0.6585 0.0127,0.4241 -0.26591,0.7027 -0.27857,0.2723 -0.71542,0.2849 -0.39887,0.013 -0.70276,-0.2406 -0.29757,-0.2532 -0.31023,-0.6837 z"
             style="font-style:italic;font-variant:normal;font-weight:bold;font-stretch:normal;font-size:12.96625996px;font-family:Roboto;-inkscape-font-specification:'Roboto Bold Italic';letter-spacing:-0.5510661px;fill:#fffff6;fill-opacity:1;stroke-width:0.26143447px"
             id="path4573"
             inkscape:connector-curvature="0" />
          <path
             d="m 568.54943,1097.5884 h -1.79806 l 1.19026,-6.8504 h 1.79806 z m -0.39887,-8.5914 q -0.0127,-0.4242 0.27857,-0.7028 0.29124,-0.2786 0.70277,-0.2786 0.40519,-0.013 0.70276,0.2469 0.29756,0.2596 0.31023,0.6712 0.0127,0.3925 -0.26591,0.6837 -0.27225,0.2913 -0.71543,0.3039 -0.39886,0.013 -0.70276,-0.2406 -0.29756,-0.2532 -0.31023,-0.6837 z"
             style="font-style:italic;font-variant:normal;font-weight:bold;font-stretch:normal;font-size:12.96625996px;font-family:Roboto;-inkscape-font-specification:'Roboto Bold Italic';letter-spacing:-0.5510661px;fill:#fffff6;fill-opacity:1;stroke-width:0.26143447px"
             id="path4575"
             inkscape:connector-curvature="0" />
          <path
             d="m 572.32889,1090.7317 -0.15195,0.8104 q 0.82305,-0.956 1.99432,-0.9307 0.96867,0.019 1.43085,0.7091 0.46218,0.6901 0.33555,1.912 l -0.72175,4.3559 h -1.78539 l 0.73441,-4.3749 q 0.0317,-0.2469 0.0127,-0.4495 -0.0823,-0.6458 -0.81039,-0.6648 -0.70276,-0.025 -1.2599,0.6522 l -0.85471,4.837 h -1.78539 l 1.19026,-6.8504 z"
             style="font-style:italic;font-variant:normal;font-weight:bold;font-stretch:normal;font-size:12.96625996px;font-family:Roboto;-inkscape-font-specification:'Roboto Bold Italic';letter-spacing:-0.5510661px;fill:#fffff6;fill-opacity:1;stroke-width:0.26143447px"
             id="path4577"
             inkscape:connector-curvature="0" />
          <path
             d="m 576.41225,1094.1569 q 0.18994,-1.5891 1.03198,-2.5768 0.84838,-0.994 2.13361,-0.975 1.0953,0.025 1.63345,0.7914 l 0.23425,-0.6648 1.63978,0.01 -1.12062,6.6161 q -0.18361,1.3676 -1.16494,2.1653 -0.98133,0.7977 -2.43117,0.7724 -0.7091,-0.013 -1.35488,-0.3102 -0.64578,-0.2913 -1.06364,-0.8041 l 0.88637,-1.089 q 0.59513,0.7535 1.49416,0.7788 0.69643,0.025 1.19026,-0.3672 0.49383,-0.3862 0.67111,-1.0953 l 0.10129,-0.4116 q -0.74708,0.7471 -1.67776,0.7218 -1.00033,-0.013 -1.58913,-0.7407 -0.5888,-0.7345 -0.64578,-1.9057 -0.019,-0.3862 0.0317,-0.9117 z m 1.75374,0.7471 q 0,0.5951 0.24691,0.956 0.25325,0.3545 0.72809,0.3735 0.72809,0.025 1.29156,-0.6204 l 0.53182,-2.8997 q -0.27224,-0.5952 -1.00666,-0.6205 -0.68377,-0.019 -1.1586,0.5508 -0.47484,0.5698 -0.59514,1.5132 -0.0443,0.4622 -0.038,0.7471 z"
             style="font-style:italic;font-variant:normal;font-weight:bold;font-stretch:normal;font-size:12.96625996px;font-family:Roboto;-inkscape-font-specification:'Roboto Bold Italic';letter-spacing:-0.5510661px;fill:#fffff6;fill-opacity:1;stroke-width:0.26143447px"
             id="path4579"
             inkscape:connector-curvature="0" />
          <path
             d="m 584.64886,1097.5884 h -1.79805 l 1.69042,-9.7247 h 1.79173 z"
             style="font-style:italic;font-variant:normal;font-weight:bold;font-stretch:normal;font-size:12.96625996px;font-family:Roboto;-inkscape-font-specification:'Roboto Bold Italic';letter-spacing:-0.5510661px;fill:#fffff6;fill-opacity:1;stroke-width:0.26143447px"
             id="path4581"
             inkscape:connector-curvature="0" />
          <path
             d="m 589.84651,1096.8793 q -0.75974,0.8547 -1.88669,0.8357 -0.98767,-0.013 -1.49416,-0.7091 -0.5065,-0.6964 -0.39253,-1.836 l 0.74074,-4.4319 h 1.7854 l -0.75341,4.4509 q -0.0253,0.2089 -0.006,0.3925 0.0633,0.6331 0.70276,0.6521 0.82938,0.025 1.37386,-0.6394 l 0.85471,-4.8561 h 1.79806 l -1.19026,6.8504 h -1.6651 z"
             style="font-style:italic;font-variant:normal;font-weight:bold;font-stretch:normal;font-size:12.96625996px;font-family:Roboto;-inkscape-font-specification:'Roboto Bold Italic';letter-spacing:-0.5510661px;fill:#fffff6;fill-opacity:1;stroke-width:0.26143447px"
             id="path4583"
             inkscape:connector-curvature="0" />
          <path
             d="m 592.51168,1094.1569 q 0.18994,-1.5891 1.03199,-2.5768 0.84837,-0.994 2.1336,-0.975 1.0953,0.025 1.63345,0.7914 l 0.23425,-0.6648 1.63978,0.01 -1.12062,6.6161 q -0.1836,1.3676 -1.16494,2.1653 -0.98133,0.7977 -2.43117,0.7724 -0.70909,-0.013 -1.35487,-0.3102 -0.64578,-0.2913 -1.06364,-0.8041 l 0.88636,-1.089 q 0.59513,0.7535 1.49416,0.7788 0.69643,0.025 1.19026,-0.3672 0.49384,-0.3862 0.67111,-1.0953 l 0.1013,-0.4116 q -0.74708,0.7471 -1.67777,0.7218 -1.00032,-0.013 -1.58912,-0.7407 -0.5888,-0.7345 -0.64578,-1.9057 -0.019,-0.3862 0.0316,-0.9117 z m 1.75374,0.7471 q 0,0.5951 0.24692,0.956 0.25324,0.3545 0.72808,0.3735 0.72809,0.025 1.29156,-0.6204 l 0.53182,-2.8997 q -0.27224,-0.5952 -1.00665,-0.6205 -0.68377,-0.019 -1.15861,0.5508 -0.47484,0.5698 -0.59513,1.5132 -0.0443,0.4622 -0.038,0.7471 z"
             style="font-style:italic;font-variant:normal;font-weight:bold;font-stretch:normal;font-size:12.96625996px;font-family:Roboto;-inkscape-font-specification:'Roboto Bold Italic';letter-spacing:-0.5510661px;fill:#fffff6;fill-opacity:1;stroke-width:0.26143447px"
             id="path4585"
             inkscape:connector-curvature="0" />
          <path
             d="m 600.10885,1095.7017 q 0.42419,-0.013 0.72175,0.2659 0.3039,0.2722 0.3039,0.6901 0.0127,0.4179 -0.27857,0.7154 -0.29124,0.2913 -0.71542,0.2913 -0.42419,0.013 -0.71543,-0.2533 -0.29123,-0.2659 -0.30389,-0.6901 -0.0127,-0.4242 0.27224,-0.7154 0.2849,-0.2913 0.71542,-0.3039 z"
             style="font-style:italic;font-variant:normal;font-weight:bold;font-stretch:normal;font-size:12.96625996px;font-family:Roboto;-inkscape-font-specification:'Roboto Bold Italic';letter-spacing:-0.5510661px;fill:#fffff6;fill-opacity:1;stroke-width:0.26143447px"
             id="path4587"
             inkscape:connector-curvature="0" />
          <path
             d="m 605.03426,1096.2462 q 0.49383,0.013 0.82305,-0.2659 0.32922,-0.2849 0.43052,-0.7535 l 1.67776,-0.01 q -0.0443,0.7218 -0.45584,1.2979 -0.4052,0.5761 -1.08897,0.899 -0.67743,0.3229 -1.43084,0.3039 -1.24725,-0.019 -1.97533,-0.861 -0.72809,-0.8421 -0.70276,-2.2412 l 0.019,-0.3483 0.006,-0.07 q 0.17094,-1.6714 1.12695,-2.6464 0.95601,-0.9814 2.36153,-0.9434 1.15861,0.025 1.83605,0.7598 0.68376,0.728 0.6711,1.9246 h -1.6651 q 0,-0.5508 -0.24058,-0.8673 -0.24059,-0.3166 -0.72176,-0.3419 -1.2789,-0.038 -1.55114,1.8677 -0.095,0.6901 -0.0696,1.1649 0.0633,1.108 0.94968,1.127 z"
             style="font-style:italic;font-variant:normal;font-weight:bold;font-stretch:normal;font-size:12.96625996px;font-family:Roboto;-inkscape-font-specification:'Roboto Bold Italic';letter-spacing:-0.5510661px;fill:#fffff6;fill-opacity:1;stroke-width:0.26143447px"
             id="path4589"
             inkscape:connector-curvature="0" />
          <path
             d="m 610.00398,1097.5884 h -1.79806 l 1.69043,-9.7247 h 1.79172 z"
             style="font-style:italic;font-variant:normal;font-weight:bold;font-stretch:normal;font-size:12.96625996px;font-family:Roboto;-inkscape-font-specification:'Roboto Bold Italic';letter-spacing:-0.5510661px;fill:#fffff6;fill-opacity:1;stroke-width:0.26143447px"
             id="path4591"
             inkscape:connector-curvature="0" />
          <path
             d="m 615.20163,1096.8793 q -0.75974,0.8547 -1.88669,0.8357 -0.98767,-0.013 -1.49416,-0.7091 -0.5065,-0.6964 -0.39254,-1.836 l 0.74075,-4.4319 h 1.78539 l -0.75341,4.4509 q -0.0253,0.2089 -0.006,0.3925 0.0633,0.6331 0.70276,0.6521 0.82939,0.025 1.37387,-0.6394 l 0.85471,-4.8561 h 1.79806 l -1.19027,6.8504 h -1.6651 z"
             style="font-style:italic;font-variant:normal;font-weight:bold;font-stretch:normal;font-size:12.96625996px;font-family:Roboto;-inkscape-font-specification:'Roboto Bold Italic';letter-spacing:-0.5510661px;fill:#fffff6;fill-opacity:1;stroke-width:0.26143447px"
             id="path4593"
             inkscape:connector-curvature="0" />
          <path
             d="m 624.10934,1094.1822 q -0.18993,1.6208 -0.98766,2.5958 -0.79773,0.975 -2.06397,0.9433 -1.08263,-0.025 -1.6461,-0.8737 l -0.25958,0.7408 h -1.62712 l 1.6841,-9.7247 h 1.79172 l -0.6901,3.5011 q 0.72176,-0.7787 1.67144,-0.7534 0.99399,0.013 1.55747,0.7154 0.5698,0.6965 0.60779,1.9311 0.0127,0.3925 -0.038,0.9243 z m -1.77273,-0.133 q 0.057,-0.5381 0.038,-0.8357 -0.0696,-1.1016 -0.91169,-1.1206 -0.7914,-0.025 -1.31056,0.7154 l -0.49383,2.7224 q 0.24059,0.6838 1.02565,0.7091 1.31689,0.038 1.61445,-1.912 z"
             style="font-style:italic;font-variant:normal;font-weight:bold;font-stretch:normal;font-size:12.96625996px;font-family:Roboto;-inkscape-font-specification:'Roboto Bold Italic';letter-spacing:-0.5510661px;fill:#fffff6;fill-opacity:1;stroke-width:0.26143447px"
             id="path4595"
             inkscape:connector-curvature="0" />
        </g>
      </g>
    </g>
  </g>
</svg>
