<?xml version="1.0" encoding="utf-8"?>
<!-- Generator: Adobe Illustrator 23.0.1, SVG Export Plug-In . SVG Version: 6.00 Build 0)  -->
<svg version="1.1"
	 id="svg7307" inkscape:version="0.91 r13725" sodipodi:docname="hexagonal-sticker_template.svg" xmlns:cc="http://creativecommons.org/ns#" xmlns:dc="http://purl.org/dc/elements/1.1/" xmlns:inkscape="http://www.inkscape.org/namespaces/inkscape" xmlns:rdf="http://www.w3.org/1999/02/22-rdf-syntax-ns#" xmlns:sodipodi="http://sodipodi.sourceforge.net/DTD/sodipodi-0.dtd" xmlns:svg="http://www.w3.org/2000/svg"
	 xmlns="http://www.w3.org/2000/svg" xmlns:xlink="http://www.w3.org/1999/xlink" x="0px" y="0px" viewBox="0 0 125 144.9"
	 style="enable-background:new 0 0 125 144.9;" xml:space="preserve">
<style type="text/css">
	.st0{fill:#0D1319;}
	.st1{fill:#6CDAB3;stroke:#000000;stroke-width:0.1251;stroke-miterlimit:10;}
	.st2{fill:#6CDAB3;}
	.st3{font-family:'Calibre-Regular';}
	.st4{font-size:8.4991px;}
	.st5{fill:#FFFFFF;}
</style>
<g id="layer1_5_" transform="translate(178.67433,582.63783)" inkscape:groupmode="layer" inkscape:label="Artwork">
	
		<path id="path17178_5_" inkscape:flatsided="true" inkscape:randomized="0" inkscape:rounded="0" inkscape:transform-center-x="0.32645456" inkscape:transform-center-y="-1.460707" sodipodi:arg1="-0.52327829" sodipodi:arg2="0.0003204856" sodipodi:cx="121.90476" sodipodi:cy="126.57602" sodipodi:r1="103.56153" sodipodi:r2="103.56153" sodipodi:sides="6" sodipodi:type="star" class="st0" d="
		M-54.6-546.1v71.5l-61.7,35.7l-61.7-35.8v-71.5l61.7-35.7L-54.6-546.1z"/>
</g>
<g>
	<g>
		<g>
			<path class="st1" d="M75.3,24.9L60,33.5l-10.2,5.9l-9.1,5.3l-6.4,3.7L15,59.6v21.5v18.4v0.3L48.3,119l1.5,0.9l0,0l16.3-9.4
				l18.5-10.7l0,0l7.2-4.2l18.5-10.7V63.5V44.7L75.3,24.9z M62.1,97.1l-11.2,6.5l-1.1,0.6l-4.1-2.4L32,93.9l-3.4-2v-1.7V67.3
				l12.2-7.1l8-4.7l1-0.6l3.4,2l1,0.6l13,7.5l3.8,2.2v1.2v18.2v5.1L62.1,97.1z M84.7,78.3l0.1-19l0,0l-4.3-2.4l1.7,1L63.3,47.3
				l12.2-7.1l3.4,2L93,50.3l3.8,2.2v1.2v23.4l-12.2,7.1L84.7,78.3z"/>
		</g>
	</g>
</g>
<text transform="matrix(0.8672 -0.4979 0.4979 0.8672 64.4929 129.893)" class="st2 st3 st4">puppet.com/</text>
<text transform="matrix(0.8672 -0.4979 0.4979 0.8672 100.6553 109.1303)" class="st5 st3 st4">bolt</text>
<text transform="matrix(-0.8672 0.4979 -0.4979 -0.8672 60.9079 14.8224)" class="st2 st3 st4">puppet.com/</text>
<text transform="matrix(-0.8672 0.4979 -0.4979 -0.8672 24.7458 35.5851)" class="st5 st3 st4">bolt</text>
<sodipodi:namedview  bordercolor="#666666" borderopacity="1.0" fit-margin-bottom="1" fit-margin-left="1" fit-margin-right="1" fit-margin-top="1" id="base" inkscape:current-layer="text8556" inkscape:cx="400.51176" inkscape:cy="360.4576" inkscape:document-units="px" inkscape:guide-bbox="true" inkscape:pageopacity="0.0" inkscape:pageshadow="2" inkscape:window-height="1376" inkscape:window-maximized="1" inkscape:window-width="2560" inkscape:window-x="0" inkscape:window-y="27" inkscape:zoom="2.4121212" pagecolor="#ffffff" showgrid="false" showguides="true" units="in">
	<sodipodi:guide  id="guide8412" orientation="0,1" position="526.50754,705.18846"></sodipodi:guide>
	<sodipodi:guide  id="guide8414" orientation="0,1" position="562.98996,525.67841"></sodipodi:guide>
</sodipodi:namedview>
<g id="layer2" inkscape:groupmode="layer" inkscape:label="Preview Without Bleeds" sodipodi:insensitive="true">
	<path id="rect8416" inkscape:connector-curvature="0" class="st5" d="M-1236.1-586.6v195.3h180.1v-195.3H-1236.1z M-1146-560.5
		l61.7,35.8v71.5l-61.7,35.7l-61.7-35.8v-71.5L-1146-560.5z"/>
</g>
</svg>
