<svg id="Layer_1" data-name="Layer 1" xmlns="http://www.w3.org/2000/svg" xmlns:xlink="http://www.w3.org/1999/xlink" viewBox="0 0 735 852"><defs><style>.cls-1,.cls-13{fill:none;}.cls-2{fill:#de5a27;}.cls-3{clip-path:url(#clip-path);}.cls-4{fill:#ed7d15;}.cls-5{opacity:0.25;fill:url(#linear-gradient);}.cls-6{fill:#ac5d12;}.cls-7{clip-path:url(#clip-path-2);}.cls-8{fill:#144f85;}.cls-9{fill:#e6b35a;}.cls-10{fill:#e5b259;}.cls-11{fill:#fff;}.cls-12,.cls-13{stroke:#000;stroke-miterlimit:10;}.cls-12{stroke-width:10px;}.cls-13{stroke-width:0.75px;}</style><clipPath id="clip-path"><polygon class="cls-1" points="369.5 7.4 728.2 214.5 728.2 636.6 369.5 845 2.8 636.6 2.8 214.5 369.5 7.4"/></clipPath><linearGradient id="linear-gradient" x1="366.25" y1="-122.39" x2="367.55" y2="341.13" gradientUnits="userSpaceOnUse"><stop offset="0" stop-color="#fff" stop-opacity="0.83"/><stop offset="0.56" stop-color="#fff" stop-opacity="0.37"/><stop offset="1" stop-color="#fff" stop-opacity="0"/></linearGradient><clipPath id="clip-path-2"><polygon class="cls-2" points="1173.3 7.4 1532 214.5 1532 636.6 1173.3 845 806.6 636.6 806.6 214.5 1173.3 7.4"/></clipPath></defs><title>RStudio_Hex 2016 v7 outlines</title><g class="cls-3"><circle class="cls-4" cx="365.5" cy="437.4" r="442.1"/><ellipse class="cls-5" cx="366.9" cy="105.8" rx="315.2" ry="234.6"/></g><path class="cls-6" d="M705.6,196.2L427.8,35.8,367.5,1,307.2,35.8,29.4,196.2,0.1,213.1V637.4l29.3,16.9L310.6,816.7l56.9,32.8,56.9-32.8L705.6,654.3l29.3-16.9V213.1Zm0,425.3L367.5,816.7,29.4,621.5V231L367.5,35.8h0L705.6,231V621.5Z"/><polygon class="cls-2" points="1173.3 7.4 1532 214.5 1532 636.6 1173.3 845 806.6 636.6 806.6 214.5 1173.3 7.4"/><g class="cls-7"><circle class="cls-8" cx="1169.3" cy="437.4" r="442.1"/></g><path class="cls-9" d="M367,633.9l0.9-.9h-0.3Z"/><path class="cls-10" d="M367,633.9l0.9-.9h-0.3Z"/><path class="cls-11" d="M164,506.3h13.9v48.6h0.3c5-8.6,13.9-14.2,26.4-14.2,19.2,0,32.8,16,32.6,39.5,0,27.7-17.4,41.4-34.7,41.4-11.2,0-20.2-4.3-25.9-14.6h-0.5l-0.6,12.8H163.3c0.3-5.3.6-13.1,0.6-20V506.3Zm13.9,82.6a26.4,26.4,0,0,0,.6,5.1c2.7,9.8,10.9,16.5,21.1,16.5,14.7,0,23.5-12,23.5-29.8,0-15.5-8-28.8-23-28.8-9.6,0-18.6,6.6-21.4,17.3a27.8,27.8,0,0,0-.8,5.8v13.9Z"/><path class="cls-11" d="M249.9,566.6c0-9.1-.2-17-0.6-24.2h12.3l0.5,15.2h0.6c3.5-10.4,12-17,21.4-17a15.2,15.2,0,0,1,4,.5v13.3a21.1,21.1,0,0,0-4.8-.5c-9.9,0-17,7.5-18.9,18.1a39.6,39.6,0,0,0-.6,6.6v41.3H249.9V566.6Z"/><path class="cls-11" d="M365.6,580.5c0,28.6-19.8,41.1-38.6,41.1-21,0-37.1-15.4-37.1-39.8s17-41.1,38.4-41.1S365.6,556.9,365.6,580.5Zm-61.4.8c0,17,9.8,29.8,23.5,29.8s23.5-12.6,23.5-30.1c0-13.1-6.6-29.8-23.2-29.8S304.1,566.6,304.1,581.3Z"/><path class="cls-11" d="M448.3,580.5c0,28.6-19.8,41.1-38.6,41.1-21,0-37.1-15.4-37.1-39.8s17-41.1,38.4-41.1S448.3,556.9,448.3,580.5Zm-61.4.8c0,17,9.8,29.8,23.5,29.8s23.5-12.6,23.5-30.1c0-13.1-6.6-29.8-23.2-29.8S386.9,566.6,386.9,581.3Z"/><path class="cls-11" d="M460.9,563.4c0-8-.2-14.6-0.6-21h12.3l0.6,12.5h0.5c4.3-7.4,11.5-14.2,24.3-14.2,10.6,0,18.6,6.4,21.9,15.5h0.3a31.9,31.9,0,0,1,8.6-10.1c4.6-3.5,9.8-5.4,17.1-5.4,10.2,0,25.4,6.7,25.4,33.6v45.6H557.7V576.1c0-14.9-5.4-23.8-16.8-23.8-8,0-14.2,5.9-16.6,12.8a23.2,23.2,0,0,0-1.1,7v47.8H509.4V573.5c0-12.3-5.4-21.3-16.2-21.3-8.8,0-15.2,7-17.4,14.1a19.4,19.4,0,0,0-1.1,6.9v46.7H460.9V563.4Z"/><path class="cls-12" d="M366.9,291.5c-3.8.2-7.5,0.6-11.2,0.4a28.4,28.4,0,0,1-8.1-1.3c-2.8-.9-3.6-2.9-2.6-5.6s2.6-6.2,4-9.2c0.6-1.4,1.6-2.6,2.3-4a35.6,35.6,0,0,1,8.8-11.4c3.4-2.8,4.7-6.2,4-10.7-1.6-9.9-2.4-20-4-29.9-1-6.3-2.9-12.4-4.3-18.6s-3-13.9-2.7-21.1a18.4,18.4,0,0,1,1.2-5.7c1.5-3.7,5.3-5,8.5-2.7a20.4,20.4,0,0,1,5.2,5.6A77.7,77.7,0,0,1,379,207.1c1.6,10.6,3,21.3,4.5,32,0.3,2.5.6,5,.9,7.7l11.1-2.8,10.9-3,1.2-.4c4.7-2.8,9.5-5.4,14-8.4s9.5-6.7,14.2-10.1c2-1.4,4.2-2.7,6.1-4.1a6.9,6.9,0,0,0,1.6-2.2,36.8,36.8,0,0,1,2.5-4.6,11.6,11.6,0,0,0,2.6-7.5c0-1.5-.4-3.3,1.6-4.1a4.9,4.9,0,0,1,5.3,1.6,13.3,13.3,0,0,1,1.7,2.5,33.1,33.1,0,0,1,1.3,3.2c2.3-3.7,4.3-7,6.2-10.3,0.8-1.3,1.4-2.7,3.2-2.7a3.2,3.2,0,0,1,2.4,1.1,8.9,8.9,0,0,1,.8,4.2c-0.2,2.9-.8,5.8-1.3,9.2l5.2-3c1.4-.8,2.6-2,4-2.5a4.3,4.3,0,0,1,3.4.4c0.6,0.5.9,2.1,0.6,3a15.1,15.1,0,0,1-7.9,9.9,2.7,2.7,0,0,0-1.2,1.1l2.4,0.5,4.9,0.8c1.8,0.3,2.6,1.7,3,3.3a2.9,2.9,0,0,1-1.7,3.4,17.6,17.6,0,0,1-4.5,1.6,9.3,9.3,0,0,1-3.2-.2,9.6,9.6,0,0,0-7.4,1.5,16.2,16.2,0,0,1-14.6,2.3,4.7,4.7,0,0,0-4.3.7c-10.8,7.1-21.6,14.3-32.6,21.1-4,2.5-8.7,3.8-13.1,5.6s-7.2,3-10.8,4.4a52.2,52.2,0,0,1-5.8,1.4l0.6,11.6,8.5-.4,7-.5a2.4,2.4,0,0,0,1.6-.8,11.7,11.7,0,0,1,8.4-5.4c5.3-.7,9.5-3.4,13.7-6.2,2.4-1.6,3.9-1.6,5.5-.3s1.7,3.5.9,5.7a6.9,6.9,0,0,1-3.3,3.9,4.9,4.9,0,0,0-1.5,1.4c-1.1,1.5-.8,2.4.9,2.9a19,19,0,0,1,10.5,7.9c1.6,2.4,1.5,4.9-.3,6.4a3.3,3.3,0,0,1-2.7.6,37.8,37.8,0,0,1-4.8-2.5l-3.2-1.6c0.4,2.3.7,4.1,1,5.8s0.6,4.6-1,6.6-3.5,2.3-5.1.6a23,23,0,0,1-3.1-5c-1-1.8-1.9-3.6-4.3-4.5-0.1,1.4-.3,2.5-0.3,3.7a9.4,9.4,0,0,1-1.8,5.8,3.7,3.7,0,0,1-4.2,1.6c-1.6-.5-1.9-1.7-1.9-3.2a7.7,7.7,0,0,0-1.7-5.8,8.2,8.2,0,0,1-3.2-5.1c-0.1-1-.5-1.5-1.6-1.2l-13.5,3.4c0,0.5,0,1.1-.1,1.6-0.5,8.8-.8,17.5-1.5,26.3-0.5,6.4-1.7,12.7-2.5,19.1s-1.3,10.8-1.9,16.1a1.5,1.5,0,0,0,1.4,2c0.9,0.2,1.8.6,2.7,0.8a4.1,4.1,0,0,0,1.9-.2c1-.3,1.8-0.3,2.1.8,2.1,6.4,4.8,12.6,4.7,19.6-0.2,9.7-4,17.4-11.7,23.2-2.6,2-5.5,3.6-8.3,5.3s-2.8,4.1-.1,6c8.3,5.7,14.3,13.4,19.3,22s7.2,16.1,9.3,24.7c1.1,4.4,3.8,7,7.7,8.7a33,33,0,0,0,13.5,3c6.1,0,12.3.2,18.4,0.3,1.9,0,2.3.5,2,2.4a8.2,8.2,0,0,1-4.1,6.3,90.4,90.4,0,0,1-9.7,4.7c-2,.9-4.2,1.4-6.8,2.3,1.5,0.7,2.7,1.2,3.7,1.8a1.9,1.9,0,0,1,.8,1.4,1.5,1.5,0,0,1-1,.9c-6.5,1-12.8,3-19.5,2.9s-14.2-1.2-20.4-5.2a3.4,3.4,0,0,0-1.8-.4c-4.6.2-9.2,0.2-13.8,0.7-1.7.2-3.3,1.3-5,1.9a4.1,4.1,0,0,1-1.4.5c-5.6-.2-10.8,1.7-16,3.3-3,.9-6.2,1.4-9.3,2a2.8,2.8,0,0,1-3.4-1.9,22.5,22.5,0,0,0-1.5-2.4l-1.1.3c-5,2.3-10.4,2.3-15.7,2.9l-6.7.7c-2.1.2-2.4-.3-1.7-2.5-6.5,1-11.8-2.1-17.2-5a5.8,5.8,0,0,1-1.4-1.8,7,7,0,0,1,2-1.1c6.2-1.1,12.3-2.5,17.7-6.1l0.6-.5a0.9,0.9,0,0,0,0-.4c-4.6-6.2-7.1-13.4-8.6-20.9a33,33,0,0,1,0-9.8A47.9,47.9,0,0,1,314.8,418a39.7,39.7,0,0,1,10.6-8.6q6-3.2,11.8-6.7a4.8,4.8,0,0,0,1.3-2c0.2-.4.1-1,0.4-1.3,1.5-2.5,1.1-5.2.6-7.8-1.5-8.1-.1-15.9,2.4-23.6s5.2-12.5,8.5-18.4c0.9-1.6,1.6-1.6,2.8-.2a3.8,3.8,0,0,0,1.2.9l3.9,1.8a4.3,4.3,0,0,0,5.3-.9,2.5,2.5,0,0,0,.5-1.4c0.4-4,.7-8.1,1-12.1,0.5-6.8,1.3-13.6,1.6-20.4s0.4-16.2.5-24.4A6.2,6.2,0,0,0,366.9,291.5Zm14,72.5,0.6,0.3c1.2-2.3,2.8-4.4,3.1-7l-0.7-.3Z"/><path class="cls-11" d="M337.4,404c0.7,0,25.3,6.6,35.8,8a64,64,0,0,1,20.2,25.7,181.1,181.1,0,0,1,6.9,20.2,12.8,12.8,0,0,0,6.5,8,33.4,33.4,0,0,0,16.4,4.3h18.4a6.3,6.3,0,0,1-3.1,5c-3.4,1.8-18.2,8.2-18.8,8.7a18.6,18.6,0,0,0,3.4,2.7c-6.8,1.4-13.1,2.8-19.7,2.1s-17.6-5.5-18.4-5.5c-23.3,1.8-47,8.3-47.4,7.1s-2-3.6-5.6-2.3-16.9,2.8-18.2,3c0.7-1.5,3.2-1.9,1.3-4.1-6.7,3.6-13.1,1.9-19.4-1.9,9.1-2.1,14.2-5.2,17.5-6.8-9.4-18-9-28.4-8.3-32.1C310.7,415.3,332,406.3,337.4,404Z"/><path class="cls-11" d="M357.6,199.8c-1.8-7.9-2.1-21.3-1.8-22.9,0.7-3.5,3.5-5.5,6.5-2.8a28.1,28.1,0,0,1,5.4,6.9,85,85,0,0,1,9.8,30.9c1.4,11.1,3.2,22.3,4.4,33.4,1.1,9.6,2.3,29.6,2.3,30.2l-16.1.9c0-2.8.1-5.5,0-8.1s-4.5-39.2-4.9-42.9C360.2,211.6,358.2,202.3,357.6,199.8Z"/><path class="cls-11" d="M351.9,352.7c0.3,0.1,5.7,14.4,5.9,15.4s1,2,2.5,1.3,7.6-6.6,10.2-9.1l3.7,11.1c0.7,2,1.5,2.2,3.3,1.3a17.2,17.2,0,0,0,9.6-13.3c0.1-.3.2-0.6,0.2-1h0.6c1.1,3.9,2.6,7.7,3.2,11.7,1.5,10-1.1,18.8-9.1,25.3-2.8,2.3-11.1,9-15.8,8.6s-20.8-4.9-22.6-9.3-4.2-14.5.1-24.3C345.6,364.4,347.8,355.3,351.9,352.7Z"/><path class="cls-11" d="M480.8,209.7a14.9,14.9,0,0,1-7.8,6.4c-0.7.3-1.3,1.7-1.4,2.7a2.4,2.4,0,0,0,1.5,1.7,24,24,0,0,0,4.5.7c2.6,0.3,4.3,1.3,4.2,2.6s-2.3,2.5-4.6,2.4-4.7-.4-7-0.4a4,4,0,0,0-2.3.9c-4.7,3.6-10.9,5.5-16.8,2.6a2.5,2.5,0,0,0-2,.3c-31.3,26-59,32.5-59.2,32.5s-2.7-12.3-1.3-14.6c0.3-.5,25.6-3.4,55.4-29.9,2.3-2.1,3.3-3.9,5-6.3s1.4-4,1.5-6.1,0.7-6.8,3.4-1.1c0.6,1.3,2.9,5.9,3.5,6.1s7.1-7.6,8.9-11.3c2.7-6.7,5.7-1.8.3,9.8-0.3.7,0.1,2.4,1.1,2.5,3.2,0.5,7.8-2.8,10.2-4.2C484.2,200.9,481.9,207.9,480.8,209.7Z"/><path class="cls-11" d="M362.3,260.4c0.3,1.3,1,9,1.1,11.9,0,0.5-1.7,2.7-2.6,4.3s-0.3,2.3,1.3,2.2l38.1-2.1c2.6-.1,5.9-1.7,8.2-3.7a21.3,21.3,0,0,1,6.2-3.2c2.9-.6,5.7-1.3,8.1-3.2a27.9,27.9,0,0,1,3.9-2.5c1.1-.6,2.1-1.8,3.4-0.4s0.7,3.5-.5,4.6-1.9,1.5-2.7,2.2-2.8,3.7-1.8,5.4a5.1,5.1,0,0,0,2.8,2.2c19.8,12.1,7.9,10.5,7.3,10.2s-5.9-3.4-9-3.2a2.2,2.2,0,0,0-.6,1.4c0.4,2.8.8,5.5,1.3,8.3,0.1,0.8,1.6,10.1-3.9,2-0.6-.9-3.9-6.6-5.5-8a3.6,3.6,0,0,0-3.2-.3c-0.7.3-1.1,1.6-1.3,2.6s0.3,4.4-1,6.3a4.2,4.2,0,0,1-1.2,1.5c-0.8.4-1.8,0.6-1.8-.9v-0.2c0.4-3.9-.6-7.2-4.1-9.5-0.8-.5-1-1.9-1.4-3s-1-2.3-3.2-1.8-6.3,1.7-9.4,2.3-35.1,7.7-42.2,3.1c-1.4-1.1-2-2.4-1.4-3.8,1.3-3,2.6-6,4.1-8.9s2.5-3.7,3.6-5.6,3.9-6.4,4.3-6.8S361.3,261.1,362.3,260.4Z"/><path class="cls-11" d="M384.4,292.9c0,4.1.1,4.1,0,8.1-0.5,14-3.1,27.7-4.7,41.6-0.9,8-2,21-2,22.3H377l-3.6-10.7-0.3-.8c-0.7-2.2-1.6-2.4-3.2-.7a63.5,63.5,0,0,1-5.7,5.6,56.2,56.2,0,0,0,1.8-8.4c0.1-2.7,3-34.4,3.2-54.5C369.6,294.6,380.8,293.4,384.4,292.9Z"/><path class="cls-11" d="M359.5,360.7c-0.2,0-3.8-6-3.2-8s2.9,1.5,3.5,1.1S359.9,360.2,359.5,360.7Z"/><path class="cls-11" d="M380.9,364l3-7.1,0.7,0.3c-0.3,2.7-2,4.7-3.1,7Z"/><path d="M356.3,355.2v1.1l-0.2-1h0.3Z"/><path class="cls-11" d="M359.6,356.8a0.8,0.8,0,0,0,0,.3h0.1v-0.3Z"/><path class="cls-11" d="M358.6,357.9h0Z"/><line class="cls-13" x1="356.5" y1="178.9" x2="354" y2="182.2"/><line class="cls-13" x1="356.8" y1="181.1" x2="354.3" y2="184.5"/><path class="cls-13" d="M357.3,183l-2.6,3.5"/><path class="cls-13" d="M357.7,185.4l-3.4,4.6"/><path class="cls-13" d="M358.2,187l-3.4,4.6"/><path class="cls-13" d="M358.7,189.3l-3,4"/><path class="cls-13" d="M359.1,191.4l-3.2,4.3"/><path class="cls-13" d="M359.6,193.3l-3.3,4.4"/><path class="cls-13" d="M360.3,195.9l-3.6,4.8"/><path class="cls-13" d="M360.9,198.2l-3.8,5.1"/><path class="cls-13" d="M361.5,201l-3.6,4.9"/><path class="cls-13" d="M362.2,203l-3.7,4.9"/><path class="cls-13" d="M362.9,205.4l-4.2,5.7"/><path class="cls-13" d="M363.6,207.5l-4.3,5.7"/><path class="cls-13" d="M364.3,209.9l-3.8,5.2"/><path class="cls-13" d="M364.8,212.5l-4.2,5.6"/><path class="cls-13" d="M365.2,215.1l-3.9,5.3"/><path class="cls-13" d="M365.4,217.7l-3.8,5.2"/><path class="cls-13" d="M365.9,220.3l-4.2,5.6"/><path class="cls-13" d="M366.4,222.8l-3.9,5.3"/><path class="cls-13" d="M366.6,225.2l-3.8,5.1"/><path class="cls-13" d="M367.3,227.5l-4.3,5.8"/><path class="cls-13" d="M367.8,230l-4.2,5.6"/><line class="cls-13" x1="367.8" y1="232.8" x2="363.5" y2="238.6"/><path class="cls-13" d="M368.5,235.1l-4.9,6.6"/><path class="cls-13" d="M368.7,237.9l-4.5,6"/><line class="cls-13" x1="368.6" y1="241.3" x2="364.3" y2="247.2"/><path class="cls-13" d="M369.2,243.8l-4.8,6.4"/><path class="cls-13" d="M369.4,246.6l-4.3,5.8"/><path class="cls-13" d="M369.7,250.2l-4.2,5.6"/><path class="cls-13" d="M369.9,253.2l-4.3,5.7"/><path class="cls-13" d="M369.9,256.3l-3.6,4.8"/><path class="cls-13" d="M370.1,259.7l-4.2,5.7"/><path class="cls-13" d="M370.1,262.9l-4.1,5.5"/><path class="cls-13" d="M370.1,266.1l-3.4,4.6"/><path class="cls-13" d="M370.3,269.1l-3.8,5.1"/><path class="cls-13" d="M370.4,272.3l-3.7,4.9"/><path class="cls-13" d="M370.6,275.2c-1.1,1.4-1.1.7-2.1,2.1"/><path class="cls-13" d="M361.8,264.5c-2,1.3-9.6,8.6-11.6,10"/><path class="cls-13" d="M360.8,267.5c-1.7,1.1-9,8.2-10.7,9.3"/><path class="cls-13" d="M359.9,270.8c-2,1.3-9.6,8.6-11.6,9.9"/><path class="cls-13" d="M358.9,273.8c-1.9,1.3-9.5,8.5-11.4,9.8"/><path class="cls-13" d="M357.8,276.8c-1.6,1.1-10.1,9.2-11.7,10.3"/><path class="cls-13" d="M351.9,283.6c-1.7,1.2-4.1,4.4-5.8,5.6"/><path class="cls-13" d="M353.1,286.2c-1.4,2.2-2.5,4.5-3.7,6.7"/><path class="cls-13" d="M352,284.9a79.5,79.5,0,0,0-4.7,8.1"/><path class="cls-13" d="M355.9,287.3c-1.2,1.8-2.1,3.8-3.1,5.7"/><path class="cls-13" d="M356.8,289.7c1.9-2.6,1-1.9-2,3.4"/><path class="cls-13" d="M360.2,288.7c1.6-2.7.7-1.3-2.3,4.3"/><path class="cls-13" d="M362.7,288.9l-3,4.1"/><path class="cls-13" d="M366,288.9l-2.9,4"/><path class="cls-13" d="M370,289.1l-2.1,2.9"/><path class="cls-13" d="M371.4,289.4l-1.5,2.1"/><path class="cls-13" d="M373.4,289.8l-0.7.9"/><line class="cls-13" x1="371.7" y1="293.9" x2="368.4" y2="296.5"/><line class="cls-13" x1="371.4" y1="296.1" x2="368.2" y2="298.8"/><path class="cls-13" d="M371.4,298.1l-3.3,2.7"/><path class="cls-13" d="M371.3,300.5l-4.4,3.6"/><path class="cls-13" d="M371.4,302.2l-4.4,3.6"/><path class="cls-13" d="M371.3,304.5l-3.9,3.2"/><path class="cls-13" d="M371.2,306.6l-4.1,3.4"/><path class="cls-13" d="M371.2,308.7l-4.2,3.5"/><path class="cls-13" d="M371.3,311.3l-4.6,3.8"/><path class="cls-13" d="M371.3,313.7l-4.9,4"/><path class="cls-13" d="M371.2,316.5l-4.7,3.9"/><path class="cls-13" d="M371.4,318.7l-4.8,3.9"/><path class="cls-13" d="M371.5,321.1l-5.4,4.5"/><path class="cls-13" d="M371.7,323.4l-5.5,4.5"/><path class="cls-13" d="M371.8,325.9l-5,4.1"/><path class="cls-13" d="M371.6,328.5l-5.4,4.4"/><path class="cls-13" d="M371.4,331.1l-5.1,4.2"/><path class="cls-13" d="M371,333.7l-5,4.1"/><path class="cls-13" d="M370.9,336.3l-5.4,4.4"/><path class="cls-13" d="M370.7,338.9l-5.1,4.2"/><path class="cls-13" d="M370.3,341.3l-4.9,4"/><path class="cls-13" d="M370.5,343.7l-5.6,4.6"/><path class="cls-13" d="M370.4,346.2l-5.4,4.4"/><line class="cls-13" x1="369.7" y1="348.9" x2="364.1" y2="353.5"/><path class="cls-13" d="M369.8,351.3l-6.3,5.2"/><path class="cls-13" d="M369.4,354.1l-5.8,4.8"/><line class="cls-13" x1="368.4" y1="357.4" x2="362.8" y2="362"/><path class="cls-13" d="M368.4,359.9l-6.2,5.1"/><path class="cls-13" d="M367.9,362.8l-5.6,4.6"/><line class="cls-13" x1="341.9" y1="406.2" x2="319.5" y2="414.3"/><line class="cls-13" x1="343.1" y1="408.5" x2="318.3" y2="417.3"/><path class="cls-13" d="M345.2,410.4c-3.6,1.1-27,9.7-30.6,10.8"/><path class="cls-13" d="M335,418.3l-23.6,7"/><path class="cls-13" d="M333.5,421.7l-25,7.4"/><path class="cls-13" d="M330.2,426c-4.5,1.3-18.9,4.7-23.4,6"/><path class="cls-13" d="M327.4,429.6c-4.6,1.3-17.4,4.3-22,5.6"/><path class="cls-13" d="M327.8,432.8c-7.9,1.4-15.8,3.8-23.6,5.2"/><path class="cls-13" d="M326.9,435.9c-5.2,1.5-18.7,4.6-23.8,6.1"/><path class="cls-13" d="M323.2,440.4c-6,1.8-13.5,3.5-19.5,5.3"/><path class="cls-13" d="M319.4,444.5l-16.1,4.8"/><path class="cls-13" d="M319.7,447.5l-17.5,5.2"/><path class="cls-13" d="M319.6,451l-16.5,4.9"/><path class="cls-13" d="M320.3,454.3l-16.1,4.8"/><path class="cls-13" d="M319.8,457.5l-14.9,4.4"/><path class="cls-13" d="M319.2,460.6l-14.4,4.3"/><path class="cls-13" d="M319,463.4l-12.6,3.7"/><path class="cls-13" d="M319.1,466.6l-12.1,3.6"/><path class="cls-13" d="M319.2,469.4l-9.8,2.9"/><path class="cls-13" d="M319.9,472.4l-11.5,3.1"/><path class="cls-13" d="M321.1,475.2l-8.9,2.6"/><path class="cls-13" d="M322.6,476.7c-9.3,3-18.1,7.6-27.8,10.5"/><path class="cls-13" d="M324.9,478.1c-8.4,3.1-16.5,7.6-25.3,10.4"/><path class="cls-13" d="M326.6,479.2c-5.6,2.7-16.6,8.1-22.6,10.7"/><path class="cls-13" d="M327.6,481c-4.7,2.5-12.3,6.8-17.2,8.9"/><path class="cls-13" d="M328.2,483.2c-4.3,2.7-10.4,6.8-14.9,9.2"/><path class="cls-13" d="M328.8,485.1c-3.9,2.5-8.7,5.8-12.8,7.9"/><path class="cls-13" d="M330.3,486.4c-3.3,2.1-7.7,5.3-11.2,7.1"/><path class="cls-13" d="M331.8,487.3c-2.5,1.6-6.5,4.4-9.1,5.8"/><path class="cls-13" d="M352.3,354.9c-3,1.4-5.4,3.9-8.1,5.6"/><path class="cls-13" d="M353.6,357.3c-3.5,2.2-6.4,4.6-9.9,6.7"/><path class="cls-13" d="M354.6,360c-2.8,1.9-9.8,6.8-12.7,8.6"/><path class="cls-13" d="M355.6,364.2c-4.8,3.5-10.2,6.1-15.3,9.2"/><path class="cls-13" d="M384.5,356.9c-1.5,3.7-5.7,8.5-7.6,12"/><path class="cls-13" d="M383.6,356.3a87.1,87.1,0,0,1-4.3,8.8"/><path class="cls-13" d="M382.9,355.8a79.1,79.1,0,0,1-3.7,7.6"/><path class="cls-13" d="M382.4,355.6c-0.9,2.3-2,4.4-3.1,6.6"/><path class="cls-13" d="M385.6,357.1c-1.5,3.7-5.7,8.6-7.7,12.2"/><path class="cls-13" d="M386.4,357.6c-1.5,3.7-5.7,8.5-7.6,12"/><path class="cls-13" d="M387,358.1c-1.5,3.6-5.6,8.4-7.5,11.8"/><path class="cls-13" d="M355.5,367.7c-5.2,3.2-10.6,6.1-15.8,9.4"/><path class="cls-13" d="M354.6,372.2c-5.2,2.8-10.4,5.5-15.5,8.4"/><path class="cls-13" d="M352.6,376.8l-13.8,7.6"/><path class="cls-13" d="M350.9,381.3l-11.7,6.2"/><path class="cls-13" d="M349.1,386.2l-9.1,5"/><path class="cls-13" d="M347,391.7l-6.3,3.6"/><path class="cls-13" d="M348.2,394.8l-7.8,4.7"/><path class="cls-13" d="M361,352.7a51.8,51.8,0,0,1-2.8,8.5"/><path class="cls-13" d="M359.9,352.3a47,47,0,0,1-2.6,7.7"/><path class="cls-13" d="M359.2,352a41.8,41.8,0,0,1-2.3,6.7"/><path class="cls-13" d="M358.6,351.9a35.3,35.3,0,0,1-2.2,6.1"/><path class="cls-13" d="M357.5,352.5a24.4,24.4,0,0,1-1.6,4"/><path class="cls-13" d="M356.6,352.3a15.7,15.7,0,0,1-1.4,3.2"/><path class="cls-13" d="M356.1,352.2a11.9,11.9,0,0,1-1.4,3"/><path class="cls-13" d="M362.1,352.7a62.9,62.9,0,0,1-3.4,10"/><path class="cls-13" d="M363,353.1a65.8,65.8,0,0,1-3.5,10.4"/><path class="cls-13" d="M363.6,353.4c-0.7,3.7-2.4,7.3-3.7,10.9"/><path class="cls-13" d="M367.6,401.9l-2.3,4.1"/><path class="cls-13" d="M366.3,402l-2.2,3.9"/><path class="cls-13" d="M365.3,402l-2.1,3.8"/><path class="cls-13" d="M364.6,402.1l-2.1,3.7"/><path class="cls-13" d="M368.9,401.9l-2.3,4.2"/><path class="cls-13" d="M370.1,401.8l-2.5,4.5"/><path class="cls-13" d="M370.7,402.1l-2.2,4.1"/><path class="cls-13" d="M360.5,401.4c-0.8,1.2-1.4,2.5-2.1,3.7"/><path class="cls-13" d="M359.4,401c-0.8,1.3-1.6,2.8-2.4,4.1"/><path class="cls-13" d="M358.7,400.6c-0.9,1.4-1.7,2.9-2.5,4.3"/><path class="cls-13" d="M358.2,400.3l-1.5,2.3"/><path class="cls-13" d="M361.6,401.7c-0.8,1.2-1.4,2.5-2.2,3.8"/><path class="cls-13" d="M362.6,402l-2,3.5"/><path class="cls-13" d="M363.4,401.9l-2.1,3.7"/><path class="cls-13" d="M354.7,398.9c-1.2,1.9-2.2,3.8-3.3,5.7"/><path class="cls-13" d="M353.7,398.4l-3,4.3"/><path class="cls-13" d="M353,397.9l-2.5,3.6"/><path class="cls-13" d="M352.5,397.7l-1.8,2.6"/><path class="cls-13" d="M355.7,399.4c-1.1,1.7-2.1,3.6-3.1,5.4"/><path class="cls-13" d="M356.6,399.7c-1,1.7-2,3.4-3,5.2"/><path class="cls-13" d="M350.1,396.3c-1.1,1.8-2.4,3.5-3.6,5.2"/><path class="cls-13" d="M349.1,395.8c-1.1,1.7-2.2,3.3-3.4,4.9"/><path class="cls-13" d="M351.1,396.8c-1.1,1.7-2.3,3.4-3.5,5"/><path class="cls-13" d="M351.9,397.3c-1.1,1.6-2.2,3.2-3.3,4.8"/><path class="cls-13" d="M357.2,400c-1,1.6-1.8,3.2-2.7,4.8"/><path class="cls-13" d="M385.8,258.3c-0.9,1.5-1.7,3-2.5,4.5"/><path class="cls-13" d="M384.8,257a36.5,36.5,0,0,0-2.3,3.8"/><path class="cls-13" d="M388.7,259.4c-1,1.6-1.9,3.4-2.8,5.1"/><path class="cls-13" d="M389.5,261.9l-0.6.9"/><path class="cls-13" d="M392.9,258.3c-0.8,1.3-1.5,2.7-2.2,4.1"/><path class="cls-13" d="M395.4,258.5l-2.5,3.3"/><path class="cls-13" d="M398.3,256.7l-2.9,4"/><path class="cls-13" d="M401.3,256.6l-2.1,2.9"/><path class="cls-13" d="M403.8,255.6l-2.5,3.4"/><path class="cls-13" d="M407.1,256.2l-0.9,1.2"/><path class="cls-13" d="M406.2,253.7c-0.8,1.4-1.6,2.9-2.3,4.3"/><path class="cls-13" d="M408.7,253.9l-2.6,3.5"/><path class="cls-13" d="M411.6,252.1l-2.9,4"/><path class="cls-13" d="M414.5,252l-1.4,1.9"/><path class="cls-13" d="M417,251l-1.4,1.9"/><line class="cls-13" x1="338" y1="405.2" x2="315.7" y2="413.2"/></svg>