<?xml version="1.0" encoding="utf-8"?>
<!-- Generator: Adobe Illustrator 16.0.0, SVG Export Plug-In . SVG Version: 6.00 Build 0)  -->
<!DOCTYPE svg PUBLIC "-//W3C//DTD SVG 1.1//EN" "http://www.w3.org/Graphics/SVG/1.1/DTD/svg11.dtd">
<svg version="1.1" id="Layer_1" xmlns="http://www.w3.org/2000/svg" xmlns:xlink="http://www.w3.org/1999/xlink" x="0px" y="0px"
	 width="734.828px" height="848.508px" viewBox="0 0 734.828 848.508" enable-background="new 0 0 734.828 848.508"
	 xml:space="preserve">
<polygon fill="#3D6A92" points="0,212.127 367.412,0 734.828,212.127 734.828,636.381 367.412,848.508 0,636.381 "/>
<polygon fill="#222222" points="29.283,230.037 367.404,34.822 705.528,230.037 705.528,620.468 367.404,815.684 29.283,620.468 "/>
<g>
	
		<path id="path3535" inkscape:connector-curvature="0" inkscape:export-xdpi="48.274723" inkscape:export-filename="/home/substack/media/vector/wizard_hat.png" inkscape:export-ydpi="48.274723" fill="#3D6A92" d="
		M338.071,123.354c-8.813,0.163-19.839,5.659-27.727,3.761c-3.148-0.758-6.997-1.085-10.763-0.881c-0.066,0.004-0.133-0.003-0.2,0
		c-3.831,0.228-7.568,1.035-10.322,2.721c-0.114,0.07-0.245,0.134-0.36,0.201c-0.11,0.16-0.225,0.305-0.36,0.439
		c-3.661,3.661-11.758,3.995-15.524,7.762c-3.077,3.077-5.927,8.967-9.322,14.244c-0.033,0.049-0.048,0.109-0.08,0.16
		c-12.079,14.082-21.718,31.409-25.126,45.571c-2.802,11.636-2.764,27.352-7.362,38.929c-1.286,3.238-6.619,21.161-2.48,24.646
		c2.817,2.373,14.834,4.19,18.364,0c1.898-2.256,19.317-7.895,24.765-14.364c6.416-7.619,9.726-20.778,14.124-31.848
		c0.699-1.762,1.601-3.63,2.641-5.481c2.494,4.832,4.475,8.778,5.521,11.203c2.177,5.047,4.572,12.026,6.562,19.485
		c-4.311,6.602-2.514,15.636,0.6,19.764c-12.603,3.924-6.599,17.482-7.082,17.965c-0.831,0.83-3.459,1.938-4.521,3
		c-1.314,1.314-1.52,4.056-1.52,6.042c0,1.915,0.241,3.617,0.6,5.121c-11.468,28.846-22.29,64.953-35.968,84.419
		c-3.938,1.796-7.966,3.336-12.684,4.282c-9.194,2.298-32.434,6.854-52.012,13.444c-0.85,1.126-1.84,2.24-2.961,3.359
		c-1.94,1.939-5.822,1.941-7.762,3.881c-1.508,1.508-6.213-0.189-7.721,1.32c-4.477,4.478-11.086,6.801-18.125,10.324
		c-0.781,0.389-3.283-0.599-3.88,0c-3.198,3.196-8.923,5.041-11.643,7.761c-5.323,5.321-9.784,11.103-15.524,16.844
		c-5.706,5.704,5.928,21.414,7.762,23.246c5.392,5.392,15.294,6.252,20.685,11.642c2.268,2.269,9.872-0.765,12.604,1.041
		c0.705,0.097,1.335,0.229,1.76,0.439c7.944,3.972,23.523,6.907,32.928,10.043c12.959,4.319,23.24,15.863,36.608,19.204
		c10.178,2.545,21.736,3.898,32.008,7.324c4.293,1.43,9.51,0.447,13.683,1.84c7.806,2.603,14.852,5.831,21.965,8.202
		c2.463,0.82,5.717-0.634,8.242,0c5.678,1.417,11.817,1.829,17.365,3.68c9.875,3.292,23.05-3.292,32.927,0
		c6.51,2.167,47.033-1.303,50.292-4.56c2.396-2.396,11.508,0.646,14.645-0.922c2.723-1.362,10.988-0.026,12.804-1.84
		c4.685-4.688,14.309-4.894,21.005-8.242c2.816-1.41,7.158,0.541,10.081-0.92c1.681-0.841,5.097,0.194,8.802,1.801
		c7.048-0.148,12.478-0.881,19.524-0.881c8.381,0,19.95-3.978,32.208-10.003c13.565-3.054,30.149-6.585,30.928-7.359
		c5.894-5.898,21.562-4.2,27.408-10.045c4.14-4.141,9.46-5.821,13.722-10.081c3.799-3.799,9.016-8.147,14.484-12.725
		c0.952-2.656,3.39-5.15,5.642-7.4c0.943-0.946,7.603-20.441,6.399-22.846c-2.203-4.409-5.844-8.057-10.042-11.444
		c-1.303-0.446-2.3-0.898-2.762-1.359c-4.479-4.484-15.219-5.18-19.203-9.164c-6.413-6.416-16.062-12.179-27.565-16.042
		c-2.412-1.196-4.667-2.465-6.282-4.081c-2.05-2.051-13.895-4.667-17.364-6.402c-1.866-0.933-5.928,0.512-7.32-0.88
		c-3.379-3.378-17.541-5.786-27.769-9.042c-1.491,0.095-3.882-1.046-4.322-1.48c-0.306-0.308-8.235-1.476-10.84-4.081
		c-0.296-0.296-1.362-10.92-1.362-12.243c0-0.487-1.185-2.457-0.479-3.161c0.109-0.109,0.218-0.238,0.32-0.36
		c-4.734-29.172-8.355-61.384-11.764-64.255c-5.063-4.263-7.874-27.799-13.443-32.488c-5.82-4.902-9.464-10.264-13.963-14.443
		c-0.003-0.013,0.004-0.028,0-0.04c-1.692-9.3-4.905-19.75-5.921-20.605c-1.65-1.389,0.85-7.692-0.801-9.082
		c-5.137-4.325-11.824-29.751-16.643-33.808c-6.311-5.314-9.413-13.56-15.404-18.604c-14.805-12.466-39.393-31.016-66.576-29.607
		c-1.168-0.33-2.307-0.726-3.4-1.161C342.063,123.547,340.105,123.315,338.071,123.354L338.071,123.354z"/>
	
		<path id="path3230" inkscape:connector-curvature="0" inkscape:export-xdpi="48.274723" inkscape:export-filename="/home/substack/media/vector/wizard_hat.png" inkscape:export-ydpi="48.274723" fill="#E6B35A" stroke="#FFFFFF" stroke-width="1.1795" stroke-opacity="0" d="
		M332.202,284.788c-2.283-0.412-4.516-0.436-6.267,0.146c-2.916,0.968-7.618-1.324-10.664-0.774
		c-11.514,2.078-20.542,5.198-22.096,9.068c17.089-4.899,36.062,6.035,43.833,16.427c3.23,4.318-1.752,10.864,0.006,16.164
		c0.399,1.199,0.716,8.882-0.667,9.917c-2.891,2.163-2.604,9.71-4.995,13.155c-5.628,8.107-10.536,14.029-15.317,20.915
		c-4.931,7.102-18.111,8.524-25.468,10.968c-1.625,0.541-3.671-0.583-5.386-0.015c-0.405,0.134-0.877,0.157-1.348,0.092
		c0.165,0.188,0.356,0.365,0.492,0.547c0.621,0.831,3.647,0.04,4.532,0.653c5.716,3.969,28.337,2.448,34.61,0.365
		c3.902-1.295,7.522-3.208,11.424-4.503c5.005-1.661,9.932-9.445,13.525-13.451c12.363-13.781,18.013-37.651,11.897-56.072
		c-3.074-9.26-11.119-14.81-17.968-19.564C340.007,287.199,336.009,285.474,332.202,284.788L332.202,284.788z"/>
	
		<path id="path3236" sodipodi:nodetypes="ccccccccsscccccsscccsccsscccc" inkscape:connector-curvature="0" inkscape:export-xdpi="48.274723" inkscape:export-filename="/home/substack/media/vector/wizard_hat.png" inkscape:export-ydpi="48.274723" fill="#E6B35A" stroke="#FFFFFF" stroke-width="1.1795" stroke-opacity="0" d="
		M359.775,266.999c-0.735-0.024-0.838,7.183-0.896,10.619c-0.346,0.02-0.331,0.453-0.238,0.943
		c-3.715,1.65-11.803,4.955-11.185,5.616c0.031,0.016,0.033,0.036,0.048,0.047c-0.294,0.016-0.601,0.114-0.615,0.519
		c-0.03,0.534,1.07,0.029,1.604,0.048c0.862,0.029,8.385,2.802,11.374,4.059c0.372,2.841,1.464,4.538,1.464,7.786
		c0,2.024,0.399,4.813,0.519,4.813c0.044,0,0.126-0.062,0.188-0.095c0.088,0.352,0.188,0.561,0.332,0.426
		c0.585-0.55,1.654-2.025,2.736-3.681c0.047-0.071,0.096-0.117,0.14-0.188c1.908-2.362,4.086-5.386,5.945-8.118
		c3.609,0.525,6.913,0.944,7.739,0.944c0.398,0,14.105,2.355,10.147-1.605c-0.24-0.241-0.521-0.446-0.803-0.66
		c0.089-0.069,0.138-0.141,0.141-0.236c0.029-0.765-7.624-4.283-8.873-5.616c-0.6-0.643-1.472-1.056-2.075-1.699
		c-0.157-0.169,0.14-0.641,0.613-1.321c0-0.016,0-0.033,0-0.047c1.063-1.175,2.199-2.388,3.021-3.208
		c0.393-0.395,2.607-4.539,0.507-4.265c-1.418,0.184-6.048,0.477-12.112,2.253c0,0-1.639-2.142-1.649-2.136
		c-1.317-0.539-5.049-5.097-8.076-5.196H359.775z"/>
	
		<path id="path3238" inkscape:connector-curvature="0" inkscape:export-xdpi="48.274723" inkscape:export-filename="/home/substack/media/vector/wizard_hat.png" inkscape:export-ydpi="48.274723" fill="#E6B35A" stroke="#FFFFFF" stroke-width="0.8034" stroke-opacity="0" d="
		M325.529,265.93c-0.438,0.211-1.1,1.069-1.311,0.632C324.007,266.125,325.965,265.719,325.529,265.93
		c-1.305,0.629-6.344,5.168-4.487,6.604c1.529,1.181,7.195-1.027,9.6-0.188c0.358,0.125,4.352,6.253,4.978,4.463
		c1.021-2.92-0.243-7.882-0.21-7.973c0.47-1.347,4.158-0.794,5.059-1.229c0.745-0.358,2.255-0.995,2.462-1.592
		c0.057-0.161,0.097-0.639,0.171-0.485c0.061,0.125-0.984-0.889-2.258-1.333c-1.904-0.665-3.831-0.249-5.194-0.725
		c-0.63-0.22,0.129-3.921-0.1-4.393c-0.75-1.555-1.225-3.379-1.094-3.107c0.373,0.772-1.612,0.755-2.136,1.434
		c-0.653,0.844-2.363,3.707-3.469,3.691c-1.325-0.021-6.634-1.283-6.99-0.263C321.832,260.892,325.168,264.195,325.529,265.93
		L325.529,265.93z"/>
	
		<path id="path3240" inkscape:connector-curvature="0" inkscape:export-xdpi="48.274723" inkscape:export-filename="/home/substack/media/vector/wizard_hat.png" inkscape:export-ydpi="48.274723" fill="#E6B35A" stroke="#FFFFFF" stroke-width="0.8034" stroke-opacity="0" d="
		M376.843,317.432c-0.355-0.33-1.394-0.635-1.065-0.99C376.107,316.085,377.198,317.761,376.843,317.432
		c-1.061-0.985-7.127-4.023-7.784-1.771c-0.544,1.854,3.578,6.324,3.673,8.87c0.03,0.38-4.237,6.333-2.341,6.262
		c3.091-0.114,7.252-3.099,7.348-3.102c1.425-0.053,2.255,3.583,2.988,4.264c0.605,0.563,1.748,1.736,2.381,1.713
		c0.172-0.007,0.629-0.145,0.512-0.021c-0.093,0.103,0.469-1.24,0.421-2.588c-0.079-2.016-1.166-3.658-1.221-5.102
		c-0.027-0.666,3.698-1.309,4.056-1.695c1.173-1.265,2.697-2.371,2.493-2.151c-0.581,0.629-1.29-1.224-2.113-1.464
		c-1.024-0.301-4.313-0.85-4.7-1.885c-0.466-1.242-1.227-6.646-2.303-6.605c-0.063,0.001-1.926,4.306-3.409,5.273V317.432z"/>
	
		<path id="path3712" inkscape:connector-curvature="0" inkscape:export-xdpi="48.274723" inkscape:export-filename="/home/substack/media/vector/wizard_hat.png" inkscape:export-ydpi="48.274723" fill="#E6B35A" stroke="#FFFFFF" stroke-opacity="0" d="
		M493.548,365.291c-1.033,3.556-7.514,14.956-10.242,17.684c-3.509,3.508-6.527,7.167-9.603,10.243
		c-2.18,2.178-8.403,7.761-10.243,9.601c-4,4.001-6.345,2.506-10.881,7.042c-2.248,2.248-6.774,2.291-8.962,4.48
		c-1.981,1.979-17.865,3.17-21.765,5.122c-0.944,0.47-3.765-0.719-4.483,0c-2.802,2.8-24.947,3.82-25.604,4.482
		c-3.391,3.39-12.418-0.517-17.286,1.919c-4.315,2.158-12.882,0.641-17.922,0.641c-2.792,0-10.208-0.055-17.844-0.241
		c-1.804-0.254-3.224-0.457-3.282-0.399c-0.038,0.038-0.212,0.216-0.32,0.319c-1.435-0.044-2.816-0.104-4.201-0.16
		c-0.862-0.329-1.778-0.532-2.521-0.159c-0.035,0.018-0.083,0.022-0.12,0.04c-5.961-0.29-10.823-0.71-12.043-1.321
		c-5.01-2.505-10.39-3.201-16.645-3.201c-9.79,0-31.467-11.573-39.049-15.362c-1.162-0.583-4.383-3.959-6.122-4.882
		c-0.013-0.67-0.038-1.279-0.28-1.521c-1.784-1.787-2.565-5.771-3.84-8.323c-0.532-1.062,0-4.953,0-4.48
		c0,0.02,1.286-5.122,1.28-5.122c-1.098,0-6.834,7.474-8.962,9.602c-0.02,0.021,0.041,0.136,0.08,0.24
		c-1.2,1.652-2.04,4.119-2.04,7.842c0,12.688,6.998,13.359,13.563,19.925c1.611,1.609,5.062,0.541,6.321,1.8
		c1.285,1.286,3.171,2.426,5.401,3.44c-2.79,1.634-8.162,2.038-9.923,3.802c-1.722,1.721-9.708,6.674-12.683,8.162
		c-0.561,0.277-3.266,0.583-3.601,0.92c-16.912,16.908-35.997,27.836-51.612,43.451c-1.315,1.313-1.801,18.483-1.801,21.725
		c0,5.658-1.921,11.642,1.801,15.365c1.569,1.57,6.776,0.451,8.162,1.84c0.3,0.3,4.086,3.116,4.521,2.681
		c1.652-1.652-0.92-10.291-0.92-12.641c0-12.365,1.333-24.864,9.082-32.611c14.939-14.942,36.242-21.759,49.771-35.289
		c3.976-3.978,11.263-6.095,16.564-10.442c-0.187,1.275,0.029,2.477,0.959,3.48c0.618,0.669,2.819-0.654,3.602-0.238
		c5.315,2.817,21.516,8.861,26.286,3.041c0.864,1.643,1.55,3.311,2.4,4.159c3.176,3.177,0.692,18.501-0.92,21.726
		c-6.085,12.168-9.293,47.302-14.483,52.493c-0.896,0.896,1.075,9.434,1.8,10.884c1.885,3.77-1.379,12.182,0,13.563
		c1.359,1.357,0.483,4.965,1.841,6.32c1.235,1.236,6.885-0.317,8.122,0.921c0.49,0.49,6.931,4.871,8.162,3.64
		c1.021-1.02-2.793-12.789-3.641-14.482c-0.73-1.462,1.965-28.254,2.721-29.007c1.055-1.059-1.057-5.266,0-6.32
		c2.057-2.06,4.521-44.674,4.521-50.694c0-1.017,2.597-7.366,0.92-9.043c-0.008-0.009-1.5-3.433-3.521-6.76
		c2.985,0.22,5.503,0.579,6.242,1.319c1.327,1.327,28.114,0,32.567,0c17.687,0,45.511-1.371,56.133-3.641
		c4.234-0.906,14.276-1.699,19.925-4.521c3.278-1.641,14.825-2.761,16.843-3.281c4.316-1.112,18.171-4.446,22.047-8.321
		c2.877-2.876,12.706-12.836,16.322-14.643c4.083-2.042,6.132-9.289,8.522-12.644c0.31-2.485,6.995-8.977,5.683-11.603
		C496.858,371.791,495.93,365.523,493.548,365.291L493.548,365.291z"/>
</g>
<g id="layer1" transform="translate(0,-652.36218)" inkscape:groupmode="layer" inkscape:label="Layer 1">
	
		<path id="path9270" inkscape:connector-curvature="0" inkscape:export-xdpi="63.81599" inkscape:export-filename="/home/substack/media/vector/browserify.png" inkscape:export-ydpi="63.81599" fill="#E6B35A" stroke="#FFFFFF" stroke-opacity="0" d="
		M217.665,1217.109c-1.566,0.015-3.028,0.289-4.188,0.87c-2.596,1.297-6.062,0.667-8.654,1.963
		c-2.496,1.248-3.763,2.952-5.787,4.326c0.236-0.716,0.474-1.417,0.712-2.119c-0.268,0.317-0.523,0.646-0.816,0.938
		c-0.286,0.286-0.421,0.757-0.469,1.321c-0.047,0.563-0.019,1.208,0.017,1.859c0.037,0.651,0.084,1.312,0.053,1.858
		c-0.025,0.412-0.158,0.68-0.296,0.939c4.387-2.084,10.206-4.338,12.095-2.45c1.567,1.567,2.273,3.472,3.927,5.125
		c0.261,0.263,0.846,0.38,1.425,0.541c0.332-0.001,0.64-0.061,0.869-0.176c0.139-0.069,0.481,0.022,0.591-0.086
		c0.358-0.357,0.487-0.68,0.886-1.077c0.299-0.299,0.591-1.115,0.591-1.581c0-0.49-0.357-1.435-0.695-1.772
		c-0.118-0.119-0.869-0.664-0.869-0.782c0-0.586,2.003,0.839,2.05,0.886c0.131,0.131-0.026,0.547,0.104,0.679
		c0.19,0.189-0.032,0.525,0.104,0.799c0.454,0.909-0.35,2.4-0.799,2.85c-0.538,0.537,0.675,0.211,0.886,0
		c0.202-0.202,0.409-0.617,0.591-0.799c0.015-0.015-0.012-0.278,0-0.278c0.177,0,0.17,1.496,0,1.668
		c-0.536,0.536-1.042,0.988-1.912,1.182c2.036,1.506,4.91,2.756,6.395,4.24c0.422,0.422,2.883-0.138,3.145-0.399
		c1.871-1.871,3.225-5.189,5.509-7.473c0.708-0.707-0.569-4.114-0.782-4.327c-0.876-0.877-0.701-3.064-1.964-4.327
		C228.113,1219.234,222.362,1217.066,217.665,1217.109L217.665,1217.109z"/>
	
		<path id="path9214" inkscape:connector-curvature="0" inkscape:export-xdpi="63.81599" inkscape:export-filename="/home/substack/media/vector/browserify.png" inkscape:export-ydpi="63.81599" fill="#E6B35A" stroke="#FFFFFF" stroke-opacity="0" d="
		M200.722,1213.459c-0.098,0.025-0.191,0.088-0.278,0.176c-0.049,0.048-0.246-0.05-0.295,0c-0.302,0.302-0.82,0.42-1.182,0.781
		c-0.996,0.995-1.868,2.021-2.884,3.059c-4.843,1.747-9.357,3.233-14.824,3.875c0.41,0.041,0.832,0.1,1.251,0.175
		c-0.874,0.082-2.271,0.04-2.711,0.26c-0.131,0.065-0.796,0.261-0.921,0.278c0.231-0.023,0.998,0.018,1.112,0.018
		c0.691,0,1.419,0.208,2.068,0.208c0.972,0,2.123-0.03,3.232-0.053c1.83,0.613,3.534,1.476,4.744,2.468
		c0.692,0.568-0.138,4.464-0.296,5.162c-0.732,3.23,1.969,12.495,0.261,14.58c-0.748,0.911,0.409,3.548,0.695,5.368
		c0.884,0.674,1.68,2.874,1.929,3.372c0.231,0.463,0.834,1.026,0.834,1.528c0,0.068-1.13-1.13-1.251-1.25
		c-0.173-0.173-1.041-1.311-1.651-1.896c-0.071,0.42-0.117,1.025-0.139,1.738c0.37,0.382,0.771,0.759,0.956,1.13
		c0.37,0.739,0.754,1.448,1.251,1.946c0.425,0.425-0.872-0.297-1.112-0.417c-0.151-0.076-0.601-0.449-1.095-0.799
		c0.038,4.02,0.427,9.647,0.591,11.312c0.345,3.482-0.132,6.788-0.139,6.724c-0.008-0.085-1.68,2.058-2.815,3.441
		c-1.678,2.048-3.688,5.238-5.752,7.871c0.893-0.886,2.029-1.976,3.128-2.467c2.531-1.132,8.76-6.011,12.459-8.585
		c0.819,0.589,2.551-2.036,5.109,0.521c0.329,0.329,1.367,3.546,1.164,3.546c-1.801,0-2.13,1.779-1.164,2.745
		c0.493,0.493,0.973,0.264,1.355-0.26c0.396-1.127,0.788-2.637,0.087-3.338c-0.115-0.115,0.116-0.579,0-0.694
		c-0.627-0.627-0.36-1.89-1.112-2.642c-0.258-0.259-1.37-0.853-1.65-1.459c-0.02-0.02-0.05-0.032-0.069-0.053
		c-0.206-0.205-0.646-0.177-0.956-0.278c-0.23-0.303-0.708-0.878-0.261-2.051c0.783-2.048,0.999-5.789,0.782-7.976
		c-0.072-0.736,0.018-2.303,0.191-4.101c0.001-0.006-0.002-0.013,0-0.019c0.277-1.064,0.714-2.208,1.095-2.971
		c0.297-0.594-0.049-1.897,0.4-2.347c0.241-0.241,0.21-0.751,0.191-1.25c-1.287,0.329-2.807,0.693-3.389,0.868
		c0.071-0.066,0.147-0.146,0.191-0.191c0.157-0.156,0.691-0.276,0.973-0.417c0.934-0.466,1.781-0.962,2.312-1.217
		c0.027-0.06,0.06-0.111,0.104-0.157c0.833-0.831,0.093-3.382-0.747-5.178c-0.032-0.461-0.029-0.906,0.035-1.338
		c0.383-2.603,0.357-5.271,0.295-7.94c-0.14-0.008-0.294-0.018-0.469-0.018c-0.075,0-1.728-0.087-2.138-0.035
		c0.108-0.045,0.415-0.215,0.748-0.382c0.194-0.098,1.089-0.207,1.842-0.296c-0.011-0.477-0.026-0.949-0.035-1.425
		c-1.303,0.11-3.267,0.26-3.059,0.052c0.334-0.333,2.155-0.312,2.642-0.556c0.056-0.027,0.206-0.088,0.399-0.157
		c-0.021-1.588,0.001-3.173,0.139-4.743c0.163-0.101,0.371-0.212,0.539-0.312c0.112-0.272,0.208-0.544,0.191-0.956
		c-0.021-0.55-0.125-1.197-0.226-1.842c-0.101-0.645-0.2-1.294-0.208-1.859s0.092-1.044,0.347-1.356
		c0.263-0.319,0.477-0.665,0.712-1.007c0.082-0.35,0.165-0.711,0.244-1.06c0.29-1.277-0.48-3.134-0.018-4.346
		c0.075-0.193,0.679-1.068,0.66-1.25c-0.006-0.065-0.071-0.084-0.173-0.069c-0.51,0.068-2.044,0.975-3.076,1.563
		C202.112,1214.396,201.355,1213.307,200.722,1213.459L200.722,1213.459z M199.644,1251.724c-0.108,0.101-0.208,0.168-0.208,0.069
		C199.436,1251.781,199.521,1251.764,199.644,1251.724z"/>
	
		<path id="path9301" inkscape:connector-curvature="0" inkscape:export-xdpi="63.81599" inkscape:export-filename="/home/substack/media/vector/browserify.png" inkscape:export-ydpi="63.81599" fill="#E6B35A" stroke="#FFFFFF" stroke-opacity="0" d="
		M155.453,1172.606c-0.753,0.092-1.5,0.217-2.207,0.452c-4.773,1.59-9.17,3.577-13.763,5.108c-1.741,0.58-3.77,2.476-5.109,3.146
		c-5.549,2.774-10.501,5.766-15.674,8.636c-0.711,0.18-1.361,0.272-1.616,0.019c-4.184-4.185,4.004-6.537,2.746-9.054
		c-1.952-3.905-8.184,1.093-9.054,1.963c-0.825,0.826-0.782,2.692-0.782,4.327c0,0.308-0.196,1.767,0,1.964
		c0.916,0.916,0.872,2.453,1.963,3.544c1.903,1.904,5.417,1.765,7.837,0.818c0.023,0.045,0.046,0.074,0.07,0.121
		c1.042-0.482,1.826-0.854,1.928-0.939c4.467-3.68,8.483-5.231,13.763-7.871c1.381-0.69,7.26-4.412,8.654-5.108
		c1.86-0.931,4.688-1.428,7.473-1.965c0.523-0.523,1.201-0.842,1.981-1.008C154.256,1175.362,154.843,1173.989,155.453,1172.606
		L155.453,1172.606z M162.943,1214.936c-2.71,2.863-5.636,4.794-7.733,5.301c0.056,0.034,0.117,0.057,0.174,0.088
		c-1.836,0.443-3.56,0.935-4.501,1.876c-0.182,0.182-0.927-0.118-1.164,0c-4.842,2.421-11.587,1.751-14.944,5.109
		c-2.07,2.069,13.605-1.964,13.763-1.964c1.352,0,4.295-0.584,5.491-1.182c0.583-0.292,2.097,0,2.763,0
		c4.394,0,6.874,1.481,11,3.545c1.264,0.633,1.632,2.015,2.363,2.744c1.445,1.447,3.183,2.821,4.327,5.11
		c0.341,0.681-0.164,3.381,0.399,3.945c3.558,3.558-3.154,20.444-5.509,22.799c-2.74,2.739-5.838,5.438-8.254,7.854
		c-1.07,1.071-2.797,1.232-3.927,2.363c-0.577,0.577-2.232,0.334-3.163,0.799c-3.127,1.563-6.193,1.524-9.436,3.146
		c-0.876,0.437-2.637,0.594-4.675,0.678l-4.171-0.903c-1.262,0.797,0.98-0.672-0.486,0.208c-0.421,0.253-0.953,0.887-1.564,0.887
		c-0.276,0-1.877-0.694-2.068-0.504c-0.192,0.192-0.761,0.274-0.99,0.504l-0.887,0.869c-0.813,0.812,0.304,2.572,1.477,2.572
		c0.543,0,0.646-1.047,0.887-1.286c0.533-0.534,1.714-0.887,2.554-0.887c0.023,0-0.104,0.148-0.104,0.19v0.992
		c0,0.386-0.041,1.852-0.192,2.153c-0.133,0.268-0.06,0.627-0.19,0.887c-0.046,0.092-0.208,0.296-0.104,0.296
		c0.375,0,0.311-2.851,1.877-2.851c1.016,0,1.513,0.765,2.346,1.182c0.416,0.208,0.98,0.195,1.39,0.4
		c0.25,0.125,0.531,0.169,0.782,0.296c0.08,0.039,0.487,0.321,0.487,0.294c0-0.302-1.704-1.073-2.224-2.154
		c3.161-0.662,6.618-0.041,9.801-0.678c5.261-1.052,10.122-2.178,15.066-4.605c0.02,0.193,0.07,0.348,0.174,0.452
		c0.122,0.123,1.129-0.418,1.268-0.487c1.064-0.531,4.164-0.523,5.213,0c0.026,0.014,0.535,0.017,1.025,0.035
		c-0.357-0.132-0.683-0.282-0.729-0.33c-0.132-0.132-1.822-0.45-2.364-0.99c-0.159-0.16-0.269-0.453-0.33-0.816
		c9.623-9.547,18.756-16.39,15.674-31.801c-0.829-4.147-1.591-8.652-3.944-12.182c-3.9-5.849-11.701-4.661-14.372-6.916
		c-0.521-0.114-1.077-0.192-1.286-0.486c-0.017-0.001-0.087,0.003-0.087,0c0-0.008,0.042-0.038,0.052-0.053
		c-0.035-0.065-0.052-0.137-0.052-0.226C163.847,1219.376,169.097,1218.297,162.943,1214.936L162.943,1214.936z M171.284,1275.011
		c0.43,0.161,0.912,0.288,1.043,0.157C172.421,1275.073,171.857,1275.034,171.284,1275.011z"/>
	
		<path id="path9368" inkscape:connector-curvature="0" inkscape:export-xdpi="63.81599" inkscape:export-filename="/home/substack/media/vector/browserify.png" inkscape:export-ydpi="63.81599" fill="#E6B35A" stroke="#FFFFFF" stroke-opacity="0" d="
		M155.558,1174.414c-0.653-0.032-2.222,0.921-2.833,0.921c-2.173,0-15.707,6.809-16.96,8.062c-0.692,0.691-0.959,3.461-1.391,3.893
		c-1.209,1.21-1.903,4.355-2.693,7.299c-0.547,1.331-0.903,2.833-1.477,3.406c-0.205,0.205-0.108,0.803-0.278,0.973
		c-0.516,0.515-1.433,0.875-1.808,1.251c-0.137,0.138-1.18,0.243-1.529,0.417c-0.368,0.185-0.77,0.342-0.886,0.382
		c0.242-0.021,0.985,0.153,1.025,0.175c0.226,0.113,0.647,0.09,0.834,0.278c0.254,0.253,0.655,1.111,0.973,1.111
		c2.645,0-0.917-1.501,1.408-1.651c0.886,0.917,3.628,6.522,4.292,9.28c0.004,0.03,0.013,0.056,0.018,0.087
		c0.043,0.294,0.071,0.64,0.104,0.973c0.022,0.625,0.068,1.198,0.122,1.721c0.319,6.881-0.765,18.382-0.765,22.418
		c0,2.709-0.388,11.788,0.399,13.362c0.355,0.71-0.139,1.84-0.399,2.362c-1.382,2.766,1.168,14.985-0.643,17.517
		c0.345,0.5,0.603,1.072,1.025,1.494c0.181,0.182,1.627,5.54,2.398,8.43c3.395-0.032,6.835,0.022,8.724-0.921
		c1.987-0.995,4.333-1.611,6.116-2.504c0.384-0.191,2.083-1.011,3.006-1.32c-1.274-0.186-4.193-1.182-4.396-1.182
		c-0.555,0-1.206-0.153-1.895-0.398c0.071-0.016,0.138-0.037,0.209-0.053c-2.393-1.604-4.183-5.615-3.545-8.689
		c-1.151-6.403-0.313-16.414-0.313-22.069c0-6.027,0.688-12.327,0.783-18.68c-0.481,0.143-0.954,0.245-1.078,0.121
		c-0.277-0.278-0.41-2.681-0.591-4.153c-0.204-0.464-0.344-0.814-0.382-0.852c-0.538-0.538-0.938-1.318-1.251-1.945
		c-0.035-0.07-0.525-0.835-0.417-0.835c0.259,0,1.171,1.311,1.391,1.529c0.05,0.05,0.104,0.081,0.174,0.104
		c0.006,0.001,0.011-0.001,0.017,0c0.273,0.035,0.482,0.056,0.503,0.035c0.38-0.38-0.278-1.268-0.278-1.391
		c0-0.316,0.042-0.745,0.087-1.217c0.404,0.331,0.782,0.486,1.025,0.243c1.036-1.036-0.836-5.701-1.39-6.256
		c-0.084-0.083,0-0.701,0-0.834c0-0.416-0.092-0.873-0.208-1.337c0.012-0.836,0.057-1.634,0.174-2.295
		c0.221,0.238,0.441,0.5,0.59,0.573c0.653,0.327,0.93-1.025,1.113-1.39c0.501-1.004-0.268-3.041-1.251-4.988
		c-0.144-3.878-0.556-9.061-0.799-11.434c0-0.006,0.001-0.012,0-0.018c0.126-0.612,0.282-1.255,0.66-1.634
		c0.394-0.394,1.112,0,1.668,0c-0.981,0.625,0.757,2.857,2.224,1.392c2.354-2.355,3.88-6.383,6.117-8.62
		c0.236-0.236,2.743-2.818,2.502-3.059C155.734,1174.45,155.651,1174.417,155.558,1174.414L155.558,1174.414z M154.341,1273.829
		c0.355,0.053,0.608,0.043,0.608-0.069C154.949,1273.654,154.7,1273.71,154.341,1273.829z M125.703,1201.017
		c-0.046,0.005-0.087,0.015-0.087,0.036C125.616,1201.054,125.686,1201.024,125.703,1201.017z"/>
	
		<path id="path9750" inkscape:connector-curvature="0" inkscape:export-xdpi="63.81599" inkscape:export-filename="/home/substack/media/vector/browserify.png" inkscape:export-ydpi="63.81599" fill="#E6B35A" stroke="#FFFFFF" stroke-opacity="0" d="
		M122.906,1251.917c-0.209,0.042-0.771,0.506-0.904,0.572c-0.722,0.361-1.694,0.584-2.224,1.113c-0.6,0.602-1.407,0.85-2.085,1.528
		c-0.463,0.465-0.788,1.066-1.251,1.53c-0.176,0.176,0.551,1.657,0.695,1.945c0.277,0.555,0.274,1.245,0.556,1.808
		c0.26,0.52,0.388,2.474,0.695,2.78c0.291,0.291,0.14-0.002,0.278-0.139c0.067-0.066,0.258,0.298,0.417,0.139
		c0.344-0.344,1.126-0.146,1.668-0.417c0.954-0.478,3.145,0.096,4.17-0.416c0.494-0.247,1.156-0.413,1.842-0.522
		c0.044,0.042,0.078,0.081,0.122,0.121c-0.005,0.013-0.013,0.024-0.018,0.035c0.102,0.073,0.197,0.152,0.295,0.227
		c0.267,0.238,0.529,0.463,0.678,0.538c0.003,0.003,0.014-0.002,0.017,0c0.584,0.493,1.142,1.037,1.807,1.703
		c0.966,0.966,2.509,7.826,2.746,8.063c0.996,0.995,1.068,4.214,1.963,5.108c0.514,0.514,0.745,1.145,1.182,1.582
		c0.543,0.543,1.503,0.721,1.963,1.181c0.582,0.582,3.678-3.087,4.136-3.545c0.197-0.197,0.466-0.897,0.591-0.972
		c0.303-0.183,0.815-0.085,0.973-0.4c0.04-0.079-0.037-0.128-0.156-0.156l-4.953-5.161c-0.934,0-1.87-4.233-2.746-5.109
		c-2.648-2.649-4.55-4.856-6.794-7.159c-0.407-0.736-0.739-1.521-1.425-2.207c-0.644-0.645-1.615-1.284-2.085-2.224
		c-0.108-0.217-1.334-1.515-1.738-1.425c-0.026,0.005-0.051,0.016-0.069,0.034c-0.025,0.025-0.045,0.059-0.069,0.086
		c-0.057-0.068-0.128-0.145-0.208-0.226C122.962,1251.92,122.936,1251.911,122.906,1251.917L122.906,1251.917z"/>
	
		<path id="path9827" inkscape:connector-curvature="0" inkscape:export-xdpi="63.81599" inkscape:export-filename="/home/substack/media/vector/browserify.png" inkscape:export-ydpi="63.81599" fill="#E6B35A" stroke="#FFFFFF" stroke-width="1.0262" stroke-opacity="0" d="
		M166.558,1209.516c-0.099,0.138-0.39,0.483-0.435,0.574c-0.059,0.118-0.146,0.25-0.226,0.382c0.106-0.128,0.214-0.266,0.331-0.382
		C166.33,1209.986,166.472,1209.681,166.558,1209.516z M165.897,1210.472c-1.008,1.223-1.582,2.902-2.624,3.944
		c-0.796,0.797-1.426,1.895-0.973,2.364l0.678-0.488c-0.176-0.35,0.121-0.746,0.295-1.094c0.106-0.212,0.399-0.827,0.399-0.592
		c0,0.378,1.263,0.807,1.773,0.296c0.674-0.675-0.706-1.561-0.208-2.554c0.128-0.258,0.295-0.679,0.295-0.973
		C165.532,1211.091,165.715,1210.768,165.897,1210.472z M159.641,1218.569c-1.444,0.255-2.866,0.713-4.118,1.252
		c-1.254,0.115-2.505,0.234-3.667,0.643c-4.774,1.675-9.171,3.758-13.764,5.369c-1.74,0.612-3.769,2.613-5.108,3.319
		c-2.721,1.432-5.29,2.916-7.82,4.415c-0.283,0.656-0.345,1.342,0.035,2.102c0.328,0.655,0.7,1.064,1.095,1.32
		c2.428-1.402,4.962-2.586,7.872-4.118c1.381-0.728,7.26-4.653,8.654-5.388c1.859-0.979,4.688-1.504,7.472-2.067
		c0.826-0.87,2.035-1.209,3.424-1.2c0.423,0.004,0.871,0.042,1.32,0.106c0.348-0.089,0.63-0.123,0.747,0
		c0.061,0.063,0.12,0.138,0.191,0.189c0.621,0.136,1.248,0.293,1.876,0.505c1.424,0.128,3.107,0.067,4.049,1.06
		c1.614,1.7,5.295,2.951,7.229,4.988c1.221,1.286,1.164,3.911,1.946,5.561c0.321,0.676,1.505,6.013,1.425,6.915
		c-0.012-0.148-0.028-0.294-0.087-0.416c-0.254-0.535-0.728-1.896-0.99-2.173l-0.887-0.921c-0.156-0.165-0.463-0.105-0.66-0.156
		c-0.001,0,0-0.018,0-0.018c-0.015-0.039-0.028-0.061-0.053-0.086c-0.329-0.347-0.699-0.186-1.042-0.366
		c-0.147-0.076-0.347,0.005-0.487-0.069c-1.413-0.744-2.71,1.572-2.71,2.851c0,0.738,1.195,2.271,2.12,2.502
		c0.197-0.196,1.006-0.146,1.269-0.278c0.361-0.181,0.833-0.59,1.095-0.59c0.063,0-0.513,0.408-0.886,0.781
		c-0.169,0.169-0.53,0.395-0.851,0.66c0.054,0.203,0.113,0.402,0.243,0.54c0.049,0.052-0.049,0.26,0,0.312
		c0.245,0.258,0.324,0.632,0.33,1.043c0.492-0.012,1.044-0.104,1.356-0.104c0.513,0,1.077-0.31,1.077-0.19
		c0,0.139-1.268,0.329-1.477,0.398c-0.338,0.113-0.66,0.207-0.974,0.314c-0.029,0.398-0.093,0.808-0.122,1.181
		c-0.011,0.002-0.023-0.001-0.035,0c-0.087,1.289-0.306,2.56-0.608,3.789c0.005,0.15,0.009,0.3,0.018,0.451
		c-0.172,0.47-0.369,0.916-0.556,1.354c-2.767,8.363-9.772,14.78-13.763,15.796c0.056,0.036,0.117,0.056,0.174,0.088
		c-1.836,0.468-3.56,0.99-4.501,1.98c-0.182,0.191-0.927-0.124-1.164,0c-4.842,2.55-11.587,1.852-14.945,5.388
		c-2.07,2.18,13.605-2.068,13.763-2.068c1.352,0,4.295-0.621,5.491-1.251c0.583-0.307,2.097,0,2.763,0
		c2.811,0,4.843,0.638,7.02,1.669c0.505-0.322,0.92-0.521,1.147-0.521c0.382,0,3.61-0.937,4.953-1.129
		c-0.427-0.146-0.92-0.457-0.99-0.836c-1.662-0.396-3.067-0.816-3.875-1.667c-0.017-0.019-0.026-0.031-0.035-0.052
		c-0.119-0.076-0.227-0.171-0.33-0.279c-0.041-0.042-0.834,0.035-0.834,0c0-0.211,4.093-3.434,4.727-4.102
		c1.002-1.055,2.026-1.258,3.059-2.346c1.735-1.826,4.382-4.324,6.117-6.151c0.051,0.054,3.64-2.947,3.893-3.214
		c0.687-0.725,1.414-1.266,2.12-1.791c0.001-0.006,0.016-0.009,0.018-0.017c0.276-1.05,1.348-2.453,1.477-2.589
		c0.229-0.241,0.415-0.593,0.591-0.99c-0.012-0.155-0.035-0.398-0.035-0.471c0-2.422,0.084-4.718,0.157-6.984
		c0.221-2.202,0.28-4.537,0.139-6.727c0.031-1.379,0.27-7.655-0.018-7.959c-0.417-0.438-0.973-0.725-1.39-1.163
		c-0.148-0.157-0.381-0.221-0.661-0.243c-0.487,0.14-0.94,0.263-1.008,0.33c-0.361,0.36-0.963,0.546-1.39,0.973
		c-0.319,0.319-0.66,0.938-1.112,1.391c-0.438,0.438-0.702,0.842-1.112,1.252c-0.006,0.005-0.417,0.709-0.417,0.556
		c0-0.057,0.356-0.496,0.417-0.556c0.315-0.315,0.268-1.103,0.556-1.392c0.864-0.863,2.143-1.735,2.606-3.093
		c-0.034-0.031-0.08-0.079-0.104-0.104c-0.427-0.45-1.211-0.903-2.172-1.355c0.001,0.151-0.008,0.296-0.052,0.383
		c-0.322,0.646-1.298,2.411-1.668,2.78c-0.099,0.1-0.183,0.367-0.26,0.626c-0.004,0.073-0.018,0.158-0.018,0.208
		c0,0.058-0.059,0.128-0.122,0.19c-0.051,0.133-0.098,0.227-0.157,0.227c-0.109,0,0.038-0.104,0.157-0.227
		c0.045-0.114,0.094-0.25,0.139-0.398c0.021-0.391,0.099-1.021,0.399-1.321c0.089-0.088-0.057-0.44,0-0.557
		c0.196-0.391,0.716-1.904,0.557-2.224c-0.02-0.041-0.033-0.106-0.052-0.174c-0.006-0.003-0.01-0.015-0.017-0.019
		c-3.236-1.339-7.763-2.627-9.801-3.7c-0.869-0.458-1.96-0.315-2.502-0.886C164.425,1218.481,160.998,1220.304,159.641,1218.569
		L159.641,1218.569z"/>
	
		<path id="path9919" inkscape:connector-curvature="0" inkscape:export-xdpi="63.81599" inkscape:export-filename="/home/substack/media/vector/browserify.png" inkscape:export-ydpi="63.81599" fill="#E6B35A" stroke="#FFFFFF" stroke-width="0.9083" stroke-opacity="0" d="
		M242.67,1218.03c1.005,1.729,4.688,2.937,4.536,4.154c-2.667,1.967-6.426,3.01-7.716,6.464c-1.139,1.589-2.149,3.237-3.041,4.97
		c-0.309,0.381-0.62,0.742-0.921,1.042c-0.259,0.259-0.529,0.85-0.695,1.183c-0.161,0.321-0.591,0.799-0.782,0.99
		c-0.484,0.484-0.973,1.86-1.477,2.363c-0.011,0.011-0.036,0.083-0.052,0.104c-0.457,0.209-0.984,0.413-1.512,0.678
		c-0.485,0.241-1.007,0.061-1.477,0.295c-0.042,0.021-0.105,0.018-0.174,0c0.226,0.103,2.159,0.591,2.329,0.591
		c0.481,0,1.121,0.199,1.755,0.47c0.006,0.005,0.012,0.012,0.018,0.018c0.019,0.019,0.132,0.071,0.278,0.121
		c0.214,0.098,0.404,0.193,0.608,0.295c-0.328-0.053-0.929-0.17-1.599-0.312c-0.022,0.098-0.051,0.195-0.069,0.295
		c0.333,0.332,0.797,0.605,1.077,0.887c0.025,0.023,0.4,0.03,0.4,0.086c0,0.132-0.269,0-0.4,0c-0.163,0-0.676-0.054-1.199-0.121
		c-0.089,0.797-0.106,1.61-0.017,2.449c-0.012,2.522-0.064,5.048-0.087,7.577c-0.002,0.006,0.001,0.013,0,0.017
		c-0.132,0.482-0.065,1.062-0.017,1.634c-0.001,0.342-0.001,0.685,0,1.026c-0.003,0.017,0.003,0.034,0,0.052
		c-0.028,0.155-0.088,0.313-0.157,0.452c-0.092,0.183,0.092,0.494,0,0.677c-0.422,0.845-0.732,1.571-1.077,2.26
		c-0.134,0.268-0.766,1.614-0.399,1.981c0.158,0.157,0.358,0.531,0.504,0.678c0.11,0.109,0.502,0.104,0.677,0.104
		c0.233,0,0.434-0.061,0.626-0.122c0.067,1.214,0.152,2.421,0.278,3.631c1.555,2.986,4.516,4.994,6.899,7.247
		c2.812,2.633,6.311,4.263,9.123,6.847c1.75,2.077,3.798,7.154,6.812,3.893c4.29-3.201,9.138-5.674,12.755-9.802
		c2.08-0.284,3.695-2.786,5.561-4.03c1.296-1.838-0.655-4.395,0.66-6.326c0.726-2.176,0.06-4.666,0.244-6.95
		c-0.099-6.606-0.167-13.211-0.469-19.812c1.816,0.622,1.878,1.29,1.32,2.989c0.114,3.739,4.697,3.896,4.97,0.087
		c0.429-3.072-2.253-4.501-3.979-6.307c-2.427-1.613-4.808-3.115-7.524-4.137c-2.174-0.92-4.699-1.218-6.447-3.024
		c-2.425-1.035-4.846-1.963-7.385-2.623c-2.156-1.267-4.253-2.461-6.656-3.146C246.808,1219.067,244.712,1218.622,242.67,1218.03
		L242.67,1218.03z M254.47,1226.737c1.907,0.787,3.697,2.171,5.595,3.11c1.917,1.649,5.277,1.686,5.874,4.622
		c0.204,0.568,0.389,1.139,0.538,1.721c-0.059,0.059-0.142,0.142-0.173,0.173c-0.368,0.369,0.556,1.391,0.556,1.946
		c0,0.568-0.546,0.686-0.834,0.974c-0.386,0.386-0.121,4.97-0.556,5.839c-0.198,0.396-0.022,1.828-0.278,2.086
		c-0.779,0.778-0.354,6.407-1.112,7.923c-0.395,0.79,0.139,2.409,0.139,3.198v1.39c0,0.155-0.161,0.395-0.139,0.417
		c0.234,0.235,1.016,0.044,1.251,0.278c0.713,0.714-1.216,1.565-1.112,1.669c0.029,0.029,1.251,0.76,1.251,0.833
		c0,0.07-1.291,0.317-1.39,0.417c-0.229,0.23-0.538,6.692-0.278,6.951c0.348,0.349,0.827,0.473,1.303,0.486
		c-2.871,1.751-5.615,3.849-8.688,5.145c-0.021,0.015-0.049,0.021-0.07,0.035c-0.589,0.388-1.423,0.623-1.946,0.886
		c-0.291,0.145-1.108,0.799-1.285,0.799c-0.033,0,0.457-0.267,0.694-0.503c0.131-0.132,0.848-0.676,1.355-1.235
		c-0.087-0.4-0.158-0.81-0.226-1.232c-0.727,0.067-1.72,0.484-1.72,0.312c0-0.166,1.024-0.838,1.564-1.232
		c-0.158-0.924-0.356-1.837-0.73-2.625c-0.284,0.127-0.588,0.258-0.834,0.504c0.166-0.213,0.377-0.464,0.59-0.677
		c0.04-0.04,0.067-0.066,0.104-0.105c-0.367-0.66-0.887-1.226-1.651-1.598c-2.602-1.548-5.306-2.813-8.271-3.302
		c-3.431,0.4-4.573-3.159-3.962-6.203c0.502-4.112,0.633-8.246,0.503-12.391c0.126-1.484-0.116-3.09-0.069-4.604
		c0.1,0.073,0.381,0.103,0.47,0.19c0.031,0.031,0.175,0.296,0.19,0.296c0.01,0,0.878-1.47,0.991-1.581
		c1.354-1.354,1.649-3.405,2.954-4.711c0.238-0.237,0.248-0.647,0.487-0.885c0.382-0.383,1.477-1.288,1.477-1.669
		c0-0.33-0.626-1.223-1.026-1.686c0.096-0.164,0.202-0.32,0.296-0.485c0.011,0,0.023,0,0.035,0c0.448,0,0.804,0,1.182,0.189
		c0.152,0.076,1.623-2.339,1.964-2.85c0.109-0.164,0.566-0.768,0.99-1.355c1.152-0.499,2.379-0.879,3.493-1.355L254.47,1226.737z
		 M228.769,1240.1c-0.087-0.007-0.167,0.01-0.226,0.069c-0.099,0.099,0.554,0.029,0.765,0.104
		C229.143,1240.226,228.939,1240.112,228.769,1240.1z M253.201,1271.64c-0.041,0.058-0.195,0.383-0.278,0.383
		C252.92,1272.022,253.034,1271.856,253.201,1271.64z"/>
	
		<path id="path10083" inkscape:connector-curvature="0" inkscape:export-xdpi="63.81599" inkscape:export-filename="/home/substack/media/vector/browserify.png" inkscape:export-ydpi="63.81599" fill="#E6B35A" stroke="#FFFFFF" stroke-width="1.0762" stroke-opacity="0" d="
		M284.272,1212.922c-0.07,0.097-0.143,0.182-0.226,0.26c0.069,0.09,0.136,0.189,0.191,0.244c0.133,0.132,0.556,0.429,0.556,0.694
		c0,0.153,1.289,2.123,1.529,2.364c1.175,1.175,2.132,3.873,2.242,6.169c-0.2-0.174-0.411-0.338-0.626-0.504
		c-0.028-0.033-0.058-0.076-0.087-0.104c-1.783-1.783-3.614-4.03-5.421-5.839c-0.316-0.316-0.858-0.58-1.251-0.974
		c-0.202-0.201-1.64-1.279-1.668-1.251c-0.328,0.328,0.834,0.648,0.834,1.112c0,0.233,2.705,3.968,2.641,4.032
		c-0.174,0.175-0.396-0.118-0.417-0.14c-0.02-0.02-0.268-0.033-0.608-0.035c-0.082-0.018-0.153-0.027-0.191,0
		c-0.105,0-0.209,0.017-0.331,0.019c-0.181-0.06-0.355-0.122-0.538-0.122c-0.582,0-1.157,0.095-1.755,0.174
		c-0.18,0.006-0.371,0.011-0.539,0.018c0.065,0.006,0.125,0.025,0.191,0.034c-0.308,0.035-0.618,0.053-0.956,0.053
		c-0.035,0-0.134,0.012-0.192,0.016c0.016-0.006,0.038-0.009,0.052-0.016c0.049-0.025,0.115-0.037,0.174-0.053
		c-0.376,0.021-0.716,0.037-0.73,0.053c-0.036,0.035-0.074,0.075-0.121,0.104c-0.497,0.079-1.032,0.185-1.217,0.312
		c-0.183,0.038-0.35,0.08-0.47,0.141c-0.338,0.168-0.833,0.418-0.833,0.416c0-0.031,0.684-0.192,1.46-0.399
		c0.569,0.02,2.161-0.09,2.572-0.296c0.81-0.404,2.168,0.871,3.058,0.279c0.068-0.046,0.132-0.119,0.191-0.192
		c0.145,0.031,0.286,0.067,0.434,0.104c-0.038,0.084-0.069,0.158-0.069,0.227c0,0.23,0.463,0,0.695,0
		c0.152,0,0.515,0.213,0.661,0.156c0.688,0.254,1.345,0.573,1.876,0.938c-0.046,0.021-0.092,0.028-0.139,0.053
		c-0.018-0.006-0.036-0.012-0.052-0.018c-0.002,0.012,0.001,0.023,0,0.034c-1.121,0.565-2.409,1.523-3.371,2.486
		c-0.467,0.465-0.414,1.596-0.782,1.963c-0.655,0.653,0.001,3.018,0.018,3.458c0.131-0.342,0.888-1.726,0.973-1.895
		c0.363-0.728,1.535-1.354,2.798-1.65c-0.06,3.363,0.233,6.803-0.052,10.114c-0.419,4.849-0.402,9.997,0.191,14.806
		c0.141,1.14-0.259,14.02,0.209,14.562c0.503,0.583,1.202,1.56,1.755,2.52c2.403,4.175,5.727,7.533,7.681,12.06l1.564,3.632
		c0.061,0.141,0.553,1.069,0.608,1.321c0.152-0.263,1.078-1.261,1.355-2.224c0.753-2.618,2.323-4.42,3.736-6.604
		c1.93-2.981,4.74-5.922,6.5-7.959c0.37-0.431,0.467-1.004,0.591-1.562c1.984,2.354,4.071,4.701,6.012,7.211
		c0.003,0.002-0.002,0.014,0,0.018c0.22,0.34,0.523,0.723,0.852,1.111c0.012,0.015,0.023,0.021,0.035,0.035
		c0.602,0.815,1.181,1.66,1.738,2.52c0.678,1.046,1.051,2.57,1.772,3.406c0.299,0.346,1.087,2.972,1.373,2.972
		c0.041,0,2.299-4.992,3.354-6.621c1.383-2.138,3.238-3.913,4.518-6.134c1.096-1.903,1.883-4.055,2.711-5.475
		c0.63,0.296,1.427,0.225,1.981-0.33c0.364-0.364,0.38-2.02,0.14-2.502c-0.252-0.505,0.124-1.143-0.14-1.668
		c-0.48-0.963,0.215-2.351-0.278-3.337c-0.306-0.612,0.291-2.629-0.139-3.059c-0.531-0.531-0.188-3.782-0.591-5.144
		c-0.015-0.413-0.031-0.822-0.052-1.233c0.003-0.054-0.01-0.108-0.017-0.157c-0.113-2.106-0.308-4.199-0.66-6.237
		c-0.234-1.353,0.078-2.771-0.209-4.103c-0.19-0.887-0.407-12.23-0.19-12.98c0.022-0.077,0.07-0.316,0.121-0.591
		c1.778-1.545,4.069-3.13,5.387-3.789c0.286-0.143,1.564-0.588,1.564-0.782c0-0.228-1.98,0.592-3.528,0.592
		c-1.659,0-13.873,1.273-14.162,1.564c-0.09,0.002-0.168,0.008-0.191,0.034c-0.08,0.094,0.782,5.242,0.782,5.926
		c0,1.862,0.885,6.63,1.564,8.203c0.587,1.359,0.518,4.058,0.99,5.699c0.047,0.165,0.003,0.485-0.035,0.816
		c-0.404,0.974-0.809,1.782-1.477,2.45c-0.056,0.055,0.522,0.522,0.556,0.556c0.394,0.395,0.393,1.621,0.695,2.226
		c0.275,0.551-0.087,1.719,0.278,2.084c0.222,0.224,0.062,2.703,0.417,3.059c0.426,0.427-0.404,4.752,0,5.561
		c0.168,0.338,0.88,0.094,1.112,0.557c0.149,0.299-0.312,0.523-0.139,0.695c-0.197-0.011-0.394-0.023-0.417,0
		c-0.04,0.04-0.684,0.289-0.556,0.417c0.264,0.264,2.78,1.492,2.78,1.668c0,0.198-2.392,0.057-2.641,0.557
		c-0.055,0.109,0.269,1.66,0.417,1.807c0.229,0.229,0.75,0.208,1.356,0.347c-0.186,0.358-0.125,1.66-0.244,2.017
		c-0.137,0.413-0.284,0.91-0.417,1.426c-0.502,0.332-0.999,0.667-1.512,0.815c-1.084,0.315-2.633,0.473-3.336,1.286
		c-0.09,0.105-1.91-1.104-2.225-1.286c-2.146-1.242-4.557-1.975-6.638-3.144c-0.004-0.004-0.014,0.002-0.018,0
		c-0.029-0.028-0.058-0.044-0.087-0.07c-0.301-1.607-0.659-5.025-0.869-7.524c0.125-0.803,0.264-1.603,0.417-2.398
		c-0.172,0.016-0.408,0.035-0.487,0.035c-0.05,0-0.93-0.112-1.112-0.104c-0.041,0.029-0.07,0.037-0.07,0c0-0.004,0.049,0,0.07,0
		c0.041-0.029,0.088-0.07,0.122-0.088c0.322-0.16,0.748-0.13,1.077-0.295c0.134-0.066,0.335-0.04,0.504-0.052
		c0.031-0.15,0.054-0.301,0.087-0.452c0.145-0.671,0.146-1.395,0.174-2.103c-0.072-0.188-0.118-0.398-0.157-0.625
		c-0.421,0.077-0.86,0.201-1.094,0.278c-0.125,0.041-0.322,0.001-0.487-0.019c-0.127,0.109-0.295,0.239-0.295,0.122
		c0-0.132,0.13-0.14,0.295-0.122c0.032-0.026,0.066-0.065,0.087-0.087c0.222-0.222,0.976-0.462,1.442-0.538
		c-0.108-1.163,0.104-2.645,0.312-4.049c-0.045-0.006-0.177-0.015-0.173-0.018c0.043-0.043,0.106-0.11,0.19-0.156
		c0.055-0.365,0.111-0.736,0.157-1.077c-0.599,0.076-1.343,0.052-1.825,0.052c-0.028,0-0.067-0.025-0.104-0.035
		c0.036-0.027,0.077-0.055,0.104-0.069c0.254-0.126,0.63-0.063,0.886-0.191c0.164-0.082,0.585-0.166,0.991-0.242
		c0.047-0.397,0.08-0.77,0.087-1.095c-0.496,0.053-1.062,0.135-1.546,0.227c-0.415,0.174-0.863,0.271-0.816,0.225
		c0.064-0.065,0.408-0.15,0.816-0.225c0.059-0.026,0.117-0.042,0.174-0.07c0.441-0.221,1.087-0.37,1.494-0.643
		c0.11-0.252,0.248-0.512,0.087-0.835c-0.891-1.782,0.689-4.722-0.191-6.482c-0.404-0.81-0.99-6.475-0.99-7.68
		c0-1.163-0.874-5.017-0.782-5.109c0.342-0.343,3.944-2.774,5.7-3.91c0.145-0.338,0.26-0.667,0.191-0.747
		c-0.065-0.075-0.158-0.096-0.278-0.087c-0.359,0.026-0.892,0.33-1.095,0.33c-2.379,0-4.84,0.209-7.281,0.209
		c-0.282,0-1.593-0.208-1.772,0c-0.006,0.007,0.021,0.238,0.035,0.331c-2.72-0.648-4.219-0.027-4.553,0.746
		c-0.203,0.471,0.78,6.568,0.99,7.299c0.295,1.025-0.295,2.397,0,3.424c0.242,0.842,0.041,2.387,0.382,3.18
		c1.021,2.363-0.637,6.883,0,9.835c0.422,1.956-0.124,3.588,0.4,5.405c0.018,0.062,0.035,0.127,0.052,0.19
		c0.122,1.467,0.226,3.595,0.226,4.258v1.111c0,0.144-0.243,0.175-0.139,0.278c0.311,0.311,0.808,0.431,1.182,0.679
		c0.047,0.203,0.104,0.406,0.156,0.607c-0.318,0.413-1.137,0.862-1.06,0.938c0.261,0.261,0.798,0.274,1.216,0.365
		c0.016,0.114,0.036,0.229,0.052,0.347c-0.532,0.165-1.408,0.427-1.408,0.679c0,0.4,0.372,3.521,0.278,3.614
		c-0.136,0.136-0.417,1.847-0.417,1.946c0,0.37,0.741,0,1.113,0c0.135,0,0.432,0.019,0.678,0.034
		c-0.292,0.221-0.578,0.438-0.8,0.694c-1.669,1.934-3.898,3.226-5.978,4.831c-0.218,0.168-1.055,1.023-1.113,0.957
		c-0.824-0.955-1.81-1.692-3.058-2.415c-0.389-0.227-0.584-0.888-0.973-1.113c-1.645-0.951-2.983-2.625-4.518-3.856
		c-0.073-0.134-0.131-0.267-0.173-0.384c0.148-0.037,0.282-0.065,0.434-0.104c0.922-0.026,3.404-0.45,3.545-0.591
		c0.446-0.447-0.189-2.125,0.139-2.781c0.223-0.443-0.223-1.223,0-1.668c0.067-0.132,0.171-0.834,0-0.834
		c-0.278,0-1.4-0.288-1.529-0.416c-0.062-0.062,1.71-0.835,1.529-0.835c-0.105,0-0.185-3.013,0.139-3.336
		c0.265-0.266-0.33-1.581-0.417-1.669c-0.347-0.348,0.614-1.169,0.695-1.25c0.14-0.141-0.292-1.794,0.139-2.226
		c0.164-0.164-0.139-1.675-0.139-2.086c0-2.68-0.417-5.365-0.417-7.784c0-0.184,0.011-0.85,0.018-1.442
		c-0.001-0.005,0.002-0.013,0-0.018c-0.19-0.53,0.122-1.516,0.122-1.875c0-0.535-0.075-1.596,0.139-1.809
		c0.075-0.075,0.193-0.103,0.33-0.104c0.364,0.854,0.922,1.633,1.199,1.912c0.104,0.103,1.235,1.267,1.807,0.694
		c0.334-0.335,0.69-0.553,0.973-0.835c0.233-0.232,0.323-1.018,0.556-1.251c0.083-0.084,0-0.702,0-0.834
		c0-2.343-0.25-5.394-1.668-6.812c-0.014-0.015-0.039-0.021-0.052-0.035c-0.006-0.012-0.011-0.024-0.018-0.034
		c-0.697-1.146-1.8-2.108-2.381-3.077c-0.055-0.091-0.109-0.168-0.174-0.242c-0.024,0.133-0.071,0.275-0.017,0.33
		c1.154,1.154,2.877,5.506,1.946,7.367c-0.573,1.146-0.035,1.391-1.39,1.391c-0.167,0-0.358,0.197-0.556,0
		c-0.824-0.823-1.18-2.089-1.721-3.284c0.02-0.017,0.035-0.034,0.052-0.052c0.305-0.305,0.23-2.044,0-2.502
		c-0.501-1.004,0.24-2.024-0.278-3.059c-1.055-2.109-1.873-4.932-3.614-6.674c-0.803-0.803-1.738-1.842-2.781-2.362
		C284.731,1213.117,284.465,1213.001,284.272,1212.922L284.272,1212.922z M277.877,1219.073c0.204-0.01,0.41-0.023,0.677-0.034
		c-0.098-0.009-0.203-0.018-0.295-0.018C278.114,1219.021,277.996,1219.042,277.877,1219.073z M309.764,1245.747
		c0.013-0.003,0.032-0.003,0.053,0c-0.046,0.034-0.07,0.075-0.07,0.035C309.747,1245.766,309.75,1245.75,309.764,1245.747
		L309.764,1245.747z M296.766,1284.377c-0.017,0.034-0.022,0.036,0,0.036c0.015,0,0.023-0.002,0.018-0.036
		C296.782,1284.379,296.767,1284.375,296.766,1284.377z"/>
	
		<path id="path10267" inkscape:connector-curvature="0" inkscape:export-xdpi="63.81599" inkscape:export-filename="/home/substack/media/vector/browserify.png" inkscape:export-ydpi="63.81599" fill="#E6B35A" stroke="#FFFFFF" stroke-width="1.1129" stroke-opacity="0" d="
		M356.236,1218.187c-4.339,1.302-14.39,13.999-17.448,23.024c-0.359,1.062-2.478,5.81-0.903,7.004
		c1.333,1.01,2.787,3.215,4.345,4.396c1.264,0.958,2.967,1.174,4.866,1.008c-0.115-1.015-0.239-2.242-0.018-2.242
		c0.148,0,0.476,1.142,0.834,2.155c0.23-0.032,0.461-0.064,0.695-0.105c-0.204-0.568-0.366-1.128-0.139-1.354
		c0.069-0.069,0.471,0.552,0.869,1.198c1.835-0.377,3.728-0.944,5.561-1.494c-0.061-0.821-0.106-1.65,0.244-1.65
		c0.211,0,0.302,1.022,0.382,1.459c0.252-0.075,0.517-0.154,0.765-0.226c0.082-0.397,0.237-1.649,0.243-1.649
		c0.092,0-0.042,0.195,0,0.277c0.153,0.306,0.204,0.769,0.261,1.232c2.785-0.777,5.197-1.22,6.465-0.26
		c1.157,0.876,1.905,3.263,2.433,4.031c2.535,3.699-3.24,20.203-5.022,22.557c-0.538,0.709-3.571,5.906-4.292,7.055
		c0.512-0.235,1.579-0.157,2.085-0.504c2.335-1.601,4.873-4.254,6.586-6.517c4.457-5.885,7.269-12.821,9.73-20.088
		c0.68-2.008,0.307-4.379,0.992-6.396c0.374-1.109-0.516-3.713-0.68-4.9c-1.798-13.036-18.138-1.104-21.773-3.857
		c-5.115-3.875-2.138-12.657-0.521-17.43C353.631,1222.441,354.169,1221.652,356.236,1218.187L356.236,1218.187z M356.375,1284.603
		c-0.198,0.091-0.328,0.216-0.295,0.453C356.081,1285.067,356.283,1284.749,356.375,1284.603z"/>
	
		<path id="path10321" inkscape:connector-curvature="0" inkscape:export-xdpi="63.81599" inkscape:export-filename="/home/substack/media/vector/browserify.png" inkscape:export-ydpi="63.81599" fill="#E6B35A" stroke="#FFFFFF" stroke-width="1.1129" stroke-opacity="0" d="
		M344.351,1265.807c-0.05,0-0.09,0.019-0.131,0.038c-1.58,0.771-2.871,2.772-4.451,3.543c-0.636,0.31,1.68,0.119,2.208,0.3
		c0.735,0.254,4.335,2.208,4.731,3.019c0.356,0.731,1.509,1.307,1.861,2.027l1.495,3.055c0.424,0.865,1.505,3.218,1.679,4.531
		c0.066,0.495,0.041,1.113,0.198,1.438c0.035,0.07,0.083,0.113,0.137,0.136c-0.724,1.471-1.646,3.821,1.559,3.379
		c3.851-0.532,5.462-3.903,7.289-6.317c0.235-0.309-0.261-0.593-0.3-0.622c-0.104-0.077-0.178-0.184-0.256-0.296
		c0.721-0.286,1.63-0.698,1.373-1.225c-0.708-1.451-2.822-3.157-4.042-4.4c-1.253-1.278-10.055-9.386-12.164-8.357
		C345.253,1266.192,344.699,1265.802,344.351,1265.807L344.351,1265.807z"/>
	
		<path id="path10336" inkscape:connector-curvature="0" inkscape:export-xdpi="63.81599" inkscape:export-filename="/home/substack/media/vector/browserify.png" inkscape:export-ydpi="63.81599" fill="#E6B35A" stroke="#FFFFFF" stroke-width="1.1129" stroke-opacity="0" d="
		M343.97,1264.883c-0.11,0.011-0.2,0.037-0.258,0.114c-0.907,1.197-4.208,2.495-6.391,3.771c-0.032,0.015-0.059,0.037-0.09,0.052
		c-1.899,0.884-3.929,2.69-4.132,5.567c-0.042,0.594,0.693,1.089,0.787,1.317c0.478,1.153,1.324,1.774,2.423,1.852
		c4.245,0.3,4.998-6.182,2.249-8.042c0.819-0.28,1.611-0.408,2.017-0.102c0.048,0.037,0.652,0.679,0.922,0.322
		c0.591-0.779,5.628-1.791,5.895-2.142c0.18-0.237-2.192-2.395-2.554-2.518C344.776,1265.056,344.298,1264.852,343.97,1264.883
		L343.97,1264.883z"/>
	
		<path id="path10351" inkscape:connector-curvature="0" inkscape:export-xdpi="63.81599" inkscape:export-filename="/home/substack/media/vector/browserify.png" inkscape:export-ydpi="63.81599" fill="#E6B35A" stroke="#FFFFFF" stroke-width="1.1129" stroke-opacity="0" d="
		M356.183,1218.639c-1.076-0.099-4.167,4.481-4.744,5.438l-0.382,2.834c-0.959,0.502-1.783,0.262-2.641,0.277
		c-0.102,0.002,1.387,1.116,1.563,1.285c0.398,0.385,0.969,0.729,1.599,1.044c0.079-0.354,0.281-0.716,0.643-1.077
		c0.14-0.14,0.185-0.834,0.417-0.834c0.091,0-0.7,1.241-0.643,2.103c0.327,0.149,0.666,0.292,1.008,0.435
		c0.441-0.438,0.868-1.286,1.303-1.286c0.169,0-0.368,0.967-0.417,1.667c0.567,0.23,1.13,0.445,1.616,0.679
		c0.01,0.004,0.024,0.013,0.035,0.018c0.021,0.034,0.043,0.059,0.07,0.086c0.533,0.534,1.743,0.215,2.189,0.66
		c0.161,0.161,0.552,0.147,0.921,0.157c0.037-0.225,0.081-0.44,0.173-0.625c0.204-0.406,0.417-0.874,0.417-1.253
		c0-0.019,0.028-0.063,0.052-0.103c-0.007-0.097,0.01-0.176,0.087-0.176c0.022,0-0.038,0.092-0.087,0.176
		c0.018,0.224,0.181,0.611,0.087,0.799c-0.116,0.232-0.195,0.726-0.208,1.233c0.081,0.024,0.158,0.071,0.208,0.122
		c0.164,0.164,0.583,0.062,0.748,0.225c0.123,0.124,0.309,0.206,0.539,0.262c0.274-0.946,0.652-2.26,0.938-2.26
		c0.192,0-0.139,1.21-0.313,2.33c1.176,0.052,2.93-0.266,4.554-0.504c1.136,0.263,2.414,0.111,3.37,0.59
		c0.293,0.146,0.787-0.146,1.077,0c0.159,0.08,0.448,0.15,0.783,0.208c0.007,0.001,0.011-0.001,0.017,0
		c1.594,0.853,3.043,1.757,4.258,2.973c0.094,0.092,1.213,1.748,1.407,1.65c0.78-0.391,0.209-2.267,0.209-2.973
		c0-0.617,0.108-1.332-0.296-1.736c-0.164-0.165-0.412-0.329-0.695-0.471c0.022-0.29,0.033-0.55,0.122-0.729
		c0.173-0.347,0.796-2.506,0.782-2.521c-0.127-0.127-0.412-0.099-0.539-0.226c-0.693-0.695-1.879-1.088-2.971-1.634
		c-0.731-0.364-2.217-0.114-2.746-0.643c-0.106-0.107-0.463-0.135-0.869-0.139c-0.611-0.252-1.136-0.418-1.408-0.418
		c-0.557,0-2.852-0.662-3.18-0.99c-0.293-0.292-1.748-0.427-1.86-0.538c-0.103-0.105-0.179-0.272-0.26-0.434
		c-2.028-0.983-3.984-2.064-5.63-3.649c-0.478-0.461-0.678-1.529-1.112-1.947C356.322,1218.676,356.255,1218.645,356.183,1218.639
		L356.183,1218.639z"/>
	
		<path id="path10385" inkscape:connector-curvature="0" inkscape:export-xdpi="63.81599" inkscape:export-filename="/home/substack/media/vector/browserify.png" inkscape:export-ydpi="63.81599" fill="#E6B35A" stroke="#FFFFFF" stroke-width="1.1129" stroke-opacity="0" d="
		M372.286,1230.03c-0.021,0.325-0.391,0.955-0.063,0.977C372.547,1231.028,372.203,1229.716,372.286,1230.03
		c0.272,1.043,0.086,1.555,0.25,2.174c0.104,0.398,0.808,0.641,0.913,1.04c0.062,0.239,0.804,0.337,0.944,0.552
		c0.429,0.656,2.023,1.615,2.202,2.302c0.043,0.157,0.187,0.551,0.269,0.41c0.259-0.442,0.837-5.31,0.903-6.316
		c0.109-1.69,2.203-6.842,1.976-7.715c-0.104-0.396-0.499-0.761-0.804-1.229c-1.083-1.661-6.117-1.982-5.434,0.625
		c0.271,1.033-0.006,2.498,0.831,3.781c0.67,1.027,2.781,0.357,2.441,0.16c-0.2-0.117-0.2,0.454-0.142,0.677
		c0.063,0.242-0.744,1.271-0.884,1.511c-0.586,1.005-0.946,2.254-1.136,2.378c-0.244,0.159-0.693,0.608-0.441,0.756
		C374.805,1231.501,372.916,1230.398,372.286,1230.03L372.286,1230.03z"/>
	
		<path id="path10996" inkscape:connector-curvature="0" inkscape:export-xdpi="63.81599" inkscape:export-filename="/home/substack/media/vector/browserify.png" inkscape:export-ydpi="63.81599" fill="#E6B35A" stroke="#FFFFFF" stroke-width="1.1103" stroke-opacity="0" d="
		M401.691,1220.012c-0.275,0.028-1.473,1.299-1.93,1.755c-2.092,2.092-4.438,3.836-6.55,5.909c-1.246,0.316-2.66,0.798-3.251,1.39
		c-0.561,0.561-1.146,1.25-1.771,1.877c-0.432,0.43-0.828,2.895-1.077,3.145c-0.389,0.389-0.809,1.279-1.287,1.756
		c-0.273,0.273-0.582,0.57-0.868,0.852c-0.069,0.025-0.14,0.063-0.209,0.087c-0.858,0.286-1.857,0.834-2.711,0.834
		c-0.161,0-1.599,0.118-1.599,0.139c0,0.056,0.67,0.091,0.765,0.14c0.31,0.154,1.49,0.047,2.346,0.19
		c-0.984,0.958-1.966,1.931-2.919,2.885c-0.08,0.08-0.221,0.399-0.348,0.765c-0.4,0.182-0.749,0.33-0.886,0.33
		c0,0-2.364,0.729-2.434,0.765c-0.037,0.019-0.086,0.022-0.139,0.017c-0.311,0.126-0.558,0.262-0.834,0.4
		c-0.086,0.043-0.277-0.025-0.277,0.069c0,0.093,1.237,0.07,1.389,0.07c0.491,0,1.05,0.003,1.461,0.209
		c0.039,0.019,0.584-0.063,1.181-0.157c-0.063,0.351-0.091,0.879,0,1.06c0.195,0.393,0.476,0.513,0.782,0.505
		c-0.062,0.093-0.114,0.184-0.139,0.243c0.004,0.029-0.005,0.058,0,0.087c0.096,0.059,0.57,0,0.678,0h0.557
		c0.045,0,0.139-0.048,0.139,0c0,0.053-0.178,0.038-0.209,0.068c-0.271,0.271-0.656,0.529-1.008,0.818
		c0.394,1.971-0.15,4.15,0.243,6.117c0.808,4.04,1.316,10.66,0,14.612c-0.169,0.506-0.091,2.264-0.452,2.624
		c-0.009,0.01-0.633,0.688-0.452,0.869c0.394-0.426,2.048-1.259,2.538-1.077c-0.306,0.221-0.484,0.511-0.313,0.851
		c0.021,0.042-0.031,0.177,0,0.209c0.312,0.312,0.484,0.66,0.974,0.904c0.287,0.143,1.701,0.38,1.877,0.557
		c0.343,0.343,0.822,0.475,1.25,0.903c0.084,0.083,0.195,0.334,0.279,0.416c0.251,0.253,0.788,0.396,0.973,0.766
		c0.157,0.315,0.471,0.733,0.695,1.181c0.311,0.622,0.583,2.462,1.042,2.92c0.586,0.586,1.062,1.409,1.53,1.877
		c0.244,0.245,0.74,0.324,0.973,0.557c0.187,0.188,1.197,0.154,1.999,0.174c0.368,0.339,1.089,0.68,1.477,0.938
		c0.416,0.277,0.754,0.637,1.181,0.921c0.521,0.347,1.157,1.688,1.426,2.226c0.061,0.122,1.3,1.657,1.32,1.667
		c0.313,0.156,0.636,0.393,0.887,0.643c0.221,0.222,1.178,0.948,1.616,0.73c0.163-0.08,0.49-0.093,0.591-0.19
		c0.379-0.381,0.692-0.871,0.99-1.355c0.574-0.523,1.558-1.144,2.241-1.6c2.188-1.459,4.061-3.496,6.118-5.039
		c1.854-1.392,3.959-2.414,5.891-3.701c1.639-1.093,3.294-3.185,4.813-3.945c0.095-0.047,0.218-0.09,0.348-0.139
		c0.13,0.113,0.245,0.238,0.347,0.365c0.524,1.283,0.729,3.719,0.729,4.831c0,0.248,0.062,0.704-0.069,0.834
		c-0.128,0.127,0.059,0.567-0.069,0.694c-0.104,0.104,0.035,0.453-0.069,0.557c-0.081,0.081-0.014,1.333-0.139,1.46
		c-0.174,0.172-0.952-1.899-2.086-0.765c-0.863,0.862-0.911,2.703,0,3.614c0.294,0.293,0.548,0.14,0.904,0.14
		c0.986,0,1.449-1.104,1.877-1.53c0.127-0.128-0.06-0.567,0.069-0.694c0.139-0.14-0.139-0.695,0-0.834
		c0.238-0.239,0.278-1.116,0.278-1.529c0-0.532,0.138-2.362,0.348-2.781c0.069-0.139,0.062-0.305,0.052-0.486
		c0.003,0.002,0.015,0,0.018,0c0.033,0,0.208-1.036,0.208-1.182c0-1.114,0.113-2.312,0.14-3.492
		c0.358-0.697,0.174-4.915,0.174-5.388c0-1.639,0.834-5.056,0.208-5.682c-1.389-1.388-13.905,0.129-17.1,0.226
		c0.059,0.052,0.15,0.134,0.26,0.226h1.564c0.096,0,0.312,0.02,0.592,0.069c0.008,0.006,0.008,0.012,0.018,0.018
		c0.94,0.7,4.09,2.022,4.622,2.555c0.84,0.84,1.481,1.761,2.225,2.503c0.065,0.065,0.105,0.141,0.139,0.226
		c-0.013,0.008-0.021,0.025-0.034,0.034c-1.01,0.156-2.28,0.506-2.485,0.608c-1.003,0.501-2.629,0.723-3.928,1.372
		c-0.853,0.427-1.782,1.452-2.624,2.207c0.601,1.566,1.93,3.894,1.98,3.894c0.009,0-0.712-0.712-1.389-1.391
		c-0.375-0.373-0.837-1.322-1.253-1.529c-0.07-0.036-0.253-0.097-0.468-0.156c-0.304,0.162-0.678,0.401-1.096,0.695
		c0.062,0.103,0.155,0.258,0.175,0.296c0.504,1.008,1.4,1.69,1.946,2.78c0.992,1.988,1.281,2.479-0.279,0.139
		c-0.286-0.431-0.429-0.708-0.834-1.113c-0.341-0.34-0.617-0.756-0.973-1.111c-0.198-0.197-0.394-0.395-0.592-0.592
		c-1.067,0.809-2.18,1.823-2.554,2.572c-0.312,0.624-0.812,1.49-1.285,1.964c-0.714,0.714-1.3,1.346-1.756,2.26
		c-0.078,0.155-0.122,0.365-0.122,0.607c-0.079,0.081-0.166,0.163-0.242,0.244c-0.251-0.191-0.495-0.354-0.747-0.556
		c-0.013-0.069-0.034-0.14,0.017-0.244c0.238-0.477-0.095-1.537-0.382-1.824c-0.044-0.043-0.199-0.153-0.243-0.243
		c-0.284-0.568-1.252-0.747-1.634-1.13c-0.053-0.052,0.31-0.466,0.348-0.539c0.031-0.063,0.107-0.211,0.157-0.261
		c-0.103-0.013-0.6-0.256-0.644-0.278c-0.079-0.038-0.212-0.023-0.296-0.051c-0.281-0.095-0.397-0.33-0.644-0.453
		c-0.378-0.189-0.796-0.346-1.181-0.537c-1.149-0.576-2.565-1.383-3.441-2.26c-0.13-0.129-0.472-0.176-0.591-0.295
		c-0.09-0.089-0.438-0.214-0.816-0.331c-0.951-0.77-1.777-1.466-2.346-2.051c0.038-0.104,0.104-0.293,0.12-0.329
		c0.474-0.947,1.366-1.531,1.772-2.347c0.199-0.398-0.855-1.418-1.181-2.068c-0.126-0.25,0-0.896,0-1.182
		c0-0.645,0.297-5.305,0.452-6.203c-0.278-0.041-0.671-0.498-0.852-0.679c-0.331-0.329-0.791-0.494-1.182-0.885
		c-0.215-0.215-0.303-0.708-0.487-1.078c-1.261-2.523-1.179-5.864,0.227-7.072c0.035-0.077,0.09-0.199,0.104-0.227
		c0.343-0.688,1.281-1.003,1.737-1.46c0.094-0.094,0.383-0.104,0.486-0.208c0.194-0.194,0.994-0.069,0.973-0.069
		c-0.727,0-1.528-1.044-1.528-1.807c0-0.794,0.227-1.251,0.695-1.738c0.371,0.029,0.729,0.067,0.851,0.191
		c0.025,0.025,0.493,0.497,0.592,0.399c0.12-0.12,0.046-0.551,0.19-0.695c0.377-0.376,0.802-1.185,1.183-1.564l4.917-4.918
		c0.519-0.52,3.813-0.771,4.032-0.99c0.444-0.444-0.727-2.716,0.087-3.527c0.889-0.889,2.712-1.739,3.927-2.954
		c0.022-0.022,0.059-0.048,0.087-0.069c0.516,0.324,0.953,0.711,1.095,0.852c2.35,2.35,7.827,3.883,10.479,6.535
		c0.46,0.459,1.643,0.356,2.173,0.885c0.233,0.233-1.055,2.126-1.304,2.624c-0.082,0.164-0.139,2.442-0.174,4.483
		c-0.05,0.002-0.105,0.013-0.156,0.018c-0.139,0.631-0.297,1.336-0.174,1.581c0.307,0.615,0.278,1.375,0.278,2.086
		c-0.134-0.226-0.278-0.457-0.278-0.696c0-0.706-0.271-2.218-0.644-2.919c-0.349,0.017-0.66,0.013-0.851-0.052
		c-0.197-0.064-0.688-0.118-1.304-0.174c-0.119,0.299-0.044,2.824-0.208,4.31c0.038,0.293,0.051,0.575-0.053,0.782
		c-0.008,0.015-0.302,0.464-0.139,0.139c0.088-0.176,0.146-0.521,0.191-0.921c-0.061-0.433-0.191-0.89-0.191-1.165
		c0-0.96-0.346-2.321-0.748-3.231c-2.057-0.121-4.675-0.156-5.125,0.07c-0.935,0.467-1.508,1.344-2.364,1.771
		c-0.367,0.184-1.551-0.19-2.05-0.19c-1.202,0-5.619,0.689-7.107,1.477c-1.188-0.181-2.502,0.662-3.424,0.869
		c-0.695-0.266-1.428-0.534-2.155-0.521c-0.318,0.005-0.631,0.064-0.938,0.209c-0.546,0.018-1.031,0.092-1.251,0.312
		c-0.143,0.141-0.511,0.372-0.624,0.487c-0.06,0.057-0.101,0.158-0.14,0.26l0.052,0.052c-0.449,0.393-0.854,0.861-1.025,1.373
		c-0.205,0.61-0.208,1.264-0.208,1.963c0,1.213,0.969,2.039,1.58,2.955c0.61,0.914,1.214,1.58,2.156,2.051
		c0.657,0.329,2.062-0.139,2.554-0.384c0.599-0.298,1.291-0.55,1.964-0.886c0.89-0.445,1.161-1.418,1.424-2.293
		c0.309-0.464,0.493-1.483,0.557-1.546c0.164-0.165,0.288-0.356,0.435-0.556c0.894-0.098,1.626-0.161,1.895-0.176
		c-0.317,1.005-0.82,2.048-0.766,2.103c0.13,0.129,1.269-0.764,1.374-0.867c0.422-0.424,1.967-0.739,2.745-1.165
		c0.124-0.021,0.242-0.052,0.348-0.104c0.244-0.123,0.609-0.069,0.903-0.069c0.18,0,0.332,0.006,0.486,0.017
		c0.006,0,0.013,0,0.019,0c0.497,0.118,1.027,0.27,1.512,0.383c0.416,0.188,0.812,0.422,1.355,0.695
		c2.521-0.249,5.001-0.521,6.984-0.521c2.829,0,5.447-0.659,8.308-0.659h3.718c0.23,0,0.661,0.455,0.661,0.225v-7.454
		c-0.215-0.215-0.412-0.415-0.522-0.47c-0.287-0.144-0.208-0.079-0.208-0.486c0-0.787,0.32-1.269,0.73-1.703v-0.156v-0.174
		c0.055-0.045,0.115-0.093,0.173-0.122c0.183-0.092,0.519-0.102,0.627-0.208c0.062-0.063-0.348-0.451-0.348-0.557
		c0-0.168-0.206-0.413-0.279-0.486c-0.022-0.022-0.434-2.19-0.417-2.224c0.315-0.631,0.434-2.52,0.835-2.92
		c0.245-0.245,0.33-0.817,0.557-1.042c0.324-0.327,0.583-0.726,0.903-1.045c0.03-0.028,0.277-0.179,0.277-0.208
		c0-0.124-1.062,0.566-1.181,0.626c-0.609,0.305-1.169,0.775-1.6,1.286c-0.002,0.003-0.015-0.003-0.018,0
		c-0.209,0.104-0.395,0.222-0.521,0.349c-0.017,0.014-0.646,0.812-0.679,0.781c-0.054-0.053,0.225-1.339,0-1.564
		c-0.838-0.839-2.022-0.781-3.353-0.781c-0.089,0,0.146-0.645,0.19-1.442c-0.215-0.097-0.435-0.191-0.643-0.296
		c-3.008-1.504-5.928-3.138-9.158-3.944c-1.968-0.492-4.06-2.174-5.699-3.267c-1.402-0.934-3.48-0.873-4.571-1.964
		C401.716,1220.019,401.71,1220.01,401.691,1220.012L401.691,1220.012z M397.539,1274.767c0.01,0.002,0.034,0.005,0.034,0
		C397.573,1274.734,397.559,1274.745,397.539,1274.767z M417.019,1246.147c0.043,0.074,0.087,0.157,0.121,0.226
		c0.003,0.007,0,0.07,0,0.122c0.072,0.16,0.128,0.296,0,0.296c-0.008,0-0.002-0.173,0-0.296
		C417.086,1246.378,417.035,1246.251,417.019,1246.147z M391.664,1247.573c1.782-0.073,2.58,3.449,1.634,4.396
		c-0.301,0.301-1.67,1.527-2.154,1.285c-0.333-0.166-0.802-0.228-1.078-0.504c-0.767-0.768-1.841-2.125-1.181-3.441
		c0.629-1.258,1.34-1.505,1.963-1.459C391.141,1247.675,391.409,1247.582,391.664,1247.573z"/>
	
		<path id="path11433" inkscape:connector-curvature="0" inkscape:export-xdpi="63.81599" inkscape:export-filename="/home/substack/media/vector/browserify.png" inkscape:export-ydpi="63.81599" fill="#E6B35A" stroke="#FFFFFF" stroke-opacity="0" d="
		M449.723,1213.043c-0.031-0.03-3.49,1.126-3.929,1.563c-2.413,2.413-11.272,5.453-16.855,6.396c-0.017,0.003-0.035-0.002-0.052,0
		c-0.323-0.323-1.55,0.303-2.155,0c-0.313-0.157-0.614-0.055-0.886-0.19c-0.957-0.479-2.226-0.749-2.954-1.478
		c-0.229-0.229-0.718-0.127-0.99-0.399c-0.401-0.4-0.169-1.142-0.487-1.46c-0.376-0.376-0.858-0.685-1.269-1.096
		c-0.214-0.212-0.887-0.501-1.095-0.087c-0.428,0.857,0.935,1.717,1.478,2.26c0.56,0.56,1.348,1.065,2.172,1.478
		c0.462,0.23,1.006,0.624,1.269,0.886c0.066,0.067,0.161,0.111,0.261,0.139c0.004,0.002,0.013-0.001,0.018,0
		c0.801,0.889,10.125,1.42,10.53,1.825c0.153,0.153,0,1.323,0,1.563c0,1.072-0.743,7.813-1.164,8.654
		c-1.355,2.713,0.933,27.518,1.563,30.671c0.461,2.306,0.502,4.932,0.087,7.438c0,0.007,0.002,0.013,0,0.018
		c-0.067,0.143-0.137,0.293-0.19,0.452c-0.548,1.643-2.396,4.047-4.031,4.865c-0.818,0.409-1.444,1.232-1.687,1.478
		c0.529-0.118,2.661-0.226,2.938-0.226c0.139,0,0.276-0.001,0.416,0c-0.332,0.467-0.683,0.909-1.077,1.303
		c-0.899,0.899-1.634,1.877-2.241,2.746c-0.188,0.193-0.452,0.452-0.607,0.607c-0.318,0.317-0.35,0.731-0.591,0.974
		c-0.044,0.043,0.017,0.209,0,0.278c-0.002,0.004,0.001,0.015,0,0.018c-0.308,0.538-0.49,0.888-0.486,0.886
		c0.079-0.079,0.169-0.19,0.26-0.313c-0.199,0.565-0.34,1.182-0.644,1.79c-0.189,0.38-0.072,0.965-0.208,1.374
		c-0.349,1.043-0.296,2.193-0.296,3.354c0,0.192,0.088,0.746,0.208,0.867c0.013,0.013,0.029,0.038,0.054,0.054
		c-0.142-0.348,0.139-2.594,0.139-2.988c0-0.495,0.609-2.403,0.974-2.763c0.271-0.273,0.084-0.956,0.398-1.27
		c0.281-0.282,0.264-0.752,0.592-1.077c0.925-0.929,1.649-2.286,3.388-2.521c1.271-1.133,3.146-2.225,4.97-3.215
		c0.8,0.019,1.601,0.035,2.399,0.035c1.515,0,3.378-0.298,4.864,0c0.869,0.173,1.884,0.278,2.781,0.278
		c0.281,0,4.105,0.22,5.387,0.347c-0.291-0.08-0.62-0.188-0.66-0.208c-1.013-0.505-2.22-0.889-3.337-1.112
		c-1.293-0.258-3.392-0.855-5.161-1.478c0.564-0.015,1.123-0.027,1.198-0.104c0.103-0.102-1.482-0.188-1.996-0.191
		c-0.534-0.204-1.025-0.398-1.409-0.591c-0.144-0.072-0.444-0.25-0.677-0.383c0.199-0.166,0.378-0.344,0.538-0.504
		c2.686-2.686,2.104-14.285,6.292-18.472c0.875-0.876-1.036-3.397-1.184-3.544c-0.059-0.062-0.094-0.226-0.103-0.436
		c-1.101-1.039-4.311-3.409-4.311-3.493c0-0.064,0.562,0.42,1.112,0.694c1.087,0.545,2.385,1.135,3.059,1.809
		c0.007,0.006,0.1,0.015,0.173,0.018c0.03-0.391,0.069-0.812,0.069-0.956c0-1.583-0.022-3.465,0.018-5.405
		c-0.781,0.023-1.571,0.088-2.067,0.088c-0.688,0-1.39,0.147-1.39,0.139c0-0.212,0.854-0.219,0.973-0.277
		c0.652-0.327,1.679-0.791,2.521-0.921c0.009-0.293,0.002-0.577,0.016-0.87c-0.011-0.004-0.023-0.012-0.033-0.017
		c-0.482-0.241-0.8-0.417-1.392-0.417c-0.786,0,0.447-0.39,1.494-0.678c0.152-2.234,0.451-4.413,1.045-6.187
		c0.391-1.177-0.303-2.722,0-3.927c0.927-3.713,0.027-7.634,0.781-11.4c0.297-1.488,0.799-3.235,0.799-4.727
		C449.34,1214.339,450.194,1213.516,449.723,1213.043L449.723,1213.043z M452.972,1278.556c0.24,0.067,0.452,0.114,0.452,0.07
		C453.424,1278.61,453.229,1278.582,452.972,1278.556z M429.321,1278.034c-0.038,0.013-0.087,0.023-0.087,0.035
		C429.234,1278.107,429.27,1278.082,429.321,1278.034z M427.097,1291.744c0.009,0.013,0.007,0.036,0.018,0.036
		C427.137,1291.78,427.122,1291.766,427.097,1291.744z"/>
	
		<path id="path11435" inkscape:connector-curvature="0" inkscape:export-xdpi="63.81599" inkscape:export-filename="/home/substack/media/vector/browserify.png" inkscape:export-ydpi="63.81599" fill="#E6B35A" stroke="#FFFFFF" stroke-opacity="0" d="
		M459.939,1217.022c-5.843,0.113-11.731,1.795-13.937,5.145c-0.001,0.109-0.014,0.233-0.017,0.348l1.773,0.364
		c-0.579-0.116-1.307,0.044-1.791-0.243c-0.085,2.368-0.423,5.484-0.175,5.735c0.444,0.442,0.888-0.384,1.184-0.384
		c1.04,0,2.846-0.821,3.927-1.181c1.8-0.601,9.055-0.439,10.513,0.713c0.312-0.592,0.725-1.215,1.286-1.495
		c0.193-0.097,0.586-0.396,0.868-0.47c0.091-0.074,0.162-0.121,0.208-0.121c0.067,0-0.021,0.087-0.085,0.087
		c-0.036,0-0.083,0.024-0.123,0.034c-0.503,0.415-1.516,1.786-1.354,1.946c0.055,0.055,0.848-0.208,1.076-0.208
		c0.093,0,0.176,0.011,0.262,0.018c0.195-0.05,0.376-0.076,0.434-0.018c0.01,0.009,0.014,0.022,0.018,0.034
		c0.112-0.013,0.225-0.034,0.365-0.034c0.413,0,0.73,0.048,0.973,0.278c0.007,0.006,0.012,0.011,0.018,0.018
		c0.063,0.003,0.126,0,0.191,0c0.134,0,0.328,0.061,0.521,0.139c0.223,0.01,0.433,0.033,0.556,0.156
		c0.082,0.081,0.214,0.109,0.296,0.191c0.023,0.023-0.034,0.107-0.069,0.121c0.051,0.041,0.248,0.383,0.175,0.383
		c-0.111,0-0.367-0.176-0.401-0.208c-0.378-0.378-2.239,0.292-2.346,0.398c-0.058,0.059-0.108,0.116-0.155,0.175
		c0.091,0.166,0.096,0.461,0.242,0.607c0.004,0.004,0.046,0.045,0.052,0.051c-0.476,0.158-0.861,0.42-1.024,0.749
		c-0.133,0.265-0.208,1.651,0,1.86c0.008,0.008,1.565,0.354,1.79,0.38c-0.029,0.132-0.064,0.256-0.123,0.314
		c-0.053,0.052-0.41,0.771-0.295,0.886c0.312,0.312,0.494,0.686,0.887,1.077c0.549,0.549,2.069,0.502,3.023,0.47
		c0.001,0.003,0.018,0.015,0.018,0.017c0,0.436-2.477,0.192-2.555,0.192c-0.115,0-1.156-0.246-1.078-0.087
		c0.319,0.638,0.836,1.036,1.495,1.406c0.543-0.014,1.06-0.034,1.252,0.157c0.501,0.502,1.331,0.399,2.363,0.399
		c4.197,0,5.799-2.562,7.472-5.907c0.743-1.488-0.317-3.781-0.782-4.71c-1.249-2.499-2.102-4.447-3.944-6.291
		C470.521,1218.114,465.257,1216.92,459.939,1217.022L459.939,1217.022z M445.969,1222.636c0.001-0.041,0.015-0.081,0.018-0.121
		l-0.192-0.035C445.85,1222.535,445.904,1222.598,445.969,1222.636L445.969,1222.636z M445.794,1222.479
		c0.062-0.108,0.139-0.208,0.209-0.312c0.03-1.5-0.098-2.562-0.607-2.051c-0.293,0.292,0.398,0.395,0.398,0.799
		C445.794,1221.44,445.424,1222.108,445.794,1222.479z"/>
	
		<path id="path12259" inkscape:connector-curvature="0" inkscape:export-xdpi="63.81599" inkscape:export-filename="/home/substack/media/vector/browserify.png" inkscape:export-ydpi="63.81599" fill="#E6B35A" stroke="#FFFFFF" stroke-opacity="0" d="
		M495.737,1210.627c-1.435,0.732-2.948,1.651-3.388,2.226c-0.921,1.198-3.296,2.322-3.927,4.152
		c-3.605,10.429-6.098,17.191-15.676,23.669c-1.467,0.991-3.724,0.208-5.214,0.955c1.402,0.169,6.636,0.743,7.525-0.417
		c0.645-0.841,3.611-2.758,5.96-4.257c-0.272,1.248-0.106,2.551,0.956,3.614c0.099,0.099,0.491-0.099,0.59,0
		c0.135,0.134,0.289,0.211,0.471,0.243c-0.195,1.073-0.364,2.041-0.486,2.416c-2.939,9.041,3.493,1.947,2.153,5.821
		c-0.361,1.044,0.241,2.392-0.103,3.388c-1.438,4.535-0.252,9.495-0.141,14.632c-0.798,1.042-1.053,8.854-1.686,9.68
		c-0.293,0.383-0.881,0.825-1.232,1.285c-0.654,0.852-1.812,1.758-3.059,2.363c-0.888,0.432-6.396,7.374-7.525,8.846
		c-0.257,0.335-1.574,2.026-1.407,2.154c0.264,0.204,2.659-2.438,3.249-2.953c1.079-0.945,3.238-2.105,5.127-3.303
		c0.562-0.147,1.12-0.474,1.251-0.643c0.17-0.221,0.77-0.093,0.939-0.312c0.37-0.484,1.325-0.603,1.65-1.025
		c0.55-0.718,1.068-1.527,1.303-2.571c0.143-0.09,0.317-0.174,0.47-0.262c0.467-0.797,1.566-1.731,1.771-1.998
		c0.27-0.351,1.382-0.466,1.65-0.816c0.524-0.683,2.012-0.99,2.572-1.721c0.039-0.052,1.39-0.489,3.094-0.99
		c0.513,0.08,1.086-0.096,1.737-0.486c0.423-0.119,0.828-0.232,1.252-0.348c0.402,0.035,0.786,0.134,1.009,0.104
		c0.201-0.026,3.239,0.499,3.249,0.573c0.009,0.074-0.622-0.648-0.679-0.73c-0.523-0.776-1.31-1.609-1.912-2.502
		c-0.371-0.55-0.839-1.077-1.216-1.634c-0.177-0.261-0.233-0.585-0.294-0.922c0.104-0.936,0.229-2.044,0.417-3.578
		c0.035-0.307,0.057-0.557,0.086-0.834c-1.728-0.039-4.675,0.03-4.675-0.279c0-0.131,0.268,0,0.4,0c0.537,0,2.685-0.09,4.327-0.242
		c0.155-1.716,0.158-2.914,0.139-3.979c-2.041-0.011-5.058,0.021-5.058-0.313c0-0.185,2.96-0.108,5.058-0.104
		c-0.011-0.523-0.029-1.044-0.018-1.598c-1.449-0.047-3.262-0.053-3.666-0.053c-1.375,0,1.551-0.655,3.718-1.06
		c0.022-0.331,0.06-0.679,0.104-1.061c0.115-1.011-0.189-2.057-0.122-3.075c0.139-2.083,0.713-4.198,0.854-6.274
		c0.197-3-0.038-6.013,0.12-9.054c0.259,0.047,0.54,0.047,0.886,0c0.244-0.031,0.653,0.296,0.8,0.105
		c0.423-0.552,0.966-1.03,1.392-1.582c0.044-0.06-0.041-4.583-0.227-4.726c-0.667-0.513-1.72-3.637-1.252-4.987
		c0.348-1.011,0.756-7.747,0.591-9.003c-0.103-0.783-0.042-2.853-0.625-3.3c-0.064-0.051-0.13-0.069-0.192-0.106
		c-0.003-0.001,0.003-0.015,0-0.017c-0.023-0.328-0.039-0.673-0.034-0.974c-0.004-0.004,0.004-0.013,0-0.017
		c-0.103-0.146-0.223-0.272-0.365-0.382c-0.791-0.608-1.27-1.278-2.397-1.67C495.937,1210.664,495.826,1210.641,495.737,1210.627
		L495.737,1210.627z"/>
	
		<path id="path12302" inkscape:connector-curvature="0" inkscape:export-xdpi="63.81599" inkscape:export-filename="/home/substack/media/vector/browserify.png" inkscape:export-ydpi="63.81599" fill="#6488C5" stroke="#FFFFFF" stroke-opacity="0" d="
		M495.909,1207.894c-5.401-0.08-8.745-6.292-5.855-14.653c0.278-0.81,2.812-3.787,2.871-3.743c0.124,0.096-2.134,4.768-1.072,4.629
		c0.1-0.014,1.54-3.947,2.415-5.087c0.709-0.925,5.332-9.289,4.592-9.857c-0.246-0.188-0.261,4.828-0.21,4.795
		c0.625-0.424,3.591-6.803,3.394-8.3c-0.082-0.623-0.022-2.231,0.223-2.553c0.055-0.069-0.189-1.097-0.143-1.104
		c0.188-0.023,0.296,4.38,0.306,4.447c0.437,3.336,0.255,8.383-1.799,9.772c-0.849,0.571-1.829,3.148-1.916,2.494
		c-0.073-0.559,1.274-0.045,1.619-0.492c0.233-0.308,2.362-2.555,2.465-2.568c0.291-0.038-0.205,0.572-0.166,0.863
		c0.259,1.967-4.905,7.479-4.737,8.755c0.032,0.243,4.189-2.262,4.194-2.234c0.149,1.138-1.327,3.344-1.974,4.187
		c-0.362,0.472-0.845,2.111-0.921,1.523c-0.011-0.071,1.571-0.109,1.653-0.218c0.119-0.155,1.698-1.669,2.061-1.393
		c0.792,0.608,0.016,3.854-0.522,4.556c-0.309,0.4-1.076,0.433-1.306,0.732c-0.08,0.104-0.223,0.442-0.24,0.312
		c-0.078-0.59,4.795-1.082,3.213,0.979C502.447,1205.831,498.835,1206.898,495.909,1207.894z"/>
	
		<path id="path12304" inkscape:connector-curvature="0" inkscape:export-xdpi="63.81599" inkscape:export-filename="/home/substack/media/vector/browserify.png" inkscape:export-ydpi="63.81599" fill="#C8DCEB" stroke="#FFFFFF" stroke-opacity="0" d="
		M494.076,1206.054c-0.265-0.052-0.846,0.113-0.796-0.152C493.33,1205.637,494.279,1206.232,494.076,1206.054
		c-0.179-0.161-1.02-0.165-1.2-0.326c-0.337-0.303-0.642-0.758-1.048-1.121c-0.199-0.178,0.07-0.937-0.068-1.178
		c-0.768-1.338-2.481-5.154-1.168-6.628c0.292-0.328,0.032-1.774,0.291-1.79c0.178-0.01,0.746,1.784,0.898,1.918
		c0.021,0.02,0.57-0.013,0.588-0.033c0.247-0.276,0.201-1.271,0.499-1.604c0.982-1.103,1.495-2.931,2.521-4.084
		c1.201-1.347,1.196-3.011,2.131-4.06c0.086-0.099-0.154-0.385-0.023-0.393c0.094-0.006-0.477,1.555-0.499,1.604
		c-0.413,0.964-1.55,3.874-1.517,4.42c0.013,0.22-0.196,0.57-0.162,0.6c0.42,0.376,1.99-2.28,2.426-2.305
		c0.046-0.003-0.809,1.436-0.892,1.626c-0.208,0.483-2.397,5.87-1.796,6.405c0.099,0.09,2.807-2.553,2.819-2.328
		c0.025,0.446-2.012,4.725-1.474,5.204c0.188,0.166,3.71-2.28,4.021-2.003c0.219,0.194-2.337,2.572-2.001,2.873
		c0.446,0.396,1.643-0.212,2.182,0.268c1.198,1.068-3.542,3.156-4.542,3.215C495.728,1206.352,494.381,1206.096,494.076,1206.054
		L494.076,1206.054z"/>
	
		<path id="path12348" inkscape:connector-curvature="0" inkscape:export-xdpi="63.81599" inkscape:export-filename="/home/substack/media/vector/browserify.png" inkscape:export-ydpi="63.81599" fill="#E6B35A" stroke="#FFFFFF" stroke-opacity="0" d="
		M538.399,1173.735c-1.765,0.023-3.635,0.484-5.996,1.217c-0.015,0.005-0.037-0.005-0.052,0c-3.441,0.419-7.297,1.308-9.836,2.92
		c-1.039,0.177-2.753,1.246-4.083,2.362c-0.029,0.025-0.058,0.045-0.087,0.07c-0.331,0.235-0.74,0.573-1.39,1.008
		c-0.317,0.211-0.403,0.64-0.696,0.834c-3.351,2.233-4.527,6.295-5.421,9.87c-0.163,0.646,0.068,1.462-0.139,2.086
		c-0.239,0.711-0.254,2.159,0,2.918c0.215,0.651,0.481,1.31,0.694,1.947c0.303,0.907,0.459,1.611,0.834,2.363
		c0.05,0.101,0.697,0.834,0.557,0.834c-0.117,0,0.533-0.08,0.694,0c0.166,0.083,0.424,0.131,0.557,0
		c0.39-0.39,0.044-1.162-0.139-1.529c-0.217-0.432-1.091,0.161-1.252,0c-0.114-0.113-1.807-5.84-1.112-6.533
		c0.348-0.348-0.069-1.461,0.278-1.808c0.582-0.582,0.905-3.824,1.668-4.588c0.848-0.847,1.299-1.854,2.085-2.641
		c0.497-0.496,0.942-0.832,1.374-1.165c0.093,0.403,0.107,0.838,0.435,1.165c0.872,0.873,3.141-0.049,4.499-0.713
		c0.074-0.002,0.153,0.002,0.227,0c-0.199,0.346-0.405,0.7-0.694,0.99c-0.259,0.259-0.353,1.464-0.695,1.807
		c-0.141,0.141-0.387,2.056-0.834,2.503c-0.048,0.047-0.15,0.484-0.278,0.938c0.418,0.375,1.231,1.074,1.772,1.425
		c0.236-0.017,0.451-0.006,0.451,0.139c0,0.121-0.187,0.033-0.451-0.139c-0.203,0.013-0.424,0.049-0.521,0
		c-0.203-0.101-1.456-0.491-1.67-0.277l-0.033,0.033c-0.066,0.231-0.301,1.28-0.486,2.017c0.554,0.515,1.299,1.051,1.494,1.147
		c0.072,0.036,0.348,0.193,0.607,0.329c0.285,0.075,0.504,0.149,0.504,0.227c0,0.027-0.244-0.089-0.504-0.227
		c-0.701-0.182-1.988-0.411-2.763-1.111c-0.006-0.007-0.011-0.012-0.018-0.018c-0.323-0.157-0.7-0.346-1.371-0.677
		c-0.377,1.672-0.526,3.376-0.21,4.952c0.757,3.786-0.644,8.08,0.557,11.678c0.617,1.854,0.908,3.914,1.39,5.839
		c0.8,3.199,2.342,6.194,3.336,9.175c0.598,1.794,0.77,4.423,0.661,6.829c-0.896,0.868-1.698,1.883-2.225,2.937
		c-0.059,0.118-0.098,0.241-0.14,0.365c-2.969-0.007-5.945-0.099-8.915-0.365l-0.782,0.974c-0.065,0-0.146-0.046-0.189,0
		c-0.505,0.504-0.458,3.279,0,3.736c0.504,0.504,3.771-0.191,4.519-0.191c1.789,0,3.874,0.06,5.698-0.261
		c0.481,1.22,1.115,2.08,1.965,2.798c0.064,1.105,0.022,2.189-0.313,3.197c-0.938,2.812-0.451,6.081-1.39,8.897
		c-0.741,2.224-1.729,4.351-2.503,6.673c-0.734,2.205-1.429,5.201-2.78,7.229c-1.532,2.299-3.458,4.689-4.726,7.229
		c-0.885,1.766-2.8,3.087-3.894,4.728c-1.68,2.518-2.784,4.452-4.726,6.394c-1.103,1.103-4.347,5.356-5.006,6.675
		c-0.462,0.921-1.312,1.712-1.373,2.675c0.759-0.733,2.817-2.2,3.32-2.953c2.174-3.262,4.88-4.882,7.506-7.508
		c0.899-0.898,2.691-1.301,3.614-2.224c1.853-1.853,4.157-4.259,7.23-5.282c1.745-0.583,3.638-0.847,5.281-1.669
		c0.929-0.464,4.73-0.281,5.283-0.835c0.223-0.223-0.774-1.173-1.859-2.345c-0.461,0.033-0.891,0.106-1.199,0.26
		c-0.627,0.313-2.469,0.868-2.503,0.835c-0.314-0.316,1.863-1.283,3.042-1.843c-0.725-0.837-1.376-1.72-1.633-2.519
		c-1.088,0.363-2.553,1.195-2.659,1.302c-0.288,0.286-0.694,0.505-1.078,0.767c-0.179,0.238-0.402,0.486-0.591,0.486
		c-0.066,0,0.094-0.093,0.139-0.14c0.133-0.133,0.295-0.24,0.452-0.347c0.108-0.147,0.218-0.322,0.244-0.349
		c0.738-0.739,1.757-1.063,2.501-1.808l0.888-0.887c0.001-0.005-0.002-0.012,0-0.016c0.053-0.232,0.176-0.438,0.365-0.627
		c0.896-0.897,0.181-3.796,1.111-4.727c0.95-0.949,1.013-2.96,1.946-3.893c2.568-2.57,3.349-6.694,5.283-10.566
		c0.545-1.09,0.008-2.798,0.556-3.892c0.346-0.69,0.281-1.581,0.296-2.415c0.519-0.246,1.217-0.54,1.564-0.887
		c1.021-1.023,1.479-2.257,1.51-3.545c2.985-0.189,6.972,0.209,9.106,0.209c0.481,0,1.485-0.097,2.607-0.243
		c0.05,1.493,0.197,2.819,0.486,3.685c0.292,0.877,0.417,2.003,0.417,2.918c0,0.461,0.229,0.979,0.295,1.235
		c0.037-0.254,0.261-1.533,0.261-1.651c0-1.368,0.417-3.08,0.417-4.589c0-0.602,0.026-1.235,0.054-1.876
		c-0.004-0.004,0.001-0.013,0-0.017c-0.065-0.113-0.136-0.218-0.192-0.331c-0.214-0.428-0.728-0.641-1.129-0.852
		c0.359-0.045,0.686-0.096,0.711-0.122c0.179-0.177,0.47-0.139,0.835-0.139c0.155,0,0.394-0.161,0.416-0.14
		c0.286,0.287,0.382,1.354,0.558,1.53c0.215,0.215,2.014-0.659,2.362-0.834c0.689-0.345,3.555-0.218,3.894-0.557
		c0.209-0.21-0.662-0.104-0.696-0.14c-0.349-0.349-1.28-0.292-1.807-0.555c-0.514-0.258-2.841-1.252-3.059-1.252
		c-0.462,0-1.062,0.922-1.252,1.112c-0.032,0.033-0.789-0.144-1.423-0.277c0.163-0.154,0.382-0.351,0.451-0.417
		c0.17-0.172,0.363-0.318,0.556-0.471c-0.044,0.004-0.078-0.002-0.122,0c0.024-2.416-0.173-4.793-1.269-6.619
		c-0.239,0.669-0.594,3.58-0.729,6.672c-4.123,0.015-8.307,0.219-12.512,0.435c-0.499-1.054-1.214-2.053-2.068-2.885
		c-0.853-4.16-2.344-8.391-3.318-10.339c-0.578-1.158-0.525-2.719-1.111-3.894c-3.09-6.176-7.934-12.774-4.172-20.296
		c0.514-1.027,0.34-2.842,1.113-3.615c1.577-1.577,2.677-3.701,5.282-5.004c1.714-0.857,3.509-2.781,5.282-2.781
		c1.055,0,3.196-0.904,4.448-0.277c2.565,1.282,5.112,2.609,6.674,4.17c0.568,0.571,0.686,2.205,1.111,3.059
		c0.913,1.827-0.552,7.791,0.556,10.01c0.145,0.288,0.225,0.616,0.261,0.955c-0.155,0.018-0.309,0.026-0.469,0.035
		c0.519,0.357,0.938,0.714,1.182,0.955c0.042,0.043,0.171,0.016,0.277,0c-0.045,0.025-0.093,0.075-0.139,0.104
		c-0.378,0.083-0.672,0.202-0.694,0.313c-0.606-0.605-1.152-0.851-1.668-0.852c-0.86,0-1.625,0.669-2.363,1.407
		c-1.012,1.011-1.669,3.751-1.669,5.422c0,0.472,0,3.476-0.14,3.614c-0.23,0.232-0.387,2.892-0.694,3.197
		c-0.189,0.189-0.833,1.74-0.833,1.809c0,0.141,0.646-0.949,1.527-1.392c0.606-0.302,1.17-0.794,1.722-1.338
		c0.458-0.386,0.846-0.812,0.921-0.886c1.563-1.563,4.19-3.357,5.838-5.005c1.032-1.032,0.906-2.367,1.531-3.614
		c0.128-0.26-0.132-0.715,0-0.973c0.725-1.454-0.233-2.049-1.374-2.138c1.06-2.173,1.313-5.353,1.79-7.733
		c0.167-0.393-0.038-5.116-1.112-8.341c-1.195-3.583-1.359-8.412-5.005-10.844C543.94,1174.789,541.304,1173.699,538.399,1173.735
		L538.399,1173.735z M549.086,1245.801c-0.004,0.023-0.019,0.156-0.018,0.156C549.121,1245.957,549.11,1245.897,549.086,1245.801z
		 M495.563,1295.62c-0.175,0.17-0.294,0.311-0.294,0.384c0,0.184,0.277-0.094,0.277-0.278
		C495.547,1295.688,495.562,1295.656,495.563,1295.62L495.563,1295.62z M527.868,1231.724c0.055-0.012,0.089-0.015,0.104,0
		c0.329,0.329,1.851,1.221,2.362,1.479c0.611,0.304,1.444,1.131,1.774,1.458c0.025,0.026,0,0.256,0,0.296v2.763
		c0,0.257,0.321,1.434,0.086,1.669c-0.514,0.514-2.01,1.438-2.851,1.859c-0.2,0.1-2.399,1.441-2.554,1.286
		c-0.523-0.524-1.17-1.177-1.86-1.964c-0.316-0.362-1.546-1.443-1.772-1.668c-0.176-0.176,0.051-3.952,0.105-4.432
		c0.864-1.081,2.084-1.291,2.85-1.859C526.227,1232.495,527.476,1231.809,527.868,1231.724z"/>
	
		<path id="path12572" inkscape:connector-curvature="0" inkscape:export-xdpi="63.81599" inkscape:export-filename="/home/substack/media/vector/browserify.png" inkscape:export-ydpi="63.81599" fill="#E6B35A" stroke="#FFFFFF" stroke-opacity="0" d="
		M510.683,1229.709c-2.179,0.865-3.443,3.016-3.928,5.456c-0.409,0.02-0.806,0.07-1.198,0.244c-0.113,0.771-0.232,1.273,0,1.667
		c0.031,0.057,0.436,0.023,0.972-0.052c-0.02,0.451,0.007,0.908,0.035,1.355c-0.428,0.047-0.851,0.138-1.285,0.364
		c0,0.579,0.071,1.46,0.417,1.46c0.015,0,0.604-0.183,1.042-0.312c0.268,1.42,0.796,2.708,1.529,3.648
		c0.391,0.503,1.624,2.237,2.311,1.704c-0.79-1.287-1.525-2.237-2.067-3.771c-0.14-0.396-0.205-1.158-0.226-2.051
		c0.331-0.102,0.881-0.257,0.887-0.261c0.358-0.27,2.641,0.359,2.641-0.207c0-0.357,0.139-1.298,0.139-1.461
		c0-0.286-0.364,0.209-0.556,0.209c-0.243,0-1.374-0.233-1.529,0c-0.287,0.432-0.947,0.568-1.581,0.607
		c0.014-0.527,0.057-1.055,0.104-1.581c1.036-0.178,2.047-0.365,2.312-0.365c0.199,0,1.123,0.218,1.25,0
		c0.195-0.335-0.263-0.041-0.139-0.468c0.074-0.258,0.278-0.428,0.278-0.713c0-0.251-0.27,0.227-0.417,0.227h-2.086
		c-0.338,0-0.703-0.105-1.024-0.175c0.13-0.74,0.306-1.345,0.521-1.667c0.139-0.209-0.034-0.629,0.104-0.836
		C509.886,1231.682,510.143,1230.749,510.683,1229.709L510.683,1229.709z"/>
	
		<path id="path12612" inkscape:connector-curvature="0" inkscape:export-xdpi="63.81599" inkscape:export-filename="/home/substack/media/vector/browserify.png" inkscape:export-ydpi="63.81599" fill="#E6B35A" stroke="#FFFFFF" stroke-opacity="0" d="
		M524.296,1236.847c0.111-0.543,1.097-2.855,1.351-2.816c0.269,0.042,0.728,0.01,1.062-0.046c0.593-0.101,1.101-0.394,1.735-0.295
		c0.028,0.005,2.136,2.919,2.147,2.936c0.006,0.01-0.619,1.297-0.726,1.505c-0.288,0.561-0.407,1.273-0.493,1.823
		c-0.011,0.071-0.84-0.131-0.961-0.149c-0.873-0.135-1.582,0.389-2.362,0.268C526.017,1240.066,524.836,1237.584,524.296,1236.847
		L524.296,1236.847z"/>
	
		<path id="path12745" inkscape:connector-curvature="0" inkscape:export-xdpi="63.81599" inkscape:export-filename="/home/substack/media/vector/browserify.png" inkscape:export-ydpi="63.81599" fill="#E6B35A" stroke="#FFFFFF" stroke-opacity="0" d="
		M561.807,1193.391c-0.02,0-0.012,0.174,0,0.381C561.849,1193.547,561.862,1193.391,561.807,1193.391z M561.807,1193.771
		c-0.057,0.294-0.171,0.729-0.261,1.234c0.077-0.185,0.168-0.36,0.261-0.453C561.848,1194.512,561.822,1194.101,561.807,1193.771z
		 M561.546,1195.006c-0.346,0.827-0.539,2.381-0.539,3.093c0,1.531-2.708,10.609-3.701,11.746c-0.008-0.052-0.032-0.347-0.034-0.347
		c-0.189,0-0.12,0.294-0.123,0.539c-0.64,0.673-1.349,1.668-1.911,2.485c-1.075,1.036-2.202,2.012-3.458,3.268
		c-0.206,0.205-0.873,0.282-1.181,0.589c-0.271,0.271,1.243,4.008,1.372,4.137c0.012,0.011,0.035,0.013,0.052,0.017
		c1.601-0.806,3.87-2.194,3.876-2.188c0.091,0.09-0.878,1.085-0.973,1.182c-0.598,0.598-0.808,1.972-1.392,2.555
		c-0.074,0.073-0.028,0.979,0.036,1.997c1.544,3.57,3.753,7.909,5.543,11.209c1.384,0.265,2.812,0.451,3.18,0.4
		c-0.205,0.134-0.678,0.537-0.694,0.556c-0.138,0.136-0.837,0.055-0.974,0.19c-0.073,0.074-0.336,0.281-0.627,0.487
		c1.063,1.894,1.866,3.194,2.068,3.302c4.364,2.279-4.355,7.765-2.153,8.915c1.901,0.993,12.505,3.049,13.101,4.952
		c0.502,1.598-16.723,23.597-19.166,28.273c-1.02,1.949-10.25,17.248-9.784,18.732c0.027,0.085,2.913-3.785,3.562-4.414
		c3.844-3.71,7.212-5.505,11.104-9.263c2.287-2.206,5.752-3.911,7.386-4.656c-1.599,0.871-3.142,2.536-3.633,3.476
		c-1.22,2.335-4.388,4.248-6.325,6.117c-5.812,5.609-9.483,13.377-12.771,19.67c-0.389,0.746-4.138,7.246-1.408,8.672
		c7.038,3.677,12.699-0.432,16.091-9.158c-1.122,2.15-3.163,2.438-3.805,3.668c-1.204,2.302-9.46,3.39-8.967,0.329
		c1.755-10.899,21.686-29.234,32.81-39.968c1.168-1.129,7.688-5.105,8.062-5.821c0.158-0.304,0.035-0.782,0.018-1.165
		c-1.428,0.936-4.547,2.593-6.029,3.059c-1.523,0.479-14.869,7.77-15.05,7.195c-0.283-0.902,1.094-1.552,1.774-2.208
		c4.615-4.454,8.584-13.657,14.526-19.393c7.687-7.419,13.975-23.101,19.741-33.277c-1.037-0.245-2.128-0.429-1.896-0.661
		c0.159-0.157,1.33-0.219,2.538-0.435c0.28-0.477,0.574-0.96,0.852-1.407c-0.416,0.014-0.778,0.035-0.887,0.035h-1.234
		c0.405-0.074,1.087-0.278,1.096-0.278c0.21,0,0.733-0.036,1.216-0.07c0.506-0.8,1.012-1.542,1.513-2.224
		c-0.988-0.691-2.385,0.209-3.702,0.209c-0.028,0-0.069-0.009-0.104-0.018c-0.114,0.055-0.173,0.072-0.173,0.018
		c0-0.066,0.086-0.039,0.173-0.018c0.344-0.165,1.133-0.679,1.912-0.679c0.445,0,1.645-0.194,2.607-0.45
		c0.045-0.059,0.092-0.119,0.139-0.175c1.502-0.768,4.219-2.169,4.345-2.294c0.449-0.449,2.166-3.167,2.361-3.754
		c0.201-0.6,1.028-1.123,1.392-1.667c0.702-1.057,1.533-2.096,2.086-3.197c0.454-0.912,1.434-4.493,1.807-4.866
		c0.075-0.076,0.969-2.229,0.833-2.363c-0.424-0.423-6.066-0.997-6.95-0.557c-0.428,0.214-2.651,0.973-2.92,0.973
		c-0.138,0-1.528,0.688-1.528,0.835c0,0.067,0.681-0.264,0.694-0.278c0.274-0.272,1.023-0.051,1.251-0.277
		c0.507-0.507,4.253-0.197,4.589,0.139c0.139,0.139,0.417,0.139,0.556,0.277c0.528,0.529-0.259,1.735-0.869,2.485
		c-0.794,0.045-1.564,0.086-2.12,0.261c-5.959,1.87-14.011,1.604-16.786,6.916c-3.452,6.604-2.727,18.421-4.623,22.053
		c-1.412,2.703-4.518,1.094-5.438,0.417c0.176,1.141-1.507,5.647-1.651,5.925c-0.811,1.552-3.753,10.249-4.153,10.375
		c-1.472,0.462-10.897-16.848-13.589-19.637c-0.943-0.978-0.209-6.386-1.355-6.985c-1.854-0.969,0.687-9.282-1.095-8.723
		c-0.904,0.282-2.305,0.582-3.788,0.954c-0.121-0.383-0.262-0.749-0.383-0.991c-0.063-0.127-0.202-1.208-0.33-2.258
		c0.214-0.417,0.414-0.761,0.538-0.886c0.091-0.09,0.227-0.152,0.313-0.244c-0.005,0.092,0.01,0.185,0.069,0.244
		c0.165,0.163,0.427,0.235,0.592,0.399c0.859,0.859,3.572-1.018,3.735-1.182c0.551-0.552-0.833-2.225-0.973-2.363
		c-0.131-0.132,0.131-0.65,0-0.782c-1.175-1.175-0.592-3.896-0.592-5.892c0-1.706,0.192-3.142,0.192-4.536
		C561.407,1195.876,561.471,1195.432,561.546,1195.006L561.546,1195.006z M583.876,1232.906c-0.032-0.202-0.131-0.313-0.295-0.261
		C583.544,1232.657,583.685,1232.765,583.876,1232.906z M586.187,1268.581c0.79-0.518,1.083-0.83,0.261-0.574
		C586.215,1268.08,586.174,1268.308,586.187,1268.581z M558.069,1311.538c0.501-0.957-3.344,0.765-2.778,1.686
		C555.853,1314.145,557.148,1312.101,558.069,1311.538z M600.263,1221.454c0.057-0.014,0.174,0.035,0.243,0.035
		c-0.161,0.027-0.277,0.039-0.277,0C600.229,1221.466,600.243,1221.459,600.263,1221.454z M562.362,1235.65
		c0.021-0.008,0.035-0.01,0.035,0c0,0.019-0.03,0.027-0.069,0.036C562.341,1235.678,562.353,1235.656,562.362,1235.65z"/>
</g>
</svg>
