<?xml version="1.0" encoding="UTF-8" standalone="no"?>
<!-- Created with Inkscape (http://www.inkscape.org/) -->

<svg
   xmlns:dc="http://purl.org/dc/elements/1.1/"
   xmlns:cc="http://creativecommons.org/ns#"
   xmlns:rdf="http://www.w3.org/1999/02/22-rdf-syntax-ns#"
   xmlns:svg="http://www.w3.org/2000/svg"
   xmlns="http://www.w3.org/2000/svg"
   xmlns:sodipodi="http://sodipodi.sourceforge.net/DTD/sodipodi-0.dtd"
   xmlns:inkscape="http://www.inkscape.org/namespaces/inkscape"
   width="3.8339775in"
   height="4.125in"
   viewBox="0 0 345.05798 371.25001"
   id="svg7307"
   version="1.1"
   inkscape:version="0.92.2 5c3e80d, 2017-08-06"
   sodipodi:docname="buffalo-r-hex.svg"
   inkscape:export-filename="/Users/scottmmjackson/Dropbox/buffalo-r-hex.png"
   inkscape:export-xdpi="98.352943"
   inkscape:export-ydpi="98.352943">
  <defs
     id="defs7309" />
  <sodipodi:namedview
     id="base"
     pagecolor="#ffffff"
     bordercolor="#666666"
     borderopacity="1.0"
     inkscape:pageopacity="0.0"
     inkscape:pageshadow="2"
     inkscape:zoom="1.7056273"
     inkscape:cx="120.08184"
     inkscape:cy="156.36192"
     inkscape:document-units="px"
     inkscape:current-layer="layer1"
     showgrid="false"
     units="in"
     fit-margin-top="1"
     fit-margin-bottom="1"
     fit-margin-right="1"
     fit-margin-left="1"
     showguides="true"
     inkscape:guide-bbox="true"
     inkscape:window-width="1920"
     inkscape:window-height="1036"
     inkscape:window-x="-7"
     inkscape:window-y="8"
     inkscape:window-maximized="0">
    <sodipodi:guide
       position="316.53653,275.81346"
       orientation="0,1"
       id="guide8412"
       inkscape:locked="false" />
    <sodipodi:guide
       position="353.01895,96.303404"
       orientation="0,1"
       id="guide8414"
       inkscape:locked="false" />
  </sodipodi:namedview>
  <metadata
     id="metadata7312">
    <rdf:RDF>
      <cc:Work
         rdf:about="">
        <dc:format>image/svg+xml</dc:format>
        <dc:type
           rdf:resource="http://purl.org/dc/dcmitype/StillImage" />
        <dc:title></dc:title>
      </cc:Work>
    </rdf:RDF>
  </metadata>
  <g
     inkscape:label="Artwork"
     inkscape:groupmode="layer"
     id="layer1"
     transform="translate(-31.296681,393.26283)"
     style="display:inline">
    <path
       sodipodi:type="star"
       style="color:#000000;display:inline;overflow:visible;visibility:visible;fill:#002673;fill-opacity:1;fill-rule:nonzero;stroke:#ffffff;stroke-width:25.03716469;stroke-linecap:round;stroke-linejoin:miter;stroke-miterlimit:4;stroke-dasharray:none;stroke-dashoffset:0;stroke-opacity:1;marker:none;enable-background:accumulate"
       id="path17178"
       sodipodi:sides="6"
       sodipodi:cx="121.90476"
       sodipodi:cy="126.57602"
       sodipodi:r1="103.56153"
       sodipodi:r2="103.56153"
       sodipodi:arg1="-0.52327829"
       sodipodi:arg2="0.0003204856"
       inkscape:flatsided="true"
       inkscape:rounded="0"
       inkscape:randomized="0"
       d="m 211.60827,74.824 -0.0332,103.56153 -89.70351,51.75202 -89.670315,-51.80951 0.03319,-103.561527 89.703505,-51.752019 z"
       inkscape:transform-center-x="0.32645456"
       inkscape:transform-center-y="1.4607109"
       transform="matrix(0.80733155,0,0,-0.81026646,105.40811,-105.07752)" />
    <path
       inkscape:connector-curvature="0"
       d="m 242.09255,-238.33315 2.27986,-3.64089 -2.75794,-3.29358 4.16722,1.04318 2.28012,-3.64073 0.29563,4.28561 4.16713,1.04349 -3.98451,1.60548 0.2953,4.28563 -2.75818,-3.29337 z m -18.84729,-13.79741 0.32613,-4.28339 -3.97285,-1.63411 4.17453,-1.01348 0.32645,-4.28337 2.25388,3.65703 4.17461,-1.01316 -2.78157,3.27365 2.2536,3.65721 -3.97297,-1.63381 z m -23.09493,-3.45565 -1.70187,-3.9443 -4.27719,0.39938 3.22535,-2.83742 -1.70156,-3.94444 3.69524,2.19068 3.22556,-2.83718 -0.94156,4.19134 3.69507,2.19096 -4.27716,0.39971 z m -22.05849,7.67539 -3.34017,-2.70131 -3.60145,2.34167 1.53693,-4.01145 -3.33997,-2.70156 4.29005,0.2221 1.53724,-4.01133 1.11446,4.14871 4.29003,0.22243 -3.60127,2.34195 z m -15.96466,17.05051 -4.21305,-0.83907 -2.10019,3.74741 -0.5039,-4.26614 -4.21299,-0.83939 3.90162,-1.79755 -0.50358,-4.26618 2.91524,3.1552 3.90177,-1.79726 -2.09991,3.74757 z m -6.20893,22.51144 -4.1204,1.21499 -0.11807,4.29417 -2.42879,-3.54328 -4.1205,1.21468 2.61933,-3.40486 -2.42853,-3.54346 4.04762,1.43897 2.61958,-3.40466 -0.11775,4.29419 z m 4.96414,22.81805 -3.08376,2.99068 1.89107,3.85716 -3.79724,-2.00867 -3.084,2.99045 0.73694,-4.23211 -3.79709,-2.00896 4.2527,-0.60692 0.73727,-4.23205 1.89137,3.85701 z m 15.00474,17.90137 -1.34015,4.0814 3.46732,2.53605 -4.29578,-0.0133 -1.34046,4.0813 -1.31478,-4.08964 -4.29578,-0.0137 3.4832,-2.51421 -1.31448,-4.08975 3.46752,2.53579 z m 21.60019,8.87391 0.71011,4.2367 4.24874,0.63417 -3.80991,1.98458 0.7098,4.23675 -3.06477,-3.01016 -3.81006,1.98428 1.91578,-3.84496 -3.06454,-3.0104 4.24878,0.63385 z m 23.2274,-2.17352 2.59603,3.42263 4.05745,-1.41101 -2.4529,3.52663 2.59578,3.42283 -4.11202,-1.24306 -2.45317,3.52645 -0.0885,-4.29489 -4.11192,-1.24337 4.05734,-1.41132 z m 19.58361,-12.73109 3.88951,1.82363 2.93654,-3.13538 -0.53246,4.26267 3.88937,1.82392 -4.21858,0.81085 -0.53277,4.26263 -2.07477,-3.76154 -4.21865,0.81053 2.9363,-3.13561 z m 11.41957,-20.36932 4.29147,-0.19284 1.14305,-4.14094 1.50954,4.02184 4.29148,-0.19251 -3.35852,2.67847 1.50923,4.02196 -3.58522,-2.36646 -3.35872,2.67822 1.14273,-4.14102 z m 0.64544,-23.3413 3.71034,-2.165 -0.91215,-4.19784 3.20559,2.85973 3.71051,-2.16472 -1.72918,3.93241 3.20538,2.85997 -4.27429,-0.42936 -1.72948,3.93227 -0.91247,-4.19777 z"
       style="opacity:1;fill:#ffffff;fill-opacity:1;stroke:none;stroke-width:0.07044356;stroke-linecap:round;stroke-linejoin:round;stroke-miterlimit:4;stroke-opacity:1"
       id="path2142" />
    <path
       inkscape:connector-curvature="0"
       d="m 229.86981,-203.98967 24.31674,1.80409 -3.07584,-2.16897 14.52546,1.04041 -2.65189,-1.87274 8.79947,-0.49714 -15.33807,-3.3188 3.08032,2.17986 -18.52499,-2.94259 3.88004,2.74345 -15.0489,-2.30449 z m -50.35373,0.0816 -24.04072,4.07459 3.50593,1.36884 -14.35167,2.47011 3.02335,1.18281 -8.42406,2.59096 15.68649,-0.45278 -3.51289,-1.37834 18.69045,-1.58159 -4.42434,-1.73391 15.16271,-1.36825 z m 1.4456,-12.06286 -23.17749,-7.57382 2.46706,2.84233 -13.85386,-4.488 2.12636,2.45321 -8.66255,-1.6242 14.09732,6.8947 -2.46881,-2.854 17.28161,7.29249 -3.11031,-3.59266 14.0594,5.84064 z m 6.88113,-9.99869 -17.00397,-17.47638 0.8638,3.66321 -10.18193,-10.41153 0.74293,3.16033 -6.91584,-5.46342 9.27919,12.65573 -0.85992,-3.67433 11.91399,14.48762 -1.08473,-4.62652 9.7354,11.70479 z m 10.73212,-5.65445 -6.94274,-23.37429 -0.93626,3.64537 -4.18203,-13.94928 -0.80976,3.14388 -3.58749,-8.05033 2.34031,15.51754 0.94485,-3.65342 3.82299,18.36353 1.18796,-4.60109 3.18598,14.88723 z m 12.14346,-0.0204 4.71926,-23.92253 -2.52358,2.79227 2.78204,-14.29447 -2.17846,2.40707 0.56615,-8.7953 -5.14171,14.8268 2.53494,-2.79541 -5.15202,18.03583 3.19073,-3.52143 -4.09996,14.66186 z m 10.75721,5.62385 15.29561,-18.98956 -3.53213,1.29975 9.10608,-11.36446 -3.04752,1.11904 4.58849,-7.52486 -11.44286,10.73928 3.54364,-1.29725 -12.94323,13.57598 4.4617,-1.63537 -10.44378,11.07734 z m 6.91294,9.98177 22.36952,-9.70377 -3.73151,-0.491 13.34499,-5.82947 -3.21844,-0.42574 7.56038,-4.52973 -15.1234,4.18975 3.74055,0.49856 -17.77039,6.00398 4.71057,0.62592 -14.39594,4.95347 z m -2.8043,23.40255 20.69503,12.89474 -1.71608,-3.34967 12.37936,7.6696 -1.47828,-2.89039 8.02315,3.64786 -12.04046,-10.06471 1.715,3.3614 -15.03735,-11.21216 2.16133,4.23201 -12.25561,-9.03217 z m -9.0922,8.07464 12.3142,21.04564 0.0403,-3.76345 7.3865,12.55035 0.037,-3.24628 5.40299,6.96316 -5.97167,-14.51242 -0.0468,3.77334 -8.08999,-16.92296 -0.057,4.75163 -6.64272,-13.6987 z m -11.76061,2.91432 1.14587,24.35663 1.78162,-3.31528 0.72146,14.54479 1.53876,-2.85865 1.55623,8.67503 1.4421,-15.62663 -1.79189,3.32105 0.68377,-18.74478 -2.25477,4.18296 0.47015,-15.21705 z m -12.21978,-3.01155 -10.07729,22.20376 3.09645,-2.13945 -5.98464,13.27614 2.67222,-1.84363 -2.56718,8.43135 8.40349,-13.25339 -3.10822,2.13989 9.14914,-16.37461 -3.91299,2.69627 7.35169,-13.33164 z m -8.99522,-8.22336 -19.24485,14.97313 3.73612,-0.45459 -11.4708,8.97175 3.22298,-0.3899 -6.19272,6.27121 13.60178,-7.82705 -3.74676,0.44951 15.71305,-10.24377 -4.71792,0.56795 12.70694,-8.38533 z"
       style="opacity:1;fill:#ffffff;fill-opacity:1;fill-rule:evenodd;stroke:none;stroke-width:0.07044356;stroke-linecap:butt;stroke-linejoin:miter;stroke-miterlimit:4;stroke-opacity:1"
       id="path2110" />
    <g
       id="g7613"
       transform="matrix(0.0789675,0,0,0.0789675,166.87286,-234.90413)"
       style="fill:#ffffff;fill-opacity:1">
      <path
         id="path7597"
         d="m 550,377 c 0,0 21.822,6.585 34.5,13 4.399,2.226 12.01,6.668 17.5,12.5 5.378,5.712 8,11.5 8,11.5 L 696,559 557,559.062 492,437 c 0,0 -13.31,-22.869 -21.5,-29.5 -6.832,-5.531 -9.745,-7.5 -16.5,-7.5 -4.702,0 -33.026,0 -33.026,0 L 421,558.974 298,559.026 V 152.938 h 247 c 0,0 112.5,2.029 112.5,109.062 0,107.033 -107.5,115 -107.5,115 z m -53.5,-135.976 -74.463,-0.048 -0.037,69.05 74.5,-0.024 c 0,0 34.5,-0.107 34.5,-35.125 0,-35.722 -34.5,-33.853 -34.5,-33.853 z"
         inkscape:connector-curvature="0"
         style="fill:#ffffff;fill-opacity:1;fill-rule:evenodd" />
    </g>
  </g>
</svg>
