<svg xmlns="http://www.w3.org/2000/svg" viewBox="0 0 2206 2558"><defs><style>.cls-1{fill:#4e65d4;}.cls-2{fill:#fff;}.cls-3{fill:#fefeff;}.cls-4{fill:#5efef3;}.cls-5{fill:#747474;}.cls-6{fill:#343434;}.cls-7{fill:#383838;}.cls-8{fill:#a7d816;}.cls-9{fill:#ff4d9d;}.cls-10{fill:#222;}.cls-11{fill:#9ea900;}.cls-12{fill:#00b983;}.cls-13{fill:#414141;}.cls-14{fill:#828eff;}.cls-15{fill:#00b32a;}.cls-16{fill:#ff0072;}.cls-17{fill:#655334;}.cls-18{fill:#5d5d5d;}.cls-19{fill:#777;}.cls-20{fill:#c7910f;}.cls-21{fill:#070707;}.cls-22{fill:#a7a7a7;}.cls-23{fill:#d3d3d3;}.cls-24{fill:#e9e9e9;}.cls-25{fill:#afafaf;}.cls-26{fill:#b1b1b1;}.cls-27{fill:#777778;}.cls-28{fill:#6c6d6d;}.cls-29{fill:#7e7d7e;}.cls-30{fill:#766f51;}.cls-31{fill:#afafae;}.cls-32{fill:#b0b1b1;}.cls-33{fill:#4e4d4d;}.cls-34{fill:#b1b1b2;}.cls-35{fill:#5b8372;}.cls-36{fill:#323f3e;}.cls-37{fill:#262a2a;}.cls-38{fill:#2d1f1f;}.cls-39{fill:#2b2727;}.cls-40{fill:#321f1e;}.cls-41{fill:#331d1f;}.cls-42{fill:#272e2e;}.cls-43{fill:#cfcfcf;}.cls-44{fill:#aeaeae;}.cls-45{fill:#161616;}.cls-46{fill:#76664a;}.cls-47{fill:#262626;}.cls-48{fill:#c6c6c6;}.cls-49{fill:#abaaaa;}.cls-50{fill:#abadad;}.cls-51{fill:#434343;}.cls-52{fill:#454545;}.cls-53{fill:#525a5a;}.cls-54{fill:#5b6161;}.cls-55{fill:#393636;}.cls-56{fill:#4d4f4f;}.cls-57{fill:#d5c01b;}.cls-58{fill:#4d7bff;}.cls-59{fill:#989899;}.cls-60{fill:#060606;}.cls-61{fill:#030a09;}.cls-62{fill:#ff6100;}.cls-63{fill:#585858;}.cls-64{fill:#3a3939;}.cls-65{fill:#f9099e;}.cls-66{fill:#ff9774;}.cls-67{fill:#020807;}.cls-68{fill:#232827;}.cls-69{fill:#383d3c;}.cls-70{fill:#7180fb;}.cls-71{fill:#a58754;}.cls-72{fill:#ff4673;}.cls-73{fill:#197a1a;}.cls-74{fill:#18c319;}.cls-75{fill:#af5cff;}.cls-76{fill:#b7b7b7;}.cls-77{fill:#994ae8;}.cls-78{fill:#727fef;}.cls-79{fill:#8c8c8c;}.cls-80{fill:#1a1b1b;}.cls-81{fill:#292627;}.cls-82{fill:#9b8253;}.cls-83{fill:#bdbebe;}.cls-84{fill:#c0c1c1;}.cls-85{fill:#4291e1;}.cls-86{fill:#4293e1;}.cls-87{fill:#ff3e4e;}.cls-88{fill:#00898f;}.cls-89{fill:#5dd1d7;}.cls-90{fill:#88bbef;}.cls-91{fill:#ff974f;}.cls-92{fill:#ff330d;}.cls-93{fill:#ff7e34;}.cls-94{fill:#ff7159;}.cls-95{fill:#f510a0;}.cls-96{fill:#5a2290;}.cls-97{fill:#8bcb00;}.cls-98{fill:#9a4ae9;}.cls-99{fill:#b05dff;}.cls-100{fill:#3b93e1;}.cls-101{fill:#ff3211;}.cls-102{font-size:330px;fill:#3939aa;font-family:SourceSansPro-Semibold, Source Sans Pro;font-weight:600;}.cls-103{letter-spacing:-0.02em;}.cls-104{font-size:75px;fill:#3b42d1;font-family:SourceSansPro-Regular, Source Sans Pro;}.cls-105{letter-spacing:-0.04em;}.cls-106{letter-spacing:0em;}.cls-107{letter-spacing:-0.02em;}.cls-108{letter-spacing:-0.01em;}.cls-109{letter-spacing:-0.01em;}.cls-110{letter-spacing:-0.02em;}</style></defs><title>Asset 1</title><g id="Layer_2" data-name="Layer 2"><g id="Layer_1-2" data-name="Layer 1"><path class="cls-1" d="M1110,2560h-4c-3.3-2.22-6.47-4.67-9.92-6.64Q556.23,2244.5,16.33,1935.74c-2.57-1.47-5.34-2.61-8-3.9-.78-4.45-2.25-8.89-2.25-13.34q-.18-280.86-.1-561.71,0-355.32-.24-710.64c0-9.36,3-14.24,11-18.51,16.1-8.62,31.63-18.31,47.4-27.57,3.25-1.63,6.59-3.12,9.74-4.92Q586.2,302.14,1098.53,9.09c3.14-1.79,6.37-3.42,9.62-5.16,13.67,7.8,27,15.38,40.26,23Q1674.21,327.63,2200,628.32c2.54,1.45,5.33,2.46,8,3.68V1932a78.5,78.5,0,0,0-8,3.47q-540.1,308.85-1080.15,617.81C1116.4,2555.25,1113.27,2557.75,1110,2560ZM1107.9,72.42c-15,8.54-29.45,16.76-43.9,25L779.44,260.22,494,423.47Q344.75,508.82,195.53,594.19C154.75,617.52,114.05,641,73.14,664.05c-5.78,3.26-8.38,7-7.5,13.47a52.56,52.56,0,0,1,0,7v655q0,272.48-.18,545c0,7.73,2.35,12,9,15.69,34,19,67.78,38.52,101.62,57.87L449.45,2114.3l282.83,161.78,273.3,156.31c31.82,18.19,63.71,36.25,95.41,54.64,4.94,2.87,8.8,3.47,13.67.1,5.19-3.58,10.93-6.36,16.43-9.51q232.53-132.95,465.07-265.91Q1866.87,2056.9,2137.5,1902c15.25-8.74,12.63-4.16,12.63-21.28q.09-599,0-1197.94a46,46,0,0,1,0-6c.81-6.14-2-9.56-7.29-12.55-31.65-17.81-63.1-36-94.62-54q-136.23-77.88-272.46-155.77Q1634,373.32,1492.17,292.13,1355.1,213.73,1218,135.34Z" transform="translate(-2 -2)"/><path class="cls-2" d="M2208,632c-2.67-1.22-5.46-2.23-8-3.68Q1674.19,327.65,1148.41,26.91c-13.29-7.6-26.59-15.18-40.26-23-3.25,1.74-6.48,3.37-9.62,5.16Q586.19,302.11,73.84,595.15c-3.15,1.8-6.49,3.29-9.74,4.92-8.76.38-15.27,5.79-22.31,10Q21.87,622,2,634V2H1112c1.91,1.29,3.75,2.71,5.75,3.86,16.17,9.24,32.39,18.4,48.56,27.65,25.7,14.69,51.34,29.48,77,44.16,20.8,11.88,41.68,23.62,62.48,35.49q32.51,18.54,64.92,37.21,31.59,18.13,63.16,36.29,29.43,16.89,58.88,33.72,30.75,17.58,61.53,35.13,38.54,22,77,44.17c20.8,11.87,41.68,23.61,62.48,35.48q32.51,18.54,64.93,37.21,30.75,17.6,61.53,35.12,32.06,18.33,64.08,36.69c20.51,11.71,41.07,23.33,61.57,35.06,21.07,12.06,42.08,24.23,63.14,36.3q36.36,20.85,72.76,41.62,39.41,22.56,78.77,45.16c15.85,9.14,31.59,18.45,47.38,27.68Z" transform="translate(-2 -2)"/><path class="cls-2" d="M8.31,1931.84c2.68,1.29,5.45,2.43,8,3.9q539.9,308.78,1079.75,617.62c3.45,2,6.62,4.42,9.92,6.64H2V1930Z" transform="translate(-2 -2)"/><path class="cls-2" d="M1110,2560c3.27-2.25,6.4-4.75,9.83-6.72q540-309,1080.15-617.81a78.5,78.5,0,0,1,8-3.47v628Z" transform="translate(-2 -2)"/><path class="cls-2" d="M2208,630c-15.79-9.23-31.53-18.54-47.38-27.68q-39.33-22.67-78.77-45.16-36.37-20.82-72.76-41.62C1988,503.47,1967,491.3,1946,479.24c-20.5-11.73-41.06-23.35-61.57-35.06q-32.06-18.31-64.08-36.69-30.75-17.58-61.53-35.12-32.48-18.58-64.93-37.21c-20.8-11.87-41.68-23.61-62.48-35.48q-38.55-22-77-44.17-30.75-17.59-61.53-35.13-29.46-16.83-58.88-33.72-31.59-18.12-63.16-36.29-32.45-18.63-64.92-37.21c-20.8-11.87-41.68-23.61-62.48-35.49-25.7-14.68-51.34-29.47-77-44.16-16.17-9.25-32.39-18.41-48.56-27.65-2-1.15-3.84-2.57-5.75-3.86H2208Z" transform="translate(-2 -2)"/><path class="cls-3" d="M8.31,1931.84,2,1930V634q19.89-12,39.79-23.93c7-4.21,13.55-9.62,22.31-10C48.33,609.33,32.8,619,16.7,627.64c-8,4.27-11,9.15-11,18.51q.45,355.32.24,710.64,0,280.86.1,561.71C6.06,1923,7.53,1927.39,8.31,1931.84Z" transform="translate(-2 -2)"/><path class="cls-4" d="M1107.9,72.42,1218,135.34q137.09,78.39,274.17,156.79Q1634,373.28,1775.85,454.44q136.22,77.91,272.46,155.77c31.52,18,63,36.19,94.62,54,5.32,3,8.1,6.41,7.29,12.55a46,46,0,0,0,0,6q0,599,0,1197.94c0,17.12,2.62,12.54-12.63,21.28q-270.6,155-541.34,309.74-232.52,133-465.07,265.91c-5.5,3.15-11.24,5.93-16.43,9.51-4.87,3.37-8.73,2.77-13.67-.1-31.7-18.39-63.59-36.45-95.41-54.64l-273.3-156.31L449.45,2114.3,176.14,1958c-33.84-19.35-67.6-38.85-101.62-57.87-6.67-3.74-9-8-9-15.69q.36-272.49.18-545v-655a52.56,52.56,0,0,0,0-7c-.88-6.45,1.72-10.21,7.5-13.47,40.91-23.08,81.61-46.53,122.39-69.86Q344.75,508.82,494,423.47L779.44,260.22,1064,97.44C1078.45,89.18,1092.92,81,1107.9,72.42ZM831.84,1457.74c-23.77,4.72-47.55,9.39-71.31,14.19q-53.22,10.75-106.41,21.67c-3.08.63-7,0-8.09,4.36l-1.74,17.64c-14.22,0-28.44,0-42.65.1-12.51.1-25,.39-37.53.59q-4,10.88-8.09,21.77c-1.37,3.36-2.87,6.68-4.09,10.1-7.55,21.23-14.79,42.57-22.71,63.66-2.39,6.35-2.46,11.53.29,17.86,10.67,24.61,20.7,49.51,31,74.3-1.85.73-3.66,1.55-5.53,2.18-12.53,4.21-25.1,8.31-37.6,12.62-3,1-7.12,1.52-7,5.85.19,9.47.83,18.93,1.29,28.39,1.59,43.16,3.18,86.31,4.79,129.81,8,4.92,15.75,10,23.79,14.59q105.15,60.07,210.4,120c12.38,7,24.92,13.82,37.39,20.72,3.77,3.5,6.81-.08,9.71-1.4,23.91-10.92,47.67-22.14,71.54-33.14,24.16-11.14,48.39-22.13,72.58-33.18l52,30,.45,15.58c0,12.24.16,24.49.06,36.73,0,4.25,2.05,6.67,5.5,8.62,5.76,3.25,11.4,6.74,17.08,10.13-5.15,8.05-10.41,16-15.39,24.18-1.61,2.64-2.44,5.76-3.63,8.66,12.43,27.57,25.14,55,37.1,82.79,2.94,6.82,6.78,9.29,13.88,9.91,31.79,2.76,63.54,6.07,95.3,9.13,12.54,1.21,25.09,2.31,37.63,3.46l10-19.83c9.13-19.11,17.67-38.53,27.6-57.21,6.71-12.62,10.64-24.67,3.71-38.21q32.55-18.28,65.08-36.57,54.61-30.82,109.16-61.75c11.66,3.69,23.4,7.1,34.94,11.11,24.68,8.58,49.24,17.47,73.85,26.23,1.52.67,3.07,1.28,4.55,2,8.1,4,14.77,3.16,21.3-3.92,6-6.54,13.46-11.8,20.24-17.65,17.09-14.75,34.22-29.44,51.16-44.35,2.6-2.29,4.28-5.61,6.38-8.46q-1.74-10.77-3.49-21.55c-2.43-15.34-5-30.66-7.18-46-.53-3.71.28-7.62.48-11.44,1.78-.87,3.6-1.66,5.33-2.63q56.53-31.75,113-63.55c2.7,4.37,6.88,4.37,11.36,4.18,17.58-.74,35.17-1.53,52.76-1.9,49.12-1,98.24-1.84,147.36-2.81a75.36,75.36,0,0,0,8.79-1.18l11.53-31.53c12.82-38.86,25.55-77.76,38.58-116.56,1.64-4.89,1.07-8.87-1-13.32-7.25-15.71-14.29-31.52-21.35-47.31-10.59-23.7-21.08-47.44-31.74-71.11-1.22-2.69-1.22-7.13-6.25-6.18l-42.33,1.42q-.62-192.29-1.24-384.58c0-4.32-.25-8.63-.39-13-.94-1.27-1.81-3.56-2.82-3.63-5.74-.37-11.5-.21-17.26-.23l-22-.26c-4.91-.56-9.81-1.48-14.74-1.64q-56.72-1.93-113.43-3.58c-10.6-.31-21.22-.25-31.83-.36L1660,1122l-46.06-1.79-24-.4-42-1.66-21.91-.43-40-1.73-11.48-.27c-10.15-.62-20.3-1.48-30.47-1.75-3.78-.1-7.6,1.15-11.41,1.79l-2.14-2.06-30.73-2.5c3.76-2.74,5.83-4.36,8-5.8,19.42-12.87,39-25.44,58.25-38.6,54.67-37.47,107.73-77.11,157.83-120.5,21.34-18.49,41.1-38.83,61.25-58.66,7-6.9,6.56-7.35.75-15.91-2.26-3.6-4.38-7.29-6.79-10.79q-62.49-90.45-125-180.86-69.4-100.26-138.86-200.48c-9.86-14.25-19.42-28.69-29.29-42.93-6-8.59-9.13-9.12-18.27-3.8-2.88,1.68-5.71,3.44-8.54,5.2q-89.47,55.79-179,111.55-96.86,60-194,119.53Q887.25,729.78,788.19,790,706.68,839.67,625,889.07q-31.23,18.85-63,36.7c-5.88,3.29-12.37,5-12.55,13.49,0,1.55-2.35,3.06-3.62,4.59a55.17,55.17,0,0,0-5.47,2.34q-68,38.05-136,76.17c-57.53,32.28-114.87,64.9-172.67,96.67-10,5.47-13.28,12.12-11.94,22.41a79.34,79.34,0,0,0,1.63,9.85,187,187,0,0,0,49.83,86.35c8.17,8.16,12.47,7.15,19.31-3.44,1.22-1.1,2.53-2.13,3.66-3.33,53.74-57.26,112.18-109.15,177-153.63,29.37-20.15,59.32-39.47,89-59.17l13.34-5.79,6.34,9.87c11.68,26.87,22.28,54.28,35.24,80.52,36.53,73.92,78.66,144.57,128.27,210.54,15,20,31.51,38.76,47.37,58,5.22,6.35,11.46,9.89,20.15,7.7,4.16-1,8.58-1.09,12.83-1.58l8.21,1.71ZM475.11,1706.27c1.63-3.9,3.55-7.7,4.79-11.71s1.82-8.29,2.68-12.45l-13-10.79c-35.12-29-70.32-58-105.26-87.23-5-4.19-9-4.76-15.16-2.41-32.56,12.52-65.32,24.49-98,36.64-5,2.62-4.13,7.89-4.94,12.08-6.5,33.47-12.4,67.06-19.2,100.46-1.73,8.54-.74,14.88,6.58,19.77,1.9,1.27,3.84,2.49,5.76,3.74a71.34,71.34,0,0,0,5.35,5.75q34.92,30.27,69.93,60.42,15.76,13.61,31.57,27.15c3.06-.93,6.36-1.4,9.14-2.86,21.78-11.44,43.47-23,65.16-34.66,7.31-3.92,16.32-6.48,21.32-12.39,5.25-6.21,6.77-15.64,9.64-23.76C459.42,1751.46,467.24,1728.85,475.11,1706.27Z" transform="translate(-2 -2)"/><path class="cls-5" d="M545.8,943.85c1.26-1.53,3.58-3,3.61-4.59.18-8.5,6.67-10.2,12.55-13.49q31.81-17.84,63-36.7Q706.72,839.75,788.19,790q99-60.33,197.89-120.86,97.14-59.56,194-119.53,89.64-55.53,179-111.55c2.83-1.76,5.66-3.52,8.54-5.2,9.14-5.32,12.31-4.79,18.27,3.8,9.87,14.24,19.43,28.68,29.29,42.93Q1484.56,579.87,1554,680.09q62.57,90.39,125,180.86c2.41,3.5,4.53,7.19,6.79,10.8l-6.59-3.48c-7.79,8.25-15.6,16.79-23.74,25-2.7,2.71-6.27,4.57-9.44,6.81L1667.48,877c-3.17-8.53-43.28-63.18-50.23-68.43-1.89,1.62-3.91,3.27-5.83,5-21.65,19.67-43.08,39.59-65,59-30.4,27-63.35,50.69-96.9,73.49-31.37,21.31-63.23,41.93-95.29,62.2-24.46,15.46-49.35,30.27-74.45,44.66-33.48,19.18-67.31,37.78-101.1,56.41-8.4,4.64-16.67,9.93-26.71,10.58l-139.25-15.25c-.38,2.68-.55,4-.73,5.26-3.83-1.87-5.19,1.14-6.95,3.47q-15.42,20.37-30.89,40.72c0-3.92.49-7.91-.05-11.75-1.5-10.84-3.31-21.65-5.2-32.43q-10.55-60.3-21.22-120.57L934.07,912c-.23-3.62-.13-7.3-.75-10.86Q922.58,839,911.6,776.93c-1.5-8.39-3.68-16.66-5.54-25-.78-2.59-1.56-5.18-2.83-9.36L886,754c-.57,1.8-1.76,3.66-1.6,5.39.5,5.28,1.48,10.52,2.33,15.77q8.55,53.14,17.12,106.31,9.4,58.56,18.79,117.14,11.6,71.86,23.34,143.69c1.77,10.82,4,21.58,5.76,32.4.46,2.77,1.09,4.55,4.33,3.34q-9.21,11.73-18.44,23.45c-10.29-60.71-20.46-121.45-30.92-182.13C898,968.55,888.88,917.76,879.9,867q-7.81-44.25-15.8-88.48c-.53-3-2-5.73-3.23-9.13-3.08,1.51-4.9,2.24-6.56,3.23-16,9.52-32.1,19-48.07,28.64-16.83,10.14-33.57,20.41-50.35,30.62-12.18,4.71-12.5,5.4-10.44,18.27,1.78,11.16,3.16,22.38,5,33.51q15.85,93.85,31.89,187.69,16.35,95.28,33,190.52c1.44,8.32.93,9.24-7.7,12-12.35,4-24.76,7.78-37.16,11.57-9.41,2.87-10.33,4.74-6.16,13.24a52.27,52.27,0,0,0,2.9,5.23c10,15.36,19.88,30.72,29.94,46,5.88,8.94,7.13,9.18,18.2,7.24,7.49-1.32,15.07-2.09,22.62-3.11-8.67,2-17.38,3.85-26,6.09-7.47,2-12.85-.64-17.3-6.54-15.61-20.68-32-40.79-46.77-62.06-15.53-22.38-30.17-45.43-44-68.9-19.74-33.52-39.36-67.18-57.25-101.69-30.16-58.18-60-116.6-81.82-178.64-1.47-4.2-2.73-9.07-7.74-11-5.83,1.72-4.43,6.77-5.23,10.77L550,943.93Zm644.25-239.92a31.5,31.5,0,0,0-24.19,0c-12.15,2.76-22.54,8-28.12,20-18.08,23.33-9.55,58.48,14,73.4,4.38,2.76,7.91,2.89,11.67-.4,2-1.75,3.91-3.6,5.88-5.39,17-15.41,33.59-31.18,51-46,6.76-5.77,5.51-7.83,2.81-14.42a34.44,34.44,0,0,0-3.18-5c-6.07-12.61-16.42-19.42-29.85-22.09Zm172.17-104.11c-10.78-3.73-20.81-2.17-30.15,4.26l-17.92,16c-2,2.87-4.87,5.46-5.93,8.66a55.64,55.64,0,0,0-.17,34.08c2,6.61,4.74,13.07,12.86,17.25l11-8.22c6.56-3.88,13-7.88,19.69-11.61,13-7.33,26.14-14.46,39.17-21.77,7.5-4.21,8.16-5.75,3.59-13.27-2.87-4.72-7-8.71-10.5-13C1378.91,604.12,1371,601.21,1362.22,599.82ZM1284,841.94c2.67,1.21,5.24,3.07,8,3.5,14.74,2.28,29.48,3.55,44.13-1,7.83-2.42,16.23-3.5,21.8-10.54,4.86-4,10.36-7.47,14.49-12.13,19.11-21.58,26.18-47.54,24.91-75.69-.58-12.86-3.51-25.64-5.85-38.36-.46-2.52-2.82-6.16-4.79-6.51s-4.73,2.59-7,4.26a7.2,7.2,0,0,0-1.57,2.52c-12.64,24.36-30.64,44.23-52.21,60.81-25.1,19.3-52.08,34.49-85,35.6-3.24.11-7.75,1.8-9.3,4.25-2.47,3.93,2.32,6.17,4.76,8.63a38,38,0,0,0,4.82,3.53C1254.26,830.39,1268.8,836.83,1284,841.94Z" transform="translate(-2 -2)"/><path d="M1397.36,1996q-54.57,30.88-109.16,61.75-32.49,18.36-65.08,36.56c-1.11-3.11-2.34-6.18-3.31-9.33-5.63-18.35-11.11-36.75-16.91-55-.89-2.83-3.14-5.23-4.77-7.82-3.9-.5-7.79-1.16-11.7-1.47-15.4-1.25-30.81-2.38-46.22-3.55l-.42-31.06c0-21,.27-41.94-.25-62.89-.16-6.74,2.08-10,8-12.9,40.77-19.71,81.36-39.78,122-59.8,24.19-11.92,48.3-24,72.47-36,3.6-1.78,7.83-3,5.9-8.54,0-4,0-7.92-.14-11.88q-1.8-47-3.66-94.06c52.83-23.57,105.76-46.9,158.42-70.83,21.48-9.76,17.07-3.41,16.59-28.63a10.54,10.54,0,0,0-.89-2.83l-6.46-183.67v-17c4.24-1.9,7.82-3.57,11.44-5.11,24.17-10.31,48.29-20.71,72.55-30.78,4.73-2,6.9-4.59,6.42-9.68-.75-7.91-1.28-15.84-1.9-23.77q-1.29-50.67-2.59-101.35c2.85-1.57,5.57-3.53,8.59-4.61,5.93-2.12,12.07-3.67,18.07-5.61q79.14-25.66,158.26-51.39,50.68-16.44,101.42-32.76c.14,4.32.37,8.63.39,13q.64,192.3,1.24,384.58c-27.79,1.56-55.58,3.21-83.38,4.66-22.81,1.19-45.64,2.15-68.47,3.21l-17.9,1c-6.82,13.24-13.35,25.92-19.87,38.61L1640,1686c-.08,1.36-.71,3.09-.11,4,1.57,2.44,4,4.35,5.52,6.81q17.34,27.89,34.44,55.93c12.77,21,25.4,42,38.09,63q-56.52,31.79-113,63.55c-1.73,1-3.55,1.76-5.33,2.63-1.1-1.13-2.86-2.1-3.17-3.41-1.06-4.51-2.21-9.14-2.21-13.73,0-7.26-3.75-10.63-10.1-12.87q-23-8.13-45.85-16.92-41.4-15.94-82.66-32.3c-7.46-3-7.35-3.22-11.7,5q-4.34,5.82-8.68,11.62c-18.56,21.66-37.07,43.36-55.75,64.93-3,3.42-3,7.12-2.82,11.15q.87,19.89,1.59,39.79c.58,15.58,1,31.18,1.72,46.76.13,3-1.39,7.09,3.74,7.81Zm217.79-309.88,2,1c1.07-3.15,5.17-4.75,3.45-11.66ZM1226.56,2046.6c-.35-.66-.71-1.32-1.07-2-3.46,1.5-7.32,2.32-8.89,7Z" transform="translate(-2 -2)"/><path class="cls-6" d="M1884.05,1132q-50.71,16.38-101.42,32.76-79.14,25.66-158.26,51.39c-6,1.94-12.14,3.49-18.07,5.61-3,1.08-5.74,3-8.59,4.61-2.38-.84-4.73-2.28-7.15-2.4q-59.1-3-118.22-5.66c-3.59.28-7.27.14-10.75.92-19.62,4.38-39.16,9.14-58.81,13.43-10.26,2.24-20.68,3.78-31,5.63-11.27-1-22.55-1.88-33.82-2.9q-57.66-5.25-115.33-10.56c-.26-.83-.53-1.65-.79-2.47-.06-3.71,1.68-6.07,5-7.79,8.53-4.4,17-8.91,25.35-13.67,16.66-9.52,33.21-19.23,49.81-28.86,11.58-3.36,20.67-10.88,30-18,15.14-9.62,30.62-18.75,45.31-29,12-8.38,24.31-13.34,39-10.63l16.29,1.42c3.81-.64,7.63-1.89,11.41-1.79,10.17.27,20.32,1.13,30.47,1.75l-9.47,1,.3,2.06L1486,1116l40,1.73c7.23,3.81,14.55,3.16,21.91.43l42,1.66c7.95,3.6,16,3.07,24,.4L1660,1122c7.27,3.27,14.59,2.91,21.92.25,10.61.11,21.23,0,31.83.36q56.71,1.65,113.43,3.58c4.93.16,9.83,1.08,14.74,1.64,7.31,3.5,14.67,3.2,22,.26,5.76,0,11.52-.14,17.26.23C1882.24,1128.4,1883.11,1130.69,1884.05,1132Z" transform="translate(-2 -2)"/><path d="M788,2038.13c-12.47-6.9-25-13.67-37.39-20.72q-105.24-59.92-210.4-120c-8-4.59-15.81-9.67-23.79-14.59-1.61-43.5-3.2-86.65-4.79-129.79.13-8.4.25-16.82.38-26.31,3.83,1.68,6.26,2.63,8.59,3.8q94.23,47,188.45,94.09c24.11,12,48.33,23.83,72.49,35.74.94,2.73,2.49,5.41,2.69,8.19.69,9.61,1.09,19.25,1.28,28.89Q786.81,1967.79,788,2038.13Z" transform="translate(-2 -2)"/><path class="cls-7" d="M1718,1815.79c-12.69-21-25.32-42-38.09-63q-17.08-28-34.44-55.93c-1.53-2.46-4-4.37-5.52-6.81-.6-.94,0-2.67.11-4,2.6,5,7.14,2.46,10.67,2.28,41.19-2.17,82.37-4.58,123.55-6.93l89.68-5.15a64.22,64.22,0,0,1,3.93,5.75q35.24,66,70.38,132.12a75.36,75.36,0,0,1-8.79,1.18c-49.12,1-98.24,1.78-147.36,2.81-17.59.37-35.18,1.16-52.76,1.9C1724.84,1820.16,1720.66,1820.16,1718,1815.79Zm-64-122.58.07,2.06c2.43.78,4.76,1.25,6.76-3.23Z" transform="translate(-2 -2)"/><path class="cls-8" d="M1733.84,1537.36c22.82-1.06,45.65-2,68.46-3.21,27.8-1.45,55.59-3.1,83.38-4.66l42.33-1.42a30.46,30.46,0,0,1-1.1,3.82c-10.93,25.34-22,50.61-32.81,76-5.71,13.45-10.9,27.11-16.33,40.68a8.48,8.48,0,0,0-1.67-.11c-3.51-.41-7-1.33-10.52-1.15q-86.79,4.38-173.58,9c-3.17.16-6.35,0-11.47,0,20-40.44,40.33-78.64,59.67-118Z" transform="translate(-2 -2)"/><path class="cls-9" d="M994.24,2016l-.45-15.58q-.22-14-.44-28c-.39-5.93-1.1-11.85-1.12-17.78-.14-36.88-.12-73.76-.15-110.64l51,24.62c18.81,9.06,37.59,18.19,56.48,27.1,4.16,2,8.69,3.17,13.05,4.72a5.52,5.52,0,0,1-.2,1.52c-.82,3.69-2.4,7.38-2.36,11.06.35,33.71,1,67.41,1.53,101.12l-37.13-1.72a47.83,47.83,0,0,1-5-.64c-8.31-2-13.4,1.29-17.8,8.56-6.72,11.08-14.64,21.43-22,32.09-7.87-4.31-15.51-9.13-23.68-12.79s-11.78-9-10.51-17.89C995.76,2019.89,994.7,2017.89,994.24,2016Z" transform="translate(-2 -2)"/><path d="M251.12,1618.32c32.7-12.15,65.46-24.12,98-36.64,6.13-2.35,10.15-1.78,15.16,2.41,34.94,29.25,70.14,58.19,105.26,87.23l13,10.78c-2.18,1.42-4.21,3.16-6.56,4.22q-25.83,11.67-51.77,23.09c-16.08,7-32.25,13.9-48.38,20.84q-52.26-45.76-104.45-91.6C264.26,1632.32,257.87,1625.12,251.12,1618.32Zm92.87.06-1-2.57-22.14,8.76c.28.71.55,1.42.82,2.12Z" transform="translate(-2 -2)"/><path class="cls-10" d="M1443.9,1807.72c4.35-8.2,4.24-7.93,11.7-5q41.26,16.34,82.66,32.3,22.8,8.79,45.85,16.92c6.35,2.24,10.09,5.61,10.1,12.87,0,4.59,1.15,9.22,2.21,13.73.31,1.31,2.07,2.28,3.17,3.41-.2,3.82-1,7.73-.48,11.44,2.17,15.38,4.75,30.7,7.18,46v17.37l-4.54,1.29c-3.83-.86-7.78-1.36-11.46-2.64q-62.22-21.63-124.35-43.48c-3.28-2.26-4.17-5.51-4.57-9.35q-4.56-44.12-9.46-88.19c-.37-3.37-1.1-6.71-1.79-10.85Zm127.26,99.12,1.57-.19a11.86,11.86,0,0,0,0-3.1,14.8,14.8,0,0,0-1.61-3l-1.18.56C1570.31,1903,1570.74,1904.94,1571.16,1906.84Z" transform="translate(-2 -2)"/><path class="cls-11" d="M1877.77,1648.58c5.43-13.57,10.62-27.23,16.33-40.68,10.79-25.4,21.88-50.67,32.81-76a30.46,30.46,0,0,0,1.1-3.82c5-1,5,3.49,6.25,6.18,10.66,23.67,21.15,47.41,31.74,71.11,7.06,15.79,14.1,31.6,21.35,47.31,2.06,4.45,2.63,8.43,1,13.32-13,38.8-25.76,77.7-38.58,116.56-2.48-3.46-5.37-6.7-7.37-10.41q-17.72-32.91-35.06-66C1897.34,1687,1887.62,1667.77,1877.77,1648.58Z" transform="translate(-2 -2)"/><path class="cls-7" d="M1181.77,2209.59c-12.54-1.15-25.09-2.25-37.63-3.46-31.76-3.06-63.51-6.37-95.3-9.13-7.1-.62-10.94-3.09-13.88-9.91-12-27.77-24.67-55.22-37.1-82.79,7.94.22,15.89.2,23.81.71,36,2.34,72.07,4.83,108.1,7.27l15.77,2.89Q1163.66,2162.39,1181.77,2209.59Zm-134.68-66.4-2.59.88q4.5,10.18,9,20.38l2.21-1Z" transform="translate(-2 -2)"/><path class="cls-12" d="M346.19,1847.69q-15.78-13.57-31.57-27.15-35-30.18-69.93-60.42a69.46,69.46,0,0,1-5.34-5.75c3-16,5.78-32.06,9.2-48s5-32.43,10.2-49c2.41,1.65,3.85,2.43,5.05,3.48q42,36.79,84,73.6c7.24,6.32,14.86,12.19,22.31,18.26q-5.06,20.13-10.12,40.26Q353.1,1820.37,346.19,1847.69Z" transform="translate(-2 -2)"/><path class="cls-13" d="M1416.35,1114.35c-14.73-2.71-27.07,2.25-39,10.63-14.69,10.27-30.17,19.4-45.31,29-11.58,3.36-20.67,10.89-30,18-16.6,9.63-33.15,19.34-49.81,28.86-8.34,4.76-16.82,9.27-25.35,13.67-3.34,1.72-5.08,4.08-5,7.79l-11-25.58c29.52-16.7,59.15-33.22,88.55-50.13,78.25-45,152.78-95.68,225.82-148.6,42-30.47,82-63.49,120.88-97.93,3.17-2.24,6.74-4.1,9.44-6.81,8.14-8.21,16-16.75,23.74-25l6.59,3.48c5.81,8.55,6.26,9-.75,15.9-20.15,19.83-39.91,40.17-61.25,58.66-50.1,43.39-103.16,83-157.83,120.5-19.21,13.16-38.83,25.73-58.25,38.6-2.18,1.44-4.25,3.06-8,5.8l30.73,2.5Z" transform="translate(-2 -2)"/><path class="cls-13" d="M551.92,942.09c.8-4-.6-9.05,5.23-10.77,5,1.89,6.27,6.76,7.74,11,21.84,62,51.66,120.46,81.82,178.64,17.89,34.51,37.51,68.17,57.25,101.69,13.81,23.47,28.45,46.52,44,68.9,14.75,21.27,31.16,41.38,46.77,62.06,4.45,5.9,9.83,8.49,17.3,6.54,8.61-2.24,17.32-4.08,26-6.09,8.06-2,16.24-3.51,24.16-6,28.52-8.78,57-17.86,85.43-26.81,3.65-1.15,7-2.47,6.5-7.3q4.95,12.9,9.88,25.79c-3.5.91-7.07,1.62-10.5,2.76-19.82,6.59-39.49,13.65-59.43,19.81-15.18,4.68-30.69,8.27-46,12.35l-24.31,2.71c-4.3.49-8.72.53-12.88,1.58-8.69,2.19-14.93-1.35-20.15-7.7-15.86-19.29-32.37-38.1-47.37-58-49.61-66-91.74-136.62-128.27-210.54-13-26.24-23.56-53.65-35.24-80.52.78-5.8-2.64-9.84-5.86-14L566.05,988q-4-13-8-26l-4.11-9.94C553.23,948.74,552.58,945.41,551.92,942.09Z" transform="translate(-2 -2)"/><path class="cls-14" d="M1397.36,1996l-13.65-6.24c2.47-2.66,4.87-5.39,7.43-8q24.49-24.55,49.08-49c3.1-3.09,6.06-6.13,6.06-10.89l1.85,2c.63,4.9,5.06,4.77,8.25,5.89,32.56,11.42,65.18,22.66,97.76,34,7,2.45,13.9,5.28,22.19,8.44-7.52,6.57-13.69,12-19.9,17.39l-50.28,43.68c-24.61-8.76-49.17-17.65-73.85-26.23C1420.76,2003.12,1409,1999.71,1397.36,1996Z" transform="translate(-2 -2)"/><path class="cls-15" d="M346.19,1847.69q6.9-27.33,13.8-54.64,5.07-20.13,10.12-40.26l.57-.75c7.28-3.11,14.59-6.16,21.84-9.35q41.31-18.18,82.59-36.42c-7.87,22.58-15.69,45.19-23.66,67.75-2.87,8.12-4.39,17.55-9.64,23.76-5,5.91-14,8.47-21.32,12.39-21.69,11.61-43.38,23.22-65.16,34.66C352.55,1846.29,349.25,1846.76,346.19,1847.69Z" transform="translate(-2 -2)"/><path class="cls-16" d="M560.48,1704c-10.27-24.79-20.3-49.69-31-74.3-2.75-6.33-2.68-11.51-.29-17.86,7.92-21.09,15.16-42.43,22.71-63.66,1.22-3.42,2.72-6.74,4.09-10.1a11.58,11.58,0,0,1,1.93,2.24q22.35,44.65,44.61,89.36a43.68,43.68,0,0,1-1.85,6.71q-14.3,31.91-28.76,63.73Z" transform="translate(-2 -2)"/><path class="cls-17" d="M566.05,988l7.86,20.17-13.82,9.89c-29.68,19.7-59.63,39-89,59.17-64.8,44.48-123.24,96.37-177,153.63-1.13,1.2-2.44,2.23-3.66,3.33-2.19,1.24-4.26,2.82-6.59,3.6-1.81.6-3.95.18-5.94.22,1.91-4.15,3-9,5.86-12.31,16.27-18.86,32.3-38,49.7-55.79S370,1136,388,1118.79c19-18.2,39.58-34.45,60.53-50.26,27.87-21,56.58-40.88,86.33-59.22C545.6,1002.72,555.69,995.14,566.05,988Z" transform="translate(-2 -2)"/><path class="cls-18" d="M788,2038.13q-1.23-70.35-2.49-140.69c-.19-9.64-.59-19.28-1.28-28.89-.2-2.78-1.75-5.46-2.69-8.19,7.61.18,14.34-2.53,20.74-6.33.5,2.89,1.39,5.76,1.44,8.65q1.24,67.42,2.32,134.84c.05,3.15.45,6.29.74,10.23,3-1.07,4.93-1.57,6.66-2.38,28.7-13.31,57.34-26.75,86.08-40,13.29-6.11,26.79-11.79,40.19-17.67,4.59,7.19,1.44,15.11,2.12,22.68-24.19,11-48.42,22-72.58,33.18-23.87,11-47.63,22.22-71.54,33.14C794.79,2038.05,791.75,2041.63,788,2038.13Z" transform="translate(-2 -2)"/><path class="cls-19" d="M802.26,1854c-6.4,3.79-13.13,6.5-20.74,6.32-24.16-11.91-48.38-23.72-72.49-35.74q-94.24-47-188.45-94.09c-2.33-1.17-4.76-2.12-8.59-3.8-.13,9.49-.25,17.91-.38,26.31-.46-9.48-1.1-18.94-1.29-28.41-.09-4.33,4.05-4.82,7-5.85,12.5-4.31,25.07-8.41,37.6-12.62,1.87-.63,3.68-1.45,5.53-2.18L572,1700.1c8.46-2.63,16.95-5.18,25.38-7.91,16.91-5.46,33.79-11,50.68-16.54l16.34,6.13,1.63,2.15c-3.91.58-8,.58-11.69,1.82q-51.15,17.16-102.18,34.74c-2,.68-3.76,2-7.09,3.77,4.62,2.44,7.74,4.17,10.93,5.76q97.47,48.7,195,97.35c17,8.46,34.1,16.66,51.16,25C802.15,1852.91,802.21,1853.48,802.26,1854Z" transform="translate(-2 -2)"/><path class="cls-20" d="M1198.13,2022.13c1.63,2.59,3.88,5,4.77,7.82,5.8,18.3,11.28,36.7,16.91,55,1,3.15,2.2,6.22,3.31,9.33,6.93,13.55,3,25.6-3.71,38.22-9.93,18.68-18.47,38.1-27.6,57.21-1.61-3.22-3.46-6.34-4.77-9.68-5.78-14.8-11.51-29.61-17.06-44.49-4.84-13-9.41-26.1-14.11-39.15a64.44,64.44,0,0,1,2.8-6.28Q1178.35,2056.11,1198.13,2022.13Z" transform="translate(-2 -2)"/><path class="cls-21" d="M564.11,1516.29c12.51-.2,25-.49,37.53-.59,14.21-.12,28.43-.07,42.65-.1.48,2.55,1.33,5.09,1.38,7.65q.84,41.31,1.43,82.62a24,24,0,0,1-.64,4l-14.9,1.78-19.5.1Q588.09,1564,564.11,1516.29Z" transform="translate(-2 -2)"/><path class="cls-22" d="M370.11,1752.79c-7.45-6.07-15.07-11.94-22.31-18.26q-42.09-36.69-84-73.6c-1.2-1-2.64-1.83-5.05-3.48-5.24,16.53-6.75,33-10.2,49s-6.16,32-9.2,48c-1.93-1.25-3.87-2.47-5.77-3.74-7.32-4.89-8.31-11.23-6.58-19.77,6.8-33.4,12.7-67,19.2-100.46.81-4.19-.09-9.46,4.93-12.08,6.74,6.8,13.13,14,20.29,20.33q52.05,46,104.45,91.6L370.68,1752Z" transform="translate(-2 -2)"/><path class="cls-23" d="M1506.15,2033.36l50.28-43.68c6.21-5.4,12.38-10.82,19.9-17.39-8.29-3.16-15.18-6-22.19-8.44-32.58-11.38-65.2-22.62-97.76-34-3.19-1.12-7.62-1-8.25-5.89,2.84-2.57,5.46-5.47,8.6-7.61,2.77-1.89,6.12-2.91,9.21-4.32q62.16,21.77,124.35,43.48c3.68,1.28,7.63,1.78,11.46,2.64l8,2.89c-2.1,2.85-3.78,6.17-6.38,8.46-16.94,14.91-34.07,29.6-51.16,44.35-6.78,5.85-14.2,11.11-20.24,17.65-6.53,7.08-13.2,8-21.3,3.92C1509.22,2034.64,1507.67,2034,1506.15,2033.36Z" transform="translate(-2 -2)"/><path class="cls-24" d="M1129.77,2112.28c-36-2.44-72.06-4.93-108.1-7.27-7.92-.51-15.87-.49-23.81-.71,1.19-2.9,2-6,3.63-8.66,5-8.15,10.24-16.13,15.39-24.17l12.81-19.1c7.41-10.66,15.33-21,22-32.09,4.4-7.27,9.49-10.57,17.8-8.56a47.83,47.83,0,0,0,5,.64L1026,2085.24c3,.48,4.56.85,6.12,1,37.54,2.66,75.08,5.25,112.61,8,3.19.24,6.31,1.42,9.46,2.17-3.41,10.45-8.78,18.11-21.61,15.43A8.18,8.18,0,0,0,1129.77,2112.28Z" transform="translate(-2 -2)"/><path class="cls-25" d="M1877.77,1648.58c9.85,19.19,19.57,38.44,29.56,57.56q17.33,33.1,35.06,66c2,3.71,4.89,6.95,7.37,10.41l-11.53,31.53Q1903.05,1748,1867.85,1682a64.22,64.22,0,0,0-3.93-5.75l12.18-27.74A8.48,8.48,0,0,1,1877.77,1648.58Z" transform="translate(-2 -2)"/><path class="cls-26" d="M631.56,1611.66l14.9-1.78a24,24,0,0,0,.64-4q-.63-41.31-1.43-82.62c0-2.56-.9-5.1-1.38-7.65L646,1498l15.63,5.91q1.19,83,2.38,166c.06,4,.22,8,.33,11.93L648,1675.65c-.1-11.62-.06-23.25-.37-34.87-.1-3.55-1.13-7.08-1.74-10.62a21.32,21.32,0,0,0,.6-17.49Z" transform="translate(-2 -2)"/><path class="cls-27" d="M661.66,1503.87,646,1498c1.13-4.35,5-3.73,8.09-4.36q53.19-10.89,106.41-21.67c23.76-4.8,47.54-9.47,71.31-14.19l17.49,4.44.77,1.92a30.4,30.4,0,0,1-3.76,1.3c-40.56,8.26-81.15,16.37-121.68,24.79-20.39,4.23-40.66,9-61,13.55Z" transform="translate(-2 -2)"/><path class="cls-28" d="M370.68,1752l5.19-21.79c16.13-6.94,32.3-13.79,48.38-20.84q26-11.37,51.77-23.09c2.35-1.06,4.38-2.8,6.56-4.22-.86,4.17-1.43,8.42-2.68,12.46s-3.16,7.81-4.79,11.71q-41.3,18.21-82.59,36.42C385.27,1745.88,378,1748.93,370.68,1752Z" transform="translate(-2 -2)"/><path class="cls-29" d="M564.11,1516.29q24,47.73,47.95,95.47l-7.92,18a10.4,10.4,0,0,0-1.58-.11Q580.27,1585,558,1540.3a11.58,11.58,0,0,0-1.93-2.24Q560.07,1527.17,564.11,1516.29Z" transform="translate(-2 -2)"/><path class="cls-30" d="M277.92,1238c2,0,4.13.38,5.94-.22,2.33-.78,4.4-2.36,6.59-3.6-6.84,10.59-11.14,11.6-19.31,3.44a187,187,0,0,1-49.83-86.35,79.34,79.34,0,0,1-1.63-9.85c-1.34-10.29,2-16.94,11.94-22.41,57.8-31.77,115.14-64.39,172.67-96.67q68-38.15,136-76.17a55.17,55.17,0,0,1,5.47-2.34l4.18.08a21.18,21.18,0,0,1-3,2.52c-27.07,14.93-54.25,29.68-81.25,44.76q-56.16,31.35-112.12,63.1Q292.77,1088.6,232,1123c-9.18,5.18-10.76,9-8.93,19.4,5.11,29.26,18.5,54.66,36.55,77.71C264.84,1226.76,271.77,1232.08,277.92,1238Z" transform="translate(-2 -2)"/><path class="cls-31" d="M1129.77,2112.28a8.18,8.18,0,0,1,2.85-.49c12.83,2.68,18.2-5,21.61-15.44l.83,0,.81.13c4.7,13,9.27,26.15,14.11,39.15,5.55,14.88,11.28,29.69,17.06,44.49,1.31,3.34,3.16,6.46,4.77,9.68q-5,9.91-10,19.83-18.12-47.21-36.23-94.42Z" transform="translate(-2 -2)"/><path class="cls-32" d="M849.33,1462.18l-17.49-4.44v-78.65l-8.18-1.71,24.33-2.71,1.92,83.33a6,6,0,0,0,0,2Z" transform="translate(-2 -2)"/><path class="cls-33" d="M941.81,1970.41c-.68-7.57,2.47-15.49-2.12-22.68.91-1.9,1.81-3.79,2.71-5.69,1.4,1.37,2.58,3.13,4.23,4.07,15.53,8.83,31.13,17.52,46.72,26.25q.21,14,.44,28Z" transform="translate(-2 -2)"/><path class="cls-34" d="M1029.69,2052.37l-12.81,19.1c-5.68-3.4-11.32-6.89-17.08-10.14-3.45-1.95-5.54-4.37-5.5-8.62.1-12.24,0-24.49-.06-36.73.46,1.91,1.52,3.91,1.26,5.71-1.27,8.89,2.38,14.24,10.51,17.89S1021.82,2048.06,1029.69,2052.37Z" transform="translate(-2 -2)"/><path class="cls-35" d="M560.09,1018.07l13.82-9.89c3.22,4.13,6.64,8.17,5.86,14l-6.34-9.87Z" transform="translate(-2 -2)"/><path class="cls-36" d="M1609.78,1961l-8-2.89,4.54-1.29v-17.37Q1608,1950.22,1609.78,1961Z" transform="translate(-2 -2)"/><path class="cls-37" d="M1486,1116l-20.65,2.76-.3-2.06,9.47-1Z" transform="translate(-2 -2)"/><path class="cls-38" d="M1613.94,1120.22c-8.06,2.67-16.08,3.2-24-.4Z" transform="translate(-2 -2)"/><path class="cls-39" d="M1548,1118.16c-7.36,2.73-14.68,3.38-21.91-.43Z" transform="translate(-2 -2)"/><path class="cls-40" d="M1681.92,1122.26c-7.33,2.66-14.65,3-21.92-.25Z" transform="translate(-2 -2)"/><path class="cls-41" d="M1864,1128.1c-7.38,2.94-14.74,3.24-22-.26Z" transform="translate(-2 -2)"/><path class="cls-42" d="M1416.35,1114.35l14.15-.64,2.14,2.06Z" transform="translate(-2 -2)"/><path class="cls-43" d="M755.89,831.83c16.78-10.21,33.52-20.48,50.35-30.62,16-9.63,32-19.12,48.07-28.64,1.66-1,3.48-1.72,6.56-3.23,1.23,3.4,2.7,6.18,3.23,9.13q8,44.22,15.8,88.48c9,50.81,18.08,101.6,26.84,152.44,10.46,60.68,20.63,121.42,30.92,182.13-4.55,6.42-8.67,13.22-13.77,19.18-4.88,5.71-5.74,10.51-2.52,17.79,10.76,24.24,20.53,48.92,30.68,73.44.15,4.62-3,6-6.69,7.32a796.14,796.14,0,0,1-103.17,31c-9.7,2.23-10.61,1.86-12.25-8.32-6.05-37.66-11.76-75.38-17.89-113-5.5-33.76-11.32-67.47-17.12-101.18-4.84-28.15-9.93-56.26-14.76-84.41q-8.68-50.56-17.11-101.18c-5-29.47-10.06-58.92-14.79-88.43-2-12.5-1.64-12.56,7.21-21A2.66,2.66,0,0,0,755.89,831.83Z" transform="translate(-2 -2)"/><path class="cls-44" d="M1646.09,900.08c-38.84,34.44-78.84,67.46-120.88,97.93-73,52.92-147.57,103.6-225.82,148.6-29.4,16.91-59,33.43-88.55,50.13-6.5-14.49-13.19-28.9-19.38-43.52-2-4.69-4.77-7.68-9.59-8.89a13.55,13.55,0,0,0,2.48-1.33c-1.78-5.83-3.54-11.69-5.71-17.38-1.46-3.81-5.15-3.43-8.48-3.71-6.06-.5-12.1-1.29-18.15-2,10-.65,18.31-5.94,26.71-10.58,33.79-18.63,67.62-37.23,101.1-56.41,25.1-14.39,50-29.2,74.45-44.66,32.06-20.27,63.92-40.89,95.29-62.2,33.55-22.8,66.5-46.52,96.9-73.49,21.88-19.41,43.31-39.33,65-59,1.92-1.75,3.94-3.4,5.83-5,7,5.25,47.06,59.9,50.23,68.43ZM1447.46,970c4.13,5.89,7.77,11.35,11.7,16.6,4.61,6.15,4.64,5.9,11.09,2.52,18.68-9.78,35.13-22.71,51.43-35.87q30.24-24.4,60.52-48.73c14.22-11.43,28.41-22.89,39.84-38.93-3.76-5.71-7.69-11.65-11.61-17.61-2.23.59-3.74.57-4.69,1.29C1553.21,888.74,1502.86,931.06,1447.46,970Z" transform="translate(-2 -2)"/><path class="cls-45" d="M952.05,1311.93c-10.15-24.52-19.92-49.2-30.68-73.44-3.22-7.28-2.36-12.08,2.52-17.79,5.1-6,9.22-12.76,13.77-19.18q9.23-11.73,18.44-23.45a4.29,4.29,0,0,0,.22-1.85q8.94-11,17.87-22.07,15.45-20.36,30.89-40.72c1.76-2.33,3.12-5.34,6.95-3.47.63,2.16,1.26,4.33,1.9,6.49l12.48,25.4c11.17,24.5,22.39,49,33.48,73.51q21,46.4,41.8,92.84c.78,4.47-1.87,7.38-4.5,10.46-22.48,26.23-44.84,52.56-67.35,78.77-9.5,11.06-19.25,21.91-28.88,32.85-1.71-4-3.49-7.9-5.12-11.91q-16-39.3-31.87-78.62-4.94-12.9-9.88-25.79Zm15.33-79.87c9.26-9.42,18-19.26,24.06-31.16C981.22,1209.57,974,1220.6,967.38,1232.06Z" transform="translate(-2 -2)"/><path class="cls-46" d="M277.92,1238c-6.15-5.94-13.08-11.26-18.3-17.93-18.05-23-31.44-48.45-36.55-77.71-1.83-10.43-.25-14.22,8.93-19.4q60.81-34.31,121.56-68.67,56-31.62,112.12-63.1c27-15.08,54.18-29.83,81.25-44.76a21.18,21.18,0,0,0,3-2.52l1.95-1.84c.66,3.32,1.31,6.65,2,10-3.21-2.23-6.18-1.09-9.17.58-6.86,3.83-13.76,7.61-20.64,11.41L514,970c-15.15,8.89-30.21,17.93-45.45,26.65-23.33,13.37-46.8,26.46-70.16,39.77-24.51,14-49,27.91-73.39,42.13-15.17,8.86-30,18.23-45,27.37-2.74,1.07-5.7,1.78-8.18,3.27q-17.33,10.41-34.38,21.24c-2.13,1.36-3.66,3.66-5.47,5.52-.32,2.76-1.88,6.61-.66,8,1.49,1.67,5.33,1.63,8.14,1.6,1.86,0,3.78-1.17,5.54-2.09,15.32-8,30.74-15.79,45.88-24.1,28.82-15.8,57.49-31.89,86.2-47.89q27.4-15.27,54.76-30.65,43.37-24.48,86.66-49.08,16.46-9.33,32.94-18.64c4.37-2.45,7.35-5.65,6.59-11.11q4,13,8,26c-10.36,7.13-20.45,14.71-31.15,21.3-29.75,18.34-58.46,38.17-86.33,59.22-20.95,15.81-41.53,32.06-60.53,50.26-18,17.24-37.15,33.33-54.56,51.13s-33.43,36.93-49.7,55.79C280.91,1229,279.83,1233.87,277.92,1238Z" transform="translate(-2 -2)"/><path class="cls-47" d="M1284,841.94c-15.21-5.11-29.75-11.55-42.76-21.1a38,38,0,0,1-4.82-3.53c-2.44-2.46-7.23-4.7-4.76-8.63,1.55-2.45,6.06-4.14,9.3-4.25,32.9-1.11,59.88-16.3,85-35.6,21.57-16.58,39.57-36.45,52.21-60.81a7.2,7.2,0,0,1,1.57-2.52c2.27-1.67,5-4.62,7-4.26s4.33,4,4.79,6.51c2.34,12.72,5.27,25.5,5.85,38.36,1.27,28.15-5.8,54.11-24.91,75.69-4.13,4.66-9.63,8.12-14.49,12.13a17.14,17.14,0,0,0-3.78,1.05c-17.49,9.4-36.18,11.25-55.55,8.88C1293.76,843.26,1288.88,842.58,1284,841.94Z" transform="translate(-2 -2)"/><path class="cls-43" d="M974.19,1154.15q-8.93,11-17.87,22.07c-1.26-3.36-3-6.63-3.7-10.11-1.69-7.79-3.06-15.65-4.3-23.53-6.93-43.95-13.69-87.93-20.69-131.88-5.86-36.73-12-73.41-18-110.12Q897.79,827.32,886,754l17.2-11.45c1.27,4.18,2,6.77,2.83,9.36,1.43,11.81,2.37,23.71,4.38,35.42,5.77,33.61,11.89,67.16,18.06,100.7,1.48,8,3.69,16,5.57,23.92l13.65,77.42q10.62,60.28,21.22,120.57c1.89,10.78,3.7,21.59,5.2,32.43C974.68,1146.24,974.21,1150.23,974.19,1154.15Z" transform="translate(-2 -2)"/><path class="cls-48" d="M1013.93,1116.45c-.64-2.16-1.27-4.33-1.9-6.49.18-1.29.35-2.58.73-5.26L1152,1120c6,.67,12.09,1.46,18.15,2,3.33.28,7-.1,8.48,3.71,2.17,5.69,3.93,11.55,5.71,17.38a13.39,13.39,0,0,1-2.49,1.33q-47.17-4.75-94.34-9.49c-10.49-1.06-21-2.06-32.65-3.19,1.39,3.86,2.11,6.36,3.16,8.71q11.74,26.48,23.61,52.89,24.45,54.7,48.85,109.43c1.37,3.1,4.52,6.18,1.74,10.1-6.58-.26-13.2-.14-19.72-.93-3.7-.44-7.22-2.39-10.82-3.65q-20.89-46.42-41.8-92.84c-11.09-24.53-22.31-49-33.48-73.51Z" transform="translate(-2 -2)"/><path class="cls-47" d="M1220,726a34.44,34.44,0,0,1,3.18,5c2.7,6.59,3.95,8.65-2.81,14.42-17.44,14.85-34.08,30.62-51,46-2,1.79-3.87,3.64-5.88,5.39-3.76,3.29-7.29,3.16-11.67.4-23.58-14.92-32.11-50.07-14-73.4,2.26-1.8,4.42-3.77,6.8-5.39,5.58-3.81,11.15-7.68,17-11,1.51-.86,4.07.13,6.15.28-3.26,2.52-4.89,5.73-2.54,9.47,2.09,3.34,5.45,4.67,9.49,3.56,6.89-1.89,13.07.33,19.1,3.35,3.44.51,7.33,2.23,10.18,1.17,2.63-1,4.14-4.94,6.18-7.65Z" transform="translate(-2 -2)"/><path class="cls-44" d="M952.05,1311.93l2,2c.52,4.83-2.85,6.15-6.5,7.3-28.48,9-56.91,18-85.43,26.81-7.92,2.44-16.1,4-24.16,6-7.55,1-15.13,1.79-22.62,3.11-11.07,1.94-12.32,1.7-18.2-7.24-10.06-15.29-20-30.65-29.94-46a52.27,52.27,0,0,1-2.9-5.23c-4.17-8.5-3.25-10.37,6.16-13.24,12.4-3.79,24.81-7.59,37.16-11.57,8.63-2.78,9.14-3.7,7.7-12q-16.49-95.27-33-190.52-16.11-93.82-31.89-187.69c-1.88-11.13-3.26-22.35-5-33.51-2.06-12.87-1.74-13.56,10.44-18.27a2.66,2.66,0,0,1-.41.9c-8.85,8.47-9.21,8.53-7.21,21,4.73,29.51,9.82,59,14.79,88.43q8.52,50.59,17.11,101.18c4.83,28.15,9.92,56.26,14.76,84.41,5.8,33.71,11.62,67.42,17.12,101.18,6.13,37.64,11.84,75.36,17.89,113,1.64,10.18,2.55,10.55,12.25,8.32a796.14,796.14,0,0,0,103.17-31C949,1317.88,952.2,1316.55,952.05,1311.93Z" transform="translate(-2 -2)"/><path class="cls-47" d="M1383.89,612.17c3.54,4.32,7.63,8.31,10.5,13,4.57,7.52,3.91,9.06-3.59,13.27-13,7.31-26.16,14.44-39.17,21.77-6.64,3.73-13.13,7.73-19.69,11.61-1.85.64-3.75,1.2-5.56,1.94-7.08,2.92-9.28,2.68-12.38-4.45a95.9,95.9,0,0,1-5.87-20.66c-1.9-10.2,2.56-19.36,6-28.6l17.91-16,21.79-4c-.5,1.5-1,3-1.48,4.49-.62.57-1.24,1.14-1.87,1.7-3.28,5.92-2.54,8.13,3.21,9.74,4.77,1.33,9.82,2.1,14.23,4.21C1380.52,626.29,1382.11,625.66,1383.89,612.17Z" transform="translate(-2 -2)"/><path class="cls-49" d="M886,754q11.81,73.28,23.62,146.55c6,36.71,12.12,73.39,18,110.12,7,44,13.76,87.93,20.69,131.88,1.24,7.88,2.61,15.74,4.3,23.53.75,3.48,2.44,6.75,3.7,10.11a4.29,4.29,0,0,1-.22,1.85c-3.24,1.21-3.87-.57-4.33-3.34-1.81-10.82-4-21.58-5.76-32.4q-11.75-71.83-23.34-143.69-9.46-58.56-18.79-117.14-8.53-53.16-17.12-106.31c-.85-5.25-1.83-10.49-2.33-15.77C884.27,757.69,885.46,755.83,886,754Z" transform="translate(-2 -2)"/><path class="cls-50" d="M934.07,912c-1.88-8-4.09-15.88-5.57-23.92-6.17-33.54-12.29-67.09-18.06-100.7-2-11.71-3-23.61-4.38-35.42,1.86,8.33,4,16.6,5.54,25q11,62.05,21.72,124.19C933.94,904.68,933.84,908.36,934.07,912Z" transform="translate(-2 -2)"/><path class="cls-51" d="M1383.89,612.17c-1.78,13.49-3.37,14.12-16,8.08-4.41-2.11-9.46-2.88-14.23-4.21-5.75-1.61-6.49-3.82-3.21-9.74.66,2.32,1,6.48,2,6.66a66.59,66.59,0,0,1,23.08,8.22,3.6,3.6,0,0,0,3.44-.84c.72-1.2,1.15-3.27.58-4.39a12.43,12.43,0,0,0-4.12-4.07,41.32,41.32,0,0,0-23.15-7.28c.49-1.49,1-3,1.48-4.49l8.37-.29C1371,601.21,1378.91,604.12,1383.89,612.17Z" transform="translate(-2 -2)"/><path class="cls-52" d="M1220,726l-9.88-8.35c-2,2.71-3.55,6.68-6.18,7.65-2.85,1.06-6.74-.66-10.18-1.17l.33-2.26c1.55.55,3.12,1.58,4.66,1.52,2-.07,4.06-1,6.09-1.54-.59-2.07-.53-4.94-1.9-6-3-2.45-6.61-5-10.29-5.71-7.43-1.35-15.08-1.45-22.63-2.06,3.34-.72,6.69-1.47,10-2.16s6.73-1.31,10.09-2C1203.56,706.59,1213.91,713.4,1220,726Z" transform="translate(-2 -2)"/><path class="cls-53" d="M1284,841.94c4.87.64,9.75,1.32,14.63,1.92,19.37,2.37,38.06.52,55.55-8.88a17.14,17.14,0,0,1,3.78-1.05c-5.57,7-14,8.12-21.8,10.54-14.65,4.52-29.39,3.25-44.13,1C1289.25,845,1286.68,843.15,1284,841.94Z" transform="translate(-2 -2)"/><path class="cls-54" d="M1314.15,620.08c-3.46,9.24-7.92,18.4-6,28.6a95.9,95.9,0,0,0,5.87,20.66c3.1,7.13,5.3,7.37,12.38,4.45,1.81-.74,3.71-1.3,5.56-1.94l-11,8.22c-8.12-4.18-10.87-10.64-12.86-17.25a55.64,55.64,0,0,1,.17-34.08C1309.28,625.54,1312.12,623,1314.15,620.08Z" transform="translate(-2 -2)"/><path class="cls-55" d="M1190.13,703.92c-3.36.66-6.73,1.29-10.09,2s-6.7,1.44-10,2.16a3,3,0,0,1-1.63.32l-.68-.62c-2.08-.14-4.64-1.13-6.15-.27-5.85,3.35-11.42,7.22-17,11-2.38,1.62-4.54,3.59-6.8,5.39,5.58-12,16-17.24,28.12-20l24.19,0Z" transform="translate(-2 -2)"/><path class="cls-56" d="M1362.22,599.82l-8.37.29-21.79,4C1341.41,597.65,1351.44,596.09,1362.22,599.82Z" transform="translate(-2 -2)"/><path class="cls-52" d="M1190.05,703.93l-24.19,0A31.5,31.5,0,0,1,1190.05,703.93Z" transform="translate(-2 -2)"/><path class="cls-57" d="M1155.87,2096.44l-.81-.13-.83,0c-3.15-.74-6.27-1.92-9.46-2.16-37.53-2.74-75.07-5.33-112.61-8-1.56-.11-3.11-.48-6.12-1l48.45-72.88,37.13,1.72,28.59,3c15.41,1.18,30.82,2.31,46.22,3.56,3.91.31,7.8,1,11.7,1.47q-19.74,34-39.46,68A64.44,64.44,0,0,0,1155.87,2096.44Z" transform="translate(-2 -2)"/><path class="cls-24" d="M1876.1,1648.47l-12.18,27.74-89.68,5.15c-41.18,2.35-82.36,4.76-123.55,6.93-3.53.18-8.07,2.75-10.67-2.28l56-109.08c6.52-12.69,13-25.37,19.87-38.61l17.9-1,6.37,1c-19.34,39.32-39.69,77.52-59.67,118,5.12,0,8.3.14,11.47,0q86.79-4.5,173.58-9C1869.06,1647.14,1872.59,1648.06,1876.1,1648.47Z" transform="translate(-2 -2)"/><path class="cls-58" d="M1446.28,1921.9c0,4.76-3,7.8-6.06,10.89q-24.62,24.43-49.08,49c-2.56,2.57-5,5.3-7.43,8-5.14-.72-3.62-4.86-3.75-7.81-.69-15.58-1.14-31.18-1.72-46.76q-.73-19.9-1.59-39.79c-.17-4-.14-7.73,2.82-11.15,18.68-21.57,37.19-43.27,55.74-64.92.93,5.87,2.06,11.71,2.76,17.6,1.08,9.2,1.88,18.44,2.78,27.66Q1443.53,1893.26,1446.28,1921.9Z" transform="translate(-2 -2)"/><path class="cls-19" d="M1112.45,1901.9a5.52,5.52,0,0,0,.2-1.52c2.44-1,4.93-2,7.31-3.14q95.57-46.63,191.07-93.33c3.5-1.72,6.73-4,10.09-6,5.26,1.51,10.53,3,15.78,4.56,3.69,1.1,7.35,2.32,11,3.48,1.93,5.54-2.3,6.76-5.9,8.54-24.17,12-48.28,24-72.47,36-40.62,20-81.21,40.09-122,59.8-6,2.88-8.2,6.16-8,12.9.52,20.95.23,41.93.25,62.89-.53-3.53-1.46-7.06-1.52-10.6-.3-17.85-.5-35.7-.44-53.55,0-4.86-1.4-8.06-6-10.16C1125.27,1908.71,1118.91,1905.2,1112.45,1901.9Z" transform="translate(-2 -2)"/><path class="cls-26" d="M1511.79,1414.06l6.46,183.67c-.39,7-.78,14-1.22,21.92l-21.43-4c-.52-11.91-1.14-23.82-1.55-35.73-.85-24.85-1.55-49.7-2.43-74.55-.09-2.57-1-5.12-1.5-7.68-.07-11.61.07-23.23-.28-34.83-.24-8.26-1.12-16.51-1.72-24.76q-.09-22.15-.19-44.32l20.83,3.07C1509.89,1403.23,1510.84,1408.65,1511.79,1414.06Z" transform="translate(-2 -2)"/><path class="cls-26" d="M1472.34,1218.27q59.12,2.77,118.22,5.66c2.42.12,4.77,1.56,7.15,2.4q1.29,50.67,2.59,101.35c-.32,9-.64,18.08-1,27.71h-17.81c-1.3-36.85-2.6-73.7-3.93-111.45-5.45-.58-10.31-1.32-15.19-1.58q-45.35-2.35-90.7-4.53Q1472,1228.05,1472.34,1218.27Z" transform="translate(-2 -2)"/><path class="cls-19" d="M1495.59,1615.61l21.44,4c.44-7.87.83-14.89,1.22-21.92a10.54,10.54,0,0,1,.89,2.83c.48,25.22,4.89,18.87-16.59,28.63-52.66,23.93-105.59,47.26-158.42,70.83l-23.57-8.14a43.61,43.61,0,0,1,5.77-3.6q76-32.46,152.1-64.86c4.83-2.07,9.3-5,14-7.49Z" transform="translate(-2 -2)"/><path class="cls-26" d="M1112.45,1901.9c6.46,3.3,12.82,6.81,19.41,9.84,4.57,2.1,6,5.3,6,10.16-.06,17.85.14,35.7.44,53.55.06,3.54,1,7.07,1.52,10.6l.42,31.06-28.59-3c-.55-33.71-1.18-67.41-1.53-101.12C1110.05,1909.28,1111.63,1905.59,1112.45,1901.9Z" transform="translate(-2 -2)"/><path class="cls-26" d="M1320.57,1691.88l23.56,8.14q1.84,47,3.66,94.06c.15,4,.1,7.92.14,11.88-3.68-1.16-7.34-2.38-11-3.48-5.25-1.56-10.52-3-15.78-4.56a1.35,1.35,0,0,1-.79-1.34c4.07-1.53,3.73-5,3.55-8.32-.49-8.9-1.31-17.77-1.66-26.67-.91-23.1-1.63-46.2-2.42-69.3Z" transform="translate(-2 -2)"/><path class="cls-59" d="M1446.28,1921.9q-2.76-28.64-5.53-57.29c-.9-9.22-1.7-18.46-2.78-27.66-.7-5.89-1.83-11.73-2.76-17.6q4.35-5.82,8.69-11.63l6.22-4.12c.69,4.14,1.42,7.48,1.79,10.85q4.83,44.08,9.46,88.19c.4,3.84,1.29,7.09,4.57,9.35-3.09,1.41-6.44,2.43-9.21,4.32-3.14,2.14-5.76,5-8.6,7.61Z" transform="translate(-2 -2)"/><path class="cls-19" d="M1581.51,1355.39h17.81c.34-9.63.66-18.67,1-27.71.62,7.93,1.15,15.86,1.9,23.77.48,5.09-1.69,7.72-6.42,9.68-24.26,10.07-48.38,20.47-72.55,30.78-3.62,1.54-7.2,3.21-11.44,5.11v17c-1-5.41-1.9-10.83-3-17.25l-20.83-3.07c-.35-.61-.7-1.22-1-1.84,13.14-5.41,26.26-10.88,39.42-16.23,16.24-6.61,32.51-13.12,48.77-19.66Z" transform="translate(-2 -2)"/><path class="cls-60" d="M1615.15,1686.14l5.47-10.62c1.72,6.91-2.38,8.51-3.45,11.66Z" transform="translate(-2 -2)"/><path class="cls-61" d="M1226.56,2046.6l-10,5c1.57-4.7,5.43-5.52,8.89-7C1225.85,2045.28,1226.21,2045.94,1226.56,2046.6Z" transform="translate(-2 -2)"/><path class="cls-62" d="M1132.23,1312.79c2.78-3.93-.37-7-1.74-10.11q-24.3-54.77-48.85-109.43-11.82-26.43-23.61-52.89c-1-2.35-1.77-4.85-3.16-8.71,11.66,1.13,22.16,2.13,32.65,3.19q47.18,4.73,94.34,9.49c4.83,1.21,7.62,4.2,9.6,8.89,6.19,14.62,12.88,29,19.38,43.52l11,25.58c.26.82.53,1.64.79,2.46q3.67,8.87,7.36,17.72,3,6.81,6.08,13.63,13.86,31,27.71,61.91c-6.57-.65-13.12-1.63-19.71-1.89-21.16-.84-42.32-1.61-63.49-2-15.91-.33-31.83-.09-47.75-.11A3.39,3.39,0,0,0,1132.23,1312.79Z" transform="translate(-2 -2)"/><path class="cls-26" d="M1230,1242.51q-3.69-8.87-7.37-17.73,57.66,5.29,115.33,10.57c11.27,1,22.55,1.94,33.82,2.9,3.7,1.34,6.34,3.28,5.79,7.92-.48,3.93-.43,7.93-.61,11.9-4.63-.16-9.29-.06-13.89-.51-32.28-3.18-64.56-6.33-96.81-9.81C1254.11,1246.44,1242.06,1244.28,1230,1242.51Z" transform="translate(-2 -2)"/><path class="cls-63" d="M1376.94,1258.07c.18-4,.13-8,.61-11.9.55-4.64-2.09-6.58-5.79-7.92,10.34-1.85,20.76-3.39,31-5.63,19.65-4.29,39.19-9,58.81-13.43,3.48-.78,7.16-.64,10.75-.92q-.33,9.78-.65,19.56l.25.42a48.86,48.86,0,0,0-6.87.61q-43.6,10-87.17,20.2A1.45,1.45,0,0,0,1376.94,1258.07Z" transform="translate(-2 -2)"/><path class="cls-64" d="M1302,1172c9.33-7.11,18.42-14.64,30-18C1322.67,1161.12,1313.58,1168.64,1302,1172Z" transform="translate(-2 -2)"/><path class="cls-51" d="M1654,1693.21l6.83-1.17c-2,4.48-4.33,4-6.76,3.23Z" transform="translate(-2 -2)"/><path class="cls-65" d="M1320.34,1796.58a1.32,1.32,0,0,0,.78,1.34c-3.36,2-6.59,4.27-10.09,6q-95.51,46.72-191.07,93.33c-2.38,1.16-4.87,2.1-7.31,3.14-4.36-1.55-8.89-2.75-13.05-4.72-18.89-8.91-37.67-18-56.48-27.1l-51-24.62c2.88-1.91,5.61-4.14,8.68-5.67,5.8-2.89,11.8-5.38,17.71-8,10.82-4.08,21.72-7.94,32.44-12.27,21.17-8.53,42.23-17.31,63.33-26a60.27,60.27,0,0,0,7.64-2c21-8.39,42.14-16.35,62.73-25.58,11.06-5,20.89-5.14,32.35-1.22C1251.21,1774.91,1285.85,1785.53,1320.34,1796.58Zm-132.21,7.19c-.18-.48-.35-1-.52-1.44l-5.56,2,.52,1.48Z" transform="translate(-2 -2)"/><path class="cls-66" d="M1018.47,1830.23c-5.91,2.66-11.91,5.15-17.71,8-3.07,1.53-5.8,3.76-8.68,5.67,0,36.88,0,73.76.15,110.64,0,5.93.73,11.85,1.12,17.78-15.59-8.73-31.19-17.42-46.72-26.25-1.65-.94-2.83-2.7-4.23-4.08,0-17.6-.12-35.19,0-52.79.08-16.58.33-33.17.51-49.75q.54-13.87,1.08-27.74c.15-3.48.35-7,.6-11.92Z" transform="translate(-2 -2)"/><path class="cls-67" d="M344,1618.38l-22.34,8.31c-.27-.7-.54-1.41-.82-2.12l22.14-8.76Z" transform="translate(-2 -2)"/><path class="cls-68" d="M1571.16,1906.84c-.42-1.9-.85-3.8-1.27-5.7l1.18-.56a14.8,14.8,0,0,1,1.61,3,11.86,11.86,0,0,1,0,3.1Z" transform="translate(-2 -2)"/><path class="cls-69" d="M1047.09,2143.19l8.61,20.3-2.21,1q-4.5-10.2-9-20.38Z" transform="translate(-2 -2)"/><path class="cls-70" d="M964,1339.75q15.93,39.32,31.87,78.62c1.63,4,3.41,7.94,5.1,11.91,2.49.48,5,1.51,7.49,1.37,8.62-.48,17.22-1.36,25.84-2.09l42.71-2,8.69,1.5c.51,31.44,1,62.22,1.51,93-2.59-.4-5.23-.62-7.78-1.23q-24.64-5.89-49.25-11.93a13.6,13.6,0,0,0-1.76-.51,62.13,62.13,0,0,0-6.55-2.19c-39.66-8.84-79.37-17.43-119-26.5-14.44-3.3-28.61-7.72-42.91-11.64l-9.86-3.9-.77-1.92.57-2.19,9.77,1.41.24-1.84-10-1.56L848,1374.67c15.36-4.08,30.87-7.67,46-12.35,19.94-6.16,39.61-13.22,59.43-19.81C956.9,1341.37,960.47,1340.66,964,1339.75Z" transform="translate(-2 -2)"/><path class="cls-71" d="M280,1105.94c15-9.14,29.86-18.51,45-27.37,24.36-14.22,48.88-28.16,73.39-42.13,23.36-13.31,46.83-26.4,70.16-39.77C483.8,988,498.86,978.91,514,970l10.08-6c6.88-3.8,13.78-7.58,20.64-11.41,3-1.67,6-2.81,9.17-.58q2,5,4.1,9.94c.76,5.46-2.22,8.66-6.59,11.11q-16.5,9.28-32.94,18.64-43.34,24.56-86.66,49.08-27.33,15.42-54.76,30.65c-28.71,16-57.38,32.09-86.2,47.89-15.14,8.31-30.56,16.12-45.88,24.1-1.76.92-3.68,2.07-5.54,2.09-2.81,0-6.65.07-8.14-1.6-1.22-1.38.34-5.23.66-8a16.54,16.54,0,0,0,3.73-1.15c12.08-7.28,24.17-14.55,36.12-22C274.78,1110.91,277.27,1108.25,280,1105.94Z" transform="translate(-2 -2)"/><path class="cls-72" d="M602.56,1629.66a10.4,10.4,0,0,1,1.58.11c3.07.67,6.16,2,9.21,1.89,10.86-.25,21.71-1,32.56-1.5.61,3.54,1.64,7.07,1.74,10.62.31,11.62.27,23.25.37,34.87-16.89,5.52-33.77,11.08-50.68,16.54-8.43,2.73-16.92,5.28-25.38,7.91q14.38-31.85,28.75-63.73A43.68,43.68,0,0,0,602.56,1629.66Z" transform="translate(-2 -2)"/><path class="cls-73" d="M942.86,1839.48c-.18,16.59-.43,33.18-.51,49.76-.07,17.6,0,35.19,0,52.79-.9,1.91-1.8,3.8-2.71,5.7-13.4,5.88-26.9,11.56-40.19,17.67-28.74,13.22-57.38,26.66-86.08,40-1.73.81-3.62,1.31-6.66,2.38-.29-3.94-.69-7.08-.74-10.23q-1.17-67.43-2.32-134.84c-.05-2.89-.94-5.76-1.44-8.65,0-.55-.11-1.12-.18-1.68,4.72-1.49,9.55-2.71,14.15-4.52q61.95-24.37,123.84-48.92c4,2,2.39,5.79,2.47,8.85C942.8,1818.33,942.77,1828.91,942.86,1839.48Z" transform="translate(-2 -2)"/><path class="cls-74" d="M940.07,1798.91q-61.91,24.48-123.84,48.92c-4.6,1.81-9.43,3-14.15,4.52-17.05-8.32-34.17-16.52-51.15-25q-97.53-48.6-195-97.35c-3.19-1.59-6.31-3.32-10.93-5.76,3.33-1.79,5.1-3.09,7.09-3.77q51.06-17.48,102.18-34.74c3.68-1.24,7.78-1.24,11.69-1.82q60.43,25,120.88,50c23.38,9.64,46.82,19.11,70.23,28.66l3.14,1.44c3.77,2,7.42,4.23,11.33,5.9C894.37,1779.7,917.23,1789.28,940.07,1798.91Z" transform="translate(-2 -2)"/><path class="cls-75" d="M857.11,1762.64c-23.42-9.55-46.86-19-70.24-28.66q-60.48-24.95-120.88-50l-1.63-2.15c-.1-4-.26-8-.32-11.93q-1.2-83-2.38-166l2-.12c14.69,4.15,29.4,8.21,44.05,12.48q41.56,12.11,83.08,24.4c18.14,5.34,36.31,10.59,54.37,16.2,3.26,1,6,3.59,9,5.44q.72,36.87,1.44,73.76,1.07,57.35,2.05,114.68C857.76,1754.69,857.32,1758.67,857.11,1762.64ZM842,1570.21c-.75,3.86-1.77,7.14-1.95,10.46-.83,15.24-1.41,30.5-2.14,45.75-.07,1.64-.06,3.6-.93,4.81-1.2,1.67-3,3.41-4.91,3.83-.92.21-3.21-2.24-3.66-3.84a232.75,232.75,0,0,1-8.38-57.91c-.09-3.49.34-7,.58-11.36-13.85,2.16-24-7.34-37-8-12.14-.6-24-6.86-36-10.32-12.33-3.54-24.78-6.24-36.8-11.26-11.17-4.67-23.62-6.27-35.85-9.31-3,14.49-.35,28.46,1.75,42,2.42,15.55,3.88,31,3.22,46.61-.83,19.54-2.23,39-3.57,58.56-.36,5.26,2.13,8,6.64,9.77,8.62,3.38,17.08,7.19,25.79,10.29,27.83,9.91,53.82,24.25,82,33.38a196.79,196.79,0,0,1,37,16c7.76,4.44,15.07,2.82,23.56,3.75a90.66,90.66,0,0,0,.54-9.24c-.51-11.82-1.51-23.62-1.73-35.43-.16-8.62,1-17.25.93-25.87-.37-31.51-1.09-63-1.52-94.52C849.45,1573.93,847.44,1571.8,842,1570.21Z" transform="translate(-2 -2)"/><path class="cls-76" d="M645.91,1630.16c-10.85.54-21.7,1.25-32.56,1.5-3.05.07-6.14-1.22-9.21-1.89l7.92-18,19.5-.1,15,1A21.32,21.32,0,0,1,645.91,1630.16Z" transform="translate(-2 -2)"/><path class="cls-77" d="M854.21,1562.27c-3-1.85-5.78-4.43-9-5.44-18.06-5.61-36.23-10.86-54.37-16.2q-41.53-12.24-83.08-24.4c-14.65-4.27-29.36-8.33-44.05-12.48,20.33-4.54,40.6-9.33,61-13.56,40.53-8.42,81.12-16.53,121.68-24.79a30.4,30.4,0,0,0,3.76-1.3L860,1468l-3.66.51c-.09.58-.18,1.16-.28,1.74L978.94,1503l-.45,2.3c-8.86-1.44-17.82-2.46-26.56-4.41-17.38-3.88-34.6-8.44-52-12.38-18.41-4.18-36.92-7.93-55.37-12-6.74-1.46-13.56-4.34-19.31,2.4-.54.64-1.83.69-2.79.92-20,4.67-40,9.57-60,13.94-21.36,4.64-42.83,8.76-64.24,13.19-.26,0-.32,1.1-.66,2.39,4.18.89,8.34,1.79,12.51,2.64,12.66,2.58,25.43,4.68,37.94,7.83,17.09,4.3,33.83,10,51,14,17.35,4,33,13.06,50.76,15.89,3.34.53,6.37,3,10.19,4.93l20.5-6.39,3.64,3.79c-1.81.74-3.59,1.58-5.44,2.2C870.52,1557,862.36,1559.6,854.21,1562.27Z" transform="translate(-2 -2)"/><path class="cls-78" d="M849.91,1458l10,1.56-.24,1.84L849.9,1460A6,6,0,0,1,849.91,1458Z" transform="translate(-2 -2)"/><path class="cls-43" d="M1447.46,970c55.4-38.94,105.75-81.26,158.28-120.73,1-.72,2.46-.7,4.69-1.29,3.92,6,7.85,11.9,11.61,17.61-11.43,16-25.62,27.5-39.84,38.93q-30.29,24.33-60.52,48.73c-16.3,13.16-32.75,26.09-51.43,35.87-6.45,3.38-6.48,3.63-11.09-2.52C1455.23,981.35,1451.59,975.89,1447.46,970Z" transform="translate(-2 -2)"/><path class="cls-79" d="M1034.27,1429.56c-8.62.73-17.22,1.61-25.84,2.09-2.47.14-5-.89-7.49-1.37,9.65-10.94,19.4-21.79,28.9-32.85,22.51-26.21,44.87-52.54,67.35-78.77,2.63-3.08,5.28-6,4.5-10.46,3.6,1.26,7.12,3.21,10.82,3.65,6.52.79,13.14.67,19.72.93a3.52,3.52,0,0,1,.58,1.22c-2.28,2.4-4.68,4.69-6.83,7.2q-39.49,46-78.89,92C1042.6,1418.48,1038.53,1424.1,1034.27,1429.56Z" transform="translate(-2 -2)"/><path class="cls-80" d="M967.38,1232.06c6.64-11.46,13.84-22.49,24.06-31.16C985.37,1212.8,976.64,1222.64,967.38,1232.06Z" transform="translate(-2 -2)"/><path class="cls-81" d="M1013.93,1116.45l12.48,25.4Z" transform="translate(-2 -2)"/><path class="cls-82" d="M280,1105.94c-2.71,2.31-5.2,5-8.18,6.85-11.95,7.49-24,14.76-36.12,22A16.54,16.54,0,0,1,232,1136c1.81-1.87,3.34-4.17,5.47-5.53q17-10.85,34.38-21.24C274.28,1107.72,277.24,1107,280,1105.94Z" transform="translate(-2 -2)"/><path class="cls-30" d="M524.09,964.05,514,970Z" transform="translate(-2 -2)"/><path class="cls-55" d="M1194.07,721.88l-.33,2.26c-6-3-12.21-5.24-19.1-3.35-4,1.11-7.4-.22-9.49-3.56-2.35-3.74-.72-7,2.54-9.47l.68.61c-1,9.26-.73,9.74,8.06,9.31C1182.76,717.37,1188.82,717.81,1194.07,721.88Z" transform="translate(-2 -2)"/><path class="cls-83" d="M1352.37,604.6a41.32,41.32,0,0,1,23.15,7.28,12.43,12.43,0,0,1,4.12,4.07c.57,1.12.14,3.19-.58,4.39a3.6,3.6,0,0,1-3.44.84,66.59,66.59,0,0,0-23.08-8.22c-1-.18-1.38-4.34-2-6.66C1351.13,605.74,1351.75,605.17,1352.37,604.6Z" transform="translate(-2 -2)"/><path class="cls-84" d="M1194.07,721.88c-5.25-4.07-11.31-4.51-17.64-4.2-8.79.43-9.11,0-8.06-9.31a3,3,0,0,0,1.63-.32c7.55.61,15.2.71,22.63,2.06,3.68.67,7.25,3.26,10.29,5.71,1.37,1.1,1.31,4,1.9,6-2,.56-4,1.47-6.09,1.54C1197.19,723.46,1195.62,722.43,1194.07,721.88Z" transform="translate(-2 -2)"/><path class="cls-85" d="M1488.12,1438.06c.6,8.25,1.48,16.5,1.72,24.76.35,11.6.21,23.22.28,34.84,0,9.32-.14,18.64-.1,27.95q.06,13,.36,25.94c.41,17.57.91,35.14,1.28,52.71,0,.86-.77,1.75-1.45,3.18a21.75,21.75,0,0,1-4.63,0c-10.95-2.32-21.82-5-32.81-7.11-15.86-3-31.81-5.67-47.72-8.53-3.9-.7-6.76-2.45-7-7-.57-9.59-1.55-19.16-2-28.75-.51-12-.5-24-.91-36-1-28.46-2.15-56.92-3.13-85.38-.46-13.6-.61-27.22-1-40.83-.19-6.11,2.16-8.06,8.61-6.93,10.43,1.83,20.85,3.71,31.32,5.27,14.42,2.15,28.91,3.86,43.32,6.05,10.39,1.58,11.66,3.28,11.76,13.5,0,4.66-.26,9.34.09,14C1486.4,1429.81,1487.41,1433.92,1488.12,1438.06Z" transform="translate(-2 -2)"/><path class="cls-86" d="M1488.12,1438.06c-.71-4.14-1.72-8.25-2-12.42-.35-4.63,0-9.31-.09-14-.1-10.22-1.37-11.92-11.76-13.5-14.41-2.19-28.9-3.9-43.32-6.05-10.47-1.56-20.89-3.44-31.32-5.27-6.45-1.13-8.8.82-8.61,6.93.43,13.61.58,27.23,1,40.83,1,28.46,2.14,56.92,3.13,85.38.41,12,.4,24,.91,36,.41,9.59,1.39,19.16,2,28.75.27,4.59,3.13,6.34,7,7,15.91,2.86,31.86,5.49,47.72,8.53,11,2.11,21.86,4.79,32.81,7.11a21.75,21.75,0,0,0,4.63,0c.68-1.43,1.47-2.32,1.45-3.18-.37-17.57-.87-35.14-1.28-52.71q-.29-13-.36-25.94c0-9.31.06-18.63.1-27.95.52,2.55,1.41,5.1,1.5,7.67.88,24.85,1.58,49.7,2.43,74.55.41,11.91,1,23.82,1.55,35.73l-3.23.32c-5.14-1.32-10.24-2.78-15.42-3.93q-45.21-10.05-90.45-20c0-3.93,0-7.87-.09-11.8q-.33-25.07-.68-50.14c4.25-6.81,1.67-14,2-21l-2.06-.07v19.53a66.86,66.86,0,0,1-.88-6.87c-.93-32.29-1.93-64.58-2.61-96.87-.34-16.28-.07-32.57-.08-48.85,23.19,3.4,46.4,6.73,69.58,10.22,11.75,1.76,23.45,3.78,35.18,5.69l1,1.84Q1488,1415.9,1488.12,1438.06Z" transform="translate(-2 -2)"/><path class="cls-87" d="M1581.51,1355.39l-6.43.61c-11.47-1.31-22.92-2.72-34.4-3.91-21.68-2.25-43.37-4.38-65.06-6.56-.5-2.25-1.37-4.48-1.46-6.75-.78-19.88-1.58-39.76-2.06-59.65-.32-13.62-.12-27.25-.16-40.88l-.25-.42q45.35,2.25,90.7,4.53c4.88.26,9.74,1,15.19,1.58C1578.91,1281.69,1580.21,1318.54,1581.51,1355.39Z" transform="translate(-2 -2)"/><path class="cls-88" d="M1386.5,1592q45.24,10,90.45,20c5.18,1.15,10.28,2.61,15.42,3.93-4.64,2.52-9.11,5.42-13.94,7.49q-76,32.52-152.1,64.86a43.61,43.61,0,0,0-5.77,3.6l-.76.41a12.66,12.66,0,0,0-2.6-1.46q-66.56-19.42-133.12-38.79-34.95-10.2-69.86-20.55c2.34-1.15,4.6-2.51,7-3.44,21.06-8,42.18-15.85,63.22-23.89q45.49-17.37,90.91-34.91c3.28.4,6.62.55,9.84,1.24,18.84,4,37.63,8.27,56.46,12.29C1356.6,1586,1371.56,1589,1386.5,1592Z" transform="translate(-2 -2)"/><path class="cls-89" d="M1114.22,1631.49q34.93,10.27,69.86,20.55,66.56,19.43,133.12,38.79a12.66,12.66,0,0,1,2.6,1.46c.79,23.1,1.51,46.2,2.42,69.3.35,8.9,1.17,17.77,1.66,26.67.18,3.28.52,6.79-3.55,8.32-34.48-11-69.12-21.67-103.37-33.39-11.46-3.92-21.29-3.75-32.35,1.22-20.59,9.23-41.76,17.19-62.73,25.58a60.27,60.27,0,0,1-7.64,2q-.29-28.62-.56-57.24c.23-3.64.7-7.28.66-10.91-.31-29.55-.74-59.08-1.07-88.63A14.83,14.83,0,0,1,1114.22,1631.49Z" transform="translate(-2 -2)"/><path class="cls-90" d="M1475.62,1345.53c21.69,2.18,43.38,4.31,65.06,6.56,11.48,1.19,22.93,2.6,34.4,3.91-16.26,6.55-32.53,13.06-48.77,19.67-13.16,5.35-26.28,10.82-39.42,16.23-11.74-1.91-23.44-3.93-35.19-5.69-23.18-3.49-46.39-6.82-69.58-10.22q1.17-1.87,2.36-3.73Z" transform="translate(-2 -2)"/><path class="cls-91" d="M1384.48,1372.26q-1.18,1.86-2.36,3.73c0,16.28-.26,32.57.08,48.85.68,32.29,1.68,64.58,2.61,96.87a66.86,66.86,0,0,0,.88,6.87,1.11,1.11,0,0,0,0,1.51q.35,25.08.68,50.14c0,3.93.06,7.87.09,11.8-14.94-3.08-29.9-6.06-44.82-9.25-18.83-4-37.62-8.26-56.46-12.29-3.22-.69-6.56-.84-9.84-1.24-1.55-.52-3.07-1.15-4.66-1.53Q1185,1547,1099.27,1526.28c-4.13-1-8.06-2.83-12.09-4.27-.5-30.78-1-61.56-1.51-93l-8.7-1.49,13-1.41c22.85-.76,45.7-1.31,68.52-2.51,3.46-.18,7.4-2.76,10-5.33,14.47-14.14,28.64-28.58,42.8-43,2-2.08,3.48-4.74,5.2-7.14,15.09-14.9,30.22-29.76,45.19-44.78,1.23-1.23,1.41-3.49,2.08-5.28q-13.85-31-27.71-61.91-3-6.81-6.08-13.63c12.09,1.78,24.14,3.94,36.27,5.25,32.25,3.48,64.53,6.63,96.81,9.81,4.6.45,9.26.35,13.89.51a1.45,1.45,0,0,1,1,1q1.06,52.21,2.15,104.44c0,1.66-.28,3.57.43,4.9C1381.32,1370,1383.11,1371,1384.48,1372.26Z" transform="translate(-2 -2)"/><path class="cls-92" d="M1263.76,1318c-.67,1.79-.85,4-2.08,5.28-15,15-30.1,29.88-45.19,44.78a77.76,77.76,0,0,0-7,5.46c-7.6,7.41-15,15-22.56,22.47-8.46,8.36-11.28,7.65-15.56-3.7-.19-.5-1-.77-2.44-1.86a123.18,123.18,0,0,0-8.74,8.68c-1.12,1.32-1.47,3.58-1.56,5.44-.25,5.68-.21,11.36-.28,16.94-20.3.87-39.16,1.58-58,2.54-3.5.18-6.95,1.33-10.42,2l-13,1.4-42.7,2c4.26-5.46,8.33-11.08,12.82-16.34q39.35-46.1,78.89-92c2.15-2.51,4.55-4.8,6.83-7.2,15.92,0,31.84-.22,47.75.11,21.17.43,42.33,1.2,63.49,2C1250.64,1316.41,1257.19,1317.39,1263.76,1318Z" transform="translate(-2 -2)"/><path class="cls-93" d="M1384.48,1372.26c-1.37-1.27-3.16-2.31-4-3.86-.71-1.33-.39-3.24-.43-4.9q-1.1-52.21-2.15-104.44,43.57-10.11,87.17-20.2a48.86,48.86,0,0,1,6.87-.61c0,13.63-.16,27.26.16,40.88.48,19.89,1.28,39.77,2.06,59.65.09,2.27,1,4.5,1.46,6.75Z" transform="translate(-2 -2)"/><path class="cls-94" d="M1113.68,1734.73q.27,28.62.56,57.24c-21.1,8.68-42.16,17.46-63.33,26-10.72,4.33-21.62,8.19-32.44,12.27l-73.93-30.4c-.25,5-.45,8.44-.6,11.92q-.56,13.88-1.08,27.74c-.09-10.58-.06-21.16-.32-31.73-.08-3.06,1.52-6.81-2.47-8.85-22.84-9.63-45.7-19.21-68.5-28.93-3.91-1.67-7.56-3.92-11.33-5.9,2.71-1.25,5.35-2.67,8.14-3.72q80.8-30.46,161.64-60.85c7.72,3.06,15.51,6,23.16,9.21C1073.38,1717.31,1093.51,1726.05,1113.68,1734.73Z" transform="translate(-2 -2)"/><path class="cls-95" d="M1188.13,1803.77l-5.56,2-.52-1.48,5.56-2C1187.78,1802.81,1188,1803.29,1188.13,1803.77Z" transform="translate(-2 -2)"/><path class="cls-96" d="M1030,1699.51q-80.82,30.42-161.64,60.85c-2.79,1.05-5.43,2.47-8.14,3.72l-3.14-1.44c.22-4,.66-8,.6-11.93q-.94-57.35-2.05-114.68-.67-36.88-1.44-73.76c8.15-2.67,16.31-5.32,24.44-8,1.85-.62,3.63-1.46,5.44-2.2a14.43,14.43,0,0,0,3-.26q66.69-19.77,133.35-39.67c2.79-.83,5.33-2.5,8-3.78a13.6,13.6,0,0,1,1.76.51c-.05,4-.15,8-.15,12Q1030,1610.15,1030,1699.51Z" transform="translate(-2 -2)"/><path class="cls-97" d="M1030,1699.51q0-89.35,0-178.7c0-4,.1-8,.15-12q24.61,6,49.25,11.93c2.55.61,5.19.83,7.78,1.23,4,1.45,8,3.28,12.09,4.28q85.71,20.81,171.45,41.44c1.59.38,3.11,1,4.66,1.53q-45.45,17.46-90.91,34.91c-21,8-42.16,15.89-63.22,23.89-2.43.93-4.69,2.29-7,3.44a14.83,14.83,0,0,0-1,3.7c.33,29.55.76,59.08,1.07,88.63,0,3.63-.43,7.27-.66,10.91-20.17-8.68-40.3-17.42-60.5-26C1045.53,1705.46,1037.74,1702.57,1030,1699.51Z" transform="translate(-2 -2)"/><path class="cls-98" d="M1028.39,1508.33c-2.66,1.28-5.2,3-8,3.78q-66.64,19.94-133.35,39.67a14.43,14.43,0,0,1-3,.26l-3.64-3.79-20.5,6.39c-3.82-1.91-6.85-4.4-10.19-4.93-17.71-2.83-33.41-11.87-50.76-15.89-17.15-4-33.89-9.69-51-14-12.51-3.15-25.28-5.25-37.94-7.83-4.17-.85-8.33-1.75-12.51-2.64.34-1.29.4-2.34.66-2.39,21.41-4.43,42.88-8.55,64.24-13.19,20.07-4.37,40-9.27,60-13.94,1-.23,2.25-.28,2.79-.92,5.75-6.74,12.57-3.86,19.31-2.4,18.45,4,37,7.77,55.37,12,17.36,3.94,34.58,8.5,52,12.38,8.74,2,17.7,3,26.56,4.41l.45-2.3L856,1470.25c.1-.58.19-1.16.28-1.74L860,1468c14.3,3.92,28.47,8.34,42.91,11.64,39.6,9.07,79.31,17.66,119,26.5A62.13,62.13,0,0,1,1028.39,1508.33Z" transform="translate(-2 -2)"/><path class="cls-99" d="M842,1570.21c5.42,1.59,7.43,3.72,7.49,8.18.43,31.51,1.15,63,1.52,94.52.1,8.62-1.09,17.25-.93,25.87.22,11.81,1.22,23.61,1.73,35.43a90.66,90.66,0,0,1-.54,9.24c-8.49-.93-15.8.69-23.56-3.75a196.79,196.79,0,0,0-37-16c-28.18-9.13-54.17-23.47-82-33.38-8.71-3.1-17.17-6.91-25.79-10.29-4.51-1.77-7-4.51-6.64-9.77,1.34-19.51,2.74-39,3.57-58.56.66-15.61-.8-31.06-3.22-46.61-2.1-13.54-4.77-27.51-1.75-42,12.23,3,24.68,4.64,35.85,9.31,12,5,24.47,7.72,36.8,11.26,12,3.46,23.87,9.72,36,10.32,13,.66,23.18,10.16,37,8-.24,4.37-.67,7.87-.58,11.36a232.75,232.75,0,0,0,8.38,57.91c.45,1.6,2.74,4,3.66,3.84,1.87-.42,3.71-2.16,4.91-3.83.87-1.21.86-3.17.93-4.81.73-15.25,1.31-30.51,2.14-45.75C840.25,1577.35,841.27,1574.07,842,1570.21Z" transform="translate(-2 -2)"/><path class="cls-100" d="M1385.73,1530.09a1.11,1.11,0,0,1,0-1.51v-19.53l2.06.07C1387.4,1516.13,1390,1523.28,1385.73,1530.09Z" transform="translate(-2 -2)"/><path class="cls-101" d="M1089.94,1426.11c3.47-.71,6.92-1.86,10.42-2,18.85-1,37.71-1.67,58-2.54.07-5.58,0-11.26.28-16.94.09-1.86.44-4.12,1.56-5.44a123.18,123.18,0,0,1,8.74-8.68c1.46,1.09,2.25,1.36,2.44,1.86,4.28,11.35,7.1,12.06,15.56,3.7,7.55-7.46,15-15.06,22.56-22.47a77.76,77.76,0,0,1,7-5.46c-1.72,2.4-3.16,5.06-5.2,7.14-14.16,14.45-28.33,28.89-42.8,43-2.63,2.57-6.57,5.15-10,5.33C1135.64,1424.8,1112.79,1425.35,1089.94,1426.11Z" transform="translate(-2 -2)"/><text class="cls-102" transform="translate(285.31 991.02) rotate(-29.78)">bu<tspan class="cls-103" x="369.27" y="0">t</tspan><tspan x="483.12" y="0">cher</tspan></text><text class="cls-104" transform="translate(2127.18 1870.7) rotate(-90.08)">ww<tspan class="cls-105" x="107.7" y="0">w</tspan><tspan x="158.47" y="0">.</tspan><tspan class="cls-106" x="177.15" y="0">r</tspan><tspan class="cls-107" x="202.87" y="0">s</tspan><tspan x="232.8" y="0">tudi</tspan><tspan class="cls-108" x="359.02" y="0">o</tspan><tspan class="cls-109" x="398.92" y="0">.</tspan><tspan class="cls-110" x="416.77" y="0">c</tspan><tspan x="449.39" y="0">om</tspan></text></g></g></svg>