<?xml version="1.0" encoding="UTF-8" standalone="no"?>
<svg
   xmlns:dc="http://purl.org/dc/elements/1.1/"
   xmlns:cc="http://creativecommons.org/ns#"
   xmlns:rdf="http://www.w3.org/1999/02/22-rdf-syntax-ns#"
   xmlns:svg="http://www.w3.org/2000/svg"
   xmlns="http://www.w3.org/2000/svg"
   width="43.994091mm"
   height="50.800003mm"
   viewBox="0 0 155.88458 180.00001"
   id="svg4158"
   version="1.1">
  <defs
     id="defs4160" />
  <metadata
     id="metadata4163">
    <rdf:RDF>
      <cc:Work
         rdf:about="">
        <dc:format>image/svg+xml</dc:format>
        <dc:type
           rdf:resource="http://purl.org/dc/dcmitype/StillImage" />
        <dc:title></dc:title>
      </cc:Work>
    </rdf:RDF>
  </metadata>
  <path
     style="fill:#9bc4e2;fill-opacity:1;stroke:#231f20;stroke-width:5.30753756;stroke-miterlimit:4;stroke-dasharray:none;stroke-dashoffset:0;stroke-opacity:1"
     id="path4220"
     d="M 153.23082,133.46785 77.942291,176.9357 2.6537668,133.46785 l 4e-7,-86.9357 L 77.942292,3.0643005 153.23082,46.532151 Z" />
  <path
     style="fill:#231f20;fill-opacity:1"
     d="m 112.43616,132.55916 -12.08835,0.0582 0,-20.82858 0,-20.828573 11.99979,0.05921 11.99979,0.05921 1.77119,0.480576 c 0.97415,0.264318 2.52392,0.843599 3.44393,1.287292 0.92,0.443693 2.15541,1.152798 2.74534,1.575791 0.58992,0.422991 1.67637,1.395309 2.41433,2.160706 0.73795,0.765399 1.68453,1.900234 2.10352,2.521856 0.41898,0.621623 1.06459,1.777327 1.43469,2.568217 0.3701,0.7909 0.84027,2.07563 1.04482,2.85495 0.20456,0.77932 0.44823,2.13428 0.54148,3.01102 0.0933,0.87673 0.17029,2.82947 0.17118,4.3394 8.9e-4,1.50994 -0.0764,3.42584 -0.17168,4.25756 -0.0953,0.83171 -0.3312,2.12959 -0.52419,2.88416 -0.19299,0.75457 -0.66937,2.05158 -1.05863,2.88224 -0.38926,0.83066 -1.07419,2.06149 -1.52205,2.73517 -0.44786,0.67369 -1.39527,1.81154 -2.10535,2.52857 -0.71008,0.71703 -1.98061,1.76249 -2.82339,2.32326 -0.84278,0.56077 -2.15198,1.28092 -2.90934,1.60033 -0.75736,0.31941 -2.0524,0.76759 -2.87787,0.99596 -1.49582,0.41382 -1.54147,0.41541 -13.58921,0.47344 z m 1.71133,-5.27136 c 6.66234,0 8.77344,-0.055 9.82306,-0.2558 0.73532,-0.14069 1.82062,-0.45117 2.41178,-0.68995 0.59116,-0.23878 1.52961,-0.70152 2.08544,-1.02831 0.55583,-0.32679 1.60961,-1.19795 2.34172,-1.9359 0.73212,-0.73796 1.60397,-1.80077 1.93745,-2.3618 0.33348,-0.56102 0.83303,-1.66067 1.1101,-2.44365 0.29718,-0.83979 0.58479,-2.15923 0.70134,-3.21744 0.11821,-1.0733 0.15534,-3.03888 0.0924,-4.89343 -0.0804,-2.36997 -0.19311,-3.41226 -0.47887,-4.42796 -0.20556,-0.73062 -0.60289,-1.80893 -0.88295,-2.39625 -0.28007,-0.58732 -0.91189,-1.59978 -1.40405,-2.24991 -0.49216,-0.65013 -1.39316,-1.588945 -2.00221,-2.08626 -0.60906,-0.497316 -1.74501,-1.212976 -2.52433,-1.590358 -0.77932,-0.377381 -1.89517,-0.825543 -2.47966,-0.995915 -0.93548,-0.272679 -2.14953,-0.317765 -10.14005,-0.376554 l -9.07733,-0.06679 0,15.508135 0,15.50814 8.48612,0 z m 2.63514,-5.31356 -5.63058,0 0,-10.09577 0,-10.09576 5.57052,0 c 3.45293,0 5.92732,0.0758 6.50911,0.1993 0.51623,0.10962 1.40927,0.43583 1.98453,0.72492 0.57527,0.28908 1.42727,0.9171 1.89334,1.39559 0.46607,0.47849 1.09811,1.37926 1.40454,2.00171 0.35896,0.72915 0.59202,1.5164 0.6552,2.21315 l 0.0981,1.08143 -2.68138,0 c -2.43536,0 -2.68144,-0.0284 -2.68204,-0.30995 -3.5e-4,-0.17048 -0.16151,-0.57379 -0.35811,-0.89626 -0.1966,-0.32246 -0.63211,-0.70105 -0.96781,-0.84131 -0.44239,-0.18484 -1.36817,-0.25502 -3.36426,-0.25502 l -2.75393,0 0.0472,4.73792 0.0472,4.73793 2.69578,0.0489 c 2.05647,0.0373 2.84312,-0.0127 3.31709,-0.21074 0.34173,-0.14278 0.78218,-0.52343 0.97878,-0.84589 0.1966,-0.32247 0.35775,-0.72578 0.35811,-0.89626 5.3e-4,-0.28152 0.24668,-0.30995 2.68204,-0.30995 l 2.68138,0 -0.0945,1.04266 c -0.0583,0.64275 -0.30918,1.49239 -0.65412,2.21516 -0.32,0.67048 -0.93937,1.55228 -1.44662,2.05952 -0.48787,0.48787 -1.27924,1.08579 -1.7586,1.3287 -0.47936,0.24291 -1.32802,0.56054 -1.88591,0.70586 -0.79618,0.20738 -2.22535,0.2642 -6.64493,0.2642 z m -24.582279,7.08474 -2.65678,0 0,-19.04025 0,-19.040258 2.65678,0 2.65678,0 0,19.040258 0,19.04025 -2.65678,0 z m -10.62712,-3.54237 -2.65678,0 0,-17.26907 0,-17.269068 2.65678,0 2.65678,0 0,17.269068 0,17.26907 -2.65678,0 z m -10.804239,-3.71949 -2.65678,0 0,-15.40932 0,-15.409328 2.65678,0 2.65678,0 0,15.409328 0,15.40932 -2.65678,0 z m -10.80424,-3.54237 -2.65678,0 0,-13.63814 0,-13.638138 2.65678,0 2.656781,0 0,13.638138 0,13.63814 -2.656781,0 z m -10.62712,-3.54238 -2.65678,0 0,-11.86695 0,-11.866948 2.65678,0 2.65678,0 0,11.866948 0,11.86695 -2.65678,0 z M 38.533393,111.17 l -2.65678,0 0,-10.09576 0,-10.095768 2.65678,0 2.65678,0 0,10.095768 0,10.09576 -2.65678,0 z m -10.627121,-3.54237 -2.65678,0 0,-8.324581 0,-8.324577 2.65678,0 2.65678,0 0,8.324577 0,8.324581 -2.65678,0 z m -10.804239,-3.7195 -2.65678,0 0,-6.464827 0,-6.464831 2.65678,0 2.65678,0 0,6.464831 0,6.464827 -2.65678,0 z m 3.276696,-18.470293 c -1.548309,0.04533 -2.136215,-0.0098 -2.863575,-0.268574 -0.503397,-0.179092 -1.201538,-0.543971 -1.551423,-0.810841 -0.349885,-0.26687 -0.799226,-0.804866 -0.998537,-1.195545 -0.19931,-0.390682 -0.406426,-1.083469 -0.460259,-1.539528 -0.05383,-0.456061 -0.0046,-1.175165 0.109488,-1.598009 0.119958,-0.444741 0.503014,-1.089546 0.908757,-1.529724 0.385764,-0.418507 1.118003,-0.946953 1.627198,-1.174325 0.784836,-0.350458 1.222475,-0.414194 2.874113,-0.41858 1.417196,-0.0038 2.192492,0.08011 2.84407,0.307689 0.49267,0.172074 1.150329,0.53074 1.461464,0.797034 l 0.565701,0.484172 -0.778598,0.885593 c -0.745489,0.847934 -0.792848,0.872699 -1.11371,0.582391 -0.184311,-0.166763 -0.628522,-0.425799 -0.987135,-0.575636 -0.377961,-0.157922 -1.177941,-0.272433 -1.903232,-0.272433 -0.688165,0 -1.517194,0.111135 -1.842287,0.246969 -0.325093,0.135832 -0.72105,0.432529 -0.879905,0.659324 -0.166302,0.23743 -0.288826,0.761074 -0.288826,1.234388 0,0.65008 0.09678,0.918807 0.462648,1.284679 0.254456,0.254456 0.752602,0.521885 1.106991,0.594286 0.35439,0.0724 1.00301,0.127774 1.441379,0.123048 0.438368,-0.0047 1.097625,-0.06596 1.465016,-0.136073 0.36739,-0.07012 0.936978,-0.363664 1.265751,-0.652332 l 0.597769,-0.524848 0.750104,0.895917 0.750104,0.895916 -0.394934,0.420388 c -0.217214,0.231214 -0.805535,0.602012 -1.30738,0.823998 -0.729261,0.322579 -1.303596,0.415062 -2.860752,0.460656 z m 75.496835,0.04402 c -0.45712,-0.0047 -1.177327,-0.458886 -3.498094,-2.205965 -1.607352,-1.21002 -2.982236,-2.203643 -3.055297,-2.208053 -0.07306,-0.0044 -0.132839,0.948424 -0.132839,2.117407 l 0,2.125424 -1.239831,0 -1.239831,0 0,-4.250848 0,-4.250848 0.458692,0 c 0.309182,0 1.478253,0.748895 3.586653,2.297568 l 3.127962,2.297567 0.04957,-2.209008 0.04957,-2.209008 1.23454,0 1.234539,0 0,4.250848 0,4.250848 -0.575636,-0.0059 z m -66.7613,-0.171187 -1.419897,0 0.327351,-0.491656 c 0.180043,-0.270411 1.464049,-2.183292 2.853347,-4.250848 2.272921,-3.382565 2.57459,-3.75845 3.011017,-3.751785 0.431823,0.0066 0.799813,0.467985 3.355019,4.206569 l 2.869998,4.199161 -1.364489,0.05391 -1.364489,0.05391 -0.531356,-0.629551 -0.531356,-0.62955 -2.509495,9e-6 -2.509495,7e-6 -0.383129,0.619915 -0.383129,0.619915 -1.419897,0 z m 4.816557,-3.542373 0.888106,0 -0.469722,-0.709798 -0.469721,-0.709796 -0.418386,0.567088 c -0.230111,0.311899 -0.418384,0.631308 -0.418384,0.709798 0,0.07849 0.399647,0.142708 0.888107,0.142708 z m 11.148513,3.542373 -1.232381,0 0,-4.174672 0,-4.174673 3.852331,0.05666 c 3.695601,0.05436 3.882697,0.07406 4.598671,0.484189 0.424038,0.242904 0.863839,0.675143 1.018432,1.00092 0.149651,0.315367 0.271796,0.880163 0.271431,1.255102 -3.54e-4,0.374939 -0.155966,0.936412 -0.345782,1.24772 -0.189814,0.311305 -0.568108,0.705626 -0.840651,0.876266 -0.272543,0.17064 -0.525173,0.330806 -0.561399,0.355927 -0.03623,0.02512 0.542828,0.706797 1.286788,1.514836 l 1.352657,1.469162 -1.552468,0.05426 -1.552466,0.05426 -1.32839,-1.43832 -1.32839,-1.438321 -1.151272,0.05567 -1.151271,0.05567 -0.05173,1.37267 -0.05173,1.372669 -1.23238,0 z m 3.452909,-4.989156 c 1.414373,-0.03766 2.282183,-0.135459 2.41902,-0.272618 0.166449,-0.166838 0.163516,-0.273986 -0.01334,-0.487076 -0.181951,-0.219241 -0.65961,-0.273184 -2.419014,-0.273184 l -2.192297,0 0,0.545801 0,0.5458 2.205628,-0.05872 z m 11.166831,4.989156 -1.32839,0 0,-4.174672 0,-4.174673 3.852332,0.05666 c 3.601933,0.05298 3.901022,0.08268 4.601435,0.456918 0.412008,0.220141 0.870302,0.634625 1.018432,0.921077 0.148132,0.286452 0.269031,0.943224 0.268666,1.459492 -5.31e-4,0.629525 -0.118664,1.132218 -0.358961,1.526353 -0.219696,0.360348 -0.681921,0.735363 -1.194889,0.969447 -0.688593,0.314228 -1.251752,0.393503 -3.183412,0.448126 l -2.346822,0.06636 0,1.222452 0,1.222453 -1.328391,0 z m 3.28834,-4.782204 c 1.077972,0 2.114117,-0.08251 2.302543,-0.183349 0.188425,-0.100843 0.342593,-0.331427 0.342593,-0.512406 0,-0.180982 -0.126073,-0.377437 -0.280164,-0.436566 -0.15409,-0.05913 -1.190234,-0.107509 -2.302543,-0.107509 l -2.022378,0 0,0.619915 0,0.619915 1.959949,0 z m 14.423528,4.782204 -4.516526,0 0,-4.162288 0,-4.162289 4.339407,0 4.339408,0 0,1.151271 0,1.151272 -3.112563,0 c -2.868907,0 -3.107912,0.02426 -3.053142,0.309957 0.0521,0.271745 0.326655,0.31609 2.226972,0.359689 l 2.167546,0.04973 0,1.145819 0,1.14582 -2.213983,0 c -2.095904,0 -2.213984,0.01889 -2.213984,0.354237 0,0.341473 0.11808,0.354238 3.276696,0.354238 l 3.276695,0 0,1.151271 0,1.151271 -4.516526,0 z m 28.604668,0 -1.23983,0 0,-3.011017 0,-3.011017 -1.85975,0 -1.85974,0 0,-1.151272 0,-1.151271 4.95932,0 4.95932,0 0,1.151271 0,1.151272 -1.85975,0 -1.85974,0 0,3.011017 0,3.011017 -1.23983,0 z m 10.61967,0 -1.23238,0 0,-4.174672 0,-4.174673 3.85233,0.05666 c 3.37084,0.04958 3.93796,0.09917 4.53744,0.396724 0.3768,0.187036 0.8348,0.585553 1.01777,0.885593 0.20309,0.333053 0.33292,0.876644 0.33332,1.395642 3.6e-4,0.46756 -0.11848,1.080515 -0.26411,1.362121 -0.14562,0.281606 -0.50429,0.653497 -0.79703,0.826427 -0.29275,0.172928 -0.53226,0.360606 -0.53226,0.417063 0,0.05646 0.56651,0.736677 1.2589,1.511601 l 1.25891,1.408951 -1.55666,0.05164 -1.55666,0.05164 -1.3176,-1.431921 -1.31761,-1.43192 -1.17426,0.05189 -1.17426,0.05189 -0.0517,1.37267 -0.0517,1.372669 -1.23238,0 z m 3.30213,-4.959322 c 1.00029,0 2.02315,-0.07773 2.27303,-0.172735 0.24988,-0.09501 0.45432,-0.285735 0.45432,-0.423847 0,-0.138112 -0.12607,-0.299492 -0.28016,-0.358621 -0.15409,-0.05913 -1.23009,-0.107509 -2.3911,-0.107509 -2.09338,0 -2.11094,0.0034 -2.11094,0.413276 0,0.227303 0.0531,0.466414 0.11808,0.531356 0.0649,0.06494 0.93649,0.11808 1.93677,0.11808 z m 14.06295,4.959322 -1.23983,0 0,-1.565367 0,-1.56537 -2.38805,-2.552639 -2.38805,-2.552642 1.59219,-0.05094 1.59219,-0.05094 1.46005,1.517534 1.46006,1.517531 1.32839,-1.508187 1.32839,-1.508186 1.58453,-0.0027 1.58453,-0.0027 -0.53552,0.575636 c -0.29453,0.3166 -1.34631,1.478317 -2.33728,2.581593 l -1.80177,2.005975 0,1.580696 0,1.580695 -1.23983,0 z M 20.954364,71.271732 l -6.509111,0.07962 0,-8.872461 0,-8.872461 5.910275,0 c 4.46209,0 6.284105,0.06519 7.435938,0.266053 0.839115,0.14633 2.047503,0.462474 2.685307,0.702542 0.637803,0.240069 1.607094,0.73349 2.153979,1.096492 0.553405,0.367329 1.330026,1.116003 1.75134,1.68832 0.416353,0.565574 0.916784,1.526571 1.112072,2.135549 0.195286,0.608977 0.403972,1.5456 0.463744,2.081384 0.05977,0.535784 0.02388,1.571928 -0.07977,2.302543 -0.105053,0.740504 -0.416978,1.817569 -0.704831,2.433743 -0.289404,0.619494 -0.900629,1.489606 -1.390568,1.979544 -0.480805,0.480804 -1.442548,1.16041 -2.137208,1.510235 -0.69466,0.349825 -1.919801,0.805521 -2.722536,1.012657 -1.324266,0.341713 -2.062708,0.383992 -7.968629,0.456237 z m 2.213984,-4.793411 c 1.875244,-0.06214 3.858935,-0.221435 4.408202,-0.353993 0.549268,-0.132557 1.266599,-0.394849 1.594069,-0.58287 0.339937,-0.195179 0.771747,-0.682094 1.006408,-1.134838 0.35392,-0.682836 0.401601,-0.991802 0.343276,-2.224358 -0.05434,-1.148364 -0.149945,-1.546832 -0.483535,-2.015316 -0.236524,-0.332168 -0.804547,-0.759971 -1.317428,-0.992215 -0.495895,-0.224552 -1.525096,-0.493285 -2.287113,-0.597185 -0.762017,-0.1039 -2.57527,-0.188909 -4.02945,-0.188909 l -2.643964,0 0,4.101332 0,4.101331 3.409535,-0.112979 z m 27.701679,4.83599 -2.984131,0.004 0.327351,-0.509909 c 0.180043,-0.28045 2.917712,-4.381484 6.083708,-9.11341 l 5.756357,-8.6035 0.885593,-0.0013 0.885594,-0.0013 4.989447,7.299291 c 2.744195,4.014611 5.552449,8.116252 6.240562,9.114758 l 1.251119,1.815467 -3.055694,0 -3.055692,0 -0.956634,-1.41695 -0.956634,-1.416949 -5.282559,0 -5.28256,0 -0.930849,1.41296 -0.930847,1.412961 -2.984131,0.004 z m 10.058961,-7.789233 c 1.463486,0 1.861296,-0.05001 1.760989,-0.221398 -0.07127,-0.121769 -0.481485,-0.719545 -0.911593,-1.32839 -0.430108,-0.608845 -0.834796,-1.10556 -0.899306,-1.103809 -0.06451,0.0018 -0.36259,0.380341 -0.662401,0.841313 -0.29981,0.460973 -0.687569,1.057316 -0.861684,1.325208 l -0.316575,0.487076 1.89057,0 z m 32.953991,7.793222 -2.563802,0 -0.04649,-6.420552 -0.04649,-6.420552 -3.852332,-0.04773 -3.852331,-0.04773 0,-2.387647 0,-2.387648 10.450002,0 10.450002,0 0,2.387713 0,2.387714 -3.94089,0.04767 -3.940891,0.04767 -0.04649,6.420552 -0.04649,6.420552 -2.563801,0 z m 22.655451,0 c -1.61493,0 -2.90967,-0.06925 -2.8772,-0.153897 0.0325,-0.08464 2.76896,-4.191257 6.08108,-9.125807 l 6.02203,-8.97191 0.87257,0.04848 0.87257,0.04847 6.1557,8.944493 c 3.38563,4.919471 6.16118,9.00427 6.16789,9.077332 0.007,0.07306 -1.33504,0.132839 -2.98168,0.132839 l -2.99388,0 -0.94701,-1.410962 -0.94701,-1.410962 -5.31356,-0.002 -5.31356,-0.002 -0.93084,1.41296 -0.93085,1.41296 -2.93625,0 z m 10.1221,-7.793222 1.87035,0 -0.91832,-1.32839 c -0.50507,-0.730614 -0.96813,-1.325858 -1.02903,-1.322764 -0.0609,0.0031 -0.48931,0.554569 -0.95203,1.225501 -0.46272,0.670931 -0.84131,1.266175 -0.84131,1.322764 0,0.05659 0.84165,0.102889 1.87034,0.102889 z"
     id="path5442" />
</svg>
