<?xml version="1.0" encoding="utf-8"?>
<!-- Generator: Adobe Illustrator 14.0.0, SVG Export Plug-In . SVG Version: 6.00 Build 43363)  -->
<!DOCTYPE svg PUBLIC "-//W3C//DTD SVG 1.1//EN" "http://www.w3.org/Graphics/SVG/1.1/DTD/svg11.dtd">
<svg version="1.1" id="レイヤー_1" xmlns="http://www.w3.org/2000/svg" xmlns:xlink="http://www.w3.org/1999/xlink" x="0px"
	 y="0px" width="245.488px" height="283.465px" viewBox="0 0 245.488 283.465" enable-background="new 0 0 245.488 283.465"
	 xml:space="preserve">
<g>
	<g>
		<polygon fill="#3E3A39" points="4.92,209.76 4.92,73.709 122.743,5.686 240.569,73.709 240.569,209.76 122.743,277.783 		"/>
		<path fill="#3AB483" d="M122.743,11.367l112.904,65.185V206.92l-112.904,65.184L9.841,206.918V76.551L122.743,11.367 M122.743,0
			L-0.001,70.866v141.73l122.744,70.869l122.746-70.869V70.866L122.743,0L122.743,0z"/>
	</g>
	<g>
		<g>
			<g>
				<path fill="#49B786" d="M67.415,107.217v0.479h-3.233v-0.479H67.415z"/>
				<path fill="#49B786" d="M67.562,107.844h-3.528v-0.775h3.528V107.844L67.562,107.844z M64.329,107.547h2.938v-0.183h-2.938
					V107.547L64.329,107.547z"/>
			</g>
			<g>
				<path fill="#49B786" d="M71.389,107.217v0.479h-3.232v-0.479H71.389z"/>
				<path fill="#49B786" d="M71.538,107.844h-3.529v-0.775h3.529V107.844L71.538,107.844z M68.304,107.547h2.938v-0.183h-2.938
					V107.547L68.304,107.547z"/>
			</g>
			<g>
				<path fill="#49B786" d="M75.362,107.217v0.479h-3.23v-0.479H75.362z"/>
				<path fill="#49B786" d="M75.51,107.844h-3.527v-0.775h3.527V107.844L75.51,107.844z M72.28,107.547h2.935v-0.183H72.28V107.547
					L72.28,107.547z"/>
			</g>
			<g>
				<path fill="#49B786" d="M79.339,107.217v0.479h-3.233v-0.479H79.339z"/>
				<path fill="#49B786" d="M79.487,107.844h-3.529v-0.775h3.529V107.844L79.487,107.844z M76.254,107.547h2.938v-0.183h-2.938
					V107.547L76.254,107.547z"/>
			</g>
			<g>
				<path fill="#49B786" d="M83.314,107.217v0.479h-3.233v-0.479H83.314z"/>
				<path fill="#49B786" d="M83.461,107.844h-3.528v-0.775h3.528V107.844L83.461,107.844z M80.229,107.547h2.938v-0.183h-2.938
					V107.547L80.229,107.547z"/>
			</g>
			<g>
				<path fill="#49B786" d="M87.29,107.217v0.479h-3.233v-0.479H87.29z"/>
				<path fill="#49B786" d="M87.437,107.844h-3.528v-0.775h3.528V107.844L87.437,107.844z M84.204,107.547h2.938v-0.183h-2.938
					V107.547L84.204,107.547z"/>
			</g>
			<g>
				<path fill="#49B786" d="M158.84,107.217v0.479h-3.23v-0.479H158.84z"/>
				<path fill="#49B786" d="M158.987,107.844h-3.525v-0.775h3.525V107.844L158.987,107.844z M155.756,107.547h2.936v-0.183h-2.936
					V107.547L155.756,107.547z"/>
			</g>
			<g>
				<path fill="#49B786" d="M162.817,107.217v0.479h-3.234v-0.479H162.817z"/>
				<path fill="#49B786" d="M162.965,107.844h-3.531v-0.775h3.531V107.844L162.965,107.844z M159.731,107.547h2.938v-0.183h-2.938
					V107.547L159.731,107.547z"/>
			</g>
			<g>
				<path fill="#49B786" d="M60.293,117.26h-0.498l2.207-5.856H62.5L60.293,117.26z"/>
				<path fill="#49B786" d="M60.395,117.409h-0.812l2.283-6.057l0.85-0.096L60.395,117.409L60.395,117.409z M60.004,117.112h0.186
					l2.098-5.561h-0.285L60.004,117.112L60.004,117.112z"/>
			</g>
			<g>
				<path fill="#49B786" d="M70.714,116.649v0.479h-3.233v-0.479H70.714z"/>
				<path fill="#49B786" d="M70.862,117.276h-3.529v-0.773h3.529V117.276L70.862,117.276z M67.629,116.98h2.938v-0.183h-2.938
					V116.98L67.629,116.98z"/>
			</g>
			<g>
				<path fill="#49B786" d="M74.69,116.649v0.479h-3.234v-0.479H74.69z"/>
				<path fill="#49B786" d="M74.836,117.276h-3.53v-0.773h3.53V117.276L74.836,117.276z M71.603,116.98h2.938v-0.183h-2.938V116.98
					L71.603,116.98z"/>
			</g>
			<g>
				<path fill="#49B786" d="M78.665,116.649v0.479h-3.233v-0.479H78.665z"/>
				<path fill="#49B786" d="M78.812,117.276h-3.528v-0.773h3.528V117.276L78.812,117.276z M75.579,116.98h2.938v-0.183h-2.938
					V116.98L75.579,116.98z"/>
			</g>
			<g>
				<path fill="#49B786" d="M82.639,116.649v0.479h-3.234v-0.479H82.639z"/>
				<path fill="#49B786" d="M82.788,117.276h-3.531v-0.773h3.531V117.276L82.788,117.276z M79.552,116.98h2.938v-0.183h-2.938
					V116.98L79.552,116.98z"/>
			</g>
			<g>
				<path fill="#49B786" d="M84.142,117.26h-0.498l2.208-5.856h0.498L84.142,117.26z"/>
				<path fill="#49B786" d="M84.245,117.409h-0.813l2.283-6.057l0.85-0.096L84.245,117.409L84.245,117.409z M83.854,117.112h0.188
					l2.097-5.561h-0.284L83.854,117.112L83.854,117.112z"/>
			</g>
			<g>
				<path fill="#49B786" d="M94.564,116.649v0.479h-3.233v-0.479H94.564z"/>
				<path fill="#49B786" d="M94.711,117.276h-3.528v-0.773h3.528V117.276L94.711,117.276z M91.479,116.98h2.938v-0.183h-2.938
					V116.98L91.479,116.98z"/>
			</g>
			<g>
				<path fill="#49B786" d="M98.542,116.649v0.479h-3.233v-0.479H98.542z"/>
				<path fill="#49B786" d="M98.689,117.276h-3.528v-0.773h3.528V117.276L98.689,117.276z M95.456,116.98h2.938v-0.183h-2.938
					V116.98L95.456,116.98z"/>
			</g>
			<g>
				<path fill="#49B786" d="M102.514,116.649v0.479h-3.23v-0.479H102.514z"/>
				<path fill="#49B786" d="M102.663,117.276h-3.527v-0.773h3.527V117.276L102.663,117.276z M99.431,116.98h2.935v-0.183h-2.935
					V116.98L99.431,116.98z"/>
			</g>
			<g>
				<path fill="#49B786" d="M106.493,116.649v0.479h-3.234v-0.479H106.493z"/>
				<path fill="#49B786" d="M106.641,117.276h-3.531v-0.773h3.531V117.276L106.641,117.276z M103.407,116.98h2.938v-0.183h-2.938
					V116.98L103.407,116.98z"/>
			</g>
			<g>
				<path fill="#49B786" d="M114.442,116.649v0.479h-3.234v-0.479H114.442z"/>
				<path fill="#49B786" d="M114.59,117.276h-3.531v-0.773h3.531V117.276L114.59,117.276z M111.356,116.98h2.939v-0.183h-2.939
					V116.98L111.356,116.98z"/>
			</g>
			<g>
				<path fill="#49B786" d="M126.366,116.649v0.479h-3.23v-0.479H126.366z"/>
				<path fill="#49B786" d="M126.514,117.276h-3.527v-0.773h3.527V117.276L126.514,117.276z M123.282,116.98h2.936v-0.183h-2.936
					V116.98L123.282,116.98z"/>
			</g>
			<g>
				<path fill="#49B786" d="M130.34,116.649v0.479h-3.232v-0.479H130.34z"/>
				<path fill="#49B786" d="M130.489,117.276h-3.529v-0.773h3.529V117.276L130.489,117.276z M127.256,116.98h2.938v-0.183h-2.938
					V116.98L127.256,116.98z"/>
			</g>
			<g>
				<path fill="#49B786" d="M134.317,116.649v0.479h-3.232v-0.479H134.317z"/>
				<path fill="#49B786" d="M134.465,117.276h-3.527v-0.773h3.527V117.276L134.465,117.276z M131.233,116.98h2.938v-0.183h-2.938
					V116.98L131.233,116.98z"/>
			</g>
			<g>
				<path fill="#49B786" d="M138.292,116.649v0.479h-3.232v-0.479H138.292z"/>
				<path fill="#49B786" d="M138.442,117.276h-3.531v-0.773h3.531V117.276L138.442,117.276z M135.206,116.98h2.939v-0.183h-2.939
					V116.98L135.206,116.98z"/>
			</g>
			<g>
				<path fill="#49B786" d="M142.268,116.649v0.479h-3.232v-0.479H142.268z"/>
				<path fill="#49B786" d="M142.415,117.276h-3.529v-0.773h3.529V117.276L142.415,117.276z M139.182,116.98h2.938v-0.183h-2.938
					V116.98L139.182,116.98z"/>
			</g>
			<g>
				<path fill="#49B786" d="M151.719,117.26h-0.496l2.207-5.856h0.498L151.719,117.26z"/>
				<path fill="#49B786" d="M151.823,117.409h-0.814l2.283-6.057l0.852-0.096L151.823,117.409L151.823,117.409z M151.432,117.112
					h0.188l2.096-5.561h-0.283L151.432,117.112L151.432,117.112z"/>
			</g>
			<g>
				<path fill="#49B786" d="M159.672,117.26h-0.5l2.209-5.856h0.5L159.672,117.26z"/>
				<path fill="#49B786" d="M159.774,117.409h-0.814l2.283-6.057l0.852-0.096L159.774,117.409L159.774,117.409z M159.381,117.112
					h0.189l2.096-5.561h-0.285L159.381,117.112L159.381,117.112z"/>
			</g>
			<g>
				<path fill="#49B786" d="M166.12,116.649v0.479h-3.236v-0.479H166.12z"/>
				<path fill="#49B786" d="M166.268,117.276h-3.531v-0.773h3.531V117.276L166.268,117.276z M163.032,116.98h2.938v-0.183h-2.938
					V116.98L163.032,116.98z"/>
			</g>
			<g>
				<path fill="#49B786" d="M178.043,116.649v0.479h-3.232v-0.479H178.043z"/>
				<path fill="#49B786" d="M178.192,117.276h-3.529v-0.773h3.529V117.276L178.192,117.276z M174.959,116.98h2.938v-0.183h-2.938
					V116.98L174.959,116.98z"/>
			</g>
			<g>
				<path fill="#49B786" d="M182.02,116.649v0.479h-3.236v-0.479H182.02z"/>
				<path fill="#49B786" d="M182.167,117.276h-3.531v-0.773h3.531V117.276L182.167,117.276z M178.932,116.98h2.938v-0.183h-2.938
					V116.98L178.932,116.98z"/>
			</g>
			<g>
				<path fill="#49B786" d="M185.993,116.649v0.479h-3.232v-0.479H185.993z"/>
				<path fill="#49B786" d="M186.143,117.276h-3.529v-0.773h3.529V117.276L186.143,117.276z M182.909,116.98h2.938v-0.183h-2.938
					V116.98L182.909,116.98z"/>
			</g>
			<g>
				<path fill="#49B786" d="M189.967,116.649v0.479h-3.234v-0.479H189.967z"/>
				<path fill="#49B786" d="M190.114,117.276h-3.529v-0.773h3.529V117.276L190.114,117.276z M186.879,116.98h2.939v-0.183h-2.939
					V116.98L186.879,116.98z"/>
			</g>
			<g>
				<path fill="#49B786" d="M56.723,126.694h-0.498l2.208-5.859h0.498L56.723,126.694z"/>
				<path fill="#49B786" d="M56.825,126.842h-0.812l2.283-6.06l0.85-0.097L56.825,126.842L56.825,126.842z M56.435,126.545h0.187
					l2.097-5.562h-0.284L56.435,126.545L56.435,126.545z"/>
			</g>
			<g>
				<path fill="#49B786" d="M64.673,126.694h-0.498l2.208-5.859h0.498L64.673,126.694z"/>
				<path fill="#49B786" d="M64.776,126.842h-0.813l2.282-6.06l0.851-0.097L64.776,126.842L64.776,126.842z M64.385,126.545h0.188
					l2.096-5.562h-0.283L64.385,126.545L64.385,126.545z"/>
			</g>
			<g>
				<path fill="#49B786" d="M88.524,126.694h-0.501l2.21-5.859h0.498L88.524,126.694z"/>
				<path fill="#49B786" d="M88.627,126.842H87.81l2.286-6.06l0.85-0.097L88.627,126.842L88.627,126.842z M88.233,126.545h0.19
					l2.095-5.562h-0.285L88.233,126.545L88.233,126.545z"/>
			</g>
			<g>
				<path fill="#49B786" d="M98.946,126.081v0.479h-3.234v-0.479H98.946z"/>
				<path fill="#49B786" d="M99.094,126.708h-3.531v-0.773h3.531V126.708L99.094,126.708z M95.86,126.412h2.938v-0.183H95.86
					V126.412L95.86,126.412z"/>
			</g>
			<g>
				<path fill="#49B786" d="M102.92,126.081v0.479h-3.233v-0.479H102.92z"/>
				<path fill="#49B786" d="M103.067,126.708h-3.529v-0.773h3.529V126.708L103.067,126.708z M99.834,126.412h2.938v-0.183h-2.938
					V126.412L99.834,126.412z"/>
			</g>
			<g>
				<path fill="#49B786" d="M108.478,120.76h0.606l0.605,0.998h-0.425L108.478,120.76z"/>
				<path fill="#49B786" d="M109.954,121.906h-0.688l-1.093-1.293h0.911L109.954,121.906L109.954,121.906z M108.75,120.868
					l0.632,0.799l0.071-0.014l-0.494-0.816L108.75,120.868L108.75,120.868z"/>
			</g>
			<g>
				<path fill="#49B786" d="M112.374,126.694h-0.498l2.207-5.859h0.498L112.374,126.694z"/>
				<path fill="#49B786" d="M112.474,126.842h-0.813l2.285-6.06l0.85-0.097L112.474,126.842L112.474,126.842z M112.084,126.545
					h0.187l2.097-5.562h-0.285L112.084,126.545L112.084,126.545z"/>
			</g>
			<g>
				<path fill="#49B786" d="M120.323,126.694h-0.498l2.209-5.859h0.5L120.323,126.694z"/>
				<path fill="#49B786" d="M120.424,126.842h-0.812l2.282-6.06l0.853-0.097L120.424,126.842L120.424,126.842z M120.034,126.545
					h0.187l2.099-5.562h-0.285L120.034,126.545L120.034,126.545z"/>
			</g>
			<g>
				<path fill="#49B786" d="M130.747,126.081v0.479h-3.236v-0.479H130.747z"/>
				<path fill="#49B786" d="M130.895,126.708h-3.531v-0.773h3.531V126.708L130.895,126.708z M127.659,126.412h2.938v-0.183h-2.938
					V126.412L127.659,126.412z"/>
			</g>
			<g>
				<path fill="#49B786" d="M134.721,126.081v0.479h-3.232v-0.479H134.721z"/>
				<path fill="#49B786" d="M134.87,126.708h-3.529v-0.773h3.529V126.708L134.87,126.708z M131.635,126.412h2.939v-0.183h-2.939
					V126.412L131.635,126.412z"/>
			</g>
			<g>
				<path fill="#49B786" d="M138.696,126.081v0.479h-3.234v-0.479H138.696z"/>
				<path fill="#49B786" d="M138.844,126.708h-3.531v-0.773h3.531V126.708L138.844,126.708z M135.61,126.412h2.938v-0.183h-2.938
					V126.412L135.61,126.412z"/>
			</g>
			<g>
				<path fill="#49B786" d="M140.2,126.694h-0.498l2.207-5.859h0.5L140.2,126.694z"/>
				<path fill="#49B786" d="M140.301,126.842h-0.812l2.283-6.06l0.852-0.097L140.301,126.842L140.301,126.842z M139.911,126.545
					h0.186l2.102-5.562h-0.287L139.911,126.545L139.911,126.545z"/>
			</g>
			<g>
				<path fill="#49B786" d="M148.151,126.694h-0.5l2.209-5.859h0.498L148.151,126.694z"/>
				<path fill="#49B786" d="M148.252,126.842h-0.814l2.283-6.06l0.85-0.097L148.252,126.842L148.252,126.842z M147.86,126.545h0.188
					l2.096-5.562h-0.283L147.86,126.545L147.86,126.545z"/>
			</g>
			<g>
				<path fill="#49B786" d="M158.571,126.081v0.479h-3.234v-0.479H158.571z"/>
				<path fill="#49B786" d="M158.719,126.708h-3.531v-0.773h3.531V126.708L158.719,126.708z M155.483,126.412h2.939v-0.183h-2.939
					V126.412L155.483,126.412z"/>
			</g>
			<g>
				<path fill="#49B786" d="M162.547,126.081v0.479h-3.232v-0.479H162.547z"/>
				<path fill="#49B786" d="M162.696,126.708h-3.529v-0.773h3.529V126.708L162.696,126.708z M159.463,126.412h2.938v-0.183h-2.938
					V126.412L159.463,126.412z"/>
			</g>
			<g>
				<path fill="#49B786" d="M164.051,126.694h-0.5l2.209-5.859h0.496L164.051,126.694z"/>
				<path fill="#49B786" d="M164.153,126.842h-0.814l2.285-6.06l0.848-0.097L164.153,126.842L164.153,126.842z M163.76,126.545
					h0.188l2.096-5.562h-0.283L163.76,126.545L163.76,126.545z"/>
			</g>
			<g>
				<path fill="#49B786" d="M171.866,126.694h-0.498l2.209-5.859h0.498L171.866,126.694z"/>
				<path fill="#49B786" d="M171.967,126.842h-0.812l2.285-6.06l0.85-0.097L171.967,126.842L171.967,126.842z M171.577,126.545
					h0.188l2.098-5.562h-0.285L171.577,126.545L171.577,126.545z"/>
			</g>
			<g>
				<path fill="#49B786" d="M182.288,126.081v0.479h-3.232v-0.479H182.288z"/>
				<path fill="#49B786" d="M182.436,126.708h-3.529v-0.773h3.529V126.708L182.436,126.708z M179.202,126.412h2.939v-0.183h-2.939
					V126.412L179.202,126.412z"/>
			</g>
			<g>
				<path fill="#49B786" d="M186.262,126.081v0.479h-3.234v-0.479H186.262z"/>
				<path fill="#49B786" d="M186.411,126.708h-3.531v-0.773h3.531V126.708L186.411,126.708z M183.176,126.412h2.938v-0.183h-2.938
					V126.412L183.176,126.412z"/>
			</g>
			<g>
				<path fill="#49B786" d="M191.243,120.834h0.5l2.209,5.859h-0.5L191.243,120.834z"/>
				<path fill="#49B786" d="M194.165,126.842h-0.713l-2.422-6.156h0.713L194.165,126.842L194.165,126.842z M191.438,120.932
					l2.152,5.711l0.166-0.045l-2.15-5.709L191.438,120.932L191.438,120.932z"/>
			</g>
			<g>
				<path fill="#49B786" d="M53.018,136.125H52.52l2.207-5.855h0.5L53.018,136.125z"/>
				<path fill="#49B786" d="M53.12,136.274h-0.813l2.282-6.057l0.852-0.096L53.12,136.274L53.12,136.274z M52.729,135.977h0.188
					l2.097-5.561h-0.287L52.729,135.977L52.729,135.977z"/>
			</g>
			<g>
				<path fill="#49B786" d="M60.967,136.125h-0.5l2.208-5.855h0.498L60.967,136.125z"/>
				<path fill="#49B786" d="M61.069,136.274h-0.814l2.283-6.057l0.851-0.096L61.069,136.274L61.069,136.274z M60.677,135.977h0.188
					l2.094-5.561h-0.284L60.677,135.977L60.677,135.977z"/>
			</g>
			<g>
				<path fill="#49B786" d="M67.415,135.512v0.479h-3.233v-0.479H67.415z"/>
				<path fill="#49B786" d="M67.562,136.139h-3.528v-0.774h3.528V136.139L67.562,136.139z M64.329,135.844h2.938v-0.184h-2.938
					V135.844L64.329,135.844z"/>
			</g>
			<g>
				<path fill="#49B786" d="M71.389,135.512v0.479h-3.232v-0.479H71.389z"/>
				<path fill="#49B786" d="M71.538,136.139h-3.529v-0.774h3.529V136.139L71.538,136.139z M68.304,135.844h2.938v-0.184h-2.938
					V135.844L68.304,135.844z"/>
			</g>
			<g>
				<path fill="#49B786" d="M75.362,135.512v0.479h-3.23v-0.479H75.362z"/>
				<path fill="#49B786" d="M75.51,136.139h-3.527v-0.774h3.527V136.139L75.51,136.139z M72.28,135.844h2.935v-0.184H72.28V135.844
					L72.28,135.844z"/>
			</g>
			<g>
				<path fill="#49B786" d="M84.817,136.125h-0.498l2.209-5.855h0.498L84.817,136.125z"/>
				<path fill="#49B786" d="M84.918,136.274h-0.812l2.284-6.057l0.851-0.096L84.918,136.274L84.918,136.274z M84.528,135.977h0.188
					l2.097-5.561h-0.284L84.528,135.977L84.528,135.977z"/>
			</g>
			<g>
				<path fill="#49B786" d="M92.767,136.125h-0.498l2.208-5.855h0.498L92.767,136.125z"/>
				<path fill="#49B786" d="M92.87,136.274h-0.813l2.283-6.057l0.85-0.096L92.87,136.274L92.87,136.274z M92.479,135.977h0.188
					l2.097-5.561h-0.284L92.479,135.977L92.479,135.977z"/>
			</g>
			<g>
				<path fill="#49B786" d="M99.213,135.512v0.479h-3.235v-0.479H99.213z"/>
				<path fill="#49B786" d="M99.362,136.139h-3.531v-0.774h3.531V136.139L99.362,136.139z M96.127,135.844h2.939v-0.184h-2.939
					V135.844L96.127,135.844z"/>
			</g>
			<g>
				<path fill="#49B786" d="M100.717,136.125h-0.498l2.208-5.855h0.498L100.717,136.125z"/>
				<path fill="#49B786" d="M100.819,136.274h-0.813l2.284-6.057l0.85-0.096L100.819,136.274L100.819,136.274z M100.428,135.977
					h0.188l2.096-5.561h-0.284L100.428,135.977L100.428,135.977z"/>
			</g>
			<g>
				<path fill="#49B786" d="M108.667,136.125h-0.498l2.209-5.855h0.498L108.667,136.125z"/>
				<path fill="#49B786" d="M108.769,136.274h-0.813l2.283-6.057l0.851-0.096L108.769,136.274L108.769,136.274z M108.377,135.977
					h0.187l2.097-5.561h-0.285L108.377,135.977L108.377,135.977z"/>
			</g>
			<g>
				<path fill="#49B786" d="M116.853,133.176c0-1.301,0.579-2.33,1.515-3.059l0.304,0.282c-0.903,0.763-1.32,1.642-1.32,2.776
					c0,1.129,0.417,2.012,1.32,2.772l-0.304,0.285C117.432,135.506,116.853,134.477,116.853,133.176z"/>
				<path fill="#49B786" d="M118.375,136.428l-0.098-0.078c-1.029-0.799-1.572-1.896-1.572-3.174c0-1.276,0.543-2.375,1.572-3.174
					l0.615,0.403l-0.127,0.106c-0.865,0.731-1.268,1.578-1.268,2.664s0.402,1.932,1.268,2.66l0.127,0.106L118.375,136.428
					L118.375,136.428z M118.267,130.225c-0.762,0.75-1.267,1.769-1.267,2.951c0,1.143,0.47,2.129,1.359,2.862l0.092-0.085
					c-0.852-0.764-1.25-1.65-1.25-2.777c0-1.125,0.398-2.013,1.25-2.778L118.267,130.225L118.267,130.225z"/>
			</g>
			<g>
				<path fill="#49B786" d="M127.04,135.512v0.479h-3.232v-0.479H127.04z"/>
				<path fill="#49B786" d="M127.19,136.139h-3.529v-0.774h3.529V136.139L127.19,136.139z M123.956,135.844h2.938v-0.184h-2.938
					V135.844L123.956,135.844z"/>
			</g>
			<g>
				<path fill="#49B786" d="M131.016,135.512v0.479h-3.234v-0.479H131.016z"/>
				<path fill="#49B786" d="M131.163,136.139h-3.531v-0.774h3.531V136.139L131.163,136.139z M127.928,135.844h2.939v-0.184h-2.939
					V135.844L127.928,135.844z"/>
			</g>
			<g>
				<path fill="#49B786" d="M136.151,135.951c0.904-0.761,1.322-1.644,1.322-2.772c0-1.133-0.42-2.014-1.322-2.776l0.305-0.282
					c0.938,0.729,1.516,1.758,1.516,3.059c0,1.299-0.578,2.332-1.516,3.058L136.151,135.951z"/>
				<path fill="#49B786" d="M136.446,136.43l-0.52-0.484l0.129-0.107c0.865-0.728,1.27-1.572,1.27-2.66
					c0-1.084-0.402-1.931-1.271-2.662l-0.127-0.107l0.428-0.396c1.221,0.791,1.766,1.89,1.766,3.166
					c0,1.279-0.545,2.377-1.574,3.174L136.446,136.43L136.446,136.43z M136.372,135.955l0.09,0.085
					c0.895-0.732,1.361-1.719,1.361-2.863c0-1.183-0.504-2.199-1.459-2.941l-0.047,0.113c0.889,0.779,1.305,1.68,1.305,2.828
					C137.622,134.303,137.225,135.191,136.372,135.955L136.372,135.955z"/>
			</g>
			<g>
				<path fill="#49B786" d="M144.446,136.125h-0.498l2.203-5.855h0.502L144.446,136.125z"/>
				<path fill="#49B786" d="M144.547,136.274h-0.812l2.279-6.057l0.854-0.096L144.547,136.274L144.547,136.274z M144.157,135.977
					h0.186l2.1-5.561h-0.289L144.157,135.977L144.157,135.977z"/>
			</g>
			<g>
				<path fill="#49B786" d="M152.395,136.125h-0.502l2.209-5.855h0.502L152.395,136.125z"/>
				<path fill="#49B786" d="M152.497,136.274h-0.816l2.283-6.057l0.854-0.096L152.497,136.274L152.497,136.274z M152.104,135.977
					h0.189l2.096-5.561h-0.287L152.104,135.977L152.104,135.977z"/>
			</g>
			<g>
				<path fill="#49B786" d="M158.84,135.512v0.479h-3.23v-0.479H158.84z"/>
				<path fill="#49B786" d="M158.987,136.139h-3.525v-0.774h3.525V136.139L158.987,136.139z M155.756,135.844h2.936v-0.184h-2.936
					V135.844L155.756,135.844z"/>
			</g>
			<g>
				<path fill="#49B786" d="M168.295,136.125h-0.5l2.209-5.855h0.498L168.295,136.125z"/>
				<path fill="#49B786" d="M168.397,136.274h-0.814l2.285-6.057l0.85-0.096L168.397,136.274L168.397,136.274z M168.004,135.977
					h0.188l2.098-5.561h-0.285L168.004,135.977L168.004,135.977z"/>
			</g>
			<g>
				<path fill="#49B786" d="M176.247,136.125h-0.5l2.211-5.855h0.496L176.247,136.125z"/>
				<path fill="#49B786" d="M176.35,136.274h-0.816l2.285-6.057l0.848-0.096L176.35,136.274L176.35,136.274z M175.956,135.977h0.189
					l2.094-5.561h-0.281L175.956,135.977L175.956,135.977z"/>
			</g>
			<g>
				<path fill="#49B786" d="M182.692,135.512v0.479h-3.234v-0.479H182.692z"/>
				<path fill="#49B786" d="M182.838,136.139h-3.527v-0.774h3.527V136.139L182.838,136.139z M179.608,135.844h2.936v-0.184h-2.936
					V135.844L179.608,135.844z"/>
			</g>
			<g>
				<path fill="#49B786" d="M184.194,136.125h-0.498l2.209-5.855h0.498L184.194,136.125z"/>
				<path fill="#49B786" d="M184.295,136.274h-0.811l2.283-6.057l0.85-0.096L184.295,136.274L184.295,136.274z M183.907,135.977
					h0.186l2.098-5.561h-0.283L183.907,135.977L183.907,135.977z"/>
			</g>
			<g>
				<path fill="#49B786" d="M191.608,136.125h-0.498l2.207-5.855h0.498L191.608,136.125z"/>
				<path fill="#49B786" d="M191.708,136.274h-0.812l2.283-6.057l0.852-0.096L191.708,136.274L191.708,136.274z M191.317,135.977
					h0.188l2.098-5.561h-0.285L191.317,135.977L191.317,135.977z"/>
			</g>
			<g>
				<path fill="#49B786" d="M52.518,139.699h0.5l2.207,5.856h-0.498L52.518,139.699z"/>
				<path fill="#49B786" d="M55.438,145.703h-0.711l-2.422-6.152h0.713L55.438,145.703L55.438,145.703z M52.711,139.795l2.152,5.707
					l0.166-0.043l-2.15-5.708L52.711,139.795L52.711,139.795z"/>
			</g>
			<g>
				<path fill="#49B786" d="M59.461,144.943v0.479h-3.232v-0.479H59.461z"/>
				<path fill="#49B786" d="M59.61,145.57h-3.529v-0.773h3.529V145.57L59.61,145.57z M56.377,145.273h2.938v-0.182h-2.938V145.273
					L56.377,145.273z"/>
			</g>
			<g>
				<path fill="#49B786" d="M63.439,144.943v0.479h-3.235v-0.479H63.439z"/>
				<path fill="#49B786" d="M63.586,145.57h-3.53v-0.773h3.53V145.57L63.586,145.57z M60.352,145.273h2.939v-0.182h-2.939V145.273
					L60.352,145.273z"/>
			</g>
			<g>
				<path fill="#49B786" d="M67.415,144.943v0.479h-3.233v-0.479H67.415z"/>
				<path fill="#49B786" d="M67.562,145.57h-3.528v-0.773h3.528V145.57L67.562,145.57z M64.329,145.273h2.938v-0.182h-2.938V145.273
					L64.329,145.273z"/>
			</g>
			<g>
				<path fill="#49B786" d="M71.389,144.943v0.479h-3.232v-0.479H71.389z"/>
				<path fill="#49B786" d="M71.538,145.57h-3.529v-0.773h3.529V145.57L71.538,145.57z M68.304,145.273h2.938v-0.182h-2.938V145.273
					L68.304,145.273z"/>
			</g>
			<g>
				<path fill="#49B786" d="M72.892,145.555h-0.5L74.6,139.7h0.5L72.892,145.555z"/>
				<path fill="#49B786" d="M72.995,145.703h-0.815l2.284-6.056l0.852-0.096L72.995,145.703L72.995,145.703z M72.602,145.408h0.188
					l2.098-5.562H74.6L72.602,145.408L72.602,145.408z"/>
			</g>
			<g>
				<path fill="#49B786" d="M84.319,139.699h0.498l2.209,5.856h-0.498L84.319,139.699z"/>
				<path fill="#49B786" d="M87.239,145.703h-0.711l-2.422-6.152h0.711L87.239,145.703L87.239,145.703z M84.513,139.795l2.153,5.707
					l0.164-0.043l-2.151-5.708L84.513,139.795L84.513,139.795z"/>
			</g>
			<g>
				<path fill="#49B786" d="M91.264,144.943v0.479H88.03v-0.479H91.264z"/>
				<path fill="#49B786" d="M91.413,145.57h-3.531v-0.773h3.531V145.57L91.413,145.57z M88.177,145.273h2.938v-0.182h-2.938V145.273
					L88.177,145.273z"/>
			</g>
			<g>
				<path fill="#49B786" d="M95.239,144.943v0.479h-3.232v-0.479H95.239z"/>
				<path fill="#49B786" d="M95.387,145.57h-3.529v-0.773h3.529V145.57L95.387,145.57z M92.155,145.273h2.937v-0.182h-2.937V145.273
					L92.155,145.273z"/>
			</g>
			<g>
				<path fill="#49B786" d="M96.905,145.561c0.551-0.248,0.828-0.592,0.848-1.121c-0.041,0.008-0.086,0.016-0.125,0.016
					c-0.291,0-0.528-0.172-0.528-0.508c0-0.328,0.25-0.514,0.54-0.514c0.395,0,0.605,0.338,0.605,0.863
					c0,0.785-0.444,1.34-1.187,1.615L96.905,145.561z"/>
				<path fill="#49B786" d="M96.98,146.098l-0.269-0.611l0.134-0.059c0.454-0.205,0.688-0.473,0.748-0.848
					c-0.431-0.043-0.642-0.289-0.642-0.633c0-0.385,0.289-0.662,0.688-0.662c0.464,0,0.753,0.389,0.753,1.012
					c0,0.824-0.455,1.447-1.283,1.752L96.98,146.098L96.98,146.098z M97.097,145.633l0.04,0.088c0.628-0.277,0.96-0.768,0.96-1.424
					c0-0.215-0.044-0.715-0.458-0.715c-0.182,0-0.393,0.096-0.393,0.363c0,0.336,0.293,0.359,0.381,0.359l0.183-0.033l0.091,0.172
					C97.88,144.977,97.625,145.357,97.097,145.633L97.097,145.633z"/>
			</g>
			<g>
				<path fill="#49B786" d="M103.189,144.943v0.479h-3.233v-0.479H103.189z"/>
				<path fill="#49B786" d="M103.336,145.57h-3.528v-0.773h3.528V145.57L103.336,145.57z M100.104,145.273h2.938v-0.182h-2.938
					V145.273L100.104,145.273z"/>
			</g>
			<g>
				<path fill="#49B786" d="M104.694,145.555h-0.498l2.207-5.855h0.498L104.694,145.555z"/>
				<path fill="#49B786" d="M104.795,145.703h-0.812l2.282-6.056l0.851-0.096L104.795,145.703L104.795,145.703z M104.405,145.408
					h0.188l2.097-5.562h-0.284L104.405,145.408L104.405,145.408z"/>
			</g>
			<g>
				<path fill="#49B786" d="M112.646,145.555h-0.5l2.207-5.855h0.5L112.646,145.555z"/>
				<path fill="#49B786" d="M112.747,145.703h-0.814l2.282-6.056l0.853-0.096L112.747,145.703L112.747,145.703z M112.355,145.408
					h0.188l2.095-5.562h-0.287L112.355,145.408L112.355,145.408z"/>
			</g>
			<g>
				<path fill="#49B786" d="M119.088,144.943v0.479h-3.233v-0.479H119.088z"/>
				<path fill="#49B786" d="M119.237,145.57h-3.529v-0.773h3.529V145.57L119.237,145.57z M116.002,145.273h2.938v-0.182h-2.938
					V145.273L116.002,145.273z"/>
			</g>
			<g>
				<path fill="#49B786" d="M123.067,144.943v0.479h-3.236v-0.479H123.067z"/>
				<path fill="#49B786" d="M123.213,145.57h-3.531v-0.773h3.531V145.57L123.213,145.57z M119.978,145.273h2.938v-0.182h-2.938
					V145.273L119.978,145.273z"/>
			</g>
			<g>
				<path fill="#49B786" d="M127.04,144.943v0.479h-3.232v-0.479H127.04z"/>
				<path fill="#49B786" d="M127.19,145.57h-3.529v-0.773h3.529V145.57L127.19,145.57z M123.956,145.273h2.938v-0.182h-2.938
					V145.273L123.956,145.273z"/>
			</g>
			<g>
				<path fill="#49B786" d="M131.016,144.943v0.479h-3.234v-0.479H131.016z"/>
				<path fill="#49B786" d="M131.163,145.57h-3.531v-0.773h3.531V145.57L131.163,145.57z M127.928,145.273h2.939v-0.182h-2.939
					V145.273L127.928,145.273z"/>
			</g>
			<g>
				<path fill="#49B786" d="M132.52,145.555h-0.498l2.209-5.855h0.496L132.52,145.555z"/>
				<path fill="#49B786" d="M132.622,145.703h-0.814l2.285-6.056l0.85-0.096L132.622,145.703L132.622,145.703z M132.231,145.408
					h0.188l2.096-5.562h-0.283L132.231,145.408L132.231,145.408z"/>
			</g>
			<g>
				<path fill="#49B786" d="M143.948,139.699h0.498l2.207,5.856h-0.502L143.948,139.699z"/>
				<path fill="#49B786" d="M146.868,145.703h-0.717l-2.418-6.152h0.713L146.868,145.703L146.868,145.703z M144.143,139.795
					l2.146,5.707l0.17-0.043l-2.152-5.708L144.143,139.795L144.143,139.795z"/>
			</g>
			<g>
				<path fill="#49B786" d="M150.893,144.943v0.479h-3.234v-0.479H150.893z"/>
				<path fill="#49B786" d="M151.04,145.57h-3.529v-0.773h3.529V145.57L151.04,145.57z M147.807,145.273h2.938v-0.182h-2.938
					V145.273L147.807,145.273z"/>
			</g>
			<g>
				<path fill="#49B786" d="M154.866,144.943v0.479h-3.234v-0.479H154.866z"/>
				<path fill="#49B786" d="M155.016,145.57h-3.531v-0.773h3.531V145.57L155.016,145.57z M151.78,145.273h2.938v-0.182h-2.938
					V145.273L151.78,145.273z"/>
			</g>
			<g>
				<path fill="#49B786" d="M156.37,145.555h-0.5l2.211-5.855h0.496L156.37,145.555z"/>
				<path fill="#49B786" d="M156.471,145.703h-0.814l2.287-6.056l0.848-0.096L156.471,145.703L156.471,145.703z M156.079,145.408
					h0.189l2.096-5.562h-0.283L156.079,145.408L156.079,145.408z"/>
			</g>
			<g>
				<path fill="#49B786" d="M167.795,139.699h0.5l2.207,5.856h-0.498L167.795,139.699z"/>
				<path fill="#49B786" d="M170.717,145.703h-0.713l-2.424-6.152h0.715L170.717,145.703L170.717,145.703z M167.989,139.795
					l2.154,5.707l0.166-0.043l-2.152-5.708L167.989,139.795L167.989,139.795z"/>
			</g>
			<g>
				<path fill="#49B786" d="M174.741,144.943v0.479h-3.232v-0.479H174.741z"/>
				<path fill="#49B786" d="M174.891,145.57h-3.529v-0.773h3.529V145.57L174.891,145.57z M171.657,145.273h2.938v-0.182h-2.938
					V145.273L171.657,145.273z"/>
			</g>
			<g>
				<path fill="#49B786" d="M178.715,144.943v0.479h-3.23v-0.479H178.715z"/>
				<path fill="#49B786" d="M178.862,145.57h-3.527v-0.773h3.527V145.57L178.862,145.57z M175.631,145.273h2.936v-0.182h-2.936
					V145.273L175.631,145.273z"/>
			</g>
			<g>
				<path fill="#49B786" d="M182.692,144.943v0.479h-3.234v-0.479H182.692z"/>
				<path fill="#49B786" d="M182.838,145.57h-3.527v-0.773h3.527V145.57L182.838,145.57z M179.608,145.273h2.936v-0.182h-2.936
					V145.273L179.608,145.273z"/>
			</g>
			<g>
				<path fill="#49B786" d="M186.667,144.943v0.479h-3.232v-0.479H186.667z"/>
				<path fill="#49B786" d="M186.815,145.57h-3.529v-0.773h3.529V145.57L186.815,145.57z M183.581,145.273h2.939v-0.182h-2.939
					V145.273L183.581,145.273z"/>
			</g>
			<g>
				<path fill="#49B786" d="M188.17,145.555h-0.498l2.207-5.855h0.5L188.17,145.555z"/>
				<path fill="#49B786" d="M188.274,145.703h-0.814l2.283-6.056l0.852-0.096L188.274,145.703L188.274,145.703z M187.881,145.408
					h0.188l2.098-5.562h-0.287L187.881,145.408L187.881,145.408z"/>
			</g>
		</g>
	</g>
	<g>
		<path fill="#49B786" d="M53.985,161.043h0.969v6.902h3.836v0.84h-4.803v-7.742H53.985z"/>
		<path fill="#49B786" d="M60.02,163.047h3.635v5.736h-0.969v-4.947H60.02V163.047L60.02,163.047z M62.286,161.125
			c0-0.461,0.332-0.756,0.779-0.756c0.436,0,0.78,0.293,0.78,0.756c0,0.447-0.345,0.744-0.78,0.744
			C62.616,161.869,62.286,161.57,62.286,161.125z"/>
		<path fill="#49B786" d="M65.877,163.047h0.98l1.32,3.256c0.236,0.578,0.45,1.146,0.648,1.689h0.049
			c0.199-0.543,0.39-1.111,0.625-1.689l1.32-3.256h0.933l-2.372,5.736h-1.086L65.877,163.047z"/>
		<path fill="#49B786" d="M75.795,162.906c1.64,0,2.607,1.074,2.607,2.688c0,0.203-0.012,0.414-0.035,0.557h-4.485
			c0.048,1.215,0.946,1.992,2.196,1.992c0.672,0,1.218-0.199,1.746-0.529l0.342,0.639c-0.567,0.365-1.284,0.672-2.207,0.672
			c-1.699,0-3.08-1.121-3.08-2.998C72.88,164.053,74.309,162.906,75.795,162.906z M77.507,165.455c0-1.145-0.638-1.781-1.701-1.781
			c-0.933,0-1.78,0.66-1.935,1.781H77.507z"/>
		<path fill="#49B786" d="M89.792,162.906c0.933,0,1.617,0.375,2.09,0.838l-0.482,0.623c-0.473-0.414-0.969-0.658-1.57-0.658
			c-1.322,0-2.231,0.895-2.231,2.217c0,1.311,0.886,2.195,2.208,2.195c0.709,0,1.299-0.318,1.782-0.721l0.425,0.625
			c-0.626,0.568-1.428,0.898-2.279,0.898c-1.793,0-3.139-1.098-3.139-2.998C86.593,164.004,88.056,162.906,89.792,162.906z"/>
		<path fill="#49B786" d="M95.979,162.906c1.514,0,2.833,1.098,2.833,3.02c0,1.902-1.323,2.998-2.833,2.998
			c-1.509,0-2.831-1.096-2.831-2.998C93.148,164.004,94.468,162.906,95.979,162.906z M95.979,168.121c1.1,0,1.832-0.885,1.832-2.195
			c0-1.322-0.732-2.217-1.832-2.217c-1.098,0-1.828,0.895-1.828,2.217C94.151,167.236,94.881,168.121,95.979,168.121z"/>
		<path fill="#49B786" d="M102.782,162.906c0.696,0,1.205,0.281,1.734,0.742l-0.037-1.061v-2.207h0.969v8.404h-0.803l-0.083-0.758
			h-0.034c-0.474,0.484-1.158,0.898-1.867,0.898c-1.5,0-2.488-1.086-2.488-2.998C100.175,164.062,101.424,162.906,102.782,162.906z
			 M102.864,168.109c0.567,0,1.109-0.297,1.619-0.863v-2.854c-0.52-0.484-1.016-0.676-1.512-0.676c-0.992,0-1.795,0.885-1.795,2.195
			C101.176,167.285,101.801,168.109,102.864,168.109z"/>
		<path fill="#49B786" d="M107.081,163.047h3.635v5.736h-0.969v-4.947h-2.666V163.047L107.081,163.047z M109.347,161.125
			c0-0.461,0.331-0.756,0.78-0.756c0.436,0,0.777,0.293,0.777,0.756c0,0.447-0.342,0.744-0.777,0.744
			C109.678,161.869,109.347,161.57,109.347,161.125z"/>
		<path fill="#49B786" d="M113.434,163.047h0.803l0.084,0.979h0.047c0.603-0.637,1.264-1.117,2.16-1.117
			c1.355,0,1.982,0.801,1.982,2.312v3.564h-0.969v-3.438c0-1.086-0.377-1.602-1.32-1.602c-0.686,0-1.146,0.342-1.818,1.035v4.002
			h-0.969V163.047L113.434,163.047z"/>
		<path fill="#49B786" d="M120.924,168.557v-0.043c-0.309-0.166-0.592-0.461-0.592-0.943c0-0.367,0.248-0.777,0.686-1.074v-0.047
			c-0.391-0.295-0.709-0.801-0.709-1.486c0-1.252,1.04-2.053,2.257-2.053c0.331,0,0.603,0.045,0.851,0.139h2.373v0.744h-1.535
			c0.273,0.285,0.533,0.699,0.533,1.203c0,1.227-0.982,1.971-2.219,1.971c-0.297,0-0.65-0.068-0.97-0.211
			c-0.285,0.178-0.45,0.389-0.45,0.662c0,0.459,0.438,0.662,1.191,0.662h1.287c1.479,0,2.186,0.375,2.186,1.346
			c0,1.072-1.24,2.006-3.189,2.006c-1.676,0-2.643-0.578-2.643-1.594C119.978,169.373,120.309,168.916,120.924,168.557z
			 M122.692,170.752c1.334,0,2.16-0.59,2.16-1.18c0-0.541-0.438-0.697-1.311-0.697h-1.123c-0.329,0-0.625-0.023-0.873-0.094
			c-0.542,0.295-0.732,0.623-0.732,0.953C120.815,170.342,121.466,170.752,122.692,170.752z M123.885,164.959
			c0-0.801-0.59-1.348-1.318-1.348c-0.722,0-1.324,0.545-1.324,1.348c0,0.826,0.604,1.355,1.324,1.355
			C123.295,166.314,123.885,165.785,123.885,164.959z"/>
		<path fill="#49B786" d="M133.772,163.047h3.639v5.736h-0.969v-4.947h-2.666v-0.789H133.772L133.772,163.047z M136.04,161.125
			c0-0.461,0.33-0.756,0.781-0.756c0.436,0,0.777,0.293,0.777,0.756c0,0.447-0.344,0.744-0.777,0.744
			C136.37,161.869,136.04,161.57,136.04,161.125z"/>
		<path fill="#49B786" d="M140.6,163.047h0.803l0.078,0.979h0.049c0.602-0.637,1.264-1.117,2.16-1.117
			c1.357,0,1.982,0.801,1.982,2.312v3.564h-0.967v-3.438c0-1.086-0.377-1.602-1.32-1.602c-0.688,0-1.145,0.342-1.818,1.035v4.002
			h-0.969v-5.736H140.6z"/>
		<path fill="#49B786" d="M154.18,160.381h0.969v2.289l-0.023,1.105c0.541-0.529,1.271-0.869,1.947-0.869
			c1.543,0,2.383,1.146,2.383,2.914c0,1.957-1.227,3.104-2.596,3.104c-0.555,0-1.24-0.295-1.783-0.779h-0.035l-0.082,0.639h-0.779
			V160.381L154.18,160.381L154.18,160.381z M156.706,168.109c1.004,0,1.746-0.863,1.746-2.277c0-1.264-0.469-2.113-1.615-2.113
			c-0.508,0-1.1,0.273-1.688,0.863v2.855C155.692,167.924,156.293,168.109,156.706,168.109z"/>
		<path fill="#49B786" d="M161.124,163.047h0.803l0.08,1.355h0.037c0.605-0.92,1.502-1.498,2.562-1.498
			c0.426,0,0.781,0.059,1.133,0.234l-0.223,0.84c-0.4-0.143-0.615-0.205-1.062-0.205c-0.863,0-1.678,0.453-2.359,1.643v3.365h-0.969
			v-5.734H161.124z"/>
		<path fill="#49B786" d="M169.497,162.906c1.512,0,2.832,1.098,2.832,3.02c0,1.902-1.322,2.998-2.832,2.998
			s-2.832-1.096-2.832-2.998C166.663,164.004,167.985,162.906,169.497,162.906z M169.497,168.121c1.1,0,1.83-0.885,1.83-2.195
			c0-1.322-0.73-2.217-1.83-2.217c-1.098,0-1.83,0.895-1.83,2.217C167.667,167.236,168.399,168.121,169.497,168.121z"/>
		<path fill="#49B786" d="M173.315,163.047h0.99l0.695,3.318c0.107,0.541,0.203,1.061,0.285,1.592h0.045
			c0.109-0.529,0.213-1.061,0.344-1.592l0.697-2.977h0.826l0.707,2.977c0.129,0.541,0.236,1.061,0.354,1.592h0.049
			c0.105-0.529,0.189-1.049,0.283-1.592l0.697-3.318h0.92l-1.252,5.736h-1.17l-0.684-2.904c-0.105-0.543-0.203-1.086-0.32-1.666
			h-0.047c-0.092,0.496-0.178,1.018-0.318,1.678l-0.662,2.893H174.6L173.315,163.047z"/>
		<path fill="#49B786" d="M181.331,167.389c0.639,0.473,1.35,0.781,2.373,0.781c1.027,0,1.535-0.402,1.535-0.898
			c0-0.449-0.463-0.77-1.865-1.107c-1.18-0.295-2.182-0.816-2.182-1.631c0-0.922,0.826-1.625,2.406-1.625
			c0.863,0,1.734,0.342,2.303,0.729l-0.473,0.625c-0.508-0.354-1.121-0.602-1.83-0.602c-1.072,0-1.414,0.375-1.414,0.826
			c0,0.471,0.703,0.756,1.744,1.016c1.547,0.389,2.291,0.838,2.291,1.711c0,0.932-0.91,1.711-2.551,1.711
			c-1.121,0-2.111-0.412-2.809-0.896L181.331,167.389z"/>
		<path fill="#49B786" d="M190.057,162.906c1.641,0,2.607,1.074,2.607,2.688c0,0.203-0.014,0.414-0.035,0.557h-4.484
			c0.045,1.215,0.943,1.992,2.193,1.992c0.672,0,1.215-0.199,1.748-0.529l0.342,0.639c-0.566,0.365-1.285,0.672-2.207,0.672
			c-1.699,0-3.08-1.121-3.08-2.998C187.141,164.053,188.569,162.906,190.057,162.906z M191.77,165.455
			c0-1.145-0.639-1.781-1.701-1.781c-0.934,0-1.781,0.66-1.936,1.781H191.77z"/>
		<path fill="#49B786" d="M75.133,186.496h-0.79l-0.083-1.002h-0.049c-0.578,0.672-1.25,1.145-2.135,1.145
			c-1.369,0-1.992-0.803-1.992-2.312v-3.566h0.979v3.436c0,1.086,0.365,1.605,1.321,1.605c0.661,0,1.146-0.32,1.781-1.064v-3.979
			h0.97v5.74h-0.003V186.496z"/>
		<path fill="#49B786" d="M77.284,185.104c0.639,0.473,1.348,0.779,2.373,0.779s1.535-0.4,1.535-0.896
			c0-0.449-0.461-0.77-1.867-1.109c-1.18-0.293-2.182-0.814-2.182-1.629c0-0.922,0.827-1.627,2.409-1.627
			c0.862,0,1.733,0.342,2.301,0.73l-0.473,0.625c-0.507-0.354-1.12-0.602-1.828-0.602c-1.075,0-1.417,0.375-1.417,0.826
			c0,0.471,0.707,0.756,1.745,1.014c1.547,0.391,2.29,0.838,2.29,1.711c0,0.934-0.908,1.713-2.549,1.713
			c-1.121,0-2.111-0.412-2.808-0.896L77.284,185.104z"/>
		<path fill="#49B786" d="M83.579,180.762h3.638v5.734h-0.97v-4.945h-2.668V180.762L83.579,180.762z M85.845,178.84
			c0-0.463,0.331-0.756,0.778-0.756c0.438,0,0.781,0.291,0.781,0.756c0,0.447-0.343,0.742-0.781,0.742
			C86.176,179.582,85.845,179.285,85.845,178.84z"/>
		<path fill="#49B786" d="M89.934,180.762h0.803l0.082,0.979h0.049c0.602-0.637,1.263-1.119,2.16-1.119
			c1.357,0,1.983,0.803,1.983,2.314v3.562h-0.97v-3.436c0-1.086-0.377-1.604-1.319-1.604c-0.687,0-1.146,0.344-1.819,1.037v4.002
			h-0.968L89.934,180.762L89.934,180.762z"/>
		<path fill="#49B786" d="M97.42,186.271v-0.045c-0.309-0.166-0.59-0.461-0.59-0.943c0-0.367,0.248-0.777,0.685-1.074v-0.045
			c-0.392-0.295-0.708-0.803-0.708-1.488c0-1.252,1.038-2.053,2.254-2.053c0.331,0,0.602,0.045,0.85,0.141h2.375v0.744h-1.535
			c0.271,0.283,0.531,0.697,0.531,1.203c0,1.225-0.98,1.969-2.219,1.969c-0.296,0-0.648-0.068-0.969-0.211
			c-0.282,0.18-0.448,0.389-0.448,0.664c0,0.457,0.437,0.66,1.19,0.66h1.287c1.477,0,2.185,0.375,2.185,1.346
			c0,1.072-1.237,2.006-3.187,2.006c-1.678,0-2.644-0.578-2.644-1.592C96.475,187.086,96.807,186.629,97.42,186.271z
			 M99.192,188.467c1.334,0,2.159-0.59,2.159-1.18c0-0.543-0.437-0.697-1.312-0.697h-1.123c-0.328,0-0.623-0.023-0.87-0.096
			c-0.544,0.297-0.732,0.625-0.732,0.955C97.315,188.055,97.964,188.467,99.192,188.467z M100.382,182.674
			c0-0.801-0.591-1.348-1.321-1.348c-0.721,0-1.322,0.545-1.322,1.348c0,0.826,0.603,1.355,1.322,1.355
			C99.792,184.029,100.382,183.5,100.382,182.674z"/>
		<path fill="#49B786" d="M108.805,181.553h-1.618v-0.732l1.653-0.057l0.131-1.604h0.803v1.604h2.82v0.789h-2.82v2.729
			c0,1.025,0.342,1.568,1.451,1.568c0.544,0,0.98-0.105,1.38-0.26l0.214,0.709c-0.521,0.188-1.183,0.342-1.806,0.342
			c-1.667,0-2.209-0.957-2.209-2.373L108.805,181.553L108.805,181.553z"/>
		<path fill="#49B786" d="M116.893,180.621c1.641,0,2.607,1.072,2.607,2.688c0,0.201-0.01,0.414-0.034,0.557h-4.486
			c0.048,1.215,0.946,1.992,2.197,1.992c0.673,0,1.217-0.199,1.745-0.529l0.342,0.639c-0.566,0.365-1.284,0.672-2.207,0.672
			c-1.699,0-3.079-1.123-3.079-2.998C113.98,181.766,115.405,180.621,116.893,180.621z M118.604,183.17
			c0-1.145-0.636-1.781-1.699-1.781c-0.934,0-1.781,0.66-1.936,1.781H118.604z"/>
		<path fill="#49B786" d="M122.895,183.523l-2.02-2.762h1.074l0.908,1.266c0.201,0.305,0.438,0.646,0.674,0.965h0.047
			c0.213-0.316,0.449-0.674,0.65-0.992l0.861-1.236h1.025l-2.043,2.844l2.195,2.893h-1.062l-1.004-1.322
			c-0.234-0.332-0.506-0.707-0.754-1.039h-0.047c-0.236,0.344-0.475,0.676-0.709,1.039l-0.943,1.322h-1.039L122.895,183.523z"/>
		<path fill="#49B786" d="M129.178,181.553h-1.617v-0.732l1.652-0.057l0.129-1.604h0.805v1.604h2.82v0.789h-2.82v2.729
			c0,1.025,0.342,1.568,1.451,1.568c0.545,0,0.979-0.105,1.381-0.26l0.211,0.709c-0.52,0.188-1.182,0.342-1.809,0.342
			c-1.664,0-2.205-0.957-2.205-2.373v-2.715H129.178z"/>
		<path fill="#49B786" d="M141.934,180.621c1.639,0,2.605,1.072,2.605,2.688c0,0.201-0.012,0.414-0.037,0.557h-4.482
			c0.045,1.215,0.941,1.992,2.193,1.992c0.674,0,1.217-0.199,1.75-0.529l0.342,0.639c-0.566,0.365-1.287,0.672-2.207,0.672
			c-1.701,0-3.084-1.123-3.084-2.998C139.016,181.766,140.446,180.621,141.934,180.621z M143.645,183.17
			c0-1.145-0.641-1.781-1.699-1.781c-0.936,0-1.785,0.66-1.939,1.781H143.645z"/>
		<path fill="#49B786" d="M148.545,180.621c0.695,0,1.201,0.281,1.732,0.742l-0.035-1.062v-2.205h0.969v8.402h-0.805l-0.082-0.754
			h-0.035c-0.473,0.482-1.156,0.896-1.865,0.896c-1.498,0-2.488-1.086-2.488-3C145.938,181.777,147.188,180.621,148.545,180.621z
			 M148.627,185.824c0.566,0,1.107-0.297,1.615-0.863v-2.855c-0.521-0.482-1.016-0.674-1.512-0.674
			c-0.992,0-1.793,0.883-1.793,2.193C146.94,185,147.565,185.824,148.627,185.824z"/>
		<path fill="#49B786" d="M153.081,180.762h3.637v5.734h-0.969v-4.945h-2.666v-0.789H153.081L153.081,180.762z M155.346,178.84
			c0-0.463,0.332-0.756,0.779-0.756c0.439,0,0.781,0.291,0.781,0.756c0,0.447-0.346,0.742-0.781,0.742
			C155.678,179.582,155.346,179.285,155.346,178.84z"/>
		<path fill="#49B786" d="M159.825,181.553h-1.619v-0.732l1.654-0.057l0.129-1.604h0.805v1.604h2.818v0.789h-2.818v2.729
			c0,1.025,0.342,1.568,1.451,1.568c0.541,0,0.977-0.105,1.377-0.26l0.213,0.709c-0.518,0.188-1.18,0.342-1.807,0.342
			c-1.664,0-2.205-0.957-2.205-2.373v-2.715H159.825z"/>
		<path fill="#49B786" d="M167.959,180.621c1.514,0,2.834,1.098,2.834,3.02c0,1.902-1.322,2.998-2.834,2.998
			c-1.508,0-2.828-1.098-2.828-2.998C165.129,181.719,166.45,180.621,167.959,180.621z M167.959,185.836
			c1.102,0,1.832-0.885,1.832-2.195c0-1.322-0.73-2.219-1.832-2.219c-1.098,0-1.828,0.896-1.828,2.219
			C166.131,184.951,166.862,185.836,167.959,185.836z"/>
		<path fill="#49B786" d="M172.459,180.762h0.805l0.082,1.355h0.037c0.602-0.92,1.5-1.498,2.562-1.498
			c0.424,0,0.777,0.057,1.133,0.232l-0.225,0.84c-0.4-0.141-0.615-0.201-1.062-0.201c-0.863,0-1.678,0.449-2.359,1.641v3.363h-0.969
			v-5.732H172.459z"/>
	</g>
</g>
</svg>
