<?xml version="1.0" encoding="UTF-8" standalone="no"?>
<svg
   xmlns:dc="http://purl.org/dc/elements/1.1/"
   xmlns:cc="http://creativecommons.org/ns#"
   xmlns:rdf="http://www.w3.org/1999/02/22-rdf-syntax-ns#"
   xmlns:svg="http://www.w3.org/2000/svg"
   xmlns="http://www.w3.org/2000/svg"
   xmlns:sodipodi="http://sodipodi.sourceforge.net/DTD/sodipodi-0.dtd"
   xmlns:inkscape="http://www.inkscape.org/namespaces/inkscape"
   height="209"
   width="181"
   xml:space="preserve"
   enable-background="new 0 0 320 240"
   viewBox="0 0 181 209"
   y="0px"
   x="0px"
   id="Layer_1"
   version="1.1"
   sodipodi:docname="centos.svg"
   inkscape:version="0.92.3 (2405546, 2018-03-11)"
   inkscape:export-filename="C:\Users\William\Proyectos\hexbin\hexagons\centos.png"
   inkscape:export-xdpi="96"
   inkscape:export-ydpi="96"><sodipodi:namedview
     pagecolor="#ffffff"
     bordercolor="#666666"
     borderopacity="1"
     objecttolerance="10"
     gridtolerance="10"
     guidetolerance="10"
     inkscape:pageopacity="0"
     inkscape:pageshadow="2"
     inkscape:window-width="1366"
     inkscape:window-height="705"
     id="namedview12"
     showgrid="false"
     showguides="false"
     borderlayer="false"
     inkscape:zoom="2.2583732"
     inkscape:cx="59.495311"
     inkscape:cy="85.383755"
     inkscape:window-x="-8"
     inkscape:window-y="-8"
     inkscape:window-maximized="1"
     inkscape:current-layer="Layer_1"><inkscape:grid
       type="xygrid"
       id="grid872" /></sodipodi:namedview><metadata
     id="metadata65"><rdf:RDF><cc:Work
         rdf:about=""><dc:format>image/svg+xml</dc:format><dc:type
           rdf:resource="http://purl.org/dc/dcmitype/StillImage" /><dc:title /></cc:Work></rdf:RDF></metadata><defs
     id="defs63"><inkscape:path-effect
       hide_knots="false"
       only_selected="false"
       ignore_radius_0="false"
       use_knot_distance="false"
       flexible="false"
       helper_size="0"
       chamfer_steps="1"
       radius="4"
       method="auto"
       unit="px"
       fillet_chamfer_values="-2.3113122,1 | -2.3084456,1 | -2.3084456,1 | -2.3113122,1 | -2.308446,1 | -2.308446,1"
       is_visible="true"
       id="path-effect4167"
       effect="fillet-chamfer" /><inkscape:path-effect
       hide_knots="false"
       only_selected="false"
       ignore_radius_0="false"
       use_knot_distance="false"
       flexible="false"
       helper_size="0"
       chamfer_steps="1"
       radius="8"
       method="auto"
       unit="px"
       fillet_chamfer_values="-4.6160691,1 | -4.620169,1 | -4.62017,1 | -4.616067,1 | -4.62017,1 | -4.620169,1"
       is_visible="true"
       id="path-effect4163"
       effect="fillet-chamfer" /><inkscape:path-effect
       hide_knots="false"
       only_selected="false"
       ignore_radius_0="false"
       use_knot_distance="false"
       flexible="false"
       helper_size="0"
       chamfer_steps="1"
       radius="0"
       method="auto"
       unit="px"
       fillet_chamfer_values=""
       is_visible="true"
       id="path-effect4161"
       effect="fillet-chamfer" /><inkscape:perspective
       id="perspective4138"
       inkscape:persp3d-origin="372.04727 : 350.78742 : 1"
       inkscape:vp_z="744.09454 : 526.18112 : 1"
       inkscape:vp_y="0 : 999.99999 : 0"
       inkscape:vp_x="0 : 526.18112 : 1"
       sodipodi:type="inkscape:persp3d" /><clipPath
       id="clipPath4429"><g
         id="g4431"
         transform="matrix(0.9947658,0,0,1,1.7860989,0)"><path
           style="fill:#efa724;fill-opacity:1;fill-rule:evenodd;stroke:none;stroke-width:30;marker:none;visibility:visible;display:inline;overflow:visible"
           id="path4433"
           d="m 322.54143,2800.9375 -4.43505,5.7298 -4.43495,-5.7298 0,-43.1429 -18.93972,0 23.37467,-25.5367 23.13125,25.5367 -18.6962,0 0,43.1429 z" /></g></clipPath></defs><polygon
     transform="translate(-70,-15)"
     style="fill:#ffffff;fill-opacity:1;stroke:none;stroke-opacity:1"
     id="polygon3"
     points="251,171.7 160.5,224 70,171.7 70,67.2 160.5,15 251,67.2 "
     inkscape:export-xdpi="96"
     inkscape:export-ydpi="96"
     inkscape:export-filename="/media/micah/Storage/projects/fedora/hexbin/hexagons/fedora.png" /><path
     id="path4149"
     d="M 87.992597,13.491138 12.721682,56.984794 a 4.6898131,4.6898131 0 0 0 -2.343453,4.060663 V 148.0395 a 4.6898131,4.6898131 0 0 0 2.343453,4.06066 l 75.270915,43.49366 a 4.6898132,4.6898132 0 0 0 4.692721,0 l 75.270942,-43.49366 a 4.6898132,4.6898132 0 0 0 2.34345,-4.06066 V 61.045457 a 4.6898132,4.6898132 0 0 0 -2.34345,-4.060663 L 92.685318,13.491138 a 4.6898132,4.6898132 0 0 0 -4.692721,0 z"
     style="fill:#262577;fill-opacity:1;fill-rule:evenodd;stroke:none;stroke-width:0.78627855px;stroke-linecap:butt;stroke-linejoin:miter;stroke-opacity:1"
     inkscape:connector-curvature="0"
     inkscape:export-filename="C:\Users\William\Proyectos\hexbin\hexagons\centos.png"
     inkscape:export-xdpi="96"
     inkscape:export-ydpi="96" /><g
     id="layer1"
     transform="matrix(0.34566801,0,0,0.34566801,30.008843,-102.16745)"
     inkscape:export-filename="C:\Users\William\Proyectos\hexbin\hexagons\centos.png"
     inkscape:export-xdpi="96"
     inkscape:export-ydpi="96"><g
       id="g5189"
       transform="matrix(1.0008826,0,0,1.0094534,-0.05651152,-6.184848)"><rect
         style="fill:#ffffff;fill-opacity:0;stroke:none"
         id="rect5183"
         y="434.33029"
         x="-56.121956"
         height="328.39554"
         width="461.11301" /><path
         style="font-style:normal;font-variant:normal;font-weight:200;font-stretch:normal;font-size:72.67242432px;line-height:125%;font-family:Denmark;-inkscape-font-specification:'Denmark Ultra-Light';text-align:start;writing-mode:lr-tb;text-anchor:start;display:inline;fill:#ffffff;fill-opacity:1;stroke:none"
         id="text5083-9"
         d="M 34.585748,736.57263 H 0.16104752 c -3.49076002,0 -6.94438002,-0.50099 -10.36079952,-1.50315 -6.61016,-2.08105 -11.84629,-6.86004 -15.70838,-14.33684 -3.49077,-6.78298 -5.23614,-14.68369 -5.23614,-23.70205 0,-8.70991 1.55969,-16.41791 4.67911,-23.12391 3.41645,-7.39958 8.28123,-12.44829 14.59428,-15.14615 4.9018695,-2.08108 9.9151695,-3.12164 15.0399395,-3.12173 H 34.362938 v 15.49301 H 1.9435775 c -5.27329,8e-5 -9.09826,2.96764 -11.47492,8.90273 -1.8567995,4.62484 -2.7851695,10.67556 -2.7851695,18.15227 0,6.32057 1.18832,11.67761 3.5650295,16.07113 2.74799,5.16435 6.61012,7.74654 11.58628,7.7465 l 31.7509505,-0.11569 v 14.68381 m 57.33273,0.34681 h -27.18327 c -6.61015,0 -12.36616,-2.92902 -17.26804,-8.78705 -4.82761,-5.93524 -7.24144,-12.75678 -7.24144,-20.46477 0,-8.40167 2.63662,-15.64716 7.90989,-21.73649 5.34748,-6.16635 11.28916,-9.24951 17.82504,-9.24955 h 25.84645 v 12.37127 h -18.93919 c -2.3767,6e-5 -4.41913,0.23118 -6.12737,0.69373 -1.63403,0.38543 -3.15655,1.19478 -4.5677,2.42799 -2.59952,2.31246 -3.89924,5.43419 -3.89922,9.36519 h 33.42205 v 12.48693 h -33.31062 c -3e-5,1.84994 0.18564,3.43007 0.55698,4.7404 0.44565,1.23329 1.29975,2.5051 2.56237,3.81547 1.26261,1.23327 2.74802,2.08118 4.45625,2.54358 1.78251,0.38546 3.93638,0.57827 6.46167,0.57827 h 19.49615 v 11.21503 m 63.529742,-0.34681 h -15.48555 v -39.42641 c -5e-5,-1.00202 -0.22282,-1.88842 -0.6684,-2.65924 -0.44569,-0.84783 -1.07699,-1.65717 -1.89397,-2.42803 -1.48544,-1.31029 -3.19366,-1.96547 -5.12467,-1.9655 h -15.15134 v 46.47918 h -15.48555 v -59.89105 h 29.6342 c 5.27323,4e-5 9.0982,0.30834 11.47489,0.92492 3.71352,0.92504 6.68439,2.96762 8.91258,6.12785 2.52515,3.69987 3.78776,7.74657 3.78781,12.14006 v 40.69822 m 44.47573,-47.40415 h -15.03994 v 27.1706 c -1e-5,2.46658 0.81694,4.50918 2.45094,6.12786 1.85675,1.61869 4.30769,2.428 7.35287,2.428 h 4.56767 v 11.67769 h -14.37148 c -4.30775,0 -7.98418,-1.61877 -11.02928,-4.856 -1.78252,-1.92702 -2.9337,-4.04683 -3.45362,-6.35924 -0.51991,-2.31234 -0.77984,-5.04868 -0.7798,-8.20894 v -27.97997 h -9.80382 v -12.4869 h 9.80382 v -21.04276 h 15.2627 v 21.04276 h 15.03994 v 12.4869 m 90.9132,6.82154 c -1.1e-4,15.72431 -4.19646,26.97795 -12.58902,33.76101 -6.83302,5.47262 -16.78535,8.209 -29.85703,8.209 -14.48291,0 -25.17796,-3.16021 -32.08517,-9.48082 -7.57565,-6.93722 -11.36346,-18.07523 -11.36346,-33.41413 0,-12.56396 3.37931,-22.35306 10.13802,-29.36738 7.3528,-7.63082 18.34492,-11.44628 32.97639,-11.44634 16.11683,6e-5 27.48027,3.66138 34.0905,10.98385 5.79309,6.47475 8.68966,16.72636 8.68977,30.75481 m -19.83048,-0.46248 c -6e-5,-7.93914 -1.81971,-14.25969 -5.45891,-18.96159 -4.08498,-5.24138 -10.13808,-7.86208 -18.15934,-7.86217 -7.87276,9e-5 -13.81444,2.81349 -17.82505,8.44023 -3.34226,4.70194 -5.01333,10.82977 -5.01331,18.38353 -2e-5,8.71006 1.33688,15.14624 4.01065,19.3085 3.7135,5.78098 10.58361,8.67147 20.61025,8.67144 8.46685,3e-5 14.40854,-2.81336 17.82508,-8.4402 2.6737,-4.3935 4.01057,-10.90676 4.01063,-19.53974 m 109.00635,15.95551 c -9e-5,7.09136 -2.26535,13.06504 -6.79577,17.92115 -4.53068,4.85601 -10.28665,7.28403 -17.26809,7.28403 l -55.14637,-0.11569 v -14.56819 h 45.45399 c 3.04506,3e-5 5.60741,-0.73224 7.68706,-2.19676 2.37663,-1.69573 3.56496,-4.00813 3.56501,-6.93716 -5e-5,-6.86009 -4.67912,-10.29013 -14.03725,-10.29015 h -22.94984 c -6.61014,2e-5 -12.40328,-2.11967 -17.37943,-6.3591 -4.97616,-4.23934 -7.46426,-9.63491 -7.46426,-16.18674 0,-7.24544 2.41381,-13.10348 7.24144,-17.57416 4.90188,-4.54763 11.32634,-6.82148 19.27335,-6.82156 h 52.69547 v 13.87432 h -46.45665 c -2.07961,7e-5 -4.19638,0.92504 -6.3502,2.77491 -2.07961,1.77286 -3.11942,3.89256 -3.1194,6.35907 -2e-5,2.77491 1.00263,5.12585 3.008,7.0528 2.07957,1.84995 4.56768,2.77491 7.46425,2.77487 h 25.28934 c 7.87269,4e-5 14.03716,2.11972 18.49358,6.35908 4.53042,4.16234 6.79568,9.71206 6.79577,16.64923"
         inkscape:connector-curvature="0" /><g
         id="g3664"
         transform="matrix(1.0627252,0,0,1.0537063,198.76454,-518.47507)"><g
           id="g12802"
           transform="rotate(-90,-298.5197,1636.0002)"><g
             id="g12804"
             transform="translate(16.279512,-899.16723)"><g
               id="g12806"
               transform="matrix(1.0666663,0,0,1,-26.935596,-4.1328125e-5)"><path
                 style="display:inline;overflow:visible;visibility:visible;fill:#932279;fill-opacity:1;fill-rule:evenodd;stroke:none;stroke-width:30;marker:none"
                 id="path12808"
                 d="m 323.36653,2798.1614 -5.40616,5.8005 -5.40616,-5.8005 v -40.8261 h -18.01333 l 23.41949,-24.8979 23.02487,24.8979 h -17.6187 z"
                 inkscape:connector-curvature="0" /></g><g
               id="g12812"
               clip-path="url(#clipPath4429)"
               transform="matrix(1.0722788,0,0,1,-28.850792,-4.1328125e-5)" /></g></g><g
           id="g12768"
           transform="translate(-351.30671,-902.55818)"><g
             id="g12770"
             transform="translate(16.279512,-899.16723)"><g
               id="g12772"
               transform="matrix(1.0666663,0,0,1,-26.935596,-4.1328125e-5)"><path
                 style="display:inline;overflow:visible;visibility:visible;fill:#efa724;fill-opacity:1;fill-rule:evenodd;stroke:none;stroke-width:30;marker:none"
                 id="path12774"
                 d="m 323.36653,2798.1614 -5.40616,5.8005 -5.40616,-5.8005 v -40.8261 h -18.01333 l 23.41949,-24.8979 23.02487,24.8979 h -17.6187 z"
                 inkscape:connector-curvature="0" /></g><g
               id="g12778"
               clip-path="url(#clipPath4429)"
               transform="matrix(1.0722788,0,0,1,-28.850792,-4.1328125e-5)" /></g></g><g
           id="g12780"
           transform="rotate(90,1045.4823,1742.4169)"><g
             id="g12782"
             transform="matrix(1.0666663,0,0,1,-26.935596,-4.1328125e-5)"><path
               style="display:inline;overflow:visible;visibility:visible;fill:#262577;fill-opacity:1;fill-rule:evenodd;stroke:none;stroke-width:30;marker:none"
               id="path12784"
               d="m 323.36653,2798.1614 -5.40616,5.8005 -5.40616,-5.8005 v -40.8261 h -18.01333 l 23.41949,-24.8979 23.02487,24.8979 h -17.6187 z"
               inkscape:connector-curvature="0" /></g><g
             id="g12788"
             clip-path="url(#clipPath4429)"
             transform="matrix(1.0722788,0,0,1,-28.850792,-4.1328125e-5)" /></g><g
           id="g12790"
           transform="rotate(180,152.75931,1460.3469)"><g
             id="g12792"
             transform="translate(16.279512,-899.16723)"><g
               id="g12794"
               transform="matrix(1.0666663,0,0,1,-26.935596,-4.1328125e-5)"><path
                 style="display:inline;overflow:visible;visibility:visible;fill:#9ccd2a;fill-opacity:1;fill-rule:evenodd;stroke:none;stroke-width:30;marker:none"
                 id="path12796"
                 d="m 323.36653,2798.1614 -5.40616,5.8005 -5.40616,-5.8005 v -40.8261 h -18.01333 l 23.41949,-24.8979 23.02487,24.8979 h -17.6187 z"
                 inkscape:connector-curvature="0" /></g><g
               id="g12800"
               clip-path="url(#clipPath4429)"
               transform="matrix(1.0722788,0,0,1,-28.850792,-4.1328125e-5)" /></g></g><g
           id="g12742"
           transform="translate(-749.79982,-1331.6428)"><path
             style="fill:#9ccd2a;fill-opacity:1;stroke:#ffffff;stroke-width:3.54330707;stroke-linecap:butt;stroke-linejoin:miter;stroke-miterlimit:4;stroke-dashoffset:0;stroke-opacity:1"
             id="rect12744"
             d="m 671.98437,2285.7893 h 49.60645 v 49.6065 h -49.60645 z"
             inkscape:connector-curvature="0" /><path
             style="fill:#932279;fill-opacity:1;stroke:#ffffff;stroke-width:3.54330707;stroke-linecap:butt;stroke-linejoin:miter;stroke-miterlimit:4;stroke-dashoffset:0;stroke-opacity:1"
             id="rect12746"
             d="m 732.22076,2285.7893 h 49.60645 v 49.6065 h -49.60645 z"
             inkscape:connector-curvature="0" /><path
             style="fill:#efa724;fill-opacity:1;stroke:#ffffff;stroke-width:3.54330707;stroke-linecap:butt;stroke-linejoin:miter;stroke-miterlimit:4;stroke-dashoffset:0;stroke-opacity:1"
             id="rect12748"
             d="m 732.22076,2346.0256 h 49.60645 v 49.6065 h -49.60645 z"
             inkscape:connector-curvature="0" /><path
             style="fill:#262577;fill-opacity:1;stroke:#ffffff;stroke-width:3.54330707;stroke-linecap:butt;stroke-linejoin:miter;stroke-miterlimit:4;stroke-dashoffset:0;stroke-opacity:1"
             id="rect12750"
             d="m 671.98437,2346.0256 h 49.60645 v 49.6065 h -49.60645 z"
             inkscape:connector-curvature="0" /></g><path
           style="fill:none;stroke:#ffffff;stroke-width:3.54330707;stroke-linecap:butt;stroke-linejoin:miter;stroke-miterlimit:4;stroke-dashoffset:0;stroke-opacity:1"
           id="rect12760"
           transform="rotate(-45)"
           d="m -784.62878,642.40875 h 49.60644 v 49.60645 h -49.60644 z"
           inkscape:connector-curvature="0" /><path
           style="fill:none;stroke:#ffffff;stroke-width:3.54306793;stroke-linecap:butt;stroke-linejoin:miter;stroke-miterlimit:4;stroke-dasharray:none;stroke-dashoffset:0;stroke-opacity:1"
           id="rect12762"
           transform="rotate(-45)"
           d="m -724.39233,642.40875 h 49.60645 v 49.60645 h -49.60645 z"
           inkscape:connector-curvature="0" /><path
           style="fill:none;stroke:#ffffff;stroke-width:3.54330707;stroke-linecap:butt;stroke-linejoin:miter;stroke-miterlimit:4;stroke-dashoffset:0;stroke-opacity:1"
           id="rect12764"
           d="m -15.377623,1009.0679 35.077058,-35.0771 35.077058,35.0771 -35.077058,35.077 z"
           inkscape:connector-curvature="0" /><path
           style="fill:none;stroke:#ffffff;stroke-width:3.54330707;stroke-linecap:butt;stroke-linejoin:miter;stroke-miterlimit:4;stroke-dashoffset:0;stroke-opacity:1"
           id="rect12766"
           transform="rotate(-45)"
           d="m -784.62878,702.64508 h 49.60644 v 49.60645 h -49.60644 z"
           inkscape:connector-curvature="0" /></g></g></g></svg>