<?xml version="1.0" encoding="utf-8"?>
<!-- Generator: Adobe Illustrator 23.0.3, SVG Export Plug-In . SVG Version: 6.00 Build 0)  -->
<svg version="1.1"
	 id="hex-icon" inkscape:export-filename="C:\Users\Oleg\Desktop\Stickers\READY\cividi.png" inkscape:export-xdpi="104.50001" inkscape:export-ydpi="104.50001" inkscape:version="0.92.4 (5da689c313, 2019-01-14)" sodipodi:docname="cividi.svg" xmlns:cc="http://creativecommons.org/ns#" xmlns:dc="http://purl.org/dc/elements/1.1/" xmlns:inkscape="http://www.inkscape.org/namespaces/inkscape" xmlns:osb="http://www.openswatchbook.org/uri/2009/osb" xmlns:rdf="http://www.w3.org/1999/02/22-rdf-syntax-ns#" xmlns:sodipodi="http://sodipodi.sourceforge.net/DTD/sodipodi-0.dtd" xmlns:svg="http://www.w3.org/2000/svg"
	 xmlns="http://www.w3.org/2000/svg" xmlns:xlink="http://www.w3.org/1999/xlink" x="0px" y="0px" viewBox="0 0 124.4 144"
	 style="enable-background:new 0 0 124.4 144;" xml:space="preserve">
<style type="text/css">
	.st0{fill:#FFFFFF;}
	.st1{fill:#483583;}
	.st2{fill:#483583;stroke:#FFFFFF;stroke-width:4;stroke-miterlimit:10;}
</style>
<sodipodi:namedview  bordercolor="#666666" borderopacity="1.0" id="base" inkscape:current-layer="g4552" inkscape:cx="194.08504" inkscape:cy="33.28064" inkscape:document-units="mm" inkscape:pagecheckerboard="true" inkscape:pageopacity="0" inkscape:pageshadow="2" inkscape:snap-center="true" inkscape:snap-object-midpoints="true" inkscape:snap-page="true" inkscape:window-height="940" inkscape:window-maximized="0" inkscape:window-width="1347" inkscape:window-x="405" inkscape:window-y="10" inkscape:zoom="1.2800001" pagecolor="#ffffff" showgrid="false" units="in">
	</sodipodi:namedview>
<g id="layer1" transform="translate(0,-246.2)" inkscape:groupmode="layer" inkscape:label="Layer 1">
	
		<path id="path4596" inkscape:flatsided="true" inkscape:randomized="0" inkscape:rounded="0" inkscape:transform-center-x="21.95" inkscape:transform-center-y="-12.700002" sodipodi:arg1="0.57018301" sodipodi:arg2="1.0937818" sodipodi:cx="160.07291" sodipodi:cy="148.03957" sodipodi:r1="59.309753" sodipodi:r2="51.363758" sodipodi:sides="6" sodipodi:type="star" class="st0" d="
		M124.4,354.2l-62.2,36L0,354.2l0-72l62.2-36l62.2,36L124.4,354.2z"/>
</g>
<g id="g74" transform="matrix(0.35277777,0,0,-0.35277777,18.550465,-5.4890306)">
	<path id="path76" inkscape:connector-curvature="0" class="st1" d="M123.1-28.1l-165.4-95.5v-191.8l166.1-95.9l166.1,95.9v191.8
		L124.4-28.1l-0.6,0.4L123.1-28.1z"/>
</g>
<path id="path372" inkscape:connector-curvature="0" class="st2" d="M90.4,43.8c15.6,15.6,15.6,40.8,0,56.4
	c-15.6,15.6-40.8,15.6-56.4,0c-15.6-15.6-15.6-40.8,0-56.4C49.6,28.2,74.8,28.2,90.4,43.8"/>
<g>
	<path id="path863" inkscape:connector-curvature="0" class="st0" d="M92.7,59.1c-1.7-4-4.1-7.6-7.2-10.7c-2.8-2.8-6-5-9.5-6.6
		c-0.9-0.4-2-0.5-2.9-0.2c-1.3,0.5-2.2,1.5-2.4,2.8l-8.5,42.7l-8.5-42.7c-0.3-1.3-1.2-2.4-2.4-2.8c-0.9-0.3-2-0.3-2.9,0.2
		c-3.5,1.6-6.7,3.9-9.5,6.6c-3.1,3.1-5.5,6.7-7.2,10.7c-1.7,4-2.5,8.3-2.5,12.6s0.8,8.6,2.5,12.6c1.7,4,4.1,7.6,7.2,10.7
		c2.3,2.3,4.9,4.2,7.8,5.8c0.7,0.4,1.6,0.4,2.3,0.2c0.8-0.3,1.4-0.8,1.7-1.6v0c0.6-1.4,0-3-1.3-3.7c-2.4-1.3-4.5-2.9-6.4-4.8
		c-2.6-2.6-4.5-5.5-5.9-8.8c-1.4-3.3-2.1-6.8-2.1-10.4s0.7-7.1,2.1-10.4c1.4-3.3,3.4-6.3,5.9-8.8c1.7-1.7,3.6-3.1,5.6-4.3l9.9,50
		c0.4,1.8,1.9,3,3.7,3c1.8,0,3.3-1.2,3.7-3l9.9-50c2.1,1.2,3.9,2.6,5.6,4.3C84,55,86,58,87.4,61.3c1.4,3.3,2.1,6.8,2.1,10.4
		c0,3.6-0.7,7.1-2.1,10.4C86,85.5,84,88.5,81.5,91c-1.9,1.9-4.1,3.5-6.4,4.8c-1.3,0.7-1.9,2.3-1.3,3.7c0.3,0.7,0.9,1.3,1.7,1.6
		c0.3,0.1,0.6,0.2,1,0.2c0.5,0,0.9-0.1,1.4-0.3c2.8-1.5,5.5-3.5,7.8-5.8c3.1-3.1,5.5-6.7,7.2-10.7c1.7-4,2.5-8.3,2.5-12.6
		C95.2,67.4,94.4,63.1,92.7,59.1"/>
	<path id="path867" inkscape:connector-curvature="0" class="st0" d="M66.6,46.9c0,2.4-2,4.4-4.4,4.4c-2.4,0-4.4-2-4.4-4.4
		c0-2.4,2-4.4,4.4-4.4C64.7,42.4,66.6,44.4,66.6,46.9"/>
	<path id="path871" inkscape:connector-curvature="0" class="st0" d="M49,73.1c0,2.4-2,4.4-4.4,4.4c-2.4,0-4.4-2-4.4-4.4
		c0-2.4,2-4.4,4.4-4.4C47,68.7,49,70.7,49,73.1"/>
	<path id="path875" inkscape:connector-curvature="0" class="st0" d="M84.3,73.1c0,2.4-2,4.4-4.4,4.4c-2.4,0-4.4-2-4.4-4.4
		c0-2.4,2-4.4,4.4-4.4C82.4,68.7,84.3,70.7,84.3,73.1"/>
</g>
</svg>
