<?xml version="1.0" encoding="UTF-8" standalone="no"?>
<svg width="182px" height="209px" viewBox="0 0 182 209" version="1.1" xmlns="http://www.w3.org/2000/svg" xmlns:xlink="http://www.w3.org/1999/xlink">
    <!-- Generator: Sketch 40.1 (33804) - http://www.bohemiancoding.com/sketch -->
    <title>Group 3</title>
    <desc>Created with Sketch.</desc>
    <defs>
        <polygon id="path-1" points="104.05462 16.4349323 104.05462 1.79986432e-14 88.7707006 -8.8817842e-16 88.7707006 16.4349323 104.05462 16.4349323"></polygon>
    </defs>
    <g id="Page-1" stroke="none" stroke-width="1" fill="none" fill-rule="evenodd">
        <g id="Group-3">
            <polygon id="Polygon-Copy" fill="#FFFFFF" points="90.6437635 0 181.143764 52.25 181.143764 156.75 90.6437635 209 0.143763524 156.75 0.143763524 52.25"></polygon>
            <path d="M98.2617704,83.6136867 C97.1183486,86.9566158 93.9307054,89.3732535 90.1803851,89.3732535 C85.4699002,89.3732535 81.6395662,85.5723534 81.6395662,80.8994973 C81.6395662,76.2240538 85.4699002,72.4231537 90.1803851,72.4231537 C93.9332865,72.4231537 97.1209297,74.8423787 98.2643515,78.1904827 L115.650558,78.1904827 C114.282581,65.4397436 103.382648,55.4730539 90.1803851,55.4730539 C76.0540926,55.4730539 64.5605096,66.8783416 64.5605096,80.8994973 C64.5605096,94.9180656 76.0540926,106.323353 90.1803851,106.323353 C103.382648,106.323353 114.28,96.3618384 115.650558,83.6136867 L98.2617704,83.6136867 Z" id="Fill-1-Copy-3" fill="#222222"></path>
            <g id="Group-Copy-2" transform="translate(38.044586, 124.814371)">
                <path d="M0,8.5736494 L0,8.39024162 C0,3.33323713 3.60697688,0 8.43966407,0 C12.7402394,0 15.7237719,1.97628533 16.1168993,6.32092335 L11.2378839,6.32092335 C11.0525714,4.64367246 10.1273322,3.72397545 8.46348997,3.72397545 C6.3350427,3.72397545 4.99417386,5.37863263 4.99417386,8.36631886 L4.99417386,8.55105569 C4.99417386,11.5161482 6.26621231,13.1933991 8.53232036,13.1933991 C10.1974862,13.1933991 11.3768684,12.3202186 11.6071854,10.5047473 L16.3247141,10.5047473 C16.0004171,14.7576814 12.9030498,16.963891 8.62497665,16.963891 C2.84454801,16.963891 0,13.6067311 0,8.5736494" id="Fill-4-Copy" fill="#222222"></path>
                <polygon id="Fill-6-Copy" fill="#222222" points="20.7515924 -8.8817842e-16 25.5154492 -8.8817842e-16 25.5154492 12.7800671 31.7578356 12.7800671 31.7578356 16.4349323 20.7515924 16.4349323"></polygon>
                <polygon id="Fill-8-Copy" fill="#222222" points="35.7388535 -8.8817842e-16 47.16205 -8.8817842e-16 47.16205 3.63227156 40.4563822 3.63227156 40.4563822 6.45914371 45.7973553 6.45914371 45.7973553 9.81497455 40.4563822 9.81497455 40.4563822 12.8026608 47.5313515 12.8026608 47.5313515 16.4349323 35.7388535 16.4349323"></polygon>
                <path d="M58.122691,7.49313832 C59.7177028,7.49313832 60.5039575,6.82728832 60.5039575,5.49293024 L60.5039575,5.40122635 C60.5039575,4.06819731 59.6726983,3.53923862 58.1465169,3.53923862 L56.5965096,3.53923862 L56.5965096,7.49313832 L58.122691,7.49313832 Z M51.8789809,0 L58.3543317,0 C62.6774093,0 65.0825018,1.74636108 65.0825018,5.21781856 L65.0825018,5.30952246 C65.0825018,7.6539524 63.8342892,8.96438772 62.100293,9.63023772 L66.0540691,16.4349323 L61.0585716,16.4349323 L57.7070613,10.5499347 L56.5965096,10.5499347 L56.5965096,16.4349323 L51.8789809,16.4349323 L51.8789809,0 Z" id="Fill-10-Copy" fill="#222222"></path>
                <polygon id="Fill-12-Copy" fill="#222222" points="70.3248408 -8.8817842e-16 75.0886976 -8.8817842e-16 75.0886976 6.50566018 80.0590455 -8.8817842e-16 85.0082149 -8.8817842e-16 78.9498174 7.63135868 85.3311883 16.4349323 79.8512307 16.4349323 75.0886976 9.56245659 75.0886976 16.4349323 70.3248408 16.4349323"></polygon>
                <mask id="mask-2" fill="white">
                    <use xlink:href="#path-1"></use>
                </mask>
                <g id="Clip-15-Copy"></g>
                <polygon id="Fill-14-Copy" fill="#222222" mask="url(#mask-2)" points="94.1580019 9.40164251 88.7707006 -8.8817842e-16 93.9263612 -8.8817842e-16 96.724581 5.53944671 99.5228009 -8.8817842e-16 104.055017 -8.8817842e-16 98.9218587 9.40164251 98.9218587 16.4349323 94.1580019 16.4349323"></polygon>
            </g>
        </g>
    </g>
</svg>