<?xml version="1.0" encoding="utf-8"?>
<!-- Generator: Adobe Illustrator 16.0.4, SVG Export Plug-In . SVG Version: 6.00 Build 0)  -->
<!DOCTYPE svg PUBLIC "-//W3C//DTD SVG 1.1//EN" "http://www.w3.org/Graphics/SVG/1.1/DTD/svg11.dtd">
<svg version="1.1" id="Ebene_1" xmlns="http://www.w3.org/2000/svg" xmlns:xlink="http://www.w3.org/1999/xlink" x="0px" y="0px"
	 width="198.425px" height="198.425px" viewBox="0 0 198.425 198.425" enable-background="new 0 0 198.425 198.425"
	 xml:space="preserve">
<polygon fill="#9CCAC7" points="161.713,135.213 99.213,171.213 36.713,135.213 36.713,63.212 99.213,27.212 161.713,63.212 "/>
<polygon fill="none" stroke="#FFFFFF" stroke-width="2" stroke-miterlimit="10" points="158,133.046 99.5,166.88 41,133.046 
	41,65.379 99.5,31.546 158,65.379 "/>
<g>
	<circle fill="none" stroke="#FFFFFF" stroke-width="2" stroke-miterlimit="10" cx="73.289" cy="89.107" r="2.589"/>
	<polyline fill="none" stroke="#FFFFFF" stroke-width="2" stroke-miterlimit="10" points="66.732,82.632 59.535,80.234 
		61.168,89.108 	"/>
	<circle fill="none" stroke="#FFFFFF" stroke-width="2" stroke-miterlimit="10" cx="72.576" cy="93.739" r="12.55"/>
	<line fill="none" stroke="#FFFFFF" stroke-width="2" stroke-miterlimit="10" x1="92.207" y1="132.525" x2="82.669" y2="122.988"/>
	<line fill="none" stroke="#FFFFFF" stroke-width="2" stroke-miterlimit="10" x1="89.064" y1="146.141" x2="79.527" y2="136.604"/>
	<line fill="none" stroke="#FFFFFF" stroke-width="2" stroke-miterlimit="10" x1="90.111" y1="140.904" x2="80.575" y2="131.367"/>
	<path fill="none" stroke="#FFFFFF" stroke-width="2" stroke-miterlimit="10" d="M86,92.425h2.326c0,0-1.784-6.271,2.421-10.475
		c4.205-4.203,10.043-3.357,12.211-1.187c7.995,7.994,27.696,27.965,27.696,27.965l-19.363,3.21c0,0,6.079,7.336,2.376,11.038
		l16.554,3.337c0,0-0.418,10.229-7.384,17.193l-0.385,0.331c-6.964,6.966-17.189,7.618-17.189,7.618l-2.921-17.548
		c-3.354,3.616-10.135-1.382-10.135-1.382L87.94,151.89c0,0-19.954-19.702-27.947-27.695c-2.169-2.17-2.361-8.009,1.843-12.212
		C66.039,107.778,73,109.561,73,109.561v-4.136"/>
	<line fill="none" stroke="#FFFFFF" stroke-width="2" stroke-miterlimit="10" x1="111.29" y1="111.961" x2="101.754" y2="102.424"/>
	
		<line fill="none" stroke="#FFFFFF" stroke-width="2" stroke-miterlimit="10" x1="124.906" y1="109.866" x2="115.368" y2="100.329"/>
	
		<line fill="none" stroke="#FFFFFF" stroke-width="2" stroke-miterlimit="10" x1="119.669" y1="110.913" x2="110.133" y2="101.376"/>
	<path fill="none" stroke="#FFFFFF" stroke-width="2" stroke-miterlimit="10" d="M63.339,81.189l21.45-17.758
		c0,0,11.093-10.747,21.522-0.319c5.823,5.824,42.675,43.169,42.675,43.169"/>
	<line fill="none" stroke="#FFFFFF" stroke-width="2" stroke-miterlimit="10" x1="46.64" y1="95.242" x2="60.027" y2="84.052"/>
	<path fill="none" stroke="#FFFFFF" stroke-width="2" stroke-miterlimit="10" d="M137.443,108.376l-29.415-29.415
		c-3.388-3.388-3.388-8.88,0-12.268l1.37-1.369c3.386-3.388,8.879-3.387,12.267,0l29.415,29.415"/>
	<path fill="none" stroke="#FFFFFF" stroke-width="2" stroke-miterlimit="10" d="M108.257,79.19
		c3.55-3.548,3.759-9.499,0.209-13.046"/>
	<path fill="none" stroke="#FFFFFF" stroke-width="2" stroke-miterlimit="10" d="M113.568,84.501
		c3.548-3.548,4.286-9.779,0.739-13.326"/>
	<path fill="none" stroke="#FFFFFF" stroke-width="2" stroke-miterlimit="10" d="M118.88,89.813
		c3.548-3.549,4.339-9.669,0.789-13.218"/>
	<path fill="none" stroke="#FFFFFF" stroke-width="2" stroke-miterlimit="10" d="M121.305,66.145c-3.548,3.547-9.289,3.547-12.839,0
		"/>
	<path fill="none" stroke="#FFFFFF" stroke-width="2" stroke-miterlimit="10" d="M126.615,71.455
		c-3.547,3.547-8.183,3.851-11.73,0.304"/>
	<path fill="none" stroke="#FFFFFF" stroke-width="2" stroke-miterlimit="10" d="M131.926,76.766
		c-3.547,3.549-8.708,3.379-12.256-0.17"/>
	<line fill="none" stroke="#FFFFFF" stroke-width="2" stroke-miterlimit="10" x1="129.178" y1="79.362" x2="149.768" y2="99.953"/>
	<line fill="none" stroke="#FFFFFF" stroke-width="2" stroke-miterlimit="10" x1="121.874" y1="85.674" x2="143.203" y2="107.003"/>
	<rect x="87.5" y="142.925" fill="#9CCAC7" width="23" height="12"/>
	<rect x="87.5" y="142.925" fill="none" stroke="#FFFFFF" stroke-miterlimit="10" width="23" height="12"/>
	<path fill="#FFFFFF" d="M91.452,145.597h1.1v4.527c0,0.949,0.479,1.508,1.419,1.508c0.939,0,1.419-0.559,1.419-1.508v-4.527h1.099
		v4.477c0,1.689-1.09,2.6-2.518,2.6c-1.43,0-2.519-0.92-2.519-2.6V145.597z"/>
	<rect x="98.002" y="145.517" fill="#FFFFFF" width="1.039" height="7.076"/>
	<path fill="#FFFFFF" d="M101.481,147.556v0.859c0.408-0.63,0.908-0.939,1.519-0.939c0.679,0,1.239,0.408,1.389,1.039
		c0.351-0.66,0.92-1.039,1.57-1.039c0.918,0,1.439,0.629,1.439,1.508v3.609h-1.04v-3.379c0-0.549-0.301-0.82-0.739-0.82
		c-0.62,0-1.18,0.791-1.18,2.18v2.02H103.4v-3.379c0-0.549-0.301-0.82-0.74-0.82c-0.629,0-1.179,0.791-1.179,2.289v1.91h-1.04
		v-5.037H101.481z"/>
	<path fill="#FFFFFF" d="M97.041,50.332c-0.187-0.121-0.323-0.162-0.485-0.162c-0.288,0-0.445,0.18-0.445,0.569v0.198h1.175v0.456
		H96.11v2.566h-0.503v-2.566h-0.851v-0.456h0.851v-0.185c0-0.732,0.354-1.038,0.929-1.038c0.276,0,0.462,0.071,0.63,0.174
		L97.041,50.332z"/>
	<path fill="#FFFFFF" d="M99.465,50.889c0.924,0,1.486,0.726,1.486,1.559s-0.562,1.56-1.486,1.56c-0.923,0-1.487-0.727-1.487-1.56
		S98.542,50.889,99.465,50.889 M99.465,53.552c0.617,0,0.972-0.522,0.972-1.104c0-0.581-0.354-1.103-0.972-1.103
		c-0.618,0-0.972,0.522-0.972,1.103C98.493,53.03,98.847,53.552,99.465,53.552"/>
	<path fill="#FFFFFF" d="M103.873,51.896c-0.041-0.348-0.222-0.552-0.582-0.552c-0.526,0-1.024,0.498-1.024,1.524v1.091h-0.503
		v-3.022h0.503v0.557c0.234-0.366,0.612-0.606,1.116-0.606c0.599,0,0.96,0.361,0.995,1.008H103.873z"/>
	<polygon fill="#FFFFFF" points="95.52,40.766 95.52,40.867 95.52,47.241 96.053,47.241 96.202,47.241 96.329,47.241 96.329,40.766 
			"/>
	<path fill="#FFFFFF" d="M98.729,47.848c0.057,0,0.129-0.051,0.129-0.105v-7.584c0-0.055-0.072-0.101-0.129-0.101h-2.527
		c-0.055,0-0.075,0.022-0.075,0.051v0.151v0.506c0,0.055,0.02,0.102,0.075,0.102h1.718c0.057,0,0.129,0.044,0.129,0.099v5.967
		c0,0.055-0.072,0.104-0.129,0.104h-1.718c-0.055,0-0.075,0.019-0.075,0.047v0.152v0.506c0,0.054,0.02,0.105,0.075,0.105H98.729z"/>
	<polygon fill="#FFFFFF" points="99.869,40.766 99.869,40.867 99.869,47.241 100.55,47.241 100.681,47.241 100.681,40.766 	"/>
	<path fill="#FFFFFF" d="M100.578,47.844v-0.81c1.113,0,1.89-1.383,1.89-3.084c0-1.7-0.776-3.084-1.89-3.084v-0.808
		c1.519,0,2.697,1.746,2.697,3.892C103.275,46.097,102.097,47.844,100.578,47.844"/>
	<path fill="#FFFFFF" d="M92.182,45.355v1.115v0.36c0,0.605,0.387,1.017,0.998,1.017h0.172h0.496h0.584
		c0.029,0,0.076-0.051,0.076-0.105v-0.608c0-0.054-0.07-0.096-0.127-0.096h-0.58h-0.297h-0.183c-0.262,0-0.33-0.112-0.33-0.411
		v-0.177v-0.974v-0.594c0-0.609-0.248-0.834-0.551-0.945c0.303-0.109,0.551-0.334,0.551-0.943v-0.422v-1.07V41.25
		c0-0.294,0.058-0.382,0.33-0.382h0.228h0.289h0.594c0.029,0,0.076-0.047,0.076-0.102v-0.607c0-0.055-0.07-0.101-0.127-0.101h-0.486
		h-0.457H93.18c-0.611,0-0.998,0.397-0.998,0.989v0.317v1.323c0,0-0.021,0.304-0.035,0.407c-0.039,0.274-0.373,0.508-0.582,0.505
		h-0.317c-0.056,0-0.078,0.043-0.078,0.099v0.607c0,0.055,0.022,0.104,0.078,0.104h0.289c0.266-0.004,0.6,0.218,0.625,0.552
		C92.17,45.057,92.182,45.355,92.182,45.355"/>
	<path fill="#FFFFFF" d="M96.202,40.058h-0.287h-0.318c-0.057,0-0.077,0.046-0.077,0.101v0.187v0.42v0.102h0.077h0.605h0.127v-0.102
		v-0.607v-0.101H96.202z"/>
	<path fill="#FFFFFF" d="M95.52,47.135v0.287v0.32c0,0.055,0.02,0.106,0.076,0.106h0.186h0.42h0.127v-0.106v-0.607v-0.097h-0.127
		h-0.606H95.52V47.135z"/>
	<path fill="#FFFFFF" d="M100.549,40.058h-0.284h-0.32c-0.057,0-0.075,0.046-0.075,0.101v0.187v0.42v0.102h0.075h0.604h0.132v-0.102
		v-0.607v-0.101H100.549z"/>
	<path fill="#FFFFFF" d="M99.869,47.135v0.287v0.32c0,0.055,0.019,0.106,0.074,0.106h0.187h0.42h0.131v-0.106v-0.607v-0.097h-0.131
		h-0.606h-0.074V47.135z"/>
	<path fill="#FFFFFF" d="M104.928,45.355v1.115v0.36c0,0.605,0.382,1.017,0.992,1.017h0.172h0.496h0.584
		c0.027,0,0.082-0.051,0.082-0.105v-0.608c0-0.054-0.076-0.096-0.133-0.096h-0.58h-0.297h-0.183c-0.263,0-0.324-0.112-0.324-0.411
		v-0.177v-0.974v-0.594c0-0.195-0.057-0.373-0.103-0.474h-1.356c0.373,0.101,0.531,0.234,0.608,0.558
		C104.924,45.128,104.928,45.355,104.928,45.355"/>
	<path fill="#FFFFFF" d="M104.872,43.094c-0.078,0.265-0.255,0.403-0.566,0.505h1.275c0.077-0.202,0.155-0.337,0.155-0.606v-0.42
		v-1.07v-0.254c0-0.294,0.054-0.382,0.324-0.382h0.229h0.288h0.595c0.026,0,0.082-0.046,0.082-0.101v-0.608
		c0-0.054-0.076-0.1-0.133-0.1h-0.486h-0.457h-0.258c-0.612,0-0.992,0.396-0.992,0.989v0.317v1.323
		C104.929,42.687,104.91,42.961,104.872,43.094"/>
	<path fill="#FFFFFF" d="M105.068,44.01c0.205,0.074,0.429,0.195,0.566,0.398h1.487c0.056,0,0.133-0.048,0.133-0.103v-0.607
		c0-0.056-0.077-0.1-0.133-0.1h-1.541C105.479,43.801,105.236,43.948,105.068,44.01"/>
	<path fill="#FFFFFF" d="M103.986,43.599c-0.055,0-0.069,0.044-0.069,0.099v0.607c0,0.055,0.015,0.104,0.069,0.104h0.291h1.357
		c-0.091-0.204-0.316-0.342-0.478-0.405c0.168-0.062,0.321-0.203,0.424-0.405h-1.276H103.986z"/>
</g>
</svg>
