<?xml version="1.0" encoding="utf-8"?>
<!-- Generator: Adobe Illustrator 16.0.4, SVG Export Plug-In . SVG Version: 6.00 Build 0)  -->
<!DOCTYPE svg PUBLIC "-//W3C//DTD SVG 1.1//EN" "http://www.w3.org/Graphics/SVG/1.1/DTD/svg11.dtd">
<svg version="1.1" id="Ebene_1" xmlns="http://www.w3.org/2000/svg" xmlns:xlink="http://www.w3.org/1999/xlink" x="0px" y="0px"
	 width="198.425px" height="198.425px" viewBox="0 0 198.425 198.425" enable-background="new 0 0 198.425 198.425"
	 xml:space="preserve">
<polygon fill="#FFFFFF" points="39.213,133.768 39.213,64.658 99.213,30.097 159.212,64.658 159.212,133.768 99.213,168.328 "/>
<path fill="#FF867F" d="M99.213,32.983l57.5,33.12v66.221l-57.5,33.118l-57.5-33.118V66.103L99.213,32.983z M99.213,27.212l-62.5,36
	v72l62.5,36l62.5-36v-72L99.213,27.212z"/>
<line fill="none" stroke="#FF867F" stroke-width="2" stroke-miterlimit="10" x1="84.53" y1="60.482" x2="89.469" y2="60.482"/>
<line fill="none" stroke="#FF867F" stroke-width="2" stroke-miterlimit="10" x1="86.999" y1="62.458" x2="86.999" y2="54.493"/>
<polyline fill="none" stroke="#FF867F" stroke-width="2" stroke-miterlimit="10" points="129.4,151.35 129.523,130.306 
	121.053,130.306 117.994,89.048 115.955,94.486 110.893,61.028 105.768,94.486 103.771,89.048 100.796,122.183 97.259,122.183 
	94.199,89.048 92.16,94.486 87.1,61.028 81.975,94.486 79.979,89.048 77.004,129.567 69.391,129.567 68.9,149.673 "/>
<line fill="none" stroke="#FF867F" stroke-width="2" stroke-miterlimit="10" x1="108.464" y1="60.482" x2="113.403" y2="60.482"/>
<line fill="none" stroke="#FF867F" stroke-width="2" stroke-miterlimit="10" x1="110.934" y1="62.458" x2="110.934" y2="54.493"/>
<path fill="none" stroke="#FF867F" stroke-width="2" stroke-miterlimit="10" d="M85,112.425v-10.943c0-1.566,0.913-2.837,2-2.837
	s2,1.271,2,2.837v10.943H85z"/>
<path fill="none" stroke="#FF867F" stroke-width="2" stroke-miterlimit="10" d="M85,133.425v-14.651c0-1.567,0.913-2.839,2-2.839
	s2,1.271,2,2.839v14.651H85z"/>
<path fill="none" stroke="#FF867F" stroke-width="2" stroke-miterlimit="10" d="M84,159.425v-9.651c0-1.567,0.913-2.839,2-2.839
	s2,1.271,2,2.839v12.651"/>
<path fill="none" stroke="#FF867F" stroke-width="2" stroke-miterlimit="10" d="M76,154.425v-4.651c0-1.567,0.913-2.839,2-2.839
	s2,1.271,2,2.839v7.651"/>
<path fill="none" stroke="#FF867F" stroke-width="2" stroke-miterlimit="10" d="M112,159.425v-9.651c0-1.567-0.912-2.839-2-2.839
	c-1.086,0-2,1.271-2,2.839v12.651"/>
<path fill="none" stroke="#FF867F" stroke-width="2" stroke-miterlimit="10" d="M120,155.425v-5.651c0-1.567-0.912-2.839-2-2.839
	c-1.086,0-2,1.271-2,2.839v8.651"/>
<path fill="none" stroke="#FF867F" stroke-width="2" stroke-miterlimit="10" d="M109,112.425v-10.942c0-1.567,0.914-2.838,2-2.838
	c1.088,0,2,1.271,2,2.838v10.942H109z"/>
<path fill="none" stroke="#FF867F" stroke-width="2" stroke-miterlimit="10" d="M109,133.425v-14.651c0-1.567,0.914-2.839,2-2.839
	c1.088,0,2,1.271,2,2.839v14.651H109z"/>
<path fill="none" stroke="#FF867F" stroke-width="2" stroke-miterlimit="10" d="M96,164.425v-19.793c0-1.875,1.309-3.396,3-3.396
	s3,1.521,3,3.396v20.793"/>
<polyline fill="none" stroke="#FF867F" stroke-width="2" stroke-miterlimit="10" points="94.193,134.389 98.641,127.143 
	102.757,134.389 "/>
<polyline fill="#FFFFFF" points="113.451,132.498 109.102,127.498 136.818,127.498 132.13,133.58 136.693,139.498 113.102,139.498 
	"/>
<polyline fill="none" stroke="#FF867F" stroke-miterlimit="10" points="113.451,132.498 109.102,127.498 136.818,127.498 
	132.13,133.58 136.693,139.498 113.102,139.498 "/>
<line fill="none" x1="108.602" y1="126.998" x2="108.602" y2="131.998"/>
<line fill="none" stroke="#D47A75" stroke-miterlimit="10" x1="108.602" y1="126.998" x2="108.602" y2="131.998"/>
<polyline fill="#FFFFFF" points="84.31,132.498 88.66,127.498 61.949,127.498 66.636,133.58 62.074,139.498 84.66,139.498 "/>
<polyline fill="none" stroke="#FF867F" stroke-miterlimit="10" points="84.31,132.498 88.66,127.498 61.949,127.498 66.636,133.58 
	62.074,139.498 84.66,139.498 "/>
<line fill="none" x1="89.159" y1="126.998" x2="89.159" y2="131.998"/>
<line fill="none" stroke="#D47A75" stroke-miterlimit="10" x1="89.159" y1="126.998" x2="89.159" y2="131.998"/>
<rect x="84.5" y="131.925" fill="#FFFFFF" width="29" height="12"/>
<rect x="84.5" y="131.925" fill="none" stroke="#FF867F" stroke-miterlimit="10" width="29" height="12"/>
<polygon fill="#FF867F" points="91.262,134.735 91.262,137.423 93.762,134.735 95.1,134.735 92.282,137.863 95.33,141.731 
	93.92,141.731 91.262,138.302 91.262,141.731 90.162,141.731 90.162,134.735 "/>
<path fill="#FF867F" d="M98.162,136.615c1.559,0,2.479,1.178,2.479,2.598s-0.92,2.6-2.479,2.6c-1.558,0-2.478-1.18-2.478-2.6
	S96.604,136.615,98.162,136.615 M97.233,134.596c0.359,0,0.629,0.271,0.629,0.629c0,0.36-0.27,0.63-0.629,0.63
	c-0.36,0-0.629-0.27-0.629-0.63S96.873,134.596,97.233,134.596 M98.162,140.893c0.911,0,1.379-0.83,1.379-1.681
	c0-0.85-0.469-1.678-1.379-1.678c-0.91,0-1.379,0.828-1.379,1.678C96.783,140.063,97.252,140.893,98.162,140.893 M99.092,134.596
	c0.359,0,0.629,0.271,0.629,0.629c0,0.36-0.27,0.63-0.629,0.63c-0.359,0-0.631-0.27-0.631-0.63S98.733,134.596,99.092,134.596"/>
<rect x="101.774" y="134.656" fill="#FF867F" width="1.039" height="7.075"/>
<path fill="#FF867F" d="M105.262,136.694v0.858c0.36-0.6,0.961-0.938,1.629-0.938c0.881,0,1.479,0.529,1.479,1.508v3.608h-1.039
	v-3.278c0-0.68-0.311-0.92-0.778-0.92c-0.65,0-1.291,0.77-1.291,2.159v2.039h-1.039v-5.037H105.262z"/>
<line fill="none" stroke="#FF867F" stroke-width="2" stroke-miterlimit="10" x1="40" y1="99.425" x2="66" y2="99.425"/>
<line fill="none" stroke="#FF867F" stroke-width="2" stroke-miterlimit="10" x1="40" y1="91.425" x2="57" y2="91.425"/>
<line fill="none" stroke="#FF867F" stroke-width="2" stroke-miterlimit="10" x1="40" y1="107.425" x2="57" y2="107.425"/>
<line fill="none" stroke="#FF867F" stroke-width="2" stroke-miterlimit="10" x1="159" y1="99.425" x2="133" y2="99.425"/>
<line fill="none" stroke="#FF867F" stroke-width="2" stroke-miterlimit="10" x1="159" y1="91.425" x2="142" y2="91.425"/>
<line fill="none" stroke="#FF867F" stroke-width="2" stroke-miterlimit="10" x1="159" y1="107.425" x2="142" y2="107.425"/>
<path fill="#FF867F" d="M97.041,50.332c-0.187-0.121-0.324-0.162-0.486-0.162c-0.287,0-0.444,0.18-0.444,0.569v0.198h1.174v0.456
	h-1.174v2.566h-0.504v-2.566h-0.851v-0.456h0.851v-0.185c0-0.732,0.354-1.038,0.93-1.038c0.275,0,0.461,0.071,0.629,0.174
	L97.041,50.332z"/>
<path fill="#FF867F" d="M99.465,50.889c0.924,0,1.486,0.726,1.486,1.559s-0.562,1.56-1.486,1.56c-0.924,0-1.488-0.727-1.488-1.56
	S98.541,50.889,99.465,50.889 M99.465,53.552c0.617,0,0.971-0.521,0.971-1.104c0-0.581-0.354-1.104-0.971-1.104
	s-0.971,0.522-0.971,1.104C98.494,53.03,98.848,53.552,99.465,53.552"/>
<path fill="#FF867F" d="M103.873,51.896c-0.041-0.348-0.221-0.552-0.582-0.552c-0.526,0-1.024,0.498-1.024,1.524v1.091h-0.502
	v-3.022h0.502v0.557c0.233-0.366,0.612-0.606,1.116-0.606c0.601,0,0.959,0.361,0.994,1.008H103.873z"/>
<polygon fill="#FF867F" points="95.52,40.766 95.52,40.867 95.52,47.241 96.053,47.241 96.202,47.241 96.329,47.241 96.329,40.766 
	"/>
<path fill="#FF867F" d="M98.729,47.848c0.057,0,0.129-0.051,0.129-0.105v-7.584c0-0.055-0.072-0.101-0.129-0.101h-2.527
	c-0.055,0-0.075,0.022-0.075,0.051v0.151v0.506c0,0.055,0.02,0.102,0.075,0.102h1.718c0.057,0,0.129,0.044,0.129,0.099v5.967
	c0,0.055-0.072,0.104-0.129,0.104h-1.718c-0.055,0-0.075,0.019-0.075,0.047v0.152v0.506c0,0.054,0.02,0.105,0.075,0.105H98.729z"/>
<polygon fill="#FF867F" points="99.869,40.766 99.869,40.867 99.869,47.241 100.548,47.241 100.68,47.241 100.68,40.766 "/>
<path fill="#FF867F" d="M100.578,47.844v-0.81c1.113,0,1.889-1.383,1.889-3.084c0-1.7-0.774-3.084-1.889-3.084v-0.808
	c1.519,0,2.697,1.746,2.697,3.892C103.275,46.097,102.096,47.844,100.578,47.844"/>
<path fill="#FF867F" d="M92.182,45.355v1.115v0.36c0,0.605,0.387,1.017,0.998,1.017h0.172h0.496h0.584
	c0.029,0,0.076-0.051,0.076-0.105v-0.608c0-0.054-0.07-0.096-0.127-0.096h-0.58h-0.297h-0.183c-0.262,0-0.33-0.112-0.33-0.411V46.45
	v-0.974v-0.594c0-0.609-0.248-0.834-0.551-0.945c0.303-0.109,0.551-0.334,0.551-0.943v-0.422v-1.07V41.25
	c0-0.294,0.058-0.382,0.33-0.382h0.228h0.289h0.594c0.029,0,0.076-0.047,0.076-0.102v-0.607c0-0.055-0.07-0.101-0.127-0.101h-0.486
	h-0.457H93.18c-0.611,0-0.998,0.397-0.998,0.989v0.317v1.323c0,0-0.021,0.304-0.035,0.407c-0.039,0.274-0.373,0.508-0.582,0.505
	h-0.317c-0.056,0-0.078,0.043-0.078,0.099v0.607c0,0.055,0.022,0.104,0.078,0.104h0.289c0.266-0.004,0.6,0.218,0.625,0.552
	C92.169,45.057,92.182,45.355,92.182,45.355"/>
<path fill="#FF867F" d="M96.201,40.058h-0.287h-0.318c-0.057,0-0.077,0.046-0.077,0.101v0.187v0.42v0.102h0.077h0.605h0.127v-0.102
	v-0.607v-0.101H96.201z"/>
<path fill="#FF867F" d="M95.52,47.135v0.287v0.32c0,0.055,0.02,0.106,0.076,0.106h0.186h0.42h0.127v-0.106v-0.607v-0.097h-0.127
	h-0.606H95.52V47.135z"/>
<path fill="#FF867F" d="M100.548,40.058h-0.284h-0.32c-0.057,0-0.073,0.046-0.073,0.101v0.187v0.42v0.102h0.073h0.604h0.132v-0.102
	v-0.607v-0.101H100.548z"/>
<path fill="#FF867F" d="M99.869,47.135v0.287v0.32c0,0.055,0.019,0.106,0.074,0.106h0.186h0.42h0.132v-0.106v-0.607v-0.097h-0.132
	h-0.604h-0.073v0.097H99.869z"/>
<path fill="#FF867F" d="M104.928,45.355v1.115v0.36c0,0.605,0.381,1.017,0.991,1.017h0.172h0.496h0.584
	c0.026,0,0.082-0.051,0.082-0.105v-0.608c0-0.054-0.075-0.096-0.133-0.096h-0.58h-0.297h-0.184c-0.262,0-0.324-0.112-0.324-0.411
	V46.45v-0.974v-0.594c0-0.195-0.057-0.373-0.102-0.474h-1.357c0.373,0.101,0.531,0.234,0.609,0.558
	C104.923,45.128,104.928,45.355,104.928,45.355"/>
<path fill="#FF867F" d="M104.871,43.094c-0.078,0.265-0.254,0.403-0.565,0.505h1.274c0.078-0.202,0.156-0.337,0.156-0.606v-0.42
	v-1.07v-0.254c0-0.294,0.053-0.382,0.324-0.382h0.229h0.289h0.594c0.027,0,0.082-0.046,0.082-0.101v-0.608
	c0-0.054-0.075-0.1-0.133-0.1h-0.486h-0.456h-0.259c-0.611,0-0.991,0.396-0.991,0.989v0.317v1.323
	C104.928,42.687,104.91,42.961,104.871,43.094"/>
<path fill="#FF867F" d="M105.068,44.01c0.205,0.074,0.428,0.195,0.566,0.398h1.486c0.057,0,0.133-0.048,0.133-0.103v-0.607
	c0-0.056-0.076-0.1-0.133-0.1h-1.541C105.479,43.801,105.236,43.948,105.068,44.01"/>
<path fill="#FF867F" d="M103.986,43.599c-0.055,0-0.07,0.044-0.07,0.099v0.607c0,0.055,0.017,0.104,0.07,0.104h0.291h1.357
	c-0.092-0.204-0.316-0.342-0.479-0.405c0.169-0.062,0.322-0.203,0.425-0.405h-1.275H103.986z"/>
</svg>
