<?xml version="1.0" encoding="utf-8"?>
<!-- Generator: Adobe Illustrator 17.0.0, SVG Export Plug-In . SVG Version: 6.00 Build 0)  -->
<!DOCTYPE svg PUBLIC "-//W3C//DTD SVG 1.1//EN" "http://www.w3.org/Graphics/SVG/1.1/DTD/svg11.dtd">
<svg version="1.1" id="Layer_1" xmlns="http://www.w3.org/2000/svg" xmlns:xlink="http://www.w3.org/1999/xlink" x="0px" y="0px"
	 width="512px" height="481.542px" viewBox="0 14.36 512 481.542" enable-background="new 0 14.36 512 481.542"
	 xml:space="preserve">
<g>
	<g>
		<g>
			<polygon fill="#ED1C24" points="52.393,372.136 52.393,137.898 255.249,20.891 458.107,137.898 458.107,372.136 255.249,489.367 
							"/>
			<path fill="#FFFFFF" d="M255.249,27.422L452.45,141.166v227.705L255.249,482.833L58.05,368.871V141.166L255.249,27.422
				 M255.249,14.36L46.735,134.63v240.771l208.514,120.501l208.516-120.501V134.63L255.249,14.36L255.249,14.36z"/>
		</g>
	</g>
	<g>
		<g>
			<g>
				<path fill="#FFFFFF" d="M86.097,344.936v-179.61h36.277v6.9c0,1.446-0.443,2.58-1.33,3.401
					c-0.887,0.823-2.055,1.233-3.499,1.233h-16.661v156.443h16.659c1.445,0,2.612,0.41,3.499,1.233c0.887,0.821,1.33,1.987,1.33,3.5
					v6.9H86.097z"/>
				<path fill="#FFFFFF" d="M134.299,274.551c0-4.14-1.15-7.542-3.45-10.203c-2.301-2.662-5.653-3.993-10.055-3.993v-10.548
					c4.403,0,7.754-1.314,10.055-3.944c2.3-2.628,3.45-6.045,3.45-10.253c0-3.286-0.263-6.539-0.789-9.759
					c-0.527-3.219-1.102-6.44-1.725-9.661c-0.626-3.219-1.2-6.472-1.725-9.759c-0.527-3.286-0.789-6.637-0.789-10.055
					c0-4.535,0.674-8.708,2.021-12.519c1.346-3.81,3.385-7.098,6.112-9.858c2.727-2.76,6.112-4.895,10.154-6.408
					c4.041-1.511,8.756-2.267,14.146-2.267h5.224v7.787c0,1.315-0.46,2.267-1.38,2.859c-0.921,0.591-1.774,0.887-2.563,0.887h-1.972
					c-5.062,0-9.053,1.661-11.978,4.978c-2.925,3.319-4.387,7.805-4.387,13.456c0,3.681,0.23,7.23,0.69,10.646
					c0.459,3.418,0.986,6.752,1.577,10.006c0.591,3.253,1.117,6.491,1.577,9.71c0.459,3.221,0.69,6.473,0.69,9.759
					c0,2.499-0.362,4.815-1.084,6.95c-0.724,2.136-1.76,4.041-3.106,5.718c-1.348,1.676-2.925,3.122-4.732,4.337
					c-1.808,1.217-3.796,2.12-5.964,2.711c2.169,0.591,4.156,1.496,5.964,2.711c1.807,1.217,3.383,2.679,4.732,4.387
					c1.346,1.709,2.381,3.615,3.106,5.718c0.722,2.104,1.084,4.372,1.084,6.802c0,3.287-0.231,6.54-0.69,9.759
					c-0.46,3.221-0.986,6.457-1.577,9.71c-0.591,3.253-1.118,6.589-1.577,10.006c-0.46,3.418-0.69,6.967-0.69,10.646
					c0,5.718,1.462,10.218,4.387,13.505c2.923,3.286,6.916,4.928,11.978,4.928h1.972c0.789,0,1.642,0.296,2.563,0.887
					c0.919,0.591,1.38,1.544,1.38,2.859v7.886h-5.224c-5.39,0-10.105-0.774-14.146-2.316c-4.041-1.545-7.427-3.697-10.154-6.457
					c-2.728-2.76-4.765-6.047-6.112-9.858c-1.348-3.812-2.021-7.985-2.021-12.52c0-3.417,0.262-6.752,0.789-10.006
					c0.525-3.253,1.099-6.507,1.725-9.759c0.624-3.253,1.198-6.489,1.725-9.71C134.035,281.091,134.299,277.837,134.299,274.551z"/>
				<path fill="#FFFFFF" d="M186.741,173.137v14.393l-0.887,7.542c-0.132,0.559-0.428,0.995-0.887,1.306
					c-0.46,0.312-1.249,0.468-2.365,0.468c-0.921,0-1.644-0.156-2.169-0.468c-0.527-0.312-0.855-0.747-0.986-1.306l-0.887-7.542
					v-14.393H186.741z"/>
				<path fill="#FFFFFF" d="M331.939,173.137v14.393l-0.887,7.542c-0.132,0.559-0.428,0.995-0.887,1.306
					c-0.461,0.312-1.249,0.468-2.366,0.468c-0.921,0-1.644-0.156-2.169-0.468c-0.527-0.312-0.855-0.747-0.986-1.306l-0.887-7.542
					v-14.393H331.939z"/>
				<path fill="#FFFFFF" d="M376.199,274.551c0,3.287,0.262,6.54,0.789,9.759c0.526,3.221,1.1,6.457,1.725,9.71
					c0.624,3.253,1.198,6.506,1.725,9.759c0.526,3.253,0.789,6.589,0.789,10.006c0,4.535-0.69,8.708-2.07,12.52
					c-1.38,3.81-3.418,7.098-6.112,9.858c-2.695,2.76-6.062,4.912-10.105,6.457c-4.041,1.543-8.759,2.316-14.146,2.316h-5.225
					v-7.887c0-1.315,0.459-2.267,1.38-2.859c0.919-0.591,1.774-0.887,2.563-0.887h1.972c5.06,0,9.052-1.644,11.976-4.928
					c2.923-3.287,4.387-7.787,4.387-13.505c0-3.679-0.231-7.228-0.69-10.646c-0.46-3.417-0.986-6.752-1.577-10.006
					c-0.591-3.253-1.118-6.489-1.577-9.71c-0.46-3.219-0.69-6.472-0.69-9.759c0-2.431,0.36-4.698,1.085-6.802
					c0.722-2.102,1.757-4.008,3.106-5.718c1.346-1.708,2.923-3.17,4.732-4.387c1.806-1.215,3.795-2.12,5.963-2.711
					c-2.169-0.591-4.157-1.494-5.963-2.711c-1.808-1.216-3.386-2.662-4.732-4.337c-1.348-1.676-2.383-3.581-3.106-5.718
					c-0.724-2.135-1.085-4.452-1.085-6.95c0-3.286,0.23-6.539,0.69-9.759c0.459-3.219,0.986-6.457,1.577-9.71
					c0.591-3.253,1.117-6.588,1.577-10.006c0.459-3.417,0.69-6.966,0.69-10.646c0-5.651-1.463-10.137-4.387-13.456
					c-2.925-3.318-6.917-4.978-11.976-4.978h-1.972c-0.789,0-1.644-0.296-2.563-0.887c-0.921-0.591-1.38-1.544-1.38-2.859v-7.787
					h5.225c5.389,0,10.105,0.756,14.146,2.267c4.041,1.513,7.409,3.648,10.105,6.408c2.694,2.76,4.732,6.048,6.112,9.858
					c1.38,3.812,2.07,7.985,2.07,12.519c0,3.418-0.263,6.77-0.789,10.055c-0.527,3.287-1.102,6.54-1.725,9.759
					c-0.626,3.221-1.2,6.441-1.725,9.661c-0.527,3.221-0.789,6.473-0.789,9.759c0,4.207,1.149,7.625,3.45,10.253
					c2.3,2.629,5.651,3.944,10.055,3.944v10.548c-4.404,0-7.755,1.33-10.055,3.993C377.348,267.009,376.199,270.41,376.199,274.551z
					"/>
				<path fill="#FFFFFF" d="M388.126,338.036c0-1.316,0.443-2.432,1.33-3.351c0.887-0.921,2.053-1.38,3.499-1.38h16.66V176.859
					h-16.66c-1.446,0-2.612-0.443-3.499-1.33c-0.887-0.887-1.33-1.987-1.33-3.302v-6.9h36.277v179.609h-36.277V338.036z"/>
			</g>
			<path fill="#FFFFFF" d="M254.428,186.093l-12.649,23.591c-1.435,2.564-4.007,2.326-6.578,0.894l-9.158-4.742l6.825,36.235
				c1.435,6.62-3.17,6.62-5.442,3.758l-15.981-17.891l-2.594,9.085c-0.299,1.193-1.614,2.446-3.588,2.147l-20.208-4.249
				l5.307,19.297c1.136,4.294,2.023,6.071-1.147,7.204l-7.203,3.385l34.787,28.257c1.377,1.069,2.073,2.991,1.583,4.732
				l-3.044,9.991c11.978-1.38,22.709-3.458,34.693-4.737c1.058-0.113,2.83,1.633,2.821,2.859l-1.586,36.605h5.823l-0.917-36.525
				c-0.008-1.226,1.599-3.051,2.656-2.938c11.984,1.278,22.716,3.357,34.693,4.737l-3.044-9.991
				c-0.49-1.741,0.206-3.664,1.583-4.732l34.787-28.257l-7.203-3.385c-3.169-1.133-2.283-2.911-1.147-7.204l5.307-19.297
				l-20.208,4.249c-1.973,0.298-3.289-0.955-3.588-2.147l-2.594-9.085l-15.981,17.891c-2.273,2.862-6.878,2.862-5.442-3.758
				l6.825-36.235l-9.157,4.742c-2.571,1.433-5.143,1.669-6.578-0.894"/>
		</g>
	</g>
	<polygon fill="#FFFFFF" points="430.323,384.716 80.178,384.716 113.62,412.188 396.88,412.188 	"/>
	<g>
		<path fill="#FFFFFF" d="M110.607,403.346c0-0.555,0.132-0.98,0.395-1.28c0.265-0.294,0.645-0.444,1.145-0.444
			c0.506,0,0.892,0.154,1.154,0.464c0.263,0.307,0.395,0.728,0.395,1.261c0,0.542-0.134,0.97-0.4,1.287
			c-0.268,0.317-0.65,0.477-1.15,0.477c-0.5,0-0.88-0.157-1.145-0.47C110.739,404.326,110.607,403.895,110.607,403.346z"/>
		<path fill="#FFFFFF" d="M127.03,398.435c0,2.064-0.482,3.674-1.445,4.833c-0.965,1.159-2.306,1.737-4.025,1.737
			c-1.076,0-2.026-0.268-2.851-0.8c-0.825-0.532-1.46-1.3-1.904-2.296c-0.442-0.999-0.665-2.159-0.665-3.475
			c0-2.051,0.478-3.651,1.435-4.801c0.957-1.153,2.306-1.728,4.046-1.728c1.664,0,2.982,0.588,3.951,1.767
			C126.545,394.849,127.03,396.436,127.03,398.435z M118.657,398.435c0,2.916,0.981,4.376,2.944,4.376
			c1.941,0,2.913-1.46,2.913-4.376c0-2.89-0.978-4.334-2.934-4.334c-1.025,0-1.77,0.372-2.23,1.12
			C118.887,395.969,118.657,397.037,118.657,398.435z"/>
		<path fill="#FFFFFF" d="M135.674,391.907c0.491,0,0.898,0.039,1.216,0.114l-0.238,2.501c-0.348-0.091-0.709-0.137-1.083-0.137
			c-0.978,0-1.77,0.353-2.377,1.052c-0.606,0.702-0.91,1.613-0.91,2.733v6.606h-2.444v-12.641h1.914l0.323,2.23h0.124
			c0.382-0.758,0.878-1.355,1.492-1.796C134.306,392.129,134.967,391.907,135.674,391.907z"/>
		<path fill="#FFFFFF" d="M148.739,392.135v1.473l-1.966,0.402c0.18,0.268,0.328,0.594,0.447,0.983
			c0.118,0.389,0.176,0.8,0.176,1.234c0,1.303-0.41,2.328-1.228,3.076c-0.818,0.745-1.945,1.117-3.38,1.117
			c-0.367,0-0.7-0.029-0.998-0.091c-0.527,0.359-0.792,0.777-0.792,1.261c0,0.287,0.124,0.506,0.371,0.65
			c0.245,0.144,0.697,0.219,1.357,0.219h2.007c1.269,0,2.234,0.294,2.892,0.888c0.66,0.594,0.988,1.453,0.988,2.573
			c0,1.434-0.537,2.537-1.612,3.315c-1.074,0.777-2.629,1.166-4.66,1.166c-1.568,0-2.763-0.304-3.587-0.914
			c-0.826-0.611-1.238-1.479-1.238-2.606c0-0.777,0.222-1.43,0.669-1.959c0.447-0.529,1.073-0.898,1.878-1.104
			c-0.325-0.153-0.594-0.398-0.807-0.738c-0.211-0.34-0.317-0.696-0.317-1.068c0-0.474,0.121-0.872,0.364-1.198
			c0.243-0.33,0.604-0.653,1.083-0.973c-0.598-0.281-1.081-0.741-1.452-1.378c-0.371-0.637-0.557-1.381-0.557-2.234
			c0-1.372,0.394-2.436,1.181-3.187c0.787-0.758,1.909-1.133,3.365-1.133c0.325,0,0.668,0.026,1.024,0.075
			c0.358,0.049,0.627,0.101,0.807,0.153H148.739z M139.699,406.743c0,0.578,0.238,1.025,0.714,1.339
			c0.474,0.31,1.141,0.467,2.002,0.467c1.331,0,2.322-0.209,2.975-0.63c0.652-0.418,0.976-0.973,0.976-1.665
			c0-0.549-0.178-0.94-0.536-1.172c-0.356-0.232-1.021-0.349-1.992-0.349h-1.85c-0.7,0-1.257,0.18-1.67,0.542
			C139.907,405.636,139.699,406.126,139.699,406.743z M140.751,396.227c0,0.794,0.185,1.401,0.555,1.829
			c0.372,0.428,0.903,0.64,1.597,0.64c1.414,0,2.123-0.829,2.123-2.492c0-0.823-0.176-1.457-0.526-1.904
			c-0.351-0.444-0.882-0.666-1.597-0.666c-0.707,0-1.243,0.219-1.607,0.66C140.932,394.738,140.751,395.381,140.751,396.227z"/>
		<path fill="#7E8083" d="M162.944,391.776c-1.202,0-2.132,0.464-2.791,1.394c-0.66,0.931-0.988,2.227-0.988,3.889
			c0,3.462,1.259,5.189,3.778,5.189c1.056,0,2.337-0.271,3.839-0.816v2.759c-1.234,0.532-2.614,0.797-4.138,0.797
			c-2.19,0-3.865-0.686-5.024-2.054c-1.161-1.368-1.741-3.334-1.741-5.895c0-1.613,0.286-3.027,0.856-4.242
			c0.568-1.212,1.388-2.142,2.454-2.789c1.068-0.65,2.319-0.973,3.754-0.973c1.461,0,2.929,0.366,4.405,1.094l-1.029,2.675
			c-0.563-0.274-1.13-0.516-1.7-0.722C164.051,391.877,163.493,391.776,162.944,391.776z"/>
		<path fill="#7E8083" d="M183.268,396.998c0,2.567-0.617,4.543-1.853,5.921c-1.236,1.381-3.006,2.07-5.312,2.07
			c-2.307,0-4.077-0.689-5.313-2.07c-1.234-1.378-1.853-3.36-1.853-5.944c0-2.583,0.62-4.556,1.858-5.917
			c1.239-1.362,3.016-2.041,5.328-2.041c2.314,0,4.082,0.686,5.307,2.057C182.656,392.449,183.268,394.421,183.268,396.998z
			 M172.283,396.998c0,1.734,0.32,3.037,0.958,3.916c0.638,0.878,1.592,1.316,2.862,1.316c2.546,0,3.819-1.744,3.819-5.232
			c0-3.498-1.267-5.245-3.8-5.245c-1.269,0-2.227,0.441-2.872,1.323C172.606,393.958,172.283,395.264,172.283,396.998z"/>
		<path fill="#7E8083" d="M198.494,396.871c0,2.554-0.705,4.51-2.116,5.868c-1.409,1.359-3.447,2.038-6.11,2.038h-4.262v-15.518
			h4.725c2.457,0,4.365,0.669,5.725,2.008C197.815,392.602,198.494,394.47,198.494,396.871z M195.18,396.956
			c0-3.334-1.427-5-4.283-5h-1.698v10.104h1.368C193.642,402.06,195.18,400.358,195.18,396.956z"/>
		<path fill="#7E8083" d="M209.903,404.777h-8.669v-15.518h8.669v2.697h-5.477v3.406h5.096v2.697h-5.096v4h5.477V404.777z"/>
		<path fill="#7E8083" d="M221.281,404.777h-3.14v-15.518h8.628v2.697h-5.488v4h5.106v2.688h-5.106V404.777z"/>
		<path fill="#7E8083" d="M242.994,396.998c0,2.567-0.617,4.543-1.853,5.921c-1.236,1.381-3.006,2.07-5.312,2.07
			c-2.307,0-4.077-0.689-5.313-2.07c-1.234-1.378-1.853-3.36-1.853-5.944c0-2.583,0.62-4.556,1.858-5.917
			c1.239-1.362,3.016-2.041,5.328-2.041c2.314,0,4.082,0.686,5.307,2.057C242.382,392.449,242.994,394.421,242.994,396.998z
			 M232.008,396.998c0,1.734,0.32,3.037,0.958,3.916c0.638,0.878,1.592,1.316,2.862,1.316c2.546,0,3.819-1.744,3.819-5.232
			c0-3.498-1.267-5.245-3.8-5.245c-1.269,0-2.227,0.441-2.872,1.323C232.332,393.958,232.008,395.264,232.008,396.998z"/>
		<path fill="#7E8083" d="M248.926,398.823v5.953h-3.192v-15.518h4.386c2.046,0,3.558,0.385,4.541,1.153
			c0.981,0.767,1.471,1.933,1.471,3.498c0,0.914-0.243,1.724-0.73,2.436c-0.488,0.712-1.177,1.267-2.07,1.672
			c2.265,3.488,3.741,5.741,4.427,6.76h-3.542l-3.592-5.953H248.926z M248.926,396.149h1.029c1.009,0,1.754-0.173,2.234-0.522
			c0.482-0.346,0.722-0.888,0.722-1.633c0-0.735-0.247-1.261-0.736-1.571c-0.491-0.31-1.251-0.467-2.281-0.467h-0.967V396.149z"/>
		<path fill="#7E8083" d="M270.933,391.776c-1.202,0-2.132,0.464-2.79,1.394c-0.66,0.931-0.988,2.227-0.988,3.889
			c0,3.462,1.259,5.189,3.778,5.189c1.056,0,2.337-0.271,3.839-0.816v2.759c-1.234,0.532-2.614,0.797-4.138,0.797
			c-2.19,0-3.865-0.686-5.024-2.054c-1.161-1.368-1.741-3.334-1.741-5.895c0-1.613,0.286-3.027,0.856-4.242
			c0.568-1.212,1.388-2.142,2.454-2.789c1.068-0.65,2.319-0.973,3.754-0.973c1.461,0,2.929,0.366,4.405,1.094l-1.029,2.675
			c-0.563-0.274-1.13-0.516-1.7-0.722C272.04,391.877,271.482,391.776,270.933,391.776z"/>
		<path fill="#7E8083" d="M286.809,404.777l-1.091-3.693h-5.488l-1.091,3.693h-3.439l5.312-15.58h3.902l5.333,15.58H286.809z
			 M284.956,398.324c-1.009-3.347-1.577-5.238-1.703-5.679c-0.127-0.438-0.219-0.784-0.273-1.038
			c-0.227,0.905-0.875,3.145-1.946,6.717H284.956z"/>
		<path fill="#7E8083" d="M305.115,404.777h-4.056l-6.548-11.737h-0.093c0.131,2.07,0.196,3.55,0.196,4.435v7.302h-2.853v-15.518
			h4.025l6.538,11.622h0.072c-0.103-2.015-0.154-3.442-0.154-4.275v-7.348h2.872V404.777z"/>
		<path fill="#7E8083" d="M317.739,404.777l-1.091-3.693h-5.488l-1.091,3.693h-3.439l5.312-15.58h3.902l5.333,15.58H317.739z
			 M315.885,398.324c-1.009-3.347-1.577-5.238-1.703-5.679c-0.127-0.438-0.219-0.784-0.273-1.038
			c-0.227,0.905-0.875,3.145-1.946,6.717H315.885z"/>
		<path fill="#7E8083" d="M335.179,396.871c0,2.554-0.705,4.51-2.116,5.868c-1.409,1.359-3.447,2.038-6.11,2.038h-4.262v-15.518
			h4.725c2.457,0,4.365,0.669,5.725,2.008C334.5,392.602,335.179,394.47,335.179,396.871z M331.864,396.956c0-3.334-1.427-5-4.283-5
			h-1.698v10.104h1.368C330.326,402.06,331.864,400.358,331.864,396.956z"/>
		<path fill="#7E8083" d="M347.133,404.777l-1.091-3.693h-5.488l-1.091,3.693h-3.439l5.312-15.58h3.902l5.333,15.58H347.133z
			 M345.28,398.324c-1.009-3.347-1.577-5.238-1.703-5.679c-0.127-0.438-0.219-0.784-0.273-1.038
			c-0.227,0.905-0.875,3.145-1.946,6.717H345.28z"/>
		<path fill="#D1D3D4" d="M356.296,403.346c0-0.555,0.126-0.98,0.377-1.28c0.253-0.294,0.617-0.444,1.094-0.444
			c0.485,0,0.852,0.154,1.104,0.464c0.253,0.307,0.379,0.728,0.379,1.261c0,0.542-0.129,0.97-0.384,1.287s-0.62,0.477-1.099,0.477
			c-0.477,0-0.841-0.157-1.094-0.47C356.422,404.326,356.296,403.895,356.296,403.346z"/>
		<path fill="#D1D3D4" d="M371.998,398.435c0,2.064-0.46,3.674-1.381,4.833c-0.921,1.159-2.204,1.737-3.849,1.737
			c-1.027,0-1.935-0.268-2.725-0.8c-0.789-0.532-1.394-1.3-1.819-2.296c-0.425-0.999-0.637-2.159-0.637-3.475
			c0-2.051,0.457-3.651,1.373-4.801c0.914-1.153,2.203-1.728,3.868-1.728c1.59,0,2.849,0.588,3.778,1.767
			C371.534,394.849,371.998,396.436,371.998,398.435z M363.993,398.435c0,2.916,0.937,4.376,2.813,4.376
			c1.857,0,2.786-1.46,2.786-4.376c0-2.89-0.936-4.334-2.805-4.334c-0.981,0-1.692,0.372-2.132,1.12
			S363.993,397.037,363.993,398.435z"/>
		<path fill="#D1D3D4" d="M380.263,391.907c0.47,0,0.857,0.039,1.163,0.114l-0.229,2.501c-0.331-0.091-0.676-0.137-1.034-0.137
			c-0.936,0-1.693,0.353-2.273,1.052c-0.58,0.702-0.87,1.613-0.87,2.733v6.606h-2.337v-12.641h1.83l0.307,2.23h0.121
			c0.364-0.758,0.839-1.355,1.425-1.796C378.955,392.129,379.585,391.907,380.263,391.907z"/>
		<path fill="#D1D3D4" d="M392.751,392.135v1.473l-1.879,0.402c0.173,0.268,0.315,0.594,0.428,0.983s0.17,0.8,0.17,1.234
			c0,1.303-0.392,2.328-1.174,3.076c-0.782,0.745-1.86,1.117-3.231,1.117c-0.353,0-0.669-0.029-0.955-0.091
			c-0.505,0.359-0.756,0.777-0.756,1.261c0,0.287,0.118,0.506,0.353,0.65c0.235,0.144,0.668,0.219,1.298,0.219h1.92
			c1.213,0,2.134,0.294,2.764,0.888c0.629,0.594,0.944,1.453,0.944,2.573c0,1.434-0.514,2.537-1.541,3.315
			c-1.027,0.777-2.513,1.166-4.454,1.166c-1.499,0-2.642-0.304-3.431-0.914c-0.789-0.611-1.184-1.479-1.184-2.606
			c0-0.777,0.214-1.43,0.642-1.959c0.428-0.529,1.025-0.898,1.794-1.104c-0.312-0.153-0.568-0.398-0.771-0.738
			c-0.202-0.34-0.304-0.696-0.304-1.068c0-0.474,0.116-0.872,0.349-1.198c0.232-0.33,0.576-0.653,1.034-0.973
			c-0.57-0.281-1.032-0.741-1.388-1.378c-0.354-0.637-0.531-1.381-0.531-2.234c0-1.372,0.376-2.436,1.128-3.187
			c0.753-0.758,1.824-1.133,3.217-1.133c0.312,0,0.638,0.026,0.98,0.075c0.341,0.049,0.598,0.101,0.771,0.153H392.751z
			 M384.11,406.743c0,0.578,0.227,1.025,0.681,1.339c0.454,0.31,1.092,0.467,1.914,0.467c1.274,0,2.222-0.209,2.844-0.63
			c0.624-0.418,0.936-0.973,0.936-1.665c0-0.549-0.171-0.94-0.513-1.172c-0.341-0.232-0.976-0.349-1.904-0.349h-1.77
			c-0.669,0-1.202,0.18-1.597,0.542C384.308,405.636,384.11,406.126,384.11,406.743z M385.114,396.227
			c0,0.794,0.178,1.401,0.532,1.829c0.354,0.428,0.864,0.64,1.527,0.64c1.352,0,2.028-0.829,2.028-2.492
			c0-0.823-0.168-1.457-0.501-1.904c-0.336-0.444-0.844-0.666-1.527-0.666c-0.676,0-1.189,0.219-1.536,0.66
			C385.289,394.738,385.114,395.381,385.114,396.227z"/>
	</g>
</g>
</svg>
