<?xml version="1.0" encoding="utf-8"?>
<!-- Generator: Adobe Illustrator 16.0.4, SVG Export Plug-In . SVG Version: 6.00 Build 0)  -->
<!DOCTYPE svg PUBLIC "-//W3C//DTD SVG 1.1//EN" "http://www.w3.org/Graphics/SVG/1.1/DTD/svg11.dtd">
<svg version="1.1" id="Ebene_1" xmlns="http://www.w3.org/2000/svg" xmlns:xlink="http://www.w3.org/1999/xlink" x="0px" y="0px"
	 width="198.425px" height="198.425px" viewBox="0 0 198.425 198.425" enable-background="new 0 0 198.425 198.425"
	 xml:space="preserve">
<polygon fill="#FFFFFF" points="39.425,133.768 39.425,64.658 99.425,30.097 159.425,64.658 159.425,133.768 99.425,168.328 "/>
<path fill="#050507" d="M98.925,32.983l57.5,33.119v66.221l-57.5,33.119l-57.5-33.119V66.102L98.925,32.983z M98.925,27.212
	l-62.5,36v72.001l62.5,36l62.5-36V63.212L98.925,27.212z"/>
<g>
	<path fill="none" stroke="#050507" stroke-width="2" stroke-miterlimit="10" d="M99.269,63.73c0,2.868-2.078,4.19-3.412,4.19"/>
	<path fill="none" stroke="#050507" stroke-width="2" stroke-miterlimit="10" d="M99.269,63.73c0,2.868,2.581,4.19,3.915,4.19"/>
	<line fill="none" stroke="#050507" stroke-width="2" stroke-miterlimit="10" x1="94.313" y1="76.425" x2="105.313" y2="76.425"/>
	<line fill="none" stroke="#050507" stroke-width="2" stroke-miterlimit="10" x1="94.313" y1="88.425" x2="105.313" y2="88.425"/>
	<line fill="none" stroke="#050507" stroke-width="2" stroke-miterlimit="10" x1="99.79" y1="87.908" x2="99.79" y2="75.908"/>
	<circle fill="none" stroke="#050507" stroke-width="2" stroke-miterlimit="10" cx="99.212" cy="58.128" r="1.53"/>
	<line fill="none" stroke="#050507" stroke-width="2" stroke-miterlimit="10" x1="99.425" y1="60" x2="99.425" y2="65"/>
	<path fill="none" stroke="#050507" stroke-width="2" stroke-miterlimit="10" d="M131.212,149.501v-21.076h-9.635
		c-4.422,0-5.365-6.02-5.365-6.02v-3.98h1.482v-1.699l-1.482-3.003v-9.439c0-9.739-7.965-12.831-9.557-13.483
		c-1.174-0.481-1.443-0.976-1.443-0.976v-1.399h1.76v-2.906v-1.617l-1.76-1.139v-4.835l1.832-1.12v-0.383h-1.832v-4.826
		c0-2.96-2.158-4.174-5.119-4.174h-0.387c-2.961,0-5.494,1.214-5.494,4.174v4.826h-2v0.383l2,1.12v4.835l-2,1.139v1.617v2.906h2
		v1.399c0,0-0.268,0.495-1.441,0.976c-1.594,0.652-9.559,3.744-9.559,13.483v9.439l-2.322,3.003v1.699h1.322v3.98
		c0,0,0.236,6.02-4.184,6.02H67.212v21.409"/>
	
		<line fill="none" stroke="#050507" stroke-width="2" stroke-miterlimit="10" x1="100.212" y1="113.787" x2="116.212" y2="113.787"/>
	<line fill="none" stroke="#050507" stroke-width="2" stroke-miterlimit="10" x1="83.212" y1="113.787" x2="98.212" y2="113.787"/>
	
		<line fill="none" stroke="#050507" stroke-width="2" stroke-miterlimit="10" x1="102.212" y1="118.425" x2="117.212" y2="118.425"/>
	<line fill="none" stroke="#050507" stroke-width="2" stroke-miterlimit="10" x1="82.212" y1="118.425" x2="96.212" y2="118.425"/>
	<line fill="none" stroke="#050507" stroke-width="2" stroke-miterlimit="10" x1="94.212" y1="73.425" x2="105.212" y2="73.425"/>
	<path fill="none" stroke="#050507" stroke-width="2" stroke-miterlimit="10" d="M107.478,91.292
		c-1.178,0.951-4.123,2.133-7.541,2.133h-0.037c-3.418,0-6.363-1.067-7.539-2.019"/>
	<path fill="none" stroke="#050507" stroke-width="2" stroke-miterlimit="10" d="M96.56,92.779
		c-2.172,3.649-3.104,12.92-3.104,21.008"/>
	<path fill="none" stroke="#050507" stroke-width="2" stroke-miterlimit="10" d="M102.411,92.779
		c2.172,3.649,3.104,12.656,3.104,21.008"/>
	<polyline fill="none" stroke="#050507" stroke-width="2" stroke-miterlimit="10" points="69.251,127.425 69.251,124.425 
		71.212,124.425 71.212,116.205 72.212,114.528 72.212,111.384 74.462,106.315 	"/>
	<polyline fill="none" stroke="#050507" stroke-width="2" stroke-miterlimit="10" points="79.212,127.425 79.212,124.425 
		77.212,124.425 77.212,116.205 76.212,114.528 76.212,111.384 74.462,106.315 	"/>
	<line fill="none" stroke="#050507" stroke-width="2" stroke-miterlimit="10" x1="74.462" y1="107.061" x2="74.462" y2="103.061"/>
	<polyline fill="none" stroke="#050507" stroke-width="2" stroke-miterlimit="10" points="119.845,127.425 119.845,124.425 
		121.806,124.425 121.806,116.205 122.806,114.528 122.806,111.384 125.056,106.315 	"/>
	<polyline fill="none" stroke="#050507" stroke-width="2" stroke-miterlimit="10" points="129.806,127.425 129.806,124.425 
		127.806,124.425 127.806,116.205 126.806,114.528 126.806,111.384 125.056,106.315 	"/>
	
		<line fill="none" stroke="#050507" stroke-width="2" stroke-miterlimit="10" x1="125.056" y1="107.061" x2="125.056" y2="103.061"/>
	<line fill="none" stroke="#050507" stroke-width="2" stroke-miterlimit="10" x1="99.212" y1="107.061" x2="99.212" y2="103.061"/>
	<path fill="none" stroke="#050507" stroke-width="2" stroke-miterlimit="10" d="M74.212,154.425V144.41
		c0-0.938,1.062-1.696,2-1.696c0.936,0,2,0.759,2,1.696v10.015"/>
	<path fill="none" stroke="#050507" stroke-width="2" stroke-miterlimit="10" d="M81.212,154.425V144.41
		c0-0.938,1.064-1.696,2-1.696c0.938,0,2,0.759,2,1.696v10.015"/>
	<path fill="none" stroke="#050507" stroke-width="2" stroke-miterlimit="10" d="M92.894,154.425V144.41
		c0-0.938,1.062-1.696,2-1.696c0.936,0,2,0.759,2,1.696v10.015"/>
	<path fill="none" stroke="#050507" stroke-width="2" stroke-miterlimit="10" d="M99.894,154.425V144.41
		c0-0.938,1.062-1.696,2-1.696c0.937,0,2,0.759,2,1.696v10.015"/>
	<path fill="none" stroke="#050507" stroke-width="2" stroke-miterlimit="10" d="M113.323,154.425V144.41
		c0-0.938,1.062-1.696,2-1.696c0.936,0,2,0.759,2,1.696v10.015"/>
	<path fill="none" stroke="#050507" stroke-width="2" stroke-miterlimit="10" d="M120.323,154.425V144.41
		c0-0.938,1.063-1.696,2-1.696c0.938,0,2,0.759,2,1.696v10.015"/>
	<polyline fill="none" stroke="#050507" stroke-width="2" stroke-miterlimit="10" points="104.212,133.425 104.212,124.425 
		102.212,124.425 102.212,116.205 101.212,114.528 101.212,114.139 101.212,111.384 99.179,106.811 	"/>
	<polyline fill="none" stroke="#050507" stroke-width="2" stroke-miterlimit="10" points="68.212,134.425 74.411,134.425 
		80.317,130.628 86.241,134.425 94.212,134.425 94.212,124.425 96.212,124.425 96.212,116.205 97.212,114.528 97.212,113.967 
		97.212,111.384 99.179,106.811 	"/>
	<path fill="none" stroke="#050507" stroke-width="2" stroke-miterlimit="10" d="M94.704,135.43c0-2.49,2.018-4.51,4.51-4.51
		c2.49,0,4.508,2.02,4.508,4.51"/>
	<polyline fill="none" stroke="#050507" stroke-width="2" stroke-miterlimit="10" points="131.212,134.425 124.698,134.425 
		118.792,130.628 112.868,134.425 104.212,134.425 	"/>
	<line fill="none" stroke="#050507" stroke-width="2" stroke-miterlimit="10" x1="68.212" y1="138.425" x2="131.212" y2="138.425"/>
	<line fill="none" stroke="#050507" stroke-width="2" stroke-miterlimit="10" x1="79.212" y1="157.425" x2="118.592" y2="157.425"/>
	<line fill="none" stroke="#050507" stroke-width="2" stroke-miterlimit="10" x1="75.925" y1="154.425" x2="124.323" y2="154.425"/>
	<line fill="none" stroke="#050507" stroke-width="2" stroke-miterlimit="10" x1="87.425" y1="162" x2="108.425" y2="162"/>
	<rect x="75.925" y="75.5" fill="#FFFFFF" width="46" height="13"/>
	<rect x="75.925" y="75.5" fill="none" stroke="#050507" stroke-miterlimit="10" width="46" height="13"/>
	<path fill="#050507" d="M83.267,78.638c1.68,0,3.219,1.139,3.219,3.498s-1.539,3.498-3.219,3.498h-2.059v-6.996H83.267z
		 M82.308,79.677v4.918h0.639c1.22,0,2.42-0.551,2.42-2.459c0-1.91-1.2-2.459-2.42-2.459H82.308z"/>
	<path fill="#050507" d="M87.728,85.634v-5.037h1.039v0.84c0.35-0.6,0.951-0.92,1.49-0.92c0.27,0,0.491,0.06,0.639,0.119
		l-0.18,0.949c-0.16-0.099-0.379-0.148-0.59-0.148c-0.669,0-1.359,0.738-1.359,2.328v1.869H87.728z"/>
	<path fill="#050507" d="M96.085,83.405h-3.567c0,0.738,0.43,1.389,1.249,1.389c0.539,0,1.06-0.299,1.32-0.85l0.889,0.35
		c-0.491,0.949-1.059,1.42-2.209,1.42c-1.659,0-2.348-1.401-2.348-2.6c0-1.199,0.689-2.598,2.348-2.598
		c1.609,0,2.318,1.309,2.318,2.438V83.405z M92.538,82.536h2.447c-0.09-0.561-0.468-1.1-1.218-1.1
		C93.077,81.436,92.647,81.905,92.538,82.536"/>
	<path fill="#050507" d="M100.347,81.315l-0.66,0.58c-0.25-0.32-0.561-0.459-0.879-0.459c-0.26,0-0.5,0.17-0.5,0.5
		c0,0.359,0.379,0.52,0.898,0.719c0.68,0.26,1.411,0.56,1.411,1.459c0,0.869-0.671,1.599-1.75,1.599c-1.04,0-1.688-0.72-1.948-1.349
		l0.879-0.481c0.199,0.452,0.549,0.911,1.11,0.911c0.4,0,0.679-0.2,0.679-0.661c0-0.439-0.609-0.558-1.199-0.808
		c-0.58-0.24-1.08-0.61-1.08-1.379c0-0.781,0.641-1.43,1.549-1.43C99.466,80.517,100.026,80.815,100.347,81.315"/>
	<path fill="#050507" d="M103.747,80.517c0.5,0,1.119,0.31,1.35,0.638v-2.597h1.039v7.076h-1.039v-0.58
		c-0.17,0.289-0.711,0.66-1.369,0.66c-1.49,0-2.25-0.99-2.25-2.6C101.478,81.556,102.237,80.517,103.747,80.517 M103.866,84.794
		c0.75,0,1.289-0.639,1.289-1.68c0-1.039-0.539-1.677-1.289-1.677c-0.748,0-1.289,0.638-1.289,1.677
		C102.577,84.155,103.118,84.794,103.866,84.794"/>
	<path fill="#050507" d="M111.956,83.405h-3.569c0,0.738,0.431,1.389,1.249,1.389c0.541,0,1.061-0.299,1.32-0.85l0.889,0.35
		c-0.488,0.949-1.059,1.42-2.209,1.42c-1.658,0-2.348-1.401-2.348-2.6c0-1.199,0.689-2.598,2.348-2.598
		c1.609,0,2.32,1.309,2.32,2.438V83.405z M108.407,82.536h2.449c-0.09-0.561-0.471-1.1-1.221-1.1
		C108.946,81.436,108.517,81.905,108.407,82.536"/>
	<path fill="#050507" d="M114.106,80.597v0.859c0.361-0.599,0.961-0.939,1.629-0.939c0.881,0,1.48,0.529,1.48,1.51v3.607h-1.039
		v-3.279c0-0.68-0.311-0.918-0.779-0.918c-0.65,0-1.291,0.769-1.291,2.158v2.039h-1.039v-5.037H114.106z"/>
	<polyline fill="none" stroke="#050507" stroke-miterlimit="10" points="121.97,75.423 117.62,70.423 136.745,70.423 
		132.058,76.505 136.62,82.423 121.62,82.423 	"/>
	<line fill="none" stroke="#050507" stroke-miterlimit="10" x1="116.952" y1="69.923" x2="116.952" y2="75.502"/>
	<polyline fill="none" stroke="#050507" stroke-miterlimit="10" points="75.852,75.423 80.202,70.423 61.077,70.423 65.764,76.505 
		61.202,82.423 76.202,82.423 	"/>
	<line fill="none" stroke="#050507" stroke-miterlimit="10" x1="80.867" y1="69.923" x2="80.867" y2="75.75"/>
	<path fill="#050507" d="M97.04,50.332c-0.186-0.121-0.322-0.162-0.484-0.162c-0.289,0-0.446,0.18-0.446,0.569v0.198h1.176v0.456
		H96.11v2.566h-0.502v-2.566h-0.851v-0.456h0.851v-0.185c0-0.732,0.354-1.038,0.928-1.038c0.277,0,0.463,0.071,0.631,0.174
		L97.04,50.332z"/>
	<path fill="#050507" d="M99.466,50.889c0.922,0,1.486,0.726,1.486,1.559s-0.564,1.56-1.486,1.56c-0.924,0-1.488-0.727-1.488-1.56
		S98.542,50.889,99.466,50.889 M99.466,53.552c0.617,0,0.971-0.522,0.971-1.104c0-0.581-0.354-1.103-0.971-1.103
		c-0.619,0-0.973,0.522-0.973,1.103C98.493,53.03,98.847,53.552,99.466,53.552"/>
	<path fill="#050507" d="M103.874,51.896c-0.041-0.348-0.223-0.552-0.582-0.552c-0.527,0-1.025,0.498-1.025,1.524v1.091h-0.504
		v-3.022h0.504v0.557c0.234-0.366,0.611-0.606,1.115-0.606c0.6,0,0.961,0.361,0.996,1.008H103.874z"/>
	<polygon fill="#050507" points="95.521,40.766 95.521,40.867 95.521,47.241 96.054,47.241 96.203,47.241 96.33,47.241 
		96.33,40.766 	"/>
	<path fill="#050507" d="M98.729,47.848c0.057,0,0.129-0.051,0.129-0.105v-7.584c0-0.055-0.072-0.101-0.129-0.101h-2.527
		c-0.055,0-0.075,0.022-0.075,0.051v0.151v0.506c0,0.055,0.02,0.102,0.075,0.102h1.718c0.057,0,0.129,0.044,0.129,0.099v5.967
		c0,0.055-0.072,0.104-0.129,0.104h-1.718c-0.055,0-0.075,0.019-0.075,0.047v0.152v0.506c0,0.054,0.02,0.105,0.075,0.105H98.729z"/>
	<polygon fill="#050507" points="99.87,40.766 99.87,40.867 99.87,47.241 100.55,47.241 100.681,47.241 100.681,40.766 	"/>
	<path fill="#050507" d="M100.579,47.844v-0.81c1.113,0,1.889-1.383,1.889-3.084c0-1.7-0.775-3.084-1.889-3.084v-0.808
		c1.518,0,2.697,1.746,2.697,3.892C103.276,46.097,102.097,47.844,100.579,47.844"/>
	<path fill="#050507" d="M92.183,45.355v1.115v0.36c0,0.605,0.387,1.017,0.998,1.017h0.172h0.496h0.584
		c0.029,0,0.076-0.051,0.076-0.105v-0.608c0-0.054-0.07-0.096-0.127-0.096h-0.58h-0.297h-0.183c-0.262,0-0.33-0.112-0.33-0.411
		v-0.177v-0.974v-0.594c0-0.609-0.248-0.834-0.551-0.945c0.303-0.109,0.551-0.334,0.551-0.943v-0.422v-1.07V41.25
		c0-0.294,0.058-0.382,0.33-0.382h0.228h0.289h0.594c0.029,0,0.076-0.047,0.076-0.102v-0.607c0-0.055-0.07-0.101-0.127-0.101h-0.486
		h-0.457h-0.258c-0.611,0-0.998,0.397-0.998,0.989v0.317v1.323c0,0-0.021,0.304-0.035,0.407c-0.039,0.274-0.373,0.508-0.582,0.505
		h-0.317c-0.056,0-0.078,0.043-0.078,0.099v0.607c0,0.055,0.022,0.104,0.078,0.104h0.289c0.266-0.004,0.6,0.218,0.625,0.552
		C92.17,45.057,92.183,45.355,92.183,45.355"/>
	<path fill="#050507" d="M96.202,40.058h-0.287h-0.318c-0.057,0-0.077,0.046-0.077,0.101v0.187v0.42v0.102h0.077h0.605h0.127v-0.102
		v-0.607v-0.101H96.202z"/>
	<path fill="#050507" d="M95.521,47.135v0.287v0.32c0,0.055,0.02,0.106,0.076,0.106h0.186h0.42h0.127v-0.106v-0.607v-0.097h-0.127
		h-0.606h-0.076V47.135z"/>
	<path fill="#050507" d="M100.55,40.058h-0.285h-0.32c-0.057,0-0.074,0.046-0.074,0.101v0.187v0.42v0.102h0.074h0.605h0.131v-0.102
		v-0.607v-0.101H100.55z"/>
	<path fill="#050507" d="M99.87,47.135v0.287v0.32c0,0.055,0.018,0.106,0.074,0.106h0.186h0.42h0.131v-0.106v-0.607v-0.097h-0.131
		h-0.605H99.87V47.135z"/>
	<path fill="#050507" d="M104.929,45.355v1.115v0.36c0,0.605,0.381,1.017,0.992,1.017h0.172h0.496h0.584
		c0.026,0,0.082-0.051,0.082-0.105v-0.608c0-0.054-0.076-0.096-0.133-0.096h-0.58h-0.297h-0.184c-0.262,0-0.324-0.112-0.324-0.411
		v-0.177v-0.974v-0.594c0-0.195-0.057-0.373-0.102-0.474h-1.357c0.373,0.101,0.531,0.234,0.609,0.558
		C104.925,45.128,104.929,45.355,104.929,45.355"/>
	<path fill="#050507" d="M104.872,43.094c-0.078,0.265-0.254,0.403-0.566,0.505h1.275c0.078-0.202,0.156-0.337,0.156-0.606v-0.42
		v-1.07v-0.254c0-0.294,0.053-0.382,0.324-0.382h0.229h0.289h0.594c0.027,0,0.082-0.046,0.082-0.101v-0.608
		c0-0.054-0.076-0.1-0.133-0.1h-0.486h-0.457h-0.258c-0.611,0-0.992,0.396-0.992,0.989v0.317v1.323
		C104.929,42.687,104.911,42.961,104.872,43.094"/>
	<path fill="#050507" d="M105.069,44.01c0.205,0.074,0.428,0.195,0.566,0.398h1.486c0.057,0,0.133-0.048,0.133-0.103v-0.607
		c0-0.056-0.076-0.1-0.133-0.1h-1.541C105.479,43.801,105.237,43.948,105.069,44.01"/>
	<path fill="#050507" d="M103.987,43.599c-0.055,0-0.07,0.044-0.07,0.099v0.607c0,0.055,0.016,0.104,0.07,0.104h0.291h1.357
		c-0.092-0.204-0.316-0.342-0.479-0.405c0.168-0.062,0.322-0.203,0.424-0.405h-1.275H103.987z"/>
</g>
</svg>
