<?xml version="1.0" encoding="utf-8"?>
<!-- Generator: Adobe Illustrator 17.0.0, SVG Export Plug-In . SVG Version: 6.00 Build 0)  -->
<!DOCTYPE svg PUBLIC "-//W3C//DTD SVG 1.1//EN" "http://www.w3.org/Graphics/SVG/1.1/DTD/svg11.dtd">
<svg version="1.1" id="Layer_1" xmlns="http://www.w3.org/2000/svg" xmlns:xlink="http://www.w3.org/1999/xlink" x="0px" y="0px"
	 width="512px" height="512px" viewBox="0 0 512 512" enable-background="new 0 0 512 512" xml:space="preserve">
<g>
	<polygon fill="#FF0000" points="47.052,376.52 47.052,135.249 255.999,14.729 464.948,135.249 464.948,376.52 255.999,497.271 	"/>
</g>
<g>
	<g>
		<g>
			<path fill="#FFFFFF" d="M103.817,336.796V175.204h32.638v6.208c0,1.301-0.399,2.321-1.197,3.06
				c-0.798,0.74-1.849,1.109-3.148,1.109H117.12V326.33h14.988c1.3,0,2.35,0.369,3.148,1.109c0.798,0.739,1.197,1.788,1.197,3.149
				v6.208H103.817z"/>
			<path fill="#FFFFFF" d="M147.183,273.472c0-3.725-1.035-6.785-3.104-9.179c-2.07-2.395-5.086-3.592-9.046-3.592v-9.49
				c3.961,0,6.976-1.182,9.046-3.548c2.069-2.364,3.104-5.439,3.104-9.224c0-2.956-0.237-5.883-0.71-8.78
				c-0.474-2.896-0.991-5.794-1.552-8.692c-0.563-2.896-1.08-5.823-1.552-8.78c-0.474-2.956-0.71-5.971-0.71-9.046
				c0-4.08,0.606-7.834,1.818-11.263c1.211-3.428,3.045-6.386,5.499-8.869c2.453-2.483,5.499-4.404,9.135-5.765
				c3.636-1.359,7.878-2.04,12.727-2.04h4.7v7.006c0,1.183-0.414,2.04-1.242,2.572c-0.829,0.532-1.596,0.798-2.306,0.798h-1.774
				c-4.554,0-8.145,1.494-10.776,4.479c-2.632,2.986-3.947,7.022-3.947,12.106c0,3.312,0.207,6.505,0.621,9.578
				c0.413,3.075,0.887,6.075,1.419,9.002c0.532,2.927,1.005,5.84,1.419,8.736c0.413,2.898,0.621,5.824,0.621,8.78
				c0,2.248-0.326,4.332-0.975,6.253c-0.651,1.922-1.583,3.636-2.794,5.144c-1.213,1.508-2.632,2.809-4.257,3.902
				c-1.627,1.095-3.415,1.907-5.366,2.439c1.951,0.532,3.739,1.346,5.366,2.439c1.626,1.095,3.044,2.41,4.257,3.947
				c1.211,1.538,2.142,3.252,2.794,5.144c0.65,1.893,0.975,3.933,0.975,6.12c0,2.957-0.208,5.884-0.621,8.78
				c-0.414,2.898-0.887,5.809-1.419,8.736c-0.532,2.927-1.006,5.928-1.419,9.002c-0.414,3.075-0.621,6.268-0.621,9.578
				c0,5.144,1.315,9.193,3.947,12.15c2.63,2.956,6.222,4.434,10.776,4.434h1.774c0.71,0,1.477,0.266,2.306,0.798
				c0.827,0.532,1.242,1.389,1.242,2.572v7.095h-4.7c-4.849,0-9.091-0.696-12.727-2.084c-3.636-1.39-6.682-3.326-9.135-5.809
				c-2.454-2.483-4.287-5.44-5.499-8.869c-1.213-3.43-1.818-7.184-1.818-11.264c0-3.074,0.236-6.075,0.71-9.002
				c0.472-2.927,0.989-5.854,1.552-8.78c0.561-2.927,1.078-5.838,1.552-8.736C146.946,279.356,147.183,276.429,147.183,273.472z"/>
			<path fill="#FFFFFF" d="M194.364,182.232v12.949l-0.798,6.785c-0.119,0.503-0.385,0.895-0.798,1.175
				c-0.414,0.281-1.124,0.421-2.128,0.421c-0.829,0-1.479-0.14-1.951-0.421c-0.474-0.281-0.769-0.672-0.887-1.175l-0.798-6.785
				v-12.949H194.364z"/>
			<path fill="#FFFFFF" d="M324.996,182.232v12.949l-0.798,6.785c-0.119,0.503-0.385,0.895-0.798,1.175
				c-0.415,0.281-1.124,0.421-2.129,0.421c-0.829,0-1.479-0.14-1.951-0.421c-0.474-0.281-0.769-0.672-0.887-1.175l-0.798-6.785
				v-12.949H324.996z"/>
			<path fill="#FFFFFF" d="M364.816,273.472c0,2.957,0.236,5.884,0.71,8.78c0.473,2.898,0.99,5.809,1.552,8.736
				c0.561,2.927,1.078,5.853,1.552,8.78c0.473,2.927,0.71,5.928,0.71,9.002c0,4.08-0.621,7.834-1.862,11.264
				c-1.242,3.428-3.075,6.386-5.499,8.869c-2.425,2.483-5.454,4.419-9.091,5.809c-3.636,1.388-7.88,2.084-12.727,2.084h-4.701V329.7
				c0-1.183,0.413-2.04,1.242-2.572c0.827-0.532,1.596-0.798,2.306-0.798h1.774c4.552,0,8.144-1.479,10.775-4.434
				c2.63-2.957,3.947-7.006,3.947-12.15c0-3.31-0.208-6.503-0.621-9.578c-0.414-3.074-0.887-6.075-1.419-9.002
				c-0.532-2.927-1.006-5.838-1.419-8.736c-0.414-2.896-0.621-5.823-0.621-8.78c0-2.187,0.324-4.227,0.976-6.12
				c0.65-1.891,1.581-3.606,2.794-5.144c1.211-1.537,2.63-2.852,4.257-3.947c1.625-1.093,3.414-1.907,5.365-2.439
				c-1.951-0.532-3.74-1.344-5.365-2.439c-1.627-1.094-3.046-2.395-4.257-3.902c-1.213-1.508-2.144-3.222-2.794-5.144
				c-0.651-1.921-0.976-4.005-0.976-6.253c0-2.956,0.207-5.883,0.621-8.78c0.413-2.896,0.887-5.809,1.419-8.736
				c0.532-2.927,1.005-5.927,1.419-9.002c0.413-3.074,0.621-6.267,0.621-9.578c0-5.084-1.316-9.12-3.947-12.106
				c-2.632-2.985-6.223-4.479-10.775-4.479h-1.774c-0.71,0-1.479-0.266-2.306-0.798c-0.829-0.532-1.242-1.389-1.242-2.572v-7.006
				h4.701c4.848,0,9.091,0.68,12.727,2.04c3.636,1.361,6.666,3.282,9.091,5.765c2.424,2.483,4.257,5.441,5.499,8.869
				c1.242,3.43,1.862,7.184,1.862,11.263c0,3.075-0.237,6.091-0.71,9.046c-0.474,2.957-0.991,5.884-1.552,8.78
				c-0.563,2.898-1.08,5.795-1.552,8.692c-0.474,2.898-0.71,5.824-0.71,8.78c0,3.785,1.034,6.86,3.104,9.224
				c2.069,2.365,5.084,3.548,9.046,3.548v9.49c-3.962,0-6.977,1.197-9.046,3.592C365.85,266.687,364.816,269.747,364.816,273.472z"
				/>
			<path fill="#FFFFFF" d="M375.546,330.588c0-1.184,0.399-2.188,1.197-3.015c0.798-0.829,1.847-1.242,3.148-1.242h14.989V185.581
				h-14.989c-1.301,0-2.35-0.399-3.148-1.197c-0.798-0.798-1.197-1.788-1.197-2.971v-6.208h32.638v161.591h-32.638V330.588z"/>
		</g>
		<path fill="#FFFFFF" d="M255.261,193.888l-11.38,21.224c-1.291,2.307-3.605,2.093-5.918,0.804l-8.239-4.266l6.14,32.6
			c1.291,5.956-2.852,5.956-4.896,3.381l-14.378-16.096l-2.334,8.174c-0.269,1.073-1.452,2.201-3.228,1.932l-18.181-3.823
			l4.775,17.361c1.022,3.863,1.82,5.462-1.032,6.481l-6.48,3.045l31.297,25.422c1.239,0.962,1.865,2.691,1.424,4.257l-2.739,8.989
			c10.776-1.242,20.431-3.111,31.213-4.262c0.952-0.102,2.546,1.469,2.538,2.572l-1.427,32.933h5.239l-0.825-32.861
			c-0.007-1.103,1.439-2.745,2.39-2.643c10.782,1.15,20.437,3.02,31.213,4.262l-2.739-8.989c-0.441-1.566,0.185-3.296,1.424-4.257
			l31.297-25.422l-6.48-3.045c-2.851-1.019-2.054-2.619-1.032-6.481l4.775-17.361l-18.181,3.823
			c-1.775,0.268-2.959-0.859-3.228-1.932l-2.334-8.174l-14.378,16.096c-2.045,2.575-6.188,2.575-4.896-3.381l6.14-32.6l-8.238,4.266
			c-2.313,1.289-4.627,1.502-5.918-0.804"/>
	</g>
</g>
</svg>
