<?xml version="1.0" encoding="utf-8"?>
<!-- Generator: Adobe Illustrator 16.0.4, SVG Export Plug-In . SVG Version: 6.00 Build 0)  -->
<!DOCTYPE svg PUBLIC "-//W3C//DTD SVG 1.1//EN" "http://www.w3.org/Graphics/SVG/1.1/DTD/svg11.dtd">
<svg version="1.1" id="Ebene_1" xmlns="http://www.w3.org/2000/svg" xmlns:xlink="http://www.w3.org/1999/xlink" x="0px" y="0px"
	 width="198.425px" height="198.425px" viewBox="0 0 198.425 198.425" enable-background="new 0 0 198.425 198.425"
	 xml:space="preserve">
<polygon fill="#FF867F" points="161.712,135.212 99.213,171.212 36.713,135.212 36.713,63.212 99.213,27.212 161.712,63.212 "/>
<polygon fill="none" stroke="#FFFFFF" stroke-width="2" stroke-miterlimit="10" points="157.712,133.046 99.213,166.88 
	40.713,133.046 40.713,65.378 99.213,31.546 157.712,65.378 "/>
<g>
	<path fill="none" stroke="#FFFFFF" stroke-width="2" stroke-miterlimit="10" d="M108.859,61.362
		c-1.357-1.623-3.443-2.938-9.062-2.938h-0.254c-5.617,0-7.617,1.116-8.977,2.74"/>
	<path fill="none" stroke="#FFFFFF" stroke-width="2" stroke-miterlimit="10" d="M96.637,65.935c0,0-3.11-4.572-5.28-4.572
		c-4.545,0-6.862,3.353-6.862,3.353"/>
	<path fill="none" stroke="#FFFFFF" stroke-width="2" stroke-miterlimit="10" d="M91.76,66.016c0,0-6.227-2.297-8.632-0.9
		c-1.862,1.081-3.627,3.091-3.627,3.091"/>
	<path fill="none" stroke="#FFFFFF" stroke-width="2" stroke-miterlimit="10" d="M84.025,68.067c0,0-14.755-3.565-34.024,25.231
		c0,0,4.438,9.635,12.125,14.833c0,0-6.003,8.418,1.436,24.096"/>
	<path fill="none" stroke="#FFFFFF" stroke-width="2" stroke-miterlimit="10" d="M89.486,92.26c0,0.905-0.719,1.672-1.625,1.672
		c-0.906,0-1.654-0.767-1.654-1.672"/>
	<path fill="none" stroke="#FFFFFF" stroke-width="2" stroke-miterlimit="10" d="M80.838,95.788c0,0,2.496,4.053,4.888,4.061
		c1.779,0.002,7.116-4.784,9.036-4.784"/>
	<path fill="none" stroke="#FFFFFF" stroke-width="2" stroke-miterlimit="10" d="M102.078,105.833
		c1.578,0.342,2.133-0.752,2.17-2.018c0.027-0.994-1.756-2.054-3.045-1.288c-0.897,0.533-0.582,2.328-2.488,2.328
		c-1.586,0-1.586-1.354-1.586-2.437c0-1.199-2.363-2.87-1.39-6.009l-0.703-2.589c-2.122-0.837-2.853-2.264-6.687-2.483
		c-2.658-0.151-5.258,1.996-5.546,2.285"/>
	<path fill="none" stroke="#FFFFFF" stroke-width="2" stroke-miterlimit="10" d="M95.514,105.897
		c-1.926,0.317-2.156-1.121-2.195-1.878c-0.035-0.686,0.668-1.491,1.776-1.467c0.805,0.018,1.371,0.396,2.055,0.656"/>
	<path fill="none" stroke="#FFFFFF" stroke-width="2" stroke-miterlimit="10" d="M93.318,112.966
		c-1.659,0.648-5.932,6.351-7.23,7.578c-1.301,1.227-3.25,1.66-3.754,0.648c-0.505-1.011,0.433-3.607,0-4.33"/>
	<line fill="none" stroke="#FFFFFF" stroke-width="2" stroke-miterlimit="10" x1="75.548" y1="80.091" x2="66.618" y2="86.37"/>
	<line fill="none" stroke="#FFFFFF" stroke-width="2" stroke-miterlimit="10" x1="76.503" y1="75.533" x2="68.514" y2="79.766"/>
	<line fill="none" stroke="#FFFFFF" stroke-width="2" stroke-miterlimit="10" x1="75.934" y1="93.333" x2="62.125" y2="108.13"/>
	<line fill="none" stroke="#FFFFFF" stroke-width="2" stroke-miterlimit="10" x1="51.662" y1="97.238" x2="57.795" y2="93.299"/>
	<line fill="none" stroke="#FFFFFF" stroke-width="2" stroke-miterlimit="10" x1="50.556" y1="94.402" x2="54.729" y2="91.672"/>
	<polyline fill="none" stroke="#FFFFFF" stroke-width="2" stroke-miterlimit="10" points="58.662,96.371 70.381,88.642 
		76.503,88.318 	"/>
	<line fill="none" stroke="#FFFFFF" stroke-width="2" stroke-miterlimit="10" x1="73.526" y1="116.574" x2="74.796" y2="111.612"/>
	<line fill="none" stroke="#FFFFFF" stroke-width="2" stroke-miterlimit="10" x1="68.897" y1="117.873" x2="72.193" y2="111.441"/>
	<line fill="none" stroke="#FFFFFF" stroke-width="2" stroke-miterlimit="10" x1="63.655" y1="118.957" x2="69.514" y2="110.944"/>
	<path fill="none" stroke="#FFFFFF" stroke-width="2" stroke-miterlimit="10" d="M101.789,65.935c0,0,3.109-4.572,5.279-4.572
		c4.545,0,6.86,3.353,6.86,3.353"/>
	<path fill="none" stroke="#FFFFFF" stroke-width="2" stroke-miterlimit="10" d="M106.666,66.016c0,0,6.227-2.297,8.631-0.9
		c1.863,1.081,3.627,3.091,3.627,3.091"/>
	<path fill="none" stroke="#FFFFFF" stroke-width="2" stroke-miterlimit="10" d="M114.399,68.067c0,0,14.755-3.565,34.024,25.231
		c0,0-4.438,9.635-12.125,14.833c0,0,5.806,8.141-1.078,23.322"/>
	<path fill="none" stroke="#FFFFFF" stroke-width="2" stroke-miterlimit="10" d="M115.805,121.193l2.704,0.908
		c2.017-5.645-1.211-9.477-1.211-9.477s1.916-2.621,2.22-4.437c0.303-1.813,1.108-3.528,2.418-6.149
		c1.312-2.621-0.302-13.812-0.302-13.812c2.822-11.492-1.512-15.143-1.512-15.143c-7.057-9.276-21.069-6.907-21.069-6.907h-0.256
		c0,0-14.013-2.369-21.07,6.907c0,0-4.334,3.742-1.512,15.233c0,0-1.611,11.146-0.301,13.767c1.309,2.621,2.116,4.313,2.418,6.129
		c0.303,1.812,2.219,4.422,2.219,4.422s-3.226,3.828-1.211,9.473l2.707-0.911"/>
	<path fill="none" stroke="#FFFFFF" stroke-width="2" stroke-miterlimit="10" d="M117.587,112.625
		c-1.897-3.012-9.074-4.35-10.156-4.855c-1.082-0.505-3.107-2.284-7.726-1.952l-1.566-0.038c-4.618-0.332-6.063,1.485-7.145,1.99
		c-1.082,0.507-8.259,1.846-10.156,4.855"/>
	<path fill="none" stroke="#FFFFFF" stroke-width="2" stroke-miterlimit="10" d="M118.112,92.433
		c-1.786-2.706-3.627-4.006-6.135-4.366c-1.962-0.282-3.465,0.718-6.136,1.439c-2.67,0.722-4.163,0.919-6.546,0.919h-0.167
		c-2.382,0-3.876-0.197-6.546-0.919c-2.67-0.721-4.173-1.655-6.135-1.373c-2.508,0.361-4.349,1.627-6.135,4.333"/>
	<path fill="none" stroke="#FFFFFF" stroke-width="2" stroke-miterlimit="10" d="M108.348,92.292c0,0.905,0.733,1.64,1.641,1.64
		s1.64-0.735,1.64-1.64"/>
	<path fill="none" stroke="#FFFFFF" stroke-width="2" stroke-miterlimit="10" d="M118.923,87.996c0,0-1.047-5.974-9.422-5.435
		c-4.347,0.284-7.588,0.864-9.792,0.864h-0.995c-2.202,0-5.445-0.58-9.792-0.864c-8.374-0.539-9.422,5.468-9.422,5.468"/>
	<path fill="none" stroke="#FFFFFF" stroke-width="2" stroke-miterlimit="10" d="M117.587,95.788c0,0-2.418,4.053-4.812,4.061
		c-1.778,0.002-7.772-4.612-9.772-4.612l0.539-1.415c2-0.837,2.773-2.264,6.61-2.483c2.656-0.151,5.218,1.996,5.507,2.285"/>
	<path fill="none" stroke="#FFFFFF" stroke-width="2" stroke-miterlimit="10" d="M105.107,112.966
		c1.658,0.648,5.932,6.351,7.23,7.578c1.3,1.227,3.248,1.66,3.754,0.648c0.505-1.011-0.434-3.607,0-4.33"/>
	<path fill="none" stroke="#FFFFFF" stroke-width="2" stroke-miterlimit="10" d="M107.434,114.951
		c-1.998,2.922-2.46,3.475-7.442,3.475h-1.557c-4.983,0-5.596-0.553-7.402-2.967"/>
	<line fill="none" stroke="#FFFFFF" stroke-width="2" stroke-miterlimit="10" x1="122.876" y1="80.091" x2="131.807" y2="86.37"/>
	<line fill="none" stroke="#FFFFFF" stroke-width="2" stroke-miterlimit="10" x1="122.126" y1="76.05" x2="129.912" y2="79.767"/>
	<line fill="none" stroke="#FFFFFF" stroke-width="2" stroke-miterlimit="10" x1="122.472" y1="93.038" x2="136.298" y2="108.13"/>
	<polyline fill="none" stroke="#FFFFFF" stroke-width="2" stroke-miterlimit="10" points="118,156.425 118,132.845 109.705,127.425 
		88.721,127.425 80,132.935 80,155.425 	"/>
	<line fill="none" stroke="#FFFFFF" stroke-width="2" stroke-miterlimit="10" x1="146.763" y1="97.238" x2="140.63" y2="93.299"/>
	<line fill="none" stroke="#FFFFFF" stroke-width="2" stroke-miterlimit="10" x1="147.869" y1="94.402" x2="143.696" y2="91.672"/>
	<polyline fill="none" stroke="#FFFFFF" stroke-width="2" stroke-miterlimit="10" points="139.764,96.371 128.044,88.642 
		121.921,88.228 	"/>
	<polyline fill="none" stroke="#FFFFFF" stroke-width="2" stroke-miterlimit="10" points="109.705,127.425 102.957,122.425 
		99.8,122.425 98.933,122.425 95.469,122.425 88.721,127.425 	"/>
	
		<line fill="none" stroke="#FFFFFF" stroke-width="2" stroke-miterlimit="10" x1="124.898" y1="116.574" x2="123.628" y2="111.612"/>
	
		<line fill="none" stroke="#FFFFFF" stroke-width="2" stroke-miterlimit="10" x1="129.527" y1="117.873" x2="126.231" y2="111.441"/>
	<line fill="none" stroke="#FFFFFF" stroke-width="2" stroke-miterlimit="10" x1="134.771" y1="118.957" x2="128.91" y2="110.944"/>
	<path fill="none" stroke="#FFFFFF" stroke-width="2" stroke-miterlimit="10" d="M106.058,109.679c0,0,0.374,3.541-2.508,3.541
		c-2.412,0-4.438-2.492-4.438-2.492s-2.304,2.492-4.337,2.492c-2.883,0-2.508-3.499-2.508-3.499"/>
	<polyline fill="none" stroke="#FFFFFF" stroke-width="2" stroke-miterlimit="10" points="63.134,131.296 69.054,128.867 
		80.313,132.813 	"/>
	<polyline fill="none" stroke="#FFFFFF" stroke-width="2" stroke-miterlimit="10" points="136.298,131.296 128.955,128.867 
		117.695,132.813 	"/>
	<rect x="74.5" y="135.925" fill="#FF867F" width="49" height="12"/>
	<rect x="74.5" y="135.925" fill="none" stroke="#FFFFFF" stroke-miterlimit="10" width="49" height="12"/>
	<path fill="#FFFFFF" d="M82.84,140.757c-0.352-0.891-0.84-1.34-1.789-1.34c-1.18,0-2.119,0.83-2.119,2.539s0.939,2.537,2.119,2.537
		c0.949,0,1.437-0.449,1.789-1.339l1.039,0.261c-0.359,1.318-1.34,2.119-2.828,2.119c-1.69,0-3.238-1.211-3.238-3.578
		c0-2.369,1.548-3.578,3.238-3.578c1.488,0,2.469,0.799,2.828,2.119L82.84,140.757z"/>
	<path fill="#FFFFFF" d="M86.01,138.378v2.897c0.361-0.521,0.939-0.938,1.699-0.938c0.93,0,1.49,0.498,1.49,1.568v3.549H88.16
		v-3.279c0-0.77-0.32-0.92-0.791-0.92c-0.568,0-1.359,0.73-1.359,2.07v2.129h-1.039v-7.076H86.01z"/>
	<path fill="#FFFFFF" d="M94.949,143.225H91.38c0,0.739,0.43,1.392,1.25,1.392c0.54,0,1.059-0.302,1.319-0.851l0.89,0.351
		c-0.49,0.948-1.06,1.418-2.209,1.418c-1.66,0-2.349-1.398-2.349-2.599s0.689-2.599,2.349-2.599c1.61,0,2.319,1.31,2.319,2.438
		V143.225z M91.4,142.355h2.449c-0.09-0.561-0.47-1.1-1.219-1.1C91.941,141.255,91.511,141.727,91.4,142.355"/>
	<path fill="#FFFFFF" d="M97.221,140.417v0.858c0.41-0.63,0.91-0.938,1.52-0.938c0.679,0,1.238,0.408,1.387,1.039
		c0.351-0.66,0.92-1.039,1.568-1.039c0.92,0,1.439,0.629,1.439,1.509v3.608h-1.039v-3.379c0-0.55-0.299-0.82-0.74-0.82
		c-0.619,0-1.178,0.791-1.178,2.181v2.019h-1.041v-3.377c0-0.551-0.299-0.82-0.738-0.82c-0.631,0-1.18,0.789-1.18,2.289v1.908
		h-1.039v-5.037H97.221L97.221,140.417z"/>
	<path fill="#FFFFFF" d="M105.589,140.417v0.858c0.361-0.601,0.961-0.938,1.63-0.938c0.881,0,1.479,0.529,1.479,1.509v3.608h-1.039
		v-3.279c0-0.68-0.311-0.92-0.779-0.92c-0.649,0-1.291,0.771-1.291,2.16v2.039h-1.039v-5.037H105.589z"/>
	<path fill="#FFFFFF" d="M110.5,138.268c0.41,0,0.722,0.33,0.722,0.729s-0.312,0.709-0.722,0.709c-0.408,0-0.719-0.31-0.719-0.709
		S110.091,138.268,110.5,138.268 M111.021,145.455h-1.041v-5.037h1.041V145.455z"/>
	<path fill="#FFFFFF" d="M112.072,140.417h0.838v-1.391l1.041-0.648v2.039h1.311v0.918h-1.311v2.459c0,0.57,0.209,0.82,0.668,0.82
		c0.184,0,0.301-0.031,0.48-0.141l0.27,0.88c-0.27,0.13-0.529,0.181-0.809,0.181c-0.949,0-1.65-0.561-1.65-1.801v-2.398h-0.838
		V140.417z"/>
	<polygon fill="#FFFFFF" points="116.291,140.417 119.759,140.417 119.759,140.835 117.49,144.535 119.869,144.535 119.869,145.455 
		116.143,145.455 116.143,145.035 118.41,141.335 116.291,141.335 	"/>
	<line fill="none" stroke="#FFFFFF" stroke-width="2" stroke-miterlimit="10" x1="63" y1="131.425" x2="63" y2="146.425"/>
	<line fill="none" stroke="#FFFFFF" stroke-width="2" stroke-miterlimit="10" x1="135" y1="131.425" x2="135" y2="146.425"/>
	<line fill="none" stroke="#FFFFFF" stroke-width="2" stroke-miterlimit="10" x1="156.917" y1="65.428" x2="131.839" y2="74.569"/>
	<line fill="none" stroke="#FFFFFF" stroke-width="2" stroke-miterlimit="10" x1="126.231" y1="70.891" x2="140.628" y2="55.333"/>
	<line fill="none" stroke="#FFFFFF" stroke-width="2" stroke-miterlimit="10" x1="121.518" y1="67.927" x2="126.231" y2="47.68"/>
	<line fill="none" stroke="#FFFFFF" stroke-width="2" stroke-miterlimit="10" x1="138" y1="80.425" x2="157" y2="80.425"/>
	<line fill="none" stroke="#FFFFFF" stroke-width="2" stroke-miterlimit="10" x1="41.519" y1="65.165" x2="67.309" y2="74.568"/>
	<line fill="none" stroke="#FFFFFF" stroke-width="2" stroke-miterlimit="10" x1="72.917" y1="70.891" x2="58.519" y2="55.333"/>
	<line fill="none" stroke="#FFFFFF" stroke-width="2" stroke-miterlimit="10" x1="77.631" y1="67.927" x2="72.917" y2="47.68"/>
	<line fill="none" stroke="#FFFFFF" stroke-width="2" stroke-miterlimit="10" x1="41" y1="82.425" x2="58" y2="82.425"/>
	<path fill="#FFFFFF" d="M97.041,50.332c-0.187-0.121-0.324-0.162-0.486-0.162c-0.287,0-0.444,0.18-0.444,0.569v0.198h1.174v0.456
		h-1.174v2.566h-0.504v-2.566h-0.851v-0.456h0.851v-0.185c0-0.732,0.354-1.038,0.93-1.038c0.275,0,0.461,0.071,0.629,0.174
		L97.041,50.332z"/>
	<path fill="#FFFFFF" d="M99.465,50.889c0.924,0,1.486,0.726,1.486,1.559s-0.562,1.56-1.486,1.56c-0.924,0-1.488-0.727-1.488-1.56
		S98.541,50.889,99.465,50.889 M99.465,53.552c0.617,0,0.971-0.521,0.971-1.104c0-0.581-0.354-1.104-0.971-1.104
		s-0.971,0.522-0.971,1.104C98.494,53.03,98.848,53.552,99.465,53.552"/>
	<path fill="#FFFFFF" d="M103.873,51.896c-0.041-0.348-0.221-0.552-0.582-0.552c-0.526,0-1.024,0.498-1.024,1.524v1.091h-0.502
		v-3.022h0.502v0.557c0.233-0.366,0.612-0.606,1.116-0.606c0.601,0,0.959,0.361,0.994,1.008H103.873z"/>
	<polygon fill="#FFFFFF" points="95.52,40.766 95.52,40.867 95.52,47.241 96.053,47.241 96.202,47.241 96.329,47.241 96.329,40.766 
			"/>
	<path fill="#FFFFFF" d="M98.729,47.848c0.057,0,0.129-0.051,0.129-0.105v-7.584c0-0.055-0.072-0.101-0.129-0.101h-2.527
		c-0.055,0-0.075,0.022-0.075,0.051v0.151v0.506c0,0.055,0.02,0.102,0.075,0.102h1.718c0.057,0,0.129,0.044,0.129,0.099v5.967
		c0,0.055-0.072,0.104-0.129,0.104h-1.718c-0.055,0-0.075,0.019-0.075,0.047v0.152v0.506c0,0.054,0.02,0.105,0.075,0.105H98.729z"/>
	<polygon fill="#FFFFFF" points="99.869,40.766 99.869,40.867 99.869,47.241 100.548,47.241 100.68,47.241 100.68,40.766 	"/>
	<path fill="#FFFFFF" d="M100.578,47.844v-0.81c1.113,0,1.889-1.383,1.889-3.084c0-1.7-0.774-3.084-1.889-3.084v-0.808
		c1.519,0,2.697,1.746,2.697,3.892C103.275,46.097,102.096,47.844,100.578,47.844"/>
	<path fill="#FFFFFF" d="M92.182,45.355v1.115v0.36c0,0.605,0.387,1.017,0.998,1.017h0.172h0.496h0.584
		c0.029,0,0.076-0.051,0.076-0.105v-0.608c0-0.054-0.07-0.096-0.127-0.096h-0.58h-0.297h-0.183c-0.262,0-0.33-0.112-0.33-0.411
		V46.45v-0.974v-0.594c0-0.609-0.248-0.834-0.551-0.945c0.303-0.109,0.551-0.334,0.551-0.943v-0.422v-1.07V41.25
		c0-0.294,0.058-0.382,0.33-0.382h0.228h0.289h0.594c0.029,0,0.076-0.047,0.076-0.102v-0.607c0-0.055-0.07-0.101-0.127-0.101h-0.486
		h-0.457H93.18c-0.611,0-0.998,0.397-0.998,0.989v0.317v1.323c0,0-0.021,0.304-0.035,0.407c-0.039,0.274-0.373,0.508-0.582,0.505
		h-0.317c-0.056,0-0.078,0.043-0.078,0.099v0.607c0,0.055,0.022,0.104,0.078,0.104h0.289c0.266-0.004,0.6,0.218,0.625,0.552
		C92.169,45.057,92.182,45.355,92.182,45.355"/>
	<path fill="#FFFFFF" d="M96.201,40.058h-0.287h-0.318c-0.057,0-0.077,0.046-0.077,0.101v0.187v0.42v0.102h0.077h0.605h0.127v-0.102
		v-0.607v-0.101H96.201z"/>
	<path fill="#FFFFFF" d="M95.52,47.135v0.287v0.32c0,0.055,0.02,0.106,0.076,0.106h0.186h0.42h0.127v-0.106v-0.607v-0.097h-0.127
		h-0.606H95.52V47.135z"/>
	<path fill="#FFFFFF" d="M100.548,40.058h-0.284h-0.32c-0.057,0-0.073,0.046-0.073,0.101v0.187v0.42v0.102h0.073h0.604h0.132v-0.102
		v-0.607v-0.101H100.548z"/>
	<path fill="#FFFFFF" d="M99.869,47.135v0.287v0.32c0,0.055,0.019,0.106,0.074,0.106h0.186h0.42h0.132v-0.106v-0.607v-0.097h-0.132
		h-0.604h-0.073v0.097H99.869z"/>
	<path fill="#FFFFFF" d="M104.928,45.355v1.115v0.36c0,0.605,0.381,1.017,0.991,1.017h0.172h0.496h0.584
		c0.026,0,0.082-0.051,0.082-0.105v-0.608c0-0.054-0.075-0.096-0.133-0.096h-0.58h-0.297h-0.184c-0.262,0-0.324-0.112-0.324-0.411
		V46.45v-0.974v-0.594c0-0.195-0.057-0.373-0.102-0.474h-1.357c0.373,0.101,0.531,0.234,0.609,0.558
		C104.923,45.128,104.928,45.355,104.928,45.355"/>
	<path fill="#FFFFFF" d="M104.871,43.094c-0.078,0.265-0.254,0.403-0.565,0.505h1.274c0.078-0.202,0.156-0.337,0.156-0.606v-0.42
		v-1.07v-0.254c0-0.294,0.053-0.382,0.324-0.382h0.229h0.289h0.594c0.027,0,0.082-0.046,0.082-0.101v-0.608
		c0-0.054-0.075-0.1-0.133-0.1h-0.486h-0.456h-0.259c-0.611,0-0.991,0.396-0.991,0.989v0.317v1.323
		C104.928,42.687,104.91,42.961,104.871,43.094"/>
	<path fill="#FFFFFF" d="M105.068,44.01c0.205,0.074,0.428,0.195,0.566,0.398h1.486c0.057,0,0.133-0.048,0.133-0.103v-0.607
		c0-0.056-0.076-0.1-0.133-0.1h-1.541C105.479,43.801,105.236,43.948,105.068,44.01"/>
	<path fill="#FFFFFF" d="M103.986,43.599c-0.055,0-0.07,0.044-0.07,0.099v0.607c0,0.055,0.017,0.104,0.07,0.104h0.291h1.357
		c-0.092-0.204-0.316-0.342-0.479-0.405c0.169-0.062,0.322-0.203,0.425-0.405h-1.275H103.986z"/>
</g>
</svg>
