<?xml version="1.0" encoding="utf-8"?>
<!-- Generator: Adobe Illustrator 16.0.4, SVG Export Plug-In . SVG Version: 6.00 Build 0)  -->
<!DOCTYPE svg PUBLIC "-//W3C//DTD SVG 1.1//EN" "http://www.w3.org/Graphics/SVG/1.1/DTD/svg11.dtd">
<svg version="1.1" id="Ebene_1" xmlns="http://www.w3.org/2000/svg" xmlns:xlink="http://www.w3.org/1999/xlink" x="0px" y="0px"
	 width="198.425px" height="198.425px" viewBox="0 0 198.425 198.425" enable-background="new 0 0 198.425 198.425"
	 xml:space="preserve">
<g>
	<g>
		<defs>
			<polygon id="SVGID_1_" points="161.713,135.213 99.212,171.213 36.712,135.213 36.712,63.212 99.212,27.212 161.713,63.212 			
				"/>
		</defs>
		<clipPath id="SVGID_2_">
			<use xlink:href="#SVGID_1_"  overflow="visible"/>
		</clipPath>
		<polygon clip-path="url(#SVGID_2_)" fill="#659ED6" points="161.712,135.213 99.212,171.213 36.712,135.213 36.712,63.212 
			99.212,27.212 161.712,63.212 		"/>
		<polygon clip-path="url(#SVGID_2_)" fill="none" stroke="#659ED6" stroke-width="5.669" points="161.712,135.213 99.212,171.213 
			36.712,135.213 36.712,63.212 99.212,27.212 161.712,63.212 		"/>
	</g>
	<polygon fill="none" stroke="#FFFFFF" stroke-width="2" stroke-miterlimit="10" points="157.712,133.046 99.212,166.88 
		40.712,133.046 40.712,65.379 99.212,31.546 157.712,65.379 	"/>
	<g>
		<path fill="none" stroke="#FFFFFF" stroke-width="2" stroke-miterlimit="10" d="M138.877,128.522c-0.927,0-1.821-0.025-2.7-0.061
			c0.512-0.385,1.012-0.775,1.493-1.186c5.597-4.736,8.317-10.523,8.317-17.686c0-15.106-12.936-27.396-28.834-27.396
			c-6.627,0-12.865,2.085-17.939,5.938c-5.079-3.856-11.318-5.945-17.941-5.945c-15.898,0-28.834,12.29-28.834,27.399
			c0,8.711,3.76,14.562,9.104,18.852c-1.024,0.049-2.069,0.084-3.159,0.084c-2.332,0-4.22,1.889-4.22,4.221
			c0,2.33,1.888,4.221,4.22,4.221c5.713,0,10.66-0.643,14.998-1.793c1.231,0.529,2.061,1.486,3.289,1.973
			c5.846,2.309,13.754,4.172,21.754,4.172v-0.039c8,0,15.496-1.727,21.444-4.15c1.195-0.486,2.604-1.211,3.808-1.729
			c4.336,1.15,9.386,1.68,15.099,1.68c2.332,0,4.275-1.947,4.275-4.277C143.05,130.468,141.21,128.522,138.877,128.522z
			 M91.95,106.622c0.549,0.877,1.097,1.76,1.65,2.637c-5.115,7.604-10.582,13.756-19.633,16.926
			c-8.683-4.119-13.086-8.506-13.086-16.592c0-10.455,9.147-18.962,20.391-18.962c3.932,0,7.666,1.018,10.885,2.921
			c-2.414,3.86-1.988,8.251-1.139,10.656L91.95,106.622z M99.237,131.946c-4.967,0-10.127-0.615-14.436-1.668
			c5.752-3.594,10.08-8.338,13.83-13.494c3.772,5.189,8.133,9.965,13.942,13.566C108.577,131.397,104.052,131.946,99.237,131.946z
			 M106.231,104.208c0.811-2.293,1.234-6.395-0.822-10.118c3.402-2.246,7.455-3.452,11.744-3.452c11.242,0,20.39,8.502,20.39,18.953
			c0,7.783-4.625,12.082-14.261,16.59c-9.043-3.17-14.508-9.322-19.621-16.922c0.553-0.877,1.104-1.76,1.65-2.637L106.231,104.208z"
			/>
		<path fill="none" stroke="#FFFFFF" stroke-width="2.157" stroke-miterlimit="10" d="M99.167,88.196
			c-1.24,0.673-5.828,3.35-7.26,5.778"/>
		<path fill="none" stroke="#FFFFFF" stroke-width="2.157" stroke-miterlimit="10" d="M98.632,116.784
			c0.674-1.094,4.307-6.246,5.029-7.525"/>
		<path fill="none" stroke="#FFFFFF" stroke-width="2.157" stroke-miterlimit="10" d="M93.601,109.259
			c3.834-4.65,4.785-12.469,11.809-15.168"/>
		<path fill="none" stroke="#FFFFFF" stroke-width="2.157" stroke-miterlimit="10" d="M73.005,135.269
			c3.227-1.082,9.279-3.402,11.797-4.99"/>
		<path fill="none" stroke="#FFFFFF" stroke-width="2.157" stroke-miterlimit="10" d="M61.755,128.411
			c3.387-0.369,9.414-1.213,12.213-2.227"/>
		<path fill="none" stroke="#FFFFFF" stroke-width="2.157" stroke-miterlimit="10" d="M123.804,135.565
			c-3.227-1.082-9.182-3.699-11.699-5.287"/>
		<path fill="none" stroke="#FFFFFF" stroke-width="2.157" stroke-miterlimit="10" d="M138.067,128.382
			c-7.213,0.293-11.986-1.188-14.785-2.201"/>
		<polygon fill="#FFFFFF" points="79.228,61.79 80.526,61.79 82.267,66.447 84.004,61.79 85.304,61.79 85.304,68.786 84.205,68.786 
			84.205,64.069 82.655,68.146 81.875,68.146 80.328,64.069 80.328,68.786 79.228,68.786 		"/>
		<path fill="#FFFFFF" d="M89.936,68.786v-0.859c-0.359,0.599-0.959,0.939-1.629,0.939c-0.88,0-1.48-0.529-1.48-1.509v-3.608h1.041
			v3.278c0,0.68,0.309,0.92,0.779,0.92c0.649,0,1.289-0.77,1.289-2.159v-2.039h1.039v5.037H89.936z M88.007,61.65
			c0.359,0,0.63,0.27,0.63,0.63c0,0.36-0.271,0.629-0.63,0.629c-0.36,0-0.629-0.269-0.629-0.629
			C87.378,61.92,87.647,61.65,88.007,61.65 M89.866,61.65c0.359,0,0.629,0.27,0.629,0.63c0,0.36-0.27,0.629-0.629,0.629
			s-0.629-0.269-0.629-0.629C89.237,61.92,89.507,61.65,89.866,61.65"/>
		<path fill="#FFFFFF" d="M93.437,63.749v0.859c0.361-0.599,0.961-0.939,1.629-0.939c0.881,0,1.48,0.53,1.48,1.509v3.608h-1.039
			v-3.278c0-0.68-0.31-0.92-0.779-0.92c-0.65,0-1.291,0.77-1.291,2.159v2.039h-1.039v-5.037H93.437z"/>
		<path fill="#FFFFFF" d="M102.155,67.477c-0.4,0.909-1.109,1.389-2.18,1.389c-1.597,0-2.367-1.219-2.367-2.598
			c0-1.38,0.77-2.599,2.367-2.599c1.07,0,1.779,0.48,2.18,1.389l-0.93,0.4c-0.24-0.54-0.65-0.87-1.25-0.87
			c-0.889,0-1.267,0.73-1.267,1.68c0,0.949,0.378,1.679,1.267,1.679c0.6,0,1.01-0.33,1.25-0.87L102.155,67.477z"/>
		<path fill="#FFFFFF" d="M104.317,61.71v2.898c0.359-0.519,0.939-0.939,1.699-0.939c0.93,0,1.489,0.499,1.489,1.569v3.548h-1.04
			v-3.278c0-0.77-0.32-0.92-0.789-0.92c-0.57,0-1.359,0.73-1.359,2.069v2.129h-1.039V61.71H104.317z"/>
		<path fill="#FFFFFF" d="M113.255,66.557h-3.568c0,0.74,0.43,1.39,1.25,1.39c0.54,0,1.059-0.3,1.318-0.85l0.891,0.35
			c-0.49,0.949-1.061,1.419-2.209,1.419c-1.66,0-2.35-1.399-2.35-2.598c0-1.2,0.689-2.599,2.35-2.599
			c1.609,0,2.318,1.309,2.318,2.438V66.557z M109.706,65.688h2.449c-0.09-0.56-0.469-1.1-1.219-1.1
			C110.247,64.588,109.817,65.058,109.706,65.688"/>
		<path fill="#FFFFFF" d="M115.407,63.749v0.859c0.359-0.599,0.959-0.939,1.629-0.939c0.879,0,1.479,0.53,1.479,1.509v3.608h-1.039
			v-3.278c0-0.68-0.309-0.92-0.779-0.92c-0.65,0-1.289,0.77-1.289,2.159v2.039h-1.039v-5.037H115.407z"/>
		<rect x="75.925" y="59.925" fill="none" stroke="#FFFFFF" stroke-miterlimit="10" width="45" height="12"/>
		<polyline fill="none" stroke="#FFFFFF" stroke-miterlimit="10" points="121.011,71.925 116.899,76.925 136.024,76.925 
			131.337,70.843 135.899,64.925 120.425,64.925 		"/>
		<line fill="none" stroke="#FFFFFF" stroke-miterlimit="10" x1="115.925" y1="77.425" x2="115.925" y2="72.425"/>
		<polyline fill="none" stroke="#FFFFFF" stroke-miterlimit="10" points="76.124,71.925 80.524,76.925 62.399,76.925 67.087,70.843 
			62.524,64.925 76.425,64.925 		"/>
		<line fill="none" stroke="#FFFFFF" stroke-miterlimit="10" x1="80.925" y1="77.425" x2="80.925" y2="72.425"/>
		<line fill="none" stroke="#FFFFFF" stroke-width="2" stroke-miterlimit="10" x1="83.841" y1="154.14" x2="87.995" y2="143.813"/>
		<line fill="none" stroke="#FFFFFF" stroke-width="2" stroke-miterlimit="10" x1="93.431" y1="158.61" x2="95.851" y2="146.256"/>
		
			<line fill="none" stroke="#FFFFFF" stroke-width="2" stroke-miterlimit="10" x1="114.583" y1="154.14" x2="110.429" y2="143.813"/>
		
			<line fill="none" stroke="#FFFFFF" stroke-width="2" stroke-miterlimit="10" x1="104.993" y1="158.61" x2="102.571" y2="146.256"/>
		<path fill="#FFFFFF" d="M97.04,50.089c-0.186-0.12-0.324-0.162-0.486-0.162c-0.287,0-0.444,0.18-0.444,0.57v0.197h1.176v0.457
			H96.11v2.566h-0.504v-2.566h-0.851v-0.457h0.851v-0.185c0-0.732,0.354-1.038,0.93-1.038c0.275,0,0.461,0.072,0.629,0.174
			L97.04,50.089z"/>
		<path fill="#FFFFFF" d="M99.464,50.646c0.924,0,1.488,0.726,1.488,1.559c0,0.834-0.564,1.56-1.488,1.56s-1.486-0.726-1.486-1.56
			C97.978,51.372,98.54,50.646,99.464,50.646 M99.464,53.309c0.617,0,0.973-0.522,0.973-1.104c0-0.581-0.355-1.103-0.973-1.103
			s-0.971,0.522-0.971,1.103C98.493,52.787,98.847,53.309,99.464,53.309"/>
		<path fill="#FFFFFF" d="M103.874,51.654c-0.043-0.348-0.223-0.552-0.582-0.552c-0.527,0-1.025,0.498-1.025,1.524v1.091h-0.504
			v-3.022h0.504v0.557c0.232-0.366,0.611-0.605,1.115-0.605c0.6,0,0.959,0.36,0.994,1.007H103.874z"/>
		<polygon fill="#FFFFFF" points="95.521,40.523 95.521,40.624 95.521,46.999 96.051,46.999 96.203,46.999 96.33,46.999 
			96.33,40.523 		"/>
		<path fill="#FFFFFF" d="M98.729,47.605c0.055,0,0.129-0.05,0.129-0.105v-7.584c0-0.056-0.074-0.101-0.129-0.101h-2.527
			c-0.057,0-0.077,0.023-0.077,0.051v0.151v0.505c0,0.056,0.02,0.103,0.077,0.103h1.718c0.055,0,0.129,0.044,0.129,0.1v5.965
			c0,0.056-0.074,0.105-0.129,0.105h-1.718c-0.057,0-0.077,0.019-0.077,0.047v0.152V47.5c0,0.055,0.02,0.105,0.077,0.105H98.729z"/>
		<polygon fill="#FFFFFF" points="99.87,40.523 99.87,40.624 99.87,46.999 100.55,46.999 100.679,46.999 100.679,40.523 		"/>
		<path fill="#FFFFFF" d="M100.577,47.601v-0.809c1.113,0,1.891-1.383,1.891-3.084c0-1.7-0.777-3.084-1.891-3.084v-0.809
			c1.52,0,2.699,1.746,2.699,3.893C103.276,45.854,102.097,47.601,100.577,47.601"/>
		<path fill="#FFFFFF" d="M92.181,45.113v1.115v0.359c0,0.605,0.389,1.018,1,1.018h0.172h0.496h0.584
			c0.027,0,0.074-0.051,0.074-0.106v-0.607c0-0.055-0.07-0.097-0.125-0.097H93.8h-0.297H93.32c-0.26,0-0.328-0.111-0.328-0.41
			v-0.178v-0.973V44.64c0-0.61-0.249-0.835-0.551-0.945c0.302-0.11,0.551-0.335,0.551-0.944v-0.422V41.26v-0.254
			c0-0.294,0.058-0.382,0.328-0.382h0.228h0.291h0.594c0.027,0,0.074-0.046,0.074-0.101v-0.607c0-0.056-0.07-0.101-0.125-0.101
			h-0.486h-0.459h-0.256c-0.611,0-1,0.396-1,0.988v0.318v1.323c0,0-0.02,0.303-0.035,0.407c-0.037,0.273-0.373,0.508-0.58,0.505
			h-0.319c-0.056,0-0.078,0.043-0.078,0.099v0.607c0,0.055,0.022,0.103,0.078,0.103h0.291c0.264-0.004,0.6,0.219,0.625,0.552
			C92.171,44.814,92.181,45.113,92.181,45.113"/>
		<path fill="#FFFFFF" d="M96.202,39.815h-0.287h-0.32c-0.057,0-0.077,0.046-0.077,0.101v0.187v0.42v0.102h0.077h0.607h0.127v-0.102
			v-0.607v-0.101H96.202z"/>
		<path fill="#FFFFFF" d="M95.521,46.893v0.287v0.32c0,0.055,0.018,0.105,0.074,0.105h0.188h0.42h0.127V47.5v-0.607v-0.097h-0.127
			h-0.608h-0.074V46.893z"/>
		<path fill="#FFFFFF" d="M100.55,39.815h-0.287h-0.32c-0.057,0-0.072,0.046-0.072,0.101v0.187v0.42v0.102h0.072h0.607h0.129v-0.102
			v-0.607v-0.101H100.55z"/>
		<path fill="#FFFFFF" d="M99.87,46.893v0.287v0.32c0,0.055,0.016,0.105,0.072,0.105h0.188h0.42h0.129V47.5v-0.607v-0.097h-0.129
			h-0.607H99.87V46.893z"/>
		<path fill="#FFFFFF" d="M104.929,45.113v1.115v0.359c0,0.605,0.379,1.018,0.992,1.018h0.172h0.494h0.584
			c0.028,0,0.084-0.051,0.084-0.106v-0.607c0-0.055-0.078-0.097-0.133-0.097h-0.582h-0.297h-0.184c-0.262,0-0.322-0.111-0.322-0.41
			v-0.178v-0.973V44.64c0-0.196-0.057-0.374-0.102-0.475h-1.359c0.373,0.101,0.533,0.235,0.609,0.559
			C104.925,44.886,104.929,45.113,104.929,45.113"/>
		<path fill="#FFFFFF" d="M104.87,42.851c-0.078,0.265-0.254,0.404-0.564,0.505h1.273c0.078-0.202,0.158-0.337,0.158-0.605V42.33
			v-1.069v-0.254c0-0.295,0.051-0.382,0.322-0.382h0.229h0.289h0.594c0.029,0,0.084-0.046,0.084-0.102v-0.607
			c0-0.055-0.078-0.101-0.133-0.101h-0.486h-0.459h-0.256c-0.614,0-0.992,0.397-0.992,0.989v0.318v1.322
			C104.929,42.443,104.909,42.719,104.87,42.851"/>
		<path fill="#FFFFFF" d="M105.067,43.767c0.205,0.075,0.43,0.196,0.568,0.398h1.486c0.055,0,0.134-0.047,0.134-0.103v-0.607
			c0-0.056-0.079-0.099-0.134-0.099h-1.543C105.478,43.559,105.237,43.705,105.067,43.767"/>
		<path fill="#FFFFFF" d="M103.987,43.356c-0.057,0-0.07,0.043-0.07,0.099v0.607c0,0.055,0.014,0.104,0.07,0.104h0.289h1.359
			c-0.092-0.203-0.318-0.342-0.48-0.405c0.17-0.062,0.322-0.203,0.424-0.405h-1.273H103.987z"/>
	</g>
</g>
</svg>
