<?xml version="1.0" encoding="utf-8"?>
<!-- Generator: Adobe Illustrator 16.0.4, SVG Export Plug-In . SVG Version: 6.00 Build 0)  -->
<!DOCTYPE svg PUBLIC "-//W3C//DTD SVG 1.1//EN" "http://www.w3.org/Graphics/SVG/1.1/DTD/svg11.dtd">
<svg version="1.1" id="Ebene_1" xmlns="http://www.w3.org/2000/svg" xmlns:xlink="http://www.w3.org/1999/xlink" x="0px" y="0px"
	 width="198.425px" height="198.425px" viewBox="0 0 198.425 198.425" enable-background="new 0 0 198.425 198.425"
	 xml:space="preserve">
<polygon fill="#FFFFFF" points="39.425,133.768 39.425,64.658 99.425,30.097 159.425,64.658 159.425,133.768 99.425,168.328 "/>
<path fill="#82CC7D" d="M98.925,32.983l57.5,33.119v66.221l-57.5,33.119l-57.5-33.119V66.102L98.925,32.983z M98.925,27.212
	l-62.5,36v72.001l62.5,36l62.5-36V63.212L98.925,27.212z"/>
<rect x="79.925" y="137.5" fill="#FFFFFF" width="39" height="12"/>
<rect x="79.925" y="137.5" fill="none" stroke="#82CC7D" stroke-miterlimit="10" width="39" height="12"/>
<g>
	<path fill="#82CC7D" d="M88.993,146.269c-0.25,0.43-0.85,0.949-1.84,0.949c-1.639,0-3.178-1.119-3.178-3.578
		s1.559-3.578,3.239-3.578c1.5,0,2.508,0.899,2.789,2.158l-1.01,0.311c-0.34-0.97-0.949-1.43-1.779-1.43
		c-1.2,0-2.119,0.84-2.119,2.539c0,1.749,0.919,2.539,2.119,2.539c1.099,0,1.629-0.75,1.718-1.6h-1.359v-0.969h2.459v3.527h-0.959
		L88.993,146.269z"/>
	<path fill="#82CC7D" d="M91.874,139.952c0.41,0,0.721,0.329,0.721,0.729c0,0.4-0.311,0.71-0.721,0.71
		c-0.408,0-0.719-0.31-0.719-0.71C91.155,140.281,91.466,139.952,91.874,139.952 M92.396,147.138h-1.041v-5.037h1.041V147.138z"/>
	<path fill="#82CC7D" d="M98.183,144.909h-3.567c0,0.739,0.43,1.389,1.249,1.389c0.539,0,1.06-0.299,1.32-0.85l0.889,0.35
		c-0.491,0.95-1.059,1.42-2.209,1.42c-1.659,0-2.348-1.399-2.348-2.599s0.689-2.6,2.348-2.6c1.609,0,2.318,1.31,2.318,2.439V144.909
		z M94.636,144.04h2.447c-0.09-0.561-0.468-1.1-1.218-1.1C95.175,142.94,94.745,143.409,94.636,144.04"/>
	<path fill="#82CC7D" d="M98.966,142.851h0.479v-0.85c0-1.32,0.89-1.939,1.96-1.939c1.318,0,1.889,0.84,1.889,1.818
		c0,0.771-0.471,1.18-0.85,1.3c0.76,0.229,1.359,0.8,1.359,1.839c0,1.549-0.881,2.199-2.189,2.199c-0.26,0-0.539-0.04-0.689-0.08
		v-0.92c0.199,0.041,0.469,0.08,0.689,0.08c0.83,0,1.16-0.489,1.16-1.249c0-0.87-0.461-1.279-1.25-1.279h-0.391v-0.919h0.271
		c0.588,0,0.908-0.36,0.908-0.939c0-0.61-0.379-0.93-0.908-0.93c-0.551,0-0.92,0.369-0.92,1.089v5.067h-1.04v-3.368h-0.479V142.851z
		"/>
	<path fill="#82CC7D" d="M109.374,144.909h-3.568c0,0.739,0.43,1.389,1.249,1.389c0.54,0,1.06-0.299,1.319-0.85l0.89,0.35
		c-0.489,0.95-1.06,1.42-2.209,1.42c-1.659,0-2.349-1.399-2.349-2.599s0.689-2.6,2.349-2.6c1.608,0,2.319,1.31,2.319,2.439V144.909z
		 M105.825,144.04h2.449c-0.09-0.561-0.47-1.1-1.22-1.1C106.364,142.94,105.935,143.409,105.825,144.04"/>
	<path fill="#82CC7D" d="M111.524,142.101v0.859c0.359-0.6,0.959-0.939,1.629-0.939c0.881,0,1.48,0.529,1.48,1.51v3.607h-1.041
		v-3.278c0-0.68-0.309-0.919-0.779-0.919c-0.648,0-1.289,0.77-1.289,2.158v2.039h-1.039v-5.037H111.524z"/>
	<path fill="none" stroke="#82CC7D" stroke-width="2" stroke-miterlimit="10" d="M96.021,66.562c0,0,0.652-5.052,4.448-5.052
		c2.882,0,4.413,4.49,4.413,4.49h-8.458"/>
	<path fill="none" stroke="#82CC7D" stroke-width="2.135" stroke-miterlimit="10" d="M95.495,57.866l9.024,75.927
		c0,0,1.094,3.088,3.537,3.088c8.407,0,6.159-6.383,6.159-6.383"/>
	
		<ellipse fill="none" stroke="#82CC7D" stroke-width="2.135" stroke-miterlimit="10" cx="87.379" cy="123.245" rx="6.48" ry="1.719"/>
	<path fill="none" stroke="#82CC7D" stroke-width="2.135" stroke-miterlimit="10" d="M80.976,123.494l1.154,11.309v-0.095
		c0,0.949,2.289,1.719,5.412,1.719s5.655-0.77,5.655-1.719l0.004,0.095l0.584-11.309"/>
	<path fill="#FFFFFF" d="M113.405,87.957c0,0,0.577,3.011-1.462,4.028c-2.037,1.02-7.642,3.44-9.17,4.203
		c-1.527,0.765-4.076,2.071-4.713,1.354c-0.635-0.717-1.4-4.267-1.4-4.267l1.681-0.812c2.374-0.593,2.061,0.762,4.685,0.086
		c2.804-0.722,4.102-4.194,4.102-4.194"/>
	<path fill="none" stroke="#82CC7D" stroke-width="2.135" stroke-miterlimit="10" d="M113.405,87.957c0,0,0.577,3.011-1.462,4.028
		c-2.037,1.02-7.642,3.44-9.17,4.203c-1.527,0.765-4.076,2.071-4.713,1.354c-0.635-0.717-1.4-4.267-1.4-4.267l1.681-0.812
		c2.374-0.593,2.061,0.762,4.685,0.086c2.804-0.722,4.102-4.194,4.102-4.194"/>
	
		<line fill="none" stroke="#82CC7D" stroke-width="2.135" stroke-miterlimit="10" x1="106.844" y1="88.673" x2="106.485" y2="82.988"/>
	<path fill="#FFFFFF" d="M93.385,87.502c0,0,3.085-2.107,3.275-3.062c0.193-0.956,0.955-5.445,2.103-5.159
		c1.146,0.287,2.865,3.821,2.292,4.681S94.177,94.184,90.739,94.47c-3.44,0.287-3.233-3.447-3.137-4.364"/>
	<path fill="none" stroke="#82CC7D" stroke-width="2.135" stroke-miterlimit="10" d="M93.385,87.502c0,0,3.085-2.107,3.275-3.062
		c0.193-0.956,0.955-5.445,2.103-5.159c1.146,0.287,2.865,3.821,2.292,4.681S94.177,94.184,90.739,94.47
		c-3.44,0.287-3.233-3.447-3.137-4.364"/>
	<path fill="none" stroke="#82CC7D" stroke-width="2.135" stroke-miterlimit="10" d="M92.211,93.932l-0.995,6.27
		c0,0,6.591,3.342,17.576,0.667l-1.063-6.938"/>
	<polyline fill="none" stroke="#82CC7D" stroke-width="2" stroke-miterlimit="10" points="92.425,100 92.425,114.587 92.425,123 	
		"/>
	<polyline fill="none" stroke="#82CC7D" stroke-width="2" stroke-miterlimit="10" points="99.425,101 99.425,118.598 
		98.425,120.413 98.425,123.757 97.829,124.424 98.064,133.654 92.923,134.255 	"/>
	
		<line fill="none" stroke="#82CC7D" stroke-width="2.135" stroke-miterlimit="10" x1="92.898" y1="124.48" x2="98.092" y2="124.424"/>
	
		<line fill="none" stroke="#82CC7D" stroke-width="2.135" stroke-miterlimit="10" x1="92.076" y1="119.895" x2="99.098" y2="119.84"/>
	<polyline fill="none" stroke="#82CC7D" stroke-width="2" stroke-miterlimit="10" points="108.612,136.354 108.06,124.132 
		107.827,119.373 108.426,117.931 108.426,101.001 	"/>
	
		<line fill="none" stroke="#82CC7D" stroke-width="2.135" stroke-miterlimit="10" x1="103.402" y1="124.396" x2="108.123" y2="124.437"/>
	
		<line fill="none" stroke="#82CC7D" stroke-width="2.135" stroke-miterlimit="10" x1="102.349" y1="119.799" x2="108.123" y2="119.84"/>
	<path fill="none" stroke="#82CC7D" stroke-width="2.135" stroke-miterlimit="10" d="M104.51,66.562c0,0,0.909,6.344-4.02,6.032"/>
	<path fill="none" stroke="#82CC7D" stroke-width="2.135" stroke-linejoin="round" stroke-miterlimit="10" d="M106.606,88.673
		c0,0,2.98-2.188,6.799-0.716c0,0-0.755-7.634-1.471-8.667c-0.716-1.033-4.56-3.831-6.362-4.613
		c-0.471-0.204-1.987-0.516-1.987-0.516s-2.183,3.49-5.367,0.795c-0.063-0.052-1.23-1.113-1.23-1.113s-5.209,1.521-6.523,2.823
		c-1.207,1.195-3.142,13.121-2.864,13.44c0,0,0.756-1.587,2.844-1.982c1.335-0.252,2.82-0.433,2.82-0.433l0.236-5.379"/>
	<polyline fill="none" stroke="#82CC7D" stroke-width="2" stroke-miterlimit="10" points="158.425,74.932 124.425,94.182 
		158.425,113.494 	"/>
	<polyline fill="none" stroke="#82CC7D" stroke-width="2" stroke-miterlimit="10" points="158.425,84.932 124.425,104.243 
		158.425,123.494 	"/>
	<polyline fill="none" stroke="#82CC7D" stroke-width="2" stroke-miterlimit="10" points="39.425,123.494 73.425,104.244 
		39.425,84.931 	"/>
	<polyline fill="none" stroke="#82CC7D" stroke-width="2" stroke-miterlimit="10" points="39.425,113.494 73.425,94.182 
		39.425,74.931 	"/>
	<path fill="#82CC7D" d="M97.042,50.332c-0.187-0.121-0.324-0.162-0.486-0.162c-0.287,0-0.444,0.18-0.444,0.569v0.198h1.174v0.456
		h-1.174v2.566h-0.504v-2.566h-0.851v-0.456h0.851v-0.185c0-0.732,0.354-1.038,0.93-1.038c0.275,0,0.461,0.071,0.629,0.174
		L97.042,50.332z"/>
	<path fill="#82CC7D" d="M99.466,50.889c0.924,0,1.486,0.726,1.486,1.559s-0.562,1.56-1.486,1.56s-1.488-0.727-1.488-1.56
		S98.542,50.889,99.466,50.889 M99.466,53.552c0.617,0,0.971-0.522,0.971-1.104c0-0.581-0.354-1.103-0.971-1.103
		s-0.971,0.522-0.971,1.103C98.495,53.03,98.849,53.552,99.466,53.552"/>
	<path fill="#82CC7D" d="M103.874,51.896c-0.041-0.348-0.221-0.552-0.582-0.552c-0.527,0-1.025,0.498-1.025,1.524v1.091h-0.502
		v-3.022h0.502v0.557c0.234-0.366,0.613-0.606,1.117-0.606c0.6,0,0.959,0.361,0.994,1.008H103.874z"/>
	<polygon fill="#82CC7D" points="95.521,40.766 95.521,40.867 95.521,47.241 96.054,47.241 96.203,47.241 96.33,47.241 
		96.33,40.766 	"/>
	<path fill="#82CC7D" d="M98.729,47.848c0.057,0,0.129-0.051,0.129-0.105v-7.584c0-0.055-0.072-0.101-0.129-0.101h-2.527
		c-0.055,0-0.075,0.022-0.075,0.051v0.151v0.506c0,0.055,0.02,0.102,0.075,0.102h1.718c0.057,0,0.129,0.044,0.129,0.099v5.967
		c0,0.055-0.072,0.104-0.129,0.104h-1.718c-0.055,0-0.075,0.019-0.075,0.047v0.152v0.506c0,0.054,0.02,0.105,0.075,0.105H98.729z"/>
	<polygon fill="#82CC7D" points="99.87,40.766 99.87,40.867 99.87,47.241 100.55,47.241 100.681,47.241 100.681,40.766 	"/>
	<path fill="#82CC7D" d="M100.579,47.844v-0.81c1.113,0,1.889-1.383,1.889-3.084c0-1.7-0.775-3.084-1.889-3.084v-0.808
		c1.518,0,2.697,1.746,2.697,3.892C103.276,46.097,102.097,47.844,100.579,47.844"/>
	<path fill="#82CC7D" d="M92.183,45.355v1.115v0.36c0,0.605,0.387,1.017,0.998,1.017h0.172h0.496h0.584
		c0.029,0,0.076-0.051,0.076-0.105v-0.608c0-0.054-0.07-0.096-0.127-0.096h-0.58h-0.297h-0.183c-0.262,0-0.33-0.112-0.33-0.411
		v-0.177v-0.974v-0.594c0-0.609-0.248-0.834-0.551-0.945c0.303-0.109,0.551-0.334,0.551-0.943v-0.422v-1.07V41.25
		c0-0.294,0.058-0.382,0.33-0.382h0.228h0.289h0.594c0.029,0,0.076-0.047,0.076-0.102v-0.607c0-0.055-0.07-0.101-0.127-0.101h-0.486
		h-0.457h-0.258c-0.611,0-0.998,0.397-0.998,0.989v0.317v1.323c0,0-0.021,0.304-0.035,0.407c-0.039,0.274-0.373,0.508-0.582,0.505
		h-0.317c-0.056,0-0.078,0.043-0.078,0.099v0.607c0,0.055,0.022,0.104,0.078,0.104h0.289c0.266-0.004,0.6,0.218,0.625,0.552
		C92.17,45.057,92.183,45.355,92.183,45.355"/>
	<path fill="#82CC7D" d="M96.202,40.058h-0.287h-0.318c-0.057,0-0.077,0.046-0.077,0.101v0.187v0.42v0.102h0.077h0.605h0.127v-0.102
		v-0.607v-0.101H96.202z"/>
	<path fill="#82CC7D" d="M95.521,47.135v0.287v0.32c0,0.055,0.02,0.106,0.076,0.106h0.186h0.42h0.127v-0.106v-0.607v-0.097h-0.127
		h-0.606h-0.076V47.135z"/>
	<path fill="#82CC7D" d="M100.55,40.058h-0.285h-0.32c-0.057,0-0.074,0.046-0.074,0.101v0.187v0.42v0.102h0.074h0.605h0.131v-0.102
		v-0.607v-0.101H100.55z"/>
	<path fill="#82CC7D" d="M99.87,47.135v0.287v0.32c0,0.055,0.018,0.106,0.074,0.106h0.186h0.42h0.131v-0.106v-0.607v-0.097h-0.131
		h-0.605H99.87V47.135z"/>
	<path fill="#82CC7D" d="M104.929,45.355v1.115v0.36c0,0.605,0.381,1.017,0.992,1.017h0.172h0.496h0.584
		c0.026,0,0.082-0.051,0.082-0.105v-0.608c0-0.054-0.076-0.096-0.133-0.096h-0.58h-0.297h-0.184c-0.262,0-0.324-0.112-0.324-0.411
		v-0.177v-0.974v-0.594c0-0.195-0.057-0.373-0.102-0.474h-1.357c0.373,0.101,0.531,0.234,0.609,0.558
		C104.925,45.128,104.929,45.355,104.929,45.355"/>
	<path fill="#82CC7D" d="M104.872,43.094c-0.078,0.265-0.254,0.403-0.566,0.505h1.275c0.078-0.202,0.156-0.337,0.156-0.606v-0.42
		v-1.07v-0.254c0-0.294,0.053-0.382,0.324-0.382h0.229h0.289h0.594c0.027,0,0.082-0.046,0.082-0.101v-0.608
		c0-0.054-0.076-0.1-0.133-0.1h-0.486h-0.457h-0.258c-0.611,0-0.992,0.396-0.992,0.989v0.317v1.323
		C104.929,42.687,104.911,42.961,104.872,43.094"/>
	<path fill="#82CC7D" d="M105.069,44.01c0.205,0.074,0.428,0.195,0.566,0.398h1.486c0.057,0,0.133-0.048,0.133-0.103v-0.607
		c0-0.056-0.076-0.1-0.133-0.1h-1.541C105.479,43.801,105.237,43.948,105.069,44.01"/>
	<path fill="#82CC7D" d="M103.987,43.599c-0.055,0-0.07,0.044-0.07,0.099v0.607c0,0.055,0.016,0.104,0.07,0.104h0.291h1.357
		c-0.092-0.204-0.316-0.342-0.479-0.405c0.168-0.062,0.322-0.203,0.424-0.405h-1.275H103.987z"/>
</g>
</svg>
