<?xml version="1.0" encoding="utf-8"?>
<!-- Generator: Adobe Illustrator 16.0.4, SVG Export Plug-In . SVG Version: 6.00 Build 0)  -->
<!DOCTYPE svg PUBLIC "-//W3C//DTD SVG 1.1//EN" "http://www.w3.org/Graphics/SVG/1.1/DTD/svg11.dtd">
<svg version="1.1" id="Ebene_1" xmlns="http://www.w3.org/2000/svg" xmlns:xlink="http://www.w3.org/1999/xlink" x="0px" y="0px"
	 width="198.425px" height="198.425px" viewBox="0 0 198.425 198.425" enable-background="new 0 0 198.425 198.425"
	 xml:space="preserve">
<polygon fill="#050507" points="161.712,135.213 99.212,171.213 36.712,135.213 36.712,63.212 99.212,27.212 161.712,63.212 "/>
<polygon fill="none" stroke="#FFFFFF" stroke-width="2" stroke-miterlimit="10" points="157.712,133.045 99.212,166.879 
	40.712,133.045 40.712,65.379 99.212,31.545 157.712,65.379 "/>
<g>
	<path fill="#050507" d="M81.955,131L81.955,131c0-2.762,2.239-5,5-5h25c2.761,0,5,2.238,5,5"/>
	<path fill="none" stroke="#FFFFFF" stroke-width="2" stroke-linecap="square" stroke-miterlimit="10" d="M81.955,131L81.955,131
		c0-2.762,2.239-5,5-5h25c2.761,0,5,2.238,5,5"/>
	<rect x="75.925" y="131.5" fill="#050507" width="46" height="12"/>
	<rect x="75.925" y="131.5" fill="none" stroke="#FFFFFF" stroke-miterlimit="10" width="46" height="12"/>
	<polygon fill="#FFFFFF" points="79.581,134.247 79.581,136.936 82.08,134.247 83.419,134.247 80.6,137.375 83.648,141.243 
		82.239,141.243 79.581,137.814 79.581,141.243 78.481,141.243 78.481,134.247 	"/>
	<path fill="#FFFFFF" d="M86.301,138.145h0.869v-0.219c0-0.631-0.45-0.881-0.979-0.881c-0.41,0-0.77,0.221-0.94,0.67l-0.949-0.199
		c0.21-0.85,0.929-1.39,1.899-1.39c1.169,0,2.008,0.51,2.008,1.989v3.128H87.33l-0.1-0.659c-0.33,0.459-0.849,0.739-1.559,0.739
		c-0.84,0-1.549-0.479-1.549-1.529C84.122,138.754,85.011,138.145,86.301,138.145 M85.851,140.404c0.64,0,1.319-0.41,1.319-1.279
		v-0.111h-0.909c-0.64,0-1.04,0.301-1.04,0.78C85.221,140.134,85.411,140.404,85.851,140.404"/>
	<path fill="#FFFFFF" d="M89.492,141.243v-5.037h1.04v0.839c0.349-0.6,0.949-0.919,1.489-0.919c0.27,0,0.49,0.06,0.639,0.12
		l-0.18,0.949c-0.159-0.099-0.379-0.15-0.589-0.15c-0.67,0-1.359,0.74-1.359,2.329v1.869H89.492z"/>
	<rect x="93.571" y="134.167" fill="#FFFFFF" width="1.04" height="7.076"/>
	<path fill="#FFFFFF" d="M99.04,136.926l-0.66,0.58c-0.25-0.32-0.56-0.461-0.88-0.461c-0.259,0-0.499,0.17-0.499,0.5
		c0,0.36,0.38,0.52,0.899,0.72c0.68,0.261,1.41,0.56,1.41,1.46c0,0.869-0.67,1.599-1.749,1.599c-1.04,0-1.689-0.72-1.949-1.35
		l0.879-0.479c0.2,0.449,0.55,0.911,1.11,0.911c0.399,0,0.679-0.202,0.679-0.661c0-0.439-0.61-0.561-1.199-0.81
		c-0.58-0.24-1.08-0.61-1.08-1.38c0-0.779,0.64-1.429,1.55-1.429C98.161,136.126,98.721,136.426,99.04,136.926"/>
	<path fill="#FFFFFF" d="M100.222,141.243v-5.037h1.04v0.839c0.349-0.6,0.949-0.919,1.489-0.919c0.27,0,0.489,0.06,0.639,0.12
		l-0.18,0.949c-0.159-0.099-0.379-0.15-0.589-0.15c-0.67,0-1.359,0.74-1.359,2.329v1.869H100.222z"/>
	<path fill="#FFFFFF" d="M107.36,141.243v-0.859c-0.36,0.6-0.959,0.939-1.629,0.939c-0.88,0-1.479-0.53-1.479-1.509v-3.608h1.039
		v3.278c0,0.68,0.311,0.92,0.779,0.92c0.65,0,1.29-0.77,1.29-2.16v-2.038h1.04v5.037H107.36z"/>
	<path fill="#FFFFFF" d="M110.951,134.167v2.898c0.36-0.52,0.939-0.939,1.699-0.939c0.929,0,1.489,0.499,1.489,1.569v3.548h-1.039
		v-3.278c0-0.77-0.32-0.92-0.79-0.92c-0.569,0-1.359,0.73-1.359,2.069v2.129h-1.04v-7.076H110.951z"/>
	<path fill="#FFFFFF" d="M119.89,139.014h-3.568c0,0.74,0.43,1.391,1.249,1.391c0.54,0,1.06-0.301,1.32-0.85l0.889,0.35
		c-0.489,0.949-1.059,1.419-2.209,1.419c-1.659,0-2.348-1.399-2.348-2.599s0.688-2.599,2.348-2.599c1.61,0,2.319,1.31,2.319,2.438
		V139.014z M116.341,138.145h2.449c-0.09-0.56-0.47-1.1-1.22-1.1C116.881,137.045,116.451,137.516,116.341,138.145"/>
	<polyline fill="none" stroke="#FFFFFF" stroke-width="2" stroke-miterlimit="10" points="72.517,79.438 59.517,77.438 
		66.517,92.053 53.392,99.167 66.142,106.688 59.517,121.438 72.517,119.438 	"/>
	<path fill="#050507" d="M153.425,90l-52.155,14c-1.831,0-3.845-1.771-3.845-3.604v-0.369c0-1.83,2.014-3.027,3.845-3.027l52.155-14
		"/>
	<path fill="none" stroke="#FFFFFF" stroke-width="2" stroke-miterlimit="10" d="M153.425,90l-52.155,14
		c-1.831,0-3.845-1.771-3.845-3.604v-0.369c0-1.83,2.014-3.027,3.845-3.027l52.155-14"/>
	<rect x="89.425" y="87" fill="#050507" width="19" height="24"/>
	<rect x="89.425" y="87" fill="none" stroke="#FFFFFF" stroke-width="2" stroke-miterlimit="10" width="19" height="24"/>
	<path fill="#050507" d="M111.425,83.5c0,1.932-1.567,3.5-3.5,3.5h-18c-1.933,0-3.5-1.568-3.5-3.5c0-1.934,1.567-3.5,3.5-3.5h18
		C109.857,80,111.425,81.566,111.425,83.5"/>
	<path fill="none" stroke="#FFFFFF" stroke-width="2" stroke-miterlimit="10" d="M111.425,83.5c0,1.932-1.567,3.5-3.5,3.5h-18
		c-1.933,0-3.5-1.568-3.5-3.5c0-1.934,1.567-3.5,3.5-3.5h18C109.857,80,111.425,81.566,111.425,83.5z"/>
	<path fill="#050507" d="M111.425,114.5c0,1.932-1.567,3.5-3.5,3.5h-18c-1.933,0-3.5-1.568-3.5-3.5c0-1.934,1.567-3.5,3.5-3.5h18
		C109.857,111,111.425,112.566,111.425,114.5"/>
	<path fill="none" stroke="#FFFFFF" stroke-width="2" stroke-miterlimit="10" d="M111.425,114.5c0,1.932-1.567,3.5-3.5,3.5h-18
		c-1.933,0-3.5-1.568-3.5-3.5c0-1.934,1.567-3.5,3.5-3.5h18C109.857,111,111.425,112.566,111.425,114.5z"/>
	<line fill="none" stroke="#FFFFFF" stroke-width="2" stroke-miterlimit="10" x1="89.425" y1="107" x2="108.425" y2="107"/>
	<line fill="none" stroke="#FFFFFF" stroke-width="2" stroke-miterlimit="10" x1="89.425" y1="91" x2="108.425" y2="91"/>
	<polygon fill="none" stroke="#FFFFFF" stroke-miterlimit="10" points="153.212,130.438 99.212,161.664 45.212,130.438 
		45.212,67.986 99.212,36.759 153.212,67.986 	"/>
	<path fill="#FFFFFF" d="M97.041,55.776c-0.187-0.121-0.323-0.162-0.485-0.162c-0.288,0-0.445,0.18-0.445,0.569v0.198h1.175v0.456
		H96.11v2.566h-0.503v-2.566h-0.851v-0.456h0.851v-0.185c0-0.732,0.354-1.038,0.929-1.038c0.276,0,0.462,0.071,0.63,0.174
		L97.041,55.776z"/>
	<path fill="#FFFFFF" d="M99.465,56.333c0.924,0,1.486,0.726,1.486,1.559s-0.562,1.56-1.486,1.56c-0.923,0-1.487-0.727-1.487-1.56
		S98.542,56.333,99.465,56.333 M99.465,58.996c0.617,0,0.972-0.522,0.972-1.104c0-0.581-0.354-1.103-0.972-1.103
		c-0.618,0-0.972,0.522-0.972,1.103C98.493,58.474,98.847,58.996,99.465,58.996"/>
	<path fill="#FFFFFF" d="M103.873,57.341c-0.041-0.348-0.222-0.552-0.582-0.552c-0.526,0-1.024,0.498-1.024,1.524v1.091h-0.503
		v-3.022h0.503v0.557c0.234-0.366,0.612-0.606,1.116-0.606c0.599,0,0.96,0.361,0.995,1.008H103.873z"/>
	<polygon fill="#FFFFFF" points="95.52,46.21 95.52,46.311 95.52,52.685 96.053,52.685 96.202,52.685 96.329,52.685 96.329,46.21 	
		"/>
	<path fill="#FFFFFF" d="M98.729,53.292c0.057,0,0.129-0.051,0.129-0.105v-7.584c0-0.055-0.072-0.101-0.129-0.101h-2.527
		c-0.055,0-0.075,0.022-0.075,0.051v0.151v0.506c0,0.055,0.02,0.102,0.075,0.102h1.718c0.057,0,0.129,0.044,0.129,0.099v5.967
		c0,0.055-0.072,0.104-0.129,0.104h-1.718c-0.055,0-0.075,0.019-0.075,0.047v0.152v0.506c0,0.054,0.02,0.105,0.075,0.105H98.729z"/>
	<polygon fill="#FFFFFF" points="99.869,46.21 99.869,46.311 99.869,52.685 100.55,52.685 100.681,52.685 100.681,46.21 	"/>
	<path fill="#FFFFFF" d="M100.578,53.288v-0.81c1.113,0,1.89-1.383,1.89-3.084c0-1.7-0.776-3.084-1.89-3.084v-0.808
		c1.519,0,2.697,1.746,2.697,3.892C103.275,51.541,102.097,53.288,100.578,53.288"/>
	<path fill="#FFFFFF" d="M92.182,50.8v1.115v0.36c0,0.605,0.387,1.017,0.998,1.017h0.172h0.496h0.584
		c0.029,0,0.076-0.051,0.076-0.105v-0.608c0-0.054-0.07-0.096-0.127-0.096h-0.58h-0.297h-0.183c-0.262,0-0.33-0.112-0.33-0.411
		v-0.177v-0.974v-0.594c0-0.609-0.248-0.834-0.551-0.945c0.303-0.109,0.551-0.334,0.551-0.943v-0.422v-1.07v-0.253
		c0-0.294,0.058-0.382,0.33-0.382h0.228h0.289h0.594c0.029,0,0.076-0.047,0.076-0.102v-0.607c0-0.055-0.07-0.101-0.127-0.101h-0.486
		h-0.457H93.18c-0.611,0-0.998,0.397-0.998,0.989v0.317v1.323c0,0-0.021,0.304-0.035,0.407c-0.039,0.274-0.373,0.508-0.582,0.505
		h-0.317c-0.056,0-0.078,0.043-0.078,0.099v0.607c0,0.055,0.022,0.104,0.078,0.104h0.289c0.266-0.004,0.6,0.218,0.625,0.552
		C92.17,50.501,92.182,50.8,92.182,50.8"/>
	<path fill="#FFFFFF" d="M96.202,45.502h-0.287h-0.318c-0.057,0-0.077,0.046-0.077,0.101v0.187v0.42v0.102h0.077h0.605h0.127V46.21
		v-0.607v-0.101H96.202z"/>
	<path fill="#FFFFFF" d="M95.52,52.579v0.287v0.32c0,0.055,0.02,0.106,0.076,0.106h0.186h0.42h0.127v-0.106v-0.607v-0.097h-0.127
		h-0.606H95.52V52.579z"/>
	<path fill="#FFFFFF" d="M100.549,45.502h-0.284h-0.32c-0.057,0-0.075,0.046-0.075,0.101v0.187v0.42v0.102h0.075h0.604h0.132V46.21
		v-0.607v-0.101H100.549z"/>
	<path fill="#FFFFFF" d="M99.869,52.579v0.287v0.32c0,0.055,0.019,0.106,0.074,0.106h0.187h0.42h0.131v-0.106v-0.607v-0.097h-0.131
		h-0.606h-0.074V52.579z"/>
	<path fill="#FFFFFF" d="M104.928,50.8v1.115v0.36c0,0.605,0.382,1.017,0.992,1.017h0.172h0.496h0.584
		c0.027,0,0.082-0.051,0.082-0.105v-0.608c0-0.054-0.076-0.096-0.133-0.096h-0.58h-0.297h-0.183c-0.263,0-0.324-0.112-0.324-0.411
		v-0.177v-0.974v-0.594c0-0.195-0.057-0.373-0.103-0.474h-1.356c0.373,0.101,0.531,0.234,0.608,0.558
		C104.924,50.573,104.928,50.8,104.928,50.8"/>
	<path fill="#FFFFFF" d="M104.872,48.538c-0.078,0.265-0.255,0.403-0.566,0.505h1.275c0.077-0.202,0.155-0.337,0.155-0.606v-0.42
		v-1.07v-0.254c0-0.294,0.054-0.382,0.324-0.382h0.229h0.288h0.595c0.026,0,0.082-0.046,0.082-0.101v-0.608
		c0-0.054-0.076-0.1-0.133-0.1h-0.486h-0.457h-0.258c-0.612,0-0.992,0.396-0.992,0.989v0.317v1.323
		C104.929,48.131,104.91,48.405,104.872,48.538"/>
	<path fill="#FFFFFF" d="M105.068,49.454c0.205,0.074,0.429,0.195,0.566,0.398h1.487c0.056,0,0.133-0.048,0.133-0.103v-0.607
		c0-0.056-0.077-0.1-0.133-0.1h-1.541C105.479,49.245,105.236,49.392,105.068,49.454"/>
	<path fill="#FFFFFF" d="M103.986,49.043c-0.055,0-0.069,0.044-0.069,0.099v0.607c0,0.055,0.015,0.104,0.069,0.104h0.291h1.357
		c-0.091-0.204-0.316-0.342-0.478-0.405c0.168-0.062,0.321-0.203,0.424-0.405h-1.276H103.986z"/>
	<polygon fill="none" stroke="#B6C948" stroke-width="0.25" points="161.713,135.213 99.212,171.213 36.712,135.213 36.712,63.212 
		99.212,27.212 161.713,63.212 	"/>
</g>
</svg>
