<?xml version="1.0" encoding="utf-8"?>
<!-- Generator: Adobe Illustrator 16.0.0, SVG Export Plug-In . SVG Version: 6.00 Build 0)  -->
<!DOCTYPE svg PUBLIC "-//W3C//DTD SVG 1.1//EN" "http://www.w3.org/Graphics/SVG/1.1/DTD/svg11.dtd">
<svg version="1.1" id="Layer_1" xmlns="http://www.w3.org/2000/svg" xmlns:xlink="http://www.w3.org/1999/xlink" x="0px" y="0px"
	 width="216px" height="216px" viewBox="0 0 216 216" enable-background="new 0 0 216 216" xml:space="preserve">
<polygon fill="#399FD3" points="47.451,142.964 47.471,73.058 108.021,38.124 168.55,73.094 168.527,142.999 107.979,177.933 "/>
<g>
	<path fill="#FFFFFF" d="M51.032,104.686c4.271-2.464,8.544-4.929,12.817-7.398c1.414-0.819,2.809-1.667,4.237-2.455
		c1.311-0.723,2.298-0.463,2.824,0.662c0.504,1.084,0.168,1.963-1.135,2.731c-3.396,2.004-6.808,3.975-10.213,5.963
		c-0.308,0.179-0.611,0.369-1.076,0.65c2.289,1.353,4.458,2.636,6.63,3.917c1.372,0.809,2.747,1.61,4.117,2.425
		c1.78,1.063,2.227,1.973,1.571,3.165c-0.653,1.191-1.578,1.244-3.389,0.175c-5.11-3.014-10.22-6.034-15.332-9.048
		c-0.339-0.201-0.702-0.356-1.053-0.535C51.03,104.855,51.03,104.772,51.032,104.686z"/>
	<path fill="#FFFFFF" d="M122.333,89.436c-0.026,9.651-0.052,19.298-0.08,28.999c-15.32-0.041-30.593-0.084-45.963-0.127
		c0.025-9.635,0.052-19.271,0.08-28.998C91.658,89.351,106.955,89.394,122.333,89.436z M119.599,105.508
		c-13.55-0.038-26.999-0.074-40.479-0.112c-0.002,1.157-0.006,2.226-0.008,3.361c13.513,0.039,26.965,0.075,40.477,0.113
		C119.592,107.748,119.595,106.678,119.599,105.508z M78.9,111.912c-0.004,1.153-0.008,2.218-0.01,3.336
		c13.516,0.038,26.976,0.076,40.479,0.112c0.006-1.134,0.008-2.2,0.011-3.336C105.888,111.985,92.46,111.949,78.9,111.912z
		 M99.429,98.891c-0.003,1.209-0.006,2.277-0.009,3.384c6.763,0.019,13.452,0.038,20.159,0.056c0.004-1.168,0.005-2.267,0.01-3.385
		C112.839,98.927,106.179,98.908,99.429,98.891z M119.65,92.538c-6.791-0.019-13.482-0.037-20.198-0.055
		c-0.004,1.165-0.005,2.232-0.009,3.318c6.77,0.02,13.464,0.039,20.2,0.057C119.646,94.729,119.647,93.693,119.65,92.538z"/>
	<path fill="#FFFFFF" d="M166.433,105.13c-4.095,2.383-8.019,4.666-11.944,6.947c-1.827,1.059-3.619,2.197-5.505,3.121
		c-0.552,0.273-1.511,0.16-2.022-0.201c-0.415-0.292-0.721-1.302-0.572-1.833c0.171-0.615,0.817-1.2,1.39-1.546
		c3.315-1.992,6.672-3.91,10.014-5.854c0.307-0.18,0.609-0.368,1.052-0.634c-0.391-0.259-0.687-0.476-1.002-0.663
		c-3.225-1.906-6.451-3.805-9.679-5.717c-0.441-0.262-1.033-0.478-1.246-0.893c-0.303-0.591-0.587-1.469-0.376-2.002
		c0.209-0.542,0.999-0.904,1.598-1.16c0.291-0.123,0.772,0.109,1.104,0.304C154.911,98.325,160.572,101.67,166.433,105.13z"/>
	<path fill="#FFFFFF" d="M129.159,119.726c-1.125-0.027-1.918-1.04-1.644-2.198c0.147-0.641,0.427-1.255,0.689-1.859
		c3.573-8.131,7.156-16.258,10.737-24.389c0.183-0.415,0.373-0.827,0.581-1.228c0.507-0.979,1.325-1.209,2.206-0.792
		c0.895,0.424,1.282,1.274,0.871,2.283c-0.884,2.184-1.824,4.341-2.765,6.5c-2.896,6.625-5.796,13.248-8.702,19.867
		C130.735,118.813,130.377,119.812,129.159,119.726z"/>
</g>
</svg>
