<?xml version="1.0" encoding="utf-8"?>
<!-- Generator: Adobe Illustrator 16.0.4, SVG Export Plug-In . SVG Version: 6.00 Build 0)  -->
<!DOCTYPE svg PUBLIC "-//W3C//DTD SVG 1.1//EN" "http://www.w3.org/Graphics/SVG/1.1/DTD/svg11.dtd">
<svg version="1.1" id="Ebene_1" xmlns="http://www.w3.org/2000/svg" xmlns:xlink="http://www.w3.org/1999/xlink" x="0px" y="0px"
	 width="198.425px" height="198.425px" viewBox="0 0 198.425 198.425" enable-background="new 0 0 198.425 198.425"
	 xml:space="preserve">
<polygon fill="#82CC7D" points="159.308,61.6 101.841,28.504 99.234,27.006 96.629,28.504 39.347,61.6 36.911,63.104 36.911,66.116 
	36.911,132.309 36.911,135.321 39.346,136.825 96.715,169.921 99.273,171.419 101.853,169.921 159.319,136.825 161.938,135.321 
	161.938,132.309 161.938,66.116 161.938,63.104 "/>
<polygon fill="#82CC7D" points="161.712,131.589 99.212,167.589 36.712,131.589 36.712,62.925 99.212,26.925 161.712,62.925 "/>
<polygon fill="none" stroke="#FFFFFF" stroke-width="2" stroke-miterlimit="10" points="157.712,133.046 99.212,166.88 
	40.712,133.046 40.712,65.379 99.212,31.546 157.712,65.379 "/>
<rect x="84.925" y="118.925" fill="none" stroke="#FFFFFF" stroke-miterlimit="10" width="29" height="12"/>
<g>
	<path fill="#FFFFFF" d="M91.651,121.282h1.1v4.727c0,1.689-0.981,2.35-2.139,2.35c-1.25,0-1.99-0.84-2.139-1.84l1.11-0.229
		c0.119,0.638,0.468,1.029,1.029,1.029c0.629,0,1.039-0.301,1.039-1.26V121.282z"/>
	<path fill="#FFFFFF" d="M98.54,126.05h-3.569c0,0.738,0.43,1.389,1.25,1.389c0.54,0,1.059-0.299,1.319-0.85l0.89,0.35
		c-0.49,0.949-1.06,1.42-2.209,1.42c-1.66,0-2.349-1.4-2.349-2.6s0.689-2.598,2.349-2.598c1.61,0,2.319,1.309,2.319,2.438V126.05z
		 M94.991,125.181h2.449c-0.09-0.561-0.469-1.1-1.219-1.1C95.532,124.081,95.102,124.55,94.991,125.181"/>
	<path fill="#FFFFFF" d="M100.692,123.241v0.859c0.359-0.6,0.959-0.939,1.629-0.939c0.879,0,1.479,0.529,1.479,1.51v3.607h-1.039
		v-3.279c0-0.68-0.311-0.918-0.779-0.918c-0.65,0-1.289,0.77-1.289,2.158v2.039h-1.041v-5.037H100.692z"/>
	<path fill="#FFFFFF" d="M107.042,125.181h0.869v-0.221c0-0.629-0.451-0.879-0.98-0.879c-0.41,0-0.77,0.219-0.939,0.67l-0.949-0.201
		c0.211-0.85,0.93-1.389,1.898-1.389c1.17,0,2.01,0.51,2.01,1.988v3.129h-0.881l-0.1-0.66c-0.328,0.461-0.848,0.74-1.559,0.74
		c-0.842,0-1.55-0.48-1.55-1.529C104.861,125.79,105.751,125.181,107.042,125.181 M106.591,127.438c0.641,0,1.32-0.41,1.32-1.279
		v-0.109h-0.91c-0.64,0-1.039,0.299-1.039,0.779C105.962,127.169,106.151,127.438,106.591,127.438"/>
	<circle fill="none" stroke="#FFFFFF" stroke-width="2" stroke-miterlimit="10" cx="86.546" cy="104.468" r="9.275"/>
	<circle fill="none" stroke="#FFFFFF" stroke-width="2" stroke-miterlimit="10" cx="112.466" cy="104.468" r="9.275"/>
	<path fill="none" stroke="#FFFFFF" stroke-width="2" stroke-miterlimit="10" d="M103.952,100.145c0-2.043-2.082-3.72-4.654-3.72
		h0.043c-2.573,0-4.655,1.664-4.655,3.709"/>
	<path fill="none" stroke="#FFFFFF" stroke-width="2" stroke-miterlimit="10" d="M82.204,78.425c-2.572,0-4.779,1.881-4.779,4.901
		v19.221"/>
	<path fill="none" stroke="#FFFFFF" stroke-width="2" stroke-miterlimit="10" d="M116.425,78.553c2.572,0,5,1.753,5,4.773v18.914"/>
	<polyline fill="none" stroke="#FFFFFF" stroke-width="2" stroke-miterlimit="10" points="91.807,145.236 99.005,135.547 
		106.618,145.236 	"/>
	<polyline fill="none" stroke="#FFFFFF" stroke-width="2" stroke-miterlimit="10" points="91.807,151.05 99.005,141.36 
		106.618,151.05 	"/>
	<polyline fill="none" stroke="#FFFFFF" stroke-width="2" stroke-miterlimit="10" points="91.807,156.864 99.005,147.174 
		106.618,156.864 	"/>
	<line fill="none" stroke="#FFFFFF" stroke-width="2" stroke-miterlimit="10" x1="99.213" y1="135.88" x2="99.213" y2="166.88"/>
	<polyline fill="none" stroke="#FFFFFF" stroke-width="2" stroke-miterlimit="10" points="91.807,68.963 99.005,59.274 
		106.618,68.963 	"/>
	<polyline fill="none" stroke="#FFFFFF" stroke-width="2" stroke-miterlimit="10" points="91.807,74.775 99.005,65.086 
		106.618,74.775 	"/>
	<polyline fill="none" stroke="#FFFFFF" stroke-width="2" stroke-miterlimit="10" points="91.807,80.59 99.005,70.901 
		106.618,80.59 	"/>
	<line fill="none" stroke="#FFFFFF" stroke-width="2" stroke-miterlimit="10" x1="99.213" y1="59.605" x2="99.213" y2="90.605"/>
	<polyline fill="none" stroke="#FFFFFF" stroke-width="2" stroke-miterlimit="10" points="62.459,129.569 69.657,119.88 
		77.271,129.569 	"/>
	<polyline fill="none" stroke="#FFFFFF" stroke-width="2" stroke-miterlimit="10" points="62.459,135.383 69.657,125.693 
		77.271,135.383 	"/>
	<polyline fill="none" stroke="#FFFFFF" stroke-width="2" stroke-miterlimit="10" points="62.459,141.197 69.657,131.507 
		77.271,141.197 	"/>
	<line fill="none" stroke="#FFFFFF" stroke-width="2" stroke-miterlimit="10" x1="69.865" y1="120.213" x2="69.865" y2="150.185"/>
	<polyline fill="none" stroke="#FFFFFF" stroke-width="2" stroke-miterlimit="10" points="117.774,129.569 124.973,119.88 
		132.586,129.569 	"/>
	<polyline fill="none" stroke="#FFFFFF" stroke-width="2" stroke-miterlimit="10" points="117.774,135.383 124.973,125.693 
		132.586,135.383 	"/>
	<polyline fill="none" stroke="#FFFFFF" stroke-width="2" stroke-miterlimit="10" points="117.774,141.197 124.973,131.507 
		132.586,141.197 	"/>
	
		<line fill="none" stroke="#FFFFFF" stroke-width="2" stroke-miterlimit="10" x1="125.181" y1="120.213" x2="125.181" y2="151.213"/>
	<polyline fill="none" stroke="#FFFFFF" stroke-width="2" stroke-miterlimit="10" points="59.118,66.64 66.316,56.951 73.93,66.64 	
		"/>
	<polyline fill="none" stroke="#FFFFFF" stroke-width="2" stroke-miterlimit="10" points="59.118,72.452 66.316,62.763 
		73.93,72.452 	"/>
	<polyline fill="none" stroke="#FFFFFF" stroke-width="2" stroke-miterlimit="10" points="59.118,78.267 66.316,68.578 
		73.93,78.267 	"/>
	<line fill="none" stroke="#FFFFFF" stroke-width="2" stroke-miterlimit="10" x1="66.524" y1="57.282" x2="66.524" y2="88.282"/>
	<polyline fill="none" stroke="#FFFFFF" stroke-width="2" stroke-miterlimit="10" points="121.618,66.476 128.816,56.787 
		136.432,66.476 	"/>
	<polyline fill="none" stroke="#FFFFFF" stroke-width="2" stroke-miterlimit="10" points="121.618,72.288 128.816,62.599 
		136.432,72.288 	"/>
	<polyline fill="none" stroke="#FFFFFF" stroke-width="2" stroke-miterlimit="10" points="121.618,78.103 128.816,68.414 
		136.432,78.103 	"/>
	<line fill="none" stroke="#FFFFFF" stroke-width="2" stroke-miterlimit="10" x1="129.024" y1="57.118" x2="129.024" y2="88.118"/>
	<polyline fill="none" stroke="#FFFFFF" stroke-width="2" stroke-miterlimit="10" points="135.021,93.235 142.22,83.546 
		149.835,93.235 	"/>
	<polyline fill="none" stroke="#FFFFFF" stroke-width="2" stroke-miterlimit="10" points="135.021,99.049 142.22,89.36 
		149.835,99.049 	"/>
	<polyline fill="none" stroke="#FFFFFF" stroke-width="2" stroke-miterlimit="10" points="135.021,104.863 142.22,95.173 
		149.835,104.863 	"/>
	<line fill="none" stroke="#FFFFFF" stroke-width="2" stroke-miterlimit="10" x1="142.428" y1="83.879" x2="142.428" y2="114.879"/>
	<polyline fill="none" stroke="#FFFFFF" stroke-width="2" stroke-miterlimit="10" points="46.118,93.235 53.316,83.546 
		60.93,93.235 	"/>
	<polyline fill="none" stroke="#FFFFFF" stroke-width="2" stroke-miterlimit="10" points="46.118,99.049 53.316,89.36 60.93,99.049 
			"/>
	<polyline fill="none" stroke="#FFFFFF" stroke-width="2" stroke-miterlimit="10" points="46.118,104.863 53.316,95.173 
		60.93,104.863 	"/>
	<line fill="none" stroke="#FFFFFF" stroke-width="2" stroke-miterlimit="10" x1="53.524" y1="83.879" x2="53.524" y2="114.879"/>
	<path fill="#FFFFFF" d="M97.04,50.332c-0.186-0.121-0.322-0.162-0.484-0.162c-0.289,0-0.446,0.18-0.446,0.569v0.198h1.176v0.456
		H96.11v2.566h-0.502v-2.566h-0.851v-0.456h0.851v-0.185c0-0.732,0.354-1.038,0.928-1.038c0.277,0,0.463,0.071,0.631,0.174
		L97.04,50.332z"/>
	<path fill="#FFFFFF" d="M99.466,50.889c0.922,0,1.486,0.726,1.486,1.559s-0.564,1.56-1.486,1.56c-0.924,0-1.488-0.727-1.488-1.56
		S98.542,50.889,99.466,50.889 M99.466,53.552c0.617,0,0.971-0.522,0.971-1.104c0-0.581-0.354-1.103-0.971-1.103
		c-0.619,0-0.973,0.522-0.973,1.103C98.493,53.03,98.847,53.552,99.466,53.552"/>
	<path fill="#FFFFFF" d="M103.874,51.896c-0.041-0.348-0.223-0.552-0.582-0.552c-0.527,0-1.025,0.498-1.025,1.524v1.091h-0.504
		v-3.022h0.504v0.557c0.234-0.366,0.611-0.606,1.115-0.606c0.6,0,0.961,0.361,0.996,1.008H103.874z"/>
	<polygon fill="#FFFFFF" points="95.521,40.766 95.521,40.867 95.521,47.241 96.054,47.241 96.203,47.241 96.33,47.241 
		96.33,40.766 	"/>
	<path fill="#FFFFFF" d="M98.729,47.848c0.057,0,0.129-0.051,0.129-0.105v-7.584c0-0.055-0.072-0.101-0.129-0.101h-2.527
		c-0.055,0-0.075,0.022-0.075,0.051v0.151v0.506c0,0.055,0.02,0.102,0.075,0.102h1.718c0.057,0,0.129,0.044,0.129,0.099v5.967
		c0,0.055-0.072,0.104-0.129,0.104h-1.718c-0.055,0-0.075,0.019-0.075,0.047v0.152v0.506c0,0.054,0.02,0.105,0.075,0.105H98.729z"/>
	<polygon fill="#FFFFFF" points="99.87,40.766 99.87,40.867 99.87,47.241 100.55,47.241 100.681,47.241 100.681,40.766 	"/>
	<path fill="#FFFFFF" d="M100.579,47.844v-0.81c1.113,0,1.889-1.383,1.889-3.084c0-1.7-0.775-3.084-1.889-3.084v-0.808
		c1.518,0,2.697,1.746,2.697,3.892C103.276,46.097,102.097,47.844,100.579,47.844"/>
	<path fill="#FFFFFF" d="M92.183,45.355v1.115v0.36c0,0.605,0.387,1.017,0.998,1.017h0.172h0.496h0.584
		c0.029,0,0.076-0.051,0.076-0.105v-0.608c0-0.054-0.07-0.096-0.127-0.096h-0.58h-0.297h-0.183c-0.262,0-0.33-0.112-0.33-0.411
		v-0.177v-0.974v-0.594c0-0.609-0.248-0.834-0.551-0.945c0.303-0.109,0.551-0.334,0.551-0.943v-0.422v-1.07V41.25
		c0-0.294,0.058-0.382,0.33-0.382h0.228h0.289h0.594c0.029,0,0.076-0.047,0.076-0.102v-0.607c0-0.055-0.07-0.101-0.127-0.101h-0.486
		h-0.457h-0.258c-0.611,0-0.998,0.397-0.998,0.989v0.317v1.323c0,0-0.021,0.304-0.035,0.407c-0.039,0.274-0.373,0.508-0.582,0.505
		h-0.317c-0.056,0-0.078,0.043-0.078,0.099v0.607c0,0.055,0.022,0.104,0.078,0.104h0.289c0.266-0.004,0.6,0.218,0.625,0.552
		C92.17,45.057,92.183,45.355,92.183,45.355"/>
	<path fill="#FFFFFF" d="M96.202,40.058h-0.287h-0.318c-0.057,0-0.077,0.046-0.077,0.101v0.187v0.42v0.102h0.077h0.605h0.127v-0.102
		v-0.607v-0.101H96.202z"/>
	<path fill="#FFFFFF" d="M95.521,47.135v0.287v0.32c0,0.055,0.02,0.106,0.076,0.106h0.186h0.42h0.127v-0.106v-0.607v-0.097h-0.127
		h-0.606h-0.076V47.135z"/>
	<path fill="#FFFFFF" d="M100.55,40.058h-0.285h-0.32c-0.057,0-0.074,0.046-0.074,0.101v0.187v0.42v0.102h0.074h0.605h0.131v-0.102
		v-0.607v-0.101H100.55z"/>
	<path fill="#FFFFFF" d="M99.87,47.135v0.287v0.32c0,0.055,0.018,0.106,0.074,0.106h0.186h0.42h0.131v-0.106v-0.607v-0.097h-0.131
		h-0.605H99.87V47.135z"/>
	<path fill="#FFFFFF" d="M104.929,45.355v1.115v0.36c0,0.605,0.381,1.017,0.992,1.017h0.172h0.496h0.584
		c0.026,0,0.082-0.051,0.082-0.105v-0.608c0-0.054-0.076-0.096-0.133-0.096h-0.58h-0.297h-0.184c-0.262,0-0.324-0.112-0.324-0.411
		v-0.177v-0.974v-0.594c0-0.195-0.057-0.373-0.102-0.474h-1.357c0.373,0.101,0.531,0.234,0.609,0.558
		C104.925,45.128,104.929,45.355,104.929,45.355"/>
	<path fill="#FFFFFF" d="M104.872,43.094c-0.078,0.265-0.254,0.403-0.566,0.505h1.275c0.078-0.202,0.156-0.337,0.156-0.606v-0.42
		v-1.07v-0.254c0-0.294,0.053-0.382,0.324-0.382h0.229h0.289h0.594c0.027,0,0.082-0.046,0.082-0.101v-0.608
		c0-0.054-0.076-0.1-0.133-0.1h-0.486h-0.457h-0.258c-0.611,0-0.992,0.396-0.992,0.989v0.317v1.323
		C104.929,42.687,104.911,42.961,104.872,43.094"/>
	<path fill="#FFFFFF" d="M105.069,44.01c0.205,0.074,0.428,0.195,0.566,0.398h1.486c0.057,0,0.133-0.048,0.133-0.103v-0.607
		c0-0.056-0.076-0.1-0.133-0.1h-1.541C105.479,43.801,105.237,43.948,105.069,44.01"/>
	<path fill="#FFFFFF" d="M103.987,43.599c-0.055,0-0.07,0.044-0.07,0.099v0.607c0,0.055,0.016,0.104,0.07,0.104h0.291h1.357
		c-0.092-0.204-0.316-0.342-0.479-0.405c0.168-0.062,0.322-0.203,0.424-0.405h-1.275H103.987z"/>
</g>
</svg>
