<?xml version="1.0" encoding="utf-8"?>
<!-- Generator: Adobe Illustrator 16.0.4, SVG Export Plug-In . SVG Version: 6.00 Build 0)  -->
<!DOCTYPE svg PUBLIC "-//W3C//DTD SVG 1.1//EN" "http://www.w3.org/Graphics/SVG/1.1/DTD/svg11.dtd">
<svg version="1.1" id="Ebene_1" xmlns="http://www.w3.org/2000/svg" xmlns:xlink="http://www.w3.org/1999/xlink" x="0px" y="0px"
	 width="198.425px" height="198.425px" viewBox="0 0 198.425 198.425" enable-background="new 0 0 198.425 198.425"
	 xml:space="preserve">
<polygon fill="#FFFFFF" points="39.213,133.768 39.213,64.658 99.213,30.098 159.213,64.658 159.213,133.768 99.213,168.328 "/>
<path fill="#669ED6" d="M99.213,32.982l57.5,33.12v66.221l-57.5,33.119l-57.5-33.119V66.102L99.213,32.982z M99.213,27.212l-62.5,36
	v72.001l62.5,36l62.5-36V63.212L99.213,27.212z"/>
<g>
	<defs>
		<rect id="SVGID_1_" width="198.425" height="198.425"/>
	</defs>
	<clipPath id="SVGID_2_">
		<use xlink:href="#SVGID_1_"  overflow="visible"/>
	</clipPath>
	<path clip-path="url(#SVGID_2_)" fill="#659DD5" d="M97.041,49.516c-0.186-0.12-0.324-0.162-0.486-0.162
		c-0.287,0-0.444,0.18-0.444,0.57v0.197h1.176v0.457h-1.176v2.566h-0.504v-2.566h-0.851v-0.457h0.851v-0.185
		c0-0.732,0.354-1.038,0.93-1.038c0.275,0,0.461,0.072,0.629,0.174L97.041,49.516z"/>
	<path clip-path="url(#SVGID_2_)" fill="#659DD5" d="M99.465,50.073c0.924,0,1.488,0.726,1.488,1.559c0,0.834-0.564,1.56-1.488,1.56
		s-1.486-0.726-1.486-1.56C97.979,50.799,98.541,50.073,99.465,50.073 M99.465,52.736c0.617,0,0.973-0.522,0.973-1.104
		c0-0.581-0.355-1.103-0.973-1.103s-0.971,0.522-0.971,1.103C98.494,52.214,98.848,52.736,99.465,52.736"/>
	<path clip-path="url(#SVGID_2_)" fill="#659DD5" d="M103.875,51.081c-0.043-0.348-0.223-0.552-0.582-0.552
		c-0.527,0-1.025,0.498-1.025,1.524v1.091h-0.504v-3.022h0.504v0.557c0.232-0.366,0.611-0.605,1.115-0.605
		c0.6,0,0.959,0.36,0.994,1.007H103.875z"/>
	<polygon clip-path="url(#SVGID_2_)" fill="#659DD5" points="95.521,39.951 95.521,40.051 95.521,46.426 96.053,46.426 
		96.204,46.426 96.331,46.426 96.331,39.951 	"/>
	<path clip-path="url(#SVGID_2_)" fill="#659DD5" d="M98.73,47.032c0.055,0,0.129-0.05,0.129-0.105v-7.584
		c0-0.056-0.074-0.101-0.129-0.101h-2.527c-0.057,0-0.077,0.023-0.077,0.051v0.151v0.505c0,0.056,0.02,0.103,0.077,0.103h1.718
		c0.055,0,0.129,0.044,0.129,0.1v5.965c0,0.056-0.074,0.105-0.129,0.105h-1.718c-0.057,0-0.077,0.019-0.077,0.047v0.152v0.506
		c0,0.055,0.02,0.105,0.077,0.105H98.73z"/>
	<polygon clip-path="url(#SVGID_2_)" fill="#659DD5" points="99.871,39.951 99.871,40.051 99.871,46.426 100.551,46.426 
		100.68,46.426 100.68,39.951 	"/>
	<path clip-path="url(#SVGID_2_)" fill="#659DD5" d="M100.578,47.028v-0.809c1.113,0,1.891-1.383,1.891-3.084
		c0-1.7-0.777-3.084-1.891-3.084v-0.809c1.52,0,2.699,1.746,2.699,3.893C103.277,45.281,102.098,47.028,100.578,47.028"/>
	<path clip-path="url(#SVGID_2_)" fill="#659DD5" d="M92.182,44.541v1.115v0.359c0,0.605,0.389,1.018,1,1.018h0.172h0.496h0.584
		c0.027,0,0.074-0.051,0.074-0.106v-0.607c0-0.055-0.07-0.097-0.125-0.097h-0.582h-0.297h-0.183c-0.26,0-0.328-0.111-0.328-0.41
		v-0.178v-0.973v-0.594c0-0.61-0.249-0.835-0.551-0.945c0.302-0.11,0.551-0.335,0.551-0.944v-0.422v-1.069v-0.254
		c0-0.294,0.058-0.382,0.328-0.382h0.228h0.291h0.594c0.027,0,0.074-0.046,0.074-0.101v-0.607c0-0.056-0.07-0.101-0.125-0.101
		h-0.486h-0.459h-0.256c-0.611,0-1,0.396-1,0.988v0.318v1.323c0,0-0.02,0.303-0.035,0.407c-0.037,0.273-0.373,0.508-0.58,0.505
		h-0.319c-0.056,0-0.078,0.043-0.078,0.099v0.607c0,0.055,0.022,0.103,0.078,0.103h0.291c0.264-0.004,0.6,0.219,0.625,0.552
		C92.171,44.242,92.182,44.541,92.182,44.541"/>
	<path clip-path="url(#SVGID_2_)" fill="#659DD5" d="M96.203,39.242h-0.287h-0.32c-0.057,0-0.077,0.046-0.077,0.101v0.187v0.42
		v0.102h0.077h0.607h0.127V39.95v-0.607v-0.101H96.203z"/>
	<path clip-path="url(#SVGID_2_)" fill="#659DD5" d="M95.521,46.32v0.287v0.32c0,0.055,0.018,0.105,0.074,0.105h0.188h0.42h0.127
		v-0.105V46.32v-0.097h-0.127h-0.608h-0.074V46.32z"/>
	<path clip-path="url(#SVGID_2_)" fill="#659DD5" d="M100.551,39.242h-0.287h-0.32c-0.057,0-0.072,0.046-0.072,0.101v0.187v0.42
		v0.102h0.072h0.607h0.129V39.95v-0.607v-0.101H100.551z"/>
	<path clip-path="url(#SVGID_2_)" fill="#659DD5" d="M99.871,46.32v0.287v0.32c0,0.055,0.016,0.105,0.072,0.105h0.188h0.42h0.129
		v-0.105V46.32v-0.097h-0.129h-0.607h-0.072V46.32z"/>
	<path clip-path="url(#SVGID_2_)" fill="#659DD5" d="M104.93,44.541v1.115v0.359c0,0.605,0.379,1.018,0.992,1.018h0.172h0.494h0.584
		c0.029,0,0.084-0.051,0.084-0.106v-0.607c0-0.055-0.078-0.097-0.133-0.097h-0.582h-0.297h-0.184c-0.262,0-0.322-0.111-0.322-0.41
		v-0.178v-0.973v-0.594c0-0.196-0.057-0.374-0.102-0.475h-1.359c0.373,0.101,0.533,0.235,0.609,0.559
		C104.926,44.313,104.93,44.541,104.93,44.541"/>
	<path clip-path="url(#SVGID_2_)" fill="#659DD5" d="M104.871,42.278c-0.078,0.265-0.254,0.404-0.564,0.505h1.273
		c0.078-0.202,0.158-0.337,0.158-0.605v-0.421v-1.069v-0.254c0-0.295,0.051-0.382,0.322-0.382h0.229h0.289h0.594
		c0.029,0,0.084-0.046,0.084-0.102v-0.607c0-0.055-0.078-0.101-0.133-0.101h-0.486h-0.459h-0.256c-0.614,0-0.992,0.397-0.992,0.989
		v0.318v1.322C104.93,41.871,104.91,42.146,104.871,42.278"/>
	<path clip-path="url(#SVGID_2_)" fill="#659DD5" d="M105.068,43.194c0.205,0.075,0.43,0.196,0.568,0.398h1.486
		c0.055,0,0.134-0.047,0.134-0.103v-0.607c0-0.056-0.079-0.099-0.134-0.099h-1.543C105.479,42.986,105.238,43.132,105.068,43.194"/>
	<path clip-path="url(#SVGID_2_)" fill="#659DD5" d="M103.988,42.783c-0.057,0-0.07,0.043-0.07,0.099v0.607
		c0,0.055,0.014,0.104,0.07,0.104h0.289h1.359c-0.092-0.203-0.318-0.342-0.48-0.405c0.17-0.062,0.322-0.203,0.424-0.405h-1.273
		H103.988z"/>
	
		<path clip-path="url(#SVGID_2_)" fill="none" stroke="#659DD5" stroke-width="2" stroke-linecap="square" stroke-linejoin="round" stroke-miterlimit="10" d="
		M94.006,93.256c-3.628,0-4.149,4.082-8.725,4.082c-5.051,0-4.031-4.082-8.725-4.082c-4.489,0-4.797,4.082-8.726,4.082
		c-4.56,0-4.56-4.082-8.724-4.082c-5,0-4.797,4.082-8.725,4.082c-4.236,0-4.031-4.082-8.726-4.082"/>
	
		<path clip-path="url(#SVGID_2_)" fill="none" stroke="#659DD5" stroke-width="2" stroke-linecap="square" stroke-linejoin="round" stroke-miterlimit="10" d="
		M156.006,93.256c-3.628,0-4.149,4.082-8.725,4.082c-5.052,0-4.031-4.082-8.726-4.082c-4.489,0-4.797,4.082-8.726,4.082
		c-4.561,0-4.561-4.082-8.725-4.082c-5,0-4.797,4.082-8.725,4.082c-4.236,0-4.031-4.082-8.726-4.082"/>
	
		<path clip-path="url(#SVGID_2_)" fill="none" stroke="#659DD5" stroke-width="2" stroke-linecap="square" stroke-linejoin="round" stroke-miterlimit="10" d="
		M94.006,99.656c-3.628,0-4.149,4.082-8.725,4.082c-5.051,0-4.031-4.082-8.725-4.082c-4.489,0-4.797,4.082-8.726,4.082
		c-4.56,0-4.56-4.082-8.724-4.082c-5,0-4.797,4.082-8.725,4.082c-4.236,0-4.031-4.082-8.726-4.082"/>
	
		<path clip-path="url(#SVGID_2_)" fill="none" stroke="#659DD5" stroke-width="2" stroke-linecap="square" stroke-linejoin="round" stroke-miterlimit="10" d="
		M156.006,99.656c-3.628,0-4.149,4.082-8.725,4.082c-5.052,0-4.031-4.082-8.726-4.082c-4.489,0-4.797,4.082-8.726,4.082
		c-4.561,0-4.561-4.082-8.725-4.082c-5,0-4.797,4.082-8.725,4.082c-4.236,0-4.031-4.082-8.726-4.082"/>
	
		<path clip-path="url(#SVGID_2_)" fill="none" stroke="#659DD5" stroke-width="2" stroke-linecap="square" stroke-linejoin="round" stroke-miterlimit="10" d="
		M94.006,106.056c-3.628,0-4.149,4.082-8.725,4.082c-5.051,0-4.031-4.082-8.725-4.082c-4.489,0-4.797,4.082-8.726,4.082
		c-4.56,0-4.56-4.082-8.724-4.082c-5,0-4.797,4.082-8.725,4.082c-4.236,0-4.031-4.082-8.726-4.082"/>
	
		<path clip-path="url(#SVGID_2_)" fill="none" stroke="#659DD5" stroke-width="2" stroke-linecap="square" stroke-linejoin="round" stroke-miterlimit="10" d="
		M156.006,106.056c-3.628,0-4.149,4.082-8.725,4.082c-5.052,0-4.031-4.082-8.726-4.082c-4.489,0-4.797,4.082-8.726,4.082
		c-4.561,0-4.561-4.082-8.725-4.082c-5,0-4.797,4.082-8.725,4.082c-4.236,0-4.031-4.082-8.726-4.082"/>
	<path clip-path="url(#SVGID_2_)" fill="#FFFFFF" d="M134.042,128.393l-2.488-12.78l-11.201,7.729l4.681,1.718
		C119.959,134.654,112,140.214,103,141.404V86h24v-9h-22.079c3.287-2,5.484-5.168,5.484-9.312c0-6.362-5.156-11.276-11.517-11.276
		c-6.362,0-11.518,4.793-11.518,11.154c0,4.145,2.197,7.434,5.484,9.434H70v9h24v55.207c-9-1.475-15.396-6.711-20.279-15.261
		l4.334-1.604l-11.373-8.989l-2.326,14.041l4.741-1.75c8.767,30.659,50.797,30.91,60.504-0.889L134.042,128.393z"/>
	<path clip-path="url(#SVGID_2_)" fill="none" stroke="#659DD5" stroke-width="2" stroke-miterlimit="10" d="M134.042,128.393
		l-2.488-12.78l-11.201,7.729l4.681,1.718C119.959,134.654,112,140.214,103,141.404V86h24v-9h-22.079
		c3.287-2,5.484-5.168,5.484-9.312c0-6.362-5.156-11.276-11.517-11.276c-6.362,0-11.518,4.793-11.518,11.154
		c0,4.145,2.197,7.434,5.484,9.434H70v9h24v55.207c-9-1.475-15.396-6.711-20.279-15.261l4.334-1.604l-11.373-8.989l-2.326,14.041
		l4.741-1.75c8.767,30.659,50.797,30.91,60.504-0.889L134.042,128.393z"/>
	
		<circle clip-path="url(#SVGID_2_)" fill="none" stroke="#659DD5" stroke-width="2" stroke-miterlimit="10" cx="98.894" cy="67.746" r="4.547"/>
	<rect x="76.5" y="98.5" clip-path="url(#SVGID_2_)" fill="#FFFFFF" width="46" height="13"/>
	<rect x="76.5" y="98.5" clip-path="url(#SVGID_2_)" fill="none" stroke="#659DD5" stroke-miterlimit="10" width="46" height="13"/>
	<polygon clip-path="url(#SVGID_2_)" fill="#659DD5" points="79.898,100.887 80.999,100.887 80.999,103.625 83.837,103.625 
		83.837,100.887 84.936,100.887 84.936,107.883 83.837,107.883 83.837,104.664 80.999,104.664 80.999,107.883 79.898,107.883 	"/>
	<path clip-path="url(#SVGID_2_)" fill="#659DD5" d="M88.357,104.784h0.871v-0.22c0-0.63-0.451-0.88-0.98-0.88
		c-0.41,0-0.77,0.22-0.94,0.671l-0.949-0.201c0.209-0.85,0.93-1.389,1.899-1.389c1.17,0,2.009,0.51,2.009,1.988v3.129h-0.88
		l-0.1-0.66c-0.33,0.46-0.85,0.74-1.559,0.74c-0.84,0-1.549-0.48-1.549-1.529C86.179,105.394,87.068,104.784,88.357,104.784
		 M87.908,107.043c0.641,0,1.32-0.41,1.32-1.279v-0.11h-0.91c-0.64,0-1.039,0.3-1.039,0.78
		C87.279,106.773,87.469,107.043,87.908,107.043"/>
	<path clip-path="url(#SVGID_2_)" fill="#659DD5" d="M92.6,102.846v0.859c0.408-0.63,0.908-0.939,1.518-0.939
		c0.679,0,1.24,0.409,1.39,1.039c0.35-0.66,0.92-1.039,1.569-1.039c0.919,0,1.439,0.629,1.439,1.509v3.608h-1.039v-3.379
		c0-0.549-0.301-0.819-0.74-0.819c-0.619,0-1.18,0.79-1.18,2.179v2.02h-1.039v-3.379c0-0.549-0.299-0.819-0.74-0.819
		c-0.629,0-1.178,0.79-1.178,2.288v1.91h-1.041v-5.037H92.6z"/>
	<path clip-path="url(#SVGID_2_)" fill="#659DD5" d="M102.348,107.963c-0.659,0-1.199-0.371-1.369-0.66v0.58h-1.039v-7.076h1.039
		v2.598c0.23-0.329,0.85-0.639,1.35-0.639c1.51,0,2.27,1.039,2.27,2.598C104.598,106.973,103.838,107.963,102.348,107.963
		 M102.209,103.685c-0.75,0-1.291,0.64-1.291,1.679c0,1.04,0.541,1.68,1.291,1.68c0.748,0,1.289-0.64,1.289-1.68
		C103.498,104.324,102.957,103.685,102.209,103.685"/>
	<path clip-path="url(#SVGID_2_)" fill="#659DD5" d="M108.848,107.883v-0.859c-0.359,0.6-0.959,0.939-1.629,0.939
		c-0.879,0-1.479-0.53-1.479-1.51v-3.607h1.039v3.277c0,0.68,0.309,0.92,0.779,0.92c0.65,0,1.289-0.77,1.289-2.159v-2.038h1.039
		v5.037H108.848z"/>
	<path clip-path="url(#SVGID_2_)" fill="#659DD5" d="M111.379,107.883v-5.037h1.039v0.839c0.35-0.6,0.951-0.919,1.49-0.919
		c0.27,0,0.49,0.06,0.639,0.119l-0.18,0.949c-0.16-0.1-0.379-0.149-0.59-0.149c-0.67,0-1.359,0.739-1.359,2.329v1.869H111.379z"/>
	<path clip-path="url(#SVGID_2_)" fill="#659DD5" d="M116.938,102.766c0.34,0,0.65,0.08,0.92,0.219l0.93-0.499l0.42,0.749
		l-0.68,0.381c0.141,0.239,0.221,0.52,0.221,0.839c0,1.06-0.791,1.688-1.811,1.688c-0.299,0-0.578-0.059-0.809-0.149
		c-0.18,0.101-0.27,0.25-0.27,0.44c0,0.27,0.17,0.389,0.52,0.389h1.109c0.988,0,1.668,0.49,1.668,1.439
		c0,1.25-1.078,1.739-2.207,1.739c-1.27,0-2.219-0.56-2.219-1.659c0-0.43,0.17-0.779,0.43-1.02c-0.182-0.18-0.291-0.439-0.291-0.789
		c0-0.449,0.24-0.81,0.609-1.02c-0.219-0.27-0.34-0.63-0.34-1.06C115.139,103.404,115.918,102.766,116.938,102.766 M116.459,107.703
		c-0.18,0-0.35-0.011-0.51-0.031c-0.15,0.16-0.221,0.351-0.221,0.61c0,0.499,0.451,0.819,1.221,0.819c0.719,0,1.148-0.27,1.148-0.76
		c0-0.479-0.34-0.639-0.83-0.639H116.459z M116.938,105.273c0.471,0,0.801-0.319,0.801-0.819c0-0.499-0.33-0.819-0.801-0.819
		c-0.459,0-0.789,0.32-0.789,0.819C116.148,104.954,116.479,105.273,116.938,105.273"/>
</g>
</svg>
