<?xml version="1.0" encoding="utf-8"?>
<!-- Generator: Adobe Illustrator 16.0.4, SVG Export Plug-In . SVG Version: 6.00 Build 0)  -->
<!DOCTYPE svg PUBLIC "-//W3C//DTD SVG 1.1//EN" "http://www.w3.org/Graphics/SVG/1.1/DTD/svg11.dtd">
<svg version="1.1" id="Ebene_1" xmlns="http://www.w3.org/2000/svg" xmlns:xlink="http://www.w3.org/1999/xlink" x="0px" y="0px"
	 width="198.425px" height="198.425px" viewBox="0 0 198.425 198.425" enable-background="new 0 0 198.425 198.425"
	 xml:space="preserve">
<polygon fill="#FFFFFF" points="39.213,133.768 39.213,64.658 99.213,30.097 159.213,64.658 159.213,133.768 99.213,168.328 "/>
<path fill="#FF867F" d="M99.213,32.983l57.5,33.119v66.221l-57.5,33.119l-57.5-33.119V66.102L99.213,32.983z M99.213,27.212
	l-62.5,36v72.001l62.5,36l62.5-36V63.212L99.213,27.212z"/>
<g>
	<path fill="none" stroke="#FF867F" stroke-width="2" stroke-miterlimit="10" d="M106.53,67.242
		c-1.623,4.365-5.729,5.689-5.729,5.689s-0.977-3.213,0.647-7.579c1.623-4.365,5.046-5.728,5.046-5.728
		S108.153,62.877,106.53,67.242z"/>
	<path fill="none" stroke="#FF867F" stroke-width="2" stroke-miterlimit="10" d="M98.665,83.356
		c-8.433,1.325-10.119-4.818-10.36-5.782c-0.242-0.964,1.807-3.735,4.457-4.643c2.649-0.908,7.749,0,7.749,0
		s4.299,4.884,2.371,10.064c-1.928,5.179,1.807,3.253,3.372,10.213c1.989,8.846,9.604,20.473,3.735,26.65
		c-2.746,2.891-7.349,8.914-20.239,0.241c0,0-6.066-13.854,10.761-8.795"/>
	<path fill="none" stroke="#FF867F" stroke-width="2" stroke-miterlimit="10" d="M95.858,123.6
		c-0.361,0.077-3.875-2.741-8.573-1.851c-4.568,0.866-3.595,4.698-3.595,4.698"/>
	<path fill="none" stroke="#FF867F" stroke-width="2" stroke-miterlimit="10" d="M94.261,83.33l0.429,3.521
		c0,0-5.459,1.564-4.958,8.672c0,0-4.96,8.917-1.447,9.157c3.514,0.24,4.959-5.06,4.959-5.06s4.457,2.77,6.144-1.808"/>
	<path fill="none" stroke="#FF867F" stroke-width="2" stroke-miterlimit="10" d="M92.4,109.498c0.662,1.42-2.126-3.523-0.216-7.438"
		/>
	<path fill="none" stroke="#FF867F" stroke-width="2" stroke-miterlimit="10" d="M106.611,122.983c0,0,2.659-4.239,4.996-2.522
		c1.391,1.021,1.041,4.745-2.192,5.986s-6.968-1.848-6.968-1.848"/>
	<path fill="none" stroke="#FF867F" stroke-width="2" stroke-miterlimit="10" d="M96.219,76.518
		c-0.942-0.941-2.765-0.643-4.075,0.668"/>
	<polyline fill="none" stroke="#FF867F" stroke-width="2" stroke-miterlimit="10" points="81,158.425 81,126.425 117,126.425 
		117,158.425 	"/>
	<rect x="74" y="133.425" fill="#FF867F" width="49" height="12"/>
	<polygon fill="#FFFFFF" points="78.047,135.495 79.147,135.495 79.147,138.233 81.985,138.233 81.985,135.495 83.084,135.495 
		83.084,142.491 81.985,142.491 81.985,139.272 79.147,139.272 79.147,142.491 78.047,142.491 	"/>
	<path fill="#FFFFFF" d="M88.965,140.263h-3.569c0,0.739,0.43,1.389,1.25,1.389c0.54,0,1.059-0.299,1.319-0.85l0.89,0.35
		c-0.49,0.95-1.06,1.42-2.209,1.42c-1.66,0-2.349-1.399-2.349-2.599s0.689-2.6,2.349-2.6c1.61,0,2.319,1.31,2.319,2.439V140.263z
		 M85.416,139.394h2.449c-0.09-0.562-0.47-1.1-1.219-1.1C85.957,138.294,85.527,138.763,85.416,139.394"/>
	<path fill="#FFFFFF" d="M90.656,135.306c0.41,0,0.721,0.329,0.721,0.729c0,0.4-0.311,0.71-0.721,0.71
		c-0.41,0-0.718-0.31-0.718-0.71C89.938,135.635,90.246,135.306,90.656,135.306 M91.176,142.491h-1.039v-5.037h1.039V142.491z"/>
	<rect x="92.506" y="135.415" fill="#FFFFFF" width="1.041" height="7.076"/>
	<path fill="#FFFFFF" d="M97.346,142.571c-0.661,0-1.2-0.37-1.37-0.66v0.58h-1.039v-7.076h1.039v2.599
		c0.231-0.329,0.85-0.64,1.35-0.64c1.508,0,2.268,1.039,2.268,2.599C99.594,141.581,98.834,142.571,97.346,142.571 M97.205,138.294
		c-0.748,0-1.289,0.639-1.289,1.679s0.541,1.679,1.289,1.679c0.75,0,1.289-0.639,1.289-1.679S97.955,138.294,97.205,138.294"/>
	<path fill="#FFFFFF" d="M100.707,142.491v-5.037h1.039v0.84c0.35-0.6,0.949-0.92,1.49-0.92c0.27,0,0.488,0.061,0.639,0.12
		l-0.18,0.949c-0.16-0.101-0.379-0.149-0.59-0.149c-0.67,0-1.359,0.739-1.359,2.328v1.869H100.707z"/>
	<path fill="#FFFFFF" d="M106.875,137.374c1.561,0,2.479,1.18,2.479,2.599s-0.918,2.599-2.479,2.599
		c-1.559,0-2.479-1.18-2.479-2.599S105.316,137.374,106.875,137.374 M106.875,141.651c0.91,0,1.381-0.829,1.381-1.679
		s-0.471-1.679-1.381-1.679c-0.908,0-1.379,0.829-1.379,1.679S105.967,141.651,106.875,141.651"/>
	<path fill="#FFFFFF" d="M111.547,137.454v0.859c0.359-0.6,0.959-0.939,1.629-0.939c0.879,0,1.479,0.529,1.479,1.51v3.607h-1.039
		v-3.278c0-0.68-0.311-0.919-0.779-0.919c-0.65,0-1.289,0.77-1.289,2.158v2.039h-1.041v-5.037H111.547z"/>
	<path fill="#FFFFFF" d="M117.057,137.454v0.859c0.359-0.6,0.959-0.939,1.629-0.939c0.879,0,1.479,0.529,1.479,1.51v3.607h-1.039
		v-3.278c0-0.68-0.311-0.919-0.779-0.919c-0.65,0-1.289,0.77-1.289,2.158v2.039h-1.041v-5.037H117.057z"/>
	<polyline fill="none" stroke="#FF867F" stroke-width="2" stroke-miterlimit="10" points="90.156,95.312 62,82.85 62,89.424 	"/>
	<path fill="#FFFFFF" d="M57.124,122.027c0,0,4.547-6.384,8.185-16.271c2.876-7.819-1.386-16.332-3.726-16.332h0.218
		c-2.34,0-6.602,8.512-3.725,16.332c3.637,9.888,7.966,16.239,7.966,16.239L57.124,122.027z"/>
	<path fill="none" stroke="#FF867F" stroke-width="2" stroke-miterlimit="10" d="M57.124,122.027c0,0,4.547-6.384,8.185-16.271
		c2.876-7.819-1.386-16.332-3.726-16.332h0.218c-2.34,0-6.602,8.512-3.725,16.332c3.637,9.888,7.966,16.239,7.966,16.239
		L57.124,122.027z"/>
	<polygon fill="none" stroke="#FF867F" stroke-miterlimit="10" points="153.213,130.438 99.213,161.665 45.213,130.438 
		45.213,67.985 99.213,36.761 153.213,67.985 	"/>
	<path fill="#FF867F" d="M97.041,54.188c-0.187-0.121-0.324-0.162-0.486-0.162c-0.287,0-0.444,0.18-0.444,0.569v0.198h1.174v0.456
		h-1.174v2.566h-0.504V55.25h-0.851v-0.456h0.851v-0.185c0-0.732,0.354-1.038,0.93-1.038c0.275,0,0.461,0.071,0.629,0.174
		L97.041,54.188z"/>
	<path fill="#FF867F" d="M99.465,54.745c0.924,0,1.486,0.726,1.486,1.559s-0.562,1.56-1.486,1.56s-1.488-0.727-1.488-1.56
		S98.541,54.745,99.465,54.745 M99.465,57.408c0.617,0,0.971-0.522,0.971-1.104c0-0.581-0.354-1.103-0.971-1.103
		s-0.971,0.522-0.971,1.103C98.494,56.886,98.848,57.408,99.465,57.408"/>
	<path fill="#FF867F" d="M103.873,55.753c-0.041-0.348-0.221-0.552-0.582-0.552c-0.527,0-1.025,0.498-1.025,1.524v1.091h-0.502
		v-3.022h0.502v0.557c0.234-0.366,0.613-0.606,1.117-0.606c0.6,0,0.959,0.361,0.994,1.008H103.873z"/>
	<polygon fill="#FF867F" points="95.52,44.622 95.52,44.723 95.52,51.097 96.053,51.097 96.202,51.097 96.329,51.097 96.329,44.622 
			"/>
	<path fill="#FF867F" d="M98.729,51.704c0.057,0,0.129-0.051,0.129-0.105v-7.584c0-0.055-0.072-0.101-0.129-0.101h-2.527
		c-0.055,0-0.075,0.022-0.075,0.051v0.151v0.506c0,0.055,0.02,0.102,0.075,0.102h1.718c0.057,0,0.129,0.044,0.129,0.099v5.967
		c0,0.055-0.072,0.104-0.129,0.104h-1.718c-0.055,0-0.075,0.019-0.075,0.047v0.152v0.506c0,0.054,0.02,0.105,0.075,0.105H98.729z"/>
	<polygon fill="#FF867F" points="99.869,44.622 99.869,44.723 99.869,51.097 100.549,51.097 100.68,51.097 100.68,44.622 	"/>
	<path fill="#FF867F" d="M100.578,51.7v-0.81c1.113,0,1.889-1.383,1.889-3.084c0-1.7-0.775-3.084-1.889-3.084v-0.808
		c1.518,0,2.697,1.746,2.697,3.892C103.275,49.953,102.096,51.7,100.578,51.7"/>
	<path fill="#FF867F" d="M92.182,49.212v1.115v0.36c0,0.605,0.387,1.017,0.998,1.017h0.172h0.496h0.584
		c0.029,0,0.076-0.051,0.076-0.105v-0.608c0-0.054-0.07-0.096-0.127-0.096h-0.58h-0.297h-0.183c-0.262,0-0.33-0.112-0.33-0.411
		v-0.177v-0.974v-0.594c0-0.609-0.248-0.834-0.551-0.945c0.303-0.109,0.551-0.334,0.551-0.943v-0.422v-1.07v-0.253
		c0-0.294,0.058-0.382,0.33-0.382h0.228h0.289h0.594c0.029,0,0.076-0.047,0.076-0.102v-0.607c0-0.055-0.07-0.101-0.127-0.101h-0.486
		h-0.457H93.18c-0.611,0-0.998,0.397-0.998,0.989v0.317v1.323c0,0-0.021,0.304-0.035,0.407c-0.039,0.274-0.373,0.508-0.582,0.505
		h-0.317c-0.056,0-0.078,0.043-0.078,0.099v0.607c0,0.055,0.022,0.104,0.078,0.104h0.289c0.266-0.004,0.6,0.218,0.625,0.552
		C92.169,48.913,92.182,49.212,92.182,49.212"/>
	<path fill="#FF867F" d="M96.201,43.914h-0.287h-0.318c-0.057,0-0.077,0.046-0.077,0.101v0.187v0.42v0.102h0.077h0.605h0.127v-0.102
		v-0.607v-0.101H96.201z"/>
	<path fill="#FF867F" d="M95.52,50.991v0.287v0.32c0,0.055,0.02,0.106,0.076,0.106h0.186h0.42h0.127v-0.106v-0.607v-0.097h-0.127
		h-0.606H95.52V50.991z"/>
	<path fill="#FF867F" d="M100.549,43.914h-0.285h-0.32c-0.057,0-0.074,0.046-0.074,0.101v0.187v0.42v0.102h0.074h0.605h0.131v-0.102
		v-0.607v-0.101H100.549z"/>
	<path fill="#FF867F" d="M99.869,50.991v0.287v0.32c0,0.055,0.018,0.106,0.074,0.106h0.186h0.42h0.131v-0.106v-0.607v-0.097h-0.131
		h-0.605h-0.074V50.991z"/>
	<path fill="#FF867F" d="M104.928,49.212v1.115v0.36c0,0.605,0.381,1.017,0.992,1.017h0.172h0.496h0.584
		c0.026,0,0.082-0.051,0.082-0.105v-0.608c0-0.054-0.076-0.096-0.133-0.096h-0.58h-0.297h-0.184c-0.262,0-0.324-0.112-0.324-0.411
		v-0.177v-0.974v-0.594c0-0.195-0.057-0.373-0.102-0.474h-1.357c0.373,0.101,0.531,0.234,0.609,0.558
		C104.924,48.985,104.928,49.212,104.928,49.212"/>
	<path fill="#FF867F" d="M104.871,46.95c-0.078,0.265-0.254,0.403-0.566,0.505h1.275c0.078-0.202,0.156-0.337,0.156-0.606v-0.42
		v-1.07v-0.254c0-0.294,0.053-0.382,0.324-0.382h0.229h0.289h0.594c0.027,0,0.082-0.046,0.082-0.101v-0.608
		c0-0.054-0.076-0.1-0.133-0.1h-0.486h-0.457h-0.258c-0.612,0-0.992,0.396-0.992,0.989v0.317v1.323
		C104.928,46.543,104.91,46.817,104.871,46.95"/>
	<path fill="#FF867F" d="M105.068,47.866c0.205,0.074,0.428,0.195,0.566,0.398h1.486c0.057,0,0.133-0.048,0.133-0.103v-0.607
		c0-0.056-0.076-0.1-0.133-0.1h-1.541C105.479,47.657,105.236,47.804,105.068,47.866"/>
	<path fill="#FF867F" d="M103.986,47.455c-0.055,0-0.07,0.044-0.07,0.099v0.607c0,0.055,0.016,0.104,0.07,0.104h0.291h1.357
		c-0.092-0.204-0.316-0.342-0.479-0.405c0.168-0.062,0.322-0.203,0.424-0.405h-1.275H103.986z"/>
</g>
</svg>
