<?xml version="1.0" encoding="utf-8"?>
<!-- Generator: Adobe Illustrator 16.0.4, SVG Export Plug-In . SVG Version: 6.00 Build 0)  -->
<!DOCTYPE svg PUBLIC "-//W3C//DTD SVG 1.1//EN" "http://www.w3.org/Graphics/SVG/1.1/DTD/svg11.dtd">
<svg version="1.1" id="Ebene_1" xmlns="http://www.w3.org/2000/svg" xmlns:xlink="http://www.w3.org/1999/xlink" x="0px" y="0px"
	 width="198.425px" height="198.425px" viewBox="0 0 198.425 198.425" enable-background="new 0 0 198.425 198.425"
	 xml:space="preserve">
<polygon fill="#9ECBC8" points="161.712,135.213 99.212,171.213 36.712,135.213 36.712,63.212 99.212,27.212 161.712,63.212 "/>
<polygon fill="none" stroke="#FFFFFF" stroke-width="2" stroke-miterlimit="10" points="157.712,133.045 99.212,166.879 
	40.712,133.045 40.712,65.379 99.212,31.545 157.712,65.379 "/>
<rect x="80.925" y="140.5" fill="#9ECBC8" width="37" height="12"/>
<rect x="80.925" y="140.5" fill="none" stroke="#FFFFFF" stroke-miterlimit="10" width="37" height="12"/>
<polygon fill="#FFFFFF" points="85.452,142.873 85.452,148.829 88.472,148.829 88.472,149.869 84.352,149.869 84.352,142.873 "/>
<g>
	<path fill="#FFFFFF" d="M93.761,147.64h-3.569c0,0.739,0.43,1.39,1.25,1.39c0.54,0,1.059-0.3,1.319-0.85l0.89,0.35
		c-0.49,0.949-1.06,1.42-2.209,1.42c-1.66,0-2.349-1.4-2.349-2.6s0.689-2.598,2.349-2.598c1.61,0,2.319,1.309,2.319,2.438V147.64z
		 M90.212,146.771h2.449c-0.09-0.56-0.469-1.1-1.219-1.1C90.753,145.671,90.323,146.141,90.212,146.771"/>
	<path fill="#FFFFFF" d="M95.452,142.683c0.41,0,0.721,0.329,0.721,0.729s-0.311,0.709-0.721,0.709
		c-0.408,0-0.719-0.309-0.719-0.709S95.044,142.683,95.452,142.683 M95.974,149.869h-1.041v-5.037h1.041V149.869z"/>
	<path fill="#FFFFFF" d="M99.763,149.949c-0.621,0-1.119-0.311-1.35-0.641v2.6h-1.039v-7.076h1.039v0.579
		c0.17-0.29,0.709-0.659,1.37-0.659c1.488,0,2.248,0.988,2.248,2.598C102.03,148.909,101.271,149.949,99.763,149.949
		 M99.642,145.671c-0.748,0-1.289,0.64-1.289,1.679c0,1.04,0.541,1.68,1.289,1.68c0.75,0,1.289-0.64,1.289-1.68
		C100.931,146.311,100.392,145.671,99.642,145.671"/>
	<polygon fill="#FFFFFF" points="102.884,144.832 106.351,144.832 106.351,145.251 104.083,148.949 106.462,148.949 
		106.462,149.869 102.733,149.869 102.733,149.449 105.003,145.751 102.884,145.751 	"/>
	<path fill="#FFFFFF" d="M108.212,142.683c0.41,0,0.721,0.329,0.721,0.729s-0.311,0.709-0.721,0.709
		c-0.408,0-0.719-0.309-0.719-0.709S107.804,142.683,108.212,142.683 M108.733,149.869h-1.041v-5.037h1.041V149.869z"/>
	<path fill="#FFFFFF" d="M111.952,144.752c0.34,0,0.65,0.08,0.92,0.219l0.93-0.499l0.42,0.749l-0.68,0.381
		c0.139,0.239,0.219,0.52,0.219,0.839c0,1.06-0.789,1.688-1.809,1.688c-0.301,0-0.58-0.058-0.812-0.149
		c-0.179,0.101-0.269,0.25-0.269,0.44c0,0.27,0.17,0.389,0.519,0.389h1.11c0.99,0,1.67,0.49,1.67,1.439c0,1.25-1.08,1.74-2.209,1.74
		c-1.27,0-2.219-0.561-2.219-1.66c0-0.43,0.17-0.779,0.43-1.02c-0.18-0.18-0.289-0.439-0.289-0.789c0-0.448,0.238-0.81,0.609-1.02
		c-0.221-0.27-0.34-0.63-0.34-1.06C110.153,145.391,110.932,144.752,111.952,144.752 M111.472,149.689
		c-0.18,0-0.35-0.011-0.51-0.031c-0.148,0.16-0.219,0.351-0.219,0.61c0,0.499,0.449,0.819,1.219,0.819c0.719,0,1.15-0.27,1.15-0.76
		c0-0.479-0.34-0.639-0.83-0.639H111.472z M111.952,147.26c0.469,0,0.799-0.319,0.799-0.819c0-0.499-0.33-0.819-0.799-0.819
		c-0.459,0-0.789,0.32-0.789,0.819C111.163,146.94,111.493,147.26,111.952,147.26"/>
	<path fill="none" stroke="#FFFFFF" stroke-width="2" stroke-miterlimit="10" d="M85.013,90.051c0,5.389,5.412,5.421,5.412,5.421V90
		L85.013,90.051z"/>
	<path fill="none" stroke="#FFFFFF" stroke-width="2" stroke-miterlimit="10" d="M112.837,90.051c0,5.389-5.412,5.421-5.412,5.421
		V90L112.837,90.051z"/>
	<line fill="none" stroke="#FFFFFF" stroke-width="2" stroke-miterlimit="10" x1="99.425" y1="108" x2="99.425" y2="115"/>
	<path fill="none" stroke="#FFFFFF" stroke-width="2" stroke-miterlimit="10" d="M99.212,114.646c0,3.927,11.533,4.604,11.533-1.202
		"/>
	<path fill="none" stroke="#FFFFFF" stroke-width="2" stroke-miterlimit="10" d="M99.212,114.646c0,3.783-11.533,5.104-11.533-1.202
		"/>
	<path fill="none" stroke="#FFFFFF" stroke-width="2" stroke-miterlimit="10" d="M107.743,99.866c0,4.711-3.818,8.531-8.529,8.531
		c-4.71,0-8.532-3.82-8.532-8.531"/>
	<path fill="none" stroke="#FFFFFF" stroke-width="2" stroke-miterlimit="10" d="M106.603,103.8l-2.627-2.728
		c-1.389,0.981-2.935,1.557-4.762,1.557c-1.843,0-3.549-0.583-4.945-1.577l-2.625,2.748"/>
	<path fill="none" stroke="#FFFFFF" stroke-width="2" stroke-miterlimit="10" d="M81.956,73.155
		c-0.002-2.487-2.018-4.502-4.504-4.502s-4.502,2.015-4.502,4.501c0,2.487,2.016,4.503,4.502,4.503"/>
	<path fill="none" stroke="#FFFFFF" stroke-width="2" stroke-miterlimit="10" d="M116.782,73.155c0-2.487,2.016-4.502,4.502-4.502
		s4.502,2.015,4.502,4.501c0,2.487-2.016,4.503-4.502,4.503"/>
	<polyline fill="none" stroke="#FFFFFF" stroke-width="2" stroke-miterlimit="10" points="84.556,67.187 85.499,62.26 
		91.267,67.187 93.55,57.484 98.956,64.903 104.38,57.484 106.663,67.141 112.431,62.237 113.374,67.174 	"/>
	<path fill="none" stroke="#FFFFFF" stroke-width="2" stroke-miterlimit="10" d="M128.204,78.493
		c0.115-0.143,8.018,22.845,8.018,22.845l-14.092-5.979l7.299,25.775l-12.076-5.369l-1.922,16.928l-7.811-4.831l-8.195,11.027
		l-8.621-11.027l-7.809,4.861l-1.924-16.944l-12.074,5.362l5.406-25.782l-12.199,5.982c0,0,7.902-22.991,8.016-22.847"/>
	<path fill="none" stroke="#FFFFFF" stroke-width="2" stroke-miterlimit="10" d="M93.095,123.477c3.381,3.382,8.854,3.381,12.234,0"
		/>
	<path fill="none" stroke="#FFFFFF" stroke-width="2" stroke-miterlimit="10" d="M77.165,81.923c-5.076,0-9.191-4.115-9.191-9.192
		c0-5.077,4.115-9.192,9.191-9.192s9.191,4.115,9.191,9.192l0.313,6.197C90.05,75.547,95.522,75,98.903,79
		c3.379-4,9.153-3.526,12.533-0.143l0.37-6.126c0-5.077,4.115-9.192,9.191-9.192s9.19,4.115,9.19,9.192
		c0,5.077-4.114,9.192-9.19,9.192"/>
	<line fill="none" stroke="#FFFFFF" stroke-width="2" stroke-miterlimit="10" x1="82.729" y1="101.426" x2="76.805" y2="105.56"/>
	<line fill="none" stroke="#FFFFFF" stroke-width="2" stroke-miterlimit="10" x1="85.013" y1="104.334" x2="81.036" y2="110.5"/>
	<line fill="none" stroke="#FFFFFF" stroke-width="2" stroke-miterlimit="10" x1="114.09" y1="101.426" x2="120.014" y2="105.56"/>
	<line fill="none" stroke="#FFFFFF" stroke-width="2" stroke-miterlimit="10" x1="111.806" y1="104.334" x2="115.782" y2="110.5"/>
	<polyline fill="none" stroke="#FFFFFF" stroke-width="2" stroke-miterlimit="10" points="55.815,111.5 66.952,105.56 
		62.334,130.333 77.424,123.477 78.087,136.037 	"/>
	<polyline fill="none" stroke="#FFFFFF" stroke-width="2" stroke-miterlimit="10" points="143.089,111.5 131.952,105.56 
		136.57,130.333 121.479,123.477 120.816,136.037 	"/>
	<path fill="#FFFFFF" d="M97.04,50.332c-0.186-0.121-0.322-0.162-0.484-0.162c-0.289,0-0.446,0.18-0.446,0.569v0.198h1.176v0.456
		H96.11v2.566h-0.502v-2.566h-0.851v-0.456h0.851v-0.185c0-0.732,0.354-1.038,0.928-1.038c0.277,0,0.463,0.071,0.631,0.174
		L97.04,50.332z"/>
	<path fill="#FFFFFF" d="M99.466,50.889c0.922,0,1.486,0.726,1.486,1.559s-0.564,1.56-1.486,1.56c-0.924,0-1.488-0.727-1.488-1.56
		S98.542,50.889,99.466,50.889 M99.466,53.552c0.617,0,0.971-0.522,0.971-1.104c0-0.581-0.354-1.103-0.971-1.103
		c-0.619,0-0.973,0.522-0.973,1.103C98.493,53.03,98.847,53.552,99.466,53.552"/>
	<path fill="#FFFFFF" d="M103.874,51.896c-0.041-0.348-0.223-0.552-0.582-0.552c-0.527,0-1.025,0.498-1.025,1.524v1.091h-0.504
		v-3.022h0.504v0.557c0.234-0.366,0.611-0.606,1.115-0.606c0.6,0,0.961,0.361,0.996,1.008H103.874z"/>
	<polygon fill="#FFFFFF" points="95.521,40.766 95.521,40.867 95.521,47.241 96.054,47.241 96.203,47.241 96.33,47.241 
		96.33,40.766 	"/>
	<path fill="#FFFFFF" d="M98.729,47.848c0.057,0,0.129-0.051,0.129-0.105v-7.584c0-0.055-0.072-0.101-0.129-0.101h-2.527
		c-0.055,0-0.075,0.022-0.075,0.051v0.151v0.506c0,0.055,0.02,0.102,0.075,0.102h1.718c0.057,0,0.129,0.044,0.129,0.099v5.967
		c0,0.055-0.072,0.104-0.129,0.104h-1.718c-0.055,0-0.075,0.019-0.075,0.047v0.152v0.506c0,0.054,0.02,0.105,0.075,0.105H98.729z"/>
	<polygon fill="#FFFFFF" points="99.87,40.766 99.87,40.867 99.87,47.241 100.55,47.241 100.681,47.241 100.681,40.766 	"/>
	<path fill="#FFFFFF" d="M100.579,47.844v-0.81c1.113,0,1.889-1.383,1.889-3.084c0-1.7-0.775-3.084-1.889-3.084v-0.808
		c1.518,0,2.697,1.746,2.697,3.892C103.276,46.097,102.097,47.844,100.579,47.844"/>
	<path fill="#FFFFFF" d="M92.183,45.355v1.115v0.36c0,0.605,0.387,1.017,0.998,1.017h0.172h0.496h0.584
		c0.029,0,0.076-0.051,0.076-0.105v-0.608c0-0.054-0.07-0.096-0.127-0.096h-0.58h-0.297h-0.183c-0.262,0-0.33-0.112-0.33-0.411
		v-0.177v-0.974v-0.594c0-0.609-0.248-0.834-0.551-0.945c0.303-0.109,0.551-0.334,0.551-0.943v-0.422v-1.07V41.25
		c0-0.294,0.058-0.382,0.33-0.382h0.228h0.289h0.594c0.029,0,0.076-0.047,0.076-0.102v-0.607c0-0.055-0.07-0.101-0.127-0.101h-0.486
		h-0.457h-0.258c-0.611,0-0.998,0.397-0.998,0.989v0.317v1.323c0,0-0.021,0.304-0.035,0.407c-0.039,0.274-0.373,0.508-0.582,0.505
		h-0.317c-0.056,0-0.078,0.043-0.078,0.099v0.607c0,0.055,0.022,0.104,0.078,0.104h0.289c0.266-0.004,0.6,0.218,0.625,0.552
		C92.17,45.057,92.183,45.355,92.183,45.355"/>
	<path fill="#FFFFFF" d="M96.202,40.058h-0.287h-0.318c-0.057,0-0.077,0.046-0.077,0.101v0.187v0.42v0.102h0.077h0.605h0.127v-0.102
		v-0.607v-0.101H96.202z"/>
	<path fill="#FFFFFF" d="M95.521,47.135v0.287v0.32c0,0.055,0.02,0.106,0.076,0.106h0.186h0.42h0.127v-0.106v-0.607v-0.097h-0.127
		h-0.606h-0.076V47.135z"/>
	<path fill="#FFFFFF" d="M100.55,40.058h-0.285h-0.32c-0.057,0-0.074,0.046-0.074,0.101v0.187v0.42v0.102h0.074h0.605h0.131v-0.102
		v-0.607v-0.101H100.55z"/>
	<path fill="#FFFFFF" d="M99.87,47.135v0.287v0.32c0,0.055,0.018,0.106,0.074,0.106h0.186h0.42h0.131v-0.106v-0.607v-0.097h-0.131
		h-0.605H99.87V47.135z"/>
	<path fill="#FFFFFF" d="M104.929,45.355v1.115v0.36c0,0.605,0.381,1.017,0.992,1.017h0.172h0.496h0.584
		c0.026,0,0.082-0.051,0.082-0.105v-0.608c0-0.054-0.076-0.096-0.133-0.096h-0.58h-0.297h-0.184c-0.262,0-0.324-0.112-0.324-0.411
		v-0.177v-0.974v-0.594c0-0.195-0.057-0.373-0.102-0.474h-1.357c0.373,0.101,0.531,0.234,0.609,0.558
		C104.925,45.128,104.929,45.355,104.929,45.355"/>
	<path fill="#FFFFFF" d="M104.872,43.094c-0.078,0.265-0.254,0.403-0.566,0.505h1.275c0.078-0.202,0.156-0.337,0.156-0.606v-0.42
		v-1.07v-0.254c0-0.294,0.053-0.382,0.324-0.382h0.229h0.289h0.594c0.027,0,0.082-0.046,0.082-0.101v-0.608
		c0-0.054-0.076-0.1-0.133-0.1h-0.486h-0.457h-0.258c-0.611,0-0.992,0.396-0.992,0.989v0.317v1.323
		C104.929,42.687,104.911,42.961,104.872,43.094"/>
	<path fill="#FFFFFF" d="M105.069,44.01c0.205,0.074,0.428,0.195,0.566,0.398h1.486c0.057,0,0.133-0.048,0.133-0.103v-0.607
		c0-0.056-0.076-0.1-0.133-0.1h-1.541C105.479,43.801,105.237,43.948,105.069,44.01"/>
	<path fill="#FFFFFF" d="M103.987,43.599c-0.055,0-0.07,0.044-0.07,0.099v0.607c0,0.055,0.016,0.104,0.07,0.104h0.291h1.357
		c-0.092-0.204-0.316-0.342-0.479-0.405c0.168-0.062,0.322-0.203,0.424-0.405h-1.275H103.987z"/>
</g>
</svg>
