<?xml version="1.0" encoding="utf-8"?>
<!-- Generator: Adobe Illustrator 16.0.4, SVG Export Plug-In . SVG Version: 6.00 Build 0)  -->
<!DOCTYPE svg PUBLIC "-//W3C//DTD SVG 1.1//EN" "http://www.w3.org/Graphics/SVG/1.1/DTD/svg11.dtd">
<svg version="1.1" id="Ebene_1" xmlns="http://www.w3.org/2000/svg" xmlns:xlink="http://www.w3.org/1999/xlink" x="0px" y="0px"
	 width="198.425px" height="198.425px" viewBox="0 0 198.425 198.425" enable-background="new 0 0 198.425 198.425"
	 xml:space="preserve">
<g>
	<g>
		<defs>
			<polygon id="SVGID_1_" points="161.713,135.213 99.213,171.213 36.713,135.213 36.713,63.212 99.213,27.212 161.713,63.212 			
				"/>
		</defs>
		<clipPath id="SVGID_2_">
			<use xlink:href="#SVGID_1_"  overflow="visible"/>
		</clipPath>
		<polygon clip-path="url(#SVGID_2_)" fill="#FF867F" points="33.878,136.852 33.878,61.574 99.212,23.94 164.548,61.574 
			164.548,136.852 99.212,174.484 		"/>
	</g>
	<polygon fill="none" stroke="#FFFFFF" stroke-width="2" stroke-miterlimit="10" points="157.713,133.045 99.212,166.879 
		40.712,133.045 40.712,65.378 99.212,31.545 157.713,65.378 	"/>
	<g>
		<path fill="none" stroke="#FFFFFF" stroke-width="2" stroke-miterlimit="10" d="M114.076,68.24
			c12.069,3.06,23.554,9.859,33.8,20.104c4.264,4.265,4.264,11.179,0,15.445c-2.133,2.133-4.928,3.199-7.723,3.199
			s-5.592-1.066-7.723-3.199c-10.183-10.182-21.651-15.563-33.166-15.563c-11.517,0-22.985,5.381-33.167,15.563
			c-4.264,4.266-11.179,4.266-15.445,0c-4.264-4.266-4.264-11.18,0-15.445c10.33-10.33,21.923-17.158,34.103-20.179"/>
		<path fill="none" stroke="#FFFFFF" stroke-width="2" stroke-miterlimit="10" d="M102.523,66.473
			c1.471,0.08,2.936,0.215,4.396,0.402"/>
		<path fill="none" stroke="#FFFFFF" stroke-width="2" stroke-miterlimit="10" d="M91.545,66.883c1.16-0.15,2.324-0.267,3.49-0.35"
			/>
		<path fill="none" stroke="#FFFFFF" stroke-width="2" stroke-miterlimit="10" d="M58.967,90.094
			c3.595-4.458,7.574-8.331,14.989-10.603"/>
		<path fill="none" stroke="#FFFFFF" stroke-width="2" stroke-miterlimit="10" d="M95.482,88v9.853c0,1.205-0.794,2.183-2,2.183
			s-2-0.978-2-2.183V89"/>
		<path fill="none" stroke="#FFFFFF" stroke-width="2" stroke-miterlimit="10" d="M106.482,89v8.853c0,1.205-0.794,2.183-2,2.183
			s-2-0.978-2-2.183V88"/>
		<polyline fill="none" stroke="#FFFFFF" stroke-width="2" stroke-miterlimit="10" points="95.482,76 95.482,58 102.482,58 
			102.482,76 		"/>
		<path fill="none" stroke="#FFFFFF" stroke-width="2" stroke-miterlimit="10" d="M84.482,76V61.482c0,0,0.425-2.429,3.136-3.578
			c1.718-0.728,3.864-0.728,3.864-0.728V76"/>
		<path fill="none" stroke="#FFFFFF" stroke-width="2" stroke-miterlimit="10" d="M113.482,76V61.482c0,0-0.815-2.226-3.136-3.578
			c-1.954-1.138-3.864-0.728-3.864-0.728V76"/>
		<path fill="none" stroke="#FFFFFF" stroke-width="2" stroke-miterlimit="10" d="M93.482,142v-19.393
			c0-4.375-2.739-6.294-5.319-8.014c-3.549-2.361-3.681-6.184-3.681-6.184V91.187"/>
		<path fill="none" stroke="#FFFFFF" stroke-width="2" stroke-miterlimit="10" d="M104.482,142v-19.393
			c0-4.375,2.738-6.294,5.318-8.014c3.55-2.361,3.682-6.184,3.682-6.184V90.964"/>
		<path fill="none" stroke="#FFFFFF" stroke-width="2" stroke-miterlimit="10" d="M148.597,104.029
			c2.857,1.775,4.559,4.555,4.283,7.568l-5.074-0.464c0.084-0.937-0.564-3.472-1.789-5.489"/>
		<path fill="none" stroke="#FFFFFF" stroke-width="2" stroke-miterlimit="10" d="M49.852,101.115
			c-2.855,1.777-4.559,4.557-4.281,7.568l5.074-0.464c-0.085-0.935-0.019-2.3,0.562-3.47"/>
		<path fill="#FFFFFF" d="M89.563,144.757c1.16,0,1.959,0.62,1.959,1.829c0,0.539-0.3,1.129-0.71,1.35
			c0.66,0.279,1.07,0.949,1.07,1.758c0,1.311-0.82,2.06-2.199,2.06h-2.599v-6.996H89.563z M88.184,145.797v1.719h1.279
			c0.62,0,0.96-0.29,0.96-0.859c0-0.57-0.34-0.859-0.96-0.859H88.184z M88.184,148.555v2.158h1.349c0.81,0,1.23-0.379,1.23-1.078
			c0-0.7-0.42-1.08-1.23-1.08H88.184z"/>
		<path fill="#FFFFFF" d="M97.472,149.523h-3.568c0,0.74,0.43,1.391,1.249,1.391c0.54,0,1.06-0.301,1.32-0.85l0.889,0.35
			c-0.489,0.949-1.059,1.419-2.209,1.419c-1.659,0-2.348-1.399-2.348-2.599s0.689-2.599,2.348-2.599c1.61,0,2.319,1.31,2.319,2.438
			V149.523z M93.924,148.654h2.449c-0.09-0.56-0.47-1.1-1.22-1.1C94.464,147.555,94.034,148.025,93.924,148.654"/>
		<path fill="#FFFFFF" d="M98.544,151.753v-5.037h1.04v0.839c0.35-0.6,0.949-0.919,1.489-0.919c0.271,0,0.49,0.06,0.64,0.12
			l-0.181,0.949c-0.159-0.1-0.379-0.15-0.589-0.15c-0.67,0-1.359,0.74-1.359,2.329v1.869H98.544z"/>
		<rect x="102.624" y="144.677" fill="#FFFFFF" width="1.04" height="7.076"/>
		<path fill="#FFFFFF" d="M105.494,144.566c0.41,0,0.72,0.33,0.72,0.73c0,0.399-0.31,0.709-0.72,0.709s-0.719-0.31-0.719-0.709
			C104.775,144.896,105.084,144.566,105.494,144.566 M106.014,151.753h-1.04v-5.037h1.04V151.753z"/>
		<path fill="#FFFFFF" d="M108.403,146.716v0.859c0.36-0.6,0.96-0.939,1.63-0.939c0.88,0,1.479,0.53,1.479,1.509v3.608h-1.039
			v-3.278c0-0.68-0.31-0.92-0.779-0.92c-0.649,0-1.29,0.77-1.29,2.159v2.039h-1.039v-5.037H108.403z"/>
		<line fill="none" stroke="#FFFFFF" stroke-width="2" stroke-miterlimit="10" x1="53.615" y1="65.797" x2="60.912" y2="72.681"/>
		<line fill="none" stroke="#FFFFFF" stroke-width="2" stroke-miterlimit="10" x1="62.338" y1="58.648" x2="67.748" y2="67.799"/>
		<line fill="none" stroke="#FFFFFF" stroke-width="2" stroke-miterlimit="10" x1="73.062" y1="54.02" x2="75.125" y2="63.834"/>
		<line fill="none" stroke="#FFFFFF" stroke-width="2" stroke-miterlimit="10" x1="124.854" y1="56.277" x2="122.562" y2="66.043"/>
		<line fill="none" stroke="#FFFFFF" stroke-width="2" stroke-miterlimit="10" x1="135.415" y1="60.232" x2="130.218" y2="69.505"/>
		<line fill="none" stroke="#FFFFFF" stroke-width="2" stroke-miterlimit="10" x1="144.802" y1="67.183" x2="137.349" y2="73.895"/>
		<line fill="none" stroke="#FFFFFF" stroke-width="2" stroke-miterlimit="10" x1="93.482" y1="155" x2="93.482" y2="164"/>
		<line fill="none" stroke="#FFFFFF" stroke-width="2" stroke-miterlimit="10" x1="104.482" y1="155" x2="104.482" y2="164"/>
		<polyline fill="none" stroke="#FFFFFF" stroke-width="2" stroke-linecap="square" stroke-miterlimit="10" points="40.724,128.176 
			48.915,128.176 48.915,120.008 58.775,120.008 58.775,114.062 82.197,114.062 82.197,125.482 86.953,125.482 92.937,131.551 		"/>
		
			<line fill="none" stroke="#FFFFFF" stroke-width="2" stroke-linecap="square" stroke-miterlimit="10" x1="58.785" y1="120.826" x2="58.785" y2="142.317"/>
		
			<line fill="none" stroke="#FFFFFF" stroke-width="2" stroke-linecap="square" stroke-miterlimit="10" x1="63.482" y1="122" x2="76.482" y2="122"/>
		
			<line fill="none" stroke="#FFFFFF" stroke-width="2" stroke-linecap="square" stroke-miterlimit="10" x1="63.482" y1="127" x2="76.482" y2="127"/>
		
			<line fill="none" stroke="#FFFFFF" stroke-width="2" stroke-linecap="square" stroke-miterlimit="10" x1="63.482" y1="132" x2="76.482" y2="132"/>
		
			<line fill="none" stroke="#FFFFFF" stroke-width="2" stroke-linecap="square" stroke-miterlimit="10" x1="63.482" y1="137" x2="76.482" y2="137"/>
		<polyline fill="none" stroke="#FFFFFF" stroke-width="2" stroke-linecap="square" stroke-miterlimit="10" points="
			157.277,128.176 149.744,128.176 149.744,120.008 139.885,120.008 139.885,114.062 116.462,114.062 116.462,125.482 
			111.706,125.482 105.725,131.551 		"/>
		
			<line fill="none" stroke="#FFFFFF" stroke-width="2" stroke-linecap="square" stroke-miterlimit="10" x1="139.875" y1="120.826" x2="139.875" y2="142.317"/>
		
			<line fill="none" stroke="#FFFFFF" stroke-width="2" stroke-linecap="square" stroke-miterlimit="10" x1="134.482" y1="122" x2="121.482" y2="122"/>
		
			<line fill="none" stroke="#FFFFFF" stroke-width="2" stroke-linecap="square" stroke-miterlimit="10" x1="134.482" y1="127" x2="121.482" y2="127"/>
		
			<line fill="none" stroke="#FFFFFF" stroke-width="2" stroke-linecap="square" stroke-miterlimit="10" x1="134.482" y1="132" x2="121.482" y2="132"/>
		
			<line fill="none" stroke="#FFFFFF" stroke-width="2" stroke-linecap="square" stroke-miterlimit="10" x1="134.482" y1="137" x2="121.482" y2="137"/>
		<rect x="83.982" y="142.5" fill="none" stroke="#FFFFFF" stroke-miterlimit="10" width="30" height="12"/>
		<path fill="#FFFFFF" d="M97.041,49.516c-0.186-0.12-0.324-0.162-0.486-0.162c-0.287,0-0.444,0.18-0.444,0.57v0.197h1.176v0.457
			H96.11v2.566h-0.503v-2.566h-0.852v-0.457h0.852v-0.185c0-0.732,0.353-1.038,0.929-1.038c0.276,0,0.462,0.072,0.63,0.174
			L97.041,49.516z"/>
		<path fill="#FFFFFF" d="M99.465,50.073c0.923,0,1.487,0.726,1.487,1.559c0,0.834-0.564,1.56-1.487,1.56s-1.487-0.726-1.487-1.56
			C97.978,50.799,98.542,50.073,99.465,50.073 M99.465,52.736c0.618,0,0.972-0.522,0.972-1.104c0-0.581-0.354-1.103-0.972-1.103
			s-0.971,0.522-0.971,1.103C98.494,52.214,98.847,52.736,99.465,52.736"/>
		<path fill="#FFFFFF" d="M103.874,51.081c-0.042-0.348-0.222-0.552-0.582-0.552c-0.527,0-1.025,0.498-1.025,1.524v1.091h-0.504
			v-3.022h0.504v0.557c0.233-0.366,0.611-0.605,1.115-0.605c0.601,0,0.96,0.36,0.995,1.007H103.874z"/>
		<polygon fill="#FFFFFF" points="95.521,39.951 95.521,40.051 95.521,46.426 96.053,46.426 96.203,46.426 96.33,46.426 
			96.33,39.951 		"/>
		<path fill="#FFFFFF" d="M98.729,47.032c0.056,0,0.129-0.05,0.129-0.105v-7.584c0-0.056-0.073-0.101-0.129-0.101h-2.527
			c-0.056,0-0.076,0.023-0.076,0.051v0.151v0.505c0,0.056,0.02,0.103,0.076,0.103h1.718c0.056,0,0.129,0.044,0.129,0.1v5.965
			c0,0.056-0.073,0.105-0.129,0.105h-1.718c-0.056,0-0.076,0.019-0.076,0.047v0.152v0.506c0,0.055,0.02,0.105,0.076,0.105H98.729z"
			/>
		<polygon fill="#FFFFFF" points="99.87,39.951 99.87,40.051 99.87,46.426 100.55,46.426 100.68,46.426 100.68,39.951 		"/>
		<path fill="#FFFFFF" d="M100.578,47.028v-0.809c1.113,0,1.89-1.383,1.89-3.084c0-1.7-0.776-3.084-1.89-3.084v-0.809
			c1.519,0,2.698,1.746,2.698,3.893C103.276,45.281,102.097,47.028,100.578,47.028"/>
		<path fill="#FFFFFF" d="M92.182,44.541v1.115v0.359c0,0.605,0.388,1.018,0.999,1.018h0.172h0.496h0.584
			c0.028,0,0.075-0.051,0.075-0.106v-0.607c0-0.055-0.07-0.097-0.126-0.097h-0.581h-0.297h-0.183c-0.261,0-0.329-0.111-0.329-0.41
			v-0.178v-0.973v-0.594c0-0.61-0.248-0.835-0.551-0.945c0.303-0.11,0.551-0.335,0.551-0.944v-0.422v-1.069v-0.254
			c0-0.294,0.058-0.382,0.329-0.382h0.228h0.29h0.594c0.028,0,0.075-0.046,0.075-0.101v-0.607c0-0.056-0.07-0.101-0.126-0.101
			h-0.486h-0.458h-0.257c-0.611,0-0.999,0.396-0.999,0.988v0.318v1.323c0,0-0.021,0.303-0.035,0.407
			c-0.038,0.273-0.373,0.508-0.581,0.505h-0.318c-0.056,0-0.078,0.043-0.078,0.099v0.607c0,0.055,0.022,0.103,0.078,0.103h0.29
			c0.265-0.004,0.6,0.219,0.625,0.552C92.17,44.242,92.182,44.541,92.182,44.541"/>
		<path fill="#FFFFFF" d="M96.202,39.242h-0.287h-0.319c-0.057,0-0.077,0.046-0.077,0.101v0.187v0.42v0.102h0.077h0.606h0.127V39.95
			v-0.607v-0.101H96.202z"/>
		<path fill="#FFFFFF" d="M95.521,46.32v0.287v0.32c0,0.055,0.019,0.105,0.075,0.105h0.187h0.42h0.127v-0.105V46.32v-0.097h-0.127
			h-0.607h-0.075V46.32z"/>
		<path fill="#FFFFFF" d="M100.55,39.242h-0.286h-0.32c-0.057,0-0.073,0.046-0.073,0.101v0.187v0.42v0.102h0.073h0.606h0.13V39.95
			v-0.607v-0.101H100.55z"/>
		<path fill="#FFFFFF" d="M99.87,46.32v0.287v0.32c0,0.055,0.017,0.105,0.073,0.105h0.187h0.42h0.13v-0.105V46.32v-0.097h-0.13
			h-0.606H99.87V46.32z"/>
		<path fill="#FFFFFF" d="M104.929,44.541v1.115v0.359c0,0.605,0.38,1.018,0.992,1.018h0.172h0.495h0.584
			c0.027,0,0.083-0.051,0.083-0.106v-0.607c0-0.055-0.077-0.097-0.133-0.097h-0.581h-0.297h-0.184c-0.262,0-0.323-0.111-0.323-0.41
			v-0.178v-0.973v-0.594c0-0.196-0.057-0.374-0.102-0.475h-1.358c0.373,0.101,0.532,0.235,0.609,0.559
			C104.925,44.313,104.929,44.541,104.929,44.541"/>
		<path fill="#FFFFFF" d="M104.871,42.278c-0.078,0.265-0.254,0.404-0.565,0.505h1.274c0.078-0.202,0.157-0.337,0.157-0.605v-0.421
			v-1.069v-0.254c0-0.295,0.052-0.382,0.323-0.382h0.229h0.289h0.594c0.028,0,0.083-0.046,0.083-0.102v-0.607
			c0-0.055-0.077-0.101-0.133-0.101h-0.486h-0.458h-0.257c-0.613,0-0.992,0.397-0.992,0.989v0.318v1.322
			C104.929,41.871,104.91,42.146,104.871,42.278"/>
		<path fill="#FFFFFF" d="M105.068,43.194c0.205,0.075,0.429,0.196,0.567,0.398h1.486c0.056,0,0.134-0.047,0.134-0.103v-0.607
			c0-0.056-0.078-0.099-0.134-0.099h-1.542C105.479,42.986,105.237,43.132,105.068,43.194"/>
		<path fill="#FFFFFF" d="M103.987,42.783c-0.056,0-0.07,0.043-0.07,0.099v0.607c0,0.055,0.015,0.104,0.07,0.104h0.29h1.358
			c-0.092-0.203-0.317-0.342-0.479-0.405c0.169-0.062,0.322-0.203,0.424-0.405h-1.274H103.987z"/>
	</g>
</g>
</svg>
