<?xml version="1.0" encoding="utf-8"?>
<!-- Generator: Adobe Illustrator 19.2.1, SVG Export Plug-In . SVG Version: 6.00 Build 0)  -->
<svg version="1.1" id="Ebene_1" xmlns="http://www.w3.org/2000/svg" xmlns:xlink="http://www.w3.org/1999/xlink" x="0px" y="0px"
	 viewBox="0 0 824.1 949.4" style="enable-background:new 0 0 824.1 949.4;" xml:space="preserve">
<style type="text/css">
	.st0{fill:#FFFFFF;}
	.st1{fill:#339999;}
</style>
<g>
	<polygon class="st0" points="412.6,934.6 16.4,706.9 15.4,249.9 410.7,20.5 807,248.2 807.9,705.2 	"/>
	<g>
		<path class="st1" d="M412.1,949.4L0,712.1V237.3L412.1,0l412.1,237.3v474.8L412.1,949.4z M31.7,693.8l380.4,219.1l380.4-219.1
			V255.7L412.1,36.6L31.7,255.7V693.8z"/>
	</g>
	<g>
		<g>
			<path class="st1" d="M396.8,227.6c-1.3-0.8-2.3-1.1-3.4-1.1c-2,0-3.1,1.3-3.1,4v1.4h8.2v3.2h-8.2v18h-3.5v-18h-6v-3.2h6v-1.3
				c0-5.1,2.5-7.3,6.5-7.3c1.9,0,3.2,0.5,4.4,1.2L396.8,227.6z"/>
			<path class="st1" d="M413.8,231.5c6.5,0,10.4,5.1,10.4,10.9s-3.9,10.9-10.4,10.9c-6.5,0-10.4-5.1-10.4-10.9
				S407.4,231.5,413.8,231.5z M413.8,250.1c4.3,0,6.8-3.7,6.8-7.7c0-4.1-2.5-7.7-6.8-7.7c-4.3,0-6.8,3.7-6.8,7.7
				C407,246.5,409.5,250.1,413.8,250.1z"/>
			<path class="st1" d="M444.7,238.5c-0.3-2.4-1.6-3.9-4.1-3.9c-3.7,0-7.2,3.5-7.2,10.7v7.6h-3.5v-21.2h3.5v3.9
				c1.6-2.6,4.3-4.2,7.8-4.2c4.2,0,6.7,2.5,7,7.1H444.7z"/>
		</g>
		<g>
			<polygon class="st1" points="386.2,160.6 386.2,161.3 386.2,205.9 389.9,205.9 391,205.9 391.9,205.9 391.9,160.6 			"/>
			<g>
				<path class="st1" d="M408.7,210.2c0.4,0,0.9-0.4,0.9-0.7v-53.1c0-0.4-0.5-0.7-0.9-0.7H391c-0.4,0-0.5,0.2-0.5,0.4v1.1v3.5
					c0,0.4,0.1,0.7,0.5,0.7h12c0.4,0,0.9,0.3,0.9,0.7v41.8c0,0.4-0.5,0.7-0.9,0.7h-12c-0.4,0-0.5,0.1-0.5,0.3v1.1v3.5
					c0,0.4,0.1,0.7,0.5,0.7H408.7z"/>
			</g>
			<polygon class="st1" points="416.7,160.6 416.7,161.3 416.7,205.9 421.4,205.9 422.3,205.9 422.3,160.6 			"/>
			<g>
				<path class="st1" d="M421.6,210.2v-5.7c7.8,0,13.2-9.7,13.2-21.6c0-11.9-5.4-21.6-13.2-21.6v-5.7c10.6,0,18.9,12.2,18.9,27.2
					C440.5,197.9,432.2,210.2,421.6,210.2"/>
				<path class="st1" d="M362.8,192.7v7.8v2.5c0,4.2,2.7,7.1,7,7.1h1.2h3.5h4.1c0.2,0,0.5-0.4,0.5-0.7v-4.2c0-0.4-0.5-0.7-0.9-0.7
					h-4.1h-2.1h-1.3c-1.8,0-2.3-0.8-2.3-2.9v-1.2v-6.8v-4.2c0-4.3-1.7-5.8-3.9-6.6c2.1-0.8,3.9-2.3,3.9-6.6v-2.9v-7.5V164
					c0-2.1,0.4-2.7,2.3-2.7h1.6h2h4.2c0.2,0,0.5-0.3,0.5-0.7v-4.2c0-0.4-0.5-0.7-0.9-0.7h-3.4h-3.2h-1.8c-4.3,0-7,2.8-7,6.9v2.2v9.3
					c0,0-0.2,2.1-0.2,2.8c-0.3,1.9-2.6,3.6-4.1,3.5h-2.2c-0.4,0-0.5,0.3-0.5,0.7v4.2c0,0.4,0.2,0.7,0.5,0.7h2c1.9,0,4.2,1.5,4.4,3.9
					C362.8,190.7,362.8,192.7,362.8,192.7"/>
				<path class="st1" d="M391,155.7h-2h-2.2c-0.4,0-0.5,0.3-0.5,0.7v1.3v2.9v0.7h0.5h4.2h0.9v-0.7v-4.2v-0.7H391z"/>
				<path class="st1" d="M386.2,205.2v2v2.2c0,0.4,0.1,0.7,0.5,0.7h1.3h2.9h0.9v-0.7v-4.2v-0.7H391h-4.2h-0.5V205.2z"/>
				<path class="st1" d="M421.4,155.7h-2h-2.2c-0.4,0-0.5,0.3-0.5,0.7v1.3v2.9v0.7h0.5h4.2h0.9v-0.7v-4.2v-0.7H421.4z"/>
				<path class="st1" d="M416.7,205.2v2v2.2c0,0.4,0.1,0.7,0.5,0.7h1.3h2.9h0.9v-0.7v-4.2v-0.7h-0.9h-4.2h-0.5V205.2z"/>
				<path class="st1" d="M452.1,192.7v7.8v2.5c0,4.2,2.7,7.1,6.9,7.1h1.2h3.5h4.1c0.2,0,0.6-0.4,0.6-0.7v-4.2c0-0.4-0.5-0.7-0.9-0.7
					h-4.1h-2.1H460c-1.8,0-2.3-0.8-2.3-2.9v-1.2v-6.8v-4.2c0-1.4-0.4-2.6-0.7-3.3h-9.5c2.6,0.7,3.7,1.6,4.3,3.9
					C452,191.2,452.1,192.7,452.1,192.7"/>
				<path class="st1" d="M451.7,176.9c-0.5,1.9-1.8,2.8-4,3.5h8.9c0.5-1.4,1.1-2.4,1.1-4.2v-2.9v-7.5V164c0-2.1,0.4-2.7,2.3-2.7h1.6
					h2h4.2c0.2,0,0.6-0.3,0.6-0.7v-4.2c0-0.4-0.5-0.7-0.9-0.7H464h-3.2H459c-4.3,0-6.9,2.8-6.9,6.9v2.2v9.3
					C452.1,174.1,451.9,176,451.7,176.9"/>
				<path class="st1" d="M453,183.3c1.4,0.5,3,1.4,4,2.8h10.4c0.4,0,0.9-0.3,0.9-0.7v-4.2c0-0.4-0.5-0.7-0.9-0.7h-10.8
					C455.9,181.9,454.2,182.9,453,183.3"/>
				<path class="st1" d="M445.5,180.4c-0.4,0-0.5,0.3-0.5,0.7v4.2c0,0.4,0.1,0.7,0.5,0.7h2h9.5c-0.6-1.4-2.2-2.4-3.3-2.8
					c1.2-0.4,2.3-1.4,3-2.8h-8.9H445.5z"/>
			</g>
		</g>
	</g>
	<g>
		<path class="st1" d="M524.3,597.1l75.4,164.5l45.1-26.1L510.4,452c5.8-8.1,9.2-17.9,9.2-28.6c0-16.6-8.3-31.3-21-40.2l1.1-36.2
			l4.6-8l65.3-16.2l5.9-29.4H249.8l5.9,29.4L321,339l4.6,8l1.1,36.2c-12.7,8.9-21,23.6-21,40.2c0,10.7,3.4,20.5,9.2,28.6
			L179.9,736.9l45.1,26.1l76-165.8l56.2-0.7v125.1h-13.6v57.8h-93.2l160.7,91.2l0,0l163.6-91.2h-93.9v-57.8h-13.3V596.4L524.3,597.1
			z M446.4,545.3c0-1.3,0.1-2.6,0.3-3.8l23.9,4.2L446.4,545.3z M447.6,536.7c0.8-3.5,2-6.8,3.6-9.9l26.3,15.2L447.6,536.7z
			 M453.6,522.5c1.9-3,4.2-5.6,6.8-8l19.5,23.2L453.6,522.5z M464.1,511.3c2.8-2.1,5.8-3.9,9.1-5.3l10.4,28.5L464.1,511.3z
			 M509.9,443.4l-4.9-2.8l-4.4-9.3l12.9,2.3C512.7,437,511.5,440.3,509.9,443.4z M498.4,393.9l2.3-2.8c2.6,2.4,4.9,5.1,6.8,8
			l-9.4,5.5L498.4,393.9z M497.9,410.4l12.1-7c1.6,3.1,2.8,6.4,3.6,9.9l-15.8,2.8L497.9,410.4z M497.6,421.1l16.8-3
			c0.2,1.7,0.3,3.5,0.3,5.3c0,1.8-0.1,3.5-0.3,5.3l-16.4-2.9l-0.6-1.2L497.6,421.1z M493.1,529.2l0.7,1.6l-0.7,2V529.2z
			 M488.2,518.6v14.3l-10.4-28.5c1.1-0.3,2.3-0.6,3.5-0.9L488.2,518.6z M354.3,339.2H471v35.1c-0.2,0-0.4,0-0.6,0
			c-24.7,0-45.2,18.4-48.7,42.1h-0.6h-17.1h-0.6c-3.5-23.8-23.9-42.1-48.7-42.1c-0.2,0-0.4,0-0.6,0V339.2z M433.3,399.2
			c1.9-3,4.2-5.6,6.8-8l19.5,23.2L433.3,399.2z M453.3,416.4h-8.9l-17.1-3c0.8-3.5,2-6.8,3.6-9.9L453.3,416.4z M443.9,388
			c2.8-2.1,5.8-3.9,9.1-5.3l10.4,28.5L443.9,388z M457.6,381c3.3-1,6.8-1.6,10.4-1.8v30.3L457.6,381z M372.3,382.7
			c3.3,1.4,6.3,3.2,9.1,5.3l-19.5,23.2L372.3,382.7z M357.3,409.6v-30.3c3.6,0.2,7.1,0.8,10.4,1.8L357.3,409.6z M385.2,391.2
			c2.6,2.4,4.9,5.1,6.8,8l-26.3,15.2L385.2,391.2z M394.4,403.5c1.6,3.1,2.8,6.4,3.6,9.9l-17.1,3H372L394.4,403.5z M358.2,472.5
			c1-0.1,1.9-0.1,2.9-0.3h43h17.1h43c1,0.1,1.9,0.2,2.9,0.3l12.1,26.4c-21.2,5.1-37,23.8-37.7,46.3l-22.3-0.4v-0.2l-6.6,0.1
			l-6.6-0.1v0.2l-22.3,0.4c-0.7-22.5-16.5-41.2-37.7-46.3L358.2,472.5z M324.6,391.2l2.3,2.8l0.3,10.7l-9.4-5.5
			C319.7,396.3,322,393.6,324.6,391.2z M315.4,403.5l12.1,7l0.2,5.7l-15.8-2.8C312.6,409.9,313.8,406.6,315.4,403.5z M320.2,440.6
			l-4.9,2.8c-1.6-3.1-2.8-6.4-3.6-9.9l12.9-2.3L320.2,440.6z M327.2,425.8l-16.4,2.9c-0.2-1.7-0.3-3.5-0.3-5.3
			c0-1.8,0.1-3.5,0.3-5.3l16.8,3l0.1,3.5L327.2,425.8z M332.2,532.9l-0.7-2l0.7-1.6V532.9z M337.1,518.6l6.9-15.1
			c1.2,0.3,2.3,0.5,3.5,0.9l-10.4,28.5V518.6z M352,506c3.3,1.4,6.3,3.2,9.1,5.3l-19.5,23.2L352,506z M364.9,514.5
			c2.6,2.4,4.9,5.1,6.8,8l-26.3,15.2L364.9,514.5z M374.1,526.8c1.6,3.1,2.8,6.4,3.6,9.9l-29.9,5.3L374.1,526.8z M378.6,541.5
			c0.2,1.3,0.2,2.5,0.3,3.8l-24.2,0.4L378.6,541.5z M405.3,719.1h-43.2v-16.5h43.2V719.1z M405.3,673.7h-43.2v-16.2h43.2V673.7z
			 M405.3,628.7h-43.2v-6.2h43.2V628.7z M462.6,719.1h-43.2v-16.5h43.2V719.1z M462.6,673.7h-43.2v-16.2h43.2V673.7z M462.6,628.7
			h-43.2v-6.2h43.2V628.7z"/>
		<g>
			<g>
				<path class="st1" d="M103.6,581.4c16.5,0,23.3-6.8,29.2-12.7c5.4-5.5,10.1-10.2,22.5-10.2c12.5,0,18.9,5.5,25.7,11.3
					c6.7,5.7,13.6,11.7,26,11.7c15,0,22.6-6.7,29.2-12.7c6.2-5.5,11.6-10.3,22.4-10.3c14.5,0,20.6,5.7,27.2,11.7
					c6,5.5,12.3,11.3,24.4,11.3c13.4,0,20.2-6,26.6-11.9c6.3-5.7,13.3-11.1,25.3-11.1v-6.3c-12,0-23,6.8-29.6,12.7
					c-6,5.5-11.3,10.2-22.2,10.2c-9.7,0-14.6-4.5-20.2-9.6c-6.8-6.3-14.6-13.4-31.5-13.4c-13.2,0-20,6-26.6,11.9
					c-6.4,5.7-12.4,11.1-25,11.1c-10.1,0-15.5-4.7-21.8-10.1c-7-6-14.9-12.8-29.8-12.8c-15,0-21.3,6.4-27,12.1
					c-5.5,5.6-10.8,10.9-24.7,10.9c-13.2,0-19.9-5.7-27.1-11.7c-3.6-3,0.7-1.1-3.7-3.3l-2.8,5.7c3.7,1.8-1-0.4,2.4,2.4
					C79.8,574.4,88.1,581.4,103.6,581.4z"/>
			</g>
			<g>
				<path class="st1" d="M103.6,626.4c16.5,0,23.3-6.8,29.2-12.7c5.4-5.5,10.1-10.2,22.5-10.2c12.5,0,18.9,5.5,25.7,11.3
					c6.7,5.7,13.6,11.7,26,11.7c15,0,22.6-6.7,29.2-12.7c6.2-5.5,11.6-10.3,22.4-10.3c14.5,0,20.6,5.7,27.2,11.7
					c6,5.5,12.3,11.3,24.4,11.3c13.4,0,20.2-6,26.6-11.9c6.3-5.7,13.3-11.1,25.3-11.1v-6.3c-12,0-23,6.8-29.6,12.7
					c-6,5.5-11.3,10.2-22.2,10.2c-9.7,0-14.6-4.5-20.2-9.6c-6.8-6.3-14.6-13.3-31.5-13.3c-13.2,0-20,6-26.6,11.9
					c-6.4,5.7-12.4,11.1-25,11.1c-10.1,0-15.5-4.7-21.8-10.1c-7-6-14.9-12.8-29.8-12.8c-15,0-21.3,6.4-27,12.1
					c-5.5,5.6-10.8,10.9-24.7,10.9c-13.2,0-19.9-5.7-27.1-11.7c-3.6-3,0.8-1.1-3.6-3.3l-2.8,5.7c3.7,1.8-1.1-0.5,2.3,2.4
					C79.8,619.4,88.1,626.4,103.6,626.4z"/>
			</g>
			<g>
				<path class="st1" d="M103.6,671.4c16.5,0,23.3-6.8,29.2-12.7c5.4-5.5,10.1-10.2,22.5-10.2c12.5,0,18.9,5.5,25.7,11.3
					c6.7,5.7,13.6,11.7,26,11.7c15,0,22.6-6.7,29.2-12.7c6.2-5.5,11.6-10.3,22.4-10.3c14.5,0,20.6,5.7,27.2,11.7
					c6,5.5,12.3,11.3,24.4,11.3c13.4,0,20.2-6,26.6-11.9c6.3-5.7,13.3-11.1,25.3-11.1v-6.3c-12,0-23,6.8-29.6,12.7
					c-6,5.5-11.3,10.2-22.2,10.2c-9.7,0-14.6-4.5-20.2-9.6c-6.8-6.3-14.6-13.3-31.5-13.3c-13.2,0-20,6-26.6,11.9
					c-6.4,5.7-12.4,11.1-25,11.1c-10.1,0-15.5-4.7-21.8-10.1c-7-6-14.9-12.8-29.8-12.8c-15,0-21.3,6.4-27,12.1
					c-5.5,5.6-10.8,10.9-24.7,10.9c-13.2,0-19.9-5.7-27.1-11.7c-3.5-3,0.9-1-3.5-3.2l-2.8,5.7c3.6,1.8-1.2-0.5,2.2,2.4
					C79.8,664.4,88.1,671.4,103.6,671.4z"/>
			</g>
		</g>
		<g>
			<g>
				<path class="st1" d="M720.5,581.4c-16.5,0-23.3-6.8-29.2-12.7c-5.4-5.5-10.1-10.2-22.5-10.2c-12.5,0-18.9,5.5-25.7,11.3
					c-6.7,5.7-13.6,11.7-26,11.7c-15,0-22.6-6.7-29.2-12.7c-6.2-5.5-11.6-10.3-22.4-10.3c-14.5,0-20.6,5.7-27.2,11.7
					c-6,5.5-12.3,11.3-24.4,11.3c-13.4,0-20.2-6-26.6-11.9c-6.3-5.7-13.3-11.1-25.3-11.1v-6.3c12,0,23,6.8,29.6,12.7
					c6,5.5,11.3,10.2,22.3,10.2c9.7,0,14.6-4.5,20.2-9.6c6.8-6.3,14.6-13.4,31.5-13.4c13.2,0,20,6,26.6,11.9
					c6.4,5.7,12.4,11.1,25,11.1c10.1,0,15.5-4.7,21.8-10.1c7-6,14.9-12.8,29.8-12.8c15,0,21.3,6.4,27,12.1
					c5.5,5.6,10.8,10.9,24.7,10.9c13.2,0,19.9-5.7,27.1-11.7c3.6-3-0.7-1.1,3.7-3.3l2.8,5.7c-3.7,1.8,1-0.4-2.4,2.4
					C744.3,574.4,736,581.4,720.5,581.4z"/>
			</g>
			<g>
				<path class="st1" d="M720.5,626.4c-16.5,0-23.3-6.8-29.2-12.7c-5.4-5.5-10.1-10.2-22.5-10.2c-12.5,0-18.9,5.5-25.7,11.3
					c-6.7,5.7-13.6,11.7-26,11.7c-15,0-22.6-6.7-29.2-12.7c-6.2-5.5-11.6-10.3-22.4-10.3c-14.5,0-20.6,5.7-27.2,11.7
					c-6,5.5-12.3,11.3-24.4,11.3c-13.4,0-20.2-6-26.6-11.9c-6.3-5.7-13.3-11.1-25.3-11.1v-6.3c12,0,23,6.8,29.6,12.7
					c6,5.5,11.3,10.2,22.3,10.2c9.7,0,14.6-4.5,20.2-9.6c6.8-6.3,14.6-13.3,31.5-13.3c13.2,0,20,6,26.6,11.9
					c6.4,5.7,12.4,11.1,25,11.1c10.1,0,15.5-4.7,21.8-10.1c7-6,14.9-12.8,29.8-12.8c15,0,21.3,6.4,27,12.1
					c5.5,5.6,10.8,10.9,24.7,10.9c13.2,0,19.9-5.7,27.1-11.7c3.6-3-0.8-1.1,3.6-3.3l2.8,5.7c-3.7,1.8,1.1-0.5-2.3,2.4
					C744.3,619.4,736,626.4,720.5,626.4z"/>
			</g>
			<g>
				<path class="st1" d="M720.5,671.4c-16.5,0-23.3-6.8-29.2-12.7c-5.4-5.5-10.1-10.2-22.5-10.2c-12.5,0-18.9,5.5-25.7,11.3
					c-6.7,5.7-13.6,11.7-26,11.7c-15,0-22.6-6.7-29.2-12.7c-6.2-5.5-11.6-10.3-22.4-10.3c-14.5,0-20.6,5.7-27.2,11.7
					c-6,5.5-12.3,11.3-24.4,11.3c-13.4,0-20.2-6-26.6-11.9c-6.3-5.7-13.3-11.1-25.3-11.1v-6.3c12,0,23,6.8,29.6,12.7
					c6,5.5,11.3,10.2,22.3,10.2c9.7,0,14.6-4.5,20.2-9.6c6.8-6.3,14.6-13.3,31.5-13.3c13.2,0,20,6,26.6,11.9
					c6.4,5.7,12.4,11.1,25,11.1c10.1,0,15.5-4.7,21.8-10.1c7-6,14.9-12.8,29.8-12.8c15,0,21.3,6.4,27,12.1
					c5.5,5.6,10.8,10.9,24.7,10.9c13.2,0,19.9-5.7,27.1-11.7c3.5-3-0.9-1,3.5-3.2l2.8,5.7c-3.6,1.8,1.2-0.5-2.2,2.4
					C744.3,664.4,736,671.4,720.5,671.4z"/>
			</g>
		</g>
	</g>
	<g id="XMLID_9_">
		<path class="st1" d="M412,874.3L67,674.5V274.9L412,75.2l345,199.8v399.6L412,874.3z M73,670.8L412,867l339-196.1V278.6L412,82.5
			L73,278.6V670.8z"/>
	</g>
	<g>
		<g>
			<g>
				<rect x="206" y="618.4" class="st0" width="405" height="95"/>
				<path class="st1" d="M618,713.4H206v-103h412V713.4z M213,706.4h398v-88H213V706.4z"/>
			</g>
		</g>
		<g>
			<path class="st1" d="M276.1,654.3c0,7.1-2.8,11.7-8.4,13.8l11.2,15.8h-12.2l-9.8-14.1h-6.8v14.1h-9.9v-44.3H257
				c6.9,0,11.8,1.2,14.7,3.5C274.7,645.4,276.1,649.2,276.1,654.3z M264.2,659.6c1.2-1.1,1.8-2.8,1.8-5.2c0-2.4-0.6-4-1.9-4.9
				c-1.3-0.9-3.5-1.3-6.7-1.3h-7.4v13.1h7.2C260.7,661.2,263,660.7,264.2,659.6z"/>
			<path class="st1" d="M306.6,668.2v-18.4h9.6v34.1h-9.6v-4.5c-2.4,3.3-5.4,5-9.2,5c-3.7,0-6.9-1.2-9.4-3.5
				c-2.5-2.3-3.8-5.8-3.8-10.4v-20.7h9.6v18.6c0,5.2,1.9,7.9,5.8,7.9c1.9,0,3.5-0.7,4.9-2.1C305.9,672.8,306.6,670.8,306.6,668.2z"
				/>
			<path class="st1" d="M334.7,665.5v18.4h-9.5v-47h9.5v16.7c2.9-2.9,6.1-4.4,9.7-4.4s6.6,1.3,9,3.8c2.5,2.5,3.7,5.9,3.7,10.1v20.7
				h-9.5v-18.6c0-5.2-1.9-7.9-5.8-7.9c-1.9,0-3.6,0.7-5,2.1C335.4,660.9,334.7,662.9,334.7,665.5z"/>
			<path class="st1" d="M383.6,658.2c-2.8,0-4.9,1-6.3,3c-1.4,2-2.1,4.7-2.1,8v14.8h-9.5v-34.1h9.5v4.5c1.2-1.4,2.8-2.6,4.6-3.6
				c1.8-1,3.7-1.5,5.6-1.5l0.1,8.9H383.6z"/>
			<path class="st1" d="M417,678.2c-3,3.3-6.7,5-11.2,5s-8.2-1.5-11.3-4.5c-3.1-3-4.6-7.1-4.6-12.1c0-5.1,1.6-9.2,4.7-12.4
				c3.1-3.2,6.8-4.8,10.8-4.8c4.1,0,7.4,1.7,10.1,5v-4.5h9.5v29.7c0,3-0.5,5.8-1.6,8.1c-1.1,2.4-2.5,4.2-4.2,5.6
				c-3.5,2.8-7.7,4.2-12.4,4.2c-2.5,0-5.1-0.4-7.8-1.2c-2.6-0.8-5-2-6.9-3.5l3.7-7.2c3.1,2.4,6.4,3.5,9.9,3.5c3.5,0,6.2-0.9,8.3-2.6
				C416,684.7,417,681.9,417,678.2z M415.7,666.1c0-2.7-0.8-4.9-2.3-6.4c-1.5-1.6-3.4-2.3-5.6-2.3c-2.2,0-4.2,0.8-5.8,2.3
				c-1.6,1.6-2.4,3.7-2.4,6.4s0.8,4.9,2.4,6.6c1.6,1.7,3.5,2.5,5.8,2.5c2.3,0,4.2-0.8,5.7-2.5C414.9,671.1,415.7,668.9,415.7,666.1z
				"/>
			<path class="st1" d="M463.6,679c-3.8,3.6-8.4,5.5-13.5,5.5s-9.5-1.6-12.8-4.8c-3.4-3.2-5.1-7.5-5.1-12.8s1.7-9.6,5.2-12.8
				c3.4-3.2,7.5-4.8,12.2-4.8c4.7,0,8.7,1.4,11.9,4.2c3.3,2.8,4.9,6.7,4.9,11.7v5.1h-24.8c0.3,1.9,1.3,3.4,2.9,4.6
				c1.6,1.2,3.5,1.8,5.6,1.8c3.3,0,6.1-1.1,8.2-3.4L463.6,679z M454.5,658.8c-1.3-1.1-2.9-1.7-4.8-1.7s-3.6,0.6-5.2,1.7
				c-1.6,1.1-2.5,2.7-2.7,4.6h15C456.5,661.4,455.8,659.9,454.5,658.8z"/>
			<path class="st1" d="M492.9,649.3c4.1,0,7.8,1.6,10.8,4.8s4.6,7.4,4.6,12.5c0,5.1-1.6,9.3-4.8,12.7c-3.2,3.4-6.8,5.1-10.8,5.1
				s-7.4-1.7-10.1-5v4.5h-9.5v-47h9.5v16.7C485.3,650.7,488.7,649.3,492.9,649.3z M482.6,666.9c0,2.8,0.8,5,2.3,6.8
				c1.5,1.8,3.4,2.6,5.6,2.6s4.1-0.9,5.8-2.6c1.6-1.8,2.5-4,2.5-6.7s-0.8-5.1-2.4-6.9c-1.6-1.9-3.5-2.8-5.8-2.8
				c-2.2,0-4.1,0.9-5.7,2.8C483.4,661.8,482.6,664.1,482.6,666.9z"/>
			<path class="st1" d="M516.2,645.5c-1.1-1.1-1.6-2.4-1.6-4c0-1.6,0.5-2.9,1.6-4c1.1-1.1,2.4-1.6,4-1.6c1.6,0,2.9,0.5,4,1.6
				c1.1,1.1,1.6,2.4,1.6,4c0,1.6-0.5,2.9-1.6,4c-1.1,1.1-2.4,1.6-4,1.6C518.6,647.1,517.3,646.6,516.2,645.5z M524.9,683.9h-9.5
				v-34.1h9.5V683.9z"/>
			<path class="st1" d="M563.5,679c-3.8,3.6-8.4,5.5-13.5,5.5c-5.2,0-9.5-1.6-12.8-4.8c-3.4-3.2-5.1-7.5-5.1-12.8s1.7-9.6,5.2-12.8
				c3.4-3.2,7.5-4.8,12.2-4.8c4.7,0,8.7,1.4,11.9,4.2c3.3,2.8,4.9,6.7,4.9,11.7v5.1h-24.8c0.3,1.9,1.3,3.4,2.9,4.6
				c1.6,1.2,3.5,1.8,5.6,1.8c3.3,0,6.1-1.1,8.2-3.4L563.5,679z M554.4,658.8c-1.3-1.1-2.9-1.7-4.8-1.7s-3.6,0.6-5.2,1.7
				c-1.6,1.1-2.5,2.7-2.7,4.6h15C556.4,661.4,555.7,659.9,554.4,658.8z"/>
			<path class="st1" d="M584.1,656.7v15.3c0,1.3,0.3,2.3,1,3.1c0.7,0.7,1.5,1.1,2.4,1.1c1.8,0,3.3-0.8,4.5-2.4l3.6,6.7
				c-3,2.7-6.1,4.1-9.3,4.1c-3.3,0-6-1.1-8.3-3.2c-2.3-2.2-3.4-5.1-3.4-8.8v-15.7h-4v-6.8h4v-10.2h9.6v10.2h8.2v6.8H584.1z"/>
		</g>
	</g>
</g>
</svg>
