<?xml version="1.0" encoding="utf-8"?>
<!-- Generator: Adobe Illustrator 16.0.4, SVG Export Plug-In . SVG Version: 6.00 Build 0)  -->
<!DOCTYPE svg PUBLIC "-//W3C//DTD SVG 1.1//EN" "http://www.w3.org/Graphics/SVG/1.1/DTD/svg11.dtd">
<svg version="1.1" id="Ebene_1" xmlns="http://www.w3.org/2000/svg" xmlns:xlink="http://www.w3.org/1999/xlink" x="0px" y="0px"
	 width="198.425px" height="198.425px" viewBox="0 0 198.425 198.425" enable-background="new 0 0 198.425 198.425"
	 xml:space="preserve">
<polygon fill="#FFFFFF" points="39.213,133.768 39.213,64.658 99.213,30.097 159.212,64.658 159.212,133.768 99.213,168.328 "/>
<path fill="#82CC7D" d="M99.213,32.983l57.499,33.119v66.221l-57.499,33.119l-57.5-33.119V66.102L99.213,32.983z M99.213,27.212
	l-62.5,36v72.001l62.5,36l62.499-36V63.212L99.213,27.212z"/>
<polyline fill="none" stroke="#82CC7D" stroke-width="2" stroke-linecap="square" stroke-miterlimit="10" points="75.474,125.729 
	71.925,122.182 68.375,125.729 "/>
<polyline fill="none" stroke="#82CC7D" stroke-width="2" stroke-linecap="square" stroke-miterlimit="10" points="61.914,125.729 
	58.365,122.182 54.816,125.729 "/>
<polyline fill="none" stroke="#88B97C" stroke-width="2" stroke-linecap="square" stroke-miterlimit="10" points="143.271,125.729 
	139.723,122.182 136.174,125.729 "/>
<polyline fill="none" stroke="#82CC7D" stroke-width="2" stroke-linecap="square" stroke-miterlimit="10" points="156.831,125.729 
	153.282,122.182 149.733,125.729 "/>
<polyline fill="none" stroke="#82CC7D" stroke-width="2" stroke-linecap="square" stroke-miterlimit="10" points="89.034,125.729 
	85.485,122.182 81.936,125.729 "/>
<polyline fill="none" stroke="#82CC7D" stroke-width="2" stroke-linecap="square" stroke-miterlimit="10" points="102.594,125.729 
	99.045,122.182 95.496,125.729 "/>
<polyline fill="none" stroke="#82CC7D" stroke-width="2" stroke-linecap="square" stroke-miterlimit="10" points="116.153,125.729 
	112.604,122.182 109.056,125.729 "/>
<polyline fill="none" stroke="#82CC7D" stroke-width="2" stroke-linecap="square" stroke-miterlimit="10" points="129.712,125.729 
	126.163,122.182 122.614,125.729 "/>
<polyline fill="none" stroke="#82CC7D" stroke-width="2" stroke-linecap="square" stroke-miterlimit="10" points="48.356,125.729 
	44.808,122.182 41.258,125.729 "/>
<polyline fill="none" stroke="#82CC7D" stroke-width="2" stroke-linecap="square" stroke-miterlimit="10" points="68.377,133.479 
	64.828,129.931 61.279,133.479 "/>
<polyline fill="none" stroke="#82CC7D" stroke-width="2" stroke-linecap="square" stroke-miterlimit="10" points="54.817,133.479 
	51.269,129.931 47.719,133.479 "/>
<polyline fill="none" stroke="#82CC7D" stroke-width="2" stroke-linecap="square" stroke-miterlimit="10" points="136.175,133.479 
	132.626,129.931 129.077,133.479 "/>
<polyline fill="none" stroke="#82CC7D" stroke-width="2" stroke-linecap="square" stroke-miterlimit="10" points="149.733,133.479 
	146.185,129.931 142.636,133.479 "/>
<polyline fill="none" stroke="#82CC7D" stroke-width="2" stroke-linecap="square" stroke-miterlimit="10" points="81.937,133.479 
	78.388,129.931 74.838,133.479 "/>
<polyline fill="none" stroke="#82CC7D" stroke-width="2" stroke-linecap="square" stroke-miterlimit="10" points="122.615,133.479 
	119.066,129.931 115.518,133.479 "/>
<polyline fill="none" stroke="#82CC7D" stroke-width="2" stroke-linecap="square" stroke-miterlimit="10" points="75.474,141.587 
	71.925,138.039 68.375,141.587 "/>
<polyline fill="none" stroke="#82CC7D" stroke-width="2" stroke-linecap="square" stroke-miterlimit="10" points="61.914,141.587 
	58.365,138.039 54.816,141.587 "/>
<polyline fill="none" stroke="#82CC7D" stroke-width="2" stroke-linecap="square" stroke-miterlimit="10" points="143.271,141.587 
	139.723,138.039 136.174,141.587 "/>
<polyline fill="none" stroke="#82CC7D" stroke-width="2" stroke-linecap="square" stroke-miterlimit="10" points="129.712,141.587 
	126.163,138.039 122.614,141.587 "/>
<line fill="none" stroke="#82CC7D" stroke-width="2" stroke-linecap="square" stroke-miterlimit="10" x1="68.377" y1="149.336" x2="64.828" y2="145.788"/>
<line fill="none" stroke="#82CC7D" stroke-width="2" stroke-linecap="square" stroke-miterlimit="10" x1="132.626" y1="145.788" x2="129.077" y2="149.336"/>
<polyline fill="none" stroke="#82CC7D" stroke-width="2" stroke-linecap="square" stroke-miterlimit="10" points="81.937,149.336 
	78.388,145.788 74.838,149.336 "/>
<polyline fill="none" stroke="#82CC7D" stroke-width="2" stroke-linecap="square" stroke-miterlimit="10" points="95.496,149.336 
	91.947,145.788 88.398,149.336 "/>
<polyline fill="none" stroke="#82CC7D" stroke-width="2" stroke-linecap="square" stroke-miterlimit="10" points="109.056,149.336 
	105.507,145.788 101.958,149.336 "/>
<polyline fill="none" stroke="#82CC7D" stroke-width="2" stroke-linecap="square" stroke-miterlimit="10" points="122.615,149.336 
	119.066,145.788 115.518,149.336 "/>
<polyline fill="none" stroke="#82CC7D" stroke-width="2" stroke-linecap="square" stroke-miterlimit="10" points="89.034,158.082 
	85.485,154.534 81.936,158.082 "/>
<polyline fill="none" stroke="#82CC7D" stroke-width="2" stroke-linecap="square" stroke-miterlimit="10" points="102.594,158.082 
	99.045,154.534 95.496,158.082 "/>
<polyline fill="none" stroke="#82CC7D" stroke-width="2" stroke-linecap="square" stroke-miterlimit="10" points="116.153,158.082 
	112.604,154.534 109.056,158.082 "/>
<path fill="none" stroke="#82CC7D" stroke-width="2" stroke-miterlimit="10" d="M134.898,103.304L114.97,65.087
	c0,0-1.015-2.767-3.771-2.767H99.662"/>
<polyline fill="none" stroke="#82CC7D" stroke-width="2" stroke-linejoin="round" stroke-miterlimit="10" points="123.036,80.771 
	91.429,102.765 63.994,102.765 82.209,84.838 119.673,74.328 "/>
<line fill="none" stroke="#82CC7D" stroke-width="2" stroke-linejoin="round" stroke-miterlimit="10" x1="91.429" y1="102.735" x2="78.863" y2="77.514"/>
<line fill="none" stroke="#82CC7D" stroke-width="2" stroke-linejoin="round" stroke-miterlimit="10" x1="72.951" y1="77.515" x2="84.773" y2="77.515"/>
<circle fill="none" stroke="#82CC7D" stroke-width="2" stroke-miterlimit="10" cx="63.603" cy="102.661" r="15.08"/>
<circle fill="none" stroke="#82CC7D" stroke-width="2" stroke-miterlimit="10" cx="63.433" cy="102.323" r="10.755"/>
<circle fill="none" stroke="#82CC7D" stroke-width="2" stroke-miterlimit="10" cx="134.543" cy="102.661" r="15.08"/>
<circle fill="none" stroke="#82CC7D" stroke-width="2" stroke-miterlimit="10" cx="134.434" cy="102.323" r="10.755"/>
<path fill="#FFFFFF" d="M95.668,100.993c0,3.058-2.479,5.537-5.538,5.537c-3.058,0-5.537-2.479-5.537-5.537
	c0-3.059,2.479-5.538,5.537-5.538C93.189,95.455,95.668,97.934,95.668,100.993"/>
<circle fill="none" stroke="#82CC7D" stroke-width="2" stroke-miterlimit="10" cx="90.131" cy="100.993" r="5.538"/>
<polyline fill="none" stroke="#82CC7D" stroke-width="2" stroke-miterlimit="10" points="90.18,100.729 95.669,107.425 
	99.425,107.425 "/>
<rect x="77.425" y="129.425" fill="#82CC7D" width="42" height="12"/>
<polygon fill="#FFFFFF" points="80.944,132.12 82.244,132.12 83.983,136.777 85.721,132.12 87.021,132.12 87.021,139.116 
	85.922,139.116 85.922,134.398 84.373,138.477 83.592,138.477 82.044,134.398 82.044,139.116 80.944,139.116 "/>
<path fill="#FFFFFF" d="M91.653,139.116v-0.859c-0.36,0.6-0.96,0.939-1.63,0.939c-0.878,0-1.478-0.529-1.478-1.509v-3.608h1.039
	v3.278c0,0.68,0.31,0.92,0.779,0.92c0.651,0,1.29-0.77,1.29-2.16v-2.038h1.039v5.037H91.653z M89.724,131.98
	c0.36,0,0.63,0.271,0.63,0.629c0,0.36-0.27,0.63-0.63,0.63c-0.36,0-0.629-0.27-0.629-0.63
	C89.095,132.251,89.364,131.98,89.724,131.98 M91.583,131.98c0.359,0,0.63,0.271,0.63,0.629c0,0.36-0.271,0.63-0.63,0.63
	s-0.63-0.27-0.63-0.63C90.953,132.251,91.224,131.98,91.583,131.98"/>
<path fill="#FFFFFF" d="M95.154,134.079v0.859c0.359-0.6,0.959-0.939,1.629-0.939c0.88,0,1.479,0.53,1.479,1.509v3.608h-1.04v-3.278
	c0-0.68-0.309-0.92-0.779-0.92c-0.649,0-1.289,0.77-1.289,2.159v2.039h-1.04v-5.037H95.154z"/>
<path fill="#FFFFFF" d="M102.732,134.799l-0.659,0.58c-0.25-0.32-0.561-0.461-0.88-0.461c-0.26,0-0.5,0.17-0.5,0.5
	c0,0.359,0.38,0.52,0.899,0.72c0.68,0.26,1.409,0.56,1.409,1.46c0,0.869-0.669,1.599-1.749,1.599c-1.039,0-1.688-0.72-1.948-1.35
	l0.879-0.479c0.2,0.449,0.55,0.91,1.109,0.91c0.4,0,0.68-0.201,0.68-0.66c0-0.439-0.609-0.561-1.199-0.81
	c-0.58-0.24-1.079-0.61-1.079-1.38c0-0.779,0.64-1.429,1.549-1.429C101.853,133.999,102.413,134.299,102.732,134.799"/>
<path fill="#FFFFFF" d="M103.555,134.079h0.84v-1.39l1.039-0.649v2.039h1.31v0.919h-1.31v2.459c0,0.57,0.21,0.82,0.67,0.82
	c0.181,0,0.3-0.031,0.479-0.141l0.271,0.879c-0.271,0.131-0.53,0.181-0.81,0.181c-0.95,0-1.649-0.56-1.649-1.8v-2.398h-0.84V134.079
	z"/>
<path fill="#FFFFFF" d="M112.232,136.887h-3.568c0,0.74,0.43,1.391,1.248,1.391c0.541,0,1.061-0.301,1.32-0.85l0.89,0.35
	c-0.489,0.949-1.06,1.419-2.21,1.419c-1.658,0-2.348-1.399-2.348-2.599s0.689-2.599,2.348-2.599c1.61,0,2.32,1.31,2.32,2.438
	V136.887z M108.684,136.018h2.449c-0.09-0.56-0.471-1.1-1.221-1.1C109.224,134.918,108.794,135.389,108.684,136.018"/>
<path fill="#FFFFFF" d="M113.305,139.116v-5.037h1.039v0.839c0.35-0.6,0.95-0.919,1.489-0.919c0.271,0,0.49,0.06,0.64,0.12
	l-0.18,0.949c-0.16-0.1-0.38-0.15-0.59-0.15c-0.669,0-1.359,0.74-1.359,2.329v1.869H113.305z"/>
<path fill="#82CC7D" d="M97.041,50.979c-0.186-0.121-0.324-0.162-0.486-0.162c-0.287,0-0.444,0.18-0.444,0.569v0.198h1.176v0.456
	H96.11v2.566h-0.503v-2.566h-0.852v-0.456h0.852v-0.185c0-0.732,0.353-1.038,0.929-1.038c0.276,0,0.462,0.071,0.63,0.174
	L97.041,50.979z"/>
<path fill="#82CC7D" d="M99.465,51.536c0.923,0,1.487,0.726,1.487,1.559s-0.564,1.56-1.487,1.56s-1.487-0.727-1.487-1.56
	S98.542,51.536,99.465,51.536 M99.465,54.199c0.618,0,0.972-0.522,0.972-1.104c0-0.581-0.354-1.103-0.972-1.103
	s-0.971,0.522-0.971,1.103C98.494,53.677,98.847,54.199,99.465,54.199"/>
<path fill="#82CC7D" d="M103.874,52.544c-0.042-0.348-0.222-0.552-0.582-0.552c-0.527,0-1.025,0.498-1.025,1.524v1.091h-0.504
	v-3.022h0.504v0.557c0.233-0.366,0.611-0.606,1.115-0.606c0.601,0,0.96,0.361,0.995,1.008H103.874z"/>
<polygon fill="#82CC7D" points="95.521,41.413 95.521,41.514 95.521,47.888 96.053,47.888 96.203,47.888 96.33,47.888 96.33,41.413 
	"/>
<path fill="#82CC7D" d="M98.729,48.495c0.056,0,0.129-0.051,0.129-0.105v-7.584c0-0.055-0.073-0.101-0.129-0.101h-2.527
	c-0.056,0-0.076,0.022-0.076,0.051v0.151v0.506c0,0.055,0.02,0.102,0.076,0.102h1.718c0.056,0,0.129,0.044,0.129,0.099v5.967
	c0,0.055-0.073,0.104-0.129,0.104h-1.718c-0.056,0-0.076,0.019-0.076,0.047v0.152v0.506c0,0.054,0.02,0.105,0.076,0.105H98.729z"/>
<polygon fill="#82CC7D" points="99.87,41.413 99.87,41.514 99.87,47.888 100.55,47.888 100.68,47.888 100.68,41.413 "/>
<path fill="#82CC7D" d="M100.578,48.491v-0.81c1.113,0,1.89-1.383,1.89-3.084c0-1.7-0.776-3.084-1.89-3.084v-0.808
	c1.519,0,2.698,1.746,2.698,3.892C103.276,46.744,102.097,48.491,100.578,48.491"/>
<path fill="#82CC7D" d="M92.182,46.003v1.115v0.36c0,0.605,0.388,1.017,0.999,1.017h0.172h0.496h0.584
	c0.028,0,0.075-0.051,0.075-0.105v-0.608c0-0.054-0.07-0.096-0.126-0.096h-0.581h-0.297h-0.183c-0.261,0-0.329-0.112-0.329-0.411
	v-0.177v-0.974V45.53c0-0.609-0.248-0.834-0.551-0.945c0.303-0.109,0.551-0.334,0.551-0.943V43.22v-1.07v-0.253
	c0-0.294,0.058-0.382,0.329-0.382h0.228h0.29h0.594c0.028,0,0.075-0.047,0.075-0.102v-0.607c0-0.055-0.07-0.101-0.126-0.101h-0.486
	h-0.458h-0.257c-0.611,0-0.999,0.397-0.999,0.989v0.317v1.323c0,0-0.021,0.304-0.035,0.407c-0.038,0.274-0.373,0.508-0.581,0.505
	h-0.318c-0.056,0-0.078,0.043-0.078,0.099v0.607c0,0.055,0.022,0.104,0.078,0.104h0.29c0.265-0.004,0.6,0.218,0.625,0.552
	C92.17,45.704,92.182,46.003,92.182,46.003"/>
<path fill="#82CC7D" d="M96.202,40.705h-0.287h-0.319c-0.057,0-0.077,0.046-0.077,0.101v0.187v0.42v0.102h0.077h0.606h0.127v-0.102
	v-0.607v-0.101H96.202z"/>
<path fill="#82CC7D" d="M95.521,47.782v0.287v0.32c0,0.055,0.019,0.106,0.075,0.106h0.187h0.42h0.127v-0.106v-0.607v-0.097h-0.127
	h-0.607h-0.075V47.782z"/>
<path fill="#82CC7D" d="M100.55,40.705h-0.286h-0.32c-0.057,0-0.073,0.046-0.073,0.101v0.187v0.42v0.102h0.073h0.606h0.13v-0.102
	v-0.607v-0.101H100.55z"/>
<path fill="#82CC7D" d="M99.87,47.782v0.287v0.32c0,0.055,0.017,0.106,0.073,0.106h0.187h0.42h0.13v-0.106v-0.607v-0.097h-0.13
	h-0.606H99.87V47.782z"/>
<path fill="#82CC7D" d="M104.929,46.003v1.115v0.36c0,0.605,0.38,1.017,0.992,1.017h0.172h0.495h0.584
	c0.027,0,0.083-0.051,0.083-0.105v-0.608c0-0.054-0.077-0.096-0.133-0.096h-0.581h-0.297h-0.184c-0.262,0-0.323-0.112-0.323-0.411
	v-0.177v-0.974V45.53c0-0.195-0.057-0.373-0.102-0.474h-1.358c0.373,0.101,0.532,0.234,0.609,0.558
	C104.925,45.776,104.929,46.003,104.929,46.003"/>
<path fill="#82CC7D" d="M104.871,43.741c-0.078,0.265-0.254,0.403-0.565,0.505h1.274c0.078-0.202,0.157-0.337,0.157-0.606v-0.42
	v-1.07v-0.254c0-0.294,0.052-0.382,0.323-0.382h0.229h0.289h0.594c0.028,0,0.083-0.046,0.083-0.101v-0.608
	c0-0.054-0.077-0.1-0.133-0.1h-0.486h-0.458h-0.257c-0.613,0-0.992,0.396-0.992,0.989v0.317v1.323
	C104.929,43.334,104.91,43.608,104.871,43.741"/>
<path fill="#82CC7D" d="M105.068,44.657c0.205,0.074,0.429,0.195,0.567,0.398h1.486c0.056,0,0.134-0.048,0.134-0.103v-0.607
	c0-0.056-0.078-0.1-0.134-0.1h-1.542C105.479,44.448,105.237,44.595,105.068,44.657"/>
<path fill="#82CC7D" d="M103.987,44.246c-0.056,0-0.07,0.044-0.07,0.099v0.607c0,0.055,0.015,0.104,0.07,0.104h0.29h1.358
	c-0.092-0.204-0.317-0.342-0.479-0.405c0.169-0.062,0.322-0.203,0.424-0.405h-1.274H103.987z"/>
</svg>
