<?xml version="1.0" encoding="utf-8"?>
<!-- Generator: Adobe Illustrator 16.0.4, SVG Export Plug-In . SVG Version: 6.00 Build 0)  -->
<!DOCTYPE svg PUBLIC "-//W3C//DTD SVG 1.1//EN" "http://www.w3.org/Graphics/SVG/1.1/DTD/svg11.dtd">
<svg version="1.1" id="Ebene_1" xmlns="http://www.w3.org/2000/svg" xmlns:xlink="http://www.w3.org/1999/xlink" x="0px" y="0px"
	 width="198.425px" height="198.425px" viewBox="0 0 198.425 198.425" enable-background="new 0 0 198.425 198.425"
	 xml:space="preserve">
<polygon fill="#82CC7D" points="158.929,61.693 101.702,28.681 99.151,27.186 96.578,28.681 39.254,61.693 36.642,63.193 
	36.642,66.199 36.642,132.226 36.642,135.231 39.267,136.731 96.59,169.744 99.189,171.239 101.787,169.744 158.928,136.731 
	161.357,135.231 161.357,132.226 161.357,66.199 161.357,63.193 "/>
<polygon fill="none" stroke="#82CC7D" stroke-miterlimit="10" points="161.713,135.213 99.213,171.213 36.713,135.213 
	36.713,63.212 99.213,27.212 161.713,63.212 "/>
<polygon fill="none" stroke="#FFFFFF" stroke-width="2" stroke-miterlimit="10" points="157.713,133.046 99.213,166.88 
	40.713,133.046 40.713,65.378 99.213,31.546 157.713,65.378 "/>
<line fill="none" stroke="#FFFFFF" stroke-width="2" stroke-miterlimit="10" x1="101.273" y1="86.151" x2="140.072" y2="55.01"/>
<line fill="none" stroke="#FFFFFF" stroke-width="2" stroke-miterlimit="10" x1="130.678" y1="89.64" x2="158" y2="70.913"/>
<line fill="none" stroke="#FFFFFF" stroke-width="2" stroke-miterlimit="10" x1="97.834" y1="83.176" x2="136.25" y2="53.092"/>
<polyline fill="none" stroke="#FFFFFF" stroke-width="2" stroke-miterlimit="10" points="117.824,72.936 124.695,80.741 
	146.326,78.915 "/>
<polyline fill="none" stroke="#FFFFFF" stroke-width="2" stroke-miterlimit="10" points="112.824,77.936 119.709,85.424 
	138.713,84.132 "/>
<polyline fill="none" stroke="#FFFFFF" stroke-width="2" stroke-miterlimit="10" points="122.562,68.34 128.969,75.611 
	153.865,73.747 "/>
<polyline fill="none" stroke="#FFFFFF" stroke-width="2" stroke-miterlimit="10" points="128.428,64.32 133.969,70.61 
	158.33,68.553 "/>
<polyline fill="none" stroke="#FFFFFF" stroke-width="2" stroke-miterlimit="10" points="133.428,59.32 138.969,65.61 156.17,64.32 
	"/>
<rect x="75.941" y="57.925" fill="#82CC7D" width="47.559" height="12"/>
<rect x="75.224" y="57.925" fill="none" stroke="#FFFFFF" stroke-miterlimit="10" width="48.693" height="12"/>
<polygon fill="#FFFFFF" points="85.803,60.125 83.953,67.121 82.833,67.121 81.475,62.684 80.116,67.121 78.996,67.121 
	77.146,60.125 78.307,60.125 79.586,65.562 80.975,60.865 81.975,60.865 83.364,65.562 84.643,60.125 "/>
<g>
	<path fill="#FFFFFF" d="M89.164,67.121v-0.859c-0.359,0.599-0.959,0.939-1.629,0.939c-0.879,0-1.478-0.529-1.478-1.51v-3.607h1.039
		v3.277c0,0.68,0.308,0.92,0.779,0.92c0.65,0,1.289-0.769,1.289-2.158v-2.039h1.039v5.037H89.164z"/>
	<path fill="#FFFFFF" d="M93.814,67.201c-0.619,0-1.119-0.31-1.349-0.638v2.597h-1.04v-7.076h1.04v0.58
		c0.169-0.291,0.709-0.66,1.369-0.66c1.49,0,2.25,0.99,2.25,2.6C96.084,66.162,95.324,67.201,93.814,67.201 M93.695,62.924
		c-0.75,0-1.291,0.639-1.291,1.68c0,1.039,0.541,1.677,1.291,1.677c0.748,0,1.289-0.638,1.289-1.677
		C94.984,63.563,94.443,62.924,93.695,62.924"/>
	<path fill="#FFFFFF" d="M99.465,67.201c-0.621,0-1.119-0.31-1.35-0.638v2.597h-1.039v-7.076h1.039v0.58
		c0.17-0.291,0.709-0.66,1.37-0.66c1.488,0,2.248,0.99,2.248,2.6C101.732,66.162,100.973,67.201,99.465,67.201 M99.344,62.924
		c-0.748,0-1.289,0.639-1.289,1.68c0,1.039,0.541,1.677,1.289,1.677c0.75,0,1.289-0.638,1.289-1.677
		C100.633,63.563,100.094,62.924,99.344,62.924"/>
	<path fill="#FFFFFF" d="M107.094,64.893h-3.57c0,0.74,0.432,1.389,1.25,1.389c0.541,0,1.061-0.299,1.32-0.85l0.891,0.35
		c-0.49,0.951-1.061,1.42-2.211,1.42c-1.658,0-2.348-1.399-2.348-2.598c0-1.199,0.689-2.6,2.348-2.6c1.611,0,2.32,1.309,2.32,2.44
		V64.893z M103.545,64.023h2.449c-0.09-0.561-0.471-1.1-1.221-1.1C104.086,62.923,103.656,63.393,103.545,64.023"/>
	<path fill="#FFFFFF" d="M107.916,67.121v-5.037h1.039v0.84c0.35-0.6,0.949-0.92,1.488-0.92c0.271,0,0.49,0.06,0.641,0.121
		l-0.18,0.949c-0.16-0.101-0.381-0.15-0.59-0.15c-0.67,0-1.359,0.74-1.359,2.328v1.869H107.916z"/>
	<path fill="#FFFFFF" d="M111.705,62.084h0.84v-1.389l1.039-0.65v2.039h1.311v0.92h-1.311v2.459c0,0.568,0.211,0.818,0.67,0.818
		c0.181,0,0.301-0.029,0.48-0.138l0.27,0.878c-0.27,0.129-0.529,0.18-0.809,0.18c-0.951,0-1.65-0.56-1.65-1.799v-2.398h-0.84V62.084
		z"/>
	<path fill="#FFFFFF" d="M117.686,64.023h0.869v-0.221c0-0.628-0.449-0.878-0.98-0.878c-0.41,0-0.77,0.218-0.939,0.669l-0.949-0.201
		c0.211-0.849,0.93-1.388,1.898-1.388c1.171,0,2.01,0.509,2.01,1.988v3.129h-0.879l-0.102-0.66c-0.328,0.461-0.848,0.74-1.559,0.74
		c-0.84,0-1.549-0.481-1.549-1.529C115.506,64.633,116.395,64.023,117.686,64.023 M117.234,66.281c0.641,0,1.32-0.41,1.32-1.279
		v-0.11h-0.91c-0.639,0-1.039,0.301-1.039,0.78C116.605,66.011,116.795,66.281,117.234,66.281"/>
	<rect x="120.666" y="60.045" fill="#FFFFFF" width="1.039" height="7.076"/>
	<path fill="none" stroke="#FFFFFF" stroke-width="2" stroke-miterlimit="10" d="M84.913,149.855
		c-2.988-1.63-3.913-3.638-3.913-6.77v-37.322c0-6.262-0.561-12.138,7.443-13.426"/>
	<path fill="#82CC7D" d="M87,74.425h4.264c3.58,0,6.48,4.124,6.48,9s-2.904,9-6.484,9H88"/>
	<path fill="none" stroke="#FFFFFF" stroke-width="2" stroke-miterlimit="10" d="M86.076,74.682h4.931
		c3.579,0,6.737,3.867,6.737,8.743s-2.904,9-6.484,9H88"/>
	<line fill="none" stroke="#FFFFFF" stroke-width="2" stroke-miterlimit="10" x1="40.667" y1="133.008" x2="81.821" y2="96.366"/>
	<line fill="none" stroke="#FFFFFF" stroke-width="2" stroke-miterlimit="10" x1="73.145" y1="151.637" x2="123.713" y2="143.097"/>
	<path fill="none" stroke="#FFFFFF" stroke-width="2" stroke-miterlimit="10" d="M135,129.261c0,7.822-6.551,14.164-14.277,14.164
		h-15.02c-7.726,0-13.703-6.342-13.703-14.164V99.589c0-7.822,5.977-14.164,13.703-14.164h15.02c7.727,0,14.277,6.342,14.277,14.164
		V129.261z M130,99.663c0-5.103-4.424-9.238-9.525-9.238h-14.523c-5.104,0-8.951,4.135-8.951,9.238v29.523
		c0,5.103,3.848,9.238,8.951,9.238h14.523c5.102,0,9.525-4.136,9.525-9.238V99.663z"/>
	<line fill="none" stroke="#FFFFFF" stroke-width="2" stroke-miterlimit="10" x1="97" y1="122.425" x2="130" y2="122.425"/>
	<line fill="none" stroke="#FFFFFF" stroke-width="2" stroke-miterlimit="10" x1="97" y1="99.425" x2="129" y2="99.425"/>
	<path fill="none" stroke="#FFFFFF" stroke-width="2" stroke-miterlimit="10" d="M116.199,130.862c0,1.904-1.543,3.448-3.447,3.448
		c-1.907,0-3.449-1.544-3.449-3.448c0-1.905,1.542-3.449,3.449-3.449C114.656,127.413,116.199,128.957,116.199,130.862z"/>
	<polyline fill="none" stroke="#FFFFFF" stroke-width="2" stroke-miterlimit="10" points="56,141.425 92,123.259 92,99.425 
		45.134,135.437 	"/>
	<line fill="none" stroke="#FFFFFF" stroke-width="2" stroke-miterlimit="10" x1="68" y1="109.425" x2="68" y2="148.425"/>
	<line fill="none" stroke="#FFFFFF" stroke-width="2" stroke-miterlimit="10" x1="56" y1="119.425" x2="56" y2="141.425"/>
	<line fill="none" stroke="#FFFFFF" stroke-width="2" stroke-miterlimit="10" x1="48" y1="126.425" x2="48" y2="137.425"/>
	<path fill="#82CC7D" d="M93.197,83.425c0,4.876-2.904,8.829-6.484,8.829s-6.485-3.953-6.485-8.829s2.905-8.829,6.485-8.829
		S93.197,78.549,93.197,83.425"/>
	<ellipse fill="none" stroke="#FFFFFF" stroke-width="2" stroke-miterlimit="10" cx="86.713" cy="83.425" rx="6.484" ry="8.829"/>
	<polyline fill="none" stroke="#FFFFFF" stroke-width="2" stroke-miterlimit="10" points="81.504,88.092 73,98.366 73,104.425 	"/>
	<path fill="#FFFFFF" d="M97.041,50.332c-0.187-0.121-0.324-0.162-0.486-0.162c-0.287,0-0.444,0.18-0.444,0.569v0.198h1.174v0.456
		h-1.174v2.566h-0.504v-2.566h-0.851v-0.456h0.851v-0.185c0-0.732,0.354-1.038,0.93-1.038c0.275,0,0.461,0.071,0.629,0.174
		L97.041,50.332z"/>
	<path fill="#FFFFFF" d="M99.465,50.889c0.924,0,1.486,0.726,1.486,1.559s-0.562,1.56-1.486,1.56s-1.488-0.727-1.488-1.56
		S98.541,50.889,99.465,50.889 M99.465,53.552c0.617,0,0.971-0.522,0.971-1.104c0-0.581-0.354-1.103-0.971-1.103
		s-0.971,0.522-0.971,1.103C98.494,53.03,98.848,53.552,99.465,53.552"/>
	<path fill="#FFFFFF" d="M103.873,51.896c-0.041-0.348-0.221-0.552-0.582-0.552c-0.527,0-1.025,0.498-1.025,1.524v1.091h-0.502
		v-3.022h0.502v0.557c0.234-0.366,0.613-0.606,1.117-0.606c0.6,0,0.959,0.361,0.994,1.008H103.873z"/>
	<polygon fill="#FFFFFF" points="95.52,40.766 95.52,40.867 95.52,47.241 96.053,47.241 96.202,47.241 96.329,47.241 96.329,40.766 
			"/>
	<path fill="#FFFFFF" d="M98.729,47.848c0.057,0,0.129-0.051,0.129-0.105v-7.584c0-0.055-0.072-0.101-0.129-0.101h-2.527
		c-0.055,0-0.075,0.022-0.075,0.051v0.151v0.506c0,0.055,0.02,0.102,0.075,0.102h1.718c0.057,0,0.129,0.044,0.129,0.099v5.967
		c0,0.055-0.072,0.104-0.129,0.104h-1.718c-0.055,0-0.075,0.019-0.075,0.047v0.152v0.506c0,0.054,0.02,0.105,0.075,0.105H98.729z"/>
	<polygon fill="#FFFFFF" points="99.869,40.766 99.869,40.867 99.869,47.241 100.549,47.241 100.68,47.241 100.68,40.766 	"/>
	<path fill="#FFFFFF" d="M100.578,47.844v-0.81c1.113,0,1.889-1.383,1.889-3.084c0-1.7-0.775-3.084-1.889-3.084v-0.808
		c1.518,0,2.697,1.746,2.697,3.892C103.275,46.097,102.096,47.844,100.578,47.844"/>
	<path fill="#FFFFFF" d="M92.182,45.355v1.115v0.36c0,0.605,0.387,1.017,0.998,1.017h0.172h0.496h0.584
		c0.029,0,0.076-0.051,0.076-0.105v-0.608c0-0.054-0.07-0.096-0.127-0.096h-0.58h-0.297h-0.183c-0.262,0-0.33-0.112-0.33-0.411
		v-0.177v-0.974v-0.594c0-0.609-0.248-0.834-0.551-0.945c0.303-0.109,0.551-0.334,0.551-0.943v-0.422v-1.07V41.25
		c0-0.294,0.058-0.382,0.33-0.382h0.228h0.289h0.594c0.029,0,0.076-0.047,0.076-0.102v-0.607c0-0.055-0.07-0.101-0.127-0.101h-0.486
		h-0.457H93.18c-0.611,0-0.998,0.397-0.998,0.989v0.317v1.323c0,0-0.021,0.304-0.035,0.407c-0.039,0.274-0.373,0.508-0.582,0.505
		h-0.317c-0.056,0-0.078,0.043-0.078,0.099v0.607c0,0.055,0.022,0.104,0.078,0.104h0.289c0.266-0.004,0.6,0.218,0.625,0.552
		C92.169,45.057,92.182,45.355,92.182,45.355"/>
	<path fill="#FFFFFF" d="M96.201,40.058h-0.287h-0.318c-0.057,0-0.077,0.046-0.077,0.101v0.187v0.42v0.102h0.077h0.605h0.127v-0.102
		v-0.607v-0.101H96.201z"/>
	<path fill="#FFFFFF" d="M95.52,47.135v0.287v0.32c0,0.055,0.02,0.106,0.076,0.106h0.186h0.42h0.127v-0.106v-0.607v-0.097h-0.127
		h-0.606H95.52V47.135z"/>
	<path fill="#FFFFFF" d="M100.549,40.058h-0.285h-0.32c-0.057,0-0.074,0.046-0.074,0.101v0.187v0.42v0.102h0.074h0.605h0.131v-0.102
		v-0.607v-0.101H100.549z"/>
	<path fill="#FFFFFF" d="M99.869,47.135v0.287v0.32c0,0.055,0.018,0.106,0.074,0.106h0.186h0.42h0.131v-0.106v-0.607v-0.097h-0.131
		h-0.605h-0.074V47.135z"/>
	<path fill="#FFFFFF" d="M104.928,45.355v1.115v0.36c0,0.605,0.381,1.017,0.992,1.017h0.172h0.496h0.584
		c0.026,0,0.082-0.051,0.082-0.105v-0.608c0-0.054-0.076-0.096-0.133-0.096h-0.58h-0.297h-0.184c-0.262,0-0.324-0.112-0.324-0.411
		v-0.177v-0.974v-0.594c0-0.195-0.057-0.373-0.102-0.474h-1.357c0.373,0.101,0.531,0.234,0.609,0.558
		C104.924,45.128,104.928,45.355,104.928,45.355"/>
	<path fill="#FFFFFF" d="M104.871,43.094c-0.078,0.265-0.254,0.403-0.566,0.505h1.275c0.078-0.202,0.156-0.337,0.156-0.606v-0.42
		v-1.07v-0.254c0-0.294,0.053-0.382,0.324-0.382h0.229h0.289h0.594c0.027,0,0.082-0.046,0.082-0.101v-0.608
		c0-0.054-0.076-0.1-0.133-0.1h-0.486h-0.457h-0.258c-0.612,0-0.992,0.396-0.992,0.989v0.317v1.323
		C104.928,42.687,104.91,42.961,104.871,43.094"/>
	<path fill="#FFFFFF" d="M105.068,44.01c0.205,0.074,0.428,0.195,0.566,0.398h1.486c0.057,0,0.134-0.048,0.134-0.103v-0.607
		c0-0.056-0.077-0.1-0.134-0.1h-1.541C105.479,43.801,105.236,43.948,105.068,44.01"/>
	<path fill="#FFFFFF" d="M103.986,43.599c-0.055,0-0.07,0.044-0.07,0.099v0.607c0,0.055,0.016,0.104,0.07,0.104h0.291h1.357
		c-0.092-0.204-0.316-0.342-0.479-0.405c0.168-0.062,0.322-0.203,0.424-0.405h-1.275H103.986z"/>
</g>
</svg>
