<?xml version="1.0" encoding="utf-8"?>
<!-- Generator: Adobe Illustrator 16.0.4, SVG Export Plug-In . SVG Version: 6.00 Build 0)  -->
<!DOCTYPE svg PUBLIC "-//W3C//DTD SVG 1.1//EN" "http://www.w3.org/Graphics/SVG/1.1/DTD/svg11.dtd">
<svg version="1.1" id="Ebene_1" xmlns="http://www.w3.org/2000/svg" xmlns:xlink="http://www.w3.org/1999/xlink" x="0px" y="0px"
	 width="198.425px" height="198.425px" viewBox="0 0 198.425 198.425" enable-background="new 0 0 198.425 198.425"
	 xml:space="preserve">
<polygon fill="#FFFFFF" points="39.212,133.768 39.212,64.658 99.212,30.098 159.212,64.658 159.212,133.768 99.212,168.328 "/>
<path fill="#9ECBC8" d="M99.212,32.982l57.5,33.12v66.221l-57.5,33.119l-57.5-33.119V66.102L99.212,32.982z M99.212,27.212l-62.5,36
	v72.001l62.5,36l62.5-36V63.212L99.212,27.212z"/>
<line fill="none" stroke="#9ECBC8" stroke-width="2" stroke-miterlimit="10" x1="92.425" y1="56" x2="106.425" y2="56"/>
<line fill="none" stroke="#9ECBC8" stroke-width="2" stroke-miterlimit="10" x1="99.425" y1="56" x2="99.425" y2="66"/>
<line fill="none" stroke="#9ECBC8" stroke-width="2" stroke-miterlimit="10" x1="99.425" y1="135" x2="99.425" y2="143"/>
<g>
	<path fill="none" stroke="#9ECBC8" stroke-width="2" stroke-miterlimit="10" d="M120.624,93.335c0,4.838-9.516,5.295-21.254,5.295
		c-11.737,0-21.253-0.532-21.253-5.295c0-11.738,9.516-21.253,21.253-21.253C111.108,72.082,120.624,81.597,120.624,93.335z"/>
	<path fill="none" stroke="#9ECBC8" stroke-width="2" stroke-miterlimit="10" d="M120.165,94.935c0-1.685-8.302-2.935-20.049-2.935
		H99.37c-11.747,0-21.253,1.307-21.253,2.991"/>
	<path fill="none" stroke="#9ECBC8" stroke-width="2" stroke-miterlimit="10" d="M78.118,106.061c0,1.685,8.302,2.938,20.049,2.938
		h0.746c11.747,0,21.253-1.308,21.253-2.992"/>
	<path fill="none" stroke="#9ECBC8" stroke-width="2" stroke-miterlimit="10" d="M93.425,72.357c0-3.475,2.816-6.292,6.292-6.292
		c3.475,0,6.292,2.817,6.292,6.292"/>
	<path fill="none" stroke="#9ECBC8" stroke-width="2" stroke-miterlimit="10" d="M120.259,106c-1.812-3-10.466-3.888-20.889-3.888
		c-11.738,0-21.254,0.441-21.254,5.279c0,11.081,8.484,20.155,19.309,21.139V135h4v-6.475c10.772-1.034,19.198-10.105,19.198-21.149
		c0-0.378-0.08-0.689-0.196-1.015L120.259,106z"/>
	<polyline fill="none" stroke="#9ECBC8" stroke-width="2" stroke-miterlimit="10" points="78.425,156 78.425,143 120.425,143 
		120.425,156 	"/>
	<polyline fill="none" stroke="#9ECBC8" stroke-width="2" stroke-miterlimit="10" points="70.89,143.598 46.425,129.503 
		46.425,68.432 63.715,58.129 70.89,53.853 	"/>
	<polyline fill="none" stroke="#9ECBC8" stroke-width="2" stroke-miterlimit="10" points="74.46,138.879 52.425,126.267 
		52.425,71.617 74.389,58.572 	"/>
	<polyline fill="none" stroke="#9ECBC8" stroke-width="2" stroke-miterlimit="10" points="78.12,133.449 58.425,122.543 
		58.425,75.282 78,64 	"/>
	<polyline fill="none" stroke="#9ECBC8" stroke-width="2" stroke-miterlimit="10" points="84.12,129.699 64.425,119.97 
		64.425,77.814 84,67.75 	"/>
	<polygon fill="#FFFFFF" points="80.837,75.25 76.954,71.367 72.663,67.077 67.97,62.383 61.587,56 78.116,46.405 89.091,66 	"/>
	<polygon fill="#FFFFFF" points="58.917,139.326 62.8,135.443 67.091,131.152 71.784,126.459 78.167,120.076 92.425,133.449 
		68.932,146.248 	"/>
	<polyline fill="none" stroke="#9ECBC8" stroke-width="2" stroke-miterlimit="10" points="126.96,143.598 151.425,129.503 
		151.425,68.432 134.135,58.129 126.96,53.853 	"/>
	<polyline fill="none" stroke="#9ECBC8" stroke-width="2" stroke-miterlimit="10" points="123.39,138.879 145.425,126.267 
		145.425,71.617 123.461,58.572 	"/>
	<polyline fill="none" stroke="#9ECBC8" stroke-width="2" stroke-miterlimit="10" points="119.729,133.449 139.425,122.543 
		139.425,75.282 119.85,64 	"/>
	<polyline fill="none" stroke="#9ECBC8" stroke-width="2" stroke-miterlimit="10" points="113.729,129.699 133.425,119.97 
		133.425,77.814 113.85,67.75 	"/>
	<polygon fill="#FFFFFF" points="117.013,75.25 120.896,71.367 125.187,67.077 129.88,62.383 136.263,56 119.733,46.405 108.759,66 
			"/>
	<polygon fill="#FFFFFF" points="138.933,139.326 135.05,135.443 130.759,131.152 126.065,126.459 119.683,120.076 105.425,133.449 
		128.918,146.248 	"/>
	<rect x="72.425" y="134" fill="#9ECBC8" width="53" height="12"/>
	<polygon fill="#FFFFFF" points="75.354,135.912 76.653,135.912 78.394,140.569 80.131,135.912 81.431,135.912 81.431,142.908 
		80.332,142.908 80.332,138.19 78.783,142.269 78.002,142.269 76.455,138.19 76.455,142.908 75.354,142.908 	"/>
	<path fill="#FFFFFF" d="M84.843,139.81h0.871v-0.22c0-0.63-0.451-0.88-0.98-0.88c-0.41,0-0.77,0.221-0.94,0.67l-0.949-0.199
		c0.209-0.85,0.93-1.39,1.899-1.39c1.17,0,2.009,0.51,2.009,1.989v3.128h-0.88l-0.1-0.659c-0.33,0.459-0.85,0.739-1.559,0.739
		c-0.84,0-1.549-0.479-1.549-1.529C82.665,140.419,83.554,139.81,84.843,139.81 M84.394,142.069c0.641,0,1.32-0.41,1.32-1.279
		v-0.111h-0.91c-0.64,0-1.039,0.301-1.039,0.78C83.765,141.798,83.955,142.069,84.394,142.069"/>
	<path fill="#FFFFFF" d="M90.063,137.791c0.34,0,0.65,0.08,0.92,0.22l0.93-0.5l0.42,0.75l-0.68,0.38
		c0.139,0.239,0.219,0.52,0.219,0.839c0,1.061-0.789,1.689-1.809,1.689c-0.301,0-0.58-0.06-0.811-0.15
		c-0.179,0.101-0.269,0.25-0.269,0.44c0,0.271,0.17,0.39,0.519,0.39h1.11c0.99,0,1.67,0.49,1.67,1.439
		c0,1.249-1.08,1.738-2.209,1.738c-1.27,0-2.219-0.559-2.219-1.658c0-0.43,0.17-0.779,0.43-1.02c-0.18-0.18-0.289-0.439-0.289-0.789
		c0-0.45,0.238-0.811,0.609-1.02c-0.221-0.271-0.34-0.631-0.34-1.061C88.265,138.431,89.043,137.791,90.063,137.791 M89.583,142.729
		c-0.18,0-0.35-0.011-0.51-0.03c-0.149,0.16-0.219,0.35-0.219,0.609c0,0.5,0.449,0.82,1.219,0.82c0.719,0,1.15-0.27,1.15-0.76
		c0-0.48-0.34-0.64-0.83-0.64H89.583z M90.063,140.3c0.469,0,0.799-0.32,0.799-0.82c0-0.499-0.33-0.818-0.799-0.818
		c-0.459,0-0.789,0.319-0.789,0.818C89.274,139.979,89.604,140.3,90.063,140.3"/>
	<path fill="#FFFFFF" d="M95.144,137.791c0.5,0,1.119,0.31,1.349,0.64v-2.599h1.04v7.076h-1.04v-0.579
		c-0.169,0.289-0.71,0.659-1.371,0.659c-1.488,0-2.248-0.989-2.248-2.599C92.874,138.831,93.634,137.791,95.144,137.791
		 M95.263,142.069c0.75,0,1.289-0.641,1.289-1.68s-0.539-1.68-1.289-1.68s-1.289,0.641-1.289,1.68S94.513,142.069,95.263,142.069"/>
	<path fill="#FFFFFF" d="M103.353,140.679h-3.568c0,0.74,0.43,1.391,1.248,1.391c0.541,0,1.061-0.301,1.32-0.85l0.89,0.35
		c-0.489,0.949-1.06,1.419-2.21,1.419c-1.658,0-2.348-1.399-2.348-2.599s0.689-2.599,2.348-2.599c1.609,0,2.32,1.31,2.32,2.438
		V140.679z M99.804,139.81h2.449c-0.09-0.56-0.471-1.1-1.221-1.1C100.343,138.71,99.913,139.181,99.804,139.81"/>
	<path fill="#FFFFFF" d="M106.882,142.988c-0.658,0-1.199-0.37-1.368-0.659v0.579h-1.04v-7.076h1.04v2.599
		c0.229-0.33,0.849-0.64,1.349-0.64c1.51,0,2.27,1.04,2.27,2.599C109.132,141.999,108.372,142.988,106.882,142.988 M106.743,138.71
		c-0.75,0-1.289,0.641-1.289,1.68s0.539,1.68,1.289,1.68s1.289-0.641,1.289-1.68S107.493,138.71,106.743,138.71"/>
	<path fill="#FFFFFF" d="M113.382,142.908v-0.859c-0.359,0.6-0.959,0.939-1.629,0.939c-0.879,0-1.479-0.53-1.479-1.509v-3.608h1.039
		v3.278c0,0.68,0.309,0.92,0.779,0.92c0.65,0,1.289-0.77,1.289-2.16v-2.038h1.039v5.037H113.382z"/>
	<path fill="#FFFFFF" d="M115.913,142.908v-5.037h1.039v0.839c0.35-0.6,0.951-0.919,1.49-0.919c0.27,0,0.49,0.06,0.639,0.12
		l-0.18,0.949c-0.16-0.1-0.379-0.15-0.59-0.15c-0.669,0-1.359,0.74-1.359,2.329v1.869H115.913z"/>
	<path fill="#FFFFFF" d="M121.472,137.791c0.34,0,0.65,0.08,0.92,0.22l0.93-0.5l0.421,0.75l-0.681,0.38
		c0.141,0.239,0.221,0.52,0.221,0.839c0,1.061-0.79,1.689-1.811,1.689c-0.299,0-0.578-0.06-0.809-0.15
		c-0.18,0.101-0.27,0.25-0.27,0.44c0,0.271,0.17,0.39,0.52,0.39h1.109c0.988,0,1.668,0.49,1.668,1.439
		c0,1.249-1.078,1.738-2.207,1.738c-1.27,0-2.219-0.559-2.219-1.658c0-0.43,0.17-0.779,0.43-1.02
		c-0.182-0.18-0.291-0.439-0.291-0.789c0-0.45,0.24-0.811,0.609-1.02c-0.219-0.271-0.34-0.631-0.34-1.061
		C119.673,138.431,120.452,137.791,121.472,137.791 M120.993,142.729c-0.18,0-0.35-0.011-0.51-0.03
		c-0.15,0.16-0.221,0.35-0.221,0.609c0,0.5,0.451,0.82,1.221,0.82c0.719,0,1.148-0.27,1.148-0.76c0-0.48-0.34-0.64-0.83-0.64
		H120.993z M121.472,140.3c0.471,0,0.801-0.32,0.801-0.82c0-0.499-0.33-0.818-0.801-0.818c-0.459,0-0.789,0.319-0.789,0.818
		C120.683,139.979,121.013,140.3,121.472,140.3"/>
	<path fill="#9ECBC8" d="M97.04,49.516c-0.186-0.12-0.324-0.162-0.486-0.162c-0.287,0-0.444,0.18-0.444,0.57v0.197h1.176v0.457
		H96.11v2.566h-0.504v-2.566h-0.851v-0.457h0.851v-0.185c0-0.732,0.354-1.038,0.93-1.038c0.275,0,0.463,0.072,0.631,0.174
		L97.04,49.516z"/>
	<path fill="#9ECBC8" d="M99.464,50.073c0.924,0,1.488,0.726,1.488,1.559c0,0.834-0.564,1.56-1.488,1.56
		c-0.922,0-1.486-0.726-1.486-1.56C97.978,50.799,98.542,50.073,99.464,50.073 M99.464,52.736c0.619,0,0.973-0.522,0.973-1.104
		c0-0.581-0.354-1.103-0.973-1.103c-0.617,0-0.971,0.522-0.971,1.103C98.493,52.214,98.847,52.736,99.464,52.736"/>
	<path fill="#9ECBC8" d="M103.874,51.081c-0.043-0.348-0.223-0.552-0.582-0.552c-0.527,0-1.025,0.498-1.025,1.524v1.091h-0.504
		v-3.022h0.504v0.557c0.234-0.366,0.611-0.605,1.115-0.605c0.6,0,0.959,0.36,0.996,1.007H103.874z"/>
	<polygon fill="#9ECBC8" points="95.521,39.951 95.521,40.051 95.521,46.426 96.051,46.426 96.203,46.426 96.33,46.426 
		96.33,39.951 	"/>
	<path fill="#9ECBC8" d="M98.729,47.032c0.055,0,0.129-0.05,0.129-0.105v-7.584c0-0.056-0.074-0.101-0.129-0.101h-2.527
		c-0.057,0-0.077,0.023-0.077,0.051v0.151v0.505c0,0.056,0.02,0.103,0.077,0.103h1.718c0.055,0,0.129,0.044,0.129,0.1v5.965
		c0,0.056-0.074,0.105-0.129,0.105h-1.718c-0.057,0-0.077,0.019-0.077,0.047v0.152v0.506c0,0.055,0.02,0.105,0.077,0.105H98.729z"/>
	<polygon fill="#9ECBC8" points="99.87,39.951 99.87,40.051 99.87,46.426 100.55,46.426 100.679,46.426 100.679,39.951 	"/>
	<path fill="#9ECBC8" d="M100.577,47.028v-0.809c1.113,0,1.891-1.383,1.891-3.084c0-1.7-0.777-3.084-1.891-3.084v-0.809
		c1.52,0,2.699,1.746,2.699,3.893C103.276,45.281,102.097,47.028,100.577,47.028"/>
	<path fill="#9ECBC8" d="M92.181,44.541v1.115v0.359c0,0.605,0.389,1.018,1,1.018h0.172h0.496h0.584
		c0.027,0,0.074-0.051,0.074-0.106v-0.607c0-0.055-0.07-0.097-0.125-0.097H93.8h-0.297H93.32c-0.26,0-0.328-0.111-0.328-0.41v-0.178
		v-0.973v-0.594c0-0.61-0.249-0.835-0.551-0.945c0.302-0.11,0.551-0.335,0.551-0.944v-0.422v-1.069v-0.254
		c0-0.294,0.058-0.382,0.328-0.382h0.228h0.291h0.594c0.027,0,0.074-0.046,0.074-0.101v-0.607c0-0.056-0.07-0.101-0.125-0.101
		h-0.486h-0.459h-0.256c-0.611,0-1,0.396-1,0.988v0.318v1.323c0,0-0.02,0.303-0.035,0.407c-0.037,0.273-0.373,0.508-0.58,0.505
		h-0.319c-0.056,0-0.078,0.043-0.078,0.099v0.607c0,0.055,0.022,0.103,0.078,0.103h0.291c0.264-0.004,0.6,0.219,0.625,0.552
		C92.171,44.242,92.181,44.541,92.181,44.541"/>
	<path fill="#9ECBC8" d="M96.202,39.242h-0.287h-0.32c-0.057,0-0.077,0.046-0.077,0.101v0.187v0.42v0.102h0.077h0.607h0.127V39.95
		v-0.607v-0.101H96.202z"/>
	<path fill="#9ECBC8" d="M95.521,46.32v0.287v0.32c0,0.055,0.018,0.105,0.074,0.105h0.188h0.42h0.127v-0.105V46.32v-0.097h-0.127
		h-0.608h-0.074V46.32z"/>
	<path fill="#9ECBC8" d="M100.55,39.242h-0.287h-0.32c-0.057,0-0.072,0.046-0.072,0.101v0.187v0.42v0.102h0.072h0.607h0.129V39.95
		v-0.607v-0.101H100.55z"/>
	<path fill="#9ECBC8" d="M99.87,46.32v0.287v0.32c0,0.055,0.016,0.105,0.072,0.105h0.188h0.42h0.129v-0.105V46.32v-0.097h-0.129
		h-0.607H99.87V46.32z"/>
	<path fill="#9ECBC8" d="M104.929,44.541v1.115v0.359c0,0.605,0.379,1.018,0.992,1.018h0.172h0.494h0.584
		c0.028,0,0.084-0.051,0.084-0.106v-0.607c0-0.055-0.078-0.097-0.133-0.097h-0.582h-0.297h-0.184c-0.262,0-0.322-0.111-0.322-0.41
		v-0.178v-0.973v-0.594c0-0.196-0.057-0.374-0.102-0.475h-1.359c0.373,0.101,0.533,0.235,0.609,0.559
		C104.925,44.313,104.929,44.541,104.929,44.541"/>
	<path fill="#9ECBC8" d="M104.87,42.278c-0.078,0.265-0.254,0.404-0.564,0.505h1.273c0.078-0.202,0.158-0.337,0.158-0.605v-0.421
		v-1.069v-0.254c0-0.295,0.051-0.382,0.322-0.382h0.229h0.289h0.594c0.029,0,0.084-0.046,0.084-0.102v-0.607
		c0-0.055-0.078-0.101-0.133-0.101h-0.486h-0.459h-0.256c-0.614,0-0.992,0.397-0.992,0.989v0.318v1.322
		C104.929,41.871,104.909,42.146,104.87,42.278"/>
	<path fill="#9ECBC8" d="M105.067,43.194c0.205,0.075,0.43,0.196,0.568,0.398h1.486c0.055,0,0.134-0.047,0.134-0.103v-0.607
		c0-0.056-0.079-0.099-0.134-0.099h-1.543C105.478,42.986,105.237,43.132,105.067,43.194"/>
	<path fill="#9ECBC8" d="M103.987,42.783c-0.057,0-0.07,0.043-0.07,0.099v0.607c0,0.055,0.014,0.104,0.07,0.104h0.289h1.359
		c-0.092-0.203-0.318-0.342-0.48-0.405c0.17-0.062,0.322-0.203,0.424-0.405h-1.273H103.987z"/>
</g>
</svg>
