<?xml version="1.0" encoding="utf-8"?>
<!-- Generator: Adobe Illustrator 16.0.4, SVG Export Plug-In . SVG Version: 6.00 Build 0)  -->
<!DOCTYPE svg PUBLIC "-//W3C//DTD SVG 1.1//EN" "http://www.w3.org/Graphics/SVG/1.1/DTD/svg11.dtd">
<svg version="1.1" id="Ebene_1" xmlns="http://www.w3.org/2000/svg" xmlns:xlink="http://www.w3.org/1999/xlink" x="0px" y="0px"
	 width="198.425px" height="198.425px" viewBox="0 0 198.425 198.425" enable-background="new 0 0 198.425 198.425"
	 xml:space="preserve">
<polygon fill="#659ED6" points="161.713,135.213 99.213,171.213 36.713,135.213 36.713,63.212 99.213,27.212 161.713,63.212 "/>
<polygon fill="none" stroke="#FFFFFF" stroke-width="2" stroke-miterlimit="10" points="157.713,133.045 99.213,166.879 
	40.713,133.045 40.713,65.379 99.213,31.545 157.713,65.379 "/>
<g>
	<path fill="none" stroke="#FFFFFF" stroke-width="2" stroke-miterlimit="10" d="M79.713,107.845c0,0,1.66-2.15,3.912-2.134
		c1.559,0.012,3.733,1.246,4.74,2.134"/>
	<path fill="none" stroke="#FFFFFF" stroke-width="2" stroke-miterlimit="10" d="M105.906,104.288c0,0-2.957-1.3-5.209-1.283
		c-1.561,0.013-3.797,2.185-4.805,3.074"/>
	<path fill="none" stroke="#FFFFFF" stroke-width="2" stroke-miterlimit="10" d="M77.262,104.28c0,0,0-2.02,1.695-2.621
		c1.664-0.592,6.563,1.267,8.944,2.621c0.541,0.309,2.047,1.431,2.047,1.431s1.322,1.066,1.084,12.505c0,0-0.059,3.021,1.718,2.962
		c1.78-0.061,2.504-0.78,2.963-1.481c1.008-1.542,3.615-1.423,3.227,1.066"/>
	<circle fill="none" stroke="#FFFFFF" stroke-width="2" stroke-miterlimit="10" cx="83.352" cy="107.24" r="1.545"/>
	<path fill="none" stroke="#FFFFFF" stroke-width="2" stroke-miterlimit="10" d="M102.934,104.534c0,0.854-0.689,1.545-1.545,1.545
		c-0.852,0-1.543-0.691-1.543-1.545c0-0.853,0.691-1.545,1.543-1.545C102.244,102.989,102.934,103.682,102.934,104.534z"/>
	<path fill="none" stroke="#FFFFFF" stroke-width="2" stroke-miterlimit="10" d="M90.736,102.989c0,0,1.777,1.595,3.141,0.824
		c1.363-0.771,7.052-5.096,9.716-4.799c2.668,0.295,5.098,2.533,5.098,2.533"/>
	<path fill="none" stroke="#FFFFFF" stroke-width="2" stroke-miterlimit="10" d="M89.018,126.689c0,0,2.625-2.342,4.445-1.538
		c1.067,0.471,2.401,0.588,3.346-0.357c1.105-1.107,5.068-0.892,6.727-0.237"/>
	<path fill="none" stroke="#FFFFFF" stroke-width="2" stroke-miterlimit="10" d="M92.928,129.592c0,0,1.814-1.718,6.785-1.065"/>
	<path fill="none" stroke="#FFFFFF" stroke-width="2" stroke-miterlimit="10" d="M90.736,82.033c0,0-1.371-4.735-7.385-2.48
		c-6.011,2.254-11.207,0.497-12.021-2.856c-1.602-6.603,4.871-8.135,4.871-8.135"/>
	<path fill="none" stroke="#FFFFFF" stroke-width="2" stroke-miterlimit="10" d="M90.736,82.033
		c-1.975-0.684-4.76-1.496-9.846,3.014c-5.082,4.508-10.299,4.376-12.57,2.623c-4.012-3.095-4.803-10.912,3.01-12.551"/>
	<path fill="none" stroke="#FFFFFF" stroke-width="2" stroke-miterlimit="10" d="M90.602,81.685c0,0,4.111,12.557,12.332,4.101"/>
	<path fill="none" stroke="#FFFFFF" stroke-width="2" stroke-miterlimit="10" d="M74.525,88.923c0,0,0.139,16.74,2.736,19.862
		c4.258,5.115,2.389,12.583,10.268,20.807c4.889,5.102,7.346,6.916,9.685,6.578c3.657-0.527,9.68-2.493,11.838-5.291
		c5.297-6.863,11.529-12.432,11.527-24.103"/>
	<path fill="none" stroke="#FFFFFF" stroke-width="2" stroke-miterlimit="10" d="M70.775,88.812c0,0-6.814,1.64-2.305,6.812
		c4.51,5.173,0.451,8.401-2.713,6.703"/>
	<path fill="none" stroke="#FFFFFF" stroke-width="2" stroke-miterlimit="10" d="M75.301,101.512c0,0-4.525,0.814-4.207,4.567
		c0.285,3.352,5.35,2.71,1.213,8.272c-4.139,5.562,3.529,8.718,4.955,4.659"/>
	<path fill="none" stroke="#FFFFFF" stroke-width="2" stroke-miterlimit="10" d="M60.805,104.024c0,0,3.293,7.312,10.289,2.055"/>
	<path fill="none" stroke="#FFFFFF" stroke-width="2" stroke-miterlimit="10" d="M71.33,116.147
		c-2.107,3.201-10.525,0.271-5.381-5.704"/>
	<path fill="none" stroke="#FFFFFF" stroke-width="2" stroke-miterlimit="10" d="M93.461,80.707c0,0-4.166-6.465-9.422-5.664
		c-6.777,1.032-13.264-9.468-0.687-11.564"/>
	<path fill="none" stroke="#FFFFFF" stroke-width="2" stroke-miterlimit="10" d="M93.461,80.473c0,0-0.219-3.924,1.916-6.896
		c3.602-5.014-3.33-5.014-3.721-8.567c-0.306-2.806-0.338-6.765,8.68-6.313"/>
	<path fill="none" stroke="#FFFFFF" stroke-width="2" stroke-miterlimit="10" d="M93.461,81.505c0-12.175-7.947-8.81-9.422-12.212
		c-2.232-5.148,0-9.718,8.139-8.46"/>
	<path fill="none" stroke="#FFFFFF" stroke-width="2" stroke-miterlimit="10" d="M97.76,81.505c0,0-0.264-14.649,8.146-14.275
		c8.41,0.373,4.309,13.477,12.658,15.254"/>
	<path fill="none" stroke="#FFFFFF" stroke-width="2" stroke-miterlimit="10" d="M99.713,71.423c0,0-1.955-10.801,9.609-10.587
		c7.973,0.148,7.479,10.124,11.758,19.637c3.834,8.516,14.467,4.725,15.252,0"/>
	<path fill="none" stroke="#FFFFFF" stroke-width="2" stroke-miterlimit="10" d="M97.498,81.982c0,0,6.896-11.549,11.193-4.685
		c2.539,4.057,1.195,7.82,7.543,8.083c5.611,0.235,0.264,8.573,14.327,3.331c7.854-2.926,11.325,3.532,8.085,6.68"/>
	<path fill="none" stroke="#FFFFFF" stroke-width="2" stroke-miterlimit="10" d="M105.021,80.707c0,0-0.807,7.834,6.525,8.005
		c9.033,0.211,1.834,4.645,11,6.173c6.047,1.008,5.191,11.384-1.24,11.117c-6.99-0.291-4.736-7.721-1.918-8.284
		c2.801-0.561,5.299,3.829,1.281,4.385"/>
	<path fill="none" stroke="#FFFFFF" stroke-width="2" stroke-miterlimit="10" d="M126.064,89.977c0,0,10.268,4.774,10.268,11.523
		c0,4.502-6.227,4.655-6.453,0.138"/>
	<path fill="none" stroke="#FFFFFF" stroke-width="2" stroke-miterlimit="10" d="M122.949,73.48
		c0.125,6.06,6.598,8.024,10.193,3.853"/>
	<path fill="none" stroke="#FFFFFF" stroke-width="2" stroke-miterlimit="10" d="M81.44,119.588c0,0-3.188,8.353-10.146,15.792
		c0,0,5.061-1.702,10.127-1.251c5.067,0.45,13.579,8.557,13.579,8.557V136"/>
	<path fill="none" stroke="#FFFFFF" stroke-width="2" stroke-miterlimit="10" d="M105.021,133.788l0.277,6.868
		c0,0,3.605-8.793,9.92-9.02c6.312-0.225,15.67-0.368,17.924-2.045l-9.826-23.896"/>
	<rect x="84.5" y="140.5" fill="#659ED6" width="29" height="12"/>
	<rect x="84.5" y="140.5" fill="none" stroke="#FFFFFF" stroke-miterlimit="10" width="29" height="12"/>
	<path fill="#FFFFFF" d="M90.873,142.329c1.158,0,1.959,0.619,1.959,1.828c0,0.54-0.301,1.13-0.711,1.35
		c0.66,0.279,1.07,0.949,1.07,1.759c0,1.31-0.82,2.06-2.199,2.06h-2.598v-6.996H90.873z M89.494,143.368v1.719h1.279
		c0.619,0,0.959-0.289,0.959-0.859s-0.34-0.859-0.959-0.859H89.494z M89.494,146.126v2.159h1.348c0.81,0,1.23-0.38,1.23-1.079
		s-0.42-1.08-1.23-1.08H89.494z"/>
	<path fill="#FFFFFF" d="M96.592,144.208c1.561,0,2.479,1.179,2.479,2.598c0,1.42-0.917,2.6-2.479,2.6
		c-1.559,0-2.479-1.18-2.479-2.6C94.113,145.387,95.033,144.208,96.592,144.208 M96.592,148.485c0.91,0,1.381-0.83,1.381-1.68
		s-0.471-1.679-1.381-1.679c-0.908,0-1.379,0.829-1.379,1.679S95.684,148.485,96.592,148.485"/>
	<path fill="#FFFFFF" d="M101.264,144.288v0.859c0.359-0.6,0.959-0.939,1.629-0.939c0.879,0,1.479,0.529,1.479,1.509v3.608h-1.039
		v-3.279c0-0.68-0.309-0.919-0.779-0.919c-0.65,0-1.289,0.77-1.289,2.159v2.039h-1.039v-5.037H101.264z"/>
	<path fill="#FFFFFF" d="M106.773,144.288v0.859c0.359-0.6,0.959-0.939,1.629-0.939c0.879,0,1.479,0.529,1.479,1.509v3.608h-1.039
		v-3.279c0-0.68-0.309-0.919-0.779-0.919c-0.65,0-1.289,0.77-1.289,2.159v2.039h-1.039v-5.037H106.773z"/>
	<line fill="none" stroke="#FFFFFF" stroke-width="2" stroke-miterlimit="10" x1="47" y1="70" x2="47" y2="129"/>
	<line fill="none" stroke="#FFFFFF" stroke-width="2" stroke-miterlimit="10" x1="53" y1="80" x2="53" y2="119"/>
	<line fill="none" stroke="#FFFFFF" stroke-width="2" stroke-miterlimit="10" x1="152" y1="129" x2="152" y2="70"/>
	<line fill="none" stroke="#FFFFFF" stroke-width="2" stroke-miterlimit="10" x1="146" y1="119" x2="146" y2="80"/>
	<path fill="#FFFFFF" d="M97.041,50.332c-0.187-0.121-0.324-0.162-0.486-0.162c-0.287,0-0.444,0.18-0.444,0.569v0.198h1.174v0.456
		h-1.174v2.566h-0.504v-2.566h-0.851v-0.456h0.851v-0.185c0-0.732,0.354-1.038,0.93-1.038c0.275,0,0.461,0.071,0.629,0.174
		L97.041,50.332z"/>
	<path fill="#FFFFFF" d="M99.465,50.889c0.924,0,1.486,0.726,1.486,1.559s-0.562,1.56-1.486,1.56s-1.488-0.727-1.488-1.56
		S98.541,50.889,99.465,50.889 M99.465,53.552c0.617,0,0.971-0.522,0.971-1.104c0-0.581-0.354-1.103-0.971-1.103
		s-0.971,0.522-0.971,1.103C98.494,53.03,98.848,53.552,99.465,53.552"/>
	<path fill="#FFFFFF" d="M103.873,51.896c-0.041-0.348-0.221-0.552-0.582-0.552c-0.527,0-1.025,0.498-1.025,1.524v1.091h-0.502
		v-3.022h0.502v0.557c0.234-0.366,0.613-0.606,1.117-0.606c0.6,0,0.959,0.361,0.994,1.008H103.873z"/>
	<polygon fill="#FFFFFF" points="95.52,40.766 95.52,40.867 95.52,47.241 96.053,47.241 96.202,47.241 96.329,47.241 96.329,40.766 
			"/>
	<path fill="#FFFFFF" d="M98.729,47.848c0.057,0,0.129-0.051,0.129-0.105v-7.584c0-0.055-0.072-0.101-0.129-0.101h-2.527
		c-0.055,0-0.075,0.022-0.075,0.051v0.151v0.506c0,0.055,0.02,0.102,0.075,0.102h1.718c0.057,0,0.129,0.044,0.129,0.099v5.967
		c0,0.055-0.072,0.104-0.129,0.104h-1.718c-0.055,0-0.075,0.019-0.075,0.047v0.152v0.506c0,0.054,0.02,0.105,0.075,0.105H98.729z"/>
	<polygon fill="#FFFFFF" points="99.869,40.766 99.869,40.867 99.869,47.241 100.549,47.241 100.68,47.241 100.68,40.766 	"/>
	<path fill="#FFFFFF" d="M100.578,47.844v-0.81c1.113,0,1.889-1.383,1.889-3.084c0-1.7-0.775-3.084-1.889-3.084v-0.808
		c1.518,0,2.697,1.746,2.697,3.892C103.275,46.097,102.096,47.844,100.578,47.844"/>
	<path fill="#FFFFFF" d="M92.182,45.355v1.115v0.36c0,0.605,0.387,1.017,0.998,1.017h0.172h0.496h0.584
		c0.029,0,0.076-0.051,0.076-0.105v-0.608c0-0.054-0.07-0.096-0.127-0.096h-0.58h-0.297h-0.183c-0.262,0-0.33-0.112-0.33-0.411
		v-0.177v-0.974v-0.594c0-0.609-0.248-0.834-0.551-0.945c0.303-0.109,0.551-0.334,0.551-0.943v-0.422v-1.07V41.25
		c0-0.294,0.058-0.382,0.33-0.382h0.228h0.289h0.594c0.029,0,0.076-0.047,0.076-0.102v-0.607c0-0.055-0.07-0.101-0.127-0.101h-0.486
		h-0.457H93.18c-0.611,0-0.998,0.397-0.998,0.989v0.317v1.323c0,0-0.021,0.304-0.035,0.407c-0.039,0.274-0.373,0.508-0.582,0.505
		h-0.317c-0.056,0-0.078,0.043-0.078,0.099v0.607c0,0.055,0.022,0.104,0.078,0.104h0.289c0.266-0.004,0.6,0.218,0.625,0.552
		C92.169,45.057,92.182,45.355,92.182,45.355"/>
	<path fill="#FFFFFF" d="M96.201,40.058h-0.287h-0.318c-0.057,0-0.077,0.046-0.077,0.101v0.187v0.42v0.102h0.077h0.605h0.127v-0.102
		v-0.607v-0.101H96.201z"/>
	<path fill="#FFFFFF" d="M95.52,47.135v0.287v0.32c0,0.055,0.02,0.106,0.076,0.106h0.186h0.42h0.127v-0.106v-0.607v-0.097h-0.127
		h-0.606H95.52V47.135z"/>
	<path fill="#FFFFFF" d="M100.549,40.058h-0.285h-0.32c-0.057,0-0.074,0.046-0.074,0.101v0.187v0.42v0.102h0.074h0.605h0.131v-0.102
		v-0.607v-0.101H100.549z"/>
	<path fill="#FFFFFF" d="M99.869,47.135v0.287v0.32c0,0.055,0.018,0.106,0.074,0.106h0.186h0.42h0.131v-0.106v-0.607v-0.097h-0.131
		h-0.605h-0.074V47.135z"/>
	<path fill="#FFFFFF" d="M104.928,45.355v1.115v0.36c0,0.605,0.381,1.017,0.992,1.017h0.172h0.496h0.584
		c0.026,0,0.082-0.051,0.082-0.105v-0.608c0-0.054-0.076-0.096-0.133-0.096h-0.58h-0.297h-0.184c-0.262,0-0.324-0.112-0.324-0.411
		v-0.177v-0.974v-0.594c0-0.195-0.057-0.373-0.102-0.474h-1.357c0.373,0.101,0.531,0.234,0.609,0.558
		C104.924,45.128,104.928,45.355,104.928,45.355"/>
	<path fill="#FFFFFF" d="M104.871,43.094c-0.078,0.265-0.254,0.403-0.566,0.505h1.275c0.078-0.202,0.156-0.337,0.156-0.606v-0.42
		v-1.07v-0.254c0-0.294,0.053-0.382,0.324-0.382h0.229h0.289h0.594c0.027,0,0.082-0.046,0.082-0.101v-0.608
		c0-0.054-0.076-0.1-0.133-0.1h-0.486h-0.457h-0.258c-0.612,0-0.992,0.396-0.992,0.989v0.317v1.323
		C104.928,42.687,104.91,42.961,104.871,43.094"/>
	<path fill="#FFFFFF" d="M105.068,44.01c0.205,0.074,0.428,0.195,0.566,0.398h1.486c0.057,0,0.133-0.048,0.133-0.103v-0.607
		c0-0.056-0.076-0.1-0.133-0.1h-1.541C105.479,43.801,105.236,43.948,105.068,44.01"/>
	<path fill="#FFFFFF" d="M103.986,43.599c-0.055,0-0.07,0.044-0.07,0.099v0.607c0,0.055,0.016,0.104,0.07,0.104h0.291h1.357
		c-0.092-0.204-0.316-0.342-0.479-0.405c0.168-0.062,0.322-0.203,0.424-0.405h-1.275H103.986z"/>
</g>
</svg>
