<?xml version="1.0" encoding="utf-8"?>
<!-- Generator: Adobe Illustrator 16.0.4, SVG Export Plug-In . SVG Version: 6.00 Build 0)  -->
<!DOCTYPE svg PUBLIC "-//W3C//DTD SVG 1.1//EN" "http://www.w3.org/Graphics/SVG/1.1/DTD/svg11.dtd">
<svg version="1.1" id="Ebene_1" xmlns="http://www.w3.org/2000/svg" xmlns:xlink="http://www.w3.org/1999/xlink" x="0px" y="0px"
	 width="198.425px" height="198.425px" viewBox="0 0 198.425 198.425" enable-background="new 0 0 198.425 198.425"
	 xml:space="preserve">
<polygon fill="#FFFFFF" points="39.425,133.768 39.425,64.658 99.425,30.097 159.425,64.658 159.425,133.768 99.425,168.328 "/>
<path fill="#050507" d="M98.925,32.983l57.5,33.119v66.221l-57.5,33.119l-57.5-33.119V66.102L98.925,32.983z M98.925,27.212
	l-62.5,36v72.001l62.5,36l62.5-36V63.212L98.925,27.212z"/>
<polygon fill="none" stroke="#050507" stroke-miterlimit="10" points="152.925,131.035 98.925,162.262 44.925,131.035 
	44.925,68.583 98.925,37.357 152.925,68.583 "/>
<g>
	<path fill="none" stroke="#050507" stroke-width="2" stroke-miterlimit="10" d="M142.009,84.916
		c-6.917,5.583-11.444-0.92-16.167,0.25c-1.339,0.332-4.083,5.834-1.833,10.001s1.021,11.821-2.729,8.188
		c-3.75-3.632-8.99-5.115-8.99-5.115c-11.683-1.533-15.479-9.082-15.479-9.082C104.127,72.028,92.425,67,92.425,67v-4.607
		l-3.648,3.834l-12.352,5.936V75l2.349,1.351l-0.863,1.562l1.682,1.166l4.831-1.61l2.408,1.407"/>
	<path fill="none" stroke="#050507" stroke-width="2" stroke-miterlimit="10" d="M106.766,114.211l-0.34-2.38
		c0,0-13.166,1.167-21.25-7.25"/>
	<path fill="none" stroke="#050507" stroke-width="2" stroke-miterlimit="10" d="M85.423,99.889c0,0,0.96,5.262-1.54,4.762
		s-10.29-3.937-10.29-3.937l0.167,3.876l1.665,3.41h3l-1.415,5.581c0,0-6.168-3.972-6.334-6.819s-0.458-10.931-0.458-10.931
		l7.207,1.417V95"/>
	<path fill="none" stroke="#050507" stroke-width="2" stroke-miterlimit="10" d="M74.52,96.694l-4.428-8.362l-3.667,4.179V99
		l-4.415,1.696l0.75-9.698l7.458-8.917l2.792,1.667l5.25,6.833l8.666-11.833c0,0,4.129,0.975,4.5-2.919"/>
	<path fill="none" stroke="#050507" stroke-width="2" stroke-miterlimit="10" d="M84.083,68.654
		c0.714,1.928,2.849,2.906,4.774,2.193"/>
	<path fill="none" stroke="#050507" stroke-width="2" stroke-miterlimit="10" d="M141.656,90.435
		c-9.021,3.848-9.877-2.969-15.606-0.747"/>
	<path fill="none" stroke="#050507" stroke-width="2" stroke-miterlimit="10" d="M140.142,95.276
		c-5.268,3.054-8.411-2.919-13.499-1.49"/>
	<path fill="none" stroke="#050507" stroke-width="2" stroke-miterlimit="10" d="M137.231,99.966
		c-3.795,1.003-5.137-3.095-9.588-1.845"/>
	<path fill="none" stroke="#050507" stroke-width="2" stroke-miterlimit="10" d="M135.993,104.58
		c-2.912-0.04-4.418-3.108-8.35-2.004"/>
	<path fill="none" stroke="#050507" stroke-width="2" stroke-miterlimit="10" d="M133.263,108.625
		c-1.848-1.275-3.38-2.711-6.838-2.029"/>
	<path fill="none" stroke="#050507" stroke-width="2" stroke-miterlimit="10" d="M129.219,110.874c-3-0.626-5.256-1.61-5.256-1.61
		c-0.396,0.989-1.454,6.639-4.954,8.319l4.417,5.833L116.343,136h-4.918l0.668-3.752l5.928-6.948l-6.64-5.693l-0.076,6.08
		L101.004,136h-5.087l1.073-3.664l8.758-7.517l-0.479-5.855c0,0-4.991-3.315-5.157-8.147"/>
	<path fill="none" stroke="#050507" stroke-width="2" stroke-miterlimit="10" d="M99.261,68.654
		c1.713-1.631,5.227-3.217,9.494-1.804"/>
	<path fill="none" stroke="#050507" stroke-width="2" stroke-miterlimit="10" d="M102.681,75.943c2.313-0.49,4.086-0.86,8.158,0.325
		"/>
	<path fill="none" stroke="#050507" stroke-width="2" stroke-miterlimit="10" d="M102.538,83.847
		c2.299,0.546,4.061,0.968,7.234,3.779"/>
	<path fill="none" stroke="#050507" stroke-width="2" stroke-miterlimit="10" d="M101.724,72.222
		c0.813-0.539,3.47-1.612,6.514-0.972"/>
	<path fill="none" stroke="#050507" stroke-width="2" stroke-miterlimit="10" d="M102.681,79.733
		c0.975-0.056,3.766,0.093,6.537,1.579"/>
	<path fill="none" stroke="#050507" stroke-width="2" stroke-miterlimit="10" d="M101.487,62.999c-3.375,0-4.626,1.145-5.2,2.604
		c0,0,9.868,5.972,4.949,22.043c0,0,3.081,0.999,4.512,3.759"/>
	<rect x="74.925" y="132.5" fill="#FFFFFF" width="49" height="12"/>
	<rect x="74.925" y="132.5" fill="none" stroke="#050507" stroke-miterlimit="10" width="49" height="12"/>
	<path fill="#050507" d="M82.382,136.157c-0.279-0.53-0.629-0.77-1.039-0.77c-0.449,0-0.731,0.35-0.731,0.76
		c0,1.379,3,1.109,3,3.268c0,1.279-0.929,2.129-2.189,2.129c-1.23,0-2.059-0.83-2.309-1.949l0.899-0.569
		c0.201,0.779,0.611,1.479,1.41,1.479c0.629,0,1.068-0.43,1.068-1.05c0-1.369-2.976-1.069-2.976-3.229
		c0-1.06,0.808-1.839,1.828-1.839c0.959,0,1.559,0.52,1.93,1.18L82.382,136.157z"/>
	<path fill="#050507" d="M84.204,136.427h0.84v-1.389l1.039-0.65v2.039h1.309v0.92h-1.309v2.458c0,0.569,0.209,0.819,0.67,0.819
		c0.18,0,0.299-0.029,0.478-0.14l0.272,0.88c-0.272,0.129-0.531,0.18-0.811,0.18c-0.949,0-1.648-0.56-1.648-1.799v-2.398h-0.84
		V136.427z"/>
	<path fill="#050507" d="M91.542,141.464v-0.859c-0.359,0.6-0.959,0.939-1.629,0.939c-0.879,0-1.478-0.529-1.478-1.51v-3.607h1.039
		v3.278c0,0.679,0.308,0.919,0.779,0.919c0.65,0,1.289-0.77,1.289-2.158v-2.039h1.039v5.037H91.542z"/>
	<path fill="#050507" d="M93.573,136.427h0.84v-1.389l1.039-0.65v2.039h1.31v0.92h-1.31v2.458c0,0.569,0.211,0.819,0.67,0.819
		c0.18,0,0.301-0.029,0.48-0.14l0.27,0.88c-0.27,0.129-0.529,0.18-0.809,0.18c-0.951,0-1.65-0.56-1.65-1.799v-2.398h-0.84V136.427z"
		/>
	<path fill="#050507" d="M97.483,136.427h0.84v-1.389l1.039-0.65v2.039h1.311v0.92h-1.311v2.458c0,0.569,0.211,0.819,0.67,0.819
		c0.18,0,0.301-0.029,0.48-0.14l0.27,0.88c-0.27,0.129-0.529,0.18-0.809,0.18c-0.951,0-1.65-0.56-1.65-1.799v-2.398h-0.84V136.427z"
		/>
	<path fill="#050507" d="M103.792,136.347c0.34,0,0.65,0.08,0.92,0.22l0.93-0.499l0.42,0.749l-0.68,0.38
		c0.141,0.24,0.221,0.52,0.221,0.84c0,1.059-0.791,1.688-1.811,1.688c-0.299,0-0.578-0.06-0.809-0.149
		c-0.18,0.1-0.27,0.25-0.27,0.439c0,0.27,0.17,0.39,0.52,0.39h1.109c0.988,0,1.668,0.489,1.668,1.439c0,1.249-1.078,1.74-2.207,1.74
		c-1.27,0-2.219-0.562-2.219-1.66c0-0.431,0.17-0.78,0.43-1.02c-0.182-0.181-0.291-0.44-0.291-0.79c0-0.449,0.24-0.809,0.609-1.02
		c-0.219-0.27-0.34-0.629-0.34-1.059C101.993,136.986,102.772,136.347,103.792,136.347 M103.313,141.284
		c-0.18,0-0.35-0.01-0.51-0.03c-0.15,0.16-0.221,0.351-0.221,0.61c0,0.499,0.451,0.818,1.221,0.818c0.719,0,1.148-0.27,1.148-0.759
		c0-0.479-0.34-0.64-0.83-0.64H103.313z M103.792,138.855c0.471,0,0.801-0.319,0.801-0.819s-0.33-0.82-0.801-0.82
		c-0.459,0-0.789,0.32-0.789,0.82S103.333,138.855,103.792,138.855"/>
	<path fill="#050507" d="M108.782,138.366h0.871v-0.222c0-0.628-0.451-0.878-0.98-0.878c-0.41,0-0.77,0.219-0.939,0.669l-0.949-0.2
		c0.209-0.85,0.93-1.389,1.898-1.389c1.17,0,2.01,0.51,2.01,1.988v3.129h-0.881l-0.1-0.66c-0.33,0.461-0.85,0.74-1.559,0.74
		c-0.84,0-1.55-0.48-1.55-1.529C106.604,138.976,107.493,138.366,108.782,138.366 M108.333,140.624c0.641,0,1.32-0.41,1.32-1.279
		v-0.109h-0.91c-0.641,0-1.039,0.3-1.039,0.779C107.704,140.354,107.894,140.624,108.333,140.624"/>
	<path fill="#050507" d="M111.974,141.464v-5.037h1.039v0.84c0.35-0.6,0.951-0.92,1.49-0.92c0.27,0,0.49,0.061,0.639,0.12
		l-0.18,0.949c-0.16-0.101-0.379-0.149-0.59-0.149c-0.67,0-1.359,0.739-1.359,2.328v1.869H111.974z"/>
	<path fill="#050507" d="M116.015,136.427h0.838v-1.389l1.041-0.65v2.039h1.309v0.92h-1.309v2.458c0,0.569,0.209,0.819,0.668,0.819
		c0.182,0,0.301-0.029,0.48-0.14l0.27,0.88c-0.27,0.129-0.529,0.18-0.809,0.18c-0.949,0-1.65-0.56-1.65-1.799v-2.398h-0.838V136.427
		z"/>
	<path fill="#050507" d="M97.04,54.188c-0.186-0.121-0.322-0.162-0.484-0.162c-0.289,0-0.446,0.18-0.446,0.569v0.198h1.176v0.456
		H96.11v2.566h-0.502V55.25h-0.851v-0.456h0.851v-0.185c0-0.732,0.354-1.038,0.928-1.038c0.277,0,0.463,0.071,0.631,0.174
		L97.04,54.188z"/>
	<path fill="#050507" d="M99.466,54.745c0.922,0,1.486,0.726,1.486,1.559s-0.564,1.56-1.486,1.56c-0.924,0-1.488-0.727-1.488-1.56
		S98.542,54.745,99.466,54.745 M99.466,57.408c0.617,0,0.971-0.522,0.971-1.104c0-0.581-0.354-1.103-0.971-1.103
		c-0.619,0-0.973,0.522-0.973,1.103C98.493,56.886,98.847,57.408,99.466,57.408"/>
	<path fill="#050507" d="M103.874,55.753c-0.041-0.348-0.223-0.552-0.582-0.552c-0.527,0-1.025,0.498-1.025,1.524v1.091h-0.504
		v-3.022h0.504v0.557c0.234-0.366,0.611-0.606,1.115-0.606c0.6,0,0.961,0.361,0.996,1.008H103.874z"/>
	<polygon fill="#050507" points="95.521,44.622 95.521,44.723 95.521,51.097 96.054,51.097 96.203,51.097 96.33,51.097 
		96.33,44.622 	"/>
	<path fill="#050507" d="M98.729,51.704c0.057,0,0.129-0.051,0.129-0.105v-7.584c0-0.055-0.072-0.101-0.129-0.101h-2.527
		c-0.055,0-0.075,0.022-0.075,0.051v0.151v0.506c0,0.055,0.02,0.102,0.075,0.102h1.718c0.057,0,0.129,0.044,0.129,0.099v5.967
		c0,0.055-0.072,0.104-0.129,0.104h-1.718c-0.055,0-0.075,0.019-0.075,0.047v0.152v0.506c0,0.054,0.02,0.105,0.075,0.105H98.729z"/>
	<polygon fill="#050507" points="99.87,44.622 99.87,44.723 99.87,51.097 100.55,51.097 100.681,51.097 100.681,44.622 	"/>
	<path fill="#050507" d="M100.579,51.7v-0.81c1.113,0,1.889-1.383,1.889-3.084c0-1.7-0.775-3.084-1.889-3.084v-0.808
		c1.518,0,2.697,1.746,2.697,3.892C103.276,49.953,102.097,51.7,100.579,51.7"/>
	<path fill="#050507" d="M92.183,49.212v1.115v0.36c0,0.605,0.387,1.017,0.998,1.017h0.172h0.496h0.584
		c0.029,0,0.076-0.051,0.076-0.105v-0.608c0-0.054-0.07-0.096-0.127-0.096h-0.58h-0.297h-0.183c-0.262,0-0.33-0.112-0.33-0.411
		v-0.177v-0.974v-0.594c0-0.609-0.248-0.834-0.551-0.945c0.303-0.109,0.551-0.334,0.551-0.943v-0.422v-1.07v-0.253
		c0-0.294,0.058-0.382,0.33-0.382h0.228h0.289h0.594c0.029,0,0.076-0.047,0.076-0.102v-0.607c0-0.055-0.07-0.101-0.127-0.101h-0.486
		h-0.457h-0.258c-0.611,0-0.998,0.397-0.998,0.989v0.317v1.323c0,0-0.021,0.304-0.035,0.407c-0.039,0.274-0.373,0.508-0.582,0.505
		h-0.317c-0.056,0-0.078,0.043-0.078,0.099v0.607c0,0.055,0.022,0.104,0.078,0.104h0.289c0.266-0.004,0.6,0.218,0.625,0.552
		C92.17,48.913,92.183,49.212,92.183,49.212"/>
	<path fill="#050507" d="M96.202,43.914h-0.287h-0.318c-0.057,0-0.077,0.046-0.077,0.101v0.187v0.42v0.102h0.077h0.605h0.127v-0.102
		v-0.607v-0.101H96.202z"/>
	<path fill="#050507" d="M95.521,50.991v0.287v0.32c0,0.055,0.02,0.106,0.076,0.106h0.186h0.42h0.127v-0.106v-0.607v-0.097h-0.127
		h-0.606h-0.076V50.991z"/>
	<path fill="#050507" d="M100.55,43.914h-0.285h-0.32c-0.057,0-0.074,0.046-0.074,0.101v0.187v0.42v0.102h0.074h0.605h0.131v-0.102
		v-0.607v-0.101H100.55z"/>
	<path fill="#050507" d="M99.87,50.991v0.287v0.32c0,0.055,0.018,0.106,0.074,0.106h0.186h0.42h0.131v-0.106v-0.607v-0.097h-0.131
		h-0.605H99.87V50.991z"/>
	<path fill="#050507" d="M104.929,49.212v1.115v0.36c0,0.605,0.381,1.017,0.992,1.017h0.172h0.496h0.584
		c0.026,0,0.082-0.051,0.082-0.105v-0.608c0-0.054-0.076-0.096-0.133-0.096h-0.58h-0.297h-0.184c-0.262,0-0.324-0.112-0.324-0.411
		v-0.177v-0.974v-0.594c0-0.195-0.057-0.373-0.102-0.474h-1.357c0.373,0.101,0.531,0.234,0.609,0.558
		C104.925,48.985,104.929,49.212,104.929,49.212"/>
	<path fill="#050507" d="M104.872,46.95c-0.078,0.265-0.254,0.403-0.566,0.505h1.275c0.078-0.202,0.156-0.337,0.156-0.606v-0.42
		v-1.07v-0.254c0-0.294,0.053-0.382,0.324-0.382h0.229h0.289h0.594c0.027,0,0.082-0.046,0.082-0.101v-0.608
		c0-0.054-0.076-0.1-0.133-0.1h-0.486h-0.457h-0.258c-0.611,0-0.992,0.396-0.992,0.989v0.317v1.323
		C104.929,46.543,104.911,46.817,104.872,46.95"/>
	<path fill="#050507" d="M105.069,47.866c0.205,0.074,0.428,0.195,0.566,0.398h1.486c0.057,0,0.133-0.048,0.133-0.103v-0.607
		c0-0.056-0.076-0.1-0.133-0.1h-1.541C105.479,47.657,105.237,47.804,105.069,47.866"/>
	<path fill="#050507" d="M103.987,47.455c-0.055,0-0.07,0.044-0.07,0.099v0.607c0,0.055,0.016,0.104,0.07,0.104h0.291h1.357
		c-0.092-0.204-0.316-0.342-0.479-0.405c0.168-0.062,0.322-0.203,0.424-0.405h-1.275H103.987z"/>
</g>
</svg>
