<?xml version="1.0" encoding="utf-8"?>
<!-- Generator: Adobe Illustrator 17.0.0, SVG Export Plug-In . SVG Version: 6.00 Build 0)  -->
<!DOCTYPE svg PUBLIC "-//W3C//DTD SVG 1.1//EN" "http://www.w3.org/Graphics/SVG/1.1/DTD/svg11.dtd">
<svg version="1.1" id="Layer_1" xmlns="http://www.w3.org/2000/svg" xmlns:xlink="http://www.w3.org/1999/xlink" x="0px" y="0px"
	 width="512px" height="512px" viewBox="0 0 512 512" enable-background="new 0 0 512 512" xml:space="preserve">
<g>
	<g>
		<polygon fill="#F27100" points="459.408,410.563 459.408,156.187 679.704,29.121 900.003,156.187 900.003,410.563 
			679.704,537.873 		"/>
		<polygon opacity="0.4" fill="#F47E2A" enable-background="new    " points="680.647,510.781 679.705,283.955 483.835,398.699 		
			"/>
		<polygon opacity="0.4" fill="#E56823" enable-background="new    " points="875.896,397.796 679.705,283.955 679.704,510.959 		
			"/>
		<polygon opacity="0.4" fill="#F47E2A" enable-background="new    " points="678.762,57.129 679.705,283.955 875.574,169.211 		"/>
		<polygon opacity="0.4" fill="#E56823" enable-background="new    " points="483.513,170.114 679.705,283.955 679.705,56.951 		"/>
	</g>
</g>
<g>
	<g opacity="0.1" enable-background="new    ">
		<path d="M500.428,270.241c0-20.217,15.211-33.858,34.936-33.858c14.328,0,22.671,7.753,27.282,15.997l-11.973,5.888
			c-2.748-5.299-8.635-9.52-15.309-9.52c-11.972,0-20.608,9.127-20.608,21.493c0,12.365,8.636,21.492,20.608,21.492
			c6.674,0,12.562-4.219,15.309-9.518l11.973,5.79c-4.612,8.145-12.955,16.095-27.282,16.095
			C515.639,304.098,500.428,290.358,500.428,270.241z"/>
		<path d="M567.651,279.171c0-13.444,9.422-24.828,25.025-24.828c15.702,0,25.123,11.384,25.123,24.828s-9.421,24.927-25.123,24.927
			C577.073,304.098,567.651,292.616,567.651,279.171z M604.846,279.171c0-7.36-4.319-13.738-12.169-13.738
			c-7.753,0-12.071,6.379-12.071,13.738c0,7.458,4.318,13.838,12.071,13.838C600.527,293.009,604.846,286.629,604.846,279.171z"/>
		<path d="M625.944,242.958c0-4.121,3.337-7.36,7.36-7.36c4.123,0,7.458,3.238,7.458,7.36c0,4.123-3.337,7.458-7.458,7.458
			C629.28,250.417,625.944,247.08,625.944,242.958z M627.122,302.92v-47.401h12.463v47.401H627.122z"/>
		<path d="M683.942,302.92v-28.656c0-6.575-3.436-8.832-8.734-8.832c-4.906,0-8.635,2.748-10.795,5.496v31.992H651.95v-47.401
			h12.463v6.085c3.042-3.534,8.931-7.262,16.586-7.262c10.5,0,15.506,5.888,15.506,15.114v33.465L683.942,302.92L683.942,302.92z"/>
		<path d="M739.487,302.92l-12.562-18.253l-5.692,6.085v12.168h-12.463v-65.458h12.463v39.157l17.96-21.099h15.309l-18.744,21.493
			l19.333,25.908H739.487z"/>
		<path d="M760.194,242.958c0-4.121,3.337-7.36,7.36-7.36c4.123,0,7.458,3.238,7.458,7.36c0,4.123-3.337,7.458-7.458,7.458
			C763.53,250.417,760.194,247.08,760.194,242.958z M761.372,302.92v-47.401h12.463v47.401H761.372z"/>
		<path d="M788.75,291.047v-24.632H780.9v-10.894h7.851v-12.954h12.463v12.954h9.618v10.894h-9.618v21.294
			c0,3.043,1.572,5.301,4.319,5.301c1.864,0,3.63-0.687,4.318-1.472l2.648,9.52c-1.864,1.668-5.201,3.042-10.402,3.042
			C793.363,304.098,788.75,299.584,788.75,291.047z"/>
		<path d="M816.328,279.171c0-13.738,10.206-24.828,24.534-24.828c14.231,0,23.749,10.599,23.749,26.006v2.945H829.38
			c0.883,5.79,5.594,10.599,13.642,10.599c4.024,0,9.52-1.669,12.562-4.612l5.593,8.244c-4.711,4.318-12.168,6.575-19.529,6.575
			C827.221,304.098,816.328,294.382,816.328,279.171z M840.862,264.549c-7.753,0-11.089,5.398-11.58,10.108h23.357
			C852.245,270.143,849.105,264.549,840.862,264.549z"/>
	</g>
	<g enable-background="new    ">
		<path fill="#FFFFFF" d="M494.799,265.738c0-20.217,15.211-33.858,34.936-33.858c14.328,0,22.671,7.753,27.282,15.997
			l-11.973,5.888c-2.748-5.299-8.635-9.52-15.309-9.52c-11.972,0-20.608,9.127-20.608,21.493c0,12.366,8.636,21.492,20.608,21.492
			c6.674,0,12.562-4.219,15.309-9.518l11.973,5.79c-4.612,8.145-12.955,16.095-27.282,16.095
			C510.01,299.595,494.799,285.855,494.799,265.738z"/>
		<path fill="#FFFFFF" d="M562.022,274.668c0-13.444,9.422-24.828,25.025-24.828c15.702,0,25.123,11.384,25.123,24.828
			s-9.421,24.927-25.123,24.927C571.444,299.595,562.022,288.113,562.022,274.668z M599.217,274.668
			c0-7.36-4.319-13.738-12.169-13.738c-7.753,0-12.071,6.379-12.071,13.738c0,7.458,4.318,13.838,12.071,13.838
			C594.898,288.506,599.217,282.126,599.217,274.668z"/>
		<path fill="#FFFFFF" d="M620.315,238.454c0-4.121,3.337-7.36,7.36-7.36c4.123,0,7.458,3.238,7.458,7.36
			c0,4.123-3.337,7.458-7.458,7.458C623.651,245.914,620.315,242.577,620.315,238.454z M621.493,298.417v-47.401h12.463v47.401
			H621.493z"/>
		<path fill="#FFFFFF" d="M678.313,298.417V269.76c0-6.575-3.436-8.833-8.734-8.833c-4.906,0-8.635,2.748-10.795,5.496v31.992
			h-12.463v-47.401h12.463v6.085c3.042-3.534,8.931-7.262,16.586-7.262c10.5,0,15.506,5.888,15.506,15.114v33.465L678.313,298.417
			L678.313,298.417z"/>
		<path fill="#FFFFFF" d="M733.858,298.417l-12.562-18.253l-5.692,6.085v12.168h-12.463v-65.458h12.463v39.157l17.96-21.099h15.309
			l-18.744,21.493l19.333,25.908H733.858z"/>
		<path fill="#FFFFFF" d="M754.565,238.454c0-4.121,3.337-7.36,7.36-7.36c4.123,0,7.458,3.238,7.458,7.36
			c0,4.123-3.337,7.458-7.458,7.458C757.901,245.914,754.565,242.577,754.565,238.454z M755.743,298.417v-47.401h12.463v47.401
			H755.743z"/>
		<path fill="#FFFFFF" d="M783.121,286.543v-24.632h-7.851v-10.894h7.851v-12.954h12.463v12.954h9.618v10.894h-9.618v21.294
			c0,3.043,1.572,5.301,4.319,5.301c1.864,0,3.63-0.687,4.318-1.472l2.648,9.52c-1.864,1.668-5.201,3.042-10.402,3.042
			C787.734,299.595,783.121,295.081,783.121,286.543z"/>
		<path fill="#FFFFFF" d="M810.699,274.668c0-13.738,10.205-24.828,24.534-24.828c14.231,0,23.749,10.599,23.749,26.006v2.945
			h-35.231c0.883,5.79,5.594,10.599,13.642,10.599c4.024,0,9.52-1.669,12.562-4.612l5.593,8.244
			c-4.711,4.318-12.168,6.575-19.529,6.575C821.592,299.595,810.699,289.879,810.699,274.668z M835.233,260.046
			c-7.753,0-11.089,5.398-11.58,10.108h23.357C846.617,265.64,843.476,260.046,835.233,260.046z"/>
	</g>
</g>
<g opacity="0.4">
	<path fill="#FFFFFF" d="M703.169,137.357h-46.932c-1.64,0-2.975-1.335-2.975-2.977V98.845c0-1.64,1.335-2.977,2.975-2.977h46.932
		c1.643,0,2.978,1.336,2.978,2.977v35.536C706.147,136.023,704.812,137.357,703.169,137.357z M656.394,134.224h46.62V99.001h-46.62
		V134.224z"/>
	<g>
		<path fill="#FFFFFF" d="M685.337,122.678v4.814c0,0.893-0.866,1.616-1.928,1.616h-0.333v2.889h17.407v-9.319H685.337z"/>
	</g>
	<g>
		<rect x="685.337" y="112.262" fill="#FFFFFF" width="15.145" height="8.625"/>
	</g>
	<g>
		<path fill="#FFFFFF" d="M683.076,101.241v2.876h0.333c1.062,0,1.928,0.725,1.928,1.616v4.827h15.145v-9.319H683.076
			L683.076,101.241z"/>
	</g>
	<g>
		<path fill="#FFFFFF" d="M675.999,129.108c-1.065,0-1.928-0.723-1.928-1.617v-4.814h-15.23v9.319h17.409v-2.889L675.999,129.108
			L675.999,129.108z"/>
	</g>
	<g>
		<rect x="658.84" y="112.262" fill="#FFFFFF" width="15.23" height="8.625"/>
	</g>
	<g>
		<path fill="#FFFFFF" d="M674.071,105.734c0-0.891,0.864-1.616,1.928-1.616h0.251v-2.876h-17.409v9.319h15.23L674.071,105.734
			L674.071,105.734z"/>
	</g>
	<path fill="#FFFFFF" d="M683.596,126.371c0,0.516-0.418,0.934-0.934,0.934h-5.916c-0.516,0-0.934-0.418-0.934-0.934v-19.41
		c0-0.516,0.418-0.934,0.934-0.934h5.916c0.516,0,0.934,0.418,0.934,0.934V126.371z"/>
</g>
<g>
	<g>
		<g id="g111_1_">
			<path id="path113_1_" fill="#FFFFFF" d="M538.212,329.798c1.186,0,2.21,0.212,3.072,0.63c0.866,0.422,1.58,0.989,2.152,1.703
				c0.565,0.718,0.986,1.557,1.257,2.517c0.269,0.964,0.404,2.001,0.404,3.11c0,1.704-0.312,3.314-0.943,4.832
				c-0.63,1.52-1.485,2.838-2.573,3.962c-1.088,1.123-2.37,2.009-3.851,2.662c-1.478,0.655-3.084,0.982-4.81,0.982
				c-0.223,0-0.615-0.007-1.169-0.018c-0.555-0.011-1.19-0.069-1.903-0.165c-0.718-0.1-1.476-0.249-2.278-0.446
				c-0.801-0.195-1.561-0.468-2.278-0.814l6.405-26.91l5.736-0.889l-2.293,9.549c0.491-0.222,0.986-0.392,1.48-0.518
				C537.115,329.861,537.645,329.798,538.212,329.798L538.212,329.798z M533.401,345.644c0.864,0,1.679-0.212,2.443-0.63
				c0.767-0.418,1.428-0.982,1.983-1.684c0.555-0.706,0.993-1.5,1.313-2.389c0.321-0.889,0.482-1.815,0.482-2.778
				c0-1.185-0.198-2.107-0.592-2.776c-0.395-0.665-1.124-1-2.184-1c-0.348,0-0.795,0.066-1.35,0.185
				c-0.557,0.126-1.055,0.387-1.501,0.779l-2.441,10.142c0.147,0.026,0.277,0.051,0.388,0.074c0.108,0.026,0.229,0.043,0.349,0.055
				c0.127,0.014,0.272,0.022,0.446,0.022C532.911,345.644,533.13,345.644,533.401,345.644L533.401,345.644z"/>
			<path id="path115_1_" fill="#FFFFFF" d="M551.048,349.677h-5.479l4.627-19.469h5.516L551.048,349.677z M553.714,327.835
				c-0.764,0-1.458-0.227-2.074-0.684c-0.621-0.453-0.928-1.151-0.928-2.092c0-0.518,0.106-1.002,0.314-1.461
				c0.211-0.457,0.488-0.851,0.835-1.185c0.346-0.331,0.747-0.596,1.202-0.797c0.458-0.196,0.945-0.295,1.465-0.295
				c0.764,0,1.454,0.227,2.071,0.684c0.615,0.458,0.925,1.156,0.925,2.092c0,0.519-0.104,1.006-0.315,1.464
				c-0.208,0.457-0.486,0.851-0.832,1.185c-0.344,0.333-0.748,0.596-1.202,0.794C554.718,327.741,554.232,327.835,553.714,327.835
				L553.714,327.835z"/>
			<path id="path117_1_" fill="#FFFFFF" d="M560.514,325.357l5.739-0.889l-1.409,5.739h6.146l-1.109,4.515h-6.108l-1.627,6.81
				c-0.15,0.568-0.235,1.098-0.258,1.591c-0.027,0.495,0.035,0.92,0.184,1.278c0.147,0.358,0.413,0.636,0.795,0.831
				c0.383,0.199,0.929,0.299,1.647,0.299c0.591,0,1.167-0.057,1.723-0.168c0.553-0.11,1.115-0.262,1.683-0.463l0.409,4.221
				c-0.74,0.272-1.542,0.505-2.406,0.702c-0.866,0.199-1.89,0.295-3.073,0.295c-1.702,0-3.022-0.253-3.962-0.756
				c-0.939-0.507-1.603-1.2-1.999-2.076c-0.392-0.874-0.567-1.88-0.518-3.015c0.051-1.138,0.222-2.332,0.518-3.591L560.514,325.357z
				"/>
			<path id="path119_1_" fill="#FFFFFF" d="M570.746,341.905c0-1.677,0.272-3.258,0.814-4.74c0.541-1.482,1.321-2.778,2.335-3.89
				c1.009-1.106,2.237-1.983,3.685-2.627c1.439-0.64,3.051-0.963,4.829-0.963c1.112,0,2.105,0.106,2.98,0.317
				c0.878,0.212,1.672,0.487,2.39,0.832l-1.89,4.296c-0.494-0.2-1.006-0.376-1.535-0.537c-0.53-0.164-1.177-0.242-1.942-0.242
				c-1.829,0-3.275,0.63-4.35,1.887c-1.071,1.258-1.612,2.95-1.612,5.074c0,1.258,0.272,2.275,0.817,3.054
				c0.542,0.778,1.543,1.166,2.997,1.166c0.718,0,1.409-0.074,2.074-0.222c0.668-0.147,1.258-0.334,1.779-0.555l0.409,4.404
				c-0.693,0.269-1.457,0.511-2.295,0.724c-0.84,0.206-1.84,0.311-3,0.311c-1.531,0-2.827-0.225-3.886-0.665
				c-1.06-0.448-1.937-1.043-2.627-1.796c-0.694-0.755-1.192-1.637-1.5-2.648C570.904,344.076,570.746,343.013,570.746,341.905
				L570.746,341.905z"/>
			<path id="path121_1_" fill="#FFFFFF" d="M595.085,350.195c-1.308,0-2.444-0.199-3.407-0.594c-0.96-0.395-1.757-0.948-2.386-1.665
				c-0.63-0.714-1.102-1.56-1.426-2.535c-0.323-0.974-0.479-2.053-0.479-3.235c0-1.484,0.238-2.966,0.72-4.445
				c0.479-1.482,1.19-2.813,2.13-3.997c0.933-1.185,2.084-2.155,3.441-2.909c1.354-0.751,2.912-1.128,4.661-1.128
				c1.284,0,2.414,0.2,3.391,0.594c0.973,0.394,1.773,0.952,2.406,1.665c0.626,0.718,1.102,1.56,1.422,2.536
				c0.322,0.973,0.482,2.055,0.482,3.238c0,1.478-0.235,2.961-0.701,4.445c-0.467,1.476-1.159,2.811-2.074,3.997
				c-0.912,1.184-2.053,2.152-3.423,2.904C598.473,349.818,596.887,350.195,595.085,350.195L595.085,350.195z M597.823,334.352
				c-0.813,0-1.53,0.235-2.145,0.702c-0.617,0.471-1.135,1.063-1.553,1.777c-0.422,0.718-0.736,1.5-0.947,2.351
				c-0.21,0.852-0.312,1.658-0.312,2.424c0,1.235,0.199,2.198,0.591,2.891c0.398,0.688,1.11,1.035,2.148,1.035
				c0.816,0,1.53-0.234,2.148-0.705c0.613-0.468,1.132-1.06,1.553-1.776c0.419-0.714,0.736-1.499,0.947-2.351
				c0.207-0.849,0.312-1.66,0.312-2.424c0-1.232-0.199-2.197-0.594-2.888C599.576,334.698,598.859,334.352,597.823,334.352z"/>
			<path id="path123_1_" fill="#FFFFFF" d="M612.012,349.677h-5.484l4.627-19.469h5.519L612.012,349.677z M614.674,327.835
				c-0.764,0-1.457-0.227-2.071-0.684c-0.617-0.453-0.927-1.151-0.927-2.092c0-0.518,0.107-1.002,0.315-1.461
				c0.208-0.457,0.487-0.851,0.833-1.185c0.344-0.331,0.748-0.596,1.202-0.797c0.456-0.196,0.943-0.295,1.459-0.295
				c0.766,0,1.458,0.227,2.075,0.684c0.617,0.458,0.928,1.156,0.928,2.092c0,0.519-0.111,1.006-0.318,1.464
				c-0.207,0.457-0.486,0.851-0.831,1.185c-0.348,0.333-0.747,0.596-1.202,0.794C615.68,327.741,615.194,327.835,614.674,327.835
				L614.674,327.835z"/>
			<path id="path125_1_" fill="#FFFFFF" d="M620.621,331.095c0.415-0.122,0.881-0.268,1.385-0.427
				c0.507-0.16,1.073-0.307,1.706-0.441c0.626-0.138,1.332-0.249,2.109-0.335c0.776-0.088,1.661-0.131,2.644-0.131
				c2.889,0,4.882,0.841,5.981,2.52c1.098,1.679,1.289,3.974,0.576,6.885l-2.52,10.512h-5.515l2.443-10.292
				c0.149-0.643,0.266-1.263,0.352-1.871c0.088-0.602,0.082-1.132-0.02-1.591c-0.097-0.453-0.327-0.825-0.683-1.112
				c-0.361-0.283-0.908-0.425-1.649-0.425c-0.714,0-1.441,0.077-2.183,0.225l-3.591,15.064h-5.517L620.621,331.095z"/>
		</g>
		<g>
			<path fill="#FFFFFF" d="M505.882,330.623l-0.826,3.317c0.937,0.234,3.828,1.188,4.296-0.69
				C509.84,331.294,506.819,330.857,505.882,330.623z"/>
			<path fill="#FFFFFF" d="M504.637,335.614l-0.912,3.656c1.125,0.28,4.599,1.395,5.112-0.668
				C509.374,336.451,505.763,335.894,504.637,335.614z"/>
			<path fill="#FFFFFF" d="M509.62,320.752c-8.109-2.022-16.323,2.915-18.344,11.025c-2.023,8.11,2.912,16.325,11.021,18.347
				c8.112,2.022,16.325-2.914,18.347-11.024C522.666,330.988,517.731,322.774,509.62,320.752z M512.633,333.281
				c-0.218,1.474-1.036,2.189-2.121,2.439c1.491,0.776,2.248,1.965,1.526,4.028c-0.897,2.562-3.026,2.778-5.858,2.243l-0.687,2.755
				l-1.661-0.414l0.679-2.717c-0.43-0.107-0.87-0.22-1.324-0.344l-0.68,2.731l-1.66-0.414l0.687-2.759
				c-0.388-0.099-0.782-0.204-1.184-0.306l-2.161-0.538l0.825-1.902c0,0,1.224,0.326,1.208,0.302
				c0.471,0.116,0.679-0.191,0.762-0.395l1.086-4.355c0.061,0.015,0.12,0.03,0.176,0.043c-0.066-0.027-0.126-0.043-0.173-0.055
				l0.775-3.108c0.02-0.353-0.101-0.798-0.774-0.966c0.026-0.018-1.207-0.3-1.207-0.3l0.442-1.775l2.29,0.572l-0.001,0.008
				c0.345,0.085,0.699,0.166,1.06,0.249l0.68-2.728l1.66,0.414l-0.667,2.674c0.446,0.101,0.894,0.204,1.331,0.314l0.663-2.656
				l1.661,0.414l-0.68,2.728C511.4,330.183,512.934,331.265,512.633,333.281z"/>
		</g>
	</g>
	<text transform="matrix(1 0 0 1 642.3065 349.5652)" fill="#FFFFFF" font-family="'Ubuntu-MediumItalic'" font-size="36.3">infrastructure</text>
</g>
</svg>
