<?xml version="1.0" encoding="utf-8"?>
<!-- Generator: Adobe Illustrator 16.0.4, SVG Export Plug-In . SVG Version: 6.00 Build 0)  -->
<!DOCTYPE svg PUBLIC "-//W3C//DTD SVG 1.1//EN" "http://www.w3.org/Graphics/SVG/1.1/DTD/svg11.dtd">
<svg version="1.1" id="Layer_1" xmlns="http://www.w3.org/2000/svg" xmlns:xlink="http://www.w3.org/1999/xlink" x="0px" y="0px"
	 width="1245.41px" height="1441.155px" viewBox="0 0 1245.41 1441.155" enable-background="new 0 0 1245.41 1441.155"
	 xml:space="preserve">
<g id="XMLID_1_">
	<g>
		<polygon fill="#545554" points="1244.91,363.718 1244.76,1083.717 622.56,1440.578 0.5,1077.428 0.64,357.428 622.83,0.578 		"/>
	</g>
	<g>
	</g>
</g>
<g id="XMLID_2_">
	<g>
		<polygon points="1182.689,399.403 1182.788,946.451 625.04,1271.45 61.793,946.451 62.846,393.742 622.817,72.577 		"/>
	</g>
	<g>
		<polygon fill="none" stroke="#000000" stroke-miterlimit="10" points="1182.788,946.451 625.04,1271.45 61.793,946.451 
			62.846,393.742 622.817,72.577 1182.689,399.403 		"/>
	</g>
</g>
<g>
	<path fill="#6ACBDE" d="M678.195,1368.335c-9.655,5.521-18.565,7.006-26.733,4.455c-8.167-2.55-15.114-8.833-20.841-18.849
		c-2.846-4.977-4.615-9.861-5.307-14.65s-0.465-9.298,0.683-13.524c1.146-4.227,3.178-8.097,6.097-11.61
		c2.919-3.512,6.55-6.51,10.892-8.992c2.514-1.438,4.908-2.555,7.179-3.354c2.272-0.8,4.321-1.395,6.144-1.786
		c1.824-0.39,3.399-0.617,4.726-0.684c1.326-0.067,2.3-0.087,2.924-0.06l2.399,13.146c-2.393,0.062-5,0.439-7.825,1.133
		c-2.826,0.693-5.78,1.922-8.866,3.686c-2.057,1.176-3.871,2.675-5.445,4.497c-1.573,1.821-2.68,3.934-3.315,6.332
		c-0.637,2.399-0.718,5.077-0.241,8.03c0.476,2.954,1.706,6.167,3.692,9.641c1.589,2.778,3.371,5.197,5.344,7.257
		c1.974,2.06,4.128,3.574,6.464,4.542c2.334,0.971,4.877,1.341,7.628,1.111c2.75-0.227,5.668-1.224,8.753-2.988
		c1.941-1.109,3.619-2.222,5.029-3.336c1.41-1.112,2.623-2.172,3.641-3.178c1.019-1.003,1.868-1.97,2.551-2.897
		c0.682-0.927,1.295-1.777,1.84-2.55l9.891,8.746c-1.223,2.237-3.283,4.799-6.183,7.684
		C686.414,1363.021,682.708,1365.755,678.195,1368.335z"/>
	<path fill="#6ACBDE" d="M747.083,1287.353c2.946,5.153,4.777,10.115,5.499,14.888c0.72,4.772,0.519,9.229-0.603,13.364
		c-1.122,4.138-3.117,7.907-5.983,11.312c-2.867,3.406-6.386,6.303-10.556,8.687c-4.057,2.32-8.265,3.841-12.625,4.568
		c-4.36,0.727-8.636,0.542-12.828-0.558c-4.191-1.099-8.175-3.161-11.951-6.187s-7.137-7.113-10.084-12.267
		c-2.944-5.15-4.735-10.138-5.369-14.96c-0.636-4.822-0.356-9.34,0.835-13.555c1.19-4.213,3.191-8.008,6.001-11.381
		c2.809-3.372,6.185-6.188,10.127-8.441c4.056-2.319,8.266-3.841,12.625-4.567c4.361-0.728,8.645-0.525,12.853,0.601
		c4.208,1.129,8.2,3.204,11.977,6.229C740.776,1278.114,744.138,1282.203,747.083,1287.353z M701.75,1313.273
		c1.688,2.953,3.567,5.413,5.639,7.377c2.071,1.966,4.267,3.419,6.585,4.357c2.318,0.94,4.715,1.318,7.187,1.134
		s4.964-0.996,7.479-2.434c2.456-1.404,4.406-3.133,5.847-5.186c1.443-2.053,2.346-4.317,2.712-6.793
		c0.366-2.474,0.228-5.103-0.415-7.886c-0.643-2.781-1.808-5.648-3.496-8.602c-1.688-2.951-3.576-5.425-5.664-7.419
		c-2.088-1.993-4.291-3.46-6.609-4.4c-2.318-0.939-4.729-1.31-7.229-1.108c-2.5,0.201-4.979,1.003-7.436,2.407
		c-2.515,1.438-4.47,3.188-5.865,5.255c-1.396,2.065-2.278,4.337-2.644,6.812c-0.367,2.476-0.22,5.119,0.439,7.929
		C698.938,1307.528,700.096,1310.379,701.75,1313.273z"/>
	<path fill="#6ACBDE" d="M812.417,1274.539l6.653,11.636l-39.677,22.687l-34.406-60.174l13.369-7.645l27.752,48.538
		L812.417,1274.539z"/>
	<path fill="#6ACBDE" d="M866.371,1219.148c2.979,5.211,4.777,10.214,5.396,15.005c0.617,4.793,0.184,9.305-1.302,13.533
		c-1.487,4.231-3.979,8.189-7.479,11.88c-3.501,3.69-7.878,7.039-13.134,10.044c-2.399,1.372-5.258,2.872-8.572,4.498
		c-3.316,1.626-6.696,3.004-10.146,4.131l-33.512-58.609c2.755-2.343,5.745-4.571,8.971-6.686c3.228-2.113,6.039-3.855,8.439-5.229
		c5.084-2.906,10.027-4.965,14.832-6.177c4.805-1.208,9.403-1.419,13.797-0.63c4.394,0.792,8.5,2.668,12.317,5.632
		C859.795,1209.506,863.261,1213.708,866.371,1219.148z M838.645,1260.348c0.661-0.3,1.415-0.673,2.26-1.118
		c0.845-0.442,1.838-0.993,2.981-1.647c6.684-3.822,10.664-8.361,11.939-13.624c1.273-5.26,0.191-10.899-3.252-16.922
		c-3.605-6.308-7.879-10.202-12.819-11.682c-4.938-1.478-10.749-0.304-17.434,3.518c-0.914,0.522-1.849,1.075-2.804,1.66
		c-0.954,0.585-1.826,1.18-2.617,1.784L838.645,1260.348z"/>
	<path fill="#6ACBDE" d="M907.002,1164.578c2.042,1.982,4.328,4.228,6.859,6.735c2.533,2.509,5.179,5.087,7.94,7.73
		c2.761,2.646,5.537,5.285,8.326,7.913c2.79,2.63,5.42,5.044,7.889,7.243c-0.942-3.379-2.019-7.027-3.229-10.943
		c-1.212-3.917-2.531-7.924-3.962-12.021c-1.429-4.098-2.864-8.174-4.307-12.229c-1.441-4.053-2.851-7.95-4.229-11.695l13.887-7.94
		c3.748,11.223,7.275,22.763,10.585,34.619c3.311,11.859,6.106,23.317,8.39,34.378l-12.228,6.991
		c-5.174-4.416-10.447-9.138-15.82-14.17c-5.375-5.03-10.729-10.093-16.061-15.187c1.679,7.183,3.348,14.352,5.01,21.505
		c1.661,7.154,3.079,14.08,4.255,20.782l-12.218,6.986c-8.371-7.58-16.823-15.804-25.358-24.675
		c-8.535-8.869-16.685-17.767-24.453-26.69l14.482-8.281c2.527,3.09,5.187,6.272,7.978,9.554c2.79,3.283,5.618,6.563,8.482,9.841
		c2.864,3.278,5.677,6.431,8.438,9.461c2.761,3.031,5.388,5.792,7.879,8.285c-0.592-3.425-1.312-7.009-2.159-10.749
		c-0.847-3.738-1.723-7.463-2.627-11.171c-0.904-3.707-1.815-7.259-2.73-10.652c-0.916-3.394-1.72-6.429-2.415-9.104
		L907.002,1164.578z"/>
	<path fill="#6ACBDE" d="M1019.422,1171.619c-1.856-1.712-3.795-3.455-5.815-5.224c-2.02-1.767-4.033-3.53-6.035-5.282
		l-23.194,13.262c0.505,2.624,1.01,5.253,1.519,7.889c0.507,2.638,1.031,5.181,1.568,7.628l-13.883,7.938
		c-1.473-7.762-2.778-14.965-3.917-21.611c-1.139-6.646-2.14-12.948-2.999-18.908c-0.86-5.96-1.608-11.657-2.246-17.094
		c-0.635-5.435-1.142-10.811-1.52-16.126l12.673-7.245c4.334,3.052,8.698,6.224,13.091,9.509c4.394,3.29,8.941,6.813,13.646,10.576
		c4.702,3.763,9.63,7.82,14.783,12.17c5.153,4.352,10.702,9.129,16.648,14.332L1019.422,1171.619z M976.749,1134.26
		c0.201,1.045,0.445,2.483,0.73,4.316c0.285,1.832,0.626,3.944,1.02,6.335c0.393,2.392,0.813,5.032,1.263,7.92
		c0.448,2.889,0.948,5.9,1.499,9.036l16.982-9.71c-2.4-2.089-4.706-4.079-6.917-5.97c-2.21-1.889-4.265-3.602-6.158-5.136
		c-1.894-1.532-3.56-2.886-4.997-4.058C978.733,1135.824,977.593,1134.913,976.749,1134.26z"/>
	<path fill="#6ACBDE" d="M1027.902,1086.002c8.912-5.096,16.657-7.393,23.236-6.891s11.805,4.138,15.677,10.91
		c2.416,4.227,3.421,8.204,3.013,11.932c-0.409,3.729-1.98,7.375-4.72,10.937c2.061,0.819,4.301,1.824,6.724,3.01
		c2.424,1.189,4.882,2.472,7.375,3.849c2.494,1.38,4.995,2.868,7.501,4.469c2.508,1.601,4.904,3.207,7.19,4.818l-14.945,8.545
		c-2.214-1.345-4.461-2.709-6.738-4.098c-2.276-1.387-4.548-2.7-6.815-3.938s-4.465-2.383-6.588-3.435s-4.156-1.944-6.097-2.679
		l-6.599,3.773l12.561,21.969l-13.368,7.644l-33.909-59.306c2.583-2.244,5.363-4.372,8.346-6.385
		C1022.726,1089.117,1025.444,1087.408,1027.902,1086.002z M1035.276,1097.111c-0.973,0.556-1.825,1.083-2.564,1.58
		c-0.738,0.5-1.433,0.975-2.086,1.424l9.334,16.324l3.771-2.156c5.026-2.874,8.261-5.567,9.704-8.084
		c1.443-2.514,1.288-5.306-0.466-8.374c-1.689-2.953-3.989-4.421-6.899-4.409
		C1043.159,1093.429,1039.562,1094.661,1035.276,1097.111z"/>
	<path fill="#A5A4A4" d="M1101.733,1086.656c1.489,2.604,1.809,5.055,0.958,7.345c-0.852,2.29-2.305,4.024-4.361,5.2
		s-4.288,1.549-6.693,1.12c-2.405-0.428-4.354-1.947-5.843-4.552c-1.49-2.604-1.81-5.052-0.959-7.344
		c0.851-2.291,2.305-4.025,4.361-5.201s4.288-1.549,6.693-1.119C1098.296,1082.535,1100.243,1084.051,1101.733,1086.656z"/>
	<path fill="#A5A4A4" d="M1097.025,1047.401l13.369-7.644l34.405,60.174l-13.368,7.644L1097.025,1047.401z"/>
	<path fill="#A5A4A4" d="M1201.784,1027.368c2.947,5.153,4.778,10.115,5.5,14.888c0.719,4.772,0.519,9.229-0.604,13.364
		c-1.121,4.138-3.116,7.908-5.982,11.312c-2.868,3.406-6.386,6.303-10.556,8.687c-4.058,2.32-8.265,3.841-12.626,4.568
		c-4.359,0.727-8.636,0.542-12.827-0.558c-4.191-1.098-8.175-3.161-11.951-6.187c-3.777-3.025-7.138-7.112-10.084-12.266
		c-2.944-5.15-4.735-10.138-5.37-14.961c-0.635-4.821-0.355-9.339,0.835-13.554c1.191-4.214,3.191-8.009,6.001-11.382
		c2.81-3.372,6.186-6.188,10.127-8.441c4.057-2.318,8.266-3.841,12.625-4.567c4.361-0.727,8.645-0.525,12.854,0.602
		c4.207,1.128,8.199,3.203,11.976,6.229C1195.479,1018.128,1198.84,1022.217,1201.784,1027.368z M1156.451,1053.288
		c1.688,2.953,3.567,5.413,5.64,7.377c2.07,1.966,4.266,3.419,6.585,4.357c2.318,0.941,4.714,1.318,7.187,1.134
		c2.471-0.185,4.964-0.995,7.479-2.434c2.455-1.403,4.405-3.133,5.847-5.186c1.442-2.053,2.346-4.317,2.712-6.793
		c0.365-2.474,0.228-5.103-0.415-7.886c-0.644-2.781-1.808-5.648-3.497-8.602c-1.688-2.951-3.575-5.424-5.663-7.419
		c-2.088-1.993-4.292-3.46-6.61-4.4c-2.318-0.939-4.729-1.31-7.229-1.108c-2.501,0.201-4.98,1.004-7.437,2.407
		c-2.515,1.438-4.47,3.188-5.864,5.255c-1.396,2.066-2.279,4.338-2.644,6.812c-0.367,2.476-0.22,5.119,0.439,7.929
		C1153.64,1047.542,1154.797,1050.395,1156.451,1053.288z"/>
</g>
<g id="XMLID_3_">
	<g>
		<polygon fill="#6ACBDE" points="622.702,134.121 967.111,822.94 622.538,671.892 278.292,822.94 		"/>
	</g>
	<g>
	</g>
</g>
<g>
	
		<rect x="460.199" y="816.107" transform="matrix(0.7071 0.7071 -0.7071 0.7071 874.2247 -153.6277)" fill="#FFCE03" width="324.714" height="324.711"/>
	<polygon points="478.362,956.681 622.524,812.653 766.419,956.681 	"/>
	<polygon points="479.63,999.002 623.792,1143.032 767.688,999.002 	"/>
</g>
<g>
</g>
<g>
</g>
<g>
</g>
<g>
</g>
<g>
</g>
<g>
</g>
</svg>