<?xml version="1.0" encoding="UTF-8" standalone="no"?>
<svg
   xmlns:dc="http://purl.org/dc/elements/1.1/"
   xmlns:cc="http://creativecommons.org/ns#"
   xmlns:rdf="http://www.w3.org/1999/02/22-rdf-syntax-ns#"
   xmlns:svg="http://www.w3.org/2000/svg"
   xmlns="http://www.w3.org/2000/svg"
   id="svg1230"
   version="1.1"
   viewBox="0 0 43.995251 50.799999"
   height="50.799999mm"
   width="43.995251mm">
  <defs
     id="defs1224" />
  <metadata
     id="metadata1227">
    <rdf:RDF>
      <cc:Work
         rdf:about="">
        <dc:format>image/svg+xml</dc:format>
        <dc:type
           rdf:resource="http://purl.org/dc/dcmitype/StillImage" />
        <dc:title></dc:title>
      </cc:Work>
    </rdf:RDF>
  </metadata>
  <g
     transform="translate(315.30715,110.15595)"
     id="layer1">
    <path
       style="fill:#bae389;fill-opacity:1;fill-rule:nonzero;stroke:none;stroke-width:0.35277775"
       d="m -293.30952,-110.15595 -21.99763,12.699998 v 19.034839 h 43.99111 l 0.003,-19.034839 z m 0,0"
       id="path412" />
    <path
       style="fill:#e2a2af;fill-opacity:1;fill-rule:nonzero;stroke:none;stroke-width:0.35277775"
       d="m -315.30715,-78.421113 v 6.365161 l 21.99763,12.7 21.99624,-12.7 -0.003,-6.365161 z m 0,0"
       id="path414" />
    <path
       style="fill:#cf6682;fill-opacity:1;fill-rule:nonzero;stroke:none;stroke-width:0.35277775"
       d="m -299.99577,-78.421113 v 7.073472 c 0,0.811662 0.65733,1.468988 1.46899,1.468988 h 10.43313 c 0.81167,0 1.46899,-0.657326 1.46899,-1.468988 v -7.073472 z m 0,0"
       id="path416" />
    <path
       style="fill:#4cc3bf;fill-opacity:1;fill-rule:nonzero;stroke:none;stroke-width:0.35277775"
       d="m -286.62466,-86.962192 h -11.90212 c -0.81166,0 -1.46761,0.657326 -1.46761,1.467611 v 7.073468 h 13.36973 z m 0,0"
       id="path418" />
    <path
       style="fill:#f4f4f4;fill-opacity:1;fill-rule:nonzero;stroke:none;stroke-width:0.35277775"
       d="m -286.62466,-86.962192 v 8.541079 h 15.30862 v -8.541079 z m 0,0"
       id="path420" />
    <path
       style="fill:#80d4ce;fill-opacity:1;fill-rule:nonzero;stroke:none;stroke-width:0.35277775"
       d="m -301.46338,-82.691652 h -13.84377 v 4.270539 h 15.31138 v -5.739527 c 0,0.811663 -0.65732,1.468988 -1.46761,1.468988"
       id="path422" />
    <g
       style="stroke:none;fill:#3c6110;fill-opacity:1"
       id="g2320">
      <path
         id="path424"
         d="m -307.20841,-93.065524 c 0.53881,0 0.87367,0.246668 1.00596,0.44924 l -0.56913,0.538813 c -0.0744,-0.112999 -0.21084,-0.202572 -0.39825,-0.202572 -0.24942,0 -0.46578,0.158475 -0.46578,0.464399 0,0.305925 0.21636,0.469911 0.46578,0.469911 0.18741,0 0.32384,-0.09922 0.39825,-0.208083 l 0.56913,0.544325 c -0.13229,0.197059 -0.46715,0.44924 -1.00596,0.44924 -0.74966,0 -1.32843,-0.494716 -1.32843,-1.255393 0,-0.756543 0.57877,-1.24988 1.32843,-1.24988"
         style="fill:#3c6110;fill-opacity:1;fill-rule:nonzero;stroke:none;stroke-width:0.35277778" />
      <path
         id="path426"
         d="m -304.32142,-91.815644 c 0,-0.261827 -0.15159,-0.464399 -0.4272,-0.464399 -0.26871,0 -0.42167,0.202572 -0.42167,0.464399 0,0.26734 0.15296,0.469911 0.42167,0.469911 0.27561,0 0.4272,-0.202571 0.4272,-0.469911 m -1.75562,0 c 0,-0.66697 0.49058,-1.24988 1.32842,-1.24988 0.84474,0 1.33395,0.58291 1.33395,1.24988 0,0.666971 -0.48921,1.255393 -1.33395,1.255393 -0.83784,0 -1.32842,-0.588422 -1.32842,-1.255393"
         style="fill:#3c6110;fill-opacity:1;fill-rule:nonzero;stroke:none;stroke-width:0.35277778" />
      <path
         id="path428"
         d="m -300.06191,-92.012703 c 0,-0.143316 -0.073,-0.26734 -0.26871,-0.26734 -0.19569,0 -0.30455,0.118512 -0.36381,0.187414 v 1.473122 h -0.88194 v -1.393196 c 0,-0.143316 -0.0689,-0.26734 -0.2701,-0.26734 -0.19154,0 -0.29903,0.118512 -0.35829,0.187414 v 1.473122 h -0.88194 v -2.386762 h 0.88194 v 0.271474 c 0.10336,-0.13367 0.40239,-0.330729 0.78549,-0.330729 0.33348,0 0.57326,0.122645 0.68075,0.420301 0.1378,-0.208083 0.44648,-0.420301 0.82958,-0.420301 0.43545,0 0.73036,0.221864 0.73036,0.716579 v 1.729438 h -0.88333 z m 0,0"
         style="fill:#3c6110;fill-opacity:1;fill-rule:nonzero;stroke:none;stroke-width:0.35277778" />
      <path
         id="path430"
         d="m -297.44501,-92.280043 c -0.11162,0 -0.27974,0.05926 -0.36243,0.162609 v 0.607715 c 0.0786,0.09922 0.25081,0.163986 0.36243,0.163986 0.23564,0 0.44097,-0.16812 0.44097,-0.469911 0,-0.296278 -0.20533,-0.464399 -0.44097,-0.464399 m -1.24575,2.570042 v -3.296268 h 0.88332 v 0.252181 c 0.19155,-0.227376 0.42168,-0.311436 0.66697,-0.311436 0.58843,0 1.03904,0.434082 1.03904,1.24988 0,0.819933 -0.45061,1.255393 -1.03904,1.255393 -0.24529,0 -0.47129,-0.08406 -0.66697,-0.311437 v 1.161687 z m 0,0"
         style="fill:#3c6110;fill-opacity:1;fill-rule:nonzero;stroke:none;stroke-width:0.35277778" />
      <path
         id="path432"
         d="m -294.40644,-91.400854 c -0.0579,-0.08406 -0.21084,-0.128158 -0.34726,-0.128158 -0.14745,0 -0.30868,0.04961 -0.30868,0.19706 0,0.148828 0.16123,0.192925 0.30868,0.192925 0.13642,0 0.28938,-0.0441 0.34726,-0.128157 z m 0,0.553971 c -0.13229,0.168121 -0.42168,0.286632 -0.7152,0.286632 -0.35278,0 -0.81442,-0.242535 -0.81442,-0.785482 0,-0.593934 0.46164,-0.73725 0.81442,-0.73725 0.30868,0 0.58842,0.09922 0.7152,0.261827 v -0.271473 c 0,-0.168121 -0.15158,-0.296279 -0.44097,-0.296279 -0.22049,0 -0.46991,0.08957 -0.65733,0.232889 l -0.29903,-0.548459 c 0.31971,-0.257694 0.76068,-0.361046 1.11897,-0.361046 0.58842,0 1.16168,0.206705 1.16168,1.003211 v 1.442806 h -0.88332 z m 0,0"
         style="fill:#3c6110;fill-opacity:1;fill-rule:nonzero;stroke:none;stroke-width:0.35277778" />
      <path
         id="path434"
         d="m -293.03391,-93.006269 h 0.88194 v 0.271474 c 0.14745,-0.172255 0.45613,-0.330729 0.72623,-0.330729 v 0.850249 c -0.0441,-0.01516 -0.11714,-0.0248 -0.2012,-0.0248 -0.18603,0 -0.42719,0.04823 -0.52503,0.16812 v 1.452452 h -0.88194 z m 0,0"
         style="fill:#3c6110;fill-opacity:1;fill-rule:nonzero;stroke:none;stroke-width:0.35277778" />
      <path
         id="path436"
         d="m -290.38257,-92.102276 h 0.77997 c -0.0248,-0.103353 -0.10749,-0.286632 -0.39136,-0.286632 -0.2701,0 -0.35829,0.177768 -0.38861,0.286632 m 0.38861,-0.963248 c 0.69591,0 1.22921,0.504362 1.22921,1.343587 v 0.183279 h -1.60817 c 0.0496,0.152962 0.22049,0.30179 0.51952,0.30179 0.20119,0 0.41755,-0.07441 0.53606,-0.16812 l 0.36242,0.548459 c -0.23564,0.202572 -0.65732,0.296278 -1.0101,0.296278 -0.74138,0 -1.32016,-0.469911 -1.32016,-1.255393 0,-0.691775 0.52503,-1.24988 1.29122,-1.24988"
         style="fill:#3c6110;fill-opacity:1;fill-rule:nonzero;stroke:none;stroke-width:0.35277778" />
      <path
         id="path438"
         d="m -286.56402,-92.488126 -0.42168,1.868619 h -1.03904 l -0.93707,-3.296267 h 1.10794 l 0.42168,2.01607 0.4961,-2.01607 h 0.74552 l 0.49471,2.01607 0.41754,-2.01607 h 1.11208 l -0.93569,3.296267 h -1.04041 z m 0,0"
         style="fill:#3c6110;fill-opacity:1;fill-rule:nonzero;stroke:none;stroke-width:0.35277778" />
      <path
         id="path440"
         d="m -283.98158,-93.006269 h 0.88332 v 2.386762 h -0.88332 z m -0.0537,-0.672482 c 0,-0.276986 0.22048,-0.49885 0.49471,-0.49885 0.27561,0 0.4961,0.221864 0.4961,0.49885 0,0.276986 -0.22049,0.49885 -0.4961,0.49885 -0.27423,0 -0.49471,-0.221864 -0.49471,-0.49885"
         style="fill:#3c6110;fill-opacity:1;fill-rule:nonzero;stroke:none;stroke-width:0.35277778" />
      <path
         id="path442"
         d="m -282.42715,-91.311282 v -0.924663 h -0.39275 v -0.770324 h 0.39275 v -0.65319 h 0.88194 v 0.65319 h 0.48094 v 0.770324 h -0.48094 v 0.66697 c 0,0.124023 0.0786,0.223242 0.19706,0.223242 0.0785,0 0.15572,-0.0248 0.17639,-0.04548 l 0.1571,0.672483 c -0.0937,0.08406 -0.29904,0.158474 -0.59807,0.158474 -0.52503,0 -0.81442,-0.252181 -0.81442,-0.751031"
         style="fill:#3c6110;fill-opacity:1;fill-rule:nonzero;stroke:none;stroke-width:0.35277778" />
      <path
         id="path444"
         d="m -279.12813,-91.949313 c 0,-0.246669 -0.13229,-0.33073 -0.34313,-0.33073 -0.20119,0 -0.30455,0.103353 -0.37758,0.187414 v 1.473122 h -0.88333 v -3.296267 h 0.88333 v 1.180979 c 0.1378,-0.158474 0.39687,-0.330729 0.81442,-0.330729 0.54846,0 0.78824,0.325217 0.78824,0.741384 v 1.704633 h -0.88195 z m 0,0"
         style="fill:#3c6110;fill-opacity:1;fill-rule:nonzero;stroke:none;stroke-width:0.35277778" />
    </g>
    <g
       style="stroke:none;fill:#1b4848;fill-opacity:1"
       id="g2338">
      <path
         id="path1846"
         d="m -298.26357,-80.441316 c -0.0289,-0.03996 -0.10197,-0.06201 -0.16812,-0.06201 -0.0703,0 -0.14883,0.02342 -0.14883,0.09508 0,0.07028 0.0786,0.09233 0.14883,0.09233 0.0661,0 0.13918,-0.02205 0.16812,-0.06201 z m 0,0.264583 c -0.0634,0.08131 -0.20395,0.136426 -0.34589,0.136426 -0.16949,0 -0.39136,-0.115757 -0.39136,-0.374826 0,-0.283877 0.22187,-0.352778 0.39136,-0.352778 0.14883,0 0.28388,0.04823 0.34589,0.125402 v -0.129536 c 0,-0.07993 -0.073,-0.141937 -0.21359,-0.141937 -0.10611,0 -0.226,0.04272 -0.31557,0.111619 l -0.1447,-0.263204 c 0.15434,-0.122647 0.36656,-0.172254 0.53881,-0.172254 0.28388,0 0.55949,0.09922 0.55949,0.479555 v 0.690397 h -0.42444 z m 0,0"
         style="clip-rule:nonzero;fill:#1b4848;fill-opacity:1;fill-rule:nonzero;stroke:none;stroke-width:0.35277778" />
      <path
         style="fill:#1b4848;fill-opacity:1;fill-rule:nonzero;stroke:none;stroke-width:0.35277778"
         d="m -296.87588,-80.69901 c 0,-0.118512 -0.0634,-0.162609 -0.16537,-0.162609 -0.0965,0 -0.14607,0.04961 -0.1819,0.08957 v 0.704176 h -0.42443 v -1.141014 h 0.42443 v 0.129536 c 0.0661,-0.07579 0.19155,-0.158474 0.39274,-0.158474 0.26459,0 0.38034,0.16123 0.38034,0.359667 v 0.810285 h -0.42581 z m 0,0"
         id="path1850" />
      <path
         id="path1852"
         d="m -295.513,-80.785825 c -0.0413,-0.04961 -0.12127,-0.07579 -0.17777,-0.07579 -0.11576,0 -0.21222,0.07993 -0.21222,0.221865 0,0.141937 0.0965,0.224621 0.21222,0.224621 0.0565,0 0.13643,-0.02893 0.17777,-0.07855 z m 0,0.596688 c -0.0978,0.108868 -0.20671,0.14883 -0.32246,0.14883 -0.27561,0 -0.50299,-0.206706 -0.50299,-0.599447 0,-0.377581 0.22187,-0.598067 0.50299,-0.598067 0.11575,0 0.23151,0.03996 0.32246,0.148826 v -0.55535 h 0.42443 v 1.576476 h -0.42443 z m 0,0"
         style="clip-rule:nonzero;fill:#1b4848;fill-opacity:1;fill-rule:nonzero;stroke:none;stroke-width:0.35277778" />
      <path
         style="fill:#1b4848;fill-opacity:1;fill-rule:nonzero;stroke:none;stroke-width:0.35277778"
         d="m -292.88508,-80.734838 c 0,-0.06753 -0.0345,-0.126781 -0.12954,-0.126781 -0.0937,0 -0.14607,0.0565 -0.17501,0.08957 v 0.704176 h -0.42444 v -0.666969 c 0,-0.06753 -0.0331,-0.126781 -0.13091,-0.126781 -0.0923,0 -0.14332,0.0565 -0.17226,0.08957 v 0.704176 h -0.42581 v -1.141014 h 0.42581 v 0.129536 c 0.0496,-0.06339 0.19431,-0.158474 0.37897,-0.158474 0.15985,0 0.2756,0.05926 0.32797,0.201192 0.0661,-0.09922 0.21497,-0.201192 0.39963,-0.201192 0.20946,0 0.3514,0.106108 0.3514,0.343129 v 0.826823 h -0.42581 z m 0,0"
         id="path1856" />
      <path
         style="fill:#1b4848;fill-opacity:1;fill-rule:nonzero;stroke:none;stroke-width:0.35277778"
         d="m -291.91081,-80.777559 h 0.37482 c -0.011,-0.04961 -0.0524,-0.136423 -0.18879,-0.136423 -0.12953,0 -0.17225,0.08544 -0.18603,0.136423 m 0.18603,-0.460262 c 0.33624,0 0.59256,0.241155 0.59256,0.642165 v 0.08819 h -0.77446 c 0.0234,0.07304 0.10611,0.144695 0.25081,0.144695 0.0965,0 0.20119,-0.03583 0.25769,-0.0813 l 0.17501,0.263204 c -0.11438,0.09646 -0.31695,0.14056 -0.48783,0.14056 -0.35553,0 -0.63527,-0.223241 -0.63527,-0.599447 0,-0.330729 0.25356,-0.598067 0.62149,-0.598067"
         id="path1858" />
      <path
         style="fill:#1b4848;fill-opacity:1;fill-rule:nonzero;stroke:none;stroke-width:0.35277778"
         d="m -291.03162,-81.208883 h 0.42581 v 0.129536 c 0.0703,-0.08268 0.21911,-0.158474 0.35002,-0.158474 v 0.40652 c -0.0221,-0.0069 -0.0579,-0.01242 -0.0978,-0.01242 -0.0896,0 -0.20533,0.0248 -0.25218,0.0813 v 0.694532 h -0.42581 z m 0,0"
         id="path1860" />
      <path
         id="path1862"
         d="m -289.41243,-80.788584 c -0.04,-0.04685 -0.11989,-0.07304 -0.17501,-0.07304 -0.11575,0 -0.21222,0.05375 -0.21222,0.192927 0,0.139181 0.0965,0.194303 0.21222,0.194303 0.0551,0 0.13505,-0.02618 0.17501,-0.07304 z m -0.60496,0.71107 c 0.0882,0.08681 0.21773,0.125402 0.34038,0.125402 0.0992,0 0.26458,-0.03859 0.26458,-0.2384 v -0.06201 c -0.0965,0.111619 -0.20257,0.154341 -0.32108,0.154341 -0.27423,0 -0.50023,-0.180524 -0.50023,-0.570509 0,-0.38034 0.21911,-0.569129 0.50023,-0.569129 0.11851,0 0.22875,0.03996 0.32108,0.148826 v -0.119888 h 0.42582 v 1.018371 c 0,0.493335 -0.40653,0.585664 -0.6904,0.585664 -0.19568,0 -0.37069,-0.05236 -0.51952,-0.1695 z m 0,0"
         style="clip-rule:nonzero;fill:#1b4848;fill-opacity:1;fill-rule:nonzero;stroke:none;stroke-width:0.35277778" />
      <path
         id="path1866"
         d="m -288.43953,-80.777559 h 0.37482 c -0.011,-0.04961 -0.051,-0.136423 -0.18879,-0.136423 -0.12953,0 -0.17225,0.08544 -0.18603,0.136423 m 0.18603,-0.460262 c 0.33624,0 0.59393,0.241155 0.59393,0.642165 v 0.08819 h -0.77583 c 0.0234,0.07304 0.10611,0.144695 0.2508,0.144695 0.0965,0 0.2012,-0.03583 0.2577,-0.0813 l 0.17501,0.263204 c -0.113,0.09646 -0.31695,0.14056 -0.48645,0.14056 -0.35691,0 -0.63527,-0.223241 -0.63527,-0.599447 0,-0.330729 0.25218,-0.598067 0.62011,-0.598067"
         style="clip-rule:nonzero;fill:#1b4848;fill-opacity:1;fill-rule:nonzero;stroke:none;stroke-width:0.35277778" />
    </g>
    <g
       style="stroke:none;fill:#1b4848;fill-opacity:1"
       id="g2354">
      <path
         id="path1620"
         d="m -297.4395,-84.689808 h 0.3762 c -0.0124,-0.04961 -0.0524,-0.137802 -0.18879,-0.137802 -0.13091,0 -0.17225,0.08544 -0.18741,0.137802 m 0.18741,-0.460266 c 0.33487,0 0.59256,0.23978 0.59256,0.642168 v 0.08682 h -0.77446 c 0.0234,0.07442 0.10611,0.144695 0.2508,0.144695 0.0965,0 0.19982,-0.03583 0.25632,-0.07993 l 0.17501,0.261828 c -0.113,0.09646 -0.31557,0.141937 -0.48645,0.141937 -0.35691,0 -0.63527,-0.224617 -0.63527,-0.600823 0,-0.330729 0.25218,-0.596692 0.62149,-0.596692"
         style="clip-rule:nonzero;fill:#1b4848;fill-opacity:1;fill-rule:nonzero;stroke:none;stroke-width:0.35277778" />
      <path
         style="fill:#1b4848;fill-opacity:1;fill-rule:nonzero;stroke:none;stroke-width:0.35277778"
         d="m -295.90023,-84.354945 c -0.0276,-0.03996 -0.1006,-0.06064 -0.16674,-0.06064 -0.0717,0 -0.14883,0.02342 -0.14883,0.09371 0,0.07166 0.0772,0.09233 0.14883,0.09233 0.0661,0 0.13918,-0.02067 0.16674,-0.06063 z m 0,0.264584 c -0.0634,0.0813 -0.20257,0.137802 -0.34451,0.137802 -0.17088,0 -0.39274,-0.115754 -0.39274,-0.376202 0,-0.282498 0.22186,-0.351402 0.39274,-0.351402 0.14883,0 0.28387,0.04686 0.34451,0.125402 v -0.129533 c 0,-0.08131 -0.073,-0.143316 -0.21222,-0.143316 -0.10611,0 -0.22738,0.04272 -0.31695,0.111619 l -0.14331,-0.261829 c 0.15296,-0.122643 0.36518,-0.172254 0.53881,-0.172254 0.2825,0 0.55948,0.09922 0.55948,0.479559 v 0.689017 h -0.42581 z m 0,0"
         id="path1624" />
      <path
         style="fill:#1b4848;fill-opacity:1;fill-rule:nonzero;stroke:none;stroke-width:0.35277778"
         d="m -295.21121,-84.412821 c 0.0896,0.07028 0.28387,0.143316 0.41065,0.143316 0.0882,0 0.11438,-0.02343 0.11438,-0.05375 0,-0.03858 -0.0524,-0.05236 -0.16123,-0.06615 -0.19155,-0.02618 -0.48645,-0.06201 -0.48645,-0.372068 0,-0.20533 0.17915,-0.388609 0.51125,-0.388609 0.19017,0 0.36105,0.05788 0.49334,0.146075 l -0.15572,0.275607 c -0.0717,-0.05788 -0.20395,-0.117136 -0.33624,-0.117136 -0.0606,0 -0.10611,0.01655 -0.10611,0.04961 0,0.03306 0.0331,0.04685 0.14607,0.06339 0.19155,0.02893 0.50161,0.0689 0.50161,0.387226 0,0.227376 -0.20395,0.392741 -0.54157,0.392741 -0.21084,0 -0.43684,-0.07304 -0.55948,-0.17501 z m 0,0"
         id="path1626" />
      <path
         id="path1628"
         d="m -294.03575,-83.893303 c 0.0827,0 0.13505,-0.01379 0.14883,-0.04547 l 0.01,-0.02342 -0.44924,-1.160307 h 0.44924 l 0.21635,0.65181 0.22048,-0.65181 h 0.44924 l -0.49609,1.282954 c -0.10197,0.264583 -0.29076,0.314191 -0.53192,0.321081 -0.0303,0 -0.1254,-0.0069 -0.16537,-0.01792 l 0.0593,-0.378961 c 0.0262,0.01517 0.0606,0.02205 0.0896,0.02205"
         style="clip-rule:nonzero;fill:#1b4848;fill-opacity:1;fill-rule:nonzero;stroke:none;stroke-width:0.35277778" />
      <path
         id="path1632"
         d="m -291.65174,-84.699453 c -0.0413,-0.04961 -0.12127,-0.07579 -0.17777,-0.07579 -0.11575,0 -0.21222,0.07993 -0.21222,0.221866 0,0.141937 0.0965,0.224621 0.21222,0.224621 0.0565,0 0.13643,-0.02755 0.17777,-0.07717 z m 0,0.598067 c -0.0978,0.108864 -0.20671,0.148827 -0.32246,0.148827 -0.27561,0 -0.50299,-0.208083 -0.50299,-0.600823 0,-0.377582 0.22187,-0.596692 0.50299,-0.596692 0.11575,0 0.23151,0.03996 0.32246,0.14883 v -0.55535 h 0.42443 v 1.575096 h -0.42443 z m 0,0"
         style="clip-rule:nonzero;fill:#1b4848;fill-opacity:1;fill-rule:nonzero;stroke:none;stroke-width:0.35277778" />
      <path
         id="path1636"
         d="m -291.03713,-85.122511 h 0.42581 v 1.141013 h -0.42581 z m -0.0262,-0.321085 c 0,-0.132291 0.10611,-0.2384 0.2384,-0.2384 0.13229,0 0.23978,0.106109 0.23978,0.2384 0,0.132292 -0.10749,0.238401 -0.23978,0.238401 -0.13229,0 -0.2384,-0.106109 -0.2384,-0.238401"
         style="clip-rule:nonzero;fill:#1b4848;fill-opacity:1;fill-rule:nonzero;stroke:none;stroke-width:0.35277778" />
      <path
         id="path1640"
         d="m -289.4579,-84.753199 h -0.1888 v -0.369312 h 0.1888 v -0.05237 c 0,-0.235645 0.1819,-0.40652 0.43408,-0.40652 0.10886,0 0.20395,0.0248 0.26458,0.05788 l -0.0744,0.282497 c -0.0262,-0.01655 -0.0593,-0.02618 -0.091,-0.02618 -0.0634,0 -0.10887,0.04134 -0.10887,0.107488 v 0.03721 h 0.23289 v 0.369312 h -0.23289 v 0.771701 h -0.42443 z m -0.87644,0 h -0.18879 v -0.369312 h 0.18879 v -0.05237 c 0,-0.235645 0.18191,-0.40652 0.43409,-0.40652 0.10886,0 0.20395,0.0248 0.26458,0.05788 l -0.0758,0.282497 c -0.0262,-0.01655 -0.0593,-0.02618 -0.0896,-0.02618 -0.0634,0 -0.10886,0.04134 -0.10886,0.107488 v 0.03721 h 0.23151 v 0.369312 h -0.23151 v 0.771701 h -0.42444 z m 0,0"
         style="clip-rule:nonzero;fill:#1b4848;fill-opacity:1;fill-rule:nonzero;stroke:none;stroke-width:0.35277778" />
    </g>
    <g
       style="stroke:none;fill:#321921;fill-opacity:1"
       id="g2360">
      <path
         id="path1810"
         d="m -294.54286,-76.559385 h 0.42581 v 1.141017 h -0.42581 z m -0.0248,-0.321081 c 0,-0.132291 0.10611,-0.2384 0.2384,-0.2384 0.13229,0 0.2384,0.106109 0.2384,0.2384 0,0.132292 -0.10611,0.238401 -0.2384,0.238401 -0.13229,0 -0.2384,-0.106109 -0.2384,-0.238401"
         style="clip-rule:nonzero;fill:#321921;fill-opacity:1;fill-rule:nonzero;stroke:none;stroke-width:0.35277778" />
      <path
         style="fill:#321921;fill-opacity:1;fill-rule:nonzero;stroke:none;stroke-width:0.35277778"
         d="m -293.10695,-76.048132 c 0,-0.118509 -0.0648,-0.163986 -0.16536,-0.163986 -0.0978,0 -0.14745,0.04961 -0.1819,0.08957 v 0.704176 h -0.42582 v -1.141017 h 0.42582 v 0.129537 c 0.0661,-0.07441 0.19154,-0.157096 0.39136,-0.157096 0.26458,0 0.38034,0.159851 0.38034,0.358288 v 0.810288 h -0.42444 z m 0,0"
         id="path1814" />
    </g>
    <g
       style="stroke:none;fill:#321921;fill-opacity:1"
       id="g2376">
      <path
         id="path1718-6"
         d="m -296.68433,-73.422968 h -0.29077 v 0.276987 h 0.29077 c 0.0799,0 0.15571,-0.05237 0.15571,-0.139185 0,-0.08544 -0.0758,-0.137802 -0.15571,-0.137802 m -0.11852,0.673862 h -0.17225 v 0.505738 h -0.47818 v -1.576475 h 0.84198 c 0.36794,0 0.56637,0.246669 0.56637,0.54157 0,0.271473 -0.15847,0.416165 -0.28387,0.4768 l 0.28663,0.558105 h -0.54295 z m 0,0"
         style="clip-rule:nonzero;fill:#321921;fill-opacity:1;fill-rule:nonzero;stroke:none;stroke-width:0.35277778" />
      <path
         id="path1722-7"
         d="m -295.76932,-72.819387 c 0.11851,0.112999 0.2949,0.202572 0.5085,0.202572 0.0896,0 0.17501,-0.0303 0.17501,-0.09233 0,-0.06064 -0.0661,-0.09233 -0.22186,-0.119891 -0.26045,-0.04685 -0.65733,-0.108864 -0.65733,-0.502984 0,-0.267338 0.22187,-0.511252 0.65457,-0.511252 0.25769,0 0.4892,0.07304 0.66835,0.220486 l -0.25494,0.337619 c -0.1378,-0.104729 -0.31419,-0.155716 -0.43959,-0.155716 -0.11851,0 -0.1447,0.04272 -0.1447,0.08268 0,0.06064 0.0648,0.08268 0.23289,0.110243 0.25907,0.04548 0.64354,0.121268 0.64354,0.48507 0,0.347267 -0.25631,0.54846 -0.67937,0.54846 -0.33624,0 -0.56499,-0.09922 -0.73311,-0.250804 z m 0,0"
         style="clip-rule:nonzero;fill:#321921;fill-opacity:1;fill-rule:nonzero;stroke:none;stroke-width:0.35277778" />
      <path
         id="path1726-5"
         d="m -294.41608,-72.574097 v -0.442351 h -0.19017 v -0.367937 h 0.19017 v -0.312812 h 0.42443 v 0.312812 h 0.23151 v 0.367937 h -0.23151 v 0.319705 c 0,0.05926 0.0386,0.106108 0.0951,0.106108 0.0372,0 0.0758,-0.01242 0.0854,-0.02067 l 0.0758,0.321084 c -0.0455,0.03996 -0.1447,0.07579 -0.28939,0.07579 -0.25218,0 -0.39136,-0.121267 -0.39136,-0.359667"
         style="clip-rule:nonzero;fill:#321921;fill-opacity:1;fill-rule:nonzero;stroke:none;stroke-width:0.35277778" />
      <path
         id="path1730-3"
         d="m -292.87819,-72.370149 c -0.0648,0.07304 -0.19017,0.15572 -0.39137,0.15572 -0.26458,0 -0.37896,-0.158475 -0.37896,-0.354157 v -0.815799 h 0.42582 v 0.63252 c 0,0.115757 0.062,0.16123 0.16536,0.16123 0.0951,0 0.1447,-0.04961 0.17915,-0.08957 v -0.70418 h 0.42581 v 1.141017 h -0.42581 z m 0,0"
         style="clip-rule:nonzero;fill:#321921;fill-opacity:1;fill-rule:nonzero;stroke:none;stroke-width:0.35277778" />
      <path
         id="path1734-5"
         d="m -291.51531,-72.961327 c -0.04,-0.04961 -0.11989,-0.07579 -0.17777,-0.07579 -0.11576,0 -0.21222,0.07993 -0.21222,0.221866 0,0.141936 0.0965,0.224617 0.21222,0.224617 0.0579,0 0.1378,-0.02893 0.17777,-0.07855 z m 0,0.598071 c -0.0965,0.108864 -0.20533,0.148827 -0.32109,0.148827 -0.27698,0 -0.50298,-0.208083 -0.50298,-0.600823 0,-0.377585 0.22186,-0.598071 0.50298,-0.598071 0.11576,0 0.23151,0.03996 0.32109,0.150205 v -0.556725 h 0.42581 v 1.576475 h -0.42581 z m 0,0"
         style="clip-rule:nonzero;fill:#321921;fill-opacity:1;fill-rule:nonzero;stroke:none;stroke-width:0.35277778" />
      <path
         id="path1738-6"
         d="m -290.89933,-73.384385 h 0.42581 v 1.141017 h -0.42581 z m -0.0262,-0.321081 c 0,-0.132291 0.10611,-0.239779 0.2384,-0.239779 0.13229,0 0.2384,0.107488 0.2384,0.239779 0,0.132292 -0.10611,0.2384 -0.2384,0.2384 -0.13229,0 -0.2384,-0.106108 -0.2384,-0.2384"
         style="clip-rule:nonzero;fill:#321921;fill-opacity:1;fill-rule:nonzero;stroke:none;stroke-width:0.35277778" />
      <path
         id="path1742-2"
         d="m -289.51716,-72.815252 c 0,-0.125402 -0.073,-0.221866 -0.20533,-0.221866 -0.12953,0 -0.20257,0.09646 -0.20257,0.221866 0,0.128157 0.073,0.224617 0.20257,0.224617 0.1323,0 0.20533,-0.09646 0.20533,-0.224617 m -0.84474,0 c 0,-0.318329 0.23565,-0.598071 0.63941,-0.598071 0.40652,0 0.64217,0.279742 0.64217,0.598071 0,0.319705 -0.23565,0.600823 -0.64217,0.600823 -0.40376,0 -0.63941,-0.281118 -0.63941,-0.600823"
         style="clip-rule:nonzero;fill:#321921;fill-opacity:1;fill-rule:nonzero;stroke:none;stroke-width:0.35277778" />
    </g>
    <g
       style="stroke:none;fill:#989999;fill-opacity:1"
       id="g2394">
      <path
         id="path1784"
         d="m -284.68162,-80.441316 c -0.0289,-0.03996 -0.10198,-0.06201 -0.16812,-0.06201 -0.0703,0 -0.14745,0.02342 -0.14745,0.09508 0,0.07028 0.0772,0.09233 0.14745,0.09233 0.0661,0 0.13918,-0.02205 0.16812,-0.06201 z m 0,0.264583 c -0.0634,0.08131 -0.20258,0.136426 -0.34451,0.136426 -0.17088,0 -0.39274,-0.115757 -0.39274,-0.374826 0,-0.283877 0.22186,-0.352778 0.39274,-0.352778 0.14882,0 0.2825,0.04823 0.34451,0.125402 v -0.129536 c 0,-0.07993 -0.073,-0.141937 -0.21222,-0.141937 -0.10611,0 -0.22738,0.04272 -0.31695,0.111619 l -0.1447,-0.263204 c 0.15434,-0.122647 0.36657,-0.172254 0.53882,-0.172254 0.28388,0 0.56086,0.09922 0.56086,0.479555 v 0.690397 h -0.42581 z m 0,0"
         style="clip-rule:nonzero;fill:#989999;fill-opacity:1;fill-rule:nonzero;stroke:none;stroke-width:0.35277778" />
      <path
         style="fill:#989999;fill-opacity:1;fill-rule:nonzero;stroke:none;stroke-width:0.35277778"
         d="m -283.34079,-80.69901 c 0,-0.118512 -0.0634,-0.162609 -0.16537,-0.162609 -0.0965,0 -0.14607,0.04961 -0.1819,0.08957 v 0.704176 h -0.42443 v -1.141014 h 0.42443 v 0.129536 c 0.0661,-0.07579 0.19155,-0.158474 0.39274,-0.158474 0.26459,0 0.38034,0.16123 0.38034,0.359667 v 0.810285 h -0.42581 z m 0,0"
         id="path1788" />
      <path
         id="path1790"
         d="m -281.97791,-80.785825 c -0.0413,-0.04961 -0.12127,-0.07579 -0.17777,-0.07579 -0.11576,0 -0.21222,0.07993 -0.21222,0.221865 0,0.141937 0.0965,0.224621 0.21222,0.224621 0.0565,0 0.13643,-0.02893 0.17777,-0.07855 z m 0,0.596688 c -0.0978,0.108868 -0.20671,0.14883 -0.32246,0.14883 -0.27561,0 -0.50299,-0.206706 -0.50299,-0.599447 0,-0.377581 0.22187,-0.598067 0.50299,-0.598067 0.11575,0 0.23151,0.03996 0.32246,0.148826 v -0.55535 h 0.42443 v 1.576476 h -0.42443 z m 0,0"
         style="clip-rule:nonzero;fill:#989999;fill-opacity:1;fill-rule:nonzero;stroke:none;stroke-width:0.35277778" />
      <path
         style="fill:#989999;fill-opacity:1;fill-rule:nonzero;stroke:none;stroke-width:0.35277778"
         d="m -279.34999,-80.734838 c 0,-0.06753 -0.0345,-0.126781 -0.12954,-0.126781 -0.0937,0 -0.14607,0.0565 -0.17501,0.08957 v 0.704176 h -0.42444 v -0.666969 c 0,-0.06753 -0.0331,-0.126781 -0.13091,-0.126781 -0.0923,0 -0.14332,0.0565 -0.17225,0.08957 v 0.704176 h -0.42582 v -1.141014 h 0.42582 v 0.129536 c 0.0496,-0.06339 0.1943,-0.158474 0.37896,-0.158474 0.15985,0 0.2756,0.05926 0.32797,0.201192 0.0661,-0.09922 0.21497,-0.201192 0.39963,-0.201192 0.20946,0 0.3514,0.106108 0.3514,0.343129 v 0.826823 h -0.42581 z m 0,0"
         id="path1794" />
      <path
         style="fill:#989999;fill-opacity:1;fill-rule:nonzero;stroke:none;stroke-width:0.35277778"
         d="m -278.3771,-80.777559 h 0.37621 c -0.0124,-0.04961 -0.0524,-0.136423 -0.1888,-0.136423 -0.13091,0 -0.17225,0.08544 -0.18741,0.136423 m 0.18741,-0.460262 c 0.33487,0 0.59256,0.241155 0.59256,0.642165 v 0.08819 h -0.77446 c 0.0234,0.07304 0.10611,0.144695 0.25081,0.144695 0.0965,0 0.19981,-0.03583 0.25631,-0.0813 l 0.17501,0.263204 c -0.113,0.09646 -0.31557,0.14056 -0.48644,0.14056 -0.35692,0 -0.63528,-0.223241 -0.63528,-0.599447 0,-0.330729 0.25218,-0.598067 0.62149,-0.598067"
         id="path1796" />
      <path
         style="fill:#989999;fill-opacity:1;fill-rule:nonzero;stroke:none;stroke-width:0.35277778"
         d="m -277.49653,-81.208883 h 0.42581 v 0.129536 c 0.0703,-0.08268 0.21911,-0.158474 0.34865,-0.158474 v 0.40652 c -0.0207,-0.0069 -0.0565,-0.01242 -0.0965,-0.01242 -0.0896,0 -0.20533,0.0248 -0.25218,0.0813 v 0.694532 h -0.42581 z m 0,0"
         id="path1798" />
      <path
         id="path1800"
         d="m -275.82911,-80.788584 c -0.0413,-0.04685 -0.12126,-0.07304 -0.17501,-0.07304 -0.11575,0 -0.21359,0.05375 -0.21359,0.192927 0,0.139181 0.0978,0.194303 0.21359,0.194303 0.0537,0 0.13367,-0.02618 0.17501,-0.07304 z m -0.60495,0.71107 c 0.0868,0.08681 0.21635,0.125402 0.33899,0.125402 0.1006,0 0.26596,-0.03859 0.26596,-0.2384 v -0.06201 c -0.0978,0.111619 -0.20395,0.154341 -0.32246,0.154341 -0.27285,0 -0.50022,-0.180524 -0.50022,-0.570509 0,-0.38034 0.2191,-0.569129 0.50022,-0.569129 0.11851,0 0.23013,0.03996 0.32246,0.148826 v -0.119888 h 0.42444 v 1.018371 c 0,0.493335 -0.40652,0.585664 -0.6904,0.585664 -0.19568,0 -0.37069,-0.05236 -0.51952,-0.1695 z m 0,0"
         style="clip-rule:nonzero;fill:#989999;fill-opacity:1;fill-rule:nonzero;stroke:none;stroke-width:0.35277778" />
      <path
         id="path1804"
         d="m -274.85759,-80.777559 h 0.3762 c -0.0124,-0.04961 -0.0524,-0.136423 -0.18878,-0.136423 -0.13092,0 -0.17364,0.08544 -0.18742,0.136423 m 0.18742,-0.460262 c 0.33486,0 0.59255,0.241155 0.59255,0.642165 v 0.08819 h -0.77584 c 0.0248,0.07304 0.10749,0.144695 0.25219,0.144695 0.0965,0 0.19981,-0.03583 0.25631,-0.0813 l 0.17501,0.263204 c -0.113,0.09646 -0.31695,0.14056 -0.48645,0.14056 -0.35691,0 -0.63527,-0.223241 -0.63527,-0.599447 0,-0.330729 0.25218,-0.598067 0.6215,-0.598067"
         style="clip-rule:nonzero;fill:#989999;fill-opacity:1;fill-rule:nonzero;stroke:none;stroke-width:0.35277778" />
    </g>
    <g
       style="stroke:none;fill:#989999;fill-opacity:1"
       id="g2410">
      <path
         id="path1758"
         d="m -283.94162,-84.689808 h 0.37483 c -0.011,-0.04961 -0.051,-0.137802 -0.18879,-0.137802 -0.12954,0 -0.17226,0.08544 -0.18604,0.137802 m 0.18604,-0.460266 c 0.33624,0 0.59393,0.23978 0.59393,0.642168 v 0.08682 h -0.77583 c 0.0234,0.07442 0.10611,0.144695 0.2508,0.144695 0.0965,0 0.2012,-0.03583 0.25769,-0.07993 l 0.17502,0.261828 c -0.11301,0.09646 -0.31695,0.141937 -0.48645,0.141937 -0.35692,0 -0.63528,-0.224617 -0.63528,-0.600823 0,-0.330729 0.25218,-0.596692 0.62012,-0.596692"
         style="clip-rule:nonzero;fill:#989999;fill-opacity:1;fill-rule:nonzero;stroke:none;stroke-width:0.35277778" />
      <path
         style="fill:#989999;fill-opacity:1;fill-rule:nonzero;stroke:none;stroke-width:0.35277778"
         d="m -282.3555,-84.354945 c -0.0289,-0.03996 -0.10197,-0.06064 -0.16811,-0.06064 -0.0703,0 -0.14746,0.02342 -0.14746,0.09371 0,0.07166 0.0772,0.09233 0.14746,0.09233 0.0661,0 0.13918,-0.02067 0.16811,-0.06063 z m 0,0.264584 c -0.0634,0.0813 -0.20257,0.137802 -0.3445,0.137802 -0.17088,0 -0.39274,-0.115754 -0.39274,-0.376202 0,-0.282498 0.22186,-0.351402 0.39274,-0.351402 0.14882,0 0.28249,0.04686 0.3445,0.125402 v -0.129533 c 0,-0.08131 -0.073,-0.143316 -0.21221,-0.143316 -0.10611,0 -0.22738,0.04272 -0.31695,0.111619 l -0.1447,-0.261829 c 0.15434,-0.122643 0.36656,-0.172254 0.53882,-0.172254 0.28387,0 0.56086,0.09922 0.56086,0.479559 v 0.689017 h -0.42582 z m 0,0"
         id="path1762" />
      <path
         style="fill:#989999;fill-opacity:1;fill-rule:nonzero;stroke:none;stroke-width:0.35277778"
         d="m -281.66648,-84.412821 c 0.0896,0.07028 0.28388,0.143316 0.41066,0.143316 0.0882,0 0.113,-0.02343 0.113,-0.05375 0,-0.03858 -0.051,-0.05236 -0.15986,-0.06615 -0.19154,-0.02618 -0.48644,-0.06201 -0.48644,-0.372068 0,-0.20533 0.17914,-0.388609 0.50987,-0.388609 0.19155,0 0.36105,0.05788 0.49334,0.146075 l -0.15572,0.275607 c -0.0703,-0.05788 -0.20257,-0.117136 -0.33486,-0.117136 -0.062,0 -0.10611,0.01655 -0.10611,0.04961 0,0.03306 0.0331,0.04685 0.14607,0.06339 0.19155,0.02893 0.50023,0.0689 0.50023,0.387226 0,0.227376 -0.20257,0.392741 -0.54019,0.392741 -0.21084,0 -0.43822,-0.07304 -0.55948,-0.17501 z m 0,0"
         id="path1764" />
      <path
         id="path1766"
         d="m -280.44416,-83.893303 c 0.0827,0 0.13505,-0.01379 0.14883,-0.04547 l 0.01,-0.02343 -0.44924,-1.160307 h 0.44924 l 0.21773,0.651809 0.21911,-0.651809 h 0.44924 l -0.4961,1.282954 c -0.10197,0.264583 -0.29076,0.31419 -0.53192,0.32108 -0.0303,0 -0.1254,-0.0069 -0.16537,-0.01792 l 0.0593,-0.378961 c 0.0262,0.01517 0.062,0.02205 0.0896,0.02205"
         style="clip-rule:nonzero;fill:#989999;fill-opacity:1;fill-rule:nonzero;stroke:none;stroke-width:0.35277778" />
      <path
         id="path1770"
         d="m -278.06015,-84.699453 c -0.0413,-0.04961 -0.12127,-0.07579 -0.17777,-0.07579 -0.11575,0 -0.21222,0.07993 -0.21222,0.221866 0,0.141937 0.0965,0.224621 0.21222,0.224621 0.0565,0 0.13643,-0.02755 0.17777,-0.07717 z m 0,0.598067 c -0.0978,0.108864 -0.20671,0.148827 -0.32246,0.148827 -0.27561,0 -0.50298,-0.208083 -0.50298,-0.600823 0,-0.377582 0.22186,-0.596692 0.50298,-0.596692 0.11575,0 0.23151,0.03996 0.32246,0.14883 v -0.55535 h 0.42444 v 1.575096 h -0.42444 z m 0,0"
         style="clip-rule:nonzero;fill:#989999;fill-opacity:1;fill-rule:nonzero;stroke:none;stroke-width:0.35277778" />
      <path
         id="path1774"
         d="m -277.44554,-85.122511 h 0.42581 v 1.141013 h -0.42581 z m -0.0248,-0.321085 c 0,-0.132291 0.10472,-0.2384 0.23702,-0.2384 0.13229,0 0.23978,0.106109 0.23978,0.2384 0,0.132292 -0.10749,0.238401 -0.23978,0.238401 -0.1323,0 -0.23702,-0.106109 -0.23702,-0.238401"
         style="clip-rule:nonzero;fill:#989999;fill-opacity:1;fill-rule:nonzero;stroke:none;stroke-width:0.35277778" />
      <path
         id="path1778"
         d="m -275.81946,-84.753199 h -0.18879 v -0.369312 h 0.18879 v -0.05237 c 0,-0.235645 0.18328,-0.40652 0.43546,-0.40652 0.10886,0 0.20395,0.0248 0.26458,0.05788 l -0.0758,0.282497 c -0.0262,-0.01655 -0.0593,-0.02618 -0.0896,-0.02618 -0.0634,0 -0.10887,0.04134 -0.10887,0.107488 v 0.03721 h 0.23151 v 0.369312 h -0.23151 v 0.771701 h -0.42581 z m -0.87643,0 h -0.18879 v -0.369312 h 0.18879 v -0.05237 c 0,-0.235645 0.1819,-0.40652 0.43546,-0.40652 0.10748,0 0.20257,0.0248 0.26458,0.05788 l -0.0758,0.282497 c -0.0262,-0.01655 -0.0593,-0.02618 -0.0896,-0.02618 -0.0648,0 -0.10887,0.04134 -0.10887,0.107488 v 0.03721 h 0.23151 v 0.369312 h -0.23151 v 0.771701 h -0.42581 z m 0,0"
         style="clip-rule:nonzero;fill:#989999;fill-opacity:1;fill-rule:nonzero;stroke:none;stroke-width:0.35277778" />
    </g>
    <g
       style="stroke:none;fill:#8c656d;fill-opacity:1"
       id="g2416">
      <path
         id="path1748"
         d="m -307.74998,-76.552492 h 0.42581 v 1.141014 h -0.42581 z m -0.0262,-0.321084 c 0,-0.132292 0.10611,-0.239779 0.23841,-0.239779 0.13229,0 0.23977,0.107487 0.23977,0.239779 0,0.132292 -0.10748,0.2384 -0.23977,0.2384 -0.1323,0 -0.23841,-0.106108 -0.23841,-0.2384"
         style="clip-rule:nonzero;fill:#8c656d;fill-opacity:1;fill-rule:nonzero;stroke:none;stroke-width:0.35277778" />
      <path
         id="path1752"
         d="m -306.3623,-76.042618 c 0,-0.117133 -0.0634,-0.16261 -0.16536,-0.16261 -0.0965,0 -0.14607,0.04961 -0.1819,0.08957 v 0.704176 h -0.42444 v -1.141014 h 0.42444 v 0.129533 c 0.0661,-0.07579 0.19154,-0.158475 0.39274,-0.158475 0.26458,0 0.38034,0.161234 0.38034,0.359672 v 0.810284 h -0.42582 z m 0,0"
         style="clip-rule:nonzero;fill:#8c656d;fill-opacity:1;fill-rule:nonzero;stroke:none;stroke-width:0.35277778" />
    </g>
    <g
       style="stroke:none;fill:#8c656d;fill-opacity:1"
       id="g2432">
      <path
         id="path1718"
         d="m -283.12168,-76.597968 h -0.29077 v 0.276987 h 0.29077 c 0.0799,0 0.15571,-0.05237 0.15571,-0.139185 0,-0.08544 -0.0758,-0.137802 -0.15571,-0.137802 m -0.11851,0.673862 h -0.17226 v 0.505738 h -0.47818 v -1.576475 h 0.84198 c 0.36794,0 0.56638,0.246669 0.56638,0.54157 0,0.271473 -0.15848,0.416165 -0.28388,0.4768 l 0.28663,0.558105 h -0.54294 z m 0,0"
         style="clip-rule:nonzero;fill:#8c656d;fill-opacity:1;fill-rule:nonzero;stroke:none;stroke-width:0.35277778" />
      <path
         id="path1722"
         d="m -282.20667,-75.994387 c 0.11851,0.112999 0.2949,0.202572 0.5085,0.202572 0.0896,0 0.17501,-0.0303 0.17501,-0.09233 0,-0.06063 -0.0661,-0.09233 -0.22186,-0.119891 -0.26045,-0.04685 -0.65733,-0.108864 -0.65733,-0.502984 0,-0.267338 0.22186,-0.511252 0.65457,-0.511252 0.25769,0 0.4892,0.07304 0.66835,0.220486 l -0.25494,0.337619 c -0.1378,-0.104729 -0.31419,-0.155716 -0.43959,-0.155716 -0.11851,0 -0.1447,0.04272 -0.1447,0.08268 0,0.06064 0.0648,0.08268 0.23289,0.110243 0.25907,0.04548 0.64355,0.121268 0.64355,0.48507 0,0.347267 -0.25632,0.54846 -0.67938,0.54846 -0.33624,0 -0.56499,-0.09922 -0.73311,-0.250804 z m 0,0"
         style="clip-rule:nonzero;fill:#8c656d;fill-opacity:1;fill-rule:nonzero;stroke:none;stroke-width:0.35277778" />
      <path
         id="path1726"
         d="m -280.85343,-75.749097 v -0.442351 h -0.19017 v -0.367937 h 0.19017 v -0.312811 h 0.42443 v 0.312811 h 0.23151 v 0.367937 h -0.23151 v 0.319705 c 0,0.05926 0.0386,0.106108 0.0951,0.106108 0.0372,0 0.0758,-0.01242 0.0854,-0.02067 l 0.0758,0.321085 c -0.0455,0.03996 -0.1447,0.07579 -0.28939,0.07579 -0.25218,0 -0.39136,-0.121267 -0.39136,-0.359667"
         style="clip-rule:nonzero;fill:#8c656d;fill-opacity:1;fill-rule:nonzero;stroke:none;stroke-width:0.35277778" />
      <path
         id="path1730"
         d="m -279.31554,-75.545149 c -0.0648,0.07304 -0.19017,0.15572 -0.39137,0.15572 -0.26458,0 -0.37896,-0.158475 -0.37896,-0.354157 v -0.815799 h 0.42582 v 0.63252 c 0,0.115757 0.062,0.16123 0.16536,0.16123 0.0951,0 0.1447,-0.04961 0.17915,-0.08957 v -0.70418 h 0.42581 v 1.141017 h -0.42581 z m 0,0"
         style="clip-rule:nonzero;fill:#8c656d;fill-opacity:1;fill-rule:nonzero;stroke:none;stroke-width:0.35277778" />
      <path
         id="path1734"
         d="m -277.95266,-76.136327 c -0.04,-0.04961 -0.11989,-0.07579 -0.17777,-0.07579 -0.11575,0 -0.21222,0.07993 -0.21222,0.221866 0,0.141937 0.0965,0.224617 0.21222,0.224617 0.0579,0 0.1378,-0.02893 0.17777,-0.07855 z m 0,0.598071 c -0.0965,0.108864 -0.20533,0.148827 -0.32109,0.148827 -0.27698,0 -0.50298,-0.208083 -0.50298,-0.600823 0,-0.377585 0.22187,-0.598071 0.50298,-0.598071 0.11576,0 0.23151,0.03996 0.32109,0.150205 v -0.556725 h 0.42581 v 1.576475 h -0.42581 z m 0,0"
         style="clip-rule:nonzero;fill:#8c656d;fill-opacity:1;fill-rule:nonzero;stroke:none;stroke-width:0.35277778" />
      <path
         id="path1738"
         d="m -277.33668,-76.559385 h 0.42581 v 1.141017 h -0.42581 z m -0.0262,-0.321081 c 0,-0.132291 0.10611,-0.239779 0.2384,-0.239779 0.13229,0 0.2384,0.107488 0.2384,0.239779 0,0.132292 -0.10611,0.238401 -0.2384,0.238401 -0.13229,0 -0.2384,-0.106109 -0.2384,-0.238401"
         style="clip-rule:nonzero;fill:#8c656d;fill-opacity:1;fill-rule:nonzero;stroke:none;stroke-width:0.35277778" />
      <path
         id="path1742"
         d="m -275.95451,-75.990252 c 0,-0.125402 -0.073,-0.221866 -0.20533,-0.221866 -0.12953,0 -0.20257,0.09646 -0.20257,0.221866 0,0.128157 0.073,0.224617 0.20257,0.224617 0.1323,0 0.20533,-0.09646 0.20533,-0.224617 m -0.84474,0 c 0,-0.318329 0.23565,-0.598071 0.63941,-0.598071 0.40652,0 0.64217,0.279742 0.64217,0.598071 0,0.319705 -0.23565,0.600823 -0.64217,0.600823 -0.40376,0 -0.63941,-0.281118 -0.63941,-0.600823"
         style="clip-rule:nonzero;fill:#8c656d;fill-opacity:1;fill-rule:nonzero;stroke:none;stroke-width:0.35277778" />
    </g>
    <g
       style="stroke:none;fill:#508581;fill-opacity:1"
       id="g2452">
      <path
         id="path1680"
         d="m -312.49043,-80.770666 h 0.37482 c -0.011,-0.04961 -0.051,-0.136426 -0.18879,-0.136426 -0.12953,0 -0.17225,0.08544 -0.18603,0.136426 m 0.18603,-0.460266 c 0.33624,0 0.59394,0.241156 0.59394,0.643545 v 0.08682 h -0.77584 c 0.0234,0.07304 0.10611,0.144695 0.2508,0.144695 0.0965,0 0.2012,-0.03583 0.2577,-0.08131 l 0.17501,0.263204 c -0.113,0.09646 -0.31695,0.140561 -0.48645,0.140561 -0.35691,0 -0.63528,-0.223241 -0.63528,-0.599447 0,-0.330729 0.25219,-0.598068 0.62012,-0.598068"
         style="clip-rule:nonzero;fill:#508581;fill-opacity:1;fill-rule:nonzero;stroke:none;stroke-width:0.35277778" />
      <path
         id="path1684"
         d="m -310.95117,-80.434426 c -0.0289,-0.03996 -0.10197,-0.06201 -0.16812,-0.06201 -0.0703,0 -0.14882,0.0248 -0.14882,0.09508 0,0.07028 0.0785,0.09233 0.14882,0.09233 0.0661,0 0.13919,-0.02205 0.16812,-0.06201 z m 0,0.264583 c -0.0634,0.08131 -0.20394,0.136426 -0.34588,0.136426 -0.1695,0 -0.39137,-0.114378 -0.39137,-0.374826 0,-0.283877 0.22187,-0.352778 0.39137,-0.352778 0.14883,0 0.28387,0.04823 0.34588,0.125402 v -0.129537 c 0,-0.07992 -0.073,-0.141936 -0.21359,-0.141936 -0.10611,0 -0.226,0.04272 -0.31557,0.111619 l -0.1447,-0.263204 c 0.15434,-0.122647 0.36656,-0.172255 0.53882,-0.172255 0.28387,0 0.55948,0.09922 0.55948,0.479556 v 0.690397 h -0.42444 z m 0,0"
         style="clip-rule:nonzero;fill:#508581;fill-opacity:1;fill-rule:nonzero;stroke:none;stroke-width:0.35277778" />
      <path
         id="path1688"
         d="m -310.26215,-80.493683 c 0.0896,0.07166 0.2825,0.144696 0.41066,0.144696 0.0868,0 0.113,-0.02343 0.113,-0.05512 0,-0.03721 -0.0524,-0.05099 -0.15985,-0.06615 -0.19155,-0.02618 -0.48783,-0.06064 -0.48783,-0.370691 0,-0.205328 0.18052,-0.389986 0.51125,-0.389986 0.19155,0 0.36105,0.05926 0.49334,0.146072 l -0.15572,0.276987 c -0.0703,-0.05926 -0.20257,-0.118513 -0.33624,-0.118513 -0.0606,0 -0.10611,0.01655 -0.10611,0.04961 0,0.03306 0.0331,0.04823 0.14745,0.06477 0.19155,0.02755 0.50023,0.06752 0.50023,0.387226 0,0.226 -0.20257,0.391365 -0.54157,0.391365 -0.20946,0 -0.43684,-0.07304 -0.55948,-0.173634 z m 0,0"
         style="clip-rule:nonzero;fill:#508581;fill-opacity:1;fill-rule:nonzero;stroke:none;stroke-width:0.35277778" />
      <path
         id="path1692"
         d="m -309.08806,-79.974161 c 0.0827,0 0.13505,-0.01379 0.14883,-0.0441 l 0.01,-0.02343 -0.44924,-1.160307 h 0.44924 l 0.21773,0.651814 0.2191,-0.651814 h 0.44924 l -0.49609,1.282954 c -0.1006,0.264584 -0.29077,0.314191 -0.53192,0.321081 -0.0303,0 -0.1254,-0.0069 -0.16537,-0.0193 l 0.0593,-0.377582 c 0.0262,0.01379 0.062,0.02067 0.0896,0.02067"
         style="clip-rule:nonzero;fill:#508581;fill-opacity:1;fill-rule:nonzero;stroke:none;stroke-width:0.35277778" />
      <path
         id="path1696"
         d="m -305.99298,-80.727948 c 0,-0.06753 -0.0358,-0.126781 -0.12954,-0.126781 -0.0951,0 -0.14607,0.0565 -0.17501,0.08957 v 0.704177 h -0.42444 v -0.666969 c 0,-0.06753 -0.0344,-0.126781 -0.13091,-0.126781 -0.0923,0 -0.14469,0.0565 -0.17225,0.08957 v 0.704177 h -0.42582 v -1.141014 h 0.42582 v 0.129536 c 0.0496,-0.06339 0.19292,-0.158475 0.37758,-0.158475 0.16123,0 0.27698,0.05926 0.32935,0.201193 0.0661,-0.09922 0.21497,-0.201193 0.39825,-0.201193 0.21084,0 0.35278,0.106109 0.35278,0.34313 v 0.826823 h -0.42581 z m 0,0"
         style="clip-rule:nonzero;fill:#508581;fill-opacity:1;fill-rule:nonzero;stroke:none;stroke-width:0.35277778" />
      <path
         id="path1700"
         d="m -305.02009,-80.770666 h 0.37621 c -0.0124,-0.04961 -0.0524,-0.136426 -0.1888,-0.136426 -0.13091,0 -0.17363,0.08544 -0.18741,0.136426 m 0.18741,-0.460266 c 0.33487,0 0.59256,0.241156 0.59256,0.643545 v 0.08682 h -0.77583 c 0.0248,0.07304 0.10748,0.144695 0.25218,0.144695 0.0965,0 0.19981,-0.03583 0.25631,-0.08131 l 0.17501,0.263204 c -0.113,0.09646 -0.31695,0.140561 -0.48645,0.140561 -0.35691,0 -0.63527,-0.223241 -0.63527,-0.599447 0,-0.330729 0.25218,-0.598068 0.62149,-0.598068"
         style="clip-rule:nonzero;fill:#508581;fill-opacity:1;fill-rule:nonzero;stroke:none;stroke-width:0.35277778" />
      <path
         id="path1704"
         d="m -304.13952,-81.201993 h 0.42443 v 0.129536 c 0.0717,-0.08268 0.22049,-0.158475 0.35002,-0.158475 v 0.40652 c -0.0207,-0.0069 -0.0565,-0.01242 -0.0965,-0.01242 -0.0896,0 -0.20533,0.0248 -0.25356,0.0813 v 0.694531 h -0.42443 z m 0,0"
         style="clip-rule:nonzero;fill:#508581;fill-opacity:1;fill-rule:nonzero;stroke:none;stroke-width:0.35277778" />
      <path
         id="path1708"
         d="m -302.52033,-80.78169 c -0.04,-0.04686 -0.12126,-0.07304 -0.17501,-0.07304 -0.11575,0 -0.21222,0.05375 -0.21222,0.192927 0,0.14056 0.0965,0.194303 0.21222,0.194303 0.0537,0 0.13505,-0.02618 0.17501,-0.07304 z m -0.60496,0.711066 c 0.0868,0.08682 0.21773,0.125402 0.34038,0.125402 0.0992,0 0.26458,-0.03859 0.26458,-0.238401 v -0.06201 c -0.0965,0.111619 -0.20395,0.15434 -0.32108,0.15434 -0.27423,0 -0.50161,-0.180523 -0.50161,-0.570508 0,-0.380341 0.22049,-0.56913 0.50161,-0.56913 0.11713,0 0.22875,0.03996 0.32108,0.148827 v -0.119888 h 0.42444 v 1.01837 c 0,0.493339 -0.40515,0.585664 -0.68902,0.585664 -0.19706,0 -0.37069,-0.05236 -0.5209,-0.169495 z m 0,0"
         style="clip-rule:nonzero;fill:#508581;fill-opacity:1;fill-rule:nonzero;stroke:none;stroke-width:0.35277778" />
      <path
         id="path1712"
         d="m -301.54881,-80.770666 h 0.3762 c -0.0124,-0.04961 -0.0524,-0.136426 -0.18879,-0.136426 -0.13091,0 -0.17225,0.08544 -0.18741,0.136426 m 0.18741,-0.460266 c 0.33487,0 0.59256,0.241156 0.59256,0.643545 v 0.08682 h -0.77446 c 0.0234,0.07304 0.10611,0.144695 0.2508,0.144695 0.0965,0 0.19982,-0.03583 0.25632,-0.08131 l 0.17501,0.263204 c -0.113,0.09646 -0.31557,0.140561 -0.48645,0.140561 -0.35691,0 -0.63527,-0.223241 -0.63527,-0.599447 0,-0.330729 0.25218,-0.598068 0.62149,-0.598068"
         style="clip-rule:nonzero;fill:#508581;fill-opacity:1;fill-rule:nonzero;stroke:none;stroke-width:0.35277778" />
    </g>
    <path
       style="fill:#3e3f40;fill-opacity:1;fill-rule:nonzero;stroke:none;stroke-width:0.35277775"
       d="m -293.30952,-110.15595 -21.99763,12.699998 v 25.4 l 21.99763,12.7 21.99762,-12.7 v -25.4 z m 0,2.03674 20.23373,11.681628 v 23.363259 l -20.23373,11.68163 -20.23374,-11.68163 v -23.363259 z m 0,0"
       id="path464" />
  </g>
</svg>
