<?xml version="1.0" encoding="utf-8"?>
<!-- Generator: Adobe Illustrator 22.1.0, SVG Export Plug-In . SVG Version: 6.00 Build 0)  -->
<svg version="1.1" id="Layer_1" xmlns="http://www.w3.org/2000/svg" xmlns:xlink="http://www.w3.org/1999/xlink" x="0px" y="0px"
	 viewBox="0 0 1011 1065" style="enable-background:new 0 0 1011 1065;" xml:space="preserve">
<style type="text/css">
	.st0{fill:#D46C5B;}
	.st1{fill:#FFFFFF;}
	.st2{fill:none;stroke:#000000;stroke-miterlimit:10;}
	.st3{fill:#444444;}
</style>
<g id="XMLID_1_">
	<g>
		<path class="st0" d="M926,255.7v479.8L510.5,975.4L95,735.5V255.7L510.5,15.8L926,255.7z M886,712.6l0-433.6L510.5,62.2L135,279
			v433.6l375.5,216.8L886,712.6z"/>
		<polygon class="st1" points="886,279 886,712.6 510.5,929.4 135,712.6 135,279 510.5,62.2 		"/>
	</g>
	<g>
		<polygon class="st2" points="926,735.5 510.5,975.4 95,735.5 95,255.7 510.5,15.8 926,255.7 		"/>
		<polygon class="st2" points="886,712.6 510.5,929.4 135,712.6 135,279 510.5,62.2 886,279 		"/>
	</g>
</g>
<g>
	<g>
		<path class="st0" d="M248.2,329c130,0,259.9,0,389.9,0c36.7,0,73.3,0,110,0c10.5,0,20.5-9.2,20-20c-0.5-10.8-8.8-20-20-20
			c-130,0-259.9,0-389.9,0c-36.7,0-73.3,0-110,0c-10.5,0-20.5,9.2-20,20C228.7,319.8,237,329,248.2,329L248.2,329z"/>
	</g>
</g>
<g>
	<g>
		<path class="st0" d="M301.7,467.7c102.2,0,204.5,0,306.7,0c29.2,0,58.4,0,87.6,0c10.5,0,20.5-9.2,20-20c-0.5-10.8-8.8-20-20-20
			c-102.2,0-204.5,0-306.7,0c-29.2,0-58.4,0-87.6,0c-10.5,0-20.5,9.2-20,20C282.2,458.5,290.5,467.7,301.7,467.7L301.7,467.7z"/>
	</g>
</g>
<g>
	<g>
		<path class="st0" d="M368.7,607.6c66.9,0,133.8,0,200.7,0c19.2,0,38.4,0,57.6,0c10.5,0,20.5-9.2,20-20c-0.5-10.8-8.8-20-20-20
			c-66.9,0-133.8,0-200.7,0c-19.2,0-38.4,0-57.6,0c-10.5,0-20.5,9.2-20,20C349.2,598.4,357.5,607.6,368.7,607.6L368.7,607.6z"/>
	</g>
</g>
<g>
	<g>
		<path class="st0" d="M432.6,745.7c48.4-0.2,96.9-0.4,145.3-0.6c10.5,0,20.5-9.2,20-20c-0.5-10.8-8.8-20-20-20
			c-48.4,0.2-96.9,0.4-145.3,0.6c-10.5,0-20.5,9.2-20,20C413,736.5,421.4,745.7,432.6,745.7L432.6,745.7z"/>
	</g>
</g>
<g>
	<g>
		<path class="st3" d="M248,334c13.1,0,25.6-11.5,25-25c-0.6-13.5-11-25-25-25c-13.1,0-25.6,11.5-25,25C223.6,322.5,234,334,248,334
			L248,334z"/>
	</g>
</g>
<g>
	<g>
		<path class="st3" d="M748,334c13.1,0,25.6-11.5,25-25c-0.6-13.5-11-25-25-25c-13.1,0-25.6,11.5-25,25C723.6,322.5,734,334,748,334
			L748,334z"/>
	</g>
</g>
<g>
	<g>
		<path class="st3" d="M307.6,473.1c13.1,0,25.6-11.5,25-25c-0.6-13.5-11-25-25-25c-13.1,0-25.6,11.5-25,25
			C283.2,461.6,293.6,473.1,307.6,473.1L307.6,473.1z"/>
	</g>
</g>
<g>
	<g>
		<path class="st3" d="M696.1,472.6c13.1,0,25.6-11.5,25-25c-0.6-13.5-11-25-25-25c-13.1,0-25.6,11.5-25,25
			C671.7,461.1,682.1,472.6,696.1,472.6L696.1,472.6z"/>
	</g>
</g>
<g>
	<g>
		<path class="st3" d="M374.6,612.1c13.1,0,25.6-11.5,25-25c-0.6-13.5-11-25-25-25c-13.1,0-25.6,11.5-25,25
			C350.2,600.6,360.6,612.1,374.6,612.1L374.6,612.1z"/>
	</g>
</g>
<g>
	<g>
		<path class="st3" d="M626.6,611.6c13.1,0,25.6-11.5,25-25c-0.6-13.5-11-25-25-25c-13.1,0-25.6,11.5-25,25
			C602.2,600.1,612.6,611.6,626.6,611.6L626.6,611.6z"/>
	</g>
</g>
<g>
	<g>
		<path class="st3" d="M432.1,750.1c13.1,0,25.6-11.5,25-25c-0.6-13.5-11-25-25-25c-13.1,0-25.6,11.5-25,25
			C407.7,738.6,418.1,750.1,432.1,750.1L432.1,750.1z"/>
	</g>
</g>
<g>
	<g>
		<path class="st3" d="M578.1,749.6c13.1,0,25.6-11.5,25-25c-0.6-13.5-11-25-25-25c-13.1,0-25.6,11.5-25,25
			C553.7,738.1,564.1,749.6,578.1,749.6L578.1,749.6z"/>
	</g>
</g>
</svg>
