<svg xmlns="http://www.w3.org/2000/svg" xmlns:xlink="http://www.w3.org/1999/xlink" viewBox="0 0 181 209"><defs><style>.cls-1{fill:none;}.cls-2{opacity:0.4;}.cls-3{fill:#161616;}.cls-4{fill:#afe700;}.cls-5{fill:#fff;}.cls-6{clip-path:url(#clip-path);}</style><clipPath id="clip-path"><polygon id="SVGID" class="cls-1" points="15.32 147.91 15.32 61.09 90.5 17.69 165.68 61.09 165.68 147.91 90.5 191.31 15.32 147.91"/></clipPath></defs><g id="Calque_1" data-name="Calque 1"><polygon class="cls-3" points="181 156.75 181 52.25 90.5 0 0 52.25 0 156.75 90.5 209 181 156.75"/><path class="cls-4" d="M90.5,196.74,10.62,150.62V58.38L90.5,12.26l79.88,46.12v92.24Zm-79.23-46.5L90.5,196l79.23-45.74V58.76L90.5,13,11.27,58.76Z"/><path class="cls-4" d="M91,46H86v.21h.7a3.22,3.22,0,0,1,2.59,1.66,6.44,6.44,0,0,1,1,3.24l.3,7.15.3-7.15a6.44,6.44,0,0,1,1-3.24,3.22,3.22,0,0,1,2.59-1.66h.7V46Z"/><path class="cls-4" d="M91,30.19H86v.2h.7a3.22,3.22,0,0,1,2.59,1.66,6.48,6.48,0,0,1,1,3.25l.3,7.14.3-7.14a6.48,6.48,0,0,1,1-3.25,3.22,3.22,0,0,1,2.59-1.66h.7v-.2Z"/><path class="cls-4" d="M68.56,39.06l-.37.37-.37.37L65,42.65l.14.14.5-.49a3.21,3.21,0,0,1,3-.66,6.42,6.42,0,0,1,3,1.62l5.26,4.83L72,42.83a6.42,6.42,0,0,1-1.62-3,3.21,3.21,0,0,1,.66-3l.49-.5-.14-.14Z"/><path class="cls-4" d="M59,61.22v5.07h.2v-.7A3.23,3.23,0,0,1,60.81,63a6.45,6.45,0,0,1,3.25-1l7.14-.3-7.14-.3a6.45,6.45,0,0,1-3.25-1,3.22,3.22,0,0,1-1.66-2.59v-.7H59Z"/><path class="cls-4" d="M67.82,83.68l.37.37.37.37,2.85,2.85.14-.14-.49-.5a3.21,3.21,0,0,1-.66-3,6.42,6.42,0,0,1,1.62-3l4.83-5.26-5.26,4.83a6.42,6.42,0,0,1-3,1.62,3.21,3.21,0,0,1-3-.66l-.5-.49-.14.14Z"/><path class="cls-4" d="M90,93.29h5.07v-.2h-.7a3.22,3.22,0,0,1-2.59-1.66,6.45,6.45,0,0,1-1-3.25L90.5,81l-.3,7.14a6.45,6.45,0,0,1-1,3.25,3.22,3.22,0,0,1-2.59,1.66H86v.2Z"/><path class="cls-4" d="M112.44,84.42l.37-.37.37-.37L116,80.83l-.14-.14-.5.49a3.21,3.21,0,0,1-3,.66,6.42,6.42,0,0,1-3-1.62l-5.26-4.83L109,80.65a6.42,6.42,0,0,1,1.62,3,3.21,3.21,0,0,1-.66,3l-.49.5.14.14Z"/><path class="cls-4" d="M122.05,62.26V57.19h-.2v.7a3.22,3.22,0,0,1-1.66,2.59,6.48,6.48,0,0,1-3.25,1l-7.14.3,7.14.3a6.48,6.48,0,0,1,3.25,1,3.23,3.23,0,0,1,1.66,2.59v.7h.2Z"/><path class="cls-4" d="M113.18,39.8l-.37-.37-.37-.37-2.85-2.85-.14.14.49.5a3.21,3.21,0,0,1,.66,3,6.42,6.42,0,0,1-1.62,3l-4.83,5.26,5.26-4.83a6.42,6.42,0,0,1,3-1.62,3.21,3.21,0,0,1,3,.66l.5.49.14-.14Z"/><path class="cls-4" d="M74.71,61.22v5.07h.21v-.7A3.23,3.23,0,0,1,76.58,63a6.44,6.44,0,0,1,3.24-1l7.14-.3-7.14-.3a6.44,6.44,0,0,1-3.24-1,3.22,3.22,0,0,1-1.66-2.59v-.7h-.21Z"/><path class="cls-4" d="M90,77.53h5.07v-.21h-.7a3.22,3.22,0,0,1-2.59-1.66,6.44,6.44,0,0,1-1-3.24l-.3-7.14-.3,7.14a6.44,6.44,0,0,1-1,3.24,3.22,3.22,0,0,1-2.59,1.66H86v.21Z"/><path class="cls-4" d="M106.29,62.26V57.19h-.21v.7a3.22,3.22,0,0,1-1.66,2.59,6.44,6.44,0,0,1-3.24,1l-7.15.3,7.15.3a6.44,6.44,0,0,1,3.24,1,3.23,3.23,0,0,1,1.66,2.59v.7h.21Z"/><circle class="cls-5" cx="90.5" cy="61.74" r="0.5"/><path class="cls-5" d="M90.5,82.23A20.49,20.49,0,1,1,111,61.74,20.51,20.51,0,0,1,90.5,82.23Zm0-40.73a20.25,20.25,0,1,0,20.25,20.24A20.27,20.27,0,0,0,90.5,41.5Z"/><path class="cls-5" d="M90.5,74a12.24,12.24,0,1,1,12.24-12.24A12.25,12.25,0,0,1,90.5,74Zm0-24.24a12,12,0,1,0,12,12A12,12,0,0,0,90.5,49.74Z"/><rect class="cls-3" x="87.85" y="10.01" width="5.28" height="5.28"/><path class="cls-4" d="M93.46,15.62H87.52V9.68h5.94ZM88.18,15H92.8V10.33H88.18Z"/><circle class="cls-5" cx="90.49" cy="12.65" r="0.65"/><polygon class="cls-4" points="91.93 11.36 91.78 11.2 93.05 9.93 93.21 10.08 91.93 11.36"/><polygon class="cls-4" points="89.05 11.36 87.77 10.08 87.93 9.93 89.2 11.2 89.05 11.36"/><rect class="cls-4" x="87.58" y="14.54" width="1.8" height="0.22" transform="translate(15.56 66.86) rotate(-45)"/><rect class="cls-4" x="92.38" y="13.75" width="0.22" height="1.8" transform="translate(16.73 69.69) rotate(-45)"/><rect class="cls-3" x="8.3" y="55.93" width="5.28" height="5.28"/><path class="cls-4" d="M13.91,61.54H8V55.6h5.93Zm-5.28-.66h4.63V56.26H8.63Z"/><circle class="cls-5" cx="10.94" cy="58.57" r="0.65"/><rect class="cls-4" x="12.05" y="56.45" width="1.8" height="0.22" transform="translate(-36.2 25.72) rotate(-45)"/><rect class="cls-4" x="8.83" y="55.66" width="0.22" height="1.8" transform="translate(-37.38 22.89) rotate(-45)"/><rect class="cls-4" x="8.04" y="60.46" width="1.8" height="0.22" transform="translate(-40.21 24.06) rotate(-45)"/><rect class="cls-4" x="12.84" y="59.67" width="0.22" height="1.8" transform="translate(-39.04 26.9) rotate(-45)"/><rect class="cls-3" x="8.3" y="147.8" width="5.28" height="5.28"/><path class="cls-4" d="M13.91,153.41H8v-5.94h5.93Zm-5.28-.66h4.63v-4.63H8.63Z"/><circle class="cls-5" cx="10.94" cy="150.44" r="0.65"/><rect class="cls-4" x="12.05" y="148.32" width="1.8" height="0.22" transform="translate(-101.17 52.63) rotate(-45)"/><rect class="cls-4" x="8.83" y="147.53" width="0.22" height="1.8" transform="translate(-102.34 49.8) rotate(-45)"/><rect class="cls-4" x="8.04" y="152.33" width="1.8" height="0.22" transform="translate(-105.17 50.97) rotate(-45)"/><rect class="cls-4" x="12.84" y="151.54" width="0.22" height="1.8" transform="translate(-104 53.8) rotate(-45)"/><rect class="cls-3" x="87.85" y="193.72" width="5.28" height="5.28"/><path class="cls-4" d="M93.46,199.33H87.52v-5.94h5.94Zm-5.28-.66H92.8v-4.62H88.18Z"/><circle class="cls-5" cx="90.49" cy="196.36" r="0.65"/><polygon class="cls-4" points="91.93 195.07 91.78 194.92 93.05 193.64 93.21 193.8 91.93 195.07"/><polygon class="cls-4" points="89.05 195.07 87.77 193.8 87.93 193.64 89.2 194.92 89.05 195.07"/><rect class="cls-4" x="87.58" y="198.26" width="1.8" height="0.22" transform="translate(-114.35 120.67) rotate(-45)"/><rect class="cls-4" x="92.38" y="197.46" width="0.22" height="1.8" transform="translate(-113.17 123.5) rotate(-45)"/><rect class="cls-3" x="167.41" y="55.93" width="5.28" height="5.28"/><path class="cls-4" d="M173,61.54h-5.93V55.6H173Zm-5.28-.66h4.63V56.26h-4.63Z"/><circle class="cls-5" cx="170.05" cy="58.57" r="0.65"/><rect class="cls-4" x="171.16" y="56.45" width="1.8" height="0.22" transform="translate(10.4 138.23) rotate(-45)"/><rect class="cls-4" x="167.94" y="55.66" width="0.22" height="1.8" transform="translate(9.22 135.4) rotate(-45)"/><rect class="cls-4" x="167.15" y="60.46" width="1.8" height="0.22" transform="translate(6.39 136.57) rotate(-45)"/><rect class="cls-4" x="171.95" y="59.67" width="0.22" height="1.8" transform="translate(7.56 139.41) rotate(-45)"/><rect class="cls-3" x="167.41" y="147.8" width="5.28" height="5.28"/><path class="cls-4" d="M173,153.41h-5.93v-5.94H173Zm-5.28-.66h4.63v-4.63h-4.63Z"/><circle class="cls-5" cx="170.05" cy="150.44" r="0.65"/><rect class="cls-4" x="171.16" y="148.32" width="1.8" height="0.22" transform="translate(-54.56 165.14) rotate(-45)"/><rect class="cls-4" x="167.94" y="147.53" width="0.22" height="1.8" transform="translate(-55.74 162.3) rotate(-45)"/><rect class="cls-4" x="167.15" y="152.33" width="1.8" height="0.22" transform="translate(-58.57 163.48) rotate(-45)"/><rect class="cls-4" x="171.95" y="151.54" width="0.22" height="1.8" transform="translate(-57.4 166.31) rotate(-45)"/><path class="cls-4" d="M41.74,110c0,2.2-.09,2.94-.41,3.62-.59,1.29-1.81,1.9-4.16,2.06-.92.09-2.73.11-5.74.11-4.34,0-5.74-.2-7-1-1.49-.95-1.92-2.54-1.92-7,0-4,.45-5.41,2-6.31,1.35-.79,2.8-1,7-1,5.63,0,6.85.12,8.14.75s1.79,1.94,1.79,4.16v.5H37.15c-.09-1.65-.43-1.79-4.41-1.79-3.75,0-4.43.09-5,.59s-.65,1.11-.65,3.55c0,3.62.34,3.89,4.75,3.89,3.41,0,3.91,0,4.54-.3s.9-.74.9-1.83Z"/><path class="cls-4" d="M61.71,100.68a4.15,4.15,0,0,1,3.78,4,31.5,31.5,0,0,1,.13,3.66c0,3.65-.38,5.11-1.67,6.18-.91.77-2.17,1.13-4.36,1.22-.82,0-2.83.07-4.3.07a42,42,0,0,1-6.33-.25,4,4,0,0,1-3.21-2c-.59-1.1-.73-2.21-.73-5.51a14.28,14.28,0,0,1,.32-4.19,3.86,3.86,0,0,1,3-3c1.26-.36,2.64-.45,6.62-.45A45.91,45.91,0,0,1,61.71,100.68Zm-11.26,4c-.61.47-.79,1.22-.79,3.39s.18,3,.75,3.5,1.35.59,4.81.59c4,0,4.77-.13,5.29-.86.43-.54.54-1.31.54-3.32,0-3.8-.06-3.85-5.72-3.85C52,104.14,51,104.26,50.45,104.69Z"/><path class="cls-4" d="M67.41,100.62h5.07l6,11.39,6.08-11.39h5.11L81.28,115.7H75.46Z"/><path class="cls-4" d="M92.41,100.62H97V115.7H92.41Z"/><path class="cls-4" d="M100.93,100.62h13c3.19,0,4.68.36,5.72,1.4.83.81,1.17,1.76,1.33,3.68,0,.7.09,1.74.09,2.47a29.66,29.66,0,0,1-.22,3.77,4.05,4.05,0,0,1-3.17,3.53,13.77,13.77,0,0,1-3.14.23H100.93Zm12.28,11.48a4.56,4.56,0,0,0,1.88-.18c1.1-.34,1.4-1.13,1.4-3.73,0-3.16-.54-3.82-3.19-3.82h-7.78v7.73Z"/><path class="cls-5" d="M131.83,104.12,126.36,108l-2-3,6.42-4.3h5.47V115.7h-4.39Z"/><path class="cls-4" d="M136.43,115.92h-4.82V104.54l-5.31,3.71L124,104.86l6.66-4.46h5.75Zm-4.38-.44H136V100.84h-5.19L124.63,105l1.79,2.66,5.63-3.93Z"/><path class="cls-5" d="M144.83,111.47c.11,1.06.27,1.11,4.47,1.11,3.24,0,3.85-.09,4.39-.61.27-.27.36-.63.38-1.85,0-.48,0-.48.05-1.54-.79,1.29-1.45,1.44-6.24,1.44-3.14,0-4.29-.15-5.36-.72s-1.69-1.74-1.69-3.8c0-2.44.54-3.68,1.83-4.27,1.11-.54,2.69-.7,6.46-.7,5.45,0,6.88.23,8.07,1.31,1,.91,1.25,2.08,1.25,5.83,0,4.37-.25,5.7-1.22,6.69-.82.84-1.77,1.16-3.89,1.29-.52,0-3.94.14-4.61.14-3.39,0-5.45-.18-6.38-.59a2.91,2.91,0,0,1-1.76-3.07c0-.09,0-.41,0-.66Zm1-7.57a1.92,1.92,0,0,0-.21,2.82c.45.28.64.3,4,.3,2.62,0,3.43,0,3.91-.25a1.52,1.52,0,0,0,.63-1.43,1.38,1.38,0,0,0-1.35-1.6c-.3-.07-2.2-.11-3.58-.11C146.86,103.63,146.39,103.67,145.85,103.9Z"/><path class="cls-4" d="M148.72,116c-3.47,0-5.52-.2-6.47-.61a3.13,3.13,0,0,1-1.89-3.27c0-.1,0-.42,0-.68l0-.2H145l0,.2c.09.86.09.91,4.25.91,3.12,0,3.75-.08,4.24-.55.2-.2.29-.49.32-1.7,0-.34,0-.44,0-.84-.77.85-1.94,1-6,1-3.18,0-4.35-.16-5.46-.75-1.27-.67-1.81-1.86-1.81-4,0-2.5.59-3.84,2-4.47,1.12-.55,2.66-.72,6.55-.72,5.52,0,7,.24,8.22,1.37,1,.95,1.31,2.18,1.31,6,0,4.45-.25,5.79-1.28,6.85-.86.88-1.84,1.21-4,1.35C152.81,115.92,149.34,116,148.72,116Zm-7.91-4.32c0,.19,0,.37,0,.44a2.69,2.69,0,0,0,1.63,2.87c.88.39,2.88.57,6.29.57.7,0,4.09-.09,4.59-.14,2.07-.13,3-.42,3.75-1.22s1.16-2.28,1.16-6.54c0-3.66-.24-4.82-1.17-5.67-1.14-1-2.55-1.25-7.93-1.25-3.77,0-5.32.16-6.37.68-1.21.55-1.7,1.73-1.7,4.07,0,2,.45,3,1.57,3.61s2.17.7,5.26.7c4.87,0,5.34-.19,6.05-1.35l.42-.68v.8c0,1.07,0,1.07-.05,1.55,0,1.25-.11,1.66-.45,2-.6.58-1.24.68-4.54.68-3.9,0-4.49,0-4.66-1.11Zm8.79-4.45c-3.33,0-3.56,0-4.07-.33a2.14,2.14,0,0,1,.22-3.21h0c.59-.25,1.1-.29,3.45-.29,1.09,0,3.27,0,3.62.12a1.59,1.59,0,0,1,1.53,1.81,1.72,1.72,0,0,1-.76,1.63C153.09,107.18,152.31,107.24,149.6,107.24Zm-3.66-3.14q-.6.29-.6,1.29a1.32,1.32,0,0,0,.41,1.15c.4.23.55.26,3.85.26,2.61,0,3.39,0,3.82-.23a1.34,1.34,0,0,0,.5-1.23c0-.88-.3-1.24-1.17-1.38-.25-.06-2-.11-3.54-.11C146.94,103.85,146.45,103.88,145.94,104.1Z"/><path class="cls-5" d="M59.85,121.83h2.28a3.26,3.26,0,1,1,0,6.52H59.85ZM62.13,127a1.92,1.92,0,0,0,0-3.84h-.81V127Z"/><path class="cls-5" d="M71.12,121.76l3.21,6.59H72.79l-.47-1h-2.4l-.47,1H67.9Zm.61,4.39-.61-1.36-.62,1.36Z"/><path class="cls-5" d="M77.93,123.28H76.36v-1.45H81v1.45H79.4v5.07H77.93Z"/><path class="cls-5" d="M86.36,121.76l3.22,6.59H88l-.46-1H85.16l-.47,1H83.15Zm.62,4.39-.62-1.36-.61,1.36Z"/><path class="cls-5" d="M97.6,121.83h1.47v2.55h2.61v-2.55h1.47v6.52h-1.47V125.8H99.07v2.55H97.6Z"/><path class="cls-5" d="M107.05,125.7v-3.87h1.47v3.9a1.21,1.21,0,1,0,2.41,0v-3.9h1.47v3.87a2.68,2.68,0,1,1-5.35,0Z"/><path class="cls-5" d="M116.3,121.83h2.46a1.94,1.94,0,0,1,1.93,1.94,1.53,1.53,0,0,1-.46,1.12,1.66,1.66,0,0,1,.92,1.52,1.94,1.94,0,0,1-2,1.94H116.3Zm2.29,2.64a.65.65,0,1,0,0-1.3h-.82v1.3ZM119,127a.64.64,0,0,0,.68-.64.66.66,0,0,0-.68-.66h-1.27V127Z"/></g><g id="Calque_5" data-name="Calque 5"><g class="cls-6"><rect class="cls-4" x="139.48" y="134.5" width="0.66" height="29.23"/><polygon class="cls-4" points="74.44 182.4 73.79 182.4 73.79 153.8 81.28 149.47 81.28 140.53 81.94 140.53 81.94 149.85 74.44 154.18 74.44 182.4"/><polygon class="cls-4" points="59.51 173.5 58.85 173.5 58.85 161.13 63.19 158.63 63.19 154.4 63.85 154.4 63.85 159.01 59.51 161.51 59.51 173.5"/><polygon class="cls-4" points="96.26 190.91 95.6 190.91 95.6 164.76 103.1 160.44 103.1 141.66 103.75 141.66 103.75 160.81 96.26 165.14 96.26 190.91"/><polygon class="cls-4" points="63.05 179.95 62.4 179.95 62.4 164.12 66.91 161.51 66.91 138.07 67.57 138.07 67.57 161.89 63.05 164.49 63.05 179.95"/><polygon class="cls-4" points="86.74 189.63 86.08 189.63 86.08 171.09 78.59 175.42 78.59 161.87 79.25 161.87 79.25 174.28 86.74 169.95 86.74 189.63"/><polygon class="cls-4" points="36.25 160.34 35.6 160.34 35.6 148.02 30.81 150.78 30.81 141.93 31.47 141.93 31.47 149.64 36.25 146.88 36.25 160.34"/><polygon class="cls-4" points="133.85 168.88 133.2 168.88 133.2 160.8 125.7 165.12 125.7 151.57 126.36 151.57 126.36 163.99 133.85 159.66 133.85 168.88"/><polygon class="cls-4" points="137.36 164.78 136.7 164.78 136.7 154.75 133.2 156.78 133.2 147.96 133.85 147.96 133.85 155.64 137.36 153.62 137.36 164.78"/><polygon class="cls-4" points="49.4 172.84 48.74 172.84 48.74 157.13 43.58 160.11 43.58 131.99 44.23 131.99 44.23 158.97 49.4 155.99 49.4 172.84"/><polygon class="cls-4" points="53.24 169.95 52.59 169.95 52.59 149.31 48.25 151.82 48.25 138.93 48.91 138.93 48.91 150.68 53.24 148.18 53.24 169.95"/><polygon class="cls-4" points="104.04 183.89 103.39 183.89 103.39 179.37 107.14 177.21 107.14 151.44 107.79 151.44 107.79 177.59 104.04 179.75 104.04 183.89"/><polygon class="cls-4" points="144.78 160.83 144.12 160.83 144.12 155.81 148.31 153.4 148.31 143.66 148.96 143.66 148.96 153.77 144.78 156.19 144.78 160.83"/><polygon class="cls-4" points="115.64 177.84 115.03 177.84 115.03 149.54 125.45 143.52 125.45 138.61 126.06 138.61 126.06 143.87 115.64 149.89 115.64 177.84"/><rect class="cls-4" x="111.18" y="160.23" width="0.66" height="20.24"/><rect class="cls-4" x="120.12" y="165.78" width="0.66" height="9.48"/><rect class="cls-4" x="99.76" y="171.7" width="0.66" height="15.64"/><rect class="cls-4" x="89.1" y="155.09" width="0.66" height="36.88"/><polygon class="cls-4" points="92.18 191.8 91.53 191.8 91.53 182.03 93.38 180.96 93.38 158.38 96.41 156.62 96.41 151.44 97.07 151.44 97.07 157 94.03 158.75 94.03 181.34 92.18 182.41 92.18 191.8"/><polygon class="cls-4" points="55.53 173.47 54.87 173.47 54.87 163.7 56.72 162.64 56.72 148.81 59.75 147.05 59.75 143.4 60.41 143.4 60.41 147.43 57.37 149.19 57.37 163.02 55.53 164.08 55.53 173.47"/><rect class="cls-4" x="80.72" y="181.23" width="0.66" height="5.74"/><rect class="cls-4" x="39.15" y="144.89" width="0.66" height="17.45"/><rect class="cls-4" x="70.84" y="149.95" width="0.66" height="30.53"/><rect class="cls-4" x="153.38" y="148.07" width="0.66" height="7.28"/><rect class="cls-4" x="26.62" y="148.24" width="0.66" height="8.53"/><path class="cls-4" d="M28.77,148.35H25.12V144.7h3.65Zm-3.43-.22h3.21v-3.21H25.34Z"/><circle class="cls-5" cx="26.94" cy="146.52" r="0.52"/><path class="cls-4" d="M33,142H29.32v-3.66H33Zm-3.44-.22h3.22V138.6H29.53Z"/><circle class="cls-5" cx="31.14" cy="140.21" r="0.52"/><path class="cls-4" d="M41.31,144.89H37.65v-3.65h3.66Zm-3.44-.21h3.22v-3.22H37.87Z"/><circle class="cls-5" cx="39.48" cy="143.07" r="0.52"/><path class="cls-4" d="M45.73,132.1H42.08v-3.66h3.65Zm-3.43-.22h3.21v-3.22H42.3Z"/><circle class="cls-5" cx="43.91" cy="130.27" r="0.52"/><path class="cls-4" d="M50.4,139H46.75v-3.66H50.4ZM47,138.82h3.22V135.6H47Z"/><circle class="cls-5" cx="48.58" cy="137.21" r="0.52"/><path class="cls-4" d="M61.91,143.4H58.26v-3.65h3.65Zm-3.44-.22h3.22V140H58.47Z"/><circle class="cls-5" cx="60.08" cy="141.58" r="0.52"/><path class="cls-4" d="M69.14,138.07H65.49v-3.65h3.65Zm-3.44-.22h3.22v-3.21H65.7Z"/><circle class="cls-5" cx="67.31" cy="136.24" r="0.52"/><path class="cls-4" d="M65.35,154.51H61.69v-3.65h3.66Zm-3.44-.22h3.22v-3.21H61.91Z"/><circle class="cls-5" cx="63.52" cy="152.69" r="0.52"/><path class="cls-4" d="M73,150.05H69.34V146.4H73Zm-3.44-.21h3.22v-3.22H69.56Z"/><circle class="cls-5" cx="71.17" cy="148.23" r="0.52"/><path class="cls-4" d="M83.44,140.75H79.78V137.1h3.66ZM80,140.53h3.22v-3.21H80Z"/><circle class="cls-5" cx="81.61" cy="138.93" r="0.52"/><path class="cls-4" d="M91.25,155.09H87.6v-3.65h3.65Zm-3.43-.21H91v-3.22H87.82Z"/><circle class="cls-5" cx="89.43" cy="153.27" r="0.52"/><path class="cls-4" d="M80.74,161.86H77.09V158.2h3.65Zm-3.43-.22h3.22v-3.22H77.31Z"/><circle class="cls-5" cx="78.92" cy="160.03" r="0.52"/><path class="cls-4" d="M82.88,181.34H79.22v-3.65h3.66Zm-3.44-.21h3.22v-3.22H79.44Z"/><circle class="cls-5" cx="81.05" cy="179.52" r="0.52"/><path class="cls-4" d="M101.92,171.75H98.26V168.1h3.66Zm-3.44-.21h3.22v-3.22H98.48Z"/><circle class="cls-5" cx="100.09" cy="169.93" r="0.52"/><path class="cls-4" d="M98.57,151.61H94.91V148h3.66Zm-3.44-.22h3.22v-3.21H95.13Z"/><circle class="cls-5" cx="96.74" cy="149.78" r="0.52"/><path class="cls-4" d="M105.25,141.84H101.6v-3.65h3.65Zm-3.43-.22H105v-3.21h-3.21Z"/><circle class="cls-5" cx="103.43" cy="140.02" r="0.52"/><path class="cls-4" d="M109.29,151.61h-3.65V148h3.65Zm-3.43-.22h3.21v-3.21h-3.21Z"/><circle class="cls-5" cx="107.46" cy="149.78" r="0.52"/><path class="cls-4" d="M113.33,160.25h-3.65V156.6h3.65ZM109.9,160h3.21v-3.21H109.9Z"/><circle class="cls-5" cx="111.51" cy="158.42" r="0.52"/><path class="cls-4" d="M122.28,165.89h-3.65v-3.65h3.65Zm-3.44-.22h3.22v-3.21h-3.22Z"/><circle class="cls-5" cx="120.45" cy="164.06" r="0.52"/><path class="cls-4" d="M127.86,151.61h-3.65V148h3.65Zm-3.44-.22h3.22v-3.21h-3.22Z"/><circle class="cls-5" cx="126.03" cy="149.78" r="0.52"/><path class="cls-4" d="M135.35,148.07H131.7v-3.65h3.65Zm-3.43-.22h3.21v-3.21h-3.21Z"/><circle class="cls-5" cx="133.53" cy="146.24" r="0.52"/><path class="cls-4" d="M127.58,138.74h-3.65v-3.66h3.65Zm-3.43-.22h3.21V135.3h-3.21Z"/><circle class="cls-5" cx="125.75" cy="136.91" r="0.52"/><path class="cls-4" d="M141.63,134.61H138V131h3.65Zm-3.43-.22h3.21v-3.22H138.2Z"/><circle class="cls-5" cx="139.81" cy="132.78" r="0.52"/><path class="cls-4" d="M150.46,143.77h-3.65v-3.65h3.65Zm-3.43-.22h3.21v-3.21H147Z"/><circle class="cls-5" cx="148.63" cy="141.94" r="0.52"/><path class="cls-4" d="M155.53,148.18h-3.65v-3.66h3.65ZM152.1,148h3.22v-3.22H152.1Z"/><circle class="cls-5" cx="153.71" cy="146.35" r="0.52"/></g><path class="cls-5" d="M90.5,191.43l-.06,0L15.21,148V61l.06,0L90.5,17.57l0,0L165.79,61V148l-.06,0ZM15.43,147.84,90.5,191.18l75.07-43.34V61.16L90.5,17.82,15.43,61.16Z"/></g></svg>