<?xml version="1.0" encoding="utf-8"?>
<!-- Generator: Adobe Illustrator 18.1.0, SVG Export Plug-In . SVG Version: 6.00 Build 0)  -->
<!DOCTYPE svg PUBLIC "-//W3C//DTD SVG 1.1//EN" "http://www.w3.org/Graphics/SVG/1.1/DTD/svg11.dtd">
<svg version="1.1" id="Layer_1" xmlns="http://www.w3.org/2000/svg" xmlns:xlink="http://www.w3.org/1999/xlink" x="0px" y="0px"
	 viewBox="0 0 144 144" enable-background="new 0 0 144 144" xml:space="preserve">
<g>
	<polygon opacity="0.998" fill="#42083D" points="11.1,36.9 72,1.7 132.9,36.9 132.9,107.1 72,142.3 11.1,107.1 	"/>
	<g>
		<defs>
			<polygon id="SVGID_3_" points="11.1,36.9 72,1.7 132.9,36.9 132.9,107.1 72,142.3 11.1,107.1 			"/>
		</defs>
		<clipPath id="SVGID_1_">
			<use xlink:href="#SVGID_3_"  overflow="visible"/>
		</clipPath>
		<g clip-path="url(#SVGID_1_)">
			<g id="g9031_16_" transform="translate(104.843927, 157.884887)">
				<path id="path9005_31_" opacity="0.998" fill="#00FFFF" d="M-10-72.3c-2.5,0.8-5,1.4-7.5,2c-0.5,1.8-1,3.6-1.5,5.4
					c2.5-0.8,4.9-1.7,7.3-2.7l0.2-0.2C-11-69.2-10.5-70.8-10-72.3L-10-72.3z"/>
				<path id="path9007_31_" opacity="0.998" fill="#00FFFF" d="M-0.8-83.8c-2.1,0.8-4.2,1.6-6.4,2.2c-0.6,2.7-1.3,5.3-2,7.9
					c1.7-0.6,3.4-1.2,5.1-1.9l1.2-1.5l0.1-0.1c0.2-0.5,0.3-0.9,0.5-1.4C-1.8-80.2-1.2-82-0.8-83.8L-0.8-83.8z"/>
				<path id="path9009_31_" opacity="0.998" fill="#00FFFF" d="M3.8-114.5c-2.3,0-4.6,0-6.8,0.1c0,3.4-0.2,6.8-0.4,10.2
					c2.3-0.3,4.5-0.7,6.8-1.2C3.6-108.4,3.8-111.5,3.8-114.5L3.8-114.5z"/>
				<path id="path9011_31_" opacity="0.998" fill="#00FFFF" d="M-3.8-114.4c-3,0-5.9,0.1-8.9,0.1c0,3.8-0.1,7.5-0.3,11.3
					c2.9-0.3,5.8-0.7,8.7-1.1C-4-107.6-3.8-111-3.8-114.4L-3.8-114.4z"/>
				<path id="path9013_31_" opacity="0.998" fill="#00FFFF" d="M-37.8-114c-4,0-8.1,0.1-12.1,0.1c0,4.3,0,8.5,0,12.8
					c4,0,8.1-0.1,12.1-0.2C-37.8-105.6-37.8-109.8-37.8-114L-37.8-114z"/>
				<path id="path9015_31_" opacity="0.998" fill="#00FFFF" d="M-13.8-102.2c-3.4,0.4-6.8,0.7-10.2,0.9c-0.2,3.9-0.4,7.8-0.7,11.7
					c3.3-0.3,6.6-0.8,9.9-1.3C-14.4-94.7-14-98.4-13.8-102.2L-13.8-102.2z"/>
				<path id="path9017_31_" opacity="0.998" fill="#00FFFF" d="M-37.9-100.5c-4,0.2-8.1,0.3-12.1,0.3c0,4-0.1,7.9-0.1,11.9
					c4,0,7.9-0.1,11.9-0.3C-38.1-92.6-38-96.5-37.9-100.5L-37.9-100.5z"/>
				<path id="path9019_31_" opacity="0.998" fill="#00FFFF" d="M-5.7-91.7c-2.8,0.5-5.5,1-8.3,1.4c-0.4,3.4-0.8,6.7-1.4,10
					c2.7-0.6,5.3-1.3,8-2.1C-6.8-85.4-6.2-88.5-5.7-91.7L-5.7-91.7z"/>
				<path id="path9021_31_" opacity="0.998" fill="#00FFFF" d="M-38.2-87.8c-3.9,0.2-7.9,0.3-11.9,0.4c0,3.6-0.1,7.2-0.1,10.8
					c3.8,0,7.7-0.1,11.5-0.4C-38.5-80.6-38.4-84.2-38.2-87.8L-38.2-87.8z"/>
				<path id="path9023_31_" opacity="0.998" fill="#00FFFF" d="M-38.7-76.3c-0.4,0-0.7,0.1-1.1,0.1c-3.4,0.2-6.9,0.3-10.3,0.3
					c0,2.6-0.1,5.2-0.1,7.8c0,0.1,0,0.3,0,0.4c3.7,0,7.4-0.1,11.1-0.4C-39-70.8-38.9-73.5-38.7-76.3L-38.7-76.3z"/>
				<path id="path9025_31_" opacity="0.998" fill="#00FFFF" d="M-18.4-70.1c-3.1,0.7-6.1,1.2-9.2,1.7c-0.4,2-0.8,4.1-1.3,6.1
					c3.1-0.6,6.1-1.4,9.1-2.3C-19.2-66.5-18.7-68.3-18.4-70.1L-18.4-70.1z"/>
				<path id="path9027_31_" opacity="0.998" fill="#00FFFF" d="M-73.4-68.1c0.4,2.2,0.9,4.4,1.5,6.5c3.2,0.5,6.5,0.9,9.7,1.1
					c-0.2-2.2-0.3-4.5-0.5-6.7C-66.3-67.4-69.9-67.7-73.4-68.1L-73.4-68.1z"/>
				<path id="path9029_31_" opacity="0.998" fill="#00FFFF" d="M-62-67.1c0,2.1,0.3,4.4,0.6,6.7c2.9,0.2,5.8,0.3,8.6,0.3
					c0.5,0,1.1,0,1.6,0c0-2.2,0.1-4.5,0.1-6.7C-54.7-66.8-58.4-66.9-62-67.1L-62-67.1z"/>
			</g>
			<path id="path6851_16_" fill="#FFFFFF" d="M117.4,41.6c0,36.1-29.3,65.4-65.4,65.4s-65.4-29.3-65.4-65.4S15.9-23.7,52-23.7
				S117.4,5.5,117.4,41.6L117.4,41.6z"/>
			<path id="path11669_16_" fill="#00FFFF" d="M117.4,41.6c0,36.1-29.3,65.4-65.4,65.4s-65.4-29.3-65.4-65.4S15.9-23.7,52-23.7
				S117.4,5.5,117.4,41.6L117.4,41.6z"/>
			<path id="path6745_31_" opacity="0.998" fill="#E20BC9" d="M52-22.5c-2.4,0-4.8,0.1-7.2,0.4c-0.2,1-0.1,2.3-0.4,3.2
				c3.1-0.2,5.9-0.2,9-0.2c0.1-1.2,0-2.5-0.1-3.4C52.9-22.5,52.4-22.5,52-22.5L52-22.5z"/>
			<path id="path6743_31_" opacity="0.998" fill="#E20BC9" d="M54.2-22.4c0,1.1,0,2.2,0,3.4c3.1,0,6.3,0.1,9.4,0.4
				c-0.1-1-0.1-1.9-0.1-2.8C60.5-22,57.4-22.3,54.2-22.4L54.2-22.4z"/>
			<path id="path6741_31_" opacity="0.998" fill="#E20BC9" d="M43.9-22c-3,0.4-6,1-8.9,1.8c-0.2,0.8-0.4,2.3-0.6,2.8
				c2-0.3,6.1-1.5,9.1-1.3C43.6-19.8,43.8-20.9,43.9-22L43.9-22z"/>
			<path id="path6739_31_" opacity="0.998" fill="#E20BC9" d="M64.1-21.3c0.1,0.8,0.3,1.6,0.4,2.4c0,0.1,0,0.2,0,0.3
				c3.1,0.3,6.1,0.8,9.1,1.5c-0.2-0.6-0.3-1.2-0.5-1.8C70.2-19.9,67.2-20.7,64.1-21.3L64.1-21.3z"/>
			<path id="path6737_31_" opacity="0.998" fill="#E20BC9" d="M34.2-20c-3.6,1-7.1,2.4-10.5,4c-0.2,0.5-0.3,1-0.5,1.5
				c3.3-1.1,6.7-1.9,10.1-2.6C33.6-18,34-19.2,34.2-20L34.2-20z"/>
			<path id="path6735_31_" opacity="0.998" fill="#E20BC9" d="M74-18.6c0.2,0.5,0.4,1.1,0.5,1.7c2.7,0.4,5.3,1.2,7.6,2
				C79.5-16.3,76.8-17.6,74-18.6L74-18.6z"/>
			<path id="path6733_31_" opacity="0.998" fill="#AE089B" d="M54.6-18.3c0,0.1,0,0.8,0.1,1.5c0,0,0,0,0,0c0,1.1,0,2.1,0,3.2
				c1.6,0,3.2,0.1,4.8,0.2c1.7,0.1,3.4,0.3,5.1,0.4l-0.6-4.8C60.6-18.1,57-18.3,54.6-18.3L54.6-18.3z"/>
			<path id="path6731_31_" opacity="0.998" fill="#AE089B" d="M53.7-18.3c-2.3,0-7,0.1-9.3,0.2c-0.1,0.9-0.3,2.8-0.5,4.7
				c3.3-0.2,6.5-0.3,9.8-0.3c0-1.1-0.1-2.2,0-3.3c0,0,0,0-0.1,0C53.7-17.5,53.7-18.2,53.7-18.3L53.7-18.3z"/>
			<path id="path6729_31_" opacity="0.998" fill="#AE089B" d="M43.6-17.7c-2.8,0.2-6.3,0.6-9.5,1.3c-0.5,1.4-0.8,3-1.2,4.4
				c3.4-0.6,6.9-1,10.3-1.3C43.3-14.7,43.4-16.3,43.6-17.7L43.6-17.7z"/>
			<path id="path6727_31_" opacity="0.998" fill="#E20BC9" d="M64.8-17.7c0.2,1.4,0.5,3.2,0.6,4.7c3.4,0.4,6.8,0.9,10.2,1.6
				c-0.4-1.5-1.1-3.5-1.5-4.9C70.2-17.1,68-17.5,64.8-17.7L64.8-17.7z"/>
			<path id="path6725_31_" opacity="0.998" fill="#E20BC9" d="M33.1-16.3c-3.4,0.7-6.6,1.7-9.9,2.7c-0.4,1.3-0.9,2.6-1.2,3.9
				c3.3-0.9,6.7-1.7,10.1-2.3C32.5-13.3,32.7-14.8,33.1-16.3L33.1-16.3z"/>
			<path id="path6723_31_" opacity="0.998" fill="#E20BC9" d="M74.9-16.1c0.4,1.5,1.1,3.4,1.5,4.9c3.1,0.7,6,1.4,9.1,2.4
				c-0.5-1.6-0.8-3.1-1.3-4.7c-2-0.7-3.9-1.4-5.8-1.9C77.4-15.6,76-16,74.9-16.1L74.9-16.1z"/>
			<path id="path6721_31_" opacity="0.998" fill="#E20BC9" d="M22.8-15.4c-1.9,1-3.7,2-5.5,3.2c1.7-0.7,3.3-1.3,5.1-1.9
				C22.5-14.6,22.6-15,22.8-15.4L22.8-15.4z"/>
			<path id="path6719_31_" opacity="0.998" fill="#E20BC9" d="M22.4-13.2c-2.1,0.7-4.1,1.5-6.1,2.3c-0.5,0.3-1.1,0.5-1.6,0.8
				c-0.5,1.2-0.9,2.3-1.3,3.5c2.6-1,5.2-2,7.9-2.7C21.6-10.6,22-11.9,22.4-13.2L22.4-13.2z"/>
			<path id="path6717_31_" opacity="0.998" fill="#E20BC9" d="M84.8-13.2c0.5,1.5,1,3.1,1.4,4.7c2.3,0.8,4.7,1.6,6.9,2.6
				c-0.3-0.8-0.6-1.7-1-2.5c-2-1.6-4-3-6.2-4.4C85.6-12.9,85.2-13,84.8-13.2L84.8-13.2z"/>
			<path id="path6715_31_" opacity="0.998" fill="#E20BC9" d="M52.3-12.9c-2.8,0-5.6,0.1-8.4,0.3c-0.2,2.3-0.4,4.6-0.6,7
				c2.4-0.2,4.8-0.3,7.2-0.3c1.2,0,2.4,0,3.7,0c-0.1-2.3-0.2-4.7-0.3-7C53.3-12.9,52.8-12.9,52.3-12.9L52.3-12.9z"/>
			<path id="path6713_31_" opacity="0.998" fill="#E20BC9" d="M54.6-12.9c0,2.3,0.1,4.6,0.1,7c3.6,0.1,7.2,0.2,10.8,0.4
				c-0.2-2.2-0.5-4.5-0.8-6.8C61.3-12.6,57.9-12.8,54.6-12.9L54.6-12.9z"/>
			<path id="path6711_31_" opacity="0.998" fill="#AE089B" d="M43.1-12.5c-3.5,0.3-7,0.7-10.5,1.3c-0.4,1.6-0.8,3.3-0.9,4.8
				c-0.1,0.6-0.2,1.3-0.3,1.9C35-5,38.7-5.3,42.4-5.6C42.6-7.9,42.9-10.2,43.1-12.5L43.1-12.5z"/>
			<path id="path6709_31_" opacity="0.998" fill="#AC0899" d="M65.5-12.2c0.2,2.2,0.4,4.5,0.6,6.7c3.7,0.3,7.4,0.7,11.1,1.2
				c-0.3-2.1-0.8-4.2-1.4-6.4C72.4-11.3,68.9-11.8,65.5-12.2L65.5-12.2z"/>
			<path id="path6707_31_" opacity="0.998" fill="#E20BC9" d="M31.9-11.1c-3.4,0.6-6.8,1.4-10.2,2.4c-0.5,1.8-0.9,3.7-1.2,5.4
				c0,0.3-0.1,0.5-0.1,0.8c3.3-0.8,6.7-1.4,10-1.8C30.9-6.6,31.4-8.8,31.9-11.1L31.9-11.1z"/>
			<path id="path6705_31_" opacity="0.998" fill="#E20BC9" d="M76.6-10.4c0.5,2.1,0.9,4.2,1.3,6.3c3.2,0.5,6.3,1.1,9.4,1.9
				C87-4.1,86.5-5.9,86-7.9C82.9-8.9,79.8-9.7,76.6-10.4L76.6-10.4z"/>
			<path id="path6703_31_" opacity="0.998" fill="#E20BC9" d="M13.2-9.4C11-7.7,8.8-5.8,6.8-3.8c1.7-0.9,3.5-1.7,5.2-2.4
				C12.4-7.3,12.8-8.4,13.2-9.4L13.2-9.4z"/>
			<path id="path6701_31_" opacity="0.998" fill="#E20BC9" d="M21-8.4c-2.7,0.8-5.4,1.8-8,2.8c-0.6,1.9-1.2,3.8-1.7,5.7
				c2.7-0.9,5.5-1.7,8.3-2.3C20-4.3,20.5-6.4,21-8.4L21-8.4z"/>
			<path id="path6699_31_" opacity="0.998" fill="#E20BC9" d="M86.8-7.6c0.5,1.9,0.9,3.7,1.4,5.6c2.4,0.6,4.8,1.3,7.1,2.1
				c-0.4-1.4-0.9-2.9-1.3-4.3c-0.1-0.2-0.1-0.4-0.2-0.7C91.5-5.9,89.2-6.8,86.8-7.6L86.8-7.6z"/>
			<path id="path6697_31_" opacity="0.998" fill="#E20BC9" d="M93.2-7.5c0.3,0.7,0.5,1.3,0.8,2C95-5,96-4.5,97-4
				C95.8-5.2,94.5-6.4,93.2-7.5L93.2-7.5z"/>
			<path id="path6695_31_" opacity="0.998" fill="#E20BC9" d="M12-5.2c-2,0.8-4,1.8-6,2.8C5.4-0.7,4.8,1,4.2,2.7
				c2-0.8,4-1.6,6.1-2.3C10.8-1.5,11.4-3.4,12-5.2L12-5.2z"/>
			<path id="path6693_31_" opacity="0.998" fill="#E20BC9" d="M52.5-5.2c-3.1,0-6.2,0.1-9.3,0.3c-0.3,3.3-0.5,6.7-0.7,10
				c0.5,0,1.1-0.1,1.6-0.1C47.4,5,50.7,4.9,54,4.9c0-1.6,0-3.2,0-4.7c0.1-1.7,0.1-3.5,0.1-5.4C53.5-5.2,53-5.2,52.5-5.2L52.5-5.2z"
				/>
			<path id="path6691_31_" opacity="0.998" fill="#AC0899" d="M54.7-5.2c0,3.4,0.1,6.7,0.1,10.1c3.7,0,7.5,0.1,11.2,0.2
				c-0.1-1.5-0.2-3.1-0.2-4.6c0-1.7-0.1-3.4-0.2-5.2C61.9-4.9,58.3-5.1,54.7-5.2L54.7-5.2z"/>
			<path id="path6689_31_" opacity="0.998" fill="#E20BC9" d="M42.4-4.8c-3.7,0.3-7.4,0.6-11.1,1.2c-0.5,3.2-1,6.4-1.4,9.6
				c3.9-0.4,7.9-0.6,11.8-0.8C41.8,1.8,42.1-1.5,42.4-4.8L42.4-4.8z"/>
			<path id="path6687_31_" opacity="0.998" fill="#E20BC9" d="M66.1-4.6c0.3,3.3,0.5,6.6,0.7,9.8c3.9,0.2,7.8,0.4,11.7,0.8
				c-0.3-2.9-0.7-5.8-1.2-8.7c0-0.2-0.1-0.5-0.1-0.7C73.6-3.9,69.8-4.3,66.1-4.6L66.1-4.6z"/>
			<path id="path6685_31_" opacity="0.998" fill="#E20BC9" d="M94.4-4.4C95-2.8,95.5-1.2,96,0.5c2,0.7,3.9,1.5,5.9,2.3
				c-0.3-0.9-0.7-1.9-1.1-2.8c-0.6-0.7-1.2-1.4-1.9-2.1C97.4-2.9,95.9-3.7,94.4-4.4L94.4-4.4z"/>
			<path id="path6683_31_" opacity="0.998" fill="#E20BC9" d="M30.3-3.5C27-3,23.6-2.4,20.3-1.6c-0.5,3-1,5.9-1.4,8.9
				c3.3-0.5,6.7-0.9,10-1.2C29.3,2.9,29.7-0.3,30.3-3.5L30.3-3.5z"/>
			<path id="path6681_31_" opacity="0.998" fill="#AC0899" d="M78.1-3.2c0.6,3.1,1,6.2,1.4,9.4c3.2,0.3,6.3,0.8,9.5,1.3
				c-0.4-2.9-0.9-5.9-1.5-8.8C84.3-2.1,81.2-2.7,78.1-3.2L78.1-3.2z"/>
			<path id="path6679_31_" opacity="0.998" fill="#AE089A" d="M19.4-1.4C16.6-0.7,13.8,0.1,11,1c-0.7,2.7-1.3,5.4-1.8,8.1
				c2.9-0.6,5.8-1.2,8.7-1.6C18.3,4.5,18.8,1.6,19.4-1.4L19.4-1.4z"/>
			<path id="path6677_31_" opacity="0.998" fill="#E20BC9" d="M4.4-1.4c-1.7,1.9-3.3,3.9-4.8,6c1.1-0.5,2.1-1,3.2-1.5
				C3.3,1.6,3.9,0.1,4.4-1.4L4.4-1.4z"/>
			<path id="path6675_31_" opacity="0.998" fill="#E20BC9" d="M88.3-1.1c0.6,2.9,1.1,5.8,1.6,8.7c2.6,0.5,5.2,1,7.8,1.6
				C97,6.5,96.3,3.7,95.6,1C93.2,0.2,90.8-0.5,88.3-1.1L88.3-1.1z"/>
			<path id="path6673_31_" opacity="0.998" fill="#E20BC9" d="M10,1.3c0,0-0.1,0-0.1,0C8.1,2.2,6,3,3.8,3.7c0,0.1-0.1,0.2-0.1,0.3
				C3,6.4,2.4,8.7,1.9,11C4,10.4,6.1,9.8,8.2,9.3C8.7,6.6,9.3,4,10,1.3L10,1.3z"/>
			<path id="path6671_31_" opacity="0.998" fill="#E20BC9" d="M96.6,1.4c0.2,0.7,0.4,1.4,0.6,2.1c0.5,2,0.9,3.9,1.4,5.9
				c2.1,0.5,4.2,1.1,6.3,1.7c-0.7-2.5-1.4-4.9-2.3-7.3C100.6,2.9,98.6,2.1,96.6,1.4L96.6,1.4z"/>
			<path id="path6669_31_" opacity="0.998" fill="#E20BC9" d="M102.5,2.2c0.1,0.4,0.3,0.7,0.4,1.1c0.3,0.1,0.5,0.2,0.7,0.4
				C103.3,3.2,102.9,2.7,102.5,2.2L102.5,2.2z"/>
			<path id="path6667_31_" opacity="0.998" fill="#E20BC9" d="M2.5,4.1C1.4,4.5,0.2,5-0.9,5.4c-0.5,0.7-0.9,1.3-1.3,2
				c-0.5,1.7-1,3.5-1.5,5.2c1.4-0.5,2.8-0.9,4.3-1.4C1.1,8.9,1.8,6.5,2.5,4.1L2.5,4.1z"/>
			<path id="path6665_31_" opacity="0.998" fill="#E20BC9" d="M103.2,4.3c0.8,2.3,1.5,4.7,2.1,7.1c1.3,0.4,2.6,0.9,3.9,1.3
				c-1.4-2.7-2.9-5.3-4.6-7.7C104.1,4.7,103.7,4.5,103.2,4.3L103.2,4.3z"/>
			<path id="path6663_31_" opacity="0.998" fill="#E20BC9" d="M53.2,5.6c-3.6,0-7.1,0.1-10.7,0.3c-0.2,3.5-0.4,6.9-0.5,10.4
				c4.1-0.2,8.1-0.2,12.2-0.2c0-3.5,0-7,0-10.4C53.7,5.7,53.5,5.7,53.2,5.6L53.2,5.6z"/>
			<path id="path6661_31_" opacity="0.998" fill="#E20BC9" d="M54.8,5.7c0,3.5,0.1,6.9,0.1,10.4c3.9,0,7.8,0.1,11.6,0.3
				c-0.1-3.5-0.3-6.9-0.5-10.4C62.3,5.8,58.6,5.7,54.8,5.7L54.8,5.7z"/>
			<path id="path6659_31_" opacity="0.998" fill="#AC0899" d="M41.6,5.9c-3.9,0.2-7.9,0.5-11.8,0.9c-0.4,3.4-0.8,6.9-1,10.3
				c4.1-0.3,8.2-0.6,12.4-0.8C41.2,12.9,41.4,9.4,41.6,5.9L41.6,5.9z"/>
			<path id="path6657_31_" opacity="0.998" fill="#E20BC9" d="M66.9,6c0.2,3.5,0.4,6.9,0.5,10.4c4.1,0.2,8.2,0.5,12.2,0.9
				c-0.3-3.5-0.6-7-1-10.5C74.7,6.5,70.8,6.2,66.9,6L66.9,6z"/>
			<path id="path6655_31_" opacity="0.998" fill="#E20BC9" d="M28.8,6.9c-3.4,0.3-6.7,0.8-10,1.3c-0.5,3.3-0.8,6.7-1.1,10
				c0.4-0.1,0.9-0.1,1.3-0.2c3-0.3,6-0.6,9-0.8C28.1,13.7,28.4,10.3,28.8,6.9L28.8,6.9z"/>
			<path id="path6653_31_" opacity="0.998" fill="#AE089B" d="M79.5,7c0.4,3.5,0.7,7,0.9,10.5c3.3,0.4,6.6,0.8,9.9,1.3
				c-0.4-3.5-0.8-7-1.3-10.5C85.9,7.7,82.7,7.3,79.5,7L79.5,7z"/>
			<path id="path6651_31_" opacity="0.998" fill="#E20BC9" d="M17.8,8.3c-2.9,0.5-5.8,1-8.7,1.7c-0.6,3.2-1.1,6.4-1.5,9.7
				c3.1-0.5,6.1-1,9.2-1.4C17,15,17.4,11.6,17.8,8.3L17.8,8.3z"/>
			<path id="path6649_31_" opacity="0.998" fill="#AE089B" d="M90,8.4c0.5,3.5,0.9,7,1.2,10.5c2.8,0.4,5.6,0.9,8.4,1.5
				c-0.5-3.5-1.1-6.9-1.8-10.3C95.2,9.4,92.6,8.9,90,8.4L90,8.4z"/>
			<path id="path6647_31_" opacity="0.998" fill="#E20BC9" d="M98.7,10.2c0.7,3.4,1.3,6.8,1.7,10.3c2.2,0.4,4.5,0.9,6.7,1.4
				c-0.6-3.4-1.3-6.7-2.1-10C102.9,11.3,100.8,10.8,98.7,10.2L98.7,10.2z"/>
			<path id="path6645_31_" opacity="0.998" fill="#AC0899" d="M8.1,10.3c-1.9,0.6-4.2,1.1-6.4,1.6C1,14.9,0.3,18-0.1,21.1
				c2.3-0.5,4.6-0.9,6.9-1.3C7.1,16.6,7.5,13.4,8.1,10.3L8.1,10.3z"/>
			<path id="path6643_31_" opacity="0.998" fill="#E20BC9" d="M-4.1,10.5c-0.5,0.9-1,1.9-1.5,2.9c0.3-0.1,0.6-0.2,0.8-0.3
				C-4.5,12.2-4.3,11.4-4.1,10.5L-4.1,10.5z"/>
			<path id="path6641_31_" opacity="0.998" fill="#E20BC9" d="M0.7,12.1c-1.5,0.3-2.9,0.7-4.2,1.2c-0.7,3-1.3,6-1.8,9
				c1.4-0.3,2.9-0.7,4.4-1C-0.6,18.2,0,15.1,0.7,12.1L0.7,12.1z"/>
			<path id="path6639_31_" opacity="0.998" fill="#AE089A" d="M105.8,12.3c0.8,3.3,1.5,6.5,2,9.9c1.4,0.3,2.9,0.7,4.3,1.1
				c-0.5-2.9-1.2-5.7-1.9-8.5c-0.2-0.4-0.4-0.8-0.5-1.1C108.4,13.1,107.1,12.7,105.8,12.3L105.8,12.3z"/>
			<path id="path6637_31_" opacity="0.998" fill="#E20BC9" d="M-4.9,13.7c-0.4,0.2-0.7,0.3-1.1,0.5c-1.4,2.9-2.5,5.9-3.5,9
				c0.9-0.2,1.9-0.5,2.8-0.7C-6.2,19.5-5.6,16.6-4.9,13.7L-4.9,13.7z"/>
			<path id="path6635_31_" opacity="0.998" fill="#E20BC9" d="M51.9,16.9c-3.3,0-6.6,0.1-10,0.2c-0.2,4.3-0.3,8.7-0.4,13
				c4.2,0,8.4-0.1,12.6,0c0-4.4,0-8.8,0-13.2C53.3,16.9,52.6,16.9,51.9,16.9L51.9,16.9z"/>
			<path id="path6633_31_" opacity="0.998" fill="#B10F9E" d="M54.9,16.9c0,4.4,0,8.8,0,13.1c4,0,8,0.1,12,0.2
				c-0.1-4.3-0.2-8.6-0.4-13C62.7,17.1,58.8,17,54.9,16.9L54.9,16.9z"/>
			<path id="path6987_31_" opacity="0.998" fill="#E20BC9" d="M111.2,17c0.1,0.2,0.2,0.4,0.3,0.7c0.4,1.9,0.9,3.8,1.2,5.7l0.9,0.2
				C112.9,21.3,112.1,19.1,111.2,17L111.2,17z"/>
			<path id="path6985_31_" opacity="0.998" fill="#E20BC9" d="M112.8,24.2c0.5,2.8,0.8,5.7,1.1,8.5l1.6,0.2c-0.4-2.9-1-5.7-1.7-8.5
				l-0.1,0l0,0C113.4,24.4,113.1,24.3,112.8,24.2L112.8,24.2z"/>
			<path id="path6983_31_" opacity="0.998" fill="#E20BC9" d="M113.9,32.8C113.9,32.8,113.9,32.8,113.9,32.8
				C113.9,32.8,114,32.8,113.9,32.8L113.9,32.8L113.9,32.8z"/>
			<path id="path6981_31_" opacity="0.998" fill="#E20BC9" d="M114,33.6c0.2,3,0.3,6,0.3,9c0.6,0,1.1,0,1.7,0c0,0,0,0,0,0l0.2,0
				c0-0.3,0-0.6,0-0.9c0-2.7-0.2-5.3-0.5-7.9l-0.1,0c0,0,0,0,0,0C115,33.7,114.5,33.7,114,33.6L114,33.6z"/>
			<path id="path6979_31_" opacity="0.998" fill="#E20BC9" d="M115.9,43.3C115.9,43.3,115.9,43.3,115.9,43.3c-0.5,0-1.1,0-1.6,0
				c0,2.6-0.2,5.3-0.4,7.9c0.4-0.1,0.9-0.2,1.3-0.3l0,0l0.3,0c0.4-2.5,0.6-5,0.6-7.5L115.9,43.3L115.9,43.3z"/>
			<path id="path6874_31_" opacity="0.998" fill="#E20BC9" d="M115.3,51.8l-0.5,0.1c-0.4,0.1-0.7,0.2-1.1,0.3
				c-0.3,3.4-0.8,6.8-1.5,10.1c0.1,0,0.1,0,0.2,0c0,0,0,0,0,0l0.3-0.1C113.9,58.9,114.8,55.4,115.3,51.8L115.3,51.8z"/>
			<path id="path6872_31_" opacity="0.998" fill="#E20BC9" d="M112.4,63.1l-0.4,0.2c0,0.1,0,0.1,0,0.2c-0.3,0.8-0.6,1.6-0.9,2.3
				l-0.4,1.5c0-0.1,0.1-0.2,0.1-0.3L112.4,63.1z"/>
			<path id="path6870_31_" opacity="0.998" fill="#E20BC9" d="M111.2,63.5c-1.3,0.4-2.7,0.7-4,1c0,0-0.1,0-0.1,0
				c-0.5,2.8-1.1,5.6-1.9,8.3c0.6-0.2,1.2-0.4,1.7-0.7c0.2-0.1,0.5-0.2,0.8-0.4v0l1.2-0.5c0.2-0.5,0.5-1,0.7-1.4l1.1-4l0,0
				C110.9,65,111.1,64.2,111.2,63.5L111.2,63.5z"/>
			<path id="path6963_31_" opacity="0.998" fill="#E20BC9" d="M-8.2,63.9c0.9,2.4,1.9,4.7,3,6.9c0.3,0.1,0.4,0.2,0.6,0.3
				c-0.6-2.3-1.1-4.4-1.6-6.7C-6.9,64.1-7.5,64-8.2,63.9L-8.2,63.9z"/>
			<path id="path6961_31_" opacity="0.998" fill="#E20BC9" d="M-3.4,72.5c0.2,0.9,0.5,1.8,0.8,2.7c0.4,0.4,3.9,5.7,4.4,6.3l0.7,0.4
				c0.2,0.1,0.5,0.2,0.7,0.3c-0.9-2.6-1.6-5.3-2.3-7.9C-0.5,73.7-1.9,73.1-3.4,72.5L-3.4,72.5z"/>
			<path id="path6959_31_" opacity="0.998" fill="#E20BC9" d="M4.6,83.5c0.2,0.7,0.5,1.3,0.7,2c0.2,0.3,4.2,4.1,5.2,4.9
				c0.7,0.3,1.5,0.6,2.2,0.9c-0.6-1.8-1.2-3.7-1.7-5.6C8.9,85,6.8,84.3,4.6,83.5L4.6,83.5z"/>
			<path id="path6946_31_" opacity="0.998" fill="#E20BC9" d="M14,92.4l0.3,1.1c2.5,1.8,5.1,3.4,7.8,4.9L21.9,98l0,0
				c-0.3-1.1-0.6-2.2-0.9-3.4C18.7,94,16.3,93.2,14,92.4L14,92.4z"/>
			<path id="path6944_31_" opacity="0.998" fill="#E20BC9" d="M21.9,94.9c0.4,1.3,0.7,2.5,1.1,3.7l0.1,0.1l0.4,0.1
				c-0.1,0-0.1-0.1-0.2-0.1c3.1,0.9,6.3,1.7,9.5,2.4c-0.3-1.4-0.7-2.7-1-4.1C28.5,96.5,25.2,95.8,21.9,94.9L21.9,94.9z"/>
			<path id="path6942_31_" opacity="0.998" fill="#E20BC9" d="M26.4,100.5c2.3,1,4.6,1.9,7,2.7c-0.1-0.4-0.2-0.8-0.3-1.2
				c-1.7-0.3-3.4-0.7-5.1-1.1c0,0-0.1,0-0.1,0L26.4,100.5L26.4,100.5z"/>
			<path id="path6940_31_" opacity="0.998" fill="#E20BC9" d="M34.2,102.1c0.1,0.6,0.2,0.9,0.5,1.4c3,0.9,5.6,1.5,8.7,1.9
				c-0.1-0.5-0.2-1.4-0.2-2C40.2,103.1,37.1,102.6,34.2,102.1L34.2,102.1z"/>
			<path id="path6938_31_" opacity="0.998" fill="#E20BC9" d="M64.7,103.2c-3.4,0.3-6.9,0.6-10.3,0.6c-0.1,0.5,0,1.4-0.1,2
				c3.5-0.1,7-0.5,10.2-1.1C64.5,104.2,64.6,103.7,64.7,103.2L64.7,103.2z"/>
			<path id="path6919_31_" opacity="0.998" fill="#E20BC9" d="M44,103.5c0,0.7,0.2,1.5,0.3,2c2.8,0.4,4.9,0.3,7.7,0.3
				c0.5,0,1,0,1.5,0c0.1-0.6,0-1.4,0-2.1C50.3,103.7,47.2,103.8,44,103.5L44,103.5z"/>
			<path id="path6917_31_" opacity="0.998" fill="#E20BC9" d="M92.1,91.2c-0.2,0.1-0.4,0.3-0.5,0.4c-2.1,0.8-4.2,1.6-6.3,2.2
				c-0.3,0.9-0.6,1.9-0.9,2.8c0,0,0,0,0,0l-0.2,0.6c3-1.7,5.8-3.7,8.4-5.9l-0.9,0.3L92.1,91.2z"/>
			<path id="path6915_31_" opacity="0.998" fill="#E20BC9" d="M84.4,94.1c-0.4,0.1-0.8,0.2-1.1,0.3c-2.6,0.7-4.7,1.3-7.4,1.8
				c-0.4,1.6-1,3.1-1.4,4.6c1.9-0.5,3.6-0.9,5.3-1.3c1.1-0.5,2.2-1.1,3.3-1.7l0.3-0.6c0,0,0,0-0.1,0C83.7,96.2,84,95.2,84.4,94.1
				L84.4,94.1z"/>
			<path id="path6913_31_" opacity="0.998" fill="#E20BC9" d="M75,101.6l-1.2,0.2l-0.1,0.2C74.2,101.9,74.6,101.7,75,101.6L75,101.6
				z"/>
			<path id="path6883_31_" opacity="0.998" fill="#E20BC9" d="M73.2,101.8c-0.3,0.1-0.6,0.2-0.9,0.3c-2.3,0.4-4.6,0.7-6.9,1
				c0,0.4-0.1,0.8-0.1,1.3c2.6-0.5,5.1-1.2,7.6-2.1L73.2,101.8z"/>
			<path id="path6881_31_" opacity="0.998" fill="#E20BC9" d="M100.8,83.3l-0.7,0.3c0,0,0,0.1-0.1,0.1c-1.5,0.6-3.1,1.2-4.7,1.7
				c-0.4,1.4-0.9,2.8-1.3,4.3l0.1-0.1l-0.5,0.9C96.3,88.2,98.6,85.8,100.8,83.3L100.8,83.3z"/>
			<path id="path6868_31_" opacity="0.998" fill="#00FFFF" d="M94.8,85.5c-2.5,0.8-5,1.4-7.5,2c-0.5,1.8-1,3.6-1.5,5.4
				c2.5-0.8,4.9-1.7,7.3-2.7l0.2-0.2C93.9,88.6,94.4,87.1,94.8,85.5L94.8,85.5z"/>
			<path id="path6866_31_" opacity="0.998" fill="#E20BC9" d="M108.4,72.2l-0.5,0.2c0,0,0,0,0,0.1c-1,0.4-1.9,0.9-2.9,1.3
				c-0.5,2-1.2,4-1.8,6l-0.1,0.7C105.1,77.8,106.8,75.1,108.4,72.2L108.4,72.2z"/>
			<path id="path6631_31_" opacity="0.998" fill="#00FFFF" d="M104.1,74.1c-2.1,0.8-4.2,1.6-6.4,2.2c-0.6,2.7-1.3,5.3-2,7.9
				c1.7-0.6,3.4-1.2,5.1-1.9L102,81l0.1-0.1c0.2-0.5,0.3-0.9,0.5-1.4C103.1,77.7,103.6,75.9,104.1,74.1L104.1,74.1z"/>
			<path id="path6629_31_" opacity="0.998" fill="#E20BC9" d="M41.1,17.1c-4.1,0.2-8.3,0.4-12.4,0.7c-0.3,4.2-0.6,8.3-0.7,12.5
				c4.3-0.1,8.5-0.2,12.8-0.2C40.8,25.8,40.9,21.4,41.1,17.1L41.1,17.1z"/>
			<path id="path6627_31_" opacity="0.998" fill="#B10F9E" d="M67.4,17.3c0.2,4.3,0.3,8.6,0.3,12.9c4.2,0.1,8.4,0.2,12.6,0.4
				c-0.1-4.1-0.4-8.3-0.7-12.4C75.6,17.8,71.5,17.5,67.4,17.3L67.4,17.3z"/>
			<path id="path6625_31_" opacity="0.998" fill="#AE089B" d="M27.9,17.9c-3.4,0.3-6.9,0.6-10.3,1.1c-0.4,3.9-0.6,7.8-0.8,11.8
				c3.5-0.1,7-0.3,10.5-0.4C27.4,26.2,27.6,22,27.9,17.9L27.9,17.9z"/>
			<path id="path6623_31_" opacity="0.998" fill="#E20BC9" d="M80.5,18.3c0.3,4.1,0.4,8.3,0.6,12.4c3.4,0.1,6.8,0.3,10.2,0.5
				c-0.2-3.9-0.5-7.8-0.8-11.6C87.1,19,83.8,18.6,80.5,18.3L80.5,18.3z"/>
			<path id="path6621_31_" opacity="0.998" fill="#F529DD" d="M16.7,19.1c-3.1,0.4-6.2,0.9-9.2,1.4C7.1,24,6.8,27.6,6.6,31.2
				c3.2-0.2,6.3-0.3,9.5-0.4C16.2,26.9,16.4,23,16.7,19.1L16.7,19.1z"/>
			<path id="path6619_31_" opacity="0.998" fill="#E20BC9" d="M91.3,19.6c0.3,3.9,0.5,7.7,0.7,11.6c2.9,0.2,5.9,0.3,8.8,0.5
				c-0.2-3.6-0.6-7.1-1-10.7c0,0,0,0,0,0C96.9,20.5,94.1,20.1,91.3,19.6L91.3,19.6z"/>
			<path id="path6617_31_" opacity="0.998" fill="#AE089A" d="M6.6,20.6c-1.8,0.3-3.6,0.6-5.4,1c-0.5,0.1-1,0.2-1.5,0.3
				c-0.5,3.2-0.9,6.5-1.1,9.8c2.4-0.1,4.8-0.3,7.2-0.4C6,27.7,6.3,24.1,6.6,20.6L6.6,20.6z"/>
			<path id="path6615_31_" opacity="0.998" fill="#AE089A" d="M100.5,21.2c0.5,3.5,0.8,7,1,10.6c2.3,0.2,4.6,0.3,6.8,0.5
				c-0.2-3.2-0.6-6.4-1.1-9.6C105,22.2,102.8,21.7,100.5,21.2L100.5,21.2z"/>
			<path id="path6613_31_" opacity="0.998" fill="#E20BC9" d="M-1.1,22c-1.5,0.3-3,0.5-4.4,0.9c-0.5,3-0.8,6-1.1,9.1
				c1.5-0.1,3-0.2,4.4-0.3C-1.9,28.4-1.6,25.2-1.1,22L-1.1,22z"/>
			<path id="path6611_31_" opacity="0.998" fill="#E20BC9" d="M108,22.9c0.5,3.1,0.9,6.3,1.1,9.5c1.4,0.1,2.9,0.2,4.3,0.4
				c-0.3-2.9-0.6-5.8-1.1-8.7C110.9,23.6,109.4,23.2,108,22.9L108,22.9z"/>
			<path id="path6609_31_" opacity="0.998" fill="#E20BC9" d="M-6.7,23.2c-1.2,0.4-2.3,0.9-3.2,1.6c-0.7,2.4-1.2,4.9-1.6,7.5
				c1.3-0.1,2.5-0.2,3.8-0.3C-7.5,29.1-7.2,26.1-6.7,23.2L-6.7,23.2z"/>
			<path id="path6607_31_" opacity="0.998" fill="#B10F9E" d="M51.2,30.8c-3.2,0-6.5,0-9.7,0.1c-0.1,4.1-0.1,8.2-0.1,12.4
				c4.2,0,8.5,0,12.7-0.1c0-4.1,0-8.2,0-12.4C53.2,30.9,52.2,30.8,51.2,30.8L51.2,30.8z"/>
			<path id="path6605_31_" opacity="0.998" fill="#E20BC9" d="M54.9,30.9c0,4.1,0,8.2,0,12.3c4,0,8.1-0.1,12.1-0.1
				c0-4,0-8.1-0.1-12.1C62.9,30.9,58.9,30.9,54.9,30.9L54.9,30.9z"/>
			<path id="path6603_31_" opacity="0.998" fill="#BE09A9" d="M40.7,30.9c-4.3,0.1-8.5,0.1-12.8,0.2c-0.1,4-0.2,8.1-0.1,12.1
				c4.3,0,8.6,0,12.9,0C40.7,39.2,40.7,35,40.7,30.9L40.7,30.9z"/>
			<path id="path6601_31_" opacity="0.998" fill="#E20BC9" d="M67.8,31c0.1,4,0.1,8,0.1,12.1c4.2,0,8.4-0.1,12.7-0.2
				c0-3.8,0-7.7-0.1-11.5C76.2,31.2,72,31.1,67.8,31L67.8,31z"/>
			<path id="path6599_31_" opacity="0.998" fill="#BA09A6" d="M27.3,31.2c-3.5,0.1-7,0.2-10.5,0.3c-0.2,3.9-0.2,7.8-0.2,11.6
				c3.5,0,7,0.1,10.6,0.1c0-1.3,0-2.6,0-3.9C27.1,36.7,27.2,33.9,27.3,31.2L27.3,31.2z"/>
			<path id="path6597_31_" opacity="0.998" fill="#E20BC9" d="M81.1,31.4c0,1.4,0.1,2.9,0.1,4.3c0,2.4,0,4.8,0,7.2
				c3.4,0,6.9-0.1,10.3-0.1c0-3.6,0-7.3-0.2-10.9C87.9,31.7,84.5,31.6,81.1,31.4L81.1,31.4z"/>
			<path id="path6595_31_" opacity="0.998" fill="#CF0AB8" d="M16.1,31.6c-3.2,0.1-6.4,0.3-9.5,0.4c-0.2,3.7-0.2,7.3-0.2,11
				c3.2,0.1,6.3,0.1,9.5,0.2c0-0.5,0-1.1,0-1.6C15.9,38.2,15.9,34.9,16.1,31.6L16.1,31.6z"/>
			<path id="path6593_31_" opacity="0.998" fill="#AE089A" d="M92,32c0.1,1.6,0.1,3.2,0.2,4.8c0,2,0,4,0,6c3,0,5.9-0.1,8.9-0.1
				c0-3.4,0-6.8-0.2-10.2C97.9,32.3,94.9,32.1,92,32L92,32z"/>
			<path id="path6591_31_" opacity="0.998" fill="#E20BC9" d="M5.8,32c-2.3,0.1-4.5,0.2-6.8,0.3c-0.2,0-0.3,0-0.5-0.1
				c-0.3,3.5-0.4,7-0.4,10.5c2.5,0.1,5,0.1,7.4,0.2c0-0.3,0-0.6,0-1C5.6,38.7,5.7,35.4,5.8,32L5.8,32z"/>
			<path id="path6589_31_" opacity="0.998" fill="#E20BC9" d="M-2.3,32.3c-1.3,0-2.8,0.3-4.3,0.6C-6.9,36.1-7,39.4-7,42.6
				c1.5,0.1,3,0.1,4.5,0.1c0-3.5,0.1-7,0.3-10.5C-2.2,32.3-2.3,32.3-2.3,32.3L-2.3,32.3z"/>
			<path id="path6587_31_" opacity="0.998" fill="#E20BC9" d="M101.6,32.6c0.2,3.4,0.3,6.7,0.3,10.1c2.3,0,4.6,0,6.8-0.1
				c0-3.2-0.1-6.3-0.3-9.5C106.1,32.9,103.9,32.7,101.6,32.6L101.6,32.6z"/>
			<path id="path6585_31_" opacity="0.998" fill="#F529DD" d="M-7.8,32.9c-1.5,0.2-2.8,0.4-3.8,0.2c-0.4,2.8-0.6,5.7-0.6,8.6
				c0,0.3,0,0.5,0,0.8c1.4,0.1,2.7,0.1,4.1,0.2C-8.1,39.4-8,36.2-7.8,32.9L-7.8,32.9z"/>
			<path id="path6583_31_" opacity="0.998" fill="#E20BC9" d="M109.2,33.2c0.2,3.1,0.3,6.3,0.3,9.4c1.4,0,2.9,0,4.3,0
				c0-3-0.1-6-0.3-9C112.1,33.4,110.6,33.3,109.2,33.2L109.2,33.2z"/>
			<path id="path6581_31_" opacity="0.998" fill="#E20BC9" d="M-12.1,43.2c0.1,3.1,0.4,6.1,0.9,9.1c1.2,0.2,2.5,0.5,3.7,0.7
				C-7.8,49.8-8,46.6-8,43.4C-9.4,43.3-10.7,43.3-12.1,43.2L-12.1,43.2z"/>
			<path id="path6579_31_" opacity="0.998" fill="#E20BC9" d="M113.8,43.4c-1.4,0-2.9,0-4.3,0c0,3-0.2,5.9-0.4,8.9
				c1.4-0.3,2.9-0.6,4.3-0.9C113.6,48.7,113.8,46,113.8,43.4L113.8,43.4z"/>
			<path id="path6577_31_" opacity="0.998" fill="#00FFFF" d="M108.7,43.4c-2.3,0-4.6,0-6.8,0.1c0,3.4-0.2,6.8-0.4,10.2
				c2.3-0.3,4.5-0.7,6.8-1.2C108.5,49.4,108.6,46.4,108.7,43.4L108.7,43.4z"/>
			<path id="path6575_31_" opacity="0.998" fill="#E20BC9" d="M-7,43.4c0,3.2,0.2,6.5,0.5,9.7c1.5,0.2,3,0.5,4.5,0.7
				c-0.2-1.9-0.3-3.8-0.4-5.7c-0.1-1.5-0.1-3-0.1-4.5C-4,43.5-5.5,43.5-7,43.4L-7,43.4z"/>
			<path id="path6573_31_" opacity="0.998" fill="#00FFFF" d="M101,43.5c-3,0-5.9,0.1-8.9,0.1c0,3.8-0.1,7.5-0.3,11.3
				c2.9-0.3,5.8-0.7,8.7-1.1C100.8,50.3,101,46.9,101,43.5L101,43.5z"/>
			<path id="path6571_31_" opacity="0.998" fill="#CF0AB8" d="M-1.8,43.6c0,3.4,0.2,6.9,0.5,10.3c2.5,0.3,5,0.6,7.5,0.9
				c-0.3-3.7-0.5-7.3-0.6-11C3.2,43.7,0.7,43.6-1.8,43.6L-1.8,43.6z"/>
			<path id="path6569_31_" opacity="0.998" fill="#E20BC9" d="M91.5,43.6c-3.4,0-6.9,0.1-10.3,0.1c-0.1,4-0.1,8.1-0.3,12.1
				c3.4-0.2,6.8-0.5,10.2-0.9C91.3,51.2,91.5,47.4,91.5,43.6L91.5,43.6z"/>
			<path id="path6567_31_" opacity="0.998" fill="#E20BC9" d="M80.5,43.7c-4.2,0.1-8.4,0.1-12.7,0.2c0,4.2-0.1,8.4-0.1,12.6
				c4.1-0.1,8.3-0.3,12.4-0.6C80.3,51.8,80.5,47.8,80.5,43.7L80.5,43.7z"/>
			<path id="path6565_31_" opacity="0.998" fill="#F41DDB" d="M6.4,43.8c0.1,3.7,0.3,7.4,0.6,11.1c3.1,0.3,6.2,0.6,9.3,0.8
				c-0.2-3.9-0.3-7.8-0.3-11.7C12.7,43.9,9.5,43.8,6.4,43.8L6.4,43.8z"/>
			<path id="path6563_31_" opacity="0.998" fill="#00FFFF" d="M67.1,43.9c-4,0-8.1,0.1-12.1,0.1c0,4.3,0,8.5,0,12.8
				c4,0,8.1-0.1,12.1-0.2C67,52.3,67.1,48.1,67.1,43.9L67.1,43.9z"/>
			<path id="path6561_31_" opacity="0.998" fill="#CF0AB8" d="M16.6,43.9c0,3.9,0.2,7.9,0.4,11.8c3.5,0.3,7,0.4,10.5,0.6
				c-0.2-4.1-0.2-8.2-0.3-12.3C23.6,44,20.1,44,16.6,43.9L16.6,43.9z"/>
			<path id="path6559_31_" opacity="0.998" fill="#E20BC9" d="M54.1,44c-4.2,0-8.5,0.1-12.7,0.1c0,4.2,0.1,8.5,0.2,12.7
				c0.8,0,1.5,0,2.3,0c3.4,0,6.8,0,10.2-0.1C54.1,52.5,54.1,48.2,54.1,44L54.1,44z"/>
			<path id="path6557_31_" opacity="0.998" fill="#E20BC9" d="M27.8,44c0,4.1,0.2,8.2,0.4,12.3c4.2,0.2,8.4,0.3,12.7,0.4
				c-0.1-4.2-0.1-8.5-0.1-12.7C36.4,44.1,32.1,44.1,27.8,44L27.8,44z"/>
			<path id="path6555_31_" opacity="0.998" fill="#E20BC9" d="M113.3,52.4c-1.4,0.3-2.9,0.6-4.3,0.9c-0.3,3.5-0.8,6.9-1.4,10.4
				c1.4-0.3,2.8-0.7,4.2-1C112.4,59.2,112.9,55.8,113.3,52.4L113.3,52.4z"/>
			<path id="path6553_31_" opacity="0.998" fill="#E20BC9" d="M-11.1,53.1c0.6,3.4,1.5,6.7,2.6,9.9c0.7,0.1,1.6,0.2,2.3,0.3
				c-0.4-2.2-0.7-4.3-1-6.5c-0.1-1.1-0.2-2.2-0.3-3.3C-8.8,53.4-10,53.2-11.1,53.1L-11.1,53.1z"/>
			<path id="path6551_31_" opacity="0.998" fill="#E20BC9" d="M108.1,53.4c-1.3,0.2-2.7,0.5-4,0.7c-0.9,0.1-1.8,0.3-2.8,0.4
				c-0.3,3.6-0.7,7.2-1.2,10.8c2.2-0.4,4.4-0.9,6.6-1.4C107.3,60.3,107.8,56.9,108.1,53.4L108.1,53.4z"/>
			<path id="path6549_31_" opacity="0.998" fill="#E20BC9" d="M-6.4,53.8c0.3,3.3,0.8,6.6,1.4,9.8c1.5,0.3,2.9,0.7,4.4,1
				c-0.5-3.3-1-6.6-1.3-9.9C-3.4,54.4-4.9,54.1-6.4,53.8L-6.4,53.8z"/>
			<path id="path6547_31_" opacity="0.998" fill="#E20BC9" d="M100.5,54.5c-2.9,0.4-5.8,0.7-8.7,1c-0.2,3.8-0.5,7.5-0.9,11.3
				c2.8-0.4,5.6-0.9,8.3-1.5C99.8,61.8,100.2,58.2,100.5,54.5L100.5,54.5z"/>
			<path id="path6545_31_" opacity="0.998" fill="#F41DDB" d="M-1.2,54.8c0.3,3.3,0.8,6.6,1.3,9.9c2.4,0.5,4.8,0.9,7.3,1.3
				c-0.5-3.5-0.9-7-1.2-10.5C3.9,55.4,1.4,55.1-1.2,54.8L-1.2,54.8z"/>
			<path id="path6543_31_" opacity="0.998" fill="#F41DDB" d="M7,55.6c0.3,3.6,0.7,7.1,1.3,10.6c2.9,0.5,5.8,0.9,8.7,1.3
				c-0.3-3.7-0.6-7.4-0.7-11.1C13.2,56.1,10.1,55.9,7,55.6L7,55.6z"/>
			<path id="path6541_31_" opacity="0.998" fill="#00FFFF" d="M91,55.7c-3.4,0.4-6.8,0.7-10.2,0.9c-0.2,3.9-0.4,7.8-0.7,11.7
				c3.3-0.3,6.6-0.8,9.9-1.3C90.5,63.2,90.8,59.4,91,55.7L91,55.7z"/>
			<path id="path6539_31_" opacity="0.998" fill="#F41DDB" d="M17,56.4c0.2,3.7,0.5,7.4,0.9,11.2c1.4,0.2,2.7,0.3,4.1,0.5
				c2.1,0.2,4.1,0.4,6.2,0.5c-0.3-3.8-0.5-7.7-0.7-11.5C24,56.9,20.5,56.7,17,56.4L17,56.4z"/>
			<path id="path6537_31_" opacity="0.998" fill="#BA09A6" d="M80.1,56.6c-4.1,0.3-8.3,0.5-12.4,0.7c-0.1,4-0.2,7.9-0.3,11.9
				c4-0.2,7.9-0.5,11.8-0.9C79.6,64.4,79.9,60.5,80.1,56.6L80.1,56.6z"/>
			<path id="path6535_31_" opacity="0.998" fill="#BE09A9" d="M28.2,57.1c0.2,3.8,0.5,7.7,0.8,11.5c4,0.3,8,0.5,12.1,0.7
				c-0.1-3.9-0.2-7.8-0.2-11.7C36.6,57.5,32.4,57.4,28.2,57.1L28.2,57.1z"/>
			<path id="path6533_31_" opacity="0.998" fill="#00FFFF" d="M66.9,57.4c-4,0.2-8.1,0.3-12.1,0.3c0,4-0.1,7.9-0.1,11.9
				c4,0,7.9-0.1,11.9-0.3C66.8,65.3,66.9,61.3,66.9,57.4L66.9,57.4z"/>
			<path id="path6531_31_" opacity="0.998" fill="#E20BC9" d="M41.6,57.6c0.1,3.9,0.2,7.8,0.3,11.8c4,0.1,8,0.2,12.1,0.2
				c0-4,0.1-7.9,0.1-11.9C49.9,57.7,45.8,57.7,41.6,57.6L41.6,57.6z"/>
			<path id="path6529_31_" opacity="0.998" fill="#E20BC9" d="M-4.8,64.7c0.5,2.5,0.9,4.5,1.5,6.9c1.5,0.7,2.9,1.3,4.4,1.8
				c-0.6-2.6-1.1-5.4-1.6-8C-1.9,65.1-3.8,64.8-4.8,64.7L-4.8,64.7z"/>
			<path id="path6527_31_" opacity="0.998" fill="#E20BC9" d="M106.5,64.7c-2.2,0.5-4.3,0.9-6.5,1.3c-0.5,3.1-1.1,6.2-1.7,9.3
				c2.2-0.7,4.3-1.4,6.4-2.2C105.4,70.4,106,67.6,106.5,64.7L106.5,64.7z"/>
			<path id="path6525_31_" opacity="0.998" fill="#E20BC9" d="M0.3,65.7c0.5,2.6,1.1,5.4,1.8,8c2.3,0.8,4.6,1.6,7,2.2
				c-0.6-3-1.1-6.1-1.5-9.2C5.3,66.5,2,66.1,0.3,65.7L0.3,65.7z"/>
			<path id="path6523_31_" opacity="0.998" fill="#00FFFF" d="M99.1,66.2c-2.8,0.5-5.5,1-8.3,1.4c-0.4,3.4-0.8,6.7-1.4,10
				c2.7-0.6,5.3-1.3,8-2.1C98,72.5,98.6,69.3,99.1,66.2L99.1,66.2z"/>
			<path id="path6521_31_" opacity="0.998" fill="#B10F9E" d="M8.4,67c0.5,3.1,1,6.2,1.7,9.3c2.7,0.7,5.4,1.3,8.1,1.9
				c-0.5-3.3-0.8-6.6-1.1-9.9C14.2,67.8,11.3,67.4,8.4,67L8.4,67z"/>
			<path id="path6519_31_" opacity="0.998" fill="#E20BC9" d="M89.9,67.7c-3.3,0.5-6.6,0.9-9.9,1.2c-0.3,3.5-0.7,7.1-1.2,10.6
				c3.2-0.5,6.4-1,9.5-1.7C89,74.5,89.5,71.1,89.9,67.7L89.9,67.7z"/>
			<path id="path6517_31_" opacity="0.998" fill="#B10F9E" d="M17.9,68.3c0.3,3.3,0.7,6.7,1.2,10c3.4,0.6,6.7,1.1,10.1,1.6
				c-0.4-3.5-0.8-7-1.1-10.4C24.8,69.1,21.3,68.7,17.9,68.3L17.9,68.3z"/>
			<path id="path6515_31_" opacity="0.998" fill="#BA09A6" d="M79.2,69.1c-3.9,0.4-7.9,0.7-11.8,0.9c-0.1,3.6-0.3,7.2-0.4,10.8
				c3.7-0.3,7.4-0.6,11-1.1C78.4,76.2,78.8,72.6,79.2,69.1L79.2,69.1z"/>
			<path id="path6513_31_" opacity="0.998" fill="#BE09A9" d="M29.1,69.5c0.3,3.5,0.7,7,1.1,10.5c1.4,0.2,2.8,0.3,4.2,0.5
				c2.4,0.2,4.8,0.3,7.2,0.5c-0.2-3.3-0.3-6.7-0.4-10c0-0.2,0-0.5,0-0.7C37.1,70.1,33.1,69.8,29.1,69.5L29.1,69.5z"/>
			<path id="path6511_31_" opacity="0.998" fill="#00FFFF" d="M66.6,70.1c-3.9,0.2-7.9,0.3-11.9,0.4c0,3.6-0.1,7.2-0.1,10.8
				c3.8,0,7.7-0.1,11.5-0.4C66.3,77.3,66.5,73.7,66.6,70.1L66.6,70.1z"/>
			<path id="path6509_31_" opacity="0.998" fill="#E20BC9" d="M42,70.3c0.1,3.6,0.3,7.1,0.4,10.7c3.8,0.2,7.6,0.3,11.5,0.3
				c0-3.6,0.1-7.2,0.1-10.8C50,70.5,46,70.4,42,70.3L42,70.3z"/>
			<path id="path6507_31_" opacity="0.998" fill="#E20BC9" d="M2.3,74.6c0.7,2.7,1.5,5.4,2.4,8c2.1,0.8,4.3,1.5,6.5,2.2
				c-0.7-2.6-1.3-5.3-1.9-8C6.9,76.1,4.6,75.4,2.3,74.6L2.3,74.6z"/>
			<path id="path6505_31_" opacity="0.998" fill="#E20BC9" d="M97.2,76.6c-2.6,0.8-5.2,1.4-7.9,2c-0.5,2.7-1.1,5.4-1.7,8.1
				c2.6-0.6,5.1-1.3,7.6-2.1c0.2-0.8,0.5-1.6,0.7-2.4C96.3,80.3,96.7,78.4,97.2,76.6L97.2,76.6z"/>
			<path id="path6503_31_" opacity="0.998" fill="#E20BC9" d="M10.2,77.1c0.6,2.7,1.2,5.3,1.9,8c2.5,0.7,5,1.3,7.6,1.9
				c-0.5-2.6-1-5.3-1.4-8C15.6,78.4,12.9,77.8,10.2,77.1L10.2,77.1z"/>
			<path id="path6501_31_" opacity="0.998" fill="#E20BC9" d="M88.3,78.8c-3.1,0.6-6.3,1.1-9.5,1.6c-0.4,2.8-0.9,5.6-1.4,8.3
				c3.1-0.5,6.2-1,9.3-1.8C87.2,84.2,87.8,81.5,88.3,78.8L88.3,78.8z"/>
			<path id="path6499_31_" opacity="0.998" fill="#E20BC9" d="M19.3,79.2c0.4,2.6,0.8,5.2,1.2,7.8c0,0,0,0.1,0,0.1
				c3.3,0.7,6.7,1.2,10.1,1.7c-0.5-2.7-0.9-5.4-1.2-8.1C26,80.3,22.6,79.8,19.3,79.2L19.3,79.2z"/>
			<path id="path6497_31_" opacity="0.998" fill="#E20BC9" d="M77.8,80.4c-3.7,0.5-7.3,0.8-10.9,1.1c-0.1,2.8-0.3,5.5-0.4,8.3
				c3.4-0.2,6.8-0.6,10.1-1.1C77,86,77.4,83.2,77.8,80.4L77.8,80.4z"/>
			<path id="path6495_31_" opacity="0.998" fill="#BA09A6" d="M30.3,80.9c0.2,1.5,0.4,3.1,0.6,4.6c0.1,1.1,0.2,2.3,0.4,3.4
				c2.8,0.4,5.6,0.7,8.3,0.9c0.8,0.1,1.6,0.1,2.4,0.1c-0.2-2.7-0.3-5.5-0.5-8.2C37.8,81.6,34,81.3,30.3,80.9L30.3,80.9z"/>
			<path id="path6493_31_" opacity="0.998" fill="#00FFFF" d="M66.1,81.6c-0.4,0-0.7,0.1-1.1,0.1c-3.4,0.2-6.9,0.3-10.3,0.3
				c0,2.6-0.1,5.2-0.1,7.8c0,0.1,0,0.3,0,0.4c3.7,0,7.4-0.1,11.1-0.4C65.8,87.1,66,84.4,66.1,81.6L66.1,81.6z"/>
			<path id="path6491_31_" opacity="0.998" fill="#E20BC9" d="M42.4,81.8c0.1,2.7,0.3,5.4,0.4,8.1c0,0,0,0,0,0
				c3.6,0.2,7.3,0.3,10.9,0.3c0-2.8,0.1-5.5,0.1-8.3C50.1,82,46.2,82,42.4,81.8L42.4,81.8z"/>
			<path id="path6489_31_" opacity="0.998" fill="#E20BC9" d="M12.3,86c0.2,0.9,0.5,1.9,0.8,2.8c0.2,0.9,0.4,1.8,0.7,2.8
				c2.4,0.9,4.9,1.6,7.3,2.3c-0.5-2-0.9-4-1.3-6C17.3,87.3,14.8,86.7,12.3,86L12.3,86z"/>
			<path id="path6487_31_" opacity="0.998" fill="#00FFFF" d="M86.5,87.7c-3.1,0.7-6.1,1.2-9.2,1.7c-0.4,2-0.8,4.1-1.3,6.1
				c3.1-0.6,6.1-1.4,9.1-2.3C85.6,91.4,86.2,89.5,86.5,87.7L86.5,87.7z"/>
			<path id="path6485_31_" opacity="0.998" fill="#E20BC9" d="M20.6,88c0.3,2,0.8,4,1.4,6.1c3.3,0.9,6.7,1.6,10,2.1
				c-0.5-2.2-0.9-4.3-1.3-6.5C27.3,89.2,24,88.7,20.6,88L20.6,88z"/>
			<path id="path6483_31_" opacity="0.998" fill="#E20BC9" d="M76.4,89.5c-3.3,0.5-6.7,0.8-10.1,1c-0.3,2-0.3,4.2-0.4,6.4
				c3.1-0.3,6.1-0.8,9.2-1.4C75.7,93.6,76.2,91.5,76.4,89.5C76.4,89.5,76.4,89.5,76.4,89.5L76.4,89.5z"/>
			<path id="path6481_31_" opacity="0.998" fill="#00FFFF" d="M31.4,89.8c0.4,2.2,0.9,4.4,1.5,6.5c3.2,0.5,6.5,0.9,9.7,1.1
				c-0.2-2.2-0.3-4.5-0.5-6.7C38.5,90.5,35,90.2,31.4,89.8L31.4,89.8z"/>
			<path id="path6479_31_" opacity="0.998" fill="#E20BC9" d="M65.6,90.6c-2.9,0.2-5.9,0.4-8.8,0.5c-0.8,0-1.6,0-2.4,0
				c-0.1,2.1,0,4.4,0,6.7c3.5-0.1,7.1-0.3,10.7-0.7C65.3,94.9,65.4,92.8,65.6,90.6L65.6,90.6z"/>
			<path id="path6477_31_" opacity="0.998" fill="#00FFFF" d="M42.8,90.8c0,2.1,0.3,4.4,0.6,6.7c2.9,0.2,5.8,0.3,8.6,0.3
				c0.5,0,1.1,0,1.6,0c0-2.2,0.1-4.5,0.1-6.7C50.1,91.1,46.5,91,42.8,90.8L42.8,90.8z"/>
			<path id="path6475_31_" opacity="0.998" fill="#BA09A6" d="M75,96.4c-3,0.6-6,1-9,1.4c-0.1,1.5-0.3,2.8-0.4,4.4
				c2.7-0.3,5.5-0.6,8.1-1.1C74,99.6,74.5,98,75,96.4L75,96.4z"/>
			<path id="path6473_31_" opacity="0.998" fill="#E20BC9" d="M33.1,97.2c0.3,1.4,0.7,2.8,1,4.1c3,0.5,5.9,1,8.9,1.2
				c-0.1-1.4-0.2-2.8-0.4-4.2C39.4,98.1,36.3,97.7,33.1,97.2L33.1,97.2z"/>
			<path id="path6471_31_" opacity="0.998" fill="#E20BC9" d="M65.1,97.9c-3.5,0.4-7,0.6-10.6,0.7c0,1.5,0,3-0.1,4.4
				c3.4,0,6.9-0.2,10.3-0.6C64.8,100.9,64.9,99.4,65.1,97.9L65.1,97.9z"/>
			<path id="path6465_31_" opacity="0.998" fill="#E20BC9" d="M43.5,98.4c0.2,1.5,0.3,2.9,0.4,4.2c3.2,0.3,6.4,0.4,9.6,0.4
				c0-1.5,0.1-2.9,0.1-4.4C50.2,98.7,46.9,98.6,43.5,98.4L43.5,98.4z"/>
		</g>
	</g>
	<path fill="#FFFFFF" d="M72,144L9.6,108V36L72,0l62.4,36v72L72,144z M12.6,106.3L72,140.5l59.4-34.3V37.7L72,3.5L12.6,37.7V106.3z"
		/>
	<path fill="#FFFFFF" d="M72,5.2l57.9,33.4v66.8L72,138.8l-57.9-33.4V38.6L72,5.2 M72,1.7L11.1,36.9v70.3L72,142.3l60.9-35.1V36.9
		L72,1.7L72,1.7z"/>
</g>
</svg>
