<svg id="Layer_1" data-name="Layer 1" xmlns="http://www.w3.org/2000/svg" xmlns:xlink="http://www.w3.org/1999/xlink" viewBox="0 0 735 852"><defs><style>.cls-1{fill:none;}.cls-2{clip-path:url(#clip-path);}.cls-3{fill:#428bca;}.cls-4{fill:#009bd7;}.cls-5{fill:#005373;}.cls-6{fill:#007eb4;}.cls-7{opacity:0.94;}.cls-8{fill:#fff;}.cls-9{isolation:isolate;}.cls-10{clip-path:url(#clip-path-2);}</style><clipPath id="clip-path"><polygon class="cls-1" points="-433.3 7.4 -74.6 214.5 -74.6 636.6 -433.3 845 -800.1 636.6 -800.1 214.5 -433.3 7.4"/></clipPath><clipPath id="clip-path-2"><polygon class="cls-1" points="390.2 807.4 390.2 790 543.5 701.5 543.5 718.9 390.2 807.4"/></clipPath></defs><title>RStudio_Hex 2016 v7 outlines</title><g class="cls-2"><circle class="cls-3" cx="-437.4" cy="437.4" r="442.1"/></g><polygon class="cls-4" points="734.9 213.7 734.9 636.9 367.5 849.1 367.5 425.3 734.9 213.7"/><polygon class="cls-5" points="0.1 213.7 0.1 636.9 367.5 849.1 367.5 425.3 0.1 213.7"/><polygon class="cls-6" points="0.1 213.7 367.5 2.1 734.9 213.7 367.5 425.3 0.1 213.7"/><path d="M556.6,111v72.1L367.5,74,63.9,250V601L367.4,776.7,672,600.6V177.4Zm0.7,424.2L367,645,176.6,535.7V315L367.5,205.7,557.3,315V535.2Z"/><g class="cls-7"><path class="cls-8" d="M149.8,361.3V463.2c0,8.9.3,18.5,0.7,24.4H132.1l-0.8-13.7h-0.3c-4.9,9.6-14.8,15.6-26.7,15.6-19.5,0-34.9-17.6-34.9-44.3-0.2-29,16.9-46.2,36.6-46.2,11.2,0,19.3,5,23,11.4h0.3V361.3h20.6Zm-20.6,75.7a32.7,32.7,0,0,0-.5-5.7c-1.8-8.5-8.4-15.5-17.8-15.5-13.3,0-20.6,12.4-20.6,28.6s7.4,27.4,20.5,27.4c8.4,0,15.8-6,17.8-15.5a25.8,25.8,0,0,0,.7-6.4v-13Z"/><path class="cls-8" d="M188.7,450.4c0.5,15.6,12.1,22.4,25.2,22.4,9.6,0,16.4-1.4,22.6-3.9l3,15.1a72.8,72.8,0,0,1-28.5,5.5c-26.5,0-42.1-17.4-42.1-43.9,0-24,13.8-46.6,39.9-46.6s35.2,23.1,35.2,42.1a56.9,56.9,0,0,1-.7,9.2H188.7Zm35.9-15.3c0.2-8-3.2-21.2-16.9-21.2s-18.1,12.3-19,21.2h35.9Z"/><path class="cls-8" d="M275.5,401l13.3,43.9c2.3,7.6,4,14.6,5.5,21.7h0.5c1.5-7.1,3.4-13.9,5.5-21.7L313.2,401H335l-31.2,86.6H283.5L253.1,401h22.3Z"/><path class="cls-8" d="M377.1,380.9v20.6h21.1v11.9H377.1v46.4c0,10.7,2.9,16.7,11.1,16.7a26.1,26.1,0,0,0,8.6-1.1l0.7,11.7a33.8,33.8,0,0,1-13.1,2.3c-6.9,0-12.4-2.5-15.9-6.8s-5.7-12.3-5.7-22.4V413.4H350.1V401.5h12.6V385.7Z"/><path class="cls-8" d="M483.9,443.8c0,31.8-20.8,45.7-40.4,45.7-22,0-38.9-17.1-38.9-44.3,0-28.8,17.8-45.7,40.3-45.7S483.9,417.5,483.9,443.8Zm-64.4.9c0,18.8,10.2,33.1,24.7,33.1s24.7-14,24.7-33.4c0-14.6-6.9-33.1-24.3-33.1S419.5,428.3,419.5,444.7Z"/><path class="cls-8" d="M570.6,443.8c0,31.8-20.8,45.7-40.4,45.7-22,0-38.9-17.1-38.9-44.3,0-28.8,17.8-45.7,40.2-45.7S570.6,417.5,570.6,443.8Zm-64.4.9c0,18.8,10.2,33.1,24.7,33.1s24.7-14,24.7-33.4c0-14.6-6.9-33.1-24.3-33.1S506.2,428.3,506.2,444.7Z"/><path class="cls-8" d="M583.9,361.3h14.8V487.5H583.9V361.3Z"/><path class="cls-8" d="M616.1,471.5a37.1,37.1,0,0,0,19.5,6.2c10.7,0,15.8-5.7,15.8-12.8s-4.2-11.6-15.1-15.8c-14.6-5.5-21.5-14-21.5-24.4,0-13.9,10.6-25.2,28-25.2a38.8,38.8,0,0,1,20,5.3L659,416.3a30.3,30.3,0,0,0-16.6-5c-8.7,0-13.6,5.3-13.6,11.7s4.9,10.3,15.4,14.6c14.1,5.7,21.3,13.2,21.3,26,0,15.1-11.1,26-30.4,26-8.9,0-17.1-2.5-22.8-6Z"/></g><g class="cls-9"><g class="cls-10"><path class="cls-8" d="M405,786.9l-1.8,1.1-1.4,6.7c-0.3,1.6-.6,3-0.8,4.2h-0.1a34,34,0,0,0-.9-3.3l-1.6-5-1.6.9-1.6,6.9c-0.3,1.5-.7,2.9-0.9,4.2h-0.1c-0.2-1.1-.5-2.2-0.8-3.3l-1.4-5.2-1.9,1.1,3.1,9.9,1.7-1,1.6-6.5c0.4-1.5.7-2.9,0.9-4.4h0a28.3,28.3,0,0,0,.9,3.3l1.6,4.7,1.7-1,3.3-13.6"/><path class="cls-8" d="M420.8,777.8l-1.8,1.1-1.4,6.7c-0.3,1.6-.6,3-0.8,4.2h-0.1c-0.2-1.1-.5-2.1-0.9-3.3l-1.6-4.9-1.6.9-1.6,6.9c-0.3,1.5-.7,2.9-0.9,4.3H410c-0.2-1.1-.5-2.2-0.8-3.3l-1.4-5.2-1.9,1.1,3.1,9.9,1.7-1,1.6-6.5c0.4-1.5.7-2.9,0.9-4.4h0a29.7,29.7,0,0,0,.9,3.3l1.6,4.7,1.7-1,3.3-13.6"/><path class="cls-8" d="M436.5,768.7l-1.8,1.1-1.4,6.7c-0.3,1.6-.6,3-0.8,4.3h-0.1a34,34,0,0,0-.9-3.3l-1.6-5-1.6.9-1.6,6.9c-0.3,1.5-.7,2.9-0.9,4.3h-0.1c-0.2-1.1-.5-2.2-0.8-3.3l-1.4-5.2-1.9,1.1,3.1,9.9,1.7-1,1.6-6.5c0.4-1.5.7-2.9,0.9-4.4h0a29.8,29.8,0,0,0,.9,3.3l1.6,4.7,1.7-1,3.3-13.6"/><path class="cls-8" d="M438.4,776.5a2.7,2.7,0,0,0-1.3,2.3c0,0.9.5,1.2,1.2,0.8h0a2.7,2.7,0,0,0,1.3-2.3c0-.9-0.5-1.2-1.2-0.8"/><path class="cls-8" d="M446.5,762.7a6.9,6.9,0,0,0-2.8,4.2h-0.1v-2.3l-1.6.9c0.1,1.1.1,2.2,0.1,3.6v8.1l1.8-1.1V770a7.6,7.6,0,0,1,.1-1,5.8,5.8,0,0,1,2.5-4.2l0.6-.3v-2l-0.5.2"/><path class="cls-8" d="M451.9,759.5a6.8,6.8,0,0,0-3.5,5.5c0,1.4.9,2.1,2.7,1.8s1.9,0,1.9,1.1a3.5,3.5,0,0,1-2,2.9,4,4,0,0,1-2.4.6l-0.5,1.9a5.1,5.1,0,0,0,2.9-.8,7,7,0,0,0,3.8-5.7c0-1.7-.9-2.2-2.7-2s-1.9.1-1.9-.9a3.2,3.2,0,0,1,1.7-2.6,3.3,3.3,0,0,1,2.1-.5l0.5-1.8a4.5,4.5,0,0,0-2.5.7"/><path class="cls-8" d="M459.4,752.7l-1.8,1.7v2.2l-1.6.9V759l1.6-.9v6.4c0,1.4.2,2.3,0.7,2.6a1.8,1.8,0,0,0,2-.2,7.5,7.5,0,0,0,1.6-1.3v-1.6l-1.1.8c-1,.6-1.4,0-1.4-1.5v-6.3l2.7-1.5v-1.6l-2.7,1.5v-2.8"/><path class="cls-8" d="M472.7,747.8l-1.9,1.1v7.2a4.7,4.7,0,0,1-.2,1.2,6,6,0,0,1-2.4,3.3c-1.7,1-2.3-.2-2.3-2.4v-6.5l-1.9,1.1v6.9c0,4.1,1.9,4,3.5,3.1a8.4,8.4,0,0,0,3.4-4.1h0v1.8l1.6-1c-0.1-.9-0.1-1.9-0.1-3.1v-8.5"/><path class="cls-8" d="M480,753.9c-2,1.2-3-.2-3-2.6s1.1-5.2,3-6.3,2.4-.3,2.7.9a3.6,3.6,0,0,1,.1.8v2a4.9,4.9,0,0,1-.1,1,6.2,6.2,0,0,1-2.7,4.1m4.6-18.4-1.9,1.1v7h0c-0.5-.7-1.5-0.9-3.1,0s-4.6,5.1-4.6,8.9,1.9,4.9,4.4,3.4a8.2,8.2,0,0,0,3.5-4.3h0v2l1.7-1c-0.1-.8-0.1-1.9-0.1-3V735.5"/><path class="cls-8" d="M489.5,738.1l-1.9,1.1v11.7l1.9-1.1V738.1m-0.9-4.1a2.5,2.5,0,0,0-1.2,2,0.7,0.7,0,0,0,1.1.7,2.4,2.4,0,0,0,1.2-2c0-.8-0.4-1.1-1.1-0.7"/><path class="cls-8" d="M496.9,744.3c-1.8,1-3.1-.1-3.1-2.7s0.9-5.1,3.1-6.4,3.1,0.8,3.1,2.7-1.3,5.3-3.1,6.3m0.1-10.7a10.8,10.8,0,0,0-5,9.1c0,3.7,2.1,4.8,4.9,3.2a10.8,10.8,0,0,0,5.1-9.2c0-3.6-2-4.9-4.9-3.2"/><path class="cls-8" d="M504.5,738.4a2.7,2.7,0,0,0-1.3,2.3c0,0.9.5,1.2,1.2,0.8h0a2.7,2.7,0,0,0,1.3-2.3c0-.9-0.5-1.2-1.2-0.8"/><path class="cls-8" d="M512.8,724.4a11.2,11.2,0,0,0-5.5,9.4c0,3.6,2,4.9,5.1,3.1a11.9,11.9,0,0,0,2.9-2.4l-0.3-1.4a9.5,9.5,0,0,1-2.3,1.9c-2,1.2-3.5.4-3.5-2.3a7.6,7.6,0,0,1,3.6-6.5,3.9,3.9,0,0,1,2.2-.7l0.4-1.9a6,6,0,0,0-2.6.9"/><path class="cls-8" d="M521.6,730c-1.8,1-3.1-.1-3.1-2.7s0.9-5.1,3.1-6.4,3.1,0.8,3.1,2.7-1.3,5.3-3.1,6.3m0.1-10.7a10.8,10.8,0,0,0-5,9.1c0,3.7,2.1,4.8,4.9,3.2a10.8,10.8,0,0,0,5.1-9.2c0-3.6-2-4.9-4.9-3.2"/><path class="cls-8" d="M540.1,708.6a6.7,6.7,0,0,0-2.3,2.1,9.9,9.9,0,0,0-1.1,2.2h0c-0.4-1.1-1.5-1.5-2.9-.7a7.7,7.7,0,0,0-3.2,4h-0.1v-1.8l-1.6.9c0.1,0.9.1,1.9,0.1,3.1v8.5l1.8-1v-7.1a4.3,4.3,0,0,1,.1-1.1,5.7,5.7,0,0,1,2.3-3.5c1.4-.8,2.1.1,2.1,2v7l1.8-1v-7.2a5.1,5.1,0,0,1,.1-1.1,5.4,5.4,0,0,1,2.2-3.2c1.5-.9,2.2.1,2.2,2.3v6.6l1.8-1v-6.9c0-4.1-2-3.9-3.4-3.2"/></g></g></svg>