<?xml version="1.0" encoding="utf-8"?>
<!-- Generator: Adobe Illustrator 18.1.1, SVG Export Plug-In . SVG Version: 6.00 Build 0)  -->
<!DOCTYPE svg PUBLIC "-//W3C//DTD SVG 1.1//EN" "http://www.w3.org/Graphics/SVG/1.1/DTD/svg11.dtd">
<svg version="1.1" id="Layer_1" xmlns="http://www.w3.org/2000/svg" xmlns:xlink="http://www.w3.org/1999/xlink" x="0px" y="0px"
	 viewBox="0 0 360 360" enable-background="new 0 0 360 360" xml:space="preserve">
<g id="Background">
	<polygon points="21.2,89.5 21.2,269.5 177.2,359.5 333,269.5 333,89.5 177.2,-0.5 	"/>
</g>
<g id="Cut_Path" display="none">
	<polygon display="inline" fill="none" stroke="#EA0A8A" stroke-miterlimit="10" points="336.2,270.5 180,360.8 23.8,270.5 23.8,90 
		180,-0.2 336.2,90 	"/>
</g>
<g>
	<g>
		<path fill="#FFFFFF" d="M132.8,246.4l-0.3-5.4c0-0.1-0.2-2.7,0-5.3c0.1-1.8,0.5-3.3,0.7-4.2c0,0,0,0,0-0.1c-0.1-0.3-0.3-0.6-0.4-1
			c-0.1-0.3-0.1-0.5-0.2-0.7c0-0.1-0.1-0.3-0.1-0.4c0,0,0,0,0-0.1c-0.3-0.4-1.1-1.4-0.9-2.7c0.1-0.7,0.4-1.2,0.7-1.5
			c-1-0.4-2-1.5-2.1-4.1c0-0.1,0-0.1,0-0.1h0c0,0,0,0,0-0.1c-1-1.3-0.7-2.4-0.4-3c0.5-0.9,1.4-1.5,2.5-1.5c0.8,0,1.5,0.3,2.4,0.7
			c0.1-1.1,0.1-2.9,0-3.8c-0.1-0.7-0.5-1.3-0.8-1.8c0-0.1-0.1-0.1-0.1-0.2c-1.1-0.4-1.8-1.4-1.8-2.5c0-0.4,0.1-0.8,0.3-1.2
			c-0.9,0.3-1.9,0.1-2.7-0.5c-1.1-0.9-1.4-2.3-1.5-3.5c-0.9-0.1-1.7-0.5-2.2-1.3c-0.3-0.4-0.5-1-0.9-1.6c-0.2-0.3-0.3-0.7-0.5-1
			c0,0,0-0.1-0.1-0.1c-0.8-0.9-0.9-1.7-0.9-2.8c0-0.2-0.1-0.4-0.3-0.8c-0.2-0.4-0.5-1-0.6-1.7c-2.2-0.2-3.6-0.4-4.5-0.7
			c-2.5-0.8-4-1.6-5-2.6c-0.2-0.2-0.5-0.5-0.8-0.8c-0.2-0.2-0.5-0.4-0.7-0.6H96.6v38.9H60.8v-38.9H45.2v-35.8h67v14.4l22.2-22
			l39,39.1c1.2-8.5,5-15.7,11.3-21.6c7.8-7.3,17.7-11,29.6-11c5.1,0,10.4,0.7,15.7,2.1c5.4,1.4,10.1,3.3,13.8,5.7l1.9,1.2l-15,28.5
			l-2-0.7c-3.5-1.2-7.5-1.8-11.7-1.8c-4.9,0-7.4,1-7.4,2.9c0,0.4,0,1.1,1.4,1.8c1.5,0.8,3.7,1.2,6.7,1.2c4.2,0,7.8-0.7,10.7-2.2
			l2.2-1.1l15,30.7l-1.9,1.2c-3.9,2.3-8.5,4.2-13.9,5.5c-5.4,1.4-10.6,2-15.5,2c-12.5,0-22.6-3.7-30.1-11c-4.2-4.1-7.3-8.9-9.2-14.1
			L132.8,246.4L132.8,246.4z M137.6,229.2c0.3,0.4,0.6,1,0.6,1.9c0,0.5-0.1,0.9-0.3,1.6c-0.1,0.6-0.3,1.3-0.4,2.2l39.4-39.4
			l-42.5-42.7L109,177.9l2.4,2.3c0.2,0.2,0.3,0.3,0.5,0.4c0.2,0.2,0.4,0.3,0.5,0.5c0.7,0.7,1.9,2.9,2.3,4.4c0.2,0.2,0.5,0.5,0.7,0.7
			c0.4,0.4,0.8,0.7,1.2,1.1c0,0,0.5,0.6,2.8,1.3c0.3,0.1,1.3,0.3,4.4,0.6c1.6,0.1,3.4,1.2,3.5,4c0,0.1,0.1,0.2,0.1,0.3
			c0.3,0.7,0.9,1.7,0.9,3.1c0,0,0,0,0,0c0.1,0.2,0.3,0.4,0.4,0.7c0.2,0.4,0.4,0.8,0.6,1.1c0,0.1,0.1,0.1,0.1,0.2
			c0.2,0,0.3,0.1,0.5,0.1c1.1,0.4,1.9,1.1,2.4,2h0c2.4,0,4.4,3.9,4.5,3.9c0.5,1,1.2,2.4,0.9,3.7c0,0.1,0.1,0.1,0.1,0.2
			c0.4,0.7,1.2,1.9,1.5,3.6c0,0.1,0.9,6.9-1.4,8.8c-0.3,0.2-0.6,0.4-0.9,0.5c0.7,1.1,0.7,2.3,0.7,3.1c0,0.2,0,0.3,0,0.5
			c0,0.9-0.3,1.6-0.6,2.1c0.1,0.2,0.1,0.4,0.2,0.6c0.1,0.2,0.1,0.3,0.1,0.5C137.4,228.6,137.5,228.8,137.6,229.2L137.6,229.2z
			 M177.7,195l0.9,4c1.3,6,4.4,11.3,9,15.8c6.5,6.4,15.5,9.6,26.7,9.6c4.5,0,9.3-0.6,14.3-1.9c4-1,7.6-2.3,10.7-3.9l-10.9-22.3
			c-3.1,1.2-6.7,1.7-10.6,1.7c-3.8,0-6.8-0.6-9-1.7c-3.4-1.8-4.1-4.3-4.1-6.2c0-3.6,2.1-7.8,12.3-7.8c4,0,7.8,0.5,11.3,1.5
			l10.9-20.8c-2.9-1.6-6.4-2.9-10.4-3.9c-5-1.3-9.9-1.9-14.5-1.9c-10.6,0-19.4,3.3-26.3,9.7c-6.7,6.3-10,14-10.2,23.6L177.7,195
			L177.7,195z M65.7,223.3h26.1v-38.9h15.6v-26.1H50.1v26.1h15.6V223.3L65.7,223.3z"/>
		<path fill="#FFFFFF" d="M275,229.3c-10.6,0-19.7-3.8-27.1-11.2c-7.4-7.4-11.1-16.6-11.1-27.3c0-10.7,3.7-19.8,11.1-27.2
			c7.4-7.4,16.5-11.2,27.1-11.2c10.6,0,19.8,3.8,27.2,11.2c7.4,7.4,11.1,16.6,11.1,27.2c0,10.7-3.7,19.9-11.1,27.3
			C294.8,225.5,285.7,229.3,275,229.3L275,229.3z M275,157.2c-9.4,0-17.1,3.2-23.7,9.7c-6.5,6.6-9.7,14.3-9.7,23.8
			c0,9.5,3.2,17.3,9.7,23.9c6.5,6.6,14.3,9.8,23.6,9.8c9.4,0,17.2-3.2,23.7-9.8c6.5-6.6,9.7-14.4,9.7-23.9c0-9.5-3.2-17.2-9.7-23.8
			C292.2,160.4,284.5,157.2,275,157.2L275,157.2z M275,198.6c-2.7,0-4.9-1-6.7-2.9c-1.7-1.8-2.6-4.2-2.6-6.9c0-2.7,0.9-5.1,2.6-6.9
			c1.8-1.9,4-2.8,6.7-2.8c2.7,0,5,1,6.8,2.8c1.7,1.9,2.6,4.2,2.6,6.9c0,2.7-0.9,5.1-2.6,6.9C280,197.7,277.7,198.6,275,198.6
			L275,198.6z M275,184c-1.3,0-2.3,0.4-3.2,1.3c-0.9,0.9-1.3,2.1-1.3,3.6c0,1.5,0.4,2.6,1.3,3.6c0.8,0.9,1.9,1.3,3.2,1.3
			c1.3,0,2.4-0.4,3.2-1.3c0.9-0.9,1.3-2.1,1.3-3.6c0-1.5-0.4-2.6-1.3-3.6C277.4,184.4,276.4,184,275,184L275,184z"/>
	</g>
	<path fill="#FFFFFF" d="M281,157.7c-15.3-41.3-55.1-70.8-101.7-70.8c-46.9,0-86.8,29.8-102,71.4h-8.4C84.4,112.2,128,79,179.3,79
		c52.2,0,96.4,34.4,111.1,81.7C285.5,156.3,281,157.7,281,157.7z"/>
	<g>
		<polygon fill="#ED2B2F" points="153.1,128.9 156,134.9 162.6,135.9 157.8,140.6 159,147.2 153.1,144.1 147.1,147.2 148.3,140.6 
			143.5,135.9 150.1,134.9 		"/>
		<polygon fill="#ED2B2F" points="179.3,122.9 182.2,128.9 188.9,129.8 184.1,134.5 185.2,141.1 179.3,138 173.3,141.1 174.5,134.5 
			169.7,129.8 176.3,128.9 		"/>
		<polygon fill="#ED2B2F" points="205.5,128.9 208.4,134.9 215.1,135.9 210.3,140.6 211.4,147.2 205.5,144.1 199.6,147.2 
			200.7,140.6 195.9,135.9 202.5,134.9 		"/>
	</g>
	<g>
		<path fill="#FFFFFF" d="M97,135.1l6.1-6.5c2.4-2.5,4.9-3.8,7.6-4c2.7-0.2,5.2,0.8,7.4,2.8c2.3,2.1,3.4,4.6,3.3,7.3
			c-0.1,2.7-1.4,5.4-4,8.2l-5.7,6.1L97,135.1z M103.1,134l9.3,8.8l2.2-2.4c1.5-1.6,2.1-3.1,2.1-4.8c-0.1-1.6-0.8-3.1-2.2-4.4
			c-1.4-1.4-3-2-4.6-2c-1.6,0.1-3.2,0.9-4.6,2.4L103.1,134z"/>
		<path fill="#FFFFFF" d="M123.3,111.7l11.3,16.7l-4.2,2.8l-11.3-16.7L123.3,111.7z"/>
		<path fill="#FFFFFF" d="M145.5,102.1l1.5,3.6c-2.9-0.1-5.1,0.2-6.6,0.8c-0.8,0.4-1.4,0.8-1.8,1.3c-0.4,0.5-0.5,1-0.3,1.4
			c0.2,0.4,0.5,0.6,1,0.8c0.5,0.2,1.5,0.2,3.1,0.1c1.6-0.1,2.9-0.1,3.9,0c1,0.1,2,0.4,2.9,0.9c0.9,0.5,1.7,1.4,2.2,2.6
			c0.7,1.7,0.7,3.4-0.2,4.9c-0.9,1.6-2.4,2.8-4.5,3.7c-2.3,1-4.8,1.3-7.5,1l-1.7-4c1.6,0.3,3,0.4,4.1,0.4c1.1,0,2.2-0.3,3.3-0.7
			c1.8-0.8,2.5-1.7,2-2.9c-0.2-0.4-0.5-0.7-1-0.9c-0.5-0.2-1.6-0.2-3.2-0.1c-1.6,0.1-2.9,0.1-3.9,0c-1-0.1-1.9-0.4-2.9-0.9
			c-0.9-0.5-1.6-1.4-2.2-2.7c-0.7-1.6-0.6-3.2,0.3-4.7c0.9-1.5,2.4-2.7,4.5-3.7C140.5,102.5,142.8,102.1,145.5,102.1z"/>
		<path fill="#FFFFFF" d="M173.6,95.2l0.5,3.7l-7.2,1.1l2.4,16.3l-5,0.7l-2.4-16.3l-7.2,1l-0.5-3.7L173.6,95.2z"/>
		<path fill="#FFFFFF" d="M183.8,95.3l8.9,1.1c1.9,0.2,3.4,1,4.5,2.3c1.1,1.3,1.5,2.7,1.3,4.3c-0.3,2.2-1.6,3.7-4,4.5
			c0.9,0.6,1.8,1.9,2.4,4c0.7,2.1,1.3,4.1,1.9,6l-5.5-0.7c-0.2-0.7-0.7-2-1.2-4c-0.6-2-1.1-3.2-1.6-3.8c-0.5-0.6-1.1-0.9-1.8-1
			l-1.4-0.2l-1,8.1l-5-0.6L183.8,95.3z M188.3,99.6l-0.6,4.6l2.6,0.3c0.8,0.1,1.5,0,2.1-0.3c0.5-0.3,0.9-0.9,0.9-1.6
			c0.2-1.5-0.7-2.4-2.6-2.6L188.3,99.6z"/>
		<path fill="#FFFFFF" d="M214.3,101.7l-6.5,19.1l-4.8-1.6l6.5-19.1L214.3,101.7z"/>
		<path fill="#FFFFFF" d="M233.3,127.5l-2.3,3.8c-2.9-0.2-5.5-1-7.8-2.4c-3.1-1.9-5-4.2-5.8-7c-0.8-2.8-0.4-5.4,1.1-7.9
			c1.5-2.5,3.7-4,6.7-4.6c3-0.6,6,0.1,9.1,2c2.5,1.5,4.2,3.3,5.3,5.3l-2.3,3.8c-1.4-2.4-3-4.2-4.9-5.4c-1.8-1.1-3.6-1.5-5.4-1.3
			c-1.8,0.3-3.1,1.2-4,2.7c-0.9,1.5-1.1,3.1-0.6,4.8c0.5,1.7,1.7,3.1,3.5,4.2c0.9,0.5,1.8,0.9,2.8,1.2
			C229.7,127.1,231.2,127.3,233.3,127.5z"/>
		<path fill="#FFFFFF" d="M261.6,136.3l-2.7,2.5l-4.9-5.4l-12.2,11.1l-3.4-3.7l12.2-11.1l-4.9-5.4l2.7-2.5L261.6,136.3z"/>
	</g>
</g>
</svg>
