<?xml version="1.0" encoding="UTF-8" standalone="no"?>
<!-- Generator: Adobe Illustrator 18.1.0, SVG Export Plug-In . SVG Version: 6.00 Build 0)  -->

<svg
   xmlns:dc="http://purl.org/dc/elements/1.1/"
   xmlns:cc="http://creativecommons.org/ns#"
   xmlns:rdf="http://www.w3.org/1999/02/22-rdf-syntax-ns#"
   xmlns:svg="http://www.w3.org/2000/svg"
   xmlns="http://www.w3.org/2000/svg"
   xmlns:sodipodi="http://sodipodi.sourceforge.net/DTD/sodipodi-0.dtd"
   xmlns:inkscape="http://www.inkscape.org/namespaces/inkscape"
   version="1.1"
   id="Layer_1"
   x="0px"
   y="0px"
   viewBox="0 0 181 209"
   enable-background="new 0 0 320 240"
   xml:space="preserve"
   inkscape:version="0.91 r13725"
   sodipodi:docname="doop.svg"
   width="181"
   height="209"
   inkscape:export-filename="/home/mc/Papers/Projects/Forks/hexbin/hexagons/doop.png"
   inkscape:export-xdpi="90"
   inkscape:export-ydpi="90"><metadata
     id="metadata65"><rdf:RDF><cc:Work
         rdf:about=""><dc:format>image/svg+xml</dc:format><dc:type
           rdf:resource="http://purl.org/dc/dcmitype/StillImage" /><dc:title /></cc:Work></rdf:RDF></metadata><defs
     id="defs63" /><sodipodi:namedview
     pagecolor="#ffffff"
     bordercolor="#666666"
     borderopacity="1"
     objecttolerance="10"
     gridtolerance="10"
     guidetolerance="10"
     inkscape:pageopacity="0"
     inkscape:pageshadow="2"
     inkscape:window-width="1920"
     inkscape:window-height="1030"
     id="namedview61"
     showgrid="false"
     fit-margin-top="0"
     fit-margin-left="0"
     fit-margin-right="0"
     fit-margin-bottom="0"
     inkscape:zoom="4.0287081"
     inkscape:cx="90.5"
     inkscape:cy="104.5"
     inkscape:window-x="0"
     inkscape:window-y="24"
     inkscape:window-maximized="1"
     inkscape:current-layer="Layer_1" /><polygon
     points="251,171.7 160.5,224 70,171.7 70,67.2 160.5,15 251,67.2 "
     id="polygon3"
     style="fill:#0080fe;fill-opacity:1"
     transform="translate(-70,-15)" /><ellipse
     ry="31.944033"
     rx="61.0798"
     cy="104.5"
     cx="90.5"
     style="display:inline;opacity:1;fill:none;fill-opacity:1;fill-rule:evenodd;stroke:#800000;stroke-width:1.232517;stroke-linejoin:miter;stroke-miterlimit:4;stroke-dasharray:none;stroke-dashoffset:0;stroke-opacity:1"
     id="path2762" /><ellipse
     ry="26.062883"
     rx="92.833504"
     cy="19.536736"
     cx="136.85326"
     style="display:inline;opacity:1;fill:none;fill-opacity:1;fill-rule:evenodd;stroke:#800000;stroke-width:1.232517;stroke-linejoin:miter;stroke-miterlimit:4;stroke-dasharray:none;stroke-dashoffset:0;stroke-opacity:1"
     id="path1878"
     transform="matrix(0.75491532,0.65582228,-0.65582228,0.75491532,0,0)" /><ellipse
     ry="27.800426"
     rx="72.231468"
     cy="136.51837"
     cx="21.753931"
     style="display:inline;opacity:1;fill:none;fill-opacity:1;fill-rule:evenodd;stroke:#800000;stroke-width:1.232517;stroke-linejoin:miter;stroke-miterlimit:4;stroke-dasharray:none;stroke-dashoffset:0;stroke-opacity:1"
     id="path1882"
     transform="matrix(0.84952779,-0.52754387,0.52754387,0.84952779,0,0)" /><circle
     r="2.1279199"
     cy="104.5"
     cx="90.5"
     style="opacity:1;fill:#e6d505;fill-opacity:1;fill-rule:evenodd;stroke:none;stroke-width:4;stroke-linejoin:miter;stroke-miterlimit:4;stroke-dasharray:none;stroke-dashoffset:0;stroke-opacity:1"
     id="path1888" /><circle
     r="2.1279199"
     cy="-104.5"
     cx="-90.5"
     id="path2778"
     style="opacity:1;fill:#e6d505;fill-opacity:1;fill-rule:evenodd;stroke:none;stroke-width:4;stroke-linejoin:miter;stroke-miterlimit:4;stroke-dasharray:none;stroke-dashoffset:0;stroke-opacity:1"
     inkscape:transform-center-x="55.456241"
     inkscape:transform-center-y="42.959242"
     transform="scale(-1,-1)" /><path
     inkscape:connector-curvature="0"
     style="display:inline;fill:#e6d505;fill-opacity:1;fill-rule:evenodd;stroke:none;stroke-width:2;stroke-linejoin:miter;stroke-miterlimit:4;stroke-dashoffset:0;stroke-opacity:1"
     d="m 55.768049,72.81083 0,31.68917 c 0,3.26988 -2.671241,5.92187 -5.941115,5.92187 -3.269874,-2e-5 -5.921853,-2.65199 -5.921853,-5.92187 -1.2e-5,-3.26987 2.651979,-5.921854 5.921853,-5.921854 l 4.930068,0 0,-6.932912 -4.930068,0 c -0.01605,-6e-5 -0.0321,0 -0.04815,0 -7.09684,0 -12.854778,5.757926 -12.854766,12.854766 0,7.09684 5.757926,12.85477 12.854766,12.85477 7.09684,0 12.864396,-5.75793 12.864396,-12.85477 l 0,-31.68917 -6.875139,0 z m 21.126113,18.834404 c -7.09684,0 -12.854765,5.757926 -12.854765,12.854766 0,7.09684 5.757925,12.85477 12.854765,12.85477 7.09684,0 12.864396,-5.75793 12.864396,-12.85477 0,-7.09684 -5.767556,-12.854766 -12.864396,-12.854766 z m 27.211668,0 c -7.096841,0 -12.864398,5.757926 -12.864398,12.854766 0,7.09684 5.767557,12.85478 12.864398,12.85477 7.09684,0 12.85476,-5.75793 12.85476,-12.85477 0,-7.09684 -5.75792,-12.854766 -12.85476,-12.854766 z m 27.11537,0 c -7.09684,0 -12.8644,5.757926 -12.8644,12.854766 l 0,31.68917 6.87514,0 0,-31.68917 c 0,-3.26987 2.67124,-5.921854 5.94112,-5.921854 3.26987,0 5.92186,2.651984 5.92186,5.921854 0,3.26988 -2.65199,5.92187 -5.92186,5.92187 l -4.93007,0 0,6.9329 4.93007,0 c 0.0161,6e-5 0.0321,0 0.0482,0 7.09684,0 12.85478,-5.75793 12.85478,-12.85477 0,-7.09684 -5.75794,-12.854766 -12.85478,-12.854766 z m -54.278896,6.932912 c 3.269887,-1.2e-5 5.921866,2.651984 5.921866,5.921854 0,3.26988 -2.651979,5.92187 -5.921866,5.92187 -3.269874,-2e-5 -5.921853,-2.65199 -5.921853,-5.92187 0,-3.26987 2.651979,-5.921854 5.921853,-5.921854 z m 27.115386,0 c 3.26987,0 5.92185,2.651984 5.92185,5.921854 1e-5,3.26988 -2.65198,5.92187 -5.92185,5.92187 -3.26988,0 -5.921869,-2.65199 -5.921869,-5.92187 0,-3.26987 2.651989,-5.921854 5.921869,-5.921854 z"
     id="path2801" /></svg>