<?xml version="1.0" encoding="UTF-8" standalone="no"?>
<svg
   xmlns:dc="http://purl.org/dc/elements/1.1/"
   xmlns:cc="http://creativecommons.org/ns#"
   xmlns:rdf="http://www.w3.org/1999/02/22-rdf-syntax-ns#"
   xmlns:svg="http://www.w3.org/2000/svg"
   xmlns="http://www.w3.org/2000/svg"
   xmlns:sodipodi="http://sodipodi.sourceforge.net/DTD/sodipodi-0.dtd"
   xmlns:inkscape="http://www.inkscape.org/namespaces/inkscape"
   width="198.425"
   height="198.425"
   viewBox="0 0 198.425 198.425"
   version="1.1"
   id="svg6"
   sodipodi:docname="dotnetfoundation-hex.svg"
   inkscape:version="0.92.3 (2405546, 2018-03-11)">
  <metadata
     id="metadata12">
    <rdf:RDF>
      <cc:Work
         rdf:about="">
        <dc:format>image/svg+xml</dc:format>
        <dc:type
           rdf:resource="http://purl.org/dc/dcmitype/StillImage" />
      </cc:Work>
    </rdf:RDF>
  </metadata>
  <defs
     id="defs10">
    <clipPath
       clipPathUnits="userSpaceOnUse"
       id="clipPath4501">
      <path
         d="M 0,216 H 216 V 0 H 0 Z"
         id="path4499"
         inkscape:connector-curvature="0" />
    </clipPath>
  </defs>
  <sodipodi:namedview
     pagecolor="#ffffff"
     bordercolor="#666666"
     borderopacity="1"
     objecttolerance="10"
     gridtolerance="10"
     guidetolerance="10"
     inkscape:pageopacity="0"
     inkscape:pageshadow="2"
     inkscape:window-width="1920"
     inkscape:window-height="1017"
     id="namedview8"
     showgrid="false"
     inkscape:zoom="1.6820179"
     inkscape:cx="-158.2263"
     inkscape:cy="106.3118"
     inkscape:window-x="1912"
     inkscape:window-y="-8"
     inkscape:window-maximized="1"
     inkscape:current-layer="svg6" />
  <path
     fill="#FFF"
     d="M39.425 133.768v-69.11l60-34.561 60 34.561v69.11l-60 34.56z"
     id="path2" />
  <path
     fill="#050507"
     d="M98.925 32.983l57.5 33.119v66.221l-57.5 33.119-57.5-33.119V66.102l57.5-33.119zm0-5.771l-62.5 36v72.001l62.5 36 62.5-36V63.212l-62.5-36z"
     id="path4" />
  <path
     style="opacity:0.756;fill:#ffffff;fill-opacity:1;stroke:none;stroke-width:0.39722076;stroke-miterlimit:4;stroke-dasharray:none;stroke-opacity:0"
     d="m 70.136757,148.84919 -28.712665,-16.52665 -0.0015,-33.105871 -0.0014,-33.105866 28.655735,-16.500385 c 15.760654,-9.075211 28.71653,-16.515441 28.790833,-16.533844 0.0743,-0.0184 13.0476,7.403972 28.82955,16.494168 l 28.69445,16.527628 v 33.114052 33.114048 l -28.6893,16.52469 c -15.77911,9.08858 -28.726136,16.52469 -28.771165,16.52469 -0.04503,0 -13.00257,-7.43699 -28.794537,-16.52666 z m 57.247963,-4.12209 c 1.09785,-0.16867 2.38399,-0.5041 2.84295,-0.74143 0.16227,-0.0839 1.02285,-0.33826 1.91239,-0.56521 2.55806,-0.65263 3.93576,-1.24388 4.64124,-1.99182 l 0.30561,-0.324 -0.0663,-1.60595 c -0.16055,-3.88723 -0.90898,-7.28757 -2.12019,-9.6327 l -0.4741,-0.91794 v -1.16022 c 0,-1.28441 -0.11842,-1.75525 -0.76366,-3.03627 -0.3024,-0.60035 -0.52374,-0.86467 -1.17562,-1.40389 -1.43937,-1.1906 -1.77716,-1.42968 -2.8424,-2.01177 -1.9446,-1.0626 -4.96041,-3.16984 -7.31835,-5.11355 l -0.802,-0.66111 0.006,-1.39346 c 0.0115,-2.47399 -0.61047,-4.02215 -2.02254,-5.03436 -0.31473,-0.2256 -0.5813,-0.46823 -0.59237,-0.53916 -0.0111,-0.0709 -0.29401,-0.60191 -0.62875,-1.17995 -0.88092,-1.52122 -1.70165,-3.27429 -1.94641,-4.15755 -0.11704,-0.42235 -0.37566,-1.12042 -0.57472,-1.55125 l -0.36193,-0.78334 0.7096,-0.74765 c 1.82777,-1.925792 3.75429,-5.04555 4.60236,-7.452945 0.22075,-0.626641 0.32643,-0.805361 0.44852,-0.758511 0.49269,0.189062 1.38555,0.174498 2.21871,-0.03619 l 0.87491,-0.221245 0.32089,0.270007 c 0.17648,0.148505 0.44766,0.466961 0.60261,0.70768 0.15496,0.240719 0.40664,0.552327 0.55929,0.692462 0.15265,0.140136 0.27755,0.320465 0.27755,0.400733 0,0.32484 0.59657,1.332467 1.07915,1.822717 0.64435,0.654594 1.38806,1.035586 2.33197,1.194629 l 0.73488,0.123824 0.21289,0.555543 c 0.11708,0.305548 0.25488,0.54684 0.30622,0.536205 0.10877,-0.02253 0.27056,0.205857 0.27289,0.385226 0.003,0.255375 -0.33806,0.439594 -1.62995,0.879573 -1.48442,0.505554 -2.23572,0.963162 -2.72558,1.660142 -0.29357,0.41771 -0.31972,0.52575 -0.31972,1.32116 0,0.78111 0.0313,0.9169 0.31861,1.3816 0.87171,1.40994 2.70171,2.01328 4.28668,1.41327 0.33636,-0.12733 0.62106,-0.21507 0.63267,-0.19498 0.31258,0.5411 0.9463,1.34085 1.48396,1.87272 0.49845,0.4931 0.68749,0.75578 0.68749,0.95534 0,0.56735 0.44137,1.97331 0.94104,2.99763 0.62005,1.27108 1.43792,2.12453 2.2553,2.35338 0.59341,0.16615 1.57926,0.0831 2.19972,-0.18521 0.38921,-0.16834 0.48274,-0.17314 0.85727,-0.044 0.8332,0.28718 2.02963,-0.0187 2.83336,-0.7244 0.44827,-0.39358 0.895,-1.24438 0.89659,-1.70755 5.2e-4,-0.16449 0.0907,-0.42504 0.20036,-0.579 0.29251,-0.41079 0.45683,-1.12856 0.37312,-1.62984 -0.12916,-0.77348 -0.49295,-1.36077 -1.4737,-2.37915 l -0.96155,-0.99843 -0.0719,-1.24494 c -0.0861,-1.48985 -0.37254,-2.49858 -1.1239,-3.957406 -0.69367,-1.34684 -1.4181,-2.297715 -2.24647,-2.948709 -0.38266,-0.300719 -1.01712,-0.969478 -1.42577,-1.502836 -0.40496,-0.52855 -0.88883,-1.144087 -1.07527,-1.367859 -0.60966,-0.731754 -0.92345,-1.266936 -0.87114,-1.485731 0.16568,-0.692867 -0.35589,-2.306759 -0.9724,-3.008922 -0.4262,-0.485413 -1.42221,-1.010605 -2.2506,-1.186734 -0.52973,-0.112628 -4.41021,-1.621713 -4.56301,-1.774513 -0.0222,-0.02218 -0.11015,-0.308394 -0.19549,-0.636036 -0.30457,-1.169322 -1.01281,-2.225466 -1.84441,-2.750434 l -0.37494,-0.236689 0.13049,-0.878215 c 0.53708,-3.614617 0.43752,-7.733448 -0.27099,-11.210139 -0.47363,-2.324136 -1.63374,-5.549851 -2.65256,-7.375481 -2.73996,-4.909777 -6.94543,-8.436332 -12.66982,-10.624455 -2.50326,-0.956859 -5.50451,-1.680613 -7.85585,-1.894444 -0.69364,-0.06308 -1.4267,-0.147304 -1.629015,-0.187161 l -0.367843,-0.07247 -0.02976,-1.18315 -0.02976,-1.18315 0.559708,-0.511543 c 0.99972,-0.913686 1.46227,-2.097668 1.47595,-3.777958 0.01,-1.213614 -0.2036,-1.745947 -0.99825,-2.489251 -1.233834,-1.154107 -2.974035,-1.287594 -4.795963,-0.367888 -1.104333,0.557465 -2.05259,1.877527 -2.338693,3.25568 -0.22796,1.098081 0.246544,2.716769 1.006503,3.433503 l 0.365504,0.344715 -0.313894,1.019734 c -0.172641,0.560854 -0.313894,1.10049 -0.313894,1.199189 0,0.0987 -0.208037,0.328855 -0.462306,0.511456 -0.390065,0.280124 -0.640512,0.358266 -1.602744,0.50007 -3.381893,0.49839 -6.811956,1.807504 -9.542639,3.642033 -4.234525,2.844841 -7.697944,7.316911 -9.684619,12.505068 -0.431228,1.126138 -0.90175,2.80521 -0.822177,2.93396 0.0299,0.04837 0.356768,0.303749 0.726381,0.5675 l 0.672024,0.479547 -0.189259,0.441642 c -0.576388,1.345024 -0.880862,3.094784 -0.892838,5.130992 l -0.0097,1.641507 -0.52552,0.275675 c -0.289036,0.151621 -0.840172,0.524354 -1.224748,0.828295 -0.956464,0.755924 -1.120093,1.153948 -1.265669,3.078714 -0.103983,1.37483 -0.09541,1.551737 0.126098,2.602184 0.203372,0.964439 1.038413,3.599595 1.475495,4.656248 0.120032,0.290179 0.107073,0.381891 -0.118797,0.840784 -0.226521,0.460214 -0.254995,0.663994 -0.267325,1.913142 l -0.0138,1.398064 -0.423299,0.362327 c -0.232813,0.199281 -0.455531,0.362328 -0.494927,0.362328 -0.0394,0 -0.315643,0.206716 -0.613881,0.459368 -0.422713,0.358101 -0.658097,0.47525 -1.067742,0.531414 -1.494799,0.204938 -2.697807,1.3944 -3.131676,3.096414 -0.183699,0.720626 -0.546235,0.946611 -1.529009,0.953101 -2.560722,0.01691 -5.436153,2.33192 -6.940289,5.58762 -0.448838,0.9715 -0.892148,2.30183 -1.011306,3.03482 -0.04228,0.26012 -0.138102,0.59267 -0.212926,0.739 -0.199715,0.39057 -1.078017,1.17761 -1.907556,1.70933 -0.832955,0.53391 -1.224942,0.95838 -1.572708,1.70304 -0.300791,0.64408 -0.320926,1.3856 -0.0522,1.92223 0.107398,0.21446 0.224749,0.61473 0.260781,0.88948 0.173237,1.32098 1.074078,2.11413 2.559706,2.25369 0.596053,0.056 0.678127,0.0949 0.971594,0.46004 0.193796,0.24115 0.600528,0.53665 1.028621,0.7473 0.628002,0.30903 0.803377,0.34785 1.550758,0.34328 0.978557,-0.006 1.551143,-0.21852 2.443521,-0.90698 0.649431,-0.50103 1.094291,-1.31911 1.561427,-2.87139 0.239482,-0.7958 0.290628,-1.18711 0.322329,-2.46614 l 0.03768,-1.52025 0.38763,-0.39697 c 0.36045,-0.36914 0.402769,-0.38597 0.603566,-0.24012 0.476354,0.34601 1.465763,0.80233 2.084088,0.9612 1.360966,0.34968 3.080001,-10e-4 4.008182,-0.81829 1.681732,-1.48032 1.405205,-3.38137 -0.715906,-4.92166 -0.468276,-0.34004 -0.942924,-0.68683 -1.054775,-0.77063 -0.195481,-0.14645 -0.179975,-0.18344 0.400014,-0.95406 0.540605,-0.7183 0.639882,-0.8017 0.954255,-0.8017 0.192982,0 0.670482,-0.0987 1.06111,-0.21937 1.281451,-0.3958 2.170586,-1.58503 2.33137,-3.11824 0.05055,-0.482025 0.121182,-0.616767 0.553612,-1.056071 0.27262,-0.276955 0.548345,-0.601973 0.612723,-0.722265 0.101912,-0.190423 0.243201,-0.22583 1.092292,-0.273725 0.536382,-0.03025 1.069828,-0.08094 1.185436,-0.11263 0.16368,-0.04487 0.373004,0.126618 0.945882,0.774895 0.625203,0.707488 2.193805,2.196616 3.503658,3.326146 l 0.350717,0.30243 -0.624545,1.41647 c -0.3435,0.77906 -0.706482,1.67659 -0.806628,1.99451 -0.100145,0.31792 -0.244981,0.71992 -0.321857,0.89333 -0.07688,0.17342 -0.215154,0.50485 -0.307284,0.73652 -0.127742,0.32123 -0.285465,0.48341 -0.664395,0.68314 -1.643564,0.86633 -2.752441,3.05286 -2.770849,5.46367 -0.0076,0.99518 -0.0091,1.00084 -0.400764,1.47196 -0.216224,0.26012 -0.682178,0.89859 -1.035454,1.41883 -1.60948,2.37013 -4.540054,5.58178 -6.591614,7.22381 -1.435301,1.1488 -1.781239,1.59753 -1.931096,2.50495 -0.06507,0.39404 -0.118315,0.88945 -0.118315,1.10093 0,0.32786 -0.10159,0.49423 -0.689676,1.12941 -1.763449,1.90469 -3.065689,4.62944 -3.569412,7.46849 -0.373799,2.10679 0.09815,3.65123 1.30329,4.26501 0.513902,0.26174 4.202178,1.3976 6.213836,1.91364 2.740567,0.70303 2.187457,0.78398 7.295365,-1.06758 l 4.40517,-1.59681 0.578238,0.11613 c 0.318031,0.0639 0.682805,0.11612 0.81061,0.11612 0.127804,0 1.219504,-0.46882 2.426,-1.04183 l 2.193628,-1.04184 0.06723,-0.50836 c 0.03698,-0.2796 0.101448,-2.542 0.143265,-5.02757 0.09779,-5.81271 -0.08531,-10.24016 -0.530147,-12.81954 l -0.144586,-0.83837 0.307021,-0.47845 c 0.443121,-0.69054 0.908992,-1.76028 1.176527,-2.70155 0.319679,-1.12473 0.32699,-2.96103 0.01529,-3.84104 l -0.214372,-0.60524 0.392978,-1.61916 c 0.42989,-1.77125 0.709309,-2.68864 0.81837,-2.68687 0.03871,6.3e-4 0.293579,0.0689 0.56638,0.15165 3.588979,1.0891 8.507507,1.32009 13.324374,0.62574 1.96839,-0.28374 5.34953,-1.10196 6.16957,-1.49301 0.18913,-0.0902 0.36927,-0.13857 0.40032,-0.10752 0.0625,0.0625 0.90854,3.46145 1.10383,4.43473 0.0681,0.33959 0.21668,0.88347 0.33009,1.20862 0.18641,0.53444 0.19416,0.67026 0.0807,1.41473 -0.26311,1.72599 0.0822,3.39364 1.0164,4.90889 l 0.47278,0.76684 -0.37304,1.37468 c -1.17176,4.3181 -1.63994,9.08528 -1.31682,13.4084 0.0928,1.24201 0.1451,1.4974 0.4194,2.04941 0.43954,0.88451 1.56851,2.24164 3.41155,4.101 1.84256,1.85886 1.81872,1.84824 3.51583,1.56552 l 1.02783,-0.17124 1.40843,0.68874 c 1.25296,0.61271 4.89899,2.60132 5.8751,3.20439 0.43426,0.26831 0.67162,0.27703 1.99686,0.0734 z"
     id="path1116"
     inkscape:connector-curvature="0" />
  <g
     id="g987"
     transform="matrix(0.25753892,0,0,0.25753892,44.882541,47.09573)">
    <path
       id="path967"
       d="M 212,13 C 120.304,13 44.112,79.356 28.807,166.667 c 17.626,0.014 31.91,14.306 31.91,31.935 0,17.637 -14.297,31.935 -31.935,31.935 -0.036,0 -0.07,-0.003 -0.107,-0.003 C 43.655,318.238 120.025,385 212,385 314.725,385 398,301.725 398,199 398,96.275 314.725,13 212,13"
       inkscape:connector-curvature="0"
       style="fill:#68217a" />
    <path
       id="path969"
       d="M 152.052,220.588 H 132.914 L 98.218,167.693 c -2.035,-3.092 -3.444,-5.42 -4.227,-6.986 h -0.233 c 0.313,3.13 0.47,7.67 0.47,13.62 v 46.26 H 76.32 v -84.184 h 20.43 l 33.405,51.25 4.226,6.87 h 0.236 c -0.313,-2.036 -0.47,-5.89 -0.47,-11.566 v -46.554 h 17.906 z m 69.743,0 h -50.487 v -84.185 h 48.55 v 15.44 H 190.27 v 18.727 h 27.533 v 15.38 H 190.27 v 19.257 h 31.525 z m 72.62,-68.745 h -24.01 v 68.745 H 251.383 V 151.843 H 227.49 v -15.44 h 66.925 z"
       inkscape:connector-curvature="0"
       style="fill:#ffffff" />
    <path
       id="path971"
       letter-spacing="-2.85"
       font-size="58.667"
       d="m 90.34,245.895 c -4.64,-0.23 -9.207,3.485 -9.563,8.27 -0.245,1.52 -0.225,3.003 -0.216,4.54 -1.192,0.427 -2.866,-0.602 -3.748,0.4 0.27,1.058 -0.71,2.966 1.075,3.05 0.926,0.088 2.63,-0.566 2.76,0.976 -0.234,7.514 -0.008,15.094 -0.086,22.638 0.392,1.07 -0.83,3.777 0.69,3.683 1.107,-0.125 3.035,0.862 3.492,-0.512 v -26.872 h 9.492 c -0.235,-1.084 0.725,-2.794 -0.39,-3.43 -3.064,0.256 -6.183,0.034 -9.268,0.108 -0.143,-3.1 -0.034,-7.39 3.38,-8.724 2.644,-1.046 5.58,-0.64 8.26,0.044 -0.252,-1.217 0.88,-3.144 -0.49,-3.816 -1.797,-0.253 -3.578,-0.424 -5.386,-0.353 z m 20.002,11.959 c -6.417,-0.562 -12.82,4.324 -13.883,10.7 -1.487,6.186 -0.787,13.58 3.853,18.315 5.757,5.275 16.076,4.848 20.705,-1.755 3.528,-4.878 3.708,-11.324 2.354,-16.957 -1.312,-5.695 -6.517,-10.24 -12.444,-10.283 0.18,0.03 -0.81,-0.057 -0.586,-0.02 z m 0.015,3.425 c 4.78,-0.09 8.782,4.18 9.057,8.833 0.806,5.09 0.543,11.255 -3.553,14.932 -4.65,3.81 -13.005,1.884 -14.644,-4.186 -1.638,-4.83 -1.523,-10.405 0.617,-15.056 1.645,-3.04 5.12,-4.737 8.524,-4.525 z m 21.44,-2.639 c -1.973,-0.233 -0.955,2.288 -1.192,3.404 0.11,6.532 -0.215,13.154 0.152,19.622 0.423,4.033 3.173,7.972 7.41,8.55 4.67,0.96 9.552,-1.15 12.995,-4.296 1.35,-0.065 0.697,1.994 0.814,2.775 -0.037,1.6 2.158,0.72 3.118,0.782 1.798,0.386 0.824,-1.85 1.064,-3.002 v -27.668 c -1.378,0.277 -3.127,-0.778 -4.152,0.304 -0.073,7.736 -0.01,15.48 -0.03,23.22 -3.808,3.044 -9.195,5.526 -14,3.352 -3.532,-2.182 -3.146,-6.933 -3.19,-10.52 v -16.355 c -0.99,0.103 -2.064,-0.157 -2.99,-0.166 z m 48.146,-0.767 c -4.03,0.198 -7.6,2.458 -10.578,5.022 -0.517,-1.372 0.58,-3.156 -0.43,-4.227 -1.3,0.315 -3.262,-0.672 -3.98,0.842 0.36,8.206 0.052,16.496 0.154,24.734 0.21,1.614 -0.417,4.137 0.298,5.207 1.268,-0.195 3.107,0.854 3.875,-0.395 0.018,-7.702 0.003,-15.405 0.008,-23.108 3.864,-3.08 9.463,-5.678 14.255,-3.152 3.252,2.157 2.802,6.63 2.934,10.025 v 16.655 c 1.377,-0.278 3.126,0.777 4.15,-0.305 -0.106,-7.883 0.39,-15.82 -0.288,-23.668 -0.695,-4.18 -4.432,-7.774 -8.87,-7.625 -0.51,-0.023 -1.018,-0.023 -1.528,-0.004 z m 41.202,-11.809 c -1.973,-0.233 -0.955,2.288 -1.192,3.404 -0.114,3.408 0.218,6.946 -0.148,10.282 -1.37,0.706 -2.626,-1.148 -4.034,-1.182 -5.99,-2.145 -13.542,0.38 -16.348,6.295 -3.19,6.073 -2.884,13.548 -0.135,19.713 2.193,4.248 7.175,6.67 11.78,5.71 3.38,-0.504 6.326,-2.476 8.808,-4.73 0.53,1.29 -0.59,3.095 0.436,4.085 1.32,-0.34 3.247,0.638 3.98,-0.87 -0.36,-8.205 -0.053,-16.494 -0.155,-24.732 V 246.23 c -0.993,0.104 -2.066,-0.156 -2.99,-0.166 z m -9.442,15.516 c 2.815,0.09 6.143,0.436 8.25,2.32 -0.08,6.23 0.158,12.614 -0.117,18.746 -3.838,3.178 -9.672,5.355 -14.316,2.586 -4.12,-3.058 -4.126,-8.833 -3.88,-13.468 0.296,-4.643 3.424,-9.64 8.417,-10.07 0.544,-0.084 1.097,-0.104 1.646,-0.114 z m 29.847,-3.557 c -2.658,0.18 -5.368,0.633 -7.9,1.29 0.227,1.38 -0.58,3.016 0.18,4.158 5.17,-1.753 11.272,-3.16 16.375,-0.51 2.09,1.436 2.643,4.222 2.37,6.6 -6.512,0.657 -13.907,-0.042 -19.247,4.454 -4.76,4.648 -2.736,14.017 3.843,15.85 5.128,1.71 10.668,-0.467 14.68,-3.772 1.356,-0.015 0.533,2.023 0.7,2.797 -0.103,1.166 1.538,0.247 2.223,0.678 0.95,0.263 2.443,0.1 1.973,-1.227 -0.167,-7.74 0.367,-15.52 -0.307,-23.235 -0.965,-4.332 -5.394,-6.81 -9.567,-6.96 -1.784,-0.195 -3.55,-0.207 -5.322,-0.122 z m 11.044,15.01 c -0.144,3.22 0.298,6.58 -0.24,9.705 -3.98,3.288 -9.933,5.285 -14.792,2.77 -3.942,-2.557 -2.952,-9.516 1.588,-10.852 4.24,-1.825 8.958,-1.427 13.444,-1.955 v 0.3 z m 14.24,-23.588 c -1.973,-0.233 -0.955,2.288 -1.19,3.403 -0.19,1.86 0.347,3.953 -0.218,5.695 -0.97,0.865 -2.753,-0.534 -3.46,0.475 -0.057,1.188 -0.465,3.68 1.56,3.178 0.992,-0.57 2.494,-0.063 2.197,1.283 -0.18,4.42 0.01,8.88 -0.123,13.323 0.172,3.908 -0.4,8.706 3.06,11.46 3.457,2.792 8.244,1.95 12.227,1.128 -0.213,-1.163 0.522,-2.586 -0.09,-3.568 -3.08,0.97 -7.35,1.697 -9.635,-1.187 -2.213,-3.337 -0.99,-7.582 -1.338,-11.287 v -11.282 h 11.07 c -0.237,-1.084 0.724,-2.794 -0.392,-3.43 -3.533,0.258 -7.123,0.033 -10.678,0.108 v -9.133 c -0.992,0.104 -2.065,-0.155 -2.99,-0.165 z m 19.471,-1.72 c -1.63,0.272 -0.377,2.63 -0.768,3.73 0.233,1.61 3.378,0.308 4.8,0.73 -0.198,-1.418 0.69,-3.173 -0.267,-4.372 -1.263,0.232 -2.524,-0.21 -3.765,-0.088 z m 0.767,10.916 c -1.973,-0.233 -0.955,2.288 -1.19,3.404 v 27.43 c 1.377,-0.277 3.126,0.778 4.15,-0.304 0.074,-10.116 0.012,-20.243 0.032,-30.363 -0.993,0.103 -2.066,-0.157 -2.992,-0.166 z m 22.92,-0.768 c -6.545,-0.064 -12.283,5.48 -12.927,11.83 -1.157,6.052 -0.245,13.218 4.59,17.59 6.127,5.13 16.8,4.04 20.88,-3.156 2.954,-5.183 3.126,-11.584 1.33,-17.13 -1.648,-5.285 -6.767,-9.2 -12.366,-9.133 -0.503,-0.028 -1.005,-0.01 -1.508,0 z m 1.22,3.406 c 4.778,-0.09 8.78,4.18 9.054,8.833 0.806,5.09 0.544,11.255 -3.553,14.932 -4.65,3.81 -13.007,1.883 -14.646,-4.186 -1.635,-4.832 -1.524,-10.405 0.617,-15.056 1.647,-3.04 5.12,-4.736 8.527,-4.525 z m 35.308,-3.406 c -4.032,0.197 -7.6,2.46 -10.577,5.022 -0.517,-1.372 0.582,-3.156 -0.43,-4.227 -1.3,0.315 -3.262,-0.672 -3.98,0.842 0.36,8.206 0.052,16.496 0.154,24.734 0.212,1.614 -0.416,4.137 0.3,5.207 1.267,-0.195 3.106,0.854 3.874,-0.395 0.02,-7.702 0.004,-15.405 0.01,-23.108 3.86,-3.08 9.46,-5.678 14.25,-3.152 3.253,2.156 2.806,6.63 2.937,10.025 v 16.655 c 1.377,-0.278 3.126,0.777 4.15,-0.305 -0.108,-7.883 0.393,-15.82 -0.29,-23.668 -0.688,-4.195 -4.467,-7.79 -8.868,-7.625 -0.51,-0.023 -1.02,-0.023 -1.53,-0.004 z"
       inkscape:connector-curvature="0"
       style="font-size:58.66699982px;letter-spacing:-2.8499999;fill:#ffffff" />
    <path
       id="path973"
       d="m 51.282,199.167 c 0,12.98 -10.52,23.5 -23.5,23.5 -12.98,0 -23.5,-10.52 -23.5,-23.5 0,-12.98 10.52,-23.5 23.5,-23.5 12.98,0 23.5,10.52 23.5,23.5"
       inkscape:connector-curvature="0"
       style="fill:#cf18fd" />
  </g>
  <path
     style="opacity:1;fill:#240c2b;fill-opacity:1;stroke:none;stroke-width:0.79444152;stroke-miterlimit:4;stroke-dasharray:none;stroke-opacity:0"
     d="m 97.644346,33.462031 c -18.779953,10.782293 -37.540984,21.598651 -56.310351,32.40015 -0.351639,2.317801 -0.04838,4.811249 -0.149139,7.196338 0.0033,19.758422 0.0062,39.516841 0.0091,59.275261 1.834218,1.46038 4.146576,2.4409 6.163967,3.71745 16.919671,9.69474 33.785317,19.48711 50.725246,29.14415 1.154935,0.86969 2.236571,-0.68981 3.307301,-1.01444 18.43892,-10.42044 36.74611,-21.07175 55.11075,-31.623 0.35192,-2.3178 0.0491,-4.81125 0.15026,-7.19634 0,-19.74652 0,-39.493032 0,-59.239548 -1.83292,-1.461791 -4.14447,-2.444169 -6.16076,-3.722308 -17.12433,-9.864721 -34.24866,-19.729443 -51.372993,-29.594165 -0.551336,-0.04848 -0.980172,0.467013 -1.473426,0.656452 z m 2.25304,17.329263 c 12.595794,-0.170483 25.025134,5.323351 33.736744,14.380494 10.37762,10.459343 15.26778,25.944636 12.93826,40.455612 -1.96543,13.3381 -10.01679,25.63377 -21.41408,32.83655 -7.38446,4.7279 -16.02981,7.48528 -24.81105,7.43193 -6.707086,0.36337 -13.456031,-1.20904 -19.650057,-3.76071 -13.628308,-5.80835 -24.228764,-18.25346 -27.550359,-32.7033 -0.172783,-0.8903 -0.610638,-1.96708 -0.537806,-2.74897 3.572907,-0.17843 7.15755,-2.86026 7.856075,-6.45491 0.3451,-2.415035 0.224393,-5.095374 -1.47014,-7.018163 -1.525534,-2.01192 -3.910125,-3.242981 -6.413441,-3.425537 0.775425,-4.33925 2.24583,-8.56818 4.15835,-12.543199 6.182948,-12.500415 18.052796,-22.084839 31.675549,-25.249381 3.7487,-1.032241 7.617809,-1.170039 11.481955,-1.200416 z m -47.849965,41.82982 c 3.935576,-0.187223 7.0187,4.487153 5.281174,7.992786 -0.941019,2.61037 -3.894354,3.96669 -6.537834,3.41568 -2.875273,-0.61139 -5.042383,-3.71207 -4.429306,-6.640876 0.413688,-2.686212 2.977146,-4.80566 5.685966,-4.76759 z"
     id="path1047"
     inkscape:connector-curvature="0" />
</svg>
