<svg id="Layer_1" data-name="Layer 1" xmlns="http://www.w3.org/2000/svg" xmlns:xlink="http://www.w3.org/1999/xlink" viewBox="0 0 735 852"><defs><style>.cls-1{fill:none;}.cls-2{fill:#dcddde;}.cls-3{clip-path:url(#clip-path);}.cls-4{fill:#ed7d15;}.cls-5{opacity:0.25;fill:url(#linear-gradient);}.cls-6{fill:#ac5d12;}.cls-7{fill:#e6b35a;}.cls-8{opacity:0.94;}.cls-9{fill:#fff;}.cls-10{clip-path:url(#clip-path-2);}.cls-11{fill:#f2f2f2;}</style><clipPath id="clip-path"><polygon class="cls-1" points="369.5 7.4 728.2 214.5 728.2 636.6 369.5 845 2.8 636.6 2.8 214.5 369.5 7.4"/></clipPath><linearGradient id="linear-gradient" x1="366.25" y1="-122.39" x2="367.55" y2="341.13" gradientUnits="userSpaceOnUse"><stop offset="0" stop-color="#fff" stop-opacity="0.83"/><stop offset="0.56" stop-color="#fff" stop-opacity="0.37"/><stop offset="1" stop-color="#fff" stop-opacity="0"/></linearGradient><clipPath id="clip-path-2"><polygon class="cls-2" points="1173.3 7.4 1532 214.5 1532 636.6 1173.3 845 806.6 636.6 806.6 214.5 1173.3 7.4"/></clipPath></defs><title>RStudio_Hex 2016 v7 outlines</title><g class="cls-3"><circle class="cls-4" cx="365.5" cy="437.4" r="442.1"/><ellipse class="cls-5" cx="366.9" cy="105.8" rx="315.2" ry="234.6"/></g><path class="cls-6" d="M705.6,196.2L427.8,35.8,367.5,1,307.2,35.8,29.4,196.2,0.1,213.1V637.4l29.3,16.9L310.6,816.7l56.9,32.8,56.9-32.8L705.6,654.3l29.3-16.9V213.1Zm0,425.3L367.5,816.7,29.4,621.5V231L367.5,35.8h0L705.6,231V621.5Z"/><path class="cls-7" d="M367,633.9l0.9-.9h-0.3Z"/><g class="cls-8"><path class="cls-9" d="M282.3,474v99.2c0,7.3.2,15.6,0.6,21.2H270.3l-0.6-14.2h-0.3c-4.3,9.2-13.8,16.1-26.4,16.1-18.7,0-33.1-16.8-33.1-41.7-0.2-27.3,15.8-44.1,34.7-44.1,11.8,0,19.8,5.9,23.4,12.5h0.3V474h14.1Zm-14.1,71.7a27.9,27.9,0,0,0-.6-6.3c-2.1-9.5-9.8-17.3-20.3-17.3-14.6,0-23.2,13.6-23.2,31.7,0,16.6,7.7,30.4,22.9,30.4,9.4,0,18.1-6.6,20.6-17.8a27.4,27.4,0,0,0,.6-6.4V545.7Z"/><path class="cls-9" d="M302.5,539.1c0-10.5-.3-19-0.6-26.8h12.6l0.6,14.1h0.3c5.8-10,14.9-15.9,27.5-15.9,18.7,0,32.8,16.8,32.8,41.7,0,29.5-17,44.1-35.2,44.1-10.2,0-19.2-4.7-23.8-12.9h-0.3V628H302.5V539.1ZM316.4,561a35.5,35.5,0,0,0,.6,6.1c2.6,10.3,11,17.5,21.1,17.5,14.9,0,23.5-12.9,23.5-31.7,0-16.5-8.2-30.5-23-30.5-9.6,0-18.6,7.3-21.3,18.5a25.6,25.6,0,0,0-1,6.1V561Z"/><path class="cls-9" d="M390.3,474h14.1V594.4H390.3V474Z"/><path class="cls-9" d="M430,512.3l17,48.5c1.8,5.4,3.7,11.9,5,16.8h0.3c1.4-4.9,3-11.2,5-17.1l15.4-48.2h14.9l-21.1,58.5c-10.1,28.2-17,42.6-26.6,51.4-6.9,6.4-13.8,9-17.3,9.7l-3.5-12.5a36.7,36.7,0,0,0,12.3-7.3,45,45,0,0,0,11.8-16.6,11.2,11.2,0,0,0,1.1-3.6,13.7,13.7,0,0,0-1-3.9l-28.6-75.6H430Z"/><path class="cls-9" d="M497,537.9c0-9.7-.2-18-0.6-25.6h12.3l0.5,16.1h0.6c3.5-11,12-18,21.4-18a14.4,14.4,0,0,1,4,.5v14.1a20,20,0,0,0-4.8-.5c-9.9,0-17,8-18.9,19.2a44.5,44.5,0,0,0-.6,7v43.8H497V537.9Z"/></g><polygon class="cls-2" points="1173.3 7.4 1532 214.5 1532 636.6 1173.3 845 806.6 636.6 806.6 214.5 1173.3 7.4"/><g class="cls-10"><circle class="cls-11" cx="1169.3" cy="437.4" r="442.1"/></g><path class="cls-9" d="M365.5,797.3l4.5,4.5,2.7,2.9h0.1c-0.4-1.2-.7-2.5-1-3.9l-1.4-6.3,1.6-.9,4.7,4.3,2.9,2.9h0.1a36.3,36.3,0,0,1-1.2-3.9l-1.6-6.1,1.9-1.1,2.7,12.4-1.7,1-4.5-4.1a40.6,40.6,0,0,1-2.9-2.9h0a35.4,35.4,0,0,1,1.1,4l1.2,5.9-1.7,1-9.2-8.6Z"/><path class="cls-9" d="M381.7,787.9l4.5,4.5,2.7,2.9h0.1c-0.4-1.2-.7-2.5-1-3.9l-1.4-6.3,1.6-.9,4.7,4.3,2.9,2.9h0.1a36.5,36.5,0,0,1-1.2-3.9l-1.6-6.1,1.9-1.1,2.7,12.4-1.7,1-4.5-4.1a40.5,40.5,0,0,1-2.9-2.9h0a35.4,35.4,0,0,1,1.1,4l1.2,5.9-1.7,1-9.2-8.6Z"/><path class="cls-9" d="M397.8,778.5l4.5,4.5,2.7,2.9h0.1c-0.4-1.2-.7-2.5-1-3.9l-1.4-6.3,1.6-.9L409,779l2.9,2.9H412a36.3,36.3,0,0,1-1.2-3.9l-1.6-6.1,1.9-1.1,2.7,12.4-1.7,1-4.5-4.1a40.1,40.1,0,0,1-2.9-2.9h0a35,35,0,0,1,1.1,4l1.2,5.9-1.7,1-9.2-8.6Z"/><path class="cls-9" d="M419.2,780.4a1.6,1.6,0,1,1,.5-2.1,1.5,1.5,0,0,1-.5,2.1h0Z"/><path class="cls-9" d="M418.5,770.8l-2-3.2,1.7-1,1.3,2h0.1a3.6,3.6,0,0,1,1.6-4l0.6-.2,1,1.8-0.7.3a3.1,3.1,0,0,0-1.1,3.9l0.4,0.9,3.2,5.6-1.9,1.1Z"/><path class="cls-9" d="M428.4,772.1a5.8,5.8,0,0,0,2.9-.7c1.4-.8,1.6-1.9,1.1-2.7s-1.4-1.1-3.1-.8-3.8-.1-4.5-1.4-0.4-3.9,1.8-5.2a6,6,0,0,1,2.9-.8l0.3,1.7a4.7,4.7,0,0,0-2.5.6,1.8,1.8,0,0,0-.9,2.4c0.5,0.9,1.4.9,3,.6s3.7,0,4.6,1.6,0.4,4-2.1,5.4a6.9,6.9,0,0,1-3.4,1Z"/><path class="cls-9" d="M433.1,754.6l1.5,2.5,2.7-1.6,0.8,1.4-2.7,1.6,3.3,5.6c0.8,1.3,1.6,1.8,2.6,1.2l1-.8,0.9,1.4a5.3,5.3,0,0,1-1.5,1.3,3.1,3.1,0,0,1-2.5.4,4.5,4.5,0,0,1-2.3-2.3l-3.3-5.7-1.6.9-0.8-1.4,1.6-.9-1.1-1.9Z"/><path class="cls-9" d="M452.6,756.8l1.7,2.8-1.7,1-1.1-1.6h0a4.6,4.6,0,0,1-2.3,4c-1.6,1-4.1,1.2-6.3-2.5l-3.6-6.1,1.9-1.1,3.4,5.8c1.2,2,2.5,3,4.3,2a3.2,3.2,0,0,0,1.5-3.2,3.2,3.2,0,0,0-.4-1.1l-3.7-6.4,1.9-1.1Z"/><path class="cls-9" d="M457.5,737.2l7.4,12.6,1.7,2.6-1.7,1-1.1-1.8h0a4.5,4.5,0,0,1-2.4,4.1c-2.5,1.5-5.7.5-7.6-2.7s-1.1-6.9,1.4-8.3a4,4,0,0,1,4.1-.2h0l-3.6-6.2Zm3.4,10.2-0.6-.7a3.2,3.2,0,0,0-4-.6c-2,1.1-2.1,3.6-.8,5.9s3.3,3.3,5.3,2.1a3.3,3.3,0,0,0,1.5-3.9,3.8,3.8,0,0,0-.4-0.9Z"/><path class="cls-9" d="M463.9,736.1a1.4,1.4,0,0,1-2.4,1.4,1.3,1.3,0,0,1,.5-1.9A1.3,1.3,0,0,1,463.9,736.1Zm5.7,14.6-6.1-10.5,1.9-1.1,6.1,10.5Z"/><path class="cls-9" d="M481,736.9c2.3,3.9.6,7.1-2,8.6s-6.2.8-8.1-2.5-0.9-6.9,2-8.6S479.1,733.7,481,736.9Zm-8.2,4.9c1.3,2.3,3.7,3.3,5.5,2.2s2.2-3.6.8-5.9-3.2-3.5-5.5-2.2S471.6,739.9,472.8,741.9Z"/><path class="cls-9" d="M486.9,740.9a1.6,1.6,0,1,1,.5-2.1,1.5,1.5,0,0,1-.5,2.1h0Z"/><path class="cls-9" d="M497.7,733.8a8.1,8.1,0,0,1-2.6,2.4c-3.2,1.8-6.5.9-8.3-2.3a6.1,6.1,0,0,1,2.4-8.8,7.3,7.3,0,0,1,2.9-1l0.4,1.7a5.1,5.1,0,0,0-2.5.8c-2.4,1.4-2.7,3.9-1.4,6.1s3.8,3,5.9,1.8a6.2,6.2,0,0,0,2-1.9Z"/><path class="cls-9" d="M506.4,722.2c2.3,3.9.6,7.1-2,8.6s-6.2.8-8.1-2.5-0.9-6.9,2-8.6S504.5,719,506.4,722.2Zm-8.2,4.9c1.3,2.3,3.7,3.2,5.5,2.2s2.2-3.6.8-5.9-3.2-3.5-5.5-2.2S497,725.1,498.1,727.1Z"/><path class="cls-9" d="M507.4,718.5l-1.7-2.8,1.7-1,1.1,1.6h0.1a4.2,4.2,0,0,1,2.2-3.8,3.6,3.6,0,0,1,4.2.4h0a5,5,0,0,1,.4-2,4.1,4.1,0,0,1,1.9-2.1c1.4-.8,4-1.1,6.1,2.5l3.6,6.2-1.9,1.1-3.4-5.9c-1.2-2-2.6-2.8-4.1-1.9a2.9,2.9,0,0,0-1.2,3,3.6,3.6,0,0,0,.4,1l3.8,6.5-1.9,1.1-3.6-6.3c-1-1.7-2.4-2.4-3.9-1.6a3,3,0,0,0-1.2,3.3,3.1,3.1,0,0,0,.4,1l3.7,6.3-1.9,1.1Z"/><path class="cls-9" d="M582.7,343.2L570.9,337c-20.9-10.7-41.7-21.6-62.7-32.1-17.3-8.7-35.3-15.5-54.5-19-13.3-2.4-26.8-3-40.3-3.8-11.3-.6-22.5-1.6-33.7-2.2-8.6-.5-14.2-4.9-17.9-12.4-1.6-3.3-3.3-6.7-6.4-9.1a4.1,4.1,0,0,1-.9-1.6,5.5,5.5,0,0,0-5.9-3.3,100.9,100.9,0,0,0-14.3,1.9c-7.3,1.7-14.5,4.1-21.8,6.1-1.9.5-2.7,1.2-2.5,3.4a53.6,53.6,0,0,1,.1,6.6l-19.5-6.3a3.5,3.5,0,0,0-4.3,1.4l-12-1.2V259l-1.5-.4c-11.4-1.4-21.7-5.9-32.1-10.4a10.2,10.2,0,0,0-4-.8l-61.1.5c-3.1,0-6.2.5-9.3,0.7a7.2,7.2,0,0,1-1.6-.2h-0.4c-2.8,1.5-4.2,3.8-4.5,7a34.6,34.6,0,0,1-1.7,5.8v0.4a18.9,18.9,0,0,0,2,2.3l6.2,4.7c1.1,0.8,2.1,1.6,3.3,2.3,11.3,6.9,20.8,16.1,30.9,24.6l16.7,14.3a6.2,6.2,0,0,0,1.9,1.2l32.1,11a2.2,2.2,0,0,0,1.8-.4c1.2-1,2.3-2.2,3.5-3.3a33.2,33.2,0,0,0,16.4,4.4l-1.6,8.7,14,5.2-4.8,5.3a1.7,1.7,0,0,0-.4,2.3c5.5,9.3,11,18.5,18.1,26.7a43.8,43.8,0,0,0,6.1,5.4c1.1,0.9,5.3.6,7.1-.4a5.4,5.4,0,0,0,2,0,49.5,49.5,0,0,0,8.7-2.5c8.2-3.6,15.4-2,22.2,3.3l25.8,20c10.1,7.9,20,16,30.9,22.7a188.6,188.6,0,0,0,48.1,20.8c12.7,3.6,25.4,6.9,38.1,10.1a1.9,1.9,0,0,1,1.4.1c1.7,0.7,3.6.4,5.4,0.7a8.4,8.4,0,0,1,2.8,1.2c1.5,0.3,3,.6,4.5,1l2.3,0.8a70.3,70.3,0,0,1,11.1,3.1l13.4,3.4h0c3.1,0.9,6.3,1.4,9.2,2.7h0.1l0.7-1.5a39.7,39.7,0,0,0,.9-3.9,1.9,1.9,0,0,1,.8-1.1,51.3,51.3,0,0,0,.4-5.2c0-2.3,1.8-4.6,2-6.9s-1.9-6.3-4.4-8.7c-4.6-4.5-10.3-7.2-16.4-9-12.7-3.9-25.4-7.6-38.1-11.3-14.3-4.2-28.8-8.1-42-15.1-10.9-5.8-21.7-11.9-32.5-18A249.2,249.2,0,0,1,372,356.7c-4.7-4-9.9-7.2-15-10.7-3.2-2.2-6.3-4.5-7.5-8.5s-3.2-4.6-5.6-5.9c-7.3-4-14.7-8.1-22.1-12-4.4-2.3-9.1-4.3-13.6-6.5a1.7,1.7,0,0,0-2.4.5c-3.1,3.6-3.2,3.5-7.5,1.7l-3.6-1.5a28.4,28.4,0,0,0,9.2-16.2c2.3-.3,4.1,2.2,6.5.9,0,0.2.1,0.5,0.1,0.8,0.1,4,.1,4.1,4,5.1,9.9,2.7,19.8,5.4,29.8,7.9a44.1,44.1,0,0,0,8.8,1.3,13.3,13.3,0,0,0,5.8-1,16.8,16.8,0,0,1,9-1.5c6.7,0.8,13.5,2.1,20.2,2.1,28.4,0.3,55.8,6.7,83.2,13.3,11.8,2.9,22.8,8.1,33.8,13.3,13.2,6.2,26.3,12.4,39.5,18.5a94.9,94.9,0,0,0,10.7,3.9,29.6,29.6,0,0,0,3.8.9,1.6,1.6,0,0,1,1.7,0l0.4,0.2h4.7l3.3-1a11,11,0,0,0,3.6-2.3c0.8-.6,2.4-1.1,2.9-2l0.4-.6c0.3-1.1.5-2.3,0.8-3.4a3.6,3.6,0,0,1,1.1-1.4c1.8-1.6,3.8-6.4,4.4-9h-0.1ZM217.7,277a9.1,9.1,0,0,1-3.6.5c-1.3-.1-2.4-0.5-3.7.2a1.9,1.9,0,0,1-2.9-1l-0.2-.4H207a8.2,8.2,0,0,1-2.2-.1,4.6,4.6,0,0,1-2.1-1,1.6,1.6,0,0,0-1.1-.7c-0.9.1-1.5,0.8-2.5,0.7a3.2,3.2,0,0,1-2.1-.9c-1-1-1.7-2.1-3.3-1.9a1.9,1.9,0,0,1-1.9-1.3c-0.5-2.6-3.1-3.9-3.6-6.6a2,2,0,0,1,1.2-2.4,3.9,3.9,0,0,1,2.9.1c0.8,0.3,0,.6,1,0.1a5.9,5.9,0,0,1,1.5-.6,4.5,4.5,0,0,1,3,.6c0.6,0.3,1.5,1.2,2.1.9a1.8,1.8,0,0,1,1.5.1,1.6,1.6,0,0,1,1.7.9c0.8,1.4,2,2.5,3.6,1.7a1.9,1.9,0,0,1,2.9,1c0.6,1.6,3.3,1.7,4.7,2.1s3.8,1.2,5,2.9A3.3,3.3,0,0,1,217.7,277Z"/><path d="M243.6,305.6l0.2-14.3L242,291l-0.2,14.5h1.8ZM238.1,292c0,4,.2,7.9.3,11.9l0.2,0.3,1.4-.2V291l-0.9-.2A3,3,0,0,0,238.1,292Zm-2.1-2.7-1.8.3,0.7,12,1.8,0.2Zm-4.1,10.2,0.2-11.7-0.7-.2a8.4,8.4,0,0,0-1.1,2.6c-0.2,3-.1,5.9-0.1,9Zm-5.7-10.3c-0.1,2.9-.3,5.8-0.4,8.8h1.8l0.3-10C226.8,287.6,226.3,288,226.2,289.2Zm-5.4,5.3,0.7-9.5h-0.7c-2.5,2.4-.8,5.9-1.9,8.9Zm2.2-6.8c-0.4,2.5-.6,5-0.9,7.6l1.7,0.2,1.1-8.6-0.8-.3A3.3,3.3,0,0,0,223.1,287.7Zm-8.7-4.4-0.8-.4a3.9,3.9,0,0,0-1.2,1.3c-0.4,1.7-.5,3.5-0.9,5.2s0.1,1.8,1.7,1.5Zm0.8,8c-0.1.3,0.7,0.8,1.1,1.2l0.5-.2,0.8-8.5H217C214.6,285.9,215.7,288.9,215.2,291.4Zm-6.1-2.2,0.8-6.6c-2.3-.3-1.8,1.3-2,2.3l-0.5,3.6Zm-22.8-20.8h-1.8c-0.1,1.8-.2,3.5-0.1,5.2s0.8,0.9,1.2,1.3l0.5-.4Zm-2.7-1.4-1.8.4a39.2,39.2,0,0,1-.3,4c-0.2,1.3.3,1.6,1.7,1.4Zm-3.4,3,0.6-5.1c-2,.1-2.3.6-2.2,5h1.6Zm23.5,15.7,2.1,0.9,0.7-5.8C203.4,282,205.4,284.6,203.7,285.8ZM348,303.2c-0.4,1.1-.8,2-0.7,2.1s1.1,3.1,3.9,2.9Zm-0.8,5.5,0.8-.6-2.6-4.3-1.6,1.5ZM176.8,268.5l1-5.1c-2.6.5-1.9,2.6-2.8,3.9Zm174,36.3c1.6,0.6.9,3.5,3.8,2.9C353.2,304,352.8,303.6,350.8,304.8ZM173.6,267c1.4-2.3,1.4-3.6-.2-5.2C173.6,263.8,171.2,265.4,173.6,267Zm-4.6-2.7c2-.4,2.1-1.7,2.2-2.8a3.7,3.7,0,0,0-.7-1.6l-0.8.2Zm33.8,20.1,0.6-4.3C200.9,281.6,200.8,283.2,202.8,284.4Zm-36-24c0.1-.5-0.4-1.2-0.7-1.8h-0.6l-0.7,2.6,0.5,0.4A4.2,4.2,0,0,0,166.9,260.5Zm30.9,21.7c2.2,0.1,1.7-1.4,1.7-2.7C197.5,279.6,197.6,280.8,197.8,282.2Zm145,22.7c-0.5.8-1.2,1.4-1.1,1.7a5.4,5.4,0,0,0,1.4,1.4l0.5-.5Z"/><path d="M568.7,354.1a31.6,31.6,0,0,1-13.5-3q-17-7.6-33.9-15.7c-13.5-6.4-27-12.7-41-17.8s-25.6-6.8-38.8-8c-26-2.5-52-4.6-78-6.9-3.8-.3-7.7-0.6-11.5-1.1-8.9-1.3-12.2-4.8-12.9-13.8a44.1,44.1,0,0,1,1.5-16.9c1.7-5.4,5.2-9.1,11.2-10.1l-0.2-1.7c-5.1.6-8.9,3.1-11.1,7.6a33.8,33.8,0,0,0-2.8,9,46.4,46.4,0,0,0,0,15.7c0.9,5.3,3.7,9,8.8,10.7,2.6,0.9,5.3,1.3,8.1,1.9,1.4,2.9,2.1,3.4,3.8,2.7l-1.6-2.6c2.3,0.1,2.9,2.2,4.4,3.3l1.4-.8-1.3-2c2.2-.9,3.3.8,4.3,2.1s1.3,1,2.1.1l-1-1.9c3.2-.1,3.3,4.6,7,4l-2.6-3.5,0.3-.3,5.4,5.2c0.8-2.5-1.1-3.2-1.8-4.5,1.3-.3,1.3-0.3,4.2,3.8l1.4-.8-0.7-1.4L379,306c1.5-.4,1.5-0.4,2.9,1.3l2.6,2.9,1.2-1.1-2.4-2.9c1.7,0.1,3-.3,4,1.3a26.7,26.7,0,0,0,3.4,3.7l0.9-1.5-2.8-3.1c2.9,0,3.6,3.7,6.8,3.3L394,307c1.6-.8,2.1.8,2.9,1.5s1.9,1.7,2.9,2.7l1.3-1.1-2.5-2.6c2.8-.9,3.9,1.3,5.4,2.6a10.4,10.4,0,0,0,2,1.1l0.4-.5-1.7-2.7c3.2-.3,2-0.4,5.6,3.6H411l1-.5-1.9-2.7,2.5,0.2,3.3,4.3,1.4-1.2-2.2-2.8c1.4-.2,2.4,0,3.2,1.2a14.9,14.9,0,0,0,2.2,2.6,5.7,5.7,0,0,0,1.7.8,6.4,6.4,0,0,0-.3-1.9,16.2,16.2,0,0,0-1.8-2.3c1.5,0,2.5-.2,3.3,1.4s1,3.1,3.4,2.1l-1.7-3,3.3,0.2c-0.2,2.1,1.4,3.8,3.2,3.2l-0.8-1.5-0.9-1.5c3.3,0.1,3.5,2.9,4.9,4.8l1.6-.5-1.7-3.6c2.5-.6,3.1,1.3,3.9,2.8a9.8,9.8,0,0,0,1.5,1.7l0.6-.4-1.1-3.5a2.6,2.6,0,0,1,3.4,1.6,23.4,23.4,0,0,0,1.4,2.9,17.8,17.8,0,0,0,1.7,2l0.7-.4-2.1-5.6,2.8,0.3c-0.1,2,1.8,5.3,3.4,5.4l-1.6-5.1,1.6,0.2c0.8,2.1,1.5,3.9,2.3,5.7a1.3,1.3,0,0,0,1.1-.1,1.5,1.5,0,0,0,.2-1.3c-0.5-1.2-1.1-2.4-1.7-3.8,1.2-.2,2-0.3,2.4,1.1a15.7,15.7,0,0,0,1.7,3.7,4.8,4.8,0,0,0,1.3,1.1l0.6-.3-1.3-5,2,0.2,2.1,6.4,0.9-.2-0.7-5.8,2.6,0.5c0.6,2.4.2,5.1,2.3,6.8l0.9-.3-1.6-6,1.9,0.3c0.7,2.3,1.4,4.4,2.1,6.4a2.8,2.8,0,0,0,1.4.6l0.5-.3-1.6-6,2.2,0.6,1.6,7h1.8l-1.4-6.2c2.4,0.2,3.3,1.3,3.5,4.9,0.1,1,0,1.9,1.8,2.1l-0.5-5.9a7.6,7.6,0,0,1,1.9,1.8c0.6,1.3.8,2.8,1.3,4.2s0.6,1.3,1.1,2.4c1.3-2.6.2-4.5-.3-6.5,2.8,0.5,2.8.5,3.6,6.9h1.8l-0.6-5.2c1.6,0.3,2.8,3.7,2.9,8.8l-6-2.4c-10.4-4.2-21.3-6.3-32.1-8.7-15.9-3.5-31.9-6.8-48.2-8-7.9-.6-15.9-0.8-23.9-1.4-4.4-.3-8.8-1.1-13.2-1.6a13.8,13.8,0,0,0-8.8,1.8c-2,1.1-4.1,1-6.3.8-9.8-1.2-19.2-4.1-28.7-6.7l-9.5-2.7a1.9,1.9,0,0,1-1.7-2.2q0-17.5-.3-34.9c0-1.2.3-1.9,1.5-2.1s2.4-.8,3.6-1.1v0.4a5.7,5.7,0,0,1,2.6-.6,2,2,0,0,0,1.1-.2l-1.2-.2c1.5-.5,3.1-1.5,4.6-1.4h0.5a30.8,30.8,0,0,1,5.8-.9l-2.2-.5c4.2-.9,8-1.8,11.7-2.5,2.2-.4,4.5-0.5,6.8-0.8s5,0.3,6.6,2.7,4.4,6.2,6.6,9.3,2.4,3.9,3.6,5.8c2.6,4.1,6.3,6.9,11.1,7.6,7.1,1,14.2,1.8,21.3,2.3,15,1.1,30,1.5,44.9,2.8,21,1.9,41,8.1,59.8,17.4,24.2,12,48.1,24.4,72.1,36.7,2.8,1.4,5.7,2.7,8.8,4.1l0.7-1.2L570.9,337c-20.9-10.7-41.7-21.6-62.7-32.1-17.3-8.7-35.3-15.5-54.5-19-13.3-2.4-26.8-3-40.3-3.8-11.3-.6-22.5-1.6-33.7-2.2-8.6-.5-14.2-4.9-17.9-12.4-1.6-3.3-3.3-6.7-6.4-9.1a4.1,4.1,0,0,1-.9-1.6,5.5,5.5,0,0,0-5.9-3.3,100.9,100.9,0,0,0-14.3,1.9c-7.3,1.7-14.5,4.1-21.8,6.1-1.9.5-2.7,1.2-2.5,3.4a53.6,53.6,0,0,1,.1,6.6l-19.5-6.3a3.5,3.5,0,0,0-4.4,1.6,25.6,25.6,0,0,0-1,2.6l3.8,2.1,1-1.4-2.6-1.7c1-2,2.5-1.9,4.2-1.1l2.1,0.8,0.4,0.2,3.2,0.7a12.8,12.8,0,0,0,.1,2.9c1.2,4,2.6,8.1,3.8,11.9,1.9,0.2,2.3-.4,1.8-1.6l-4.8-12.8,3.2,1a6.1,6.1,0,0,0,0,2.1c1.9,4.1,3.8,8.1,5.7,12.3l1.7-.6-6.4-13.5,3.4,1.1a6.2,6.2,0,0,0,.1,2.2c1.1,2.3,2.3,4.6,3.5,6.9a4.6,4.6,0,0,1,.8,1.7c0.1,4.9.1,9.8,0.1,15l-2.4-1H308l-1.8-.4-0.8-6.2c-2.4,1.7-.6,3.8-1.5,5.4l-1.7-.4c-1.4,10.9-7.6,18.2-17.3,22.7s-19.4,3.6-28.9-1.8l-4.4,4.2c-30.5-18.7-61.6-36.7-90.8-57.6l2.4-6.5,1.6,0.4,21.5,7.1c1.2,0.4,1.6,1,1.5,2.2a2.7,2.7,0,0,0,0,.4c0,2.7.1,2.9,2.7,3.5,0.1,1.5-.6,3.6,1.5,4.1s2.1-.6,3.2-0.9,0.6,3.1,1.6,3.7,2.8-.2,4.5-0.4c1.7,2.9,1.7,2.9,5.1.7,0.9,1,1.6,2.6,2.7,2.9s2.1-1,3.5-1.7c1.8,1.9,3.9,1,5.9-.7s2.3-.6,3.6-0.1L247,286l0.7,0.2c2.7-3.4,2.8-3.7.6-5.2l1.9,0.3a22.5,22.5,0,0,1,8.8-9.8c6.6-3.9,13.8-4.4,21.1-3.7l1.9,0.2c1.2,0.2,1.2.1,1.5-1.7l-9.2-.9V259l-1.5-.4c-11.4-1.4-21.7-5.9-32.1-10.4a10.2,10.2,0,0,0-4-.8l-61.1.5c-3.1,0-6.2.5-9.3,0.7a7.2,7.2,0,0,1-1.6-.2h-0.4c-2.8,1.5-4.2,3.8-4.5,7a34.6,34.6,0,0,1-1.7,5.8v0.4a18.9,18.9,0,0,0,2,2.3l6.2,4.7c1.1,0.8,2.1,1.6,3.3,2.3,11.3,6.9,20.8,16.1,30.9,24.6l16.7,14.3a6.2,6.2,0,0,0,1.9,1.2l32.1,11a2.2,2.2,0,0,0,1.8-.4c1.2-1,2.3-2.2,3.5-3.3a33.2,33.2,0,0,0,16.4,4.4l-1.6,8.7,14,5.2-4.8,5.3a1.6,1.6,0,0,0-.4,2.3c5.5,9.3,11,18.5,18.1,26.7a43.8,43.8,0,0,0,6.1,5.4,3.4,3.4,0,0,0,4.2.2,11.8,11.8,0,0,0-1.5-1.2c-1.2-.7-2.6-1-3.6-1.9-5.9-5.1-9.9-11.7-14.5-18.4l1,0.2a5.4,5.4,0,0,1-1.2-1.3l-0.3.2-3-4.8,1.2,0.4a10.7,10.7,0,0,1-1-1.5h-0.4v0.6l-1.6-2.7c-1.7-2.8-1.7-2.8.5-5.4a2.1,2.1,0,0,1,2.4-.9l0.8-1.6h-0.4v-0.5l1.2-.6,1.4-1.9a2.6,2.6,0,0,1,1.3-1.5l1.9-2h-0.1c0.8-1.4,1.2-2,1.9-2.1l1.4-1.8h0.2l1.4-1.7h0.2l1.7-1.2-0.6-.2,7.9-8.8a1.5,1.5,0,0,1,2.1-.3c9,4.4,18,8.8,27,13.3a77.9,77.9,0,0,1,9.3,5.9,7.6,7.6,0,0,1,2.8,3.4c1.4,4.3,4.4,7,8,9.3,9.4,5.9,17.8,13.2,26.6,20,12.2,9.5,25.7,17.3,39.2,24.8,8.1,4.5,16.2,9,24.6,12.9,12,5.7,24.9,9.1,37.6,12.8s26.6,7.9,39.9,12.1a31.2,31.2,0,0,1,14,8.6c3.2,3.5,3.8,7,1.7,10.4l-3.2-4.3,2.2-1.1-0.3-1.7c-1.9.5-3.8,2.5-5.3-.1,0.7-1.5,3.8.7,3.5-2.3-2.4-.8-4.5,1.4-6.9.6,0.6-1.8,4-.6,3.1-3.7l-6.4,2.6c0.7-2.5,4-1.2,3.8-4.5l-7,3c0.8-1.9,3.7-1.2,3.1-4.1l-6.2,3c0.2-2.6,3.8-2.4,3.2-5.8l-6.2,4.8c0.1-2.6,3.8-2.5,2.6-5.8a41.9,41.9,0,0,0-3.7,3.4c-0.9,1.1-1.8,1.2-3.1.4a17.2,17.2,0,0,1,2.3-2c1-.6,1.4-1.2.3-2.5a42.7,42.7,0,0,0-3.5,2.9c-1,1-1.9,1.2-3.3.3l4.1-3.4-0.5-1.8c-1.6,1.3-3.1,2.2-4.3,3.4s-1.5,1.5-3.5.5c0.6-1.8,3.5-1.9,3.2-5.1l-6.2,4.8c-0.5-2.5,3.3-2.9,1.6-5.8l-4.2,4.7-1.8-.5,2.8-4.9-0.8-.6-4.2,4.8-2.2-.6,2.8-4.2-1.4-1.1-3.2,4.8-1.4-.4c-0.8-2,3.1-2.7.9-5.3l-3.4,4.6-2.3-.6c-0.1-2.1,3.1-2.7,2-5.2-2.5.6-2.8,3.8-4.9,4.6l-0.6-.6,1.7-3.9-1.3-1.4-2.4,4.9-2.4-.7,2.5-4.1-1.3-1.2-3,4.7-2-.5,2.6-4.1c-1.9-.7-2.4-0.3-4.3,3.5l-2.6-.7,1.3-2L471,417l-1.2-1.5-3.5,4.7-2.2-.7c0.8-1.3,1.5-2.5,2.1-3.8a2,2,0,0,0-.4-1c-2.4.3-2.1,3.7-4.8,4.3l2-5.6c-1.7.3-1.8,0.4-3.7,4.5l-1.7-.4,2.5-4.2-1.6-.6c-1.3,1.3-1.4,3.6-4.1,4l2.6-5.2c-2.8.5-3.2,2.7-4.4,4.2l-2.1-.8,2.8-3.7c-2-.8-2-0.8-4.3,3.1l-1.8-.6c-0.2-2.1,3.1-2.7,1.8-5.7-1.2,1.5-2.3,2.6-3.1,3.8s-0.9,1.2-1.7.5l-1-.6-2.3-.7,3-4.7c-3.5-.6-3.4,3.3-5.6,3.6-0.7-2.4,2.9-3.1,1.3-6.1l-3.6,4.8-2.1-1c-0.3-2.3,3.3-2.8,1.9-5.9l-4.1,4.7-1.4-.5,2.9-5.4c-3,.2-3.2,2.7-4.6,4.3l-1.7-.8c0.6-2.5,3.7-3.3,3.7-6.3-2.7.9-3.8,3.2-5.4,5l-1.4-.8,3.5-4.8-0.4-.4c-2.3.4-3.3,2.6-4.9,4.1l-2-1.3a25.2,25.2,0,0,1,3.3-2.7c1.1-.6,1.1-1.2.2-2.4l-4.2,3.3a4.8,4.8,0,0,1-1.3.5,3,3,0,0,1,.2-1.4c1.1-1.2,2.2-2.3,3.6-3.7-3.5-.9-4.3,2.4-6.2,3.7l-0.5-.5,3.4-3.9-1-1.4-4.1,4.2-2-1.3,3.6-4.1-0.5-.5c-2.1.2-3.2,1.9-4.4,3.3-1.6-.6-1.6-1-0.4-2.4a24,24,0,0,0,1.5-2.2l-0.8-.7-3.6,3.3-1.5-.9,2.2-2.8-1.1-1.3-2.7,2.9L403,388l2.6-3.7-1.3-1.1-2.8,3.6-2.4-1.6,2.1-3.6-1.5-.9-2.1,3.3L396,383l1.3-4.2-0.7-.4-2.5,3.2-1.7-1.2,1.8-2.7-1.5-.8-1.8,2.3-1.8-1.2,1.8-3.4c-2.5-1.3-2.2,1.6-3.7,2l-1.9-1.3,1.9-3.1-1.3-1.2-2.1,3-1.3-.9,1.9-2.3-1.3-1.1-2.1,2.3-1.8-1.2,1.1-3.5-0.7-.3-2.3,2.4-1.8-1.3,1.2-3.8c-2.2-.4-2,1.5-2.9,2.4l-1.4-1,1.9-2.9-1.5-.7-1.8,2.4-1.5-.9,2.4-3.9c-2.9-1.2-2.5,2.1-4.3,2.4l-1.4-.9,1.6-2.2-1.7-1-1.2,1.9-1.6-1.1,1.3-2-1.2-1.2-1.5,2-1.9-1.3,1.7-2.3c-1.7-.8-1.7-0.8-3.1,1.1l-1.6-1,1.3-3.4-1.7-.5-1.1,2.4c-2.5-1.1-2.5-1.2-1.7-3.4,0.2-.5-0.2-1.2-0.4-2.3l-2.1,2.8-1.5-1.1c0.5-.9,1.9-1.7.1-2.7l-1.8,1.5-1.7-1.2,1.8-3-0.3-.5a6.2,6.2,0,0,0-3.3,2.2l-0.5-.5,2.2-3.3-1.5-.9-2.2,3-2-1.4,2.6-2.8-1.4-1-2.7,2.7-1.9-1.2,3.3-2.8c-0.7-.9-1.1-1.7-2.2-0.5a8.2,8.2,0,0,1-2.1,1.6,7.1,7.1,0,0,1-1.9.4l-0.3-.6a31.4,31.4,0,0,1,2.8-2.7c1-.7,1.2-1.4,0-2.5-1.3,1.2-2.6,2.5-3.9,3.7a2.3,2.3,0,0,1-1.7.6,12.6,12.6,0,0,0-11.3,2.4,44.8,44.8,0,0,0-13.8,17.2c-2.8,6.2-1.9,12.2,2.1,16.5,1.1-.4,1.4-0.9.6-2a12.5,12.5,0,0,1-1.7-12.3A41.3,41.3,0,0,1,322,339.9a9.6,9.6,0,0,1,10.5-.7,80.6,80.6,0,0,1,10.1,6.4c6.8,4.9,13.3,10.1,20.1,15q26.9,19.6,54,39c14.5,10.4,30.8,16.8,47.7,21.9,15.2,4.6,30.6,8.8,45.9,13.2,7.2,2.1,14.5,4.2,20.9,8.4,3.6,2.4,6.7,5.2,7.1,9.8,0.2,1.8-.3,3.7-0.5,6l0.9,0.6,0.5-.5c1.1-2.4.9-4.9,1-7.4s1.8-4.6,2-6.9-1.9-6.3-4.4-8.7c-4.6-4.5-10.3-7.2-16.4-9-12.7-3.9-25.4-7.6-38.1-11.3-14.3-4.2-28.8-8.1-42-15.1-10.9-5.8-21.7-11.9-32.5-18A249.3,249.3,0,0,1,372,356.7c-4.7-4-9.9-7.2-15-10.7-3.2-2.2-6.3-4.5-7.5-8.5s-3.2-4.6-5.6-5.9c-7.3-4-14.7-8.1-22.1-12-4.4-2.3-9.1-4.3-13.6-6.5a1.7,1.7,0,0,0-2.4.5c-3.1,3.6-3.2,3.5-7.5,1.7l-3.6-1.5a28.4,28.4,0,0,0,9.2-16.2c2.3-.3,4.1,2.2,6.5.9,0,0.2.1,0.5,0.1,0.8,0.1,4,.1,4,4,5.1,9.9,2.7,19.8,5.4,29.8,7.9a44.1,44.1,0,0,0,8.8,1.3,13.3,13.3,0,0,0,5.8-1,16.8,16.8,0,0,1,9-1.5c6.7,0.8,13.5,2.1,20.2,2.1,28.4,0.3,55.8,6.7,83.2,13.3,11.8,2.9,22.8,8.1,33.8,13.3,13.2,6.2,26.3,12.4,39.5,18.5a94.9,94.9,0,0,0,10.7,3.9,53.8,53.8,0,0,0,5.7,1.2l0.2,0.2h2.2l-0.3-.2c4.1-.1,7.7-0.4,10.7-2.9a1.6,1.6,0,0,1,.7-0.9l0.4-.3,0.4-.4,0.4-.5h0.1l0.2-.3H576c0.3-1.3.6-2.6,1-3.9a3.6,3.6,0,0,1,1.1-1.4,11.7,11.7,0,0,0,3.8-6.2l-1.6-.4C578.3,351.9,574.2,354,568.7,354.1ZM309.8,278.6l-2.9-6.1C310.5,273.4,310.9,274.3,309.8,278.6Zm-90.1-4a19.5,19.5,0,0,1-3.2,1.9,3.1,3.1,0,0,1-2.5-.1c-1.4-1-2.4-.8-3.4.4l-1,1.1c-1.9-3.6-2.3-3.8-5.5-1.7-0.9-.9-1.7-2.2-2.7-2.4s-2.2.9-3.4,1.5c-0.5-1.4-.5-3-1.4-4s-2.6-.1-3.7.8l-0.3-.3a0.6,0.6,0,0,1-.1-0.4c0.4-1.9,0-3.4-2.2-3.9a1,1,0,0,1-.5-0.9c0.2-1.3.2-2.4-1.3-2.9a11.9,11.9,0,0,1,2.1-1.1,2.1,2.1,0,0,1,1.7.1c2.1,1.8,2.2,1.8,4.2,0,2.4,2.6,3.1,2.7,5.6,1a9.9,9.9,0,0,0,1.7,1.9c0.8,0.5,1.9,1.2,2.6,1s2.2,0.2,3,1.3,2,1.5,2.5,1.2,1.7-.2,2.4.7a2.3,2.3,0,0,0,1.1.5l4.4,1.5a11.4,11.4,0,0,0-.2,1.4A9.1,9.1,0,0,0,219.7,274.6Zm23-23.7,6.7,2.8-0.3.7-6.6-2.8Zm-6.1-2.1,4.5,3.5-0.4.5-4.5-3.5Zm-4.9-.1,4.5,2.7-0.4.7-4.6-2.5Zm-7.1,1.6-6.6-.8C221.4,248.9,223.1,249.1,224.7,250.4Zm-59.6,2.8c0.2-2.4,1.6-3.2,3.9-3.2,8.8-.1,17.6-0.6,26.4-0.3,24.4,1,48.4,4.7,72.2,9.6,4.9,1,4.9,1,4.8,6.3-10.5.9-19.2,4.9-24,14.9l-27.4-9.8c-2.4-.9-4.5-1.8-5.2-4.6a5.2,5.2,0,0,0-.9-1.4l-2.9,2.5-0.5-1.2c-1.1-3.2-1.9-3.4-4.5-1.5-1.1.8-1.6,0.5-1.8-.7a7.8,7.8,0,0,0-.3-1.5c-0.7-1.9-2.1-2.1-3.5-.7l-1.1,1.2c-1.1-1.2-1.8-2.7-2.9-3.1s-2,1.3-3,2.1c-2-1.8-3.3-2.2-4.7-.6s-1.8.9-3,.5l-20-6.7-1.7-.7A8.2,8.2,0,0,0,165.1,253.2Zm38.1,41.9-0.6.2-1.2-3C204,292.5,203.2,293.9,203.2,295.1Zm3.7,3.4c-2.1-.8-2.3-2.4-1.6-4.4C207.7,295.3,207.8,295.5,206.9,298.4Zm2.3-2c2.4,1.4.5,3.4,1.5,5.1C207.6,300.2,209.3,298.2,209.2,296.4Zm5,8.2c-3.4-1.3-1.5-4-2.1-6.4l3.1,1.9Zm3.1,3.4c-0.6-1-1.5-1.8-1.5-2.6a20,20,0,0,1,1-4.1C218.6,302.1,218.8,303.4,217.3,308Zm3.7,1.7-1.7-.6,1-6.3c0.8,1,1.6,1.6,1.6,2.1A36.1,36.1,0,0,1,221,309.7Zm3.6,1.3-1.8-.7,0.7-4.8C225.7,306.3,225.9,307.9,224.6,310.9Zm3.1,0.9c-1.1-.6-1.1-0.6-0.2-4.5C228.7,309,227.9,310.4,227.7,311.9Zm3.3,1.2-1.5-.5,0.3-1.8,0.3-1.6C231.5,310.1,231.9,312.1,231,313.1Zm11.6,4-7.3-2.5,0.2-2.1,7.2,4.3v0.3Zm30.7,13.1c0.4-2.4.8-4.6,1.3-6.8a3,3,0,0,1,.9-1l0.5,0.3a55,55,0,0,1-.2,6.2,2.1,2.1,0,0,0,.8,2.3Zm3.5,1h0a7,7,0,0,0,.8-2c0.2-2,.1-4,0.2-6a4.4,4.4,0,0,1,.7-1.5l0.6,0.2,0.4,10.5Zm6.9,3.2c-1-1-2.2-1.6-2.3-2.4-0.3-2.8-.1-5.7-0.4-8.5s1-2.9,2.9-3Zm4.2-2.1c0,0.9-.8,1.8-1.2,2.7l-0.7-.2a11.8,11.8,0,0,1-.2-1.7c0-3.9.2-7.8,0.1-11.7,0-1.6.4-2.5,2-2.8C287.8,323.3,288,327.9,287.9,332.4Zm4.1-5c-0.1,1.3-1,2.5-1.5,3.8l-0.9-.2c0.1-3.8.3-7.6,0.1-11.4-0.1-2.2,1.1-2.9,3-3.8C292.5,319.8,292.4,323.6,292,327.4Zm6.4-10,2.9,1.2-3.4,3.9Zm-1.9,1.1c-0.3,1.7-.3,3.4-0.7,5a16.3,16.3,0,0,1-1.2,2.9l-0.6-.2,0.5-10.4C296.3,316.1,296.8,316.9,296.5,318.6Zm196,13.7-1.2-8.2c1.9,0.4,2.7,2.7,3.2,9Zm4.1,1.8-1.8-9.1c1.5,0.9,3.1,1.2,3.4,2.1a78.7,78.7,0,0,1,2,8.6Zm5.4,2.4-1.4-8.9c3.7,2.5,2,6.8,4,9.5,1.3,0,1.6-.6,1.2-1.8s-0.8-3.6-1.4-6c1.4,0.9,2.6,1.3,3,2.1a17.1,17.1,0,0,1,1.3,4.5,36.4,36.4,0,0,1,.3,3.9Zm9.2,4.1-1.4-8.9c1,0.8,2.4,1.2,2.6,2,0.8,2.7,1.2,5.5,1.7,8.6Zm4.1,2.2c1.2-3.1-1-5.6-.4-8.5a4.4,4.4,0,0,1,1.6,1.9c0.7,2.5,1.2,5.1,1.8,7.7Zm3.1,1.1,1.5-.7-1.3-7.3c1.5,1,3.3,1.4,3.7,2.4a71.4,71.4,0,0,1,2.1,8.9Zm10.7,5.4-3.1-1.4c0.4-3.2-1.4-5.8-1.3-8.6,2.4,0.8,2.5.8,3.1,2.9s1.3,4.6,1.9,6.9Zm1.8,0.9c0.7-3.1-.6-5.8-1.4-9l2.8,1.8,2.2,8.9Zm6.3,2.9a1.2,1.2,0,0,1-.6-0.7l-2.2-8.5c1.7,0.6,3,1,3.3,2.9a39.2,39.2,0,0,0,1.6,6,4.3,4.3,0,0,0,1.4,1.3l0.7-.5-2.3-7.1,0.5-.4c0.9,0.6,2.3.9,2.7,1.7,1.1,2.7,1.9,5.5,3,8.8Zm9,4c1.4-3.1-1-5.5-1.2-8.3l3.1,1.4c-0.8,3.1,1.5,5.4,1.6,8.3Zm5.8,2.2-2.6-8.1,0.5-.4a7.3,7.3,0,0,1,2.2,1.4c1.4,1.9,2.5,4,3.8,6l1.8,2.8Zm6.4-.4c-0.9-2.1-2.6-3.8-4-5.8,5.5,0.4,7,4.8,9.6,8.5C561.2,361.9,559.4,361.5,558.3,358.9Zm7.4,2.1a62.6,62.6,0,0,1-3.7-5.8c4.1,0,4.4,3.8,6.4,6C567.4,361.4,566.1,361.6,565.7,361.1Zm4.8-.4-3.3-4.5c2-.2,2-0.2,5.1,3.4Zm3.2-2.4-2.1-2.4,3.6-1.2Z"/><path d="M537.3,463.3l0.5,0.3,0.9-1.5a17,17,0,0,0-4.1-1.8c-26.5-6.9-53.1-13.4-79.6-20.3a195.9,195.9,0,0,1-77.1-39.4c-10.2-8.5-20.8-16.4-31.3-24.5-1.8-1.4-3.9-2.6-5.9-3.8a17.2,17.2,0,0,0-15.5-1.8c-3.2,1-6.4,2.1-9.6,3.1-1.4.4-2.9,0.4-4.3,0.6a7.7,7.7,0,0,0-1.7.7v0.8a12.1,12.1,0,0,0,3.5.2,49.5,49.5,0,0,0,8.7-2.5c8.2-3.6,15.4-2,22.2,3.3l25.8,20c10.1,7.9,20,16,30.9,22.7a188.6,188.6,0,0,0,48.1,20.8c14.1,4,28.3,7.6,42.5,11.2l1.3,0.5,2.8,0.6,1.7,0.5h0.3l9.3,2.3h0.5a17.8,17.8,0,0,1,3.7,1.2h1.1l16,4.1h0C531.2,461.5,534.4,462,537.3,463.3Z"/><path d="M293.9,268.4l-0.4-.2-1.1,1.2,0.7,2.7-0.3.2-1.9-1.7-1.1,1.3c5.5,6,9.4,12.6,9.7,21l1.5,0.2,0.3-.4a32.6,32.6,0,0,0-4.5-14.8,30.1,30.1,0,0,1-2-5.4C294.6,271.1,294.3,269.8,293.9,268.4Z"/><path d="M241.8,305.6h1.8l0.2-14.3L242,291Z"/><path d="M239,290.8a3,3,0,0,0-.9,1.2c0,4,.2,7.9.3,11.9l0.2,0.3,1.4-.2V291Z"/><path d="M236.8,301.9L236,289.3l-1.8.3,0.7,12Z"/><path d="M230.2,299.2l1.7,0.3,0.2-11.7-0.7-.2a8.4,8.4,0,0,0-1.1,2.6C230.2,293.2,230.2,296.2,230.2,299.2Z"/><path d="M228,288c-1.2-.4-1.7,0-1.8,1.2-0.1,2.9-.3,5.8-0.4,8.8h1.8Z"/><path d="M219,293.8l1.9,0.7,0.7-9.5h-0.7C218.4,287.3,220.1,290.8,219,293.8Z"/><path d="M224.2,286.6a3.3,3.3,0,0,0-1.2,1.1c-0.4,2.5-.6,5-0.9,7.6l1.7,0.2,1.1-8.6Z"/><path d="M213.3,291l1.1-7.6-0.8-.4a3.9,3.9,0,0,0-1.2,1.3c-0.4,1.7-.5,3.5-0.9,5.2S211.7,291.2,213.3,291Z"/><path d="M217,283.8c-2.4,2.1-1.3,5-1.8,7.6-0.1.3,0.7,0.8,1.1,1.2l0.5-.2,0.8-8.5H217Z"/><path d="M207.4,288.4l1.7,0.8,0.8-6.6c-2.3-.3-1.8,1.3-2,2.3Z"/><path d="M186.1,274.4l0.2-6h-1.8c-0.1,1.8-.2,3.5-0.1,5.2s0.8,0.9,1.2,1.3Z"/><path d="M183.3,272.8l0.3-5.8-1.8.4a39.2,39.2,0,0,1-.3,4C181.4,272.7,181.9,273,183.3,272.8Z"/><path d="M308,296.7l1.8-.2-1-5.5H308c-1.8,1.8.2,3.8,0.1,5.7H308Z"/><path d="M443.4,411.9l1,0.6c1-1.7,2.5-3.1,2.5-5.3A5.1,5.1,0,0,0,443.4,411.9Z"/><path d="M178.6,270h1.6l0.6-5.1C178.8,265.1,178.6,265.7,178.6,270Z"/><path d="M206.6,280.9c-3.2,1.1-1.2,3.6-2.8,4.9l2.1,0.9Z"/><path d="M351.2,308.2l-3.2-5c-0.4,1.1-.8,2-0.7,2.1S348.4,308.4,351.2,308.2Z"/><path d="M343.8,305.2l3.4,3.5,0.8-.6-2.6-4.3Z"/><path d="M175,267.3l1.8,1.2,1-5.1C175.2,263.9,175.9,266,175,267.3Z"/><path d="M354.6,307.7c-1.4-3.8-1.9-4.1-3.8-2.9C352.4,305.4,351.8,308.3,354.6,307.7Z"/><path d="M173.4,261.8c0.2,2-2.2,3.6.2,5.2C175,264.8,175,263.4,173.4,261.8Z"/><path d="M169.8,260.2l-0.8,4.2c2-.4,2.1-1.7,2.2-2.8a3.7,3.7,0,0,0-.7-1.6Z"/><path d="M203.4,280.1c-2.5,1.5-2.7,3-.6,4.3Z"/><path d="M165.4,261.8a4.2,4.2,0,0,0,1.5-1.3c0.1-.5-0.4-1.2-0.7-1.8h-0.6l-0.7,2.6Z"/><path d="M199.5,279.5c-2,0-1.9,1.3-1.7,2.7C200,282.3,199.5,280.8,199.5,279.5Z"/><path d="M343.6,307.5l-0.8-2.6c-0.5.8-1.2,1.4-1.1,1.7a5.4,5.4,0,0,0,1.4,1.4Z"/><path d="M246.2,258.4l-1.4.5,1.4,10.5c1.3-.1,1.9-0.3,1.6-1.7s-0.5-4.6-.8-6.9A14.6,14.6,0,0,0,246.2,258.4Z"/><path d="M249.8,269.9l1.8-.3-1.7-9.4c-0.2-1.3-.9-1.4-1.8-0.6Z"/><path d="M255,269.9c-0.2-1.6-.3-3.3-0.6-4.9s-0.8-2.6-.9-3.9-0.8-1.3-2.1-1.3c0.3,1.5.6,2.9,0.8,4.3s0.5,3.2.8,4.8a4.4,4.4,0,0,0,1,1.4Z"/><path d="M238.9,258.3l-1.8.6,1,9.9c1,0.4,1.7.4,1.6-1.1Z"/><path d="M243.3,268.5c0.4-.4,1.1-0.8,1-1.2-0.4-2.9-1-5.7-1.6-8.5a4,4,0,0,0-.6-0.9c-0.4.7-1,1.2-1,1.7,0.4,2.9,1,5.8,1.5,8.7Z"/><path d="M234.6,267.5l1.8-.4-0.6-9.1-0.5-.3c-0.4.5-1.1,1-1.1,1.5C234.3,261.9,234.5,264.6,234.6,267.5Z"/><path d="M231.7,266.5h1.8l-0.7-8.9-1.7.7Z"/><path d="M228.7,265.1h1.4a1,1,0,0,0,.2-0.4c-0.3-2.1-.5-4.3-0.8-6.3a3.6,3.6,0,0,0-1.2-1.2l-0.6.4Z"/><path d="M226.3,257.6a5.2,5.2,0,0,0-.8,1.7c-0.1,1.6.1,3.1,0.1,4.9l1.7,0.7v-7.1Z"/><path d="M224.4,262.9c-0.4-1.9-.7-3.8-1.2-5.6s-1-.5-1.8-0.9c0.4,2.4.6,4.2,1,6a3.5,3.5,0,0,0,1.3,1.1Z"/><path d="M217.9,257.4c1.3,1.2-.4,3.8,2.6,4.7a44.9,44.9,0,0,0-.6-4.7c-0.1-.3-1-0.5-1.5-0.7Z"/><path d="M215.4,255.7c-0.4.4-1.1,1.1-1,1.3s-0.5,3.2,2.1,3.6l-0.4-4.6Z"/><path d="M192,256.8c1.4,0.2,1.9-.3,1.6-1.4s0.3-2.7-2-2.1Z"/><path d="M188.6,256.6l2.1,0.2v-3.7C187.7,253.2,189.5,255.4,188.6,256.6Z"/><path d="M187.7,255.5c-0.5-1.2.4-3-2-2.8v3.1Z"/><path d="M183.6,255l-0.4-2.9h-0.8a9,9,0,0,0-.6,2.4c0,0.4.8,0.7,1.3,1Z"/><path d="M211,256.6l0.6,2.3c1.2,0.1,1.8-.1,1.5-1.4S212.3,255.9,211,256.6Z"/><path d="M180.4,252.1l-2.1.7,1.5,2.3,0.7-.3v-2.7Z"/></svg>