<?xml version="1.0" encoding="UTF-8" standalone="no"?>
<!-- Created with Inkscape (http://www.inkscape.org/) -->

<svg
   xmlns:osb="http://www.openswatchbook.org/uri/2009/osb"
   xmlns:dc="http://purl.org/dc/elements/1.1/"
   xmlns:cc="http://creativecommons.org/ns#"
   xmlns:rdf="http://www.w3.org/1999/02/22-rdf-syntax-ns#"
   xmlns:svg="http://www.w3.org/2000/svg"
   xmlns="http://www.w3.org/2000/svg"
   xmlns:xlink="http://www.w3.org/1999/xlink"
   xmlns:sodipodi="http://sodipodi.sourceforge.net/DTD/sodipodi-0.dtd"
   xmlns:inkscape="http://www.inkscape.org/namespaces/inkscape"
   width="43.900002mm"
   height="50.799999mm"
   viewBox="0 0 43.900002 50.799999"
   version="1.1"
   id="svg8"
   sodipodi:docname="driibdat.svg"
   inkscape:version="0.92.4 (5da689c313, 2019-01-14)"
   inkscape:export-filename="C:\Users\Oleg\Desktop\Stickers\READY\dribdat.png"
   inkscape:export-xdpi="104.50001"
   inkscape:export-ydpi="104.50001">
  <defs
     id="defs2">
    <linearGradient
       id="linearGradient4541"
       osb:paint="solid">
      <stop
         style="stop-color:#000000;stop-opacity:1;"
         offset="0"
         id="stop4539" />
    </linearGradient>
    <clipPath
       id="clipPath96"
       clipPathUnits="userSpaceOnUse">
      <path
         inkscape:connector-curvature="0"
         id="path94"
         d="M 0,144 H 124.708 V 0 H 0 Z" />
    </clipPath>
    <clipPath
       id="clipPath364"
       clipPathUnits="userSpaceOnUse">
      <path
         inkscape:connector-curvature="0"
         id="path362"
         d="M 0,144 H 124.708 V 0 H 0 Z" />
    </clipPath>
    <filter
       style="color-interpolation-filters:sRGB;"
       inkscape:label="Color Shift"
       id="filter4914">
      <feColorMatrix
         type="hueRotate"
         values="347"
         result="color1"
         id="feColorMatrix4910" />
      <feColorMatrix
         type="saturate"
         values="0.244792"
         result="color2"
         id="feColorMatrix4912" />
    </filter>
    <filter
       style="color-interpolation-filters:sRGB;"
       inkscape:label="Color Shift"
       id="filter4920">
      <feColorMatrix
         type="hueRotate"
         values="347"
         result="color1"
         id="feColorMatrix4916" />
      <feColorMatrix
         type="saturate"
         values="0.244792"
         result="color2"
         id="feColorMatrix4918" />
    </filter>
    <filter
       style="color-interpolation-filters:sRGB;"
       inkscape:label="Color Shift"
       id="filter4926">
      <feColorMatrix
         type="hueRotate"
         values="347"
         result="color1"
         id="feColorMatrix4922" />
      <feColorMatrix
         type="saturate"
         values="0.244792"
         result="color2"
         id="feColorMatrix4924" />
    </filter>
  </defs>
  <sodipodi:namedview
     id="base"
     pagecolor="#ffffff"
     bordercolor="#666666"
     borderopacity="1.0"
     inkscape:pageopacity="0"
     inkscape:pageshadow="2"
     inkscape:zoom="2.5600002"
     inkscape:cx="148.0713"
     inkscape:cy="33.478327"
     inkscape:document-units="mm"
     inkscape:current-layer="layer3"
     showgrid="false"
     units="in"
     inkscape:window-width="1920"
     inkscape:window-height="1027"
     inkscape:window-x="-8"
     inkscape:window-y="-8"
     inkscape:window-maximized="1"
     inkscape:snap-center="true"
     inkscape:snap-object-midpoints="true"
     inkscape:snap-page="true"
     inkscape:pagecheckerboard="true"
     inkscape:snap-global="false" />
  <metadata
     id="metadata5">
    <rdf:RDF>
      <cc:Work
         rdf:about="">
        <dc:format>image/svg+xml</dc:format>
        <dc:type
           rdf:resource="http://purl.org/dc/dcmitype/StillImage" />
        <dc:title></dc:title>
      </cc:Work>
    </rdf:RDF>
  </metadata>
  <g
     inkscape:label="Layer 1"
     inkscape:groupmode="layer"
     id="layer1"
     transform="translate(0,-246.2)">
    <path
       sodipodi:type="star"
       style="fill:#ffffec;fill-opacity:1;stroke:none;stroke-width:4;stroke-miterlimit:4;stroke-dasharray:none;stroke-dashoffset:0;stroke-opacity:1"
       id="path4596"
       sodipodi:sides="6"
       sodipodi:cx="160.07291"
       sodipodi:cy="148.03957"
       sodipodi:r1="59.309753"
       sodipodi:r2="51.363758"
       sodipodi:arg1="0.57018301"
       sodipodi:arg2="1.0937818"
       inkscape:flatsided="true"
       inkscape:rounded="0"
       inkscape:randomized="0"
       d="m 209.99999,180.05415 -52.68898,27.23083 -49.92708,-32.01458 2.7619,-59.24542 52.68898,-27.230825 49.92708,32.014585 z"
       inkscape:transform-center-x="21.95"
       inkscape:transform-center-y="-12.700002"
       transform="matrix(0.42688065,-0.01994286,0.01990022,0.42779545,-49.328054,211.46166)" />
  </g>
  <g
     inkscape:groupmode="layer"
     id="layer2"
     inkscape:label="Layer 2" />
  <g
     inkscape:groupmode="layer"
     id="layer3"
     inkscape:label="Layer 3">
    <g
       id="g4552"
       transform="matrix(0.93952007,0,0,0.93952007,4.4413069,6.7162142)">
      <g
         id="g20"
         transform="matrix(0.35277777,0,0,-0.35277777,-3.3612323,45.310969)" />
      <g
         id="g70"
         transform="matrix(0.35277777,0,0,-0.35277777,18.550465,-5.4890306)"
         style="fill:#000080">
        <path
           d="m 0,0 -62.112,-35.86 v -72.002 l 62.352,-35.999 62.354,36 v 72 L 0.48,0 Z"
           style="fill:#000080;fill-opacity:1;fill-rule:nonzero;stroke:none"
           id="path72"
           inkscape:connector-curvature="0" />
      </g>
      <g
         id="g6171"
         style="fill:#5599ff"
         transform="matrix(0.9532853,0,0,0.9532853,0.44135676,1.267265)">
        <path
           style="fill:#5599ff;stroke-width:0.05364233"
           inkscape:connector-curvature="0"
           id="path2"
           d="m 18.421774,24.567738 c 0.561528,-0.643172 0.8424,-1.403767 0.8424,-2.281945 0,-0.796374 -0.291387,-1.485464 -0.872173,-2.067753 -0.581966,-0.582233 -1.271055,-0.873188 -2.067428,-0.873188 H 12.08243 c 0.04076,-0.142904 0.08165,-0.265423 0.12241,-0.367504 0.04039,-0.102085 0.09714,-0.214516 0.16833,-0.337034 0.07123,-0.122574 0.122466,-0.214518 0.152988,-0.27567 0.183725,-0.346958 0.324375,-0.633033 0.421467,-0.857471 0.09694,-0.22487 0.193435,-0.53106 0.290743,-0.919056 0.09714,-0.387779 0.145425,-0.775934 0.145425,-1.163931 0,-0.24493 -0.0029,-0.444212 -0.0077,-0.597253 -0.0047,-0.153148 -0.03078,-0.382953 -0.07633,-0.689304 -0.04624,-0.30619 -0.107607,-0.561475 -0.183994,-0.765584 -0.0767,-0.204163 -0.199333,-0.434073 -0.367502,-0.689143 -0.168563,-0.255551 -0.372672,-0.462021 -0.612829,-0.620373 -0.240103,-0.158245 -0.546294,-0.290956 -0.918947,-0.398081 -0.373029,-0.107233 -0.793959,-0.16082 -1.2639203,-0.16082 -0.265423,0 -0.494958,0.09704 -0.6891433,0.291063 -0.204163,0.204164 -0.3780171,0.459394 -0.5208137,0.765584 -0.14301,0.306352 -0.242624,0.571828 -0.2988412,0.796536 -0.056162,0.2246 -0.1200519,0.536102 -0.1912352,0.934181 -0.092211,0.429031 -0.1608195,0.73769 -0.207059,0.926564 -0.04587,0.188876 -0.1354474,0.436435 -0.2680504,0.742678 -0.1328731,0.306458 -0.2909565,0.551337 -0.4747891,0.735222 -0.3368742,0.336874 -0.8524312,0.949522 -1.5468839,1.837734 -0.50043,0.653362 -1.015986,1.271054 -1.5468841,1.853074 -0.5310057,0.582127 -0.9189471,0.883275 -1.1639318,0.903712 -0.2550692,0.02039 -0.4746276,0.12504 -0.6584593,0.314021 -0.1838326,0.188876 -0.2757218,0.411008 -0.2757218,0.666186 v 9.817084 c 0,0.265476 0.096931,0.492544 0.2909558,0.681419 0.1939172,0.189088 0.423667,0.288595 0.6891433,0.298842 0.3573111,0.01025 1.1639315,0.23463 2.4198597,0.674069 0.786074,0.265047 1.4011373,0.467009 1.8452957,0.604657 0.4440518,0.137645 1.0647471,0.285806 1.8605311,0.444266 0.7965365,0.158191 1.5315435,0.237528 2.2052375,0.237528 h 0.260433 1.16404 0.551228 c 1.358277,-0.02039 2.363536,-0.418732 3.01722,-1.194508 0.591998,-0.704592 0.842025,-1.628636 0.750457,-2.772183 0.398133,-0.377749 0.674017,-0.857419 0.82695,-1.439546 0.173319,-0.622465 0.173319,-1.219826 0,-1.791493 0.469585,-0.622842 0.689144,-1.322229 0.658299,-2.09822 0.0013,-0.327058 -0.0751,-0.714945 -0.22857,-1.16436 z" />
        <path
           style="fill:#5599ff;stroke-width:0.05364233"
           inkscape:connector-curvature="0"
           id="path4"
           d="M 0.74148729,21.305586 H -3.6692006 c -0.2656371,0 -0.4953869,0.09704 -0.6893575,0.291063 -0.1939712,0.193918 -0.2910099,0.423667 -0.2910099,0.689144 v 9.802172 c 0,0.265099 0.097039,0.494956 0.2910633,0.689143 0.1941315,0.193703 0.4238819,0.290794 0.6893574,0.290794 h 4.41063459 c 0.26542221,0 0.49506521,-0.09709 0.68914261,-0.290794 0.1939713,-0.194187 0.2909564,-0.423989 0.2909564,-0.689143 v -9.802172 c 0,-0.265477 -0.097039,-0.495174 -0.2909564,-0.689144 -0.194024,-0.194078 -0.4236671,-0.291063 -0.68914261,-0.291063 z m -1.76134639,9.518511 c -0.1939707,0.188874 -0.423667,0.283285 -0.6891433,0.283285 -0.2757217,0 -0.5080466,-0.09442 -0.6968137,-0.283285 -0.1888745,-0.188874 -0.2832854,-0.421093 -0.2832854,-0.696813 0,-0.265422 0.094357,-0.495227 0.2832854,-0.689144 0.1888212,-0.194025 0.421092,-0.291171 0.6968137,-0.291171 0.2654763,0 0.4951726,0.09714 0.6891433,0.291171 0.19402467,0.193863 0.29106324,0.423668 0.29106324,0.689144 0,0.27572 -0.0968244,0.507885 -0.29106324,0.696813 z" />
        <path
           d="m 19.312896,24.567738 c -0.561528,-0.643172 -0.8424,-1.403767 -0.8424,-2.281945 0,-0.796374 0.291387,-1.485464 0.872173,-2.067753 0.581966,-0.582233 1.271055,-0.873188 2.067428,-0.873188 h 4.242143 c -0.04076,-0.142904 -0.08165,-0.265423 -0.12241,-0.367504 -0.04039,-0.102085 -0.09714,-0.214516 -0.16833,-0.337034 -0.07123,-0.122574 -0.122466,-0.214518 -0.152988,-0.27567 -0.183725,-0.346958 -0.324375,-0.633033 -0.421467,-0.857471 -0.09694,-0.22487 -0.193435,-0.53106 -0.290743,-0.919056 -0.09714,-0.387779 -0.145425,-0.775934 -0.145425,-1.163931 0,-0.24493 0.0029,-0.444212 0.0077,-0.597253 0.0047,-0.153148 0.03078,-0.382953 0.07633,-0.689304 0.04624,-0.30619 0.107607,-0.561475 0.183994,-0.765584 0.0767,-0.204163 0.199333,-0.434073 0.367502,-0.689143 0.168563,-0.255551 0.372672,-0.462021 0.612829,-0.620373 0.240103,-0.158245 0.546294,-0.290956 0.918947,-0.398081 0.373029,-0.107233 0.793959,-0.16082 1.263919,-0.16082 0.265423,0 0.494958,0.09704 0.689144,0.291063 0.204163,0.204164 0.378017,0.459394 0.520813,0.765584 0.14301,0.306352 0.242624,0.571828 0.298841,0.796536 0.05616,0.2246 0.120052,0.536102 0.191236,0.934181 0.09221,0.429031 0.160819,0.73769 0.207059,0.926564 0.04587,0.188876 0.135447,0.436435 0.26805,0.742678 0.132873,0.306458 0.290957,0.551337 0.474789,0.735222 0.336874,0.336874 0.852431,0.949522 1.546884,1.837734 0.50043,0.653362 1.015986,1.271054 1.546884,1.853074 0.531006,0.582127 0.918947,0.883275 1.163932,0.903712 0.255069,0.02039 0.474627,0.12504 0.658459,0.314021 0.183833,0.188876 0.275722,0.411008 0.275722,0.666186 v 9.817084 c 0,0.265476 -0.09693,0.492544 -0.290956,0.681419 -0.193917,0.189088 -0.423667,0.288595 -0.689143,0.298842 -0.357311,0.01025 -1.163932,0.23463 -2.41986,0.674069 -0.786074,0.265047 -1.401137,0.467009 -1.845295,0.604657 -0.444052,0.137645 -1.064748,0.285806 -1.860532,0.444266 -0.796536,0.158191 -1.531542,0.237528 -2.205236,0.237528 h -0.260433 -1.16404 -0.551228 c -1.358277,-0.02039 -2.363536,-0.418732 -3.01722,-1.194508 -0.591998,-0.704592 -0.842025,-1.628636 -0.750457,-2.772183 -0.398133,-0.377749 -0.674017,-0.857419 -0.82695,-1.439546 -0.173319,-0.622465 -0.173319,-1.219826 0,-1.791493 -0.469585,-0.622842 -0.689144,-1.322229 -0.658299,-2.09822 -0.0013,-0.327058 0.0751,-0.714945 0.22857,-1.16436 z"
           id="path6154"
           inkscape:connector-curvature="0"
           style="fill:#5599ff;stroke-width:0.05364233" />
        <path
           d="m 36.993182,21.305586 h 4.410688 c 0.265637,0 0.495386,0.09704 0.689357,0.291063 0.193971,0.193918 0.29101,0.423667 0.29101,0.689144 v 9.802172 c 0,0.265099 -0.09704,0.494956 -0.291063,0.689143 -0.194132,0.193703 -0.423882,0.290794 -0.689358,0.290794 h -4.410634 c -0.265423,0 -0.495066,-0.09709 -0.689143,-0.290794 -0.193971,-0.194187 -0.290956,-0.423989 -0.290956,-0.689143 v -9.802172 c 0,-0.265477 0.09704,-0.495174 0.290956,-0.689144 0.194024,-0.194078 0.423667,-0.291063 0.689143,-0.291063 z m 1.761346,9.518511 c 0.193971,0.188874 0.423667,0.283285 0.689143,0.283285 0.275722,0 0.508047,-0.09442 0.696814,-0.283285 0.188875,-0.188874 0.283285,-0.421093 0.283285,-0.696813 0,-0.265422 -0.09436,-0.495227 -0.283285,-0.689144 -0.188821,-0.194025 -0.421092,-0.291171 -0.696814,-0.291171 -0.265476,0 -0.495172,0.09714 -0.689143,0.291171 -0.194025,0.193863 -0.291063,0.423668 -0.291063,0.689144 0,0.27572 0.09682,0.507885 0.291063,0.696813 z"
           id="path6156"
           inkscape:connector-curvature="0"
           style="fill:#5599ff;stroke-width:0.05364233" />
      </g>
      <text
         xml:space="preserve"
         style="font-style:normal;font-weight:normal;font-size:11.26461601px;line-height:1.25;font-family:sans-serif;letter-spacing:0px;word-spacing:0px;fill:#ffff00;fill-opacity:1;stroke:none;stroke-width:0.28161541"
         id="text6160"
         transform="matrix(1.0725425,0,0,1.0725425,-1.3844457,-1.796655)"><textPath
           xlink:href="#path6162"
           id="textPath6164"
           style="font-style:normal;font-variant:normal;font-weight:bold;font-stretch:normal;font-size:6.75876999px;font-family:SimSun;-inkscape-font-specification:'SimSun Bold';letter-spacing:-0.55478239px;fill:#ffff00;stroke-width:0.28161541"
           dx="0">ALL YOUR HACK</textPath></text>
      <path
         style="fill:none;stroke:none;stroke-width:0.28161541px;stroke-linecap:butt;stroke-linejoin:miter;stroke-opacity:1"
         d="m 2.5331886,15.239868 c 0,0 6.6003606,-7.2603964 15.6208534,-7.2603964 11.000601,0 17.160938,7.0403844 17.160938,7.0403844"
         id="path6162"
         inkscape:connector-curvature="0"
         sodipodi:nodetypes="csc" />
      <g
         transform="matrix(0.28161541,0,0,0.28161541,10.406978,27.632705)"
         id="g21313">
        <path
           id="path20711"
           d="m 28.315072,-65.349234 c 5.913765,0 10.924037,2.053391 15.030818,6.160171 1.971254,1.971255 3.449696,4.271052 4.435321,6.735121 0.985631,2.546205 1.560581,5.25668 1.560581,8.131425 0,2.874746 -0.492814,5.585222 -1.560581,8.131426 -0.985625,2.546206 -2.546202,4.763867 -4.517457,6.652986 -2.05339,2.05339 -4.353187,3.613968 -6.981527,4.68173 -2.62834,1.067763 -5.256679,1.642713 -8.04929,1.642713 -2.792611,0 -5.420952,-0.492815 -7.967156,-1.560577 -2.546204,-1.067763 -4.846001,-2.62834 -6.817256,-4.599594 -1.971255,-1.971255 -3.5318309,-4.271052 -4.5995949,-6.817258 -1.0677627,-2.546204 -1.5605765,-5.174543 -1.5605765,-7.967154 0,-2.79261 0.4928138,-5.42095 1.5605765,-8.04929 1.067764,-2.546204 2.6283399,-4.846001 4.5995949,-6.899392 4.106781,-4.188916 9.034918,-6.242307 14.866547,-6.242307 z m 0.08213,3.778239 c -4.846003,0 -8.870648,1.642712 -12.156073,5.010273 -1.642713,1.642711 -2.956882,3.531831 -3.778238,5.667356 -0.903492,2.053392 -1.31417,4.271053 -1.31417,6.570849 0,2.217662 0.410678,4.435324 1.31417,6.488714 0.903491,2.05339 2.135525,3.942511 3.778238,5.585223 1.642713,1.642712 3.531832,2.874747 5.585222,3.778238 2.05339,0.903492 4.271053,1.31417 6.570851,1.31417 2.21766,0 4.435322,-0.410678 6.570849,-1.31417 2.135525,-0.903491 4.024645,-2.135526 5.749493,-3.778238 3.285424,-3.20329 4.928137,-7.227936 4.928137,-12.073937 0,-2.299796 -0.410679,-4.517457 -1.314171,-6.570849 -0.821356,-2.05339 -2.05339,-3.942508 -3.696102,-5.585221 -3.449696,-3.36756 -7.556477,-5.092408 -12.238206,-5.092408 z m -0.328544,13.716648 -2.792611,1.478441 c -0.328542,-0.657085 -0.657086,-1.067764 -1.067763,-1.31417 -0.410678,-0.246406 -0.821357,-0.410678 -1.232034,-0.410678 -1.88912,0 -2.792611,1.232034 -2.792611,3.696101 0,1.149899 0.246407,2.053391 0.739221,2.710476 0.492813,0.657085 1.149898,0.985627 2.135525,0.985627 1.232034,0 2.05339,-0.574949 2.628341,-1.806983 l 2.628339,1.314169 c -0.574949,1.067764 -1.314169,1.806985 -2.299797,2.381934 -0.985628,0.574949 -2.053391,0.903491 -3.20329,0.903491 -1.889118,0 -3.36756,-0.574949 -4.517459,-1.724847 -1.149898,-1.149899 -1.724848,-2.792612 -1.724848,-4.846002 0,-1.971254 0.57495,-3.613966 1.724848,-4.763865 1.149899,-1.149898 2.628341,-1.724848 4.435324,-1.724848 2.381932,0.08213 4.271053,1.149899 5.338815,3.121154 z m 12.156072,0 -2.792611,1.478441 c -0.328538,-0.657085 -0.65708,-1.067764 -1.067759,-1.31417 -0.492814,-0.246406 -0.903491,-0.328543 -1.314169,-0.328543 -1.889119,0 -2.792611,1.232035 -2.792611,3.696102 0,1.149899 0.246407,2.053391 0.73922,2.710476 0.492814,0.657084 1.149898,0.985626 2.135527,0.985626 1.232033,0 2.05339,-0.574949 2.628339,-1.806983 l 2.62834,1.314171 c -0.57495,1.067762 -1.31417,1.806983 -2.299798,2.381932 -0.985627,0.57495 -2.05339,0.903492 -3.203288,0.903492 -1.88912,0 -3.449696,-0.574949 -4.599595,-1.724848 -1.149899,-1.149899 -1.724848,-2.792611 -1.724848,-4.846002 0,-1.971253 0.574949,-3.613966 1.724848,-4.763865 1.149899,-1.067762 2.62834,-1.724848 4.353187,-1.724848 2.62834,0 4.517459,1.067764 5.585223,3.039019 z"
           inkscape:connector-curvature="0"
           style="fill:#ffff00;stroke-width:0.82135618" />
      </g>
    </g>
  </g>
</svg>
