<?xml version="1.0" encoding="UTF-8" standalone="no"?>
<svg width="181px" height="209px" viewBox="0 0 181 209" version="1.1" xmlns="http://www.w3.org/2000/svg" xmlns:xlink="http://www.w3.org/1999/xlink">
    <!-- Generator: Sketch 3.8.3 (29802) - http://www.bohemiancoding.com/sketch -->
    <title>edtech-hamburg</title>
    <desc>Created with Sketch.</desc>
    <defs></defs>
    <g id="Merch" stroke="none" stroke-width="1" fill="none" fill-rule="evenodd">
        <g id="Mule-Sticker" transform="translate(-293.000000, -69.000000)">
            <g id="Group-2" transform="translate(293.000000, 69.000000)">
                <polygon id="Polygon-1" fill="#99A5AB" points="90.5 0.745541023 181 52.6227705 181 156.377229 90.5 208.254459 -1.52589053e-12 156.377229 -1.58273394e-12 52.6227705"></polygon>
                <polygon id="Polygon-1-Copy" fill="#398887" points="90.5 14.3701445 169.189383 59.4350722 169.189383 149.564928 90.5 194.629856 11.8106165 149.564928 11.8106165 59.4350722"></polygon>
                <g id="Group-2-Copy-6" transform="translate(39.820000, 57.655172)" stroke="#E1F2F2">
                    <ellipse id="Oval-1-Copy-4" stroke-width="7.06938195" cx="49.8489041" cy="10.6797722" rx="10.8494674" ry="10.6797722"></ellipse>
                    <ellipse id="Oval-1-Copy-5" stroke-width="7.06938195" cx="49.8489041" cy="81.6858252" rx="10.8494674" ry="10.6797722"></ellipse>
                    <path d="M49.8489041,23.5208088 L49.8489041,69.8514816" id="Path-1-Copy-4" stroke-width="7.06938195"></path>
                    <g id="Group-Copy-2" transform="translate(23.803990, 67.676174) rotate(-50.000000) translate(-23.803990, -67.676174) translate(12.943990, 46.055484)" stroke-width="7.06938195">
                        <ellipse id="Oval-1-Copy-3" cx="10.8494674" cy="10.6797722" rx="10.8494674" ry="10.6797722"></ellipse>
                        <path d="M10.5562385,21.3595444 L10.5562385,42.7190888" id="Path-1-Copy-2" transform="translate(10.556239, 32.039317) scale(-1, 1) translate(-10.556239, -32.039317) "></path>
                    </g>
                    <g id="Group-Copy-3" transform="translate(77.342621, 67.676174) scale(-1, 1) rotate(-50.000000) translate(-77.342621, -67.676174) translate(66.482621, 46.055484)" stroke-width="7.06938195">
                        <ellipse id="Oval-1-Copy-3" cx="10.8494674" cy="10.6797722" rx="10.8494674" ry="10.6797722"></ellipse>
                        <path d="M10.5562385,21.3595444 L10.5562385,42.7190888" id="Path-1-Copy-2" transform="translate(10.556239, 32.039317) scale(-1, 1) translate(-10.556239, -32.039317) "></path>
                    </g>
                    <path d="M36.3603771,33.4825291 L63.337431,33.4825291" id="Path-1-Copy-5" stroke-width="5.89115163"></path>
                </g>
            </g>
        </g>
    </g>
</svg>