<svg xmlns="http://www.w3.org/2000/svg" xmlns:xlink="http://www.w3.org/1999/xlink" viewBox="0 0 140.71 162.45"><defs><style>.cls-1{fill:none;}.cls-2{clip-path:url(#clip-path);}.cls-3{fill:#2e6575;}.cls-4{fill:#58c9e9;}.cls-5{fill:#fff;}.cls-6{fill:#231f20;}</style><clipPath id="clip-path"><polygon class="cls-1" points="140.71 121.86 70.35 162.45 0 121.87 0 40.69 70.35 0.1 140.71 40.69 140.71 121.86"/></clipPath></defs><title>encryptr_hex</title><g id="Instructions"><g class="cls-2"><rect class="cls-3" x="-19.85" y="-7.13" width="176.67" height="176.67"/><polygon class="cls-4" points="132.71 117.2 70.35 153.21 8 117.2 8 45.2 70.35 9.21 132.71 45.2 132.71 117.2"/><path class="cls-5" d="M82.63,48.51q5.18,5,5.18,14.79,0,9.44-4.56,15.6T69.09,85.06q-8,0-12.71-5.45T51.67,65q0-9.84,5-15.67T70,43.48A17.51,17.51,0,0,1,82.63,48.51Z"/><path class="cls-4" d="M69.73,65.24A3.59,3.59,0,0,1,72,71.58l1.26,7.87H66.19l1.25-7.87a3.59,3.59,0,0,1,2.29-6.34Z"/><path class="cls-4" d="M58.2,61.51h0A11.66,11.66,0,0,1,69.86,49.85h0A11.66,11.66,0,0,1,81.52,61.51h0"/><path class="cls-6" d="M18.62,101.87c.06,3.67,2.41,5.19,5.13,5.19a9.83,9.83,0,0,0,4.14-.77l.46,1.95a12.11,12.11,0,0,1-5,.93c-4.6,0-7.35-3-7.35-7.54s2.66-8.06,7-8.06c4.88,0,6.18,4.29,6.18,7a10.3,10.3,0,0,1-.09,1.27Zm8-1.95c0-1.73-.71-4.42-3.77-4.42-2.75,0-4,2.53-4.17,4.42Z"/><path class="cls-6" d="M32.58,97.95c0-1.54,0-2.81-.12-4h2.41L35,96.37h.06A5.5,5.5,0,0,1,40,93.56c2.07,0,5.28,1.24,5.28,6.36v8.93H42.59v-8.62c0-2.41-.9-4.42-3.46-4.42a3.86,3.86,0,0,0-3.64,2.78,3.91,3.91,0,0,0-.19,1.27v9H32.58Z"/><path class="cls-6" d="M60.38,108.29a10,10,0,0,1-4.29.86c-4.51,0-7.44-3.06-7.44-7.63a7.6,7.6,0,0,1,8-7.94,9.08,9.08,0,0,1,3.77.77l-.62,2.1a6.3,6.3,0,0,0-3.15-.71c-3.43,0-5.28,2.53-5.28,5.65,0,3.46,2.22,5.59,5.19,5.59a7.72,7.72,0,0,0,3.34-.74Z"/><path class="cls-6" d="M63.56,98.57c0-1.76,0-3.27-.12-4.66h2.38l.09,2.93H66a4.48,4.48,0,0,1,4.14-3.27,2.93,2.93,0,0,1,.77.09v2.56a4.07,4.07,0,0,0-.93-.09c-1.91,0-3.27,1.45-3.64,3.49a7.63,7.63,0,0,0-.12,1.27v8H63.56Z"/><path class="cls-6" d="M75.42,93.9l3.27,8.83c.34,1,.71,2.16,1,3.06h.06c.28-.9.59-2,1-3.12l3-8.77h2.87l-4.08,10.65c-1.95,5.13-3.27,7.75-5.13,9.36A7.37,7.37,0,0,1,74,115.68l-.68-2.29a7.19,7.19,0,0,0,2.38-1.33A8.25,8.25,0,0,0,78,109a2,2,0,0,0,.22-.65,2.38,2.38,0,0,0-.18-.71L72.46,93.9Z"/><path class="cls-6" d="M89,98.78c0-1.91-.06-3.46-.12-4.88H91.3l.12,2.56h.06a5.88,5.88,0,0,1,5.31-2.9c3.61,0,6.33,3.06,6.33,7.6,0,5.37-3.27,8-6.79,8a5.24,5.24,0,0,1-4.6-2.35h-.06V115H89Zm2.69,4a6.06,6.06,0,0,0,.12,1.11,4.19,4.19,0,0,0,4.08,3.18c2.87,0,4.54-2.35,4.54-5.78,0-3-1.58-5.56-4.45-5.56a4.34,4.34,0,0,0-4.11,3.37,4.4,4.4,0,0,0-.19,1.11Z"/><path class="cls-6" d="M109.84,89.61V93.9h3.89V96h-3.89V104c0,1.85.53,2.9,2,2.9a6,6,0,0,0,1.58-.19l.12,2a6.66,6.66,0,0,1-2.41.37,3.77,3.77,0,0,1-2.93-1.14c-.77-.8-1-2.13-1-3.89V96h-2.32V93.9h2.32V90.32Z"/><path class="cls-6" d="M116.79,98.57c0-1.76,0-3.27-.12-4.66H119l.09,2.93h.12a4.48,4.48,0,0,1,4.14-3.27,2.93,2.93,0,0,1,.77.09v2.56a4.07,4.07,0,0,0-.93-.09c-1.92,0-3.27,1.45-3.64,3.49a7.57,7.57,0,0,0-.12,1.27v8h-2.69Z"/></g></g></svg>
