<?xml version="1.0" encoding="UTF-8" standalone="no"?>
<svg
   xmlns:dc="http://purl.org/dc/elements/1.1/"
   xmlns:cc="http://creativecommons.org/ns#"
   xmlns:rdf="http://www.w3.org/1999/02/22-rdf-syntax-ns#"
   xmlns:svg="http://www.w3.org/2000/svg"
   xmlns="http://www.w3.org/2000/svg"
   xmlns:sodipodi="http://sodipodi.sourceforge.net/DTD/sodipodi-0.dtd"
   xmlns:inkscape="http://www.inkscape.org/namespaces/inkscape"
   inkscape:export-ydpi="139.008"
   inkscape:export-xdpi="139.008"
   inkscape:export-filename="C:\Users\brice\Downloads\entity-framework.png"
   inkscape:version="1.0beta2 (21648bd, 2020-03-01)"
   sodipodi:docname="hex-image.svg"
   id="svg26"
   version="1.1"
   viewBox="0 0 198.425 198.425"
   height="198.425"
   width="198.425">
  <metadata
     id="metadata32">
    <rdf:RDF>
      <cc:Work
         rdf:about="">
        <dc:format>image/svg+xml</dc:format>
        <dc:type
           rdf:resource="http://purl.org/dc/dcmitype/StillImage" />
      </cc:Work>
    </rdf:RDF>
  </metadata>
  <defs
     id="defs30" />
  <sodipodi:namedview
     inkscape:current-layer="svg26"
     inkscape:window-maximized="0"
     inkscape:window-y="124"
     inkscape:window-x="1527"
     inkscape:cy="130.21553"
     inkscape:cx="56.532187"
     inkscape:zoom="3.0361848"
     showgrid="false"
     id="namedview28"
     inkscape:window-height="480"
     inkscape:window-width="820"
     inkscape:pageshadow="2"
     inkscape:pageopacity="0"
     guidetolerance="10"
     gridtolerance="10"
     objecttolerance="10"
     borderopacity="1"
     bordercolor="#666666"
     pagecolor="#ffffff" />
  <path
     sodipodi:nodetypes="ccccccc"
     style="display:inline;fill:#0c0c0c;fill-opacity:1"
     inkscape:connector-curvature="0"
     id="path24"
     d="m 98.925,27.212 -62.5,36 v 72.001 l 62.5,36 62.5,-36 V 63.212 Z"
     fill="#050507" />
  <g
     style="clip-rule:evenodd;fill-rule:evenodd;stroke-linecap:round;stroke-linejoin:round"
     transform="translate(-257.421,-220.443)"
     id="EF">
    <g
       id="g1507"
       transform="matrix(24,0,0,24,296.926,352.766)">
      <path
         inkscape:connector-curvature="0"
         id="path1505"
         style="fill:#512bd4;fill-rule:nonzero"
         d="M 0.5,0 H 0.08 v -0.7 h 0.404 v 0.128 H 0.238 v 0.156 h 0.229 v 0.128 H 0.238 v 0.16 H 0.5 Z" />
    </g>
    <g
       id="g1511"
       transform="matrix(24,0,0,24,309.699,352.766)">
      <path
         inkscape:connector-curvature="0"
         id="path1509"
         style="fill:#512bd4;fill-rule:nonzero"
         d="M 0.485,-0.572 H 0.238 V -0.4 h 0.227 v 0.128 H 0.238 V 0 H 0.08 v -0.7 h 0.405 z" />
    </g>
  </g>
  <g
     style="clip-rule:evenodd;fill-rule:evenodd;stroke-linecap:round;stroke-linejoin:round"
     transform="matrix(1.0703854,0,0,1.0703854,-253.94089,-228.40484)"
     id="Unicorn">
    <rect
       id="rect1514"
       style="fill:#f2f2f2;fill-rule:nonzero;stroke:#f2f2f2;stroke-width:0.5px;stroke-miterlimit:2"
       height="1.0369999"
       width="6.0479999"
       y="272.60199"
       x="311.172" />
    <path
       inkscape:connector-curvature="0"
       id="path1516"
       style="fill:#f2f2f2;fill-rule:nonzero;stroke:#f2f2f2;stroke-width:0.5px;stroke-miterlimit:2"
       d="m 318.88,272.591 h -1.273 l 3.749,-8.744 h 1.278 z" />
    <path
       inkscape:connector-curvature="0"
       id="path1518"
       style="fill:#f2f2f2;fill-rule:nonzero;stroke:#f2f2f2;stroke-width:0.5px;stroke-miterlimit:2"
       d="m 325.18,263.847 3.754,8.744 h -1.278 l -3.749,-8.744 z" />
    <rect
       id="rect1520"
       style="fill:#f2f2f2;fill-rule:nonzero;stroke:#f2f2f2;stroke-width:0.5px;stroke-miterlimit:2"
       height="1.0369999"
       width="6.0479999"
       y="272.60199"
       x="329.31601" />
    <rect
       id="rect1522"
       style="fill:#f2f2f2;fill-rule:nonzero;stroke:#f2f2f2;stroke-width:0.5px;stroke-miterlimit:2"
       height="1.0369999"
       width="6.0479999"
       y="272.60199"
       x="335.36401" />
    <rect
       id="rect1524"
       style="fill:#f2f2f2;fill-rule:nonzero;stroke:#f2f2f2;stroke-width:0.5px;stroke-miterlimit:2"
       height="1.166"
       width="3.3410001"
       y="280.80899"
       x="276.23901" />
    <rect
       id="rect1526"
       style="fill:#f2f2f2;fill-rule:nonzero;stroke:#f2f2f2;stroke-width:0.5px;stroke-miterlimit:2"
       height="1.166"
       width="3.3410001"
       y="280.80899"
       x="282.28601" />
    <rect
       id="rect1528"
       style="fill:#f2f2f2;fill-rule:nonzero;stroke:#f2f2f2;stroke-width:0.5px;stroke-miterlimit:2"
       height="1.166"
       width="3.3410001"
       y="280.80899"
       x="288.33401" />
    <path
       inkscape:connector-curvature="0"
       id="path1530"
       style="fill:#f2f2f2;fill-rule:nonzero;stroke:#f2f2f2;stroke-width:0.5px;stroke-miterlimit:2"
       d="m 293.743,280.847 v -1.042 h 4.619 v 1.042 z m 0,2.116 v -1.042 h 4.619 v 1.042 z" />
    <path
       inkscape:connector-curvature="0"
       id="path1532"
       style="fill:#f2f2f2;fill-rule:nonzero;stroke:#f2f2f2;stroke-width:0.5px;stroke-miterlimit:2"
       d="m 299.791,280.847 v -1.042 h 4.619 v 1.042 z m 0,2.116 v -1.042 h 4.619 v 1.042 z" />
    <path
       inkscape:connector-curvature="0"
       id="path1534"
       style="fill:#f2f2f2;fill-rule:nonzero;stroke:#f2f2f2;stroke-width:0.5px;stroke-miterlimit:2"
       d="m 306.784,285.471 h -1.273 l 3.749,-8.744 h 1.278 z" />
    <path
       inkscape:connector-curvature="0"
       id="path1536"
       style="fill:#f2f2f2;fill-rule:nonzero;stroke:#f2f2f2;stroke-width:0.5px;stroke-miterlimit:2"
       d="m 337.276,276.727 3.754,8.744 h -1.278 l -3.749,-8.744 z" />
    <path
       inkscape:connector-curvature="0"
       id="path1538"
       style="fill:#f2f2f2;fill-rule:nonzero;stroke:#f2f2f2;stroke-width:0.5px;stroke-miterlimit:2"
       d="m 343.324,276.727 3.754,8.744 H 345.8 l -3.749,-8.744 z" />
    <rect
       id="rect1540"
       style="fill:#f2f2f2;fill-rule:nonzero;stroke:#f2f2f2;stroke-width:0.5px;stroke-miterlimit:2"
       height="11"
       width="1.2079999"
       y="288.39899"
       x="307.547" />
    <path
       inkscape:connector-curvature="0"
       id="path1542"
       style="fill:#cccccc;fill-rule:nonzero;stroke:#cccccc;stroke-width:0.5px;stroke-miterlimit:2"
       d="m 314.164,295.215 c 0.15,0 0.29,0.027 0.419,0.083 0.129,0.055 0.241,0.13 0.336,0.225 0.094,0.095 0.169,0.207 0.222,0.336 0.054,0.129 0.081,0.267 0.081,0.414 0,0.143 -0.027,0.278 -0.081,0.405 -0.053,0.127 -0.128,0.238 -0.222,0.333 -0.095,0.095 -0.207,0.17 -0.336,0.226 -0.129,0.055 -0.269,0.083 -0.419,0.083 -0.143,0 -0.278,-0.028 -0.403,-0.083 -0.125,-0.056 -0.234,-0.131 -0.328,-0.226 -0.093,-0.095 -0.166,-0.206 -0.22,-0.333 -0.054,-0.127 -0.08,-0.262 -0.08,-0.405 0,-0.147 0.026,-0.285 0.08,-0.414 0.054,-0.129 0.127,-0.241 0.22,-0.336 0.094,-0.095 0.203,-0.17 0.328,-0.225 0.125,-0.056 0.26,-0.083 0.403,-0.083 z" />
    <path
       inkscape:connector-curvature="0"
       id="path1544"
       style="fill:#f2f2f2;fill-rule:nonzero;stroke:#f2f2f2;stroke-width:0.5px;stroke-miterlimit:2"
       d="m 343.324,289.607 3.754,8.744 H 345.8 l -3.749,-8.744 z" />
    <rect
       id="rect1546"
       style="fill:#f2f2f2;fill-rule:nonzero;stroke:#f2f2f2;stroke-width:0.5px;stroke-miterlimit:2"
       height="11"
       width="1.2079999"
       y="288.39899"
       x="349.88199" />
    <path
       inkscape:connector-curvature="0"
       id="path1548"
       style="fill:#f2f2f2;fill-rule:nonzero;stroke:#f2f2f2;stroke-width:0.5px;stroke-miterlimit:2"
       d="m 355.419,289.607 3.755,8.744 h -1.279 l -3.749,-8.744 z" />
    <rect
       id="rect1550"
       style="fill:#f2f2f2;fill-rule:nonzero;stroke:#f2f2f2;stroke-width:0.5px;stroke-miterlimit:2"
       height="11"
       width="1.2079999"
       y="301.27802"
       x="307.547" />
    <path
       inkscape:connector-curvature="0"
       id="path1552"
       style="fill:#f2f2f2;fill-rule:nonzero;stroke:#f2f2f2;stroke-width:0.5px;stroke-miterlimit:2"
       d="m 325.271,302.068 c 0.878,0.731 1.531,1.519 1.961,2.366 0.429,0.847 0.644,1.759 0.644,2.737 0,0.544 -0.064,1.058 -0.193,1.541 -0.129,0.483 -0.309,0.94 -0.54,1.37 -0.231,0.429 -0.507,0.831 -0.83,1.206 -0.322,0.374 -0.676,0.722 -1.063,1.044 l -0.752,-0.746 c 0.702,-0.627 1.228,-1.306 1.579,-2.036 0.351,-0.73 0.526,-1.497 0.526,-2.299 0,-0.809 -0.175,-1.59 -0.526,-2.342 -0.351,-0.752 -0.877,-1.439 -1.579,-2.062 z" />
    <path
       inkscape:connector-curvature="0"
       id="path1554"
       style="fill:#f2f2f2;fill-rule:nonzero;stroke:#f2f2f2;stroke-width:0.5px;stroke-miterlimit:2"
       d="m 349.371,302.487 3.755,8.744 h -1.279 l -3.749,-8.744 z" />
    <path
       inkscape:connector-curvature="0"
       id="path1556"
       style="fill:#f2f2f2;fill-rule:nonzero;stroke:#f2f2f2;stroke-width:0.5px;stroke-miterlimit:2"
       d="m 355.419,302.487 3.755,8.744 h -1.279 l -3.749,-8.744 z" />
    <path
       inkscape:connector-curvature="0"
       id="path1558"
       style="fill:#f2f2f2;fill-rule:nonzero;stroke:#f2f2f2;stroke-width:0.5px;stroke-miterlimit:2"
       d="m 361.467,302.487 3.755,8.744 h -1.279 l -3.749,-8.744 z" />
    <path
       inkscape:connector-curvature="0"
       id="path1560"
       style="fill:#f2f2f2;fill-rule:nonzero;stroke:#f2f2f2;stroke-width:0.5px;stroke-miterlimit:2"
       d="m 307.036,315.367 3.755,8.744 h -1.278 l -3.749,-8.744 z" />
    <rect
       id="rect1562"
       style="fill:#f2f2f2;fill-rule:nonzero;stroke:#f2f2f2;stroke-width:0.5px;stroke-miterlimit:2"
       height="1.0369999"
       width="6.0479999"
       y="324.12201"
       x="311.172" />
    <path
       inkscape:connector-curvature="0"
       id="path1564"
       style="fill:#f2f2f2;fill-rule:nonzero;stroke:#f2f2f2;stroke-width:0.5px;stroke-miterlimit:2"
       d="m 318.88,324.111 h -1.273 l 3.749,-8.744 h 1.278 z" />
    <rect
       id="rect1566"
       style="fill:#f2f2f2;fill-rule:nonzero;stroke:#f2f2f2;stroke-width:0.5px;stroke-miterlimit:2"
       height="11"
       width="1.2079999"
       y="314.15799"
       x="331.73801" />
    <path
       inkscape:connector-curvature="0"
       id="path1568"
       style="fill:#f2f2f2;fill-rule:nonzero;stroke:#f2f2f2;stroke-width:0.5px;stroke-miterlimit:2"
       d="m 349.119,324.111 h -1.273 l 3.749,-8.744 h 1.278 z" />
    <path
       inkscape:connector-curvature="0"
       id="path1570"
       style="fill:#f2f2f2;fill-rule:nonzero;stroke:#f2f2f2;stroke-width:0.5px;stroke-miterlimit:2"
       d="m 355.167,324.111 h -1.273 l 3.749,-8.744 h 1.278 z" />
    <rect
       id="rect1572"
       style="fill:#f2f2f2;fill-rule:nonzero;stroke:#f2f2f2;stroke-width:0.5px;stroke-miterlimit:2"
       height="11"
       width="1.2079999"
       y="314.15799"
       x="361.97699" />
    <path
       inkscape:connector-curvature="0"
       id="path1574"
       style="fill:#f2f2f2;fill-rule:nonzero;stroke:#f2f2f2;stroke-width:0.5px;stroke-miterlimit:2"
       d="m 367.515,315.367 3.754,8.744 h -1.278 l -3.749,-8.744 z" />
    <path
       inkscape:connector-curvature="0"
       id="path1576"
       style="fill:#f2f2f2;fill-rule:nonzero;stroke:#f2f2f2;stroke-width:0.5px;stroke-miterlimit:2"
       d="m 373.563,315.367 3.754,8.744 h -1.278 l -3.749,-8.744 z" />
    <path
       inkscape:connector-curvature="0"
       id="path1578"
       style="fill:#f2f2f2;fill-rule:nonzero;stroke:#f2f2f2;stroke-width:0.5px;stroke-miterlimit:2"
       d="m 324.928,336.991 h -1.273 l 3.749,-8.744 h 1.278 z" />
    <path
       inkscape:connector-curvature="0"
       id="path1580"
       style="fill:#f2f2f2;fill-rule:nonzero;stroke:#f2f2f2;stroke-width:0.5px;stroke-miterlimit:2"
       d="m 349.371,328.247 3.755,8.744 h -1.279 l -3.749,-8.744 z" />
    <path
       inkscape:connector-curvature="0"
       id="path1582"
       style="fill:#f2f2f2;fill-rule:nonzero;stroke:#f2f2f2;stroke-width:0.5px;stroke-miterlimit:2"
       d="m 355.419,328.247 3.755,8.744 h -1.279 l -3.749,-8.744 z" />
    <path
       inkscape:connector-curvature="0"
       id="path1584"
       style="fill:#f2f2f2;fill-rule:nonzero;stroke:#f2f2f2;stroke-width:0.5px;stroke-miterlimit:2"
       d="m 361.467,328.247 3.755,8.744 h -1.279 l -3.749,-8.744 z" />
    <path
       inkscape:connector-curvature="0"
       id="path1586"
       style="fill:#f2f2f2;fill-rule:nonzero;stroke:#f2f2f2;stroke-width:0.5px;stroke-miterlimit:2"
       d="m 367.263,336.991 h -1.273 l 3.749,-8.744 h 1.278 z" />
    <path
       inkscape:connector-curvature="0"
       id="path1588"
       style="fill:#f2f2f2;fill-rule:nonzero;stroke:#f2f2f2;stroke-width:0.5px;stroke-miterlimit:2"
       d="m 373.563,328.247 3.754,8.744 h -1.278 l -3.749,-8.744 z" />
    <path
       inkscape:connector-curvature="0"
       id="path1590"
       style="fill:#f2f2f2;fill-rule:nonzero;stroke:#f2f2f2;stroke-width:0.5px;stroke-miterlimit:2"
       d="m 379.611,328.247 3.754,8.744 h -1.278 l -3.749,-8.744 z" />
  </g>
</svg>
