<svg id="Layer_1" data-name="Layer 1" xmlns="http://www.w3.org/2000/svg" xmlns:xlink="http://www.w3.org/1999/xlink" viewBox="0 0 735 852"><defs><style>.cls-1{fill:#1e7b42;}.cls-2{clip-path:url(#clip-path);}.cls-3{fill:#144f85;}.cls-4{fill:#e6b35a;}.cls-5,.cls-7{fill:#fff;}.cls-6{fill:#173e6c;}.cls-7,.cls-8{fill-rule:evenodd;}.cls-8,.cls-9{fill:#231f20;}</style><clipPath id="clip-path"><polygon class="cls-1" points="369.5 7.4 728.2 214.5 728.2 636.6 369.5 845 2.8 636.6 2.8 214.5 369.5 7.4"/></clipPath></defs><title>RStudio_Hex 2016 v7 outlines</title><polygon class="cls-1" points="369.5 7.4 728.2 214.5 728.2 636.6 369.5 845 2.8 636.6 2.8 214.5 369.5 7.4"/><g class="cls-2"><circle class="cls-3" cx="365.5" cy="437.4" r="442.1"/><ellipse class="cls-3" cx="366.9" cy="105.8" rx="315.2" ry="234.6"/></g><path class="cls-4" d="M367,633.9l0.9-.9h-0.3Z"/><path class="cls-5" d="M158.2,594.9V528.2H147.3V517.4h10.9v-3.7c0-10.9,2.4-20.8,9-27a26.9,26.9,0,0,1,18.9-7.2,32.7,32.7,0,0,1,12,2.2l-1.9,10.9a21,21,0,0,0-9-1.8c-12,0-15,10.6-15,22.4v4.2h18.7v10.7H172.1v66.7H158.2Z"/><path class="cls-5" d="M204.1,558.7c0.3,19,12.5,26.9,26.6,26.9,10.1,0,16.2-1.8,21.4-4l2.4,10.1c-5,2.2-13.4,5-25.8,5-23.8,0-38.1-15.8-38.1-39.2s13.8-41.8,36.3-41.8c25.3,0,32,22.2,32,36.5a53.2,53.2,0,0,1-.5,6.6H204.1Zm41.3-10.1c0.2-9-3.7-22.9-19.5-22.9-14.2,0-20.5,13.1-21.6,22.9h41.1Z"/><path class="cls-5" d="M325.7,576.3a109,109,0,0,0,1.3,18.6H314.2l-1.1-9.8h-0.5c-4.3,6.1-12.6,11.5-23.7,11.5-15.7,0-23.7-11-23.7-22.2,0-18.7,16.6-29,46.6-28.8V544c0-6.4-1.8-17.9-17.6-17.9a38.6,38.6,0,0,0-20.2,5.8l-3.2-9.3c6.4-4.2,15.7-6.9,25.4-6.9,23.7,0,29.4,16.2,29.4,31.7v29Zm-13.6-21c-15.4-.3-32.8,2.4-32.8,17.4,0,9.1,6.1,13.4,13.3,13.4a19.3,19.3,0,0,0,18.7-13,14.7,14.7,0,0,0,.8-4.5V555.4Z"/><path class="cls-5" d="M359.7,498.9v18.6h20.2v10.7H359.7v41.8c0,9.6,2.7,15,10.6,15a26.3,26.3,0,0,0,8.2-1l0.6,10.6a33.9,33.9,0,0,1-12.5,2.1c-6.6,0-11.8-2.2-15.2-6.1s-5.4-11-5.4-20.2V528.2h-12V517.4h12V503.2Z"/><path class="cls-5" d="M390.5,481.3h14.1v48.3h0.3a26.1,26.1,0,0,1,10.1-9.9,29,29,0,0,1,14.4-4c10.4,0,27,6.4,27,33.1v46.1H442.4V550.4c0-12.5-4.6-23-17.9-23-9.1,0-16.3,6.4-18.9,14.1a17.1,17.1,0,0,0-1,6.7v46.7H390.5V481.3Z"/><path class="cls-5" d="M482.1,558.7c0.3,19,12.5,26.9,26.6,26.9,10.1,0,16.2-1.8,21.4-4l2.4,10.1c-5,2.2-13.4,5-25.8,5-23.8,0-38.1-15.8-38.1-39.2s13.8-41.8,36.3-41.8c25.3,0,32,22.2,32,36.5a53.1,53.1,0,0,1-.5,6.6H482.1Zm41.3-10.1c0.2-9-3.7-22.9-19.5-22.9-14.2,0-20.5,13.1-21.6,22.9h41.1Z"/><path class="cls-5" d="M549.3,541.6c0-9.1-.2-17-0.6-24.2h12.3l0.5,15.2h0.6c3.5-10.4,12-17,21.4-17a15.2,15.2,0,0,1,4,.5v13.3a21.1,21.1,0,0,0-4.8-.5c-9.9,0-17,7.5-18.9,18.1a39.7,39.7,0,0,0-.6,6.6v41.3H549.3V541.6Z"/><path class="cls-6" d="M705.6,196.2L427.8,35.8,367.5,1,307.2,35.8,29.4,196.2,0.1,213.1V637.4l29.3,16.9L310.6,816.7l56.9,32.8,56.9-32.8L705.6,654.3l29.3-16.9V213.1Zm0,425.3L367.5,816.7,29.4,621.5V231L367.5,35.8h0L705.6,231V621.5Z"/><path class="cls-5" d="M365.5,797.3l4.5,4.5,2.7,2.9h0.1c-0.4-1.2-.7-2.5-1-3.9l-1.4-6.3,1.6-.9,4.7,4.3,2.9,2.9h0.1a36.6,36.6,0,0,1-1.2-3.9l-1.6-6.1,1.9-1.1,2.7,12.4-1.7,1-4.5-4.1a40.5,40.5,0,0,1-2.9-2.9h0a35.5,35.5,0,0,1,1.1,4l1.2,5.9-1.7,1-9.2-8.6Z"/><path class="cls-5" d="M381.7,787.9l4.5,4.5,2.7,2.9h0.1c-0.4-1.2-.7-2.5-1-3.9l-1.4-6.3,1.6-.9,4.7,4.3,2.9,2.9h0.1a36.4,36.4,0,0,1-1.2-3.9l-1.6-6.1,1.9-1.1,2.7,12.4-1.7,1-4.5-4.1a40.5,40.5,0,0,1-2.9-2.9h0a35.4,35.4,0,0,1,1.1,4l1.2,5.9-1.7,1-9.2-8.6Z"/><path class="cls-5" d="M397.8,778.5l4.5,4.5,2.7,2.9h0.1c-0.4-1.2-.7-2.5-1-3.9l-1.4-6.3,1.6-.9L409,779l2.9,2.9h0.1a36.3,36.3,0,0,1-1.2-3.9l-1.6-6.1,1.9-1.1,2.7,12.4-1.7,1-4.5-4.1a40,40,0,0,1-2.9-2.9h0a35.2,35.2,0,0,1,1.1,4l1.2,5.9-1.7,1-9.2-8.6Z"/><path class="cls-5" d="M419.2,780.4a1.6,1.6,0,1,1,.5-2.1,1.5,1.5,0,0,1-.5,2.1h0Z"/><path class="cls-5" d="M418.5,770.8l-2-3.2,1.7-1,1.3,2h0.1a3.6,3.6,0,0,1,1.6-4l0.6-.2,1,1.8-0.7.3a3.1,3.1,0,0,0-1.1,3.9l0.4,0.9,3.2,5.6-1.9,1.1Z"/><path class="cls-5" d="M428.4,772.1a5.8,5.8,0,0,0,2.9-.7c1.4-.8,1.6-1.9,1.1-2.7s-1.4-1.1-3.1-.8-3.8-.1-4.5-1.3-0.4-3.9,1.8-5.2a6,6,0,0,1,2.9-.8l0.3,1.7a4.7,4.7,0,0,0-2.5.6,1.8,1.8,0,0,0-.9,2.4c0.5,0.9,1.4.9,3,.6s3.7,0,4.6,1.6,0.4,4-2.1,5.4a6.9,6.9,0,0,1-3.4,1Z"/><path class="cls-5" d="M433.1,754.6l1.5,2.5,2.7-1.6,0.8,1.4-2.7,1.6,3.3,5.6c0.8,1.3,1.6,1.8,2.6,1.2l1-.8,0.9,1.4a5.3,5.3,0,0,1-1.5,1.3,3.1,3.1,0,0,1-2.5.4,4.5,4.5,0,0,1-2.3-2.3l-3.3-5.7-1.6.9-0.8-1.4,1.6-.9-1.1-1.9Z"/><path class="cls-5" d="M452.6,756.8l1.7,2.8-1.7,1-1.1-1.6h0a4.6,4.6,0,0,1-2.3,4c-1.6,1-4.1,1.2-6.3-2.5l-3.6-6.1,1.9-1.1,3.4,5.8c1.2,2,2.5,3,4.3,2a3.2,3.2,0,0,0,1.5-3.2,3.2,3.2,0,0,0-.4-1.1l-3.7-6.4,1.9-1.1Z"/><path class="cls-5" d="M457.5,737.2l7.4,12.6,1.7,2.6-1.7,1-1.1-1.8h0a4.5,4.5,0,0,1-2.4,4.1c-2.5,1.5-5.7.5-7.6-2.7s-1.1-6.9,1.4-8.3a4,4,0,0,1,4.1-.2h0l-3.6-6.2Zm3.4,10.2-0.6-.7a3.2,3.2,0,0,0-4-.6c-2,1.1-2.1,3.6-.8,5.9s3.3,3.3,5.3,2.1a3.3,3.3,0,0,0,1.5-3.9,3.8,3.8,0,0,0-.4-0.9Z"/><path class="cls-5" d="M463.9,736.1a1.4,1.4,0,0,1-2.4,1.4,1.3,1.3,0,0,1,.5-1.9A1.3,1.3,0,0,1,463.9,736.1Zm5.7,14.6-6.1-10.5,1.9-1.1,6.1,10.5Z"/><path class="cls-5" d="M481,736.9c2.3,3.9.6,7.1-2,8.6s-6.2.8-8.1-2.5-0.9-6.9,2-8.6S479.1,733.7,481,736.9Zm-8.2,4.9c1.3,2.3,3.7,3.2,5.5,2.2s2.2-3.6.8-5.9-3.2-3.5-5.5-2.2S471.6,739.9,472.8,741.9Z"/><path class="cls-5" d="M486.9,740.9a1.6,1.6,0,1,1,.5-2.1,1.5,1.5,0,0,1-.5,2.1h0Z"/><path class="cls-5" d="M497.7,733.8a8,8,0,0,1-2.6,2.4c-3.2,1.8-6.5.9-8.3-2.3a6.1,6.1,0,0,1,2.4-8.8,7.3,7.3,0,0,1,2.9-1l0.4,1.7a5.1,5.1,0,0,0-2.5.8c-2.4,1.4-2.7,3.9-1.4,6.1s3.8,3,5.9,1.8a6.2,6.2,0,0,0,2-1.9Z"/><path class="cls-5" d="M506.4,722.2c2.3,3.9.6,7.1-2,8.6s-6.2.8-8.1-2.5-0.9-6.9,2-8.6S504.5,719,506.4,722.2Zm-8.2,4.9c1.3,2.3,3.7,3.3,5.5,2.2s2.2-3.6.8-5.9-3.2-3.5-5.5-2.2S497,725.1,498.1,727.1Z"/><path class="cls-5" d="M507.4,718.5l-1.7-2.8,1.7-1,1.1,1.6h0.1a4.2,4.2,0,0,1,2.2-3.8,3.6,3.6,0,0,1,4.2.4h0a5,5,0,0,1,.4-2,4.1,4.1,0,0,1,1.9-2.1c1.4-.8,4-1.1,6.1,2.5l3.6,6.2-1.9,1.1-3.4-5.9c-1.2-2-2.6-2.8-4.1-1.9a2.9,2.9,0,0,0-1.2,3,3.6,3.6,0,0,0,.4,1l3.8,6.5-1.9,1.1-3.6-6.3c-1-1.7-2.4-2.4-3.9-1.6a3,3,0,0,0-1.2,3.3,3.1,3.1,0,0,0,.4,1l3.7,6.3-1.9,1.1Z"/><path class="cls-7" d="M360.8,205.8c-31.7,78-51.7,152.8-59,238.5-1.6,18.6-.9,37.8-1.5,57.5,2.2-6.9,8.1-16.6,9.4-28.4,1.8-94.1,14.3-165.1,51.2-267.7h0Z"/><path class="cls-8" d="M309.7,446.6h0v-0.5a4.9,4.9,0,0,0-.9-4.1,3.7,3.7,0,0,0-3-1.4h-0.4c-1.3.1-4.3,0.4-4.6,2l-0.6,2.6-1.9-1.9-1.9-2c-3.8-4-7.4-7.7-10.8-7.7s-4.2,1.4-6.4,4.4l-2.7,3.5V437a16.3,16.3,0,0,1,4.3-11.7,11.5,11.5,0,0,1,6.6-3.4c-4.5-4-9.5-6.2-16.4-9.3l-5-2.3,1.7-1.5a14.7,14.7,0,0,1,10.1-3.6,24.7,24.7,0,0,1,8.6,1.7c-3.6-7.6-5.7-17-6-27.5s2.2-36.5,6.1-45.1l1.5-3.4,1.2,3.5,0.4,1.2c-2-10.8-2.4-21.6-1-30.7s10.5-46.3,15.3-55,9.9-19.3,10.6-20.7,2-7.2,8-19.8,16-28.2,16.8-29.4c1.5-3,3.2-5.7,4.8-8.4s3.3-5.4,4.7-8.3c0.4-.8,10-18.9,15.9-26.8l0.6-.8a106.6,106.6,0,0,1,7.6-9.4l3-3.1-0.4,3.5a8.5,8.5,0,0,1,3.6-3.4l0.5-.3a72.9,72.9,0,0,1,17.4-11.8c10-5,15.7-7.4,20.8-7.4a21.6,21.6,0,0,1,7.7,1.6c1.9,0.7,3.7,3.1,5.4,7.2,6.2,14.8,10.3,49.4,3.6,64-5,10.9-8.5,17.1-11.7,21.3a41,41,0,0,1,6.5-1.2l3.9-.5-2.6,3c-4.4,5-7.2,16.3-10.3,28.2-3.5,13.9-7.2,28.3-13.9,36.7-1.9,2.8-3.6,5.7-5.2,8.6s-3.2,5.6-5,8.3a71.5,71.5,0,0,1,0,13c-0.2,3-.4,6-0.3,9.2h0c-0.1.6-1.4,16-5.6,27.2l-2.9,8a146.6,146.6,0,0,1-6.8,17,47.6,47.6,0,0,1-7.8,11.5,114.5,114.5,0,0,0,13-10.2l3-2.8-0.5,4.1c-3.7,29.1-18,36.9-28.8,41.2a20.2,20.2,0,0,1,11.3,3.8l3.3,2.2-3.9.5c-7.9,1.1-13.4,4.6-18.8,8a71.6,71.6,0,0,1-6.7,3.9,8.2,8.2,0,0,1,5.2,7v1.8l-1.8-.2a86.6,86.6,0,0,0-9.3-.7,20.3,20.3,0,0,0-7.2,1.1,43.2,43.2,0,0,1,5.6,2,18.7,18.7,0,0,0,7.3,1.9h1.7l-0.2,1.7c-0.8,6-7,6-9.9,6h-7.5c-6.5,0-13,1.1-16.5,8.7l-2.3,5Z"/><path class="cls-9" d="M418,105.3a20.3,20.3,0,0,1,7.2,1.5c7.8,2.9,16.3,51.3,8.1,69.1s-12.4,22.8-17.5,27.8c5.5-4,6.7-4.7,13.9-5.6-9.7,11.2-11.8,49.5-24.2,65-3.9,5.7-6.7,11.7-10.6,17.4,1,8.1-.5,14.7-0.2,22.6,0,0-1.4,15.6-5.5,26.9s-6.1,17.9-9.6,24.8c-5.9,11.7-11,13.9-17.7,20.6A123.3,123.3,0,0,0,387.3,358c-5.1,39.4-29.3,38.3-38.6,44.8a44,44,0,0,1,10.9-1.9,18.6,18.6,0,0,1,10.9,3.6c-14.8,2-21.8,12.4-31.8,14.1h1.8c4.9,0,8.2,2.8,8.5,6.5a88.2,88.2,0,0,0-9.5-.7,20.2,20.2,0,0,0-11.9,3.2c8.3,0.9,11.5,4.7,17.6,4.8-0.6,4-3.9,4.7-8.4,4.7l-7.5-.2c-6.8,0-14.1,1.2-17.9,9.6h0c0.7-3.3-1.2-7.2-5.4-7.2h-0.5c-2.8.2-5.5,1-6,3.1-4.9-4.9-9.2-10.2-13.8-10.2-2.4,0-4.9,1.4-7.6,5,0-8.8,5.5-13.7,10.8-13.7a8.3,8.3,0,0,1,2.7.5c-6.2-6.8-12.7-9.3-22.7-13.9a13.3,13.3,0,0,1,9.1-3.3,25.3,25.3,0,0,1,12.1,3.6c-1.4-2.2-7.5-12.1-8-30.9,0.2-11.1,2.2-36.1,5.9-44.5,1.3,3.6,3.8,10.2,6.9,14.7-4.4-13.5-6.7-30.3-4.5-44.5,1.6-10.2,10.5-46.1,15.1-54.5s10.7-20.9,10.7-20.9,1.4-6,8-19.7a309.1,309.1,0,0,1,16.8-29.3c2.9-5.9,6.7-10.9,9.6-16.7,0,0,9.8-18.7,15.7-26.6a117.3,117.3,0,0,1,8-10,66.3,66.3,0,0,0-.1,11.1c1.5-13.3,5.5-13.3,6.7-14.4a71.5,71.5,0,0,1,17.1-11.6c10.3-5.1,15.5-7.2,20.1-7.2m0-3c-5.4,0-11.2,2.4-21.4,7.5a74.1,74.1,0,0,0-17.6,11.9l-0.3.2-1,.6,0.4-3.5-6.1,6.2a107.4,107.4,0,0,0-7.7,9.5l-0.6.8c-6,8-15.6,26.2-16,27h0c-1.4,2.8-3,5.4-4.7,8.1s-3.3,5.5-4.9,8.4a306.9,306.9,0,0,0-16.9,29.5c-5.8,12.1-7.7,18.4-8.1,19.9s-6.4,13-10.5,20.5-13.9,45.4-15.4,55.5a91.6,91.6,0,0,0-.1,24.4l-2.1,4.6c-4.4,9.7-6.1,36.9-6.2,45.7h0c0.2,6.9,1.3,16.3,4.8,25a23.8,23.8,0,0,0-5.9-.8,16.2,16.2,0,0,0-11.1,4l-3.5,3.1,4.2,1.9,2.9,1.3c5.6,2.5,9.9,4.5,13.7,7.3a13.5,13.5,0,0,0-4.4,3,17.7,17.7,0,0,0-4.7,12.8v8.9l5.4-7.1c1.9-2.5,3.7-3.8,5.2-3.8s6.3,3.7,9.7,7.3l1.9,2,3.7,3.8,1.3-5.2h0s0.6-.7,3.3-0.9h0.3a2.2,2.2,0,0,1,1.9.8,3.5,3.5,0,0,1,.6,2.8v1.2l1.2,10.8,4.5-10c3-6.5,8.2-7.8,15.2-7.8h7.5c3.1,0,10.4,0,11.4-7.3l0.5-3.4h-3.4c-2.4,0-4.3-.8-6.8-1.8l-0.4-.2h1.5a85.2,85.2,0,0,1,9.2.6l3.6,0.4-0.2-3.6a9.3,9.3,0,0,0-3.6-6.8l4.4-2.7c5.2-3.3,10.6-6.7,18.2-7.8l7.9-1.1-6.6-4.4a24.4,24.4,0,0,0-6.8-3.3c10.2-5,21.6-14.5,24.9-40.3l1-8.1-6,5.5-4.9,4.2,2-3.7a147.7,147.7,0,0,0,6.8-17.1l2.9-8c4.3-11.5,5.7-27,5.7-27.6v-0.4c-0.1-3.1.1-6.2,0.3-9.1a74.8,74.8,0,0,0,0-12.7c1.7-2.7,3.3-5.3,4.8-8s3.3-5.7,5.1-8.4c6.9-8.7,10.6-23.2,14.1-37.2,3-11.8,5.8-22.8,9.9-27.6l5.1-5.9-7.8,1-2.9.4a145.8,145.8,0,0,0,9.6-18.5c7-15.4,2.7-50.2-3.6-65.2-1.9-4.6-3.9-7.1-6.3-8a23,23,0,0,0-8.2-1.7h0Z"/><path class="cls-7" d="M293.8,415.4c-0.6-1-9.3-22.5-9-40.4,0.2-10.6,1.6-24.2,4-31.4,2.5,3.9,8.6,20,13.3,23.2-4.7-11.3-9.2-35.1-9.6-42.8s-0.4-15.4.3-20.2c0.4-2.4,1.2-6.3,2.3-11-0.3,11.4.1,24.4,2.6,32.9-2.1-24.8-1.9-50.3,10-73.8,4.4-8,10.2-20.1,10.2-20.1s1.3-5.7,7.6-18.9c2.3-4.8,5-9.8,7.6-14.3a50,50,0,0,0,2.6,14.4c-0.7-6.4-1-12-1.1-16.9,3.8-6.5,6.9-11.3,6.9-11.3,2.8-5.6,6.6-10.4,9.4-16,0,0,8.9-18.4,14.5-26a97.2,97.2,0,0,1,7.1-8.5c-0.6,1.6-.4,10.9,1,17.1,1.4-12.8,4.3-21.4,5.5-22.5a79,79,0,0,1,17.5-11.9c14.7-7.4,19.3-10.3,26.7-7.5,1.6,0.6,3.2,3.3,4.6,7.2a106.2,106.2,0,0,0-9.8,7.5l10.4-5.8c4.7,15.1,7.1,44.9,1.3,57.8-7.7,17.1-18.9,30.1-22.4,32.5,6.7,0.5,10.3-5.3,17.2-6.2-5.5,7.2-8.4,26.8-13.9,43-6.3,8.9-12.9,16.8-18.9,20.8,5.1-2.1,10.9-7.7,16.6-14.8a45.4,45.4,0,0,1-6,10.8l-8.6,12.9c-0.8,1.2-6,6-11.6,12,3.9-2.6,7.1-4.9,9.6-5.7,0.2,6.3.1,13.8,0.3,20.1,0,0-1.3,15-5.3,25.8s-6.2,18.6-9.5,25.2c-5.6,11.2-23.3,24.7-31,35.5,12.1-10,28.9-14.1,35.9-21.8a45.5,45.5,0,0,1-1.9,7.5c-4.3,3.6-9.1,7.5-14.7,11.6a74.1,74.1,0,0,0,13.5-8.7c-8.1,17.6-26.6,18.1-42.4,30.7,7.4,1,16.4-6.4,25.1-3.3-8.5,2.2-23.9,16.6-40.1,15.6,2.4,4.3,17-3.5,22.8,2-12.8-1.7-16.5,4.2-23.6,7.1,9.3-1.4,14.3,3.8,20.2,4.4-7.5,4.3-18.5-7-30.8,10.2-0.3.5-1.3,15.5-1.7,16-2.5-.8-4.1-10.8-6.5-12.9-0.2-.2-0.7-6.8-0.9-7-7.2-6.8-13.9-15.9-21.4-6.9,3.2-8.8,10.7-8.2,16.2-6.2-4.6-9-12.8-12.4-22.3-16.8,7.2-2.5,17.5,3.9,19.9,5.4h0Z"/><path class="cls-8" d="M329.7,350.5c9.6-19.3,33.2-15.2,44.3-46.3-9.6,24.5-37.3,26.2-44.3,46.3h0Z"/><path class="cls-8" d="M366.7,210.5c13.3-16.9,35.6-8.2,52.8-36.3-14.3,22.1-41.9,18.1-52.8,36.3h0Z"/><path class="cls-8" d="M391.2,153.8c8.2-7.8,15.8-16,30.3-25.2-4.3,2-16.2,8.2-28.6,22.2a356.8,356.8,0,0,1,26.9-41.3c-21.9,20.5-41.2,49.7-57.5,84.2-0.5-3-.2-7.9,2.4-26.1-5.7,19.1-6.9,33.1-9.1,40.9q-3.8,8.7-7.3,17.7c-0.8-13,2.1-39.9,11.8-64.4-14.4,34.5-14.2,59.8-13.5,68.8-4.7,12.2-9,24.8-13,37.8-0.7-15.2-10.2-30-7.1-49.5-5,25,5.1,36.6,6.4,51.6-3.8,12.2-7.2,24.7-10.4,37.3-4.2-8.7-8.3-29.2-6-49.4-4.7,27.4,2.1,45.8,5.2,52.4-6.3,25.3-11.4,51.2-15.2,76.9-1.6-1.9-3.3-5.2-8.1-19.9,2.3,13.7,5.4,23.2,6.8,29.4q-1.2,8.9-2.3,17.8l-0.3,2.6a753.2,753.2,0,0,0-5,79.5c-0.1,9.7.4,13.4,6.3,2,3.3-6.5,5.8-15.4,7.1-23.3a733.9,733.9,0,0,1,8.4-93.9c8.7-12.3,31.5-33.6,62.2-49.9-39.7,20.6-55.8,37.8-61.5,45.3,4-25.9,9.5-52.7,16.3-79.4,6.7-7.8,21.6-19.4,40.8-27.5-24,8.4-35.2,18-39.5,22.7,3.8-14.4,8-28.8,12.6-42.9,2.6-3.7,7.4-8.2,16.8-13.8a51.9,51.9,0,0,0-14.9,8,582.1,582.1,0,0,1,30.8-74.8c3.2-3.6,8.9-8.1,20.5-13.4a65,65,0,0,0-17.4,7.3ZM308.4,473.3l-5,21.2c-2.7,6.5-3.5,7.5-3.4,0,2-134.6,43.8-292.9,108.1-371.7C344.4,215.1,310.3,362.7,308.4,473.3Z"/><path class="cls-7" d="M401.9,193.8c-13.9,15.9-22.2,7.4-34.5,18.3,9.9-15.5,21.2-6.6,34.5-18.3h0Z"/><path class="cls-7" d="M368.9,342.5c-15.2,13.8-30.2,21.8-46.1,38,4.6-6.9,19.8-23.5,46.1-38h0Z"/></svg>