<?xml version="1.0" encoding="UTF-8" standalone="no"?>
<!-- Generator: Adobe Illustrator 18.1.0, SVG Export Plug-In . SVG Version: 6.00 Build 0)  -->

<svg
   xmlns:dc="http://purl.org/dc/elements/1.1/"
   xmlns:cc="http://creativecommons.org/ns#"
   xmlns:rdf="http://www.w3.org/1999/02/22-rdf-syntax-ns#"
   xmlns:svg="http://www.w3.org/2000/svg"
   xmlns="http://www.w3.org/2000/svg"
   xmlns:sodipodi="http://sodipodi.sourceforge.net/DTD/sodipodi-0.dtd"
   xmlns:inkscape="http://www.inkscape.org/namespaces/inkscape"
   version="1.1"
   id="Layer_1"
   x="0px"
   y="0px"
   viewBox="0 0 181 209"
   enable-background="new 0 0 320 240"
   xml:space="preserve"
   inkscape:version="0.91 r13725"
   sodipodi:docname="fedora.svg"
   width="181"
   height="209"
   inkscape:export-filename="/home/mc/Papers/Projects/Forks/hexbin/hexagons/fedora.png"
   inkscape:export-xdpi="90"
   inkscape:export-ydpi="90"><metadata
     id="metadata65"><rdf:RDF><cc:Work
         rdf:about=""><dc:format>image/svg+xml</dc:format><dc:type
           rdf:resource="http://purl.org/dc/dcmitype/StillImage" /><dc:title /></cc:Work></rdf:RDF></metadata><defs
     id="defs63" /><sodipodi:namedview
     pagecolor="#ffffff"
     bordercolor="#666666"
     borderopacity="1"
     objecttolerance="10"
     gridtolerance="10"
     guidetolerance="10"
     inkscape:pageopacity="0"
     inkscape:pageshadow="2"
     inkscape:window-width="1920"
     inkscape:window-height="1030"
     id="namedview61"
     showgrid="false"
     fit-margin-top="0"
     fit-margin-left="0"
     fit-margin-right="0"
     fit-margin-bottom="0"
     inkscape:zoom="4.0287081"
     inkscape:cx="90.5"
     inkscape:cy="104.5"
     inkscape:window-x="0"
     inkscape:window-y="24"
     inkscape:window-maximized="1"
     inkscape:current-layer="Layer_1" /><polygon
     points="251,171.7 160.5,224 70,171.7 70,67.2 160.5,15 251,67.2 "
     id="polygon3"
     style="fill:#294172;fill-opacity:1"
     transform="translate(-70,-15)" /><g
     id="g4142"
     transform="matrix(0.62299951,0,0,0.62299951,28.18007,64.448234)"><path
       id="path8"
       d="m 145.92307,-41.714401 c -33.109,0 -60.045003,26.935 -60.045003,60.045 l 0,31.87 -31.738,0 c -33.109,0 -60.0450005,26.937 -60.0450005,60.046001 0,33.108 26.9360005,60.045 60.0450005,60.045 33.109,0 60.045003,-26.937 60.045003,-60.045 l 0,-31.871001 31.738,0 c 33.109,0 60.046,-26.936 60.046,-60.045 0,-33.11 -26.937,-60.045 -60.046,-60.045 l 0,0 z M 86.100067,110.2466 c 0,17.622 -14.337,31.959 -31.96,31.959 -17.623,0 -31.96,-14.337 -31.96,-31.959 0,-17.623001 14.337,-31.960001 31.96,-31.960001 l 31.738,0 0,0.089 0.222,0 0,31.871001 0,0 z m 59.823003,-59.956001 -31.738,0 0,-0.09 -0.221,0 0,-31.87 c 0,-17.62300043 14.337,-31.96 31.959,-31.96 17.622,0 31.96,14.33699957 31.96,31.96 0,17.623 -14.338,31.96 -31.96,31.96 l 0,0 z"
       style="fill:#3c6eb4"
       inkscape:connector-curvature="0" /><path
       id="path10"
       d="m 159.19407,-39.893401 c -4.66,-1.218 -8.238,-1.786 -13.271,-1.786 -33.177,0 -60.075003,26.899 -60.075003,60.074 l 0,31.842 -25.16,0 c -7.845,0 -14.185,6.165 -14.18,13.996 0,7.782 6.27,13.973 14.032,13.973 l 20.831,0.004 c 2.473,0 4.479,2 4.479,4.469 l 0,27.553001 c -0.031,17.491 -14.219,31.659 -31.71,31.659 -5.925,0 -7.392,-0.776 -11.437,-0.776 -8.497,0 -14.182,5.696 -14.182,13.528 0.002,6.479 5.554,12.049 12.348,13.827 4.66,1.218 8.238,1.787 13.271,1.787 33.177,0 60.075003,-26.899 60.075003,-60.075 l 0,-31.841001 25.16,0 c 7.845,0 14.185,-6.165 14.18,-13.996 0,-7.783 -6.27,-13.973 -14.032,-13.973 l -20.831,-0.004 c -2.473,0 -4.479,-2.001 -4.479,-4.47 l 0,-27.553 c 0.031,-17.49100043 14.219,-31.659 31.71,-31.659 5.925,0 7.392,0.777 11.437,0.777 8.497,0 14.182,-5.697 14.182,-13.528 -0.002,-6.48 -5.554,-12.05 -12.348,-13.828"
       style="fill:#ffffff"
       inkscape:connector-curvature="0" /></g></svg>