<?xml version="1.0" encoding="UTF-8" standalone="no"?>
<svg
   xmlns:dc="http://purl.org/dc/elements/1.1/"
   xmlns:cc="http://creativecommons.org/ns#"
   xmlns:rdf="http://www.w3.org/1999/02/22-rdf-syntax-ns#"
   xmlns:svg="http://www.w3.org/2000/svg"
   xmlns="http://www.w3.org/2000/svg"
   xmlns:sodipodi="http://sodipodi.sourceforge.net/DTD/sodipodi-0.dtd"
   xmlns:inkscape="http://www.inkscape.org/namespaces/inkscape"
   height="209"
   width="181"
   xml:space="preserve"
   enable-background="new 0 0 320 240"
   viewBox="0 0 181 209"
   y="0px"
   x="0px"
   id="Layer_1"
   version="1.1"
   sodipodi:docname="fedora.svg"
   inkscape:version="0.92.3 (2405546, 2018-03-11)"><sodipodi:namedview
     pagecolor="#ffffff"
     bordercolor="#666666"
     borderopacity="1"
     objecttolerance="10"
     gridtolerance="10"
     guidetolerance="10"
     inkscape:pageopacity="0"
     inkscape:pageshadow="2"
     inkscape:window-width="956"
     inkscape:window-height="1023"
     id="namedview12"
     showgrid="false"
     showguides="false"
     borderlayer="false"
     inkscape:zoom="2.2583732"
     inkscape:cx="130.94308"
     inkscape:cy="85.383755"
     inkscape:window-x="0"
     inkscape:window-y="0"
     inkscape:window-maximized="0"
     inkscape:current-layer="Layer_1"><inkscape:grid
       type="xygrid"
       id="grid872" /></sodipodi:namedview><metadata
     id="metadata65"><rdf:RDF><cc:Work
         rdf:about=""><dc:format>image/svg+xml</dc:format><dc:type
           rdf:resource="http://purl.org/dc/dcmitype/StillImage" /><dc:title></dc:title></cc:Work></rdf:RDF></metadata><defs
     id="defs63"><inkscape:path-effect
       hide_knots="false"
       only_selected="false"
       ignore_radius_0="false"
       use_knot_distance="false"
       flexible="false"
       helper_size="0"
       chamfer_steps="1"
       radius="4"
       method="auto"
       unit="px"
       fillet_chamfer_values="-2.3113122,1 | -2.3084456,1 | -2.3084456,1 | -2.3113122,1 | -2.308446,1 | -2.308446,1"
       is_visible="true"
       id="path-effect4167"
       effect="fillet-chamfer" /><inkscape:path-effect
       hide_knots="false"
       only_selected="false"
       ignore_radius_0="false"
       use_knot_distance="false"
       flexible="false"
       helper_size="0"
       chamfer_steps="1"
       radius="8"
       method="auto"
       unit="px"
       fillet_chamfer_values="-4.6160691,1 | -4.620169,1 | -4.62017,1 | -4.616067,1 | -4.62017,1 | -4.620169,1"
       is_visible="true"
       id="path-effect4163"
       effect="fillet-chamfer" /><inkscape:path-effect
       hide_knots="false"
       only_selected="false"
       ignore_radius_0="false"
       use_knot_distance="false"
       flexible="false"
       helper_size="0"
       chamfer_steps="1"
       radius="0"
       method="auto"
       unit="px"
       fillet_chamfer_values=""
       is_visible="true"
       id="path-effect4161"
       effect="fillet-chamfer" /><inkscape:perspective
       id="perspective4138"
       inkscape:persp3d-origin="372.04727 : 350.78742 : 1"
       inkscape:vp_z="744.09454 : 526.18112 : 1"
       inkscape:vp_y="0 : 999.99999 : 0"
       inkscape:vp_x="0 : 526.18112 : 1"
       sodipodi:type="inkscape:persp3d" /></defs><polygon
     transform="translate(-70,-15)"
     style="fill:#ffffff;fill-opacity:1;stroke:none;stroke-opacity:1"
     id="polygon3"
     points="251,171.7 160.5,224 70,171.7 70,67.2 160.5,15 251,67.2 "
     inkscape:export-xdpi="96"
     inkscape:export-ydpi="96"
     inkscape:export-filename="/media/micah/Storage/projects/fedora/hexbin/hexagons/fedora.png" /><path
     id="path4149"
     d="M 87.992597,13.491138 12.721682,56.984794 a 4.6898131,4.6898131 0 0 0 -2.343453,4.060663 V 148.0395 a 4.6898131,4.6898131 0 0 0 2.343453,4.06066 l 75.270915,43.49366 a 4.6898132,4.6898132 0 0 0 4.692721,0 l 75.270942,-43.49366 a 4.6898132,4.6898132 0 0 0 2.34345,-4.06066 V 61.045457 a 4.6898132,4.6898132 0 0 0 -2.34345,-4.060663 L 92.685318,13.491138 a 4.6898132,4.6898132 0 0 0 -4.692721,0 z"
     style="fill:#3c6eb4;fill-opacity:1;fill-rule:evenodd;stroke:none;stroke-width:0.78627855px;stroke-linecap:butt;stroke-linejoin:miter;stroke-opacity:1"
     inkscape:connector-curvature="0" /><g
     style="stroke-width:0.90977323"
     id="g4190"
     transform="matrix(1.1724533,0,0,1.1724533,-302.73098,70.595394)"><g
       style="stroke-width:0.90977323"
       id="layer1-2"
       transform="matrix(2.2305349,0,0,2.2305349,-697.12122,-785.26915)"><path
         style="fill:#294172;stroke-width:0.90977323"
         id="path25"
         d="m 482.01243,363.57426 c 0,-10.06788 -8.16108,-18.22938 -18.22897,-18.22938 -10.06282,0 -18.22179,8.15475 -18.22854,18.21631 l -4.2e-4,-4.2e-4 v 14.1071 l 4.2e-4,4.2e-4 c 0.005,2.28463 1.85832,4.13409 4.14463,4.13409 0.007,0 0.0127,-8.4e-4 0.0194,-8.4e-4 l 10e-4,8.4e-4 h 14.07083 v 0 c 10.06409,-0.004 18.22138,-8.16276 18.22138,-18.22812 z"
         inkscape:connector-curvature="0" /><path
         style="fill:#3c6eb4;stroke-width:0.90977323"
         id="path29"
         d="m 469.13577,349.66577 c -4.72528,0 -8.55576,3.83049 -8.55576,8.55577 0,0.002 0,0.004 0,0.006 v 4.52836 h -4.51444 c -8.5e-4,0 -8.5e-4,0 -10e-4,0 -4.72528,0 -8.55576,3.81193 -8.55576,8.53678 0,4.72528 3.83048,8.55577 8.55576,8.55577 4.72486,0 8.55534,-3.83049 8.55534,-8.55577 0,-0.002 0,-0.004 0,-0.006 v -4.54733 h 4.51444 c 8.5e-4,0 0.001,0 0.002,0 4.72486,0 8.55534,-3.79296 8.55534,-8.51781 0,-4.72528 -3.83048,-8.55577 -8.55534,-8.55577 z m -8.55576,21.63483 c -0.004,2.48998 -2.02446,4.50811 -4.51571,4.50811 -2.49378,0 -4.53426,-2.02193 -4.53426,-4.5157 0,-2.49421 2.04048,-4.55366 4.53426,-4.55366 0.002,0 0.004,4.2e-4 0.006,4.2e-4 h 3.86971 c 0.001,0 0.002,-4.2e-4 0.003,-4.2e-4 0.35209,0 0.63799,0.28505 0.63799,0.63715 0,4.2e-4 -4.2e-4,8.4e-4 -4.2e-4,10e-4 v 3.92284 h -4.2e-4 z m 8.55534,-8.5448 c -0.001,0 -0.003,0 -0.004,0 h -3.87223 c -8.4e-4,0 -0.002,0 -0.002,0 -0.35252,0 -0.63757,-0.28506 -0.63757,-0.63758 v -4.2e-4 -3.90343 c 0.004,-2.49083 2.02446,-4.50854 4.51571,-4.50854 2.49378,0 4.53468,2.02193 4.53468,4.51613 4.2e-4,2.49336 -2.04048,4.53384 -4.53426,4.53384 z"
         inkscape:connector-curvature="0" /><path
         style="fill:#ffffff;stroke-width:0.90977323"
         id="path31"
         d="m 460.58001,362.7558 v -4.52836 c 0,-0.002 0,-0.004 0,-0.006 0,-4.72528 3.83048,-8.55577 8.55576,-8.55577 0.71685,0 1.22623,0.0805 1.88952,0.25469 0.96774,0.25385 1.75796,1.04618 1.75838,1.96922 4.2e-4,1.11575 -0.80919,1.92621 -2.0194,1.92621 -0.57642,0 -0.78473,-0.11048 -1.62892,-0.11048 -2.49125,0 -4.51149,2.01771 -4.51571,4.50854 v 3.90385 4.2e-4 c 0,0.35252 0.28505,0.63758 0.63757,0.63758 4.3e-4,0 0.001,0 0.002,0 h 2.96521 c 1.10521,0 1.99747,0.88467 1.99832,1.99283 0,1.10816 -0.89353,1.99114 -1.99832,1.99114 h -3.60489 v 4.54733 c 0,0.002 0,0.004 0,0.006 0,4.72485 -3.83048,8.55534 -8.55534,8.55534 -0.71684,0 -1.22623,-0.0805 -1.88952,-0.25469 -0.96774,-0.25343 -1.75838,-1.04618 -1.7588,-1.9688 0,-1.11575 0.80919,-1.92663 2.01982,-1.92663 0.576,0 0.78473,0.11048 1.6285,0.11048 2.49125,0 4.51191,-2.01771 4.51613,-4.50811 0,0 0,-3.92368 0,-3.9241 0,-0.35168 -0.2859,-0.63673 -0.63799,-0.63673 -4.3e-4,0 -8.5e-4,0 -0.002,0 l -2.96521,-4.2e-4 c -1.10521,0 -1.99831,-0.88214 -1.99831,-1.9903 -4.3e-4,-1.11533 0.90238,-1.99367 2.01939,-1.99367 h 3.58339 v 0 z"
         inkscape:connector-curvature="0" /><path
         style="fill:#294172;stroke-width:0.90977323;enable-background:new"
         id="text6223"
         d="m 477.41661,378.55292 h 2.81558 v 0.37898 h -1.18152 v 2.94935 h -0.45254 v -2.94935 h -1.18152 v -0.37898 m 3.26144,0 h 0.67101 l 0.84937,2.26496 0.85381,-2.26496 h 0.67102 v 3.32833 h -0.43917 v -2.9226 l -0.85828,2.28279 h -0.45255 l -0.85827,-2.28279 v 2.9226 h -0.43694 v -3.32833"
         inkscape:connector-curvature="0" /></g></g></svg>