<?xml version="1.0" encoding="UTF-8" standalone="no"?>
<svg
   xmlns:dc="http://purl.org/dc/elements/1.1/"
   xmlns:cc="http://creativecommons.org/ns#"
   xmlns:rdf="http://www.w3.org/1999/02/22-rdf-syntax-ns#"
   xmlns:svg="http://www.w3.org/2000/svg"
   xmlns="http://www.w3.org/2000/svg"
   height="209"
   width="181"
   xml:space="preserve"
   enable-background="new 0 0 320 240"
   viewBox="0 0 181 209"
   y="0px"
   x="0px"
   id="Layer_1"
   version="1.1"><metadata
     id="metadata65"><rdf:RDF><cc:Work
         rdf:about=""><dc:format>image/svg+xml</dc:format><dc:type
           rdf:resource="http://purl.org/dc/dcmitype/StillImage" /><dc:title></dc:title></cc:Work></rdf:RDF></metadata><defs
     id="defs63" /><polygon
     transform="translate(-70,-15)"
     style="fill:#dedede;fill-opacity:1;stroke:none;stroke-opacity:1"
     id="polygon3"
     points="251,171.7 160.5,224 70,171.7 70,67.2 160.5,15 251,67.2 " /><polygon
     transform="matrix(0.94674184,0,0,0.94674184,-61.452064,-8.6356492)"
     style="fill:#fcfafd;fill-opacity:1;stroke:none;stroke-width:1.00956893;stroke-opacity:1"
     id="polygon883"
     points="160.5,224 70,171.7 70,67.2 160.5,15 251,67.2 251,171.7 " /><polygon
     transform="matrix(0.91743665,0,0,0.91737414,-56.748581,-5.1262203)"
     style="fill:#ffffff;fill-opacity:1;stroke:#8c8c8c;stroke-width:1.63504601;stroke-linejoin:miter;stroke-miterlimit:4;stroke-dasharray:none;stroke-opacity:1"
     id="polygon893"
     points="251,171.7 160.5,224 70,171.7 70,67.2 160.5,15 251,67.2 " /><g
     transform="matrix(3.1734428,0,0,3.1734428,-240.0385,83.905238)"
     id="g849"><path
       id="path843"
       style="fill:#294172;fill-opacity:1;fill-rule:nonzero;stroke:none"
       d="m 120.60725,6.4904473 c 0,-9.084775 -7.36491,-16.4497375 -16.44957,-16.4497375 -9.08069,0 -16.442415,7.3587875 -16.449027,16.43815 l -5e-4,-5.375e-4 V 19.20781 l 5e-4,5.37e-4 c 0.005,2.0615 1.676825,3.730388 3.739662,3.730388 l 0.01791,-5.25e-4 0.001,5.25e-4 h 12.697015 c 9.08175,-0.0034 16.44297,-7.365788 16.44297,-16.4482877" /><path
       id="path845"
       transform="matrix(0.19326274,0,0,0.19326274,-75.521953,-11.737136)"
       d="m 954.77148,29.412109 c -22.06307,10e-7 -39.93945,17.874725 -39.93945,39.9375 v 21.183594 h -21.18164 c -22.06302,0 -39.93945,17.716127 -39.93945,39.777347 -5e-5,22.06239 17.87643,39.93945 39.93945,39.93945 22.06183,1e-5 39.93945,-17.87706 39.93945,-39.93945 v -21.1836 h 21.18164 c 22.06163,1e-5 39.93946,-17.714956 39.93946,-39.777341 0,-22.062773 -17.87783,-39.9375 -39.93946,-39.9375 z m 0,18.75586 c 11.64586,10e-7 21.1836,9.534413 21.1836,21.18164 0,11.644061 -9.53774,21.183594 -21.1836,21.183594 h -0.1621 -17.94727 c -1.64677,0 -3.07227,-1.428457 -3.07227,-3.072265 V 69.349609 c 0.0204,-11.632222 9.551,-21.18164 21.18164,-21.18164 z m -61.12109,60.958981 h 18.10938 c 1.64403,1e-5 3.07226,1.26753 3.07226,2.91211 v 18.27149 c -0.0178,11.62834 -9.5496,21.18164 -21.18164,21.18164 -11.6443,0 -21.18164,-9.53759 -21.18164,-21.18164 0,-11.64607 9.53734,-21.1836 21.18164,-21.1836 z m 97.3418,49.96485 v 0.9707 h 1.61719 v 4.68945 h 0.9707 v -4.68945 h 1.61523 v -0.9707 z m 5.01172,0 v 5.66015 h 0.9707 v -3.07226 -0.48633 l 0.16211,0.48633 1.45508,3.23437 1.29297,-3.23437 0.32423,-0.64649 v 0.64649 3.07226 h 0.8086 v -5.66015 h -0.9707 l -1.13088,2.91015 -0.32422,0.8086 -0.32422,-0.8086 -1.29297,-2.91015 z"
       style="fill:#3c6eb4;fill-opacity:1;fill-rule:nonzero;stroke:none;stroke-width:5.17430305" /><path
       id="path847"
       style="fill:#ffffff;fill-opacity:1;fill-rule:nonzero;stroke:none"
       d="m 101.2602,5.7588948 v -4.086388 -0.0053 c 0,-4.263912 3.45636,-7.720337 7.72033,-7.720337 0.64712,0 1.10663,0.07263 1.7058,0.229562 0.87288,0.228738 1.58589,0.944063 1.58643,1.776963 2.4e-4,1.00655 -0.73035,1.738137 -1.82225,1.738137 -0.5204,0 -0.70824,-0.09956 -1.47026,-0.09956 -2.24777,0 -4.07055,1.82045 -4.07449,4.068525 v 3.522563 5.37e-4 c 0,0.317688 0.25716,0.575338 0.57542,0.575338 h 0.002 2.67567 c 0.99728,0 1.8022,0.797875 1.80304,1.797475 0,1.00045 -0.80603,1.7968 -1.80304,1.7968 h -3.25271 v 4.1038502 0.0054 c 0,4.2633 -3.45661,7.720225 -7.720341,7.720225 -0.64685,0 -1.106625,-0.07299 -1.70525,-0.2295 -0.8732,-0.228425 -1.586725,-0.944325 -1.586975,-1.776925 0,-1.0065 0.73065,-1.738475 1.822513,-1.738475 0.51985,0 0.708487,0.09988 1.469712,0.09988 2.248038,0 4.071351,-1.82095 4.075051,-4.0688 V 9.9280648 c 0,-0.3173 -0.25771,-0.574338 -0.57545,-0.574338 h -0.002 l -2.675698,-5.37e-4 c -0.997263,0 -1.802975,-0.795588 -1.802975,-1.795725 -5.63e-4,-1.006325 0.81415,-1.79855 1.822212,-1.79855 h 3.233231" /></g></svg>