<?xml version="1.0" encoding="UTF-8" standalone="no"?>
<!-- Created with Inkscape (http://www.inkscape.org/) -->

<svg
   xmlns:dc="http://purl.org/dc/elements/1.1/"
   xmlns:cc="http://creativecommons.org/ns#"
   xmlns:rdf="http://www.w3.org/1999/02/22-rdf-syntax-ns#"
   xmlns:svg="http://www.w3.org/2000/svg"
   xmlns="http://www.w3.org/2000/svg"
   xmlns:sodipodi="http://sodipodi.sourceforge.net/DTD/sodipodi-0.dtd"
   xmlns:inkscape="http://www.inkscape.org/namespaces/inkscape"
   width="47.930717mm"
   height="55.245579mm"
   viewBox="0 0 47.930718 55.245579"
   version="1.1"
   id="svg8"
   inkscape:version="0.92.4 5da689c313, 2019-01-14"
   sodipodi:docname="felp.svg">
  <defs
     id="defs2" />
  <sodipodi:namedview
     id="base"
     pagecolor="#ffffff"
     bordercolor="#666666"
     borderopacity="1.0"
     inkscape:pageopacity="0.0"
     inkscape:pageshadow="2"
     inkscape:zoom="2"
     inkscape:cx="-90.233619"
     inkscape:cy="76.025392"
     inkscape:document-units="mm"
     inkscape:current-layer="text4533-5-2-2"
     showgrid="false"
     inkscape:window-width="1920"
     inkscape:window-height="1140"
     inkscape:window-x="0"
     inkscape:window-y="32"
     inkscape:window-maximized="1"
     fit-margin-top="0"
     fit-margin-left="0"
     fit-margin-right="0"
     fit-margin-bottom="0" />
  <metadata
     id="metadata5">
    <rdf:RDF>
      <cc:Work
         rdf:about="">
        <dc:format>image/svg+xml</dc:format>
        <dc:type
           rdf:resource="http://purl.org/dc/dcmitype/StillImage" />
        <dc:title />
      </cc:Work>
    </rdf:RDF>
  </metadata>
  <g
     inkscape:label="レイヤー 1"
     inkscape:groupmode="layer"
     id="layer1"
     transform="translate(-18.078203,-151.12892)">
    <path
       style="fill:#f9f9f9;stroke:#1a1a1a;stroke-width:1.47843194;stroke-miterlimit:4;stroke-dasharray:none"
       d="m 65.301991,192.12642 -23.25843,13.37472 -23.258429,-13.37472 v -26.74944 l 23.258429,-13.3747 23.25843,13.3747 z"
       id="path4537-4-9-8"
       inkscape:connector-curvature="0"
       inkscape:export-xdpi="96.09095"
       inkscape:export-ydpi="96.09095" />
    <path
       inkscape:connector-curvature="0"
       style="fill:#1a1a1a;stroke:none;stroke-width:0;stroke-miterlimit:4;stroke-dasharray:none"
       d="m 23.585633,168.1375 -4.800501,-2.76052 v 26.74944 l 4.800501,-2.76052"
       id="path4537-4-9-9-6-2"
       sodipodi:nodetypes="cccc"
       inkscape:export-xdpi="96.09095"
       inkscape:export-ydpi="96.09095" />
    <path
       inkscape:connector-curvature="0"
       style="fill:#1a1a1a;stroke:none;stroke-width:0;stroke-miterlimit:4;stroke-dasharray:none"
       d="m 42.043561,199.9801 v 5.52104 l 23.258434,-13.37472 -4.800497,-2.76052"
       id="path4537-4-9-9-6-4-7"
       sodipodi:nodetypes="cccc"
       inkscape:export-xdpi="96.09095"
       inkscape:export-ydpi="96.09095" />
    <path
       inkscape:connector-curvature="0"
       style="fill:#1a1a1a;stroke:none;stroke-width:0;stroke-miterlimit:4;stroke-dasharray:none"
       d="m 60.50149,168.1375 4.800501,-2.76052 -23.258433,-13.37471 -10e-7,5.52103"
       id="path4537-4-9-9-6-0-7"
       sodipodi:nodetypes="cccc"
       inkscape:export-xdpi="96.09095"
       inkscape:export-ydpi="96.09095" />
    <g
       aria-label="Need"
       transform="scale(1.0477639,0.95441349)"
       style="font-style:normal;font-variant:normal;font-weight:normal;font-stretch:normal;font-size:6.05147791px;line-height:1.25;font-family:Cica;-inkscape-font-specification:Cica;letter-spacing:0px;word-spacing:0px;fill:#1a1a1a;fill-opacity:1;stroke:none;stroke-width:0.15128694"
       id="text4533-5-2-2">
      <path
         d="m 34.424133,178.19565 h 0.638241 l 1.246936,3.04938 v -3.04938 h 0.484591 v 3.70535 h -0.632332 l -1.252845,-3.04938 v 3.04938 h -0.484591 z"
         style="fill:#1a1a1a;stroke:none;stroke-width:0.15128694"
         id="path55" />
      <path
         d="m 38.785452,181.97192 q -0.644152,0 -1.01055,-0.38413 -0.366398,-0.38413 -0.366398,-1.05192 0,-0.41958 0.141832,-0.75052 0.147741,-0.33685 0.431404,-0.53187 0.289572,-0.20093 0.715067,-0.20093 0.555507,0 0.856899,0.36049 0.307301,0.35458 0.307301,0.981 v 0.22457 h -1.973822 v 0.0177 q 0,0.4314 0.224567,0.69143 0.230476,0.26002 0.679609,0.26002 0.254115,0 0.496411,-0.0827 0.242295,-0.0827 0.466862,-0.20092 v 0.45504 q -0.236386,0.0945 -0.478682,0.15365 -0.236386,0.0591 -0.4905,0.0591 z m 0.620512,-1.70789 q 0,-0.23048 -0.07091,-0.41368 -0.06501,-0.18911 -0.218657,-0.29548 -0.153651,-0.11228 -0.407766,-0.11228 -0.248205,0 -0.419585,0.11228 -0.171379,0.10637 -0.265934,0.29548 -0.09455,0.1832 -0.118193,0.41368 z"
         style="fill:#1a1a1a;stroke:none;stroke-width:0.15128694"
         id="path57" />
      <path
         d="m 41.811191,181.97192 q -0.644152,0 -1.01055,-0.38413 -0.366398,-0.38413 -0.366398,-1.05192 0,-0.41958 0.141831,-0.75052 0.147742,-0.33685 0.431405,-0.53187 0.289572,-0.20093 0.715067,-0.20093 0.555507,0 0.856899,0.36049 0.307301,0.35458 0.307301,0.981 v 0.22457 h -1.973822 v 0.0177 q 0,0.4314 0.224567,0.69143 0.230476,0.26002 0.679609,0.26002 0.254115,0 0.496411,-0.0827 0.242295,-0.0827 0.466862,-0.20092 v 0.45504 q -0.236386,0.0945 -0.478682,0.15365 -0.236386,0.0591 -0.4905,0.0591 z m 0.620512,-1.70789 q 0,-0.23048 -0.07091,-0.41368 -0.06501,-0.18911 -0.218657,-0.29548 -0.153651,-0.11228 -0.407766,-0.11228 -0.248205,0 -0.419585,0.11228 -0.171379,0.10637 -0.265934,0.29548 -0.09455,0.1832 -0.118193,0.41368 z"
         style="fill:#1a1a1a;stroke:none;stroke-width:0.15128694"
         id="path59" />
      <path
         d="m 44.618273,181.97192 q -0.301392,0 -0.50823,-0.13002 -0.206837,-0.13001 -0.33094,-0.34275 -0.124103,-0.21866 -0.177289,-0.47869 -0.05319,-0.26002 -0.05319,-0.52595 0,-0.66779 0.289573,-1.05192 0.295482,-0.39004 0.791892,-0.39004 0.242296,0 0.431404,0.10638 0.195019,0.10046 0.313212,0.31912 v -1.44196 h 0.455042 v 3.86491 h -0.413675 l -0.04137,-0.34867 q -0.248206,0.41959 -0.756435,0.41959 z m 0.08273,-0.38413 q 0.212747,0 0.342759,-0.10046 0.135922,-0.10638 0.206838,-0.26594 0.07092,-0.16547 0.09455,-0.34867 0.02955,-0.18911 0.02955,-0.36049 0,-0.17138 -0.02955,-0.35457 -0.02364,-0.18911 -0.09455,-0.34867 -0.07092,-0.16547 -0.206838,-0.26594 -0.130012,-0.10046 -0.342759,-0.10046 -0.218657,0 -0.354579,0.10046 -0.130012,0.10047 -0.200928,0.26594 -0.06501,0.15956 -0.09455,0.34867 -0.02364,0.18319 -0.02364,0.35457 0,0.16547 0.02364,0.35458 0.02955,0.18911 0.09455,0.35458 0.07092,0.15956 0.200928,0.26594 0.135922,0.10046 0.354579,0.10046 z"
         style="fill:#1a1a1a;stroke:none;stroke-width:0.15128694"
         id="path61" />
    </g>
    <path
       sodipodi:nodetypes="ccsccscsccc"
       inkscape:connector-curvature="0"
       id="path4605-5-4"
       style="font-style:normal;font-variant:normal;font-weight:normal;font-stretch:normal;font-size:10.58333302px;line-height:1.25;font-family:Cica;-inkscape-font-specification:Cica;letter-spacing:0px;word-spacing:0px;fill:#1a1a1a;fill-opacity:1;stroke:none;stroke-width:0.26874453"
       d="m 31.038052,186.93624 c 0.19066,0 0.351977,-0.0601 0.483964,-0.18035 0.131999,-0.12024 0.197992,-0.27386 0.197992,-0.46089 0,-0.1937 -0.06236,-0.34734 -0.186987,-0.46089 -0.05864,-0.0468 -0.128338,-0.0868 -0.208986,-0.12023 -0.08068,-0.0401 -0.172322,-0.0601 -0.274979,-0.0601 -0.190659,0 -0.351976,0.0601 -0.483975,0.18035 -0.124655,0.11354 -0.186987,0.26717 -0.186987,0.46088 0,0.18703 0.06236,0.34066 0.186987,0.46088 0.131999,0.12024 0.289655,0.18036 0.472971,0.18035 z" />
    <g
       aria-label="f"
       style="font-style:normal;font-variant:normal;font-weight:normal;font-stretch:normal;font-size:10.58333302px;line-height:1.25;font-family:Cica;-inkscape-font-specification:Cica;letter-spacing:0px;word-spacing:0px;fill:#1a1a1a;fill-opacity:1;stroke:none;stroke-width:0.26458332"
       id="text16-6-4-1-8"
       transform="matrix(1.0642425,0,0,0.96942399,-57.177973,123.18181)">
      <path
         d="m 82.100278,61.662534 h -1.302246 v -0.620117 h 1.302246 0.795817 1.674317 v 0.620117 h -1.674317 z"
         style="fill:#1a1a1a;stroke:none;stroke-width:0.26458332"
         id="path4676-1-4"
         inkscape:connector-curvature="0"
         sodipodi:nodetypes="ccccccccc" />
    </g>
    <path
       sodipodi:nodetypes="ccccccsccscccccsccsccccsccc"
       inkscape:connector-curvature="0"
       id="path4605-1-2-2"
       style="font-style:normal;font-variant:normal;font-weight:normal;font-stretch:normal;font-size:10.58333302px;line-height:1.25;font-family:Cica;-inkscape-font-specification:Cica;letter-spacing:0px;word-spacing:0px;fill:#1a1a1a;fill-opacity:1;stroke:none;stroke-width:0.26874453"
       d="m 31.500018,182.68806 c 0,-0.22042 -0.04768,-0.42415 -0.142992,-0.61118 -0.09536,-0.1937 -0.271306,-0.40745 -0.52796,-0.64123 l -0.41797,-0.37071 c -0.08802,-0.0802 -0.164989,-0.15697 -0.230983,-0.23044 -0.07333,-0.0735 -0.124654,-0.14027 -0.153996,-0.20039 -0.07333,-0.12692 -0.109989,-0.2605 -0.109989,-0.40077 0,-0.12691 0.02938,-0.24046 0.08802,-0.34066 0.0514,-0.10019 0.121025,-0.18702 0.208985,-0.2605 0.197991,-0.15363 0.461976,-0.23044 0.791955,-0.23044 0.256644,0 0.516956,0.0468 0.780942,0.14027 0.13932,0.0534 0.282312,0.11688 0.428975,0.19036 0.139319,0.0668 0.285983,0.1503 0.439968,0.25049 v -0.79153 c -0.293316,-0.16698 -0.586621,-0.28721 -0.879936,-0.36069 -0.278651,-0.0802 -0.5793,-0.12023 -0.901945,-0.12023 -0.307982,0 -0.575629,0.0367 -0.80294,0.11022 -0.234654,0.0735 -0.432636,0.17366 -0.593965,0.30057 -0.329979,0.26718 -0.494968,0.62119 -0.494968,1.06204 0,0.2271 0.05129,0.43083 0.153996,0.61118 0.10999,0.18702 0.30431,0.40745 0.58296,0.66128 l 0.406966,0.36069 c 0.21999,0.18701 0.355649,0.34065 0.406978,0.46088 0.05864,0.10687 0.08801,0.22042 0.08801,0.34065 v 2.69479 h 0.879937 z" />
    <g
       aria-label="elp?."
       transform="scale(1.0477639,0.95441353)"
       style="font-style:normal;font-variant:normal;font-weight:normal;font-stretch:normal;font-size:10.74978256px;line-height:1.25;font-family:Cica;-inkscape-font-specification:Cica;letter-spacing:0px;word-spacing:0px;fill:#1a1a1a;fill-opacity:1;stroke:none;stroke-width:0.26874453"
       id="text16-6-2-6-2">
      <path
         d="m 35.055784,194.11189 q -1.144264,0 -1.79513,-0.68236 -0.650866,-0.68236 -0.650866,-1.86861 0,-0.74535 0.251948,-1.33323 0.262446,-0.59838 0.766342,-0.9448 0.514394,-0.35693 1.270238,-0.35693 0.986797,0 1.522186,0.64037 0.545888,0.62987 0.545888,1.74264 v 0.39892 h -3.506277 v 0.0315 q 0,0.76634 0.398918,1.22825 0.409415,0.4619 1.207251,0.4619 0.451406,0 0.881818,-0.14697 0.430411,-0.14697 0.829329,-0.35693 v 0.80834 q -0.419914,0.16796 -0.850325,0.27294 -0.419913,0.10498 -0.87132,0.10498 z m 1.102272,-3.03387 q 0,-0.40942 -0.125974,-0.73485 -0.115476,-0.33593 -0.38842,-0.52489 -0.272943,-0.19946 -0.72435,-0.19946 -0.440909,0 -0.745346,0.19946 -0.304438,0.18896 -0.472403,0.52489 -0.167965,0.32543 -0.209957,0.73485 z"
         style="fill:#1a1a1a;stroke:none;stroke-width:0.26874453"
         id="path64" />
      <path
         d="m 41.060545,194.01741 q -0.724351,0 -1.123268,-0.46191 -0.398918,-0.4724 -0.398918,-1.32272 v -4.47208 h -1.301731 v -0.64037 h 2.110064 v 5.11245 q 0,0.53539 0.199459,0.81883 0.209957,0.28344 0.598377,0.28344 h 0.944805 v 0.68236 z"
         style="fill:#1a1a1a;stroke:none;stroke-width:0.26874453"
         id="path66" />
      <path
         d="m 43.517038,189.05193 h 0.734849 l 0.08398,0.62987 q 0.419914,-0.75584 1.322728,-0.75584 0.892315,0 1.396212,0.69286 0.514393,0.69285 0.514393,1.88961 0,1.20725 -0.514393,1.9106 -0.514394,0.69286 -1.396212,0.69286 -0.92381,0 -1.322728,-0.74535 v 2.49849 h -0.818831 z m 2.03658,4.3776 q 1.16526,0 1.16526,-1.9106 0,-1.90011 -1.16526,-1.90011 -0.598376,0 -0.913311,0.4934 -0.304438,0.49339 -0.304438,1.40671 0,0.91331 0.314935,1.4172 0.314935,0.4934 0.902814,0.4934 z"
         style="fill:#1a1a1a;stroke:none;stroke-width:0.26874453"
         id="path68" />
      <path
         d="m 50.256648,191.41395 q 0,-0.34643 0.136472,-0.64037 0.136472,-0.30444 0.503896,-0.67186 l 0.398918,-0.38842 q 0.125974,-0.12598 0.220454,-0.24145 0.104979,-0.11548 0.14697,-0.20996 0.104978,-0.19946 0.104978,-0.41991 0,-0.19946 -0.08398,-0.35693 -0.07348,-0.15747 -0.199459,-0.27294 -0.283442,-0.24145 -0.755844,-0.24145 -0.367425,0 -0.745347,0.14697 -0.199458,0.084 -0.409415,0.19946 -0.199459,0.10497 -0.419914,0.26244 v -0.82933 q 0.419914,-0.26244 0.839827,-0.37792 0.398918,-0.12597 0.860823,-0.12597 0.440909,0 0.766342,0.11547 0.33593,0.11548 0.566883,0.31494 0.472402,0.41991 0.472402,1.11277 0,0.35692 -0.146969,0.64037 -0.157468,0.29394 -0.556386,0.69285 l -0.38842,0.37793 q -0.314935,0.29393 -0.388419,0.4829 -0.08398,0.16796 -0.08398,0.35692 v 0.56688 h -0.839827 z m 0.440909,2.75043 q -0.272944,0 -0.461905,-0.18896 -0.188961,-0.18896 -0.188961,-0.4829 0,-0.30444 0.178464,-0.4829 0.08398,-0.0735 0.199458,-0.12598 0.115477,-0.063 0.262446,-0.063 0.272944,0 0.461905,0.18896 0.178463,0.17846 0.178463,0.4829 0,0.29394 -0.178463,0.4829 -0.188961,0.18896 -0.451407,0.18896 z"
         style="fill:#1a1a1a;stroke:none;stroke-width:0.26874453"
         id="path70" />
      <path
         d="m 56.282405,194.10139 q -0.304437,0 -0.514394,-0.19946 -0.199459,-0.20995 -0.199459,-0.54588 0,-0.32544 0.199459,-0.53539 0.209957,-0.20996 0.514394,-0.20996 0.304437,0 0.503896,0.20996 0.209957,0.20995 0.209957,0.53539 0,0.33593 -0.209957,0.54588 -0.199459,0.19946 -0.503896,0.19946 z"
         style="fill:#1a1a1a;stroke:none;stroke-width:0.26874453"
         id="path72" />
    </g>
  </g>
</svg>
