<?xml version="1.0" encoding="UTF-8" standalone="no"?>
<svg
   xmlns:dc="http://purl.org/dc/elements/1.1/"
   xmlns:cc="http://creativecommons.org/ns#"
   xmlns:rdf="http://www.w3.org/1999/02/22-rdf-syntax-ns#"
   xmlns:svg="http://www.w3.org/2000/svg"
   xmlns="http://www.w3.org/2000/svg"
   xmlns:sodipodi="http://sodipodi.sourceforge.net/DTD/sodipodi-0.dtd"
   xmlns:inkscape="http://www.inkscape.org/namespaces/inkscape"
   inkscape:version="1.0beta2 (2b71d25, 2019-12-03)"
   sodipodi:docname="folio.svg"
   viewBox="0 0 171.5 198.032"
   height="198.032"
   width="171.5"
   xml:space="preserve"
   id="svg3713"
   version="1.1"><metadata
     id="metadata3719"><rdf:RDF><cc:Work
         rdf:about=""><dc:format>image/svg+xml</dc:format><dc:type
           rdf:resource="http://purl.org/dc/dcmitype/StillImage" /><dc:title /></cc:Work></rdf:RDF></metadata><defs
     id="defs3717"><clipPath
       id="clipPath3733"
       clipPathUnits="userSpaceOnUse"><path
         inkscape:connector-curvature="0"
         id="path3731"
         d="M 0,154.596 H 140.008 V 0 H 0 Z" /></clipPath></defs><sodipodi:namedview
     inkscape:document-rotation="0"
     inkscape:current-layer="g3721"
     inkscape:window-maximized="0"
     inkscape:window-y="23"
     inkscape:window-x="0"
     inkscape:cy="99.017595"
     inkscape:cx="84.839061"
     inkscape:zoom="3.1048668"
     showgrid="false"
     id="namedview3715"
     inkscape:window-height="895"
     inkscape:window-width="1194"
     inkscape:pageshadow="2"
     inkscape:pageopacity="0"
     guidetolerance="10"
     gridtolerance="10"
     objecttolerance="10"
     borderopacity="1"
     bordercolor="#666666"
     pagecolor="#ffffff" /><g
     transform="matrix(1.3333333,0,0,-1.3333333,-8.4995998,202.08159)"
     inkscape:label="FOLIO_Sticker_Hexagon_FINAL_OL"
     inkscape:groupmode="layer"
     id="g3721"><g
       transform="translate(134.9997,40.1682)"
       id="g3723"><path
         inkscape:connector-curvature="0"
         id="path3725"
         style="fill:#f06a52;fill-opacity:1;fill-rule:nonzero;stroke:none"
         d="m 0,0 v 74.262 l -64.313,37.131 -64.312,-37.131 V 0 l 64.312,-37.131 z" /></g><g
       id="g3727"><g
         clip-path="url(#clipPath3733)"
         id="g3729"><g
           transform="translate(79.3152,76.4485)"
           id="g3735"><path
             inkscape:connector-curvature="0"
             id="path3737"
             style="fill:#ffffff;fill-opacity:1;fill-rule:nonzero;stroke:none"
             d="m 0,0 c 0.001,-0.006 0.002,-0.011 0.004,-0.017 -0.014,-0.004 -0.025,-0.008 -0.039,-0.012 -1.737,-0.561 -4.733,-1.322 -8.194,-1.322 -3.723,0 -6.899,0.878 -8.557,1.442 0.001,0.003 0.001,0.006 0.002,0.009 l 0.016,0.061 c 0.163,0.551 0.355,1.115 0.588,1.725 0.002,0.006 0.005,0.011 0.007,0.017 1.633,-0.53 4.472,-1.258 7.764,-1.258 3.168,0 5.924,0.675 7.582,1.199 0.065,0.02 0.127,0.04 0.187,0.06 C -0.639,1.901 -0.638,1.899 -0.637,1.896 -0.391,1.262 -0.177,0.625 0,0 m -0.117,-9.496 -0.069,-0.187 c -1.967,-0.505 -4.821,-1.045 -8.043,-1.045 -3.435,0 -6.448,0.612 -8.418,1.143 -0.024,0.061 -0.05,0.122 -0.073,0.183 l -0.058,0.157 c -0.061,0.164 -0.122,0.328 -0.176,0.496 -0.146,0.456 -0.264,0.914 -0.359,1.366 1.741,-0.534 5.033,-1.35 8.884,-1.35 3.886,0 7.205,0.832 8.934,1.364 -0.144,-0.686 -0.351,-1.4 -0.622,-2.127 m -2.198,-4.156 c -0.194,-0.286 -0.395,-0.565 -0.601,-0.842 -0.06,-0.08 -0.122,-0.157 -0.183,-0.236 -1.52,-0.251 -3.262,-0.435 -5.13,-0.435 -2.037,0 -3.921,0.217 -5.534,0.503 -0.058,0.078 -0.117,0.154 -0.176,0.234 -0.405,0.549 -0.776,1.095 -1.102,1.623 -0.091,0.148 -0.177,0.299 -0.264,0.45 1.806,-0.42 4.202,-0.814 6.876,-0.814 2.701,0 5.119,0.402 6.93,0.826 -0.275,-0.471 -0.544,-0.903 -0.816,-1.309 M 0.557,-2.648 C 0.65,-3.312 0.711,-3.986 0.734,-4.653 l 0.002,-0.071 c -1.997,-0.55 -5.24,-1.239 -8.965,-1.239 -3.959,0 -7.368,0.776 -9.321,1.338 0.001,0.022 0.001,0.043 0.001,0.065 l 0.004,0.098 c 0.002,0.058 0.004,0.116 0.007,0.174 0.027,0.493 0.082,1.011 0.169,1.624 1.817,-0.533 5.109,-1.304 8.936,-1.304 3.868,0 7.184,0.787 8.99,1.32 m -13.561,26.6 c -0.12,0.041 -0.225,0.137 -0.309,0.276 -0.274,0.448 -0.335,1.355 0.014,2.392 0.218,0.645 0.549,1.204 0.934,1.574 0.027,0.027 0.054,0.044 0.082,0.068 0.304,0.266 0.605,0.381 0.834,0.303 0.25,-0.084 0.433,-0.394 0.505,-0.85 0.082,-0.527 0.006,-1.173 -0.211,-1.818 -0.458,-1.358 -1.342,-2.115 -1.849,-1.945 m 7.166,3.763 c 0.071,0.456 0.255,0.766 0.505,0.85 0.049,0.017 0.101,0.025 0.155,0.025 0.201,0 0.438,-0.116 0.677,-0.324 0.028,-0.024 0.057,-0.045 0.085,-0.072 0.384,-0.37 0.715,-0.929 0.933,-1.574 0.35,-1.039 0.288,-1.948 0.012,-2.395 -0.084,-0.137 -0.188,-0.232 -0.307,-0.272 -0.505,-0.172 -1.391,0.586 -1.849,1.944 -0.218,0.645 -0.292,1.291 -0.211,1.818 M 29.271,25.24 c -0.772,0.999 -2.02,1.497 -3.809,1.497 -1.71,0 -3.913,-0.455 -6.667,-1.365 C 10.634,22.675 6.453,19.583 3.399,17.327 2.177,16.422 1.159,15.674 0.152,15.138 c -0.153,1.866 -0.85,3.697 -2.054,5.13 -0.671,0.813 -1.507,1.495 -2.431,1.985 0.209,0.255 0.389,0.533 0.527,0.83 0.051,0.106 0.089,0.215 0.129,0.325 0.026,0.006 0.051,0.01 0.076,0.018 0.896,0.303 1.179,1.783 0.644,3.372 -0.246,0.727 -0.627,1.366 -1.074,1.796 -0.391,0.376 -0.801,0.561 -1.183,0.548 -0.438,0.45 -0.951,0.833 -1.518,1.097 0.184,0.937 0.457,1.938 0.826,3.027 0.536,1.553 1.206,3.103 1.993,4.605 0.866,1.637 1.749,3.016 2.699,4.215 0.574,0.721 1.125,1.311 1.686,1.805 0.697,0.619 1.353,1.02 2.007,1.225 0.224,0.07 0.345,0.298 0.282,0.51 -0.052,0.173 -0.213,0.293 -0.393,0.293 -0.039,0 -0.079,-0.006 -0.117,-0.018 -0.784,-0.234 -1.527,-0.668 -2.339,-1.365 -0.605,-0.519 -1.2,-1.138 -1.818,-1.89 -1.003,-1.231 -1.937,-2.645 -2.855,-4.322 -0.832,-1.536 -1.545,-3.123 -2.119,-4.718 -0.391,-1.103 -0.68,-2.101 -0.885,-3.044 -0.049,0.008 -0.097,0.021 -0.147,0.027 -0.366,0.046 -0.737,0.032 -1.102,-0.029 -0.205,0.943 -0.494,1.942 -0.884,3.046 -0.576,1.595 -1.289,3.182 -2.12,4.718 -0.918,1.677 -1.851,3.091 -2.854,4.321 -0.618,0.753 -1.213,1.372 -1.818,1.891 -0.813,0.697 -1.556,1.131 -2.34,1.365 -0.038,0.012 -0.077,0.018 -0.117,0.018 -0.18,0 -0.337,-0.116 -0.391,-0.287 -0.067,-0.215 0.054,-0.445 0.268,-0.513 0.666,-0.208 1.323,-0.609 2.019,-1.228 0.561,-0.494 1.112,-1.084 1.687,-1.805 0.95,-1.199 1.833,-2.578 2.699,-4.215 0.786,-1.502 1.457,-3.052 1.992,-4.606 0.37,-1.091 0.644,-2.094 0.828,-3.031 -0.5,-0.233 -0.961,-0.546 -1.358,-0.926 -0.056,-0.054 -0.108,-0.111 -0.161,-0.166 -0.383,0.015 -0.794,-0.17 -1.187,-0.548 -0.447,-0.43 -0.828,-1.069 -1.074,-1.796 -0.535,-1.589 -0.252,-3.069 0.643,-3.372 0.026,-0.008 0.051,-0.012 0.076,-0.018 0.156,-0.423 0.378,-0.825 0.669,-1.173 -0.999,-0.527 -1.896,-1.275 -2.597,-2.175 -1.12,-1.415 -1.777,-3.187 -1.91,-4.992 -1.05,0.539 -2.103,1.316 -3.378,2.259 -3.053,2.256 -7.234,5.348 -15.396,8.045 -2.754,0.91 -4.957,1.365 -6.666,1.365 -1.79,0 -3.037,-0.498 -3.81,-1.497 -1.448,-1.872 0.05,-5.009 2.278,-7.14 0.888,-0.85 1.85,-1.624 2.698,-2.307 1.066,-0.857 1.783,-1.452 2.16,-1.946 0.037,-0.043 0.035,-0.039 0.069,-0.088 1.779,1.241 4.499,2.088 6.626,2.207 1.388,0.077 8.969,0.175 15.388,-1.469 v -0.006 c -0.002,-0.176 0.007,-0.352 0.014,-0.528 -4.594,1.166 -9.801,1.368 -12.804,1.368 -1.511,0 -2.464,-0.051 -2.496,-0.052 -2.226,-0.125 -4.828,-0.961 -6.483,-2.169 -0.136,-0.099 -0.264,-0.201 -0.386,-0.305 -0.137,-0.116 -0.263,-0.234 -0.38,-0.355 -0.393,-0.407 -0.683,-0.841 -0.817,-1.297 -0.345,-1.173 0.345,-2.394 2.05,-3.632 4.163,-3.022 10.718,-4.253 15.979,-0.191 1.91,1.474 3.48,2.609 4.724,3.421 0.386,0.252 0.74,0.475 1.061,0.663 0.304,-0.911 0.726,-1.785 1.299,-2.552 0.443,-0.611 0.972,-1.16 1.562,-1.626 -0.667,-0.737 -1.286,-1.603 -1.868,-2.62 -0.43,-0.755 -0.816,-1.583 -1.178,-2.532 -0.239,-0.623 -0.436,-1.201 -0.603,-1.766 l -0.016,-0.064 c -0.258,-0.893 -0.458,-1.837 -0.597,-2.803 -0.093,-0.646 -0.149,-1.189 -0.178,-1.707 -0.004,-0.063 -0.006,-0.125 -0.008,-0.188 l -0.004,-0.094 c -0.03,-0.775 0,-1.458 0.088,-2.087 0.034,-0.243 0.078,-0.483 0.125,-0.723 0.104,-0.517 0.241,-1.046 0.408,-1.569 0.056,-0.177 0.121,-0.35 0.185,-0.522 l 0.058,-0.155 c 0.343,-0.93 0.789,-1.878 1.326,-2.818 l 0.051,-0.087 c 0.114,-0.201 0.228,-0.401 0.35,-0.598 0.334,-0.541 0.713,-1.099 1.127,-1.66 0.542,-0.736 1.078,-1.386 1.64,-1.987 0.429,-0.46 1.005,-1.056 1.664,-1.596 0.565,-0.452 1.236,-0.958 2.046,-1.226 0.189,-0.067 0.4,-0.1 0.615,-0.1 0.257,0 0.52,0.047 0.761,0.14 0.354,0.125 0.701,0.303 1.087,0.56 0.568,0.371 1.121,0.828 1.793,1.483 0.828,0.817 1.605,1.711 2.309,2.658 0.211,0.283 0.417,0.57 0.616,0.863 0.325,0.483 0.642,0.998 0.971,1.573 0.496,0.872 0.892,1.684 1.208,2.485 l 0.079,0.214 c 0.302,0.81 0.531,1.607 0.681,2.369 0.139,0.704 0.212,1.362 0.225,2.015 0,0.163 -0.006,0.326 -0.013,0.489 L 1.289,-4.634 C 1.265,-3.931 1.201,-3.221 1.101,-2.523 0.971,-1.622 0.78,-0.722 0.534,0.15 0.353,0.792 0.133,1.447 -0.119,2.097 c -0.233,0.6 -0.454,1.119 -0.679,1.587 -0.671,1.365 -1.463,2.555 -2.355,3.548 0.651,0.509 1.232,1.114 1.705,1.796 0.5,0.706 0.876,1.494 1.154,2.316 C -0.003,11.17 0.311,10.975 0.652,10.751 1.896,9.939 3.466,8.804 5.375,7.33 10.637,3.268 17.191,4.499 21.354,7.521 c 1.706,1.238 2.396,2.459 2.051,3.632 -0.134,0.456 -0.424,0.89 -0.818,1.297 -0.117,0.121 -0.243,0.239 -0.379,0.355 -0.123,0.104 -0.25,0.206 -0.387,0.305 -1.655,1.208 -4.257,2.044 -6.483,2.169 -0.032,10e-4 -0.984,0.052 -2.496,0.052 -2.97,0 -8.098,-0.196 -12.655,-1.329 0.005,0.176 0.002,0.352 -0.001,0.529 6.389,1.608 13.877,1.511 15.255,1.435 2.127,-0.119 4.853,-0.961 6.632,-2.201 0.023,0.032 0.044,0.058 0.062,0.082 0.378,0.494 1.095,1.089 2.16,1.946 0.849,0.683 1.81,1.457 2.699,2.307 2.228,2.131 3.725,5.268 2.277,7.14" /></g><g
           transform="translate(46.7038,46.2503)"
           id="g3739"><path
             inkscape:connector-curvature="0"
             id="path3741"
             style="fill:#ffffff;fill-opacity:1;fill-rule:nonzero;stroke:none"
             d="m 0,0 -1.569,-4.748 h -0.879 l -1.249,3.548 -1.26,-3.548 h -0.88 L -7.405,0 h 0.968 l 1.1,-3.588 1.249,3.598 h 0.77 L -2.068,-3.588 -0.969,0 Z" /></g><g
           transform="translate(54.3142,46.2503)"
           id="g3743"><path
             inkscape:connector-curvature="0"
             id="path3745"
             style="fill:#ffffff;fill-opacity:1;fill-rule:nonzero;stroke:none"
             d="m 0,0 -1.569,-4.748 h -0.88 L -3.698,-1.2 -4.957,-4.748 h -0.88 L -7.406,0 h 0.969 l 1.1,-3.588 1.249,3.598 h 0.77 L -2.069,-3.588 -0.97,0 Z" /></g><g
           transform="translate(61.9236,46.2503)"
           id="g3747"><path
             inkscape:connector-curvature="0"
             id="path3749"
             style="fill:#ffffff;fill-opacity:1;fill-rule:nonzero;stroke:none"
             d="m 0,0 -1.569,-4.748 h -0.879 l -1.249,3.548 -1.26,-3.548 h -0.88 L -7.405,0 h 0.968 l 1.1,-3.588 1.249,3.598 h 0.77 L -2.068,-3.588 -0.969,0 Z" /></g><g
           transform="translate(62.8376,41.4026)"
           id="g3751"><path
             inkscape:connector-curvature="0"
             id="path3753"
             style="fill:#ffffff;fill-opacity:1;fill-rule:nonzero;stroke:none"
             d="m 0,0 c -0.391,0 -0.67,0.24 -0.67,0.62 0,0.39 0.279,0.63 0.67,0.63 0.38,0 0.659,-0.24 0.659,-0.63 C 0.659,0.24 0.38,0 0,0" /></g><g
           transform="translate(67.2458,47.6892)"
           id="g3755"><path
             inkscape:connector-curvature="0"
             id="path3757"
             style="fill:#ffffff;fill-opacity:1;fill-rule:nonzero;stroke:none"
             d="m 0,0 c 0,0 -0.27,0.09 -0.54,0.09 -0.629,0 -0.73,-0.47 -0.73,-1.009 v -0.53 h 1.13 v -0.77 h -1.13 v -3.968 h -0.949 v 3.968 h -0.679 v 0.77 h 0.679 v 0.48 c 0,0.619 0.12,1.019 0.32,1.269 0.21,0.26 0.589,0.52 1.139,0.52 0.55,0 0.82,-0.111 0.82,-0.111 z" /></g><g
           transform="translate(69.7654,45.5603)"
           id="g3759"><path
             inkscape:connector-curvature="0"
             id="path3761"
             style="fill:#ffffff;fill-opacity:1;fill-rule:nonzero;stroke:none"
             d="m 0,0 c -0.959,0 -1.549,-0.739 -1.549,-1.669 0,-0.939 0.59,-1.679 1.549,-1.679 0.95,0 1.539,0.74 1.539,1.679 C 1.539,-0.739 0.95,0 0,0 m 0,-4.167 c -1.419,0 -2.519,0.989 -2.519,2.468 0,1.47 1.1,2.479 2.519,2.479 1.409,0 2.509,-1.009 2.509,-2.479 0,-1.479 -1.1,-2.468 -2.509,-2.468" /></g><path
           inkscape:connector-curvature="0"
           id="path3763"
           style="fill:#ffffff;fill-opacity:1;fill-rule:nonzero;stroke:none"
           d="m 74.276,41.503 h -0.949 v 6.896 h 0.949 z" /><path
           inkscape:connector-curvature="0"
           id="path3765"
           style="fill:#ffffff;fill-opacity:1;fill-rule:nonzero;stroke:none"
           d="m 76.646,41.503 h -0.959 v 4.748 h 0.959 z m -0.479,5.716 c -0.37,0 -0.63,0.25 -0.63,0.59 0,0.34 0.26,0.59 0.63,0.59 0.359,0 0.619,-0.25 0.619,-0.59 0,-0.34 -0.26,-0.59 -0.619,-0.59" /><g
           transform="translate(80.2058,45.5603)"
           id="g3767"><path
             inkscape:connector-curvature="0"
             id="path3769"
             style="fill:#ffffff;fill-opacity:1;fill-rule:nonzero;stroke:none"
             d="m 0,0 c -0.96,0 -1.55,-0.739 -1.55,-1.669 0,-0.939 0.59,-1.679 1.55,-1.679 0.949,0 1.539,0.74 1.539,1.679 C 1.539,-0.739 0.949,0 0,0 m 0,-4.167 c -1.42,0 -2.519,0.989 -2.519,2.468 0,1.47 1.099,2.479 2.519,2.479 1.409,0 2.509,-1.009 2.509,-2.479 0,-1.479 -1.1,-2.468 -2.509,-2.468" /></g><g
           transform="translate(84.3669,41.4026)"
           id="g3771"><path
             inkscape:connector-curvature="0"
             id="path3773"
             style="fill:#ffffff;fill-opacity:1;fill-rule:nonzero;stroke:none"
             d="m 0,0 c -0.391,0 -0.67,0.24 -0.67,0.62 0,0.39 0.279,0.63 0.67,0.63 0.38,0 0.659,-0.24 0.659,-0.63 C 0.659,0.24 0.38,0 0,0" /></g><g
           transform="translate(88.5261,45.5603)"
           id="g3775"><path
             inkscape:connector-curvature="0"
             id="path3777"
             style="fill:#ffffff;fill-opacity:1;fill-rule:nonzero;stroke:none"
             d="m 0,0 c -0.96,0 -1.55,-0.739 -1.55,-1.669 0,-0.939 0.59,-1.679 1.55,-1.679 0.949,0 1.539,0.74 1.539,1.679 C 1.539,-0.739 0.949,0 0,0 m 0,-4.167 c -1.42,0 -2.519,0.989 -2.519,2.468 0,1.47 1.099,2.479 2.519,2.479 1.409,0 2.509,-1.009 2.509,-2.479 0,-1.479 -1.1,-2.468 -2.509,-2.468" /></g><g
           transform="translate(94.6257,45.3704)"
           id="g3779"><path
             inkscape:connector-curvature="0"
             id="path3781"
             style="fill:#ffffff;fill-opacity:1;fill-rule:nonzero;stroke:none"
             d="m 0,0 h -0.04 c -0.09,0.04 -0.26,0.1 -0.52,0.1 -0.419,0 -0.679,-0.27 -0.779,-0.4 -0.091,-0.13 -0.29,-0.499 -0.29,-1.199 v -2.369 h -0.96 V 0.88 h 0.96 L -1.64,0.15 h 0.031 c 0.23,0.54 0.66,0.82 1.17,0.82 0.319,0 0.499,-0.08 0.499,-0.08 z" /></g><g
           transform="translate(97.406,45.5706)"
           id="g3783"><path
             inkscape:connector-curvature="0"
             id="path3785"
             style="fill:#ffffff;fill-opacity:1;fill-rule:nonzero;stroke:none"
             d="m 0,0 c -0.97,0 -1.51,-0.72 -1.51,-1.619 0,-0.9 0.54,-1.61 1.51,-1.61 0.979,0 1.509,0.71 1.509,1.61 C 1.509,-0.72 0.979,0 0,0 m 2.429,-3.068 c 0,-1.05 -0.17,-1.63 -0.521,-2.049 -0.349,-0.43 -0.939,-0.91 -2.118,-0.91 -1.17,0 -1.979,0.61 -2.119,0.71 l 0.45,0.67 c 0.249,-0.22 0.989,-0.6 1.698,-0.6 0.71,0 1.11,0.28 1.3,0.519 0.19,0.23 0.36,0.68 0.36,1.33 v 0.24 h -0.02 c -0.32,-0.48 -0.859,-0.85 -1.659,-0.85 -1.22,0 -2.289,0.88 -2.289,2.389 0,1.509 1.069,2.389 2.289,2.389 0.829,0 1.379,-0.4 1.659,-0.84 H 1.488 L 1.479,0.68 h 0.95 z" /></g><g
           transform="translate(70.8542,141.5447)"
           id="g3787"><path
             inkscape:connector-curvature="0"
             id="path3789"
             style="fill:#ffffff;fill-opacity:1;fill-rule:nonzero;stroke:none"
             d="M 0,0 -55.639,-32.123 V -96.368 L 0,-128.49 55.638,-96.368 v 64.245 z M 0,-1.155 54.638,-32.7 V -95.791 L 0,-127.336 -54.639,-95.791 V -32.7 Z" /></g></g></g></g></svg>
