<svg xmlns="http://www.w3.org/2000/svg" xmlns:xlink="http://www.w3.org/1999/xlink" viewBox="0 0 735 852"><defs><style>.cls-1,.cls-17{fill:none;}.cls-2{isolation:isolate;}.cls-3{fill:#523f2d;}.cls-4{fill:#a75f33;}.cls-5{fill:#be7641;}.cls-6{opacity:0.15;}.cls-7{fill:#603912;}.cls-8{fill:#dba976;}.cls-9{fill:#be8f63;}.cls-10{opacity:0.39;}.cls-11{fill:#fff;}.cls-12{opacity:0.4;}.cls-13{opacity:0.63;}.cls-14{fill:#954c21;}.cls-15{opacity:0.6;}.cls-16{clip-path:url(#clip-path);}.cls-17{stroke:#be7641;stroke-miterlimit:10;stroke-width:8px;}.cls-18{opacity:0.3;mix-blend-mode:multiply;}.cls-19{clip-path:url(#clip-path-2);}.cls-20{clip-path:url(#clip-path-3);}.cls-21{fill:#404040;}.cls-22{fill:#666;}.cls-23{stroke:#666;stroke-width:6.12px;}</style><clipPath id="clip-path"><path class="cls-1" d="M366.2,529.6s1.3,86.6.6,304c19.9,7.4,343.5-208.8,343.5-208.8l-4-272Z"/></clipPath><clipPath id="clip-path-2"><polygon class="cls-1" points="366.2 153.8 366.2 489 274.8 480.5 29.3 348.7 366.2 153.8"/></clipPath><clipPath id="clip-path-3"><polygon class="cls-1" points="381.3 792.9 381.3 775.4 534.6 686.9 534.6 704.4 381.3 792.9"/></clipPath></defs><title>RStudio_Hex 2016 v7 outlines</title><g class="cls-2"><g id="Layer_1" data-name="Layer 1"><path class="cls-3" d="M705.6,196.2L427.8,35.8,367.4,1,307.1,35.8,29.3,196.2,0,213.1V637.4l29.3,16.9L310.6,816.7l56.9,32.8,56.9-32.8L705.6,654.3l29.3-16.9V213.1ZM367.4,816.7L29.3,621.5V363.9L705.6,350V621.5Z"/><polygon class="cls-3" points="29.3 363.9 29.3 621.5 367.4 816.7 705.6 621.5 705.6 350 29.3 363.9"/><polygon class="cls-4" points="366.2 153.8 706.3 352.8 697.5 631.3 366.2 489 366.2 153.8"/><polygon class="cls-5" points="366.2 153.8 366.2 489 33.3 638.9 29.3 348.7 366.2 153.8"/><g class="cls-6"><polygon class="cls-7" points="366.2 153.8 366.8 228.1 366.8 265.4 366.8 339.9 366.8 414.5 366.8 451.7 366.2 489 365.6 451.7 365.6 414.5 365.6 339.9 365.6 265.4 365.6 228.1 366.2 153.8"/><polygon class="cls-7" points="366.2 489 407.9 511.7 449.3 535 532.1 581.5 614.9 628 656.3 651.2 691.4 632 655.8 652.3 614.4 629.1 531.5 582.6 448.7 536.1 407.3 512.8 366.2 489"/><polygon class="cls-7" points="366.2 489 324.9 512.1 283.3 534.6 200 579.7 116.8 624.7 75.2 647.3 33.3 638.9 74.6 646.2 116.3 623.6 199.5 578.6 282.7 533.5 324.3 511 366.2 489"/></g><polygon class="cls-8" points="366.2 529.6 366.2 833.8 710.3 624.8 706.3 352.8 366.2 529.6"/><polygon class="cls-9" points="366.2 833.8 19.9 628.7 29.3 348.7 366.2 529.6 366.2 833.8"/><g class="cls-10"><polygon class="cls-11" points="366.2 529.6 366.8 571.4 366.8 613.2 366.8 696.9 366.8 780.5 366.8 822.3 366.2 833.8 365.6 822.3 365.6 780.5 365.6 696.9 365.6 613.2 365.6 571.4 366.2 529.6"/></g><g class="cls-12"><polygon class="cls-11" points="366.2 153.8 409 177.9 451.5 202.8 536.5 252.6 621.5 302.3 664 327.2 706.3 352.8 663.5 328.6 621 303.7 536 254 451 204.2 408.4 179.3 366.2 153.8"/><polygon class="cls-11" points="29.3 348.7 71.7 370.7 113.8 393.4 198 438.6 282.3 483.8 324.4 506.4 366.2 529.6 323.8 507.5 281.7 484.9 197.5 439.7 113.3 394.5 71.1 371.8 29.3 348.7"/><polygon class="cls-11" points="366.2 529.6 408.4 506.9 450.9 484.8 536 440.6 621 396.4 663.5 374.3 706.3 352.8 664 375.4 621.5 397.5 536.5 441.7 451.5 485.9 409 508 366.2 529.6"/><polygon class="cls-11" points="366.2 153.8 324.3 178.7 282.2 202.9 198 251.4 113.8 299.9 71.7 324.2 29.3 348.7 71.2 322.8 113.3 298.5 197.5 250.1 281.7 201.6 323.8 177.3 366.2 153.8"/></g><g id="text8207" class="cls-13"><path id="path8212" d="M187.2,554.8l0.9,62,11.6,6.7-0.9-62.6,14,7.3V557.4l-14-7.2V539.9q-0.1-4.9,2.3-5.4t6.7,1.6l3.4,2a22,22,0,0,1,3.4,2.4V529.8a35.5,35.5,0,0,0-4-2.8l-3.8-2.2c-6.5-3.2-11.4-4-14.8-2.6s-4.8,5.1-4.7,11l0.2,10.9-11.7-6,0.2,10.5,11.7,6.1h0"/><path id="path8214" d="M233.1,605.5a29.9,29.9,0,0,1,1.6-11.1,13,13,0,0,1,5.1-6.3,12.2,12.2,0,0,1,7.5-1.6,26,26,0,0,1,9.5,3,41.7,41.7,0,0,1,9.5,6.9,49.1,49.1,0,0,1,13.5,22.1,45.6,45.6,0,0,1,2.1,13.6,27.7,27.7,0,0,1-2,11.5,11.9,11.9,0,0,1-5.3,6.2,13.4,13.4,0,0,1-8,1,26.4,26.4,0,0,1-9.4-3.4,45.5,45.5,0,0,1-9.5-7.3,52.9,52.9,0,0,1-7.6-9.7,53.8,53.8,0,0,1-5.2-11.7,49.8,49.8,0,0,1-1.9-13.2h0m-13-7.1a62.8,62.8,0,0,0,2.5,16.5,69.7,69.7,0,0,0,7.1,16.3,75.5,75.5,0,0,0,27.8,27q9.4,5.4,16.5,6.5t12.3-1.5a16.8,16.8,0,0,0,7.6-8.7,37.4,37.4,0,0,0,2.5-14.7,62.9,62.9,0,0,0-2.7-17.6,67.3,67.3,0,0,0-7.8-17.1A75.8,75.8,0,0,0,273.4,590a70.8,70.8,0,0,0-16.7-11.7q-9.2-4.7-16.2-5.2T229,575.5a16.6,16.6,0,0,0-6.8,8.8,38.6,38.6,0,0,0-2.1,14.1h0"/><path id="path8216" d="M311.7,608.3l0.3,79.7,14.1,8.1V660.5a40.7,40.7,0,0,1,1.7-12.8,12.8,12.8,0,0,1,5.4-7.4q3.8-2.3,10-1.2t15.3,5.8V630.4q-12.2-6.6-20-5.8t-12.9,7.9l-0.3-.2V615.2l-13.4-6.9h0"/></g><polygon class="cls-14" points="366.2 153.7 366.2 493.3 279.5 497.5 366.2 153.7"/><g class="cls-15"><g class="cls-16"><line class="cls-17" x1="343.2" y1="546.6" x2="543.1" y2="722.5"/><line class="cls-17" x1="331.6" y1="558.2" x2="531.5" y2="734.1"/><line class="cls-17" x1="320.7" y1="569.2" x2="520.5" y2="745.1"/><line class="cls-17" x1="309.1" y1="580.8" x2="508.9" y2="756.7"/><line class="cls-17" x1="298" y1="591.9" x2="497.8" y2="767.8"/><line class="cls-17" x1="286.4" y1="603.5" x2="486.2" y2="779.4"/><line class="cls-17" x1="274.6" y1="615.2" x2="474.4" y2="791.2"/><line class="cls-17" x1="263" y1="626.8" x2="462.8" y2="802.8"/><line class="cls-17" x1="252" y1="637.8" x2="451.9" y2="813.7"/><line class="cls-17" x1="240.4" y1="649.4" x2="440.3" y2="825.3"/><line class="cls-17" x1="229.3" y1="660.5" x2="429.2" y2="836.4"/><line class="cls-17" x1="217.7" y1="672.1" x2="417.6" y2="848"/><line class="cls-17" x1="207.2" y1="682.7" x2="407" y2="858.6"/><line class="cls-17" x1="195.6" y1="694.3" x2="395.4" y2="870.2"/><line class="cls-17" x1="184.6" y1="705.2" x2="384.4" y2="881.1"/><line class="cls-17" x1="173" y1="716.8" x2="372.8" y2="892.7"/><line class="cls-17" x1="161.9" y1="727.9" x2="361.7" y2="903.8"/><line class="cls-17" x1="150.3" y1="739.5" x2="350.1" y2="915.4"/><line class="cls-17" x1="549.4" y1="344.4" x2="749.3" y2="520.3"/><line class="cls-17" x1="537.8" y1="356" x2="737.7" y2="531.9"/><line class="cls-17" x1="526.9" y1="367" x2="726.7" y2="542.9"/><line class="cls-17" x1="515.3" y1="378.6" x2="715.1" y2="554.5"/><line class="cls-17" x1="504.2" y1="389.7" x2="762.8" y2="616.7"/><line class="cls-17" x1="492.6" y1="401.3" x2="751.3" y2="628.3"/><line class="cls-17" x1="480.8" y1="413.1" x2="739.5" y2="640.1"/><line class="cls-17" x1="469.2" y1="424.7" x2="727.9" y2="651.7"/><line class="cls-17" x1="458.2" y1="435.6" x2="716.9" y2="662.7"/><line class="cls-17" x1="446.6" y1="447.2" x2="705.3" y2="674.2"/><line class="cls-17" x1="435.5" y1="458.3" x2="694.2" y2="685.4"/><line class="cls-17" x1="423.9" y1="469.9" x2="682.6" y2="697"/><line class="cls-17" x1="413.4" y1="480.5" x2="672" y2="707.5"/><line class="cls-17" x1="401.8" y1="492.1" x2="660.5" y2="719.1"/><line class="cls-17" x1="390.8" y1="503" x2="649.5" y2="730.1"/><line class="cls-17" x1="379.2" y1="514.6" x2="637.9" y2="741.7"/><line class="cls-17" x1="368.1" y1="525.7" x2="626.8" y2="752.8"/><line class="cls-17" x1="356.5" y1="537.3" x2="615.2" y2="764.4"/><line class="cls-17" x1="620.5" y1="280.4" x2="820.4" y2="456.4"/><line class="cls-17" x1="609" y1="292" x2="808.8" y2="467.9"/><line class="cls-17" x1="598" y1="303" x2="797.8" y2="478.9"/><line class="cls-17" x1="586.4" y1="314.6" x2="786.2" y2="490.5"/><line class="cls-17" x1="575.3" y1="325.7" x2="775.1" y2="501.6"/><line class="cls-17" x1="563.7" y1="337.3" x2="763.5" y2="513.2"/></g></g><g class="cls-18"><g class="cls-19"><line class="cls-17" x1="16.7" y1="298.6" x2="216.6" y2="474.6"/><line class="cls-17" x1="5.1" y1="310.2" x2="205" y2="486.2"/><line class="cls-17" x1="-5.8" y1="321.2" x2="194" y2="497.1"/><line class="cls-17" x1="-17.4" y1="332.8" x2="182.4" y2="508.7"/><line class="cls-17" x1="-28.5" y1="343.9" x2="171.3" y2="519.8"/><line class="cls-17" x1="-40.1" y1="355.5" x2="159.7" y2="531.4"/><line class="cls-17" x1="-51.9" y1="367.3" x2="147.9" y2="543.2"/><line class="cls-17" x1="-63.5" y1="378.9" x2="136.3" y2="554.8"/><line class="cls-17" x1="-74.5" y1="389.8" x2="125.4" y2="565.8"/><line class="cls-17" x1="-86" y1="401.4" x2="113.8" y2="577.4"/><line class="cls-17" x1="-97.2" y1="412.5" x2="102.7" y2="588.5"/><line class="cls-17" x1="-108.7" y1="424.1" x2="91.1" y2="600.1"/><line class="cls-17" x1="-119.3" y1="434.7" x2="80.5" y2="610.6"/><line class="cls-17" x1="-130.9" y1="446.3" x2="68.9" y2="622.2"/><line class="cls-17" x1="-141.9" y1="457.3" x2="58" y2="633.2"/><line class="cls-17" x1="-153.5" y1="468.9" x2="46.4" y2="644.8"/><line class="cls-17" x1="-164.6" y1="480" x2="35.3" y2="655.9"/><line class="cls-17" x1="-176.2" y1="491.6" x2="23.7" y2="667.5"/><line class="cls-17" x1="222.9" y1="96.5" x2="422.8" y2="272.4"/><line class="cls-17" x1="211.3" y1="108.1" x2="411.2" y2="284"/><line class="cls-17" x1="200.4" y1="119" x2="400.2" y2="294.9"/><line class="cls-17" x1="188.8" y1="130.6" x2="388.6" y2="306.5"/><line class="cls-17" x1="177.7" y1="141.7" x2="436.4" y2="368.8"/><line class="cls-17" x1="166.1" y1="153.3" x2="424.8" y2="380.4"/><line class="cls-17" x1="154.3" y1="165.1" x2="413" y2="392.1"/><line class="cls-17" x1="142.7" y1="176.7" x2="401.4" y2="403.7"/><line class="cls-17" x1="131.8" y1="187.7" x2="390.4" y2="414.7"/><line class="cls-17" x1="120.2" y1="199.3" x2="378.8" y2="426.3"/><line class="cls-17" x1="109" y1="210.4" x2="367.7" y2="437.4"/><line class="cls-17" x1="97.5" y1="222" x2="356.1" y2="449"/><line class="cls-17" x1="86.9" y1="232.5" x2="345.6" y2="459.6"/><line class="cls-17" x1="75.3" y1="244.1" x2="334" y2="471.2"/><line class="cls-17" x1="64.3" y1="255.1" x2="323" y2="482.1"/><line class="cls-17" x1="52.7" y1="266.7" x2="311.4" y2="493.7"/><line class="cls-17" x1="41.6" y1="277.8" x2="300.3" y2="504.8"/><line class="cls-17" x1="30" y1="289.4" x2="288.7" y2="516.4"/><line class="cls-17" x1="294.1" y1="32.5" x2="493.9" y2="208.4"/><line class="cls-17" x1="282.5" y1="44.1" x2="482.3" y2="220"/><line class="cls-17" x1="271.5" y1="55" x2="471.3" y2="231"/><line class="cls-17" x1="259.9" y1="66.6" x2="459.7" y2="242.5"/><line class="cls-17" x1="248.8" y1="77.7" x2="448.6" y2="253.7"/><line class="cls-17" x1="237.2" y1="89.3" x2="437" y2="265.3"/></g></g><g id="text7207"><path id="path7212" class="cls-8" d="M429.2,627l12.8-6.7q-0.7-6.7-3.5-10.4a12.6,12.6,0,0,0-7.1-5,19.4,19.4,0,0,0-10,.1,48.6,48.6,0,0,0-12.2,4.5A62.4,62.4,0,0,0,393,621.3a68.9,68.9,0,0,0-11.8,15.4,71.4,71.4,0,0,0-7,17.7,75.5,75.5,0,0,0-2.3,18.6,47.9,47.9,0,0,0,2.3,15.9,19.2,19.2,0,0,0,7.2,9.4q4.8,3,11.7,2.1t15.9-5.9a64.4,64.4,0,0,0,23.1-21A65.7,65.7,0,0,0,442.5,645l-12.6,6.8a40.8,40.8,0,0,1-6.4,18A39.7,39.7,0,0,1,408.9,683q-6,3.3-10.4,3.2a10.4,10.4,0,0,1-7.2-2.7,17.5,17.5,0,0,1-4.2-7.5,41.9,41.9,0,0,1-1.2-10.5,66.2,66.2,0,0,1,1.2-12.6,51.6,51.6,0,0,1,4-12.4,46.3,46.3,0,0,1,7.6-11.1,41,41,0,0,1,11.6-8.6q8-4.1,12.8-2.4t6.2,8.6h0"/><path id="path7214" class="cls-8" d="M518.6,631.5a27.5,27.5,0,0,1-8,6.4q-4.4,2.4-7.1,1.3t-2.6-7.7a60.7,60.7,0,0,1-24.7,25.6,44.1,44.1,0,0,1-9.3,4,15.1,15.1,0,0,1-7.6.4,8.6,8.6,0,0,1-5.3-3.8q-1.9-3.3-1.9-9.3a33,33,0,0,1,2.1-12.2,39.7,39.7,0,0,1,5.5-9.8,52.2,52.2,0,0,1,7.8-8.3q4.4-3.7,9-7t9-6.3q4.4-2.9,7.6-5.5a27.8,27.8,0,0,0,5.1-5.5,11.6,11.6,0,0,0,1.8-6.5q0-4.1-1.5-5.9a4.7,4.7,0,0,0-3.7-2,11.5,11.5,0,0,0-5,.8,42.7,42.7,0,0,0-5.4,2.4,40.8,40.8,0,0,0-12.4,9.5q-5,5.6-5.4,14.4l-11.9,6.3a40.8,40.8,0,0,1,2.8-13.8,44.1,44.1,0,0,1,6.7-11.5,52.9,52.9,0,0,1,9.4-9.3,76,76,0,0,1,20.7-11.1,18.8,18.8,0,0,1,8.5-1.2,8.1,8.1,0,0,1,6,3.3q2.3,3,2.3,9.6l0.3,39.1a33.9,33.9,0,0,0,.4,6.3q0.5,1.8,3.2.3a18.4,18.4,0,0,0,3.4-2.6v9.7h0M500,602.4a29.6,29.6,0,0,1-5.6,5.7l-7.4,5.3-7.8,5.4a49.2,49.2,0,0,0-7.2,6,29.7,29.7,0,0,0-5.3,7.2,18.5,18.5,0,0,0-1.9,8.7,8.7,8.7,0,0,0,1.1,4.9,5.5,5.5,0,0,0,3.1,1.8,10.1,10.1,0,0,0,4.5-.5,28.1,28.1,0,0,0,5.3-2.3,47,47,0,0,0,9.9-7.1,48.6,48.6,0,0,0,6.6-8,35.9,35.9,0,0,0,3.7-7.7,21.6,21.6,0,0,0,1.2-6.4V602.4h0"/><path id="path7216" class="cls-8" d="M543.4,543.2L543.2,521l-10.8,5.3,0.2,22.4-11.4,5.8v10.9l11.4-5.9,0.4,47.7a26.6,26.6,0,0,0,1,7.9,5.3,5.3,0,0,0,2.7,3.4,7.9,7.9,0,0,0,4.9-.2,52.4,52.4,0,0,0,7.2-3.4l8.2-4.5V599.7l-4.9,2.7-4.2,2.1a4.3,4.3,0,0,1-2.4.3,1.9,1.9,0,0,1-1.3-1.3,16.5,16.5,0,0,1-.3-3.3L543.5,554l12.9-6.7V536.6l-12.9,6.6h0"/><path id="path7218" class="cls-8" d="M574.9,577.3l-10.4,5.6q0.3,6.7,2.6,10.3a9.9,9.9,0,0,0,6,4.4,17.2,17.2,0,0,0,8.4-.6,47,47,0,0,0,9.8-4.2,67,67,0,0,0,9.2-6.3,45,45,0,0,0,8.3-8.2,39.8,39.8,0,0,0,5.8-10.2,30.4,30.4,0,0,0,2.2-12q-0.1-5.1-1.8-7.6a7.3,7.3,0,0,0-4.5-3.3,13.4,13.4,0,0,0-6.3-.4,57.7,57.7,0,0,0-7.3,1.5l-7.1,2a41.6,41.6,0,0,1-6.5,1.2,10.1,10.1,0,0,1-4.9-.8q-1.8-1.2-1.9-4.2a10.8,10.8,0,0,1,1.2-5.1,17,17,0,0,1,3.1-4.4,25,25,0,0,1,4.2-3.7,42.1,42.1,0,0,1,4.7-2.8,20.2,20.2,0,0,1,4.9-1.8,10,10,0,0,1,4.5-.4,5.3,5.3,0,0,1,3.3,2,8.5,8.5,0,0,1,1.6,4.9l9.9-5.2q-0.4-6.3-2.4-9.5a8.3,8.3,0,0,0-5.4-4.1,13.8,13.8,0,0,0-7.6.3,48,48,0,0,0-17.8,9.2,44.6,44.6,0,0,0-7.5,7.5,39,39,0,0,0-5.4,9.2,27.1,27.1,0,0,0-2,10.6q0.1,7.1,3.2,9.4a11.7,11.7,0,0,0,7.6,2.2,47.6,47.6,0,0,0,9.9-1.9,79.3,79.3,0,0,1,9.7-2.5,16,16,0,0,1,7.5-.2q2.9,0.8,3,5.3a14.4,14.4,0,0,1-1.3,6.3,20.4,20.4,0,0,1-3.6,5.2,30.4,30.4,0,0,1-4.7,4.1,51.3,51.3,0,0,1-5,3.2,33.7,33.7,0,0,1-6.1,2.7,13.9,13.9,0,0,1-5.3.7,6.1,6.1,0,0,1-3.8-2.3,10.7,10.7,0,0,1-1.6-5.9h0"/></g><g id="text7207-2" data-name="text7207" class="cls-13"><path id="path7212-2" data-name="path7212" d="M429.2,627l12.8-6.7q-0.7-6.7-3.5-10.4a12.6,12.6,0,0,0-7.1-5,19.4,19.4,0,0,0-10,.1,48.6,48.6,0,0,0-12.2,4.5A62.4,62.4,0,0,0,393,621.3a68.9,68.9,0,0,0-11.8,15.4,71.4,71.4,0,0,0-7,17.7,75.5,75.5,0,0,0-2.3,18.6,47.9,47.9,0,0,0,2.3,15.9,19.2,19.2,0,0,0,7.2,9.4q4.8,3,11.7,2.1t15.9-5.9a64.4,64.4,0,0,0,23.1-21A65.7,65.7,0,0,0,442.5,645l-12.6,6.8a40.8,40.8,0,0,1-6.4,18A39.7,39.7,0,0,1,408.9,683q-6,3.3-10.4,3.2a10.4,10.4,0,0,1-7.2-2.7,17.5,17.5,0,0,1-4.2-7.5,41.9,41.9,0,0,1-1.2-10.5,66.2,66.2,0,0,1,1.2-12.6,51.6,51.6,0,0,1,4-12.4,46.3,46.3,0,0,1,7.6-11.1,41,41,0,0,1,11.6-8.6q8-4.1,12.8-2.4t6.2,8.6h0"/><path id="path7214-2" data-name="path7214" d="M518.6,631.5a27.5,27.5,0,0,1-8,6.4q-4.4,2.4-7.1,1.3t-2.6-7.7a60.7,60.7,0,0,1-24.7,25.6,44.1,44.1,0,0,1-9.3,4,15.1,15.1,0,0,1-7.6.4,8.6,8.6,0,0,1-5.3-3.8q-1.9-3.3-1.9-9.3a33,33,0,0,1,2.1-12.2,39.7,39.7,0,0,1,5.5-9.8,52.2,52.2,0,0,1,7.8-8.3q4.4-3.7,9-7t9-6.3q4.4-2.9,7.6-5.5a27.8,27.8,0,0,0,5.1-5.5,11.6,11.6,0,0,0,1.8-6.5q0-4.1-1.5-5.9a4.7,4.7,0,0,0-3.7-2,11.5,11.5,0,0,0-5,.8,42.7,42.7,0,0,0-5.4,2.4,40.8,40.8,0,0,0-12.4,9.5q-5,5.6-5.4,14.4l-11.9,6.3a40.8,40.8,0,0,1,2.8-13.8,44.1,44.1,0,0,1,6.7-11.5,52.9,52.9,0,0,1,9.4-9.3,76,76,0,0,1,20.7-11.1,18.8,18.8,0,0,1,8.5-1.2,8.1,8.1,0,0,1,6,3.3q2.3,3,2.3,9.6l0.3,39.1a33.9,33.9,0,0,0,.4,6.3q0.5,1.8,3.2.3a18.4,18.4,0,0,0,3.4-2.6v9.7h0M500,602.4a29.6,29.6,0,0,1-5.6,5.7l-7.4,5.3-7.8,5.4a49.2,49.2,0,0,0-7.2,6,29.7,29.7,0,0,0-5.3,7.2,18.5,18.5,0,0,0-1.9,8.7,8.7,8.7,0,0,0,1.1,4.9,5.5,5.5,0,0,0,3.1,1.8,10.1,10.1,0,0,0,4.5-.5,28.1,28.1,0,0,0,5.3-2.3,47,47,0,0,0,9.9-7.1,48.6,48.6,0,0,0,6.6-8,35.9,35.9,0,0,0,3.7-7.7,21.6,21.6,0,0,0,1.2-6.4V602.4h0"/><path id="path7216-2" data-name="path7216" d="M543.4,543.2L543.2,521l-10.8,5.3,0.2,22.4-11.4,5.8v10.9l11.4-5.9,0.4,47.7a26.6,26.6,0,0,0,1,7.9,5.3,5.3,0,0,0,2.7,3.4,7.9,7.9,0,0,0,4.9-.2,52.4,52.4,0,0,0,7.2-3.4l8.2-4.5V599.7l-4.9,2.7-4.2,2.1a4.3,4.3,0,0,1-2.4.3,1.9,1.9,0,0,1-1.3-1.3,16.5,16.5,0,0,1-.3-3.3L543.5,554l12.9-6.7V536.6l-12.9,6.6h0"/><path id="path7218-2" data-name="path7218" d="M574.9,577.3l-10.4,5.6q0.3,6.7,2.6,10.3a9.9,9.9,0,0,0,6,4.4,17.2,17.2,0,0,0,8.4-.6,47,47,0,0,0,9.8-4.2,67,67,0,0,0,9.2-6.3,45,45,0,0,0,8.3-8.2,39.8,39.8,0,0,0,5.8-10.2,30.4,30.4,0,0,0,2.2-12q-0.1-5.1-1.8-7.6a7.3,7.3,0,0,0-4.5-3.3,13.4,13.4,0,0,0-6.3-.4,57.7,57.7,0,0,0-7.3,1.5l-7.1,2a41.6,41.6,0,0,1-6.5,1.2,10.1,10.1,0,0,1-4.9-.8q-1.8-1.2-1.9-4.2a10.8,10.8,0,0,1,1.2-5.1,17,17,0,0,1,3.1-4.4,25,25,0,0,1,4.2-3.7,42.1,42.1,0,0,1,4.7-2.8,20.2,20.2,0,0,1,4.9-1.8,10,10,0,0,1,4.5-.4,5.3,5.3,0,0,1,3.3,2,8.5,8.5,0,0,1,1.6,4.9l9.9-5.2q-0.4-6.3-2.4-9.5a8.3,8.3,0,0,0-5.4-4.1,13.8,13.8,0,0,0-7.6.3,48,48,0,0,0-17.8,9.2,44.6,44.6,0,0,0-7.5,7.5,39,39,0,0,0-5.4,9.2,27.1,27.1,0,0,0-2,10.6q0.1,7.1,3.2,9.4a11.7,11.7,0,0,0,7.6,2.2,47.6,47.6,0,0,0,9.9-1.9,79.3,79.3,0,0,1,9.7-2.5,16,16,0,0,1,7.5-.2q2.9,0.8,3,5.3a14.4,14.4,0,0,1-1.3,6.3,20.4,20.4,0,0,1-3.6,5.2,30.4,30.4,0,0,1-4.7,4.1,51.3,51.3,0,0,1-5,3.2,33.7,33.7,0,0,1-6.1,2.7,13.9,13.9,0,0,1-5.3.7,6.1,6.1,0,0,1-3.8-2.3,10.7,10.7,0,0,1-1.6-5.9h0"/></g><g class="cls-2"><g class="cls-20"><path class="cls-21" d="M396.1,772.3l-1.8,1.1-1.4,6.7c-0.3,1.6-.6,3-0.8,4.3H392c-0.2-1.1-.5-2.1-0.9-3.3l-1.6-4.9-1.6.9-1.6,6.9c-0.3,1.5-.7,2.9-0.9,4.3h-0.1c-0.2-1.1-.5-2.2-0.8-3.3l-1.4-5.2-1.9,1.1,3.1,9.9,1.7-1,1.6-6.5c0.4-1.5.7-2.9,0.9-4.4h0a26.6,26.6,0,0,0,.9,3.3l1.6,4.7,1.7-1,3.3-13.6"/><path class="cls-21" d="M411.9,763.2l-1.8,1.1-1.4,6.7c-0.3,1.6-.6,3-0.8,4.3h-0.1c-0.2-1.1-.5-2.1-0.9-3.3l-1.6-4.9-1.6.9-1.6,6.9c-0.3,1.5-.7,2.9-0.9,4.3h-0.1c-0.2-1.1-.5-2.2-0.8-3.3l-1.4-5.2-1.9,1.1,3.1,9.9,1.7-1,1.6-6.5c0.4-1.5.7-2.9,0.9-4.4h0a29.4,29.4,0,0,0,.9,3.3l1.6,4.7,1.7-1,3.2-13.6"/><path class="cls-21" d="M427.7,754.1l-1.8,1.1-1.4,6.7c-0.3,1.6-.6,3-0.8,4.3h-0.1a34.1,34.1,0,0,0-.9-3.3l-1.6-5-1.6.9-1.6,6.9c-0.3,1.5-.7,2.9-0.9,4.3h-0.1c-0.2-1.1-.5-2.2-0.8-3.3l-1.4-5.2-1.9,1.1,3.1,9.9,1.7-1,1.6-6.5c0.4-1.5.7-2.9,0.9-4.4h0a27.9,27.9,0,0,0,.9,3.3l1.6,4.7,1.7-1,3.3-13.6"/><path class="cls-21" d="M429.6,762a2.7,2.7,0,0,0-1.3,2.3c0,0.9.5,1.2,1.2,0.8h0a2.7,2.7,0,0,0,1.3-2.3c0-.9-0.5-1.2-1.2-0.8"/><path class="cls-21" d="M437.6,748.1a6.8,6.8,0,0,0-2.8,4.2h-0.1v-2.3l-1.6.9c0.1,1.1.1,2.2,0.1,3.6v8.1l1.8-1.1v-6.3a7.6,7.6,0,0,1,.1-1,5.8,5.8,0,0,1,2.5-4.2l0.6-.3v-2l-0.5.2"/><path class="cls-21" d="M443.1,745a6.8,6.8,0,0,0-3.5,5.5c0,1.4.9,2.1,2.7,1.8s1.9,0,1.9,1.1a3.5,3.5,0,0,1-2,2.9,4,4,0,0,1-2.4.6l-0.5,1.9a5.2,5.2,0,0,0,2.9-.8,7,7,0,0,0,3.8-5.7c0-1.7-.9-2.2-2.7-2s-1.9.1-1.9-.9a3.2,3.2,0,0,1,1.7-2.6,3.4,3.4,0,0,1,2.1-.5l0.5-1.8a4.5,4.5,0,0,0-2.5.7"/><path class="cls-21" d="M450.5,738.1l-1.8,1.7V742l-1.6.9v1.6l1.6-.9V750c0,1.4.2,2.3,0.7,2.6a1.9,1.9,0,0,0,2-.2,7.5,7.5,0,0,0,1.6-1.3v-1.6l-1.1.8c-1,.6-1.4,0-1.4-1.5v-6.3l2.6-1.5v-1.6l-2.6,1.5v-2.8"/><path class="cls-21" d="M463.8,733.2l-1.9,1.1v7.2a4.4,4.4,0,0,1-.2,1.2,6,6,0,0,1-2.4,3.3c-1.7,1-2.3-.2-2.3-2.4v-6.5l-1.9,1.1v6.9c0,4.1,1.9,4,3.5,3.1a8.4,8.4,0,0,0,3.4-4.1h0v1.9l1.6-1c-0.1-.9-0.1-1.9-0.1-3.1v-8.5"/><path class="cls-21" d="M471.1,739.3c-2,1.2-3-.2-3-2.6s1.1-5.2,3-6.3,2.4-.3,2.7.9a3.7,3.7,0,0,1,.1.9v2a4.8,4.8,0,0,1-.1,1,6.2,6.2,0,0,1-2.7,4.1m4.6-18.4-1.9,1.1v7h0c-0.5-.7-1.5-0.9-3.1,0s-4.6,5-4.6,8.9,1.9,4.9,4.4,3.4a8.2,8.2,0,0,0,3.5-4.3h0v2l1.7-1c-0.1-.8-0.1-1.9-0.1-3V720.9"/><path class="cls-21" d="M480.6,723.5l-1.9,1.1v11.7l1.9-1.1V723.5m-0.9-4.1a2.5,2.5,0,0,0-1.2,2,0.7,0.7,0,0,0,1.1.7,2.4,2.4,0,0,0,1.2-2c0-.7-0.4-1.1-1.1-0.7"/><path class="cls-21" d="M488,729.7c-1.8,1-3.1-.1-3.1-2.7s0.9-5.1,3.1-6.4,3.1,0.8,3.1,2.7-1.3,5.3-3.1,6.3M488,719a10.8,10.8,0,0,0-5,9.1c0,3.7,2.1,4.8,4.9,3.2a10.8,10.8,0,0,0,5.1-9.2c0-3.6-2-4.9-4.9-3.2"/><path class="cls-21" d="M495.6,723.8a2.7,2.7,0,0,0-1.3,2.3c0,0.9.5,1.2,1.2,0.8h0a2.7,2.7,0,0,0,1.3-2.3c0-.9-0.5-1.2-1.2-0.8"/><path class="cls-21" d="M503.9,709.9a11.2,11.2,0,0,0-5.5,9.4c0,3.6,2,4.8,5.1,3.1a11.9,11.9,0,0,0,2.9-2.4l-0.3-1.4a9.4,9.4,0,0,1-2.3,1.9c-2,1.2-3.5.4-3.6-2.3a7.6,7.6,0,0,1,3.6-6.5,3.9,3.9,0,0,1,2.1-.7l0.4-1.9a5.8,5.8,0,0,0-2.6.9"/><path class="cls-21" d="M512.7,715.4c-1.8,1-3.1-.1-3.1-2.7s0.9-5.1,3.1-6.4,3.1,0.8,3.1,2.7-1.3,5.3-3.1,6.3m0.1-10.7a10.8,10.8,0,0,0-5,9.1c0,3.7,2.1,4.8,4.9,3.2a10.8,10.8,0,0,0,5.1-9.2c0-3.6-2-4.9-4.9-3.2"/><path class="cls-21" d="M531.3,694a6.7,6.7,0,0,0-2.3,2.1,10.1,10.1,0,0,0-1.1,2.2h0c-0.4-1.1-1.5-1.5-2.9-.7a7.7,7.7,0,0,0-3.2,4h-0.1v-1.8l-1.6.9c0.1,0.9.1,1.9,0.1,3.1v8.5l1.8-1v-7.1a4.1,4.1,0,0,1,.1-1.1,5.7,5.7,0,0,1,2.3-3.5c1.4-.8,2.1.1,2.1,2v7l1.8-1v-7.2a5,5,0,0,1,.1-1.1,5.4,5.4,0,0,1,2.2-3.2c1.5-.9,2.2.1,2.2,2.3v6.6l1.8-1v-6.9c0-4.1-2-3.9-3.4-3.1"/></g></g><path class="cls-3" d="M705.6,196.2L427.8,35.8,367.4,1,307.1,35.8,29.3,196.2,0,213.1V637.4l29.3,16.9L310.6,816.7l56.9,32.8,56.9-32.8L705.6,654.3l29.3-16.9V213.1Zm0,425.3L367.4,816.7,29.3,621.5V231L367.4,35.8h0L705.6,231V621.5Z"/><g id="layer2"><g id="layer8"><g id="g6465"><g id="path6459"><path d="M313.5,275.9c-21.1,13.8-33.9,43.7-39,66.6l-2,30.3L540.7,464c13.4,11.5-75.2-128.2-83.1-144-11.9-23.8-15-11.3-35.8-19.6-24.1-9.6-8.8-14.9-48.3-21.5-19.9-3.3-40-2.3-60.1-3h0Z"/><path class="cls-22" d="M541.9,468.3a5,5,0,0,1-2.9-1.1L268.6,375.3l2.3-33.7c5.3-23.9,18.8-54.6,40.5-68.9l1-.6h1.2l17.3,0.3c14.1,0.2,28.8.3,43.2,2.7,25,4.2,29.3,8.1,34.3,12.7,2.9,2.7,5.9,5.4,14.7,9a44.8,44.8,0,0,0,15.6,3.3c8.9,0.6,14,1.6,22.2,18.1,2.6,5.3,14.9,25.4,29.1,48.6,12.7,20.7,27,44.3,37.9,62.8,6,10.1,10.3,17.7,13.2,23.2,4.7,8.8,6,12.1,3.3,14.4A3.8,3.8,0,0,1,541.9,468.3ZM276.3,370.2l259.4,88.2c-8.6-16.6-35.1-60-52-87.7-14.9-24.3-26.6-43.6-29.4-49.1-6.7-13.4-9.5-13.6-16.1-14a52.4,52.4,0,0,1-17.8-3.8c-10.1-4-13.8-7.4-17-10.4s-7.7-7.1-30.5-10.9c-13.9-2.3-28.2-2.5-42.1-2.6l-16.3-.3c-19.3,13.3-31.4,41.3-36.4,63.4Z"/></g><g id="path6455"><path d="M311.7,337.4c-7.7-38.4,9.5-76,14.9-112L431,228.7c-8.2,26.5,17.9,55.7,17.9,81.7"/><path class="cls-22" d="M308.1,338.1c-5.5-27.3,1.2-53.9,7.6-79.6,2.9-11.7,5.6-22.7,7.3-33.7l0.5-3.2,112.4,3.6-1.4,4.6c-4.3,13.9,2,29.5,8.2,44.6,4.8,11.9,9.8,24.2,9.8,36.1h-7.3c0-10.4-4.5-21.5-9.3-33.3-6-14.7-12.2-30-9.5-44.9l-96.6-3.1c-1.7,10.4-4.4,20.9-6.9,31.2-6.2,24.9-12.6,50.7-7.5,76.4Z"/></g></g><g id="path6445"><path d="M407.8,136.6c9.3-9.9,16.7-22.3,29.2-28.7,10.2,2.2,6,15.6,6.7,23.2-0.5,12.6-3.1,25-6.4,37.1,0,9.3,4.9,17.8,5.1,27.1,1.9,14.8-2.1,31.6-14,41.3-7.6,5.5-18.3,2.1-25.7,7.7a28.1,28.1,0,0,1-19.4,9.7c-8.4.7-17.7,0.1-24.9-4.8s-12.3-11.5-20.4-13.9c-12.7-6.7-25.9-17.9-26.4-33.4-0.4-10.2,6.7-19.2,6.6-29.2-4.7-18.6-6.1-38.4-2.3-57.3,3.9-9.1,13.7-2.4,16.8,3.7,6.1,6.6,12.1,13.5,19.4,18.8,18.2-4.7,37.1-1.6,55.7-1.2h0Z"/><path class="cls-22" d="M377.9,256.5c-8.6,0-15.4-1.8-20.7-5.4H357l-4.4-3.7c-4.8-4.1-9.4-8-15.2-9.7H337c-10.1-5.3-27.1-17.1-27.6-35.4-0.2-5.7,1.6-10.8,3.4-15.8s3.1-8.8,3.2-13.2c-5.1-20.1-5.9-40.1-2.3-58.1v-0.5c2.1-5,5.7-5.8,7.7-5.9,5.2-.2,10.7,4.4,13.2,9.1l1.8,2c5,5.5,10.2,11.2,16.2,15.7,13.6-3.3,27.6-2.4,41.1-1.6l13.1,0.6c2.3-2.5,4.6-5.2,6.7-7.9,6.4-7.7,13-15.7,22.4-20.5l0.7-.4,0.8,0.2c9.6,2.1,9,12,8.6,19.2a45,45,0,0,0-.1,6.1v0.3c-0.4,10.9-2.4,22.4-6.4,37.3,0.1,4.3,1.2,8.4,2.5,12.8s2.5,9,2.6,13.8c1.8,13.6-1.2,32.1-14.9,43.3h-0.1c-4.3,3.1-9.2,3.7-13.9,4.2s-8.3,1-11.5,3.3a30.4,30.4,0,0,1-20.8,10.3Zm-18-9.2c5.5,3.7,13.1,5.1,23.3,4.3a25.8,25.8,0,0,0,17.8-8.9l0.3-.3c4.2-3.2,9.2-3.8,14-4.3s8.4-1,11.7-3.3c8-6.6,15.6-20.3,13.1-39.1v-0.3c-0.1-4.3-1.2-8.4-2.5-12.7s-2.6-9.3-2.6-14.4v-0.6c3.9-14.6,5.9-25.8,6.3-36.4a49.6,49.6,0,0,1,.1-6.7c0.4-7.5.3-12.6-4.2-14.1-8.1,4.4-13.9,11.4-20.1,18.9-2.4,3-5,6-7.6,8.9l-0.7.8h-1c-4.8-.1-9.6-0.4-14.3-0.7-13.5-.8-27.5-1.6-40.7,1.8l-1.1.3-0.9-.6c-6.7-4.9-12.3-11-17.7-17l-2-2.2-0.2-.2V120c-1.7-3.3-5.9-6.9-9-6.8-0.5,0-2.2.1-3.4,2.8-3.4,17.3-2.6,36.7,2.4,56.1v0.6c0.1,5.3-1.7,10.3-3.4,15.1s-3.4,9.3-3.2,14.1c0.4,15.9,15.7,26.4,24.9,31.3,6.6,2,11.7,6.4,16.7,10.6Z"/></g><g id="path6437"><path d="M390.7,195.6c2.4-12,11.9-17.3,24.2-9.8C409.4,195.4,404.1,199.1,390.7,195.6Z"/><path class="cls-22" d="M399.3,199a36.3,36.3,0,0,1-9.1-1.3l-2-.5,0.4-2c1.4-6.8,4.8-11.7,9.7-13.8s9.6-2.4,17.7,2.6l1.8,1.1-1.1,1.9C412.5,194.4,407.9,199,399.3,199Zm-5.9-5.1c10,2.1,14.3-.6,18.5-7.4-4.5-2.3-8.5-2.7-11.8-1.2S394.7,189.7,393.4,194Z"/></g><g id="path6439"><path d="M362.7,195.8c2.2-15.6-14.3-13.5-23.6-12.6C345.2,196.1,351.5,198.5,362.7,195.8Z"/><path class="cls-22" d="M355.6,199.1c-8.3,0-13.7-4.6-18.6-14.9l-1.4-3,4.1-.4c6.9-.7,17.2-1.7,22.5,3.8,2.6,2.7,3.6,6.6,2.9,11.6l-0.2,1.6-1.5.4A32.7,32.7,0,0,1,355.6,199.1Zm-12.8-13.9c5,9.1,10,10.3,17.8,8.7,0.1-2.7-.4-4.7-1.8-6.1C355.6,184.5,348.5,184.7,342.8,185.2Z"/></g><g id="path6443"><path d="M362.7,237.8c5.6-2.8,13.1-7.2,14.1-17,0.3,12.2,8.1,16.3,17.6,15.2"/><path class="cls-22" d="M363.7,239.9l-2.1-4.2c6.2-3.1,12-7,12.8-15.1l4.7,0.2c0.1,4.7,1.4,8.2,3.9,10.4s7.8,3,11,2.6l0.5,4.6c-6,.7-11.1-0.6-14.6-3.7a14.7,14.7,0,0,1-3.7-5C372.8,235.4,367,238.2,363.7,239.9Z"/></g><g id="path6447"><path class="cls-22" d="M325.8,247.7l-3.5-3.1c8.8-10.1,22.2-23.5,36.3-23.6v4.7C345,225.8,330.5,242.3,325.8,247.7Z"/></g><g id="path6449"><path class="cls-22" d="M336.3,251.8l-3.5-3.1c7.1-8.1,13.7-15.3,22.2-20.4l2.4,4C349.5,237.1,343.2,244,336.3,251.8Z"/></g><g id="path6451"><path class="cls-22" d="M434.1,240.2a218.9,218.9,0,0,1-21.3-7.4c-7.5-2.9-15.3-5.9-23.2-7.8l1.1-4.5c8.2,2,16.1,5.1,23.8,8a215.3,215.3,0,0,0,20.8,7.2Z"/></g><g id="path6453"><path class="cls-22" d="M421.1,256.3c-7.4-10.3-14.8-16.9-25.6-22.7l2.2-4.1c11.5,6.2,19.3,13.2,27.2,24.1Z"/></g><g id="path6504"><path class="cls-22" d="M430.5,160a2.4,2.4,0,0,1-1.7-.7,69.1,69.1,0,0,1-5.8-6.6c-2.6-3.2-4.6-5.7-9-8.4l-2-1.3,1.6-2.4c8.2-12.5,14.8-20.8,20.1-20.5a5.1,5.1,0,0,1,4.3,3.1v0.3c1.3,3.9-.1,13-1.4,20-2.9,14.9-4.4,15.8-5,16.2A2.4,2.4,0,0,1,430.5,160Zm-12-18.3a39.6,39.6,0,0,1,8.1,8.1l3.1,3.6c2-7,5.3-23.8,4.1-28.3l-0.3-.3C433,124.6,429.8,124.8,418.5,141.7Z"/></g><g id="path6506"><path class="cls-22" d="M324.7,164.9h-0.4a2.7,2.7,0,0,1-2.1-1.5c-3.4-6.8-4.9-21-3.2-30.5,0.4-3.4,1.3-7.9,4.8-9s9.5,4.3,15.3,10.9a80.1,80.1,0,0,0,7.5,8l1.5,1.2-0.9,1.7c-2.5,4.5-10.4,11-15.7,13.7l-1,1.2C328.1,163.2,326.5,164.9,324.7,164.9Zm6.9-5.6h0Zm-6.2-30.9h-0.2s-1.1.6-1.6,5.2v0.2c-1.3,7.4-.4,18.8,1.9,25.4l1.5-1.6a8.3,8.3,0,0,1,2.2-2.1A46.2,46.2,0,0,0,342,144.9c-2.1-2-4.3-4.6-6.5-7.1S327.3,128.3,325.4,128.3Z"/></g></g></g><g id="layer3"><g id="layer4"><g id="path5941"><path d="M268,283.2c4.4,3.6,3.9,10.1,8.3,13.5,38.4,21.1,77,28.2,122.7,51.5,36.3,23.4,44.5,80.3,32.2,112.1-6.7,28.6-43.1,5.7-59.6,0-15-5.1-31.8-7.8-47.1-12.3-13.4-3.9-26.7-15.3-41.1-15.3-21-6-42.3-13.9-62.6-20.8-15.1-5.2-93-1-85.8-23.3,1-15.7-6.2-39.6,0-50.2,15.5-19,54.6-21.5,76.9-31.2,15.8-8.5,38.3-27.5,56-23.9h0Z"/><path class="cls-22" d="M414.2,477.4c-10.4,0-22.8-5.4-33.2-9.9-3.9-1.7-7.6-3.3-10.5-4.3a271.7,271.7,0,0,0-26.5-7.1c-6.8-1.6-13.8-3.2-20.5-5.2s-10.8-4.3-16.1-7c-7.9-4-16.1-8.2-24.2-8.2h-0.9c-16-4.6-32.1-10.2-47.8-15.7l-14.9-5.2c-4.1-1.4-14.6-2.1-25.6-2.9-30.4-2.1-54.2-4.6-61-14.6A10.7,10.7,0,0,1,132,388c0.3-5.6-.5-12.5-1.2-19.2-1.4-12.6-2.8-24.5,1.6-32l0.3-.4c10.8-13.3,31.5-18.7,51.5-23.9,9.8-2.6,19.1-5,26.4-8.2,3.7-2,7.8-4.6,12.2-7.4,14.6-9.3,31.1-19.8,45.8-16.8l0.7,0.2,0.6,0.5c2.8,2.3,4,5.3,5.1,8s1.6,4.1,3,5.3c19.3,10.5,38.6,17.6,59,25s40.7,14.8,63.4,26.3l0.3,0.2c38.8,25,45.6,84.1,33.5,115.7-1.6,6.8-5,11.6-10.1,14.1A21.8,21.8,0,0,1,414.2,477.4ZM283.9,429.6c9.4,0.1,18.1,4.6,26.5,8.9,5.2,2.6,10.1,5.1,15,6.6,6.5,1.9,13.4,3.5,20.1,5.1a276,276,0,0,1,27.1,7.2c3.1,1.1,6.9,2.7,10.9,4.5,12.1,5.3,28.6,12.5,37.7,8,3.4-1.7,5.7-5.1,6.9-10.2v-0.4c6.1-15.7,6.9-37.1,2-57.3-5.4-22.6-17.1-40.7-32.9-51-22.2-11.3-42.7-18.7-62.5-25.9s-40.4-14.7-60.1-25.5l-0.4-.3c-2.9-2.2-4.1-5.3-5.2-8a15,15,0,0,0-2.7-5c-12.1-1.9-27.1,7.6-40.4,16.1-4.5,2.9-8.7,5.6-12.7,7.7h-0.2c-7.8,3.4-17.4,5.9-27.5,8.6-18.9,4.9-38.4,10-48.1,21.6-3.2,5.8-1.9,17.1-.7,28,0.8,7.1,1.6,14.5,1.2,20.7v0.8a4.5,4.5,0,0,0,.4,4.3c5.6,8.3,36.1,10.5,56.2,11.9,12.4,0.9,22.3,1.6,27.2,3.2l15,5.2C252.3,419.5,268.2,425.1,283.9,429.6Z"/></g><g id="g6407"><g id="path5910"><path d="M175.6,351.4a296.9,296.9,0,0,0,65.5-18.1c24.8-9.8,25.9-43,25.9-69.8,0-2.2,1.9-4.4,1.9-6.5,0,0-2.1-11.5-5.7-17.2-17.3-27.3-68.1-41.1-95.7-40.6-5.6.5-33.8-18.8-36.4-16.1s1.5,17.4,1.5,20.6c0,4.7,5.1,31.9,1,36.2-14,14.4-24.1,49.1-7.3,66.3,3.3,26.1,18.3,57.6,50.8,44.2"/><path class="cls-22" d="M162.4,356.7a29.6,29.6,0,0,1-15.1-4.1c-12.1-7.1-21.1-23.9-24-45.1-16.8-18.5-7-54.4,8.1-69.9,1.9-2.7-.3-20.3-1-26-0.5-3.8-.8-6.5-0.8-8a46.8,46.8,0,0,0-.8-4.7c-1.7-8.7-2.7-15.1.2-18.1s7.8-.5,21.8,7.2c5.8,3.2,14.5,7.9,16.7,8H169c29.2,0,79.4,14.6,96.8,42.1,3.9,6.1,6.1,17.8,6.2,18.3v0.6a10.8,10.8,0,0,1-1.2,4.5,7.1,7.1,0,0,0-.7,2.1c0,24.6,0,61.7-27.9,72.7a298,298,0,0,1-66.2,18.3v-0.3A40.1,40.1,0,0,1,162.4,356.7ZM133.3,186.3c-0.2,2.9,1,9,1.5,11.5a37,37,0,0,1,.9,5.9c0,1,.4,4,0.8,7.2,2.3,17.9,2.8,27.6-.7,31.2-13.3,13.7-22.4,46.5-7.3,62l0.7,0.7v1c2.5,19.8,10.4,35.3,21.1,41.5,7.2,4.2,15.7,4.3,25.5.3l0.3,0.7a296.4,296.4,0,0,0,63.7-17.7c22.1-8.8,24-37.9,24-67a11.3,11.3,0,0,1,1.3-4.6,10.3,10.3,0,0,0,.7-1.7c-0.7-3.3-2.7-11.6-5.2-15.7-7.3-11.6-22.4-22-42.4-29.5-16.8-6.2-36.1-9.9-50.5-9.7-3.3.2-8.7-2.5-20-8.7C143,191,136.4,187.4,133.3,186.3Z"/></g><g id="path5902"><path d="M220.1,261.5c16-.5,58.5-35.9,38.6,5-1.6,3.4-1.5,10.3-4.9,12.1-1.2.6-2.8-.8-3.4-1.5-7.4-7.6-19.8-13.4-30.3-15.6h0Z"/><path class="cls-22" d="M253.1,281.8c-1.4,0-3.1-.6-5-2.6-6.4-6.6-17.9-12.5-28.7-14.7l0.5-6.2c4.5-.1,12.5-4,19.6-7.4,11.7-5.6,20.9-10,25.4-5.4s2.3,10.1-3.6,22.3a20.2,20.2,0,0,0-1.1,3.8c-0.8,3.7-1.7,7.8-5.2,9.6A4.5,4.5,0,0,1,253.1,281.8Zm-21.8-20.2c8.3,3.2,16.1,8,21.2,13.3l0.3,0.3a21,21,0,0,0,1.4-4.8,23.8,23.8,0,0,1,1.5-5.2c6.2-12.7,4.8-15.1,4.7-15.2-2-1.2-12.6,3.9-18.3,6.6C238.6,258.4,234.9,260.1,231.3,261.6Z"/></g><g id="path5906"><path d="M137.5,196.1c2.7,9.7,19.1,25.6,19.1,35.2,0,2-3.9,0-5.9,0s-8.4.9-9.3,0S140.4,203.6,137.5,196.1Z"/><path class="cls-22" d="M155.5,235.3a13.1,13.1,0,0,1-3.2-.5l-1.6-.3H149c-5.7.5-8.3,0.5-9.9-1.1s-1.8-4.4-2.4-15.6c-0.3-6.9-.8-15.4-1.9-19.5l-0.4-1.4,5.9-2,0.5,1.4c1.4,3.6,4.8,8.5,8.1,13.2,5.5,7.9,10.7,15.4,10.7,21.7a3.9,3.9,0,0,1-1.5,3.1A4.2,4.2,0,0,1,155.5,235.3Zm-11.7-6.7h0l4.7-.3h2.2a9.9,9.9,0,0,1,2.2.3c-1.4-4.3-5.4-10.1-9.1-15.3l-1.1-1.6c0.1,2,.2,4,0.3,6C143.2,221.6,143.4,226.3,143.8,228.6Zm-1.1-.1"/></g><g id="path5913"><path d="M136.5,326.8c3.4,22.9,33,2-.5,2"/><path class="cls-22" d="M146,340.6c-5.1,0-11.1-3.4-12.6-13.4l2.6-.4v-1.2c15.3,0,18.7,4.3,18.9,7.8s-3.2,6.6-7.8,7H146Zm-4.3-8.4a5.4,5.4,0,0,0,3.2,2.1,4.9,4.9,0,0,0,3.4-.5C147.5,333.3,145.7,332.6,141.7,332.2Z"/></g><g id="path5915"><path d="M165.8,312.2c2.6-3.5,4.4-7,8.3-9s20.9,2.4,22.5,4-3.4,3.5-3.4,3.5C184.2,319.9,173,306.7,165.8,312.2Z"/><path class="cls-22" d="M185.5,317.2a30.5,30.5,0,0,1-9.1-1.8c-4.2-1.3-6.8-2.1-8.7-.6l-4.4-4.3,1.4-2c2-2.9,4.1-6,8-8,0.8-.4,2.9-1.5,13.7.6,7,1.3,11.2,2.7,12.5,4l0.9,1v1.4c-0.1,1.5-.8,2.5-4.4,5.6h0A13.2,13.2,0,0,1,185.5,317.2Zm-12.6-9.2a42,42,0,0,1,5.4,1.4c5.6,1.8,9.3,2.7,12.7-.8h0.1c-5.1-1.3-13.5-2.8-15.7-2.4A10.2,10.2,0,0,0,172.9,307.9Zm21.8,1.7h0Zm-19.4-3.6h0Z"/></g><g id="path5917"><path d="M145.3,298.2c-0.5-13.5-24.5-34.8-11.2-7.5C135.9,294.4,142.6,294.5,145.3,298.2Z"/><path class="cls-22" d="M148.8,308.3l-6-8.3c-0.8-1.1-2.5-1.8-4.3-2.6s-5.7-2.4-7.2-5.4c-5.2-10.6-5-14.2-3.1-16.3a4.4,4.4,0,0,1,5-1c5.3,1.9,14.9,14.2,15.3,23.4ZM134.1,283a65.7,65.7,0,0,0,2.7,6.2c0.4,0.8,1.8,1.5,3.2,2.1A36.7,36.7,0,0,0,134.1,283Z"/></g><g id="path5919"><path d="M144.8,338.9c-1.1,17.6,27,11.2,33.2.5"/><path class="cls-22" d="M156.3,352.9a19.9,19.9,0,0,1-5.8-.8c-6.1-1.8-9.3-6.7-8.9-13.5l6.2,0.4c-0.2,3.9,1.2,6.1,4.5,7.1,7,2.1,19.5-2.4,23-8.4l5.4,3.1C176.7,347.8,165.6,352.9,156.3,352.9Z"/></g><g id="path5923"><path d="M165.3,337.8c14.1,1.7,29.5,9.7,41.5,17.1"/><path class="cls-22" d="M205.2,357.6c-15.8-9.7-29.3-15.3-40.3-16.6l0.7-6.2c11.9,1.4,26.3,7.3,42.8,17.5Z"/></g><g id="path5925"><path d="M161.9,338.4c12.6,11.8,27.5,21.5,44,27.1"/><path class="cls-22" d="M204.9,368.4c-16.1-5.5-31.2-14.9-45.1-27.8l4.2-4.5c13.2,12.3,27.6,21.3,42.9,26.5Z"/></g><g id="path5927"><path d="M132.6,328.3c-6.8-1.1-40.1,2.4-46.7,3.6"/><path class="cls-22" d="M86.4,334.9l-1.1-6.1c6.7-1.1,40.3-4.8,47.8-3.6l-1,6.1C125.9,330.3,93.4,333.7,86.4,334.9Z"/></g><g id="path5929"><path d="M133.1,324.3c-5.3.6-29.1-1.6-34.2-1.6"/><path class="cls-22" d="M130.3,327.5c-4.4,0-11.5-.5-20-1.1-4.9-.3-9.6-0.7-11.4-0.7v-6.2c2,0,6.6.3,11.8,0.7,8,0.6,19,1.3,22,1l0.8,6.2h-3.2Z"/></g></g><g id="g6420"><g id="path5933"><path d="M227.6,385.8l-18.8,2.4c-24.4,3.2-65.3,11-75.9,27.6-16.4,20.2-7.7,37.2,12.7,40.8,13.7,2.9,24.7-8.9,34.7-15.7C196.1,430.2,329,422,345.9,423.1"/><path class="cls-22" d="M150,460.2a24,24,0,0,1-4.9-.5c-11.2-2-19.4-7.9-22.4-16.2s-0.5-19.3,7.9-29.5c6-9.3,24.5-21.7,78-28.8l18.8-2.4,0.8,6.2-18.8,2.4c-39.5,5.2-66.4,14.8-73.7,26.2l-0.2.3c-7,8.5-9.4,16.9-7,23.6s8.7,10.6,17.7,12.2h0.1c9.5,2,17.9-4.4,26-10.6,2.2-1.7,4.3-3.3,6.3-4.7C195.8,426.7,331,419,346.1,420l-0.4,6.2c-8.3-.5-46.3,1.3-82.7,4.5-44.6,3.9-74.8,8.7-80.9,12.8-1.9,1.3-3.9,2.9-6.1,4.5C168.5,453.8,160,460.2,150,460.2Z"/></g><g id="path5935"><path d="M143.9,431.6c-6.3,6.7-8.9,13.8-6.4,23.1"/><path class="cls-22" d="M134.5,455.5c-2.7-9.7-.4-18,7.1-26l4.5,4.2c-6,6.5-7.7,12.5-5.6,20.1Z"/></g><g id="path5937"><path d="M159.4,436.7c-5.5,5.3-5.1,10.9-3,18.5"/><path class="cls-22" d="M153.4,456.1c-1.9-7.1-3.3-14.7,3.9-21.6l4.3,4.5c-4.3,4.2-4.2,8.3-2.2,15.5Z"/></g></g></g><g id="path5834"><path d="M503.7,458.8c8.3-42.1,124.9-3.9,120.7,16-1.8,8.4-110.7-8.6-120.7-16h0Z"/><path class="cls-22" d="M612.9,479.9c-16,0-42.2-3.7-51.6-5.2-23.7-3.6-53.5-9.3-59.3-13.7l-1.4-1,0.3-1.7c1.7-8.7,7.9-15.1,17.7-18.4,28.6-9.6,84.7,7.6,102.4,23.4,4.7,4.2,6.7,8.3,5.9,12.1-0.2,1-1,2.4-3.2,3.3S617.7,479.9,612.9,479.9ZM506.8,457.4c6.4,2.8,28,7.8,57.3,12.1,36.4,5.4,53.9,5.4,57.6,4.1-0.1-1.6-1.6-3.9-4.2-6.2-16.4-14.6-70.5-31.2-97-22.3C513.2,447.5,508.6,451.7,506.8,457.4Z"/></g><g id="path5832"><path d="M378.2,509.1c75.3,36.4,148.6,16.1,228.5,8.7,28.6-7.5,53.3,5.7,77.7,11.2s30.9-46.5,7.7-57.2c-53.1-24.4-115.3-3.7-167.7-9-18,0-98.4-41.7-103.8-28.1-6.7,16.9-25.7,76.1-42.4,74.4h0Z"/><path class="cls-22" d="M477,532.8c-33.4,0-66.4-5.1-100-21.3l1.4-4.9c2.8,0.3,9.1-2.2,19-21.8,6.8-13.4,12.7-29.5,17.1-41.3,1.4-3.8,2.6-7.1,3.6-9.6,3.9-9.9,27-1.7,64.5,12.8,17.2,6.7,35,13.6,41.7,13.6h0.3c18.8,1.9,38.6.5,59.6-1.1,36.6-2.7,74.5-5.5,109,10.3,7.2,3.3,12.4,10.4,14.7,20a48.7,48.7,0,0,1-1,26c-4.2,12.4-12.8,18.4-23.1,16.1-6.4-1.4-12.8-3.4-19.1-5.3-18.1-5.5-36.8-11.2-57.3-5.9H607c-15.5,1.4-30.9,3.4-45.8,5.2C532.6,529.3,504.7,532.8,477,532.8Zm-91.6-23.2c57.9,25.6,114.8,18.5,175,10.9,14.9-1.9,30.3-3.8,45.8-5.2,21.8-5.6,41.2.3,60,6,6.5,2,12.6,3.8,18.7,5.2,10.7,2.4,15.4-8,17-12.6,6-17.7-1-35-10.9-39.6-33.2-15.3-70.4-12.5-106.4-9.9-21.2,1.6-41.2,3-60.4,1.1-7.7-.1-24.3-6.5-43.4-14-13.8-5.4-28.2-10.9-39.5-14.2-16.8-4.8-18.3-1.7-18.3-1.6-0.9,2.4-2.2,5.7-3.6,9.5C409.4,472.7,397.8,501.6,385.5,509.6Z"/></g><g id="path5830"><path d="M361,378.4c-22.7-33.2,184.1,65.7,135.3,75.9-9.5,2-32.6-18.6-46.8-9.6-30.2,19.2-51.2,98.6-97.5,74.7"/><path class="cls-22" d="M368.7,526.6a39,39,0,0,1-18-4.8l2.5-4.9c12.7,6.5,24,5.3,35.6-3.8s20-22.1,29-35.5,19.3-28.4,30.2-35.3,22.9-.3,33.4,4.5c5.7,2.6,11.5,5.3,14.3,4.7s5-1.7,5.3-2.9,0-7.3-24.5-23.6c-18.2-12-44.9-26.2-69.6-36.9-30.9-13.4-42.4-14.5-44.8-13.7a8.3,8.3,0,0,0,1.2,2.3l-4.5,3.1c-2.5-3.7-2.9-6.6-1.2-8.8s5.4-6.7,41.7,7.9A519.7,519.7,0,0,1,469.2,414c9.5,5.8,38.4,23.3,37.4,35-0.2,2.8-2.1,6.4-9.6,8-4.6,1-10.7-1.8-17.8-5.1-9.7-4.5-20.8-9.6-28.1-4.9-9.9,6.3-19,19.7-28.6,33.8C407.7,502.5,391.4,526.6,368.7,526.6Z"/></g><g id="g6383"><g id="path5802"><path d="M248,424.9c19.7-17.8,31.8-25.2,37.1-42.3,2.5-8.1.2-22.4,2.6-33.7,0.5-2.5,44.6,7,47.8,9.4,41.4,31,60.7,65.8,48.8,121.7-13.5,63.1-124.5,57.8-138.1-7.5-1.6-7.8-49.8-21.8-45.6-29.2,6.2-10.9,37.7-14.8,47.4-18.3h0Z"/><path class="cls-22" d="M320,527.3h-0.2c-17.3,0-34.3-4.9-47.8-13.7-15.1-9.8-24.9-23.9-28.4-40.6-1-2.5-13.5-8.2-20.9-11.7-14.3-6.6-23.2-10.9-24.7-15.6a4.7,4.7,0,0,1,.4-3.9c5.2-9.1,23.2-13.3,37.8-16.7,4.4-1,8.2-1.9,10.6-2.7l10.4-9.2c13.4-11.6,21.4-18.6,25.4-31.5,1.2-3.7,1.2-9.3,1.2-15.1s0.1-12.5,1.3-18.3a3.1,3.1,0,0,1,2-2.3c5.1-1.9,46.4,7.2,50.2,10,46.2,34.6,61.1,71.8,49.8,124.5C381,509,354.7,527.3,320,527.3Zm-116.8-83c1.5,2.8,14.1,8.6,21.6,12.1,14.7,6.8,23,10.8,24,15.6,7.1,34.2,41.7,49.8,70.9,49.9H320c24.3,0,55-11.1,61.7-42.3,5.7-26.5,4.3-48.9-4.2-68.5-7.8-18-21.7-34.1-43.5-50.4-3-1.8-35.8-9.1-43.8-9.3a100.7,100.7,0,0,0-.9,15.4c0,6.3-.1,12.2-1.5,16.7-4.5,14.5-13.5,22.3-27.1,34.1L249.9,427l-0.4.4-0.5.2c-2.7,1-6.9,1.9-11.7,3.1C225.4,433.3,207.6,437.5,203.2,444.3Z"/></g><path d="M327.5,437.4c-28.7,30.4,6.5,31.1,0,0h0Z"/><path class="cls-22" d="M319.2,463.6a5.9,5.9,0,0,1-5-2.5c-1.7-2.4-4-9.8,11-25.7l4-4.3,1.2,5.7c3,14.2-2.1,23.5-8.1,26.1A8.1,8.1,0,0,1,319.2,463.6Zm0-6.1h0a3.7,3.7,0,0,0,2.2-1.2c2-1.9,3.8-5.8,3.8-11.5C319,452.5,318.8,456.6,319.2,457.4Z"/><path class="cls-22" d="M293.4,480.2c-11.9-.5-18.6,3.6-20,8a4.9,4.9,0,0,0,2.1,5.8,6.5,6.5,0,0,0,3.4.9c4.3,0,10.2-3.3,16.4-9.5l5-4.9Zm-2.4,4.3c-15.2,15-19.9-.9-0.9,0H291Z"/><path class="cls-23" d="M307.2,509.4c21.8,16.4,23.6-21.8,0,0h0Z"/><g id="path5814"><path d="M355.8,501.7c-4.2,7.3-10.8,16.4-27.2,12.9,1.5,9.7-3.1,12.4-5.3,15.6"/><path class="cls-22" d="M325.6,531.8l-4.6-3.1a24.3,24.3,0,0,1,1.6-2.1c2.1-2.5,4.2-5,3.2-11.6l-0.6-3.9,3.9,0.8c14.5,3.1,20.1-4.4,24.2-11.6l4.8,2.7c-2.9,5.2-9.6,16.8-26.5,14.8,0.1,6.5-2.8,9.9-4.8,12.3Z"/></g><g id="path5816"><path class="cls-22" d="M340.4,496.2l-4.3-3.5c15.1-18.7,36.7-25.3,59.5-32.4,6.6-2,13.4-4.1,20.2-6.6l1.9,5.2c-6.9,2.5-13.7,4.6-20.4,6.6C375.2,472.4,354.4,478.8,340.4,496.2Z"/></g><g id="path5818"><path d="M344.9,495.5c16.6-7.7,38.1-12.3,54.7-9"/><path class="cls-22" d="M346,498l-2.3-5c14.9-6.9,37.6-12.9,56.4-9.2l-1.1,5.4C384.4,486.3,364.1,489.7,346,498Z"/></g><g id="path5820"><path d="M309.4,515c-10.4,5.9-18.1,12.6-23,22.9"/><path class="cls-22" d="M289,539.1l-5-2.4c4.6-9.8,12.1-17.3,24.1-24.1l2.7,4.8C299.7,523.7,293.2,530.2,289,539.1Z"/></g><g id="path5822"><path d="M312.7,520.3c-3.5,7.2-5.6,17-6.9,23.2"/><path class="cls-22" d="M308.5,544.1l-5.4-1.1v-0.2c1.4-6.5,3.5-16.2,7.1-23.6l4.9,2.4c-3.3,6.8-5.3,16.2-6.6,22.3v0.2Z"/></g><g id="path5824"><path d="M310.4,362.7c77.4,30.8,4.5,15.3,2.6,17.4,0,0-10.6-2.3-14.5.4C288.4,348.6,299.9,358.5,310.4,362.7Z"/><path class="cls-22" d="M297.1,385l-1.1-3.6c-5.5-17.2-4.7-22.4-1.8-24.9s8-.7,13.1,1.7l4.3,1.9c13,5.2,22.6,9.4,28.5,12.5s9.4,5.7,8.6,8.9-7.7,4-24.8,2c-3.5-.4-7.7-0.9-9.4-0.9l-0.4.5-1.6-.3c-3.8-.8-10.4-1.4-12.3,0Zm17.4-7.8c1.9,0,4.9.3,10,.9s12,1.4,16.4,1.4h0c-3.6-2.2-11.9-6.4-31.4-14.2h0l-4.6-2c-2.3-1.1-6-2.8-7.1-2.5s-1.3,3,2.6,16.2c4.4-1,10.2-.1,12.6.3h1.6Z"/></g><g id="path5826"><path d="M250.6,447.4c-24.7-16.8-42.1-4.2-34.1-.1l24.7,12.5C244.9,461.6,247.4,453,250.6,447.4Z"/><path class="cls-22" d="M242.2,462.7a5,5,0,0,1-2.3-.6l-24.7-12.5a5.7,5.7,0,0,1-3.5-5c0-2.4,1.7-4.8,4.7-6.4,6.7-3.6,20-4,35.7,6.7l2.1,1.4-1.3,2.2c-0.8,1.3-1.5,2.9-2.2,4.5-2.1,4.4-3.9,8.2-7,9.3Zm-24.8-18.2,0.4,0.2,24.4,12.3c1-.8,2.6-4.2,3.6-6.3l1.2-2.5c-11.5-7.2-21.2-7.7-26.6-5.7A6.2,6.2,0,0,0,217.4,444.5Z"/></g></g></g><g id="layer6"><g id="path6025"><path d="M656.1,358.1c-13.6-.8-58.3-2-67.6-9-0.9-.7-13.1-4.9-13.2-4.7s6.1,4.6,6.6,5.2c4.3,4.7-6.4,9.7-3.1,16.1,4.7,9.2,6.8,18.8,2.1,25.4-2.6,4.3-10.5,18.6-9.8,22.9,0.1,0.5,10-3.6,10.7-3.9,4.7-2,11.7-4.5,15.9-7.5,9-6.5,34.2-11.6,38.9-15.5,8.9-7,15.8-19.1,19.6-28.9h0Z"/><path class="cls-22" d="M571.1,416.3a2,2,0,0,1-1.1-.3l-1-.6-0.2-1.2c-0.9-5.6,8.3-21.4,10.1-24.5v-0.2c4.8-6.8.7-17.3-2.3-22.9s0.2-8.3,2.1-11.1,2.1-3.7,1.5-4.4l-1.8-1.3c-4.2-2.9-5.2-3.7-5.5-5.1l-0.2-1,0.6-.9a2.4,2.4,0,0,1,1.6-1c0.6-.1.9-0.1,7.6,2.2s7.1,2.7,7.4,3c7.5,5.6,44,7.4,59.6,8.2l6.8,0.4,3.3,0.2-1.2,3.1c-1.8,4.7-8.7,20.7-20.3,29.9-2.3,1.9-7.7,3.7-16.2,6.5s-18,5.8-22.7,9.1-8.6,4.6-13.1,6.4l-3.2,1.3C574.9,415.5,572.3,416.3,571.1,416.3Zm11.9-24c-3.7,6.3-7.5,13.8-8.9,18.2l6.8-2.7,3.3-1.4c4-1.6,9.1-3.7,12.1-5.9,5.3-3.8,15.2-7,24-9.8,6.3-2,12.9-4.1,14.7-5.6,6.6-5.3,13.1-14.4,17.6-24.8l-3.4-.2c-25.8-1.3-54-3.1-62.1-9l-2-.8c1,3-1,5.9-2.3,8s-2.7,4.5-1.8,6.2C586.9,376.1,587.6,385.7,582.9,392.3Zm4.1-41.3h0Z"/></g><g id="g6338"><g id="path6027"><path d="M547.4,317.6c-11.3-1.3-22.4,1.2-33,4.6s-27.4,7.1-39,8.3c-9.9.7-19.4-4.5-29-3.8s6.6,27,9.3,31.5c3.4,18.4,1.2,30.3,2.8,40.8,2.5,8.1,6.9,17.7,14.2,21.7,4.4,4.8,29.2,6.2,39.1,15.3,11.4,7.5,21.5,10.5,31.9,1.8,2.6-2.2,7.9-3.7,9.8-6.8s7.6-2.9,9.1-4.6,4.7-1.6,6.8-3.4,10.1-9.4,10.7-10.8,8.7-10.4,10.6-11.5c6-8.1,4.9-21.9-.1-45.5-4.8-4.6-9.4-12.2-7.4-18.8s2-12,1.4-18.2c-1-7.9-3.2-25.7-14.3-16.4-11.1,4.9-12.9,11-22.8,15.9h0Z"/><path class="cls-22" d="M530.3,445.4c-7.1,0-13.8-3.5-19.9-7.5l-0.3-.2c-5.3-4.8-15.7-7.5-24.1-9.6s-12.4-3.2-14.9-5.5c-7.9-4.6-12.5-14.9-15-22.9v-0.4a101.1,101.1,0,0,1-.7-14,143.2,143.2,0,0,0-2-26.3l-0.2-.4c-10.7-17.4-14.4-27.2-11.8-31.7a5.3,5.3,0,0,1,4.9-2.6c5.1-.3,10.1.8,14.9,1.9s9.4,2.2,14,1.9c11.3-1.1,27.4-3.9,38.3-8.1h0.1c8.9-2.9,20.8-6,33.3-4.8a41.5,41.5,0,0,0,9.3-6.8,45.2,45.2,0,0,1,12.7-8.7c3.4-2.7,6.5-3.6,9.3-2.5,6.2,2.4,7.7,13.7,8.5,20.4v0.2c0.6,5.4-.1,10.1-0.8,15.2l-0.5,3.7V337c-1.6,5.3,2.3,12,6.8,16.4l0.5,0.5,0.2,0.7c6.5,30.6,4.8,40.5-.3,47.4l-0.3.4-0.4.2c-1.4.9-8.9,9.5-9.8,10.8l0.2-.3c-0.9,2.1-11.2,11.6-11.3,11.6a10.2,10.2,0,0,1-4,1.9,4.4,4.4,0,0,0-2.4,1.2h-0.1c-1.1,1.2-3,1.9-4.9,2.5s-3.5,1.2-3.9,1.8c-1.5,2.5-4.4,4-6.9,5.4a21.4,21.4,0,0,0-3.4,2.1C540.2,443.8,535.2,445.4,530.3,445.4ZM513.2,434c12.6,8.2,20.7,8.7,28.9,1.9a24.8,24.8,0,0,1,4.2-2.6c2.1-1.1,4.2-2.2,5.1-3.6s4.1-3,6.5-3.8a13.5,13.5,0,0,0,2.9-1.1,8.7,8.7,0,0,1,4.8-2.7,6.1,6.1,0,0,0,2.2-.9c1-.8,9.2-8.7,10.1-10v0.2c0.5-1.2,8.4-10.1,11-12.3,5.4-7.6,3.9-21.4-.6-42.6-4.9-5-9.6-13.1-7.6-20.5l0.5-3.6c0.7-4.9,1.3-9.1.8-13.9v-0.2c-0.5-4.1-1.9-15.2-5.5-16.6-1.4-.6-3.4.7-4.8,1.9l-0.3.2h-0.3a40.5,40.5,0,0,0-11.7,8,45.1,45.1,0,0,1-11,7.8l-0.6.3h-0.7c-11.8-1.3-23.3,1.7-31.9,4.5-11.4,4.4-27.9,7.2-39.6,8.4-5.4.4-10.5-.8-15.5-2s-9.2-2.1-13.6-1.8h-0.2a1.2,1.2,0,0,0-.8.2c-0.4.7-1.6,5.2,11.7,26.8l0.7,1.2v0.4a146.5,146.5,0,0,1,2.1,27.6,99.7,99.7,0,0,0,.6,13.2c2.3,7.2,6.3,16.4,13,20.1l0.3,0.2,0.3,0.3c1.4,1.5,7.5,3.1,12.8,4.4C496.1,425.7,507.1,428.5,513.2,434Z"/></g><g id="path6009"><path d="M537.7,415.9c-3-.5-21.1,1.9-18.6,5,1.1,1.3,10.9,8.4,11.9,8.2C533.9,428.4,540.1,418.1,537.7,415.9Z"/><path class="cls-22" d="M530.9,431.5c-0.9,0-2.4-.6-7.2-4-0.5-.4-5.3-3.8-6.5-5.1a3.2,3.2,0,0,1-.3-3.7c2.5-4.2,18.9-5.5,21.2-5.1h0.7l0.5,0.5c0.9,0.8,1.8,2.5,1,5.6s-5.3,10.9-8.7,11.7h-0.7Zm0.5-4.8h0Zm-9.1-6.1a82.5,82.5,0,0,0,8.5,5.9c1.7-1.3,4.4-5.9,4.9-8.2a58.5,58.5,0,0,0-6.8.8A38.1,38.1,0,0,0,522.4,420.6Z"/></g><g id="path6011"><path d="M512,397.9c-0.1-9.8-16.4-19.1-22.3-9.6-0.6,1.1-.4,2.1,0,3.4,2,6.7,11.6,9.5,15.6,8.4s4.2-2.2,7.7-2.3"/><path class="cls-22" d="M503.3,402.7c-5.5,0-13.8-3.3-15.9-10.3a6.2,6.2,0,0,1,.3-5.4c2.7-4.4,7.7-6.1,13.3-4.5s13.4,8.1,13.4,15.4H513v2.3a8.5,8.5,0,0,0-3.8,1,21.2,21.2,0,0,1-3.3,1.3A10.1,10.1,0,0,1,503.3,402.7Zm-6.4-16a5.7,5.7,0,0,0-5.2,2.8,3.6,3.6,0,0,0,.3,1.5c1.6,5.4,9.8,7.5,12.6,6.7a16.8,16.8,0,0,0,2.6-1l2-.8c-1.2-4.1-5.5-7.7-9.6-8.8A10.2,10.2,0,0,0,497,386.7Z"/></g><g id="path6013"><path d="M540.6,392.9c-2.9-11.9,7.7-22.5,18.9-16.7,4.5,2.3.4,10.7-6.1,14.1C548.6,393.2,544.1,390.7,540.6,392.9Z"/><path class="cls-22" d="M539,396.6l-0.8-3.2a17.7,17.7,0,0,1,5.8-18.1,15,15,0,0,1,16.5-1.3,5.9,5.9,0,0,1,3.2,5.4c0,4.5-4,10.1-9.2,12.9a15.2,15.2,0,0,1-8.6,1.9c-1.7,0-3.1,0-4.2.7Zm14.1-19.7a9.8,9.8,0,0,0-6.1,2.1,12.5,12.5,0,0,0-4.5,10.6c3.5-.6,6.5.5,9.6-1.5h0.1c4-2.1,6.7-6.3,6.7-8.7a1.1,1.1,0,0,0-.6-1.2A11.5,11.5,0,0,0,553.1,376.9Z"/></g><g id="path6015"><path d="M483.4,341c-3.3-4.1-8.8-6.1-13.7-7.6a43.8,43.8,0,0,0-8.6-1.3c-2.7-.3-11.4-1.9-13.4-0.3s2.2,6,2.6,7c2.3,6.1,13,27.4,18.8,25.1s6.5-12.3,10.6-15.8c0.8-.7,3.7-6.2,3.6-7.2h0Z"/><path class="cls-22" d="M468.2,366.5a6,6,0,0,1-2.4-.5c-7.4-3.3-16.4-22.8-17.7-26.3l-0.5-.9c-1.6-2.6-4.1-6.6-1.4-8.8s6-1.5,13.1-.5l2.1,0.3h0.9a41,41,0,0,1,8.2,1.3c5.6,1.7,11.3,3.9,14.9,8.4l0.4,0.6v0.7c0.2,2.2-3.4,8.4-4.5,9.3s-2.5,3.8-3.6,6.3-3.7,8.4-7.7,9.9A4.9,4.9,0,0,1,468.2,366.5Zm-18.2-33a29.1,29.1,0,0,0,1.5,2.7,11.1,11.1,0,0,1,.9,1.7c2.7,7,10.7,21.6,15.2,23.6h0.5c2.1-.8,3.6-4.2,5-7.4s2.7-6.1,4.9-7.9a29.1,29.1,0,0,0,2.6-4.8c-2.9-2.9-7.3-4.6-11.8-5.9a36.7,36.7,0,0,0-7.2-1.1h-0.9l-2.3-.3A52.2,52.2,0,0,0,450,333.5Zm28.2,12.8h0Zm2.8-5.5h0Zm-31.9-7.1h0Z"/></g><g id="path6017"><path d="M574.6,347c-4.9.6-8.7-2.1-12.5-4.5s-4.9-2.1-6.7-4.4a21,21,0,0,1-2.6-4.5c-2.2-5.8-2.3-11,2.5-16.3s9.6-7.3,14-9.6c1.7-1.5,7.1-6.1,8.9-3.9s1.6,9.7,2.2,13.7c0.9,5.7-1.5,10.7-2,16.1s-1.1,10.5-3.7,13.4h0Z"/><path class="cls-22" d="M573.2,349.5c-4.7,0-8.5-2.4-11.8-4.5l-0.7-.4-2.2-1.2a14.4,14.4,0,0,1-5.1-3.7,23.4,23.4,0,0,1-3-5.2c-1.8-4.6-3.4-11.6,2.9-18.8l0.2-.2,0.2-.2,5.2-3.8a75.4,75.4,0,0,1,8.7-5.9c4.2-3.6,7.1-5.1,9.4-4.9a3.9,3.9,0,0,1,2.8,1.4c2.2,2.6,2.3,7,2.5,10.8a38.7,38.7,0,0,0,.3,4.1c0.6,4.1-.2,7.7-1,11.2a43.7,43.7,0,0,0-1,5.5c-0.5,5.8-1.4,11.6-4.3,14.8l-0.6.7h-2.5Zm-16.5-30.4c-3.5,4-4,8-1.9,13.6a18.8,18.8,0,0,0,2.3,3.9,10.1,10.1,0,0,0,3.6,2.5l2.6,1.4,0.7,0.4c3.2,2,5.9,3.7,9.2,3.7h0.1c1.8-2.9,2.4-8.9,2.6-11.3a48.1,48.1,0,0,1,1.1-6.1c0.7-3.2,1.4-6.2.9-9.4a41.8,41.8,0,0,1-.3-4.7c-0.1-2.7-.2-6-1.1-7.6-0.6.2-2.2,0.9-5.7,3.9l-0.2.2h-0.2a68.7,68.7,0,0,0-8.4,5.6Z"/></g><g id="path6035"><path d="M547.1,433.9c-3.1,1.9-15.2,4-15.1-3.9-2.5,6.2-8.6,15.3-15.8,8.7"/><path class="cls-22" d="M521.3,443.4a9.8,9.8,0,0,1-6.7-2.9l3.2-3.5c2.2,2,3.7,1.7,4.2,1.6,3-.7,6.1-5.2,7.8-9.4l4.6,0.9a2.4,2.4,0,0,0,1.2,2.5c2.7,1.6,8.6.3,10.2-.7l2.5,4.1c-2.7,1.7-10.4,3.4-15.1.8l-1.4-1.1c-1.9,3.2-4.9,6.7-8.8,7.5Z"/></g><g id="path6037"><path d="M548.7,416.5c19.6-9.9,40-6,61.3-3.9"/><path class="cls-22" d="M549.8,418.6l-2.2-4.3c17.7-9,35.6-7.1,54.6-5l8,0.8-0.5,4.8-8.1-.8C583.5,412.1,566.3,410.3,549.8,418.6Z"/></g><g id="path6039"><path d="M551.6,421.3a121.5,121.5,0,0,1,42.2-3.3"/><path class="cls-22" d="M552.1,423.6l-1.2-4.6a124.7,124.7,0,0,1,43-3.4l-0.5,4.8A119.9,119.9,0,0,0,552.1,423.6Z"/></g><g id="path6041"><path class="cls-22" d="M479.3,442.6l-3.9-2.8c9.2-12.7,16.7-20.7,35.2-16.6l-1,4.7C493.6,424.3,487.9,430.8,479.3,442.6Z"/></g><g id="path6043"><path class="cls-22" d="M489.2,443.4l-2.5-4.1,4.3-2.7c7.1-4.6,14.5-9.4,23.9-10.2l0.4,4.8c-8.2.7-14.8,4.9-21.7,9.4Z"/></g></g><g id="g6351"><g id="path6019"><path d="M647.7,384.9c-5.8-7.1-4.5-9.4-2.4-16.2,13.6-43.7,68-12.2,41.1,1.4-7.4,3.8-15.2,6.2-22.5,9.9s-10,3.7-16.2,4.9h0Z"/><path class="cls-22" d="M646.7,387.5l-0.9-1.1c-6-7.3-5.3-10.7-3.3-17.1L643,368c7-22.6,23.4-24.3,30.1-24,11.1,0.5,21.2,7,22.8,14.7,0.7,3.1.5,9-8.4,13.6-3.8,1.9-7.7,3.5-11.5,5.1s-7.4,3-11,4.8c-6.1,3.1-10.5,3.9-16.7,5.1Zm25-38.8c-15.9,0-22.1,14.4-24.1,20.7l-0.4,1.4c-1.6,5.1-2.1,6.7,1.5,11.5,5.3-1,9.1-1.8,14.2-4.4s7.6-3.5,11.3-5,7.5-3,11.1-4.9,6.8-4.4,5.9-8.3-8.7-10.5-18.4-10.9h-1.2Z"/></g><g id="path6332"><path class="cls-22" d="M659.1,383.6c-2.1-4.2-3.2-7.4-3.1-12.6h5c0,4.2.8,6.7,2.6,10.3Z"/></g><g id="path6334"><path class="cls-22" d="M677.2,373.7l-0.3-1c-0.8-3.2-1.5-6-4.3-9.5l3.9-3.1c3.5,4.3,4.4,7.9,5.3,11.4l0.3,1Z"/></g><g id="path6336"><path class="cls-22" d="M669.4,378.8l-0.3-1.2a45.1,45.1,0,0,0-3.9-10.1l4.3-2.5a49.1,49.1,0,0,1,4.3,11.2l0.3,1.1Z"/></g></g></g></g></g></svg>