<?xml version="1.0" encoding="utf-8"?>
<!-- Generator: Adobe Illustrator 16.0.0, SVG Export Plug-In . SVG Version: 6.00 Build 0)  -->
<!DOCTYPE svg PUBLIC "-//W3C//DTD SVG 1.1//EN" "http://www.w3.org/Graphics/SVG/1.1/DTD/svg11.dtd">
<svg version="1.1" id="Layer_1" xmlns="http://www.w3.org/2000/svg" xmlns:xlink="http://www.w3.org/1999/xlink" x="0px" y="0px"
	 width="611.834px" height="706.506px" viewBox="0.083 42.123 611.834 706.506"
	 enable-background="new 0.083 42.123 611.834 706.506" xml:space="preserve">
<polygon id="fill" fill="#428BCA" points="611.917,572.024 306,748.629 0.083,572.021 0.083,218.728 306,42.123 611.917,218.728 "/>
<linearGradient id="gradient_1_" gradientUnits="userSpaceOnUse" x1="305.6709" y1="404.7256" x2="305.6709" y2="134.4175" gradientTransform="matrix(1 0 0 1 0 -80)">
	<stop  offset="0" style="stop-color:#FFFFFF;stop-opacity:0"/>
	<stop  offset="1" style="stop-color:#FFFFFF"/>
</linearGradient>
<path id="gradient" opacity="0.2" fill="url(#gradient_1_)" d="M305.591,54.417L59.22,197.048
	c36.979,74.535,133.292,127.677,246.28,127.677c113.336,0,209.895-53.47,246.621-128.366L305.591,54.417z"/>
<g id="img">
	<g id="obs">
		<defs>
			<rect id="SVGID_1_" x="-6.867" y="100.753" width="623.284" height="387.923"/>
		</defs>
		<clipPath id="SVGID_2_">
			<use xlink:href="#SVGID_1_"  overflow="visible"/>
		</clipPath>
		
			<polyline clip-path="url(#SVGID_2_)" fill="none" stroke="#FFFFFF" stroke-width="3" stroke-linejoin="round" stroke-miterlimit="10" points="
			21.468,440.865 65.044,333.728 108.633,294.768 152.222,392.166 195.811,399.468 239.398,319.118 		"/>
	</g>
	<g id="fc95">
		<defs>
			<rect id="SVGID_3_" x="-6.867" y="100.753" width="623.284" height="387.923"/>
		</defs>
		<clipPath id="SVGID_4_">
			<use xlink:href="#SVGID_3_"  overflow="visible"/>
		</clipPath>
		<polyline opacity="0.5" clip-path="url(#SVGID_4_)" fill="#FFFFFF" points="239.398,319.118 282.987,211.301 326.563,303.71 
			370.151,311.691 413.74,193.807 453.759,127.423 461.716,132.018 500.917,225.973 544.506,238.859 562.171,190.02 588.081,204.98 
			588.081,383.532 544.506,471.047 500.917,446.733 457.328,342.542 413.74,376.043 370.151,461.588 326.563,433.647 
			282.987,322.809 239.398,319.118 		"/>
	</g>
	<g id="fc80">
		<defs>
			<rect id="SVGID_5_" x="-6.867" y="100.753" width="623.284" height="387.923"/>
		</defs>
		<clipPath id="SVGID_6_">
			<use xlink:href="#SVGID_5_"  overflow="visible"/>
		</clipPath>
		<polyline opacity="0.33" clip-path="url(#SVGID_6_)" fill="#FFFFFF" points="239.398,319.118 282.987,230.598 326.563,326.192 
			370.151,337.627 413.74,225.347 457.328,159.754 500.917,264.18 544.506,279.044 575.404,197.661 588.081,204.98 588.081,337.646 
			544.506,430.862 500.917,408.525 457.328,304.283 413.74,344.5 370.151,435.642 326.563,411.155 282.987,303.511 239.398,319.118 
					"/>
	</g>
	<g id="fcline">
		<defs>
			<rect id="SVGID_7_" x="-6.867" y="100.753" width="623.284" height="387.923"/>
		</defs>
		<clipPath id="SVGID_8_">
			<use xlink:href="#SVGID_7_"  overflow="visible"/>
		</clipPath>
		
			<polyline clip-path="url(#SVGID_8_)" fill="none" stroke="#FFFFFF" stroke-width="3" stroke-linejoin="round" stroke-miterlimit="10" points="
			239.398,319.118 282.987,267.054 326.563,368.679 370.151,386.636 413.74,284.929 457.328,232.022 500.917,336.357 
			544.506,354.948 588.081,250.958 		"/>
	</g>
</g>
<path id="outline" fill="#3674A8" d="M587.52,204.656L356.209,71.099L306,42.123l-50.209,28.976L24.48,204.656L0.083,218.728
	v353.293l24.396,14.071l234.142,135.225L306,748.629l47.378-27.312L587.52,586.095l24.397-14.07V218.728L587.52,204.656z
	 M587.52,558.783L306,721.317L24.48,558.783v-325.15L306,71.099l0,0l281.52,162.534V558.783z"/>
<g id="text">
	<path fill="#FFFFFF" d="M75.935,561.09v-60.881h-9.782v-9.781h9.782v-3.357c0-9.928,2.336-18.98,8.322-24.674
		c4.818-4.672,11.242-6.57,17.082-6.57c4.672,0,8.468,1.022,10.95,2.045l-1.606,9.928c-2.044-0.877-4.526-1.606-8.322-1.606
		c-10.804,0-13.724,9.636-13.724,20.439v3.796h17.082v9.781H88.782v60.881H75.935z"/>
	<path fill="#FFFFFF" d="M144.408,562.695c-18.979,0-33.871-14.016-33.871-36.353c0-23.651,15.622-37.521,35.039-37.521
		c20.293,0,34.017,14.745,34.017,36.207c0,26.279-18.25,37.666-35.039,37.666H144.408z M144.846,553.061
		c12.264,0,21.461-11.534,21.461-27.594c0-11.972-5.986-27.01-21.169-27.01c-15.038,0-21.607,14.016-21.607,27.447
		c0,15.477,8.76,27.156,21.169,27.156H144.846z"/>
	<path fill="#FFFFFF" d="M195.946,512.473c0-8.321-0.146-15.475-0.584-22.045h11.242l0.584,13.869h0.438
		c3.212-9.489,11.096-15.475,19.709-15.475c1.314,0,2.336,0.146,3.504,0.438v11.972c-1.46-0.146-2.774-0.292-4.526-0.292
		c-9.052,0-15.476,6.861-17.228,16.352c-0.292,1.898-0.438,3.941-0.438,6.132v37.667H195.8L195.946,512.473z"/>
	<path fill="#FFFFFF" d="M249.965,527.949c0.292,17.373,11.242,24.527,24.089,24.527c9.198,0,14.892-1.606,19.564-3.504l2.336,9.051
		c-4.526,2.045-12.41,4.526-23.652,4.526c-21.607,0-34.747-14.454-34.747-35.623c0-21.462,12.702-38.251,33.287-38.251
		c23.067,0,29.053,20.293,29.053,33.287c0,2.628-0.146,4.672-0.438,6.132L249.965,527.949z M287.486,518.751
		c0.146-8.03-3.357-20.878-17.665-20.878c-13.14,0-18.688,11.973-19.709,20.878H287.486z"/>
	<path fill="#FFFFFF" d="M366.179,558.607c-3.357,1.606-10.803,4.088-20.293,4.088c-21.316,0-35.186-14.453-35.186-36.207
		c0-21.753,14.893-37.666,37.959-37.666c7.592,0,14.309,1.897,17.813,3.795l-2.92,9.782c-3.066-1.606-7.885-3.358-14.893-3.358
		c-16.205,0-24.965,12.118-24.965,26.863c0,16.352,10.512,26.426,24.527,26.426c7.299,0,12.117-1.752,15.768-3.357L366.179,558.607z
		"/>
	<path fill="#FFFFFF" d="M431.147,544.154c0,6.132,0.293,12.117,1.021,16.936h-11.533l-1.168-8.906h-0.438
		c-3.797,5.549-11.533,10.512-21.607,10.512c-14.309,0-21.607-10.073-21.607-20.293c0-17.082,15.184-26.426,42.484-26.279v-1.46
		c0-5.84-1.605-16.497-16.059-16.352c-6.717,0-13.578,1.897-18.543,5.256l-2.92-8.614c5.84-3.649,14.455-6.131,23.359-6.131
		c21.754,0,27.01,14.745,27.01,28.906V544.154z M418.593,525.029c-14.016-0.293-29.93,2.189-29.93,15.913
		c0,8.468,5.547,12.264,11.971,12.264c9.344,0,15.33-5.84,17.375-11.825c0.438-1.314,0.584-2.774,0.584-4.088V525.029z"/>
	<path fill="#FFFFFF" d="M449.981,548.096c3.943,2.336,10.658,4.965,17.082,4.965c9.197,0,13.578-4.526,13.578-10.512
		c0-6.133-3.65-9.49-12.994-12.994c-12.848-4.672-18.834-11.533-18.834-20.002c0-11.387,9.344-20.73,24.383-20.73
		c7.152,0,13.432,1.897,17.227,4.379l-3.066,9.198c-2.773-1.606-7.883-4.088-14.453-4.088c-7.592,0-11.68,4.38-11.68,9.636
		c0,5.986,4.088,8.613,13.285,12.117c12.119,4.526,18.543,10.658,18.543,21.316c0,12.555-9.783,21.314-26.279,21.314
		c-7.738,0-14.893-2.043-19.855-4.963L449.981,548.096z"/>
	<path fill="#FFFFFF" d="M525.024,473.492v16.936h18.396v9.781h-18.396v38.105c0,8.76,2.482,13.724,9.637,13.724
		c3.504,0,5.547-0.292,7.445-0.876l0.584,9.781c-2.482,0.877-6.424,1.752-11.387,1.752c-5.986,0-10.805-2.043-13.871-5.401
		c-3.504-3.942-4.963-10.22-4.963-18.542v-38.543h-10.949v-9.781h10.949v-12.994L525.024,473.492z"/>
</g>
</svg>
