<?xml version="1.0" encoding="utf-8"?>
<!-- Generator: Adobe Illustrator 16.0.4, SVG Export Plug-In . SVG Version: 6.00 Build 0)  -->
<!DOCTYPE svg PUBLIC "-//W3C//DTD SVG 1.1//EN" "http://www.w3.org/Graphics/SVG/1.1/DTD/svg11.dtd">
<svg version="1.1" id="Layer_1" xmlns="http://www.w3.org/2000/svg" xmlns:xlink="http://www.w3.org/1999/xlink" x="0px" y="0px"
	 width="124.56px" height="144px" viewBox="0 0 124.56 144" enable-background="new 0 0 124.56 144" xml:space="preserve">
<g>
	<polygon fill="#00594F" points="2.658,106.184 2.658,37.274 62.332,2.821 122.011,37.274 122.011,106.184 62.332,140.637 	"/>
	<path fill="#FFFFFF" d="M62.332,5.708l57.179,33.01v66.022l-57.179,33.01L5.158,104.74V38.718L62.332,5.708 M62.332-0.066
		L0.158,35.831v71.796l62.174,35.896l62.179-35.896V35.831L62.332-0.066L62.332-0.066z"/>
</g>
<path fill="#FFFFFF" d="M62.277,5.979l57.179,33.01v66.022l-57.179,33.01l-57.174-33.01V38.989L62.277,5.979 M62.277,0.206
	L0.104,36.103v71.796l62.174,35.896l62.179-35.896V36.103L62.277,0.206L62.277,0.206z"/>
<g>
	<path fill-rule="evenodd" clip-rule="evenodd" fill="#4DBA6D" d="M12.842,94.044c2.046-0.07,4.101,0.211,6.134-0.205
		c2.444-0.503,4.275-1.903,5.717-3.886c0.916-1.258,1.895-2.481,2.796-3.751c1.547-2.177,3.751-2.874,6.281-2.89
		c2.265-0.019,4.428-0.375,6.315-1.779c0.688-0.511,1.167-1.207,1.796-1.967c1.148,2.669,2.474,5.066,4.365,7.104
		c5.801,6.256,12.959,7.907,21.088,6.192c1.929-0.403,3.771-1.102,5.486-2.066c0.713-0.396,1.299-0.34,1.995-0.048
		c3.794,1.574,6.089,6.72,5.145,10.306c-0.993,3.77-2.372,7.423-4.066,10.862c-2.059,4.185-1.581,8.146-0.451,12.29
		c0.468,1.715,1.104,3.364,1.917,4.909c-0.224,0.275-0.393,0.094-0.502,0.012c-3.108-2.27-6.01-4.733-8.418-7.777
		c-2.95-3.733-2.957-7.566-0.686-11.562c1.021-1.793,1.809-3.67,2.157-5.718c0.583-3.43-0.564-6.403-3.407-8.72
		c-0.267,0.456-0.101,0.947-0.139,1.409c-0.175,2.306-0.887,4.261-2.834,5.783c-3.266,2.551-4.565,5.935-3.542,10.118
		c-0.63-0.199-0.801-0.709-0.992-1.112c-2.194-4.676-3.788-9.509-3.835-14.742c-0.007-0.707,0.149-1.415,0.209-2.124
		c0.026-0.311,0.031-0.661-0.302-0.818c-0.297-0.147-0.487,0.115-0.681,0.292c-2.202,2.025-4.283,4.179-6.155,6.501
		c-2.865,3.57-6.247,5.748-11.066,4.981c-1.337-0.218-2.734-0.034-4.084-0.034c-0.156-0.716,0.339-0.809,0.634-1.009
		c2.186-1.409,4.046-3.206,6-4.897c3.356-2.896,4.961-6.777,6.38-10.797c0.134-0.382,0.314-0.773-0.027-1.124
		c-0.211-0.217-0.5-0.187-0.749-0.065c-2.452,1.265-5.192,1.529-7.798,2.26c-4.84,1.357-9.074,3.88-13.065,6.841
		c-1.077,0.797-2.216,1.253-3.489,0.96c-2.861-0.661-5.731-1.34-8.13-3.189C12.842,94.4,12.842,94.226,12.842,94.044z"/>
	<path fill-rule="evenodd" clip-rule="evenodd" fill="#4DBA6D" d="M41.239,13.262c3.701,2.517,6.242,5.618,8.665,8.814
		c1.186,1.559,2.239,3.219,3.339,4.842c2.281,3.369,2.596,7.017,1.546,10.865c-0.729,2.669-1.409,5.346-0.75,8.146
		c0.281,1.194,0.848,2.245,1.55,3.23c0.326,0.451,0.542,0.752-0.242,1.042c-3.025,1.13-5.871,2.599-8.19,4.91
		c-0.629,0.627-0.875-0.012-1.133-0.318c-2.03-2.391-2.557-5.206-2.28-8.252c0.377-4.181,1.297-8.243,2.405-12.289
		c1.049-3.833,0.386-7.593-1.078-11.236C43.815,19.887,42.603,16.742,41.239,13.262z"/>
	<path fill-rule="evenodd" clip-rule="evenodd" fill="#4DBA6D" d="M114.884,54.268c-1.565,0.811-3.122,0.69-4.604,0.893
		c-4.625,0.626-8.467,2.616-11.353,6.311c-2.066,2.646-4.427,5.006-6.844,7.31c-1.667,1.589-3.676,2.63-5.928,3.188
		c-0.875,0.217-1.312,0.146-1.301-0.938c0.03-2.56-0.537-5.027-1.387-7.432c-0.189-0.533-0.396-0.984,0.272-1.355
		c6.031-3.335,11.924-6.949,18.52-9.138c3.014-1.004,6.093-1.244,9.199-0.542C112.665,52.837,113.801,53.343,114.884,54.268z"/>
	<path fill-rule="evenodd" clip-rule="evenodd" fill="#4DBA6D" d="M15.841,49.083c0.161-0.41,0.224-0.659,0.349-0.875
		c2.579-4.474,9.984-5.092,13.05-0.962c2.583,3.481,5.704,6.068,9.89,7.341c1.494,0.451,2.854,1.237,4.111,2.189
		c0.852,0.637,1.062,1.185,0.352,2.171c-1.655,2.294-2.78,4.857-3.317,7.901c-3.097-2.183-6.368-3.971-8.43-7.166
		c-1.495-2.32-2.839-4.725-4.052-7.218c-1.177-2.415-3.34-3.661-5.996-3.93C19.849,48.336,17.895,48.445,15.841,49.083z"/>
	<path fill-rule="evenodd" clip-rule="evenodd" fill="#4DBA6D" d="M82.469,81.993c-0.274-0.468,0.031-0.835,0.202-1.233
		c0.896-2.089,1.828-4.167,1.986-6.479c0.041-0.639,0.384-0.831,0.96-0.831c1.557-0.012,2.943-0.596,4.325-1.235
		c2.785-1.286,5.512-2.752,8.742-2.577c1.048,0.059,2.048,0.241,2.956,0.726c2.633,1.413,5.375,2.583,8.099,3.806
		c1.774,0.796,3.025,1.915,3.657,3.29c-1.742,0.017-3.23-0.75-4.786-1.177c-2.191-0.609-4.407-1.007-6.666-1.295
		c-3.106-0.397-5.536,0.884-7.479,3.056c-2.53,2.833-5.847,3.558-9.343,3.932c-0.881,0.1-1.781,0.014-2.67,0.007L82.469,81.993z"/>
	<path fill-rule="evenodd" clip-rule="evenodd" fill="#4DBA6D" d="M69.017,49.85c-3.638-0.749-7.147-1.171-10.836-0.454
		c3.16-8.697,2.191-17.068-0.916-25.458C61.049,26.471,67.111,39.881,69.017,49.85z"/>
	<path fill-rule="evenodd" clip-rule="evenodd" fill="#4DBA6D" d="M39.598,69.46c0.023,2.526-0.219,4.863,0.674,7.074
		c0.221,0.555-0.16,0.58-0.528,0.645c-4.938,0.837-9.277-0.598-12.695-4.068c-2.334-2.371-4.806-2.456-7.308-1.064
		c-0.46,0.257-0.914,0.532-1.718,1c1.338-2.833,2.983-4.849,5.562-6.023c2.607-1.188,5.054-1.223,7.257,0.925
		C33.35,70.394,36.3,70.672,39.598,69.46z"/>
	<path fill-rule="evenodd" clip-rule="evenodd" fill="#4DBA6D" d="M82.452,81.982c1.006,1.113,2.354,1.845,3.311,3.036
		c4.981,6.224,5.263,13.911-1.064,20.314c-0.217,0.223-0.421,0.585-0.754,0.432c-0.437-0.198-0.359-0.667-0.317-1.064
		c0.237-2.615,0.461-5.226,0.466-7.852c0.014-4.273-2.171-7.024-6.361-7.983c-0.304-0.07-0.606-0.141-1.08-0.253
		c1.657-1.443,3.151-2.901,4.349-4.645c0.459-0.674,0.562-1.634,1.469-1.975L82.452,81.982z"/>
	<path fill-rule="evenodd" clip-rule="evenodd" fill="#4DBA6D" d="M77.414,54.57c1.964-0.706,3.615-1.676,4.999-3.12
		c1.051-1.091,1.483-2.519,2.215-3.783c0.498-0.852,1-1.692,1.827-2.268c1.157-0.811,2.363-1.227,3.87-0.972
		c2.718,0.457,5.438,0.851,8.003,1.934c0.696,0.29,1.353,0.644,2.298,1.381c-1.803,0-3.239,0.114-4.654-0.023
		c-3.033-0.29-4.97,1.065-6.291,3.702c-0.772,1.545-1.61,3.061-2.606,4.497c-1.214,1.744-2.931,2.663-4.821,3.4
		c-0.341,0.135-0.689,0.318-0.932-0.111C80.323,57.455,78.849,56.088,77.414,54.57z"/>
	<path fill-rule="evenodd" clip-rule="evenodd" fill="#4DBA6D" d="M75.527,32.44c1.79,2.001,3.078,4.173,4.021,6.528
		c0.774,1.945,0.541,3.938-0.124,5.872c-0.843,2.443-2.153,4.676-3.216,7.022c-0.354,0.785-0.789,1.124-1.725,0.495
		c-1.283-0.863-2.727-1.493-4.217-1.975c-0.522-0.17-1.012-0.386-0.888-1.1c0.245-1.399,0.273-2.828,0.715-4.194
		c0.281-0.868,0.678-1.711,1.402-2.232c3.11-2.227,4.388-5.234,4.036-9C75.487,33.388,75.527,32.914,75.527,32.44z"/>
</g>
<rect x="2.585" y="43.06" fill="none" width="119.501" height="68.333"/>
<text transform="matrix(1 0 0 1 6.3384 87.4336)" fill="#FFFFFF" font-family="'Museo-700'" font-size="62.4982">geo</text>
<rect x="15.672" y="101.264" fill="none" width="93.215" height="26.729"/>
<text transform="matrix(1 0 0 1 35.9736 109.0732)"><tspan x="0" y="0" fill="#FFFFFF" font-family="'Museo-700'" font-size="11">geoblack</tspan><tspan x="47.871" y="0" fill="#FFFFFF" font-family="'Museo-700'" font-size="11">-</tspan><tspan x="3.625" y="13.2" fill="#FFFFFF" font-family="'Museo-700'" font-size="11">light.org</tspan></text>
</svg>
