<svg id="Layer_1" data-name="Layer 1" xmlns="http://www.w3.org/2000/svg" xmlns:xlink="http://www.w3.org/1999/xlink" viewBox="0 0 735 852"><defs><style>.cls-1,.cls-12,.cls-8{fill:none;}.cls-2{fill:#dcddde;}.cls-3{fill:#ba6f38;}.cls-4{clip-path:url(#clip-path);}.cls-5{fill:#ed7d15;}.cls-6{clip-path:url(#clip-path-2);}.cls-7{fill:#f2f2f2;}.cls-8{stroke:#fff;stroke-width:3.5px;}.cls-12,.cls-8{stroke-miterlimit:10;}.cls-9{fill:#000643;}.cls-10{fill:#e6b35a;}.cls-11{fill:#424242;}.cls-12{stroke:#424242;stroke-width:12px;}.cls-13{fill:#51a7f9;}.cls-14{fill:#a8d6ff;}.cls-15{fill:#0365c0;}.cls-16{fill:#164f86;}.cls-17{fill:#002452;}.cls-18{clip-path:url(#clip-path-3);}.cls-19{fill:#36a85d;}</style><clipPath id="clip-path"><polygon class="cls-1" points="-434.3 7.4 -75.6 214.5 -75.6 636.6 -434.3 845 -801 636.6 -801 214.5 -434.3 7.4"/></clipPath><clipPath id="clip-path-2"><polygon class="cls-2" points="369.5 7.4 728.2 214.5 728.2 636.6 369.5 845 2.8 636.6 2.8 214.5 369.5 7.4"/></clipPath><clipPath id="clip-path-3"><polygon class="cls-3" points="1172.4 -16.6 1531.1 190.5 1531.1 612.6 1172.4 821 805.6 612.6 805.6 190.5 1172.4 -16.6"/></clipPath></defs><title>RStudio_Hex 2016 v7 outlines</title><g class="cls-4"><circle class="cls-5" cx="-438.3" cy="437.4" r="442.1"/></g><polygon class="cls-2" points="369.5 7.4 728.2 214.5 728.2 636.6 369.5 845 2.8 636.6 2.8 214.5 369.5 7.4"/><g class="cls-6"><circle class="cls-7" cx="365.5" cy="437.4" r="442.1"/></g><line class="cls-8" x1="680.5" y1="198.1" x2="680.5" y2="656.4"/><line class="cls-8" x1="524.9" y1="106.9" x2="524.9" y2="745.2"/><line class="cls-8" x1="367.4" y1="10.4" x2="367.4" y2="835.4"/><line class="cls-8" x1="209.5" y1="109.9" x2="209.5" y2="745.9"/><line class="cls-8" x1="52.9" y1="200" x2="52.9" y2="651"/><path class="cls-8" d="M47,205c210.8,0.5,420.8.5,632.1,0"/><path class="cls-8" d="M11.2,360.5H713.3"/><path class="cls-8" d="M10.5,518q352.9,0.6,705.7,0"/><line class="cls-8" x1="106" y1="675.9" x2="644.8" y2="675.9"/><path class="cls-9" d="M722,397.6c0.4-5.5.7-11,.9-16.4,0.3-9.9-.4-19.7-0.6-29.6-0.1-2.6-.1-5.1-0.1-7.7H722v53.7Z"/><path class="cls-9" d="M722,531.9v27.4c0.3-1.7.6-3.4,0.8-5.2C723.7,546.6,722.9,539.3,722,531.9Z"/><path class="cls-10" d="M367,633.9l0.9-.9h-0.3Z"/><path class="cls-11" d="M197.4,583c0,18.8-3.5,30.4-11,37.5s-18.4,9.8-28.2,9.8-19.5-2.4-25.8-6.8l3.5-11.4a41.8,41.8,0,0,0,22.7,6.4c14.4,0,25-8,25-28.7v-9.2h-0.3c-4.3,7.6-12.6,13.7-24.6,13.7-19.2,0-33-17.3-33-40,0-27.8,17.1-43.6,34.9-43.6,13.4,0,20.8,7.5,24.2,14.2h0.3l0.6-12.4h12.3c-0.3,5.9-.6,12.6-0.6,22.6V583Zm-13.9-37.8a22.4,22.4,0,0,0-.8-6.8c-2.6-8.6-9.4-15.8-19.7-15.8-13.4,0-23,12-23,31,0,16.1,7.7,29.5,22.9,29.5,8.6,0,16.5-5.8,19.5-15.3a27.4,27.4,0,0,0,1.1-8V545.2Z"/><path class="cls-11" d="M281.7,583c0,18.8-3.5,30.4-11,37.5s-18.4,9.8-28.2,9.8-19.5-2.4-25.8-6.8l3.5-11.4a41.8,41.8,0,0,0,22.7,6.4c14.4,0,25-8,25-28.7v-9.2h-0.3c-4.3,7.6-12.6,13.7-24.6,13.7-19.2,0-33-17.3-33-40,0-27.8,17.1-43.6,34.9-43.6,13.4,0,20.8,7.5,24.2,14.2h0.3l0.6-12.4h12.3c-0.3,5.9-.6,12.6-0.6,22.6V583Zm-13.9-37.8a22.4,22.4,0,0,0-.8-6.8c-2.6-8.6-9.4-15.8-19.7-15.8-13.4,0-23,12-23,31,0,16.1,7.7,29.5,22.9,29.5,8.6,0,16.5-5.8,19.5-15.3a27.4,27.4,0,0,0,1.1-8V545.2Z"/><path class="cls-11" d="M299,539.6c0-10.5-.3-19-0.6-26.8H311l0.6,14.1H312c5.8-10,14.9-15.9,27.5-15.9,18.7,0,32.8,16.8,32.8,41.7,0,29.5-17,44.1-35.2,44.1-10.2,0-19.2-4.7-23.8-12.9h-0.3v44.6H299V539.6Zm13.9,21.9a35.6,35.6,0,0,0,.6,6.1c2.6,10.3,11,17.5,21.1,17.5,14.9,0,23.5-12.9,23.5-31.7,0-16.5-8.2-30.5-23-30.5-9.6,0-18.6,7.3-21.3,18.5a25.6,25.6,0,0,0-1,6.1v14.1Z"/><path class="cls-11" d="M384.9,474.5H399V594.9H384.9V474.5Z"/><path class="cls-11" d="M487.7,553.2c0,30.4-19.8,43.6-38.6,43.6-21,0-37.1-16.3-37.1-42.2,0-27.5,17-43.6,38.4-43.6S487.7,528.1,487.7,553.2Zm-61.4.8c0,18,9.8,31.5,23.5,31.5s23.5-13.4,23.5-31.9c0-13.9-6.6-31.5-23.2-31.5S426.2,538.4,426.2,554Z"/><path class="cls-11" d="M517.3,493.1v19.7h20.2v11.4H517.3v44.3c0,10.2,2.7,15.9,10.6,15.9a24.9,24.9,0,0,0,8.2-1l0.6,11.2a32.2,32.2,0,0,1-12.5,2.2c-6.6,0-11.8-2.4-15.2-6.4s-5.4-11.7-5.4-21.4V524.2h-12V512.8h12V497.7Z"/><path class="cls-11" d="M543.7,594.9v-9.2l11-11.4c26.6-26.8,38.6-41,38.7-57.7,0-11.2-5.1-21.5-20.6-21.5-9.4,0-17.3,5.1-22.1,9.3L546.2,494a44.1,44.1,0,0,1,29.4-11.2c22.4,0,31.8,16.3,31.8,32.1,0,20.4-13.9,36.8-35.8,59.2l-8.3,8.1v0.3h46.7v12.4H543.7Z"/><polyline class="cls-12" points="669.4 205.3 409.7 370.9 325.3 249.3 22 448.9"/><circle class="cls-13" cx="178.6" cy="338.6" r="38.7"/><circle class="cls-14" cx="39.7" cy="436.3" r="38.7"/><circle class="cls-15" cx="325.3" cy="249.3" r="38.7"/><circle class="cls-16" cx="409.7" cy="370.9" r="38.7"/><circle class="cls-17" cx="545.4" cy="284.1" r="38.7"/><path class="cls-9" d="M673.6,182.3c-6.1-4.5-13.4-7.9-19.6-12.4a38.7,38.7,0,1,0,54.2,35.4c0-.3,0-0.6,0-0.9C695.9,198.3,684.6,190.4,673.6,182.3Z"/><path class="cls-11" d="M705.6,196.2L427.8,35.8,367.5,1,307.2,35.8,29.4,196.2,0.1,213.1V637.4l29.3,16.9L310.6,816.7l56.9,32.8,56.9-32.8L705.6,654.3l29.3-16.9V213.1Zm0,425.3L367.5,816.7,29.4,621.5V231L367.5,35.8h0L705.6,231V621.5Z"/><polygon class="cls-3" points="1172.4 -16.6 1531.1 190.5 1531.1 612.6 1172.4 821 805.6 612.6 805.6 190.5 1172.4 -16.6"/><g class="cls-18"><circle class="cls-19" cx="1168.4" cy="413.4" r="442.1"/></g><path class="cls-11" d="M376.9,790.6l4.5,4.5,2.7,2.9h0.1c-0.4-1.2-.7-2.5-1-3.9l-1.4-6.3,1.6-.9,4.7,4.3L391,794H391a36.6,36.6,0,0,1-1.2-3.9l-1.6-6.1,1.9-1.1,2.7,12.4-1.7,1-4.5-4.1a40.7,40.7,0,0,1-2.9-2.9h0a35.6,35.6,0,0,1,1.1,4l1.2,5.9-1.7,1-9.2-8.6Z"/><path class="cls-11" d="M393.1,781.2l4.5,4.5,2.7,2.9h0.1c-0.4-1.2-.7-2.5-1-3.9l-1.4-6.3,1.6-.9,4.7,4.3,2.9,2.9h0.1a36.3,36.3,0,0,1-1.2-3.9l-1.6-6.1,1.9-1.1,2.7,12.4-1.7,1-4.5-4.1a40.5,40.5,0,0,1-2.9-2.9h0a35.3,35.3,0,0,1,1.1,4l1.2,5.9-1.7,1-9.2-8.6Z"/><path class="cls-11" d="M409.2,771.8l4.5,4.5,2.7,2.9h0.1c-0.4-1.2-.7-2.5-1-3.9l-1.4-6.3,1.6-.9,4.7,4.3,2.9,2.9h0.1a36.4,36.4,0,0,1-1.2-3.9l-1.6-6.1,1.9-1.1,2.7,12.4-1.7,1-4.5-4.1a40.7,40.7,0,0,1-2.9-2.9h0a35.2,35.2,0,0,1,1.1,4l1.2,5.9-1.7,1-9.2-8.6Z"/><path class="cls-11" d="M430.6,773.7a1.6,1.6,0,1,1,.5-2.1,1.5,1.5,0,0,1-.5,2.1h0Z"/><path class="cls-11" d="M429.9,764.1l-2-3.2,1.7-1,1.3,2h0.1a3.6,3.6,0,0,1,1.6-4l0.6-.2,1,1.8-0.7.3a3.1,3.1,0,0,0-1.1,3.9l0.4,0.9,3.2,5.6-1.9,1.1Z"/><path class="cls-11" d="M439.8,765.4a5.8,5.8,0,0,0,2.9-.7c1.4-.8,1.6-1.9,1.1-2.7s-1.4-1.1-3.1-.8-3.8-.1-4.5-1.4-0.4-3.9,1.8-5.2a6,6,0,0,1,2.9-.8l0.3,1.7a4.7,4.7,0,0,0-2.5.6,1.8,1.8,0,0,0-.9,2.4c0.5,0.9,1.4.9,3,.6s3.7,0,4.6,1.6,0.4,4-2.1,5.4a6.9,6.9,0,0,1-3.4,1Z"/><path class="cls-11" d="M444.5,747.9l1.5,2.5,2.7-1.6,0.8,1.4-2.7,1.6,3.3,5.6c0.8,1.3,1.6,1.8,2.6,1.2l1-.8,0.9,1.4a5.3,5.3,0,0,1-1.5,1.3,3.1,3.1,0,0,1-2.5.4,4.5,4.5,0,0,1-2.3-2.3l-3.3-5.7-1.6.9-0.8-1.4,1.6-.9-1.1-1.9Z"/><path class="cls-11" d="M464,750.1l1.7,2.8-1.7,1-1.1-1.6h0a4.6,4.6,0,0,1-2.3,4c-1.6,1-4.1,1.2-6.3-2.5l-3.6-6.1,1.9-1.1,3.4,5.8c1.2,2,2.5,3,4.3,2a3.2,3.2,0,0,0,1.5-3.2,3.2,3.2,0,0,0-.4-1.1l-3.7-6.4,1.9-1.1Z"/><path class="cls-11" d="M468.9,730.5l7.4,12.6,1.7,2.7-1.7,1L475,745h0a4.5,4.5,0,0,1-2.4,4.1c-2.5,1.5-5.7.5-7.6-2.7s-1.1-6.9,1.4-8.3a4,4,0,0,1,4.1-.2h0l-3.6-6.2Zm3.4,10.2-0.6-.7a3.2,3.2,0,0,0-4-.6c-2,1.1-2.1,3.6-.8,5.9s3.3,3.3,5.3,2.1a3.3,3.3,0,0,0,1.5-3.9,3.8,3.8,0,0,0-.4-0.9Z"/><path class="cls-11" d="M475.3,729.4a1.4,1.4,0,0,1-2.4,1.4,1.3,1.3,0,0,1,.5-1.9A1.3,1.3,0,0,1,475.3,729.4ZM481,744l-6.1-10.5,1.9-1.1,6.1,10.5Z"/><path class="cls-11" d="M492.4,730.2c2.3,3.9.6,7.1-2,8.6s-6.2.8-8.1-2.5-0.9-6.9,2-8.6S490.5,727,492.4,730.2Zm-8.2,4.9c1.3,2.3,3.7,3.2,5.5,2.2s2.2-3.6.8-5.9-3.2-3.5-5.5-2.2S483,733.2,484.1,735.2Z"/><path class="cls-11" d="M498.3,734.2a1.6,1.6,0,1,1,.5-2.1,1.5,1.5,0,0,1-.5,2.1h0Z"/><path class="cls-11" d="M509.1,727.1a8,8,0,0,1-2.6,2.4c-3.2,1.8-6.5.9-8.3-2.3a6.1,6.1,0,0,1,2.4-8.8,7.3,7.3,0,0,1,2.9-1l0.4,1.7a5.1,5.1,0,0,0-2.5.8c-2.4,1.4-2.7,3.9-1.4,6.1s3.8,3,5.9,1.8a6.2,6.2,0,0,0,2-1.9Z"/><path class="cls-11" d="M517.7,715.5c2.3,3.9.6,7.1-2,8.6s-6.2.8-8.1-2.5-0.9-6.9,2-8.6S515.9,712.3,517.7,715.5Zm-8.2,4.9c1.3,2.3,3.7,3.2,5.5,2.2s2.2-3.6.8-5.9-3.2-3.5-5.5-2.2S508.4,718.4,509.5,720.4Z"/><path class="cls-11" d="M518.8,711.8l-1.7-2.8,1.7-1,1.1,1.6h0.1a4.2,4.2,0,0,1,2.2-3.8,3.6,3.6,0,0,1,4.2.4h0a5,5,0,0,1,.4-2,4.1,4.1,0,0,1,1.9-2.1c1.4-.8,4-1.1,6.1,2.5l3.6,6.2-1.9,1.1-3.4-5.9c-1.2-2-2.6-2.8-4.1-1.9a2.8,2.8,0,0,0-1.2,3,3.6,3.6,0,0,0,.4,1l3.8,6.5-1.9,1.1-3.6-6.3c-1-1.7-2.4-2.4-3.9-1.6A3,3,0,0,0,521,711a3.1,3.1,0,0,0,.4,1l3.7,6.3-1.9,1.1Z"/></svg>