<?xml version="1.0" encoding="UTF-8" standalone="no"?>
<svg
   xmlns:dc="http://purl.org/dc/elements/1.1/"
   xmlns:cc="http://creativecommons.org/ns#"
   xmlns:rdf="http://www.w3.org/1999/02/22-rdf-syntax-ns#"
   xmlns:svg="http://www.w3.org/2000/svg"
   xmlns="http://www.w3.org/2000/svg"
   version="1.1"
   id="svg2"
   viewBox="0 0 155.88457 180"
   height="2in"
   width="1.7320508in">
  <defs
     id="defs4" />
  <metadata
     id="metadata7">
    <rdf:RDF>
      <cc:Work
         rdf:about="">
        <dc:format>image/svg+xml</dc:format>
        <dc:type
           rdf:resource="http://purl.org/dc/dcmitype/StillImage" />
        <dc:title />
        <cc:license
           rdf:resource="http://creativecommons.org/licenses/by-sa/3.0/" />
        <dc:description>Logo for the GL-Como LUG</dc:description>
      </cc:Work>
      <cc:License
         rdf:about="http://creativecommons.org/licenses/by-sa/3.0/">
        <cc:permits
           rdf:resource="http://creativecommons.org/ns#Reproduction" />
        <cc:permits
           rdf:resource="http://creativecommons.org/ns#Distribution" />
        <cc:requires
           rdf:resource="http://creativecommons.org/ns#Notice" />
        <cc:requires
           rdf:resource="http://creativecommons.org/ns#Attribution" />
        <cc:permits
           rdf:resource="http://creativecommons.org/ns#DerivativeWorks" />
        <cc:requires
           rdf:resource="http://creativecommons.org/ns#ShareAlike" />
      </cc:License>
    </rdf:RDF>
  </metadata>
  <g
     transform="translate(3.9159987e-6,0)"
     style="opacity:0.98999999"
     id="layer3">
    <path
       d="M 77.942286,0 155.88457,45.000002 155.88457,135 77.942281,180 -3.9159987e-6,135 -1.504458e-6,44.999998 Z"
       id="path4232"
       style="fill:#729fcf;fill-opacity:1;stroke:none;stroke-width:1;stroke-miterlimit:4;stroke-dasharray:none;stroke-dashoffset:0;stroke-opacity:1" />
    <path
       d="m 77.942286,18 62.353824,36.000002 0,71.999998 -62.353828,36 -62.353828,-36 2e-6,-72.000002 z"
       id="path4234"
       style="fill:#ffffff;fill-opacity:1;stroke:none;stroke-width:1;stroke-miterlimit:4;stroke-dasharray:none;stroke-dashoffset:0;stroke-opacity:1" />
    <g
       style="display:inline"
       transform="matrix(1.7156002,0,0,1.7156002,-48.462059,90.104777)"
       id="g3052">
      <path
         style="fill:#eeeeec;fill-opacity:1;fill-rule:evenodd;stroke:none"
         d="m 100.43566,-31.526417 c -4.41957,0 -11.689223,1.733163 -15.848814,3.119693 -1.848707,-1.848707 -12.800238,-0.351784 -17.870835,6.778593 -5.769588,8.113303 -10.476008,20.335777 -15.405894,23.416955 -4.929885,3.081179 -8.011063,11.708478 -8.011063,17.2546 0,5.546121 6.162356,12.940949 9.859771,12.324713 1.698784,-0.283129 3.655071,-1.751452 5.276518,-3.658899 0.468576,0.203185 0.963857,0.398316 1.502074,0.577721 5.546121,1.848707 10.476008,-1.232471 16.638365,-1.232471 6.162357,0 11.535162,-5.257261 11.535162,-5.257261 0,0 4.269436,-18.722892 -3.793701,-25.9974431 0.642869,-1.3740392 1.114776,-2.7088303 1.502074,-3.8707304 1.232471,-3.6974145 3.494007,-10.0583655 8.011063,-14.7896565 3.80611,-3.986632 12.32471,-6.162357 9.85977,-8.011064 -0.61623,-0.462177 -1.78131,-0.65475 -3.25449,-0.65475 z M 78.039342,2.693921 c -0.149844,1.341311 -0.390509,2.683478 -1.46356,4.024789 -1.161715,1.452147 -5.760399,3.043187 -10.476008,4.833599 2.722832,-3.42094 6.371977,-6.646491 9.859772,-7.914777 0.758451,-0.275797 1.438738,-0.59757 2.079796,-0.943611 z"
         id="path3269" />
      <path
         d="m 92.46952,-29.218426 c -6.742361,-0.53114 -20.108969,-0.636337 -23.630288,2.207806 -3.521316,2.844144 -6.094587,7.178068 -7.990677,14.220705 -1.896095,7.0426367 -4.881061,12.9070584 -8.673252,17.376425 3.792191,-4.4693666 7.380261,-9.8264353 9.276356,-16.869073 1.89609,-7.042636 4.303494,-11.293621 7.824811,-14.137765 3.521319,-2.844143 16.31879,-2.123184 23.19305,-2.798098 z"
         style="display:inline;fill:#000000;fill-opacity:1;fill-rule:evenodd;stroke:none"
         id="path5145" />
      <path
         id="path5147"
         d="m 78.989522,-7.6754058 c 1.078092,2.073251 2.95008,5.2426276 2.286641,9.3062088 -0.663446,4.063588 -10.863866,7.712516 -14.346935,10.863866 -3.483073,3.151349 -7.262459,7.196911 -8.838136,10.016541 -1.575672,2.819629 4.337436,-8.784341 7.629589,-11.431844 4.05083,-3.257631 13.603851,-7.18993 14.346933,-10.9593263 0.787333,-3.9938875 -1.243952,-7.8783785 -1.078092,-7.7954455 z"
         style="display:inline;fill:#729fcf;fill-opacity:1;fill-rule:evenodd;stroke:none" />
      <path
         id="path5149"
         d="m 82.63845,-6.2655941 c 2.736703,3.5660043 4.727027,6.3856338 5.390466,10.2833551 0.663446,3.897722 0.580513,17.747076 0.497586,19.156894 C 88.443569,24.584467 87.063152,7.639397 86.352293,4.24885 85.477202,0.0749867 82.47259,-6.0997343 82.63845,-6.2655941 Z"
         style="display:inline;fill:#729fcf;fill-opacity:1;fill-rule:evenodd;stroke:none" />
      <path
         id="path5151"
         d="m 100.77745,-30.579937 c -1.17721,-0.02496 -2.56808,0.06493 -4.10182,0.346632 -4.08998,0.751223 -12.035067,4.345177 -15.290351,6.682306 -0.08347,-0.08347 12.805661,-5.759413 15.444411,-6.181614 1.83892,-0.294228 8.3991,-0.313381 7.62591,0.616236 l 0.25035,0.192573 c 0.17789,-0.435216 0.14749,-0.889123 -0.19257,-1.059155 -0.41735,-0.20867 -1.77393,-0.555407 -3.73593,-0.596978 z"
         style="display:inline;fill:#000000;fill-opacity:1;fill-rule:evenodd;stroke:none" />
      <path
         id="path5153"
         d="m 51.897159,3.909865 c -1.049653,1.717615 -5.333058,8.275244 -6.107062,10.210255 -0.954229,2.385571 -2.19473,5.916213 -3.244382,12.500396 0.286266,-5.248264 1.240501,-8.683488 2.767268,-12.882093 0.84786,-2.33162 6.584176,-10.0194 6.584176,-9.828558 z"
         style="display:inline;fill-opacity:1;fill-rule:evenodd;stroke:none" />
      <path
         id="path5155"
         d="m 76.050749,-23.919409 c -1.705703,-0.543551 -3.485725,-0.09472 -4.172094,0.186528 -0.686357,0.28125 -1.428465,1.306784 -1.726107,1.949795 -0.297642,0.643011 -0.140625,-0.343182 1.759266,-1.282011 1.89988,-0.938829 4.151321,-1.01971 4.138935,-0.854312 z"
         style="display:inline;fill-opacity:1;fill-rule:evenodd;stroke:none" />
      <path
         id="path5157"
         d="m 72.561136,-23.743714 c 0.746372,0 1.64607,-0.04462 1.397277,0.452982 -0.248787,0.49758 -0.525279,1.258403 -0.982631,1.454415 -0.580512,0.248793 -1.990324,0.16586 -1.990324,-0.414652 0,-0.580513 1.409818,-1.492745 1.575678,-1.492745 z"
         style="display:inline;fill-opacity:1;fill-rule:evenodd;stroke:none" />
      <path
         id="path3169"
         d="m 104.4556,-29.116377 c -0.10418,0.125268 -0.33177,0.261992 -0.73178,0.423662 -1.03581,0.418639 -10.15227,3.769341 -12.65209,6.143099 -1.766891,1.677794 -8.200749,9.52086 -9.185759,15.5214364 1.502444,-4.7577274 6.482436,-10.5007854 10.071599,-14.1734204 2.60182,-2.662329 10.72611,-6.451156 11.72774,-6.701563 0.49152,-0.122884 0.84923,-0.601274 1.02064,-1.020641 z"
         style="display:inline;fill:#729fcf;fill-opacity:1;fill-rule:evenodd;stroke:none" />
    </g>
  </g>
</svg>
