<?xml version="1.0" encoding="utf-8"?>
<!-- Generator: Adobe Illustrator 15.1.0, SVG Export Plug-In . SVG Version: 6.00 Build 0)  -->
<!DOCTYPE svg PUBLIC "-//W3C//DTD SVG 1.1//EN" "http://www.w3.org/Graphics/SVG/1.1/DTD/svg11.dtd">
<svg version="1.1" id="Layer_1" xmlns="http://www.w3.org/2000/svg" xmlns:xlink="http://www.w3.org/1999/xlink" x="0px" y="0px"
	 width="124.72px" height="144.57px" viewBox="0 0 124.72 144.57" enable-background="new 0 0 124.72 144.57" xml:space="preserve">
<g>
	<polygon fill="#F37121" points="-0.202,36.145 62.359,0.002 124.921,36.145 124.921,108.429 62.359,144.569 -0.202,108.428 	"/>
</g>
<polygon fill="#ED6523" points="5.757,39.61 61.973,7.152 61.973,71.623 "/>
<polygon fill="#008FD0" points="117.518,39.832 61.303,7.375 7.202,40.958 61.303,71.846 "/>
<polygon fill="#286FB7" points="5.757,103.88 7.741,40.735 61.973,71.423 61.973,135.894 "/>
<polygon fill="#0082C6" points="118.057,103.88 116.068,40.735 61.841,71.423 61.841,135.894 "/>
<path fill="#F37121" stroke="#FFFFFF" stroke-width="1.2392" stroke-miterlimit="10" d="M61.244,81.332"/>
<path fill="#FFFFFF" d="M62.124,5.335L4.38,38.676v66.677l57.743,33.34l57.746-33.339V38.676L62.124,5.335z M112.79,39.932
	L61.843,68.764L11.238,40.059l50.885-29.381L112.79,39.932z M62.124,133.35L9.007,102.682V44.113L61.84,74.082l53.402-30.221v58.82
	L62.124,133.35z"/>
<g>
	<g>
		<path fill="#FFFFFF" d="M15.636,99.164c-0.551-0.453-1.092-1.039-1.623-1.76l1.112-1.271c0.791,0.896,1.575,1.556,2.354,1.977
			c0.507,0.274,0.89,0.322,1.149,0.139c0.26-0.18,0.389-0.55,0.389-1.104v-0.741c-0.259,0.785-0.944,0.878-2.057,0.277
			c-0.926-0.502-1.61-1.187-2.048-2.052c-0.439-0.867-0.659-1.827-0.659-2.877v-5.098c0-1.197,0.2-2.007,0.604-2.425
			c0.4-0.422,1.102-0.358,2.103,0.182c0.581,0.314,1.042,0.707,1.381,1.183c0.34,0.473,0.565,1.004,0.676,1.597V85.67l3.318,1.793
			v11.271c0,1.519-0.351,2.422-1.056,2.709c-0.704,0.287-1.829,0.015-3.374-0.821C16.942,100.101,16.185,99.613,15.636,99.164z
			 M19.017,93.976v-4.84c0-0.271-0.074-0.571-0.222-0.899c-0.148-0.327-0.333-0.551-0.556-0.671
			c-0.285-0.154-0.477-0.154-0.575-0.003c-0.1,0.15-0.149,0.404-0.149,0.763v4.839c0,0.406,0.049,0.765,0.149,1.07
			c0.098,0.307,0.296,0.54,0.593,0.702C18.764,95.209,19.017,94.889,19.017,93.976z"/>
		<path fill="#FFFFFF" d="M23.485,97.593v-5.45c0-1.285,0.362-2.113,1.085-2.481c0.722-0.369,1.714-0.214,2.974,0.467
			c1.26,0.683,2.252,1.599,2.975,2.748c0.724,1.148,1.084,2.366,1.084,3.651v5.451c0,2.805-1.353,3.476-4.059,2.014
			C24.837,102.53,23.485,100.398,23.485,97.593z M28.119,101.523c0.123-0.119,0.186-0.339,0.186-0.658v-6.638
			c0-0.791-0.254-1.321-0.76-1.597c-0.507-0.273-0.76-0.017-0.76,0.775v6.638c0,0.319,0.062,0.607,0.185,0.858
			c0.125,0.253,0.315,0.449,0.575,0.589C27.804,101.632,27.995,101.643,28.119,101.523z"/>
		<path fill="#FFFFFF" d="M32.697,102.57v-5.45c0-1.285,0.361-2.113,1.084-2.481c0.723-0.369,1.714-0.214,2.975,0.468
			c1.261,0.681,2.252,1.597,2.975,2.748c0.723,1.147,1.084,2.365,1.084,3.65v5.451c0,2.805-1.353,3.476-4.059,2.013
			C34.05,107.509,32.697,105.376,32.697,102.57z M37.332,106.501c0.124-0.119,0.185-0.338,0.185-0.657v-6.638
			c0-0.791-0.253-1.322-0.76-1.598c-0.506-0.273-0.76-0.017-0.76,0.775v6.637c0,0.32,0.062,0.607,0.186,0.859
			c0.124,0.253,0.315,0.448,0.575,0.589C37.016,106.609,37.208,106.62,37.332,106.501z"/>
		<path fill="#FFFFFF" d="M42.901,111.725c-0.403-0.594-0.668-1.237-0.798-1.932c-0.129-0.692-0.194-1.529-0.194-2.504l0.038-6.099
			c0-0.964,0.244-1.62,0.731-1.968c0.487-0.35,1.177-0.281,2.067,0.2c0.876,0.474,1.532,1.117,1.965,1.932v-3.169l3.243,1.752
			v16.015l-3.243-1.753v-1.446c-0.185,0.433-0.436,0.696-0.751,0.791c-0.314,0.096-0.739-0.002-1.271-0.288
			C43.899,112.828,43.302,112.317,42.901,111.725z M46.561,111.257c0.1-0.262,0.149-0.657,0.149-1.189v-0.575v-5.097
			c0-0.397-0.056-0.761-0.167-1.092c-0.111-0.332-0.31-0.575-0.594-0.729c-0.321-0.172-0.535-0.161-0.64,0.036
			c-0.104,0.197-0.158,0.511-0.158,0.943v5.709c0,1.137,0.26,1.846,0.779,2.124C46.252,111.562,46.462,111.519,46.561,111.257z"/>
		<path fill="#FFFFFF" d="M51.25,103.086l3.299,1.782v0.723c0.471-0.326,1.119-0.266,1.947,0.181
			c1.051,0.568,1.783,1.315,2.196,2.243c0.416,0.93,0.623,2.017,0.623,3.264v5.023c0,1.063-0.063,1.898-0.186,2.505
			c-0.125,0.608-0.395,1.004-0.815,1.19c-0.421,0.188-1.057,0.049-1.91-0.412c-0.816-0.439-1.434-1.003-1.854-1.686v3.243
			l-3.299-1.782V103.086z M55.903,116.387c0.086-0.225,0.13-0.598,0.13-1.117v-5.764c0-0.472-0.044-0.852-0.13-1.144
			c-0.086-0.294-0.284-0.525-0.593-0.693c-0.506-0.274-0.76,0.062-0.76,1.001v5.946c0,0.458,0.053,0.842,0.158,1.153
			c0.105,0.31,0.312,0.55,0.622,0.717C55.626,116.646,55.817,116.613,55.903,116.387z"/>
	</g>
	<polygon fill="#FFFFFF" points="60.52,108.093 60.52,121.661 61.893,122.403 61.953,108.867 	"/>
</g>
<g>
	<path fill="#FFFFFF" d="M64.586,107.537c-0.4,0.521-0.682,1.096-0.842,1.719v-1.501l-1.81,1.045l-0.061,13.604l1.871-1.079v-10.381
		c0-0.173,0.275-0.483,0.824-0.93c0.549-0.447,1.053-0.803,1.51-1.067v-2.707C65.484,106.582,64.988,107.016,64.586,107.537z"/>
	<path fill="#FFFFFF" d="M67.182,118.44c-0.389-0.475-0.584-1.361-0.584-2.657c0-1.063,0.139-1.96,0.416-2.688
		c0.277-0.729,0.664-1.369,1.16-1.919c0.494-0.554,1.248-1.281,2.26-2.187l0.891-0.812v-0.037v-1.353
		c0-0.358-0.072-0.59-0.213-0.701c-0.145-0.108-0.312-0.108-0.51,0.006c-0.174,0.099-0.324,0.269-0.455,0.504
		c-0.127,0.233-0.193,0.489-0.193,0.761v0.814l-3.152,1.819v-0.443c0-1.334,0.311-2.467,0.938-3.396
		c0.623-0.927,1.641-1.799,3.049-2.611c1.123-0.649,2.039-0.884,2.742-0.703c0.705,0.179,1.057,0.806,1.057,1.883v10.343
		l-3.225,1.86v-1.611c-0.16,0.648-0.416,1.229-0.77,1.74c-0.352,0.513-0.77,0.908-1.252,1.186
		C68.291,118.845,67.572,118.913,67.182,118.44z M71.148,114.37c0.104-0.264,0.156-0.546,0.156-0.841v-3.783
		c-0.479,0.464-0.836,0.904-1.064,1.319c-0.23,0.419-0.344,0.879-0.344,1.384v1.744c0,0.805,0.242,1.066,0.723,0.788
		C70.867,114.84,71.043,114.634,71.148,114.37z"/>
	<path fill="#FFFFFF" d="M76.699,112.859c-0.656-0.372-0.982-1.34-0.982-2.898v-4.188c0-1.174,0.127-2.2,0.379-3.082
		c0.256-0.883,0.682-1.683,1.281-2.398c0.598-0.717,1.428-1.382,2.492-1.994c1.162-0.673,2.105-0.913,2.836-0.729
		c0.729,0.184,1.094,0.819,1.094,1.907v2.075l-3.301,1.905v-1.907c0-0.358-0.047-0.607-0.146-0.741s-0.291-0.119-0.576,0.045
		c-0.531,0.306-0.795,0.837-0.795,1.59v6.581c0,0.309,0.064,0.534,0.195,0.676c0.127,0.141,0.322,0.138,0.582-0.014
		c0.26-0.15,0.453-0.365,0.584-0.653c0.129-0.284,0.188-0.589,0.176-0.916l-0.02-2.267l3.301-1.907v2.374
		c0,1.111-0.361,2.195-1.086,3.248c-0.721,1.053-1.656,1.911-2.807,2.574C78.422,112.995,77.355,113.237,76.699,112.859z"/>
	<path fill="#FFFFFF" d="M85.967,108.103c-0.32-0.173-0.48-0.656-0.48-1.446v-8.471l-0.91,0.526v-2.466l0.91-0.524v-2.874
		l3.15-1.818v2.874l0.926-0.534v2.463l-0.926,0.535v7.62c0,0.233,0.018,0.395,0.057,0.486c0.035,0.089,0.135,0.087,0.295-0.006
		c0.123-0.071,0.24-0.145,0.354-0.222c0.109-0.078,0.184-0.125,0.221-0.146v2.223c-0.184,0.157-0.453,0.367-0.807,0.624
		c-0.352,0.26-0.693,0.484-1.027,0.676C86.875,108.116,86.287,108.277,85.967,108.103z"/>
	<path fill="#FFFFFF" d="M90.564,91.362v-2.262l3.244-1.873v2.263L90.564,91.362z M90.564,105.837V92.27l3.244-1.873v13.569
		L90.564,105.837z"/>
	<path fill="#FFFFFF" d="M95.957,101.742c-0.654-0.376-0.982-1.341-0.982-2.9v-4.188c0-1.175,0.127-2.202,0.381-3.084
		c0.256-0.883,0.68-1.68,1.277-2.396c0.602-0.718,1.43-1.381,2.496-1.997c1.16-0.668,2.107-0.914,2.834-0.728
		c0.729,0.185,1.094,0.82,1.094,1.908v2.074l-3.299,1.905v-1.909c0-0.358-0.051-0.605-0.148-0.739
		c-0.1-0.134-0.291-0.119-0.574,0.046c-0.533,0.306-0.797,0.836-0.797,1.59v6.581c0,0.309,0.066,0.532,0.195,0.675
		c0.129,0.141,0.322,0.137,0.584-0.015c0.26-0.148,0.453-0.364,0.582-0.65s0.188-0.591,0.178-0.918l-0.02-2.269l3.299-1.904v2.373
		c0,1.11-0.361,2.195-1.082,3.246c-0.725,1.056-1.66,1.914-2.811,2.577C97.682,101.877,96.613,102.119,95.957,101.742z"/>
	<path fill="#FFFFFF" d="M104.984,96.512c-0.605-0.417-0.908-1.385-0.908-2.905v-5.449c0-1.248,0.359-2.408,1.074-3.476
		c0.717-1.069,1.719-1.974,3.004-2.714c2.607-1.507,3.912-0.98,3.912,1.578v0.981c0,0.988-0.014,1.8-0.037,2.431l-4.709,2.719v2.632
		c0,0.47,0.049,0.811,0.148,1.018c0.098,0.21,0.309,0.22,0.629,0.034c0.248-0.143,0.426-0.318,0.529-0.528
		c0.104-0.206,0.166-0.414,0.186-0.616s0.027-0.488,0.027-0.859v-1.314l3.227-1.862v0.779c0,1.581-0.307,2.92-0.92,4.022
		c-0.609,1.1-1.666,2.083-3.158,2.944C106.59,96.733,105.59,96.929,104.984,96.512z M108.84,87.188v-1.743
		c0-0.979-0.24-1.325-0.723-1.047c-0.545,0.313-0.814,0.959-0.814,1.937v1.741L108.84,87.188z"/>
</g>
<circle fill="#F37121" cx="90.136" cy="73.009" r="7.101"/>
<circle fill="#F37121" cx="70.143" cy="26.351" r="3.716"/>
<g>
	<circle fill="#F37121" cx="80.861" cy="32.634" r="3.716"/>
	<path fill="#FFFFFF" d="M90.135,63.609c-5.183,0-9.399,4.217-9.399,9.4c0,1.257,0.252,2.455,0.702,3.552L62.017,87.558
		c-0.058,0.017-0.189,0.015-0.173,0.033L38.022,72.886c-0.061-0.056-0.152-0.219-0.164-0.24l-0.005-14.317
		c0.015-0.069,0.091-0.201,0.083-0.207l10.358-5.98l7.338,4.079c1.67,0.929,3.795,1.391,5.926,1.39c2.233,0,4.474-0.507,6.204-1.517
		l21.005-12.257c2.075-1.211,3.263-3.005,3.259-4.924c-0.004-1.815-1.078-3.475-2.947-4.554l-3.002-1.733
		c-0.004-2.873-2.342-5.208-5.215-5.208c-2.876,0-5.216,2.34-5.216,5.216c0,2.876,2.34,5.216,5.216,5.216
		c1.194,0,2.282-0.419,3.162-1.097l2.754,1.59c0.5,0.289,0.639,0.535,0.647,0.581c-0.004,0.076-0.189,0.482-0.977,0.941
		L65.443,52.121c-2.007,1.171-5.546,1.207-7.576,0.079L36.811,40.497c-0.726-0.404-0.888-0.76-0.889-0.827
		c-0.001-0.066,0.149-0.428,0.861-0.854l21.249-12.714c2.087-1.249,5.081-1.422,6.263-0.74l0.699,0.325
		c-0.028,0.22-0.067,0.438-0.067,0.666c0,2.876,2.34,5.216,5.216,5.216s5.216-2.34,5.216-5.216c0-2.876-2.34-5.216-5.216-5.216
		c-0.976,0-1.879,0.286-2.661,0.754l-0.887-0.512c-2.793-1.612-7.49-1.279-10.925,0.777L34.421,34.868
		c-2,1.197-3.129,2.974-3.099,4.875c0.031,1.901,1.216,3.642,3.253,4.774l9.031,5.02l-7.97,4.602
		c-1.378,0.795-2.378,2.527-2.378,4.118v14.39c0,1.566,0.967,3.298,2.297,4.119l23.872,14.741c0.711,0.438,1.595,0.659,2.477,0.659
		c0.816,0,1.63-0.188,2.303-0.569l19.985-11.311c1.621,1.326,3.689,2.124,5.941,2.124c5.184,0,9.401-4.217,9.401-9.4
		C99.536,67.826,95.318,63.609,90.135,63.609z M80.861,34.85c-1.222,0-2.216-0.994-2.216-2.216c0-1.222,0.994-2.216,2.216-2.216
		s2.216,0.994,2.216,2.216C83.077,33.855,82.083,34.85,80.861,34.85z M72.358,26.351c0,1.222-0.994,2.216-2.216,2.216
		s-2.216-0.994-2.216-2.216c0-1.222,0.994-2.216,2.216-2.216S72.358,25.129,72.358,26.351z M90.135,77.81
		c-2.646,0-4.8-2.153-4.8-4.801c0-2.647,2.153-4.8,4.8-4.8c2.647,0,4.802,2.153,4.802,4.8C94.937,75.656,92.782,77.81,90.135,77.81z
		"/>
</g>
</svg>
