<svg id="Layer_3" data-name="Layer 3" xmlns="http://www.w3.org/2000/svg" xmlns:xlink="http://www.w3.org/1999/xlink" width="43.9mm" height="50.8mm" viewBox="0 0 124.441 144">
  <defs>
    <linearGradient id="linear-gradient" x1="-21.122" y1="66.275" x2="98.897" y2="-3.086" gradientTransform="translate(0 53.89)" gradientUnits="userSpaceOnUse">
      <stop offset="0" stop-color="#d46627"/>
      <stop offset="1" stop-color="#ef9622"/>
    </linearGradient>
    <clipPath id="clip-path" transform="translate(0)">
      <path id="SVGID" d="M23.541,74.42V93.2h7.6V83.482h4.411c1.424,2.194,1.767,5.377,1.767,7.414,0,7.738-5.443,10.323-9.855,10.323-6.719,0-10.056-4.065-10.056-10.323A13.643,13.643,0,0,1,20.4,82.108l-5.591-6.314c-4.562,5.054-5.542,9.774-5.542,15.1,0,14.435,9.219,21.027,18.194,21.027S45.51,106.159,45.51,90.947c0-7.412-2.354-14.11-6.718-16.527H23.541Z" style="fill: none"/>
    </clipPath>
    <linearGradient id="linear-gradient-2" x1="-238.818" y1="473.108" x2="-238.533" y2="473.108" gradientTransform="matrix(52.459, 0, 0, -52.459, 12528.315, 24911.815)" gradientUnits="userSpaceOnUse">
      <stop offset="0" stop-color="#fff"/>
      <stop offset="1" stop-color="#221f1f"/>
    </linearGradient>
    <clipPath id="clip-path-2" transform="translate(0)">
      <path id="SVGID-2" data-name="SVGID" d="M18,49.47a4.048,4.048,0,0,1,4.267-4.23,3.785,3.785,0,0,1,3.972,4.122v8.012H18v-7.9Zm25.99-16.8L32.416,42.661c-2.551-6.479-6.13-8.124-10.346-8.124-6.178,0-11.819,5.106-11.819,14.933V68.248H44.579V57.375H33.446V53.588l11.133-8.95V32.667h-0.59Z" style="fill: none"/>
    </clipPath>
    <linearGradient id="linear-gradient-3" x1="-238.818" y1="471.061" x2="-238.533" y2="471.061" gradientTransform="matrix(52.455, 0, 0, -52.455, 12527.392, 24759.86)" xlink:href="#linear-gradient-2"/>
  </defs>
  <title>gr8conf</title>
  <g id="Layer_1" data-name="Layer 1">
    <path d="M0,107.975V36.025L62.22,0l62.22,36.025v71.95L62.22,144Z" transform="translate(0)" style="fill: url(#linear-gradient)"/>
  </g>
  <g>
    <g>
      <path d="M58.962,50.96a13.506,13.506,0,0,0,3.452,9.564,11.662,11.662,0,0,0,8.952,3.707,11.443,11.443,0,0,0,8.77-3.692A12.786,12.786,0,0,0,83.553,51.5a13.266,13.266,0,0,0-3.529-9.365,12.149,12.149,0,0,0-17.569-.07,12.506,12.506,0,0,0-3.493,8.891m16.5-20.95H105.94a3.952,3.952,0,0,1,2.8,1.149,3.892,3.892,0,0,1,1.158,2.774v76.373a3.894,3.894,0,0,1-1.158,2.774,3.952,3.952,0,0,1-2.8,1.149H93.19l-21.844.019q-11.163.01-18.012-7.216t-6.85-18.027q-0.005-8.048,3.72-13.479a18.594,18.594,0,0,1,10.62-7.407,17.54,17.54,0,0,1-8.543-6.578A18.355,18.355,0,0,1,49.5,51.307,20.958,20.958,0,0,1,55.4,36.167q5.913-6.139,15.738-6.147M55.835,89a19.728,19.728,0,0,0,1.883,8.382A13.96,13.96,0,0,0,63.3,103.65a15.208,15.208,0,0,0,7.974,2.217,14.283,14.283,0,0,0,10.955-4.678,16.79,16.79,0,0,0,4.314-11.875,17.06,17.06,0,0,0-4.455-12.093,14.572,14.572,0,0,0-11.142-4.773,14.006,14.006,0,0,0-10.826,4.734A16.9,16.9,0,0,0,55.835,89h0Z" transform="translate(0)" style="fill: #fff"/>
      <path d="M105.953,90.677a13.967,13.967,0,0,1,3.453,9.719c0,9.647-5.766,13.476-12.172,13.511-6.068.037-12.442-4.226-12.442-13.511a13.543,13.543,0,0,1,3.623-9.284l3.253,3.539a8.649,8.649,0,0,0-1.945,5.745c0,5.743,4.123,7.983,7.544,7.948s7.311-2.023,7.311-7.948a10.012,10.012,0,0,0-2.246-6.215Z" transform="translate(0)" style="fill: #d35627"/>
      <path d="M100.554,89.556c-5,0-8.684-3.829-8.684-9.756,0-5.961,3.688-9.789,8.684-9.789s8.618,3.721,8.618,9.789c0,6.035-3.622,9.756-8.618,9.756m0-14.27a4.5,4.5,0,0,0,0,8.994,4.5,4.5,0,0,0,0-8.994" transform="translate(0)" style="fill: #d35627"/>
      <path d="M108.8,53.789h-8.752c-2.548,0-3.855,1.192-3.855,3.685a3.972,3.972,0,0,0,4.055,4.046H108.8v5.131H92.238v-4.7l2.113-.181a6.941,6.941,0,0,1-2.513-5.78c0-4.01,1.744-7.443,8.181-7.443H108.8v5.239Z" transform="translate(0)" style="fill: #d35627"/>
      <path d="M108.8,42.625H96.6v3.142H92.539V42.625H91.567c-4.794,0-6.673-3.758-6.673-7.227a9.108,9.108,0,0,1,1.408-4.95l3.385,1.769a5.361,5.361,0,0,0-.668,2.564,2.358,2.358,0,0,0,2.547,2.639h0.971v-4.95H96.6v4.95h12.2v5.2Z" transform="translate(0)" style="fill: #d35627"/>
    </g>
    <g style="clip-path: url(#clip-path)">
      <rect x="9.271" y="74.42" width="36.24" height="37.502" style="fill: url(#linear-gradient-2)"/>
    </g>
    <g style="clip-path: url(#clip-path-2)">
      <rect x="10.252" y="32.667" width="34.328" height="35.581" style="fill: url(#linear-gradient-3)"/>
    </g>
  </g>
</svg>
