<svg id="Layer_1" data-name="Layer 1" xmlns="http://www.w3.org/2000/svg" width="124.44" height="144" viewBox="0 0 124.44 144">
  <title>groovy</title>
  <path d="M0,108V36L62.22,0l62.22,36v72L62.22,144Z" transform="translate(0 0)" style="fill: #7fc7ee"/>
  <g id="g4873">
    <path id="path414" d="M98.008,101.125L62.222,87.117l-35.786,14L40.567,78.794,4.317,65.121l44.52,0.212L62.219,42.875,75.606,65.332l44.519-.2L83.875,78.8l14.133,22.328" transform="translate(0 0)" style="fill: #010101"/>
    <path id="path416" d="M93.184,97.172L62.27,85.072l-30.914,12.1,12.206-19.29L12.247,66.07l38.459,0.181,11.56-19.4,11.563,19.4,38.459-.178L80.976,77.885,93.184,97.172" transform="translate(0 0)" style="fill: #629cbc"/>
    <path id="path418" d="M38.594,54.315c3.09,0,1.29,7.794.191,10.144-0.942,2.015-3.059,4.916-5.568,4.916-3.008,0-2.919-3.408-1.721-5.971a11.973,11.973,0,0,1,3.018-4.087c-0.351,1.195.84,2.011,0.358,3.039-0.331.7-1.01,1.467-1.362,2.226-0.571,1.222-.352,3.389,1.027,3.389,1.232,0,2.332-1.546,2.783-2.509,0.922-1.973,3.226-10.385.649-10.385-2.966,0-8.077,7.3-9.15,9.589-1.908,4.09-.525,9.126,3.827,9.126,2.943,0,5.364-2.858,6.531-5.357a13.8,13.8,0,0,0,1.225-4.37l0.571-.106c0.126,3.847,4.154,10.214,2.441,13.884-2.2,4.7-8.761,4.654-12.506,6.323a13.37,13.37,0,0,0-3.36-4.913c3.342-1.137,11.56-3.042,13.346-6.866a5.637,5.637,0,0,0-.628-5.169,9.794,9.794,0,0,1-.625,1.724c-1.529,3.274-4.8,5.81-8.18,5.81-4.7,0-6.691-3.41-4.479-8.146,1.328-2.837,8.1-12.294,11.611-12.294" transform="translate(0 0)" style="fill: #010101"/>
    <path id="path420" d="M38.594,54.315c3.09,0,1.29,7.794.191,10.144-0.942,2.015-3.059,4.916-5.568,4.916-3.008,0-2.919-3.408-1.721-5.971a11.973,11.973,0,0,1,3.018-4.087c-0.351,1.195.84,2.011,0.358,3.039-0.331.7-1.01,1.467-1.362,2.226-0.571,1.222-.352,3.389,1.027,3.389,1.232,0,2.332-1.546,2.783-2.509,0.922-1.973,3.226-10.385.649-10.385-2.966,0-8.077,7.3-9.15,9.589-1.908,4.09-.525,9.126,3.827,9.126,2.943,0,5.364-2.858,6.531-5.357a13.8,13.8,0,0,0,1.225-4.37l0.571-.106c0.126,3.847,4.154,10.214,2.441,13.884-2.2,4.7-8.761,4.654-12.506,6.323a13.37,13.37,0,0,0-3.36-4.913c3.342-1.137,11.56-3.042,13.346-6.866a5.637,5.637,0,0,0-.628-5.169,9.794,9.794,0,0,1-.625,1.724c-1.529,3.274-4.8,5.81-8.18,5.81-4.7,0-6.691-3.41-4.479-8.146,1.328-2.837,8.1-12.294,11.611-12.294h0v0Z" transform="translate(0 0)" style="fill: none;stroke: #010101;stroke-linejoin: round;stroke-width: 4.1583943367004395px"/>
    <path id="path422" d="M46.623,65.6c0.188,0.464.727,3.086,1.137,3.086,0.888,0,2.489-2.431,2.916-3.062,0.788,0.519.351,1.615,1.809,1.615,0.662,0,.994-1.438,1.68-1.461a3.331,3.331,0,0,1-.253,1.775C53.43,68.588,52.205,69.991,51,69.991c-0.86,0-2.058-1.048-2.3-1.048a1.021,1.021,0,0,0-.874.444C47.2,70.72,48.88,75.2,50.56,75.2a8.717,8.717,0,0,0,2.906-1.075,11.2,11.2,0,0,0,.044,4.356,5.068,5.068,0,0,1-2.66.779c-4.127,0-1.85-9.689-5.656-11.755l1.43-1.9" transform="translate(0 0)" style="fill: #010101"/>
    <path id="path424" d="M46.623,65.6c0.188,0.464.727,3.086,1.137,3.086,0.888,0,2.489-2.431,2.916-3.062,0.788,0.519.351,1.615,1.809,1.615,0.662,0,.994-1.438,1.68-1.461a3.331,3.331,0,0,1-.253,1.775C53.43,68.588,52.205,69.991,51,69.991c-0.86,0-2.058-1.048-2.3-1.048a1.021,1.021,0,0,0-.874.444C47.2,70.72,48.88,75.2,50.56,75.2a8.717,8.717,0,0,0,2.906-1.075,11.2,11.2,0,0,0,.044,4.356,5.068,5.068,0,0,1-2.66.779c-4.127,0-1.85-9.689-5.656-11.755l1.43-1.9h0V65.6Z" transform="translate(0 0)" style="fill: none;stroke: #010101;stroke-linejoin: round;stroke-width: 4.1583943367004395px"/>
    <path id="path426" d="M62.485,64.82c3.117,0,4.346,5.663,2.95,8.658-1.086,2.321-3.011,4-5.476,4-4.356,0-3.81-6-2.11-9.627,0.468-1,2.069-3.186,3.322-3.186C61.628,64.67,62.011,64.82,62.485,64.82Zm-0.1.529a1.224,1.224,0,0,0-1.151.731c-0.478,1.024,1.9,2.059,1.564,2.79a2.031,2.031,0,0,1-1.447.891c-2.065,0-2.049-2.714-.82-4.485a4.552,4.552,0,0,0-1.591,1.946c-1.212,2.591-.253,6.152,2.513,6.152a5.046,5.046,0,0,0,3.967-2.847c0.84-1.8-1.307-5.176-3.034-5.176" transform="translate(0 0)" style="fill: #010101"/>
    <path id="path428" d="M62.485,64.82c3.117,0,4.346,5.663,2.95,8.658-1.086,2.321-3.011,4-5.476,4-4.356,0-3.81-6-2.11-9.627,0.468-1,2.069-3.186,3.322-3.186C61.628,64.67,62.011,64.82,62.485,64.82Z" transform="translate(0 0)" style="fill: none;stroke: #010101;stroke-linejoin: round;stroke-width: 4.1583943367004395px"/>
    <path id="path430" d="M62.387,65.349a1.224,1.224,0,0,0-1.151.731c-0.478,1.024,1.9,2.059,1.564,2.79a2.031,2.031,0,0,1-1.447.891c-2.065,0-2.049-2.714-.82-4.485a4.552,4.552,0,0,0-1.591,1.946c-1.212,2.591-.253,6.152,2.513,6.152a5.046,5.046,0,0,0,3.967-2.847c0.84-1.8-1.307-5.176-3.034-5.176h0v0Z" transform="translate(0 0)" style="fill: none;stroke: #010101;stroke-linejoin: round;stroke-width: 4.1583943367004395px"/>
    <path id="path432" d="M76.657,74.144a4.415,4.415,0,0,1-4.046,2.7c-5.425,0-6.5-5-4.151-10.031,0.557-1.188,1.467-2.5,2.861-2.5C75.677,64.318,78.715,69.74,76.657,74.144Zm-4.329-9.2a0.954,0.954,0,0,0-.946.559c-0.424.9,1.874,1.707,1.877,2.639a2.194,2.194,0,0,1-1.205.611,2.359,2.359,0,0,1-1.488-3.95,3.252,3.252,0,0,0-1.154,1.438A4.163,4.163,0,0,0,72.993,72.4a3.949,3.949,0,0,0,3.476-2.072c0.912-1.946-2.332-5.384-4.141-5.384" transform="translate(0 0)" style="fill: #010101"/>
    <path id="path434" d="M76.657,74.144a4.415,4.415,0,0,1-4.046,2.7c-5.425,0-6.5-5-4.151-10.031,0.557-1.188,1.467-2.5,2.861-2.5C75.677,64.318,78.715,69.74,76.657,74.144Z" transform="translate(0 0)" style="fill: none;stroke: #010101;stroke-linejoin: round;stroke-width: 4.1583943367004395px"/>
    <path id="path436" d="M72.328,64.947a0.954,0.954,0,0,0-.946.559c-0.424.9,1.874,1.707,1.877,2.639a2.194,2.194,0,0,1-1.205.611,2.359,2.359,0,0,1-1.488-3.95,3.252,3.252,0,0,0-1.154,1.438A4.163,4.163,0,0,0,72.993,72.4a3.949,3.949,0,0,0,3.476-2.072c0.912-1.946-2.332-5.384-4.141-5.384h0v0Z" transform="translate(0 0)" style="fill: none;stroke: #010101;stroke-linejoin: round;stroke-width: 4.1583943367004395px"/>
    <path id="path438" d="M82.266,64.919c4.677,0,7.053,8.665,4.963,13.134a2.6,2.6,0,0,1-2.126,1.71c-5.344,0-3.978-10.724-6.985-13.772,0.273-.294.539-0.6,0.778-0.915,2.031,2.41,1.024,8.747,5.364,8.747a2.656,2.656,0,0,0,2.161-1.748c1.075-2.3-.919-6.309-3.1-6.309-0.024,0-.335.014-0.328,0.14,0.079,1.472,1.225.557,0.072,3.059a2.826,2.826,0,0,1-1.786-3.527,1.063,1.063,0,0,1,.987-0.519" transform="translate(0 0)" style="fill: #010101"/>
    <path id="path440" d="M82.266,64.919c4.677,0,7.053,8.665,4.963,13.134a2.6,2.6,0,0,1-2.126,1.71c-5.344,0-3.978-10.724-6.985-13.772,0.273-.294.539-0.6,0.778-0.915,2.031,2.41,1.024,8.747,5.364,8.747a2.656,2.656,0,0,0,2.161-1.748c1.075-2.3-.919-6.309-3.1-6.309-0.024,0-.335.014-0.328,0.14,0.079,1.472,1.225.557,0.072,3.059a2.826,2.826,0,0,1-1.786-3.527,1.063,1.063,0,0,1,.987-0.519h0Z" transform="translate(0 0)" style="fill: none;stroke: #010101;stroke-linejoin: round;stroke-width: 4.1583943367004395px"/>
    <path id="path442" d="M93.894,64.824a9.252,9.252,0,0,1,1.482.116c0.068,0.02.017,0.113,0.027,0.181,0.116,0.655.3,1.277,0.451,1.911,0.611,2.466.976,5,1.676,7.439,0.761,2.66,1.553,5.657.631,9a6,6,0,0,1-.365.994c-1.044,2.232-10.033,4.807-12.383,4.807A0.918,0.918,0,0,1,84.686,89a5.086,5.086,0,0,0,2.052-2.237,6.1,6.1,0,0,0,.454-3.174c0.188,0.109,7.1-.062,7.344-0.062a2.943,2.943,0,0,0,2.294-1.863,8.517,8.517,0,0,0,.491-4.6c-0.065-.683-0.156-1.356-0.28-2.008l-0.191-.949L96.827,74,96.8,73.9c0.113,0,.01.2,0.014,0.3a12.889,12.889,0,0,1-.836,5.831,2.561,2.561,0,0,1-2.1,1.775c-4.49,0-2.23-12.86-5.828-15.915a10.345,10.345,0,0,0,.525-1.011c2.131,2.6,2.24,9.754,5.374,9.754a2.392,2.392,0,0,0,1.87-1.41c1.393-2.977-.921-6.449-1.929-8.4" transform="translate(0 0)" style="fill: #010101"/>
    <path id="path444" d="M93.894,64.824a9.252,9.252,0,0,1,1.482.116c0.068,0.02.017,0.113,0.027,0.181,0.116,0.655.3,1.277,0.451,1.911,0.611,2.466.976,5,1.676,7.439,0.761,2.66,1.553,5.657.631,9a6,6,0,0,1-.365.994c-1.044,2.232-10.033,4.807-12.383,4.807A0.918,0.918,0,0,1,84.686,89a5.086,5.086,0,0,0,2.052-2.237,6.1,6.1,0,0,0,.454-3.174c0.188,0.109,7.1-.062,7.344-0.062a2.943,2.943,0,0,0,2.294-1.863,8.517,8.517,0,0,0,.491-4.6c-0.065-.683-0.156-1.356-0.28-2.008l-0.191-.949L96.827,74,96.8,73.9c0.113,0,.01.2,0.014,0.3a12.889,12.889,0,0,1-.836,5.831,2.561,2.561,0,0,1-2.1,1.775c-4.49,0-2.23-12.86-5.828-15.915a10.345,10.345,0,0,0,.525-1.011c2.131,2.6,2.24,9.754,5.374,9.754a2.392,2.392,0,0,0,1.87-1.41C97.216,70.249,94.9,66.776,93.894,64.824Z" transform="translate(0 0)" style="fill: none;stroke: #010101;stroke-linejoin: round;stroke-width: 4.1583943367004395px"/>
    <path id="path446" d="M38.594,54.315c3.09,0,1.29,7.794.191,10.144-0.942,2.015-3.059,4.916-5.568,4.916-3.008,0-2.919-3.408-1.721-5.971a11.973,11.973,0,0,1,3.018-4.087c-0.351,1.195.84,2.011,0.358,3.039-0.331.7-1.01,1.467-1.362,2.226-0.571,1.222-.352,3.389,1.027,3.389,1.232,0,2.332-1.546,2.783-2.509,0.922-1.973,3.226-10.385.649-10.385-2.966,0-8.077,7.3-9.15,9.589-1.908,4.09-.525,9.126,3.827,9.126,2.943,0,5.364-2.858,6.531-5.357a13.8,13.8,0,0,0,1.225-4.37l0.571-.106c0.126,3.847,4.154,10.214,2.441,13.884-2.2,4.7-8.761,4.654-12.506,6.323a13.37,13.37,0,0,0-3.36-4.913c3.342-1.137,11.56-3.042,13.346-6.866a5.637,5.637,0,0,0-.628-5.169,9.794,9.794,0,0,1-.625,1.724c-1.529,3.274-4.8,5.81-8.18,5.81-4.7,0-6.691-3.41-4.479-8.146,1.328-2.837,8.1-12.294,11.611-12.294" transform="translate(0 0)" style="fill: #010101"/>
    <path id="path448" d="M38.594,54.315c3.09,0,1.29,7.794.191,10.144-0.942,2.015-3.059,4.916-5.568,4.916-3.008,0-2.919-3.408-1.721-5.971a11.973,11.973,0,0,1,3.018-4.087c-0.351,1.195.84,2.011,0.358,3.039-0.331.7-1.01,1.467-1.362,2.226-0.571,1.222-.352,3.389,1.027,3.389,1.232,0,2.332-1.546,2.783-2.509,0.922-1.973,3.226-10.385.649-10.385-2.966,0-8.077,7.3-9.15,9.589-1.908,4.09-.525,9.126,3.827,9.126,2.943,0,5.364-2.858,6.531-5.357a13.8,13.8,0,0,0,1.225-4.37l0.571-.106c0.126,3.847,4.154,10.214,2.441,13.884-2.2,4.7-8.761,4.654-12.506,6.323a13.37,13.37,0,0,0-3.36-4.913c3.342-1.137,11.56-3.042,13.346-6.866a5.637,5.637,0,0,0-.628-5.169,9.794,9.794,0,0,1-.625,1.724c-1.529,3.274-4.8,5.81-8.18,5.81-4.7,0-6.691-3.41-4.479-8.146,1.328-2.837,8.1-12.294,11.611-12.294h0v0Z" transform="translate(0 0)" style="fill: none;stroke: #010101;stroke-miterlimit: 3.8637099266052246;stroke-width: 0.34652119874954224px"/>
    <path id="path450" d="M46.623,65.6c0.188,0.464.727,3.086,1.137,3.086,0.888,0,2.489-2.431,2.916-3.062,0.788,0.519.351,1.615,1.809,1.615,0.662,0,.994-1.438,1.68-1.461a3.331,3.331,0,0,1-.253,1.775C53.43,68.588,52.205,69.991,51,69.991c-0.86,0-2.058-1.048-2.3-1.048a1.021,1.021,0,0,0-.874.444C47.2,70.72,48.88,75.2,50.56,75.2a8.717,8.717,0,0,0,2.906-1.075,11.2,11.2,0,0,0,.044,4.356,5.068,5.068,0,0,1-2.66.779c-4.127,0-1.85-9.689-5.656-11.755l1.43-1.9" transform="translate(0 0)" style="fill: #010101"/>
    <path id="path452" d="M46.623,65.6c0.188,0.464.727,3.086,1.137,3.086,0.888,0,2.489-2.431,2.916-3.062,0.788,0.519.351,1.615,1.809,1.615,0.662,0,.994-1.438,1.68-1.461a3.331,3.331,0,0,1-.253,1.775C53.43,68.588,52.205,69.991,51,69.991c-0.86,0-2.058-1.048-2.3-1.048a1.021,1.021,0,0,0-.874.444C47.2,70.72,48.88,75.2,50.56,75.2a8.717,8.717,0,0,0,2.906-1.075,11.2,11.2,0,0,0,.044,4.356,5.068,5.068,0,0,1-2.66.779c-4.127,0-1.85-9.689-5.656-11.755l1.43-1.9h0V65.6Z" transform="translate(0 0)" style="fill: none;stroke: #010101;stroke-miterlimit: 3.8637099266052246;stroke-width: 0.34652119874954224px"/>
    <path id="path454" d="M62.485,64.82c3.117,0,4.346,5.663,2.95,8.658-1.086,2.321-3.011,4-5.476,4-4.356,0-3.81-6-2.11-9.627,0.468-1,2.069-3.186,3.322-3.186C61.628,64.67,62.011,64.82,62.485,64.82Zm-0.1.529a1.224,1.224,0,0,0-1.151.731c-0.478,1.024,1.9,2.059,1.564,2.79a2.031,2.031,0,0,1-1.447.891c-2.065,0-2.049-2.714-.82-4.485a4.552,4.552,0,0,0-1.591,1.946c-1.212,2.591-.253,6.152,2.513,6.152a5.046,5.046,0,0,0,3.967-2.847c0.84-1.8-1.307-5.176-3.034-5.176" transform="translate(0 0)" style="fill: #010101"/>
    <path id="path456" d="M62.485,64.82c3.117,0,4.346,5.663,2.95,8.658-1.086,2.321-3.011,4-5.476,4-4.356,0-3.81-6-2.11-9.627,0.468-1,2.069-3.186,3.322-3.186C61.628,64.67,62.011,64.82,62.485,64.82Z" transform="translate(0 0)" style="fill: none;stroke: #010101;stroke-miterlimit: 3.8637099266052246;stroke-width: 0.34652119874954224px"/>
    <path id="path458" d="M62.387,65.349a1.224,1.224,0,0,0-1.151.731c-0.478,1.024,1.9,2.059,1.564,2.79a2.031,2.031,0,0,1-1.447.891c-2.065,0-2.049-2.714-.82-4.485a4.552,4.552,0,0,0-1.591,1.946c-1.212,2.591-.253,6.152,2.513,6.152a5.046,5.046,0,0,0,3.967-2.847c0.84-1.8-1.307-5.176-3.034-5.176h0v0Z" transform="translate(0 0)" style="fill: none;stroke: #010101;stroke-miterlimit: 3.8637099266052246;stroke-width: 0.34652119874954224px"/>
    <path id="path460" d="M76.657,74.144a4.415,4.415,0,0,1-4.046,2.7c-5.425,0-6.5-5-4.151-10.031,0.557-1.188,1.467-2.5,2.861-2.5C75.677,64.318,78.715,69.74,76.657,74.144Zm-4.329-9.2a0.954,0.954,0,0,0-.946.559c-0.424.9,1.874,1.707,1.877,2.639a2.194,2.194,0,0,1-1.205.611,2.359,2.359,0,0,1-1.488-3.95,3.252,3.252,0,0,0-1.154,1.438A4.163,4.163,0,0,0,72.993,72.4a3.949,3.949,0,0,0,3.476-2.072c0.912-1.946-2.332-5.384-4.141-5.384" transform="translate(0 0)" style="fill: #010101"/>
    <path id="path462" d="M76.657,74.144a4.415,4.415,0,0,1-4.046,2.7c-5.425,0-6.5-5-4.151-10.031,0.557-1.188,1.467-2.5,2.861-2.5C75.677,64.318,78.715,69.74,76.657,74.144Z" transform="translate(0 0)" style="fill: none;stroke: #010101;stroke-miterlimit: 3.8637099266052246;stroke-width: 0.34652119874954224px"/>
    <path id="path464" d="M72.328,64.947a0.954,0.954,0,0,0-.946.559c-0.424.9,1.874,1.707,1.877,2.639a2.194,2.194,0,0,1-1.205.611,2.359,2.359,0,0,1-1.488-3.95,3.252,3.252,0,0,0-1.154,1.438A4.163,4.163,0,0,0,72.993,72.4a3.949,3.949,0,0,0,3.476-2.072c0.912-1.946-2.332-5.384-4.141-5.384h0v0Z" transform="translate(0 0)" style="fill: none;stroke: #010101;stroke-miterlimit: 3.8637099266052246;stroke-width: 0.34652119874954224px"/>
    <path id="path466" d="M82.266,64.919c4.677,0,7.053,8.665,4.963,13.134a2.6,2.6,0,0,1-2.126,1.71c-5.344,0-3.978-10.724-6.985-13.772,0.273-.294.539-0.6,0.778-0.915,2.031,2.41,1.024,8.747,5.364,8.747a2.656,2.656,0,0,0,2.161-1.748c1.075-2.3-.919-6.309-3.1-6.309-0.024,0-.335.014-0.328,0.14,0.079,1.472,1.225.557,0.072,3.059a2.826,2.826,0,0,1-1.786-3.527,1.063,1.063,0,0,1,.987-0.519" transform="translate(0 0)" style="fill: #010101"/>
    <path id="path468" d="M82.266,64.919c4.677,0,7.053,8.665,4.963,13.134a2.6,2.6,0,0,1-2.126,1.71c-5.344,0-3.978-10.724-6.985-13.772,0.273-.294.539-0.6,0.778-0.915,2.031,2.41,1.024,8.747,5.364,8.747a2.656,2.656,0,0,0,2.161-1.748c1.075-2.3-.919-6.309-3.1-6.309-0.024,0-.335.014-0.328,0.14,0.079,1.472,1.225.557,0.072,3.059a2.826,2.826,0,0,1-1.786-3.527,1.063,1.063,0,0,1,.987-0.519h0Z" transform="translate(0 0)" style="fill: none;stroke: #010101;stroke-miterlimit: 3.8637099266052246;stroke-width: 0.34652119874954224px"/>
    <path id="path470" d="M93.894,64.824a9.252,9.252,0,0,1,1.482.116c0.068,0.02.017,0.113,0.027,0.181,0.116,0.655.3,1.277,0.451,1.911,0.611,2.466.976,5,1.676,7.439,0.761,2.66,1.553,5.657.631,9a6,6,0,0,1-.365.994c-1.044,2.232-3.728,4.359-6.077,4.359a0.921,0.921,0,0,1-.727-0.27,5.079,5.079,0,0,0,2.052-2.236A6.114,6.114,0,0,0,93.5,83.14a3.328,3.328,0,0,0,1.038.385,2.943,2.943,0,0,0,2.294-1.863,8.517,8.517,0,0,0,.491-4.6c-0.065-.683-0.156-1.356-0.28-2.008l-0.191-.949L96.827,74,96.8,73.9c0.113,0,.01.2,0.014,0.3a12.889,12.889,0,0,1-.836,5.831,2.561,2.561,0,0,1-2.1,1.775c-4.49,0-2.23-12.86-5.828-15.915a10.345,10.345,0,0,0,.525-1.011c2.131,2.6,2.24,9.754,5.374,9.754a2.392,2.392,0,0,0,1.87-1.41c1.393-2.977-.921-6.449-1.929-8.4" transform="translate(0 0)" style="fill: #010101"/>
    <path id="path472" d="M93.894,64.824a9.252,9.252,0,0,1,1.482.116c0.068,0.02.017,0.113,0.027,0.181,0.116,0.655.3,1.277,0.451,1.911,0.611,2.466.976,5,1.676,7.439,0.761,2.66,1.553,5.657.631,9a6,6,0,0,1-.365.994c-1.044,2.232-3.728,4.359-6.077,4.359a0.921,0.921,0,0,1-.727-0.27,5.079,5.079,0,0,0,2.052-2.236A6.114,6.114,0,0,0,93.5,83.14a3.328,3.328,0,0,0,1.038.385,2.943,2.943,0,0,0,2.294-1.863,8.517,8.517,0,0,0,.491-4.6c-0.065-.683-0.156-1.356-0.28-2.008l-0.191-.949L96.827,74,96.8,73.9c0.113,0,.01.2,0.014,0.3a12.889,12.889,0,0,1-.836,5.831,2.561,2.561,0,0,1-2.1,1.775c-4.49,0-2.23-12.86-5.828-15.915a10.345,10.345,0,0,0,.525-1.011c2.131,2.6,2.24,9.754,5.374,9.754a2.392,2.392,0,0,0,1.87-1.41c1.393-2.977-.921-6.449-1.929-8.4h0Z" transform="translate(0 0)" style="fill: none;stroke: #010101;stroke-miterlimit: 3.8637099266052246;stroke-width: 0.34652119874954224px"/>
    <path id="path474" d="M38.594,54.315c3.09,0,1.29,7.794.191,10.144-0.942,2.015-3.059,4.916-5.568,4.916-3.008,0-2.919-3.408-1.721-5.971a11.973,11.973,0,0,1,3.018-4.087c-0.351,1.195.84,2.011,0.358,3.039-0.331.7-1.01,1.467-1.362,2.226-0.571,1.222-.352,3.389,1.027,3.389,1.232,0,2.332-1.546,2.783-2.509,0.922-1.973,3.226-10.385.649-10.385-2.966,0-8.077,7.3-9.15,9.589-1.908,4.09-.525,9.126,3.827,9.126,2.943,0,5.364-2.858,6.531-5.357a13.8,13.8,0,0,0,1.225-4.37l0.571-.106c0.126,3.847,4.154,10.214,2.441,13.884-2.2,4.7-8.761,4.654-12.506,6.323a13.37,13.37,0,0,0-3.36-4.913c3.342-1.137,11.56-3.042,13.346-6.866a5.637,5.637,0,0,0-.628-5.169,9.794,9.794,0,0,1-.625,1.724c-1.529,3.274-4.8,5.81-8.18,5.81-4.7,0-6.691-3.41-4.479-8.146,1.328-2.837,8.1-12.294,11.611-12.294" transform="translate(0 0)" style="fill: #010101"/>
    <path id="path476" d="M38.594,54.315c3.09,0,1.29,7.794.191,10.144-0.942,2.015-3.059,4.916-5.568,4.916-3.008,0-2.919-3.408-1.721-5.971a11.973,11.973,0,0,1,3.018-4.087c-0.351,1.195.84,2.011,0.358,3.039-0.331.7-1.01,1.467-1.362,2.226-0.571,1.222-.352,3.389,1.027,3.389,1.232,0,2.332-1.546,2.783-2.509,0.922-1.973,3.226-10.385.649-10.385-2.966,0-8.077,7.3-9.15,9.589-1.908,4.09-.525,9.126,3.827,9.126,2.943,0,5.364-2.858,6.531-5.357a13.8,13.8,0,0,0,1.225-4.37l0.571-.106c0.126,3.847,4.154,10.214,2.441,13.884-2.2,4.7-8.761,4.654-12.506,6.323a13.37,13.37,0,0,0-3.36-4.913c3.342-1.137,11.56-3.042,13.346-6.866a5.637,5.637,0,0,0-.628-5.169,9.794,9.794,0,0,1-.625,1.724c-1.529,3.274-4.8,5.81-8.18,5.81-4.7,0-6.691-3.41-4.479-8.146,1.328-2.837,8.1-12.294,11.611-12.294h0v0Z" transform="translate(0 0)" style="fill: none;stroke: #010101;stroke-linejoin: round;stroke-width: 4.1583943367004395px"/>
    <path id="path478" d="M46.623,65.6c0.188,0.464.727,3.086,1.137,3.086,0.888,0,2.489-2.431,2.916-3.062,0.788,0.519.351,1.615,1.809,1.615,0.662,0,.994-1.438,1.68-1.461a3.331,3.331,0,0,1-.253,1.775C53.43,68.588,52.205,69.991,51,69.991c-0.86,0-2.058-1.048-2.3-1.048a1.021,1.021,0,0,0-.874.444C47.2,70.72,48.88,75.2,50.56,75.2a8.717,8.717,0,0,0,2.906-1.075,11.2,11.2,0,0,0,.044,4.356,5.068,5.068,0,0,1-2.66.779c-4.127,0-1.85-9.689-5.656-11.755l1.43-1.9" transform="translate(0 0)" style="fill: #010101"/>
    <path id="path480" d="M46.623,65.6c0.188,0.464.727,3.086,1.137,3.086,0.888,0,2.489-2.431,2.916-3.062,0.788,0.519.351,1.615,1.809,1.615,0.662,0,.994-1.438,1.68-1.461a3.331,3.331,0,0,1-.253,1.775C53.43,68.588,52.205,69.991,51,69.991c-0.86,0-2.058-1.048-2.3-1.048a1.021,1.021,0,0,0-.874.444C47.2,70.72,48.88,75.2,50.56,75.2a8.717,8.717,0,0,0,2.906-1.075,11.2,11.2,0,0,0,.044,4.356,5.068,5.068,0,0,1-2.66.779c-4.127,0-1.85-9.689-5.656-11.755l1.43-1.9h0V65.6Z" transform="translate(0 0)" style="fill: none;stroke: #010101;stroke-linejoin: round;stroke-width: 4.1583943367004395px"/>
    <path id="path482" d="M62.485,64.82c3.117,0,4.346,5.663,2.95,8.658-1.086,2.321-3.011,4-5.476,4-4.356,0-3.81-6-2.11-9.627,0.468-1,2.069-3.186,3.322-3.186C61.628,64.67,62.011,64.82,62.485,64.82Zm-0.1.529a1.224,1.224,0,0,0-1.151.731c-0.478,1.024,1.9,2.059,1.564,2.79a2.031,2.031,0,0,1-1.447.891c-2.065,0-2.049-2.714-.82-4.485a4.552,4.552,0,0,0-1.591,1.946c-1.212,2.591-.253,6.152,2.513,6.152a5.046,5.046,0,0,0,3.967-2.847c0.84-1.8-1.307-5.176-3.034-5.176" transform="translate(0 0)" style="fill: #010101"/>
    <path id="path484" d="M62.485,64.82c3.117,0,4.346,5.663,2.95,8.658-1.086,2.321-3.011,4-5.476,4-4.356,0-3.81-6-2.11-9.627,0.468-1,2.069-3.186,3.322-3.186C61.628,64.67,62.011,64.82,62.485,64.82Z" transform="translate(0 0)" style="fill: none;stroke: #010101;stroke-linejoin: round;stroke-width: 4.1583943367004395px"/>
    <path id="path486" d="M62.387,65.349a1.224,1.224,0,0,0-1.151.731c-0.478,1.024,1.9,2.059,1.564,2.79a2.031,2.031,0,0,1-1.447.891c-2.065,0-2.049-2.714-.82-4.485a4.552,4.552,0,0,0-1.591,1.946c-1.212,2.591-.253,6.152,2.513,6.152a5.046,5.046,0,0,0,3.967-2.847c0.84-1.8-1.307-5.176-3.034-5.176h0v0Z" transform="translate(0 0)" style="fill: none;stroke: #010101;stroke-linejoin: round;stroke-width: 4.1583943367004395px"/>
    <path id="path488" d="M76.657,74.144a4.415,4.415,0,0,1-4.046,2.7c-5.425,0-6.5-5-4.151-10.031,0.557-1.188,1.467-2.5,2.861-2.5C75.677,64.318,78.715,69.74,76.657,74.144Zm-4.329-9.2a0.954,0.954,0,0,0-.946.559c-0.424.9,1.874,1.707,1.877,2.639a2.194,2.194,0,0,1-1.205.611,2.359,2.359,0,0,1-1.488-3.95,3.252,3.252,0,0,0-1.154,1.438A4.163,4.163,0,0,0,72.993,72.4a3.949,3.949,0,0,0,3.476-2.072c0.912-1.946-2.332-5.384-4.141-5.384" transform="translate(0 0)" style="fill: #010101"/>
    <path id="path490" d="M76.657,74.144a4.415,4.415,0,0,1-4.046,2.7c-5.425,0-6.5-5-4.151-10.031,0.557-1.188,1.467-2.5,2.861-2.5C75.677,64.318,78.715,69.74,76.657,74.144Z" transform="translate(0 0)" style="fill: none;stroke: #010101;stroke-linejoin: round;stroke-width: 4.1583943367004395px"/>
    <path id="path492" d="M72.328,64.947a0.954,0.954,0,0,0-.946.559c-0.424.9,1.874,1.707,1.877,2.639a2.194,2.194,0,0,1-1.205.611,2.359,2.359,0,0,1-1.488-3.95,3.252,3.252,0,0,0-1.154,1.438A4.163,4.163,0,0,0,72.993,72.4a3.949,3.949,0,0,0,3.476-2.072c0.912-1.946-2.332-5.384-4.141-5.384h0v0Z" transform="translate(0 0)" style="fill: none;stroke: #010101;stroke-linejoin: round;stroke-width: 4.1583943367004395px"/>
    <path id="path494" d="M82.266,64.919c4.677,0,7.053,8.665,4.963,13.134a2.6,2.6,0,0,1-2.126,1.71c-5.344,0-3.978-10.724-6.985-13.772,0.273-.294.539-0.6,0.778-0.915,2.031,2.41,1.024,8.747,5.364,8.747a2.656,2.656,0,0,0,2.161-1.748c1.075-2.3-.919-6.309-3.1-6.309-0.024,0-.335.014-0.328,0.14,0.079,1.472,1.225.557,0.072,3.059a2.826,2.826,0,0,1-1.786-3.527,1.063,1.063,0,0,1,.987-0.519" transform="translate(0 0)" style="fill: #010101"/>
    <path id="path496" d="M82.266,64.919c4.677,0,7.053,8.665,4.963,13.134a2.6,2.6,0,0,1-2.126,1.71c-5.344,0-3.978-10.724-6.985-13.772,0.273-.294.539-0.6,0.778-0.915,2.031,2.41,1.024,8.747,5.364,8.747a2.656,2.656,0,0,0,2.161-1.748c1.075-2.3-.919-6.309-3.1-6.309-0.024,0-.335.014-0.328,0.14,0.079,1.472,1.225.557,0.072,3.059a2.826,2.826,0,0,1-1.786-3.527,1.063,1.063,0,0,1,.987-0.519h0Z" transform="translate(0 0)" style="fill: none;stroke: #010101;stroke-linejoin: round;stroke-width: 4.1583943367004395px"/>
    <path id="path498" d="M93.894,64.824a9.252,9.252,0,0,1,1.482.116c0.068,0.02.017,0.113,0.027,0.181,0.116,0.655.3,1.277,0.451,1.911,0.611,2.466.976,5,1.676,7.439,0.761,2.66,1.553,5.657.631,9a6,6,0,0,1-.365.994c-1.044,2.232-3.728,4.359-6.077,4.359a0.921,0.921,0,0,1-.727-0.27,5.079,5.079,0,0,0,2.052-2.236A6.114,6.114,0,0,0,93.5,83.14a3.328,3.328,0,0,0,1.038.385,2.943,2.943,0,0,0,2.294-1.863,8.517,8.517,0,0,0,.491-4.6c-0.065-.683-0.156-1.356-0.28-2.008l-0.191-.949L96.827,74,96.8,73.9c0.113,0,.01.2,0.014,0.3a12.889,12.889,0,0,1-.836,5.831,2.561,2.561,0,0,1-2.1,1.775c-4.49,0-2.23-12.86-5.828-15.915a10.345,10.345,0,0,0,.525-1.011c2.131,2.6,2.24,9.754,5.374,9.754a2.392,2.392,0,0,0,1.87-1.41c1.393-2.977-.921-6.449-1.929-8.4" transform="translate(0 0)" style="fill: #010101"/>
    <path id="path500" d="M93.894,64.824a9.252,9.252,0,0,1,1.482.116c0.068,0.02.017,0.113,0.027,0.181,0.116,0.655.3,1.277,0.451,1.911,0.611,2.466.976,5,1.676,7.439,0.761,2.66,1.553,5.657.631,9a6,6,0,0,1-.365.994c-1.044,2.232-3.728,4.359-6.077,4.359a0.921,0.921,0,0,1-.727-0.27,5.079,5.079,0,0,0,2.052-2.236A6.114,6.114,0,0,0,93.5,83.14a3.328,3.328,0,0,0,1.038.385,2.943,2.943,0,0,0,2.294-1.863,8.517,8.517,0,0,0,.491-4.6c-0.065-.683-0.156-1.356-0.28-2.008l-0.191-.949L96.827,74,96.8,73.9c0.113,0,.01.2,0.014,0.3a12.889,12.889,0,0,1-.836,5.831,2.561,2.561,0,0,1-2.1,1.775c-4.49,0-2.23-12.86-5.828-15.915a10.345,10.345,0,0,0,.525-1.011c2.131,2.6,2.24,9.754,5.374,9.754a2.392,2.392,0,0,0,1.87-1.41c1.393-2.977-.921-6.449-1.929-8.4h0Z" transform="translate(0 0)" style="fill: none;stroke: #010101;stroke-linejoin: round;stroke-width: 4.1583943367004395px"/>
    <path id="path502" d="M38.594,54.315c3.09,0,1.29,7.794.191,10.144-0.942,2.015-3.059,4.916-5.568,4.916-3.008,0-2.919-3.408-1.721-5.971a11.973,11.973,0,0,1,3.018-4.087c-0.351,1.195.84,2.011,0.358,3.039-0.331.7-1.01,1.467-1.362,2.226-0.571,1.222-.352,3.389,1.027,3.389,1.232,0,2.332-1.546,2.783-2.509,0.922-1.973,3.226-10.385.649-10.385-2.966,0-8.077,7.3-9.15,9.589-1.908,4.09-.525,9.126,3.827,9.126,2.943,0,5.364-2.858,6.531-5.357a13.8,13.8,0,0,0,1.225-4.37l0.571-.106c0.126,3.847,4.154,10.214,2.441,13.884-2.2,4.7-8.761,4.654-12.506,6.323a13.37,13.37,0,0,0-3.36-4.913c3.342-1.137,11.56-3.042,13.346-6.866a5.637,5.637,0,0,0-.628-5.169,9.794,9.794,0,0,1-.625,1.724c-1.529,3.274-4.8,5.81-8.18,5.81-4.7,0-6.691-3.41-4.479-8.146,1.328-2.837,8.1-12.294,11.611-12.294" transform="translate(0 0)" style="fill: #fff"/>
    <path id="path504" d="M46.623,65.6c0.188,0.464.727,3.086,1.137,3.086,0.888,0,2.489-2.431,2.916-3.062,0.788,0.519.351,1.615,1.809,1.615,0.662,0,.994-1.438,1.68-1.461a3.331,3.331,0,0,1-.253,1.775C53.43,68.588,52.205,69.991,51,69.991c-0.86,0-2.058-1.048-2.3-1.048a1.021,1.021,0,0,0-.874.444C47.2,70.72,48.88,75.2,50.56,75.2a8.717,8.717,0,0,0,2.906-1.075,11.2,11.2,0,0,0,.044,4.356,5.068,5.068,0,0,1-2.66.779c-4.127,0-1.85-9.689-5.656-11.755l1.43-1.9" transform="translate(0 0)" style="fill: #fff"/>
    <path id="path506" d="M62.485,64.82c3.117,0,4.346,5.663,2.95,8.658-1.086,2.321-3.011,4-5.476,4-4.356,0-3.81-6-2.11-9.627,0.468-1,2.069-3.186,3.322-3.186C61.628,64.67,62.011,64.82,62.485,64.82Zm-0.1.529a1.224,1.224,0,0,0-1.151.731c-0.478,1.024,1.9,2.059,1.564,2.79a2.031,2.031,0,0,1-1.447.891c-2.065,0-2.049-2.714-.82-4.485a4.552,4.552,0,0,0-1.591,1.946c-1.212,2.591-.253,6.152,2.513,6.152a5.046,5.046,0,0,0,3.967-2.847c0.84-1.8-1.307-5.176-3.034-5.176" transform="translate(0 0)" style="fill: #fff"/>
    <path id="path508" d="M76.657,74.144a4.415,4.415,0,0,1-4.046,2.7c-5.425,0-6.5-5-4.151-10.031,0.557-1.188,1.467-2.5,2.861-2.5C75.677,64.318,78.715,69.74,76.657,74.144Zm-4.329-9.2a0.954,0.954,0,0,0-.946.559c-0.424.9,1.874,1.707,1.877,2.639a2.194,2.194,0,0,1-1.205.611,2.359,2.359,0,0,1-1.488-3.95,3.252,3.252,0,0,0-1.154,1.438A4.163,4.163,0,0,0,72.993,72.4a3.949,3.949,0,0,0,3.476-2.072c0.912-1.946-2.332-5.384-4.141-5.384" transform="translate(0 0)" style="fill: #fff"/>
    <path id="path510" d="M82.266,64.919c4.677,0,7.053,8.665,4.963,13.134a2.6,2.6,0,0,1-2.126,1.71c-5.344,0-3.978-10.724-6.985-13.772,0.273-.294.539-0.6,0.778-0.915,2.031,2.41,1.024,8.747,5.364,8.747a2.656,2.656,0,0,0,2.161-1.748c1.075-2.3-.919-6.309-3.1-6.309-0.024,0-.335.014-0.328,0.14,0.079,1.472,1.225.557,0.072,3.059a2.826,2.826,0,0,1-1.786-3.527,1.063,1.063,0,0,1,.987-0.519" transform="translate(0 0)" style="fill: #fff"/>
    <path id="path512" d="M93.894,64.824a9.252,9.252,0,0,1,1.482.116c0.068,0.02.017,0.113,0.027,0.181,0.116,0.655.3,1.277,0.451,1.911,0.611,2.466.976,5,1.676,7.439,0.761,2.66,1.553,5.657.631,9a6,6,0,0,1-.365.994c-3.5,6.79-10.993,4.96-13.342,4.96a0.92,0.92,0,0,1-.727-0.269,5.109,5.109,0,0,0,2.051-2.237,6.074,6.074,0,0,0,.454-3.175,3.324,3.324,0,0,0,1.037.386c1.017,0,6.678,2.936,9.56-2.465a8.517,8.517,0,0,0,.491-4.6c-0.065-.683-0.156-1.356-0.28-2.008l-0.191-.949L96.827,74,96.8,73.9c0.113,0,.01.2,0.014,0.3a12.889,12.889,0,0,1-.836,5.831,2.561,2.561,0,0,1-2.1,1.775c-4.49,0-2.23-12.86-5.828-15.915a10.345,10.345,0,0,0,.525-1.011c2.131,2.6,2.24,9.754,5.374,9.754a2.392,2.392,0,0,0,1.87-1.41c1.393-2.977-.921-6.449-1.929-8.4" transform="translate(0 0)" style="fill: #fff"/>
  </g>
</svg>
