<svg id="Artwork" xmlns="http://www.w3.org/2000/svg" xmlns:xlink="http://www.w3.org/1999/xlink" viewBox="0 0 140.8 163.09"><defs><style>.cls-1{fill:none;}.cls-2{clip-path:url(#clip-path);}.cls-3{fill:#231f20;stroke:#231f20;stroke-width:25px;}.cls-4{fill:#fff;}</style><clipPath id="clip-path" transform="translate(-235.67 -218.39)"><path id="path7936" class="cls-1" d="M367.7,264.3v71.5L306,371.5l-61.7-35.8V264.2L306,228.5Z"/></clipPath></defs><title>hearing_things</title><g class="cls-2"><g id="layer1"><path id="path17178" class="cls-3" d="M364,266.44v67.1L306.07,367l-57.9-33.6v-67.1l57.9-33.5Z" transform="translate(-235.67 -218.39)"/></g></g><path class="cls-4" d="M258,273l.8,26.91-3.14-.14.09-8.94-3.32.23-.23,8.94-2.71-.8-.42-25.09,2.86.23.37,13.06,3.46-.09-.19-13.25Zm13.77,23.4-6.23.09v-5.76l3.14,0,0-3.37h-3.18l-.42-9.55,6.88-.19v-3.46l-9.74-.19-.84,25.7,10.16-.23Zm38,3.56.8-22.84,2.25.47-.23,22.75,3.51-.37-1.17-25.09-.28-.7-8.24.28.28,24.85Zm9.46-1.84a11.66,11.66,0,0,1,3.07-4l.21-16.78,3.14.19-.09,4.07.87,0a6,6,0,0,1,2.09-3.28l.41-.29,0-2.59-1.54-1.17-6.79.14-1.45,1.17L318.93,299Q319,298.57,319.21,298.13Zm8.09-10.06a.6.6,0,0,0-.06-.5l-2.93-.09,0,3.28,1.36,0v.34A4.81,4.81,0,0,0,327.3,288.07Zm-65.53,17.44,3.65.14.23,21.72,3.09.61.8-22.84,2.62.47,0-3.37-10.48.23Zm63.69,3.36a2.53,2.53,0,0,0-.33-.28l0,1h1C325.84,309.35,325.64,309.1,325.46,308.87Zm1.52,4.88h-5.2l.34-7.38a15.49,15.49,0,0,1-2.62-2.24,5.51,5.51,0,0,1-.43-.82l-.37.28,0,12.12,1.4,1.4,5.15-.14.28,7.77-3.51-.23-.19-3.79-3.14,0,0,6,1.4,1.17,7.07.33,1.31-1.64-.23-11.28Zm-26.74-39.66.14,25.46,3.09.37-.8-26.91Zm1.59,28.1-8.24.28.28,24.85L297,328l.8-22.84,2.25.47-.23,22.75,3.51-.37-1.17-25.09Zm-20.53-.09.19,13.25-3.46.09-.37-13.06-2.86-.23.42,25.09,2.72.8.23-8.94,3.32-.23-.09,8.94,3.14.14-.8-26.91Zm34.77,7.4.09-6.09-1.54-1.17-6.79.14-1.45,1.17-.23,24,1.59.47,6.79.23,1.54-1.69,0-10.91-4.59-.14,0,3.28,1.36,0-.19,5.52-3.18.14.23-19.14,3.14.19-.09,4.07ZM283,274.23l1.83.61-.42,25-3.46.19.28-9.27L278,290.7l-.14,9.13-4-1,.8-23.26,1.45-1.45Zm-1.83,3.37-2.86.14-.28,9.78,3,.33Zm11.58,13.15-1.78.33,0,8.89-4,.84L288.1,274l7.91.19,1.54,1-.14,14.28-1.36,1.26,1.36,9.17-3.09.42ZM291,287.52l3.56,0-.37-10.06-3.09,0Zm-3.49,14.57.14,25.46,3.09.37L289.9,301Zm76.35,23.57a5.48,5.48,0,0,1-2.65.59,3.34,3.34,0,0,0-1.75.54c-.14.09-.49.35-.77.57a6.1,6.1,0,0,1-1.27.92,6,6,0,0,1-4.5.23,16.76,16.76,0,0,1-2-.66,8.19,8.19,0,0,0-1.81-.54,2.45,2.45,0,0,0-1,0,1.84,1.84,0,0,0-1.26.93,5.3,5.3,0,0,0-.28.68c-.21.61-.29.76-.44.83a12.09,12.09,0,0,1-2,.25l-1.2.12a3.1,3.1,0,0,0-2.46,1.23,1.11,1.11,0,0,1-.29.31,4.49,4.49,0,0,1-1.36-.94,21.83,21.83,0,0,1-3.11-3.34q-3.42-4.61-4.87-12.51l-.46-2.57c-.18-1-.33-1.86-.34-1.89s0-.08.22-.15a4.77,4.77,0,0,0,3-3.22,6.08,6.08,0,0,0,.17-1.28,9.11,9.11,0,0,0-1.08-3.24,6.61,6.61,0,0,0-3.47-3l-.28-.1.19.16a9.45,9.45,0,0,1,2.8,4.06c.64,2,.36,3.61-.81,4.54a4.31,4.31,0,0,1-3.18.84,1.33,1.33,0,0,1-.93-.58,13.22,13.22,0,0,0-3-2.56c-.71-.5-1.23-.87-1.48-1.08a5.57,5.57,0,0,1-2.12-3.31,7.37,7.37,0,0,1,0-1.67c.32-1.91,1.93-3.7,4.12-5.92,1.13-1.15,3.85-3,4.06-4.35a1.41,1.41,0,0,1,.18-.36,1.31,1.31,0,0,1,.3.21,6.12,6.12,0,0,0,2.71,1.31,5.68,5.68,0,0,0,1.25.12,6.85,6.85,0,0,0,2-.17,8.44,8.44,0,0,0,2.6-1.07,7.72,7.72,0,0,0,3.07-5.42,11.83,11.83,0,0,0,0-2.3,5.83,5.83,0,0,0-2.1-3.88,8.2,8.2,0,0,0-1.29-.83,1,1,0,0,1-.37-.25,16.4,16.4,0,0,1,1.09-2.45c.27-.5.28-.51,1.37-1.17a19.72,19.72,0,0,1,3.78-1.76,13.73,13.73,0,0,1,9.26,0,12.26,12.26,0,0,1,8.28,10.53c0,.31,0,.65,0,.76V283l-.13-.19a4,4,0,0,0-1.91-1.54,2,2,0,0,0-1,0,2.47,2.47,0,0,0-.8.44c-.12.11-.13.12,0,.1l.54,0a2.4,2.4,0,0,1,1.38.29,4,4,0,0,1,1.83,2.74,2.22,2.22,0,0,1,.1,1,20.57,20.57,0,0,1-.58,3.65,107.4,107.4,0,0,0-2.32,16.06c-.07,1-.07,4.47,0,5.18a13,13,0,0,0,.53,2.89,5.52,5.52,0,0,0,.74,1.43,70.44,70.44,0,0,1,4.73,8.66,7.9,7.9,0,0,1,.55,1.64C364,325.5,364,325.5,363.81,325.66Zm-16.07-32.32a7,7,0,0,1-3,1.43,4.78,4.78,0,0,1-1.07,0,11.4,11.4,0,0,1-2.31-.31l-.66-.12a9,9,0,0,0,1.23.5,7.39,7.39,0,0,0,1.26.29,6.74,6.74,0,0,0,1.51,0,4.89,4.89,0,0,0,2.87-1.53C348,293.18,348.08,293.05,347.74,293.34Zm1.28-6.56a9.55,9.55,0,0,0-1.15-4.74c-.87-1.3-2.6-1.8-4.54-1.33a2.79,2.79,0,0,0-1.57,1.19c-.2.35-.22.47,0,.23a3.32,3.32,0,0,1,.91-.8,3.16,3.16,0,0,1,1-.27,2.22,2.22,0,0,1,.74.17c.06,0,0,.06-.28.17a5.5,5.5,0,0,0-2.59,1.85,9.71,9.71,0,0,0-1.14,5,5.64,5.64,0,0,0,.48,2.34,3.87,3.87,0,0,0,.79,1.14,5.15,5.15,0,0,0,2.46,1.54,2.24,2.24,0,0,0,.91,0l.22,0-.27.11a4.8,4.8,0,0,1-2.67.18,8.77,8.77,0,0,1-1.54-.44.79.79,0,0,0-.24-.08,2.16,2.16,0,0,0,.54.4,7.32,7.32,0,0,0,1.83.59,6.21,6.21,0,0,0,1.75,0,5.41,5.41,0,0,0,2.74-1.56C348.69,291.08,349.16,289.5,349,286.78Zm.38-5.54a4.13,4.13,0,0,0-2.08-2.61,5,5,0,0,0-3.27-.31,4.91,4.91,0,0,0-1.42.7,5.76,5.76,0,0,0-.86.85c-.07.1,0,.09.3-.08a6.73,6.73,0,0,1,2.57-.58,4.22,4.22,0,0,1,3,.63,5.6,5.6,0,0,1,1.89,2.44,3,3,0,0,0,.16.36S349.49,281.5,349.41,281.24ZM358,293c.22-.24.22-.31,0-.13a1.61,1.61,0,0,1-.92.4l-.28,0,.13-.15a6.93,6.93,0,0,0,1.32-2.6,25.53,25.53,0,0,0,.5-5.42l0-.52.12.14a1.84,1.84,0,0,1,.32,1.64c0,.06,0,0,.08-.13a1.72,1.72,0,0,0,.05-1.13,2.47,2.47,0,0,0-1.08-1.58.82.82,0,0,0-.53-.13.77.77,0,0,0-.49.11,2.51,2.51,0,0,0-1,1.48,21.45,21.45,0,0,0-.77,3.39,20.68,20.68,0,0,0-.08,3.28c.11,1.15.4,1.76.9,1.88a2.55,2.55,0,0,0,.41,0A1.67,1.67,0,0,0,358,293Zm3.53-3a4.89,4.89,0,0,0,.59-1.56,11.47,11.47,0,0,0,.12-2,2.69,2.69,0,0,1,0-.5,6.16,6.16,0,0,1,.12,2.38A6.24,6.24,0,0,1,362,290c-.08.2-.15.38-.15.39s.28-.27.35-.4a6.63,6.63,0,0,0,.79-2.89,5.43,5.43,0,0,0-.06-1.35s0,0,0,0a.47.47,0,0,1,.09.16,3.14,3.14,0,0,1,.14,1.29,20,20,0,0,1-.21,2c0,.18,0,.2.06,0a8.41,8.41,0,0,0,.33-3,5.19,5.19,0,0,0-.62-1.93,5,5,0,0,0-.67-.85s0,.21,0,1a19.42,19.42,0,0,1-.28,3.53,3.85,3.85,0,0,0-.06.54,12.1,12.1,0,0,1-.23,1.5c0,.07-.07.22-.12.33l-.08.21.1-.11a3.12,3.12,0,0,0,.25-.38Zm-26.49-1a6.53,6.53,0,0,0,1.59-.81,6.19,6.19,0,0,0,2.09-3.68,8.54,8.54,0,0,0,.08-2.37,4.43,4.43,0,0,0-1.25-2.62,6.09,6.09,0,0,0-1.22-.88l-.21-.11.37.37a6.29,6.29,0,0,1,1.6,5,6.63,6.63,0,0,1-3.34,5.14c-.2.12-.13.11.3,0Zm-3.38-.77.5-.2a5,5,0,0,0,1.67-1.62,4.11,4.11,0,0,1,.28-.4,2.81,2.81,0,0,1-.31.74c-.36.69,0,.33.46-.51a5.24,5.24,0,0,0,.62-1.32l.07-.3v.32a3.6,3.6,0,0,1-.24,1.27c-.13.37-.13.38,0,.27a5.8,5.8,0,0,0,.36-.66,6.24,6.24,0,0,0,.56-1.68l0-.21,0,.13a3,3,0,0,1,0,.58,3.85,3.85,0,0,1-.33,1.39l-.12.29.18-.17a4.35,4.35,0,0,0,1-2.88l0-.5.09.29a2.56,2.56,0,0,1,.09,1,4.45,4.45,0,0,0,0,.68,2.87,2.87,0,0,0,.19-.66,7.42,7.42,0,0,0,0-1.8,4.92,4.92,0,0,0-.95-2.21c-.17-.19-.18-.1,0,.35a2.33,2.33,0,0,1,.2,1.13l0,.27,0-.18a9.37,9.37,0,0,0-.39-1.2c-.17-.45-.49-.89-.65-.89s-.07,0-.07,0,.07.22.15.47.19.62.23.82a5.09,5.09,0,0,1,.08,1.41s0-.06-.06-.19a8,8,0,0,0-.38-1.29c-.16-.45-.54-1-.72-1s-.07,0,0,.09a4.6,4.6,0,0,1,.52,2.09l0,.13,0-.12c0-.07-.09-.31-.17-.54-.27-.79-.89-1.64-1.19-1.64-.07,0-.06,0,.11.36a7,7,0,0,1,.67,2.13,9.46,9.46,0,0,1,0,2.34,5.3,5.3,0,0,1-1.36,2.67,4.21,4.21,0,0,1-1.19.88C331.2,288.37,331.22,288.38,331.68,288.22Zm1-2.79a4,4,0,0,1-.78,1.14,2.85,2.85,0,0,1-1.4.87,2.19,2.19,0,0,1-2.08-.6,3.31,3.31,0,0,1-.78-1.09,5.1,5.1,0,0,1-.47-2.49,5.21,5.21,0,0,1,1.45-3.67,2.67,2.67,0,0,1,1.49-.8,2.71,2.71,0,0,1,2.76,2A6,6,0,0,1,332.71,285.43Zm-.51-2.33a3.11,3.11,0,0,0-.1-1,3.35,3.35,0,0,0-.89-1.6,2.58,2.58,0,0,0-.47-.3,1.55,1.55,0,0,0-1.31,0,2.57,2.57,0,0,0-.47.3,3.35,3.35,0,0,0-.89,1.6,5.42,5.42,0,0,0,0,2.09,3.37,3.37,0,0,0,.88,1.59,2.3,2.3,0,0,0,.77.43,2,2,0,0,0,.45,0,1.15,1.15,0,0,0,.58-.15,2.48,2.48,0,0,0,.45-.3,3.34,3.34,0,0,0,.89-1.6A3.12,3.12,0,0,0,332.21,283.1Zm-.53-.06a2.52,2.52,0,0,1-.29,1.34,1.85,1.85,0,0,1-.76.84,1.39,1.39,0,0,1-.84.1,1.75,1.75,0,0,1-1-.94,3.28,3.28,0,0,1,0-2.69,1.88,1.88,0,0,1,.76-.85,1.34,1.34,0,0,1,1.06,0,1.89,1.89,0,0,1,.76.85A2.52,2.52,0,0,1,331.68,283Zm-.82-1.3a.93.93,0,0,0-1.44,0,2.07,2.07,0,0,0,0,2.59.88.88,0,0,0,1.13.26,1.57,1.57,0,0,0,.59-.68A2.11,2.11,0,0,0,330.85,281.74Zm29.54-5.2,0-.33h-.18c-.1,0-.18,0-.18,0s.1.23.22.48c.2.42.22.44.23.32A2.88,2.88,0,0,0,360.39,276.55Zm-25.23-.13.07-.2h-1.31l0,.09c0,.07,0,.08.2.11l.58.12.39.1a.54.54,0,0,0,.1-.2Zm.29-.72a.56.56,0,0,0,.06-.16,2.39,2.39,0,0,0-.71,0h-.71l0,.1c-.08.21-.09.21.65.21h.69l.06-.11Zm24.82,0a.81.81,0,0,1,0-.15c0-.06,0-.07-.35-.07a.93.93,0,0,0-.33,0l.09.16c.07.12.08.12.36.13S360.3,275.81,360.27,275.72Zm-24.53-.7c.14-.23.14-.22-.64-.22a5.36,5.36,0,0,0-.76,0c-.06,0-.13.26-.09.29a6.13,6.13,0,0,0,.72,0h.7l.08-.13Zm24.4,0a.39.39,0,0,0-.05-.16,2.39,2.39,0,0,0-.95,0,.56.56,0,0,0,.1.17l.1.13h.81V275Zm-23.87-1.1.26-.54H334.8l-.18.48a4.78,4.78,0,0,0-.18.54c0,.05.11.06.78.06H336Zm23.71.47a5,5,0,0,0-.24-.79l-.08-.22h-1c-.76,0-1,0-.95,0a3.12,3.12,0,0,0,.37.34,5.58,5.58,0,0,1,.52.49l.17.2h.58c.53,0,.58,0,.58-.07Zm-23.14-1.58a8,8,0,0,1,2.76-3.1,17.31,17.31,0,0,1,6.67-1.57,28.76,28.76,0,0,1,3.57.18,18.18,18.18,0,0,1,2.65.62,13.1,13.1,0,0,1,2,1,7.32,7.32,0,0,1,2.71,2.63l.28.43h1a8.21,8.21,0,0,0,1,0,6.8,6.8,0,0,0-.6-1,10.57,10.57,0,0,0-4.28-3.2,24,24,0,0,0-5-1.51,29.37,29.37,0,0,0-6.24-.11,12.92,12.92,0,0,0-5.62,1.87,7.47,7.47,0,0,0-2.25,2.77A8.59,8.59,0,0,0,335,273a6.45,6.45,0,0,0,.88,0h.88Z" transform="translate(-235.67 -218.39)"/></svg>