<?xml version="1.0" encoding="utf-8"?>
<!DOCTYPE svg PUBLIC "-//W3C//DTD SVG 1.1//EN" "http://www.w3.org/Graphics/SVG/1.1/DTD/svg11.dtd">
<svg version="1.1" id="Layer_1" xmlns="http://www.w3.org/2000/svg" xmlns:xlink="http://www.w3.org/1999/xlink" x="0px" y="0px"
	 width="432px" height="432px" viewBox="0 0 432 432" enable-background="new 0 0 432 432" xml:space="preserve">
<polygon fill="#FFFFFF" points="216,432 28.938,324 28.938,108 216,0 403.062,108 403.062,324 "/>
<g>
	<polygon fill="#FFCC32" points="216.021,18 216,215.997 44.53,116.999 	"/>
	<polygon fill="#4B95C1" points="387.47,117.009 387.47,315.001 216,215.997 	"/>
	<polygon fill="#CA4236" points="216,215.997 216,414 44.53,315.001 	"/>
	<polygon fill="#F58233" points="44.53,116.999 216,215.997 44.53,315.001 	"/>
	<polygon fill="#56A645" points="216,18.011 387.47,117.009 216,215.997 	"/>
	<polygon fill="#8F649D" points="216,215.997 387.47,315.001 216,414 	"/>
	<path fill="#333333" d="M216,215.997"/>
	<polygon fill="#333333" points="216,215.997 216,215.997 216,215.997 	"/>
	<path fill="#333333" d="M216,215.997"/>
	<g>
		<path fill="#FFFFFF" d="M216,413.936c34.101-59.231,36.636-134.49,0-197.938l0,0C179.364,279.445,181.894,354.704,216,413.936"/>
		<path fill="#FFFFFF" d="M44.568,314.98c68.357-0.086,134.796-35.535,171.432-98.983l0,0
			C142.734,215.997,78.824,255.813,44.568,314.98"/>
		<path fill="#FFFFFF" d="M216,215.997c-36.636-63.442-103.075-98.902-171.432-98.977C78.824,176.176,142.734,215.997,216,215.997"
			/>
		<path fill="#FFFFFF" d="M387.427,314.98c-34.224-59.167-98.161-98.993-171.427-98.983l0,0
			C252.636,279.445,319.086,314.894,387.427,314.98"/>
		<path fill="#FFFFFF" d="M387.427,117.02c-68.341,0.075-134.791,35.524-171.427,98.977
			C289.266,215.987,353.182,176.166,387.427,117.02"/>
		<path fill="#FFFFFF" d="M216,18.064c-34.106,59.21-36.636,134.49,0,197.933C252.636,152.544,250.101,77.274,216,18.064"/>
	</g>
</g>
</svg>
