<svg xmlns="http://www.w3.org/2000/svg" xmlns:xlink="http://www.w3.org/1999/xlink" viewBox="0 0 735 852"><defs><style>.cls-1{fill:none;}.cls-2{fill:#ba6f38;}.cls-3{isolation:isolate;}.cls-4{clip-path:url(#clip-path);}.cls-5{fill:#ed7d15;}.cls-6{clip-path:url(#clip-path-2);}.cls-7{fill:#36a85d;}.cls-8{opacity:0.25;fill:url(#linear-gradient);}.cls-9{fill:#e6b35a;}.cls-10{fill:#fff;}.cls-11{fill:#298f4d;}.cls-12{opacity:0.7;mix-blend-mode:hard-light;}.cls-13{opacity:0.5;}</style><clipPath id="clip-path"><polygon class="cls-1" points="-434.3 7.4 -75.6 214.5 -75.6 636.6 -434.3 845 -801 636.6 -801 214.5 -434.3 7.4"/></clipPath><clipPath id="clip-path-2"><polygon class="cls-2" points="369.5 7.4 728.2 214.5 728.2 636.6 369.5 845 2.8 636.6 2.8 214.5 369.5 7.4"/></clipPath><linearGradient id="linear-gradient" x1="367.33" y1="-121.12" x2="368.63" y2="342.4" gradientUnits="userSpaceOnUse"><stop offset="0" stop-color="#fff" stop-opacity="0.83"/><stop offset="0.56" stop-color="#fff" stop-opacity="0.37"/><stop offset="1" stop-color="#fff" stop-opacity="0"/></linearGradient></defs><title>RStudio_Hex 2016 v7 outlines</title><g class="cls-3"><g id="Layer_1" data-name="Layer 1"><g class="cls-4"><circle class="cls-5" cx="-438.3" cy="437.4" r="442.1"/></g><polygon class="cls-2" points="369.5 7.4 728.2 214.5 728.2 636.6 369.5 845 2.8 636.6 2.8 214.5 369.5 7.4"/><g class="cls-6"><circle class="cls-7" cx="365.5" cy="437.4" r="442.1"/><ellipse class="cls-8" cx="368" cy="107.1" rx="315.2" ry="234.6"/></g><path class="cls-9" d="M367,633.9l0.9-.9h-0.3Z"/><path class="cls-10" d="M241.5,504.9h14.1v48.3h0.3a26.1,26.1,0,0,1,10.1-9.9,29,29,0,0,1,14.4-4c10.4,0,27,6.4,27,33.1v46.1H293.3V574c0-12.5-4.6-23-17.9-23-9.1,0-16.3,6.4-18.9,14.1a17,17,0,0,0-1,6.7v46.7H241.5V504.9Z"/><path class="cls-10" d="M325.2,562c0-8-.2-14.6-0.6-21h12.3l0.6,12.5H338c4.3-7.4,11.5-14.2,24.3-14.2,10.6,0,18.6,6.4,21.9,15.5h0.3a31.9,31.9,0,0,1,8.6-10.1c4.6-3.5,9.8-5.4,17.1-5.4,10.2,0,25.4,6.7,25.4,33.6v45.6H422V574.6c0-14.9-5.4-23.8-16.8-23.8-8,0-14.2,5.9-16.6,12.8a23.2,23.2,0,0,0-1.1,7v47.8H373.7V572.1c0-12.3-5.4-21.3-16.2-21.3-8.8,0-15.2,7-17.4,14.1a19.4,19.4,0,0,0-1.1,6.9v46.7H325.2V562Z"/><path class="cls-10" d="M451.6,604.1a36.9,36.9,0,0,0,18.6,5.6c10.2,0,15-5.1,15-11.5s-4-10.4-14.4-14.2c-13.9-5-20.5-12.6-20.5-21.9,0-12.5,10.1-22.7,26.7-22.7a38.6,38.6,0,0,1,19,4.8l-3.5,10.2a30.1,30.1,0,0,0-15.8-4.5c-8.3,0-13,4.8-13,10.6s4.6,9.3,14.7,13.1c13.4,5.1,20.3,11.8,20.3,23.4,0,13.6-10.6,23.4-29,23.4a44.1,44.1,0,0,1-21.8-5.4Z"/><path class="cls-10" d="M402,780.4l-2-3.2,1.7-1,1.3,2H403a3.6,3.6,0,0,1,1.6-4l0.6-.2,1,1.8-0.7.3a3.1,3.1,0,0,0-1.1,3.9l0.4,0.9,3.2,5.6-1.9,1.1Z"/><path class="cls-10" d="M411.9,781.7a5.8,5.8,0,0,0,2.9-.7c1.4-.8,1.6-1.9,1.1-2.7s-1.4-1.1-3.1-.8-3.8-.1-4.5-1.4-0.4-3.9,1.8-5.2a6,6,0,0,1,2.9-.8l0.3,1.7a4.7,4.7,0,0,0-2.5.6,1.8,1.8,0,0,0-.9,2.4c0.5,0.9,1.4.9,3,.6s3.7,0,4.6,1.6,0.4,4-2.1,5.4a6.9,6.9,0,0,1-3.4,1Z"/><path class="cls-10" d="M416.6,764.2l1.5,2.5,2.7-1.6,0.8,1.4-2.7,1.6,3.3,5.6c0.8,1.3,1.5,1.8,2.6,1.2l1-.8,0.9,1.4a5.3,5.3,0,0,1-1.5,1.3,3.1,3.1,0,0,1-2.5.4,4.5,4.5,0,0,1-2.3-2.3l-3.3-5.7-1.6.9-0.8-1.4,1.6-.9-1.1-1.9Z"/><path class="cls-10" d="M436.1,766.4l1.7,2.8-1.7,1-1.1-1.6h0a4.6,4.6,0,0,1-2.3,4c-1.6,1-4.1,1.2-6.3-2.5l-3.6-6.1,1.9-1.1,3.4,5.8c1.2,2,2.5,3,4.3,2a3.2,3.2,0,0,0,1.5-3.2,3.2,3.2,0,0,0-.4-1.1l-3.7-6.4,1.9-1.1Z"/><path class="cls-10" d="M441,746.8l7.4,12.6,1.7,2.6-1.7,1-1.1-1.8h0a4.5,4.5,0,0,1-2.4,4.1c-2.5,1.5-5.7.5-7.6-2.7s-1.1-6.9,1.4-8.3a4,4,0,0,1,4.1-.2h0l-3.6-6.2Zm3.4,10.2-0.6-.7a3.2,3.2,0,0,0-4-.6c-2,1.1-2.1,3.6-.8,5.9s3.3,3.3,5.3,2.1a3.3,3.3,0,0,0,1.5-3.9,3.8,3.8,0,0,0-.4-0.9Z"/><path class="cls-10" d="M447.4,745.7a1.4,1.4,0,0,1-2.4,1.4,1.3,1.3,0,0,1,.5-1.9A1.3,1.3,0,0,1,447.4,745.7Zm5.7,14.6L447,749.9l1.9-1.1,6.1,10.5Z"/><path class="cls-10" d="M464.5,746.6c2.3,3.9.6,7.1-2,8.6s-6.2.8-8.1-2.5-0.9-6.9,2-8.6S462.6,743.4,464.5,746.6Zm-8.2,4.9c1.3,2.3,3.7,3.3,5.5,2.2s2.2-3.6.8-5.9-3.2-3.5-5.5-2.2S455.1,749.5,456.3,751.5Z"/><path class="cls-10" d="M470.4,750.5a1.6,1.6,0,1,1,.5-2.1,1.5,1.5,0,0,1-.5,2.1h0Z"/><path class="cls-10" d="M481.2,743.4a8,8,0,0,1-2.6,2.4c-3.2,1.8-6.5.9-8.3-2.3a6.1,6.1,0,0,1,2.4-8.8,7.3,7.3,0,0,1,2.9-1l0.4,1.7a5.1,5.1,0,0,0-2.5.8c-2.4,1.4-2.7,3.9-1.4,6.1s3.8,3,5.9,1.8a6.2,6.2,0,0,0,2-1.9Z"/><path class="cls-10" d="M489.8,731.8c2.3,3.9.6,7.1-2,8.6s-6.2.8-8.1-2.5-0.9-6.9,2-8.6S488,728.6,489.8,731.8Zm-8.2,4.9c1.3,2.3,3.7,3.2,5.5,2.2s2.2-3.6.8-5.9-3.2-3.5-5.5-2.2S480.5,734.7,481.6,736.7Z"/><path class="cls-10" d="M490.9,728.1l-1.7-2.8,1.7-1,1.1,1.6H492a4.2,4.2,0,0,1,2.2-3.8,3.6,3.6,0,0,1,4.2.4h0a4.9,4.9,0,0,1,.4-2,4.1,4.1,0,0,1,1.9-2.1c1.4-.8,4-1.1,6.1,2.5l3.6,6.2-1.9,1.1-3.4-5.9c-1.2-2-2.6-2.8-4.1-1.9a2.9,2.9,0,0,0-1.2,3,3.6,3.6,0,0,0,.4,1l3.8,6.5-1.9,1.1-3.6-6.3c-1-1.7-2.4-2.4-3.9-1.6a3.3,3.3,0,0,0-.9,4.3l3.7,6.3-1.9,1.1Z"/><path class="cls-11" d="M705.6,196.2L427.8,35.8,367.5,1,307.2,35.8,29.4,196.2,0.1,213.1V637.4l29.3,16.9L310.6,816.7l56.9,32.8,56.9-32.8L705.6,654.3l29.3-16.9V213.1Zm0,425.3L367.5,816.7,29.4,621.5V231L367.5,35.8h0L705.6,231V621.5Z"/><g class="cls-12"><path class="cls-10" d="M365.5,23.2c-5.8,0-20.5,12.6-19.8,25.2v56.4q8.6-.4,17.3-0.4c8.9,0,17.6.5,26.4,1.1V48.9C389.3,38.6,374.4,23.2,365.5,23.2Z"/><path class="cls-10" d="M363,747.6c-5.8,0-11.6.2-17.3,0.4v56.4c4.6,6.6,17.4,19.7,23.1,19.7,8.9,0,16.6-12.8,20.5-19.1V748.6C380.6,748,371.8,747.6,363,747.6Z"/><path class="cls-10" d="M188.1,139.3l28.2,48.9q11.1-6.9,22.7-12.9l-28.2-48.9Q199.3,132.5,188.1,139.3Z"/><path class="cls-10" d="M29.6,246.1l48.9,28.2q6.1-11.6,13-22.7L42.6,223.4c-3.4.2-14.2,0.1-16.4,3.8S26.8,238.9,29.6,246.1Z"/><path class="cls-10" d="M86.3,409.5H29.8c-0.3,5.9-.5,11.9-0.5,17.9,0,8.7.4,17.2,0.9,25.8H86.9c-0.7-8.5-1.1-17.1-1.1-25.8C85.8,421.4,85.9,415.4,86.3,409.5Z"/><path class="cls-10" d="M29.4,606.7c0.4,0.7-11.4,10.6-11.1,11.3,3.5,6.3,14.6,9.2,18.5,15.3,0.4,0.6,5.7-4.8,6.1-4.1l48.9-28.2c-4.8-7.3-9.3-14.7-13.5-22.4Z"/><path class="cls-10" d="M243.9,679.7c-7.8-3.9-15.5-8.1-22.9-12.6l-28.2,48.8c7.5,4.5,14.9,9,22.6,13l28.5-49.2"/><path class="cls-10" d="M538,133.8c-7.8-3.9-15.5-8.1-22.9-12.6L486.9,170c7.5,4.5,14.9,9,22.6,13L538,133.8"/><path class="cls-10" d="M520.8,662.9c-7.3,4.7-14.8,9.2-22.5,13.3l28.2,48.9c7.7-4.1,15.2-8.6,22.5-13.3Z"/><path class="cls-10" d="M656.7,578.3q-6.2,11.6-13.2,22.6l48.9,28.2c10.2,3.5,22.8-13.6,13.2-22.6Z"/><path class="cls-10" d="M706.2,409.5H649.7c0.3,5.9.5,11.9,0.5,17.9,0,8.7-.4,17.2-1.1,25.8h56.5c0.6-8.5.9-17.1,0.9-25.8C706.6,421.4,706.4,415.5,706.2,409.5Z"/><path class="cls-10" d="M692.9,223.6l-48.8,28.2c4.5,7.4,8.7,15.1,12.6,22.9l48.9-28.2C721.1,230.8,704.4,215.8,692.9,223.6Z"/><circle class="cls-1" cx="357.6" cy="423.2" transform="translate(-196.4 413.6) rotate(-48.8)"/><circle class="cls-1" cx="357.1" cy="423.7" transform="translate(-195 376.6) rotate(-45)"/><circle class="cls-1" cx="356.9" cy="423.9" transform="translate(-197.1 437.8) rotate(-51.3)"/><circle class="cls-1" cx="358.1" cy="422.7" transform="translate(-194.9 455.6) rotate(-53.1)"/><circle class="cls-1" cx="358.3" cy="422.5" transform="translate(-162.4 233.4) rotate(-29.7)"/><path class="cls-10" d="M486.4,211.2l-5-2.6c-1.6-.8-4.2.9-5.8,4l-102,189.2a31.5,31.5,0,0,0-27,7.1L241.2,348.6c-3-1.8-6.1-1.9-7-.4l-2.9,4.8c-0.9,1.6.7,4.3,3.6,6l101.9,65.4a31.6,31.6,0,0,0,2.3,22.5c1.5,3.5,5,7.9,10,11.4l0.5,0.4,0.8,0.5,0.3,0.2a29.7,29.7,0,0,0,19.3,4.7,31.4,31.4,0,0,0,19.1-8.6,28,28,0,0,0,9.1-16.2,31.5,31.5,0,0,0,.7-6.8q0-1,0-1.9a31.4,31.4,0,0,0-9-20.1l96.6-192.3C488,215.1,488,212,486.4,211.2ZM358.3,422.5h0a13.6,13.6,0,0,1,19.7,1.6l0.8,1.1A13.6,13.6,0,0,1,358.6,443l-1-.9-1.2-1.4a13.6,13.6,0,0,1,.5-16.8h0v-0.2h0l0.5-.6h0l0.5-.5h0.2Z"/><path class="cls-7" d="M358.1,422.7l-0.5.5h0l-0.5.6h0v0.2h0a13.6,13.6,0,0,0-.5,16.8l1.2,1.4,1,0.9a13.6,13.6,0,0,0,20.2-17.8l-0.8-1.1a13.6,13.6,0,0,0-19.7-1.6h-0.2Z"/></g><g class="cls-13"><circle class="cls-7" cx="367.4" cy="279.7" r="13.6" transform="matrix(0.02, -1, 1, 0.02, 81.95, 642.61)"/></g><path class="cls-11" d="M705.6,196.2L427.8,35.8,367.5,1,307.2,35.8,29.4,196.2,0.1,213.1V637.4l29.3,16.9L310.6,816.7l56.9,32.8,56.9-32.8L705.6,654.3l29.3-16.9V213.1Zm0,425.3L367.5,816.7,29.4,621.5V231L367.5,35.8h0L705.6,231V621.5Z"/></g></g></svg>