<?xml version="1.0" encoding="UTF-8" standalone="no"?>
<svg width="181px" height="209px" viewBox="0 0 181 209" version="1.1" xmlns="http://www.w3.org/2000/svg" xmlns:xlink="http://www.w3.org/1999/xlink" xmlns:sketch="http://www.bohemiancoding.com/sketch/ns">
    <!-- Generator: Sketch 3.3.3 (12081) - http://www.bohemiancoding.com/sketch -->
    <title>Slice 1</title>
    <desc>Created with Sketch.</desc>
    <defs></defs>
    <g id="Page-1" stroke="none" stroke-width="1" fill="none" fill-rule="evenodd" sketch:type="MSPage">
        <g id="js-logo-hex" sketch:type="MSLayerGroup">
            <g id="Page-1" sketch:type="MSShapeGroup">
                <g id="logo">
                    <path d="M0,51.9444444 L90.1973244,0 L180.394649,51.9444444 L181,157.055556 L90.8026756,209 L0,157.055556 L0,51.9444444 L0,51.9444444 Z" id="template_outline" fill="#F3DF49"></path>
                    <path d="M69.9100708,166.033811 C69.9100708,166.033811 76.5336023,165.171031 82.0888229,167.759373 C87.6440428,170.347723 88.4986878,170.77911 88.4986878,170.77911 C88.4986878,170.77911 92.5582733,172.073285 98.9681383,169.484935 C105.378012,166.896593 105.805339,167.975069 109.22392,162.798383 C112.642505,157.6217 114.565477,156.327528 120.548036,156.111834 C126.530583,155.896138 126.744246,156.111834 128.453556,155.033359 C130.162862,153.954883 138.495708,141.444557 143.196273,139.934688 C147.896837,138.424823 154.520374,138.424823 155.375027,137.130647 C156.229681,135.836472 157.725292,131.953958 160.075592,131.306872 C162.425891,130.659789 162.639554,131.953958 163.066846,127.640058 C163.494173,123.326152 166.485465,121.169197 166.485465,121.169197 C166.485465,121.169197 164.562492,119.875031 163.707836,119.012245 C162.853183,118.149465 161.571238,115.992511 161.571238,115.992511 C161.571238,115.992511 162.853183,116.423903 164.348829,117.93377 C165.844472,119.443635 164.989819,119.443635 166.485465,119.227945 C167.981108,119.012245 170.11771,118.796549 169.904047,117.50238 C169.690383,116.208208 169.690383,115.561122 171.186027,114.698342 C172.681673,113.835559 170.972363,114.051255 170.972363,114.051255 L169.904047,113.619866 C169.904047,113.619866 173.322665,114.051255 173.322665,112.97278 C173.322665,111.894304 169.423667,110.6034 169.423667,110.6034 C169.423667,110.6034 174.220515,111.40413 174.220515,110.2221 C174.220515,109.040073 173.578421,109.955189 172.936325,109.497632 C172.294198,109.040073 171.161086,108.010566 170.1413,107.629268 C169.12148,107.247968 165.646608,107.095447 168.668248,105.837161 C171.68989,104.578877 171.576564,107.896176 173.540633,107.705525 C175.504701,107.514876 175.995719,105.150824 176.071257,104.998306 C176.146794,104.845783 175.957968,104.960173 176.26012,104.731395 C176.562275,104.502616 175.957968,101.642873 175.957968,101.642873 C175.957968,101.642873 175.2403,103.434976 174.749282,103.16807 C174.258266,102.90116 174.409378,100.155805 174.409378,100.155805 C174.409378,100.155805 171.010008,99.9270281 169.12148,100.270195 C167.232949,100.613368 173.389555,99.7363791 173.69171,99.2406886 C173.9939,98.7450035 174.938145,97.7536254 174.560456,97.1435447 C174.182726,96.5334676 174.182726,96.1902975 172.974077,96.1521666 C171.765428,96.1140388 169.952437,96.1902975 169.952437,96.1902975 C169.952437,96.1902975 172.067583,95.5039611 172.180906,95.1226601 C172.294198,94.7413598 170.670067,94.321931 171.68989,93.9025053 C172.709676,93.4830765 173.011865,92.9492581 173.16294,91.2334121 C173.314018,89.5175661 173.200692,89.5556946 173.465095,89.0600095 C173.729496,88.5643189 173.653959,88.4499293 173.087403,87.9923697 C172.520847,87.5348124 172.407521,86.5434344 171.68989,86.9247353 C170.972257,87.3060302 170.254589,87.0772558 169.688033,85.9333567 C169.12148,84.7894606 170.027974,84.3700318 168.214983,84.5606807 C166.402027,84.7513297 165.231129,84.7513297 162.964906,82.9592249 C160.698685,81.1671202 161.227453,80.6714327 161.37853,79.7181849 C161.529608,78.7649347 161.680682,78.4598962 161.265241,78.4217683 C160.84976,78.3836368 159.37671,79.4512742 158.507965,79.5656644 C157.639257,79.6800541 157.072701,79.8325752 155.901803,80.4807807 C154.73094,81.1289893 153.333428,81.7009386 154.277676,80.1376137 C155.221959,78.5742858 153.408965,78.4980301 154.579828,77.2016098 C155.750726,75.9051926 157.034915,74.4181301 156.770549,72.8548022 C156.506145,71.2914773 155.486325,68.2792171 154.73094,68.7367737 C153.975521,69.1943303 153.597794,70.6432687 152.389145,70.1094497 C151.180496,69.5756313 151.520437,69.8044081 150.651726,69.7662802 C149.782983,69.7281524 149.707443,69.5375034 149.669692,68.7367737 C149.631906,67.9360446 149.971847,67.8216574 149.140887,67.7072678 C148.309931,67.5928776 146.572515,67.5928776 149.027564,66.0295497 C151.482648,64.4662248 151.369359,63.5892394 151.369359,63.2460669 C151.369359,62.9028999 149.707443,61.4539652 150.689477,60.5769766 C151.671512,59.6999853 152.275856,59.8143781 153.560043,58.8992618 C154.844232,57.9841454 157.186027,56.8402434 156.203993,56.8021153 C155.221959,56.7639873 153.748906,57.1452822 153.106813,56.9165053 C152.464682,56.6877254 152.124779,56.3826866 150.576154,57.6409727 C149.027564,58.8992618 150.387325,59.3186904 148.725409,60.5388456 C147.06353,61.7590038 144.94835,61.7208729 144.94835,61.7208729 C144.94835,61.7208729 145.666018,65.6863833 144.721735,65.3813411 C143.777487,65.0763025 142.417726,63.3985904 141.473477,63.3985904 C140.529232,63.3985904 139.698272,63.3985904 139.660487,62.9791617 C139.622735,62.5597274 139.887101,62.1021708 139.509409,62.0259114 C139.131717,61.9496527 138.30076,62.4072124 139.169468,60.2719378 C140.038213,58.1366604 139.924887,57.8316217 139.131717,56.9927671 C138.338511,56.1539097 135.958999,56.0013859 135.958999,56.0013859 C135.958999,56.0013859 136.185614,52.7984771 134.788102,52.4553103 C133.390589,52.1121376 133.352803,51.4257982 131.615384,52.6459562 C129.877896,53.8661114 130.671101,53.7898554 129.575741,53.5610726 C128.480381,53.3322957 128.442629,52.6840872 127.385058,53.1035159 C126.327486,53.5229446 126.516313,53.5229446 126.516313,53.9805014 C126.516313,54.4380639 127.309483,55.810737 127.309483,56.6495973 C127.309483,57.4884548 127.385058,58.4035712 127.76275,59.6237292 C128.140443,60.8438874 129.349126,62.9410277 127.913828,64.580615 C126.478561,66.2201986 123.381384,67.7453957 122.286024,67.7072678 C121.190663,67.6691394 120.964048,64.8856536 119.188829,65.1525643 C117.413624,65.419475 116.998146,64.3518352 116.129401,67.4403571 C115.260693,70.5288815 115.600634,68.5461248 115.487307,69.2324618 C115.374019,69.9188013 114.883,73.2361025 112.503453,73.1598407 C110.123907,73.0835844 110.199444,72.2447244 109.595102,70.7576583 C108.990795,69.2705927 107.102264,67.7072678 105.478137,67.3640978 C103.854009,67.0209283 101.172308,66.0676806 100.756829,66.9065381 C100.341351,67.7453957 100.605752,71.1008283 100.945693,72.1684657 C101.285596,73.2361025 102.267631,73.9605704 102.267631,75.4857644 C102.267631,77.0109609 103.02305,76.7821841 102.909761,76.4390116 C102.796435,76.0958446 103.174127,75.9051926 103.362991,76.5152734 C103.551854,77.1253511 104.382776,78.3455059 104.420565,81.0527331 C104.458317,83.7599516 104.722717,85.2470202 104.496103,85.3614098 C104.269488,85.4758001 102.909761,82.0441056 102.64536,80.5570425 C102.380957,79.0699739 102.343205,78.3836368 101.512249,77.8498184 C100.681292,77.3160001 101.285596,75.790803 99.7747953,75.1044666 C98.2639563,74.4181301 97.3574968,74.1893472 97.3574968,74.1893472 C97.3574968,74.1893472 97.5841118,69.3468514 96.1110593,68.5842557 C94.6380093,67.8216574 96.2621368,68.2792171 95.2423168,67.4022287 C94.2225314,66.5252378 93.6937438,67.6691394 93.6937438,67.6691394 C93.6937438,67.6691394 94.1469908,66.5252378 93.5048894,66.1439429 C92.8627928,65.762642 92.7872498,65.3432132 92.0696108,66.6014996 C91.3519718,67.8597853 91.2386598,67.8597853 91.2386598,67.8597853 C91.2386598,67.8597853 91.5030518,65.9532909 90.8987248,66.0676806 C90.2943973,66.1820708 89.0857399,67.3259669 88.8591164,67.8216574 C88.6324953,68.3173449 88.7835758,70.0713188 87.1594428,70.1094497 C85.5353123,70.1475806 83.6467873,70.0331909 83.5712474,71.9015544 C83.4957038,73.7699184 84.1378028,73.1217129 83.1935403,73.8080524 C82.2492778,74.4943858 82.1359688,73.8080524 82.8913769,75.638288 C83.6467873,77.4685206 84.0244913,77.3541279 84.2511173,79.4512742 C84.4777383,81.5484206 83.9867223,82.5016683 83.0424598,82.5397962 C82.0981943,82.5779271 82.0226568,81.7009386 81.7960308,82.0059778 C81.5694098,82.3110163 80.2474408,82.6923173 80.0208198,81.8915876 C79.7941963,81.0908609 79.3787183,78.154857 78.6610794,77.6591695 C77.9434398,77.163482 77.1124888,77.4685206 76.7725568,76.7440502 C76.4326183,76.0195828 75.3750468,73.6555282 74.8084883,72.1684657 C74.2419323,70.6813996 73.6376023,68.0123064 72.0512408,68.3173449 C70.4648788,68.6223841 68.3497303,68.8892918 68.1608783,71.2533488 C67.9720263,73.6174004 70.1249468,77.7735622 70.0871753,81.3196383 C70.0494038,84.8657193 70.5404223,87.1535121 67.1033038,87.7254614 C63.6661888,88.2974082 65.0259238,87.0772558 64.7237603,85.9333567 C64.4216023,84.7894606 64.4593708,83.6074336 61.7776633,86.6196962 C59.0959588,89.6319563 59.0204157,91.5384507 59.2092705,92.9492581 C59.3981225,94.3600649 60.0402214,96.9528963 59.7002862,96.9910242 C59.3603509,97.0291581 58.0383815,93.0636477 57.8117609,93.1780379 C57.5851374,93.2924245 57.3962855,92.7586092 57.3962855,93.9025053 C57.3962855,95.0464014 57.3962855,101.261573 57.0563531,101.299707 C56.716415,101.337835 56.2631709,101.070924 55.7343837,97.9824022 C55.2055936,94.8938833 55.0167417,93.0636477 54.4879545,92.7204752 C53.9591702,92.3773082 54.0347104,92.1485284 53.1659879,92.606085 C52.2972684,93.0636477 52.1839538,92.8729957 53.2415281,91.5003228 C54.2991025,90.1276438 54.7901182,87.7254614 53.9591702,87.4204228 C53.1282193,87.1153837 52.1084136,88.2974082 52.1084136,88.2974082 C52.1084136,88.2974082 53.9025143,86.5053066 52.3728057,86.1240056 C50.8431029,85.7427077 48.9168061,85.9524209 48.5579865,83.7027596 C48.1991669,81.4530952 49.3889374,83.1689406 50.3143157,83.5693027 C51.2396911,83.9696703 52.4105801,84.0268623 52.9582517,83.1117454 C53.5059232,82.1966292 53.9969388,81.7390671 52.7127438,81.1099251 C51.428546,80.4807807 52.523889,80.9192762 53.1282193,80.4617165 C53.7325467,80.0041599 54.6390378,79.1271684 54.846774,77.6782337 C55.0545132,76.2292984 55.5077573,75.3332464 54.3368741,74.7422329 C53.1659879,74.1512188 53.4681516,74.6659736 52.7127438,74.2084139 C51.9573303,73.7508573 52.5050047,73.6364646 51.5229705,73.7317906 C50.5409392,73.8271136 51.6173979,73.3695563 52.9015958,73.0835844 C54.1857908,72.7976071 54.7145808,72.7976071 53.8836271,71.6918388 C53.0526762,70.5860766 52.9015958,71.8252957 52.2783812,71.6346437 C51.6551666,71.4439978 50.6731353,70.9673714 51.3152342,70.5860766 C51.9573303,70.2047757 51.8629057,69.6709573 51.2396911,69.2896563 C50.6164765,68.9083584 50.1065765,69.1371358 50.0310363,69.9569322 C49.9554933,70.7767225 49.8233,71.2152155 49.6344452,71.1389592 C49.4455933,71.0626974 50.1065765,69.9378649 49.3322815,69.9950601 C48.5579865,70.0522552 48.4069032,69.7472136 48.5013306,69.3468514 C48.5957552,68.9464899 48.5768708,67.8979162 48.3691346,67.7835266 C48.1613954,67.6691394 48.3691346,67.4594238 48.5013306,67.1734488 C48.6335267,66.8874714 48.5957552,65.8960989 47.7648072,65.3813411 C46.9338563,64.8665893 46.6694612,65.0572383 45.9895908,64.2946401 C45.3097232,63.5320418 44.7809331,64.1993171 44.7809331,64.1993171 C44.7809331,64.1993171 45.7251986,63.2842008 45.4419192,62.8266381 C45.1586399,62.3690815 44.7620516,62.1212374 44.1954929,62.0640423 C43.6289342,62.0068478 43.4778538,61.244249 43.2889989,61.7018087 C43.100147,62.1593653 42.2880833,62.7885103 42.325852,62.1784326 C42.3636206,61.5683548 42.5524755,61.3586392 41.8726079,61.6255499 C41.1927374,61.8924546 41.5326697,60.9201434 41.6459815,60.043158 C41.7592932,59.1661696 42.0425755,59.0708466 41.4382452,58.9564567 C40.8339178,58.8420668 41.1171943,58.727674 41.1360815,58.4607662 C41.154986,58.1938554 40.58841,57.8316217 40.5128669,57.5265829 C40.4373267,57.2215441 40.324015,57.3359339 39.9651954,57.0690261 C39.6063758,56.8021153 39.814115,56.2111046 39.417521,56.0013859 C39.0209327,55.7916759 38.4166053,54.8765567 38.2088662,55.6391522 C38.001127,56.4017535 37.3401438,54.9528156 36.9246683,54.6859078 C36.5091929,54.418997 35.8670939,53.5610726 35.678242,54.5143229 C35.48939,55.4675702 35.2627665,55.1815955 34.9983715,55.5438292 C34.7339793,55.9060629 34.2996196,55.715414 33.5630932,54.9337516 C32.8265669,54.1520891 31.5612562,53.0463209 31.2213238,53.7707884 C30.8813886,54.495256 30.8813886,54.6287128 29.7105025,54.7431027 C28.5396163,54.8574897 27.8408615,54.6859078 28.4263046,55.734481 C29.0117505,56.7830484 29.4083388,57.4693879 28.9173203,57.7172346 C28.4263046,57.9650785 27.8408615,57.7172346 27.4442733,57.6219116 C27.0476822,57.5265829 26.3678117,57.7553626 27.4253689,58.575156 C28.4829404,59.3949465 29.1816952,59.7953142 29.9937617,59.6809242 C30.8058283,59.5665343 32.6188105,57.7934936 32.7132379,57.9841454 C32.8076624,58.1747943 31.7689781,59.1089747 32.3733055,59.2805566 C32.9776329,59.4521444 33.1853692,59.3949465 33.4875329,59.1661696 C33.7896966,58.9373898 34.5828788,58.4607662 34.4506799,59.3377516 C34.3184838,60.2147429 34.2807123,60.3672608 35.300518,60.4435198 C36.3203208,60.5197817 37.0946158,59.9097011 37.0946158,60.2338068 C37.0946158,60.5579097 36.0370414,61.339575 36.3014336,61.4348979 C36.5658286,61.5302209 38.4165824,61.244249 38.07665,61.5111597 C37.7367176,61.778068 36.8679923,62.0449757 36.716909,62.2356277 C36.5658286,62.4262766 36.2447777,63.0554179 36.1503532,62.7503794 C36.0559258,62.4453402 33.3553368,61.3014441 32.4299614,61.3967701 C31.5045831,61.4920931 31.0135646,61.9877836 30.5603205,62.0449757 C30.1070735,62.1021708 29.3327785,62.7313152 29.9937617,63.5892394 C30.654745,64.4471581 32.0711418,65.7245111 33.4875329,66.3155277 C34.9039269,66.9065381 33.7141564,67.3450336 34.4695671,67.1925131 C35.2249749,67.039995 34.9794671,67.5166158 35.432714,67.7835266 C35.8859582,68.0504342 36.4902884,68.565189 37.03796,68.5461248 C37.5856315,68.5270404 38.2466176,68.3554734 37.5667471,68.8702276 C36.8868795,69.3849793 36.8679923,70.4907476 37.2645834,70.6051378 C37.6611746,70.7195274 38.7187461,73.9224389 38.3977009,74.9519485 C38.07665,75.981455 36.7924521,78.688676 37.1512717,77.163482 C37.5100913,75.638288 37.7178304,73.4076848 36.8113365,73.5220744 C35.9048454,73.6364646 35.2627493,74.8947534 35.3571738,74.074957 C35.4515984,73.2551667 34.2240593,69.3277872 33.1098261,69.7472136 C31.9955987,70.1666417 31.9955987,73.6745955 31.882287,72.7213508 C31.7689781,71.7681006 31.7689781,70.6813996 30.843597,71.8634266 C29.9182187,73.0454511 31.3157283,70.8720485 30.8058283,70.3763579 C30.2959254,69.8806698 29.6538294,70.1666417 29.2950098,70.4716839 C28.9361873,70.7767225 29.5971735,69.7662802 29.4838589,69.0990074 C29.3705471,68.4317352 29.4649544,67.0590592 28.3696286,67.6310054 C27.2742856,68.2029553 27.9730404,67.1734488 27.1232052,66.0295497 C26.2733671,64.8856536 24.6114624,63.1126131 23.1384152,63.3604565 C21.6653625,63.6083006 20.2489714,63.9705342 20.7022155,64.9237844 C21.1554625,65.8770316 23.6105465,65.8770316 21.1932312,65.6101209 C18.7759187,65.3432132 19.2102813,66.4108506 19.9468077,67.3259669 C20.6833283,68.2410832 23.6483152,70.3954246 21.891986,69.6900215 C20.1356596,68.9846178 17.5483767,67.0209283 17.0951326,68.2410832 C16.6418827,69.4612417 16.925165,71.1770871 20.1923155,74.1512188 C23.4594603,77.1253511 20.8910675,75.1807253 19.7768372,75.2188531 C18.662607,75.2569871 17.9260835,73.3695563 16.8873934,73.4458187 C15.8487063,73.5220744 15.1121799,73.3886236 15.962018,75.7336109 C16.8118532,78.0785952 17.5672639,78.8030687 19.6635255,79.2796926 C21.7597899,79.7563134 24.78143,79.2034308 24.8569702,79.7181849 C24.9325133,80.2329367 24.8569702,80.4426529 22.7607084,80.7095606 C20.6644468,80.9764713 20.4378205,80.5951703 20.5322479,81.3577716 C20.6266724,82.1203674 22.156381,82.7685729 22.0808379,83.1689406 C22.0052977,83.5693027 22.0997424,84.5416141 21.4953977,84.5225529 C20.8910675,84.5034685 20.5322479,83.8552801 20.2867401,84.2365749 C20.0412322,84.6178758 19.8901518,84.6750709 19.4746735,83.4167846 C19.0592009,82.1584952 18.5304109,81.5102897 17.4161835,80.9383434 C16.3019504,80.3663936 12.6193272,77.0109609 12.0149998,77.3350667 C11.4106724,77.6591695 11.1462774,78.2883139 11.5995215,79.6991183 C12.0527714,81.1099251 12.5815557,82.1013007 13.6202457,82.7876402 C14.6589358,83.4739797 15.2632632,84.0649932 14.8855593,84.1412519 C14.5078525,84.2175137 11.8639166,82.6923173 11.6750646,83.1498739 C11.4862126,83.6074336 13.9979525,86.4290442 13.6957888,86.6578271 C13.3936251,86.8866038 12.7137546,86.9247353 10.9007696,85.3804741 C9.08778451,83.8362134 9.05001586,83.1880078 7.87912971,83.5502415 C6.70824361,83.9124752 7.31257386,85.7808386 6.61381615,86.2002674 C5.91506423,86.6196962 5.631782,86.4099836 5.25408096,86.9819298 C4.87637419,87.5538736 4.12096063,88.2211495 4.347587,88.3546033 C4.57421049,88.4880602 7.9546699,88.2592804 8.93670411,88.5833832 C9.91873541,88.9074859 12.4871312,89.6700872 12.675986,90.0704487 C12.8648351,90.4708108 12.5626714,91.6719045 13.0914614,91.9388128 C13.6202457,92.2057235 15.829819,92.4154361 16.2830689,92.0722697 C16.736313,91.7290996 17.1517885,90.7567882 18.4548735,90.5470726 C19.7579529,90.3373594 20.8344116,90.0323209 21.1176938,89.7654102 C21.4009703,89.4984994 21.3631988,89.2887863 22.6851711,89.7463258 C24.0071376,90.2038854 24.592581,90.0894958 24.724777,89.7844567 C24.8569702,89.4794181 24.6681212,86.1239885 25.4046446,86.8865867 C26.141171,87.6491825 27.2931699,88.4499116 27.6897639,88.2592627 C28.0863521,88.0686107 28.4829404,86.1621194 28.917303,86.4290271 C29.3516628,86.6959378 29.2005795,87.4585336 29.5027432,87.3060124 C29.8049098,87.1534944 30.5980891,86.3146374 30.8247155,86.7912607 C31.051339,87.2678846 30.786944,88.7740144 31.4668116,88.3736498 C32.146682,87.9732853 32.9020898,88.2592627 33.3553397,88.7740144 C33.8085838,89.2887692 35.5460258,87.1534944 35.6593375,87.9351568 C35.7726464,88.7168193 35.6404331,90.1085594 36.2258963,89.8988469 C36.8113365,89.6891307 38.4543568,88.9455991 38.1710774,89.612875 C37.887798,90.2801472 37.2079304,90.2610806 37.5478628,90.9283528 C37.887798,91.5956256 39.4741596,93.0064324 39.8518664,92.9492373 C40.2295703,92.8920453 40.2484546,92.8539119 40.2484546,92.8539119 C40.2484546,92.8539119 41.438228,89.8225845 42.3824877,90.2610806 C43.3267504,90.699576 44.0632767,90.7377038 44.21436,91.8625363 C44.3654404,92.9873682 43.4211778,92.3391602 44.5542924,92.6823297 C45.687407,93.0254967 47.3304273,92.5870037 47.1604597,93.2161456 C46.990492,93.84529 46.6316725,93.5593181 45.2719315,94.1312649 C43.9121963,94.7032142 43.5533767,94.5697573 43.1945572,95.0845152 C42.8357376,95.5992638 41.4571094,96.0949544 40.7772447,96.6097092 C40.0973742,97.1244609 39.2853048,97.7726689 38.3032706,97.9061233 C37.3212422,98.0395796 36.9246482,99.4885149 36.2636649,99.8888794 C35.6026817,100.289242 34.8472739,101.318751 34.7339621,101.680984 C34.6206504,102.043218 34.1107475,102.863012 34.7528666,103.129919 C35.3949626,103.39683 35.8293253,102.863012 36.8302409,103.473089 C37.8311623,104.08317 40.2484719,105.322389 42.0236883,105.150804 C43.7989018,104.979219 45.3474918,103.187117 45.3852634,102.90114 C45.4230349,102.615168 46.140674,101.299687 46.839426,102.176672 C47.5381837,103.05366 46.9149691,103.835323 46.7450014,104.559791 C46.5750367,105.284261 45.8573918,106.771326 45.9707064,107.819897 C46.0840182,108.86847 45.9707064,108.601563 45.7440829,108.582495 C45.5174594,108.563411 41.09831,108.735013 39.8329964,108.201195 C38.5676858,107.667379 37.9822427,107.114493 37.0190957,107.190755 C36.0559488,107.267012 33.3742441,107.55299 33.2231609,108.067741 C33.0720804,108.582495 32.9209972,109.268835 32.4299786,109.040052 C31.938963,108.811275 31.617915,107.648312 30.4470288,108.010546 C29.2761456,108.37278 28.4451889,109.040052 27.878636,108.86847 C27.3120743,108.696886 27.3687302,108.296524 26.707747,108.620624 C26.0467637,108.944729 26.1034196,108.811275 26.0278765,109.287899 C25.9523391,109.76452 26.7455156,110.851227 26.3111587,110.565249 C25.8767961,110.279277 25.8390274,109.802654 25.4613206,109.936108 C25.0836167,110.069562 25.0458452,110.3746 24.9136491,110.736834 C24.7814501,111.09907 24.7814501,110.698706 24.838106,110.088626 C24.8947619,109.478548 25.1213854,108.086808 24.5359423,108.429975 C23.9505018,108.773147 23.3084,108.04868 22.9118118,109.573874 C22.5152207,111.09907 23.0440079,111.40411 22.722957,111.32785 C22.4019118,111.251589 22.0619737,110.584316 21.5143022,110.241146 C20.9666278,109.897977 19.0969897,109.76452 18.7192858,110.164888 C18.341579,110.565249 17.1895801,111.690084 16.1508901,111.63289 C15.1122,111.575694 14.4323324,111.518499 13.7146933,110.660575 C12.9970541,109.802654 11.3729181,111.156266 11.2218377,111.365979 C11.0707544,111.575694 11.2407422,111.823538 10.7308221,111.899794 C10.2209221,111.976056 9.50328006,111.671017 10.1264918,113.386863 C10.7497064,115.102709 11.2218377,117.276111 13.1859032,117.69554 C15.1499716,118.114969 15.5276783,117.237984 16.3208548,116.380062 C17.114037,115.522137 17.4539751,115.274294 18.4926594,115.655591 C19.5313495,116.036889 19.8524004,115.789045 20.286763,115.350553 C20.72112,114.91206 21.2310228,114.931124 24.4981737,115.636528 C27.7653242,116.341928 29.9371288,116.360995 30.4847975,116.742295 C31.032469,117.123593 32.203358,117.619281 32.6566021,117.333306 C33.1098491,117.047335 34.2429637,116.475385 34.8284039,116.704162 C35.4138498,116.932944 35.357194,117.504891 35.2249979,117.828997 C35.0927989,118.153103 35.3383067,119.220737 35.8293253,119.468581 C36.3203438,119.716425 35.9237498,120.440892 35.6593577,120.841257 C35.3949626,121.241622 34.0729961,121.260688 35.5082744,122.747752 C36.9435527,124.23482 36.0748331,125.283388 36.0937174,125.588429 C36.1126219,125.893469 35.8293253,126.922978 36.5469644,126.007861 C37.2646036,125.092742 37.9067025,127.170818 38.133326,128.066874 C38.3599495,128.962923 38.7376563,129.687391 39.6441473,129.115444 C40.5506356,128.543494 40.324015,127.533055 41.2493933,127.170818 C42.1747716,126.808585 42.6657843,126.827652 43.5345096,126.122248 C44.4032321,125.416845 45.7629673,124.825831 45.2152957,126.160379 C44.6676242,127.494924 43.3456548,127.304275 42.8924107,128.009679 C42.4391637,128.715077 41.2871619,129.916168 41.09831,131.021936 C40.9094551,132.127704 40.7772619,132.223027 41.09831,132.604328 C41.4193609,132.985626 42.4391637,132.223027 41.6459815,133.080949 C40.8527993,133.938873 39.7952278,134.758666 40.2862463,135.178095 C40.7772619,135.597524 41.4004737,135.959757 42.458048,135.692847 C43.5156224,135.425941 44.7431644,133.996068 45.3286075,133.671965 C45.9140477,133.347859 46.2162114,132.070509 48.8034943,132.566197 C51.3907744,133.061887 51.0130705,132.909366 50.257657,133.2716 C49.5022491,133.633834 49.7099883,133.691029 48.5768708,133.61477 C47.4437563,133.538511 47.2737886,133.977004 47.0282808,134.205784 C46.782773,134.43456 46.6883456,134.739602 45.7629673,134.987446 C44.837589,135.23529 43.1568029,137.732801 43.1568029,137.923453 C43.1568029,138.114102 42.8924107,138.342882 44.0066381,138.914828 C45.1208712,139.486778 45.6874271,140.783195 44.9320164,141.107295 C44.1766057,141.431401 42.0614569,141.564858 42.0614569,141.888963 C42.0614569,142.213063 42.4202765,143.242572 41.9481452,143.261636 C41.4760139,143.280721 41.0794256,143.032859 40.8905737,143.890781 C40.7017189,144.748705 41.3060491,144.977482 40.1540473,145.225329 C39.0020455,145.473172 37.9822427,146.350158 37.3968025,146.254835 C36.8113594,146.159506 35.9048683,145.682885 34.7906352,146.807718 C33.6764078,147.932547 33.0909619,147.741898 32.90211,147.646575 C32.713258,147.551252 32.203358,147.875355 31.5990277,146.140445 C30.9947003,144.405532 29.9182416,143.337898 29.483879,143.85265 C29.0495192,144.367404 28.973979,145.053744 28.8795516,146.254835 C28.785127,147.455926 28.0108292,147.81816 28.709584,148.16133 C29.4083388,148.5045 29.5027662,148.77141 29.0684035,149.55307 C28.6340438,150.334732 28.256337,150.563512 28.3885359,151.078267 C28.520732,151.593018 28.652931,151.859929 28.4640761,152.527201 C28.2752242,153.194477 27.6520096,153.709228 28.8795516,153.899877 C30.1070936,154.090526 32.1655865,153.613903 32.713258,153.461382 C33.2609295,153.308864 34.3751598,152.260291 36.2259135,152.851307 C38.0766701,153.442321 38.7565377,153.194477 39.2853249,153.213541 C39.814115,153.232625 42.2314274,153.213541 42.6280157,152.984758 C43.0246039,152.755981 43.9122135,151.917124 44.4410007,152.622524 C44.9697879,153.327931 45.3286075,154.223983 46.9338563,154.014268 C48.5391022,153.804554 48.2935915,153.63297 49.5022491,153.51858 C50.7109039,153.404187 50.5031648,153.080087 50.8997588,152.736915 C51.296347,152.393748 51.7307097,152.012447 53.5814634,152.622524 C55.43222,153.232605 55.1111691,153.442321 56.074316,153.823622 C57.0374659,154.204917 62.4575338,158.589855 62.4575338,158.589855 L69.9100708,166.033811 L69.9100708,166.033811 Z" id="iceland" fill="#2E2E2C"></path>
                    <path d="M43.3540498,142.307069 L57.2055775,133.844565 C59.8778414,138.627609 62.3087718,142.674326 68.1395578,142.674326 C73.7286508,142.674326 77.2524048,140.46723 77.2524048,131.882114 L77.2524048,73.4980131 L94.2617363,73.4980131 L94.2617363,132.125018 C94.2617363,149.909981 83.9350398,158.005228 68.8685853,158.005228 C55.2616232,158.005228 47.3633434,150.891025 43.3540498,142.305619" id="j" fill="#F3DF49"></path>
                    <path d="M103.500637,140.467158 L117.350369,132.371911 C120.996226,138.382529 125.734548,142.797954 134.117649,142.797954 C141.165516,142.797954 145.659631,139.240744 145.659631,134.334362 C145.659631,128.447009 141.043054,126.361655 133.266877,122.928362 L129.015532,121.087363 C116.743445,115.814159 108.602754,109.190842 108.602754,95.2082413 C108.602754,82.3295874 118.322526,72.5166066 133.510365,72.5166066 C144.323679,72.5166066 152.099496,76.3193316 157.687871,86.2544894 L144.444345,94.8398966 C141.528234,89.5663297 138.370072,87.481339 133.510365,87.481339 C128.528915,87.481339 125.369675,90.6702769 125.369675,94.8398966 C125.369675,99.9916476 128.528915,102.077001 135.818115,105.266302 L140.070179,107.105851 C154.528631,113.361549 162.669322,119.739062 162.669322,134.08892 C162.669322,149.544174 150.641081,158.006678 134.482163,158.006678 C118.687399,158.006678 108.481369,150.402679 103.500637,140.467158" id="s" fill="#F3DF49"></path>
                </g>
            </g>
        </g>
    </g>
</svg>