<?xml version="1.0" encoding="utf-8"?>
<!-- Generator: Adobe Illustrator 16.0.4, SVG Export Plug-In . SVG Version: 6.00 Build 0)  -->
<!DOCTYPE svg PUBLIC "-//W3C//DTD SVG 1.1//EN" "http://www.w3.org/Graphics/SVG/1.1/DTD/svg11.dtd">
<svg version="1.1" id="Layer_1" xmlns="http://www.w3.org/2000/svg" xmlns:xlink="http://www.w3.org/1999/xlink" x="0px" y="0px"
	 width="181px" height="209px" viewBox="0 0 181 209" enable-background="new 0 0 181 209" xml:space="preserve">
<g>
	<g>
		<path fill="#143457" d="M4.213,154.577V54.135l86.896-50.23l86.896,50.229v100.442l-86.896,50.23L4.213,154.577z"/>
		<path fill="#4798C5" d="M90.385,8.101l83.276,48.132v96.248l-83.276,48.133L7.109,152.479V56.232L90.385,8.101L90.385,8.101z
			 M90.385-0.288L-0.132,52.031v104.647L90.385,209l90.517-52.322V52.031L90.385-0.288z"/>
	</g>
	<g>
		<path fill="#FFFFFF" d="M129.256,131.197c-6.087,0-11.807-1.973-16.547-5.704c-1.084-0.854-1.271-2.429-0.417-3.515
			s2.431-1.271,3.515-0.418c3.846,3.031,8.498,4.633,13.449,4.633c12.041,0,21.838-9.797,21.838-21.837
			c0-12.042-9.797-21.838-21.838-21.838c-4.902,0-9.535,1.587-13.395,4.587c-1.09,0.852-2.661,0.653-3.51-0.437
			c-0.85-1.091-0.654-2.663,0.438-3.512c4.743-3.693,10.438-5.644,16.465-5.644c14.8,0,26.843,12.042,26.843,26.843
			C156.098,119.156,144.057,131.197,129.256,131.197"/>
		<path fill="#FFFFFF" d="M88.594,94.917c0-1.41,1.079-2.531,2.489-2.531s2.533,1.121,2.533,2.531v19.17
			c0,1.411-1.122,2.489-2.533,2.489c-1.368,0-2.489-1.078-2.489-2.489V94.917z"/>
		<path fill="#FFFFFF" d="M24.67,94.946c0-1.411,1.079-2.529,2.49-2.529c1.411,0,2.532,1.118,2.532,2.529v19.169
			c0,1.41-1.122,2.488-2.532,2.488c-1.368,0-2.49-1.078-2.49-2.488V94.946z"/>
		<path fill="#FFFFFF" d="M129.216,92.386c-3.321,0-6.245,1.036-8.386,2.958c-2.312,2.069-3.717,5.16-3.725,9.104v0.003
			c0,3.713-3.188,7.156-7.107,7.156c-1.502,0-2.893-0.467-4.042-1.268c-1.854-1.279-3.065-3.423-3.065-5.839
			c0-3.92,3.19-7.108,7.107-7.108c1.167,0,2.273,0.27,3.293,0.807c1.227,0.645,2.738,0.173,3.378-1.054
			c0.372-0.698,0.372-1.496,0.082-2.166h-0.006c-0.216-0.499-0.604-0.937-1.127-1.212c-1.72-0.905-3.661-1.379-5.62-1.379
			c-6.678,0-12.111,5.436-12.111,12.112c0,3.862,1.821,7.315,4.654,9.532c2.059,1.617,4.645,2.576,7.457,2.576
			c3.914,0,7.393-1.869,9.607-4.754c1.562-2.029,2.49-4.387,2.502-7.357h0.002v-0.051c0.01-1.465,0.518-2.958,1.423-4.188
			c1.227-1.672,3.202-2.87,5.684-2.87c3.921,0,7.106,3.191,7.106,7.108c0,3.92-3.188,7.108-7.106,7.108
			c-2.321,0-4.396-1.123-5.688-2.854c-0.543,1.718-1.396,3.287-2.498,4.651c2.152,1.994,5.029,3.205,8.188,3.205
			c6.678,0,12.112-5.436,12.112-12.111C141.329,97.82,135.893,92.386,129.216,92.386"/>
		<path fill="#FFFFFF" d="M83.822,87.35c0-1.411-1.121-2.529-2.532-2.529s-2.489,1.118-2.489,2.529v7.353
			c-1.996-1.448-4.445-2.303-7.091-2.303c-6.68,0-12.113,5.434-12.113,12.113c0,6.676,5.433,12.109,12.113,12.109
			c6.679,0,12.112-5.435,12.112-12.109c0-0.058-0.005-0.114-0.005-0.171c0-0.015,0.005-0.028,0.005-0.042V87.35z M71.709,111.617
			c-3.92,0-7.108-3.188-7.108-7.104c0-3.921,3.188-7.108,7.108-7.108c3.815,0,6.926,3.023,7.091,6.799v0.097
			c0,0.036,0.009,0.067,0.011,0.104c0,0.037,0.006,0.071,0.006,0.108C78.817,108.43,75.626,111.617,71.709,111.617"/>
		<path fill="#FFFFFF" d="M55.293,102.054c-0.38-5.294-4.712-9.489-10.063-9.66c-0.006-0.002-0.014-0.002-0.025,0
			c-0.1-0.008-0.205-0.008-0.315-0.008c-0.099,0-0.201,0-0.295,0.008c-5.376,0.146-9.74,4.36-10.106,9.686
			c-0.014,0.114-0.028,0.244-0.025,0.363v11.647c0,1.413,1.121,2.489,2.492,2.489c1.414,0,2.529-1.076,2.529-2.489v-11.661
			c0-0.02,0-0.034-0.005-0.054c0.224-2.788,2.569-4.985,5.41-4.985c2.859,0,5.209,2.212,5.417,5.02c0,0.005,0.002,0.011,0,0.02
			v11.661c0,1.413,1.115,2.489,2.486,2.489c1.411,0,2.532-1.076,2.532-2.489V102.43C55.325,102.298,55.316,102.173,55.293,102.054"
			/>
	</g>
	<g enable-background="new    ">
		<path fill="#FFFFFF" d="M39.144,160.516l-0.349,0.604l-0.746-0.43l0.372-0.645c0.366-0.635,0.335-1.162-0.238-1.494
			c-0.564-0.325-1.046-0.094-1.413,0.54l-2.151,3.726c-0.367,0.635-0.326,1.168,0.238,1.494c0.574,0.331,1.046,0.094,1.413-0.541
			l0.813-1.408l-0.725-0.419l0.407-0.705l1.47,0.849l-1.198,2.074c-0.616,1.067-1.526,1.481-2.614,0.854
			c-1.077-0.622-1.174-1.617-0.558-2.685l2.104-3.646c0.616-1.066,1.527-1.481,2.604-0.859
			C39.664,158.452,39.76,159.448,39.144,160.516z"/>
		<path fill="#FFFFFF" d="M41.576,163.812l-0.407,0.705l-1.722-0.994L38,166.031l2.114,1.221l-0.413,0.715l-2.9-1.675l4.069-7.048
			l2.9,1.674l-0.413,0.715l-2.114-1.221l-1.39,2.406L41.576,163.812z"/>
		<path fill="#FFFFFF" d="M41.443,168.973l3.657-6.334l-1.299-0.75l0.413-0.715l3.373,1.947l-0.413,0.715l-1.299-0.75l-3.657,6.334
			L41.443,168.973z"/>
		<path fill="#FFFFFF" d="M48.906,163.883l-4.069,7.049l-0.786-0.454l4.069-7.048L48.906,163.883z"/>
		<path fill="#FFFFFF" d="M46.337,171.797l-0.705-0.406l4.069-7.049l0.997,0.576l-1.31,6.036l2.941-5.095l0.695,0.401l-4.069,7.048
			l-0.816-0.471l1.489-6.74L46.337,171.797z"/>
		<path fill="#FFFFFF" d="M55.48,167.679c1.098,0.634,1.218,1.589,0.59,2.676l-2.052,3.555c-0.622,1.078-1.509,1.452-2.607,0.818
			l-1.651-0.954l4.069-7.048L55.48,167.679z M51.814,174.007c0.563,0.325,1.039,0.13,1.411-0.515l2.093-3.625
			c0.372-0.645,0.304-1.154-0.27-1.485l-0.846-0.488l-3.244,5.619L51.814,174.007z"/>
		<path fill="#FFFFFF" d="M58.602,169.481l-4.069,7.048l-0.785-0.453l4.069-7.049L58.602,169.481z"/>
		<path fill="#FFFFFF" d="M61.537,173.444l-0.366,0.634l-0.746-0.43l0.39-0.675c0.366-0.635,0.335-1.162-0.238-1.493
			c-0.564-0.326-1.047-0.095-1.413,0.539l-2.151,3.727c-0.367,0.635-0.325,1.168,0.239,1.493c0.574,0.331,1.046,0.095,1.413-0.54
			l0.529-0.916l0.746,0.43l-0.506,0.877c-0.616,1.066-1.526,1.48-2.614,0.853c-1.077-0.622-1.174-1.617-0.558-2.685l2.104-3.645
			c0.616-1.067,1.527-1.482,2.604-0.86C62.057,171.381,62.153,172.377,61.537,173.444z"/>
		<path fill="#FFFFFF" d="M62.191,173.822c0.622-1.077,1.557-1.465,2.634-0.843c1.087,0.628,1.22,1.632,0.598,2.708l-2.104,3.646
			c-0.616,1.067-1.557,1.464-2.644,0.836c-1.077-0.622-1.204-1.635-0.588-2.702L62.191,173.822z M60.838,177.955
			c-0.372,0.644-0.315,1.174,0.249,1.499c0.574,0.331,1.051,0.109,1.423-0.534l2.151-3.726c0.366-0.635,0.325-1.168-0.249-1.499
			c-0.564-0.326-1.057-0.101-1.423,0.533L60.838,177.955z"/>
		<path fill="#FFFFFF" d="M64.299,180.865l-0.564,0.978l-0.755-0.437l0.564-0.977L64.299,180.865z"/>
		<path fill="#FFFFFF" d="M69.396,175.713l-4.069,7.049l-0.785-0.453l4.069-7.049L69.396,175.713z"/>
		<path fill="#FFFFFF" d="M69.159,177.845c0.622-1.077,1.557-1.464,2.634-0.842c1.087,0.628,1.219,1.631,0.597,2.708l-2.104,3.645
			c-0.616,1.068-1.556,1.465-2.644,0.837c-1.077-0.622-1.204-1.635-0.588-2.702L69.159,177.845z M67.806,181.978
			c-0.372,0.644-0.315,1.174,0.249,1.5c0.574,0.331,1.051,0.109,1.423-0.535l2.151-3.726c0.366-0.634,0.325-1.168-0.249-1.499
			c-0.564-0.325-1.057-0.101-1.423,0.534L67.806,181.978z"/>
	</g>
	<g enable-background="new    ">
		<path fill="#FFFFFF" d="M111.494,185.321l-0.754,0.437l-4.406-4.935l3.244,5.618l-0.686,0.396l-4.068-7.048l1.098-0.634
			l4.406,4.96l-2.131-6.273l1.098-0.634l4.068,7.048l-0.744,0.431l-3.273-5.669L111.494,185.321z"/>
		<path fill="#FFFFFF" d="M114.145,181.912l0.549,1.576l-0.727,0.419l-2.719-7.827l1.137-0.657l5.42,6.27l-0.787,0.453l-1.09-1.263
			L114.145,181.912z M113.855,181.18l1.572-0.907l-3.145-3.609L113.855,181.18z"/>
		<path fill="#FFFFFF" d="M116,173.336c1.098-0.634,1.984-0.26,2.611,0.827l2.053,3.555c0.623,1.077,0.502,2.033-0.594,2.667
			l-1.652,0.953l-4.07-7.049L116,173.336z M119.646,179.676c0.564-0.326,0.633-0.836,0.26-1.48l-2.092-3.624
			c-0.373-0.645-0.848-0.84-1.422-0.509l-0.846,0.488l3.244,5.619L119.646,179.676z"/>
		<path fill="#FFFFFF" d="M122.646,173.661l0.406,0.704l-1.723,0.994l1.447,2.508l2.115-1.221l0.412,0.715l-2.9,1.674l-4.068-7.048
			l2.9-1.675l0.412,0.715l-2.115,1.221l1.391,2.407L122.646,173.661z"/>
	</g>
	<g enable-background="new    ">
		<path fill="#4798C5" d="M131.275,167.914c1.15,1.994,0.906,3.666-0.029,4.206c-0.482,0.279-0.904,0.2-1.191-0.226
			c0.055,0.559-0.143,1.009-0.641,1.283c-0.762,0.426-1.389-0.057-1.816-1.006l-0.471-1.071c-0.438-0.968-0.357-1.78,0.4-2.19
			c0.453-0.262,0.885-0.188,1.25,0.164l-0.291-0.664l0.686-0.396l1.365,3.064c0.104,0.249,0.291,0.409,0.543,0.265
			c0.775-0.448,0.182-2.079-0.396-3.061c-0.809-1.399-1.986-1.928-3.498-1.056c-2.014,1.162-1.984,3.375-0.682,5.63
			c1.006,1.742,2.404,2.33,4.158,1.318c0.703-0.406,1.268-0.92,1.617-1.779l0.34,0.729c-0.371,0.777-0.945,1.271-1.65,1.678
			c-2.215,1.278-3.965,0.478-5.164-1.597c-1.383-2.397-1.449-5.164,1.047-6.605C128.875,165.433,130.316,166.252,131.275,167.914z
			 M127.842,170.782l0.434,0.958c0.24,0.559,0.617,0.838,1.098,0.575c0.469-0.257,0.51-0.765,0.258-1.344l-0.459-1.024
			c-0.223-0.502-0.605-0.725-1.049-0.469C127.654,169.736,127.588,170.204,127.842,170.782z"/>
	</g>
	<g enable-background="new    ">
		<path fill="#FFFFFF" d="M136.113,163.992l0.367,0.635l-0.746,0.43l-0.391-0.675c-0.365-0.634-0.838-0.871-1.412-0.54
			c-0.564,0.326-0.605,0.859-0.238,1.494l2.15,3.725c0.367,0.635,0.85,0.866,1.414,0.541c0.574-0.332,0.604-0.859,0.238-1.494
			l-0.529-0.916l0.746-0.43l0.506,0.875c0.615,1.068,0.518,2.063-0.568,2.691c-1.078,0.622-1.988,0.208-2.604-0.859l-2.105-3.646
			c-0.615-1.067-0.52-2.062,0.557-2.685C134.586,162.511,135.498,162.925,136.113,163.992z"/>
		<path fill="#FFFFFF" d="M140.154,163.552l0.408,0.705l-1.723,0.994l1.447,2.507l2.115-1.221l0.412,0.715l-2.9,1.674l-4.068-7.048
			l2.9-1.675l0.412,0.715l-2.115,1.222l1.391,2.406L140.154,163.552z"/>
		<path fill="#FFFFFF" d="M141.041,158.879c1.107-0.641,1.896-0.344,2.5,0.704l0.332,0.573c0.447,0.775,0.455,1.416-0.039,1.956
			c0.754-0.181,1.299,0.203,1.734,0.958l0.635,1.098c0.18,0.312,0.359,0.599,0.629,0.765l-0.795,0.459
			c-0.207-0.148-0.352-0.307-0.625-0.78l-0.641-1.107c-0.459-0.795-0.977-0.832-1.631-0.454l-0.555,0.319l1.738,3.011l-0.785,0.454
			l-4.068-7.049L141.041,158.879z M142.758,162.317c0.625-0.36,0.881-0.776,0.439-1.542l-0.391-0.675
			c-0.365-0.634-0.789-0.833-1.373-0.496l-0.766,0.442l1.506,2.607L142.758,162.317z"/>
		<path fill="#FFFFFF" d="M148.201,164.142l-0.705,0.407l-4.068-7.049l0.996-0.575l4.572,4.153l-2.941-5.095l0.695-0.401l4.07,7.049
			l-0.816,0.471l-5.094-4.659L148.201,164.142z"/>
	</g>
</g>
</svg>
