<svg id="Layer_1" data-name="Layer 1" xmlns="http://www.w3.org/2000/svg" xmlns:xlink="http://www.w3.org/1999/xlink" viewBox="0 0 124.8 142.8569"><defs><linearGradient id="linear-gradient" x1="87.9966" y1="51.7451" x2="150.4053" y2="51.7451" gradientUnits="userSpaceOnUse"><stop offset="0" stop-color="#f37f64"/><stop offset="1" stop-color="#f4cea4"/></linearGradient><linearGradient id="linear-gradient-2" x1="31.3767" y1="69.094" x2="89.1892" y2="35.6565" gradientUnits="userSpaceOnUse"><stop offset="0" stop-color="#866479"/><stop offset="0.8513" stop-color="#e27c68"/><stop offset="1" stop-color="#f38065"/></linearGradient><linearGradient id="linear-gradient-3" x1="30.35" y1="142.04" x2="30.35" y2="71.28" gradientUnits="userSpaceOnUse"><stop offset="0" stop-color="#4e9e9e"/><stop offset="1" stop-color="#866479"/></linearGradient><linearGradient id="linear-gradient-4" x1="30.59" y1="157.255" x2="93" y2="157.255" gradientUnits="userSpaceOnUse"><stop offset="0" stop-color="#4e9e9e"/><stop offset="1" stop-color="#83c0a9"/></linearGradient><linearGradient id="linear-gradient-5" x1="150.65" y1="137.72" x2="150.65" y2="66.95" gradientUnits="userSpaceOnUse"><stop offset="0" stop-color="#ccdfb5"/><stop offset="0.505" stop-color="#f2eebe"/><stop offset="1" stop-color="#f4cea4"/></linearGradient><linearGradient id="linear-gradient-6" x1="91" y1="156.3934" x2="152.9" y2="156.3934" gradientUnits="userSpaceOnUse"><stop offset="0" stop-color="#83c0a9"/><stop offset="1" stop-color="#ccdfb5"/></linearGradient></defs><title>interledger_hex</title><path d="M63.8008,146.93v-8.3857H65.16V146.93H63.8008Z" transform="translate(-28.1 -33.0731)" style="fill:#404041"/><path d="M68.0244,146.93h-1.335v-6.1211h1.3223v0.38a3.409,3.409,0,0,1,1.6895-.5146,1.8374,1.8374,0,0,1,1.6709.6924,4.3742,4.3742,0,0,1,.4473,2.2822V146.93H70.4971v-3.2441a3.3273,3.3273,0,0,0-.2139-1.4082,0.89,0.89,0,0,0-.876-0.416,3.0319,3.0319,0,0,0-1.1992.2451l-0.1836.0732v4.75Z" transform="translate(-28.1 -33.0731)" style="fill:#404041"/><path d="M76.4219,141.9473H74.7334v2.6934a2.8686,2.8686,0,0,0,.1094.9912,0.5553,0.5553,0,0,0,.5635.2451L76.41,145.84l0.0615,1.0654a7.2063,7.2063,0,0,1-1.249.1592,1.7557,1.7557,0,0,1-1.4258-.4775,3.001,3.001,0,0,1-.3857-1.8v-2.84H72.627v-1.1387h0.7842v-1.7744h1.3223v1.7744h1.6885v1.1387Z" transform="translate(-28.1 -33.0731)" style="fill:#404041"/><path d="M81.625,145.8281l0.3428-.0371,0.0244,0.9922a12.6924,12.6924,0,0,1-2.4727.2813,2.35,2.35,0,0,1-1.9531-.7471,3.84,3.84,0,0,1-.5937-2.3867q0-3.2563,2.6572-3.2568,2.5708,0,2.57,2.8037l-0.0859.9551H78.3193a1.6755,1.6755,0,0,0,.3311,1.1133,1.5589,1.5589,0,0,0,1.1875.3555Q80.7065,145.9014,81.625,145.8281Zm-0.7344-2.4238a2.0865,2.0865,0,0,0-.2881-1.2676,1.1747,1.1747,0,0,0-.9727-0.3613,1.22,1.22,0,0,0-.998.38,2.0173,2.0173,0,0,0-.3242,1.249h2.583Z" transform="translate(-28.1 -33.0731)" style="fill:#404041"/><path d="M83.24,146.93v-6.1211h1.3223v0.7344a5.8346,5.8346,0,0,1,2.0811-.8691v1.335a8.598,8.598,0,0,0-1.7988.5381l-0.27.11V146.93H83.24Z" transform="translate(-28.1 -33.0731)" style="fill:#404041"/><path d="M87.4893,146.93v-8.667h1.334v8.667h-1.334Z" transform="translate(-28.1 -33.0731)" style="fill:#404041"/><path d="M94.625,145.8281l0.3428-.0371,0.0244,0.9922a12.6924,12.6924,0,0,1-2.4727.2813,2.35,2.35,0,0,1-1.9531-.7471,3.84,3.84,0,0,1-.5937-2.3867q0-3.2563,2.6572-3.2568,2.5708,0,2.57,2.8037l-0.0859.9551H91.3193a1.6755,1.6755,0,0,0,.3311,1.1133,1.5589,1.5589,0,0,0,1.1875.3555Q93.7065,145.9014,94.625,145.8281Zm-0.7344-2.4238a2.0865,2.0865,0,0,0-.2881-1.2676,1.1747,1.1747,0,0,0-.9727-0.3613,1.22,1.22,0,0,0-.998.38,2.0173,2.0173,0,0,0-.3242,1.249h2.583Z" transform="translate(-28.1 -33.0731)" style="fill:#404041"/><path d="M101.2363,138.2627v8.667H99.9141v-0.3184a3.6745,3.6745,0,0,1-1.6406.4531,2.08,2.08,0,0,1-1.7568-.7227,4.0464,4.0464,0,0,1-.5566-2.4238,3.9594,3.9594,0,0,1,.6182-2.4727,2.3242,2.3242,0,0,1,1.9277-.7715,9.6419,9.6419,0,0,1,1.3965.1592v-2.57h1.334Zm-1.543,7.3936,0.209-.085v-3.624a8.3779,8.3779,0,0,0-1.3594-.1221q-1.2363,0-1.2363,2.0566a3.0114,3.0114,0,0,0,.2881,1.5605,1.012,1.012,0,0,0,.9111.4346A3.214,3.214,0,0,0,99.6934,145.6563Z" transform="translate(-28.1 -33.0731)" style="fill:#404041"/><path d="M107.9561,147.7617q0,2.0083-2.9014,2.0078a4.3561,4.3561,0,0,1-2.0684-.3789,1.4488,1.4488,0,0,1-.6738-1.3838,1.3529,1.3529,0,0,1,.2207-0.7773,3.3246,3.3246,0,0,1,.71-0.7041,0.9923,0.9923,0,0,1-.4033-0.8936,1.8842,1.8842,0,0,1,.33-0.7959l0.11-.1836a1.9606,1.9606,0,0,1-.8818-1.8359A1.9211,1.9211,0,0,1,103.06,141.2a2.8358,2.8358,0,0,1,1.7871-.5137,4.7173,4.7173,0,0,1,1.0654.1221l0.1836,0.0371,1.8975-.0488v1.0771l-1.0156-.0615a1.6,1.6,0,0,1,.33,1.0039,1.9681,1.9681,0,0,1-.6055,1.6592,3.1447,3.1447,0,0,1-1.8916.459,2.5582,2.5582,0,0,1-.5391-0.0488,1.849,1.849,0,0,0-.1709.6426,0.3117,0.3117,0,0,0,.2266.3115,4.2622,4.2622,0,0,0,1.0957.0986,3.7591,3.7591,0,0,1,1.9951.3916A1.6418,1.6418,0,0,1,107.9561,147.7617Zm-4.333.123a0.6409,0.6409,0,0,0,.3428.6123,2.69,2.69,0,0,0,1.1748.1836q1.481,0,1.4814-.8447a0.61,0.61,0,0,0-.2627-0.6064,2.8708,2.8708,0,0,0-1.0469-.1406l-1.2-.0732a1.5914,1.5914,0,0,0-.3789.41A0.89,0.89,0,0,0,103.623,147.8848Zm0.3672-4.2422a1.2081,1.2081,0,0,0,.8691.2637,1.1876,1.1876,0,0,0,.8633-0.2637,1.129,1.129,0,0,0,.2627-0.8262,1.1125,1.1125,0,0,0-.27-0.8262,1.2081,1.2081,0,0,0-.8691-0.2637,0.98,0.98,0,0,0-1.126,1.09A1.11,1.11,0,0,0,103.99,143.6426Z" transform="translate(-28.1 -33.0731)" style="fill:#404041"/><path d="M113.1475,145.8281l0.3428-.0371,0.0244,0.9922a12.6924,12.6924,0,0,1-2.4727.2813,2.35,2.35,0,0,1-1.9531-.7471,3.84,3.84,0,0,1-.5937-2.3867q0-3.2563,2.6572-3.2568,2.5708,0,2.57,2.8037l-0.0859.9551h-3.7949a1.6756,1.6756,0,0,0,.3311,1.1133,1.5589,1.5589,0,0,0,1.1875.3555Q112.229,145.9014,113.1475,145.8281Zm-0.7344-2.4238a2.0865,2.0865,0,0,0-.2881-1.2676,1.1747,1.1747,0,0,0-.9727-0.3613,1.22,1.22,0,0,0-.998.38,2.0173,2.0173,0,0,0-.3242,1.249h2.583Z" transform="translate(-28.1 -33.0731)" style="fill:#404041"/><path d="M114.7627,146.93v-6.1211h1.3223v0.7344a5.8345,5.8345,0,0,1,2.0811-.8691v1.335a8.598,8.598,0,0,0-1.7988.5381l-0.27.11V146.93h-1.335Z" transform="translate(-28.1 -33.0731)" style="fill:#404041"/><path d="M148.4014,70.417L91,37.2051a1.0033,1.0033,0,0,0-1.002,0c-1.8741-.7348-1.6352-1.8615-2.002-3.4629a5.0142,5.0142,0,0,1,5.0073,0l57.4014,33.2119Z" transform="translate(-28.1 -33.0731)" style="fill:url(#linear-gradient)"/><path d="M90,37.21L32.6,70.42a1,1,0,0,0-.5.86c-1.7279.8706-2.6842,0.92-4,0a5.0141,5.0141,0,0,1,2.49-4.32L88,33.74Z" transform="translate(-28.1 -33.0731)" style="fill:url(#linear-gradient-2)"/><path d="M32.6,138.58c-0.5468,1.7768-.7261,2.6727-2.01,3.46a5.005,5.005,0,0,1-2.49-4.32V71.28h4v66.44A0.9873,0.9873,0,0,0,32.6,138.58Z" transform="translate(-28.1 -33.0731)" style="fill:url(#linear-gradient-3)"/><path d="M93,175.26a4.9993,4.9993,0,0,1-5,0L30.59,142.05l2.01-3.47L90,171.79a0.9935,0.9935,0,0,0,1,0C92.8471,173.11,92.7656,173.7389,93,175.26Z" transform="translate(-28.1 -33.0731)" style="fill:url(#linear-gradient-4)"/><path d="M152.9,71.28v66.44h-4V71.28a1,1,0,0,0-.5-0.86c0.1027-1.8251.9754-2.5208,2-3.47A5.0184,5.0184,0,0,1,152.9,71.28Z" transform="translate(-28.1 -33.0731)" style="fill:url(#linear-gradient-5)"/><path d="M152.9,137.72a4.9928,4.9928,0,0,1-2.49,4.32v0.01L93,175.26l-1-1.73-1-1.74,57.4-33.21a0.9873,0.9873,0,0,0,.5-0.86A10.4563,10.4563,0,0,1,152.9,137.72Z" transform="translate(-28.1 -33.0731)" style="fill:url(#linear-gradient-6)"/><path d="M115.5561,103.9159c1.7465-5.3752,1.0477-11.3883,0-16.5588-2.1947-4.7218-4.9442-9.7045-9.4554-12.9821-4.5724-3.322-10.3772-4.5056-15.6184-5.1069-5.1688.6282-10.788,1.5168-15.2992,4.7944-4.5724,3.322-7.4612,8.6636-9.6527,13.4624-1,5.11-1.7231,11.0878,0,16.391,1.7465,5.3752,5.766,9.4142,9.6527,12.9814,4.5509,2.53,9.7031,4.9778,15.2793,4.9778,5.6518,0,11.0446-2.4873,15.6383-5.0815C109.9131,113.2471,113.833,109.2191,115.5561,103.9159Z" transform="translate(-28.1 -33.0731)" style="fill:#fff"/><path d="M90.5495,120.8685a31.528,31.528,0,0,1-15.3664-3.9713c0.1746,3.5672,7.0884,7.794,15.4839,7.794s14.9185-5.1966,15.4337-7.8977A31.5267,31.5267,0,0,1,90.5495,120.8685Z" transform="translate(-28.1 -33.0731)" style="fill:#bbe2da"/><path d="M75.1831,116.8972A31.7128,31.7128,0,0,1,65.53,87.5249c-3.053.7311-4.6686,11.1065-2.6277,17.1346S72.1487,118.2137,75.1831,116.8972Z" transform="translate(-28.1 -33.0731)" style="fill:#ecd9d9"/><path d="M75.7163,75.0874a31.5281,31.5281,0,0,1,14.766-5.8193c-2.5119-2.2187-12.69-.578-17.108,2.7957s-9.6267,12.3-7.844,15.4611A31.5268,31.5268,0,0,1,75.7163,75.0874Z" transform="translate(-28.1 -33.0731)" style="fill:#fcddd1"/><path d="M90.4823,69.2681a31.7128,31.7128,0,0,1,25.0738,18.089c1.8962-3.2158-2.335-11.7063-7.9455-15.4067S91.9147,67.287,90.4823,69.2681Z" transform="translate(-28.1 -33.0731)" style="fill:#f9e1c1"/><path d="M115.5561,87.3571a31.7128,31.7128,0,0,1-9.4554,29.4364c4.3322,0.4174,10.35-5.3417,12.1973-12.3176S118.2584,87.7291,115.5561,87.3571Z" transform="translate(-28.1 -33.0731)" style="fill:#e7edd7"/><path d="M62.9026,104.6594c-1.8514,2.3361.4888,12.1555,8.3243,17.7168s17.724,4.35,19.44,2.315a31.8213,31.8213,0,0,1-15.4839-7.794A31.8219,31.8219,0,0,1,62.9026,104.6594Z" transform="translate(-28.1 -33.0731)" style="fill:#9ec7d0"/><path d="M118.298,104.4759a31.8214,31.8214,0,0,1-12.1973,12.3176,31.8219,31.8219,0,0,1-15.4337,7.8977c2.0722,2.5192,13.3266,1.2445,19.422-2.4421S119.48,107.6733,118.298,104.4759Z" transform="translate(-28.1 -33.0731)" style="fill:#90d1c2"/><path d="M65.53,87.5249a31.8218,31.8218,0,0,1,7.844-15.4611c-4.1-1.5158-11.8678,5.3472-14.2773,13.3917s-0.4748,17.2485,3.8056,19.2039A31.8213,31.8213,0,0,1,65.53,87.5249Z" transform="translate(-28.1 -33.0731)" style="fill:#f2b3bc"/><path d="M90.4823,69.2681A31.8219,31.8219,0,0,1,107.6105,71.95c1.7526-3.3188-9.3733-9.44-17.1482-9.44s-16.9543,5.3638-17.088,9.5537A31.8214,31.8214,0,0,1,90.4823,69.2681Z" transform="translate(-28.1 -33.0731)" style="fill:#fbc9b4"/><path d="M118.298,104.4759c3.7-.7195,6.4554-9.9138,3.6792-19.2261S110.6111,70.9937,107.6105,71.95a31.8214,31.8214,0,0,1,7.9455,15.4067A31.8216,31.8216,0,0,1,118.298,104.4759Z" transform="translate(-28.1 -33.0731)" style="fill:#f1dda6"/><path d="M71.2269,122.3762a31.9864,31.9864,0,0,1-2.5174-3.05,31.5283,31.5283,0,0,1-5.8069-14.667,31.5277,31.5277,0,0,1-4.0248-15.4626,32,32,0,0,1,.2192-3.7414c-2.9706.8251-6.5545,12.723-3.3008,21.54S68.4718,122.8711,71.2269,122.3762Z" transform="translate(-28.1 -33.0731)" style="fill:#978ba4"/><path d="M110.089,122.2491a31.9831,31.9831,0,0,1-3.6785,1.4517,31.5282,31.5282,0,0,1-15.7435.99,31.5276,31.5276,0,0,1-15.9495-.95,32.0007,32.0007,0,0,1-3.4905-1.3646c1.3953,4.2871,8.471,9.7955,19.4658,9.7955S108.0565,126.7708,110.089,122.2491Z" transform="translate(-28.1 -33.0731)" style="fill:#56c3c1"/><path d="M121.9771,85.25a31.9845,31.9845,0,0,1,.244,3.9471,31.5284,31.5284,0,0,1-3.9231,15.279,31.5278,31.5278,0,0,1-5.8325,14.8752,31.9988,31.9988,0,0,1-2.3764,2.898c5.09,0.3323,12.5915-5.283,15.3313-15.4861S124.7392,86.5034,121.9771,85.25Z" transform="translate(-28.1 -33.0731)" style="fill:#81c88e"/><path d="M59.097,85.4555A31.9829,31.9829,0,0,1,61.22,82.1188a31.5285,31.5285,0,0,1,12.1547-10.055,31.5276,31.5276,0,0,1,13.462-8.606,32,32,0,0,1,3.626-.9477c-4.297-2.146-14.7992-.8729-21.5058,3.517S57.8646,81.3112,59.097,85.4555Z" transform="translate(-28.1 -33.0731)" style="fill:#f49398"/><path d="M90.4624,62.51a31.9827,31.9827,0,0,1,3.8293.9877A31.5285,31.5285,0,0,1,107.6105,71.95a31.5277,31.5277,0,0,1,12.3447,10.1438,31.9943,31.9943,0,0,1,2.0218,3.1557c1.9376-3.6935-3.9415-14.8039-9.9905-19.3664S94.9676,60.4756,90.4624,62.51Z" transform="translate(-28.1 -33.0731)" style="fill:#f9bd89"/><path d="M59.097,85.4555a31.5947,31.5947,0,0,1,9.86-19.4284,31.6708,31.6708,0,0,0-13.16,40.9684A31.5994,31.5994,0,0,1,59.097,85.4555Z" transform="translate(-28.1 -33.0731)" style="fill:#835677"/><path d="M71.2269,122.3762a31.5947,31.5947,0,0,1-15.4307-15.3807,31.6708,31.6708,0,0,0,34.8965,25.1762A31.5994,31.5994,0,0,1,71.2269,122.3762Z" transform="translate(-28.1 -33.0731)" style="fill:#51797c"/><path d="M110.089,122.2491a31.5947,31.5947,0,0,1-19.3963,9.9226A31.6708,31.6708,0,0,0,125.42,106.763,31.6,31.6,0,0,1,110.089,122.2491Z" transform="translate(-28.1 -33.0731)" style="fill:#489789"/><path d="M121.9771,85.25A31.5947,31.5947,0,0,1,125.42,106.763a31.6708,31.6708,0,0,0-13.4337-40.88A31.6,31.6,0,0,1,121.9771,85.25Z" transform="translate(-28.1 -33.0731)" style="fill:#6e985f"/><path d="M90.4624,62.51a31.5947,31.5947,0,0,1,21.5242,3.3733,31.6709,31.6709,0,0,0-43.03.1437A31.6,31.6,0,0,1,90.4624,62.51Z" transform="translate(-28.1 -33.0731)" style="fill:#f37f64"/></svg>