<?xml version="1.0" encoding="UTF-8" standalone="no"?><!-- Generator: Gravit.io --><svg xmlns="http://www.w3.org/2000/svg" xmlns:xlink="http://www.w3.org/1999/xlink" style="isolation:isolate" viewBox="4 -2.98 633.4 723.98" width="633.4pt" height="723.98pt"><defs><clipPath id="_clipPath_8Z8Ca3F4Yd3g5163npJz8gduDC32GGnf"><rect x="4" y="-2.98" width="633.4" height="723.98"/></clipPath></defs><g clip-path="url(#_clipPath_8Z8Ca3F4Yd3g5163npJz8gduDC32GGnf)"><rect x="4" y="-2.98" width="633.4" height="723.98" style="fill:rgb(93,93,93)" fill-opacity="0"/><g><path d=" M 630.225 536.974 L 320.206 715.965 L 10.187 536.974 L 10.187 178.991 L 320.206 0 L 630.225 178.991 L 630.225 536.974 Z  M 600.104 519.584 L 320.206 681.185 L 40.308 519.584 L 40.308 196.381 L 320.206 34.78 L 600.104 196.381 L 600.104 519.584 Z " fill-rule="evenodd" fill="rgb(0,0,0)"/><path d=" M 629 536.28 L 320.23 714.55 L 11.46 536.28 L 11.46 179.74 L 320.23 1.47 L 629 179.74 L 629 536.28 Z  M 599 518.96 L 320.23 679.91 L 41.46 518.96 L 41.46 197.06 L 320.23 36.11 L 599 197.06 L 599 518.96 Z " fill-rule="evenodd" fill="rgb(59,59,59)"/><g opacity="0.8"><path d=" M 613.339 527.618 L 319.567 697.227 L 25.795 527.618 L 25.795 188.4 L 319.567 18.79 L 613.339 188.4 L 613.339 527.618 Z " fill="rgb(59,59,59)"/></g></g><clipPath id="_clipPath_U6K4X3eRGnHQFmcZ9fdj2UZjQ4BJnJaW"><path d=" M 11 0 L 637.4 0 L 637.4 720 L 11 720 L 11 0 Z " fill="rgb(255,255,255)"/></clipPath><g clip-path="url(#_clipPath_U6K4X3eRGnHQFmcZ9fdj2UZjQ4BJnJaW)"><g><path d=" M 361.221 327.138 C 361.221 336.674 353.491 344.405 343.953 344.405 C 334.42 344.405 326.69 336.674 326.69 327.138 C 326.69 317.606 334.42 309.872 343.953 309.872 C 353.491 309.872 361.221 317.606 361.221 327.138 Z " fill="rgb(169,171,174)"/><path d=" M 361.221 327.138 C 361.221 336.674 353.491 344.405 343.953 344.405 C 334.42 344.405 326.69 336.674 326.69 327.138 C 326.69 317.606 334.42 309.872 343.953 309.872 C 353.491 309.872 361.221 317.606 361.221 327.138 Z " fill="none" vector-effect="non-scaling-stroke" stroke-width="1" stroke="rgb(42,42,42)" stroke-linejoin="miter" stroke-linecap="square" stroke-miterlimit="3"/><path d=" M 301.748 355.509 C 301.748 365.047 294.018 372.774 284.485 372.774 C 274.949 372.774 267.218 365.047 267.218 355.509 C 267.218 345.974 274.949 338.243 284.485 338.243 C 294.018 338.243 301.748 345.974 301.748 355.509 Z " fill="rgb(169,171,174)"/><path d=" M 301.748 355.509 C 301.748 365.047 294.018 372.774 284.485 372.774 C 274.949 372.774 267.218 365.047 267.218 355.509 C 267.218 345.974 274.949 338.243 284.485 338.243 C 294.018 338.243 301.748 345.974 301.748 355.509 Z " fill="none" vector-effect="non-scaling-stroke" stroke-width="1" stroke="rgb(42,42,42)" stroke-linejoin="miter" stroke-linecap="square" stroke-miterlimit="3"/><path d=" M 358.842 384.304 C 358.842 393.838 350.52 401.569 340.252 401.569 C 329.99 401.569 321.67 393.838 321.67 384.304 C 321.67 374.772 329.99 367.038 340.252 367.038 C 350.52 367.038 358.842 374.772 358.842 384.304 Z " fill="rgb(244,137,57)"/><path d=" M 358.842 384.304 C 358.842 393.838 350.52 401.569 340.252 401.569 C 329.99 401.569 321.67 393.838 321.67 384.304 C 321.67 374.772 329.99 367.038 340.252 367.038 C 350.52 367.038 358.842 374.772 358.842 384.304 Z " fill="none" vector-effect="non-scaling-stroke" stroke-width="1" stroke="rgb(42,42,42)" stroke-linejoin="miter" stroke-linecap="square" stroke-miterlimit="3"/><path d=" M 313.328 330.761 C 313.328 340.297 305.599 348.024 296.063 348.024 C 286.529 348.024 278.802 340.297 278.802 330.761 C 278.802 321.227 286.529 313.495 296.063 313.495 C 305.599 313.495 313.328 321.227 313.328 330.761 Z " fill="rgb(244,137,57)"/><path d=" M 313.328 330.761 C 313.328 340.297 305.599 348.024 296.063 348.024 C 286.529 348.024 278.802 340.297 278.802 330.761 C 278.802 321.227 286.529 313.495 296.063 313.495 C 305.599 313.495 313.328 321.227 313.328 330.761 Z " fill="none" vector-effect="non-scaling-stroke" stroke-width="1" stroke="rgb(42,42,42)" stroke-linejoin="miter" stroke-linecap="square" stroke-miterlimit="3"/><path d=" M 347.547 338.319 C 347.547 347.856 339.816 355.586 330.281 355.586 C 320.743 355.586 313.016 347.856 313.016 338.319 C 313.016 328.785 320.743 321.055 330.281 321.055 C 339.816 321.055 347.547 328.785 347.547 338.319 Z " fill="rgb(244,137,57)"/><path d=" M 347.547 338.319 C 347.547 347.856 339.816 355.586 330.281 355.586 C 320.743 355.586 313.016 347.856 313.016 338.319 C 313.016 328.785 320.743 321.055 330.281 321.055 C 339.816 321.055 347.547 328.785 347.547 338.319 Z " fill="none" vector-effect="non-scaling-stroke" stroke-width="1" stroke="rgb(42,42,42)" stroke-linejoin="miter" stroke-linecap="square" stroke-miterlimit="3"/><path d=" M 373.304 348.117 C 373.304 357.653 365.574 365.383 356.039 365.383 C 346.505 365.383 338.774 357.653 338.774 348.117 C 338.774 338.583 346.505 330.854 356.039 330.854 C 365.574 330.854 373.304 338.583 373.304 348.117 Z " fill="rgb(169,171,174)"/><path d=" M 373.304 348.117 C 373.304 357.653 365.574 365.383 356.039 365.383 C 346.505 365.383 338.774 357.653 338.774 348.117 C 338.774 338.583 346.505 330.854 356.039 330.854 C 365.574 330.854 373.304 338.583 373.304 348.117 Z " fill="none" vector-effect="non-scaling-stroke" stroke-width="1" stroke="rgb(42,42,42)" stroke-linejoin="miter" stroke-linecap="square" stroke-miterlimit="3"/><path d=" M 310.121 378.49 C 310.121 388.029 302.39 395.761 292.851 395.761 C 283.317 395.761 275.588 388.029 275.588 378.49 C 275.588 368.956 283.317 361.227 292.851 361.227 C 302.39 361.227 310.121 368.956 310.121 378.49 Z " fill="rgb(244,137,57)"/><path d=" M 310.121 378.49 C 310.121 388.029 302.39 395.761 292.851 395.761 C 283.317 395.761 275.588 388.029 275.588 378.49 C 275.588 368.956 283.317 361.227 292.851 361.227 C 302.39 361.227 310.121 368.956 310.121 378.49 Z " fill="none" vector-effect="non-scaling-stroke" stroke-width="1" stroke="rgb(42,42,42)" stroke-linejoin="miter" stroke-linecap="square" stroke-miterlimit="3"/><path d=" M 335.91 319.402 C 335.91 328.936 328.18 336.667 318.645 336.667 C 309.112 336.667 301.385 328.936 301.385 319.402 C 301.385 309.866 309.112 302.137 318.645 302.137 C 328.18 302.137 335.91 309.866 335.91 319.402 Z " fill="rgb(169,171,174)"/><path d=" M 335.91 319.402 C 335.91 328.936 328.18 336.667 318.645 336.667 C 309.112 336.667 301.385 328.936 301.385 319.402 C 301.385 309.866 309.112 302.137 318.645 302.137 C 328.18 302.137 335.91 309.866 335.91 319.402 Z " fill="none" vector-effect="non-scaling-stroke" stroke-width="1" stroke="rgb(42,42,42)" stroke-linejoin="miter" stroke-linecap="square" stroke-miterlimit="3"/><path d=" M 370.441 369.819 C 370.441 379.353 362.712 387.084 353.177 387.084 C 343.641 387.084 335.91 379.353 335.91 369.819 C 335.91 360.284 343.641 352.553 353.177 352.553 C 362.712 352.553 370.441 360.284 370.441 369.819 Z " fill="rgb(244,137,57)"/><path d=" M 370.441 369.819 C 370.441 379.353 362.712 387.084 353.177 387.084 C 343.641 387.084 335.91 379.353 335.91 369.819 C 335.91 360.284 343.641 352.553 353.177 352.553 C 362.712 352.553 370.441 360.284 370.441 369.819 Z " fill="none" vector-effect="non-scaling-stroke" stroke-width="1" stroke="rgb(42,42,42)" stroke-linejoin="miter" stroke-linecap="square" stroke-miterlimit="3"/><path d=" M 335.91 391.243 C 335.91 400.78 328.18 408.509 318.645 408.509 C 309.112 408.509 301.385 400.78 301.385 391.243 C 301.385 381.709 309.112 373.976 318.645 373.976 C 328.18 373.976 335.91 381.709 335.91 391.243 Z " fill="rgb(169,171,174)"/><path d=" M 335.91 391.243 C 335.91 400.78 328.18 408.509 318.645 408.509 C 309.112 408.509 301.385 400.78 301.385 391.243 C 301.385 381.709 309.112 373.976 318.645 373.976 C 328.18 373.976 335.91 381.709 335.91 391.243 Z " fill="none" vector-effect="non-scaling-stroke" stroke-width="1" stroke="rgb(42,42,42)" stroke-linejoin="miter" stroke-linecap="square" stroke-miterlimit="3"/><path d=" M 326.948 373.978 C 326.948 383.514 319.219 391.243 309.685 391.243 C 300.149 391.243 292.42 383.514 292.42 373.978 C 292.42 364.441 300.149 356.714 309.685 356.714 C 319.219 356.714 326.948 364.441 326.948 373.978 Z " fill="rgb(169,171,174)"/><path d=" M 326.948 373.978 C 326.948 383.514 319.219 391.243 309.685 391.243 C 300.149 391.243 292.42 383.514 292.42 373.978 C 292.42 364.441 300.149 356.714 309.685 356.714 C 319.219 356.714 326.948 364.441 326.948 373.978 Z " fill="none" vector-effect="non-scaling-stroke" stroke-width="1" stroke="rgb(42,42,42)" stroke-linejoin="miter" stroke-linecap="square" stroke-miterlimit="3"/><path d=" M 351.615 364.341 C 351.615 373.878 343.885 381.611 334.348 381.611 C 324.812 381.611 317.081 373.878 317.081 364.341 C 317.081 354.806 324.812 347.078 334.348 347.078 C 343.885 347.078 351.615 354.806 351.615 364.341 Z " fill="rgb(169,171,174)"/><path d=" M 351.615 364.341 C 351.615 373.878 343.885 381.611 334.348 381.611 C 324.812 381.611 317.081 373.878 317.081 364.341 C 317.081 354.806 324.812 347.078 334.348 347.078 C 343.885 347.078 351.615 354.806 351.615 364.341 Z " fill="none" vector-effect="non-scaling-stroke" stroke-width="1" stroke="rgb(42,42,42)" stroke-linejoin="miter" stroke-linecap="square" stroke-miterlimit="3"/><path d=" M 327.384 348.47 C 327.384 358.007 319.653 365.735 310.121 365.735 C 300.585 365.735 292.851 358.007 292.851 348.47 C 292.851 338.936 300.585 331.205 310.121 331.205 C 319.653 331.205 327.384 338.936 327.384 348.47 Z " fill="rgb(244,137,57)"/><path d=" M 327.384 348.47 C 327.384 358.007 319.653 365.735 310.121 365.735 C 300.585 365.735 292.851 358.007 292.851 348.47 C 292.851 338.936 300.585 331.205 310.121 331.205 C 319.653 331.205 327.384 338.936 327.384 348.47 Z " fill="none" vector-effect="non-scaling-stroke" stroke-width="1" stroke="rgb(42,42,42)" stroke-linejoin="miter" stroke-linecap="square" stroke-miterlimit="3"/></g><g><path d=" M 59.086 353.164 C 58.439 369.803 68.455 382.781 80.591 392.872 C 93.961 402.808 112.673 411.715 135.818 418.992 C 182.091 433.543 245.69 442.388 315.635 442.388 L 320.253 442.388 L 320.253 440.21 C 179.703 440.21 76.493 400.009 76.493 353.164 L 59.086 353.164 Z " fill="rgb(224,225,226)"/><path d=" M 59.086 357.509 C 58.439 340.863 68.455 327.888 80.591 317.799 C 93.961 307.863 112.673 298.951 135.818 291.676 C 182.091 277.127 245.69 268.284 315.635 268.284 L 320.253 268.284 L 320.253 270.459 C 179.703 270.459 76.493 310.662 76.493 357.509 L 59.086 357.509 Z " fill="rgb(224,225,226)"/><path d=" M 581.394 353.164 C 582.041 369.803 572.026 382.781 559.89 392.872 C 546.52 402.808 527.81 411.715 504.666 418.992 C 458.387 433.543 394.791 442.388 324.847 442.388 L 320.227 442.388 L 320.227 440.21 C 460.777 440.21 563.987 400.009 563.987 353.164 L 581.394 353.164 Z " fill="rgb(224,225,226)"/><path d=" M 581.394 357.509 C 582.041 340.863 572.026 327.888 559.89 317.799 C 546.52 307.863 527.81 298.951 504.666 291.676 C 458.387 277.127 394.791 268.284 324.847 268.284 L 320.227 268.284 L 320.227 270.459 C 460.777 270.459 563.987 310.662 563.987 357.509 L 581.394 357.509 Z " fill="rgb(224,225,226)"/><path d=" M 134.04 538.459 C 145.352 550.687 161.607 552.778 177.327 551.334 C 193.805 548.901 213.335 541.969 234.844 530.751 C 277.858 508.311 329.082 469.6 378.538 420.144 L 381.806 416.88 L 380.27 415.338 C 280.88 514.72 179.477 559.275 146.35 526.149 L 134.04 538.459 Z " fill="rgb(224,225,226)"/><path d=" M 137.112 541.533 C 124.886 530.219 122.792 513.968 124.24 498.243 C 126.669 481.768 133.602 462.233 144.82 440.725 C 167.256 397.715 205.973 346.491 255.43 297.033 L 258.697 293.764 L 260.234 295.305 C 160.851 394.691 116.295 496.096 149.422 529.223 L 137.112 541.533 Z " fill="rgb(224,225,226)"/><path d=" M 503.369 169.13 C 515.596 180.44 517.687 196.697 516.242 212.416 C 513.815 228.893 506.883 248.429 495.662 269.934 C 473.226 312.947 434.51 364.171 385.055 413.632 L 381.787 416.894 L 380.248 415.359 C 479.635 315.97 524.187 214.564 491.06 181.44 L 503.369 169.13 Z " fill="rgb(224,225,226)"/><path d=" M 506.442 172.203 C 495.13 159.976 478.875 157.884 463.158 159.329 C 446.677 161.758 427.146 168.692 405.638 179.911 C 362.627 202.345 311.405 241.063 261.943 290.519 L 258.674 293.784 L 260.218 295.324 C 359.599 195.939 461.005 151.386 494.132 184.512 L 506.442 172.203 Z " fill="rgb(224,225,226)"/><path d=" M 137.112 169.134 C 124.886 180.446 122.792 196.703 124.24 212.421 C 126.669 228.899 133.602 248.431 144.82 269.942 C 167.256 312.948 205.973 364.176 255.43 413.635 L 258.697 416.897 L 260.234 415.36 C 160.851 315.98 116.295 214.57 149.422 181.444 L 137.112 169.134 Z " fill="rgb(224,225,226)"/><path d=" M 134.04 172.206 C 145.352 159.982 161.607 157.889 177.327 159.334 C 193.805 161.762 213.335 168.698 234.844 179.914 C 277.858 202.351 329.082 241.064 378.538 290.525 L 381.806 293.793 L 380.27 295.328 C 280.88 195.945 179.477 151.392 146.35 184.518 L 134.04 172.209 L 134.04 172.206 Z " fill="rgb(224,225,226)"/><path d=" M 506.442 538.464 C 495.13 550.692 478.875 552.783 463.158 551.337 C 446.677 548.91 427.146 541.974 405.638 530.76 C 362.627 508.319 311.405 469.609 261.943 420.147 L 258.674 416.884 L 260.218 415.342 C 359.599 514.725 461.005 559.28 494.132 526.153 L 506.442 538.459 L 506.442 538.464 Z " fill="rgb(224,225,226)"/><path d=" M 503.369 541.538 C 515.596 530.223 517.687 513.972 516.242 498.254 C 513.815 481.772 506.883 462.237 495.662 440.733 C 473.226 397.722 434.51 346.497 385.055 297.038 L 381.787 293.77 L 380.248 295.31 C 479.635 394.691 524.187 496.101 491.06 529.227 L 503.369 541.538 Z " fill="rgb(224,225,226)"/><path d=" M 322.415 94.181 C 305.771 93.534 292.794 103.547 282.702 115.688 C 272.767 129.054 263.861 147.77 256.587 170.908 C 242.033 217.189 233.187 280.785 233.187 350.73 L 233.187 355.348 L 235.367 355.348 C 235.367 214.8 275.566 111.589 322.415 111.589 L 322.415 94.182 L 322.415 94.181 Z " fill="rgb(224,225,226)"/><path d=" M 318.068 94.181 C 334.709 93.534 347.684 103.547 357.777 115.688 C 367.713 129.054 376.621 147.77 383.899 170.908 C 398.447 217.189 407.293 280.785 407.293 350.73 L 407.293 355.348 L 405.115 355.348 C 405.115 214.8 364.912 111.589 318.068 111.589 L 318.068 94.182 L 318.068 94.181 Z " fill="rgb(224,225,226)"/><path d=" M 322.415 616.489 C 305.771 617.135 292.794 607.125 282.702 594.984 C 272.767 581.615 263.861 562.899 256.587 539.758 C 242.033 493.477 233.187 429.885 233.187 359.94 L 233.187 355.32 L 235.367 355.32 C 235.367 495.872 275.566 599.082 322.415 599.082 L 322.415 616.485 L 322.415 616.489 Z " fill="rgb(224,225,226)"/><path d=" M 318.068 616.489 C 334.709 617.135 347.684 607.125 357.777 594.984 C 367.713 581.615 376.621 562.899 383.899 539.758 C 398.447 493.477 407.293 429.885 407.293 359.94 L 407.293 355.32 L 405.115 355.32 C 405.115 495.872 364.912 599.082 318.068 599.082 L 318.068 616.485 L 318.068 616.489 Z " fill="rgb(224,225,226)"/></g></g><clipPath id="_clipPath_3IFJvfsU4cbcRaKH68nZ38BHJXZTQsJG"><path d=" M 4 1 C 240.188 3.875 448.998 3.885 630.4 1 L 630.4 721 L 4 721 L 4 1 Z " fill="rgb(255,255,255)"/></clipPath><g clip-path="url(#_clipPath_3IFJvfsU4cbcRaKH68nZ38BHJXZTQsJG)"><g><g opacity="0.9"><path d=" M 306.253 425.094 L 306.253 425.094 Q 304.517 425.094 303.735 424.14 L 303.735 424.14 L 303.735 424.14 Q 302.953 423.187 302.953 421.821 L 302.953 421.821 L 304.237 421.821 L 304.237 421.821 Q 304.319 422.771 304.593 423.201 L 304.593 423.201 L 304.593 423.201 Q 305.071 423.973 306.321 423.973 L 306.321 423.973 L 306.321 423.973 Q 307.291 423.973 307.879 423.454 L 307.879 423.454 L 307.879 423.454 Q 308.466 422.935 308.466 422.115 L 308.466 422.115 L 308.466 422.115 Q 308.466 421.104 307.848 420.701 L 307.848 420.701 L 307.848 420.701 Q 307.23 420.297 306.13 420.297 L 306.13 420.297 L 306.13 420.297 Q 306.007 420.297 305.88 420.301 L 305.88 420.301 L 305.88 420.301 Q 305.754 420.304 305.624 420.311 L 305.624 420.311 L 305.624 419.225 L 305.624 419.225 Q 305.815 419.245 305.945 419.252 L 305.945 419.252 L 305.945 419.252 Q 306.075 419.259 306.225 419.259 L 306.225 419.259 L 306.225 419.259 Q 306.915 419.259 307.36 419.04 L 307.36 419.04 L 307.36 419.04 Q 308.138 418.658 308.138 417.674 L 308.138 417.674 L 308.138 417.674 Q 308.138 416.943 307.619 416.547 L 307.619 416.547 L 307.619 416.547 Q 307.1 416.15 306.41 416.15 L 306.41 416.15 L 306.41 416.15 Q 305.18 416.15 304.709 416.97 L 304.709 416.97 L 304.709 416.97 Q 304.449 417.421 304.415 418.255 L 304.415 418.255 L 303.199 418.255 L 303.199 418.255 Q 303.199 417.162 303.636 416.396 L 303.636 416.396 L 303.636 416.396 Q 304.388 415.03 306.28 415.03 L 306.28 415.03 L 306.28 415.03 Q 307.776 415.03 308.596 415.696 L 308.596 415.696 L 308.596 415.696 Q 309.416 416.362 309.416 417.626 L 309.416 417.626 L 309.416 417.626 Q 309.416 418.528 308.931 419.088 L 308.931 419.088 L 308.931 419.088 Q 308.63 419.437 308.152 419.635 L 308.152 419.635 L 308.152 419.635 Q 308.924 419.847 309.358 420.451 L 309.358 420.451 L 309.358 420.451 Q 309.792 421.056 309.792 421.93 L 309.792 421.93 L 309.792 421.93 Q 309.792 423.331 308.869 424.212 L 308.869 424.212 L 308.869 424.212 Q 307.947 425.094 306.253 425.094" fill="rgb(255,255,255)"/></g><g opacity="0.9"><path d=" M 298.389 417.899 L 296.087 417.899 L 296.087 416.957 L 296.087 416.957 Q 297.419 416.827 297.945 416.523 L 297.945 416.523 L 297.945 416.523 Q 298.471 416.219 298.731 415.085 L 298.731 415.085 L 299.701 415.085 L 299.701 424.827 L 298.389 424.827" fill="rgb(255,255,255)"/></g><g opacity="0.9"><path d=" M 319.393 415.136 L 319.393 415.136 Q 322.663 415.136 324.467 416.858 L 324.467 416.858 L 324.467 416.858 Q 326.272 418.581 326.471 420.772 L 326.471 420.772 L 324.198 420.772 L 324.198 420.772 Q 323.811 419.108 322.657 418.136 L 322.657 418.136 L 322.657 418.136 Q 321.502 417.163 319.416 417.163 L 319.416 417.163 L 319.416 417.163 Q 316.874 417.163 315.309 418.95 L 315.309 418.95 L 315.309 418.95 Q 313.745 420.737 313.745 424.429 L 313.745 424.429 L 313.745 424.429 Q 313.745 427.452 315.157 429.333 L 315.157 429.333 L 315.157 429.333 Q 316.569 431.214 319.37 431.214 L 319.37 431.214 L 319.37 431.214 Q 321.948 431.214 323.295 429.233 L 323.295 429.233 L 323.295 429.233 Q 324.01 428.19 324.362 426.491 L 324.362 426.491 L 326.635 426.491 L 326.635 426.491 Q 326.331 429.21 324.62 431.05 L 324.62 431.05 L 324.62 431.05 Q 322.569 433.265 319.088 433.265 L 319.088 433.265 L 319.088 433.265 Q 316.088 433.265 314.049 431.448 L 314.049 431.448 L 314.049 431.448 Q 311.366 429.046 311.366 424.03 L 311.366 424.03 L 311.366 424.03 Q 311.366 420.222 313.381 417.784 L 313.381 417.784 L 313.381 417.784 Q 315.561 415.136 319.393 415.136 L 319.393 415.136 Z  M 318.924 415.136" fill="rgb(255,255,255)"/></g><g opacity="0.9"><path d=" M 208.183 135.126 L 208.183 135.126 Q 208.278 133.369 208.909 132.068 L 208.909 132.068 L 208.909 132.068 Q 209.541 130.767 211.374 129.703 L 211.374 129.703 L 213.197 128.648 L 213.197 128.648 Q 214.423 127.936 214.917 127.433 L 214.917 127.433 L 214.917 127.433 Q 215.695 126.644 215.695 125.628 L 215.695 125.628 L 215.695 125.628 Q 215.695 124.441 214.983 123.743 L 214.983 123.743 L 214.983 123.743 Q 214.271 123.045 213.083 123.045 L 213.083 123.045 L 213.083 123.045 Q 211.326 123.045 210.652 124.374 L 210.652 124.374 L 210.652 124.374 Q 210.291 125.087 210.253 126.35 L 210.253 126.35 L 208.515 126.35 L 208.515 126.35 Q 208.544 124.574 209.17 123.453 L 209.17 123.453 L 209.17 123.453 Q 210.282 121.478 213.093 121.478 L 213.093 121.478 L 213.093 121.478 Q 215.429 121.478 216.507 122.741 L 216.507 122.741 L 216.507 122.741 Q 217.585 124.004 217.585 125.552 L 217.585 125.552 L 217.585 125.552 Q 217.585 127.186 216.436 128.345 L 216.436 128.345 L 216.436 128.345 Q 215.771 129.019 214.052 129.978 L 214.052 129.978 L 212.751 130.7 L 212.751 130.7 Q 211.82 131.213 211.288 131.678 L 211.288 131.678 L 211.288 131.678 Q 210.339 132.505 210.092 133.511 L 210.092 133.511 L 217.519 133.511 L 217.519 135.126" fill="rgb(255,255,255)"/></g><g opacity="0.9"><path d=" M 201.696 125.495 L 198.495 125.495 L 198.495 124.185 L 198.495 124.185 Q 200.347 124.004 201.078 123.581 L 201.078 123.581 L 201.078 123.581 Q 201.81 123.159 202.171 121.582 L 202.171 121.582 L 203.519 121.582 L 203.519 135.126 L 201.696 135.126" fill="rgb(255,255,255)"/></g><g opacity="0.9"><path d=" M 230.895 121.653 L 230.895 121.653 Q 235.44 121.653 237.949 124.048 L 237.949 124.048 L 237.949 124.048 Q 240.458 126.442 240.735 129.489 L 240.735 129.489 L 237.574 129.489 L 237.574 129.489 Q 237.037 127.176 235.432 125.823 L 235.432 125.823 L 235.432 125.823 Q 233.827 124.471 230.927 124.471 L 230.927 124.471 L 230.927 124.471 Q 227.392 124.471 225.217 126.956 L 225.217 126.956 L 225.217 126.956 Q 223.042 129.44 223.042 134.572 L 223.042 134.572 L 223.042 134.572 Q 223.042 138.775 225.005 141.39 L 225.005 141.39 L 225.005 141.39 Q 226.969 144.004 230.862 144.004 L 230.862 144.004 L 230.862 144.004 Q 234.446 144.004 236.32 141.251 L 236.32 141.251 L 236.32 141.251 Q 237.313 139.801 237.802 137.439 L 237.802 137.439 L 240.963 137.439 L 240.963 137.439 Q 240.539 141.219 238.161 143.776 L 238.161 143.776 L 238.161 143.776 Q 235.31 146.855 230.471 146.855 L 230.471 146.855 L 230.471 146.855 Q 226.301 146.855 223.466 144.33 L 223.466 144.33 L 223.466 144.33 Q 219.735 140.991 219.735 134.018 L 219.735 134.018 L 219.735 134.018 Q 219.735 128.723 222.537 125.335 L 222.537 125.335 L 222.537 125.335 Q 225.567 121.653 230.895 121.653 L 230.895 121.653 Z  M 230.243 121.653" fill="rgb(255,255,255)"/></g><g opacity="0.9"><path d=" M 396.674 574.985 L 401.033 574.985 L 401.033 568.821 L 396.674 574.985 Z  M 402.771 579.8 L 401.062 579.8 L 401.062 576.476 L 395.097 576.476 L 395.097 574.804 L 401.328 566.161 L 402.771 566.161 L 402.771 574.985 L 404.775 574.985 L 404.775 576.476 L 402.771 576.476 L 402.771 579.8 Z " fill="rgb(255,255,255)"/></g><g opacity="0.9"><path d=" M 388.724 570.17 L 385.523 570.17 L 385.523 568.859 L 385.523 568.859 Q 387.375 568.678 388.107 568.256 L 388.107 568.256 L 388.107 568.256 Q 388.838 567.833 389.199 566.256 L 389.199 566.256 L 390.548 566.256 L 390.548 579.8 L 388.724 579.8" fill="rgb(255,255,255)"/></g><g opacity="0.9"><path d=" M 407.839 590.911 L 407.839 566.979 L 411.667 566.979 L 423.755 586.365 L 423.755 566.979 L 426.834 566.979 L 426.834 590.911 L 423.202 590.911 L 410.934 571.54 L 410.934 590.911 L 407.839 590.911 Z  M 417.125 566.979" fill="rgb(255,255,255)"/></g><g opacity="0.9"><path d=" M 436.875 203.324 L 438.152 203.324 L 438.152 203.324 Q 438.275 204.376 439.129 204.779 L 439.129 204.779 L 439.129 204.779 Q 439.566 204.984 440.14 204.984 L 440.14 204.984 L 440.14 204.984 Q 441.233 204.984 441.76 204.288 L 441.76 204.288 L 441.76 204.288 Q 442.286 203.591 442.286 202.743 L 442.286 202.743 L 442.286 202.743 Q 442.286 201.719 441.66 201.158 L 441.66 201.158 L 441.66 201.158 Q 441.035 200.598 440.161 200.598 L 440.161 200.598 L 440.161 200.598 Q 439.525 200.598 439.071 200.844 L 439.071 200.844 L 439.071 200.844 Q 438.617 201.09 438.296 201.527 L 438.296 201.527 L 437.23 201.466 L 437.975 196.198 L 443.058 196.198 L 443.058 197.387 L 438.897 197.387 L 438.48 200.106 L 438.48 200.106 Q 438.822 199.847 439.129 199.717 L 439.129 199.717 L 439.129 199.717 Q 439.676 199.491 440.393 199.491 L 440.393 199.491 L 440.393 199.491 Q 441.739 199.491 442.675 200.359 L 442.675 200.359 L 442.675 200.359 Q 443.611 201.227 443.611 202.559 L 443.611 202.559 L 443.611 202.559 Q 443.611 203.946 442.754 205.005 L 442.754 205.005 L 442.754 205.005 Q 441.896 206.064 440.017 206.064 L 440.017 206.064 L 440.017 206.064 Q 438.822 206.064 437.903 205.391 L 437.903 205.391 L 437.903 205.391 Q 436.984 204.718 436.875 203.324" fill="rgb(255,255,255)"/></g><g opacity="0.9"><path d=" M 432.195 198.89 L 429.892 198.89 L 429.892 197.947 L 429.892 197.947 Q 431.225 197.818 431.751 197.514 L 431.751 197.514 L 431.751 197.514 Q 432.277 197.21 432.536 196.075 L 432.536 196.075 L 433.506 196.075 L 433.506 205.818 L 432.195 205.818" fill="rgb(255,255,255)"/></g><g opacity="0.9"><path d=" M 445.945 213.81 L 445.945 196.595 L 448.699 196.595 L 457.394 210.541 L 457.394 196.595 L 459.609 196.595 L 459.609 213.81 L 456.996 213.81 L 448.171 199.877 L 448.171 213.81 L 445.945 213.81 Z  M 452.625 196.595" fill="rgb(255,255,255)"/></g><g opacity="0.9"><path d=" M 430.518 486.088 L 430.518 486.088 Q 430.613 484.331 431.245 483.03 L 431.245 483.03 L 431.245 483.03 Q 431.876 481.729 433.709 480.665 L 433.709 480.665 L 435.533 479.611 L 435.533 479.611 Q 436.758 478.899 437.252 478.395 L 437.252 478.395 L 437.252 478.395 Q 438.031 477.607 438.031 476.591 L 438.031 476.591 L 438.031 476.591 Q 438.031 475.403 437.318 474.705 L 437.318 474.705 L 437.318 474.705 Q 436.606 474.007 435.419 474.007 L 435.419 474.007 L 435.419 474.007 Q 433.662 474.007 432.987 475.337 L 432.987 475.337 L 432.987 475.337 Q 432.627 476.049 432.589 477.312 L 432.589 477.312 L 430.85 477.312 L 430.85 477.312 Q 430.879 475.536 431.506 474.416 L 431.506 474.416 L 431.506 474.416 Q 432.617 472.44 435.428 472.44 L 435.428 472.44 L 435.428 472.44 Q 437.765 472.44 438.843 473.703 L 438.843 473.703 L 438.843 473.703 Q 439.921 474.966 439.921 476.515 L 439.921 476.515 L 439.921 476.515 Q 439.921 478.148 438.772 479.307 L 438.772 479.307 L 438.772 479.307 Q 438.107 479.981 436.388 480.941 L 436.388 480.941 L 435.086 481.662 L 435.086 481.662 Q 434.156 482.175 433.624 482.641 L 433.624 482.641 L 433.624 482.641 Q 432.674 483.467 432.427 484.474 L 432.427 484.474 L 439.854 484.474 L 439.854 486.088" fill="rgb(255,255,255)"/></g><g opacity="0.9"><path d=" M 424.022 486.459 L 424.022 486.459 Q 421.609 486.459 420.522 485.134 L 420.522 485.134 L 420.522 485.134 Q 419.434 483.809 419.434 481.909 L 419.434 481.909 L 421.22 481.909 L 421.22 481.909 Q 421.334 483.23 421.714 483.828 L 421.714 483.828 L 421.714 483.828 Q 422.378 484.901 424.117 484.901 L 424.117 484.901 L 424.117 484.901 Q 425.465 484.901 426.282 484.179 L 426.282 484.179 L 426.282 484.179 Q 427.099 483.458 427.099 482.318 L 427.099 482.318 L 427.099 482.318 Q 427.099 480.912 426.239 480.352 L 426.239 480.352 L 426.239 480.352 Q 425.38 479.791 423.851 479.791 L 423.851 479.791 L 423.851 479.791 Q 423.68 479.791 423.504 479.796 L 423.504 479.796 L 423.504 479.796 Q 423.328 479.801 423.148 479.81 L 423.148 479.81 L 423.148 478.3 L 423.148 478.3 Q 423.414 478.329 423.594 478.338 L 423.594 478.338 L 423.594 478.338 Q 423.775 478.348 423.984 478.348 L 423.984 478.348 L 423.984 478.348 Q 424.943 478.348 425.56 478.044 L 425.56 478.044 L 425.56 478.044 Q 426.643 477.512 426.643 476.144 L 426.643 476.144 L 426.643 476.144 Q 426.643 475.128 425.921 474.577 L 425.921 474.577 L 425.921 474.577 Q 425.199 474.026 424.24 474.026 L 424.24 474.026 L 424.24 474.026 Q 422.53 474.026 421.875 475.166 L 421.875 475.166 L 421.875 475.166 Q 421.514 475.793 421.467 476.952 L 421.467 476.952 L 419.776 476.952 L 419.776 476.952 Q 419.776 475.432 420.384 474.368 L 420.384 474.368 L 420.384 474.368 Q 421.429 472.469 424.06 472.469 L 424.06 472.469 L 424.06 472.469 Q 426.14 472.469 427.279 473.395 L 427.279 473.395 L 427.279 473.395 Q 428.419 474.321 428.419 476.078 L 428.419 476.078 L 428.419 476.078 Q 428.419 477.331 427.745 478.11 L 427.745 478.11 L 427.745 478.11 Q 427.327 478.595 426.662 478.87 L 426.662 478.87 L 426.662 478.87 Q 427.735 479.164 428.338 480.005 L 428.338 480.005 L 428.338 480.005 Q 428.941 480.846 428.941 482.061 L 428.941 482.061 L 428.941 482.061 Q 428.941 484.008 427.659 485.234 L 427.659 485.234 L 427.659 485.234 Q 426.377 486.459 424.022 486.459" fill="rgb(255,255,255)"/></g><g opacity="0.9"><path d=" M 442.217 489.477 L 445.264 489.477 L 445.264 489.477 Q 445.378 491.513 446.225 492.784 L 446.225 492.784 L 446.225 492.784 Q 447.838 495.162 451.911 495.162 L 451.911 495.162 L 451.911 495.162 Q 453.735 495.162 455.234 494.641 L 455.234 494.641 L 455.234 494.641 Q 458.134 493.631 458.134 491.024 L 458.134 491.024 L 458.134 491.024 Q 458.134 489.069 456.912 488.238 L 456.912 488.238 L 456.912 488.238 Q 455.674 487.424 453.035 486.821 L 453.035 486.821 L 449.793 486.088 L 449.793 486.088 Q 446.616 485.371 445.296 484.508 L 445.296 484.508 L 445.296 484.508 Q 443.016 483.009 443.016 480.028 L 443.016 480.028 L 443.016 480.028 Q 443.016 476.802 445.247 474.733 L 445.247 474.733 L 445.247 474.733 Q 447.479 472.664 451.569 472.664 L 451.569 472.664 L 451.569 472.664 Q 455.332 472.664 457.963 474.481 L 457.963 474.481 L 457.963 474.481 Q 460.594 476.297 460.594 480.288 L 460.594 480.288 L 457.547 480.288 L 457.547 480.288 Q 457.303 478.366 456.505 477.34 L 456.505 477.34 L 456.505 477.34 Q 455.022 475.466 451.471 475.466 L 451.471 475.466 L 451.471 475.466 Q 448.604 475.466 447.349 476.672 L 447.349 476.672 L 447.349 476.672 Q 446.095 477.877 446.095 479.474 L 446.095 479.474 L 446.095 479.474 Q 446.095 481.233 447.561 482.048 L 447.561 482.048 L 447.561 482.048 Q 448.522 482.569 451.911 483.351 L 451.911 483.351 L 455.267 484.117 L 455.267 484.117 Q 457.694 484.671 459.014 485.632 L 459.014 485.632 L 459.014 485.632 Q 461.294 487.31 461.294 490.503 L 461.294 490.503 L 461.294 490.503 Q 461.294 494.478 458.403 496.189 L 458.403 496.189 L 458.403 496.189 Q 455.511 497.899 451.683 497.899 L 451.683 497.899 L 451.683 497.899 Q 447.219 497.899 444.694 495.618 L 444.694 495.618 L 444.694 495.618 Q 442.168 493.354 442.217 489.477 L 442.217 489.477 Z  M 451.813 472.615" fill="rgb(255,255,255)"/></g><g opacity="0.9"><path d=" M 208.561 576.313 L 212.557 576.313 L 212.557 570.663 L 208.561 576.313 Z  M 214.15 580.727 L 212.583 580.727 L 212.583 577.68 L 207.116 577.68 L 207.116 576.148 L 212.827 568.225 L 214.15 568.225 L 214.15 576.313 L 215.987 576.313 L 215.987 577.68 L 214.15 577.68 L 214.15 580.727 Z " fill="rgb(255,255,255)"/></g><g opacity="0.9"><path d=" M 201.265 581.067 L 201.265 581.067 Q 199.054 581.067 198.057 579.852 L 198.057 579.852 L 198.057 579.852 Q 197.06 578.638 197.06 576.896 L 197.06 576.896 L 198.697 576.896 L 198.697 576.896 Q 198.801 578.107 199.149 578.655 L 199.149 578.655 L 199.149 578.655 Q 199.759 579.639 201.352 579.639 L 201.352 579.639 L 201.352 579.639 Q 202.588 579.639 203.337 578.977 L 203.337 578.977 L 203.337 578.977 Q 204.086 578.315 204.086 577.271 L 204.086 577.271 L 204.086 577.271 Q 204.086 575.982 203.298 575.469 L 203.298 575.469 L 203.298 575.469 Q 202.51 574.955 201.108 574.955 L 201.108 574.955 L 201.108 574.955 Q 200.952 574.955 200.791 574.959 L 200.791 574.959 L 200.791 574.959 Q 200.629 574.964 200.464 574.972 L 200.464 574.972 L 200.464 573.588 L 200.464 573.588 Q 200.708 573.614 200.873 573.623 L 200.873 573.623 L 200.873 573.623 Q 201.039 573.631 201.23 573.631 L 201.23 573.631 L 201.23 573.631 Q 202.11 573.631 202.675 573.353 L 202.675 573.353 L 202.675 573.353 Q 203.668 572.865 203.668 571.612 L 203.668 571.612 L 203.668 571.612 Q 203.668 570.68 203.006 570.175 L 203.006 570.175 L 203.006 570.175 Q 202.345 569.67 201.465 569.67 L 201.465 569.67 L 201.465 569.67 Q 199.898 569.67 199.297 570.715 L 199.297 570.715 L 199.297 570.715 Q 198.967 571.289 198.923 572.352 L 198.923 572.352 L 197.373 572.352 L 197.373 572.352 Q 197.373 570.959 197.931 569.984 L 197.931 569.984 L 197.931 569.984 Q 198.888 568.242 201.3 568.242 L 201.3 568.242 L 201.3 568.242 Q 203.207 568.242 204.251 569.091 L 204.251 569.091 L 204.251 569.091 Q 205.296 569.94 205.296 571.551 L 205.296 571.551 L 205.296 571.551 Q 205.296 572.7 204.678 573.414 L 204.678 573.414 L 204.678 573.414 Q 204.295 573.858 203.685 574.11 L 203.685 574.11 L 203.685 574.11 Q 204.669 574.38 205.222 575.151 L 205.222 575.151 L 205.222 575.151 Q 205.775 575.921 205.775 577.036 L 205.775 577.036 L 205.775 577.036 Q 205.775 578.82 204.6 579.944 L 204.6 579.944 L 204.6 579.944 Q 203.424 581.067 201.265 581.067" fill="rgb(255,255,255)"/></g><g opacity="0.9"><path d=" M 217.945 583.833 L 220.737 583.833 L 220.737 583.833 Q 220.842 585.7 221.618 586.865 L 221.618 586.865 L 221.618 586.865 Q 223.097 589.045 226.83 589.045 L 226.83 589.045 L 226.83 589.045 Q 228.503 589.045 229.877 588.567 L 229.877 588.567 L 229.877 588.567 Q 232.535 587.641 232.535 585.252 L 232.535 585.252 L 232.535 585.252 Q 232.535 583.46 231.415 582.698 L 231.415 582.698 L 231.415 582.698 Q 230.28 581.951 227.861 581.399 L 227.861 581.399 L 224.889 580.727 L 224.889 580.727 Q 221.977 580.07 220.767 579.278 L 220.767 579.278 L 220.767 579.278 Q 218.676 577.904 218.676 575.172 L 218.676 575.172 L 218.676 575.172 Q 218.676 572.215 220.722 570.318 L 220.722 570.318 L 220.722 570.318 Q 222.768 568.422 226.517 568.422 L 226.517 568.422 L 226.517 568.422 Q 229.966 568.422 232.378 570.087 L 232.378 570.087 L 232.378 570.087 Q 234.79 571.752 234.79 575.41 L 234.79 575.41 L 231.997 575.41 L 231.997 575.41 Q 231.773 573.648 231.042 572.708 L 231.042 572.708 L 231.042 572.708 Q 229.683 570.99 226.427 570.99 L 226.427 570.99 L 226.427 570.99 Q 223.799 570.99 222.649 572.095 L 222.649 572.095 L 222.649 572.095 Q 221.499 573.2 221.499 574.664 L 221.499 574.664 L 221.499 574.664 Q 221.499 576.277 222.843 577.023 L 222.843 577.023 L 222.843 577.023 Q 223.724 577.501 226.83 578.218 L 226.83 578.218 L 229.907 578.92 L 229.907 578.92 Q 232.132 579.428 233.341 580.309 L 233.341 580.309 L 233.341 580.309 Q 235.432 581.847 235.432 584.774 L 235.432 584.774 L 235.432 584.774 Q 235.432 588.418 232.781 589.986 L 232.781 589.986 L 232.781 589.986 Q 230.131 591.554 226.621 591.554 L 226.621 591.554 L 226.621 591.554 Q 222.529 591.554 220.215 589.463 L 220.215 589.463 L 220.215 589.463 Q 217.9 587.387 217.945 583.833 L 217.945 583.833 Z  M 226.741 568.377" fill="rgb(255,255,255)"/></g><g opacity="0.9"><path d=" M 301.422 527.619 L 304.329 527.619 L 304.329 523.509 L 301.422 527.619 Z  M 305.487 530.829 L 304.348 530.829 L 304.348 528.613 L 300.371 528.613 L 300.371 527.499 L 304.525 521.737 L 305.487 521.737 L 305.487 527.619 L 306.823 527.619 L 306.823 528.613 L 305.487 528.613 L 305.487 530.829 Z " fill="rgb(255,255,255)"/></g><g opacity="0.9"><path d=" M 293.165 528.518 L 294.35 528.518 L 294.35 528.518 Q 294.464 529.493 295.255 529.867 L 295.255 529.867 L 295.255 529.867 Q 295.66 530.057 296.192 530.057 L 296.192 530.057 L 296.192 530.057 Q 297.205 530.057 297.693 529.411 L 297.693 529.411 L 297.693 529.411 Q 298.18 528.765 298.18 527.98 L 298.18 527.98 L 298.18 527.98 Q 298.18 527.03 297.601 526.511 L 297.601 526.511 L 297.601 526.511 Q 297.022 525.992 296.211 525.992 L 296.211 525.992 L 296.211 525.992 Q 295.622 525.992 295.201 526.219 L 295.201 526.219 L 295.201 526.219 Q 294.78 526.447 294.483 526.853 L 294.483 526.853 L 293.495 526.796 L 294.185 521.914 L 298.896 521.914 L 298.896 523.016 L 295.04 523.016 L 294.654 525.536 L 294.654 525.536 Q 294.97 525.295 295.255 525.175 L 295.255 525.175 L 295.255 525.175 Q 295.762 524.966 296.426 524.966 L 296.426 524.966 L 296.426 524.966 Q 297.674 524.966 298.541 525.77 L 298.541 525.77 L 298.541 525.77 Q 299.409 526.574 299.409 527.809 L 299.409 527.809 L 299.409 527.809 Q 299.409 529.094 298.614 530.076 L 298.614 530.076 L 298.614 530.076 Q 297.819 531.057 296.078 531.057 L 296.078 531.057 L 296.078 531.057 Q 294.97 531.057 294.118 530.433 L 294.118 530.433 L 294.118 530.433 Q 293.267 529.81 293.165 528.518" fill="rgb(255,255,255)"/></g><g opacity="0.9"><path d=" M 327.351 526.344 L 327.351 526.344 Q 328.589 526.344 329.751 526.925 L 329.751 526.925 L 329.751 526.925 Q 330.913 527.506 331.521 528.429 L 331.521 528.429 L 331.521 528.429 Q 332.108 529.309 332.303 530.482 L 332.303 530.482 L 332.303 530.482 Q 332.477 531.285 332.477 533.045 L 332.477 533.045 L 323.951 533.045 L 323.951 533.045 Q 324.006 534.815 324.788 535.885 L 324.788 535.885 L 324.788 535.885 Q 325.57 536.955 327.21 536.955 L 327.21 536.955 L 327.21 536.955 Q 328.741 536.955 329.653 535.945 L 329.653 535.945 L 329.653 535.945 Q 330.175 535.358 330.392 534.587 L 330.392 534.587 L 332.314 534.587 L 332.314 534.587 Q 332.238 535.228 331.809 536.015 L 331.809 536.015 L 331.809 536.015 Q 331.38 536.803 330.848 537.302 L 330.848 537.302 L 330.848 537.302 Q 329.957 538.171 328.643 538.475 L 328.643 538.475 L 328.643 538.475 Q 327.937 538.649 327.047 538.649 L 327.047 538.649 L 327.047 538.649 Q 324.875 538.649 323.365 537.069 L 323.365 537.069 L 323.365 537.069 Q 321.855 535.489 321.855 532.643 L 321.855 532.643 L 321.855 532.643 Q 321.855 529.841 323.376 528.092 L 323.376 528.092 L 323.376 528.092 Q 324.896 526.344 327.351 526.344 L 327.351 526.344 Z  M 324.006 531.492 L 330.468 531.492 L 330.468 531.492 Q 330.348 530.221 329.914 529.461 L 329.914 529.461 L 329.914 529.461 Q 329.11 528.049 327.231 528.049 L 327.231 528.049 L 327.231 528.049 Q 325.885 528.049 324.972 529.021 L 324.972 529.021 L 324.972 529.021 Q 324.06 529.993 324.006 531.492 L 324.006 531.492 Z  M 327.166 526.322" fill="rgb(255,255,255)"/></g><g opacity="0.9"><path d=" M 309.072 538.236 L 309.072 522.282 L 320.139 522.282 L 320.139 524.237 L 311.233 524.237 L 311.233 529.081 L 319.064 529.081 L 319.064 530.981 L 311.233 530.981 L 311.233 538.236" fill="rgb(255,255,255)"/></g><g opacity="0.9"><path d=" M 539.057 448.117 L 536.179 448.117 L 536.179 446.938 L 536.179 446.938 Q 537.844 446.776 538.502 446.396 L 538.502 446.396 L 538.502 446.396 Q 539.159 446.016 539.484 444.598 L 539.484 444.598 L 540.696 444.598 L 540.696 456.776 L 539.057 456.776" fill="rgb(255,255,255)"/></g><g opacity="0.9"><path d=" M 529.299 448.117 L 526.421 448.117 L 526.421 446.938 L 526.421 446.938 Q 528.087 446.776 528.744 446.396 L 528.744 446.396 L 528.744 446.396 Q 529.402 446.016 529.726 444.598 L 529.726 444.598 L 530.939 444.598 L 530.939 456.776 L 529.299 456.776" fill="rgb(255,255,255)"/></g><g opacity="0.9"><path d=" M 547.98 454.345 L 553.283 454.345 L 553.283 454.345 Q 555.129 454.345 556.154 453.832 L 556.154 453.832 L 556.154 453.832 Q 557.766 453.026 557.766 450.932 L 557.766 450.932 L 557.766 450.932 Q 557.766 448.822 556.052 448.09 L 556.052 448.09 L 556.052 448.09 Q 555.085 447.68 553.181 447.68 L 553.181 447.68 L 547.98 447.68 L 547.98 454.345 Z  M 547.98 464.276 L 554.265 464.276 L 554.265 464.276 Q 556.945 464.276 558.088 462.724 L 558.088 462.724 L 558.088 462.724 Q 558.806 461.742 558.806 460.351 L 558.806 460.351 L 558.806 460.351 Q 558.806 458.007 556.711 457.157 L 556.711 457.157 L 556.711 457.157 Q 555.598 456.703 553.767 456.703 L 553.767 456.703 L 547.98 456.703 L 547.98 464.276 Z  M 545.124 466.767 L 545.124 445.248 L 554.367 445.248 L 554.367 445.248 Q 558.146 445.248 559.743 447.504 L 559.743 447.504 L 559.743 447.504 Q 560.681 448.837 560.681 450.58 L 560.681 450.58 L 560.681 450.58 Q 560.681 452.616 559.523 453.92 L 559.523 453.92 L 559.523 453.92 Q 558.923 454.608 557.795 455.18 L 557.795 455.18 L 557.795 455.18 Q 559.45 455.81 560.271 456.601 L 560.271 456.601 L 560.271 456.601 Q 561.721 458.007 561.721 460.482 L 561.721 460.482 L 561.721 460.482 Q 561.721 462.563 560.417 464.247 L 560.417 464.247 L 560.417 464.247 Q 558.469 466.767 554.221 466.767 L 554.221 466.767 L 545.124 466.767 Z " fill="rgb(255,255,255)"/></g><g opacity="0.9"><path d=" M 552.55 250.58 L 552.55 250.58 Q 554.31 250.58 555.095 252.03 L 555.095 252.03 L 555.095 252.03 Q 555.703 253.151 555.703 255.101 L 555.703 255.101 L 555.703 255.101 Q 555.703 256.95 555.152 258.16 L 555.152 258.16 L 555.152 258.16 Q 554.354 259.894 552.543 259.894 L 552.543 259.894 L 552.543 259.894 Q 550.91 259.894 550.112 258.476 L 550.112 258.476 L 550.112 258.476 Q 549.447 257.292 549.447 255.298 L 549.447 255.298 L 549.447 255.298 Q 549.447 253.753 549.846 252.644 L 549.846 252.644 L 549.846 252.644 Q 550.593 250.58 552.55 250.58 L 552.55 250.58 Z  M 552.537 258.856 L 552.537 258.856 Q 553.424 258.856 553.949 258.071 L 553.949 258.071 L 553.949 258.071 Q 554.475 257.286 554.475 255.146 L 554.475 255.146 L 554.475 255.146 Q 554.475 253.601 554.095 252.603 L 554.095 252.603 L 554.095 252.603 Q 553.715 251.606 552.619 251.606 L 552.619 251.606 L 552.619 251.606 Q 551.613 251.606 551.147 252.553 L 551.147 252.553 L 551.147 252.553 Q 550.682 253.499 550.682 255.342 L 550.682 255.342 L 550.682 255.342 Q 550.682 256.729 550.979 257.571 L 550.979 257.571 L 550.979 257.571 Q 551.435 258.856 552.537 258.856 L 552.537 258.856 Z " fill="rgb(255,255,255)"/></g><g opacity="0.9"><path d=" M 545.122 253.227 L 542.989 253.227 L 542.989 252.353 L 542.989 252.353 Q 544.223 252.233 544.711 251.951 L 544.711 251.951 L 544.711 251.951 Q 545.198 251.669 545.439 250.618 L 545.439 250.618 L 546.338 250.618 L 546.338 259.647 L 545.122 259.647" fill="rgb(255,255,255)"/></g><g opacity="0.9"><path d=" M 559.929 257.845 L 563.861 257.845 L 563.861 257.845 Q 565.229 257.845 565.99 257.465 L 565.99 257.465 L 565.99 257.465 Q 567.184 256.867 567.184 255.314 L 567.184 255.314 L 567.184 255.314 Q 567.184 253.75 565.914 253.207 L 565.914 253.207 L 565.914 253.207 Q 565.197 252.903 563.785 252.903 L 563.785 252.903 L 559.929 252.903 L 559.929 257.845 Z  M 559.929 265.208 L 564.589 265.208 L 564.589 265.208 Q 566.576 265.208 567.423 264.057 L 567.423 264.057 L 567.423 264.057 Q 567.955 263.329 567.955 262.298 L 567.955 262.298 L 567.955 262.298 Q 567.955 260.56 566.402 259.93 L 566.402 259.93 L 566.402 259.93 Q 565.577 259.593 564.219 259.593 L 564.219 259.593 L 559.929 259.593 L 559.929 265.208 Z  M 557.811 267.055 L 557.811 251.1 L 564.665 251.1 L 564.665 251.1 Q 567.467 251.1 568.651 252.773 L 568.651 252.773 L 568.651 252.773 Q 569.346 253.761 569.346 255.053 L 569.346 255.053 L 569.346 255.053 Q 569.346 256.563 568.488 257.53 L 568.488 257.53 L 568.488 257.53 Q 568.042 258.04 567.206 258.464 L 567.206 258.464 L 567.206 258.464 Q 568.433 258.931 569.042 259.517 L 569.042 259.517 L 569.042 259.517 Q 570.117 260.56 570.117 262.395 L 570.117 262.395 L 570.117 262.395 Q 570.117 263.938 569.15 265.187 L 569.15 265.187 L 569.15 265.187 Q 567.706 267.055 564.556 267.055 L 564.556 267.055 L 557.811 267.055 Z " fill="rgb(255,255,255)"/></g><g opacity="0.9"><path d=" M 489.816 343.27 L 489.816 343.27 Q 492.096 343.27 492.993 344.452 L 492.993 344.452 L 492.993 344.452 Q 493.891 345.635 493.891 346.889 L 493.891 346.889 L 492.2 346.889 L 492.2 346.889 Q 492.048 346.081 491.716 345.625 L 491.716 345.625 L 491.716 345.625 Q 491.098 344.771 489.845 344.771 L 489.845 344.771 L 489.845 344.771 Q 488.41 344.771 487.565 346.095 L 487.565 346.095 L 487.565 346.095 Q 486.72 347.42 486.625 349.89 L 486.625 349.89 L 486.625 349.89 Q 487.214 349.026 488.107 348.598 L 488.107 348.598 L 488.107 348.598 Q 488.923 348.218 489.93 348.218 L 489.93 348.218 L 489.93 348.218 Q 491.64 348.218 492.912 349.31 L 492.912 349.31 L 492.912 349.31 Q 494.185 350.403 494.185 352.568 L 494.185 352.568 L 494.185 352.568 Q 494.185 354.42 492.979 355.85 L 492.979 355.85 L 492.979 355.85 Q 491.773 357.279 489.541 357.279 L 489.541 357.279 L 489.541 357.279 Q 487.632 357.279 486.245 355.831 L 486.245 355.831 L 486.245 355.831 Q 484.858 354.382 484.858 350.954 L 484.858 350.954 L 484.858 350.954 Q 484.858 348.418 485.476 346.651 L 485.476 346.651 L 485.476 346.651 Q 486.663 343.27 489.816 343.27 L 489.816 343.27 Z  M 489.693 355.759 L 489.693 355.759 Q 491.041 355.759 491.711 354.852 L 491.711 354.852 L 491.711 354.852 Q 492.381 353.945 492.381 352.711 L 492.381 352.711 L 492.381 352.711 Q 492.381 351.666 491.782 350.721 L 491.782 350.721 L 491.782 350.721 Q 491.184 349.776 489.607 349.776 L 489.607 349.776 L 489.607 349.776 Q 488.505 349.776 487.674 350.507 L 487.674 350.507 L 487.674 350.507 Q 486.843 351.239 486.843 352.711 L 486.843 352.711 L 486.843 352.711 Q 486.843 354.002 487.598 354.881 L 487.598 354.881 L 487.598 354.881 Q 488.353 355.759 489.693 355.759 L 489.693 355.759 Z " fill="rgb(255,255,255)"/></g><g opacity="0.9"><path d=" M 473.812 353.461 L 475.588 353.461 L 475.588 353.461 Q 475.759 354.924 476.947 355.484 L 476.947 355.484 L 476.947 355.484 Q 477.555 355.769 478.352 355.769 L 478.352 355.769 L 478.352 355.769 Q 479.872 355.769 480.603 354.8 L 480.603 354.8 L 480.603 354.8 Q 481.335 353.831 481.335 352.654 L 481.335 352.654 L 481.335 352.654 Q 481.335 351.229 480.466 350.45 L 480.466 350.45 L 480.466 350.45 Q 479.597 349.671 478.381 349.671 L 478.381 349.671 L 478.381 349.671 Q 477.497 349.671 476.866 350.013 L 476.866 350.013 L 476.866 350.013 Q 476.234 350.355 475.788 350.963 L 475.788 350.963 L 474.306 350.878 L 475.341 343.555 L 482.408 343.555 L 482.408 345.207 L 476.624 345.207 L 476.044 348.988 L 476.044 348.988 Q 476.519 348.627 476.947 348.446 L 476.947 348.446 L 476.947 348.446 Q 477.706 348.133 478.704 348.133 L 478.704 348.133 L 478.704 348.133 Q 480.575 348.133 481.876 349.339 L 481.876 349.339 L 481.876 349.339 Q 483.177 350.545 483.177 352.397 L 483.177 352.397 L 483.177 352.397 Q 483.177 354.325 481.985 355.797 L 481.985 355.797 L 481.985 355.797 Q 480.793 357.27 478.181 357.27 L 478.181 357.27 L 478.181 357.27 Q 476.519 357.27 475.242 356.334 L 475.242 356.334 L 475.242 356.334 Q 473.964 355.399 473.812 353.461" fill="rgb(255,255,255)"/></g><g opacity="0.9"><path d=" M 525.09 350.199 L 525.09 350.199 Q 526.948 350.199 528.691 351.071 L 528.691 351.071 L 528.691 351.071 Q 530.434 351.942 531.346 353.327 L 531.346 353.327 L 531.346 353.327 Q 532.226 354.647 532.519 356.406 L 532.519 356.406 L 532.519 356.406 Q 532.78 357.612 532.78 360.251 L 532.78 360.251 L 519.991 360.251 L 519.991 360.251 Q 520.073 362.906 521.246 364.511 L 521.246 364.511 L 521.246 364.511 Q 522.419 366.116 524.879 366.116 L 524.879 366.116 L 524.879 366.116 Q 527.176 366.116 528.544 364.601 L 528.544 364.601 L 528.544 364.601 Q 529.326 363.721 529.652 362.564 L 529.652 362.564 L 532.536 362.564 L 532.536 362.564 Q 532.422 363.525 531.778 364.707 L 531.778 364.707 L 531.778 364.707 Q 531.135 365.888 530.336 366.637 L 530.336 366.637 L 530.336 366.637 Q 529 367.94 527.029 368.397 L 527.029 368.397 L 527.029 368.397 Q 525.97 368.657 524.634 368.657 L 524.634 368.657 L 524.634 368.657 Q 521.376 368.657 519.112 366.287 L 519.112 366.287 L 519.112 366.287 Q 516.847 363.916 516.847 359.648 L 516.847 359.648 L 516.847 359.648 Q 516.847 355.445 519.128 352.822 L 519.128 352.822 L 519.128 352.822 Q 521.409 350.199 525.09 350.199 L 525.09 350.199 Z  M 520.073 357.921 L 529.766 357.921 L 529.766 357.921 Q 529.587 356.015 528.935 354.875 L 528.935 354.875 L 528.935 354.875 Q 527.73 352.757 524.911 352.757 L 524.911 352.757 L 524.911 352.757 Q 522.891 352.757 521.523 354.215 L 521.523 354.215 L 521.523 354.215 Q 520.154 355.673 520.073 357.921 L 520.073 357.921 Z  M 524.814 350.167" fill="rgb(255,255,255)"/></g><g opacity="0.9"><path d=" M 497.672 368.038 L 497.672 344.106 L 514.273 344.106 L 514.273 347.039 L 500.914 347.039 L 500.914 354.305 L 512.66 354.305 L 512.66 357.156 L 500.914 357.156 L 500.914 368.038" fill="rgb(255,255,255)"/></g><g opacity="0.9"><path d=" M 77.061 444.853 L 77.061 444.853 Q 78.581 444.853 79.179 445.641 L 79.179 445.641 L 79.179 445.641 Q 79.778 446.429 79.778 447.265 L 79.778 447.265 L 78.651 447.265 L 78.651 447.265 Q 78.549 446.727 78.328 446.423 L 78.328 446.423 L 78.328 446.423 Q 77.916 445.853 77.08 445.853 L 77.08 445.853 L 77.08 445.853 Q 76.124 445.853 75.561 446.736 L 75.561 446.736 L 75.561 446.736 Q 74.997 447.62 74.934 449.266 L 74.934 449.266 L 74.934 449.266 Q 75.326 448.69 75.921 448.405 L 75.921 448.405 L 75.921 448.405 Q 76.466 448.152 77.137 448.152 L 77.137 448.152 L 77.137 448.152 Q 78.277 448.152 79.125 448.88 L 79.125 448.88 L 79.125 448.88 Q 79.974 449.608 79.974 451.052 L 79.974 451.052 L 79.974 451.052 Q 79.974 452.286 79.17 453.239 L 79.17 453.239 L 79.17 453.239 Q 78.366 454.192 76.878 454.192 L 76.878 454.192 L 76.878 454.192 Q 75.605 454.192 74.68 453.227 L 74.68 453.227 L 74.68 453.227 Q 73.756 452.261 73.756 449.975 L 73.756 449.975 L 73.756 449.975 Q 73.756 448.285 74.168 447.107 L 74.168 447.107 L 74.168 447.107 Q 74.959 444.853 77.061 444.853 L 77.061 444.853 Z  M 76.979 453.179 L 76.979 453.179 Q 77.878 453.179 78.324 452.574 L 78.324 452.574 L 78.324 452.574 Q 78.771 451.97 78.771 451.147 L 78.771 451.147 L 78.771 451.147 Q 78.771 450.45 78.372 449.82 L 78.372 449.82 L 78.372 449.82 Q 77.973 449.19 76.922 449.19 L 76.922 449.19 L 76.922 449.19 Q 76.187 449.19 75.633 449.678 L 75.633 449.678 L 75.633 449.678 Q 75.079 450.165 75.079 451.147 L 75.079 451.147 L 75.079 451.147 Q 75.079 452.008 75.583 452.593 L 75.583 452.593 L 75.583 452.593 Q 76.086 453.179 76.979 453.179 L 76.979 453.179 Z " fill="rgb(255,255,255)"/></g><g opacity="0.9"><path d=" M 69.343 454.205 L 69.343 454.205 Q 67.734 454.205 67.009 453.322 L 67.009 453.322 L 67.009 453.322 Q 66.284 452.438 66.284 451.172 L 66.284 451.172 L 67.475 451.172 L 67.475 451.172 Q 67.551 452.052 67.804 452.451 L 67.804 452.451 L 67.804 452.451 Q 68.247 453.167 69.406 453.167 L 69.406 453.167 L 69.406 453.167 Q 70.305 453.167 70.85 452.685 L 70.85 452.685 L 70.85 452.685 Q 71.394 452.204 71.394 451.444 L 71.394 451.444 L 71.394 451.444 Q 71.394 450.507 70.821 450.134 L 70.821 450.134 L 70.821 450.134 Q 70.248 449.76 69.229 449.76 L 69.229 449.76 L 69.229 449.76 Q 69.115 449.76 68.998 449.763 L 68.998 449.763 L 68.998 449.763 Q 68.88 449.766 68.76 449.773 L 68.76 449.773 L 68.76 448.766 L 68.76 448.766 Q 68.937 448.785 69.058 448.791 L 69.058 448.791 L 69.058 448.791 Q 69.178 448.798 69.317 448.798 L 69.317 448.798 L 69.317 448.798 Q 69.957 448.798 70.368 448.595 L 70.368 448.595 L 70.368 448.595 Q 71.09 448.24 71.09 447.329 L 71.09 447.329 L 71.09 447.329 Q 71.09 446.651 70.609 446.284 L 70.609 446.284 L 70.609 446.284 Q 70.128 445.917 69.488 445.917 L 69.488 445.917 L 69.488 445.917 Q 68.349 445.917 67.912 446.676 L 67.912 446.676 L 67.912 446.676 Q 67.671 447.094 67.639 447.867 L 67.639 447.867 L 66.512 447.867 L 66.512 447.867 Q 66.512 446.854 66.918 446.144 L 66.918 446.144 L 66.918 446.144 Q 67.614 444.878 69.368 444.878 L 69.368 444.878 L 69.368 444.878 Q 70.755 444.878 71.514 445.495 L 71.514 445.495 L 71.514 445.495 Q 72.274 446.113 72.274 447.284 L 72.274 447.284 L 72.274 447.284 Q 72.274 448.12 71.825 448.639 L 71.825 448.639 L 71.825 448.639 Q 71.546 448.962 71.103 449.146 L 71.103 449.146 L 71.103 449.146 Q 71.818 449.342 72.221 449.902 L 72.221 449.902 L 72.221 449.902 Q 72.623 450.463 72.623 451.273 L 72.623 451.273 L 72.623 451.273 Q 72.623 452.571 71.768 453.388 L 71.768 453.388 L 71.768 453.388 Q 70.913 454.205 69.343 454.205" fill="rgb(255,255,255)"/></g><g opacity="0.9"><path d=" M 81.473 456.217 L 83.504 456.217 L 83.504 456.217 Q 83.58 457.575 84.145 458.422 L 84.145 458.422 L 84.145 458.422 Q 85.22 460.008 87.935 460.008 L 87.935 460.008 L 87.935 460.008 Q 89.152 460.008 90.151 459.66 L 90.151 459.66 L 90.151 459.66 Q 92.084 458.987 92.084 457.249 L 92.084 457.249 L 92.084 457.249 Q 92.084 455.946 91.27 455.392 L 91.27 455.392 L 91.27 455.392 Q 90.444 454.849 88.685 454.447 L 88.685 454.447 L 86.523 453.958 L 86.523 453.958 Q 84.406 453.48 83.526 452.905 L 83.526 452.905 L 83.526 452.905 Q 82.005 451.905 82.005 449.918 L 82.005 449.918 L 82.005 449.918 Q 82.005 447.767 83.493 446.388 L 83.493 446.388 L 83.493 446.388 Q 84.981 445.009 87.707 445.009 L 87.707 445.009 L 87.707 445.009 Q 90.216 445.009 91.97 446.22 L 91.97 446.22 L 91.97 446.22 Q 93.724 447.431 93.724 450.092 L 93.724 450.092 L 91.693 450.092 L 91.693 450.092 Q 91.53 448.81 90.998 448.126 L 90.998 448.126 L 90.998 448.126 Q 90.01 446.877 87.642 446.877 L 87.642 446.877 L 87.642 446.877 Q 85.731 446.877 84.894 447.681 L 84.894 447.681 L 84.894 447.681 Q 84.058 448.484 84.058 449.549 L 84.058 449.549 L 84.058 449.549 Q 84.058 450.722 85.035 451.265 L 85.035 451.265 L 85.035 451.265 Q 85.676 451.612 87.935 452.133 L 87.935 452.133 L 90.173 452.644 L 90.173 452.644 Q 91.791 453.013 92.671 453.654 L 92.671 453.654 L 92.671 453.654 Q 94.191 454.773 94.191 456.901 L 94.191 456.901 L 94.191 456.901 Q 94.191 459.551 92.263 460.692 L 92.263 460.692 L 92.263 460.692 Q 90.336 461.832 87.783 461.832 L 87.783 461.832 L 87.783 461.832 Q 84.807 461.832 83.124 460.312 L 83.124 460.312 L 83.124 460.312 Q 81.441 458.802 81.473 456.217 L 81.473 456.217 Z  M 87.87 444.976" fill="rgb(255,255,255)"/></g><g opacity="0.9"><path d=" M 68.372 253.124 L 68.372 253.124 Q 66.764 253.124 66.039 252.241 L 66.039 252.241 L 66.039 252.241 Q 65.314 251.358 65.314 250.091 L 65.314 250.091 L 66.504 250.091 L 66.504 250.091 Q 66.58 250.971 66.833 251.37 L 66.833 251.37 L 66.833 251.37 Q 67.276 252.086 68.435 252.086 L 68.435 252.086 L 68.435 252.086 Q 69.334 252.086 69.879 251.605 L 69.879 251.605 L 69.879 251.605 Q 70.423 251.123 70.423 250.364 L 70.423 250.364 L 70.423 250.364 Q 70.423 249.427 69.85 249.053 L 69.85 249.053 L 69.85 249.053 Q 69.277 248.679 68.258 248.679 L 68.258 248.679 L 68.258 248.679 Q 68.144 248.679 68.027 248.683 L 68.027 248.683 L 68.027 248.683 Q 67.91 248.686 67.789 248.692 L 67.789 248.692 L 67.789 247.685 L 67.789 247.685 Q 67.967 247.704 68.087 247.711 L 68.087 247.711 L 68.087 247.711 Q 68.207 247.717 68.347 247.717 L 68.347 247.717 L 68.347 247.717 Q 68.986 247.717 69.398 247.514 L 69.398 247.514 L 69.398 247.514 Q 70.119 247.16 70.119 246.248 L 70.119 246.248 L 70.119 246.248 Q 70.119 245.57 69.638 245.203 L 69.638 245.203 L 69.638 245.203 Q 69.157 244.836 68.518 244.836 L 68.518 244.836 L 68.518 244.836 Q 67.378 244.836 66.941 245.596 L 66.941 245.596 L 66.941 245.596 Q 66.7 246.014 66.669 246.786 L 66.669 246.786 L 65.542 246.786 L 65.542 246.786 Q 65.542 245.773 65.947 245.064 L 65.947 245.064 L 65.947 245.064 Q 66.643 243.797 68.397 243.797 L 68.397 243.797 L 68.397 243.797 Q 69.784 243.797 70.544 244.415 L 70.544 244.415 L 70.544 244.415 Q 71.304 245.032 71.304 246.204 L 71.304 246.204 L 71.304 246.204 Q 71.304 247.039 70.854 247.559 L 70.854 247.559 L 70.854 247.559 Q 70.575 247.882 70.132 248.065 L 70.132 248.065 L 70.132 248.065 Q 70.848 248.261 71.25 248.822 L 71.25 248.822 L 71.25 248.822 Q 71.652 249.382 71.652 250.193 L 71.652 250.193 L 71.652 250.193 Q 71.652 251.491 70.797 252.308 L 70.797 252.308 L 70.797 252.308 Q 69.942 253.124 68.372 253.124" fill="rgb(255,255,255)"/></g><g opacity="0.9"><path d=" M 61.078 253.124 L 61.078 253.124 Q 59.469 253.124 58.744 252.241 L 58.744 252.241 L 58.744 252.241 Q 58.019 251.358 58.019 250.091 L 58.019 250.091 L 59.21 250.091 L 59.21 250.091 Q 59.286 250.971 59.539 251.37 L 59.539 251.37 L 59.539 251.37 Q 59.982 252.086 61.141 252.086 L 61.141 252.086 L 61.141 252.086 Q 62.04 252.086 62.585 251.605 L 62.585 251.605 L 62.585 251.605 Q 63.129 251.123 63.129 250.364 L 63.129 250.364 L 63.129 250.364 Q 63.129 249.427 62.556 249.053 L 62.556 249.053 L 62.556 249.053 Q 61.983 248.679 60.964 248.679 L 60.964 248.679 L 60.964 248.679 Q 60.85 248.679 60.732 248.683 L 60.732 248.683 L 60.732 248.683 Q 60.615 248.686 60.495 248.692 L 60.495 248.692 L 60.495 247.685 L 60.495 247.685 Q 60.672 247.704 60.793 247.711 L 60.793 247.711 L 60.793 247.711 Q 60.913 247.717 61.052 247.717 L 61.052 247.717 L 61.052 247.717 Q 61.692 247.717 62.103 247.514 L 62.103 247.514 L 62.103 247.514 Q 62.825 247.16 62.825 246.248 L 62.825 246.248 L 62.825 246.248 Q 62.825 245.57 62.344 245.203 L 62.344 245.203 L 62.344 245.203 Q 61.863 244.836 61.223 244.836 L 61.223 244.836 L 61.223 244.836 Q 60.083 244.836 59.647 245.596 L 59.647 245.596 L 59.647 245.596 Q 59.406 246.014 59.374 246.786 L 59.374 246.786 L 58.247 246.786 L 58.247 246.786 Q 58.247 245.773 58.652 245.064 L 58.652 245.064 L 58.652 245.064 Q 59.349 243.797 61.103 243.797 L 61.103 243.797 L 61.103 243.797 Q 62.49 243.797 63.249 244.415 L 63.249 244.415 L 63.249 244.415 Q 64.009 245.032 64.009 246.204 L 64.009 246.204 L 64.009 246.204 Q 64.009 247.039 63.56 247.559 L 63.56 247.559 L 63.56 247.559 Q 63.281 247.882 62.838 248.065 L 62.838 248.065 L 62.838 248.065 Q 63.553 248.261 63.955 248.822 L 63.955 248.822 L 63.955 248.822 Q 64.357 249.382 64.357 250.193 L 64.357 250.193 L 64.357 250.193 Q 64.357 251.491 63.503 252.308 L 63.503 252.308 L 63.503 252.308 Q 62.648 253.124 61.078 253.124" fill="rgb(255,255,255)"/></g><g opacity="0.9"><path d=" M 73.208 255.136 L 75.239 255.136 L 75.239 255.136 Q 75.315 256.494 75.88 257.341 L 75.88 257.341 L 75.88 257.341 Q 76.955 258.927 79.67 258.927 L 79.67 258.927 L 79.67 258.927 Q 80.887 258.927 81.886 258.579 L 81.886 258.579 L 81.886 258.579 Q 83.819 257.906 83.819 256.168 L 83.819 256.168 L 83.819 256.168 Q 83.819 254.865 83.005 254.311 L 83.005 254.311 L 83.005 254.311 Q 82.179 253.768 80.42 253.366 L 80.42 253.366 L 78.258 252.877 L 78.258 252.877 Q 76.14 252.399 75.261 251.824 L 75.261 251.824 L 75.261 251.824 Q 73.74 250.824 73.74 248.837 L 73.74 248.837 L 73.74 248.837 Q 73.74 246.686 75.228 245.307 L 75.228 245.307 L 75.228 245.307 Q 76.716 243.928 79.442 243.928 L 79.442 243.928 L 79.442 243.928 Q 81.951 243.928 83.705 245.139 L 83.705 245.139 L 83.705 245.139 Q 85.459 246.35 85.459 249.011 L 85.459 249.011 L 83.428 249.011 L 83.428 249.011 Q 83.265 247.729 82.733 247.045 L 82.733 247.045 L 82.733 247.045 Q 81.745 245.796 79.377 245.796 L 79.377 245.796 L 79.377 245.796 Q 77.465 245.796 76.629 246.6 L 76.629 246.6 L 76.629 246.6 Q 75.793 247.403 75.793 248.468 L 75.793 248.468 L 75.793 248.468 Q 75.793 249.641 76.77 250.184 L 76.77 250.184 L 76.77 250.184 Q 77.411 250.531 79.67 251.052 L 79.67 251.052 L 81.908 251.563 L 81.908 251.563 Q 83.526 251.932 84.406 252.573 L 84.406 252.573 L 84.406 252.573 Q 85.926 253.692 85.926 255.82 L 85.926 255.82 L 85.926 255.82 Q 85.926 258.47 83.998 259.611 L 83.998 259.611 L 83.998 259.611 Q 82.07 260.751 79.518 260.751 L 79.518 260.751 L 79.518 260.751 Q 76.542 260.751 74.859 259.231 L 74.859 259.231 L 74.859 259.231 Q 73.175 257.721 73.208 255.136 L 73.208 255.136 Z  M 79.605 243.895" fill="rgb(255,255,255)"/></g><g opacity="0.9"><path d=" M 181.27 472.43 L 181.27 472.43 Q 183.549 472.43 184.447 473.613 L 184.447 473.613 L 184.447 473.613 Q 185.344 474.795 185.344 476.049 L 185.344 476.049 L 183.654 476.049 L 183.654 476.049 Q 183.502 475.241 183.169 474.786 L 183.169 474.786 L 183.169 474.786 Q 182.552 473.931 181.298 473.931 L 181.298 473.931 L 181.298 473.931 Q 179.864 473.931 179.019 475.256 L 179.019 475.256 L 179.019 475.256 Q 178.174 476.581 178.079 479.05 L 178.079 479.05 L 178.079 479.05 Q 178.667 478.186 179.56 477.758 L 179.56 477.758 L 179.56 477.758 Q 180.377 477.378 181.384 477.378 L 181.384 477.378 L 181.384 477.378 Q 183.093 477.378 184.366 478.471 L 184.366 478.471 L 184.366 478.471 Q 185.639 479.563 185.639 481.728 L 185.639 481.728 L 185.639 481.728 Q 185.639 483.58 184.433 485.01 L 184.433 485.01 L 184.433 485.01 Q 183.226 486.439 180.994 486.439 L 180.994 486.439 L 180.994 486.439 Q 179.085 486.439 177.699 484.991 L 177.699 484.991 L 177.699 484.991 Q 176.312 483.542 176.312 480.114 L 176.312 480.114 L 176.312 480.114 Q 176.312 477.578 176.929 475.811 L 176.929 475.811 L 176.929 475.811 Q 178.117 472.43 181.27 472.43 L 181.27 472.43 Z  M 181.146 484.92 L 181.146 484.92 Q 182.495 484.92 183.165 484.013 L 183.165 484.013 L 183.165 484.013 Q 183.834 483.106 183.834 481.871 L 183.834 481.871 L 183.834 481.871 Q 183.834 480.826 183.236 479.881 L 183.236 479.881 L 183.236 479.881 Q 182.638 478.936 181.061 478.936 L 181.061 478.936 L 181.061 478.936 Q 179.959 478.936 179.128 479.667 L 179.128 479.667 L 179.128 479.667 Q 178.297 480.399 178.297 481.871 L 178.297 481.871 L 178.297 481.871 Q 178.297 483.163 179.052 484.041 L 179.052 484.041 L 179.052 484.041 Q 179.807 484.92 181.146 484.92 L 181.146 484.92 Z " fill="rgb(255,255,255)"/></g><g opacity="0.9"><path d=" M 169.702 476.457 L 166.501 476.457 L 166.501 475.146 L 166.501 475.146 Q 168.353 474.966 169.084 474.543 L 169.084 474.543 L 169.084 474.543 Q 169.816 474.121 170.176 472.544 L 170.176 472.544 L 171.525 472.544 L 171.525 486.088 L 169.702 486.088" fill="rgb(255,255,255)"/></g><g opacity="0.9"><path d=" M 199.145 472.615 L 199.145 472.615 Q 205.482 472.615 208.529 476.688 L 208.529 476.688 L 208.529 476.688 Q 210.907 479.864 210.907 484.817 L 210.907 484.817 L 210.907 484.817 Q 210.907 490.177 208.187 493.728 L 208.187 493.728 L 208.187 493.728 Q 204.994 497.899 199.08 497.899 L 199.08 497.899 L 199.08 497.899 Q 193.557 497.899 190.397 494.249 L 190.397 494.249 L 190.397 494.249 Q 187.578 490.731 187.578 485.354 L 187.578 485.354 L 187.578 485.354 Q 187.578 480.5 189.989 477.046 L 189.989 477.046 L 189.989 477.046 Q 193.085 472.615 199.145 472.615 L 199.145 472.615 Z  M 199.471 494.999 L 199.471 494.999 Q 203.755 494.999 205.67 491.928 L 205.67 491.928 L 205.67 491.928 Q 207.584 488.857 207.584 484.866 L 207.584 484.866 L 207.584 484.866 Q 207.584 480.646 205.376 478.072 L 205.376 478.072 L 205.376 478.072 Q 203.169 475.498 199.34 475.498 L 199.34 475.498 L 199.34 475.498 Q 195.626 475.498 193.28 478.048 L 193.28 478.048 L 193.28 478.048 Q 190.934 480.597 190.934 485.566 L 190.934 485.566 L 190.934 485.566 Q 190.934 489.541 192.946 492.27 L 192.946 492.27 L 192.946 492.27 Q 194.958 494.999 199.471 494.999 L 199.471 494.999 Z  M 199.243 472.615" fill="rgb(255,255,255)"/></g><g opacity="0.9"><path d=" M 404.326 125.631 L 404.326 125.631 Q 405.268 125.631 405.798 125.104 L 405.798 125.104 L 405.798 125.104 Q 406.328 124.578 406.328 123.85 L 406.328 123.85 L 406.328 123.85 Q 406.328 123.217 405.822 122.686 L 405.822 122.686 L 405.822 122.686 Q 405.315 122.156 404.278 122.156 L 404.278 122.156 L 404.278 122.156 Q 403.249 122.156 402.79 122.686 L 402.79 122.686 L 402.79 122.686 Q 402.331 123.217 402.331 123.929 L 402.331 123.929 L 402.331 123.929 Q 402.331 124.728 402.925 125.18 L 402.925 125.18 L 402.925 125.18 Q 403.518 125.631 404.326 125.631 L 404.326 125.631 Z  M 404.413 131.242 L 404.413 131.242 Q 405.402 131.242 406.055 130.708 L 406.055 130.708 L 406.055 130.708 Q 406.708 130.174 406.708 129.113 L 406.708 129.113 L 406.708 129.113 Q 406.708 128.013 406.035 127.443 L 406.035 127.443 L 406.035 127.443 Q 405.363 126.873 404.31 126.873 L 404.31 126.873 L 404.31 126.873 Q 403.289 126.873 402.644 127.455 L 402.644 127.455 L 402.644 127.455 Q 401.999 128.037 401.999 129.066 L 401.999 129.066 L 401.999 129.066 Q 401.999 129.952 402.588 130.597 L 402.588 130.597 L 402.588 130.597 Q 403.178 131.242 404.413 131.242 L 404.413 131.242 Z  M 402.387 126.177 L 402.387 126.177 Q 401.793 125.924 401.461 125.583 L 401.461 125.583 L 401.461 125.583 Q 400.835 124.95 400.835 123.937 L 400.835 123.937 L 400.835 123.937 Q 400.835 122.671 401.753 121.76 L 401.753 121.76 L 401.753 121.76 Q 402.672 120.85 404.357 120.85 L 404.357 120.85 L 404.357 120.85 Q 405.988 120.85 406.914 121.709 L 406.914 121.709 L 406.914 121.709 Q 407.84 122.568 407.84 123.715 L 407.84 123.715 L 407.84 123.715 Q 407.84 124.776 407.302 125.433 L 407.302 125.433 L 407.302 125.433 Q 407.001 125.805 406.368 126.161 L 406.368 126.161 L 406.368 126.161 Q 407.072 126.485 407.476 126.905 L 407.476 126.905 L 407.476 126.905 Q 408.228 127.696 408.228 128.963 L 408.228 128.963 L 408.228 128.963 Q 408.228 130.459 407.223 131.5 L 407.223 131.5 L 407.223 131.5 Q 406.217 132.54 404.381 132.54 L 404.381 132.54 L 404.381 132.54 Q 402.727 132.54 401.583 131.642 L 401.583 131.642 L 401.583 131.642 Q 400.44 130.744 400.44 129.034 L 400.44 129.034 L 400.44 129.034 Q 400.44 128.029 400.93 127.297 L 400.93 127.297 L 400.93 127.297 Q 401.421 126.565 402.387 126.177 L 402.387 126.177 Z " fill="rgb(255,255,255)"/></g><g opacity="0.9"><path d=" M 395.018 124.19 L 392.351 124.19 L 392.351 123.098 L 392.351 123.098 Q 393.894 122.948 394.503 122.595 L 394.503 122.595 L 394.503 122.595 Q 395.113 122.243 395.414 120.929 L 395.414 120.929 L 396.538 120.929 L 396.538 132.216 L 395.018 132.216" fill="rgb(255,255,255)"/></g><g opacity="0.9"><path d=" M 419.554 120.988 L 419.554 120.988 Q 424.835 120.988 427.374 124.382 L 427.374 124.382 L 427.374 124.382 Q 429.356 127.03 429.356 131.157 L 429.356 131.157 L 429.356 131.157 Q 429.356 135.623 427.089 138.583 L 427.089 138.583 L 427.089 138.583 Q 424.428 142.058 419.5 142.058 L 419.5 142.058 L 419.5 142.058 Q 414.898 142.058 412.264 139.017 L 412.264 139.017 L 412.264 139.017 Q 409.915 136.085 409.915 131.605 L 409.915 131.605 L 409.915 131.605 Q 409.915 127.559 411.924 124.681 L 411.924 124.681 L 411.924 124.681 Q 414.504 120.988 419.554 120.988 L 419.554 120.988 Z  M 419.826 139.642 L 419.826 139.642 Q 423.396 139.642 424.991 137.083 L 424.991 137.083 L 424.991 137.083 Q 426.587 134.524 426.587 131.198 L 426.587 131.198 L 426.587 131.198 Q 426.587 127.681 424.747 125.536 L 424.747 125.536 L 424.747 125.536 Q 422.907 123.391 419.717 123.391 L 419.717 123.391 L 419.717 123.391 Q 416.622 123.391 414.667 125.516 L 414.667 125.516 L 414.667 125.516 Q 412.712 127.641 412.712 131.781 L 412.712 131.781 L 412.712 131.781 Q 412.712 135.094 414.388 137.368 L 414.388 137.368 L 414.388 137.368 Q 416.065 139.642 419.826 139.642 L 419.826 139.642 Z  M 419.636 120.988" fill="rgb(255,255,255)"/></g><g opacity="0.9"><path d=" M 167.403 200.489 L 173.709 200.489 L 173.709 201.483 L 173.709 201.483 Q 173.272 201.907 172.547 202.958 L 172.547 202.958 L 172.547 202.958 Q 171.822 204.009 171.265 205.225 L 171.265 205.225 L 171.265 205.225 Q 170.714 206.409 170.429 207.384 L 170.429 207.384 L 170.429 207.384 Q 170.246 208.011 169.954 209.404 L 169.954 209.404 L 168.694 209.404 L 168.694 209.404 Q 169.125 206.808 170.594 204.237 L 170.594 204.237 L 170.594 204.237 Q 171.461 202.73 172.417 201.635 L 172.417 201.635 L 167.403 201.635" fill="rgb(255,255,255)"/></g><g opacity="0.9"><path d=" M 163.008 202.983 L 160.874 202.983 L 160.874 202.109 L 160.874 202.109 Q 162.109 201.989 162.597 201.707 L 162.597 201.707 L 162.597 201.707 Q 163.084 201.426 163.325 200.375 L 163.325 200.375 L 164.224 200.375 L 164.224 209.404 L 163.008 209.404" fill="rgb(255,255,255)"/></g><g opacity="0.9"><path d=" M 182.637 200.421 L 182.637 200.421 Q 186.862 200.421 188.893 203.137 L 188.893 203.137 L 188.893 203.137 Q 190.479 205.255 190.479 208.556 L 190.479 208.556 L 190.479 208.556 Q 190.479 212.129 188.665 214.497 L 188.665 214.497 L 188.665 214.497 Q 186.536 217.278 182.594 217.278 L 182.594 217.278 L 182.594 217.278 Q 178.912 217.278 176.805 214.845 L 176.805 214.845 L 176.805 214.845 Q 174.926 212.499 174.926 208.915 L 174.926 208.915 L 174.926 208.915 Q 174.926 205.678 176.533 203.376 L 176.533 203.376 L 176.533 203.376 Q 178.597 200.421 182.637 200.421 L 182.637 200.421 Z  M 182.854 215.344 L 182.854 215.344 Q 185.711 215.344 186.987 213.297 L 186.987 213.297 L 186.987 213.297 Q 188.263 211.25 188.263 208.589 L 188.263 208.589 L 188.263 208.589 Q 188.263 205.776 186.791 204.06 L 186.791 204.06 L 186.791 204.06 Q 185.32 202.344 182.767 202.344 L 182.767 202.344 L 182.767 202.344 Q 180.291 202.344 178.727 204.044 L 178.727 204.044 L 178.727 204.044 Q 177.163 205.743 177.163 209.056 L 177.163 209.056 L 177.163 209.056 Q 177.163 211.706 178.505 213.525 L 178.505 213.525 L 178.505 213.525 Q 179.846 215.344 182.854 215.344 L 182.854 215.344 Z  M 182.702 200.421" fill="rgb(255,255,255)"/></g><g opacity="0.9"><path d=" M 117.246 354.821 L 117.246 354.821 Q 117.309 353.649 117.73 352.782 L 117.73 352.782 L 117.73 352.782 Q 118.151 351.914 119.374 351.205 L 119.374 351.205 L 120.589 350.502 L 120.589 350.502 Q 121.406 350.028 121.735 349.692 L 121.735 349.692 L 121.735 349.692 Q 122.255 349.166 122.255 348.489 L 122.255 348.489 L 122.255 348.489 Q 122.255 347.697 121.78 347.232 L 121.78 347.232 L 121.78 347.232 Q 121.305 346.767 120.513 346.767 L 120.513 346.767 L 120.513 346.767 Q 119.342 346.767 118.892 347.653 L 118.892 347.653 L 118.892 347.653 Q 118.652 348.128 118.626 348.97 L 118.626 348.97 L 117.468 348.97 L 117.468 348.97 Q 117.487 347.786 117.905 347.039 L 117.905 347.039 L 117.905 347.039 Q 118.645 345.722 120.52 345.722 L 120.52 345.722 L 120.52 345.722 Q 122.077 345.722 122.796 346.564 L 122.796 346.564 L 122.796 346.564 Q 123.515 347.406 123.515 348.438 L 123.515 348.438 L 123.515 348.438 Q 123.515 349.527 122.748 350.3 L 122.748 350.3 L 122.748 350.3 Q 122.305 350.749 121.159 351.389 L 121.159 351.389 L 120.292 351.87 L 120.292 351.87 Q 119.671 352.212 119.317 352.522 L 119.317 352.522 L 119.317 352.522 Q 118.683 353.073 118.519 353.744 L 118.519 353.744 L 123.47 353.744 L 123.47 354.821" fill="rgb(255,255,255)"/></g><g opacity="0.9"><path d=" M 125.801 362.228 L 125.801 346.273 L 127.984 346.273 L 127.984 352.865 L 136.282 352.865 L 136.282 346.273 L 138.465 346.273 L 138.465 362.228 L 136.282 362.228 L 136.282 354.766 L 127.984 354.766 L 127.984 362.228" fill="rgb(255,255,255)"/></g><g opacity="0.9"><path d=" M 300.128 164.624 L 296.927 164.624 L 296.927 163.313 L 296.927 163.313 Q 298.779 163.132 299.51 162.71 L 299.51 162.71 L 299.51 162.71 Q 300.242 162.287 300.603 160.711 L 300.603 160.711 L 301.951 160.711 L 301.951 174.254 L 300.128 174.254" fill="rgb(255,255,255)"/></g><g opacity="0.9"><path d=" M 308.506 185.365 L 308.506 161.433 L 311.781 161.433 L 311.781 171.322 L 324.227 171.322 L 324.227 161.433 L 327.502 161.433 L 327.502 185.365 L 324.227 185.365 L 324.227 174.173 L 311.781 174.173 L 311.781 185.365" fill="rgb(255,255,255)"/></g></g><path d=" M 119.348 208.269 C 118.798 207.059 118.064 206.014 117.148 205.134 C 116.23 204.254 115.13 203.558 113.848 203.044 C 112.564 202.532 111.225 202.274 109.833 202.274 C 108.366 202.274 107.009 202.549 105.763 203.099 C 104.515 203.649 103.415 204.364 102.463 205.244 C 101.509 206.124 100.776 207.169 100.263 208.379 C 99.749 209.589 99.494 210.854 99.494 212.174 C 99.494 214.888 100.483 217.217 102.463 219.159 C 104.443 221.102 106.899 222.074 109.833 222.074 C 111.225 222.074 112.564 221.818 113.848 221.304 C 115.13 220.791 116.23 220.094 117.148 219.214 C 118.064 218.334 118.798 217.289 119.348 216.079 C 119.898 214.869 120.173 213.568 120.173 212.174 C 120.173 210.782 119.898 209.479 119.348 208.269 Z  M 118.853 229.664 L 100.813 229.664 L 100.813 284.444 L 118.853 284.444 L 118.853 229.664 Z  M 175.281 235.604 C 172.567 233.038 169.248 231.113 165.326 229.829 C 161.402 228.546 157.387 227.904 153.281 227.904 C 150.641 227.904 147.982 228.253 145.306 228.949 C 142.629 229.645 140.191 230.727 137.991 232.193 C 135.791 233.661 133.993 235.548 132.601 237.859 C 131.207 240.169 130.511 242.973 130.511 246.273 C 130.511 248.842 130.987 251.042 131.941 252.874 C 132.893 254.708 134.122 256.247 135.626 257.493 C 137.129 258.741 138.834 259.73 140.741 260.464 C 142.647 261.198 144.553 261.784 146.461 262.224 C 150.201 263.103 152.951 263.948 154.711 264.754 C 156.471 265.561 157.351 266.807 157.351 268.493 C 157.351 270.254 156.636 271.483 155.206 272.178 C 153.776 272.875 152.327 273.224 150.861 273.224 C 148.221 273.224 145.727 272.638 143.381 271.464 C 141.033 270.292 139.053 268.823 137.441 267.064 L 127.321 277.733 C 130.181 280.521 133.756 282.629 138.046 284.059 C 142.336 285.488 146.718 286.203 151.191 286.203 C 153.977 286.203 156.763 285.874 159.552 285.214 C 162.338 284.553 164.848 283.491 167.086 282.023 C 169.322 280.557 171.137 278.633 172.531 276.249 C 173.924 273.866 174.621 270.952 174.621 267.504 C 174.621 264.863 174.107 262.591 173.081 260.684 C 172.053 258.777 170.697 257.164 169.011 255.844 C 167.323 254.523 165.436 253.46 163.346 252.654 C 161.256 251.848 159.183 251.223 157.131 250.783 C 153.611 249.977 151.062 249.243 149.486 248.583 C 147.908 247.923 147.121 246.824 147.121 245.283 C 147.121 243.671 147.836 242.533 149.266 241.874 C 150.696 241.214 152.254 240.883 153.941 240.883 C 156.141 240.883 158.231 241.361 160.211 242.314 C 162.191 243.268 163.913 244.441 165.381 245.833 L 175.281 235.604 Z  M 240.73 244.733 C 239.117 241.141 236.917 238.097 234.13 235.603 C 231.342 233.111 228.117 231.203 224.451 229.883 C 220.783 228.563 216.861 227.903 212.68 227.903 C 208.572 227.903 204.667 228.563 200.964 229.883 C 197.262 231.203 194.036 233.111 191.286 235.603 C 188.536 238.097 186.352 241.141 184.74 244.733 C 183.126 248.327 182.32 252.361 182.32 256.833 C 182.32 261.307 183.126 265.358 184.74 268.988 C 186.352 272.618 188.536 275.698 191.286 278.228 C 194.036 280.758 197.262 282.721 200.964 284.113 C 204.667 285.505 208.572 286.203 212.68 286.203 C 216.861 286.203 220.783 285.505 224.451 284.113 C 228.117 282.721 231.342 280.758 234.13 278.228 C 236.917 275.698 239.117 272.618 240.73 268.988 C 242.342 265.358 243.15 261.307 243.15 256.833 C 243.15 252.361 242.342 248.327 240.73 244.733 Z  M 224.945 262.003 C 224.395 263.691 223.57 265.212 222.471 266.568 C 221.37 267.926 220.012 269.007 218.4 269.813 C 216.786 270.621 214.917 271.023 212.79 271.023 C 210.663 271.023 208.792 270.621 207.18 269.813 C 205.566 269.007 204.21 267.926 203.111 266.568 C 202.01 265.212 201.186 263.691 200.635 262.003 C 200.085 260.317 199.811 258.593 199.811 256.833 C 199.811 255.073 200.085 253.351 200.635 251.663 C 201.186 249.977 201.992 248.492 203.055 247.208 C 204.117 245.926 205.456 244.881 207.07 244.073 C 208.682 243.267 210.553 242.863 212.68 242.863 C 214.807 242.863 216.676 243.267 218.29 244.073 C 219.902 244.881 221.26 245.926 222.361 247.208 C 223.46 248.492 224.303 249.977 224.891 251.663 C 225.477 253.351 225.77 255.073 225.77 256.833 C 225.77 258.593 225.495 260.317 224.945 262.003 Z  M 310.029 229.664 L 290.779 229.664 L 279.228 265.194 L 278.898 265.194 L 267.348 229.664 L 247.438 229.664 L 268.999 284.444 L 288.468 284.444 L 310.029 229.664 Z  M 331.477 250.783 C 331.549 249.391 331.917 248.052 332.578 246.768 C 333.238 245.486 334.118 244.367 335.217 243.413 C 336.318 242.461 337.6 241.708 339.068 241.158 C 340.534 240.608 342.148 240.333 343.908 240.333 C 347.499 240.333 350.195 241.361 351.993 243.413 C 353.789 245.467 354.687 247.923 354.687 250.783 L 331.477 250.783 Z  M 369.262 245.173 C 367.905 241.507 366.017 238.391 363.597 235.823 C 361.177 233.257 358.28 231.296 354.908 229.938 C 351.534 228.582 347.83 227.903 343.797 227.903 C 339.618 227.903 335.73 228.601 332.137 229.993 C 328.543 231.387 325.427 233.348 322.788 235.878 C 320.148 238.408 318.057 241.488 316.517 245.118 C 314.977 248.748 314.207 252.801 314.207 257.273 C 314.207 261.893 314.995 266.001 316.573 269.593 C 318.149 273.187 320.312 276.212 323.062 278.668 C 325.812 281.126 329.02 282.996 332.687 284.278 C 336.354 285.56 340.24 286.203 344.347 286.203 C 349.919 286.203 354.815 285.194 359.033 283.178 C 363.248 281.162 366.64 278.283 369.207 274.543 L 356.667 266.623 C 355.419 268.311 353.807 269.686 351.828 270.748 C 349.847 271.812 347.427 272.343 344.568 272.343 C 342.954 272.343 341.395 272.087 339.892 271.573 C 338.388 271.061 337.033 270.346 335.823 269.428 C 334.613 268.512 333.623 267.431 332.852 266.183 C 332.082 264.937 331.623 263.543 331.477 262.003 L 371.187 262.003 C 371.259 261.343 371.297 260.647 371.297 259.913 L 371.297 257.713 C 371.297 253.021 370.619 248.841 369.262 245.173 Z  M 418.969 228.14 C 418.53 227.994 417.96 227.884 417.264 227.81 C 416.567 227.738 415.852 227.7 415.119 227.7 C 411.745 227.7 408.776 228.587 406.209 230.359 C 403.641 232.131 401.661 234.42 400.269 237.225 L 400.049 237.225 L 400.049 229.305 L 382.669 229.305 L 382.669 284.02 L 400.709 284.02 L 400.709 255.935 C 400.709 254.839 400.929 253.56 401.369 252.098 C 401.809 250.635 402.524 249.282 403.514 248.038 C 404.504 246.795 405.824 245.735 407.474 244.856 C 409.124 243.98 411.159 243.54 413.579 243.54 C 414.312 243.54 415.064 243.578 415.834 243.65 C 416.604 243.724 417.391 243.87 418.199 244.09 L 418.969 228.14 Z  M 468.206 235.604 C 465.492 233.038 462.173 231.113 458.251 229.829 C 454.327 228.546 450.312 227.904 446.206 227.904 C 443.566 227.904 440.907 228.253 438.231 228.949 C 435.554 229.645 433.116 230.727 430.916 232.193 C 428.716 233.661 426.918 235.548 425.526 237.859 C 424.132 240.169 423.436 242.973 423.436 246.273 C 423.436 248.842 423.912 251.042 424.866 252.874 C 425.818 254.708 427.047 256.247 428.551 257.493 C 430.054 258.741 431.759 259.73 433.666 260.464 C 435.572 261.198 437.478 261.784 439.386 262.224 C 443.126 263.103 445.876 263.948 447.636 264.754 C 449.396 265.561 450.276 266.807 450.276 268.493 C 450.276 270.254 449.561 271.483 448.131 272.178 C 446.701 272.875 445.252 273.224 443.786 273.224 C 441.146 273.224 438.652 272.638 436.306 271.464 C 433.958 270.292 431.978 268.823 430.366 267.064 L 420.246 277.733 C 423.106 280.521 426.681 282.629 430.971 284.059 C 435.261 285.488 439.643 286.203 444.116 286.203 C 446.902 286.203 449.688 285.874 452.477 285.214 C 455.263 284.553 457.773 283.491 460.011 282.023 C 462.247 280.557 464.062 278.633 465.456 276.249 C 466.849 273.866 467.546 270.952 467.546 267.504 C 467.546 264.863 467.032 262.591 466.006 260.684 C 464.978 258.777 463.622 257.164 461.936 255.844 C 460.248 254.523 458.361 253.46 456.271 252.654 C 454.181 251.848 452.108 251.223 450.056 250.783 C 446.536 249.977 443.987 249.243 442.411 248.583 C 440.833 247.923 440.046 246.824 440.046 245.283 C 440.046 243.671 440.761 242.533 442.191 241.874 C 443.621 241.214 445.179 240.883 446.866 240.883 C 449.066 240.883 451.156 241.361 453.136 242.314 C 455.116 243.268 456.838 244.441 458.306 245.833 L 468.206 235.604 Z  M 492.514 250.783 C 492.586 249.391 492.954 248.052 493.615 246.768 C 494.275 245.486 495.155 244.367 496.254 243.413 C 497.355 242.461 498.637 241.708 500.105 241.158 C 501.571 240.608 503.185 240.333 504.945 240.333 C 508.536 240.333 511.232 241.361 513.03 243.413 C 514.826 245.467 515.724 247.923 515.724 250.783 L 492.514 250.783 Z  M 530.299 245.173 C 528.942 241.507 527.054 238.391 524.634 235.823 C 522.214 233.257 519.317 231.296 515.945 229.938 C 512.571 228.582 508.867 227.903 504.834 227.903 C 500.655 227.903 496.767 228.601 493.174 229.993 C 489.58 231.387 486.464 233.348 483.825 235.878 C 481.185 238.408 479.094 241.488 477.554 245.118 C 476.014 248.748 475.244 252.801 475.244 257.273 C 475.244 261.893 476.032 266.001 477.61 269.593 C 479.186 273.187 481.349 276.212 484.099 278.668 C 486.849 281.126 490.057 282.996 493.724 284.278 C 497.391 285.56 501.277 286.203 505.384 286.203 C 510.956 286.203 515.852 285.194 520.07 283.178 C 524.285 281.162 527.677 278.283 530.244 274.543 L 517.704 266.623 C 516.456 268.311 514.844 269.686 512.865 270.748 C 510.884 271.812 508.464 272.343 505.605 272.343 C 503.991 272.343 502.432 272.087 500.929 271.573 C 499.425 271.061 498.07 270.346 496.86 269.428 C 495.65 268.512 494.66 267.431 493.889 266.183 C 493.119 264.937 492.66 263.543 492.514 262.003 L 532.224 262.003 C 532.296 261.343 532.334 260.647 532.334 259.913 L 532.334 257.713 C 532.334 253.021 531.656 248.841 530.299 245.173 Z " fill-rule="evenodd" fill="rgb(255,255,255)" vector-effect="non-scaling-stroke" stroke-width="3" stroke="rgb(59,59,59)" stroke-linejoin="miter" stroke-linecap="square" stroke-miterlimit="3"/><path d=" M 511.923 587.111 L 511.923 587.111 L 511.923 587.111 Q 512.971 588.924 512.646 590.469 L 512.646 590.469 L 512.646 590.469 Q 512.321 592.015 510.711 592.945 L 510.711 592.945 L 510.711 592.945 Q 509.716 593.52 508.675 593.498 L 508.675 593.498 L 508.675 593.498 Q 507.635 593.477 506.711 592.847 L 506.711 592.847 L 506.711 592.847 Q 505.787 592.216 505.111 591.046 L 505.111 591.046 L 505.111 591.046 Q 504.064 589.233 504.386 587.698 L 504.386 587.698 L 504.386 587.698 Q 504.708 586.163 506.318 585.233 L 506.318 585.233 L 506.318 585.233 Q 507.874 584.334 509.389 584.84 L 509.389 584.84 L 509.389 584.84 Q 510.903 585.345 511.923 587.111 Z  M 506.275 590.374 L 506.275 590.374 L 506.275 590.374 Q 507.096 591.795 508.094 592.21 L 508.094 592.21 L 508.094 592.21 Q 509.092 592.626 510.194 591.989 L 510.194 591.989 L 510.194 591.989 Q 511.297 591.352 511.441 590.281 L 511.441 590.281 L 511.441 590.281 Q 511.584 589.21 510.76 587.783 L 510.76 587.783 L 510.76 587.783 Q 509.943 586.369 508.947 585.965 L 508.947 585.965 L 508.947 585.965 Q 507.952 585.562 506.835 586.206 L 506.835 586.206 L 506.835 586.206 Q 505.733 586.843 505.59 587.892 L 505.59 587.892 L 505.59 587.892 Q 505.446 588.94 506.275 590.374 Z  M 515.058 580.184 L 515.058 580.184 L 515.058 580.184 Q 515.552 579.898 515.991 579.753 L 515.991 579.753 L 516.438 580.884 L 516.438 580.884 Q 515.919 581.049 515.567 581.252 L 515.567 581.252 L 515.567 581.252 Q 514.667 581.772 514.45 582.872 L 514.45 582.872 L 514.45 582.872 Q 514.233 583.972 514.862 585.061 L 514.862 585.061 L 517.16 589.038 L 516.037 589.687 L 511.754 582.273 L 512.681 581.738 L 513.603 583.037 L 513.657 583.005 L 513.657 583.005 Q 513.651 582.043 514.006 581.315 L 514.006 581.315 L 514.006 581.315 Q 514.361 580.586 515.058 580.184 Z  M 520.913 576.981 L 523.477 575.5 L 523.888 576.21 L 522.608 577.166 L 522.608 577.166 Q 522.934 577.293 523.304 577.59 L 523.304 577.59 L 523.304 577.59 Q 523.674 577.886 523.951 578.366 L 523.951 578.366 L 523.951 578.366 Q 524.58 579.455 524.211 580.534 L 524.211 580.534 L 524.211 580.534 Q 523.843 581.614 522.544 582.364 L 522.544 582.364 L 522.544 582.364 Q 522.212 582.556 521.89 582.67 L 521.89 582.67 L 521.89 582.67 Q 521.392 583.463 521.724 584.038 L 521.724 584.038 L 521.724 584.038 Q 521.9 584.342 522.234 584.343 L 522.234 584.343 L 522.234 584.343 Q 522.569 584.344 523.177 583.992 L 523.177 583.992 L 524.49 583.234 L 524.49 583.234 Q 525.694 582.538 526.633 582.672 L 526.633 582.672 L 526.633 582.672 Q 527.572 582.806 528.131 583.774 L 528.131 583.774 L 528.131 583.774 Q 528.842 585.005 528.228 586.222 L 528.228 586.222 L 528.228 586.222 Q 527.614 587.438 525.719 588.533 L 525.719 588.533 L 525.719 588.533 Q 524.265 589.373 523.164 589.287 L 523.164 589.287 L 523.164 589.287 Q 522.064 589.201 521.493 588.213 L 521.493 588.213 L 521.493 588.213 Q 521.102 587.537 521.25 586.793 L 521.25 586.793 L 521.25 586.793 Q 521.397 586.049 522.08 585.42 L 522.08 585.42 L 522.08 585.42 Q 521.722 585.455 521.373 585.296 L 521.373 585.296 L 521.373 585.296 Q 521.024 585.137 520.817 584.779 L 520.817 584.779 L 520.817 584.779 Q 520.582 584.373 520.623 583.943 L 520.623 583.943 L 520.623 583.943 Q 520.663 583.514 520.966 582.96 L 520.966 582.96 L 520.966 582.96 Q 520.254 583.055 519.564 582.696 L 519.564 582.696 L 519.564 582.696 Q 518.874 582.337 518.452 581.607 L 518.452 581.607 L 518.452 581.607 Q 517.748 580.389 518.098 579.307 L 518.098 579.307 L 518.098 579.307 Q 518.447 578.226 519.787 577.452 L 519.787 577.452 L 519.787 577.452 Q 520.369 577.116 520.913 576.981 L 520.913 576.981 Z  M 522.567 587.575 L 522.567 587.575 L 522.567 587.575 Q 522.915 588.177 523.602 588.195 L 523.602 588.195 L 523.602 588.195 Q 524.29 588.213 525.237 587.666 L 525.237 587.666 L 525.237 587.666 Q 526.65 586.849 527.086 586.033 L 527.086 586.033 L 527.086 586.033 Q 527.522 585.218 527.103 584.494 L 527.103 584.494 L 527.103 584.494 Q 526.756 583.892 526.249 583.873 L 526.249 583.873 L 526.249 583.873 Q 525.742 583.855 524.714 584.449 L 524.714 584.449 L 523.367 585.227 L 523.367 585.227 Q 522.603 585.668 522.388 586.28 L 522.388 586.28 L 522.388 586.28 Q 522.173 586.891 522.567 587.575 Z  M 519.546 580.938 L 519.546 580.938 L 519.546 580.938 Q 519.995 581.716 520.665 581.862 L 520.665 581.862 L 520.665 581.862 Q 521.336 582.007 522.12 581.553 L 522.12 581.553 L 522.12 581.553 Q 523.764 580.604 522.842 579.007 L 522.842 579.007 L 522.842 579.007 Q 521.876 577.336 520.212 578.298 L 520.212 578.298 L 520.212 578.298 Q 519.421 578.755 519.241 579.427 L 519.241 579.427 L 519.241 579.427 Q 519.061 580.1 519.546 580.938 Z  M 447.591 619.343 L 451.875 626.757 L 450.752 627.406 L 446.468 619.992 L 447.591 619.343 Z  M 445.213 618.037 L 445.213 618.037 L 445.213 618.037 Q 444.99 617.652 445.076 617.363 L 445.076 617.363 L 445.076 617.363 Q 445.162 617.074 445.446 616.91 L 445.446 616.91 L 445.446 616.91 Q 445.716 616.754 446.018 616.823 L 446.018 616.823 L 446.018 616.823 Q 446.32 616.892 446.539 617.271 L 446.539 617.271 L 446.539 617.271 Q 446.757 617.65 446.669 617.949 L 446.669 617.949 L 446.669 617.949 Q 446.58 618.249 446.309 618.405 L 446.309 618.405 L 446.309 618.405 Q 446.025 618.569 445.728 618.493 L 445.728 618.493 L 445.728 618.493 Q 445.432 618.416 445.213 618.037 Z  M 457.87 620.595 L 457.87 620.595 L 457.87 620.595 Q 458.468 621.63 458.021 622.638 L 458.021 622.638 L 458.021 622.638 Q 457.574 623.645 456.181 624.45 L 456.181 624.45 L 456.181 624.45 Q 454.706 625.302 453.611 625.312 L 453.611 625.312 L 453.009 624.27 L 453.009 624.27 Q 453.7 624.232 454.402 624.034 L 454.402 624.034 L 454.402 624.034 Q 455.104 623.836 455.672 623.507 L 455.672 623.507 L 455.672 623.507 Q 456.552 622.999 456.863 622.445 L 456.863 622.445 L 456.863 622.445 Q 457.174 621.891 456.842 621.315 L 456.842 621.315 L 456.842 621.315 Q 456.592 620.883 456.039 620.792 L 456.039 620.792 L 456.039 620.792 Q 455.485 620.701 454.154 620.911 L 454.154 620.911 L 454.154 620.911 Q 452.896 621.123 452.294 621.088 L 452.294 621.088 L 452.294 621.088 Q 451.691 621.052 451.267 620.81 L 451.267 620.81 L 451.267 620.81 Q 450.843 620.568 450.55 620.06 L 450.55 620.06 L 450.55 620.06 Q 450.026 619.154 450.461 618.204 L 450.461 618.204 L 450.461 618.204 Q 450.895 617.253 452.181 616.511 L 452.181 616.511 L 452.181 616.511 Q 453.378 615.819 454.802 615.646 L 454.802 615.646 L 454.931 616.789 L 454.931 616.789 Q 453.549 616.974 452.643 617.498 L 452.643 617.498 L 452.643 617.498 Q 451.844 617.959 451.583 618.444 L 451.583 618.444 L 451.583 618.444 Q 451.322 618.929 451.576 619.369 L 451.576 619.369 L 451.576 619.369 Q 451.748 619.666 452.021 619.788 L 452.021 619.788 L 452.021 619.788 Q 452.295 619.91 452.742 619.904 L 452.742 619.904 L 452.742 619.904 Q 453.19 619.898 454.358 619.701 L 454.358 619.701 L 454.358 619.701 Q 455.954 619.419 456.699 619.639 L 456.699 619.639 L 456.699 619.639 Q 457.444 619.858 457.87 620.595 Z  M 465.119 614.152 L 465.119 614.152 L 465.119 614.152 Q 466.166 615.965 465.841 617.51 L 465.841 617.51 L 465.841 617.51 Q 465.516 619.056 463.906 619.986 L 463.906 619.986 L 463.906 619.986 Q 462.911 620.561 461.871 620.54 L 461.871 620.54 L 461.871 620.54 Q 460.83 620.518 459.906 619.888 L 459.906 619.888 L 459.906 619.888 Q 458.983 619.258 458.306 618.087 L 458.306 618.087 L 458.306 618.087 Q 457.259 616.275 457.581 614.74 L 457.581 614.74 L 457.581 614.74 Q 457.903 613.205 459.513 612.274 L 459.513 612.274 L 459.513 612.274 Q 461.069 611.375 462.584 611.881 L 462.584 611.881 L 462.584 611.881 Q 464.098 612.386 465.119 614.152 Z  M 459.47 617.415 L 459.47 617.415 L 459.47 617.415 Q 460.291 618.836 461.289 619.252 L 461.289 619.252 L 461.289 619.252 Q 462.287 619.667 463.39 619.03 L 463.39 619.03 L 463.39 619.03 Q 464.492 618.393 464.636 617.322 L 464.636 617.322 L 464.636 617.322 Q 464.78 616.251 463.955 614.824 L 463.955 614.824 L 463.955 614.824 Q 463.138 613.41 462.143 613.007 L 462.143 613.007 L 462.143 613.007 Q 461.147 612.603 460.031 613.248 L 460.031 613.248 L 460.031 613.248 Q 458.928 613.885 458.785 614.933 L 458.785 614.933 L 458.785 614.933 Q 458.641 615.981 459.47 617.415 Z  M 472.169 615.032 L 470.856 615.79 L 463.759 610.002 L 464.963 609.306 L 469.1 612.781 L 469.1 612.781 Q 470.532 614.011 470.892 614.416 L 470.892 614.416 L 470.946 614.385 L 470.946 614.385 Q 470.814 613.983 470.559 612.628 L 470.559 612.628 L 470.559 612.628 Q 470.304 611.273 469.495 606.688 L 469.495 606.688 L 470.699 605.992 L 472.169 615.032 Z  M 479.383 611.044 L 479.383 611.044 L 479.383 611.044 Q 477.74 611.994 476.211 611.542 L 476.211 611.542 L 476.211 611.542 Q 474.682 611.09 473.654 609.311 L 473.654 609.311 L 473.654 609.311 Q 472.618 607.518 472.891 605.953 L 472.891 605.953 L 472.891 605.953 Q 473.165 604.387 474.653 603.528 L 474.653 603.528 L 474.653 603.528 Q 476.046 602.723 477.388 603.17 L 477.388 603.17 L 477.388 603.17 Q 478.729 603.618 479.597 605.12 L 479.597 605.12 L 480.007 605.83 L 474.9 608.781 L 474.9 608.781 Q 475.688 610.067 476.704 610.382 L 476.704 610.382 L 476.704 610.382 Q 477.721 610.697 478.857 610.04 L 478.857 610.04 L 478.857 610.04 Q 480.055 609.348 480.936 608.171 L 480.936 608.171 L 481.514 609.173 L 481.514 609.173 Q 481.067 609.774 480.601 610.192 L 480.601 610.192 L 480.601 610.192 Q 480.134 610.61 479.383 611.044 Z  M 475.183 604.476 L 475.183 604.476 L 475.183 604.476 Q 474.29 604.992 474.095 605.88 L 474.095 605.88 L 474.095 605.88 Q 473.9 606.769 474.399 607.852 L 474.399 607.852 L 478.275 605.612 L 478.275 605.612 Q 477.662 604.55 476.862 604.259 L 476.862 604.259 L 476.862 604.259 Q 476.062 603.968 475.183 604.476 Z  M 482.967 598.724 L 482.967 598.724 L 482.967 598.724 Q 483.46 598.439 483.9 598.294 L 483.9 598.294 L 484.346 599.425 L 484.346 599.425 Q 483.827 599.59 483.476 599.793 L 483.476 599.793 L 483.476 599.793 Q 482.576 600.313 482.359 601.412 L 482.359 601.412 L 482.359 601.412 Q 482.142 602.512 482.771 603.602 L 482.771 603.602 L 485.069 607.579 L 483.946 608.228 L 479.662 600.814 L 480.589 600.278 L 481.511 601.577 L 481.565 601.546 L 481.565 601.546 Q 481.56 600.584 481.915 599.855 L 481.915 599.855 L 481.915 599.855 Q 482.27 599.127 482.967 598.724 Z  M 493.215 600.175 L 493.215 600.175 L 493.215 600.175 Q 493.813 601.21 493.366 602.217 L 493.366 602.217 L 493.366 602.217 Q 492.92 603.224 491.526 604.029 L 491.526 604.029 L 491.526 604.029 Q 490.051 604.881 488.956 604.891 L 488.956 604.891 L 488.355 603.849 L 488.355 603.849 Q 489.045 603.811 489.747 603.613 L 489.747 603.613 L 489.747 603.613 Q 490.449 603.415 491.018 603.087 L 491.018 603.087 L 491.018 603.087 Q 491.897 602.578 492.208 602.024 L 492.208 602.024 L 492.208 602.024 Q 492.52 601.47 492.188 600.895 L 492.188 600.895 L 492.188 600.895 Q 491.937 600.462 491.384 600.371 L 491.384 600.371 L 491.384 600.371 Q 490.831 600.28 489.499 600.49 L 489.499 600.49 L 489.499 600.49 Q 488.242 600.702 487.639 600.667 L 487.639 600.667 L 487.639 600.667 Q 487.037 600.631 486.613 600.389 L 486.613 600.389 L 486.613 600.389 Q 486.189 600.147 485.895 599.64 L 485.895 599.64 L 485.895 599.64 Q 485.372 598.733 485.806 597.783 L 485.806 597.783 L 485.806 597.783 Q 486.241 596.833 487.526 596.09 L 487.526 596.09 L 487.526 596.09 Q 488.723 595.398 490.148 595.225 L 490.148 595.225 L 490.276 596.369 L 490.276 596.369 Q 488.895 596.554 487.988 597.077 L 487.988 597.077 L 487.988 597.077 Q 487.19 597.539 486.929 598.023 L 486.929 598.023 L 486.929 598.023 Q 486.667 598.508 486.921 598.948 L 486.921 598.948 L 486.921 598.948 Q 487.093 599.245 487.367 599.367 L 487.367 599.367 L 487.367 599.367 Q 487.64 599.489 488.088 599.483 L 488.088 599.483 L 488.088 599.483 Q 488.535 599.477 489.703 599.281 L 489.703 599.281 L 489.703 599.281 Q 491.3 598.999 492.044 599.218 L 492.044 599.218 L 492.044 599.218 Q 492.789 599.437 493.215 600.175 Z  M 499.42 599.468 L 499.42 599.468 L 499.42 599.468 Q 497.777 600.418 496.248 599.966 L 496.248 599.966 L 496.248 599.966 Q 494.719 599.514 493.691 597.734 L 493.691 597.734 L 493.691 597.734 Q 492.655 595.942 492.928 594.377 L 492.928 594.377 L 492.928 594.377 Q 493.202 592.811 494.69 591.951 L 494.69 591.951 L 494.69 591.951 Q 496.083 591.146 497.425 591.594 L 497.425 591.594 L 497.425 591.594 Q 498.766 592.042 499.634 593.543 L 499.634 593.543 L 500.044 594.254 L 494.937 597.204 L 494.937 597.204 Q 495.725 598.49 496.741 598.805 L 496.741 598.805 L 496.741 598.805 Q 497.758 599.12 498.894 598.464 L 498.894 598.464 L 498.894 598.464 Q 500.092 597.772 500.973 596.595 L 500.973 596.595 L 501.551 597.596 L 501.551 597.596 Q 501.104 598.197 500.638 598.616 L 500.638 598.616 L 500.638 598.616 Q 500.171 599.034 499.42 599.468 Z  M 495.219 592.899 L 495.219 592.899 L 495.219 592.899 Q 494.327 593.415 494.132 594.304 L 494.132 594.304 L 494.132 594.304 Q 493.937 595.193 494.436 596.275 L 494.436 596.275 L 498.312 594.036 L 498.312 594.036 Q 497.699 592.974 496.899 592.683 L 496.899 592.683 L 496.899 592.683 Q 496.099 592.391 495.219 592.899 Z  M 503.406 596.028 L 503.406 596.028 L 503.406 596.028 Q 503.144 595.575 503.216 595.223 L 503.216 595.223 L 503.216 595.223 Q 503.287 594.87 503.673 594.647 L 503.673 594.647 L 503.673 594.647 Q 504.065 594.421 504.42 594.527 L 504.42 594.527 L 504.42 594.527 Q 504.775 594.633 505.037 595.086 L 505.037 595.086 L 505.037 595.086 Q 505.291 595.526 505.204 595.892 L 505.204 595.892 L 505.204 595.892 Q 505.118 596.258 504.732 596.48 L 504.732 596.48 L 504.732 596.48 Q 504.387 596.68 504.037 596.598 L 504.037 596.598 L 504.037 596.598 Q 503.688 596.515 503.406 596.028 Z  M 443.676 631.494 L 442.343 632.264 L 438.47 628.7 L 438.47 628.7 Q 438.111 628.375 436.943 627.164 L 436.943 627.164 L 436.889 627.195 L 436.889 627.195 Q 437.302 628.536 437.47 629.295 L 437.47 629.295 L 438.575 634.441 L 437.276 635.191 L 430.97 628.945 L 432.147 628.265 L 432.147 628.265 Q 434.478 630.645 435.698 631.889 L 435.698 631.889 L 435.698 631.889 Q 436.918 633.134 437.265 633.61 L 437.265 633.61 L 437.319 633.578 L 437.319 633.578 Q 437.171 633.15 436.983 632.442 L 436.983 632.442 L 436.983 632.442 Q 436.795 631.734 436.709 631.305 L 436.709 631.305 L 435.611 626.264 L 436.828 625.561 L 440.613 629.05 L 440.613 629.05 Q 441.664 629.995 442.256 630.708 L 442.256 630.708 L 442.31 630.677 L 442.31 630.677 Q 442.197 630.417 442.022 629.842 L 442.022 629.842 L 442.022 629.842 Q 441.847 629.266 440.278 623.568 L 440.278 623.568 L 441.442 622.896 L 443.676 631.494 Z  M 446.488 628.912 L 446.488 628.912 L 446.488 628.912 Q 446.226 628.459 446.298 628.107 L 446.298 628.107 L 446.298 628.107 Q 446.369 627.754 446.755 627.531 L 446.755 627.531 L 446.755 627.531 Q 447.147 627.305 447.502 627.411 L 447.502 627.411 L 447.502 627.411 Q 447.857 627.517 448.119 627.971 L 448.119 627.971 L 448.119 627.971 Q 448.373 628.41 448.286 628.776 L 448.286 628.776 L 448.286 628.776 Q 448.2 629.142 447.814 629.365 L 447.814 629.365 L 447.814 629.365 Q 447.469 629.564 447.119 629.482 L 447.119 629.482 L 447.119 629.482 Q 446.77 629.4 446.488 628.912 Z  M 432.891 637.725 L 431.558 638.495 L 427.685 634.931 L 427.685 634.931 Q 427.326 634.606 426.158 633.395 L 426.158 633.395 L 426.103 633.427 L 426.103 633.427 Q 426.517 634.767 426.685 635.527 L 426.685 635.527 L 427.79 640.672 L 426.491 641.422 L 420.185 635.177 L 421.362 634.497 L 421.362 634.497 Q 423.693 636.876 424.913 638.12 L 424.913 638.12 L 424.913 638.12 Q 426.133 639.365 426.48 639.841 L 426.48 639.841 L 426.534 639.809 L 426.534 639.809 Q 426.386 639.381 426.198 638.673 L 426.198 638.673 L 426.198 638.673 Q 426.01 637.965 425.924 637.536 L 425.924 637.536 L 424.826 632.495 L 426.043 631.792 L 429.827 635.281 L 429.827 635.281 Q 430.879 636.226 431.471 636.939 L 431.471 636.939 L 431.525 636.908 L 431.525 636.908 Q 431.412 636.648 431.237 636.073 L 431.237 636.073 L 431.237 636.073 Q 431.062 635.497 429.493 629.799 L 429.493 629.799 L 430.657 629.127 L 432.891 637.725 Z  M 422.106 643.956 L 420.773 644.726 L 416.9 641.162 L 416.9 641.162 Q 416.541 640.837 415.372 639.626 L 415.372 639.626 L 415.318 639.658 L 415.318 639.658 Q 415.732 640.998 415.9 641.758 L 415.9 641.758 L 417.005 646.903 L 415.706 647.653 L 409.4 641.408 L 410.577 640.728 L 410.577 640.728 Q 412.908 643.107 414.128 644.351 L 414.128 644.351 L 414.128 644.351 Q 415.347 645.596 415.695 646.072 L 415.695 646.072 L 415.749 646.04 L 415.749 646.04 Q 415.6 645.612 415.413 644.904 L 415.413 644.904 L 415.413 644.904 Q 415.225 644.196 415.139 643.767 L 415.139 643.767 L 414.041 638.727 L 415.258 638.023 L 419.042 641.512 L 419.042 641.512 Q 420.093 642.457 420.686 643.17 L 420.686 643.17 L 420.74 643.139 L 420.74 643.139 Q 420.626 642.88 420.452 642.304 L 420.452 642.304 L 420.452 642.304 Q 420.277 641.728 418.708 636.03 L 418.708 636.03 L 419.872 635.358 L 422.106 643.956 Z " fill-rule="evenodd" fill="rgb(254,254,254)"/></g></g></svg>