<?xml version="1.0" encoding="UTF-8" standalone="no"?>
<!-- Created with Inkscape (http://www.inkscape.org/) -->

<svg
   xmlns:dc="http://purl.org/dc/elements/1.1/"
   xmlns:cc="http://creativecommons.org/ns#"
   xmlns:rdf="http://www.w3.org/1999/02/22-rdf-syntax-ns#"
   xmlns:svg="http://www.w3.org/2000/svg"
   xmlns="http://www.w3.org/2000/svg"
   xmlns:sodipodi="http://sodipodi.sourceforge.net/DTD/sodipodi-0.dtd"
   xmlns:inkscape="http://www.inkscape.org/namespaces/inkscape"
   version="1.1"
   id="svg2"
   xml:space="preserve"
   width="216"
   height="216"
   viewBox="0 0 216 216"
   sodipodi:docname="janitor_sticker.svg"
   inkscape:version="0.92.4 (5da689c313, 2019-01-14)"><metadata
     id="metadata8"><rdf:RDF><cc:Work
         rdf:about=""><dc:format>image/svg+xml</dc:format><dc:type
           rdf:resource="http://purl.org/dc/dcmitype/StillImage" /><dc:title /></cc:Work></rdf:RDF></metadata><defs
     id="defs6"><clipPath
       clipPathUnits="userSpaceOnUse"
       id="clipPath28"><path
         d="M 0,162 H 162 V 0 H 0 Z"
         id="path26"
         inkscape:connector-curvature="0" /></clipPath><clipPath
       clipPathUnits="userSpaceOnUse"
       id="clipPath36"><path
         d="M 17.4955,153 H 142.056 V 9 H 17.4955 Z"
         id="path34"
         inkscape:connector-curvature="0" /></clipPath><clipPath
       clipPathUnits="userSpaceOnUse"
       id="clipPath56"><path
         d="M 0,162 H 162 V 0 H 0 Z"
         id="path54"
         inkscape:connector-curvature="0" /></clipPath><clipPath
       clipPathUnits="userSpaceOnUse"
       id="clipPath64"><path
         d="M 23.9755,145.509 H 135.576 V 16.4913 H 23.9755 Z"
         id="path62"
         inkscape:connector-curvature="0" /></clipPath><clipPath
       clipPathUnits="userSpaceOnUse"
       id="clipPath136"><path
         d="M 0,162 H 162 V 0 H 0 Z"
         id="path134"
         inkscape:connector-curvature="0" /></clipPath><clipPath
       clipPathUnits="userSpaceOnUse"
       id="clipPath160"><path
         d="M 0,162 H 162 V 0 H 0 Z"
         id="path158"
         inkscape:connector-curvature="0" /></clipPath><clipPath
       clipPathUnits="userSpaceOnUse"
       id="clipPath168"><path
         d="M 16.9955,153.577 H 142.556 V 8.41945 H 16.9955 Z"
         id="path166"
         inkscape:connector-curvature="0" /></clipPath></defs><sodipodi:namedview
     pagecolor="#ffffff"
     bordercolor="#666666"
     borderopacity="1"
     objecttolerance="10"
     gridtolerance="10"
     guidetolerance="10"
     inkscape:pageopacity="0"
     inkscape:pageshadow="2"
     inkscape:window-width="3306"
     inkscape:window-height="1789"
     id="namedview4"
     showgrid="false"
     inkscape:zoom="7"
     inkscape:cx="72.428571"
     inkscape:cy="108"
     inkscape:window-x="6408"
     inkscape:window-y="712"
     inkscape:window-maximized="0"
     inkscape:current-layer="g10" /><g
     id="g10"
     inkscape:groupmode="layer"
     inkscape:label="janitor_sticker"
     transform="matrix(1.3333333,0,0,-1.3333333,0,216)"><g
   id="g32"
   inkscape:export-xdpi="104.62"
   inkscape:export-ydpi="104.62" /><g
   clip-path="url(#clipPath36)"
   id="g42"
   style="opacity:0.80000299"
   inkscape:export-xdpi="104.62"
   inkscape:export-ydpi="104.62"><path
     inkscape:connector-curvature="0"
     id="path38"
     style="fill:#009444;fill-opacity:1;fill-rule:nonzero;stroke:none"
     d="m 135.5755,49.4177 -55.8,-32.926 -55.8,32.926 v 64.061 l 55.8,32.03 55.8,-32.03 z m -55.8,103.582 -62.28,-35.75 v -71.5 l 62.28,-36.75 62.28,36.75 v 71.5 z" /></g><path
   inkscape:connector-curvature="0"
   id="path48"
   style="fill:#009444;fill-opacity:1;fill-rule:nonzero;stroke:none"
   d="m 135.5755,49.4176 -55.8,-32.926 -55.8,32.926 v 64.061 l 55.8,32.03 55.8,-32.03 z"
   inkscape:export-xdpi="104.62"
   inkscape:export-ydpi="104.62" /><g
   clip-path="url(#clipPath56)"
   id="g52"
   inkscape:export-xdpi="104.62"
   inkscape:export-ydpi="104.62"><path
     inkscape:connector-curvature="0"
     id="path66"
     style="fill:#009444;fill-opacity:1;fill-rule:nonzero;stroke:none"
     d="m 135.5755,49.4176 -55.8,-32.926 -55.8,32.926 v 64.061 l 55.8,32.03 55.8,-32.03 z" /><path
     d="m 62.8986,67.616 c 0,-1.953 -1.583,-3.536 -3.536,-3.536 -1.952,0 -3.535,1.583 -3.535,3.536 0,1.953 1.583,3.536 3.535,3.536 1.953,0 3.536,-1.583 3.536,-3.536 z"
     style="fill:none;stroke:#ffffff;stroke-width:3;stroke-linecap:butt;stroke-linejoin:miter;stroke-miterlimit:10;stroke-dasharray:none;stroke-opacity:1"
     id="path76"
     inkscape:connector-curvature="0" /><path
     d="m 103.7236,67.616 c 0,-1.953 -1.583,-3.536 -3.536,-3.536 -1.952,0 -3.535,1.583 -3.535,3.536 0,1.953 1.583,3.536 3.535,3.536 1.953,0 3.536,-1.583 3.536,-3.536 z"
     style="fill:none;stroke:#ffffff;stroke-width:3;stroke-linecap:butt;stroke-linejoin:miter;stroke-miterlimit:10;stroke-dasharray:none;stroke-opacity:1"
     id="path80"
     inkscape:connector-curvature="0" /><path
     d="m 112.6447,75.8143 h -41.448 v 32.602 l -6.22,10e-4"
     style="fill:none;stroke:#ffffff;stroke-width:3;stroke-linecap:round;stroke-linejoin:round;stroke-miterlimit:10;stroke-dasharray:none;stroke-opacity:1"
     id="path84"
     inkscape:connector-curvature="0" /><path
     d="m 73.0552,96.8845 c -0.784,-0.266 -1.352,-1.002 -1.352,-1.875 0,-1.096 0.892,-1.989 1.988,-1.989 h 22.54 c 1.096,0 1.989,0.893 1.989,1.989 0,0.873 -0.569,1.609 -1.353,1.875 l -1.331,0.114 h -21.15 z m 21.96,-5.189 h -20.108 c -0.199,0 -0.388,-0.091 -0.514,-0.246 -0.126,-0.155 -0.177,-0.358 -0.135,-0.553 l 2.541,-12.203 c 0.192,-0.917 1.01,-1.583 1.948,-1.583 h 12.427 c 0.937,0 1.755,0.666 1.948,1.583 l 2.541,12.203 c 0.041,0.195 -0.009,0.4 -0.135,0.553 -0.126,0.154 -0.314,0.246 -0.513,0.246"
     style="fill:#ffffff;fill-opacity:1;fill-rule:nonzero;stroke:none"
     id="path88"
     inkscape:connector-curvature="0" /><path
     d="m 63.6385,76.0773 h -14.317 c -0.778,0 -1.414,0.636 -1.414,1.414 v 24.403 c 0,0.778 0.636,1.414 1.414,1.414 h 14.317 c 0.778,0 1.414,-0.636 1.414,-1.414 v -24.403 c 0,-0.778 -0.636,-1.414 -1.414,-1.414"
     style="fill:#ffffff;fill-opacity:1;fill-rule:nonzero;stroke:none"
     id="path92"
     inkscape:connector-curvature="0" /><path
     d="m 63.6385,76.0773 h -14.317 c -0.778,0 -1.414,0.636 -1.414,1.414 v 24.403 c 0,0.778 0.636,1.414 1.414,1.414 h 14.317 c 0.778,0 1.414,-0.636 1.414,-1.414 v -24.403 c 0,-0.778 -0.636,-1.414 -1.414,-1.414 z"
     style="fill:none;stroke:#ffffff;stroke-width:4;stroke-linecap:round;stroke-linejoin:round;stroke-miterlimit:10;stroke-dasharray:none;stroke-opacity:1"
     id="path96"
     inkscape:connector-curvature="0" /><path
     d="m 64.9772,131.7603 h 2.593 c 0.403,-0.302 0.828,-0.582 1.206,-0.908 1.29,-1.117 2.057,-2.511 2.585,-4.027 0.035,-0.103 0.077,-0.205 0.116,-0.307 0.026,0.006 0.052,0.012 0.078,0.018 -0.084,0.676 -0.169,1.352 -0.253,2.029 -0.111,0.915 -0.271,1.821 -0.622,2.691 -0.06,0.15 -0.138,0.294 -0.212,0.439 -0.011,0.022 -0.022,0.044 -0.032,0.065 h 4.504 c 1.202,-0.704 2.009,-1.711 2.674,-2.826 0.149,-0.25 0.286,-0.506 0.428,-0.759 0.014,0.31 -0.006,0.61 -0.049,0.907 -0.137,0.944 -0.356,1.865 -0.947,2.678 h 9.71 c -0.508,-0.575 -0.929,-1.184 -1.003,-1.935 0.033,-0.026 0.066,-0.053 0.099,-0.079 0.039,0.068 0.063,0.147 0.118,0.203 0.695,0.72 1.472,1.348 2.45,1.746 0.01,0.005 0.021,0.009 0.031,0.013 0.024,0.009 0.04,0.034 0.06,0.052 h 2.983 c -1.524,-0.967 -2.48,-2.3 -3.066,-3.868 -0.508,-1.358 -0.737,-2.748 -0.815,-4.157 -0.004,-0.066 -0.007,-0.134 -0.01,-0.201 h -18.735 c -0.003,0.067 -0.006,0.132 -0.01,0.198 -0.078,1.41 -0.307,2.802 -0.815,4.16 -0.586,1.568 -1.542,2.901 -3.066,3.868"
     style="fill:#ffffff;fill-opacity:1;fill-rule:nonzero;stroke:none"
     id="path100"
     inkscape:connector-curvature="0" /><path
     d="m 68.9056,120.0092 h 18.742"
     style="fill:none;stroke:#ffffff;stroke-width:3;stroke-linecap:round;stroke-linejoin:round;stroke-miterlimit:10;stroke-dasharray:none;stroke-opacity:1"
     id="path104"
     inkscape:connector-curvature="0" /><path
     d="M 78.2766,119.4773 V 96.3603"
     style="fill:none;stroke:#ffffff;stroke-width:3;stroke-linecap:round;stroke-linejoin:round;stroke-miterlimit:10;stroke-dasharray:none;stroke-opacity:1"
     id="path108"
     inkscape:connector-curvature="0" /><path
     d="m 107.3029,77.1108 h -5.742 c -0.417,0 -0.779,0.147 -1.045,0.424 -0.526,0.549 -0.506,1.412 -0.502,1.509 0,0.017 0.002,0.035 0.005,0.052 l 2.021,12.584 c -0.157,0.187 -0.329,0.484 -0.247,0.828 0.089,0.367 0.424,0.616 0.996,0.739 0.031,0.007 0.063,0.01 0.095,0.01 h 1.884 c 0.025,0 0.05,-0.001 0.074,-0.006 0.229,-0.038 0.925,-0.154 1.071,-0.717 0.089,-0.343 -0.087,-0.645 -0.251,-0.839 l 3.175,-12.56 c 0.008,-0.03 0.012,-0.06 0.013,-0.091 0.004,-0.097 0.024,-0.96 -0.502,-1.509 -0.267,-0.277 -0.628,-0.424 -1.045,-0.424"
     style="fill:#ffffff;fill-opacity:1;fill-rule:nonzero;stroke:none"
     id="path112"
     inkscape:connector-curvature="0" /><path
     d="m 104.794,94.4071 h -2.04 c -0.21,0 -0.392,0.146 -0.437,0.352 l -0.448,2.04 -1.083,1.329 c -0.144,0.176 -0.133,0.432 0.025,0.595 l 1.621,1.674 c 0.091,0.093 0.218,0.143 0.348,0.135 l 5.439,-0.314 c 0.208,-0.012 0.38,-0.165 0.416,-0.37 l 0.209,-1.203 c 0.035,-0.199 -0.068,-0.397 -0.251,-0.483 l -3.123,-1.463 -0.232,-1.898 c -0.027,-0.225 -0.218,-0.394 -0.444,-0.394"
     style="fill:#ffffff;fill-opacity:1;fill-rule:nonzero;stroke:none"
     id="path116"
     inkscape:connector-curvature="0" /><path
     d="m 108.4031,92.913 c -0.074,0 -0.148,0.018 -0.217,0.056 -0.533,0.297 -0.991,0.819 -1.01,0.841 -0.027,0.031 -0.05,0.067 -0.068,0.105 l -1.36,2.918 c -0.105,0.224 -0.007,0.491 0.217,0.595 0.224,0.105 0.49,0.007 0.595,-0.217 l 1.331,-2.856 c 0.106,-0.114 0.411,-0.425 0.73,-0.602 0.216,-0.121 0.294,-0.393 0.174,-0.61 -0.082,-0.147 -0.235,-0.23 -0.392,-0.23"
     style="fill:#ffffff;fill-opacity:1;fill-rule:nonzero;stroke:none"
     id="path120"
     inkscape:connector-curvature="0" /><path
     d="m 108.4031,92.913 c -0.074,0 -0.148,0.018 -0.217,0.056 -0.533,0.297 -0.991,0.819 -1.01,0.841 -0.027,0.031 -0.05,0.067 -0.068,0.105 l -1.36,2.918 c -0.105,0.224 -0.007,0.491 0.217,0.595 0.224,0.105 0.49,0.007 0.595,-0.217 l 1.331,-2.856 c 0.106,-0.114 0.411,-0.425 0.73,-0.602 0.216,-0.121 0.294,-0.393 0.174,-0.61 -0.082,-0.147 -0.235,-0.23 -0.392,-0.23 z"
     style="fill:none;stroke:#ffffff;stroke-width:1;stroke-linecap:butt;stroke-linejoin:miter;stroke-miterlimit:10;stroke-dasharray:none;stroke-opacity:1"
     id="path124"
     inkscape:connector-curvature="0" /></g><text
   transform="matrix(1,0,0,-1,46.8984,45.252)"
   style="font-variant:normal;font-weight:bold;font-stretch:normal;font-size:18px;font-family:Verdana;-inkscape-font-specification:Verdana-Bold;writing-mode:lr-tb;fill:#ffffff;fill-opacity:1;fill-rule:nonzero;stroke:none"
   id="text128"
   inkscape:export-xdpi="104.62"
   inkscape:export-ydpi="104.62"><tspan
     x="0 7.2540002 19.278 32.094002 38.25 46.458 58.824001"
     y="0"
     sodipodi:role="line"
     id="tspan126">janitor</tspan></text>

<g
   clip-path="url(#clipPath136)"
   id="g132"
   inkscape:export-xdpi="104.62"
   inkscape:export-ydpi="104.62"><path
     d="m 71.7028,118.6667 h 5.634 v -4 z"
     style="fill:#ffffff;fill-opacity:1;fill-rule:nonzero;stroke:none"
     id="path140"
     inkscape:connector-curvature="0" /><path
     d="m 71.7028,118.6667 h 5.634 v -4 z"
     style="fill:none;stroke:#ffffff;stroke-width:1;stroke-linecap:butt;stroke-linejoin:miter;stroke-miterlimit:10;stroke-dasharray:none;stroke-opacity:1"
     id="path144"
     inkscape:connector-curvature="0" /><path
     d="m 84.9613,118.6667 h -5.634 v -4 z"
     style="fill:#ffffff;fill-opacity:1;fill-rule:nonzero;stroke:none"
     id="path148"
     inkscape:connector-curvature="0" /><path
     d="m 84.9613,118.6667 h -5.634 v -4 z"
     style="fill:none;stroke:#ffffff;stroke-width:1;stroke-linecap:butt;stroke-linejoin:miter;stroke-miterlimit:10;stroke-dasharray:none;stroke-opacity:1"
     id="path152"
     inkscape:connector-curvature="0" /></g></g></svg>