<?xml version="1.0" encoding="UTF-8" standalone="no"?>
<!-- Generator: Adobe Illustrator 18.1.0, SVG Export Plug-In . SVG Version: 6.00 Build 0)  -->

<svg
   xmlns:dc="http://purl.org/dc/elements/1.1/"
   xmlns:cc="http://creativecommons.org/ns#"
   xmlns:rdf="http://www.w3.org/1999/02/22-rdf-syntax-ns#"
   xmlns:svg="http://www.w3.org/2000/svg"
   xmlns="http://www.w3.org/2000/svg"
   xmlns:sodipodi="http://sodipodi.sourceforge.net/DTD/sodipodi-0.dtd"
   xmlns:inkscape="http://www.inkscape.org/namespaces/inkscape"
   version="1.1"
   id="Layer_1"
   x="0px"
   y="0px"
   viewBox="0 0 181 209"
   enable-background="new 0 0 320 240"
   xml:space="preserve"
   inkscape:version="0.91 r13725"
   sodipodi:docname="javascript.svg"
   width="181"
   height="209"
   inkscape:export-filename="/home/mc/Papers/Projects/Forks/hexbin/hexagons/javascript.png"
   inkscape:export-xdpi="90"
   inkscape:export-ydpi="90"><metadata
     id="metadata65"><rdf:RDF><cc:Work
         rdf:about=""><dc:format>image/svg+xml</dc:format><dc:type
           rdf:resource="http://purl.org/dc/dcmitype/StillImage" /><dc:title></dc:title></cc:Work></rdf:RDF></metadata><defs
     id="defs63" /><sodipodi:namedview
     pagecolor="#ffffff"
     bordercolor="#666666"
     borderopacity="1"
     objecttolerance="10"
     gridtolerance="10"
     guidetolerance="10"
     inkscape:pageopacity="0"
     inkscape:pageshadow="2"
     inkscape:window-width="1920"
     inkscape:window-height="1029"
     id="namedview61"
     showgrid="false"
     fit-margin-top="0"
     fit-margin-left="0"
     fit-margin-right="0"
     fit-margin-bottom="0"
     inkscape:zoom="0.94375"
     inkscape:cx="93.178808"
     inkscape:cy="104"
     inkscape:window-x="0"
     inkscape:window-y="25"
     inkscape:window-maximized="1"
     inkscape:current-layer="Layer_1" /><polygon
     points="251,171.7 160.5,224 70,171.7 70,67.2 160.5,15 251,67.2 "
     id="polygon3"
     style="fill:#f7df1e;fill-opacity:1"
     transform="translate(-70,-15)" /><path
     inkscape:connector-curvature="0"
     d="m 133.10785,134.43507 c 3.1112,5.07991 7.15894,8.81384 14.31789,8.81384 6.014,0 9.8558,-3.00578 9.8558,-7.15895 0,-4.97693 -3.94723,-6.7397 -10.5668,-9.63515 l -3.6285,-1.55682 c -10.47363,-4.46208 -17.43153,-10.05194 -17.43153,-21.8691 0,-10.885514 8.29407,-19.172234 21.25617,-19.172234 9.22817,0 15.86245,3.211717 20.64325,11.621022 l -11.3023,7.257012 c -2.48847,-4.462082 -5.17307,-6.219946 -9.34095,-6.219946 -4.25123,0 -6.94564,2.696862 -6.94564,6.219946 0,4.3542 2.69686,6.11697 8.92416,8.81383 l 3.6285,1.55438 c 12.33201,5.2883 19.29482,10.67957 19.29482,22.80074 0,13.06752 -10.26524,20.22646 -24.0511,20.22646 -13.47941,0 -22.18782,-6.42344 -26.44886,-14.84255 z m -51.272242,1.25772 c 2.28007,4.04529 4.3542,7.4654 9.34094,7.4654 4.76855,0 7.77677,-1.86573 7.77677,-9.12029 l 0,-49.352572 14.514022,0 0,49.548702 c 0,15.02888 -8.81138,21.8691 -21.672962,21.8691 -11.62102,0 -18.35092,-6.014 -21.77348,-13.25753 z"
     id="path6" /></svg>