<?xml version="1.0" encoding="utf-8"?>
<!-- Generator: Adobe Illustrator 18.1.0, SVG Export Plug-In . SVG Version: 6.00 Build 0)  -->
<svg version="1.1" id="Layer_1" xmlns="http://www.w3.org/2000/svg" xmlns:xlink="http://www.w3.org/1999/xlink" x="0px" y="0px"
	 viewBox="0 0 320 240" enable-background="new 0 0 320 240" xml:space="preserve">
<polygon fill="#F0DB4F" points="70,67.2 160.5,15 251,67.2 251,171.7 160.5,224 70,171.7 "/>
<path fill="#333333" d="M227.1,123c-1.7-2.3-4-3.5-5.9-3.5c-2.7,0-3.8,1.5-3.8,3.9c0,6.2,22.7,6.2,22.7,23.9
	c0,9.2-7.7,17.3-18.1,17.3c-8.1,0-15.4-4.2-18.1-11.9l8.9-5.9h0.8c1.9,5.2,5.4,6.7,8.5,6.7c3.8,0,6.5-2.3,6.5-6.2
	c0-9.2-22.7-8.9-22.7-23.9c0-8.9,6.9-15,15.4-15c6.5,0,10.8,2.7,15,8.5l-8.3,6.2H227.1z"/>
<path d="M194.5,109.1c0.1,0.2,0.2,0.7,0.2,0.8c0,0.1-0.1,0.2-0.1,0.2l0.6,0.3l-0.8-0.1c0,0-0.1-0.1,0-0.3c0.1-0.2,0.1-0.6,0.1-0.8
	C194.5,109.2,194.5,109.1,194.5,109.1"/>
<path d="M195,111.2c0.2,0.1,0.2,0,0.6,0c0.4,0,0.9,0,1.1-0.2c0.2-0.2,0.5-0.6,0.7-1c0.2-0.4,0.3-0.5,0.3-0.5s0,0.2-0.1,0.3
	c-0.1,0.2-0.3,0.7-0.5,0.9c-0.2,0.2-0.3,0.4-0.5,0.5c-0.2,0.1-0.6,0.2-0.7,0.1c-0.2,0-0.7-0.1-0.7-0.2
	C195.2,111.3,195.2,111.3,195,111.2"/>
<path d="M193,107.8c-0.3-0.3-0.3-0.4-0.8-0.7c-0.5-0.3-0.6-0.3-0.8-0.2c-0.2,0.1-0.4,0.1-0.4,0.4c0,0.3,0.2,0.7,0.4,1
	c0.2,0.3,0.4,0.5,0.4,0.5s0.5,0.3,1,0.2c0.5-0.1,0.8-0.3,0.6-0.6C193.2,108.1,193,107.8,193,107.8"/>
<path d="M191.5,107.5c-0.2,0,0.1,0-0.3-0.1c-0.3-0.1-0.4-0.2-0.6-0.3c-0.1-0.1-0.2-0.3-0.1-0.1c0.1,0.2,0.3,0.5,0.6,0.6
	c0.2,0.1,0.4,0.1,0.5,0.1L191.5,107.5z"/>
<path d="M191.4,107.7c-0.2-0.1-0.3,0.1-0.6-0.1c-0.1-0.1-0.3-0.2-0.1,0c0.2,0.3,0.6,0.3,0.7,0.2
	C191.4,107.8,191.4,107.7,191.4,107.7L191.4,107.7z"/>
<path d="M191.4,107.2c-0.3-0.1-0.3-0.1-0.4-0.3c-0.1-0.2-0.3-0.3-0.3-0.4c0,0,0.1,0.4,0.3,0.6c0.1,0.2,0.3,0.3,0.3,0.3
	c0.1,0,0.2,0,0.2-0.1C191.5,107.3,191.4,107.2,191.4,107.2"/>
<path d="M196.3,105.1c-0.1-0.1-1.1-0.4-1.2-0.2c-0.2,0.2-0.2,0.5-0.1,0.7c0,0.2,0,0.2,0.5,0.8c0.5,0.6,0.8,0.8,1.2,0.8
	c0.3,0,0.9-0.4,1-0.5c0.1-0.2-0.1-0.3-0.4-0.7C196.8,105.5,196.4,105.2,196.3,105.1"/>
<path d="M195.1,105.3c-0.2,0-0.1,0-0.5-0.2c-0.3-0.2-0.5-0.4-0.5-0.4s-0.1,0,0.1,0.2c0.2,0.2,0.4,0.5,0.6,0.6
	c0.2,0.1,0.1,0.2,0.2,0.1C195.2,105.5,195.1,105.3,195.1,105.3"/>
<path d="M195.4,105c-0.2-0.2-0.2-0.1-0.4-0.2c-0.2-0.2-0.3-0.4-0.3-0.4s0,0.2,0.1,0.4c0.1,0.2,0.2,0.3,0.4,0.4
	c0.2,0.1,0.3,0.2,0.3,0.1C195.5,105.2,195.4,105,195.4,105"/>
<path d="M196,105.1c-0.2-0.3-0.2-0.4-0.5-0.6c-0.3-0.2-0.6-0.3-0.4-0.2c0.2,0.2,0.4,0.4,0.5,0.5c0.1,0.2-0.1,0.3,0.2,0.3
	c0.2,0,0.3,0.1,0.3,0C196.1,105.1,196,105.1,196,105.1"/>
<path d="M200.2,109.6C200.2,109.6,200.2,109.6,200.2,109.6c0,0.4,0.8,0.2,0.8-0.2c0,0,0,0,0,0C200.9,109.1,200.1,109.3,200.2,109.6
	C200.2,109.6,200.2,109.6,200.2,109.6c0,0.4,0.8,0.2,0.8-0.2c0,0,0,0,0,0C200.9,109.1,200.1,109.3,200.2,109.6"/>
<path d="M200.2,110.1C200.2,110.1,200.2,110.1,200.2,110.1c0.1,0.3,0.8,0.1,0.8-0.2c0,0,0,0,0,0C201,109.6,200.2,109.8,200.2,110.1
	C200.2,110.1,200.2,110.1,200.2,110.1c0.1,0.3,0.8,0.1,0.8-0.2c0,0,0,0,0,0C201,109.6,200.2,109.8,200.2,110.1"/>
<path d="M200.2,110C200.2,110,200.2,110,200.2,110c0.1,0.3,0.8,0.1,0.8-0.2c0,0,0,0,0,0C200.9,109.5,200.2,109.6,200.2,110
	C200.2,110,200.2,110,200.2,110c0.1,0.3,0.8,0.1,0.8-0.2c0,0,0,0,0,0C200.9,109.5,200.2,109.6,200.2,110"/>
<path d="M200.2,109.8L200.2,109.8c0,0.3,0.8,0.1,0.8-0.2l0-0.1C200.9,109.4,200.2,109.5,200.2,109.8L200.2,109.8
	c0,0.3,0.8,0.1,0.8-0.2l0-0.1C200.9,109.4,200.2,109.5,200.2,109.8"/>
<path d="M206,111.4c-1.2-0.9-2.4-1.5-3.9-2.1c-0.2-0.1-0.5,0-0.6,0.1c-0.2,0.2-0.5,0.5-0.8,0.6c-0.3,0.1-0.3,0.4,0.1,0.3
	c0,0,0,0,0,0l-0.3-0.2c-0.3,0.5-0.7,1-1.1,1.4c0,0,0,0.1,0,0.1c0.5,0.4,1.7,1.1,1.5,1.8c-0.1,0.4,0.7,0.2,0.8,0.2
	c0.9-0.2,1.9-0.5,2.7-1.1c0.2-0.2,0.8-0.8,1-0.8c0.2,0,0.4-0.1,0.5-0.2C206.1,111.6,206.2,111.6,206,111.4
	C206.1,111.5,206,111.4,206,111.4c-0.2-0.2-0.9,0.1-0.7,0.3c0.1,0.1,0.5-0.4-0.1-0.1c-0.3,0.1-0.4,0.2-0.6,0.4
	c-0.3,0.3-0.5,0.5-0.9,0.8c-0.4,0.2-0.8,0.4-1.2,0.5c0,0-0.9,0.4-0.7,0.2c0,0,0-0.1,0-0.1c-0.3-0.6-0.6-1-1.2-1.4
	c-0.2-0.1-0.5-0.2-0.3-0.5c0.3-0.4,0.6-0.7,0.9-1.2c0.1-0.2-0.2-0.2-0.3-0.2c0,0,0,0,0,0c0,0.1,0.1,0.2,0.1,0.3
	c0.4-0.2,0.8-0.5,1.1-0.8c-0.2,0-0.4,0.1-0.6,0.1c1.4,0.6,2.6,1.2,3.8,2C205.5,111.9,206.2,111.5,206,111.4"/>
<path d="M200.4,110.3C200.4,110.3,200.4,110.3,200.4,110.3c0.2,0.1,0.4,0,0.5,0c0,0,0.4-0.2,0.2-0.2c0,0,0,0,0,0
	c-0.1-0.1-0.4,0-0.5,0C200.6,110.1,200.2,110.2,200.4,110.3C200.4,110.3,200.4,110.3,200.4,110.3c0.2,0.1,0.4,0,0.5,0
	c0,0,0.4-0.2,0.2-0.2c0,0,0,0,0,0c-0.1-0.1-0.4,0-0.5,0C200.6,110.1,200.2,110.2,200.4,110.3"/>
<path d="M200.7,110.4L200.7,110.4c0.2,0,0.5-0.1,0.6-0.2c0.1-0.2-0.1-0.2-0.2-0.2l0,0c-0.2,0-0.4,0.1-0.5,0.2
	C200.3,110.4,200.5,110.4,200.7,110.4L200.7,110.4c0.2,0,0.5-0.1,0.6-0.2c0.1-0.2-0.1-0.2-0.2-0.2l0,0c-0.2,0-0.4,0.1-0.5,0.2
	C200.3,110.4,200.5,110.4,200.7,110.4"/>
<path d="M201.1,110C201,110,201,110,201.1,110c-0.1-0.2-0.3-0.2-0.5-0.2c-0.1,0-0.4,0.2-0.3,0.4c0,0.1,0,0.1,0.1,0.1
	C200.6,110.6,201.3,110.3,201.1,110C201,110,201,110,201.1,110c-0.3,0.1-0.5,0.1-0.8,0.2c0,0.1,0,0.1,0.1,0.1
	C200.6,110.6,201.3,110.3,201.1,110"/>
<path d="M189.4,120.5c-2.6,0.6-4.8,2.6-7.4,3c-2.1,0.4-4.2-1.2-6.3-1c-0.2,0-0.6,0.2-0.6,0.4c0,0.9,0.9,1.2,1.7,1.5
	c0.2,0.1,1.7,0.1,1.2,0.6c-0.3,0.3-0.8,0.5-1.1,0.8c-1.2,0.8-2.4,1.5-3.5,2.3c-0.6,0.5-0.3,1.2,0.4,1c1-0.3,1.9-0.8,2.8-1.3
	c0.3-0.2,0.5-0.3,0.8-0.5c1-0.5,1.2-0.6,0.4-0.2c-0.6,0.7-1.2,1.3-1.7,2.1c-0.3,0.4-2.2,2.9-0.4,2.5c2.1-0.5,2.7-3.3,4.5-4.4
	c-0.2,0-0.4,0-0.6,0c0.3,0.4-3,3.9-1.5,4.3c1.6,0.4,2.7-2.7,3.4-3.6c0.1-0.1,0-0.2-0.1-0.2c0,0,0,0,0,0c-0.2-0.1-0.5,0-0.7,0.2
	c-0.5,0.6-1.6,1.8-1.5,2.7c0,0.1,0.2,0.1,0.2,0.1c0.6,0.1,0.9-0.2,1.3-0.7c0.8-1.1,1.4-2.5,2.3-3.5c0.9-1.1,1.9-1.2,3.2-1.6
	c1.3-0.3,2.5-0.9,3.8-1.2c1.8-0.4,2.2-1.5,2-3.3c-0.1-1.7-2.5-0.4-3.1,0.2c-0.3,0.3,0.4,0.3,0.6,0.1c2.1-2.1,1.8,0.7,1.7,1.5
	c-0.2,1-1,1-1.8,1.2c-1.8,0.5-3.6,1-5.3,1.6c-1,0.4-2,1.4-2.4,2.4c-0.4,0.9-1.2,1.7-1.7,2.6c0.4-0.7,0.8-1.4,1.4-2
	c-0.2,0.1-0.4,0.1-0.7,0.2c-0.3-0.2-1,1-1,1.1c-0.1,0.2-1.1,1.5-1.1,1.5c0.3-1.3,1.1-2.4,1.7-3.6c0-0.1,0-0.1,0-0.2c0,0,0,0,0,0
	c-0.1-0.2-0.5,0-0.6,0c-1.3,0.8-2.1,2.4-3.1,3.6c-1,1.2-0.9,0-0.2-0.9c0.7-1,1.8-1.9,2.4-3c0.1-0.1,0-0.2-0.1-0.2
	c-0.6-0.2-1.3,0.4-1.8,0.6c-0.9,0.5-1.8,1-2.7,1.4c-1.1,0.5,1-1.2,1.4-1.4c0.1-0.1,4.1-2.5,3.1-2.8c-0.8-0.2-1.5-0.3-2.2-0.6
	c-2.2-1,0.4-0.4,0.8-0.3c1.3,0.3,2.7,0.7,4,0.6c2.9-0.1,5.3-2.4,8.1-3.1C190,120.8,189.9,120.4,189.4,120.5"/>
<path d="M187,135c-0.2,0.4-0.7,0.6-1,0.8c-1.5,1-3.2,1.6-4.9,2.3c-4,1.7-7.9,4.2-12.4,3.6c-2-0.3-4.7-1.8-6.8-1.3
	c-2.6,0.7,0.9,3.9,1.7,4.4c1.9,1.3,3.6,1.8,5.8,1.6c0.8-0.1,1.5-0.4,2-0.9c0.9-0.8,3.2-0.7,4.4-1c3.4-0.7,6.6-1.7,9.8-3.1
	c1.4-0.6,2.8-1.4,4.1-2.1c1.1-0.7,2.7-2.5,4-2.5c0.2,0,0.7-0.1,0.5-0.4c-0.6-0.9-0.8-2.3-1.9-2.5c-2.2-0.5-3.4,0-5.2,1
	c-0.4,0.3,0.2,0.4,0.5,0.2c0.9-0.5,4.4-2,5-0.2c0.2,0.7,0.6,1.1,1,1.7c0.2-0.1,0.3-0.3,0.5-0.4c-1.7,0.1-3,1.6-4.3,2.5
	c-2.9,1.9-6.3,3.4-9.7,4.4c-1.6,0.5-3.3,0.8-4.9,1.1c-1,0.2-2.6,0.2-3.6,0.6c-0.2,0.1-0.4,0.2-0.6,0.3c-0.7,0.7-1.6,0.7-2.5,0.9
	c-1.1,0.2-2.8-0.8-3.8-1.4c-0.9-0.5-1.6-1.2-2.3-1.9c-0.4-0.5-1-2,0.2-1.9c1.3,0.1,2.5,0.6,3.8,0.9c2.7,0.7,5.1,0.7,7.8-0.3
	c3.7-1.3,7.4-3,10.9-4.7c0.8-0.4,2.2-1,2.7-1.8C187.9,134.7,187.2,134.8,187,135"/>
<path d="M194.4,137.4c-2.3,0.3-2.8,5.3-3.2,6.8c-1.4,4.6-3.5,8.9-5.3,13.4c-0.3,0.8-0.4,1.5-1.3,1.7c-0.6,0.1-1.3,0.3-1.9,0.5
	c-1.8,0.7-2.6,1.2-3.8,2.6c-1,1.3-1.1,2.1,0,3.3c0.7,0.8,2.6,0.4,3.4,0.2c1.9-0.4,3.3-1.4,4.9-2.4c1.3-0.8,1.5-2,2-3.3
	c1-2.8,3-5.3,4.5-7.8c1.8-2.9,3.7-5.8,5.2-8.9c0.7-1.3,1.1-2.6,2-3.7c0.5-0.7,1.2-1.3,0-1.6c-2.1-0.5-4.4-0.5-6.5-0.9
	c-0.3,0-0.9,0.4-0.5,0.4c1.2,0.2,2.3,0.4,3.5,0.5c0.7,0.1,1.5,0.2,2.2,0.3c1.5,0.2,0.9,0.8,0.2,1.5c-0.8,1-1.2,2.2-1.8,3.4
	c-0.6,1.2-1.2,2.3-1.9,3.4c-1.6,2.7-3.3,5.4-4.9,8.1c-1.2,2-2.5,4-3.3,6.2c-0.7,1.9-2.4,2.8-4.1,3.7c-1.1,0.6-2.5,0.7-3.7,0.7
	c-1.3,0-1.6-2-1.1-2.8c1.3-1.9,3-2.7,5.2-3.2c0.5-0.1,1.2-0.2,1.5-0.7c0.9-1.4,1.4-3.3,2.1-4.8c0.7-1.6,1.3-3.1,1.9-4.7
	c0.8-2.3,1.7-4.5,2.4-6.8c0.3-0.9,0.9-4.8,2-4.9C194.6,137.8,194.9,137.3,194.4,137.4"/>
<path d="M167.6,144.2c-1.3-0.6-1.7-1.1-2.1-1.6c-0.2-0.3-0.4-0.9-0.3-1.4c0,0,0,0-0.1,0c-0.7-0.3-3-0.6-3.2-0.5
	c-1,0.8-0.7,1.8,0.9,3.2c1.6,1.4,2.8,1.8,3.5,2.1c1.8,0.8,1.8,0.4,2.5,0.4c1.6,0,2-0.6,2.5-1C170.1,145,168.4,144.6,167.6,144.2"/>
<path d="M187.7,104.9c-0.1-0.1-0.1-0.2-0.2-0.3c-0.1-0.3-0.9-0.1-0.8,0.2c0.1,0.1,0.1,0.3,0.2,0.4
	C187.1,105.4,187.9,105.2,187.7,104.9c-0.1-0.2-0.1-0.2-0.2-0.3c-0.3,0.1-0.5,0.1-0.8,0.2c0.1,0.1,0.1,0.2,0.2,0.3
	c0.1,0.2,0.3,0.2,0.4,0.1C187.5,105.2,187.8,105.1,187.7,104.9"/>
<path d="M201,110c-0.4-1.8-0.5-3.4-1.3-5.1c-0.8-1.9-2-3.2-3.5-4.5c-0.1-0.1-0.8,0.1-0.7,0.2c0.2,0.3,0.3,0.6,0.4,0.9
	c0,0.2,0.1,0.3,0.1,0.5c0.2,0.4,0.1,0.6-0.3,0.7c-0.3-0.6-0.7-1.1-1.2-1.6c-0.1-0.1-0.8,0.1-0.7,0.2c0.3,0.6,1.3,1.9,1.1,2.6
	c0.2-0.1,0.5-0.1,0.7-0.2c-0.7-0.1-1.4-1.6-1.9-2.2c-0.1-0.2-0.8,0.1-0.8,0.2c0.4,0.8,1.5,1.9,0.7,2.7c-0.8,0.8-2.6,1.9-3.7,1.2
	c-0.6-0.4-1.2-0.7-1.6-1.3c-0.1-0.1-0.8,0-0.8,0.2c0.1,0.6,0.5,1,0.8,1.4c0.6,0.7,1.4,1.5,0.2,0.4c-0.1-0.1-0.8,0.2-0.7,0.2
	c1.2,1.5,2.6,2.9,3.8,4.4c1.3,1.6,2.8,2.1,4.8,2.3c2.1,0.2,3.7-1.4,4.8-3.1c0,0,0,0,0-0.1L201,110c-0.2-0.1-0.8,0.2-0.7,0.2
	c0.5,0.3-1.9,2.6-2.4,2.7c-1.5,0.3-3.2-0.4-4.5-1.1c-0.6-0.3-1.2-1.4-1.7-1.9c-1-1.2-2.1-2.3-3.1-3.6c-0.2,0.1-0.5,0.2-0.7,0.2
	c0.6,0.6,1.6,1,2.3,0.3c0,0,0.1-0.1,0-0.1c-0.6-0.7-1.7-1.5-1.8-2.4c-0.3,0.1-0.5,0.1-0.8,0.2c1.3,1.7,2.7,2,4.5,1.3
	c0.7-0.3,2.1-1.1,2.5-1.8c0.4-0.8-0.5-1.9-0.9-2.6c-0.3,0.1-0.5,0.1-0.8,0.2c0.4,0.6,1.2,2.1,2,2.3c0.1,0,0.6,0,0.7-0.2
	c0.2-0.7-0.8-2-1.1-2.7c-0.2,0.1-0.5,0.2-0.7,0.2c0.7,0.7,1.1,2.5,2.3,2.2c1.3-0.4,0.6-2.3,0.2-3.1c-0.2,0.1-0.5,0.2-0.7,0.2
	c1.4,1.3,2.6,2.7,3.4,4.5c0.8,1.7,0.8,3.4,1.3,5.1C200.3,110.3,201.1,110.1,201,110"/>
<path fill="#231815" d="M195.5,100.6c0.2,0.3,0.3,0.6,0.4,0.9c0,0.2,0.1,0.3,0.1,0.5c0.2,0.4,0.1,0.6-0.3,0.7
	c-0.3-0.6-0.7-1.1-1.2-1.6c-0.1-0.1-0.8,0.1-0.7,0.2c0.3,0.6,1.3,1.9,1.1,2.6c0.2-0.1,0.4-0.2,0.6-0.2c-0.6-0.1-1.4-1.7-1.8-2.2
	c-0.1-0.2-0.9,0-0.8,0.2c0.5,1,1.6,2,0.4,3c-2,1.6-3.6,1.4-5-0.4c-0.1-0.1-0.8,0-0.7,0.2c0.1,0.8,0.9,1.4,1.4,2
	c0.7,0.8,0,0.1-0.4-0.2c-0.5-0.4-0.8-1.1-1.1-1.7c-0.1-0.2-0.8,0-0.8,0.2c1,2.5,3.5,4.5,5.2,6.5c0.3,0.4,0.7,0.8,1.1,1.2
	c0.2,0.2,0.5,0.3,0.7,0.4c1.2,0.7-1.8,0-1.2,0.1c-2.1-0.6-3.4-2.4-4.5-4.2c-1.8-2.7-3.7-6.6-1.9-9.6c0.9-1.6,2.2-3.1,3.7-4.2
	c1.2-0.9,5-2,6.5-1.8c3.7,0.4,7.4,3.8,9.4,6.8c0.9,1.3,0.9,3.2,1,4.7c0.1,1.8-0.7,1.8-1.9,2.7c-0.6,0.4-1.1,1.1-1.8,1.4
	c-0.3,0.1-0.7,0.2-1,0.3c-0.2,0.1-0.4,0.4-0.6,0.6c-0.7,0.7-0.5-0.7-0.6-1.2c-0.5-3.3-2.1-5.9-4.5-8.1
	C196.1,100.2,195.4,100.4,195.5,100.6c1.5,1.4,2.6,2.7,3.5,4.5c0.8,1.7,0.8,3.4,1.3,5.1c0.1,0.5,1.1,0,1.3-0.1
	c0.2-0.2,1.2-1,0.8-0.9c0.6-0.2,1.2-0.4,1.8-0.7c0.3-0.2,0.7-0.4,1-0.7c0.3-0.5,0.8-0.5,1.3-0.8c0.9-0.5,1.1-1.6,1.1-2.6
	c0.1-4.6-2.8-7.4-6.3-9.9c-1.4-1-3.2-1.6-4.9-1.8c-1.7-0.2-3.2,0.8-4.8,1.1c-3,0.7-5.2,3.7-6.6,6.3c-0.8,1.6,0,4.2,0.6,5.7
	c0.7,1.8,1.8,3.4,3,5c0.9,1.2,2.3,2.4,3.9,2.7c0.6,0.1,2.2,0.3,2.6-0.5c0,0,0-0.1,0-0.1c-0.5-0.5-1.1-0.7-1.6-1.1
	c-0.7-0.7-1.4-1.6-2-2.4c-1.3-1.5-3.1-3-3.8-4.8c-0.3,0.1-0.5,0.1-0.8,0.2c0.5,1.1,2.1,3.4,3.4,2.1c0,0,0-0.1,0-0.1
	c-0.6-0.7-1.7-1.5-1.8-2.4c-0.2,0.1-0.5,0.2-0.7,0.2c1.3,1.7,2.7,2,4.5,1.3c0.7-0.3,2.1-1,2.5-1.8c0.4-0.8-0.5-1.9-0.9-2.6
	c-0.3,0.1-0.5,0.1-0.8,0.2c0.5,0.7,1.2,2.2,2.1,2.3c0.2,0,0.6-0.1,0.6-0.2c0.2-0.7-0.8-2.1-1.1-2.7c-0.2,0.1-0.5,0.2-0.7,0.2
	c0.7,0.7,1.1,2.6,2.3,2.2c1.3-0.4,0.6-2.4,0.2-3.1C196.2,100.1,195.5,100.4,195.5,100.6"/>
<path d="M186.9,163.5c0.7-0.5,1-0.8,1.2-1.4c-0.2,0.1-0.4,0.2-0.7,0.3c-1.9,1-3.5,1-4.4,0.8c-0.9-0.3-1-0.5-1.1-1
	c-0.1-0.4,0.5-1.6,1.2-2.3c-0.2,0.1-0.5,0.2-0.8,0.3c-1.6,0.6-1.7,0.5-2.7,1.8c-1,1.3-1.7,1.8-0.8,3.1c0.6,0.8,0.6,1.1,2.8,0.9
	C183.9,165.7,184.7,164.8,186.9,163.5"/>
<path fill="#333333" d="M204.9,110.7c-1.4,0.1-4.8,1.6-6.4,2.8c-1.6,1.2-5.5,4.3-6.7,5.1c-1.3,0.8-4.6,2.4-6,3
	c-1.4,0.6-1.3,0.5-1.4,0.6c-0.1,0.1-0.2,0.2,0,0.6c0.2,0.4,1.4,2.9,1.9,3.8c0.5,1,0.6,1.4,1,1.7c0.4,0.3,0.7-0.1,1.1-0.3
	c0.5-0.2,1.6-1.1,2.9-2c1.3-0.9,4.2-2.3,6.5-3.5c0.2-0.1-0.1,0.1-0.3,0.3c-0.9,1.1-3.4,3.8-5.8,5.7c-1.5,1.2-2.8,1.8-3.9,2.1
	c-1.8,0.4-3.8,0.6-6.2,0.7c-0.3,0,0.1,4.1,0.3,4.8c0.2,0.8,2.4,6.2,5.6,7.9c3.2,1.7,5.3,2.1,8.2,2.8c2.9,0.7,2.8-0.2,3.5-1.8
	c0.7-1.6,3.5-6.9,4.1-8c0.7-1.4,2.6-6.6,3.7-10.1c0.4-1.2,0.8-4.1,1-6.3c0.2-2.2-0.3-5.6-0.5-6.5
	C207.4,113.1,206.3,110.6,204.9,110.7"/>
</svg>
