<?xml version="1.0" encoding="UTF-8" standalone="no"?>
<svg
   xmlns:dc="http://purl.org/dc/elements/1.1/"
   xmlns:cc="http://creativecommons.org/ns#"
   xmlns:rdf="http://www.w3.org/1999/02/22-rdf-syntax-ns#"
   xmlns:svg="http://www.w3.org/2000/svg"
   xmlns="http://www.w3.org/2000/svg"
   xmlns:xlink="http://www.w3.org/1999/xlink"
   xmlns:sodipodi="http://sodipodi.sourceforge.net/DTD/sodipodi-0.dtd"
   xmlns:inkscape="http://www.inkscape.org/namespaces/inkscape"
   width="2in"
   height="2in"
   viewBox="0 0 191.99999 191.99999"
   version="1.1"
   id="svg6"
   sodipodi:docname="JUG-Nicaragua.svg"
   inkscape:version="0.92.2 (5c3e80d, 2017-08-06)"
   inkscape:export-filename="/home/wmoreno/sticker.png"
   inkscape:export-xdpi="3000"
   inkscape:export-ydpi="3000">
  <metadata
     id="metadata12">
    <rdf:RDF>
      <cc:Work
         rdf:about="">
        <dc:format>image/svg+xml</dc:format>
        <dc:type
           rdf:resource="http://purl.org/dc/dcmitype/StillImage" />
        <dc:title></dc:title>
      </cc:Work>
    </rdf:RDF>
  </metadata>
  <defs
     id="defs10">
    <linearGradient
       id="linearGradient2795">
      <stop
         id="stop2797"
         offset="0"
         style="stop-color:#b8b8b8;stop-opacity:0.49803922;" />
      <stop
         id="stop2799"
         offset="1"
         style="stop-color:#7f7f7f;stop-opacity:0;" />
    </linearGradient>
    <linearGradient
       id="linearGradient2787">
      <stop
         id="stop2789"
         offset="0"
         style="stop-color:#7f7f7f;stop-opacity:0.5;" />
      <stop
         id="stop2791"
         offset="1"
         style="stop-color:#7f7f7f;stop-opacity:0;" />
    </linearGradient>
    <linearGradient
       id="linearGradient3676">
      <stop
         id="stop3678"
         offset="0"
         style="stop-color:#b2b2b2;stop-opacity:0.5;" />
      <stop
         id="stop3680"
         offset="1"
         style="stop-color:#b3b3b3;stop-opacity:0;" />
    </linearGradient>
    <linearGradient
       id="linearGradient3236">
      <stop
         id="stop3244"
         offset="0"
         style="stop-color:#f4f4f4;stop-opacity:1" />
      <stop
         id="stop3240"
         offset="1"
         style="stop-color:white;stop-opacity:1" />
    </linearGradient>
    <linearGradient
       id="linearGradient4671">
      <stop
         id="stop4673"
         offset="0"
         style="stop-color:#ffd43b;stop-opacity:1;" />
      <stop
         id="stop4675"
         offset="1"
         style="stop-color:#ffe873;stop-opacity:1" />
    </linearGradient>
    <linearGradient
       id="linearGradient4689">
      <stop
         id="stop4691"
         offset="0"
         style="stop-color:#5a9fd4;stop-opacity:1;" />
      <stop
         id="stop4693"
         offset="1"
         style="stop-color:#306998;stop-opacity:1;" />
    </linearGradient>
    <linearGradient
       gradientTransform="translate(100.2702,99.61116)"
       gradientUnits="userSpaceOnUse"
       xlink:href="#linearGradient4671"
       id="linearGradient2987"
       y2="144.75717"
       x2="-65.308502"
       y1="144.75717"
       x1="224.23996" />
    <linearGradient
       gradientTransform="translate(100.2702,99.61116)"
       gradientUnits="userSpaceOnUse"
       xlink:href="#linearGradient4689"
       id="linearGradient2990"
       y2="76.313133"
       x2="26.670298"
       y1="77.475983"
       x1="172.94208" />
    <linearGradient
       y2="144.75717"
       x2="-65.308502"
       y1="144.75717"
       x1="224.23996"
       gradientTransform="matrix(0.562541,0,0,0.567972,-11.5974,-7.60954)"
       gradientUnits="userSpaceOnUse"
       id="linearGradient2255"
       xlink:href="#linearGradient4671"
       inkscape:collect="always" />
    <linearGradient
       y2="76.313133"
       x2="26.670298"
       y1="76.176224"
       x1="172.94208"
       gradientTransform="matrix(0.562541,0,0,0.567972,-11.5974,-7.60954)"
       gradientUnits="userSpaceOnUse"
       id="linearGradient2258"
       xlink:href="#linearGradient4689"
       inkscape:collect="always" />
    <radialGradient
       gradientUnits="userSpaceOnUse"
       gradientTransform="matrix(1,0,0,0.177966,0,108.7434)"
       r="29.036913"
       fy="132.28575"
       fx="61.518883"
       cy="132.28575"
       cx="61.518883"
       id="radialGradient2801"
       xlink:href="#linearGradient2795"
       inkscape:collect="always" />
  </defs>
  <sodipodi:namedview
     pagecolor="#ffffff"
     bordercolor="#666666"
     borderopacity="1"
     objecttolerance="10"
     gridtolerance="10"
     guidetolerance="10"
     inkscape:pageopacity="0"
     inkscape:pageshadow="2"
     inkscape:window-width="1366"
     inkscape:window-height="725"
     id="namedview8"
     showgrid="false"
     inkscape:zoom="1.55"
     inkscape:cx="-119.54839"
     inkscape:cy="74.078017"
     inkscape:window-x="0"
     inkscape:window-y="0"
     inkscape:window-maximized="1"
     inkscape:current-layer="svg6"
     units="in"
     showguides="false" />
  <g
     id="g1014"
     transform="matrix(0.27123841,0,0,0.27123841,65.358626,40.747602)"
     style="opacity:0.25;stroke-width:3.6867938"
     inkscape:export-filename="/home/wmoreno/s1.png"
     inkscape:export-xdpi="104.26"
     inkscape:export-ydpi="104.26">
    <path
       id="path951"
       d="m 48.859,43.518 c 8.424,17.64 2.736,140.832 -7.128,184.032 -9.864,43.272 -19.728,98.28 -22.032,144.576 -1.008,19.728 2.016,27.504 14.904,27.504 22.752,0 51.624,-47.952 87.84,-46.872 36.288,1.08 47.808,55.008 64.8,54.648 16.992,-0.36 30.672,-6.264 30.816,-58.752 C 218.563,191.981 87.235,64.973 48.859,43.518 Z"
       inkscape:connector-curvature="0"
       style="clip-rule:evenodd;fill-rule:evenodd;stroke-width:3.6867938" />
    <path
       id="path953"
       d="m 162.763,168.726 c 7.992,13.464 28.368,3.096 29.232,-12.096 0.864,-15.192 -1.368,-34.344 -11.232,-35.064 -9.864,-0.72 -16.92,-10.584 -26.784,-11.304 -9.864,-0.72 -20.448,9.144 -25.056,-3.96 -4.608,-13.104 12.384,-18.648 25.056,-20.736 -11.304,-11.304 -17.928,-23.832 -22.896,-36.864 -4.968,-13.032 -8.64,-24.984 5.256,-30.096 13.896,-5.112 12.744,21.168 28.656,33.192 -4.68,-17.712 -6.408,-25.056 -6.048,-35.352 0.36,-10.296 -0.36,-18.144 14.256,-16.128 14.616,2.016 8.28,32.4 19.656,44.784 3.456,-11.736 5.544,-26.64 13.896,-32.76 8.352,-6.12 27.36,-6.264 15.264,18.864 -12.096,25.128 3.528,38.736 -0.144,58.536 -3.672,19.8 -15.048,16.2 -19.944,28.944 -4.896,12.744 2.88,41.76 -6.336,54.792 -9.216,13.032 -10.872,33.048 -4.896,49.032 -18.36,-17.136 -27.936,-53.784 -27.936,-53.784 z"
       inkscape:connector-curvature="0"
       style="clip-rule:evenodd;fill-rule:evenodd;stroke-width:3.6867938" />
    <path
       id="path955"
       d="m 48.355,185.646 c -7.416,50.832 -33.192,56.88 -34.488,77.976 -1.296,21.096 6.84,23.112 6.336,42.624 -0.504,19.512 -17.856,27.432 -19.944,38.016 -2.088,10.584 8.928,13.968 15.336,13.968 6.408,0 12.816,-28.08 15.408,-45.936 2.592,-17.856 -8.496,-28.368 -8.496,-40.608 0,-12.24 16.056,-34.632 13.104,-14.976 13.32,-21.024 19.657,-47.809 12.744,-71.064 z"
       inkscape:connector-curvature="0"
       style="clip-rule:evenodd;fill-rule:evenodd;stroke-width:3.6867938" />
    <path
       id="path957"
       d="m 58.292,205.013 c -5.616,27.504 -40.68,181.08 -22.824,183.024 17.856,1.944 43.272,-47.52 84.888,-47.16 41.688,0.36 58.104,55.44 68.256,55.08 10.152,-0.36 16.848,3.6 17.928,-58.464 1.08,-62.064 -36.792,-141.336 -59.184,-176.256 -30.385,1.944 -63.073,26.281 -89.064,43.776 z"
       inkscape:connector-curvature="0"
       style="clip-rule:evenodd;fill:#ffffff;fill-rule:evenodd;stroke-width:3.6867938" />
    <g
       id="g986"
       style="stroke-width:3.6867938">
      <path
         id="path959"
         d="m 139.162,172.181 c -1.95,-18.251 -19.12,-25.421 -35.661,-23.168 -13.889,1.893 -32.403,13.613 -34.107,28.64 -1.921,16.937 11.402,32.522 28.361,33.203 15.03,0.604 31.176,-6.668 37.93,-20.79 2.73,-5.704 3.797,-11.578 3.477,-17.885"
         inkscape:connector-curvature="0"
         style="fill:none;stroke-width:3.6867938" />
      <path
         id="path961"
         d="m 147.082,171.533 c -1.662,-17.195 -14.407,-27.988 -30.895,-30.627 -15.924,-2.549 -33.26,4.998 -44.408,16.146 -12.538,12.538 -13.039,29.978 -4.26,44.833 8.661,14.657 27.847,19.501 43.563,15.835 21.506,-5.015 37.398,-23.824 36,-46.187"
         inkscape:connector-curvature="0"
         style="stroke-width:3.6867938" />
      <radialGradient
         gradientUnits="userSpaceOnUse"
         r="54.7155"
         cy="167.06931"
         cx="86.629898"
         id="SVGID_1_"
         gradientTransform="matrix(3.6867936,0,0,3.6867936,-764.29484,-525.95041)">
        <stop
           id="stop963"
           style="stop-color:#FFFFFF"
           offset="0" />
        <stop
           id="stop965"
           style="stop-color:#FBC8B4"
           offset="0.0604" />
        <stop
           id="stop967"
           style="stop-color:#FBC3B0"
           offset="0.0712" />
        <stop
           id="stop969"
           style="stop-color:#F7978B"
           offset="0.1829" />
        <stop
           id="stop971"
           style="stop-color:#F4716B"
           offset="0.2995" />
        <stop
           id="stop973"
           style="stop-color:#F15251"
           offset="0.4199" />
        <stop
           id="stop975"
           style="stop-color:#EF3A3D"
           offset="0.5453" />
        <stop
           id="stop977"
           style="stop-color:#EE292F"
           offset="0.6778" />
        <stop
           id="stop979"
           style="stop-color:#ED1F27"
           offset="0.822" />
        <stop
           id="stop981"
           style="stop-color:#ED1C24"
           offset="1" />
      </radialGradient>
      <path
         id="path984"
         d="m 139.162,177.941 c -1.493,15.627 -13.947,28.182 -28.944,31.824 -15.87,3.854 -33.393,-2.257 -39.096,-18.576 -2.912,-8.332 -2.37,-16.879 2.637,-24.198 4.223,-6.171 11.033,-11 17.779,-14.066 13.924,-6.326 33.832,-7.029 43.531,7.077 3.675,5.346 4.318,11.639 4.093,17.939"
         inkscape:connector-curvature="0"
         style="fill:url(#SVGID_1_);stroke:#000000;stroke-width:3.6867938" />
    </g>
  </g>
  <path
     d="M 96,7.6946125 172.66614,51.852973 V 140.14703 L 96,184.30539 19.333861,140.14703 V 51.852973 Z M 96,-5e-7 12.667242,47.999667 V 144.00033 L 96,192 179.33276,144.00033 V 47.999667 Z"
     id="path4"
     style="fill:#306998;fill-opacity:1;stroke-width:1"
     inkscape:connector-curvature="0"
     inkscape:export-filename="/home/wmoreno/s1.png"
     inkscape:export-xdpi="104.26"
     inkscape:export-ydpi="104.26" />
  <path
     inkscape:connector-curvature="0"
     style="fill:#306998;fill-opacity:1;stroke-width:1"
     id="path1189"
     d="m 96.00001,16.963301 68.61911,39.52342 V 135.51326 L 96.00001,175.03668 27.380889,135.51326 V 56.486721 Z m 0,-6.88697 -74.58599,42.961531 v 85.924268 l 74.58599,42.96154 74.58597,-42.96154 V 53.03786 Z"
     inkscape:export-filename="/home/wmoreno/s1.png"
     inkscape:export-xdpi="104.26"
     inkscape:export-ydpi="104.26" />
  <g
     id="g1101"
     transform="matrix(1.3333241,0,0,1.3333241,207.81824,-44.267885)"
     style="stroke-width:0.75000519"
     inkscape:export-xdpi="104.26"
     inkscape:export-ydpi="104.26">
    <path
       d="m -131.65544,86.947824 v 0.429248 h -0.18481 q -0.74224,0 -0.99562,-0.220586 -0.25039,-0.220586 -0.25039,-0.879363 v -0.712434 q 0,-0.450115 -0.16097,-0.623007 -0.16097,-0.172891 -0.58426,-0.172891 h -0.18183 v -0.426268 h 0.18183 q 0.42627,0 0.58426,-0.169911 0.16097,-0.172892 0.16097,-0.617045 v -0.715414 q 0,-0.658778 0.25039,-0.876383 0.25338,-0.220586 0.99562,-0.220586 h 0.18481 v 0.426268 h -0.2027 q -0.4203,0 -0.54848,0.131159 -0.12818,0.131159 -0.12818,0.551465 v 0.739262 q 0,0.468 -0.13712,0.679644 -0.13414,0.211643 -0.46204,0.286165 0.33088,0.08048 0.46502,0.292128 0.13414,0.211643 0.13414,0.676663 v 0.739261 q 0,0.420306 0.12818,0.551466 0.12818,0.131159 0.54848,0.131159 z"
       style="font-style:normal;font-variant:normal;font-weight:normal;font-stretch:normal;font-size:medium;line-height:1.25;font-family:sans-serif;-inkscape-font-specification:sans-serif;letter-spacing:0px;word-spacing:0px;stroke-width:0.7500053"
       id="path935"
       inkscape:connector-curvature="0" />
    <path
       d="m -129.00542,90.187586 h 0.50675 l -1.55007,5.016844 h -0.50675 z"
       style="font-size:medium;line-height:1.25;font-family:'Smartest Kid';-inkscape-font-specification:'Smartest Kid';letter-spacing:0px;word-spacing:0px;fill:#003232;fill-opacity:1;stroke-width:0.7500053"
       id="path937"
       inkscape:connector-curvature="0" />
    <path
       d="m -126.94264,90.187586 h 0.50675 l -1.55007,5.016844 h -0.50675 z"
       style="font-size:medium;line-height:1.25;font-family:'Smartest Kid';-inkscape-font-specification:'Smartest Kid';letter-spacing:0px;word-spacing:0px;fill:#003232;fill-opacity:1;stroke-width:0.7500053"
       id="path939"
       inkscape:connector-curvature="0" />
    <path
       d="m -120.85268,94.00313 v -1.195339 h -0.98369 v -0.494828 h 1.57987 v 1.910753 q -0.34877,0.247414 -0.76907,0.375592 -0.42031,0.125198 -0.89725,0.125198 -1.04331,0 -1.63353,-0.608102 -0.58723,-0.611083 -0.58723,-1.69911 0,-1.091007 0.58723,-1.699109 0.59022,-0.611083 1.63353,-0.611083 0.43521,0 0.82571,0.107312 0.39348,0.107312 0.72436,0.315975 v 0.640892 q -0.33387,-0.283185 -0.70946,-0.426268 -0.37559,-0.143083 -0.78993,-0.143083 -0.81677,0 -1.22813,0.456077 -0.40839,0.456077 -0.40839,1.359287 0,0.90023 0.40839,1.356307 0.41136,0.456077 1.22813,0.456077 0.31895,0 0.56935,-0.05366 0.25039,-0.05664 0.45011,-0.172891 z"
       style="font-size:medium;line-height:1.25;font-family:'Smartest Kid';-inkscape-font-specification:'Smartest Kid';letter-spacing:0px;word-spacing:0px;fill:#003232;fill-opacity:1;stroke-width:0.7500053"
       id="path941"
       inkscape:connector-curvature="0" />
    <path
       d="m -117.24282,91.812173 q -0.0924,-0.05366 -0.2027,-0.0775 -0.10731,-0.02683 -0.23847,-0.02683 -0.46502,0 -0.71541,0.304051 -0.24742,0.30107 -0.24742,0.86744 v 1.758727 h -0.55146 V 91.29946 h 0.55146 v 0.518676 q 0.17289,-0.304051 0.45012,-0.450115 0.27722,-0.149045 0.67368,-0.149045 0.0566,0 0.1252,0.0089 0.0686,0.006 0.15202,0.02087 z"
       style="font-size:medium;line-height:1.25;font-family:'Smartest Kid';-inkscape-font-specification:'Smartest Kid';letter-spacing:0px;word-spacing:0px;fill:#003232;fill-opacity:1;stroke-width:0.7500053"
       id="path943"
       inkscape:connector-curvature="0" />
    <path
       d="m -116.71818,93.320505 v -2.021046 h 0.54848 v 2.00018 q 0,0.473962 0.18482,0.712433 0.18481,0.235491 0.55445,0.235491 0.44415,0 0.70051,-0.283185 0.25933,-0.283185 0.25933,-0.772051 v -1.892868 h 0.54849 v 3.338601 h -0.54849 v -0.512714 q -0.19972,0.304051 -0.46502,0.453096 -0.26231,0.146064 -0.61108,0.146064 -0.57531,0 -0.8734,-0.357707 -0.29809,-0.357708 -0.29809,-1.046294 z m 1.38015,-2.10153 z"
       style="font-size:medium;line-height:1.25;font-family:'Smartest Kid';-inkscape-font-specification:'Smartest Kid';letter-spacing:0px;word-spacing:0px;fill:#003232;fill-opacity:1;stroke-width:0.7500053"
       id="path945"
       inkscape:connector-curvature="0" />
    <path
       d="m -112.25578,94.13727 v 1.770651 h -0.55147 v -4.608462 h 0.55147 v 0.506752 q 0.17289,-0.298089 0.43521,-0.441172 0.2653,-0.146064 0.63195,-0.146064 0.6081,0 0.98667,0.482905 0.38156,0.482905 0.38156,1.269861 0,0.786955 -0.38156,1.26986 -0.37857,0.482905 -0.98667,0.482905 -0.36665,0 -0.63195,-0.143083 -0.26232,-0.146064 -0.43521,-0.444153 z m 1.86604,-1.165529 q 0,-0.605122 -0.2504,-0.947924 -0.24741,-0.345784 -0.68262,-0.345784 -0.43521,0 -0.68561,0.345784 -0.24741,0.342802 -0.24741,0.947924 0,0.605121 0.24741,0.950905 0.2504,0.342802 0.68561,0.342802 0.43521,0 0.68262,-0.342802 0.2504,-0.345784 0.2504,-0.950905 z"
       style="font-size:medium;line-height:1.25;font-family:'Smartest Kid';-inkscape-font-specification:'Smartest Kid';letter-spacing:0px;word-spacing:0px;fill:#003232;fill-opacity:1;stroke-width:0.7500053"
       id="path947"
       inkscape:connector-curvature="0" />
    <path
       d="m -107.61751,91.683995 q -0.44117,0 -0.69753,0.345783 -0.25636,0.342803 -0.25636,0.941963 0,0.599159 0.25338,0.944943 0.25635,0.342803 0.70051,0.342803 0.43819,0 0.69455,-0.345784 0.25635,-0.345784 0.25635,-0.941962 0,-0.593198 -0.25635,-0.938982 -0.25636,-0.348764 -0.69455,-0.348764 z m 0,-0.46502 q 0.71541,0 1.12379,0.46502 0.40839,0.465019 0.40839,1.287746 0,0.819745 -0.40839,1.287746 -0.40838,0.465019 -1.12379,0.465019 -0.7184,0 -1.12678,-0.465019 -0.4054,-0.468001 -0.4054,-1.287746 0,-0.822727 0.4054,-1.287746 0.40838,-0.46502 1.12678,-0.46502 z"
       style="font-size:medium;line-height:1.25;font-family:'Smartest Kid';-inkscape-font-specification:'Smartest Kid';letter-spacing:0px;word-spacing:0px;fill:#003232;fill-opacity:1;stroke-width:0.7500053"
       id="path949"
       inkscape:connector-curvature="0" />
    <path
       d="M -101.03868,91.806211 V 89.99979 h 0.54848 v 4.63827 h -0.54848 v -0.50079 q -0.17289,0.298089 -0.43819,0.444153 -0.26232,0.143083 -0.63195,0.143083 -0.60512,0 -0.98668,-0.482905 -0.37857,-0.482905 -0.37857,-1.26986 0,-0.786956 0.37857,-1.269861 0.38156,-0.482905 0.98668,-0.482905 0.36963,0 0.63195,0.146064 0.2653,0.143083 0.43819,0.441172 z m -1.86902,1.16553 q 0,0.605121 0.24741,0.950905 0.2504,0.342802 0.68561,0.342802 0.43521,0 0.6856,-0.342802 0.2504,-0.345784 0.2504,-0.950905 0,-0.605122 -0.2504,-0.947924 -0.25039,-0.345784 -0.6856,-0.345784 -0.43521,0 -0.68561,0.345784 -0.24741,0.342802 -0.24741,0.947924 z"
       style="font-size:medium;line-height:1.25;font-family:'Smartest Kid';-inkscape-font-specification:'Smartest Kid';letter-spacing:0px;word-spacing:0px;fill:#003232;fill-opacity:1;stroke-width:0.7500053"
       id="path952"
       inkscape:connector-curvature="0" />
    <path
       d="m -96.504742,92.831639 v 0.26828 h -2.521836 q 0.03577,0.56637 0.339822,0.864459 0.307032,0.295109 0.852535,0.295109 0.315975,0 0.611083,-0.0775 0.29809,-0.0775 0.590217,-0.232509 v 0.518675 q -0.295108,0.125198 -0.605121,0.190777 -0.310013,0.06558 -0.628968,0.06558 -0.79888,0 -1.26688,-0.465019 -0.46502,-0.46502 -0.46502,-1.257937 0,-0.819746 0.441173,-1.29967 0.444153,-0.482905 1.195338,-0.482905 0.673682,0 1.064179,0.435211 0.393478,0.432229 0.393478,1.177453 z m -0.548485,-0.160969 q -0.006,-0.450115 -0.253376,-0.718395 -0.244433,-0.26828 -0.649834,-0.26828 -0.459058,0 -0.736281,0.259337 -0.274242,0.259338 -0.315975,0.730319 z"
       style="font-size:medium;line-height:1.25;font-family:'Smartest Kid';-inkscape-font-specification:'Smartest Kid';letter-spacing:0px;word-spacing:0px;fill:#003232;fill-opacity:1;stroke-width:0.7500053"
       id="path954"
       inkscape:connector-curvature="0" />
    <path
       d="m -93.705683,90.187586 h 0.605121 v 2.70367 q 0,0.715415 0.259338,1.03139 0.259337,0.312993 0.840612,0.312993 0.578293,0 0.837631,-0.312993 0.259337,-0.315975 0.259337,-1.03139 v -2.70367 h 0.605122 v 2.778193 q 0,0.870421 -0.43223,1.314574 -0.429249,0.444153 -1.26986,0.444153 -0.843593,0 -1.275823,-0.444153 -0.429248,-0.444153 -0.429248,-1.314574 z"
       style="font-size:medium;line-height:1.25;font-family:'Smartest Kid';-inkscape-font-specification:'Smartest Kid';letter-spacing:0px;word-spacing:0px;fill:#003232;fill-opacity:1;stroke-width:0.7500053"
       id="path956"
       inkscape:connector-curvature="0" />
    <path
       d="m -87.061272,91.397829 v 0.518675 q -0.23251,-0.119235 -0.482905,-0.178853 -0.250395,-0.05962 -0.518675,-0.05962 -0.408383,0 -0.614064,0.125197 -0.202701,0.125198 -0.202701,0.375593 0,0.190777 0.146064,0.30107 0.146064,0.107312 0.587236,0.205682 l 0.187796,0.04173 q 0.584255,0.125198 0.828688,0.354727 0.247415,0.226547 0.247415,0.63493 0,0.465019 -0.369631,0.736281 -0.36665,0.271261 -1.010523,0.271261 -0.26828,0 -0.560408,-0.05366 -0.289147,-0.05067 -0.611083,-0.155007 v -0.566369 q 0.304051,0.157987 0.599159,0.238471 0.295109,0.0775 0.584255,0.0775 0.387517,0 0.596179,-0.131159 0.208663,-0.13414 0.208663,-0.375593 0,-0.223567 -0.152026,-0.342802 -0.149044,-0.119236 -0.658777,-0.229529 l -0.190777,-0.04471 q -0.509733,-0.107312 -0.736281,-0.327898 -0.226548,-0.223567 -0.226548,-0.611083 0,-0.470981 0.33386,-0.727338 0.33386,-0.256357 0.947924,-0.256357 0.304051,0 0.572332,0.04471 0.26828,0.04471 0.494828,0.13414 z"
       style="font-size:medium;line-height:1.25;font-family:'Smartest Kid';-inkscape-font-specification:'Smartest Kid';letter-spacing:0px;word-spacing:0px;fill:#003232;fill-opacity:1;stroke-width:0.7500053"
       id="path958"
       inkscape:connector-curvature="0" />
    <path
       d="m -86.062673,93.320505 v -2.021046 h 0.548485 v 2.00018 q 0,0.473962 0.184815,0.712433 0.184815,0.235491 0.554446,0.235491 0.444153,0 0.70051,-0.283185 0.259338,-0.283185 0.259338,-0.772051 v -1.892868 h 0.548485 v 3.338601 h -0.548485 v -0.512714 q -0.19972,0.304051 -0.46502,0.453096 -0.262318,0.146064 -0.611083,0.146064 -0.575312,0 -0.873401,-0.357707 -0.29809,-0.357708 -0.29809,-1.046294 z m 1.380154,-2.10153 z"
       style="font-size:medium;line-height:1.25;font-family:'Smartest Kid';-inkscape-font-specification:'Smartest Kid';letter-spacing:0px;word-spacing:0px;fill:#003232;fill-opacity:1;stroke-width:0.7500053"
       id="path960"
       inkscape:connector-curvature="0" />
    <path
       d="m -80.6136,92.959817 q -0.664739,0 -0.921096,0.152026 -0.256356,0.152025 -0.256356,0.518675 0,0.292128 0.190777,0.465019 0.193758,0.169911 0.524637,0.169911 0.456077,0 0.730318,-0.321936 0.277224,-0.324918 0.277224,-0.861478 v -0.122217 z m 1.093988,-0.226548 v 1.904791 h -0.548484 v -0.506752 q -0.187797,0.304051 -0.468001,0.450115 -0.280203,0.143083 -0.685604,0.143083 -0.512715,0 -0.816766,-0.286166 -0.301069,-0.289147 -0.301069,-0.772051 0,-0.563389 0.375591,-0.849555 0.378574,-0.286166 1.126779,-0.286166 h 0.76907 v -0.05366 q 0,-0.378573 -0.250396,-0.584255 -0.247413,-0.208662 -0.697529,-0.208662 -0.286165,0 -0.557426,0.06856 -0.271262,0.06856 -0.521657,0.205682 v -0.506752 q 0.301071,-0.116255 0.584255,-0.172892 0.283185,-0.05962 0.551466,-0.05962 0.724357,0 1.082064,0.375593 0.357707,0.375592 0.357707,1.138701 z"
       style="font-size:medium;line-height:1.25;font-family:'Smartest Kid';-inkscape-font-specification:'Smartest Kid';letter-spacing:0px;word-spacing:0px;fill:#003232;fill-opacity:1;stroke-width:0.7500053"
       id="path962"
       inkscape:connector-curvature="0" />
    <path
       d="m -76.452273,91.812173 q -0.09241,-0.05366 -0.2027,-0.0775 -0.107313,-0.02683 -0.238472,-0.02683 -0.46502,0 -0.715414,0.304051 -0.247414,0.30107 -0.247414,0.86744 v 1.758727 h -0.551466 V 91.29946 h 0.551466 v 0.518676 q 0.172892,-0.304051 0.450114,-0.450115 0.277223,-0.149045 0.673683,-0.149045 0.05664,0 0.125197,0.0089 0.06856,0.006 0.152025,0.02087 z"
       style="font-size:medium;line-height:1.25;font-family:'Smartest Kid';-inkscape-font-specification:'Smartest Kid';letter-spacing:0px;word-spacing:0px;fill:#003232;fill-opacity:1;stroke-width:0.7500053"
       id="path964"
       inkscape:connector-curvature="0" />
    <path
       d="m -75.870998,91.299459 h 0.548484 v 3.338601 h -0.548484 z m 0,-1.299669 h 0.548484 v 0.694548 h -0.548484 z"
       style="font-size:medium;line-height:1.25;font-family:'Smartest Kid';-inkscape-font-specification:'Smartest Kid';letter-spacing:0px;word-spacing:0px;fill:#003232;fill-opacity:1;stroke-width:0.7500053"
       id="path966"
       inkscape:connector-curvature="0" />
    <path
       d="m -72.884143,91.683995 q -0.441172,0 -0.697529,0.345783 -0.256357,0.342803 -0.256357,0.941963 0,0.599159 0.253376,0.944943 0.256356,0.342803 0.70051,0.342803 0.43819,0 0.694548,-0.345784 0.256357,-0.345784 0.256357,-0.941962 0,-0.593198 -0.256357,-0.938982 -0.256358,-0.348764 -0.694548,-0.348764 z m 0,-0.46502 q 0.715414,0 1.123796,0.46502 0.408382,0.465019 0.408382,1.287746 0,0.819745 -0.408382,1.287746 -0.408382,0.465019 -1.123796,0.465019 -0.718396,0 -1.126778,-0.465019 -0.405401,-0.468001 -0.405401,-1.287746 0,-0.822727 0.405401,-1.287746 0.408382,-0.46502 1.126778,-0.46502 z"
       style="font-size:medium;line-height:1.25;font-family:'Smartest Kid';-inkscape-font-specification:'Smartest Kid';letter-spacing:0px;word-spacing:0px;fill:#003232;fill-opacity:1;stroke-width:0.7500053"
       id="path968"
       inkscape:connector-curvature="0" />
    <path
       d="m -68.317414,91.397829 v 0.518675 q -0.23251,-0.119235 -0.482906,-0.178853 -0.250394,-0.05962 -0.518674,-0.05962 -0.408384,0 -0.614065,0.125197 -0.202701,0.125198 -0.202701,0.375593 0,0.190777 0.146063,0.30107 0.146066,0.107312 0.587237,0.205682 l 0.187796,0.04173 q 0.584255,0.125198 0.828689,0.354727 0.247414,0.226547 0.247414,0.63493 0,0.465019 -0.36963,0.736281 -0.366651,0.271261 -1.010524,0.271261 -0.26828,0 -0.560407,-0.05366 -0.289147,-0.05067 -0.611084,-0.155007 v -0.566369 q 0.304052,0.157987 0.599159,0.238471 0.29511,0.0775 0.584256,0.0775 0.387516,0 0.596179,-0.131159 0.208661,-0.13414 0.208661,-0.375593 0,-0.223567 -0.152025,-0.342802 -0.149044,-0.119236 -0.658778,-0.229529 l -0.190777,-0.04471 q -0.509732,-0.107312 -0.736279,-0.327898 -0.226549,-0.223567 -0.226549,-0.611083 0,-0.470981 0.33386,-0.727338 0.33386,-0.256357 0.947925,-0.256357 0.304051,0 0.572331,0.04471 0.26828,0.04471 0.494829,0.13414 z"
       style="font-size:medium;line-height:1.25;font-family:'Smartest Kid';-inkscape-font-specification:'Smartest Kid';letter-spacing:0px;word-spacing:0px;fill:#003232;fill-opacity:1;stroke-width:0.7500053"
       id="path970"
       inkscape:connector-curvature="0" />
    <path
       d="m -129.00542,98.444192 h 0.50675 l -1.55007,5.016848 h -0.50675 z"
       style="font-style:normal;font-variant:normal;font-weight:normal;font-stretch:normal;font-size:medium;line-height:1.25;font-family:sans-serif;-inkscape-font-specification:sans-serif;letter-spacing:0px;word-spacing:0px;fill:#003232;fill-opacity:1;stroke-width:0.7500053"
       id="path972"
       inkscape:connector-curvature="0" />
    <path
       d="m -126.94264,98.444192 h 0.50675 l -1.55007,5.016848 h -0.50675 z"
       style="font-style:normal;font-variant:normal;font-weight:normal;font-stretch:normal;font-size:medium;line-height:1.25;font-family:sans-serif;-inkscape-font-specification:sans-serif;letter-spacing:0px;word-spacing:0px;fill:#003232;fill-opacity:1;stroke-width:0.7500053"
       id="path974"
       inkscape:connector-curvature="0" />
    <path
       d="m -121.71416,100.06282 v -1.806424 h 0.54849 v 4.638274 h -0.54849 v -0.50079 q -0.17289,0.29809 -0.43819,0.44415 -0.26232,0.14308 -0.63195,0.14308 -0.60512,0 -0.98667,-0.4829 -0.37858,-0.48291 -0.37858,-1.26986 0,-0.78696 0.37858,-1.269864 0.38155,-0.482905 0.98667,-0.482905 0.36963,0 0.63195,0.146064 0.2653,0.143083 0.43819,0.441175 z m -1.86902,1.16553 q 0,0.60512 0.24742,0.9509 0.25039,0.3428 0.6856,0.3428 0.43521,0 0.68561,-0.3428 0.25039,-0.34578 0.25039,-0.9509 0,-0.60512 -0.25039,-0.94793 -0.2504,-0.345781 -0.68561,-0.345781 -0.43521,0 -0.6856,0.345781 -0.24742,0.34281 -0.24742,0.94793 z"
       style="font-style:normal;font-variant:normal;font-weight:normal;font-stretch:normal;font-size:medium;line-height:1.25;font-family:sans-serif;-inkscape-font-specification:sans-serif;letter-spacing:0px;word-spacing:0px;fill:#003232;fill-opacity:1;stroke-width:0.7500053"
       id="path976"
       inkscape:connector-curvature="0" />
    <path
       d="m -117.18022,101.08824 v 0.26828 h -2.52183 q 0.0358,0.56637 0.33982,0.86446 0.30703,0.29511 0.85253,0.29511 0.31598,0 0.61109,-0.0775 0.29809,-0.0775 0.59021,-0.23251 v 0.51867 q -0.29511,0.1252 -0.60512,0.19078 -0.31001,0.0656 -0.62897,0.0656 -0.79888,0 -1.26688,-0.46502 -0.46502,-0.46502 -0.46502,-1.25793 0,-0.81975 0.44118,-1.299674 0.44415,-0.482905 1.19533,-0.482905 0.67369,0 1.06418,0.435211 0.39348,0.432228 0.39348,1.177448 z m -0.54848,-0.16096 q -0.006,-0.45012 -0.25338,-0.7184 -0.24443,-0.268279 -0.64983,-0.268279 -0.45906,0 -0.73628,0.259339 -0.27425,0.25934 -0.31598,0.73032 z"
       style="font-style:normal;font-variant:normal;font-weight:normal;font-stretch:normal;font-size:medium;line-height:1.25;font-family:sans-serif;-inkscape-font-specification:sans-serif;letter-spacing:0px;word-spacing:0px;fill:#003232;fill-opacity:1;stroke-width:0.7500053"
       id="path978"
       inkscape:connector-curvature="0" />
    <path
       d="m -114.3126,98.444192 h 0.60214 v 4.140458 q 0,0.80484 -0.30703,1.16851 -0.30405,0.36367 -0.98071,0.36367 h -0.22953 v -0.50675 h 0.18779 q 0.39944,0 0.56339,-0.22357 0.16395,-0.22356 0.16395,-0.80186 z"
       style="font-style:normal;font-variant:normal;font-weight:normal;font-stretch:normal;font-size:medium;line-height:1.25;font-family:sans-serif;-inkscape-font-specification:sans-serif;letter-spacing:0px;word-spacing:0px;fill:#003232;fill-opacity:1;stroke-width:0.7500053"
       id="path980"
       inkscape:connector-curvature="0" />
    <path
       d="m -111.01871,101.21642 q -0.66474,0 -0.9211,0.15203 -0.25635,0.15202 -0.25635,0.51867 0,0.29213 0.19077,0.46502 0.19376,0.16991 0.52464,0.16991 0.45608,0 0.73032,-0.32193 0.27722,-0.32492 0.27722,-0.86148 v -0.12222 z m 1.09399,-0.22654 v 1.90479 h -0.54849 v -0.50676 q -0.18779,0.30406 -0.468,0.45012 -0.2802,0.14308 -0.6856,0.14308 -0.51272,0 -0.81677,-0.28616 -0.30107,-0.28915 -0.30107,-0.77206 0,-0.56338 0.37559,-0.84955 0.37858,-0.28617 1.12678,-0.28617 h 0.76907 v -0.0537 q 0,-0.37858 -0.25039,-0.58426 -0.24742,-0.208659 -0.69753,-0.208659 -0.28617,0 -0.55743,0.06856 -0.27126,0.0686 -0.52166,0.20568 v -0.506721 q 0.30107,-0.116255 0.58426,-0.172892 0.28318,-0.05962 0.55146,-0.05962 0.72436,0 1.08207,0.375593 0.35771,0.37557 0.35771,1.13868 z"
       style="font-style:normal;font-variant:normal;font-weight:normal;font-stretch:normal;font-size:medium;line-height:1.25;font-family:sans-serif;-inkscape-font-specification:sans-serif;letter-spacing:0px;word-spacing:0px;fill:#003232;fill-opacity:1;stroke-width:0.7500053"
       id="path982"
       inkscape:connector-curvature="0" />
    <path
       d="m -109.18546,99.556065 h 0.58127 l 1.04331,2.802045 1.04332,-2.802045 h 0.58127 l -1.25197,3.338605 h -0.74523 z"
       style="font-style:normal;font-variant:normal;font-weight:normal;font-stretch:normal;font-size:medium;line-height:1.25;font-family:sans-serif;-inkscape-font-specification:sans-serif;letter-spacing:0px;word-spacing:0px;fill:#003232;fill-opacity:1;stroke-width:0.7500053"
       id="path985"
       inkscape:connector-curvature="0" />
    <path
       d="m -103.66187,101.21642 q -0.66474,0 -0.92109,0.15203 -0.25636,0.15202 -0.25636,0.51867 0,0.29213 0.19078,0.46502 0.19376,0.16991 0.52463,0.16991 0.45608,0 0.73032,-0.32193 0.27723,-0.32492 0.27723,-0.86148 v -0.12222 z m 1.09399,-0.22654 v 1.90479 h -0.54848 v -0.50676 q -0.1878,0.30406 -0.468,0.45012 -0.28021,0.14308 -0.68561,0.14308 -0.51271,0 -0.81676,-0.28616 -0.30107,-0.28915 -0.30107,-0.77206 0,-0.56338 0.37559,-0.84955 0.37857,-0.28617 1.12678,-0.28617 h 0.76907 v -0.0537 q 0,-0.37858 -0.2504,-0.58426 -0.24741,-0.208659 -0.69753,-0.208659 -0.28616,0 -0.55742,0.06856 -0.27127,0.0686 -0.52166,0.20568 v -0.506721 q 0.30107,-0.116255 0.58425,-0.172892 0.28319,-0.05962 0.55147,-0.05962 0.72436,0 1.08206,0.375593 0.35771,0.37557 0.35771,1.13868 z"
       style="font-style:normal;font-variant:normal;font-weight:normal;font-stretch:normal;font-size:medium;line-height:1.25;font-family:sans-serif;-inkscape-font-specification:sans-serif;letter-spacing:0px;word-spacing:0px;fill:#003232;fill-opacity:1;stroke-width:0.7500053"
       id="path987"
       inkscape:connector-curvature="0" />
    <path
       d="m -96.635902,101.08824 v 0.26828 h -2.521835 q 0.03577,0.56637 0.339822,0.86446 0.307032,0.29511 0.852535,0.29511 0.315975,0 0.611083,-0.0775 0.29809,-0.0775 0.590217,-0.23251 v 0.51867 q -0.295108,0.1252 -0.605121,0.19078 -0.310013,0.0656 -0.628969,0.0656 -0.798879,0 -1.266879,-0.46502 -0.46502,-0.46502 -0.46502,-1.25793 0,-0.81975 0.441172,-1.299674 0.444153,-0.482905 1.195339,-0.482905 0.673682,0 1.064179,0.435211 0.393477,0.432228 0.393477,1.177448 z m -0.548484,-0.16096 q -0.006,-0.45012 -0.253376,-0.7184 -0.244433,-0.268279 -0.649835,-0.268279 -0.459057,0 -0.73628,0.259339 -0.274242,0.25934 -0.315975,0.73032 z"
       style="font-style:normal;font-variant:normal;font-weight:normal;font-stretch:normal;font-size:medium;line-height:1.25;font-family:sans-serif;-inkscape-font-specification:sans-serif;letter-spacing:0px;word-spacing:0px;fill:#003232;fill-opacity:1;stroke-width:0.7500053"
       id="path989"
       inkscape:connector-curvature="0" />
    <path
       d="m -92.96046,100.87958 v 2.01509 h -0.548484 v -1.9972 q 0,-0.47396 -0.184816,-0.70946 -0.184815,-0.235486 -0.554446,-0.235486 -0.444153,0 -0.70051,0.283186 -0.256357,0.28318 -0.256357,0.77205 v 1.88691 h -0.551465 v -3.338605 h 0.551465 v 0.518675 q 0.196739,-0.301069 0.462039,-0.450114 0.26828,-0.149045 0.617045,-0.149045 0.575312,0 0.870421,0.357707 0.295108,0.354722 0.295108,1.046292 z"
       style="font-style:normal;font-variant:normal;font-weight:normal;font-stretch:normal;font-size:medium;line-height:1.25;font-family:sans-serif;-inkscape-font-specification:sans-serif;letter-spacing:0px;word-spacing:0px;fill:#003232;fill-opacity:1;stroke-width:0.7500053"
       id="path991"
       inkscape:connector-curvature="0" />
    <path
       d="m -89.893121,98.444192 h 0.810803 l 1.973352,3.723138 v -3.723138 h 0.584255 v 4.450478 h -0.810803 l -1.973352,-3.72314 v 3.72314 h -0.584255 z"
       style="font-style:normal;font-variant:normal;font-weight:normal;font-stretch:normal;font-size:medium;line-height:1.25;font-family:sans-serif;-inkscape-font-specification:sans-serif;letter-spacing:0px;word-spacing:0px;fill:#003232;fill-opacity:1;stroke-width:0.7500053"
       id="path993"
       inkscape:connector-curvature="0" />
    <path
       d="m -85.350239,99.556065 h 0.548484 v 3.338605 h -0.548484 z m 0,-1.299669 h 0.548484 v 0.694548 h -0.548484 z"
       style="font-style:normal;font-variant:normal;font-weight:normal;font-stretch:normal;font-size:medium;line-height:1.25;font-family:sans-serif;-inkscape-font-specification:sans-serif;letter-spacing:0px;word-spacing:0px;fill:#003232;fill-opacity:1;stroke-width:0.7500053"
       id="path995"
       inkscape:connector-curvature="0" />
    <path
       d="m -81.254492,99.684244 v 0.512716 q -0.23251,-0.12818 -0.467999,-0.19078 -0.23251,-0.06558 -0.470982,-0.06558 -0.533581,0 -0.828689,0.33982 -0.295107,0.33684 -0.295107,0.94793 0,0.61108 0.295107,0.9509 0.295108,0.33684 0.828689,0.33684 0.238472,0 0.470982,-0.0626 0.235489,-0.0656 0.467999,-0.19375 v 0.50675 q -0.229528,0.10731 -0.476943,0.16097 -0.244433,0.0537 -0.521656,0.0537 -0.754166,0 -1.198319,-0.47396 -0.444154,-0.47396 -0.444154,-1.2788 0,-0.81677 0.447135,-1.28477 0.450115,-0.468 1.231109,-0.468 0.253375,0 0.494829,0.05366 0.241452,0.05067 0.467999,0.155007 z"
       style="font-style:normal;font-variant:normal;font-weight:normal;font-stretch:normal;font-size:medium;line-height:1.25;font-family:sans-serif;-inkscape-font-specification:sans-serif;letter-spacing:0px;word-spacing:0px;fill:#003232;fill-opacity:1;stroke-width:0.7500053"
       id="path997"
       inkscape:connector-curvature="0" />
    <path
       d="m -78.777369,101.21642 q -0.66474,0 -0.921097,0.15203 -0.256356,0.15202 -0.256356,0.51867 0,0.29213 0.190777,0.46502 0.193758,0.16991 0.524638,0.16991 0.456076,0 0.730318,-0.32193 0.277223,-0.32492 0.277223,-0.86148 v -0.12222 z m 1.093988,-0.22654 v 1.90479 h -0.548485 v -0.50676 q -0.187796,0.30406 -0.468001,0.45012 -0.280204,0.14308 -0.685605,0.14308 -0.512713,0 -0.816765,-0.28616 -0.301069,-0.28915 -0.301069,-0.77206 0,-0.56338 0.375591,-0.84955 0.378574,-0.28617 1.126779,-0.28617 h 0.76907 v -0.0537 q 0,-0.37858 -0.250396,-0.58426 -0.247413,-0.208659 -0.697528,-0.208659 -0.286166,0 -0.557427,0.06856 -0.271262,0.0686 -0.521656,0.20568 v -0.506721 q 0.301071,-0.116255 0.584254,-0.172892 0.283185,-0.05962 0.551465,-0.05962 0.724358,0 1.082065,0.375593 0.357708,0.37557 0.357708,1.13868 z"
       style="font-style:normal;font-variant:normal;font-weight:normal;font-stretch:normal;font-size:medium;line-height:1.25;font-family:sans-serif;-inkscape-font-specification:sans-serif;letter-spacing:0px;word-spacing:0px;fill:#003232;fill-opacity:1;stroke-width:0.7500053"
       id="path999"
       inkscape:connector-curvature="0" />
    <path
       d="m -74.616043,100.06878 q -0.09241,-0.0537 -0.2027,-0.0775 -0.107313,-0.02683 -0.238471,-0.02683 -0.465021,0 -0.715415,0.30405 -0.247413,0.30107 -0.247413,0.86744 v 1.75873 h -0.551467 v -3.338603 h 0.551467 v 0.518673 q 0.172891,-0.304048 0.450113,-0.450112 0.277224,-0.149045 0.673683,-0.149045 0.05664,0 0.125197,0.0089 0.06856,0.006 0.152025,0.02087 z"
       style="font-style:normal;font-variant:normal;font-weight:normal;font-stretch:normal;font-size:medium;line-height:1.25;font-family:sans-serif;-inkscape-font-specification:sans-serif;letter-spacing:0px;word-spacing:0px;fill:#003232;fill-opacity:1;stroke-width:0.7500053"
       id="path1001"
       inkscape:connector-curvature="0" />
    <path
       d="m -72.517494,101.21642 q -0.664738,0 -0.921095,0.15203 -0.256357,0.15202 -0.256357,0.51867 0,0.29213 0.190777,0.46502 0.193758,0.16991 0.524637,0.16991 0.456076,0 0.730319,-0.32193 0.277223,-0.32492 0.277223,-0.86148 v -0.12222 z m 1.093988,-0.22654 v 1.90479 h -0.548484 v -0.50676 q -0.187797,0.30406 -0.468,0.45012 -0.280204,0.14308 -0.685606,0.14308 -0.512714,0 -0.816764,-0.28616 -0.301071,-0.28915 -0.301071,-0.77206 0,-0.56338 0.375593,-0.84955 0.378574,-0.28617 1.126777,-0.28617 h 0.769071 v -0.0537 q 0,-0.37858 -0.250395,-0.58426 -0.247415,-0.208659 -0.697528,-0.208659 -0.286166,0 -0.557428,0.06856 -0.271261,0.0686 -0.521657,0.20568 v -0.506721 q 0.301071,-0.116255 0.584256,-0.172892 0.283185,-0.05962 0.551465,-0.05962 0.724357,0 1.082064,0.375593 0.357707,0.37557 0.357707,1.13868 z"
       style="font-style:normal;font-variant:normal;font-weight:normal;font-stretch:normal;font-size:medium;line-height:1.25;font-family:sans-serif;-inkscape-font-specification:sans-serif;letter-spacing:0px;word-spacing:0px;fill:#003232;fill-opacity:1;stroke-width:0.7500053"
       id="path1003"
       inkscape:connector-curvature="0" />
    <path
       d="m -68.093848,101.18661 q 0,-0.59617 -0.247413,-0.92407 -0.244435,-0.327901 -0.688587,-0.327901 -0.441173,0 -0.688586,0.327901 -0.244433,0.3279 -0.244433,0.92407 0,0.5932 0.244433,0.9211 0.247413,0.3279 0.688586,0.3279 0.444152,0 0.688587,-0.3279 0.247413,-0.3279 0.247413,-0.9211 z m 0.548485,1.29371 q 0,0.85254 -0.378574,1.26688 -0.378574,0.41733 -1.159568,0.41733 -0.289146,0 -0.545502,-0.0447 -0.256357,-0.0417 -0.49781,-0.13116 v -0.53358 q 0.241453,0.13116 0.476943,0.19376 0.235491,0.0626 0.479924,0.0626 0.539541,0 0.807822,-0.28318 0.26828,-0.28021 0.26828,-0.84956 v -0.27126 q -0.16991,0.29511 -0.43521,0.44117 -0.265299,0.14607 -0.634931,0.14607 -0.614064,0 -0.989655,-0.468 -0.375593,-0.468 -0.375593,-1.24006 0,-0.77503 0.375593,-1.243029 0.375591,-0.468 0.989655,-0.468 0.369632,0 0.634931,0.146064 0.2653,0.146064 0.43521,0.441175 v -0.506755 h 0.548485 z"
       style="font-style:normal;font-variant:normal;font-weight:normal;font-stretch:normal;font-size:medium;line-height:1.25;font-family:sans-serif;-inkscape-font-specification:sans-serif;letter-spacing:0px;word-spacing:0px;fill:#003232;fill-opacity:1;stroke-width:0.7500053"
       id="path1005"
       inkscape:connector-curvature="0" />
    <path
       d="m -66.472242,101.57711 v -2.021045 h 0.548485 v 2.000175 q 0,0.47397 0.184816,0.71244 0.184814,0.23549 0.554445,0.23549 0.444154,0 0.70051,-0.28319 0.259338,-0.28318 0.259338,-0.77205 v -1.892865 h 0.548484 v 3.338605 h -0.548484 v -0.51272 q -0.19972,0.30405 -0.465019,0.4531 -0.262319,0.14606 -0.611084,0.14606 -0.575312,0 -0.873402,-0.35771 -0.298089,-0.3577 -0.298089,-1.04629 z m 1.380154,-2.101529 z"
       style="font-style:normal;font-variant:normal;font-weight:normal;font-stretch:normal;font-size:medium;line-height:1.25;font-family:sans-serif;-inkscape-font-specification:sans-serif;letter-spacing:0px;word-spacing:0px;fill:#003232;fill-opacity:1;stroke-width:0.7500053"
       id="path1007"
       inkscape:connector-curvature="0" />
    <path
       d="m -61.023169,101.21642 q -0.664738,0 -0.921095,0.15203 -0.256358,0.15202 -0.256358,0.51867 0,0.29213 0.190778,0.46502 0.193757,0.16991 0.524637,0.16991 0.456076,0 0.730319,-0.32193 0.277222,-0.32492 0.277222,-0.86148 v -0.12222 z m 1.093988,-0.22654 v 1.90479 h -0.548485 v -0.50676 q -0.187796,0.30406 -0.467999,0.45012 -0.280204,0.14308 -0.685606,0.14308 -0.512714,0 -0.816764,-0.28616 -0.301071,-0.28915 -0.301071,-0.77206 0,-0.56338 0.375593,-0.84955 0.378574,-0.28617 1.126777,-0.28617 h 0.76907 v -0.0537 q 0,-0.37858 -0.250394,-0.58426 -0.247415,-0.208659 -0.697529,-0.208659 -0.286165,0 -0.557428,0.06856 -0.27126,0.0686 -0.521656,0.20568 v -0.506721 q 0.301071,-0.116255 0.584256,-0.172892 0.283185,-0.05962 0.551465,-0.05962 0.724356,0 1.082064,0.375593 0.357707,0.37557 0.357707,1.13868 z"
       style="font-style:normal;font-variant:normal;font-weight:normal;font-stretch:normal;font-size:medium;line-height:1.25;font-family:sans-serif;-inkscape-font-specification:sans-serif;letter-spacing:0px;word-spacing:0px;fill:#003232;fill-opacity:1;stroke-width:0.7500053"
       id="path1009"
       inkscape:connector-curvature="0" />
    <path
       d="m -129.00542,106.7008 h 0.50675 l -1.55007,5.01684 h -0.50675 z"
       style="font-style:normal;font-variant:normal;font-weight:normal;font-stretch:normal;font-size:medium;line-height:1.25;font-family:sans-serif;-inkscape-font-specification:sans-serif;letter-spacing:0px;word-spacing:0px;fill:#003232;fill-opacity:1;stroke-width:0.7500053"
       id="path1011"
       inkscape:connector-curvature="0" />
    <path
       d="m -126.94264,106.7008 h 0.50675 l -1.55007,5.01684 h -0.50675 z"
       style="font-style:normal;font-variant:normal;font-weight:normal;font-stretch:normal;font-size:medium;line-height:1.25;font-family:sans-serif;-inkscape-font-specification:sans-serif;letter-spacing:0px;word-spacing:0px;fill:#003232;fill-opacity:1;stroke-width:0.7500053"
       id="path1013"
       inkscape:connector-curvature="0" />
    <path
       d="m -123.88723,106.7008 h 0.60214 v 4.14046 q 0,0.80484 -0.30703,1.16851 -0.30405,0.36367 -0.98071,0.36367 h -0.22953 v -0.50675 h 0.18779 q 0.39944,0 0.56339,-0.22357 0.16395,-0.22357 0.16395,-0.80186 z"
       style="font-style:normal;font-variant:normal;font-weight:normal;font-stretch:normal;font-size:medium;line-height:1.25;font-family:sans-serif;-inkscape-font-specification:sans-serif;letter-spacing:0px;word-spacing:0px;fill:#003232;fill-opacity:1;stroke-width:0.7500053"
       id="path1015"
       inkscape:connector-curvature="0" />
    <path
       d="m -122.15533,106.7008 h 0.60512 v 2.70367 q 0,0.71541 0.25934,1.03139 0.25934,0.31299 0.84061,0.31299 0.5783,0 0.83763,-0.31299 0.25934,-0.31598 0.25934,-1.03139 v -2.70367 h 0.60512 v 2.77819 q 0,0.87042 -0.43223,1.31457 -0.42925,0.44416 -1.26986,0.44416 -0.84359,0 -1.27582,-0.44416 -0.42925,-0.44415 -0.42925,-1.31457 z"
       style="font-style:normal;font-variant:normal;font-weight:normal;font-stretch:normal;font-size:medium;line-height:1.25;font-family:sans-serif;-inkscape-font-specification:sans-serif;letter-spacing:0px;word-spacing:0px;fill:#003232;fill-opacity:1;stroke-width:0.7500053"
       id="path1017"
       inkscape:connector-curvature="0" />
    <path
       d="M -114.58088,110.51634 V 109.321 h -0.98369 v -0.49483 h 1.57987 v 1.91076 q -0.34877,0.24741 -0.76907,0.37559 -0.42031,0.1252 -0.89725,0.1252 -1.04331,0 -1.63353,-0.60811 -0.58724,-0.61108 -0.58724,-1.6991 0,-1.09101 0.58724,-1.69911 0.59022,-0.61109 1.63353,-0.61109 0.43521,0 0.82571,0.10731 0.39348,0.10732 0.72435,0.31598 v 0.64089 q -0.33386,-0.28318 -0.70945,-0.42626 -0.37559,-0.14309 -0.78993,-0.14309 -0.81677,0 -1.22813,0.45608 -0.40839,0.45608 -0.40839,1.35929 0,0.90023 0.40839,1.3563 0.41136,0.45608 1.22813,0.45608 0.31895,0 0.56935,-0.0537 0.25039,-0.0566 0.45011,-0.17289 z"
       style="font-style:normal;font-variant:normal;font-weight:normal;font-stretch:normal;font-size:medium;line-height:1.25;font-family:sans-serif;-inkscape-font-specification:sans-serif;letter-spacing:0px;word-spacing:0px;fill:#003232;fill-opacity:1;stroke-width:0.7500053"
       id="path1019"
       inkscape:connector-curvature="0" />
    <path
       d="m -113.18284,109.23456 h 1.6067 v 0.48886 h -1.6067 z"
       style="font-style:normal;font-variant:normal;font-weight:normal;font-stretch:normal;font-size:medium;line-height:1.25;font-family:sans-serif;-inkscape-font-specification:sans-serif;letter-spacing:0px;word-spacing:0px;fill:#003232;fill-opacity:1;stroke-width:0.7500053"
       id="path1021"
       inkscape:connector-curvature="0" />
    <path
       d="m -110.67591,106.7008 h 0.8108 l 1.97336,3.72313 v -3.72313 h 0.58425 v 4.45047 h -0.8108 l -1.97335,-3.72313 v 3.72313 h -0.58426 z"
       style="font-style:normal;font-variant:normal;font-weight:normal;font-stretch:normal;font-size:medium;line-height:1.25;font-family:sans-serif;-inkscape-font-specification:sans-serif;letter-spacing:0px;word-spacing:0px;fill:#003232;fill-opacity:1;stroke-width:0.7500053"
       id="path1023"
       inkscape:connector-curvature="0" />
    <path
       d="m -106.13303,107.81267 h 0.54849 v 3.3386 h -0.54849 z m 0,-1.29967 h 0.54849 v 0.69455 h -0.54849 z"
       style="font-style:normal;font-variant:normal;font-weight:normal;font-stretch:normal;font-size:medium;line-height:1.25;font-family:sans-serif;-inkscape-font-specification:sans-serif;letter-spacing:0px;word-spacing:0px;fill:#003232;fill-opacity:1;stroke-width:0.7500053"
       id="path1025"
       inkscape:connector-curvature="0" />
    <path
       d="m -102.03728,107.94085 v 0.51271 q -0.23251,-0.12818 -0.468,-0.19077 -0.23251,-0.0656 -0.47098,-0.0656 -0.53358,0 -0.82869,0.33982 -0.29511,0.33684 -0.29511,0.94792 0,0.61109 0.29511,0.95091 0.29511,0.33684 0.82869,0.33684 0.23847,0 0.47098,-0.0626 0.23549,-0.0656 0.468,-0.19376 v 0.50675 q -0.22953,0.10731 -0.47694,0.16097 -0.24444,0.0537 -0.52166,0.0537 -0.75417,0 -1.19832,-0.47396 -0.44415,-0.47397 -0.44415,-1.27881 0,-0.81676 0.44713,-1.28476 0.45012,-0.468 1.23111,-0.468 0.25338,0 0.49483,0.0536 0.24145,0.0507 0.468,0.15501 z"
       style="font-style:normal;font-variant:normal;font-weight:normal;font-stretch:normal;font-size:medium;line-height:1.25;font-family:sans-serif;-inkscape-font-specification:sans-serif;letter-spacing:0px;word-spacing:0px;fill:#003232;fill-opacity:1;stroke-width:0.7500053"
       id="path1027"
       inkscape:connector-curvature="0" />
    <path
       d="m -99.560158,109.47303 q -0.664742,0 -0.921092,0.15202 -0.25636,0.15203 -0.25636,0.51868 0,0.29213 0.19078,0.46502 0.19375,0.16991 0.52463,0.16991 0.45608,0 0.730322,-0.32194 0.277224,-0.32491 0.277224,-0.86147 v -0.12222 z m 1.093988,-0.22655 v 1.90479 h -0.548484 v -0.50675 q -0.187797,0.30405 -0.468001,0.45011 -0.280204,0.14309 -0.685605,0.14309 -0.51271,0 -0.81677,-0.28617 -0.30107,-0.28915 -0.30107,-0.77205 0,-0.56339 0.3756,-0.84955 0.37857,-0.28617 1.126775,-0.28617 h 0.769071 v -0.0537 q 0,-0.37857 -0.250395,-0.58425 -0.247415,-0.20866 -0.69753,-0.20866 -0.286161,0 -0.557431,0.0686 -0.27126,0.0686 -0.52165,0.20568 v -0.50675 q 0.30107,-0.11626 0.58425,-0.1729 0.28319,-0.0596 0.551468,-0.0596 0.724358,0 1.082065,0.37559 0.357707,0.37559 0.357707,1.1387 z"
       style="font-style:normal;font-variant:normal;font-weight:normal;font-stretch:normal;font-size:medium;line-height:1.25;font-family:sans-serif;-inkscape-font-specification:sans-serif;letter-spacing:0px;word-spacing:0px;fill:#003232;fill-opacity:1;stroke-width:0.7500053"
       id="path1029"
       inkscape:connector-curvature="0" />
    <path
       d="m -95.398831,108.32538 q -0.09241,-0.0536 -0.202701,-0.0775 -0.107312,-0.0268 -0.238471,-0.0268 -0.465019,0 -0.715414,0.30405 -0.247415,0.30107 -0.247415,0.86744 v 1.75873 h -0.551465 v -3.3386 h 0.551465 v 0.51868 q 0.172892,-0.30405 0.450115,-0.45012 0.277223,-0.14904 0.673682,-0.14904 0.05664,0 0.125198,0.009 0.06856,0.006 0.152025,0.0209 z"
       style="font-style:normal;font-variant:normal;font-weight:normal;font-stretch:normal;font-size:medium;line-height:1.25;font-family:sans-serif;-inkscape-font-specification:sans-serif;letter-spacing:0px;word-spacing:0px;fill:#003232;fill-opacity:1;stroke-width:0.7500053"
       id="path1031"
       inkscape:connector-curvature="0" />
    <path
       d="m -93.300282,109.47303 q -0.664739,0 -0.921096,0.15202 -0.256357,0.15203 -0.256357,0.51868 0,0.29213 0.190777,0.46502 0.193758,0.16991 0.524638,0.16991 0.456076,0 0.730318,-0.32194 0.277224,-0.32491 0.277224,-0.86147 v -0.12222 z m 1.093988,-0.22655 v 1.90479 h -0.548484 v -0.50675 q -0.187797,0.30405 -0.468001,0.45011 -0.280204,0.14309 -0.685605,0.14309 -0.512714,0 -0.816765,-0.28617 -0.30107,-0.28915 -0.30107,-0.77205 0,-0.56339 0.375592,-0.84955 0.378574,-0.28617 1.126778,-0.28617 h 0.769071 v -0.0537 q 0,-0.37857 -0.250395,-0.58425 -0.247415,-0.20866 -0.697529,-0.20866 -0.286166,0 -0.557428,0.0686 -0.271261,0.0686 -0.521656,0.20568 v -0.50675 q 0.30107,-0.11626 0.584255,-0.1729 0.283185,-0.0596 0.551466,-0.0596 0.724357,0 1.082064,0.37559 0.357707,0.37559 0.357707,1.1387 z"
       style="font-style:normal;font-variant:normal;font-weight:normal;font-stretch:normal;font-size:medium;line-height:1.25;font-family:sans-serif;-inkscape-font-specification:sans-serif;letter-spacing:0px;word-spacing:0px;fill:#003232;fill-opacity:1;stroke-width:0.7500053"
       id="path1033"
       inkscape:connector-curvature="0" />
    <path
       d="m -88.876636,109.44322 q 0,-0.59618 -0.247414,-0.92408 -0.244433,-0.3279 -0.688587,-0.3279 -0.441172,0 -0.688586,0.3279 -0.244433,0.3279 -0.244433,0.92408 0,0.5932 0.244433,0.9211 0.247414,0.32789 0.688586,0.32789 0.444154,0 0.688587,-0.32789 0.247414,-0.3279 0.247414,-0.9211 z m 0.548484,1.29371 q 0,0.85253 -0.378573,1.26688 -0.378574,0.41732 -1.159568,0.41732 -0.289146,0 -0.545503,-0.0447 -0.256357,-0.0417 -0.497809,-0.13116 v -0.53358 q 0.241452,0.13116 0.476942,0.19376 0.235491,0.0626 0.479924,0.0626 0.539542,0 0.807822,-0.28319 0.268281,-0.2802 0.268281,-0.84955 v -0.27127 q -0.169911,0.29511 -0.435211,0.44118 -0.265299,0.14606 -0.63493,0.14606 -0.614064,0 -0.989656,-0.468 -0.375593,-0.468 -0.375593,-1.24005 0,-0.77503 0.375593,-1.24303 0.375592,-0.468 0.989656,-0.468 0.369631,0 0.63493,0.14606 0.2653,0.14606 0.435211,0.44117 v -0.50675 h 0.548484 z"
       style="font-style:normal;font-variant:normal;font-weight:normal;font-stretch:normal;font-size:medium;line-height:1.25;font-family:sans-serif;-inkscape-font-specification:sans-serif;letter-spacing:0px;word-spacing:0px;fill:#003232;fill-opacity:1;stroke-width:0.7500053"
       id="path1035"
       inkscape:connector-curvature="0" />
    <path
       d="m -87.25503,109.83372 v -2.02105 h 0.548484 v 2.00018 q 0,0.47396 0.184816,0.71243 0.184815,0.23549 0.554446,0.23549 0.444153,0 0.70051,-0.28318 0.259337,-0.28319 0.259337,-0.77205 v -1.89287 h 0.548485 v 3.3386 h -0.548485 v -0.51271 q -0.199719,0.30405 -0.465019,0.45309 -0.262319,0.14607 -0.611083,0.14607 -0.575312,0 -0.873402,-0.35771 -0.298089,-0.35771 -0.298089,-1.04629 z m 1.380154,-2.10153 z"
       style="font-style:normal;font-variant:normal;font-weight:normal;font-stretch:normal;font-size:medium;line-height:1.25;font-family:sans-serif;-inkscape-font-specification:sans-serif;letter-spacing:0px;word-spacing:0px;fill:#003232;fill-opacity:1;stroke-width:0.7500053"
       id="path1037"
       inkscape:connector-curvature="0" />
    <path
       d="m -81.805957,109.47303 q -0.664739,0 -0.921097,0.15202 -0.256355,0.15203 -0.256355,0.51868 0,0.29213 0.190777,0.46502 0.193758,0.16991 0.524637,0.16991 0.456077,0 0.730318,-0.32194 0.277224,-0.32491 0.277224,-0.86147 v -0.12222 z m 1.093988,-0.22655 v 1.90479 h -0.548484 v -0.50675 q -0.187797,0.30405 -0.468001,0.45011 -0.280203,0.14309 -0.685605,0.14309 -0.512714,0 -0.816765,-0.28617 -0.30107,-0.28915 -0.30107,-0.77205 0,-0.56339 0.375592,-0.84955 0.378573,-0.28617 1.126779,-0.28617 h 0.76907 v -0.0537 q 0,-0.37857 -0.250396,-0.58425 -0.247414,-0.20866 -0.697529,-0.20866 -0.286166,0 -0.557426,0.0686 -0.271263,0.0686 -0.521657,0.20568 v -0.50675 q 0.301071,-0.11626 0.584254,-0.1729 0.283186,-0.0596 0.551467,-0.0596 0.724357,0 1.082064,0.37559 0.357707,0.37559 0.357707,1.1387 z"
       style="font-style:normal;font-variant:normal;font-weight:normal;font-stretch:normal;font-size:medium;line-height:1.25;font-family:sans-serif;-inkscape-font-specification:sans-serif;letter-spacing:0px;word-spacing:0px;fill:#003232;fill-opacity:1;stroke-width:0.7500053"
       id="path1039"
       inkscape:connector-curvature="0" />
    <path
       d="m -127.80114,115.10347 v 0.58723 q -0.3428,-0.16394 -0.64686,-0.24443 -0.30405,-0.0805 -0.58723,-0.0805 -0.49185,0 -0.76013,0.19077 -0.2653,0.19078 -0.2653,0.54253 0,0.2951 0.17587,0.44713 0.17886,0.14905 0.67369,0.24145 l 0.36366,0.0745 q 0.67369,0.12817 0.99264,0.45309 0.32194,0.32194 0.32194,0.86446 0,0.64685 -0.43521,0.98071 -0.43223,0.33386 -1.26986,0.33386 -0.31598,0 -0.67368,-0.0715 -0.35473,-0.0715 -0.73628,-0.21164 v -0.62003 q 0.36664,0.20568 0.71839,0.31002 0.35175,0.10433 0.69157,0.10433 0.51569,0 0.7959,-0.2027 0.2802,-0.2027 0.2802,-0.5783 0,-0.3279 -0.2027,-0.51271 -0.19972,-0.18482 -0.65878,-0.27722 l -0.36665,-0.0715 q -0.67368,-0.13415 -0.97475,-0.42031 -0.30107,-0.28617 -0.30107,-0.7959 0,-0.59022 0.41434,-0.93004 0.41733,-0.33982 1.14765,-0.33982 0.31299,0 0.63791,0.0566 0.32492,0.0566 0.66474,0.16991 z"
       style="font-style:normal;font-variant:normal;font-weight:normal;font-stretch:normal;font-size:medium;line-height:1.25;font-family:sans-serif;-inkscape-font-specification:sans-serif;letter-spacing:0px;word-spacing:0px;stroke-width:0.7500053"
       id="path1041"
       inkscape:connector-curvature="0" />
    <path
       d="m -125.22863,119.71789 q -0.23251,0.59618 -0.4531,0.77801 -0.22058,0.18184 -0.59021,0.18184 h -0.43819 v -0.45906 h 0.32193 q 0.22655,0 0.35175,-0.10731 0.1252,-0.10731 0.27722,-0.50675 l 0.0984,-0.2504 -1.35035,-3.28494 h 0.58128 l 1.04331,2.61126 1.04331,-2.61126 h 0.58128 z"
       style="font-style:normal;font-variant:normal;font-weight:normal;font-stretch:normal;font-size:medium;line-height:1.25;font-family:sans-serif;-inkscape-font-specification:sans-serif;letter-spacing:0px;word-spacing:0px;stroke-width:0.7500053"
       id="path1043"
       inkscape:connector-curvature="0" />
    <path
       d="m -120.87653,116.16765 v 0.51867 q -0.23251,-0.11923 -0.4829,-0.17885 -0.2504,-0.0596 -0.51868,-0.0596 -0.40838,0 -0.61406,0.1252 -0.2027,0.1252 -0.2027,0.37559 0,0.19078 0.14606,0.30107 0.14607,0.10731 0.58724,0.20568 l 0.18779,0.0417 q 0.58426,0.1252 0.82869,0.35473 0.24742,0.22655 0.24742,0.63493 0,0.46502 -0.36963,0.73628 -0.36665,0.27126 -1.01053,0.27126 -0.26828,0 -0.5604,-0.0537 -0.28915,-0.0507 -0.61109,-0.15501 v -0.56637 q 0.30405,0.15799 0.59916,0.23847 0.29511,0.0775 0.58426,0.0775 0.38751,0 0.59618,-0.13116 0.20866,-0.13414 0.20866,-0.3756 0,-0.22356 -0.15203,-0.3428 -0.14904,-0.11923 -0.65877,-0.22953 l -0.19078,-0.0447 q -0.50973,-0.10731 -0.73628,-0.3279 -0.22655,-0.22357 -0.22655,-0.61108 0,-0.47098 0.33386,-0.72734 0.33386,-0.25636 0.94792,-0.25636 0.30406,0 0.57234,0.0447 0.26828,0.0447 0.49482,0.13414 z"
       style="font-style:normal;font-variant:normal;font-weight:normal;font-stretch:normal;font-size:medium;line-height:1.25;font-family:sans-serif;-inkscape-font-specification:sans-serif;letter-spacing:0px;word-spacing:0px;stroke-width:0.7500053"
       id="path1045"
       inkscape:connector-curvature="0" />
    <path
       d="m -119.27877,115.12135 v 0.94793 h 1.12976 v 0.42626 h -1.12976 v 1.81239 q 0,0.40838 0.1103,0.52463 0.11327,0.11626 0.45607,0.11626 h 0.56339 v 0.45906 h -0.56339 q -0.63493,0 -0.87638,-0.23549 -0.24145,-0.23847 -0.24145,-0.86446 v -1.81239 h -0.40242 v -0.42626 h 0.40242 v -0.94793 z"
       style="font-style:normal;font-variant:normal;font-weight:normal;font-stretch:normal;font-size:medium;line-height:1.25;font-family:sans-serif;-inkscape-font-specification:sans-serif;letter-spacing:0px;word-spacing:0px;stroke-width:0.7500053"
       id="path1047"
       inkscape:connector-curvature="0" />
    <path
       d="m -114.56896,117.60146 v 0.26828 h -2.52183 q 0.0358,0.56637 0.33982,0.86446 0.30703,0.2951 0.85254,0.2951 0.31597,0 0.61108,-0.0775 0.29809,-0.0775 0.59022,-0.23251 v 0.51868 q -0.29511,0.12519 -0.60513,0.19077 -0.31001,0.0656 -0.62896,0.0656 -0.79888,0 -1.26688,-0.46502 -0.46502,-0.46502 -0.46502,-1.25793 0,-0.81975 0.44117,-1.29967 0.44415,-0.48291 1.19534,-0.48291 0.67368,0 1.06418,0.43521 0.39347,0.43223 0.39347,1.17746 z m -0.54848,-0.16097 q -0.006,-0.45012 -0.25338,-0.7184 -0.24443,-0.26828 -0.64983,-0.26828 -0.45906,0 -0.73628,0.25934 -0.27424,0.25934 -0.31598,0.73032 z"
       style="font-style:normal;font-variant:normal;font-weight:normal;font-stretch:normal;font-size:medium;line-height:1.25;font-family:sans-serif;-inkscape-font-specification:sans-serif;letter-spacing:0px;word-spacing:0px;stroke-width:0.7500053"
       id="path1049"
       inkscape:connector-curvature="0" />
    <path
       d="m -111.06939,116.71017 q 0.20568,-0.36963 0.49185,-0.5455 0.28617,-0.17588 0.67368,-0.17588 0.52166,0 0.80484,0.36665 0.28319,0.36367 0.28319,1.03735 v 2.01509 h -0.55147 v -1.9972 q 0,-0.47992 -0.16991,-0.71243 -0.16991,-0.23251 -0.51867,-0.23251 -0.42627,0 -0.67369,0.28318 -0.24741,0.28319 -0.24741,0.77205 v 1.88691 h -0.55146 v -1.9972 q 0,-0.48291 -0.16992,-0.71243 -0.16991,-0.23251 -0.52463,-0.23251 -0.42031,0 -0.66772,0.28616 -0.24742,0.28319 -0.24742,0.76907 v 1.88691 h -0.55146 v -3.3386 h 0.55146 v 0.51867 q 0.1878,-0.30703 0.45012,-0.45309 0.26232,-0.14607 0.623,-0.14607 0.36367,0 0.61705,0.18482 0.25636,0.18481 0.37857,0.53656 z"
       style="font-style:normal;font-variant:normal;font-weight:normal;font-stretch:normal;font-size:medium;line-height:1.25;font-family:sans-serif;-inkscape-font-specification:sans-serif;letter-spacing:0px;word-spacing:0px;stroke-width:0.7500053"
       id="path1051"
       inkscape:connector-curvature="0" />
    <path
       d="m -107.64136,118.65073 h 0.62897 v 0.75715 h -0.62897 z"
       style="font-style:normal;font-variant:normal;font-weight:normal;font-stretch:normal;font-size:medium;line-height:1.25;font-family:sans-serif;-inkscape-font-specification:sans-serif;letter-spacing:0px;word-spacing:0px;stroke-width:0.7500053"
       id="path1053"
       inkscape:connector-curvature="0" />
    <path
       d="m -104.80057,119.49432 q -0.58723,0 -0.93004,-0.36068 -0.33982,-0.36367 -0.33982,-0.98966 0,-0.36367 0.11626,-0.73926 0.11923,-0.37858 0.30703,-0.63493 0.29511,-0.39944 0.65878,-0.59022 0.36366,-0.19078 0.82272,-0.19078 0.56935,0 0.91812,0.35473 0.35174,0.35473 0.35174,0.92706 0,0.39646 -0.11625,0.78993 -0.11626,0.39348 -0.30405,0.65282 -0.29213,0.39944 -0.6558,0.59022 -0.36367,0.19077 -0.82869,0.19077 z m -0.70051,-1.36823 q 0,0.4531 0.1878,0.67965 0.19078,0.22356 0.57531,0.22356 0.55147,0 0.91215,-0.47992 0.36367,-0.4829 0.36367,-1.22217 0,-0.43223 -0.19376,-0.65281 -0.19375,-0.22059 -0.56935,-0.22059 -0.31001,0 -0.55146,0.14607 -0.24145,0.14308 -0.43223,0.43819 -0.1401,0.22058 -0.21761,0.50377 -0.0745,0.28318 -0.0745,0.58425 z"
       style="font-style:italic;font-variant:normal;font-weight:normal;font-stretch:normal;font-size:medium;line-height:1.25;font-family:sans-serif;-inkscape-font-specification:'sans-serif Italic';letter-spacing:0px;word-spacing:0px;fill:#0000ff;stroke-width:0.7500053"
       id="path1055"
       inkscape:connector-curvature="0" />
    <path
       d="m -102.21017,118.08436 0.39049,-2.01508 h 0.55147 l -0.3905,1.99421 q -0.0298,0.14607 -0.0447,0.2504 -0.0119,0.10433 -0.0119,0.17289 0,0.25338 0.155,0.39348 0.15501,0.13712 0.43819,0.13712 0.44118,0 0.76311,-0.29809 0.32194,-0.29809 0.420308,-0.80186 l 0.366651,-1.84815 h 0.548484 l -0.646854,3.3386 h -0.548489 l 0.1103,-0.52464 q -0.23251,0.29213 -0.55445,0.4531 -0.31895,0.15798 -0.67964,0.15798 -0.43819,0 -0.68263,-0.23847 -0.24443,-0.24145 -0.24443,-0.6707 0,-0.0894 0.0149,-0.22357 0.0149,-0.13414 0.0447,-0.27722 z"
       style="font-style:italic;font-variant:normal;font-weight:normal;font-stretch:normal;font-size:medium;line-height:1.25;font-family:sans-serif;-inkscape-font-specification:'sans-serif Italic';letter-spacing:0px;word-spacing:0px;fill:#0000ff;stroke-width:0.7500053"
       id="path1057"
       inkscape:connector-curvature="0" />
    <path
       d="m -96.161939,116.06928 -0.08346,0.42626 h -1.093988 l -0.354727,1.81239 q -0.01788,0.10135 -0.02683,0.16991 -0.0089,0.0686 -0.0089,0.10731 0,0.19078 0.113274,0.27722 0.116254,0.0864 0.36963,0.0864 h 0.554446 l -0.09241,0.45906 h -0.524637 q -0.488867,0 -0.730319,-0.19078 -0.238472,-0.19078 -0.238472,-0.57829 0,-0.0686 0.0089,-0.14905 0.0089,-0.0835 0.02683,-0.18183 l 0.354726,-1.81239 h -0.465019 l 0.08645,-0.42626 h 0.456076 l 0.184816,-0.94793 h 0.548484 l -0.181834,0.94793 z"
       style="font-style:italic;font-variant:normal;font-weight:normal;font-stretch:normal;font-size:medium;line-height:1.25;font-family:sans-serif;-inkscape-font-specification:'sans-serif Italic';letter-spacing:0px;word-spacing:0px;fill:#0000ff;stroke-width:0.7500053"
       id="path1059"
       inkscape:connector-curvature="0" />
    <path
       d="m -95.693939,118.65073 h 0.628968 v 0.75715 h -0.628968 z"
       style="font-style:normal;font-variant:normal;font-weight:normal;font-stretch:normal;font-size:medium;line-height:1.25;font-family:sans-serif;-inkscape-font-specification:sans-serif;letter-spacing:0px;word-spacing:0px;stroke-width:0.7500053"
       id="path1061"
       inkscape:connector-curvature="0" />
    <path
       d="m -93.297301,118.90709 v 1.77065 h -0.551465 v -4.60846 h 0.551465 v 0.50675 q 0.172892,-0.29809 0.435211,-0.44117 0.265299,-0.14607 0.631949,-0.14607 0.608102,0 0.986675,0.48291 0.381555,0.4829 0.381555,1.26986 0,0.78695 -0.381555,1.26986 -0.378573,0.4829 -0.986675,0.4829 -0.36665,0 -0.631949,-0.14308 -0.262319,-0.14606 -0.435211,-0.44415 z m 1.866039,-1.16553 q 0,-0.60512 -0.250395,-0.94793 -0.247414,-0.34578 -0.682624,-0.34578 -0.435211,0 -0.685606,0.34578 -0.247414,0.34281 -0.247414,0.94793 0,0.60512 0.247414,0.9509 0.250395,0.34281 0.685606,0.34281 0.43521,0 0.682624,-0.34281 0.250395,-0.34578 0.250395,-0.9509 z"
       style="font-style:normal;font-variant:normal;font-weight:normal;font-stretch:normal;font-size:medium;line-height:1.25;font-family:sans-serif;-inkscape-font-specification:sans-serif;letter-spacing:0px;word-spacing:0px;stroke-width:0.7500053"
       id="path1063"
       inkscape:connector-curvature="0" />
    <path
       d="m -88.018139,116.58199 q -0.09241,-0.0537 -0.202701,-0.0775 -0.107312,-0.0268 -0.238471,-0.0268 -0.465019,0 -0.715414,0.30405 -0.247415,0.30107 -0.247415,0.86744 v 1.75873 h -0.551465 v -3.3386 h 0.551465 v 0.51867 q 0.172892,-0.30405 0.450115,-0.45011 0.277223,-0.14905 0.673682,-0.14905 0.05664,0 0.125198,0.009 0.06856,0.006 0.152025,0.0209 z"
       style="font-style:normal;font-variant:normal;font-weight:normal;font-stretch:normal;font-size:medium;line-height:1.25;font-family:sans-serif;-inkscape-font-specification:sans-serif;letter-spacing:0px;word-spacing:0px;stroke-width:0.7500053"
       id="path1065"
       inkscape:connector-curvature="0" />
    <path
       d="m -87.436865,116.06928 h 0.548485 v 3.3386 h -0.548485 z m 0,-1.29967 h 0.548485 v 0.69455 h -0.548485 z"
       style="font-style:normal;font-variant:normal;font-weight:normal;font-stretch:normal;font-size:medium;line-height:1.25;font-family:sans-serif;-inkscape-font-specification:sans-serif;letter-spacing:0px;word-spacing:0px;stroke-width:0.7500053"
       id="path1067"
       inkscape:connector-curvature="0" />
    <path
       d="m -82.968506,117.39279 v 2.01509 h -0.548484 v -1.9972 q 0,-0.47396 -0.184814,-0.70945 -0.184816,-0.23549 -0.554447,-0.23549 -0.444154,0 -0.70051,0.28318 -0.256357,0.28319 -0.256357,0.77205 v 1.88691 h -0.551465 v -3.3386 h 0.551465 v 0.51867 q 0.196739,-0.30107 0.462038,-0.45011 0.268281,-0.14905 0.617045,-0.14905 0.575313,0 0.870421,0.35771 0.295108,0.35473 0.295108,1.04629 z"
       style="font-style:normal;font-variant:normal;font-weight:normal;font-stretch:normal;font-size:medium;line-height:1.25;font-family:sans-serif;-inkscape-font-specification:sans-serif;letter-spacing:0px;word-spacing:0px;stroke-width:0.7500053"
       id="path1069"
       inkscape:connector-curvature="0" />
    <path
       d="m -81.326033,115.12135 v 0.94793 h 1.129759 v 0.42626 h -1.129759 v 1.81239 q 0,0.40838 0.110293,0.52463 0.113275,0.11626 0.456077,0.11626 h 0.563389 v 0.45906 h -0.563389 q -0.634931,0 -0.876383,-0.23549 -0.241453,-0.23847 -0.241453,-0.86446 v -1.81239 h -0.40242 v -0.42626 h 0.40242 v -0.94793 z"
       style="font-style:normal;font-variant:normal;font-weight:normal;font-stretch:normal;font-size:medium;line-height:1.25;font-family:sans-serif;-inkscape-font-specification:sans-serif;letter-spacing:0px;word-spacing:0px;stroke-width:0.7500053"
       id="path1071"
       inkscape:connector-curvature="0" />
    <path
       d="m -79.471917,114.76961 h 0.548484 v 4.63827 h -0.548484 z"
       style="font-style:normal;font-variant:normal;font-weight:normal;font-stretch:normal;font-size:medium;line-height:1.25;font-family:sans-serif;-inkscape-font-specification:sans-serif;letter-spacing:0px;word-spacing:0px;stroke-width:0.7500053"
       id="path1073"
       inkscape:connector-curvature="0" />
    <path
       d="m -75.003559,117.39279 v 2.01509 h -0.548484 v -1.9972 q 0,-0.47396 -0.184816,-0.70945 -0.184814,-0.23549 -0.554446,-0.23549 -0.444152,0 -0.700509,0.28318 -0.256357,0.28319 -0.256357,0.77205 v 1.88691 h -0.551465 v -3.3386 h 0.551465 v 0.51867 q 0.196738,-0.30107 0.462038,-0.45011 0.268281,-0.14905 0.617045,-0.14905 0.575312,0 0.870421,0.35771 0.295108,0.35473 0.295108,1.04629 z"
       style="font-style:normal;font-variant:normal;font-weight:normal;font-stretch:normal;font-size:medium;line-height:1.25;font-family:sans-serif;-inkscape-font-specification:sans-serif;letter-spacing:0px;word-spacing:0px;stroke-width:0.7500053"
       id="path1075"
       inkscape:connector-curvature="0" />
    <path
       d="m -72.586053,114.77557 q -0.39944,0.6856 -0.593198,1.35631 -0.193758,0.6707 -0.193758,1.35928 0,0.68859 0.193758,1.36525 0.196738,0.67368 0.593198,1.35631 h -0.476943 q -0.447135,-0.70051 -0.670703,-1.37717 -0.220585,-0.67667 -0.220585,-1.34439 0,-0.66474 0.220585,-1.33842 0.220588,-0.67368 0.670703,-1.37717 z"
       style="font-style:normal;font-variant:normal;font-weight:normal;font-stretch:normal;font-size:medium;line-height:1.25;font-family:sans-serif;-inkscape-font-specification:sans-serif;letter-spacing:0px;word-spacing:0px;stroke-width:0.7500053"
       id="path1077"
       inkscape:connector-curvature="0" />
    <path
       d="m -71.000219,114.9574 v 1.6544 h -0.506751 v -1.6544 z m 1.126777,0 v 1.6544 h -0.506751 v -1.6544 z"
       style="font-style:normal;font-variant:normal;font-weight:normal;font-stretch:normal;font-size:medium;line-height:1.25;font-family:sans-serif;-inkscape-font-specification:sans-serif;letter-spacing:0px;word-spacing:0px;stroke-width:0.7500053"
       id="path1079"
       inkscape:connector-curvature="0" />
    <path
       d="m -68.394918,116.06928 h 0.548484 l -0.658777,3.39822 -0.003,0.0149 q -0.110293,0.56935 -0.253376,0.78099 -0.134141,0.19972 -0.393479,0.30703 -0.256356,0.10731 -0.608101,0.10731 h -0.205683 l 0.08943,-0.46502 h 0.140097 q 0.321936,0 0.459057,-0.13413 0.134141,-0.13415 0.226549,-0.61109 z m 0.256357,-1.29967 h 0.548484 l -0.134141,0.69455 h -0.548484 z"
       style="font-style:italic;font-variant:normal;font-weight:normal;font-stretch:normal;font-size:medium;line-height:1.25;font-family:sans-serif;-inkscape-font-specification:'sans-serif Italic';letter-spacing:0px;word-spacing:0px;fill:#0000ff;stroke-width:0.7500053"
       id="path1081"
       inkscape:connector-curvature="0" />
    <path
       d="m -67.178714,118.08436 0.390498,-2.01508 h 0.551465 l -0.390498,1.99421 q -0.02981,0.14607 -0.04471,0.2504 -0.01192,0.10433 -0.01192,0.17289 0,0.25338 0.155008,0.39348 0.155005,0.13712 0.43819,0.13712 0.441172,0 0.763109,-0.29809 0.321936,-0.29809 0.420307,-0.80186 l 0.366649,-1.84815 h 0.548484 l -0.646853,3.3386 h -0.548485 l 0.110292,-0.52464 q -0.232508,0.29213 -0.554445,0.4531 -0.318956,0.15798 -0.679643,0.15798 -0.438193,0 -0.682626,-0.23847 -0.244432,-0.24145 -0.244432,-0.6707 0,-0.0894 0.01491,-0.22357 0.01491,-0.13414 0.04471,-0.27722 z"
       style="font-style:italic;font-variant:normal;font-weight:normal;font-stretch:normal;font-size:medium;line-height:1.25;font-family:sans-serif;-inkscape-font-specification:'sans-serif Italic';letter-spacing:0px;word-spacing:0px;fill:#0000ff;stroke-width:0.7500053"
       id="path1083"
       inkscape:connector-curvature="0" />
    <path
       d="m -60.072264,116.06928 -0.569351,2.92425 q -0.163948,0.84956 -0.628968,1.26688 -0.462038,0.41733 -1.246013,0.41733 -0.289146,0 -0.536562,-0.0447 -0.247413,-0.0417 -0.462037,-0.13116 l 0.10135,-0.53358 q 0.202701,0.13115 0.429248,0.19375 0.226549,0.0626 0.482905,0.0626 0.521656,0 0.855516,-0.28616 0.336841,-0.28319 0.444154,-0.81677 l 0.04769,-0.25039 q -0.229529,0.26232 -0.533579,0.39944 -0.304052,0.13712 -0.655798,0.13712 -0.506751,0 -0.798878,-0.33386 -0.289148,-0.33684 -0.289148,-0.92408 0,-0.46204 0.175874,-0.90321 0.175872,-0.44415 0.494828,-0.78696 0.211642,-0.22654 0.491847,-0.34876 0.283185,-0.12222 0.590217,-0.12222 0.336841,0 0.587236,0.15799 0.250395,0.15501 0.372611,0.44117 l 0.09539,-0.51867 z m -0.825707,1.22514 q 0,-0.4054 -0.190777,-0.62598 -0.190777,-0.22059 -0.542523,-0.22059 -0.217605,0 -0.414343,0.0864 -0.196741,0.0864 -0.336843,0.24145 -0.226547,0.25636 -0.354725,0.60512 -0.125198,0.34578 -0.125198,0.71541 0,0.41137 0.190777,0.63195 0.193758,0.22059 0.554447,0.22059 0.521655,0 0.87042,-0.47098 0.348765,-0.47396 0.348765,-1.18342 z"
       style="font-style:italic;font-variant:normal;font-weight:normal;font-stretch:normal;font-size:medium;line-height:1.25;font-family:sans-serif;-inkscape-font-specification:'sans-serif Italic';letter-spacing:0px;word-spacing:0px;fill:#0000ff;stroke-width:0.7500053"
       id="path1085"
       inkscape:connector-curvature="0" />
    <path
       d="m -59.335983,118.65073 h 0.628969 l -0.146065,0.75715 h -0.628968 z"
       style="font-style:italic;font-variant:normal;font-weight:normal;font-stretch:normal;font-size:medium;line-height:1.25;font-family:sans-serif;-inkscape-font-specification:'sans-serif Italic';letter-spacing:0px;word-spacing:0px;fill:#0000ff;stroke-width:0.7500053"
       id="path1087"
       inkscape:connector-curvature="0" />
    <path
       d="m -56.343166,119.49432 q -0.587236,0 -0.930038,-0.36068 -0.339823,-0.36367 -0.339823,-0.98966 0,-0.36367 0.116255,-0.73926 0.119235,-0.37858 0.307032,-0.63493 0.295109,-0.39944 0.658778,-0.59022 0.363669,-0.19078 0.822726,-0.19078 0.569351,0 0.918116,0.35473 0.351745,0.35473 0.351745,0.92706 0,0.39646 -0.116255,0.78993 -0.116255,0.39348 -0.304051,0.65282 -0.292127,0.39944 -0.655797,0.59022 -0.363669,0.19077 -0.828688,0.19077 z m -0.70051,-1.36823 q 0,0.4531 0.187796,0.67965 0.190777,0.22356 0.575312,0.22356 0.551465,0 0.912155,-0.47992 0.363668,-0.4829 0.363668,-1.22217 0,-0.43223 -0.193758,-0.65281 -0.193757,-0.22059 -0.56935,-0.22059 -0.310013,0 -0.551465,0.14607 -0.241453,0.14308 -0.43223,0.43819 -0.140102,0.22058 -0.217606,0.50377 -0.07452,0.28318 -0.07452,0.58425 z"
       style="font-style:italic;font-variant:normal;font-weight:normal;font-stretch:normal;font-size:medium;line-height:1.25;font-family:sans-serif;-inkscape-font-specification:'sans-serif Italic';letter-spacing:0px;word-spacing:0px;fill:#0000ff;stroke-width:0.7500053"
       id="path1089"
       inkscape:connector-curvature="0" />
    <path
       d="m -51.439597,116.57603 q -0.08346,-0.0447 -0.190777,-0.0686 -0.107312,-0.0238 -0.229528,-0.0238 -0.438192,0 -0.766089,0.33386 -0.327899,0.33088 -0.435212,0.88831 l -0.336841,1.70209 h -0.548484 l 0.652816,-3.3386 h 0.548485 l -0.104332,0.51867 q 0.217605,-0.28914 0.518675,-0.44415 0.304052,-0.15501 0.646854,-0.15501 0.08943,0 0.175872,0.0119 0.08645,0.009 0.172893,0.0328 z"
       style="font-style:italic;font-variant:normal;font-weight:normal;font-stretch:normal;font-size:medium;line-height:1.25;font-family:sans-serif;-inkscape-font-specification:'sans-serif Italic';letter-spacing:0px;word-spacing:0px;fill:#0000ff;stroke-width:0.7500053"
       id="path1091"
       inkscape:connector-curvature="0" />
    <path
       d="m -48.005608,116.06928 -0.569351,2.92425 q -0.163947,0.84956 -0.628968,1.26688 -0.462037,0.41733 -1.246013,0.41733 -0.289146,0 -0.536561,-0.0447 -0.247414,-0.0417 -0.462038,-0.13116 l 0.10135,-0.53358 q 0.202701,0.13115 0.429249,0.19375 0.226548,0.0626 0.482904,0.0626 0.521656,0 0.855516,-0.28616 0.336841,-0.28319 0.444154,-0.81677 l 0.04769,-0.25039 q -0.229529,0.26232 -0.533579,0.39944 -0.304051,0.13712 -0.655797,0.13712 -0.506752,0 -0.798879,-0.33386 -0.289148,-0.33684 -0.289148,-0.92408 0,-0.46204 0.175874,-0.90321 0.175872,-0.44415 0.494829,-0.78696 0.211642,-0.22654 0.491846,-0.34876 0.283185,-0.12222 0.590217,-0.12222 0.336841,0 0.587237,0.15799 0.250394,0.15501 0.37261,0.44117 l 0.09539,-0.51867 z m -0.825706,1.22514 q 0,-0.4054 -0.190778,-0.62598 -0.190777,-0.22059 -0.542522,-0.22059 -0.217606,0 -0.414344,0.0864 -0.19674,0.0864 -0.336842,0.24145 -0.226548,0.25636 -0.354725,0.60512 -0.125199,0.34578 -0.125199,0.71541 0,0.41137 0.190777,0.63195 0.193758,0.22059 0.554447,0.22059 0.521655,0 0.870421,-0.47098 0.348765,-0.47396 0.348765,-1.18342 z"
       style="font-style:italic;font-variant:normal;font-weight:normal;font-stretch:normal;font-size:medium;line-height:1.25;font-family:sans-serif;-inkscape-font-specification:'sans-serif Italic';letter-spacing:0px;word-spacing:0px;fill:#0000ff;stroke-width:0.7500053"
       id="path1093"
       inkscape:connector-curvature="0" />
    <path
       d="m -47.269327,118.65073 h 0.628969 l -0.146065,0.75715 h -0.628968 z"
       style="font-style:italic;font-variant:normal;font-weight:normal;font-stretch:normal;font-size:medium;line-height:1.25;font-family:sans-serif;-inkscape-font-specification:'sans-serif Italic';letter-spacing:0px;word-spacing:0px;fill:#0000ff;stroke-width:0.7500053"
       id="path1095"
       inkscape:connector-curvature="0" />
    <path
       d="m -42.425375,117.39279 -0.390497,2.01509 h -0.551465 l 0.390496,-1.99422 q 0.02683,-0.1401 0.04173,-0.24741 0.01491,-0.10732 0.01491,-0.16992 0,-0.25039 -0.157987,-0.39049 -0.157988,-0.1401 -0.441173,-0.1401 -0.441172,0 -0.760127,0.2951 -0.318956,0.29213 -0.417326,0.7959 l -0.366649,1.85114 h -0.548484 l 0.646853,-3.3386 h 0.548485 l -0.110294,0.52463 q 0.229529,-0.28914 0.551465,-0.44713 0.321937,-0.15799 0.676664,-0.15799 0.441171,0 0.682623,0.23847 0.244435,0.23848 0.244435,0.67071 0,0.10731 -0.01491,0.22952 -0.01192,0.12222 -0.03875,0.2653 z"
       style="font-style:italic;font-variant:normal;font-weight:normal;font-stretch:normal;font-size:medium;line-height:1.25;font-family:sans-serif;-inkscape-font-specification:'sans-serif Italic';letter-spacing:0px;word-spacing:0px;fill:#0000ff;stroke-width:0.7500053"
       id="path1097"
       inkscape:connector-curvature="0" />
    <path
       d="m -40.833578,114.76961 h 0.548484 l -0.13414,0.69455 h -0.548485 z m -0.250394,1.29967 h 0.548484 l -0.652817,3.3386 h -0.548484 z"
       style="font-style:italic;font-variant:normal;font-weight:normal;font-stretch:normal;font-size:medium;line-height:1.25;font-family:sans-serif;-inkscape-font-specification:'sans-serif Italic';letter-spacing:0px;word-spacing:0px;fill:#0000ff;stroke-width:0.7500053"
       id="path1099"
       inkscape:connector-curvature="0" />
    <path
       d="m -39.164278,114.9574 v 1.6544 h -0.506751 v -1.6544 z m 1.126778,0 v 1.6544 h -0.506752 v -1.6544 z"
       style="font-style:normal;font-variant:normal;font-weight:normal;font-stretch:normal;font-size:medium;line-height:1.25;font-family:sans-serif;-inkscape-font-specification:sans-serif;letter-spacing:0px;word-spacing:0px;stroke-width:0.7500053"
       id="path1101"
       inkscape:connector-curvature="0" />
    <path
       d="m -36.955435,114.77557 h 0.476943 q 0.447133,0.70349 0.66772,1.37717 0.223566,0.67368 0.223566,1.33842 0,0.66772 -0.223566,1.34439 -0.220587,0.67666 -0.66772,1.37717 h -0.476943 q 0.396458,-0.68263 0.590216,-1.35631 0.19674,-0.67666 0.19674,-1.36525 0,-0.68858 -0.19674,-1.35928 -0.193758,-0.67071 -0.590216,-1.35631 z"
       style="font-style:normal;font-variant:normal;font-weight:normal;font-stretch:normal;font-size:medium;line-height:1.25;font-family:sans-serif;-inkscape-font-specification:sans-serif;letter-spacing:0px;word-spacing:0px;stroke-width:0.7500053"
       id="path1103"
       inkscape:connector-curvature="0" />
    <path
       d="m -34.344173,116.25111 h 0.628969 v 0.75715 h -0.628969 z m 0,2.39962 h 0.628969 v 0.51271 l -0.488867,0.95389 h -0.384535 l 0.244433,-0.95389 z"
       style="font-style:normal;font-variant:normal;font-weight:normal;font-stretch:normal;font-size:medium;line-height:1.25;font-family:sans-serif;-inkscape-font-specification:sans-serif;letter-spacing:0px;word-spacing:0px;stroke-width:0.7500053"
       id="path1105"
       inkscape:connector-curvature="0" />
    <path
       d="m -132.96405,128.23085 h 0.20866 q 0.41733,0 0.54253,-0.12818 0.12818,-0.12817 0.12818,-0.55444 v -0.73926 q 0,-0.46502 0.13413,-0.67666 0.13415,-0.21165 0.46502,-0.29213 -0.33087,-0.0745 -0.46502,-0.28617 -0.13413,-0.21164 -0.13413,-0.67964 v -0.73926 q 0,-0.42329 -0.12818,-0.55147 -0.1252,-0.13116 -0.54253,-0.13116 h -0.20866 v -0.42627 h 0.1878 q 0.74224,0 0.98965,0.22059 0.2504,0.21761 0.2504,0.87638 v 0.71542 q 0,0.44415 0.16097,0.61704 0.16097,0.16991 0.58425,0.16991 h 0.18482 v 0.42627 h -0.18482 q -0.42328,0 -0.58425,0.17289 -0.16097,0.17289 -0.16097,0.62301 v 0.71243 q 0,0.65878 -0.2504,0.87937 -0.24741,0.22058 -0.98965,0.22058 h -0.1878 z"
       style="font-style:normal;font-variant:normal;font-weight:normal;font-stretch:normal;font-size:medium;line-height:1.25;font-family:sans-serif;-inkscape-font-specification:sans-serif;letter-spacing:0px;word-spacing:0px;stroke-width:0.7500053"
       id="path1107"
       inkscape:connector-curvature="0" />
  </g>
</svg>
