<svg id="Layer_1" data-name="Layer 1" xmlns="http://www.w3.org/2000/svg" xmlns:xlink="http://www.w3.org/1999/xlink" viewBox="0 0 735 852"><defs><style>.cls-1{fill:#77aab6;}.cls-2{fill:#ba6f38;}.cls-3{clip-path:url(#clip-path);}.cls-4,.cls-5{fill:#fff;}.cls-5{opacity:0.25;}.cls-6{fill:#4d4d4d;}.cls-7{fill:#e6b35a;}.cls-8{fill:#db1f26;}.cls-9{clip-path:url(#clip-path-2);}.cls-10{fill:#595959;}</style><clipPath id="clip-path"><polygon class="cls-1" points="369.5 7.4 728.2 214.5 728.2 636.6 369.5 845 2.8 636.6 2.8 214.5 369.5 7.4"/></clipPath><clipPath id="clip-path-2"><polygon class="cls-2" points="1181.8 -16.6 1540.5 190.5 1540.5 612.6 1181.8 821 815.1 612.6 815.1 190.5 1181.8 -16.6"/></clipPath></defs><title>RStudio_Hex 2016 v7 outlines</title><polygon class="cls-1" points="369.5 7.4 728.2 214.5 728.2 636.6 369.5 845 2.8 636.6 2.8 214.5 369.5 7.4"/><g class="cls-3"><circle class="cls-4" cx="365.5" cy="437.4" r="442.1"/><ellipse class="cls-5" cx="366.9" cy="105.8" rx="315.2" ry="234.6"/></g><path class="cls-6" d="M352.1,406.1l-1.3-.5-1.9-.7c-2.1-.5-3.4.2-4,2.3a6.4,6.4,0,0,0-.1,4c0.7,2.1,1.1,4.3,1.5,6.4a7,7,0,0,1,0,1.4c-1.5-1-2.9-4.4-3.7-8.9a16.3,16.3,0,0,1,.7-9.7,2.7,2.7,0,0,0-1.9,1.5,10.4,10.4,0,0,0-1.2,4.1,56,56,0,0,0,.2,12.1c0.6,6.9,1.4,13.7,2,20.6,0.3,3.2.2,6.3,0.1,9.5s-0.1,5.9-.3,8.8a105.8,105.8,0,0,1-3.3,20.8,13.5,13.5,0,0,1-1.1,2.8c-0.7,1.3-1.5,1.2-2.2-.1a15.1,15.1,0,0,1-.8-2.3c-0.7-2.2-1.2-4.3-1.9-6.5a123,123,0,0,1-4.8-22.5,245.5,245.5,0,0,1-1.3-31.6c0.1-7.2.1-14.4,0.3-21.5,0.1-2.5.5-4.9,0.6-7.4a42.8,42.8,0,0,0,0-4.5,7.8,7.8,0,0,0-.5-1.7,7.7,7.7,0,0,0-1.3,1.3,26.6,26.6,0,0,0-1.7,3.3,86.9,86.9,0,0,0-5.9,21.9,74.8,74.8,0,0,0-.1,7.7c0,1.7-.1,3.4-0.2,5.1a7.5,7.5,0,0,1-.3,1.2,4,4,0,0,1-.5-0.9c-0.3-1.4-.6-2.9-0.7-4.4-0.4-4.4-.6-8.9.5-13.2s2.8-9.6,4.4-14.4a139.4,139.4,0,0,1,18.5-34.9c3.5-4.9,7.3-9.5,11-14.2a3.7,3.7,0,0,1,1.1-.9l-0.3.7a12.2,12.2,0,0,0-1.2,10.7,26.1,26.1,0,0,0,3.1,6.2,81.9,81.9,0,0,0,7.6,9.5l3.9,4.3a1.9,1.9,0,0,1,.6,1.5,6.4,6.4,0,0,0,2.7,5.5,16.5,16.5,0,0,0,6.8,3c3.2,0.7,6.4,1.1,9.6,1.7l3.4,0.5,1.2,0.4c-0.7,1.1-1.3,1.3-2.3,1l-6.3-1.5a13.7,13.7,0,0,0-3.4-.2c-1.2.1-1.6,0.8-1.2,1.9a9.9,9.9,0,0,0,1.4,2.4l4.6,5.7,6.9,8.8,0.2,0.3a2.2,2.2,0,0,0,1.7-1.8,29.7,29.7,0,0,0,.9-4.6,96.1,96.1,0,0,0-.1-15.3c-0.5-9.5-1.2-19-1.7-28.5a80.2,80.2,0,0,1,.2-9.7,58.3,58.3,0,0,0-2.8-22.2,78.7,78.7,0,0,0-12.2-22.9,145.8,145.8,0,0,0-22.9-23.8l-7-5.8-3-2.8c-1.5-1.3-3-2.7-4.6-3.9a8.6,8.6,0,0,0-2.7-1.3,2,2,0,0,0-2.8,1.4,11.9,11.9,0,0,0-.8,4c0.1,3.4.4,6.8,0.6,10.2s0.6,5.5.9,8.2a23.1,23.1,0,0,1-.1,2.9c0,1.3.5,1.8,1.8,1.4l2.6-1.1a26.5,26.5,0,0,0-2.5,9.2c-0.2,1.8-.4,3.7-0.7,5.5a17.2,17.2,0,0,1-1,3.6,3,3,0,0,1-3.7,2.1,14.9,14.9,0,0,1-3.6-1.3,2.1,2.1,0,0,0-2.1-.1,31,31,0,0,0-3.7,2.3,37.7,37.7,0,0,0-6.4,7,164.1,164.1,0,0,0-9.9,15.3l-9.2,15.7-0.4.9c-2.8,7.3-5.7,14.7-8.4,22a81.3,81.3,0,0,0-4.2,16.8c-0.8,5.8-.9,11.7.9,17.4a22.3,22.3,0,0,0,8.9,11.8l1,0.6a5.7,5.7,0,0,0,.1-0.8c-0.7-14.2,2.3-27.8,7.5-41a207.8,207.8,0,0,1,14.1-27.9c4.9-8.4,10.7-16.3,16.3-24.3s10.2-14.3,15.9-21a85.3,85.3,0,0,1,14.1-13.6,15.6,15.6,0,0,1,2.8-1.7l-0.6.8a321.5,321.5,0,0,0-38.5,47.4,273,273,0,0,0-14.6,24.5c-1.5,2.9-2.7,6-4.1,9.1-3.1,6.8-6.2,13.7-8.6,20.8a60.2,60.2,0,0,0-3.3,14.9,22.9,22.9,0,0,0,1.2,9.9,15.2,15.2,0,0,0,6.3,7.6l0.8,0.4,1.2-5.1c2.1-9.2,4.2-18.4,6.9-27.4a141.1,141.1,0,0,1,9.6-24.7,91,91,0,0,1,5.9-9.6c4.1-5.9,8-11.9,12.1-17.8a251.5,251.5,0,0,1,17.5-23.3A89.3,89.3,0,0,1,370.5,298a3.8,3.8,0,0,1,1.4-.7l-0.7.8A315.9,315.9,0,0,0,343.6,330a254.8,254.8,0,0,0-27,43.9,133.9,133.9,0,0,0-9.1,24.5,47,47,0,0,0-1.8,14.6,23.2,23.2,0,0,0,.9,5,11,11,0,0,0,9.3,8.2,37.5,37.5,0,0,0,4.1.3h1.5a26.7,26.7,0,0,1-9.7.1,43.2,43.2,0,0,1-15.6-6.1c-4.3-2.6-8.5-5.5-12.7-8.3a109.1,109.1,0,0,0-13.3-7.9,38.6,38.6,0,0,0-9.5-3.3,2.6,2.6,0,0,1-1.7-1,104.8,104.8,0,0,1-12.8-21.6A236.7,236.7,0,0,1,236.1,350c-2.6-8.4-5.1-16.9-7.8-25.3-0.9-2.9-2.1-5.7-2.9-8.6a60.8,60.8,0,0,1-1.9-20.7c0.9-12.6,4.9-24.2,10.6-35.3a143.4,143.4,0,0,1,11.8-19.1l1.2-1.7-1-1.2L218,206.6l-12.2-13.7a2,2,0,0,0-2-.8,19.8,19.8,0,0,1-4.4.1c-2.5-.3-3.5-1.9-2.6-4.3a13.3,13.3,0,0,1,2.8-4.4,24.6,24.6,0,0,1,7.8-6,8.1,8.1,0,0,1,3.7-1,2.8,2.8,0,0,1,3,2.2,8,8,0,0,1,.3,2.9,3.4,3.4,0,0,0,.8,2.5c6.1,8.4,12.4,16.5,19.3,24.2,9.5,10.8,19.1,21.4,28.6,32.1l14,15.8c1.5,1.7,2.9,3.6,4.4,5.4a9.1,9.1,0,0,0,2.1,2,4,4,0,0,0,0-.9l-1.9-5.8a46.2,46.2,0,0,1-2.5-10,4.2,4.2,0,0,1,.1-1.6l0.4,1a98.4,98.4,0,0,0,16.2,30.1,41.8,41.8,0,0,0,7.1,7.1,24.2,24.2,0,0,0,7.1,3.9l0.7,0.4c-3.2-.2-5.8-1.9-8.5-3.4l0.6,0.8,4.2,4.9a1.9,1.9,0,0,0,2.2.8l2.8-1.1a14.5,14.5,0,0,0,1.8-1.3c-0.3,1.2-.6,2.3-0.7,3.4-0.5,3,.2,5.9.4,8.8s0.3,3.5.4,5.3a14.2,14.2,0,0,0-6.5-.3,14.4,14.4,0,0,0-5.5,2.9,3,3,0,0,1,0-.6,8.2,8.2,0,0,0-1.5-7.8,27.8,27.8,0,0,0-4-4.4c-2.7-2.3-5.5-4.4-8.3-6.7s-5.1-4.2-7.5-6.5a22.2,22.2,0,0,1-4.4-5.7c-2.3-4.2-4.7-8.3-7.1-12.5a56.5,56.5,0,0,0-9.9-12.5l-1.1-1a7.1,7.1,0,0,0-.9,3.6,27.7,27.7,0,0,0,1.6,9.8,92.9,92.9,0,0,0,23.2,36c1.4,1.2,2.9,2.3,4.3,3.5a74.6,74.6,0,0,1,8.2,8.1,1.4,1.4,0,0,1-1.5-.5l-5.1-4a156.2,156.2,0,0,1-13.5-12.4,33.9,33.9,0,0,1-4.9-6.1l-0.6-.7a28.9,28.9,0,0,1-9.1-14.8c-1.1-4.2-2-8.5-2.8-12.8s-1.7-9-3.7-13.3a22,22,0,0,0-4.1-6.2l-0.6-.5a12.9,12.9,0,0,0-2.7,5.7,76.2,76.2,0,0,0-1.1,23.5A68.5,68.5,0,0,0,251,293a55.6,55.6,0,0,0,7.9,11.8c5.4,6.3,11.9,11.4,17.9,17l5.4,4.9a9.1,9.1,0,0,1,1.3,1.2,1.2,1.2,0,0,1-1.4-.3,103.9,103.9,0,0,1-16.5-12.7,80,80,0,0,1-18.1-26,63.7,63.7,0,0,1-5.4-27.6c0.1-2.8.5-5.5,0.8-8.2,0-.4.3-0.9-0.2-1.2a1,1,0,0,0-1.4.3,29.8,29.8,0,0,0-2.9,3.6,52.1,52.1,0,0,0-6,14.3,35.6,35.6,0,0,0-1.4,11.2,15.7,15.7,0,0,0,1.6,6.4,5.1,5.1,0,0,1,.5,1.7,43.7,43.7,0,0,0,7.1,18.8,85.2,85.2,0,0,0,11.8,14.2l14.3,13.9c2.5,2.5,4.9,5.1,7.3,7.7l-0.2.2-0.8-.6A181.3,181.3,0,0,1,251,324.4a85.3,85.3,0,0,1-15.1-21.5,55.4,55.4,0,0,1-5.6-25c0-.3,0-0.6,0-1v-0.3l-0.7.5a10.7,10.7,0,0,0-2.3,4.2,36.3,36.3,0,0,0-1.6,10.3,116.4,116.4,0,0,0,6.1,40.2c4.5,10.5,7.5,21.4,11,32.2a133.3,133.3,0,0,0,7.9,19.6A64.8,64.8,0,0,0,261,398.7a2.3,2.3,0,0,0,2.9.6,5.7,5.7,0,0,0,3.4-3.3,39.7,39.7,0,0,0,1.4-4.5c0.2-.7.3-1.4,0.5-2.2,1,7.8,4.1,14.2,10.9,18.7,0-.5,0-0.8,0-1.1a103.6,103.6,0,0,1,0-18.9,114.5,114.5,0,0,1,5.9-26.9,154.1,154.1,0,0,1,13.4-27.9,177.7,177.7,0,0,1,13.2-18.6c2.2-2.9,4.3-5.9,6.3-8.9a26.5,26.5,0,0,0,3.4-8l0.3-1c0.7,1.9,1.1,3.6,2.2,4.9h0.3l-9.8-83.4c0.4,7.6,1.2,15.2,1.8,22.8l-0.3-.7a16.8,16.8,0,0,0-7.4-9.6,43.9,43.9,0,0,0-10.1-4.7l-14-4.7a13.9,13.9,0,0,1-6.3-3.8c-1.1-1.2-2.2-2.2-3.4-3.3l-0.9-1,0.2-.2,1.6,0.9,9.7,5.9a38.2,38.2,0,0,0,8.1,3.8c1.2,0.4,2.4.5,3.6,0.8l1.5,0.6c1.9,0.9,3.8,2,5.8,2.8a11.7,11.7,0,0,0,3.6.7,4,4,0,0,0,4.2-2.8,10.9,10.9,0,0,0,.8-4.7c-0.1-2.7-.3-5.4-0.7-8.1-0.7-5.6-1.7-11.2-2.4-16.8-0.3-2-.2-4.1-0.3-6.2,0-.3,0-0.5,0-0.9l-0.6.2-21.6,10.7a63.2,63.2,0,0,0-13.1,8.7l-3.4,3.2-0.9.7h0l0.7-1.1a30.4,30.4,0,0,0,4-6.4,2.1,2.1,0,0,1,1.2-1.1l10.6-4.9,11.6-5.6a30.7,30.7,0,0,0,6.5-4.5c5.4-4.7,7.2-10.7,5.6-17.6-0.5-2.4-1.5-4.7-2.3-7.1a2.9,2.9,0,0,0-1.2-1.4,20.1,20.1,0,0,1-3.3-2.8,4.7,4.7,0,0,1-.1-6.3,10.4,10.4,0,0,1,3.9-3,18.6,18.6,0,0,1,9.2-1.8l3.4,0.2a9,9,0,0,1,2.7.6,3.3,3.3,0,0,1,1.2,5.4,22,22,0,0,1-2.6,2.2l6.7,76.1,0.9,0.4a90.5,90.5,0,0,1,27.7,16.1A154.1,154.1,0,0,1,379,272.4c5.6,6.9,10.7,14.2,15.7,21.6a84.7,84.7,0,0,1,11.6,27.3,142.5,142.5,0,0,1,3.6,24c0.5,7.4.7,14.7,0.7,22.1,0,3.8.2,7.6,0.1,11.5a168.1,168.1,0,0,1-3.5,30.4,45.8,45.8,0,0,1-1.4,4.8,8,8,0,0,1-1,1.8,1.1,1.1,0,0,1-1.4.5l1.1-4.3a142.1,142.1,0,0,0,3.8-23.4,180,180,0,0,0,.7-20.1q-0.3-9.9-.9-19.9c-0.4-6.7-1.1-13.3-1.7-19.9a25.7,25.7,0,0,0-1-4.3,129.2,129.2,0,0,0-17.6-37.8,168.2,168.2,0,0,0-42.5-43.2l-4-3c-1.5-1.1-3.1-2.2-4.7-3.1a7.7,7.7,0,0,0-2.3-.8,3.4,3.4,0,0,0-4.3,2.1,13.2,13.2,0,0,0-1,4,44,44,0,0,0,1.6,13.7,1.8,1.8,0,0,0,1.1,1.1,165.1,165.1,0,0,1,14.3,9.3,137.4,137.4,0,0,1,30.6,30.1,109.7,109.7,0,0,1,11.5,19.9,25.6,25.6,0,0,1,1.6,6.4,168.7,168.7,0,0,1,2.3,23.3c0.3,10.7.3,21.4,0.6,32.2,0.2,7.4.7,14.7,0.9,22.1,0.2,5.5,2.2,10.4,5.1,15a116.8,116.8,0,0,0,10,12.8c3.6,4.2,7.2,8.5,10.7,12.8a45.1,45.1,0,0,1,7.4,12.7,35.4,35.4,0,0,0,2.6,5.4c1.1,2,2.1,4,3,6a6.3,6.3,0,0,1,.5,2.3,1.3,1.3,0,0,1-1.7,1.5,9,9,0,0,1-2.8-1,80.4,80.4,0,0,1-6.9-4.6,67.6,67.6,0,0,1-12.6-12.4,26.8,26.8,0,0,1-2.8-4.6,46,46,0,0,0-11.4-15.3,43.1,43.1,0,0,0-19-9.3c-9.8-2.2-19.5-1.5-29.1,1l-1.2.3a1.4,1.4,0,0,1-1.4-.8,0.9,0.9,0,0,1,.3-0.8,3.6,3.6,0,0,1,1.4-.5c2.5-.3,4.9-0.7,7.4-0.8l20.4-.2a3.2,3.2,0,0,0,1.4-.2l-0.3-.2a50.6,50.6,0,0,1-10.9-5.9l-7.5-5.2-0.6-.6,1,0.3a132.4,132.4,0,0,0,21,8.8l1,0.3a5.2,5.2,0,0,0,.8-4.1,9.3,9.3,0,0,0-2.8-4.6,53.6,53.6,0,0,0-5.5-4.6c-3.2-2.2-6.5-4.3-9.7-6.4s-8.6-5.7-12.8-8.7a33.5,33.5,0,0,1-8.3-8.3l-0.7-.9-0.2.7v0.5a20,20,0,0,0,2.9,14.9,33.7,33.7,0,0,0,9,9Zm6.8-23.2,0.8,1.1,0.7,1.1,13.6,18.1c11.5,15.2,23.2,30.2,35.4,44.8l1.2,1.1,0.6,1,0.2-.2-0.8-.8a13.2,13.2,0,0,0-.8-1.3l-49.2-63.2-0.7-.8-0.9-1.1-0.9-1.1-0.6-1-0.3.2,0.9,0.8Zm-7.1-9.7-0.7-.9-0.2.2,0.8,0.8a44.6,44.6,0,0,0,4.3,5.7A23.5,23.5,0,0,0,351.9,373.2Zm-95-126.3-2-2.4-0.3.2,2.2,2.3,0.9,1.2,6.5,7.3c11.5,12.5,22.3,25.6,34.3,37.6l6.5,6.7,1.9,1.8a4.6,4.6,0,0,0-1-1.5l-46.5-50.6Zm74.4,56.6c-0.2-3.6-.3-7-0.5-10.4q-0.6-9.6-1.3-19.2T328,254.6c-0.6-6.9-1.2-13.8-1.8-20.8s-1.2-13-1.8-19.5c-0.8-8.3-1.6-16.7-2.4-25s-1.4-15.3-2-23c-0.2-1.8-.3-3.6-0.5-5.6-1.6,1.3-3.3,1-5,.7l-1.9-.3c-0.9-.1-1.2.2-1.1,1.1s0.5,3.3.7,4.9c0.9,6.4,1.8,12.9,2.6,19.3s1.4,11,2,16.6,1.4,11.9,2.1,17.8,1.2,10.5,1.8,15.8l2.1,18.1,1.8,15.5c0.3,2.9.7,5.8,1,8.8s0.5,7.2.9,10.9,1,8.6-.9,12.7A5.9,5.9,0,0,0,331.3,303.5Zm11.4,54.6,1,1.2,22.4,28.1c15.4,19.2,31.4,37.8,45.9,57.7,2.2,3,4.5,6,6.7,9.1a21.5,21.5,0,0,1,3.3,6.5,2,2,0,0,0,.4.8l6.2,6.3,0.7,0.4a2.9,2.9,0,0,0-.4-1.5c-2.5-4.4-4.9-8.9-7.6-13.1-11.2-17.6-23.6-34.4-36.4-50.8s-25.6-32.6-38.4-48.8l-0.6-.7c-1.6,1.9-4.1,2.6-5.4,4.8,1,1.3,1.9,2.6,2.9,3.8C343.1,360.7,342.5,359.6,342.7,358.1Zm-6.1,7.6a13.6,13.6,0,0,0-3,4.2,4.3,4.3,0,0,0-.6,2.2q0.1,8.4.1,16.9c0,9.5.1,19,0,28.5,0,5.4.2,10.9-.1,16.3-0.2,3.5.2,7,.1,10.5s-0.2,6-.3,9a8.6,8.6,0,0,1-1.3,4l-0.6-1.3a3.5,3.5,0,0,0,.2,1.5,3.4,3.4,0,0,1,.7,2c0.7,3.3,1.4,6.6,2.2,9.8a12.5,12.5,0,0,0,1.3,3c0.6,1,1.2,1,1.8-.1a3,3,0,0,0,.3-0.8,26.8,26.8,0,0,0,.9-4.4c0.4-6.9.8-13.9,0.9-20.8,0.2-14.9-.7-29.7-1.5-44.6-0.6-11.4-1.1-22.8-1-34.2C336.6,366.8,336.6,366.3,336.6,365.7ZM207.8,190.1l1.3,1.3,28.3,30.4L290,278.2l5.6,6.1,6.4,7.6c1.5,1.8,3.1,3.6,4.5,5.4a11.7,11.7,0,0,1,2.4,5.1,1.8,1.8,0,0,0,1.7,1.6,1.1,1.1,0,0,0,1.4-.9,2,2,0,0,0-.6-2.1c-7-8.3-13.7-16.8-20.9-25-11.8-13.5-23.8-26.8-35.7-40.1-14.2-15.9-28.2-32-41.1-49l-0.6-.7ZM367.3,399.7a2.1,2.1,0,0,0-.3-2.2,44.6,44.6,0,0,0-2.9-4.9c-2.8-3.9-5.7-7.7-8.6-11.5-5.3-6.9-10.9-13.6-15.8-20.8l-0.6-.5c-0.3,1.6-.6,3-0.8,4.4a22.1,22.1,0,0,0,3.5,15.5,36.8,36.8,0,0,0,8,8.3c5.4,4.3,11.3,7.7,17.1,11.5h0.4ZM330.6,452h0.2c0-.5,0-1.1,0-1.6q-0.1-10-.3-20-0.2-15.5-.5-31c-0.1-6-.2-12-0.2-17.9a7.5,7.5,0,0,0-.1-0.9,9.7,9.7,0,0,0-.5,2.9c-0.1,2.2-.1,4.4-0.1,6.6,0,10.2.1,20.3,0.1,30.5,0,2.9-.4,5.8-0.3,8.7,0.2,5.3.5,10.7,0.8,16C330,447.4,330.3,449.7,330.6,452ZM210.4,179.7l-4.2.4a2.2,2.2,0,0,0-1.1.5c-1.6,1.4-3.1,2.8-4.6,4.3a4.4,4.4,0,0,0-1,1.8,1.2,1.2,0,0,0,1,1.7l1.1,0.2a10.5,10.5,0,0,0,8.3-4.2A4.5,4.5,0,0,0,210.4,179.7ZM296.4,294l-23.7-26.4a2.1,2.1,0,0,0,0,.5l0.5,1a46.2,46.2,0,0,0,5.6,8.7C283.8,284,290,289,296.4,294Zm17.9-142.8v0.3c-2.7-.8-4.3.8-5.9,2.5l-0.8.9-0.5.8c-0.4.9-.2,1.5,0.7,1.7a6,6,0,0,0,2,.2,22.1,22.1,0,0,0,8.3-2.4,7.3,7.3,0,0,0,1.6-1.1c0.9-.8.7-1.5-0.3-2l-1.3-.4Zm69.2,269.1a15.4,15.4,0,0,0-5.7.3A12.2,12.2,0,0,0,383.4,420.3ZM253.5,243.6l0.2-.2-1.4-1.5-0.2.2Zm-3.1-3.5h0.1l-0.6-.6h-0.1Z"/><path class="cls-6" d="M447.7,280.1l1.1,2.4,6.1,11.9a56.4,56.4,0,0,0,8.1,12.2,32.4,32.4,0,0,0,13.9,8.9c3.1,1.1,6.1,2.6,9.1,3.9l1.2,0.8v0.3l-1.4-.2a58.4,58.4,0,0,1-12.5-4.7,76.9,76.9,0,0,1-7.9-4.5,36.2,36.2,0,0,1-4.1-3.7l-0.6-.5L461,308a139.1,139.1,0,0,1,6.1,26.6,245.6,245.6,0,0,1,2,28.6c0.1,4,.1,8,0.1,12,0,0.4,0,.8.1,1.5a9.1,9.1,0,0,0,1.5-1.2,30.5,30.5,0,0,0,2.4-3.6,83.9,83.9,0,0,0,5.8-14.5c3-9.6,5.9-19.3,8.9-28.9,0.5-1.5.9-3.1,1.5-4.6a18.7,18.7,0,0,0,1.1-6.9,2.8,2.8,0,0,1,.2-1.3c0.2,1.1.4,2.3,0.6,3.4a11,11,0,0,1-.3,6.1c-3.1,10.3-6,20.8-9.7,30.9a161.3,161.3,0,0,1-12.7,28.1,104.4,104.4,0,0,1-10.5,14.9l-0.8,1a4.7,4.7,0,0,0,2.3,1.2,28.2,28.2,0,0,0,7.9,1.1,126.5,126.5,0,0,0,14.9-.7l27.8-2.5c1.5-.1,3,0,4.5,0v-0.3l-2.3-.2-10.6.3c-9.1.5-18.3,1-27.5,0.7a49.7,49.7,0,0,1-12.8-1.9,2.2,2.2,0,0,1-.9-0.5h0.9l21.1,0.2,13.5,0.2h12.3c8.2-.1,36.1-4.5,44.3-4.9s15.1-.9,22.6-1.7,17.6-1.9,26.3-2.9l21.4-2.3a317.2,317.2,0,0,0,39.4-6.9,195.2,195.2,0,0,0,26.4-8.5,2.5,2.5,0,0,0,1.7-1.9,35.5,35.5,0,0,0,.8-3.9,9,9,0,0,0-4.2-8.6,22.7,22.7,0,0,0-8.3-3.3,73.1,73.1,0,0,0-16.2-1.4l-16.4.3c-2.2,0-4.3-.2-6.5-0.2l-19.3.7a134.8,134.8,0,0,1-19.5-.2,44,44,0,0,1-18-5.4,30,30,0,0,1-5.7-4.2,22,22,0,0,1,8.1-12,32.7,32.7,0,0,1,12.3-5.4,80.8,80.8,0,0,1,17.2-2l19.6-.2,5.1-.2c3.8,0,7.6-.1,11.5.1l13.2,0.7,11.7,1.1a22.3,22.3,0,0,1,2.6.6,3,3,0,0,1-.8.6,33.2,33.2,0,0,1-4.5.5l-7.5-.2,1.2,0.3c4.4,0.7,8.8,1.1,13.1,2s7.7,2,11.6,3.1a1.6,1.6,0,0,1,1.3,1h-2.1c-3.6-.3-7.3-0.6-10.9-1l-14.8-2c-1.7-.2-3.4-0.1-5.1-0.3l-13.4-1.6a124.6,124.6,0,0,0-17.9-1.3,31.3,31.3,0,0,0-9.7,1.5,20.4,20.4,0,0,0-4.1,2,11.5,11.5,0,0,0-5,7,1.6,1.6,0,0,0,.5,1.8,37.8,37.8,0,0,0,13.3,7.9,52.8,52.8,0,0,0,13.2,2.6c6.9,0.5,13.9.2,20.8,0.1a96.4,96.4,0,0,1,18.9,1,40.6,40.6,0,0,1,18.3,7.9,7.6,7.6,0,0,1,2.9,5.5,22.6,22.6,0,0,1,0,4.1,8.3,8.3,0,0,1-1.9,4.4,15.8,15.8,0,0,1-4.1,3.7,40.9,40.9,0,0,1-9,4.2l-12.8,4.4-4,1.6a17.7,17.7,0,0,0-4.7,3.1,31,31,0,0,1-15.2,7.2c-6.3,1.3-12.7,1.2-19.1,1l-17.5-.6c-2.4,0-4.8.2-7.2,0.4h-1.9l-17.9-.6c-10.3-.2-20.6,0-30.9.5s-38.2,5.3-47.4,5.8l-23.2,1.5-15,1h-2.2A30.3,30.3,0,0,0,450,408c-3.2,1.4-6.4,3-9.6,4.5a89.1,89.1,0,0,1-14.3,6.1,40.3,40.3,0,0,1-12.5,1.6h-6.9a5.8,5.8,0,0,1-1.8-.2l3.4-.5a57.8,57.8,0,0,0,11.1-2.5,21,21,0,0,0,3.6-1.8,2.9,2.9,0,0,0,1.3-2.6c0.2-4.8.6-9.6,0.9-14.3s0.7-8.8,1-13.2c0.4-6.9.7-13.8,0.9-20.7a167.5,167.5,0,0,0-.9-22.9,108.6,108.6,0,0,0-8.4-32.7,111.8,111.8,0,0,0-6.9-12.7A245,245,0,0,0,380.7,256c-11.2-11.9-23.6-22.4-37.9-30.4-4-2.3-8.2-4.2-12.3-6.2l-1.3-.7a24.8,24.8,0,0,1,5.6,1.1,61.8,61.8,0,0,1,16.6,8.3,140.6,140.6,0,0,1,19,15.7c7.8,7.6,15.5,15.3,22.6,23.5a150.6,150.6,0,0,1,28.5,47.6,123.2,123.2,0,0,1,6.7,27.7,107.6,107.6,0,0,1,.7,19.3,16.8,16.8,0,0,0,.2,2.7,50.6,50.6,0,0,1-.4,11.7c-0.8,6.3-1.7,12.5-2.5,18.7a47,47,0,0,0-.4,11.6,16.2,16.2,0,0,0,.8,3.6,4.7,4.7,0,0,0,5.9,3.2,16.9,16.9,0,0,0,3.8-1.3c1.6-.8,3.1-1.8,4.7-2.6a3.3,3.3,0,0,0,1.4-1.6,77.1,77.1,0,0,0,5.8-19.5,123.8,123.8,0,0,0,1.2-25.3c-0.4-9-1.4-18-2.5-26.9-0.2-1.8-.4-3.7-0.7-5.5a18.4,18.4,0,0,0-.6-3.1,214.9,214.9,0,0,0-24.1-50,326.4,326.4,0,0,0-37.8-47.6c-1.7-1.8-3.2-3.7-5-5.4a55.8,55.8,0,0,0-16.3-10.7c-5.1-2.3-10.3-4.5-15.4-6.7a75.3,75.3,0,0,1-16.2-9.1l-3.2-2.6,0.2-.3,2.4,0.9,11.7,5.9,20.9,10.7c1.8,0.9,3.6,1.6,5.4,2.4a10.7,10.7,0,0,1,2.2,1.3,230.7,230.7,0,0,1,39.9,42.1,294.7,294.7,0,0,1,35.2,62.5,32.7,32.7,0,0,1,1.5,5.9,191.5,191.5,0,0,1,4,46.1c-0.2,5.8-.7,11.5-1.5,17.2-0.4,3-1,5.9-1.5,8.8a7.1,7.1,0,0,1-.6,1.5l-1.8,4.2a6.5,6.5,0,0,0-.4,1.6c-0.2,1.2.4,1.6,1.4,1.1a11.1,11.1,0,0,0,2.3-1.5A48.8,48.8,0,0,0,460,393l0.9-1.4a32.9,32.9,0,0,0,6.4-14.7,60.2,60.2,0,0,0,.4-17.9c-0.8-7.1-1.9-14.1-2.7-21.2-0.5-3.8-.6-7.6-1-11.4a41.9,41.9,0,0,0-1.2-5.8c-4.4-17.1-11.9-32.8-21.4-47.6-1.1-1.8-2.3-3.5-3.3-5.4a46.5,46.5,0,0,1,4.4,4.6c1.8,2.5,3.4,5.1,5.1,7.7l0.2,0.2h0Zm168.5,45.8h-0.8l-10.1.4a43.2,43.2,0,0,0-10.8,1.9,24.9,24.9,0,0,0-6.1,2.5,16.8,16.8,0,0,0-5.6,6.4c-1.6,3.2-1,5.9,2,7.9A21,21,0,0,0,589,347a46.5,46.5,0,0,0,11,2.5,143.4,143.4,0,0,0,22.9.8l2.3-.2a0.9,0.9,0,0,0-.6-0.2,24.2,24.2,0,0,1-16.4-9.7,11.2,11.2,0,0,1-2.1-4.6,6.3,6.3,0,0,1,2.5-6.7,16.5,16.5,0,0,1,3.7-1.9A36,36,0,0,1,616.2,325.9Zm-43.1,67.6v0.3h2.2l28.7,0.5q19,0.3,38-.2a15.9,15.9,0,0,0,7.3-1.7l2.9-1.3L685,375.8l0.8-.4a4,4,0,0,0-1.6.3,213.8,213.8,0,0,1-20.8,5.9c-8.1,1.9-16.3,3.4-24.5,4.6l-18.1,2.3L606.9,390l-15.8,1.5L576.3,393Z"/><path class="cls-6" d="M447.7,280.1v-0.5l1.4,0.9,9.1,6.4a74.1,74.1,0,0,0,11.9,7.2,32.3,32.3,0,0,0,7.7,2.5l2,0.3a12.2,12.2,0,0,0,.4-4.1c-0.1-5.6-1.6-11-3.4-16.3-3-8.8-6.9-17.3-10.7-25.7s-6.8-15.5-10.2-23.2a37.3,37.3,0,0,1-1.8-6.3,27.3,27.3,0,0,0-3.8-9c-3.4-5-8.1-7-14-6.4a32.3,32.3,0,0,0-12.2,4.1c-2.9,1.6-5.7,3.5-8.6,5.3l-8.5,5.5-1.5.8-0.2-.3,1.1-1.1a115.7,115.7,0,0,1,22.7-14.4,21.3,21.3,0,0,1,7.9-2.3,4.3,4.3,0,0,0-1.2-3.7,11.2,11.2,0,0,0-3.8-2.7,44.5,44.5,0,0,0-10.8-3.2,173.3,173.3,0,0,0-17.7-2.3l-12.2-1.1-1.4-.4a4.1,4.1,0,0,0-.3,2c0.1,2.5.2,5,.3,7.4a9.4,9.4,0,0,1,0,1.7l-0.5-2.3a16.6,16.6,0,0,0-8.3-10.7,31,31,0,0,0-10.5-3.5c-4.5-.7-9.1-1.2-13.7-1.7s-11.1-.8-16.6-2.1h-0.3l2.1,1.4,12.7,9.3a50.8,50.8,0,0,0,10.3,6.3,126.2,126.2,0,0,1,29.1,18.3,186.3,186.3,0,0,1,25.1,25.2,6.7,6.7,0,0,1,.8,1.3l1.4,3c0.5,0.9,1,1.8,1.5,2.9l-0.6-.5a322.6,322.6,0,0,0-27.5-28.7,84.8,84.8,0,0,0-8.6-6.7c-7.4-5.3-15.4-9.7-23.3-14.3s-13.7-7.7-20.2-12.1l-6.9-4.9a2.9,2.9,0,0,0-2.6-.6c-2,.4-4.1.7-6.1,1a5.7,5.7,0,0,1-1.4-.2,1.5,1.5,0,0,1,1.1-1.5,16.3,16.3,0,0,1,5.7-1.6,24.9,24.9,0,0,1,6.3.1l6.7,0.6a114,114,0,0,1,19.7,3.3c6.7,1.6,13.5,3.4,20.2,4.9a89.3,89.3,0,0,0,21.8,2.3,50.9,50.9,0,0,1,34.9,12.2A49.9,49.9,0,0,1,458,225.7c0.9,2.8,2,5.6,3.2,8.4,4.7,11.3,9.6,22.6,14.3,34A283.8,283.8,0,0,1,487,300.9c0.6,2.2,1.2,4.4,1.7,6.5a1.6,1.6,0,0,1,0,.9l-0.4-.6a19,19,0,0,0-6-6.7,46.9,46.9,0,0,0-8.6-4.7l-12.6-5.6a32.2,32.2,0,0,1-8.8-5.7c-1.7-1.6-3.1-3.4-4.7-5.1h0Z"/><path class="cls-6" d="M295.5,315.9a4.1,4.1,0,0,1-.2.6L288,329.4c-1,1.8-2.2,3.5-3.3,5.2a7.6,7.6,0,0,0-.6,1.1c-3.6,8.3-7.2,16.5-10.1,25.1a115.1,115.1,0,0,0-4.2,15.7l-0.2.6c0.2-6.9.3-13.4,2.6-19.9-7.6,5.7-16,9.2-24.8,11.7l-0.2-.3a2.1,2.1,0,0,1,.5-0.5,43.2,43.2,0,0,1,6-2.7A35.7,35.7,0,0,0,272.8,352a92.3,92.3,0,0,0,7.8-12.8c2.4-4.6,4.9-9.3,7.4-13.9,1.2-2.1,2.6-4,3.9-6S294.1,317.1,295.5,315.9Zm-20.7,37.3-0.4-.2a12.1,12.1,0,0,0-1.6,2.7l0.3,0.2Z"/><path class="cls-6" d="M425.7,251.8c0.6-.3.8,0.2,1.1,0.5a14.3,14.3,0,0,0,10.1,3.5,22.3,22.3,0,0,0,6.5-1.3,47.8,47.8,0,0,0,12-6.4l5.4-4.1,1.2-.9a4.6,4.6,0,0,1-1,2.5,10.8,10.8,0,0,1-3.7,3.3l-6.4,3.3-9.2,4.1c-1.1.5-2.1,1.2-3.3,1.9,1.4,1.5,2.6,2.8,3.9,4.1a63.3,63.3,0,0,0,19.4,12.5,76.9,76.9,0,0,0,10.6,3.6,1.7,1.7,0,0,1,1.6,1.2,3.5,3.5,0,0,1-2,0,59.7,59.7,0,0,1-10-3.1,84.4,84.4,0,0,1-13.7-6.7,31.5,31.5,0,0,1-7-5.6,8.5,8.5,0,0,1-2.6-5.6c-2.3.9-3.1,3.3-2.4,6.7l-0.8-1.1-9-11.8-0.7-.7h0Z"/><path class="cls-6" d="M354.2,337.2a226.4,226.4,0,0,1,19.5-19.4,5.1,5.1,0,0,1-.3.8c-3.2,6-1.2,12.5,4.3,16a19.3,19.3,0,0,0,8.3,2.8l2.7,0.3a4.8,4.8,0,0,1-3.3,1.7,6.1,6.1,0,0,1-4.1-1,34.4,34.4,0,0,1-3.9-2.8c-1.6-1.4-3.1-2.9-4.6-4.3l-2.9-2.4a9.4,9.4,0,0,0-1.9-1.1,3.9,3.9,0,0,0-5,1,33.3,33.3,0,0,0-2.2,3.5,4.9,4.9,0,0,1-1,1.2l-5.1,3.8h-0.5Z"/><path class="cls-6" d="M269,214.4a64.7,64.7,0,0,0-6.8,12c4.9,4.1,10.6,6.4,16.2,9.2l-1.3-.4-8.6-2.6a9.4,9.4,0,0,0-3.3-.3h-5.2l-1.1-.3a2.2,2.2,0,0,1-1.6-3.1,9,9,0,0,1,1.2-2.4c1.2-1.6,2.4-3.2,3.8-4.8l6.2-6.9Z"/><path class="cls-6" d="M350.2,347.5a83.9,83.9,0,0,0,38.2,22.8,13.2,13.2,0,0,1-5.1-.2,48.2,48.2,0,0,1-13.6-5.1,58,58,0,0,1-15.3-11.4,23.6,23.6,0,0,1-3.8-5.2Z"/><path class="cls-6" d="M285.3,238.4l0.9,0.2,25.6,9.7a5.6,5.6,0,0,1,1.5.8,33.2,33.2,0,0,0-3.5-.6,13.5,13.5,0,0,0-3.5.1,2.9,2.9,0,0,0-2.5,3.2,27.4,27.4,0,0,0,.4,3.1l-0.6-.7A45.2,45.2,0,0,0,286.2,239l-0.9-.7h0Z"/><path class="cls-6" d="M317.8,246l1.2,11.4c0.2,2,.4,4,0.7,6s0.7,2.8,1,4.1a60.5,60.5,0,0,1,.8,10.9,54.1,54.1,0,0,1-.2,5.4L320,281l-2.3,1.9c1-2.9,1.6-5.5.1-8.2a3.4,3.4,0,0,0,.9-2.9c-0.1-2.2-.2-4.5-0.5-6.7s-1-7.1-1.4-10.7a15,15,0,0,1,.1-3.3c0.2-1.7.4-3.4,0.7-5.1h0.1Z"/><path class="cls-6" d="M415.8,231.1c-0.7-.4-0.4-0.8-0.1-1.2a11.1,11.1,0,0,1,1.9-1.7c2.8-1.8,5.7-3.6,8.6-5.2a81,81,0,0,1,16.7-6.9c1.5-.4,3.1-0.6,4.6-0.9a1.4,1.4,0,0,1,1,.2l-1.4.8a129.1,129.1,0,0,1-12.1,5c-3.8,1.5-7.5,3-11.2,4.7a32.3,32.3,0,0,0-7.4,4.7Z"/><path class="cls-6" d="M425.2,195.1l-1.2.8-7.3,3.6c-3.9,1.8-7.8,3.4-11.7,5.3a31,31,0,0,0-8.8,6.1l-0.4.4h-0.7a0.7,0.7,0,0,1-.1-0.6,3.3,3.3,0,0,1,.6-0.9l1.6-1.5A79.7,79.7,0,0,1,419.1,196a37.2,37.2,0,0,1,4.7-1.1h1.3v0.2Z"/><path class="cls-6" d="M427.2,245.6l1.3-1.2a100.8,100.8,0,0,1,22-13.3,15.2,15.2,0,0,1,4.6-1.4,1.7,1.7,0,0,1-.6,1.7,11.2,11.2,0,0,1-2.4,1.6l-6.3,2.5-3.9,1.7a8.6,8.6,0,0,0-1.8,1.1,81,81,0,0,1-11.5,7.1l-1.2.5Z"/><path class="cls-6" d="M385.9,352.9l-2.5-.5a58.7,58.7,0,0,1-14.2-5.7,25.9,25.9,0,0,1-5.6-4.2,9.6,9.6,0,0,1-3-5.3,5.2,5.2,0,0,1,.3-2.6l1,1.3a47,47,0,0,0,12.4,11.9,11.3,11.3,0,0,0,2.2,1l7.9,2.8,1.7,0.8v0.4Z"/><path class="cls-6" d="M263.9,337.1c0.5,1.3.4,1.8-.4,2.4a6.8,6.8,0,0,1-2.2,1.1,48.8,48.8,0,0,1-5.8,1.2,55.6,55.6,0,0,1-11.1.7l-5-.3a3.8,3.8,0,0,1-1.7-.5l6.4-.6,12.4-1.6A20.4,20.4,0,0,0,263.9,337.1Z"/><path class="cls-6" d="M293.7,198.6l1.5,1.7a29.5,29.5,0,0,0,7.9,5.7c2.2,1.1,4.3,2.2,6.4,3.4a8.6,8.6,0,0,1,1.3,1.1v0.3h-1.3c-5.2-1.5-10.1-3.7-14-7.6a6.4,6.4,0,0,1-2-3.8,4.7,4.7,0,0,1,0-.5h0.2Z"/><path class="cls-6" d="M337.1,263c0.5,2.3-1.5,5.3-3.7,6.1l-0.7.2a0.6,0.6,0,0,1-.7-0.9,3.9,3.9,0,0,1,.6-1.2A23.6,23.6,0,0,1,337.1,263Z"/><path class="cls-6" d="M321.6,285.5a18.6,18.6,0,0,1,.9,10.1A41.4,41.4,0,0,1,321.6,285.5Z"/><path class="cls-6" d="M310,265.9l3.9,5.7-2-.6a0.9,0.9,0,0,1-.5-0.4l-1.7-4.6H310Z"/><path class="cls-6" d="M296.5,314.8a25.8,25.8,0,0,1,4.4-5.5C300.6,310.9,298.8,313.2,296.5,314.8Z"/><path class="cls-6" d="M342.9,282.2l5.4-4.9h0.2l-0.4.6-3.3,3.5C344.2,282.2,344.2,282.2,342.9,282.2Z"/><path class="cls-6" d="M342.1,282.9l-4.5,3.5A6.1,6.1,0,0,1,342.1,282.9Z"/><path class="cls-6" d="M268.9,387.1l0.3-6.9h0.3c0,0.7,0,1.4,0,2.2s0,1.6-.1,2.5-0.1,1.5-.2,2.3h-0.2Z"/><path class="cls-6" d="M305.5,257l2.5,4.9,0.5,1.1h-0.2l-3.1-5.9Z"/><path class="cls-6" d="M317.7,274.5c-1.3-.2-2-0.8-3.3-2.6A7.1,7.1,0,0,1,317.7,274.5Z"/><path class="cls-6" d="M317.2,284l-2.8,3.9C314.6,286.6,315.5,285.3,317.2,284Z"/><path class="cls-6" d="M376.6,314.8l-1.2,1.1h-0.1l1.1-1.2Z"/><path class="cls-6" d="M270.9,212.4l-1.1,1.6a2,2,0,0,1,1.1-1.6h0Z"/><path class="cls-6" d="M390.4,203.5v0.9h-0.1v-0.9h0.1Z"/><path class="cls-6" d="M352.1,406.1l1.5,0.9Z"/><path class="cls-6" d="M425.7,251.8l-0.4-.8h0.2v0.8h0Z"/><path class="cls-6" d="M285.3,238.3l-1.1-.2v-0.3l1,0.5h0Z"/><path class="cls-6" d="M378,313.6l-0.5.4h-0.1l0.5-.4H378Z"/><path class="cls-7" d="M367,633.9l0.9-.9h-0.3Z"/><path class="cls-8" d="M248.7,553H249c1.9-2.7,4.6-6.1,6.9-8.8l22.7-26.7h17l-29.9,31.8,34.1,45.6H282.6l-26.7-37.1-7.2,8v29.1H234.8V481.3h13.9V553Z"/><path class="cls-8" d="M307.4,538.4c0-8-.2-14.6-0.6-21h12.5l0.8,12.8h0.3c3.8-7.4,12.8-14.6,25.6-14.6,10.7,0,27.4,6.4,27.4,33v46.2H359.3V550.2c0-12.5-4.6-22.9-17.9-22.9-9.3,0-16.5,6.6-18.9,14.4a20.2,20.2,0,0,0-1,6.6v46.6H307.4V538.4Z"/><path class="cls-8" d="M406.8,495.7c0.2,4.8-3.4,8.6-9,8.6a8.4,8.4,0,0,1-8.5-8.6,8.6,8.6,0,0,1,8.8-8.8C403.4,486.9,406.8,490.7,406.8,495.7Zm-15.7,99.2V517.4h14.1v77.4H391.1Z"/><path class="cls-8" d="M440.4,498.9v18.6h20.2v10.7H440.4v41.8c0,9.6,2.7,15,10.6,15a26.3,26.3,0,0,0,8.2-1l0.6,10.6a33.9,33.9,0,0,1-12.5,2.1c-6.6,0-11.8-2.2-15.2-6.1s-5.4-11-5.4-20.2V528.2h-12V517.4h12V503.2Z"/><path class="cls-8" d="M471.2,541.6c0-9.1-.2-17-0.6-24.2h12.3l0.5,15.2H484c3.5-10.4,12-17,21.4-17a15.2,15.2,0,0,1,4,.5v13.3a21.1,21.1,0,0,0-4.8-.5c-9.9,0-17,7.5-18.9,18.1a39.7,39.7,0,0,0-.6,6.6v41.3H471.2V541.6Z"/><path class="cls-8" d="M705.6,196.2L427.8,35.8,367.5,1,307.2,35.8,29.4,196.2,0.1,213.1V637.4l29.3,16.9L310.6,816.7l56.9,32.8,56.9-32.8L705.6,654.3l29.3-16.9V213.1Zm0,425.3L367.5,816.7,29.4,621.5V231L367.5,35.8h0L705.6,231V621.5Z"/><polygon class="cls-2" points="1181.8 -16.6 1540.5 190.5 1540.5 612.6 1181.8 821 815.1 612.6 815.1 190.5 1181.8 -16.6"/><g class="cls-9"><circle class="cls-10" cx="1176.2" cy="409.8" r="442.1"/></g><path class="cls-8" d="M365.5,797.3l4.5,4.5,2.7,2.9h0.1c-0.4-1.2-.7-2.5-1-3.9l-1.4-6.3,1.6-.9,4.7,4.3,2.9,2.9h0.1a36.6,36.6,0,0,1-1.2-3.9l-1.6-6.1,1.9-1.1,2.7,12.4-1.7,1-4.5-4.1a40.5,40.5,0,0,1-2.9-2.9h0a35.5,35.5,0,0,1,1.1,4l1.2,5.9-1.7,1-9.2-8.6Z"/><path class="cls-8" d="M381.7,787.9l4.5,4.5,2.7,2.9h0.1c-0.4-1.2-.7-2.5-1-3.9l-1.4-6.3,1.6-.9,4.7,4.3,2.9,2.9h0.1a36.4,36.4,0,0,1-1.2-3.9l-1.6-6.1,1.9-1.1,2.7,12.4-1.7,1-4.5-4.1a40.5,40.5,0,0,1-2.9-2.9h0a35.4,35.4,0,0,1,1.1,4l1.2,5.9-1.7,1-9.2-8.6Z"/><path class="cls-8" d="M397.8,778.5l4.5,4.5,2.7,2.9h0.1c-0.4-1.2-.7-2.5-1-3.9l-1.4-6.3,1.6-.9L409,779l2.9,2.9h0.1a36.3,36.3,0,0,1-1.2-3.9l-1.6-6.1,1.9-1.1,2.7,12.4-1.7,1-4.5-4.1a40,40,0,0,1-2.9-2.9h0a35.2,35.2,0,0,1,1.1,4l1.2,5.9-1.7,1-9.2-8.6Z"/><path class="cls-8" d="M419.2,780.4a1.6,1.6,0,1,1,.5-2.1,1.5,1.5,0,0,1-.5,2.1h0Z"/><path class="cls-8" d="M418.5,770.8l-2-3.2,1.7-1,1.3,2h0.1a3.6,3.6,0,0,1,1.6-4l0.6-.2,1,1.8-0.7.3a3.1,3.1,0,0,0-1.1,3.9l0.4,0.9,3.2,5.6-1.9,1.1Z"/><path class="cls-8" d="M428.4,772.1a5.8,5.8,0,0,0,2.9-.7c1.4-.8,1.6-1.9,1.1-2.7s-1.4-1.1-3.1-.8-3.8-.1-4.5-1.3-0.4-3.9,1.8-5.2a6,6,0,0,1,2.9-.8l0.3,1.7a4.7,4.7,0,0,0-2.5.6,1.8,1.8,0,0,0-.9,2.4c0.5,0.9,1.4.9,3,.6s3.7,0,4.6,1.6,0.4,4-2.1,5.4a6.9,6.9,0,0,1-3.4,1Z"/><path class="cls-8" d="M433.1,754.6l1.5,2.5,2.7-1.6,0.8,1.4-2.7,1.6,3.3,5.6c0.8,1.3,1.6,1.8,2.6,1.2l1-.8,0.9,1.4a5.3,5.3,0,0,1-1.5,1.3,3.1,3.1,0,0,1-2.5.4,4.5,4.5,0,0,1-2.3-2.3l-3.3-5.7-1.6.9-0.8-1.4,1.6-.9-1.1-1.9Z"/><path class="cls-8" d="M452.6,756.8l1.7,2.8-1.7,1-1.1-1.6h0a4.6,4.6,0,0,1-2.3,4c-1.6,1-4.1,1.2-6.3-2.5l-3.6-6.1,1.9-1.1,3.4,5.8c1.2,2,2.5,3,4.3,2a3.2,3.2,0,0,0,1.5-3.2,3.2,3.2,0,0,0-.4-1.1l-3.7-6.4,1.9-1.1Z"/><path class="cls-8" d="M457.5,737.2l7.4,12.6,1.7,2.6-1.7,1-1.1-1.8h0a4.5,4.5,0,0,1-2.4,4.1c-2.5,1.5-5.7.5-7.6-2.7s-1.1-6.9,1.4-8.3a4,4,0,0,1,4.1-.2h0l-3.6-6.2Zm3.4,10.2-0.6-.7a3.2,3.2,0,0,0-4-.6c-2,1.1-2.1,3.6-.8,5.9s3.3,3.3,5.3,2.1a3.3,3.3,0,0,0,1.5-3.9,3.8,3.8,0,0,0-.4-0.9Z"/><path class="cls-8" d="M463.9,736.1a1.4,1.4,0,0,1-2.4,1.4,1.3,1.3,0,0,1,.5-1.9A1.3,1.3,0,0,1,463.9,736.1Zm5.7,14.6-6.1-10.5,1.9-1.1,6.1,10.5Z"/><path class="cls-8" d="M481,736.9c2.3,3.9.6,7.1-2,8.6s-6.2.8-8.1-2.5-0.9-6.9,2-8.6S479.1,733.7,481,736.9Zm-8.2,4.9c1.3,2.3,3.7,3.2,5.5,2.2s2.2-3.6.8-5.9-3.2-3.5-5.5-2.2S471.6,739.9,472.8,741.9Z"/><path class="cls-8" d="M486.9,740.9a1.6,1.6,0,1,1,.5-2.1,1.5,1.5,0,0,1-.5,2.1h0Z"/><path class="cls-8" d="M497.7,733.8a8,8,0,0,1-2.6,2.4c-3.2,1.8-6.5.9-8.3-2.3a6.1,6.1,0,0,1,2.4-8.8,7.3,7.3,0,0,1,2.9-1l0.4,1.7a5.1,5.1,0,0,0-2.5.8c-2.4,1.4-2.7,3.9-1.4,6.1s3.8,3,5.9,1.8a6.2,6.2,0,0,0,2-1.9Z"/><path class="cls-8" d="M506.4,722.2c2.3,3.9.6,7.1-2,8.6s-6.2.8-8.1-2.5-0.9-6.9,2-8.6S504.5,719,506.4,722.2Zm-8.2,4.9c1.3,2.3,3.7,3.3,5.5,2.2s2.2-3.6.8-5.9-3.2-3.5-5.5-2.2S497,725.1,498.1,727.1Z"/><path class="cls-8" d="M507.4,718.5l-1.7-2.8,1.7-1,1.1,1.6h0.1a4.2,4.2,0,0,1,2.2-3.8,3.6,3.6,0,0,1,4.2.4h0a5,5,0,0,1,.4-2,4.1,4.1,0,0,1,1.9-2.1c1.4-.8,4-1.1,6.1,2.5l3.6,6.2-1.9,1.1-3.4-5.9c-1.2-2-2.6-2.8-4.1-1.9a2.9,2.9,0,0,0-1.2,3,3.6,3.6,0,0,0,.4,1l3.8,6.5-1.9,1.1-3.6-6.3c-1-1.7-2.4-2.4-3.9-1.6a3,3,0,0,0-1.2,3.3,3.1,3.1,0,0,0,.4,1l3.7,6.3-1.9,1.1Z"/></svg>