<svg xmlns="http://www.w3.org/2000/svg" width="135.8" height="156.8" viewBox="0 0 135.8 156.8">
  <path d="M0 39.15v78.4l67.9 39.2 67.9-39.2v-78.4L67.9-.05 0 39.15z" fill="#6e4228"/>
  <path d="M22.2 86.15c14.3-12.6 46.4-17 71.6-9.9 25.2 7.2 34 23.2 19.7 35.8-14.3 12.6-46.3 17-71.5 9.9-25.2-7.2-34.1-23.2-19.8-35.8z" fill="#fff"/>
  <path d="M43.6 116.05c-11.9-3.4-18.5-8.5-21-12.9-1.9-3.5-1.7-7.7 3.7-12.4 12.2-10.7 41.9-15.4 65.8-8.6 11.9 3.4 18.6 8.5 21 12.9 1.9 3.5 1.7 7.7-3.6 12.4-12.2 10.8-41.9 15.4-65.9 8.6z" fill="#e9ddd7"/>
  <path d="M57.5 108.25c-5.9-1.7-9.6-4.6-10.4-7.7-3.6-9.4-5.5-21-5.5-32.8 0-2.2 1.1-4.5 3.5-6.6 7.1-6.3 23.1-8.5 35.7-4.9 8.8 2.4 13.6 7.1 13.3 11.8v.8c0 .7 1.3 1.2 2 .8.7-.5 1.5-.8 2.3-1.1 6.2-2.3 12.3.8 13.4 6.7 1.1 6-3.1 12.7-9.3 14.9-3 1.1-6 .9-8.4-.2-.7-.3-2.3.2-2.5.9l-.9 3.6c-.6 2.1-1.3 4.1-2 6-.3 1.3-1.2 2.6-2.6 3.9-5.7 5-18.5 6.8-28.6 3.9zm43.2-23c4.1-1.5 6.5-5.9 5.9-9-.4-2.4-2.8-4.1-6.5-2.8-4.1 1.5-6.5 5.9-5.9 9 .5 2.4 2.8 4.1 6.5 2.8zm-59-17.5h-.1.1z" fill="#fff"/>
  <path d="M56.3 73.95c-5.7-1.6-8.3-3.9-9.1-5.4-.6-1-.4-1.9 1.3-3.5 5.4-4.7 19.4-7.1 30.9-3.8 5.7 1.6 8.4 4 9.2 5.4.6 1.1.4 2-1.4 3.5-5.3 4.7-19.3 7.1-30.9 3.8z" fill="#201816"/>
  <path d="M57.1 97.55c1.2-.3 2.5-.7 3.7-1.2.9 1.6 1.6 3 3.1 3.3 1.5.3 2.4-.2 2.4-2.7-.1-5.6-.2-11.2-.2-16.9 1.7.2 3.3.3 4.9.3-.2 5.7-.3 11.3-.4 17-.1 5.2-2.6 7.6-6.4 6.8-3.4-.9-5.7-3.8-7.1-6.6M72.9 99.75c1.1-.9 2.3-1.8 3.4-2.7.8 1.6 1.8 2.6 3.8 2 1.6-.5 2.8-2 2.9-3.4.1-1.6-1-1.7-2.8-2.2l-.9-.3c-2.9-.7-4.9-2.6-4.7-6.6.1-3.8 2.8-6.7 6.6-7.5 2.6-.6 4.4-.2 5.5 2.1-1.1 1.2-2.2 2.4-3.3 3.5-.6-1.3-1.3-1.6-2.5-1.3-1.2.2-2 1.3-2.1 2.5-.1 1.5.7 2 2.4 2.4.3.1.6.1.9.2 3.4.7 5.1 1.3 4.8 5.3-.3 4.2-3.3 8.3-7 9.6-3.6 1.3-5.9-.8-7-3.6" fill="#6e4228"/>
  <path d="M62.2 41.95c-.6 0-1.1.1-1.4.2-.3.2-.6.5-.8.8-.2.4-.4.8-.5 1.4-.1.4-.1 1.1-.1 2.1 0 1.7-.1 2.8-.2 3.5-.2.6-.4 1.2-.8 1.6-.4.4-1 .7-1.8.9-.5.2-1.4.2-2.5.2h-.7v-3c1 0 1.6-.1 1.8-.2.3-.1.5-.3.7-.5.1-.2.2-.6.2-1.1 0-.5 0-1.5.1-3 0-.9.1-1.6.3-2.1.2-.6.5-1 .8-1.4.3-.4.7-.7 1.2-1-.7-.4-1.1-.8-1.4-1.2-.4-.6-.7-1.3-.8-2.1-.1-.6-.2-2-.2-4 0-.6-.1-1.1-.2-1.3-.1-.2-.3-.3-.6-.5-.3-.1-.9-.1-1.9-.1v-3.1h.7c1.2 0 2.1.1 2.7.3.6.1 1.1.5 1.5.9.4.4.7.9.9 1.6.1.6.2 1.6.2 2.9 0 1.6.1 2.6.2 3.1.2.7.5 1.2.9 1.5.3.3.9.4 1.7.5v3.1zM72.4 37.75c-.6 0-1.1.1-1.4.3-.3.1-.6.4-.8.7-.2.4-.4.9-.5 1.4 0 .4-.1 1.1-.1 2.1 0 1.7-.1 2.9-.2 3.5-.2.7-.4 1.2-.8 1.6-.4.4-1 .7-1.8.9-.5.2-1.3.3-2.5.3h-.6v-3.1c.9 0 1.5-.1 1.8-.2.2-.1.4-.3.6-.5.1-.2.2-.6.2-1.1 0-.5 0-1.5.1-3 0-.9.1-1.6.3-2.1.2-.5.5-1 .8-1.4.3-.3.7-.7 1.2-.9-.6-.5-1.1-.9-1.4-1.3-.4-.5-.7-1.2-.8-2.1-.1-.6-.2-1.9-.2-4 0-.6-.1-1-.2-1.2-.1-.2-.3-.4-.6-.5-.3-.1-.9-.2-1.8-.2v-3.1h.6c1.2 0 2.1.1 2.7.3.6.2 1.1.5 1.5.9.5.5.7 1 .9 1.6.1.6.2 1.6.2 3 0 1.5.1 2.6.2 3 .2.7.5 1.2.9 1.5.4.3.9.5 1.7.5v3.1zM82.6 41.95c-.6 0-1.1.1-1.4.2-.3.2-.6.5-.8.8-.2.4-.4.8-.5 1.4 0 .4-.1 1.1-.1 2.1 0 1.7 0 2.8-.2 3.5-.1.6-.4 1.2-.8 1.6-.4.4-1 .7-1.8.9-.5.2-1.3.2-2.4.2h-.7v-3c.9 0 1.5-.1 1.8-.2.3-.1.5-.3.6-.5.1-.2.2-.6.2-1.1 0-.5 0-1.5.1-3 0-.9.2-1.6.4-2.1.1-.6.4-1 .7-1.4.3-.4.7-.7 1.2-1-.6-.4-1.1-.8-1.4-1.2-.4-.6-.7-1.3-.8-2.1-.1-.6-.2-2-.2-4 0-.6-.1-1.1-.2-1.3-.1-.2-.3-.3-.6-.5-.2-.1-.9-.1-1.8-.1v-3.1h.7c1.1 0 2 .1 2.6.3.6.1 1.1.5 1.6.9.4.4.7.9.8 1.6.2.6.2 1.6.2 2.9 0 1.6.1 2.6.2 3.1.2.7.5 1.2.9 1.5.4.3 1 .4 1.7.5v3.1z" fill="#956f5a"/>
</svg>
