<svg id="Layer_1" data-name="Layer 1" xmlns="http://www.w3.org/2000/svg" xmlns:xlink="http://www.w3.org/1999/xlink" viewBox="0 0 735 852"><defs><style>.cls-1{fill:#dcddde;}.cls-2{fill:#ba6f38;}.cls-3{clip-path:url(#clip-path);}.cls-4{fill:#f2f2f2;}.cls-5{clip-path:url(#clip-path-2);}.cls-6{fill:#36a85d;}.cls-7{opacity:0.25;fill:url(#linear-gradient);}.cls-8{fill:#298f4d;}.cls-9{fill:#e6b35a;}.cls-10{fill:#fff;}</style><clipPath id="clip-path"><polygon class="cls-1" points="-433.3 31.4 -74.6 238.5 -74.6 660.6 -433.3 869 -800.1 660.6 -800.1 238.5 -433.3 31.4"/></clipPath><clipPath id="clip-path-2"><polygon class="cls-2" points="369.5 7.4 728.2 214.5 728.2 636.6 369.5 845 2.8 636.6 2.8 214.5 369.5 7.4"/></clipPath><linearGradient id="linear-gradient" x1="367.33" y1="-121.12" x2="368.63" y2="342.4" gradientUnits="userSpaceOnUse"><stop offset="0" stop-color="#fff" stop-opacity="0.83"/><stop offset="0.56" stop-color="#fff" stop-opacity="0.37"/><stop offset="1" stop-color="#fff" stop-opacity="0"/></linearGradient></defs><title>RStudio_Hex 2016 v7 outlines</title><polygon class="cls-1" points="-433.3 31.4 -74.6 238.5 -74.6 660.6 -433.3 869 -800.1 660.6 -800.1 238.5 -433.3 31.4"/><g class="cls-3"><circle class="cls-4" cx="-437.4" cy="461.5" r="442.1"/></g><polygon class="cls-2" points="369.5 7.4 728.2 214.5 728.2 636.6 369.5 845 2.8 636.6 2.8 214.5 369.5 7.4"/><g class="cls-5"><circle class="cls-6" cx="365.5" cy="437.4" r="442.1"/><ellipse class="cls-7" cx="368" cy="107.1" rx="315.2" ry="234.6"/></g><path class="cls-8" d="M705.6,196.2L427.8,35.8,367.5,1,307.2,35.8,29.4,196.2,0.1,213.1V637.4l29.3,16.9L310.6,816.7l56.9,32.8,56.9-32.8L705.6,654.3l29.3-16.9V213.1Zm0,425.3L367.5,816.7,29.4,621.5V231L367.5,35.8h0L705.6,231V621.5Z"/><path class="cls-9" d="M367,633.9l0.9-.9h-0.3Z"/><path class="cls-10" d="M96.5,504.8h14.1V618.5H96.5V504.8Z"/><path class="cls-10" d="M194,597.3c0,8,.2,15,0.6,21.1H182.1l-0.8-12.6H181a29.1,29.1,0,0,1-25.6,14.4c-12.2,0-26.7-6.7-26.7-33.9V541h14.1v42.9c0,14.7,4.5,24.6,17.3,24.6,9.4,0,16-6.6,18.6-12.8a20.6,20.6,0,0,0,1.3-7.2V541H194v56.3Z"/><path class="cls-10" d="M212.2,504.8h13.9v48.6h0.3c5-8.6,13.9-14.2,26.4-14.2,19.2,0,32.8,16,32.6,39.5,0,27.7-17.4,41.4-34.7,41.4-11.2,0-20.2-4.3-25.9-14.6h-0.5l-0.6,12.8H211.6c0.3-5.3.6-13.1,0.6-20V504.8Zm13.9,82.6a26.3,26.3,0,0,0,.6,5.1c2.7,9.8,10.9,16.5,21.1,16.5,14.7,0,23.5-12,23.5-29.8,0-15.5-8-28.8-23-28.8-9.6,0-18.6,6.6-21.4,17.3a27.8,27.8,0,0,0-.8,5.8v13.9Z"/><path class="cls-10" d="M298.1,565.2c0-9.1-.2-17-0.6-24.2h12.3l0.5,15.2h0.6c3.5-10.4,12-17,21.4-17a15.2,15.2,0,0,1,4,.5V553a21.1,21.1,0,0,0-4.8-.5c-9.9,0-17,7.5-18.9,18.1a39.6,39.6,0,0,0-.6,6.6v41.3H298.1V565.2Z"/><path class="cls-10" d="M361.7,519.3c0.2,4.8-3.4,8.6-9,8.6a8.4,8.4,0,0,1-8.5-8.6,8.6,8.6,0,0,1,8.8-8.8C358.3,510.4,361.7,514.3,361.7,519.3ZM346,618.5V541h14.1v77.4H346Z"/><path class="cls-10" d="M445.2,504.8v93.6c0,6.9.2,14.7,0.6,20H433.2L432.5,605h-0.3c-4.3,8.6-13.8,15.2-26.4,15.2-18.7,0-33.1-15.8-33.1-39.4-0.2-25.8,15.8-41.6,34.7-41.6,11.8,0,19.8,5.6,23.4,11.8h0.3V504.8h14.1Zm-14.1,67.7a24.9,24.9,0,0,0-.6-5.9,20.7,20.7,0,0,0-20.3-16.3c-14.6,0-23.2,12.8-23.2,29.9s7.7,28.6,22.9,28.6c9.4,0,18.1-6.2,20.6-16.8a24.5,24.5,0,0,0,.6-6.1V572.5Z"/><path class="cls-10" d="M517.8,599.9a109,109,0,0,0,1.3,18.6H506.3l-1.1-9.8h-0.5c-4.3,6.1-12.6,11.5-23.7,11.5-15.7,0-23.7-11-23.7-22.2,0-18.7,16.6-29,46.6-28.8v-1.6c0-6.4-1.8-17.9-17.6-17.9a38.6,38.6,0,0,0-20.2,5.8l-3.2-9.3c6.4-4.2,15.7-6.9,25.4-6.9,23.7,0,29.4,16.2,29.4,31.7v29Zm-13.6-21c-15.4-.3-32.8,2.4-32.8,17.4,0,9.1,6.1,13.4,13.3,13.4a19.3,19.3,0,0,0,18.7-13,14.7,14.7,0,0,0,.8-4.5V578.9Z"/><path class="cls-10" d="M551.7,522.4V541h20.2v10.7H551.7v41.8c0,9.6,2.7,15,10.6,15a26.3,26.3,0,0,0,8.2-1l0.6,10.6a33.9,33.9,0,0,1-12.5,2.1c-6.6,0-11.8-2.2-15.2-6.1s-5.4-11-5.4-20.2V551.7H526V541h12V526.8Z"/><path class="cls-10" d="M589.5,582.3c0.3,19,12.5,26.9,26.6,26.9,10.1,0,16.2-1.8,21.4-4l2.4,10.1c-5,2.2-13.4,5-25.8,5-23.8,0-38.1-15.8-38.1-39.2s13.8-41.8,36.3-41.8c25.3,0,32,22.2,32,36.5a53.1,53.1,0,0,1-.5,6.6H589.5Zm41.3-10.1c0.2-9-3.7-22.9-19.5-22.9-14.2,0-20.5,13.1-21.6,22.9h41.1Z"/><path class="cls-10" d="M365.5,797.3l4.5,4.5,2.7,2.9h0.1c-0.4-1.2-.7-2.5-1-3.9l-1.4-6.3,1.6-.9,4.7,4.3,2.9,2.9h0.1a36.6,36.6,0,0,1-1.2-3.9l-1.6-6.1,1.9-1.1,2.7,12.4-1.7,1-4.5-4.1a40.7,40.7,0,0,1-2.9-2.9h0a35.6,35.6,0,0,1,1.1,4l1.2,5.9-1.7,1-9.2-8.6Z"/><path class="cls-10" d="M381.7,787.9l4.5,4.5,2.7,2.9h0.1c-0.4-1.2-.7-2.5-1-3.9l-1.4-6.3,1.6-.9,4.7,4.3,2.9,2.9h0.1a36.3,36.3,0,0,1-1.2-3.9l-1.6-6.1,1.9-1.1,2.7,12.4-1.7,1-4.5-4.1a40.5,40.5,0,0,1-2.9-2.9h0a35.3,35.3,0,0,1,1.1,4l1.2,5.9-1.7,1-9.2-8.6Z"/><path class="cls-10" d="M397.8,778.5l4.5,4.5,2.7,2.9h0.1c-0.4-1.2-.7-2.5-1-3.9l-1.4-6.3,1.6-.9L409,779l2.9,2.9H412a36.4,36.4,0,0,1-1.2-3.9l-1.6-6.1,1.9-1.1,2.7,12.4-1.7,1-4.5-4.1a40.7,40.7,0,0,1-2.9-2.9h0a35.2,35.2,0,0,1,1.1,4l1.2,5.9-1.7,1-9.2-8.6Z"/><path class="cls-10" d="M419.2,780.4a1.6,1.6,0,1,1,.5-2.1,1.5,1.5,0,0,1-.5,2.1h0Z"/><path class="cls-10" d="M418.5,770.8l-2-3.2,1.7-1,1.3,2h0.1a3.6,3.6,0,0,1,1.6-4l0.6-.2,1,1.8-0.7.3a3.1,3.1,0,0,0-1.1,3.9l0.4,0.9,3.2,5.6-1.9,1.1Z"/><path class="cls-10" d="M428.4,772.1a5.8,5.8,0,0,0,2.9-.7c1.4-.8,1.6-1.9,1.1-2.7s-1.4-1.1-3.1-.8-3.8-.1-4.5-1.4-0.4-3.9,1.8-5.2a6,6,0,0,1,2.9-.8l0.3,1.7a4.7,4.7,0,0,0-2.5.6,1.8,1.8,0,0,0-.9,2.4c0.5,0.9,1.4.9,3,.6s3.7,0,4.6,1.6,0.4,4-2.1,5.4a6.9,6.9,0,0,1-3.4,1Z"/><path class="cls-10" d="M433.1,754.6l1.5,2.5,2.7-1.6,0.8,1.4-2.7,1.6,3.3,5.6c0.8,1.3,1.6,1.8,2.6,1.2l1-.8,0.9,1.4a5.3,5.3,0,0,1-1.5,1.3,3.1,3.1,0,0,1-2.5.4,4.5,4.5,0,0,1-2.3-2.3l-3.3-5.7-1.6.9-0.8-1.4,1.6-.9-1.1-1.9Z"/><path class="cls-10" d="M452.6,756.8l1.7,2.8-1.7,1-1.1-1.6h0a4.6,4.6,0,0,1-2.3,4c-1.6,1-4.1,1.2-6.3-2.5l-3.6-6.1,1.9-1.1,3.4,5.8c1.2,2,2.5,3,4.3,2a3.2,3.2,0,0,0,1.5-3.2,3.2,3.2,0,0,0-.4-1.1l-3.7-6.4,1.9-1.1Z"/><path class="cls-10" d="M457.5,737.2l7.4,12.6,1.7,2.7-1.7,1-1.1-1.8h0a4.5,4.5,0,0,1-2.4,4.1c-2.5,1.5-5.7.5-7.6-2.7s-1.1-6.9,1.4-8.3a4,4,0,0,1,4.1-.2h0l-3.6-6.2Zm3.4,10.2-0.6-.7a3.2,3.2,0,0,0-4-.6c-2,1.1-2.1,3.6-.8,5.9s3.3,3.3,5.3,2.1a3.3,3.3,0,0,0,1.5-3.9,3.8,3.8,0,0,0-.4-0.9Z"/><path class="cls-10" d="M463.9,736.1a1.4,1.4,0,0,1-2.4,1.4,1.3,1.3,0,0,1,.5-1.9A1.3,1.3,0,0,1,463.9,736.1Zm5.7,14.6-6.1-10.5,1.9-1.1,6.1,10.5Z"/><path class="cls-10" d="M481,736.9c2.3,3.9.6,7.1-2,8.6s-6.2.8-8.1-2.5-0.9-6.9,2-8.6S479.1,733.7,481,736.9Zm-8.2,4.9c1.3,2.3,3.7,3.2,5.5,2.2s2.2-3.6.8-5.9-3.2-3.5-5.5-2.2S471.6,739.9,472.8,741.9Z"/><path class="cls-10" d="M486.9,740.9a1.6,1.6,0,1,1,.5-2.1,1.5,1.5,0,0,1-.5,2.1h0Z"/><path class="cls-10" d="M497.7,733.8a8,8,0,0,1-2.6,2.4c-3.2,1.8-6.5.9-8.3-2.3a6.1,6.1,0,0,1,2.4-8.8,7.3,7.3,0,0,1,2.9-1l0.4,1.7a5.1,5.1,0,0,0-2.5.8c-2.4,1.4-2.7,3.9-1.4,6.1s3.8,3,5.9,1.8a6.2,6.2,0,0,0,2-1.9Z"/><path class="cls-10" d="M506.4,722.2c2.3,3.9.6,7.1-2,8.6s-6.2.8-8.1-2.5-0.9-6.9,2-8.6S504.5,719,506.4,722.2Zm-8.2,4.9c1.3,2.3,3.7,3.2,5.5,2.2s2.2-3.6.8-5.9-3.2-3.5-5.5-2.2S497,725.1,498.1,727.1Z"/><path class="cls-10" d="M507.4,718.5l-1.7-2.8,1.7-1,1.1,1.6h0.1a4.2,4.2,0,0,1,2.2-3.8,3.6,3.6,0,0,1,4.2.4h0a5,5,0,0,1,.4-2,4.1,4.1,0,0,1,1.9-2.1c1.4-.8,4-1.1,6.1,2.5l3.6,6.2-1.9,1.1-3.4-5.9c-1.2-2-2.6-2.8-4.1-1.9a2.8,2.8,0,0,0-1.2,3,3.6,3.6,0,0,0,.4,1l3.8,6.5-1.9,1.1-3.6-6.3c-1-1.7-2.4-2.4-3.9-1.6a3,3,0,0,0-1.2,3.3,3.1,3.1,0,0,0,.4,1l3.7,6.3-1.9,1.1Z"/><rect class="cls-8" x="266.5" y="258.9" width="230.5" height="190.4"/><path class="cls-8" d="M487.7,511.8h-0.4a0.3,0.3,0,0,1-.1-0.5h0.4A0.8,0.8,0,0,1,487.7,511.8Z"/><path class="cls-8" d="M499.9,451.9c0-.3,0-0.6,0-0.9q0-25.9,0-51.8,0-23.5,0-47,0-19.6,0-39.2,0-25.1-.1-50.1,0-21.3,0-42.5c0-1.9,0-2-2-2H468.5c-1.1,0-1.6-.4-1.6-1.5s0-.6,0-1c0-4-.1-8.1,0-12.1,0-1.3-.4-1.7-1.6-1.5a18.8,18.8,0,0,1-3.3,0c-2.3-.2-2.1.3-2.1,2,0,4.1,0,8.2,0,12.4,0,1.1-.1,1.7-1.5,1.7s-2.8,0-2.8-2.9c0-.3,0-0.6,0-1,0-3.4,0-6.8,0-10.2s0-2-2.1-2h-3.6a1.1,1.1,0,0,0-1.4,1.4c0.1,1.4,0,2.9,0,4.3,0,3,0,6,0,9,0,1-.3,1.5-1.3,1.4H316.7c-2.4,0-2.4,0-2.4-2.5,0-.3,0-0.6,0-0.9,0-3.6,0-7.3,0-10.9,0-1.2-.2-1.8-1.6-1.7a31,31,0,0,1-4.3,0,1,1,0,0,0-1.2,1.2,10.1,10.1,0,0,1,0,1.2c0,4,0,7.9,0,11.9,0,0.6.2,1.5-.6,1.7a5.1,5.1,0,0,1-3.3,0c-0.9-.4-0.5-1.4-0.5-2.2,0-4,0-7.9,0-11.9,0-1.9-.1-1.9-1.8-1.9h-3.6c-1.2-.1-1.7.3-1.6,1.6,0.1,4,0,7.9,0,11.9s0,2.6-2.6,2.6H265.5c-2,0-1.9,0-2.4,1.8a7.6,7.6,0,0,0-.2,2.1c0,1.7,0,3.5,0,5.2q0,23,0,46.1,0,28.6,0,57.3,0,9.5,0,19l4.9-4.8,1.2-.9q0-11.6,0-23.2c0-11.8-.1-23.6-0.1-35.4,0-3.5-.7-3.1,3.2-3.1H493.2c0.5,0,.6.4,0.6,1s0.1,2.8.1,4.3q0,23.6-.1,47.3t0,49.6c0,4.9,0,9.8,0,14.7,0,1.8-.1,1.9-1.8,1.9H446.9c-2.1,0-2.1,0-2.1,2.1,0,6.2,0,12.4,0,18.5q0,12.7,0,25.4c0,2,0,2-2.1,2H327.4a5.9,5.9,0,0,1-.9,1.4,23.4,23.4,0,0,1-6.2,4.6h176C499.3,455.3,499.7,454.9,499.9,451.9Zm-8.2-2.7H456.1a1.1,1.1,0,0,1-1-.4l38.5-38.5a5.4,5.4,0,0,1,.4,3c0,11.2,0,22.5,0,33.7C493.9,449.2,493.9,449.2,491.7,449.2Z"/><path class="cls-8" d="M381.6,401.6H367.5c-1.6,0-2.5-.2-2.4-1.5,0.1-6.4.1-12.8,0-19.2,0-1,.4-1.4,2-1.4h29.4c1.6,0,2,.4,2,1.4q-0.1,9.7,0,19.3c0,1.1-.7,1.3-2.2,1.3H381.6Z"/><path class="cls-8" d="M336.8,379.7h13.9c1.9,0,2.5.4,2.5,1.7q-0.1,9.3,0,18.6c0,1.3-.7,1.7-2.5,1.7H322.4c-1.9,0-2.5-.4-2.5-1.7q0.1-9.3,0-18.6c0-1.3.7-1.7,2.5-1.7h14.4Z"/><path class="cls-8" d="M381.7,371.8H367.3c-1.6,0-2.2-.3-2.2-1.4q0.1-9.6,0-19.2c0-1.1.6-1.4,2.2-1.4h29.1c1.5,0,2.1.3,2.1,1.3q-0.1,9.7,0,19.3c0,1-.6,1.3-2.1,1.3H381.7Z"/><path class="cls-8" d="M353.2,360.9c0,3.1-.1,6.2,0,9.3,0,1.2-.6,1.7-2.5,1.7H322.4c-1.9,0-2.6-.4-2.5-1.7q0.1-9.3,0-18.6c0-1.2.6-1.7,2.5-1.7h28.3c1.9,0,2.6.4,2.5,1.7C353.1,354.7,353.2,357.8,353.2,360.9Z"/><path class="cls-8" d="M381.9,320.1h14.4c1.6,0,2.2.3,2.2,1.4q-0.1,9.6,0,19.2c0,1.1-.6,1.4-2.2,1.4H367.1c-1.5,0-2.1-.3-2.1-1.3q0.1-9.7,0-19.3c0-1,.6-1.3,2.1-1.3h14.7Z"/><path class="cls-8" d="M336.7,320.1h13.9c2.1,0,2.7.5,2.6,1.8q-0.1,9.2,0,18.4c0,1.3-.7,1.8-2.7,1.7h-28c-2,0-2.7-.4-2.7-1.8q0.1-9.2,0-18.4c0-1.3.7-1.8,2.7-1.7h14.2Z"/><path class="cls-8" d="M426.6,379.7h13.9c1.9,0,2.5.4,2.5,1.7q-0.1,9.3,0,18.6c0,1.3-.7,1.7-2.5,1.7H412.2c-1.9,0-2.5-.4-2.5-1.7q0.1-9.3,0-18.6c0-1.3.7-1.7,2.5-1.7h14.4Z"/><path class="cls-8" d="M443,360.9c0,3.1-.1,6.2,0,9.3,0,1.2-.6,1.7-2.5,1.7H412.2c-1.9,0-2.6-.4-2.5-1.7q0.1-9.3,0-18.6c0-1.2.6-1.7,2.5-1.7h28.3c1.9,0,2.6.4,2.5,1.7C442.9,354.7,443,357.8,443,360.9Z"/><path class="cls-8" d="M426.5,320.1h13.9c2.1,0,2.7.5,2.6,1.8q-0.1,9.2,0,18.4c0,1.3-.7,1.8-2.7,1.7h-28c-2,0-2.7-.4-2.7-1.8q0.1-9.2,0-18.4c0-1.3.7-1.8,2.7-1.7h14.2Z"/><circle class="cls-8" cx="286.1" cy="404.4" r="60.7" transform="matrix(0.26, -0.97, 0.97, 0.26, -178.53, 576.17)"/><polygon class="cls-8" points="237.5 374.8 237.5 374.8 237.5 374.8 237.5 374.8"/><path class="cls-8" d="M349,408.8a62.5,62.5,0,1,0-65.6,59A62.3,62.3,0,0,0,349,408.8Zm-6.9,12.7a56.8,56.8,0,0,1-5.7,13.2l-0.3.5h-0.2a1.4,1.4,0,0,0-.8-1l-5-3-0.6-.3a0.5,0.5,0,0,0-.7.3,0.5,0.5,0,0,0,.1.6l0.4,0.4,5.2,3.2a1.2,1.2,0,0,0,1.3,0h0v0.4a0.5,0.5,0,0,0-.3.4h0a79.8,79.8,0,0,1-5,6.8A57.8,57.8,0,0,1,316.3,455l-0.4.2c-0.4.3-.6,0.1-0.8-0.3l-2.1-4-0.6-1.1a0.7,0.7,0,0,0-1-.3,0.6,0.6,0,0,0-.1.9l2.1,4.4c0.7,1.5,1,1.2-.8,2.1a58,58,0,0,1-20.8,6l-4.5.2c-1.2,0-1.2,0-1.2-1.2l0.3-6.3c0-.9-0.1-1.3-0.6-1.2s-0.6.7-.6,1.2c-0.1,2.2-.2,4.4-0.4,6.6s-0.1.9-1,.9A56.1,56.1,0,0,1,265,459a57.5,57.5,0,0,1-7.7-3.8l0.3-.4,3.7-6c0.4-.7.4-1.1,0-1.3s-0.8.3-1,.7l-3.6,5.9-0.3.5a58.7,58.7,0,0,1-6.1-4.3,56.7,56.7,0,0,1-13.4-15.6c-0.4-.8-0.4-0.8.3-1.2l5.8-3.4,0.8-.5a0.5,0.5,0,0,0,.2-0.8,0.6,0.6,0,0,0-.8-0.2l-0.8.5-5.5,3.2c-1,.6-1,0.6-1.5-0.4a60.6,60.6,0,0,1-3.8-9.4,59.4,59.4,0,0,1-2.5-12.7c-0.1-1.5-.1-3-0.2-4.5s0.3-.7.8-0.7l5.7,0.2H236c0.7,0,1.1-.2,1-0.6s-0.6-.6-1-0.7h-1.6c-1.6.1-3.2-.1-4.7-0.1s-0.8-.1-0.8-0.9a42.8,42.8,0,0,1,.6-6,56.3,56.3,0,0,1,3-11.6,57.8,57.8,0,0,1,4-8.5l0.2-.4,0.2-.3,1.1,0.6,5.2,3.2c0.4,0.2.9,0.6,1.2,0s-0.2-.8-0.6-1l-5.1-3.1-1.2-.7h0a0.9,0.9,0,0,1,.3-0.5,84.3,84.3,0,0,1,5.4-7.1,57.7,57.7,0,0,1,14.5-11.9c0.7-.4.7-0.4,1.1,0.3l3.1,5.4c0.2,0.4.4,1,1.1,0.8s0.4-.6,0-1.4l-3-5.4c-0.4-.8-0.4-0.8.4-1.2a59.4,59.4,0,0,1,9.1-3.7,58.4,58.4,0,0,1,12.6-2.5l5-.2c0.7,0,.8.1,0.8,0.8s-0.2,3.9-.2,5.9a2.9,2.9,0,0,0,.1,1,0.6,0.6,0,0,0,.6.5,0.6,0.6,0,0,0,.6-0.5,3.9,3.9,0,0,0,.1-0.9c0-1.9.1-3.8,0.1-5.8s0.1-1,1.1-.9a56.9,56.9,0,0,1,21.6,5.6c1.6,0.8,3.2,1.7,4.8,2.6h-0.1l-0.8,1.4-3,4.9a1.5,1.5,0,0,0-.3.8,0.5,0.5,0,0,0,.6.6,0.9,0.9,0,0,0,.7-0.6l3.9-6.5h0.1a57,57,0,0,1,17.4,16.9l1.8,2.9c0.5,0.9.5,0.9-.3,1.4l-4.7,2.7-0.9.6a0.5,0.5,0,0,0-.1.7,0.5,0.5,0,0,0,.7.2l0.6-.3,4.7-2.7c1.2-.7,1-0.8,1.7.6a57.8,57.8,0,0,1,6.1,24.9c0,2.3.2,1.9-1.8,1.9h-5.4a0.5,0.5,0,0,0-.5.6,0.5,0.5,0,0,0,.5.5h0.9l5.3,0.2c0.9,0,.9.1,0.9,1A53.9,53.9,0,0,1,342.1,421.5Z"/><path class="cls-8" d="M321.8,426.6a8.3,8.3,0,0,0-2.2-1.3h0a9.5,9.5,0,0,0-2.3-1.5,13.7,13.7,0,0,0-2.4-1.5h0l-0.2-.2h0a0.5,0.5,0,0,0-.4-0.3h0a0.5,0.5,0,0,0-.4-0.3,0.5,0.5,0,0,0-.4-0.3,0.5,0.5,0,0,0-.4-0.3l-0.2-.2h0a51.8,51.8,0,0,0-.9-0.5,163.4,163.4,0,0,0-.9-0.5l-0.2-.2h0a0.5,0.5,0,0,0-.4-0.3,0.5,0.5,0,0,0-.4-0.3l-0.2-.2,0.2,0.2h0l-0.2-.2h0a0.5,0.5,0,0,0-.4-0.3h0a33.4,33.4,0,0,0-3.6-2.4l-14.7-9.4-2.2-1.4a0.7,0.7,0,0,1-.3-1.1l0.3-.5,5.6-9.9h0a0.4,0.4,0,0,0,.2-0.5h0v-0.2a0.3,0.3,0,0,0,.2-0.3h0v-0.2a0.4,0.4,0,0,0,.2-0.3h0a0.5,0.5,0,0,0,.3-0.4h0a0.4,0.4,0,0,0,.2-0.4h0v-0.2a20.9,20.9,0,0,0,2-3.4,6.5,6.5,0,0,0,1-1.8h0l0.5-.8a1.9,1.9,0,0,0,.4-1.1,3.5,3.5,0,0,0-1,1.7h0a5.8,5.8,0,0,0-1.2,1.8h0a21.8,21.8,0,0,0-2.1,3.3h0a0.3,0.3,0,0,0-.2.2l0.2-.2h0l-0.2.2h0a0.4,0.4,0,0,0-.3.4,0.5,0.5,0,0,0-.3.4,0.2,0.2,0,0,0-.2.2l0.2-.2h0l-0.2.2v0.2a0.3,0.3,0,0,0-.2.3h0l-0.7.9-6.1,9.5c-0.6.9-.6,0.8-1.5,0.3l-0.6-.4c-0.8-.5-0.8-0.5-1.3.3s-0.8,1.2.5,1.9l0.4,0.2c0.7,0.4.7,0.4,0.3,1l-0.3.5c-0.5.7-.5,0.7,0.3,1.2s0.7,0.4,1.2-.3l0.3-.5a0.6,0.6,0,0,1,1-.3l2.1,1.2,12.5,7.2c2.2,1.3,4.4,2.7,6.7,3.8l0.3,0.2h0.2l0.3,0.2h0a0.5,0.5,0,0,0,.4.3h0a0.8,0.8,0,0,0,.7.3l0.2,0.2-0.2-.2h0l0.2,0.2h0.2l0.3,0.2h0.1l0.3,0.2h0a0.5,0.5,0,0,0,.4.3,0.4,0.4,0,0,0,.5.2h0.2l0.3,0.2h0.1l0.3,0.2h0a0.5,0.5,0,0,0,.4.3h0a0.5,0.5,0,0,0,.4.3h0a18.3,18.3,0,0,0,2.7,1.5l2,1.3a18.1,18.1,0,0,0,2.7,1.5,3.8,3.8,0,0,0,2.2,1l-2.1-1.3h0Z"/><path class="cls-8" d="M308.7,419.3l0.3,0.2Z"/><path class="cls-8" d="M314.9,422.3a0.3,0.3,0,0,0-.2-0.2Z"/><rect class="cls-6" x="261.5" y="249.9" width="230.5" height="190.4"/><path class="cls-10" d="M482.7,502.8h-0.4a0.3,0.3,0,0,1-.1-0.5h0.4A0.8,0.8,0,0,1,482.7,502.8Z"/><path class="cls-10" d="M494.9,442.9c0-.3,0-0.6,0-0.9q0-25.9,0-51.8,0-23.5,0-47,0-19.6,0-39.2,0-25.1-.1-50.1,0-21.3,0-42.5c0-1.9,0-2-2-2H463.5c-1.1,0-1.6-.4-1.6-1.5s0-.6,0-1c0-4-.1-8.1,0-12.1,0-1.3-.4-1.7-1.6-1.5a18.8,18.8,0,0,1-3.3,0c-2.3-.2-2.1.3-2.1,2,0,4.1,0,8.2,0,12.4,0,1.1-.1,1.7-1.5,1.7s-2.8,0-2.8-2.9c0-.3,0-0.6,0-1,0-3.4,0-6.8,0-10.2s0-2-2.1-2h-3.6a1.1,1.1,0,0,0-1.4,1.4c0.1,1.4,0,2.9,0,4.3,0,3,0,6,0,9,0,1-.3,1.5-1.3,1.4H311.7c-2.4,0-2.4,0-2.4-2.5,0-.3,0-0.6,0-0.9,0-3.6,0-7.3,0-10.9,0-1.2-.2-1.8-1.6-1.7a31,31,0,0,1-4.3,0,1,1,0,0,0-1.2,1.2,10.1,10.1,0,0,1,0,1.2c0,4,0,7.9,0,11.9,0,0.6.2,1.5-.6,1.7a5.1,5.1,0,0,1-3.3,0c-0.9-.4-0.5-1.4-0.5-2.2,0-4,0-7.9,0-11.9,0-1.9-.1-1.9-1.8-1.9h-3.6c-1.2-.1-1.7.3-1.6,1.6,0.1,4,0,7.9,0,11.9s0,2.6-2.6,2.6H260.5c-2,0-1.9,0-2.4,1.8a7.6,7.6,0,0,0-.2,2.1c0,1.7,0,3.5,0,5.2q0,23,0,46.1,0,28.6,0,57.3,0,9.5,0,19l4.9-4.8,1.2-.9q0-11.6,0-23.2c0-11.8-.1-23.6-0.1-35.4,0-3.5-.7-3.1,3.2-3.1H488.2c0.5,0,.6.4,0.6,1s0.1,2.8.1,4.3q0,23.6-.1,47.3t0,49.6c0,4.9,0,9.8,0,14.7,0,1.8-.1,1.9-1.8,1.9H441.9c-2.1,0-2.1,0-2.1,2.1,0,6.2,0,12.4,0,18.5q0,12.7,0,25.4c0,2,0,2-2.1,2H322.4a5.9,5.9,0,0,1-.9,1.4,23.4,23.4,0,0,1-6.2,4.6h176C494.3,446.3,494.7,445.9,494.9,442.9Zm-8.2-2.7H451.1a1.1,1.1,0,0,1-1-.4l38.5-38.5a5.4,5.4,0,0,1,.4,3c0,11.2,0,22.5,0,33.7C488.9,440.2,488.9,440.2,486.7,440.2Z"/><path class="cls-10" d="M376.6,392.6H362.5c-1.6,0-2.5-.2-2.4-1.5,0.1-6.4.1-12.8,0-19.2,0-1,.4-1.4,2-1.4h29.4c1.6,0,2,.4,2,1.4q-0.1,9.7,0,19.3c0,1.1-.7,1.3-2.2,1.3H376.6Z"/><path class="cls-10" d="M331.8,370.7h13.9c1.9,0,2.5.4,2.5,1.7q-0.1,9.3,0,18.6c0,1.3-.7,1.7-2.5,1.7H317.4c-1.9,0-2.5-.4-2.5-1.7q0.1-9.3,0-18.6c0-1.3.7-1.7,2.5-1.7h14.4Z"/><path class="cls-10" d="M376.7,362.8H362.3c-1.6,0-2.2-.3-2.2-1.4q0.1-9.6,0-19.2c0-1.1.6-1.4,2.2-1.4h29.1c1.5,0,2.1.3,2.1,1.3q-0.1,9.7,0,19.3c0,1-.6,1.3-2.1,1.3H376.7Z"/><path class="cls-10" d="M348.2,351.9c0,3.1-.1,6.2,0,9.3,0,1.2-.6,1.7-2.5,1.7H317.4c-1.9,0-2.6-.4-2.5-1.7q0.1-9.3,0-18.6c0-1.2.6-1.7,2.5-1.7h28.3c1.9,0,2.6.4,2.5,1.7C348.1,345.7,348.2,348.8,348.2,351.9Z"/><path class="cls-10" d="M376.9,311.1h14.4c1.6,0,2.2.3,2.2,1.4q-0.1,9.6,0,19.2c0,1.1-.6,1.4-2.2,1.4H362.1c-1.5,0-2.1-.3-2.1-1.3q0.1-9.7,0-19.3c0-1,.6-1.3,2.1-1.3h14.7Z"/><path class="cls-10" d="M331.7,311.1h13.9c2.1,0,2.7.5,2.6,1.8q-0.1,9.2,0,18.4c0,1.3-.7,1.8-2.7,1.7h-28c-2,0-2.7-.4-2.7-1.8q0.1-9.2,0-18.4c0-1.3.7-1.8,2.7-1.7h14.2Z"/><path class="cls-10" d="M421.6,370.7h13.9c1.9,0,2.5.4,2.5,1.7q-0.1,9.3,0,18.6c0,1.3-.7,1.7-2.5,1.7H407.2c-1.9,0-2.5-.4-2.5-1.7q0.1-9.3,0-18.6c0-1.3.7-1.7,2.5-1.7h14.4Z"/><path class="cls-10" d="M438,351.9c0,3.1-.1,6.2,0,9.3,0,1.2-.6,1.7-2.5,1.7H407.2c-1.9,0-2.6-.4-2.5-1.7q0.1-9.3,0-18.6c0-1.2.6-1.7,2.5-1.7h28.3c1.9,0,2.6.4,2.5,1.7C437.9,345.7,438,348.8,438,351.9Z"/><path class="cls-10" d="M421.5,311.1h13.9c2.1,0,2.7.5,2.6,1.8q-0.1,9.2,0,18.4c0,1.3-.7,1.8-2.7,1.7h-28c-2,0-2.7-.4-2.7-1.8q0.1-9.2,0-18.4c0-1.3.7-1.8,2.7-1.7h14.2Z"/><circle class="cls-6" cx="281.1" cy="395.4" r="60.7" transform="matrix(0.26, -0.97, 0.97, 0.26, -173.54, 564.67)"/><polygon class="cls-10" points="232.5 365.8 232.5 365.8 232.5 365.8 232.5 365.8"/><path class="cls-10" d="M344,399.8a62.5,62.5,0,1,0-65.6,59A62.3,62.3,0,0,0,344,399.8Zm-6.9,12.7a56.8,56.8,0,0,1-5.7,13.2l-0.3.5h-0.2a1.4,1.4,0,0,0-.8-1l-5-3-0.6-.3a0.5,0.5,0,0,0-.7.3,0.5,0.5,0,0,0,.1.6l0.4,0.4,5.2,3.2a1.2,1.2,0,0,0,1.3,0h0v0.4a0.5,0.5,0,0,0-.3.4h0a79.8,79.8,0,0,1-5,6.8A57.8,57.8,0,0,1,311.3,446l-0.4.2c-0.4.3-.6,0.1-0.8-0.3l-2.1-4-0.6-1.1a0.7,0.7,0,0,0-1-.3,0.6,0.6,0,0,0-.1.9l2.1,4.4c0.7,1.5,1,1.2-.8,2.1a58,58,0,0,1-20.8,6l-4.5.2c-1.2,0-1.2,0-1.2-1.2l0.3-6.3c0-.9-0.1-1.3-0.6-1.2s-0.6.7-.6,1.2c-0.1,2.2-.2,4.4-0.4,6.6s-0.1.9-1,.9A56.1,56.1,0,0,1,260,450a57.5,57.5,0,0,1-7.7-3.8l0.3-.4,3.7-6c0.4-.7.4-1.1,0-1.3s-0.8.3-1,.7l-3.6,5.9-0.3.5a58.7,58.7,0,0,1-6.1-4.3,56.7,56.7,0,0,1-13.4-15.6c-0.4-.8-0.4-0.8.3-1.2l5.8-3.4,0.8-.5a0.5,0.5,0,0,0,.2-0.8,0.6,0.6,0,0,0-.8-0.2l-0.8.5-5.5,3.2c-1,.6-1,0.6-1.5-0.4a60.6,60.6,0,0,1-3.8-9.4,59.4,59.4,0,0,1-2.5-12.7c-0.1-1.5-.1-3-0.2-4.5s0.3-.7.8-0.7l5.7,0.2H231c0.7,0,1.1-.2,1-0.6s-0.6-.6-1-0.7h-1.6c-1.6.1-3.2-.1-4.7-0.1s-0.8-.1-0.8-0.9a42.8,42.8,0,0,1,.6-6,56.3,56.3,0,0,1,3-11.6,57.8,57.8,0,0,1,4-8.5l0.2-.4,0.2-.3,1.1,0.6,5.2,3.2c0.4,0.2.9,0.6,1.2,0s-0.2-.8-0.6-1l-5.1-3.1-1.2-.7h0a0.9,0.9,0,0,1,.3-0.5,84.3,84.3,0,0,1,5.4-7.1,57.7,57.7,0,0,1,14.5-11.9c0.7-.4.7-0.4,1.1,0.3l3.1,5.4c0.2,0.4.4,1,1.1,0.8s0.4-.6,0-1.4l-3-5.4c-0.4-.8-0.4-0.8.4-1.2a59.4,59.4,0,0,1,9.1-3.7,58.4,58.4,0,0,1,12.6-2.5l5-.2c0.7,0,.8.1,0.8,0.8s-0.2,3.9-.2,5.9a2.9,2.9,0,0,0,.1,1,0.6,0.6,0,0,0,.6.5,0.6,0.6,0,0,0,.6-0.5,3.9,3.9,0,0,0,.1-0.9c0-1.9.1-3.8,0.1-5.8s0.1-1,1.1-.9a56.9,56.9,0,0,1,21.6,5.6c1.6,0.8,3.2,1.7,4.8,2.6h-0.1l-0.8,1.4-3,4.9a1.5,1.5,0,0,0-.3.8,0.5,0.5,0,0,0,.6.6,0.9,0.9,0,0,0,.7-0.6l3.9-6.5h0.1a57,57,0,0,1,17.4,16.9l1.8,2.9c0.5,0.9.5,0.9-.3,1.4l-4.7,2.7-0.9.6a0.5,0.5,0,0,0-.1.7,0.5,0.5,0,0,0,.7.2l0.6-.3,4.7-2.7c1.2-.7,1-0.8,1.7.6a57.8,57.8,0,0,1,6.1,24.9c0,2.3.2,1.9-1.8,1.9h-5.4a0.5,0.5,0,0,0-.5.6,0.5,0.5,0,0,0,.5.5h0.9l5.3,0.2c0.9,0,.9.1,0.9,1A53.9,53.9,0,0,1,337.1,412.5Z"/><path class="cls-10" d="M316.8,417.6a8.3,8.3,0,0,0-2.2-1.3h0a9.5,9.5,0,0,0-2.3-1.5,13.7,13.7,0,0,0-2.4-1.5h0l-0.2-.2h0a0.5,0.5,0,0,0-.4-0.3h0a0.5,0.5,0,0,0-.4-0.3,0.5,0.5,0,0,0-.4-0.3,0.5,0.5,0,0,0-.4-0.3l-0.2-.2h0a51.8,51.8,0,0,0-.9-0.5,163.4,163.4,0,0,0-.9-0.5l-0.2-.2h0a0.5,0.5,0,0,0-.4-0.3,0.5,0.5,0,0,0-.4-0.3l-0.2-.2,0.2,0.2h0l-0.2-.2h0a0.5,0.5,0,0,0-.4-0.3h0a33.4,33.4,0,0,0-3.6-2.4l-14.7-9.4-2.2-1.4a0.7,0.7,0,0,1-.3-1.1l0.3-.5,5.6-9.9h0a0.4,0.4,0,0,0,.2-0.5h0v-0.2a0.3,0.3,0,0,0,.2-0.3h0v-0.2a0.4,0.4,0,0,0,.2-0.3h0a0.5,0.5,0,0,0,.3-0.4h0a0.4,0.4,0,0,0,.2-0.4h0v-0.2a20.9,20.9,0,0,0,2-3.4,6.5,6.5,0,0,0,1-1.8h0l0.5-.8a1.9,1.9,0,0,0,.4-1.1,3.5,3.5,0,0,0-1,1.7h0a5.8,5.8,0,0,0-1.2,1.8h0a21.8,21.8,0,0,0-2.1,3.3h0a0.3,0.3,0,0,0-.2.2l0.2-.2h0l-0.2.2h0a0.4,0.4,0,0,0-.3.4,0.5,0.5,0,0,0-.3.4,0.2,0.2,0,0,0-.2.2l0.2-.2h0l-0.2.2v0.2a0.3,0.3,0,0,0-.2.3h0l-0.7.9-6.1,9.5c-0.6.9-.6,0.8-1.5,0.3l-0.6-.4c-0.8-.5-0.8-0.5-1.3.3s-0.8,1.2.5,1.9l0.4,0.2c0.7,0.4.7,0.4,0.3,1l-0.3.5c-0.5.7-.5,0.7,0.3,1.2s0.7,0.4,1.2-.3l0.3-.5a0.6,0.6,0,0,1,1-.3l2.1,1.2,12.5,7.2c2.2,1.3,4.4,2.7,6.7,3.8l0.3,0.2h0.2l0.3,0.2h0a0.5,0.5,0,0,0,.4.3h0a0.8,0.8,0,0,0,.7.3l0.2,0.2-0.2-.2h0l0.2,0.2h0.2l0.3,0.2h0.1l0.3,0.2h0a0.5,0.5,0,0,0,.4.3,0.4,0.4,0,0,0,.5.2h0.2l0.3,0.2h0.1l0.3,0.2h0a0.5,0.5,0,0,0,.4.3h0a0.5,0.5,0,0,0,.4.3h0a18.3,18.3,0,0,0,2.7,1.5l2,1.3a18.1,18.1,0,0,0,2.7,1.5,3.8,3.8,0,0,0,2.2,1l-2.1-1.3h0Z"/><path class="cls-10" d="M303.7,410.3l0.3,0.2Z"/><path class="cls-10" d="M309.9,413.3a0.3,0.3,0,0,0-.2-0.2Z"/></svg>