<?xml version="1.0" encoding="utf-8"?>
<!-- Generator: Adobe Illustrator 23.0.1, SVG Export Plug-In . SVG Version: 6.00 Build 0)  -->
<svg version="1.1"
	 id="svg7307" inkscape:version="0.91 r13725" sodipodi:docname="hexagonal-sticker_template.svg" xmlns:cc="http://creativecommons.org/ns#" xmlns:dc="http://purl.org/dc/elements/1.1/" xmlns:inkscape="http://www.inkscape.org/namespaces/inkscape" xmlns:rdf="http://www.w3.org/1999/02/22-rdf-syntax-ns#" xmlns:sodipodi="http://sodipodi.sourceforge.net/DTD/sodipodi-0.dtd" xmlns:svg="http://www.w3.org/2000/svg"
	 xmlns="http://www.w3.org/2000/svg" xmlns:xlink="http://www.w3.org/1999/xlink" x="0px" y="0px" viewBox="0 0 125 144.9"
	 style="enable-background:new 0 0 125 144.9;" xml:space="preserve">
<style type="text/css">
	.st0{fill:#FFFFFF;}
	.st1{fill:#0D1319;}
	.st2{fill:#EE5C3B;}
	.st3{font-family:'MyriadPro-Regular';}
	.st4{font-size:12px;}
</style>
<sodipodi:namedview  bordercolor="#666666" borderopacity="1.0" fit-margin-bottom="1" fit-margin-left="1" fit-margin-right="1" fit-margin-top="1" id="base" inkscape:current-layer="text8556" inkscape:cx="400.51176" inkscape:cy="360.4576" inkscape:document-units="px" inkscape:guide-bbox="true" inkscape:pageopacity="0.0" inkscape:pageshadow="2" inkscape:window-height="1376" inkscape:window-maximized="1" inkscape:window-width="2560" inkscape:window-x="0" inkscape:window-y="27" inkscape:zoom="2.4121212" pagecolor="#ffffff" showgrid="false" showguides="true" units="in">
	<sodipodi:guide  id="guide8412" orientation="0,1" position="526.50754,705.18846"></sodipodi:guide>
	<sodipodi:guide  id="guide8414" orientation="0,1" position="562.98996,525.67841"></sodipodi:guide>
</sodipodi:namedview>
<g id="layer2" inkscape:groupmode="layer" inkscape:label="Preview Without Bleeds" sodipodi:insensitive="true">
	<path id="rect8416" inkscape:connector-curvature="0" class="st0" d="M-1236.1-586.6v195.3h180.1v-195.3H-1236.1z M-1146-560.5
		l61.7,35.8v71.5l-61.7,35.7l-61.7-35.8v-71.5L-1146-560.5z"/>
</g>
<g id="layer1_6_" transform="translate(178.67433,582.63783)" inkscape:groupmode="layer" inkscape:label="Artwork">
	
		<path id="path17178_6_" inkscape:flatsided="true" inkscape:randomized="0" inkscape:rounded="0" inkscape:transform-center-x="0.32645456" inkscape:transform-center-y="-1.460707" sodipodi:arg1="-0.52327829" sodipodi:arg2="0.0003204856" sodipodi:cx="121.90476" sodipodi:cy="126.57602" sodipodi:r1="103.56153" sodipodi:r2="103.56153" sodipodi:sides="6" sodipodi:type="star" class="st1" d="
		M-54.6-546.1v71.5l-61.7,35.7l-61.7-35.8v-71.5l61.7-35.7L-54.6-546.1z"/>
</g>
<path class="st2" d="M77.5,78.4l3.2-3.2l0,0l6,6l6-6l0,0l6-6l0,0l6-6l-6-6l0,0l-6-6l0,0l-6-6l-6,6l0,0l0,0l-6-6l0,0l0,0l6-6l-6-6
	l0,0l-6-6l0,0l-6-6l-18,18l6,6l0,0l0,0l-6,6l0,0l0,0l-6-6l-12,12l-6,6l6,6l0,0l6,6l0,0l6,6l6-6l6,6l-1.8,2l-4.1,4l6,6l0,0l6,6l0,0
	l6,6l6-6l6-6l0,0l6-6l-6-6L77.5,78.4z M56.7,51.3l6,6l6-6l6,6l-6,6l6,6l-6,6l-6-6l-6,6l-6-6l6-6l-6-6L56.7,51.3L56.7,51.3
	 M38.8,69.2l-6-6l6-6v0l0,0l6,6L38.8,69.2z M62.7,93.2l-6-6l6-6l0,0l6,6L62.7,93.2L62.7,93.2z M86.7,69.2L86.7,69.2l-6-6l6-6v0l0,0
	l6,6L86.7,69.2L86.7,69.2L86.7,69.2z"/>
<text transform="matrix(1 0 0 1 37.7172 120.2044)"><tspan x="0" y="0" class="st2 st3 st4">lyraproj</tspan><tspan x="38.4" y="0" class="st0 st3 st4">.io</tspan></text>
</svg>
