<?xml version="1.0" encoding="UTF-8" standalone="no"?>
<!-- Created with Inkscape (http://www.inkscape.org/) -->

<svg
   xmlns:dc="http://purl.org/dc/elements/1.1/"
   xmlns:cc="http://creativecommons.org/ns#"
   xmlns:rdf="http://www.w3.org/1999/02/22-rdf-syntax-ns#"
   xmlns:svg="http://www.w3.org/2000/svg"
   xmlns="http://www.w3.org/2000/svg"
   xmlns:sodipodi="http://sodipodi.sourceforge.net/DTD/sodipodi-0.dtd"
   xmlns:inkscape="http://www.inkscape.org/namespaces/inkscape"
   width="189"
   height="201"
   id="svg3105"
   version="1.1"
   inkscape:version="0.48.5 r10040"
   sodipodi:docname="magrittr.svg"
   inkscape:export-filename="/Users/stefan/Desktop/magrittr.png"
   inkscape:export-xdpi="90"
   inkscape:export-ydpi="90">
  <defs
     id="defs3107" />
  <sodipodi:namedview
     id="base"
     pagecolor="#ffffff"
     bordercolor="#666666"
     borderopacity="1.0"
     inkscape:pageopacity="0.0"
     inkscape:pageshadow="2"
     inkscape:zoom="3.2502213"
     inkscape:cx="96.218364"
     inkscape:cy="104.77764"
     inkscape:document-units="px"
     inkscape:current-layer="layer1"
     showgrid="false"
     inkscape:window-width="1116"
     inkscape:window-height="899"
     inkscape:window-x="368"
     inkscape:window-y="89"
     inkscape:window-maximized="0" />
  <metadata
     id="metadata3110">
    <rdf:RDF>
      <cc:Work
         rdf:about="">
        <dc:format>image/svg+xml</dc:format>
        <dc:type
           rdf:resource="http://purl.org/dc/dcmitype/StillImage" />
        <dc:title></dc:title>
      </cc:Work>
    </rdf:RDF>
  </metadata>
  <g
     inkscape:label="Layer 1"
     inkscape:groupmode="layer"
     id="layer1"
     transform="translate(0,-851.36215)">
    <path
       inkscape:connector-curvature="0"
       d="M 94.5,1052.3622 0,1002.1121 0,901.61219 94.5,851.3622 188.99999,901.61218 189,1002.1121 z"
       id="path4662-3-7-5-5"
       style="fill:#3e3221;fill-opacity:1;stroke:none" />
    <path
       inkscape:connector-curvature="0"
       d="m 94.5,1039.8976 -83.569003,-43.81798 0,-87.63586 L 94.5,864.62582 l 83.56899,43.81793 3e-5,87.63587 z"
       id="path4662-3-7-5-5-9"
       style="fill:#f9ecc6;fill-opacity:1;stroke:none" />
    <flowRoot
       xml:space="preserve"
       id="flowRoot3906"
       style="font-size:40px;font-style:normal;font-weight:normal;line-height:125%;letter-spacing:0px;word-spacing:0px;fill:#000000;fill-opacity:1;stroke:none;font-family:Sans"
       transform="matrix(1.074359,0,0,1.0004219,-6.5509516,-0.53904211)"><flowRegion
         id="flowRegion3908"><rect
           id="rect3910"
           width="129"
           height="117"
           x="96"
           y="151.36218" /></flowRegion><flowPara
         id="flowPara3912"></flowPara></flowRoot>    <path
       inkscape:connector-curvature="0"
       id="path4083"
       d="m 140.80627,997.70201 c 0,-0.2327 0.11451,-0.56214 0.25457,-0.73221 0.22129,-0.26871 1.08257,-2.6124 3.19711,-8.69986 l 0.54085,-1.55706 -0.59461,0.36305 c -0.86585,0.52872 -1.06113,0.066 -0.24333,-0.57674 0.38272,-0.30073 1.01672,-0.932 1.40889,-1.4029 0.62142,-0.74601 0.93151,-0.85255 2.41278,-0.82875 1.51193,0.024 1.74483,0.11875 2.10795,0.85576 0.37246,0.75593 0.32762,1.07796 -0.51202,3.67896 -1.06018,3.28398 -1.02197,3.97657 0.18602,3.37292 1.82527,-0.91219 2.30382,-1.56156 3.54007,-4.80373 0.89854,-2.35649 1.37318,-3.23936 1.74151,-3.23936 0.69499,0 0.66466,0.18448 -0.64913,3.94686 -1.21158,3.46977 -1.19296,4.12344 0.10138,3.56201 0.92425,-0.40097 4.23881,-4.2486 5.27888,-6.12789 0.49636,-0.89688 0.91164,-1.32206 1.17824,-1.20631 0.22644,0.098 1.01818,10e-4 1.75945,-0.21539 2.64814,-0.77442 3.59086,1.16019 2.11098,4.33203 -0.88246,1.8913 -1.03517,3.45996 -0.38382,3.94266 0.80471,0.59635 2.73466,-1.16909 3.09028,-2.82689 0.7199,-3.35592 2.36387,-5.40708 4.33371,-5.40708 1.66934,0 2.4224,1.8976 1.53241,3.86123 -0.48259,1.06475 -2.15859,2.42282 -3.6564,2.96284 -1.21943,0.43959 -1.29404,0.65328 -0.51053,1.46233 0.71702,0.7403 2.05879,0.4831 4.34337,-0.83276 1.71113,-0.98551 2.13757,-0.83215 1.01589,0.36525 -1.84084,1.96513 -4.45435,2.79869 -5.74652,1.83268 -0.38442,-0.28742 -0.78217,-0.82175 -0.88389,-1.18741 l -0.18496,-0.66477 -0.8184,0.66487 c -0.45013,0.36566 -1.26555,0.87808 -1.81208,1.13859 -0.97254,0.46359 -1.00927,0.45249 -1.72784,-0.52182 -0.97978,-1.32857 -0.94613,-2.76307 0.12132,-5.17599 1.39311,-3.14873 1.1081,-3.71737 -1.23035,-2.45523 -1.46443,0.79043 -1.56606,0.92919 -2.33326,3.18654 -0.44118,1.29805 -1.42433,3.86113 -2.18476,5.6956 -1.07441,2.5921 -1.50969,3.33561 -1.95279,3.33561 -0.32732,0 -0.57018,-0.21709 -0.57018,-0.50951 0,-0.54053 0.52211,-1.82117 0.85362,-2.09389 0.29748,-0.2447 2.2492,-5.53333 2.03846,-5.52372 -0.10045,0 -0.8002,0.72721 -1.55516,1.60577 -1.56866,1.82537 -2.71997,2.28576 -3.76433,1.50504 -0.64357,-0.48111 -0.75962,-0.4717 -1.62844,0.13265 -1.72825,1.20231 -3.93027,0.63908 -3.93027,-1.00522 0,-0.34965 0.44922,-1.6535 0.99826,-2.89742 1.03459,-2.34399 1.25644,-3.72327 0.64174,-3.99008 -0.53061,-0.2304 -1.42074,0.2405 -2.0929,1.10716 -0.54665,0.7048 -2.33067,5.18538 -2.83232,7.1134 -0.53881,2.07077 -1.95781,4.88116 -2.46452,4.88116 -0.2888,0 -0.52506,-0.19028 -0.52506,-0.42298 z m 28.83583,-8.08861 c 0.53323,-0.20688 1.45774,-0.81114 2.05449,-1.34286 0.90374,-0.80524 1.07046,-1.13649 0.99824,-1.98304 -0.072,-0.84356 -0.22324,-1.03434 -0.88945,-1.12137 -1.10577,-0.14467 -2.01646,0.62466 -2.72985,2.30607 -0.53407,1.25863 -0.78556,2.51745 -0.50299,2.51745 0.0551,0 0.53633,-0.16927 1.06956,-0.37625 z m -83.597858,7.1197 c 0,-0.2287 0.176085,-0.7046 0.391302,-1.05764 0.215218,-0.35305 0.848549,-2.03306 1.407406,-3.73337 0.55885,-1.70022 1.217031,-3.63584 1.462616,-4.30132 0.562412,-1.52385 0.561865,-1.52965 -0.123924,-1.32506 -0.856149,0.25551 -0.692653,-0.052 0.510237,-0.9605 0.865953,-0.65388 1.393144,-0.80354 2.653148,-0.75312 0.864848,0.035 1.726198,0.17127 1.914113,0.30383 0.560712,0.39536 0.392934,1.64739 -0.51378,3.83422 -1.032505,2.49014 -1.108063,3.52738 -0.256914,3.52738 0.784553,0 2.538444,-2.01585 2.538444,-2.91763 0,-1.8984 2.817307,-5.2178 4.42867,-5.2178 0.25516,0 0.86564,0.45839 1.35661,1.01853 0.49098,0.56013 0.93495,0.87376 0.98661,0.69699 0.0517,-0.17688 0.27319,-0.59855 0.49227,-0.93719 0.30355,-0.4691 0.47848,-0.52553 0.73502,-0.2371 0.2583,0.29032 0.17245,0.78783 -0.36881,2.1367 -1.01207,2.52216 -1.54271,5.04872 -1.15361,5.49271 0.85641,0.97702 3.50545,-1.80545 5.84235,-6.13678 0.79665,-1.47652 1.55947,-2.68463 1.69515,-2.68463 0.32649,0 0.31112,0.23079 -0.0693,1.04183 -0.25345,0.54033 -0.19276,0.9237 0.30686,1.93793 1.39611,2.83419 1.2677,4.16334 -0.57295,5.93039 -1.01276,0.97231 -1.84135,1.09767 -2.10347,0.31834 -0.44797,-1.33197 0.63639,-2.3692 1.22775,-1.1745 0.24333,0.49161 0.34277,0.40407 0.72721,-0.64037 0.24495,-0.66538 0.44535,-1.48553 0.44535,-1.82257 0,-0.81465 -0.57376,-2.66232 -0.82671,-2.66232 -0.11028,0 -0.47384,0.62236 -0.80792,1.38299 -2.04263,4.65076 -5.32692,7.10059 -6.54381,4.88125 -0.26988,-0.4922 -0.53088,-0.9574 -0.57999,-1.03383 -0.0492,-0.0761 -0.45298,0.2585 -0.89745,0.74441 -0.444494,0.4858 -1.245333,0.9631 -1.779652,1.06054 -0.817591,0.14917 -1.102209,0.021 -1.796765,-0.81093 l -0.825278,-0.98822 -1.022327,0.96151 c -1.19986,1.12837 -1.821845,1.2026 -2.603655,0.31062 -0.79529,-0.90738 -0.714473,-2.03226 0.332109,-4.62284 1.018623,-2.52137 0.891192,-3.08641 -0.555477,-2.46334 -0.989619,0.42618 -1.24962,0.93619 -3.031481,5.9472 -1.668714,4.69278 -1.982933,5.36167 -2.52084,5.36566 -0.27452,0.001 -0.499129,-0.18337 -0.499129,-0.41197 z m 14.382468,-5.82736 c 1.11068,-1.48042 1.63108,-3.07949 1.38109,-4.24378 -0.552,-2.57069 -2.779405,-1.8898 -4.17964,1.27763 -0.549781,1.24373 -0.616279,3.87654 -0.103846,4.11244 1.088824,0.50121 1.909573,0.17708 2.902406,-1.14629 z m -83.222166,4.29751 c -1.00483,-0.36345 -1.824677,-1.18669 -2.361696,-2.3716 l -0.408711,-0.90168 -1.135953,1.04155 c -1.663692,1.52533 -1.979205,0.81394 -0.527763,-1.19001 1.236063,-1.70662 1.967345,-3.11941 1.971891,-3.8096 0.0054,-0.82905 1.370171,-3.69676 2.315751,-4.86606 1.175637,-1.4538 2.731928,-2.55047 3.62169,-2.55209 0.836652,-10e-4 2.331118,1.67122 2.331118,2.60922 0,0.68469 -1.4988,2.5962 -2.035648,2.5962 -0.588512,0 -0.570849,-1.04894 0.02997,-1.77866 0.420552,-0.51071 0.57282,-0.98722 0.453058,-1.4177 -0.396153,-1.4241 -1.810475,-1.12497 -3.196422,0.67599 -2.468111,3.20716 -3.247787,8.50429 -1.480097,10.05565 1.389052,1.21901 5.330661,0.2748 5.917628,-1.4176 0.142737,-0.41157 0.414071,-1.22123 0.602974,-1.79936 0.429887,-1.31556 1.878808,-3.09131 3.119846,-3.82352 0.759546,-0.44808 1.085929,-0.4854 1.655511,-0.18938 0.642788,0.33424 0.695585,0.50922 0.561895,1.86249 -0.169172,1.71232 -0.919867,2.6065 -3.133031,3.73177 -1.379282,0.7013 -1.62412,1.14748 -1.012528,1.84528 0.568547,0.64867 1.756188,0.44279 3.095828,-0.53652 1.587856,-1.1609 2.105262,-1.84839 2.531528,-3.36393 0.413297,-1.46942 1.88012,-3.3523 2.984864,-3.83151 1.607713,-0.69739 2.909713,1.37338 1.718229,2.73286 -0.541745,0.61805 -1.07711,0.33693 -0.892468,-0.46861 0.07287,-0.31793 0.02907,-0.76902 -0.09732,-1.00242 -0.443306,-0.81834 -1.67234,0.2281 -2.420083,2.06047 -0.787647,1.93032 -0.842418,2.46734 -0.37179,3.64583 0.426799,1.06876 1.260967,1.07186 3.180592,0.011 2.092512,-1.15559 2.553715,-1.68652 3.648508,-4.19977 0.90981,-2.08859 1.48085,-2.80519 1.876067,-2.3543 0.09338,0.10655 -0.361376,1.4227 -1.010569,2.92473 -0.649188,1.50203 -1.180346,3.20566 -1.180346,3.7857 0,1.02743 0.02765,1.05094 1.06957,0.91038 0.588264,-0.0791 1.294183,-0.2568 1.568706,-0.39436 0.723128,-0.36246 0.62841,0.36845 -0.105856,0.81674 -1.096726,0.66968 -2.590905,0.45499 -3.290349,-0.4727 l -0.634926,-0.84225 -1.412836,0.80964 c -1.906599,1.09266 -3.44421,1.07476 -4.431294,-0.052 -0.722268,-0.82405 -0.77833,-0.83666 -1.303496,-0.29443 -1.402065,1.44771 -4.299023,1.8952 -5.302915,0.81915 l -0.617477,-0.66188 -1.501696,0.86056 c -1.682153,0.96401 -3.175768,1.23462 -4.38993,0.79554 z m 8.346375,-4.77611 c 0.563854,-0.4753 1.246945,-1.17089 1.517979,-1.54575 0.505349,-0.69889 0.680144,-1.82046 0.28372,-1.82046 -0.464173,0 -1.561924,1.09586 -2.365366,2.36129 -1.30593,2.05676 -1.106355,2.41262 0.563667,1.00492 z m 40.599309,3.47107 c -0.509833,-0.35466 -0.926965,-0.80044 -0.926965,-0.99062 0,-0.19008 -0.329665,-0.69429 -0.732585,-1.12038 -0.704826,-0.74521 -0.71166,-0.78732 -0.180283,-1.11187 0.303756,-0.18547 0.628444,-0.74511 0.721513,-1.24361 0.269488,-1.44361 1.216339,-2.92494 2.478903,-3.87825 0.960294,-0.725 1.305914,-0.82794 1.936365,-0.57663 0.59236,0.2362 0.788236,0.55253 0.85869,1.38667 0.07719,0.914 -0.09168,1.27335 -1.094791,2.32999 -0.65233,0.6871 -1.61848,1.48333 -2.146993,1.76955 -1.199106,0.64918 -1.376701,0.9698 -0.991814,1.79025 1.191746,2.54067 3.91716,0.6928 7.193515,-4.87726 1.590143,-2.70344 2.10436,-3.17633 1.858557,-1.70922 -0.09679,0.57765 0.03729,1.1527 0.38708,1.66011 0.294343,0.42688 0.616996,1.27393 0.717015,1.88219 0.100024,0.60826 0.263824,1.09576 0.364023,1.08336 0.28513,-0.0351 2.89175,-3.81682 2.89175,-4.19517 0,-0.18598 0.129957,-0.33814 0.288818,-0.33814 0.158847,0 0.601,-0.80535 0.982564,-1.78976 0.439919,-1.13487 0.867354,-1.78975 1.168205,-1.78975 0.471965,0 0.457268,0.59294 -0.05224,2.10788 -0.156682,0.4658 -0.0376,0.51032 0.854441,0.31944 1.463634,-0.31334 1.296517,0.25121 -0.332006,1.12148 -1.279742,0.68378 -1.418554,0.88267 -2.140413,3.06568 -1.084815,3.28069 -1.255117,4.44968 -0.64825,4.44968 0.262703,0 0.856318,-0.2235 1.319134,-0.49651 1.022553,-0.60335 1.092328,-0.21128 0.143423,0.80584 -0.775449,0.83115 -2.084353,0.99072 -2.467402,0.30083 -0.414384,-0.74642 -0.288484,-2.44793 0.309125,-4.17777 0.311453,-0.90148 0.471891,-1.63018 0.356524,-1.61938 -0.234114,0.022 -1.661592,2.02756 -2.93088,4.11764 -1.53538,2.52817 -2.73476,2.87612 -3.569063,1.03533 -0.390203,-0.86086 -0.377183,-0.98251 0.172243,-1.60937 0.492812,-0.56224 0.669185,-0.60726 1.032379,-0.26331 0.388573,0.36785 0.370317,0.4773 -0.161694,0.96881 -0.699137,0.64587 -0.76054,0.93789 -0.197245,0.93789 0.221354,0 0.734753,-0.45059 1.140874,-1.00122 0.911453,-1.23592 1.029013,-3.47917 0.225798,-4.30852 -0.482483,-0.49811 -0.599691,-0.39646 -1.994372,1.72993 -1.767905,2.69534 -4.074593,4.88196 -5.148247,4.88026 -0.417303,-7e-4 -1.175868,-0.29142 -1.6857,-0.64607 z m 2.566966,-6.12179 c 0.431395,-0.46049 0.784351,-1.01973 0.784351,-1.24262 0,-0.53453 -1.01507,-0.88727 -1.557221,-0.54113 -0.656182,0.41898 -1.865404,2.42352 -1.865404,3.09231 0,0.56483 0.04837,0.56814 0.926961,0.062 0.509827,-0.29352 1.279917,-0.91038 1.711313,-1.37088 z m -17.469655,5.902 c 0,-0.29794 0.456458,-1.63889 1.014349,-2.97986 1.011156,-2.43053 1.509,-4.28851 1.149081,-4.28851 -0.224941,0 -2.099762,1.14199 -2.791491,1.70032 -0.881709,0.71169 -0.958383,-0.11535 -0.08498,-0.91669 1.301152,-1.19381 3.096297,-1.895 3.781001,-1.47693 0.399776,0.24411 0.808796,0.23861 1.407106,-0.019 2.271423,-0.97811 3.155531,0.78393 2.081607,4.14875 -0.33932,1.06315 -0.680238,2.16911 -0.757599,2.45763 -0.168458,0.62837 0.723476,1.11268 1.150924,0.62496 0.162015,-0.18477 0.493509,-0.33143 0.736658,-0.32573 0.304103,0.01 0.186628,0.26661 -0.376369,0.83135 -1.06192,1.06535 -2.204796,0.96111 -2.571107,-0.2347 -0.203176,-0.66318 -0.09133,-1.34566 0.493882,-3.01347 1.203376,-3.42965 0.951977,-4.67347 -0.718953,-3.5571 -0.690844,0.4616 -1.128616,1.24803 -1.961049,3.52298 -0.589417,1.61079 -1.144254,3.18505 -1.232972,3.49828 -0.208288,0.73531 -1.320082,0.75872 -1.320082,0.0281 z m 80.959061,-0.80914 c -0.72251,-0.82435 -0.66233,-2.1154 0.24092,-5.16838 0.60837,-2.05638 0.69517,-2.68014 0.41708,-2.99737 -0.27814,-0.31734 -0.57154,-0.26612 -1.41004,0.2461 -0.9834,0.60086 -1.12986,0.89508 -2.05707,4.13375 -1.02398,3.57661 -1.50039,4.53631 -1.97668,3.98138 -0.16433,-0.19139 0.0514,-1.4241 0.56682,-3.23787 0.97401,-3.42785 0.93387,-4.34603 -0.0782,-1.78976 -0.38974,0.98432 -1.24413,2.55859 -1.89864,3.49818 -1.07496,1.54326 -1.29892,1.70852 -2.31612,1.70852 -1.02317,0 -1.14731,-0.093 -1.35836,-1.02273 -0.20267,-0.89238 -0.28551,-0.96331 -0.64989,-0.55623 -1.55227,1.73413 -2.86166,2.01835 -3.57511,0.77612 -0.49564,-0.86306 -0.36052,-2.96555 0.26925,-4.18987 0.24189,-0.4701 0.23709,-0.65938 -0.0194,-0.76571 -0.21669,-0.0901 0.0167,-0.67529 0.64174,-1.60949 0.54027,-0.80753 0.98231,-1.60347 0.98231,-1.76874 0,-0.16527 0.20643,-0.30053 0.45876,-0.30053 0.5654,0 0.42213,0.78133 -0.76524,4.17366 -0.93702,2.67713 -1.04379,3.8005 -0.38849,4.08742 0.6403,0.28032 1.97974,-0.60355 2.77881,-1.83367 0.37796,-0.58194 1.04495,-2.19733 1.48221,-3.58992 0.84792,-2.70043 0.98032,-2.92633 1.50012,-2.55977 0.23897,0.16847 0.0156,1.27544 -0.79199,3.92555 -0.61866,2.03006 -1.05576,3.81851 -0.97135,3.97428 0.30187,0.55734 1.16701,0.26781 1.93585,-0.64778 0.43004,-0.51211 1.44875,-2.3784 2.2638,-4.14734 1.45251,-3.15223 2.24616,-4.01549 2.78209,-3.02618 0.18048,0.33324 0.38254,0.33984 0.97457,0.032 0.95537,-0.49661 1.93788,-0.49571 2.37432,0 0.51287,0.58525 0.41335,2.64922 -0.22816,4.7317 -0.75106,2.43803 -0.74599,3.33861 0.0188,3.33861 0.67103,0 1.73378,-0.57495 2.0447,-1.10627 0.12285,-0.20978 0.21137,-0.0761 0.21393,0.32374 0.009,1.53424 -2.46308,2.52327 -3.46134,1.38428 z m 45.96333,0.11424 c 0,-0.76633 0.53702,-1.36098 1.03303,-1.14378 0.53695,0.2351 0.497,1.28894 -0.0582,1.53205 -0.73958,0.32373 -0.97497,0.22999 -0.97497,-0.38827 z M 62.619597,987.59365 c 0.348247,-0.42298 0.59523,-0.9634 0.54885,-1.20101 -0.04637,-0.2376 0.140289,-0.4881 0.41481,-0.55653 0.775472,-0.19348 0.606836,0.82244 -0.285222,1.71832 -1.010028,1.01423 -1.504848,1.04285 -0.678438,0.039 z m -22.495593,-4.28521 c 0,-0.57774 0.684862,-0.96221 1.141067,-0.64047 0.224286,0.15817 0.218271,0.35034 -0.02129,0.67969 -0.443381,0.60956 -1.119788,0.58584 -1.119788,-0.039 z m 115.030506,-1.6639 c -0.16902,-0.50251 0.5462,-1.41735 1.10807,-1.41735 0.42948,0 0.23402,1.55601 -0.22044,1.75499 -0.6377,0.27922 -0.6864,0.26061 -0.88763,-0.33764 z"
       style="fill:#3e3221;fill-opacity:1" />
    <g
       transform="matrix(1.3886746,0,0,1.4089774,-44.177901,817.39741)"
       style="font-size:40px;font-style:normal;font-weight:bold;line-height:125%;letter-spacing:0px;word-spacing:0px;fill:#3e3221;fill-opacity:1;stroke:none;font-family:Sans;-inkscape-font-specification:Courier New Bold"
       id="flowRoot3914">
      <path
         d="m 62.140625,74.536773 c -2.7e-5,2.812532 -0.99612,5.214873 -2.988281,7.207031 -1.968772,1.968776 -4.359395,2.95315 -7.171875,2.953125 -2.812514,2.5e-5 -5.214856,-0.984349 -7.207032,-2.953125 -1.992195,-1.992158 -2.988288,-4.394499 -2.988281,-7.207031 -7e-6,-2.812463 0.996086,-5.214804 2.988281,-7.207032 1.992176,-1.992143 4.394518,-2.988236 7.207032,-2.988281 2.81248,4.5e-5 5.203103,0.996138 7.171875,2.988281 1.992161,1.968791 2.988254,4.371132 2.988281,7.207032 m -4.429688,0 c -2.2e-5,-1.593714 -0.562522,-2.941369 -1.6875,-4.042969 -1.125019,-1.12496 -2.472674,-1.687459 -4.042968,-1.6875 -1.593766,4.1e-5 -2.953139,0.56254 -4.078125,1.6875 -1.101575,1.1016 -1.652355,2.449255 -1.652344,4.042969 -1.1e-5,1.570346 0.562488,2.918 1.6875,4.042968 1.124986,1.12503 2.472641,1.68753 4.042969,1.6875 1.570294,3e-5 2.917949,-0.56247 4.042968,-1.6875 1.124978,-1.124968 1.687478,-2.472622 1.6875,-4.042968 m 12.9375,10.722656 -26.578125,8.613281 c -0.656258,0.210953 -1.136726,0.316422 -1.441406,0.316406 -0.539069,1.6e-5 -1.019538,-0.22264 -1.441406,-0.667968 -0.421881,-0.445296 -0.632818,-1.007796 -0.632813,-1.6875 -5e-6,-0.49217 0.164057,-0.937482 0.492188,-1.335938 0.234369,-0.304668 0.785149,-0.597637 1.652344,-0.878906 l 26.578125,-8.613281 c 0.656215,-0.210909 1.136683,-0.316378 1.441406,-0.316407 0.562464,2.9e-5 1.042932,0.234404 1.441406,0.703125 0.421838,0.445341 0.632775,0.984403 0.632813,1.617188 -3.8e-5,0.515651 -0.1641,0.972682 -0.492188,1.371094 -0.234412,0.304712 -0.785193,0.59768 -1.652344,0.878906 m 0.632813,15.152341 c -3.6e-5,2.81251 -0.996129,5.21485 -2.988281,7.20703 -1.992219,1.96875 -4.39456,2.95313 -7.207032,2.95313 -2.812523,0 -5.214864,-0.99609 -7.207031,-2.98828 -1.992204,-1.99219 -2.988297,-4.38281 -2.988281,-7.17188 -1.6e-5,-2.812485 0.996077,-5.214827 2.988281,-7.207029 1.992167,-1.992169 4.394508,-2.988262 7.207031,-2.988281 2.812472,1.9e-5 5.214813,0.996112 7.207032,2.988281 1.992152,1.968765 2.988245,4.371106 2.988281,7.207029 m -4.464844,0 c -3.2e-5,-1.593737 -0.562531,-2.941392 -1.6875,-4.042966 -1.125029,-1.124986 -2.472684,-1.687485 -4.042969,-1.6875 -1.570337,1.5e-5 -2.917991,0.562514 -4.042968,1.6875 -1.125021,1.101574 -1.687521,2.449229 -1.6875,4.042966 -2.1e-5,1.57032 0.562479,2.91798 1.6875,4.04297 1.124977,1.10157 2.472631,1.65235 4.042968,1.65235 1.570285,0 2.91794,-0.55078 4.042969,-1.65235 1.124969,-1.12499 1.687468,-2.47265 1.6875,-4.04297"
         style="font-size:72px;font-variant:normal;font-stretch:normal;font-family:Courier New;-inkscape-font-specification:Courier New Bold"
         id="path4408"
         inkscape:connector-curvature="0" />
      <path
         d="M 107.38672,88.985991 84.042969,76.048491 C 82.871089,75.392276 82.085934,74.806339 81.6875,74.290679 81.312497,73.77509 81.124997,73.11884 81.125,72.321929 c -3e-6,-1.007774 0.363278,-1.874961 1.089844,-2.601563 0.726557,-0.726522 1.582025,-1.089802 2.566406,-1.089843 0.609368,4.1e-5 1.546867,0.339884 2.8125,1.019531 l 34.76953,19.335937 -34.76953,19.335939 c -1.265633,0.70312 -2.203132,1.05469 -2.8125,1.05469 -0.984381,0 -1.839849,-0.36328 -2.566406,-1.08985 -0.726566,-0.72656 -1.089847,-1.60546 -1.089844,-2.63672 -3e-6,-0.79687 0.187497,-1.45312 0.5625,-1.96875 0.398434,-0.51561 1.183589,-1.10155 2.355469,-1.75781 L 107.38672,88.985991"
         style="font-size:72px;font-variant:normal;font-stretch:normal;font-family:Courier New;-inkscape-font-specification:Courier New Bold"
         id="path4410"
         inkscape:connector-curvature="0" />
      <path
         d="m 148.48437,74.536773 c -2e-5,2.812532 -0.99611,5.214873 -2.98828,7.207031 -1.96877,1.968776 -4.35939,2.95315 -7.17187,2.953125 -2.81252,2.5e-5 -5.21486,-0.984349 -7.20703,-2.953125 -1.9922,-1.992158 -2.98829,-4.394499 -2.98828,-7.207031 -1e-5,-2.812463 0.99608,-5.214804 2.98828,-7.207032 1.99217,-1.992143 4.39451,-2.988236 7.20703,-2.988281 2.81248,4.5e-5 5.2031,0.996138 7.17187,2.988281 1.99217,1.968791 2.98826,4.371132 2.98828,7.207032 m -4.42968,0 c -3e-5,-1.593714 -0.56252,-2.941369 -1.6875,-4.042969 -1.12502,-1.12496 -2.47268,-1.687459 -4.04297,-1.6875 -1.59377,4.1e-5 -2.95314,0.56254 -4.07813,1.6875 -1.10157,1.1016 -1.65235,2.449255 -1.65234,4.042969 -1e-5,1.570346 0.56249,2.918 1.6875,4.042968 1.12499,1.12503 2.47264,1.68753 4.04297,1.6875 1.57029,3e-5 2.91795,-0.56247 4.04297,-1.6875 1.12498,-1.124968 1.68747,-2.472622 1.6875,-4.042968 m 12.9375,10.722656 -26.57813,8.613281 c -0.65626,0.210953 -1.13672,0.316422 -1.4414,0.316406 -0.53907,1.6e-5 -1.01954,-0.22264 -1.44141,-0.667968 -0.42188,-0.445296 -0.63282,-1.007796 -0.63281,-1.6875 -10e-6,-0.49217 0.16405,-0.937482 0.49219,-1.335938 0.23436,-0.304668 0.78514,-0.597637 1.65234,-0.878906 l 26.57812,-8.613281 c 0.65622,-0.210909 1.13669,-0.316378 1.44141,-0.316407 0.56246,2.9e-5 1.04293,0.234404 1.44141,0.703125 0.42183,0.445341 0.63277,0.984403 0.63281,1.617188 -4e-5,0.515651 -0.1641,0.972682 -0.49219,1.371094 -0.23441,0.304712 -0.78519,0.59768 -1.65234,0.878906 m 0.63281,15.152341 c -4e-5,2.81251 -0.99613,5.21485 -2.98828,7.20703 -1.99222,1.96875 -4.39456,2.95313 -7.20703,2.95313 -2.81253,0 -5.21487,-0.99609 -7.20703,-2.98828 -1.99221,-1.99219 -2.9883,-4.38281 -2.98829,-7.17188 -1e-5,-2.812485 0.99608,-5.214827 2.98829,-7.207029 1.99216,-1.992169 4.3945,-2.988262 7.20703,-2.988281 2.81247,1.9e-5 5.21481,0.996112 7.20703,2.988281 1.99215,1.968765 2.98824,4.371106 2.98828,7.207029 m -4.46484,0 c -4e-5,-1.593737 -0.56254,-2.941392 -1.6875,-4.042966 -1.12503,-1.124986 -2.47269,-1.687485 -4.04297,-1.6875 -1.57034,1.5e-5 -2.91799,0.562514 -4.04297,1.6875 -1.12502,1.101574 -1.68752,2.449229 -1.6875,4.042966 -2e-5,1.57032 0.56248,2.91798 1.6875,4.04297 1.12498,1.10157 2.47263,1.65235 4.04297,1.65235 1.57028,0 2.91794,-0.55078 4.04297,-1.65235 1.12496,-1.12499 1.68746,-2.47265 1.6875,-4.04297"
         style="font-size:72px;font-variant:normal;font-stretch:normal;font-family:Courier New;-inkscape-font-specification:Courier New Bold"
         id="path4412"
         inkscape:connector-curvature="0" />
    </g>
  </g>
</svg>
