<?xml version="1.0" encoding="UTF-8" standalone="no"?>
<!-- Created with Inkscape (http://www.inkscape.org/) -->

<svg
   xmlns:dc="http://purl.org/dc/elements/1.1/"
   xmlns:cc="http://creativecommons.org/ns#"
   xmlns:rdf="http://www.w3.org/1999/02/22-rdf-syntax-ns#"
   xmlns:svg="http://www.w3.org/2000/svg"
   xmlns="http://www.w3.org/2000/svg"
   xmlns:sodipodi="http://sodipodi.sourceforge.net/DTD/sodipodi-0.dtd"
   xmlns:inkscape="http://www.inkscape.org/namespaces/inkscape"
   width="181"
   height="209"
   id="svg3105"
   version="1.1"
   inkscape:version="0.48.5 r10040"
   sodipodi:docname="magrittr.svg"
   inkscape:export-filename="/Users/stefan/Desktop/magrittr.png"
   inkscape:export-xdpi="90"
   inkscape:export-ydpi="90">
  <defs
     id="defs3107" />
  <sodipodi:namedview
     id="base"
     pagecolor="#ffffff"
     bordercolor="#666666"
     borderopacity="1.0"
     inkscape:pageopacity="0.0"
     inkscape:pageshadow="2"
     inkscape:zoom="2.86"
     inkscape:cx="96.218364"
     inkscape:cy="104.77764"
     inkscape:document-units="px"
     inkscape:current-layer="layer1"
     showgrid="false"
     inkscape:window-width="1116"
     inkscape:window-height="899"
     inkscape:window-x="448"
     inkscape:window-y="73"
     inkscape:window-maximized="0" />
  <metadata
     id="metadata3110">
    <rdf:RDF>
      <cc:Work
         rdf:about="">
        <dc:format>image/svg+xml</dc:format>
        <dc:type
           rdf:resource="http://purl.org/dc/dcmitype/StillImage" />
        <dc:title></dc:title>
      </cc:Work>
    </rdf:RDF>
  </metadata>
  <g
     inkscape:label="Layer 1"
     inkscape:groupmode="layer"
     id="layer1"
     transform="translate(0,-843.36215)">
    <path
       inkscape:connector-curvature="0"
       d="M 90.5,1052.3622 0,1000.112 0,895.61216 90.5,843.3622 180.99999,895.61215 181,1000.112 z"
       id="path4662-3-7-5-5"
       style="fill:#3e3221;fill-opacity:1;stroke:none" />
    <path
       inkscape:connector-curvature="0"
       d="m 90.5,1039.4015 -80.031691,-45.56205 0,-91.12382 L 90.5,857.15371 l 80.03163,45.56191 5e-5,91.12383 z"
       id="path4662-3-7-5-5-9"
       style="fill:#f9ecc6;fill-opacity:1;stroke:none" />
    <flowRoot
       xml:space="preserve"
       id="flowRoot3906"
       style="font-size:40px;font-style:normal;font-weight:normal;line-height:125%;letter-spacing:0px;word-spacing:0px;fill:#000000;fill-opacity:1;stroke:none;font-family:Sans"
       transform="matrix(1.0288839,0,0,1.0402392,-6.2736635,-42.445118)"><flowRegion
         id="flowRegion3908"><rect
           id="rect3910"
           width="129"
           height="117"
           x="96"
           y="151.36218" /></flowRegion><flowPara
         id="flowPara3912"></flowPara></flowRoot>    <path
       inkscape:connector-curvature="0"
       id="path4083"
       d="m 134.84627,995.52643 c 0,-0.24199 0.1096,-0.58452 0.24368,-0.76139 0.21203,-0.27938 1.03683,-2.71636 3.06186,-9.04612 l 0.51793,-1.61902 -0.5695,0.3775 c -0.8291,0.54976 -1.01612,0.0685 -0.23298,-0.59971 0.36657,-0.3127 0.97367,-0.96907 1.3492,-1.45873 0.59519,-0.77569 0.89217,-0.88648 2.3107,-0.86173 1.44793,0.025 1.67103,0.12349 2.01878,0.88984 0.35669,0.78599 0.31376,1.12084 -0.49036,3.82537 -1.01539,3.41467 -0.97878,4.13485 0.17819,3.50718 1.74798,-0.94852 2.20629,-1.62372 3.39013,-4.99492 0.86053,-2.45031 1.31512,-3.36832 1.66779,-3.36832 0.66562,0 0.63665,0.19184 -0.62165,4.10397 -1.1602,3.60784 -1.14238,4.28755 0.0967,3.70377 0.88518,-0.41694 4.05944,-4.41768 5.05553,-6.37178 0.47528,-0.93256 0.87308,-1.37469 1.1283,-1.25433 0.21684,0.1017 0.97516,10e-4 1.685,-0.22397 2.53605,-0.80522 3.43886,1.20638 2.02168,4.50445 -0.84516,1.96658 -0.99141,3.59768 -0.36758,4.09959 0.77056,0.62009 2.61886,-1.21562 2.95939,-2.93942 0.68945,-3.48945 2.2638,-5.62228 4.15025,-5.62228 1.59872,0 2.31995,1.97315 1.46756,4.01493 -0.46211,1.10713 -2.06713,2.51924 -3.50151,3.08076 -1.16792,0.45709 -1.23933,0.67926 -0.48893,1.52054 0.68661,0.76977 1.97158,0.50233 4.15942,-0.86593 1.63876,-1.02473 2.04718,-0.86526 0.97295,0.37979 -1.76294,2.04335 -4.26581,2.91009 -5.50332,1.90564 -0.36818,-0.29888 -0.74905,-0.85446 -0.84646,-1.23466 l -0.1771,-0.69126 -0.78371,0.69137 c -0.43117,0.38019 -1.21201,0.91299 -1.73547,1.18387 -0.93136,0.48204 -0.96661,0.47052 -1.65466,-0.54259 -0.93835,-1.38143 -0.90615,-2.87302 0.11614,-5.38197 1.33412,-3.27406 1.06122,-3.86532 -1.17819,-2.55294 -1.40252,0.82188 -1.49987,0.96616 -2.23455,3.31334 -0.4225,1.34973 -1.36405,4.0148 -2.09222,5.92227 -1.02904,2.69527 -1.44584,3.46837 -1.87024,3.46837 -0.31338,0 -0.54601,-0.2257 -0.54601,-0.52978 0,-0.56204 0.50004,-1.89366 0.81745,-2.1772 0.28482,-0.25444 2.154,-5.75357 1.9522,-5.74358 -0.096,0 -0.76635,0.75614 -1.48931,1.66968 -1.50226,1.89803 -2.60482,2.37674 -3.60504,1.56494 -0.6162,-0.50026 -0.72745,-0.49049 -1.55947,0.13792 -1.65514,1.25016 -3.76387,0.66451 -3.76387,-1.04523 0,-0.36356 0.43017,-1.71931 0.95591,-3.01274 0.99086,-2.43726 1.20333,-3.87145 0.61464,-4.14887 -0.50821,-0.23959 -1.36063,0.25007 -2.00426,1.15123 -0.52361,0.73284 -2.23211,5.39176 -2.71248,7.39651 -0.51598,2.15319 -1.87498,5.07544 -2.3603,5.07544 -0.27654,0 -0.50271,-0.19787 -0.50271,-0.4398 z m 27.61518,-8.41057 c 0.51068,-0.2151 1.39602,-0.84342 1.96763,-1.39632 0.86539,-0.83728 1.0252,-1.1817 0.95589,-2.06194 -0.0691,-0.87714 -0.21369,-1.07553 -0.85174,-1.16601 -1.05896,-0.15041 -1.9312,0.64952 -2.61433,2.39786 -0.51153,1.3087 -0.75228,2.61765 -0.48173,2.61765 0.0525,0 0.51361,-0.17603 1.02428,-0.39124 z m -80.059288,7.40305 c 0,-0.23778 0.16863,-0.73263 0.374745,-1.09971 0.206095,-0.36711 0.812626,-2.11397 1.347824,-3.88197 0.535198,-1.7679 1.165516,-3.78054 1.400707,-4.47251 0.538603,-1.5845 0.53807,-1.59052 -0.118676,-1.3778 -0.819909,0.26569 -0.663342,-0.054 0.488637,-0.99874 0.829296,-0.67988 1.334179,-0.83552 2.540845,-0.78307 0.828224,0.0363 1.653131,0.17806 1.833088,0.31591 0.536966,0.41112 0.376308,1.71296 -0.492007,3.98683 -0.988821,2.58926 -1.061179,3.66776 -0.246027,3.66776 0.751303,0 2.430961,-2.09607 2.430961,-3.03375 0,-1.97394 2.697982,-5.42548 4.2413,-5.42548 0.244285,0 0.828842,0.47665 1.29903,1.05908 0.470234,0.58242 0.895493,0.90856 0.944992,0.72474 0.04953,-0.18393 0.261481,-0.62238 0.471418,-0.97451 0.290667,-0.48775 0.45825,-0.54643 0.703867,-0.24655 0.247353,0.30191 0.16523,0.81923 -0.353316,2.22178 -0.969143,2.62253 -1.47738,5.24966 -1.104596,5.71131 0.820039,1.01592 3.356946,-1.87732 5.594966,-6.38102 0.76299,-1.53531 1.49358,-2.79149 1.62337,-2.79149 0.31266,0 0.29804,0.23999 -0.0665,1.08331 -0.24276,0.56183 -0.18458,0.96045 0.29382,2.01504 1.33705,2.94699 1.21399,4.32904 -0.54876,6.16643 -0.96987,1.01102 -1.7632,1.14135 -2.01427,0.33099 -0.42917,-1.38495 0.60933,-2.46348 1.17569,-1.22121 0.23316,0.51115 0.32828,0.42014 0.69648,-0.66586 0.23452,-0.69186 0.42654,-1.54466 0.42654,-1.89512 0,-0.84706 -0.54959,-2.76828 -0.79169,-2.76828 -0.10575,0 -0.45388,0.64714 -0.77375,1.43804 -1.95622,4.83584 -5.101515,7.38319 -6.266966,5.07551 -0.258331,-0.51178 -0.50832,-0.9955 -0.555374,-1.07497 -0.04681,-0.0789 -0.433813,0.2688 -0.859446,0.77404 -0.425699,0.50512 -1.192576,1.00143 -1.704328,1.10275 -0.782998,0.15511 -1.055666,0.0218 -1.720651,-0.84322 l -0.790348,-1.02755 -0.979101,0.99978 c -1.149105,1.17328 -1.74475,1.25048 -2.493473,0.32302 -0.761609,-0.94353 -0.684229,-2.11318 0.318068,-4.80685 0.975513,-2.62173 0.853482,-3.20926 -0.531972,-2.56139 -0.947723,0.44313 -1.19673,0.97346 -2.903155,6.1839 -1.598094,4.87954 -1.899005,5.57508 -2.414141,5.57923 -0.262904,10e-4 -0.478017,-0.19068 -0.478017,-0.4284 z m 13.773694,-6.05928 c 1.063675,-1.53933 1.561955,-3.20205 1.322602,-4.41269 -0.528576,-2.673 -2.661756,-1.96501 -4.002793,1.32849 -0.526352,1.29323 -0.590186,4.03084 -0.09936,4.27611 1.042709,0.52116 1.828748,0.18412 2.779562,-1.19191 z m -79.699552,4.46855 c -0.962296,-0.3779 -1.747425,-1.23392 -2.261722,-2.46598 l -0.391402,-0.93758 -1.087876,1.083 c -1.593275,1.58606 -1.895439,0.84635 -0.505433,-1.23735 1.18374,-1.77455 1.88407,-3.24356 1.888429,-3.96125 0.0054,-0.86203 1.312177,-3.84386 2.217732,-5.05971 1.125877,-1.51168 2.616276,-2.65196 3.468387,-2.65367 0.80124,-10e-4 2.232452,1.73776 2.232452,2.71306 0,0.71195 -1.43536,2.69952 -1.949488,2.69952 -0.5636,0 -0.546689,-1.09068 0.02869,-1.84942 0.402762,-0.53104 0.548571,-1.02651 0.433886,-1.47414 -0.37939,-1.48076 -1.733844,-1.16975 -3.061123,0.70291 -2.363638,3.33481 -3.110323,8.84275 -1.417448,10.45585 1.330259,1.26753 5.105022,0.28575 5.667158,-1.474 0.136683,-0.42798 0.39653,-1.26984 0.577433,-1.871 0.411701,-1.36791 1.79929,-3.21434 2.987792,-3.97569 0.727397,-0.4659 1.03996,-0.5047 1.585436,-0.19689 0.615583,0.34752 0.66614,0.52946 0.538115,1.93659 -0.162011,1.78047 -0.880933,2.71025 -3.000425,3.88031 -1.320883,0.72922 -1.555366,1.19314 -0.969662,1.91872 0.544485,0.67449 1.681851,0.46041 2.964788,-0.55789 1.520639,-1.2071 2.016154,-1.92194 2.424388,-3.49779 0.395785,-1.5279 1.800523,-3.48574 2.858498,-3.98402 1.539672,-0.72516 2.786564,1.42804 1.645506,2.84163 -0.518813,0.64266 -1.031506,0.35035 -0.854687,-0.48725 0.06972,-0.3306 0.02778,-0.79965 -0.09316,-1.04232 -0.424537,-0.85093 -1.601542,0.23716 -2.31765,2.14246 -0.754301,2.00714 -0.806754,2.56555 -0.356046,3.79096 0.408737,1.11128 1.20759,1.1145 3.045964,0.0114 2.00394,-1.20155 2.445625,-1.75363 3.494079,-4.36691 0.871299,-2.17172 1.418162,-2.91682 1.796653,-2.448 0.08938,0.11082 -0.346079,1.47933 -0.967795,3.04115 -0.621714,1.5618 -1.130378,3.33323 -1.130378,3.93637 0,1.06832 0.0265,1.09276 1.024293,0.9466 0.563362,-0.082 1.239409,-0.267 1.502305,-0.41003 0.692518,-0.37689 0.601804,0.38309 -0.101375,0.84922 -1.050291,0.69636 -2.481245,0.47312 -3.151071,-0.4915 l -0.608061,-0.87577 -1.35303,0.84185 c -1.825894,1.13617 -3.298424,1.11755 -4.243723,-0.054 -0.691694,-0.85685 -0.745389,-0.86997 -1.248321,-0.30616 -1.342727,1.50533 -4.117046,1.97062 -5.078461,0.85175 l -0.591332,-0.68822 -1.438135,0.89482 c -1.610952,1.00238 -3.041341,1.28375 -4.204116,0.82719 z m 7.993095,-4.96618 c 0.539988,-0.49423 1.19416,-1.21751 1.453721,-1.60727 0.483958,-0.72673 0.651362,-1.89294 0.271712,-1.89294 -0.444521,0 -1.495813,1.1395 -2.265245,2.45529 -1.250648,2.13861 -1.059522,2.50865 0.539812,1.04492 z m 38.880826,3.6092 c -0.488254,-0.36875 -0.887736,-0.83227 -0.887736,-1.03004 0,-0.19763 -0.315706,-0.72191 -0.701571,-1.16498 -0.674991,-0.77487 -0.681549,-0.81865 -0.172657,-1.1561 0.290898,-0.19285 0.601841,-0.77478 0.690973,-1.29313 0.258082,-1.50107 1.164853,-3.04132 2.373977,-4.0326 0.919652,-0.75385 1.250634,-0.86089 1.854396,-0.5996 0.567289,0.24561 0.754877,0.57454 0.822344,1.44188 0.07398,0.95038 -0.08773,1.32405 -1.048444,2.42272 -0.624713,0.71447 -1.549978,1.54238 -2.056119,1.83997 -1.148349,0.67505 -1.318422,1.00844 -0.949835,1.86154 1.14131,2.64177 3.751364,0.72035 6.88903,-5.07139 1.522837,-2.81106 2.015288,-3.30275 1.779891,-1.77724 -0.09267,0.60065 0.03569,1.19855 0.370701,1.72616 0.281873,0.44389 0.590873,1.32465 0.686654,1.95711 0.09577,0.63246 0.252673,1.13938 0.348632,1.12648 0.273047,-0.0364 2.769342,-3.96873 2.769342,-4.36215 0,-0.19337 0.124445,-0.35161 0.276583,-0.35161 0.152127,0 0.57556,-0.83739 0.940981,-1.86098 0.421294,-1.18003 0.830643,-1.86099 1.118746,-1.86099 0.451991,0 0.437915,0.61656 -0.05007,2.19179 -0.150034,0.48433 -0.036,0.53064 0.818281,0.33215 1.401675,-0.32579 1.241637,0.26123 -0.317948,1.16612 -1.22558,0.71099 -1.358506,0.91781 -2.049822,3.18769 -1.038894,3.41128 -1.201977,4.62679 -0.62081,4.62679 0.251583,0 0.820069,-0.23239 1.263301,-0.51628 0.979266,-0.62736 1.046101,-0.21967 0.137353,0.83792 -0.742633,0.86425 -1.99613,1.03013 -2.362971,0.3128 -0.396835,-0.77613 -0.276271,-2.54537 0.29606,-4.34406 0.29825,-0.93736 0.4519,-1.69505 0.341423,-1.68381 -0.224208,0.0229 -1.591265,2.10826 -2.806825,4.28154 -1.470394,2.62875 -2.619,2.99057 -3.417987,1.0765 -0.373686,-0.89512 -0.361219,-1.02161 0.16495,-1.67341 0.471954,-0.58462 0.640859,-0.63142 0.988676,-0.27379 0.372125,0.38248 0.354639,0.49631 -0.154845,1.00736 -0.669555,0.67157 -0.728349,0.97523 -0.188894,0.97523 0.211977,0 0.70365,-0.46854 1.092586,-1.04107 0.872861,-1.28513 0.985456,-3.61765 0.216231,-4.48 -0.462065,-0.51794 -0.574305,-0.41225 -1.909957,1.79879 -1.693074,2.80261 -3.902112,5.07626 -4.930327,5.07447 -0.39964,-7.3e-4 -1.126103,-0.30301 -1.614337,-0.67178 z m 2.458303,-6.36542 c 0.413132,-0.47882 0.751151,-1.06033 0.751151,-1.29209 0,-0.55581 -0.972099,-0.92257 -1.491307,-0.56267 -0.628407,0.43566 -1.786444,2.52 -1.786444,3.21539 0,0.58732 0.04628,0.59075 0.887718,0.0644 0.488254,-0.30522 1.225752,-0.94661 1.638882,-1.42544 z m -16.730192,6.13688 c 0,-0.30976 0.437133,-1.70411 0.971409,-3.09846 0.968356,-2.52725 1.445126,-4.45918 1.100439,-4.45918 -0.215421,0 -2.01088,1.18745 -2.673329,1.76798 -0.844392,0.74004 -0.917814,-0.11992 -0.08136,-0.95316 1.246073,-1.24134 2.965244,-1.97042 3.620962,-1.53573 0.382845,0.25383 0.774556,0.24811 1.347537,-0.0198 2.175284,-1.01701 3.021975,0.81514 1.993505,4.31389 -0.324959,1.10549 -0.651447,2.25545 -0.725534,2.55545 -0.161332,0.65338 0.692851,1.15695 1.10221,0.64983 0.155161,-0.19212 0.472624,-0.34461 0.705487,-0.33869 0.29122,0.0104 0.17871,0.27721 -0.360452,0.86443 -1.016957,1.10775 -2.111471,0.99937 -2.462275,-0.24403 -0.194568,-0.68957 -0.08745,-1.39921 0.472973,-3.13342 1.15244,-3.56615 0.911686,-4.85947 -0.688525,-3.69865 -0.661595,0.47996 -1.080831,1.29769 -1.878041,3.66319 -0.564456,1.67488 -1.095807,3.31179 -1.18078,3.6375 -0.199465,0.76459 -1.264195,0.78893 -1.264195,0.0291 z m 77.532264,-0.84134 c -0.69194,-0.85716 -0.63433,-2.19959 0.23069,-5.37409 0.5826,-2.13819 0.66572,-2.78678 0.39942,-3.11664 -0.2663,-0.32998 -0.54741,-0.27671 -1.35041,0.25588 -0.94169,0.62477 -1.08191,0.93073 -1.96992,4.29828 -0.98069,3.71897 -1.43688,4.71685 -1.89312,4.13984 -0.15723,-0.19901 0.0497,-1.48078 0.54295,-3.36673 0.93279,-3.56429 0.89434,-4.519 -0.075,-1.86099 -0.37322,1.02349 -1.19154,2.66041 -1.8182,3.63741 -1.0295,1.60468 -1.24404,1.77651 -2.21816,1.77651 -0.97998,0 -1.09883,-0.0966 -1.30085,-1.06344 -0.19401,-0.92789 -0.27348,-1.00165 -0.62243,-0.57838 -1.48656,1.80318 -2.74055,2.09871 -3.42386,0.80702 -0.47458,-0.89741 -0.34523,-3.08359 0.25789,-4.35664 0.23165,-0.4888 0.22713,-0.68559 -0.0193,-0.79618 -0.20767,-0.0936 0.0172,-0.70215 0.61449,-1.67354 0.51736,-0.83967 0.94081,-1.6673 0.94081,-1.83914 0,-0.17185 0.19764,-0.31249 0.43928,-0.31249 0.54149,0 0.40418,0.81243 -0.73281,4.33977 -0.89745,2.78369 -0.99977,3.95177 -0.37207,4.2501 0.6132,0.29147 1.89597,-0.62757 2.66116,-1.90664 0.36197,-0.60511 1.0006,-2.28478 1.41965,-3.73281 0.81173,-2.80791 0.93853,-3.04279 1.43651,-2.66165 0.22894,0.17517 0.0155,1.32623 -0.75862,4.08178 -0.59238,2.11086 -1.01093,3.97049 -0.93011,4.13246 0.28918,0.57954 1.11762,0.27847 1.8539,-0.67354 0.41182,-0.53251 1.38748,-2.47306 2.16799,-4.31241 1.39105,-3.27768 2.15108,-4.17532 2.66429,-3.14663 0.17297,0.34651 0.36634,0.35337 0.93344,0.0332 0.91482,-0.51638 1.85573,-0.51544 2.27376,0 0.49113,0.60855 0.39576,2.75465 -0.21853,4.92001 -0.71942,2.53506 -0.71437,3.47148 0.019,3.47148 0.64256,0 1.66035,-0.59783 1.95809,-1.15029 0.11776,-0.21812 0.20246,-0.0789 0.20487,0.33662 0.009,1.5953 -2.35882,2.62371 -3.31479,1.43938 z m 44.01773,0.1188 c 0,-0.79682 0.5143,-1.41515 0.98927,-1.18931 0.51431,0.24447 0.47596,1.34024 -0.0555,1.59302 -0.7082,0.33661 -0.93368,0.23916 -0.93368,-0.40371 z M 59.969037,985.01573 c 0.333501,-0.43981 0.57003,-1.00174 0.525619,-1.24881 -0.04446,-0.24706 0.134346,-0.50751 0.397241,-0.5787 0.742657,-0.20115 0.581156,0.85519 -0.273142,1.78673 -0.967276,1.05459 -1.441151,1.08436 -0.649718,0.0404 z m -21.543409,-4.45578 c 0,-0.60072 0.655878,-1.00048 1.092778,-0.66594 0.214791,0.16444 0.209021,0.36428 -0.02044,0.70672 -0.424622,0.63384 -1.072403,0.60918 -1.072403,-0.0404 z m 110.161532,-1.73011 c -0.16193,-0.52251 0.5231,-1.47377 1.06107,-1.47377 0.41135,0 0.22422,1.61796 -0.21106,1.82486 -0.61064,0.29031 -0.65742,0.27095 -0.85001,-0.35109 z"
       style="fill:#3e3221;fill-opacity:1" />
    <g
       transform="matrix(1.3298955,0,0,1.4650554,-42.307932,808.04559)"
       style="font-size:40px;font-style:normal;font-weight:bold;line-height:125%;letter-spacing:0px;word-spacing:0px;fill:#3e3221;fill-opacity:1;stroke:none;font-family:Sans;-inkscape-font-specification:Courier New Bold"
       id="flowRoot3914">
      <path
         d="m 62.140625,74.536773 c -2.7e-5,2.812532 -0.99612,5.214873 -2.988281,7.207031 -1.968772,1.968776 -4.359395,2.95315 -7.171875,2.953125 -2.812514,2.5e-5 -5.214856,-0.984349 -7.207032,-2.953125 -1.992195,-1.992158 -2.988288,-4.394499 -2.988281,-7.207031 -7e-6,-2.812463 0.996086,-5.214804 2.988281,-7.207032 1.992176,-1.992143 4.394518,-2.988236 7.207032,-2.988281 2.81248,4.5e-5 5.203103,0.996138 7.171875,2.988281 1.992161,1.968791 2.988254,4.371132 2.988281,7.207032 m -4.429688,0 c -2.2e-5,-1.593714 -0.562522,-2.941369 -1.6875,-4.042969 -1.125019,-1.12496 -2.472674,-1.687459 -4.042968,-1.6875 -1.593766,4.1e-5 -2.953139,0.56254 -4.078125,1.6875 -1.101575,1.1016 -1.652355,2.449255 -1.652344,4.042969 -1.1e-5,1.570346 0.562488,2.918 1.6875,4.042968 1.124986,1.12503 2.472641,1.68753 4.042969,1.6875 1.570294,3e-5 2.917949,-0.56247 4.042968,-1.6875 1.124978,-1.124968 1.687478,-2.472622 1.6875,-4.042968 m 12.9375,10.722656 -26.578125,8.613281 c -0.656258,0.210953 -1.136726,0.316422 -1.441406,0.316406 -0.539069,1.6e-5 -1.019538,-0.22264 -1.441406,-0.667968 -0.421881,-0.445296 -0.632818,-1.007796 -0.632813,-1.6875 -5e-6,-0.49217 0.164057,-0.937482 0.492188,-1.335938 0.234369,-0.304668 0.785149,-0.597637 1.652344,-0.878906 l 26.578125,-8.613281 c 0.656215,-0.210909 1.136683,-0.316378 1.441406,-0.316407 0.562464,2.9e-5 1.042932,0.234404 1.441406,0.703125 0.421838,0.445341 0.632775,0.984403 0.632813,1.617188 -3.8e-5,0.515651 -0.1641,0.972682 -0.492188,1.371094 -0.234412,0.304712 -0.785193,0.59768 -1.652344,0.878906 m 0.632813,15.152341 c -3.6e-5,2.81251 -0.996129,5.21485 -2.988281,7.20703 -1.992219,1.96875 -4.39456,2.95313 -7.207032,2.95313 -2.812523,0 -5.214864,-0.99609 -7.207031,-2.98828 -1.992204,-1.99219 -2.988297,-4.38281 -2.988281,-7.17188 -1.6e-5,-2.812485 0.996077,-5.214827 2.988281,-7.207029 1.992167,-1.992169 4.394508,-2.988262 7.207031,-2.988281 2.812472,1.9e-5 5.214813,0.996112 7.207032,2.988281 1.992152,1.968765 2.988245,4.371106 2.988281,7.207029 m -4.464844,0 c -3.2e-5,-1.593737 -0.562531,-2.941392 -1.6875,-4.042966 -1.125029,-1.124986 -2.472684,-1.687485 -4.042969,-1.6875 -1.570337,1.5e-5 -2.917991,0.562514 -4.042968,1.6875 -1.125021,1.101574 -1.687521,2.449229 -1.6875,4.042966 -2.1e-5,1.57032 0.562479,2.91798 1.6875,4.04297 1.124977,1.10157 2.472631,1.65235 4.042968,1.65235 1.570285,0 2.91794,-0.55078 4.042969,-1.65235 1.124969,-1.12499 1.687468,-2.47265 1.6875,-4.04297"
         style="font-size:72px;font-variant:normal;font-stretch:normal;font-family:Courier New;-inkscape-font-specification:Courier New Bold"
         id="path4408"
         inkscape:connector-curvature="0" />
      <path
         d="M 107.38672,88.985991 84.042969,76.048491 C 82.871089,75.392276 82.085934,74.806339 81.6875,74.290679 81.312497,73.77509 81.124997,73.11884 81.125,72.321929 c -3e-6,-1.007774 0.363278,-1.874961 1.089844,-2.601563 0.726557,-0.726522 1.582025,-1.089802 2.566406,-1.089843 0.609368,4.1e-5 1.546867,0.339884 2.8125,1.019531 l 34.76953,19.335937 -34.76953,19.335939 c -1.265633,0.70312 -2.203132,1.05469 -2.8125,1.05469 -0.984381,0 -1.839849,-0.36328 -2.566406,-1.08985 -0.726566,-0.72656 -1.089847,-1.60546 -1.089844,-2.63672 -3e-6,-0.79687 0.187497,-1.45312 0.5625,-1.96875 0.398434,-0.51561 1.183589,-1.10155 2.355469,-1.75781 L 107.38672,88.985991"
         style="font-size:72px;font-variant:normal;font-stretch:normal;font-family:Courier New;-inkscape-font-specification:Courier New Bold"
         id="path4410"
         inkscape:connector-curvature="0" />
      <path
         d="m 148.48437,74.536773 c -2e-5,2.812532 -0.99611,5.214873 -2.98828,7.207031 -1.96877,1.968776 -4.35939,2.95315 -7.17187,2.953125 -2.81252,2.5e-5 -5.21486,-0.984349 -7.20703,-2.953125 -1.9922,-1.992158 -2.98829,-4.394499 -2.98828,-7.207031 -1e-5,-2.812463 0.99608,-5.214804 2.98828,-7.207032 1.99217,-1.992143 4.39451,-2.988236 7.20703,-2.988281 2.81248,4.5e-5 5.2031,0.996138 7.17187,2.988281 1.99217,1.968791 2.98826,4.371132 2.98828,7.207032 m -4.42968,0 c -3e-5,-1.593714 -0.56252,-2.941369 -1.6875,-4.042969 -1.12502,-1.12496 -2.47268,-1.687459 -4.04297,-1.6875 -1.59377,4.1e-5 -2.95314,0.56254 -4.07813,1.6875 -1.10157,1.1016 -1.65235,2.449255 -1.65234,4.042969 -1e-5,1.570346 0.56249,2.918 1.6875,4.042968 1.12499,1.12503 2.47264,1.68753 4.04297,1.6875 1.57029,3e-5 2.91795,-0.56247 4.04297,-1.6875 1.12498,-1.124968 1.68747,-2.472622 1.6875,-4.042968 m 12.9375,10.722656 -26.57813,8.613281 c -0.65626,0.210953 -1.13672,0.316422 -1.4414,0.316406 -0.53907,1.6e-5 -1.01954,-0.22264 -1.44141,-0.667968 -0.42188,-0.445296 -0.63282,-1.007796 -0.63281,-1.6875 -10e-6,-0.49217 0.16405,-0.937482 0.49219,-1.335938 0.23436,-0.304668 0.78514,-0.597637 1.65234,-0.878906 l 26.57812,-8.613281 c 0.65622,-0.210909 1.13669,-0.316378 1.44141,-0.316407 0.56246,2.9e-5 1.04293,0.234404 1.44141,0.703125 0.42183,0.445341 0.63277,0.984403 0.63281,1.617188 -4e-5,0.515651 -0.1641,0.972682 -0.49219,1.371094 -0.23441,0.304712 -0.78519,0.59768 -1.65234,0.878906 m 0.63281,15.152341 c -4e-5,2.81251 -0.99613,5.21485 -2.98828,7.20703 -1.99222,1.96875 -4.39456,2.95313 -7.20703,2.95313 -2.81253,0 -5.21487,-0.99609 -7.20703,-2.98828 -1.99221,-1.99219 -2.9883,-4.38281 -2.98829,-7.17188 -1e-5,-2.812485 0.99608,-5.214827 2.98829,-7.207029 1.99216,-1.992169 4.3945,-2.988262 7.20703,-2.988281 2.81247,1.9e-5 5.21481,0.996112 7.20703,2.988281 1.99215,1.968765 2.98824,4.371106 2.98828,7.207029 m -4.46484,0 c -4e-5,-1.593737 -0.56254,-2.941392 -1.6875,-4.042966 -1.12503,-1.124986 -2.47269,-1.687485 -4.04297,-1.6875 -1.57034,1.5e-5 -2.91799,0.562514 -4.04297,1.6875 -1.12502,1.101574 -1.68752,2.449229 -1.6875,4.042966 -2e-5,1.57032 0.56248,2.91798 1.6875,4.04297 1.12498,1.10157 2.47263,1.65235 4.04297,1.65235 1.57028,0 2.91794,-0.55078 4.04297,-1.65235 1.12496,-1.12499 1.68746,-2.47265 1.6875,-4.04297"
         style="font-size:72px;font-variant:normal;font-stretch:normal;font-family:Courier New;-inkscape-font-specification:Courier New Bold"
         id="path4412"
         inkscape:connector-curvature="0" />
    </g>
  </g>
</svg>
