<?xml version="1.0" encoding="utf-8"?>
<!-- Generator: Adobe Illustrator 19.1.0, SVG Export Plug-In . SVG Version: 6.00 Build 0)  -->
<svg version="1.1" id="Layer_1" xmlns="http://www.w3.org/2000/svg" xmlns:xlink="http://www.w3.org/1999/xlink" x="0px" y="0px"
	 viewBox="0 0 124.7 144" style="enable-background:new 0 0 124.7 144;" xml:space="preserve">
<style type="text/css">
	.st0{fill:#004574;}
	.st1{opacity:0.8;fill:#0071BB;}
	.st2{opacity:0.8;fill:#8BBFE0;}
	.st3{fill:#FFFFFF;}
	.st4{fill:#0071BB;}
	.st5{opacity:0.3;}
	.st6{opacity:0.5;fill:#FFFFFF;}
</style>
<g>
	<g>
		<polygon class="st0" points="124.7,108 62.4,144 0,108 0,36 62.4,0 124.7,36 		"/>
		<polygon class="st1" points="0,36 62.4,72 124.7,36 62.4,0 		"/>
		<polygon class="st2" points="124.7,36 62.4,72 62.4,144 124.7,108 		"/>
		<path class="st3" d="M119.6,107.4l-55.2,31.9c-1.3,0.7-2.8,0.7-4.1,0L5.1,107.4c-1.3-0.7-2.1-2.1-2.1-3.6V40.1
			c0-1.5,0.8-2.8,2.1-3.6L60.3,4.7c1.3-0.7,2.8-0.7,4.1,0l55.2,31.9c1.3,0.7,2.1,2.1,2.1,3.6v63.7
			C121.6,105.3,120.9,106.7,119.6,107.4z"/>
	</g>
	<g>
		<circle class="st3" cx="82.6" cy="62.9" r="25.8"/>
		<path class="st4" d="M82.6,89.6C68,89.6,56,77.6,56,62.9s12-26.6,26.6-26.6s26.6,12,26.6,26.6S97.3,89.6,82.6,89.6z M82.6,38.1
			c-13.7,0-24.9,11.2-24.9,24.9s11.2,24.9,24.9,24.9s24.9-11.2,24.9-24.9S96.4,38.1,82.6,38.1z"/>
		<path class="st4" d="M41.8,36.6c-14.5,0-26.3,11.8-26.3,26.3s11.8,26.3,26.3,26.3s26.3-11.8,26.3-26.3S56.3,36.6,41.8,36.6z"/>
		<g class="st5">
			<g>
				<path class="st3" d="M64.2,81.7c-0.1-0.1-0.3-0.3-0.4-0.4c-4.8-4.9-7.5-11.5-7.5-18.4c0-7,2.7-13.7,7.7-18.6l0.8,0.8
					c-4.8,4.8-7.4,11.1-7.4,17.8c0,6.6,2.5,12.8,7.1,17.6c0.1,0.1,0.3,0.3,0.4,0.4L64.2,81.7z"/>
			</g>
		</g>
		<g class="st5">
			<g>
				<path class="st3" d="M60.9,50.2l-1-0.6c0.1-0.2,0.2-0.3,0.3-0.5c3.6-5.9,9.3-10.1,16-11.7c6.8-1.7,13.9-0.7,20,2.9l-0.6,1
					c-5.8-3.4-12.5-4.4-19-2.8c-6.4,1.6-11.8,5.6-15.3,11.2C61.1,49.9,61,50.1,60.9,50.2z"/>
			</g>
		</g>
		<g class="st5">
			<g>
				<path class="st3" d="M106.5,54.8c-2.2-6.4-6.7-11.5-12.7-14.5C87.8,37.4,81.1,37,74.8,39c-0.2,0.1-0.4,0.1-0.5,0.2l-0.4-1.1
					c0.2-0.1,0.4-0.1,0.6-0.2c6.6-2.1,13.6-1.6,19.8,1.4c6.3,3.1,11,8.5,13.3,15.1L106.5,54.8z"/>
			</g>
		</g>
		<g class="st5">
			<g>
				<path class="st3" d="M108.8,66.2l-1.2-0.1c0.8-6.7-1-13.3-5.1-18.6c-4-5.2-9.9-8.6-16.4-9.5c-0.2,0-0.4,0-0.6-0.1l0.1-1.2
					c0.2,0,0.4,0,0.6,0.1c6.9,0.9,13,4.5,17.2,9.9C107.8,52.3,109.7,59.2,108.8,66.2z"/>
			</g>
		</g>
		<g class="st5">
			<g>
				<path class="st3" d="M82.6,89.3c-3.3,0-6.7-0.6-9.9-1.9c-6.5-2.6-11.6-7.7-14.4-14.1l1.1-0.5c2.6,6.2,7.5,11,13.7,13.5
					c6.1,2.5,12.8,2.5,18.9,0c0.2-0.1,0.4-0.1,0.5-0.2l0.5,1.1c-0.2,0.1-0.4,0.2-0.6,0.2C89.4,88.6,86,89.3,82.6,89.3z"/>
			</g>
		</g>
		<g class="st5">
			<g>
				<path class="st3" d="M84.7,89.2L84.6,88c6.7-0.5,12.8-3.6,17.2-8.7c4.3-5,6.4-11.4,6-18c0-0.2,0-0.4,0-0.6l1.2-0.1
					c0,0.2,0,0.4,0,0.6c0.4,6.9-1.8,13.6-6.3,18.8C98.1,85.4,91.7,88.7,84.7,89.2z"/>
			</g>
		</g>
		<g class="st5">
			<g>
				<path class="st3" d="M41.7,88.8c-3.8,0-7.6-0.8-11.1-2.5c-6.2-3-10.9-8.2-13.2-14.7l1.1-0.4c2.2,6.2,6.7,11.2,12.6,14
					c5.8,2.8,12.4,3.2,18.5,1.1c0.2-0.1,0.4-0.1,0.5-0.2l0.4,1.1c-0.2,0.1-0.4,0.1-0.6,0.2C47.4,88.3,44.5,88.8,41.7,88.8z"/>
			</g>
		</g>
		<g class="st5">
			<g>
				<path class="st3" d="M20.4,77.5c-0.1-0.2-0.2-0.3-0.3-0.5c-3.7-5.7-5-12.5-3.6-19.1c1.4-6.8,5.3-12.6,11-16.4l0.7,1
					c-5.5,3.6-9.2,9.2-10.5,15.7c-1.3,6.3,0,12.8,3.5,18.2c0.1,0.2,0.2,0.3,0.3,0.5L20.4,77.5z"/>
			</g>
		</g>
		<g class="st5">
			<g>
				<path class="st3" d="M17.3,60.3l-1.2-0.1c0-0.2,0-0.4,0.1-0.6c0.9-6.7,4.3-12.7,9.6-16.9c5.4-4.3,12.2-6.2,19-5.4l-0.1,1.2
					c-6.5-0.8-13,1.1-18.1,5.2c-5.1,4-8.3,9.7-9.1,16.2C17.3,59.9,17.3,60.1,17.3,60.3z"/>
			</g>
		</g>
		<g class="st5">
			<g>
				<path class="st3" d="M20.9,49.9l-1-0.6c0.1-0.2,0.2-0.3,0.3-0.5c3.7-5.7,9.4-9.6,16-11c6.7-1.5,13.7-0.3,19.5,3.5l-0.6,1
					c-5.5-3.5-12.1-4.7-18.6-3.3c-6.3,1.4-11.7,5.1-15.3,10.5C21.1,49.5,21,49.7,20.9,49.9z"/>
			</g>
		</g>
		<g class="st5">
			<g>
				<path class="st3" d="M41.8,88.8c-0.4,0-0.8,0-1.1,0l0.1-1.2c6.6,0.3,12.9-2,17.7-6.5c4.8-4.4,7.6-10.3,7.9-16.8
					c0-0.2,0-0.4,0-0.6l1.2,0c0,0.2,0,0.4,0,0.6c-0.4,6.8-3.3,13-8.3,17.6C54.4,86.4,48.3,88.8,41.8,88.8z"/>
			</g>
		</g>
		<g class="st5">
			<g>
				<path class="st3" d="M65.9,72.2l-1.1-0.4c2.4-6.1,2.2-12.8-0.5-18.9C61.7,47,56.9,42.5,50.9,40c-0.2-0.1-0.3-0.1-0.5-0.2
					l0.4-1.1c0.2,0.1,0.4,0.1,0.6,0.2c6.3,2.5,11.3,7.3,14,13.5C68.2,58.8,68.3,65.8,65.9,72.2z"/>
			</g>
		</g>
		<path class="st1" d="M95.7,50.8c0-1.7-1.4-3-3-3h-20c-1.7,0-3,1.4-3,3c0,1.7,1.4,3,3,3h20C94.3,53.8,95.7,52.5,95.7,50.8z
			 M70.6,50.8c0-1.1,0.9-2,2-2c1.1,0,2,0.9,2,2c0,1.1-0.9,2-2,2C71.5,52.8,70.6,51.9,70.6,50.8z M90.6,50.8c0-1.1,0.9-2,2-2
			c1.1,0,2,0.9,2,2c0,1.1-0.9,2-2,2C91.5,52.8,90.6,51.9,90.6,50.8z"/>
		<path class="st1" d="M95.7,74.9c0-1.7-1.4-3-3-3h-20c-1.7,0-3,1.4-3,3c0,1.7,1.4,3,3,3h20C94.3,77.9,95.7,76.5,95.7,74.9z
			 M70.6,74.9c0-1.1,0.9-2,2-2c1.1,0,2,0.9,2,2c0,1.1-0.9,2-2,2C71.5,76.9,70.6,76,70.6,74.9z M90.6,74.9c0-1.1,0.9-2,2-2
			c1.1,0,2,0.9,2,2c0,1.1-0.9,2-2,2C91.5,76.9,90.6,76,90.6,74.9z"/>
		<path class="st1" d="M94.8,48.7c-1.2-1.2-3.1-1.2-4.3,0l-20,24c-1.2,1.2-1.2,3.1,0,4.3c1.2,1.2,3.1,1.2,4.3,0l20-24
			C95.9,51.8,95.9,49.9,94.8,48.7z M71.2,76.3c-0.8-0.8-0.8-2.1,0-2.8c0.8-0.8,2.1-0.8,2.8,0c0.8,0.8,0.8,2.1,0,2.8
			C73.2,77.1,72,77.1,71.2,76.3z M91.2,52.2c-0.8-0.8-0.8-2.1,0-2.8c0.8-0.8,2.1-0.8,2.8,0c0.8,0.8,0.8,2.1,0,2.8
			C93.3,53,92,53,91.2,52.2z"/>
		<g>
			<path class="st6" d="M30.2,47.7c-1.7,0-3,1.4-3,3v24c0,1.7,1.4,3,3,3c1.7,0,3-1.4,3-3v-24C33.3,49.1,31.9,47.7,30.2,47.7z
				 M30.2,76.9c-1.1,0-2-0.9-2-2c0-1.1,0.9-2,2-2c1.1,0,2,0.9,2,2C32.3,76,31.4,76.9,30.2,76.9z M30.2,52.8c-1.1,0-2-0.9-2-2
				c0-1.1,0.9-2,2-2c1.1,0,2,0.9,2,2C32.3,51.9,31.4,52.8,30.2,52.8z"/>
			<path class="st6" d="M28.1,48.7c-1.2,1.2-1.2,3.1,0,4.3l12,12c1.2,1.2,3.1,1.2,4.3,0c1.2-1.2,1.2-3.1,0-4.3l-12-12
				C31.2,47.5,29.3,47.5,28.1,48.7z M43.8,64.3c-0.8,0.8-2.1,0.8-2.8,0c-0.8-0.8-0.8-2.1,0-2.8c0.8-0.8,2.1-0.8,2.8,0
				C44.5,62.3,44.5,63.6,43.8,64.3z M31.7,52.2c-0.8,0.8-2.1,0.8-2.8,0c-0.8-0.8-0.8-2.1,0-2.8c0.8-0.8,2.1-0.8,2.8,0
				C32.5,50.2,32.5,51.5,31.7,52.2z"/>
			<path class="st6" d="M56.6,48.7c-1.2-1.2-3.1-1.2-4.3,0l-12,12c-1.2,1.2-1.2,3.1,0,4.3c1.2,1.2,3.1,1.2,4.3,0l12-12
				C57.8,51.8,57.8,49.9,56.6,48.7z M40.9,64.3c-0.8-0.8-0.8-2.1,0-2.8c0.8-0.8,2.1-0.8,2.8,0c0.8,0.8,0.8,2.1,0,2.8
				C43,65.1,41.7,65.1,40.9,64.3z M53,52.2c-0.8-0.8-0.8-2.1,0-2.8c0.8-0.8,2.1-0.8,2.8,0c0.8,0.8,0.8,2.1,0,2.8
				C55.1,53,53.8,53,53,52.2z"/>
			<path class="st6" d="M54.5,47.8c-1.7,0-3,1.4-3,3v24c0,1.7,1.4,3,3,3c1.7,0,3-1.4,3-3v-24C57.5,49.1,56.1,47.8,54.5,47.8z
				 M54.5,77c-1.1,0-2-0.9-2-2c0-1.1,0.9-2,2-2c1.1,0,2,0.9,2,2C56.5,76.1,55.6,77,54.5,77z M54.5,52.8c-1.1,0-2-0.9-2-2
				c0-1.1,0.9-2,2-2c1.1,0,2,0.9,2,2C56.5,51.9,55.6,52.8,54.5,52.8z"/>
		</g>
		<g>
			<g>
				<path class="st3" d="M92.6,54.1h-20c-1.8,0-3.2-1.5-3.2-3.2s1.5-3.2,3.2-3.2h20c1.8,0,3.2,1.5,3.2,3.2S94.4,54.1,92.6,54.1z
					 M72.7,48c-1.5,0-2.8,1.3-2.8,2.8c0,1.5,1.3,2.8,2.8,2.8h20c1.5,0,2.8-1.3,2.8-2.8c0-1.5-1.3-2.8-2.8-2.8H72.7z M92.6,53
					c-1.2,0-2.2-1-2.2-2.2c0-1.2,1-2.2,2.2-2.2c1.2,0,2.2,1,2.2,2.2C94.8,52,93.8,53,92.6,53z M92.6,49c-1,0-1.8,0.8-1.8,1.8
					c0,1,0.8,1.8,1.8,1.8c1,0,1.8-0.8,1.8-1.8C94.4,49.8,93.6,49,92.6,49z M72.6,53c-1.2,0-2.2-1-2.2-2.2c0-1.2,1-2.2,2.2-2.2
					c1.2,0,2.2,1,2.2,2.2C74.8,52,73.8,53,72.6,53z M72.6,49c-1,0-1.8,0.8-1.8,1.8c0,1,0.8,1.8,1.8,1.8c1,0,1.8-0.8,1.8-1.8
					C74.4,49.8,73.6,49,72.6,49z"/>
			</g>
		</g>
		<g>
			<g>
				<path class="st3" d="M92.6,78.1h-20c-1.8,0-3.2-1.5-3.2-3.2c0-1.8,1.5-3.2,3.2-3.2h20c1.8,0,3.2,1.5,3.2,3.2
					C95.9,76.7,94.4,78.1,92.6,78.1z M72.7,72.1c-1.5,0-2.8,1.3-2.8,2.8c0,1.5,1.3,2.8,2.8,2.8h20c1.5,0,2.8-1.3,2.8-2.8
					c0-1.5-1.3-2.8-2.8-2.8H72.7z M92.6,77.1c-1.2,0-2.2-1-2.2-2.2c0-1.2,1-2.2,2.2-2.2c1.2,0,2.2,1,2.2,2.2
					C94.8,76.1,93.8,77.1,92.6,77.1z M92.6,73.1c-1,0-1.8,0.8-1.8,1.8c0,1,0.8,1.8,1.8,1.8c1,0,1.8-0.8,1.8-1.8
					C94.4,73.9,93.6,73.1,92.6,73.1z M72.6,77.1c-1.2,0-2.2-1-2.2-2.2c0-1.2,1-2.2,2.2-2.2c1.2,0,2.2,1,2.2,2.2
					C74.8,76.1,73.8,77.1,72.6,77.1z M72.6,73.1c-1,0-1.8,0.8-1.8,1.8c0,1,0.8,1.8,1.8,1.8c1,0,1.8-0.8,1.8-1.8
					C74.4,73.9,73.6,73.1,72.6,73.1z"/>
			</g>
		</g>
		<g>
			<g>
				<path class="st3" d="M72.7,78.1c-0.9,0-1.7-0.3-2.3-1c-1.3-1.3-1.3-3.3,0-4.6l19.9-24c0.6-0.6,1.4-1,2.3-1c0.9,0,1.7,0.3,2.3,1
					c0.6,0.6,1,1.4,1,2.3c0,0.9-0.3,1.7-1,2.3L75,77.1C74.4,77.8,73.5,78.1,72.7,78.1z M92.6,48c-0.7,0-1.5,0.3-2,0.8l-19.9,24
					c-1.1,1.1-1.1,2.9,0,4c0.5,0.5,1.2,0.8,2,0.8s1.5-0.3,2-0.8l19.9-24c0.5-0.5,0.8-1.2,0.8-2c0-0.7-0.3-1.4-0.8-2
					C94.1,48.3,93.4,48,92.6,48z M72.6,77.2c-0.6,0-1.2-0.2-1.6-0.7c-0.4-0.4-0.7-1-0.7-1.6c0-0.6,0.2-1.2,0.7-1.6
					c0.4-0.4,1-0.7,1.6-0.7c0.6,0,1.2,0.2,1.6,0.7c0.4,0.4,0.7,1,0.7,1.6c0,0.6-0.2,1.2-0.7,1.6C73.8,76.9,73.2,77.2,72.6,77.2z
					 M72.6,73.1c-0.5,0-0.9,0.2-1.3,0.5c-0.3,0.3-0.5,0.8-0.5,1.3s0.2,0.9,0.5,1.3c0.7,0.7,1.8,0.7,2.5,0c0.3-0.3,0.5-0.8,0.5-1.3
					c0-0.5-0.2-0.9-0.5-1.3C73.5,73.3,73.1,73.1,72.6,73.1z M92.6,53.1c-0.6,0-1.2-0.2-1.6-0.7c-0.9-0.9-0.9-2.3,0-3.2
					c0.8-0.8,2.3-0.8,3.2,0c0.9,0.9,0.9,2.3,0,3.2C93.8,52.8,93.2,53.1,92.6,53.1z M92.6,49c-0.5,0-0.9,0.2-1.3,0.5
					c-0.7,0.7-0.7,1.8,0,2.5c0.7,0.7,1.8,0.7,2.5,0c0.7-0.7,0.7-1.8,0-2.5C93.5,49.2,93.1,49,92.6,49z"/>
			</g>
		</g>
		<g>
			<g>
				<path class="st3" d="M30.2,78c-1.7,0-3.2-1.4-3.2-3.2v-24c0-1.7,1.4-3.2,3.2-3.2c1.7,0,3.2,1.4,3.2,3.2v24
					C33.4,76.5,32,78,30.2,78z M30.2,47.9c-1.6,0-2.9,1.3-2.9,2.9v24c0,1.6,1.3,2.9,2.9,2.9c1.6,0,2.9-1.3,2.9-2.9v-24
					C33.1,49.2,31.8,47.9,30.2,47.9z M30.2,77c-1.2,0-2.2-1-2.2-2.2c0-1.2,1-2.2,2.2-2.2c1.2,0,2.2,1,2.2,2.2
					C32.4,76.1,31.4,77,30.2,77z M30.2,73c-1,0-1.9,0.8-1.9,1.9c0,1,0.8,1.9,1.9,1.9c1,0,1.9-0.8,1.9-1.9C32.1,73.9,31.3,73,30.2,73
					z M30.2,52.9c-1.2,0-2.2-1-2.2-2.2c0-1.2,1-2.2,2.2-2.2c1.2,0,2.2,1,2.2,2.2C32.4,52,31.4,52.9,30.2,52.9z M30.2,48.9
					c-1,0-1.9,0.8-1.9,1.9c0,1,0.8,1.9,1.9,1.9c1,0,1.9-0.8,1.9-1.9C32.1,49.7,31.3,48.9,30.2,48.9z"/>
			</g>
		</g>
		<g>
			<g>
				<path class="st3" d="M42.3,66c-0.8,0-1.6-0.3-2.2-0.9l-12-12c-0.6-0.6-0.9-1.4-0.9-2.2c0-0.8,0.3-1.6,0.9-2.2
					c0.6-0.6,1.4-0.9,2.2-0.9c0.8,0,1.6,0.3,2.2,0.9l12,12c0.6,0.6,0.9,1.4,0.9,2.2c0,0.8-0.3,1.6-0.9,2.2
					C43.9,65.7,43.1,66,42.3,66z M30.2,47.9c-0.8,0-1.5,0.3-2,0.8c-0.5,0.5-0.8,1.3-0.8,2c0,0.8,0.3,1.5,0.8,2l12,12
					c0.5,0.5,1.3,0.8,2,0.8c0.8,0,1.5-0.3,2-0.8c0.5-0.5,0.8-1.3,0.8-2c0-0.8-0.3-1.5-0.8-2l-12-12C31.7,48.2,31,47.9,30.2,47.9z
					 M42.3,65.1c-0.6,0-1.1-0.2-1.5-0.6c-0.8-0.8-0.8-2.2,0-3c0.4-0.4,0.9-0.6,1.5-0.6c0.6,0,1.1,0.2,1.5,0.6c0.8,0.8,0.8,2.2,0,3
					C43.5,64.9,42.9,65.1,42.3,65.1z M42.3,61.1c-0.5,0-1,0.2-1.3,0.5c-0.7,0.7-0.7,1.9,0,2.6c0.4,0.4,0.8,0.5,1.3,0.5
					c0.5,0,1-0.2,1.3-0.5c0.7-0.7,0.7-1.9,0-2.6C43.3,61.3,42.8,61.1,42.3,61.1z M30.3,53c-0.6,0-1.1-0.2-1.5-0.6
					c-0.8-0.8-0.8-2.2,0-3c0.4-0.4,0.9-0.6,1.5-0.6c0.6,0,1.1,0.2,1.5,0.6c0.8,0.8,0.8,2.2,0,3C31.4,52.8,30.8,53,30.3,53z M30.3,49
					c-0.5,0-1,0.2-1.3,0.5c-0.7,0.7-0.7,1.9,0,2.6c0.4,0.4,0.8,0.5,1.3,0.5c0.5,0,1-0.2,1.3-0.5c0.7-0.7,0.7-1.9,0-2.6
					C31.2,49.2,30.8,49,30.3,49z"/>
			</g>
		</g>
		<g>
			<g>
				<path class="st3" d="M42.4,66c-0.8,0-1.6-0.3-2.2-0.9c-0.6-0.6-0.9-1.4-0.9-2.2c0-0.8,0.3-1.6,0.9-2.2l12-12
					c0.6-0.6,1.4-0.9,2.2-0.9c0.8,0,1.6,0.3,2.2,0.9c0.6,0.6,0.9,1.4,0.9,2.2c0,0.8-0.3,1.6-0.9,2.2l-12,12
					C44.1,65.7,43.3,66,42.4,66z M54.5,47.9c-0.8,0-1.5,0.3-2,0.8l-12,12c-0.5,0.5-0.8,1.3-0.8,2c0,0.8,0.3,1.5,0.8,2
					c0.5,0.5,1.3,0.8,2,0.8c0.8,0,1.5-0.3,2-0.8l12-12c0.5-0.5,0.8-1.3,0.8-2c0-0.8-0.3-1.5-0.8-2C56,48.2,55.2,47.9,54.5,47.9z
					 M42.4,65.1c-0.6,0-1.1-0.2-1.5-0.6c-0.8-0.8-0.8-2.2,0-3c0.4-0.4,0.9-0.6,1.5-0.6c0.6,0,1.1,0.2,1.5,0.6c0.8,0.8,0.8,2.2,0,3
					C43.5,64.9,42.9,65.1,42.4,65.1z M42.4,61.1c-0.5,0-1,0.2-1.3,0.5c-0.7,0.7-0.7,1.9,0,2.6c0.4,0.4,0.8,0.5,1.3,0.5
					s1-0.2,1.3-0.5c0.7-0.7,0.7-1.9,0-2.6C43.3,61.3,42.9,61.1,42.4,61.1z M54.5,53c-0.6,0-1.1-0.2-1.5-0.6c-0.8-0.8-0.8-2.2,0-3
					c0.4-0.4,0.9-0.6,1.5-0.6c0.6,0,1.1,0.2,1.5,0.6c0.8,0.8,0.8,2.2,0,3C55.6,52.8,55,53,54.5,53z M54.5,49c-0.5,0-1,0.2-1.3,0.5
					c-0.7,0.7-0.7,1.9,0,2.6c0.4,0.4,0.8,0.5,1.3,0.5s1-0.2,1.3-0.5c0.7-0.7,0.7-1.9,0-2.6C55.4,49.2,54.9,49,54.5,49z"/>
			</g>
		</g>
		<g>
			<g>
				<path class="st3" d="M54.5,78c-1.7,0-3.2-1.4-3.2-3.2v-24c0-1.7,1.4-3.2,3.2-3.2c1.7,0,3.2,1.4,3.2,3.2v24
					C57.6,76.6,56.2,78,54.5,78z M54.5,47.9c-1.6,0-2.9,1.3-2.9,2.9v24c0,1.6,1.3,2.9,2.9,2.9c1.6,0,2.9-1.3,2.9-2.9v-24
					C57.3,49.2,56,47.9,54.5,47.9z M54.5,77.1c-1.2,0-2.2-1-2.2-2.2c0-1.2,1-2.2,2.2-2.2c1.2,0,2.2,1,2.2,2.2
					C56.6,76.1,55.7,77.1,54.5,77.1z M54.5,73.1c-1,0-1.9,0.8-1.9,1.9c0,1,0.8,1.9,1.9,1.9c1,0,1.9-0.8,1.9-1.9
					C56.3,73.9,55.5,73.1,54.5,73.1z M54.5,53c-1.2,0-2.2-1-2.2-2.2c0-1.2,1-2.2,2.2-2.2c1.2,0,2.2,1,2.2,2.2
					C56.6,52,55.7,53,54.5,53z M54.5,49c-1,0-1.9,0.8-1.9,1.9s0.8,1.9,1.9,1.9c1,0,1.9-0.8,1.9-1.9S55.5,49,54.5,49z"/>
			</g>
		</g>
		<g>
			<path class="st4" d="M27.1,102.5v-8.1c0-0.1,0-0.2,0-0.2c0-0.1,0.1-0.1,0.1-0.2c0.1-0.1,0.1-0.1,0.2-0.1c0.1,0,0.2,0,0.2,0
				c0.2,0,0.4,0.1,0.6,0.3l3.5,7l3.5-7c0.1-0.2,0.3-0.3,0.5-0.3c0.1,0,0.2,0,0.2,0c0.1,0,0.1,0.1,0.2,0.1c0.1,0.1,0.1,0.1,0.1,0.2
				c0,0.1,0,0.2,0,0.2v8.1c0,0.2-0.1,0.3-0.2,0.4c-0.1,0.1-0.3,0.2-0.4,0.2c-0.2,0-0.3-0.1-0.4-0.2c-0.1-0.1-0.2-0.3-0.2-0.4V97
				l-2.9,5.8c-0.1,0.2-0.3,0.3-0.5,0.3c-0.3,0-0.4-0.1-0.6-0.4L28.3,97v5.5c0,0.2-0.1,0.3-0.2,0.4c-0.1,0.1-0.3,0.2-0.4,0.2
				c-0.2,0-0.3-0.1-0.4-0.2C27.1,102.8,27.1,102.7,27.1,102.5z"/>
			<path class="st4" d="M36.9,102.2l3.1-8c0.1-0.3,0.3-0.4,0.6-0.4c0.3,0,0.5,0.1,0.6,0.4l3.1,8.1c0,0.1,0,0.2,0,0.3
				c0,0.2-0.1,0.3-0.2,0.4c-0.1,0.1-0.3,0.2-0.4,0.2c-0.2,0-0.3-0.1-0.4-0.2c-0.1-0.1-0.1-0.1-0.1-0.2l-1.1-2.8h-3l-1.1,2.8
				c0,0.1-0.1,0.1-0.1,0.2c-0.1,0.1-0.3,0.2-0.4,0.2c-0.2,0-0.3-0.1-0.4-0.2c-0.1-0.1-0.2-0.3-0.2-0.4
				C36.9,102.4,36.9,102.3,36.9,102.2z M41.7,98.7l-1-2.6l-1,2.6H41.7z"/>
			<path class="st4" d="M44.8,94.4c0-0.2,0.1-0.3,0.2-0.4c0.1-0.1,0.3-0.2,0.4-0.2s0.3,0.1,0.4,0.2c0.1,0.1,0.2,0.3,0.2,0.4v3.5
				l3.9-3.9c0.1-0.1,0.3-0.2,0.5-0.2c0.1,0,0.2,0,0.2,0c0.1,0,0.1,0.1,0.2,0.1c0.1,0.1,0.1,0.1,0.1,0.2c0,0.1,0,0.2,0,0.2
				c0,0.2-0.1,0.3-0.2,0.4l-3.1,3.1l3.1,4.2c0.1,0.1,0.1,0.2,0.1,0.4c0,0.1,0,0.2,0,0.2c0,0.1-0.1,0.1-0.1,0.2
				c-0.1,0.1-0.1,0.1-0.2,0.1c-0.1,0-0.2,0.1-0.2,0.1c-0.2,0-0.4-0.1-0.5-0.3l-3-4.1l-0.8,0.8v2.9c0,0.2-0.1,0.3-0.2,0.4
				c-0.1,0.1-0.3,0.2-0.4,0.2s-0.3-0.1-0.4-0.2c-0.1-0.1-0.2-0.3-0.2-0.4V94.4z"/>
			<path class="st4" d="M57.4,101.9c0.2,0,0.3,0.1,0.4,0.2c0.1,0.1,0.2,0.3,0.2,0.4c0,0.2-0.1,0.3-0.2,0.4c-0.1,0.1-0.3,0.2-0.4,0.2
				H52c-0.1,0-0.2,0-0.2,0c-0.1,0-0.1-0.1-0.2-0.1c-0.1-0.1-0.1-0.1-0.1-0.2c0-0.1,0-0.2,0-0.2v-8.1c0-0.1,0-0.2,0-0.2
				c0-0.1,0.1-0.1,0.1-0.2c0.1-0.1,0.1-0.1,0.2-0.1c0.1,0,0.2,0,0.2,0h5.4c0.2,0,0.3,0.1,0.4,0.2c0.1,0.1,0.2,0.3,0.2,0.4
				c0,0.2-0.1,0.3-0.2,0.4c-0.1,0.1-0.3,0.2-0.4,0.2h-4.8v2.8H56c0.2,0,0.3,0.1,0.4,0.2c0.1,0.1,0.2,0.3,0.2,0.4
				c0,0.2-0.1,0.3-0.2,0.4c-0.1,0.1-0.3,0.2-0.4,0.2h-3.4v2.8H57.4z"/>
		</g>
		<g>
			<path class="st0" d="M57.7,93.7H64c0.1,0,0.2,0,0.2,0c0.1,0,0.1,0.1,0.2,0.1c0.1,0.1,0.1,0.1,0.1,0.2c0,0.1,0,0.2,0,0.2
				c0,0.1,0,0.2-0.1,0.4l-5.6,7.1H64c0.2,0,0.3,0.1,0.4,0.2c0.1,0.1,0.2,0.3,0.2,0.4c0,0.2-0.1,0.3-0.2,0.4
				c-0.1,0.1-0.3,0.2-0.4,0.2h-6.3c-0.1,0-0.2,0-0.2,0c-0.1,0-0.1-0.1-0.2-0.1c-0.1-0.1-0.1-0.1-0.1-0.2c0-0.1,0-0.2,0-0.2
				c0-0.1,0-0.3,0.1-0.4l5.5-7.1h-5.1c-0.2,0-0.3-0.1-0.4-0.2c-0.1-0.1-0.2-0.3-0.2-0.4c0-0.2,0.1-0.3,0.2-0.4
				C57.4,93.8,57.5,93.7,57.7,93.7z"/>
			<path class="st0" d="M66.3,94.4v5.4c0,0.3,0.1,0.6,0.2,0.8c0.1,0.3,0.3,0.5,0.4,0.7c0.2,0.2,0.4,0.3,0.7,0.4
				c0.3,0.1,0.5,0.2,0.8,0.2c0.3,0,0.6-0.1,0.8-0.2c0.3-0.1,0.5-0.3,0.7-0.5c0.2-0.2,0.3-0.4,0.4-0.7c0.1-0.3,0.2-0.5,0.2-0.8v-5.4
				c0-0.2,0.1-0.3,0.2-0.4c0.1-0.1,0.3-0.2,0.4-0.2s0.3,0.1,0.4,0.2c0.1,0.1,0.2,0.3,0.2,0.4v5.4c0,0.3,0,0.6-0.1,0.9
				c-0.1,0.3-0.2,0.5-0.3,0.8c-0.1,0.2-0.3,0.5-0.5,0.7c-0.2,0.2-0.4,0.4-0.7,0.5c-0.2,0.1-0.5,0.3-0.8,0.3
				c-0.3,0.1-0.6,0.1-0.9,0.1c-0.9,0-1.7-0.3-2.3-1c-0.7-0.7-1-1.4-1-2.4v-5.4c0-0.2,0.1-0.3,0.2-0.4c0.1-0.1,0.3-0.2,0.4-0.2
				c0.2,0,0.3,0.1,0.4,0.2C66.2,94.1,66.3,94.2,66.3,94.4z"/>
			<path class="st0" d="M72,102.5v-8.1c0-0.1,0-0.2,0-0.2c0-0.1,0.1-0.1,0.1-0.2c0.1-0.1,0.1-0.1,0.2-0.1c0.1,0,0.2,0,0.2,0h2.3
				c0.4,0,0.8,0.1,1.1,0.2c0.3,0.2,0.7,0.4,0.9,0.6c0.3,0.3,0.5,0.6,0.6,0.9c0.2,0.3,0.2,0.7,0.2,1.1c0,0.3,0,0.5-0.1,0.8
				c-0.1,0.2-0.2,0.5-0.3,0.7c-0.1,0.2-0.3,0.4-0.5,0.6c-0.2,0.2-0.4,0.3-0.7,0.5l1.9,3c0.1,0.1,0.1,0.2,0.1,0.3c0,0.1,0,0.2,0,0.2
				c0,0.1-0.1,0.1-0.1,0.2c-0.1,0.1-0.1,0.1-0.2,0.1c-0.1,0-0.2,0-0.2,0c-0.2,0-0.4-0.1-0.5-0.3L75,99.5h-1.7v3
				c0,0.2-0.1,0.3-0.2,0.4c-0.1,0.1-0.3,0.2-0.4,0.2c-0.2,0-0.3-0.1-0.4-0.2C72.1,102.8,72,102.7,72,102.5z M73.3,95v3.3h1.6
				c0.2,0,0.4,0,0.6-0.1c0.2-0.1,0.4-0.2,0.5-0.4c0.1-0.2,0.3-0.3,0.3-0.5c0.1-0.2,0.1-0.4,0.1-0.6c0-0.2,0-0.4-0.1-0.6
				c-0.1-0.2-0.2-0.4-0.4-0.5c-0.1-0.1-0.3-0.3-0.5-0.4C75.3,95,75.1,95,74.9,95H73.3z"/>
			<path class="st0" d="M80.2,102.5c0,0.2-0.1,0.3-0.2,0.4c-0.1,0.1-0.3,0.2-0.4,0.2c-0.2,0-0.3-0.1-0.4-0.2
				c-0.1-0.1-0.2-0.3-0.2-0.4v-8.1c0-0.2,0.1-0.3,0.2-0.4c0.1-0.1,0.3-0.2,0.4-0.2c0.2,0,0.3,0.1,0.4,0.2c0.1,0.1,0.2,0.3,0.2,0.4
				V102.5z"/>
			<path class="st0" d="M88.1,101c0.1,0,0.2,0,0.2,0c0.1,0,0.1,0.1,0.2,0.1c0.1,0.1,0.1,0.1,0.1,0.2c0,0.1,0,0.2,0,0.2
				c0,0.2-0.1,0.3-0.2,0.4c-0.9,0.7-1.9,1-2.9,1c-1.3,0-2.4-0.5-3.3-1.4c-0.9-0.9-1.4-2-1.4-3.3c0-1.3,0.5-2.4,1.4-3.3
				c0.9-0.9,2-1.4,3.3-1.4c1.1,0,2.1,0.4,3,1.1c0.1,0.1,0.2,0.2,0.2,0.4c0,0.1,0,0.2,0,0.2c0,0.1-0.1,0.1-0.1,0.2
				c-0.1,0.1-0.1,0.1-0.2,0.1c-0.1,0-0.2,0-0.2,0c-0.2,0-0.3-0.1-0.4-0.2c-0.3-0.2-0.6-0.4-1-0.5C86.4,95.1,86,95,85.6,95
				c-1,0-1.8,0.3-2.4,1c-0.7,0.7-1,1.5-1,2.4c0,1,0.3,1.8,1,2.4c0.7,0.7,1.5,1,2.4,1c0.8,0,1.5-0.3,2.2-0.8
				C87.9,101,88,101,88.1,101z"/>
			<path class="st0" d="M95.7,102.5c0,0.2-0.1,0.3-0.2,0.4c-0.1,0.1-0.3,0.2-0.4,0.2c-0.2,0-0.3-0.1-0.4-0.2
				c-0.1-0.1-0.2-0.3-0.2-0.4v-3.4h-4.2v3.4c0,0.2-0.1,0.3-0.2,0.4c-0.1,0.1-0.3,0.2-0.4,0.2c-0.2,0-0.3-0.1-0.4-0.2
				c-0.1-0.1-0.2-0.3-0.2-0.4v-8.1c0-0.2,0.1-0.3,0.2-0.4c0.1-0.1,0.3-0.2,0.4-0.2c0.2,0,0.3,0.1,0.4,0.2c0.1,0.1,0.2,0.3,0.2,0.4
				v3.4h4.2v-3.4c0-0.2,0.1-0.3,0.2-0.4c0.1-0.1,0.3-0.2,0.4-0.2c0.2,0,0.3,0.1,0.4,0.2c0.1,0.1,0.2,0.3,0.2,0.4V102.5z"/>
		</g>
		<g>
			<path class="st0" d="M79.4,108.2c0,0-0.1,0.1-0.2,0.1c-0.1,0-0.1,0-0.2-0.1c0,0,0,0-0.1-0.1l-1.7-4.3c0,0,0-0.1,0-0.1
				c0-0.1,0-0.1,0.1-0.2c0,0,0.1-0.1,0.2-0.1c0.1,0,0.2,0,0.2,0.1l1.5,3.8l1.5-3.8c0-0.1,0.1-0.1,0.2-0.1c0.1,0,0.1,0,0.2,0.1
				c0,0,0.1,0.1,0.1,0.2c0,0,0,0.1,0,0.1L79.4,108.2C79.4,108.2,79.4,108.2,79.4,108.2z"/>
			<path class="st0" d="M86.5,105.9c0,0.7-0.2,1.2-0.7,1.7c-0.5,0.5-1,0.7-1.7,0.7c-0.7,0-1.2-0.2-1.7-0.7c-0.5-0.5-0.7-1-0.7-1.7
				c0-0.7,0.2-1.2,0.7-1.7c0.5-0.5,1-0.7,1.7-0.7c0.7,0,1.2,0.2,1.7,0.7C86.2,104.6,86.5,105.2,86.5,105.9z M84.1,103.9
				c-0.5,0-1,0.2-1.4,0.6c-0.4,0.4-0.6,0.8-0.6,1.4c0,0.5,0.2,1,0.6,1.4c0.4,0.4,0.8,0.6,1.4,0.6c0.5,0,1-0.2,1.4-0.6
				c0.4-0.4,0.6-0.8,0.6-1.4c0-0.5-0.2-1-0.6-1.4C85.1,104.1,84.6,103.9,84.1,103.9z"/>
			<path class="st0" d="M87,103.7c0-0.1,0-0.1,0.1-0.2c0,0,0.1-0.1,0.2-0.1c0.1,0,0.1,0,0.2,0.1c0,0,0.1,0.1,0.1,0.2v4.1h2.4
				c0.1,0,0.1,0,0.2,0.1c0,0,0.1,0.1,0.1,0.2c0,0.1,0,0.1-0.1,0.2c0,0-0.1,0.1-0.2,0.1h-2.7c-0.1,0-0.1,0-0.2-0.1
				c0,0-0.1-0.1-0.1-0.2V103.7z"/>
			<path class="st0" d="M91.3,107.9c0,0.1,0,0.2-0.1,0.3c-0.1,0.1-0.2,0.1-0.3,0.1c-0.1,0-0.2,0-0.3-0.1c-0.1-0.1-0.1-0.2-0.1-0.3
				c0-0.1,0-0.2,0.1-0.3c0.1-0.1,0.2-0.1,0.3-0.1c0.1,0,0.2,0,0.3,0.1C91.3,107.8,91.3,107.8,91.3,107.9z"/>
			<path class="st0" d="M93.7,103.7c0-0.1,0-0.1,0.1-0.2c0,0,0.1-0.1,0.2-0.1c0.1,0,0.1,0,0.2,0.1c0,0,0.1,0.1,0.1,0.2v4.4
				c0,0.1,0,0.1-0.1,0.2c0,0-0.1,0.1-0.2,0.1c-0.1,0-0.1,0-0.2-0.1c0,0-0.1-0.1-0.1-0.2V103.7z"/>
			<path class="st0" d="M95.2,103.7c0-0.1,0-0.1,0.1-0.2c0,0,0.1-0.1,0.2-0.1c0.1,0,0.1,0,0.2,0.1c0,0,0.1,0.1,0.1,0.2v4.4
				c0,0.1,0,0.1-0.1,0.2c0,0-0.1,0.1-0.2,0.1c-0.1,0-0.1,0-0.2-0.1c0,0-0.1-0.1-0.1-0.2V103.7z"/>
		</g>
	</g>
</g>
</svg>
