<?xml version="1.0" encoding="UTF-8" standalone="no"?>
<!-- Created with Inkscape (http://www.inkscape.org/) -->

<svg
   xmlns:dc="http://purl.org/dc/elements/1.1/"
   xmlns:cc="http://creativecommons.org/ns#"
   xmlns:rdf="http://www.w3.org/1999/02/22-rdf-syntax-ns#"
   xmlns:svg="http://www.w3.org/2000/svg"
   xmlns="http://www.w3.org/2000/svg"
   xmlns:sodipodi="http://sodipodi.sourceforge.net/DTD/sodipodi-0.dtd"
   xmlns:inkscape="http://www.inkscape.org/namespaces/inkscape"
   version="1.1"
   id="svg29"
   xml:space="preserve"
   width="181"
   height="209"
   viewBox="0 0 181 209"
   sodipodi:docname="sticker.svg"
   inkscape:version="0.92.3 (2405546, 2018-03-11)"><metadata
     id="metadata35"><rdf:RDF><cc:Work
         rdf:about=""><dc:format>image/svg+xml</dc:format><dc:type
           rdf:resource="http://purl.org/dc/dcmitype/StillImage" /><dc:title /></cc:Work></rdf:RDF></metadata><defs
     id="defs33"><clipPath
       clipPathUnits="userSpaceOnUse"
       id="clipPath55"><path
         d="M 0,792 H 612 V 0 H 0 Z"
         id="path53"
         inkscape:connector-curvature="0" /></clipPath></defs><sodipodi:namedview
     pagecolor="#ffffff"
     bordercolor="#666666"
     borderopacity="1"
     objecttolerance="10"
     gridtolerance="10"
     guidetolerance="10"
     inkscape:pageopacity="0"
     inkscape:pageshadow="2"
     inkscape:window-width="1920"
     inkscape:window-height="1454"
     id="namedview31"
     showgrid="false"
     inkscape:zoom="4"
     inkscape:cx="59.57"
     inkscape:cy="111.3"
     inkscape:window-x="1920"
     inkscape:window-y="37"
     inkscape:window-maximized="0"
     inkscape:current-layer="layer1" /><g
     inkscape:groupmode="layer"
     id="layer1"
     inkscape:label="Artwork"
     style="display:inline"
     transform="translate(0,-847)"><path
   sodipodi:type="star"
   id="path1075"
   sodipodi:sides="6"
   sodipodi:cx="90.5"
   sodipodi:cy="951.49957"
   sodipodi:r1="104.5004"
   sodipodi:r2="90.5"
   sodipodi:arg1="1.5707963"
   sodipodi:arg2="2.0943951"
   inkscape:flatsided="true"
   inkscape:rounded="0"
   inkscape:randomized="0"
   d="M 90.5,1056 0,1004 0,899.2 90.5,847 181,899.2 181,1004 Z"
   style="fill:#ad1457;fill-opacity:1;stroke-width:1.08854508"
   transform="matrix(1,0,0,0.9999962,0,0.00400903)" /><g
   id="g5676"
   transform="matrix(0.11337841,0,0,0.11337833,32.450254,877.71824)"><path
     id="path5647"
     d="M 384,640 V 384 L 512,560 640,384 v 256"
     class="the_m"
     inkscape:connector-curvature="0"
     style="fill:none;stroke:#ffffff;stroke-width:48;stroke-linecap:round;stroke-linejoin:round" /><path
     id="path5649"
     d="M 304,256 176,512 304,768"
     class="bracket"
     inkscape:connector-curvature="0"
     style="fill:none;stroke:#ffffff;stroke-width:48;stroke-linecap:round;stroke-linejoin:round" /><path
     id="path5651"
     d="M 720,768 848,512 720,256"
     class="bracket"
     inkscape:connector-curvature="0"
     style="fill:none;stroke:#ffffff;stroke-width:48;stroke-linecap:round;stroke-linejoin:round" /><path
     id="path5653"
     d="M 176,512 H 144"
     class="line"
     inkscape:connector-curvature="0"
     style="fill:none;stroke:#ffffff;stroke-width:48;stroke-linecap:round" /><path
     id="path5655"
     d="m 848,512 h 32"
     class="line"
     inkscape:connector-curvature="0"
     style="fill:none;stroke:#ffffff;stroke-width:48;stroke-linecap:round" /><circle
     id="circle5657"
     r="32"
     cy="512"
     cx="56"
     class="circle"
     style="fill:none;stroke:#ffffff;stroke-width:32" /><circle
     id="circle5659"
     r="32"
     cy="512"
     cx="968"
     class="circle"
     style="fill:none;stroke:#ffffff;stroke-width:32" /></g><g
   aria-label="Manubot"
   style="font-style:normal;font-variant:normal;font-weight:normal;font-stretch:normal;font-size:32px;line-height:1.25;font-family:quicksand;-inkscape-font-specification:'quicksand, Normal';font-variant-ligatures:normal;font-variant-caps:normal;font-variant-numeric:normal;font-feature-settings:normal;text-align:start;letter-spacing:0px;word-spacing:0px;writing-mode:lr-tb;text-anchor:start;fill:#000000;fill-opacity:1;stroke:none"
   id="text3564"
   transform="translate(-317.49934,572.93491)"><path
     d="m 355.67288,408.4096 q 0.18666,0 0.37333,0.10666 0.21333,0.08 0.34667,0.24 l 7.36,11.04 -0.72,-0.0267 7.38666,-11.01334 q 0.29334,-0.4 0.72,-0.34666 0.32,0 0.53334,0.24 0.24,0.21333 0.24,0.56 v 17.06666 q 0,0.32 -0.26667,0.56 -0.24,0.24 -0.58667,0.24 -0.34666,0 -0.58666,-0.24 -0.24,-0.24 -0.24,-0.56 v -15.44 l 0.48,0.0533 -6.74667,10.21333 q -0.08,0.16 -0.26667,0.26667 -0.16,0.08 -0.34666,0.08 -0.18667,0 -0.37334,-0.08 -0.16,-0.10667 -0.26666,-0.26667 l -6.77334,-10.32 0.50667,-0.34667 v 15.84 q 0,0.32 -0.24,0.56 -0.21333,0.24 -0.56,0.24 -0.34667,0 -0.56,-0.24 -0.21333,-0.24 -0.21333,-0.56 V 409.2096 q 0,-0.29334 0.21333,-0.53334 0.24,-0.26666 0.58667,-0.26666 z"
     style="font-style:normal;font-variant:normal;font-weight:normal;font-stretch:normal;font-size:26.66666603px;font-family:quicksand;-inkscape-font-specification:'quicksand, Normal';font-variant-ligatures:normal;font-variant-caps:normal;font-variant-numeric:normal;font-feature-settings:normal;text-align:start;writing-mode:lr-tb;text-anchor:start;fill:#ffffff"
     id="path1921"
     inkscape:connector-curvature="0" /><path
     d="m 387.57079,413.4496 q 0.34667,0 0.56,0.24 0.24,0.24 0.24,0.58666 v 12 q 0,0.32 -0.24,0.56 -0.24,0.24 -0.56,0.24 -0.37333,0 -0.61333,-0.24 -0.21333,-0.24 -0.21333,-0.56 v -3.17333 l 0.48,-0.18667 q 0,0.72 -0.42667,1.52 -0.4,0.77334 -1.12,1.44 -0.72,0.64 -1.70667,1.06667 -0.96,0.4 -2.10666,0.4 -1.78667,0 -3.22667,-0.93333 -1.41333,-0.93334 -2.24,-2.56 -0.8,-1.62667 -0.8,-3.65334 0,-2.08 0.82667,-3.65333 0.82666,-1.6 2.24,-2.50667 1.41333,-0.90666 3.17333,-0.90666 1.14667,0 2.13333,0.4 1.01334,0.4 1.76,1.09333 0.74667,0.69333 1.14667,1.6 0.42667,0.88 0.42667,1.84 l -0.56,-0.4 v -3.38667 q 0,-0.34666 0.21333,-0.58666 0.24,-0.24 0.61333,-0.24 z m -5.54666,12.4 q 1.41333,0 2.50666,-0.72 1.09334,-0.74667 1.70667,-2.02667 0.64,-1.30667 0.64,-2.90667 0,-1.54666 -0.64,-2.8 -0.61333,-1.28 -1.70667,-2 -1.09333,-0.74666 -2.50666,-0.74666 -1.38667,0 -2.50667,0.72 -1.09333,0.69333 -1.73333,1.94666 -0.61334,1.25334 -0.61334,2.88 0,1.6 0.61334,2.90667 0.61333,1.28 1.70666,2.02667 1.12,0.72 2.53334,0.72 z"
     style="font-style:normal;font-variant:normal;font-weight:normal;font-stretch:normal;font-size:26.66666603px;font-family:quicksand;-inkscape-font-specification:'quicksand, Normal';font-variant-ligatures:normal;font-variant-caps:normal;font-variant-numeric:normal;font-feature-settings:normal;text-align:start;writing-mode:lr-tb;text-anchor:start;fill:#ffffff"
     id="path1923"
     inkscape:connector-curvature="0" /><path
     d="m 398.97246,413.1296 q 1.76,0 2.8,0.72 1.06666,0.69333 1.52,1.92 0.48,1.2 0.48,2.66666 v 7.84 q 0,0.32 -0.24,0.56 -0.24,0.24 -0.56,0.24 -0.37334,0 -0.61334,-0.24 -0.21333,-0.24 -0.21333,-0.56 v -7.76 q 0,-1.06666 -0.34667,-1.94666 -0.34666,-0.88 -1.12,-1.38667 -0.77333,-0.53333 -2.05333,-0.53333 -1.14667,0 -2.18667,0.53333 -1.01333,0.50667 -1.65333,1.38667 -0.64,0.88 -0.64,1.94666 v 7.76 q 0,0.32 -0.24,0.56 -0.24,0.24 -0.56,0.24 -0.37333,0 -0.61333,-0.24 -0.21333,-0.24 -0.21333,-0.56 V 414.3296 q 0,-0.32 0.24,-0.56 0.23999,-0.24 0.58666,-0.24 0.34667,0 0.56,0.24 0.24,0.24 0.24,0.56 v 2.24 l -0.61333,0.96 q 0.0533,-0.85334 0.53333,-1.62667 0.50667,-0.8 1.28,-1.41333 0.77333,-0.64 1.70667,-0.98667 0.96,-0.37333 1.92,-0.37333 z"
     style="font-style:normal;font-variant:normal;font-weight:normal;font-stretch:normal;font-size:26.66666603px;font-family:quicksand;-inkscape-font-specification:'quicksand, Normal';font-variant-ligatures:normal;font-variant-caps:normal;font-variant-numeric:normal;font-feature-settings:normal;text-align:start;writing-mode:lr-tb;text-anchor:start;fill:#ffffff"
     id="path1925"
     inkscape:connector-curvature="0" /><path
     d="m 418.14913,413.5296 q 0.34666,0 0.56,0.24 0.24,0.24 0.24,0.56 v 7.52 q 0,2.64 -1.49334,4.02666 -1.49333,1.38667 -4.02666,1.38667 -2.53334,0 -4.02667,-1.38667 -1.46667,-1.38666 -1.46667,-4.02666 v -7.52 q 0,-0.32 0.24,-0.56 0.24,-0.24 0.58667,-0.24 0.34667,0 0.56,0.24 0.24,0.24 0.24,0.56 v 7.52 q 0,1.92 1.01333,2.93333 1.04,0.98667 2.85334,0.98667 1.84,0 2.85333,-0.98667 1.04,-1.01333 1.04,-2.93333 v -7.52 q 0,-0.32 0.21333,-0.56 0.24,-0.24 0.61334,-0.24 z"
     style="font-style:normal;font-variant:normal;font-weight:normal;font-stretch:normal;font-size:26.66666603px;font-family:quicksand;-inkscape-font-specification:'quicksand, Normal';font-variant-ligatures:normal;font-variant-caps:normal;font-variant-numeric:normal;font-feature-settings:normal;text-align:start;writing-mode:lr-tb;text-anchor:start;fill:#ffffff"
     id="path1927"
     inkscape:connector-curvature="0" /><path
     d="m 429.59871,413.1296 q 1.81333,0 3.2,0.90666 1.41333,0.90667 2.24,2.50667 0.82666,1.57333 0.82666,3.65333 0,2.02667 -0.82666,3.65334 -0.82667,1.62666 -2.24,2.56 -1.41334,0.93333 -3.17334,0.93333 -0.93333,0 -1.78666,-0.29333 -0.82667,-0.29334 -1.52,-0.77334 -0.69334,-0.50666 -1.22667,-1.17333 -0.53333,-0.66667 -0.85333,-1.41333 l 0.48,-0.37334 v 3.01334 q 0,0.34666 -0.24,0.58666 -0.21334,0.24 -0.56,0.24 -0.34667,0 -0.58667,-0.24 -0.24,-0.24 -0.24,-0.58666 v -18.16 q 0,-0.32 0.21333,-0.56 0.24,-0.24 0.61334,-0.24 0.34666,0 0.56,0.24 0.24,0.24 0.24,0.56 v 8.93333 l -0.37334,-0.21333 q 0.26667,-0.82667 0.77334,-1.49334 0.53333,-0.69333 1.22666,-1.2 0.69334,-0.50666 1.52,-0.77333 0.82667,-0.29333 1.73334,-0.29333 z m -0.13334,1.52 q -1.44,0 -2.53333,0.72 -1.09333,0.69333 -1.73333,1.94666 -0.61334,1.25334 -0.61334,2.88 0,1.6 0.61334,2.90667 0.64,1.28 1.73333,2.02667 1.09333,0.72 2.53333,0.72 1.41334,0 2.48,-0.74667 1.09334,-0.74667 1.70667,-2.02667 0.64,-1.30666 0.64,-2.88 0,-1.62666 -0.64,-2.88 -0.61333,-1.25333 -1.70667,-1.94666 -1.06666,-0.72 -2.48,-0.72 z"
     style="font-style:normal;font-variant:normal;font-weight:normal;font-stretch:normal;font-size:26.66666603px;font-family:quicksand;-inkscape-font-specification:'quicksand, Normal';font-variant-ligatures:normal;font-variant-caps:normal;font-variant-numeric:normal;font-feature-settings:normal;text-align:start;writing-mode:lr-tb;text-anchor:start;fill:#ffffff"
     id="path1929"
     inkscape:connector-curvature="0" /><path
     d="m 451.74704,420.2496 q 0,2.02666 -0.90666,3.65333 -0.88,1.6 -2.4,2.53333 -1.52,0.90667 -3.44,0.90667 -1.89334,0 -3.44,-0.90667 -1.52,-0.93333 -2.42667,-2.53333 -0.88,-1.62667 -0.88,-3.65333 0,-2.05334 0.88,-3.65334 0.90667,-1.6 2.42667,-2.53333 1.54666,-0.93333 3.44,-0.93333 1.92,0 3.44,0.93333 1.52,0.93333 2.4,2.53333 0.90666,1.6 0.90666,3.65334 z m -1.62666,0 q 0,-1.62667 -0.66667,-2.88 -0.66667,-1.28 -1.84,-2 -1.14667,-0.72 -2.61333,-0.72 -1.46667,0 -2.64,0.72 -1.14667,0.72 -1.84,2 -0.66667,1.25333 -0.66667,2.88 0,1.62666 0.66667,2.88 0.69333,1.25333 1.84,2 1.17333,0.72 2.64,0.72 1.46666,0 2.61333,-0.72 1.17333,-0.74667 1.84,-2 0.66667,-1.25334 0.66667,-2.88 z"
     style="font-style:normal;font-variant:normal;font-weight:normal;font-stretch:normal;font-size:26.66666603px;font-family:quicksand;-inkscape-font-specification:'quicksand, Normal';font-variant-ligatures:normal;font-variant-caps:normal;font-variant-numeric:normal;font-feature-settings:normal;text-align:start;writing-mode:lr-tb;text-anchor:start;fill:#ffffff"
     id="path1931"
     inkscape:connector-curvature="0" /><path
     d="m 454.16579,413.50293 h 6.21333 q 0.32,0 0.53334,0.24 0.21333,0.21333 0.21333,0.53333 0,0.32 -0.21333,0.53334 -0.21334,0.21333 -0.53334,0.21333 h -6.21333 q -0.32,0 -0.56,-0.21333 -0.21333,-0.24 -0.21333,-0.56 0,-0.32 0.21333,-0.53334 0.24,-0.21333 0.56,-0.21333 z m 2.74667,-3.76 q 0.34666,0 0.56,0.24 0.24,0.24 0.24,0.56 v 13.38667 q 0,0.74666 0.18666,1.12 0.21334,0.37333 0.53334,0.50666 0.32,0.10667 0.64,0.10667 0.21333,0 0.37333,-0.0533 0.18667,-0.08 0.4,-0.08 0.24,0 0.4,0.18666 0.18667,0.18667 0.18667,0.48 0,0.37334 -0.42667,0.64 -0.42667,0.24 -1.01333,0.24 -0.24,0 -0.72,-0.0267 -0.48,-0.0533 -0.98667,-0.29334 -0.50667,-0.26666 -0.85333,-0.90666 -0.34667,-0.64 -0.34667,-1.84 v -13.46667 q 0,-0.32 0.24,-0.56 0.24,-0.24 0.58667,-0.24 z"
     style="font-style:normal;font-variant:normal;font-weight:normal;font-stretch:normal;font-size:26.66666603px;font-family:quicksand;-inkscape-font-specification:'quicksand, Normal';font-variant-ligatures:normal;font-variant-caps:normal;font-variant-numeric:normal;font-feature-settings:normal;text-align:start;writing-mode:lr-tb;text-anchor:start;fill:#ffffff"
     id="path1933"
     inkscape:connector-curvature="0" /></g>

</g></svg>