<svg viewBox="0 0 181 209" xmlns="http://www.w3.org/2000/svg" fill-rule="evenodd" clip-rule="evenodd" stroke-linejoin="round" stroke-miterlimit="1.414"><path d="M181 52.285l-.033 104.488-90.5 52.214L0 156.715.033 52.227 90.533.013 181 52.285z" fill="#E7EBD2" fill-rule="nonzero"/><path d="M90.466 208.987L0 156.715.033 52.227 90.533.013 181 52.285l-.033 104.488-90.5 52.214zm.003-6.928l84.498-48.753.03-97.56L90.532 6.94 6.033 55.694l-.03 97.56 84.467 48.806z" fill="#fff"/><path d="M91.35 134.87l45.053 15.48-1.202-45.557.903-43.903-45.1 14.13L44.54 60.59l.9 43.75-1.053 45.857L91.35 134.87z" fill="#E7ECD3" fill-rule="nonzero"/><path d="M45.422 104.763c-.338 0-.62-.273-.627-.614l-.944-43.66c-.004-.205.09-.396.254-.518.165-.122.373-.156.568-.093l38.104 12.417c.33.106.51.46.403.79-.108.332-.473.51-.79.404L45.124 61.35l.924 42.772c.01.348-.266.635-.612.643h-.016z" fill="#6EA2A6" fill-rule="nonzero"/><path d="M51.65 102.71c-.34 0-.62-.27-.628-.614l-1.06-49.199c-.005-.202.088-.394.25-.516.162-.12.374-.155.567-.095L85.88 63.322c.33.103.515.456.41.787-.102.33-.443.517-.786.41l-34.27-10.775 1.042 48.324c.008.346-.267.633-.614.64h-.015zM135.416 104.763h-.015c-.346-.008-.62-.295-.61-.643l.924-42.772L98.45 73.49c-.322.107-.684-.07-.79-.402-.11-.33.07-.684.403-.79l38.103-12.42c.194-.06.406-.025.57.094.162.122.256.313.25.518l-.943 43.66c-.008.34-.287.613-.627.613z" fill="#6EA2A6" fill-rule="nonzero"/><path d="M129.19 102.71h-.016c-.347-.007-.622-.294-.612-.64l1.04-48.325L95.334 64.52c-.337.106-.684-.08-.787-.41-.105-.332.08-.685.41-.788l35.105-11.037c.194-.06.407-.024.567.096.16.123.254.315.25.517l-1.062 49.2c-.007.342-.286.613-.626.613zM44.478 150.954c-.133 0-.264-.043-.374-.125-.164-.12-.258-.315-.252-.518l.943-43.66c.008-.342.29-.614.627-.614h.016c.346.008.62.295.61.642l-.923 42.774L82.39 137.31c.32-.105.682.073.79.404.107.33-.073.684-.404.79l-38.104 12.42c-.063.02-.13.03-.194.03z" fill="#6EA2A6" fill-rule="nonzero"/><path d="M50.59 158.545c-.134 0-.27-.044-.378-.127-.162-.122-.255-.314-.25-.517l1.06-49.194c.008-.343.287-.614.627-.614h.014c.347.007.622.294.614.64l-1.043 48.323 34.27-10.774c.34-.104.684.08.788.41.104.332-.08.685-.41.788l-35.104 11.037c-.065.02-.128.03-.19.03zM136.36 150.954c-.065 0-.13-.01-.194-.03l-38.103-12.42c-.332-.107-.512-.46-.404-.79.106-.33.465-.51.79-.405l37.264 12.144-.925-42.774c-.01-.347.264-.634.61-.64l.016-.002c.34 0 .62.272.627.614l.943 43.66c.006.203-.088.397-.25.517-.112.08-.243.124-.376.124zM130.25 158.545c-.064 0-.128-.01-.19-.03l-35.104-11.037c-.33-.103-.515-.456-.41-.787.103-.33.453-.513.787-.41l34.27 10.775-1.04-48.322c-.01-.347.264-.634.61-.64h.016c.34 0 .618.27.625.613l1.062 49.195c.004.204-.09.396-.25.518-.11.083-.243.127-.377.127z" fill="#6EA2A6" fill-rule="nonzero"/><path d="M76.41 118.607c-16.702-4.644-33.267-9.25-49.84-13.86-.02-.147-.05-.3-.07-.45 16.597-4.712 33.25-9.22 49.908-13.912 4.63-16.68 9.244-33.282 13.856-49.877.158-.006.324-.006.486-.006 4.61 16.593 9.223 33.188 13.863 49.897 16.633 4.617 33.244 9.234 49.855 13.853l.032.475c-16.58 4.613-33.162 9.227-49.894 13.88l-13.85 49.83c-.158.015-.31.04-.475.06l-13.87-49.89z" fill="#D6645C"/><path d="M59.127 137.242c-.038-.05-.08-.09-.12-.13.543-1.145 1.074-2.29 1.614-3.435 2.717-5.732 5.436-11.463 8.15-17.193l7.64 2.123c.776 2.784 1.55 5.564 2.32 8.34-6.276 3.305-12.554 6.61-18.83 9.918-.245.133-.51.25-.773.377zM112.43 92.57c-2.605-.723-5.212-1.448-7.817-2.17l-2.447-8.81c6.45-3.395 12.9-6.794 19.348-10.19.32-.164.627-.412 1.046-.45.026.365-.174.602-.296.854-3.276 6.923-6.555 13.843-9.834 20.765z" fill="#618476" fill-rule="nonzero"/><path d="M78.73 126.947c-.77-2.776-1.544-5.556-2.32-8.34-2.548-.71-5.094-1.416-7.64-2.123 3.508-7.4 7.013-14.798 10.51-22.193.3-.63.702-1.03 1.308-1.352 7.194-3.775 14.387-7.56 21.578-11.348l2.447 8.81c2.605.722 5.212 1.447 7.817 2.17-3.384 7.143-6.768 14.288-10.15 21.435-.24.508-.563.843-1.06 1.104-7.497 3.943-14.994 7.89-22.49 11.837z" fill="#6C4847" fill-rule="nonzero"/><path d="M90.618 97.43c-1.854 0-3.6.725-4.91 2.045-1.3 1.31-2.012 3.053-2.002 4.897.01 1.845.737 3.578 2.048 4.876 1.304 1.294 3.027 2.008 4.864 2.008 1.857 0 3.6-.725 4.91-2.048 1.302-1.31 2.012-3.05 2.003-4.894-.003-1.844-.73-3.58-2.044-4.88-1.303-1.293-3.033-2.003-4.868-2.003z" fill="#E7ECD3" fill-rule="nonzero"/></svg>