<?xml version="1.0" encoding="UTF-8" standalone="no"?>
<svg
   xmlns:dc="http://purl.org/dc/elements/1.1/"
   xmlns:cc="http://creativecommons.org/ns#"
   xmlns:rdf="http://www.w3.org/1999/02/22-rdf-syntax-ns#"
   xmlns:svg="http://www.w3.org/2000/svg"
   xmlns="http://www.w3.org/2000/svg"
   xmlns:sodipodi="http://sodipodi.sourceforge.net/DTD/sodipodi-0.dtd"
   xmlns:inkscape="http://www.inkscape.org/namespaces/inkscape"
   width="812"
   height="914"
   id="svg4148"
   version="1.1"
   inkscape:version="0.91 r13725"
   sodipodi:docname="method-draw-image.svg">
  <metadata
     id="metadata4174">
    <rdf:RDF>
      <cc:Work
         rdf:about="">
        <dc:format>image/svg+xml</dc:format>
        <dc:type
           rdf:resource="http://purl.org/dc/dcmitype/StillImage" />
      </cc:Work>
    </rdf:RDF>
  </metadata>
  <defs
     id="defs4172" />
  <sodipodi:namedview
     pagecolor="#ffffff"
     bordercolor="#666666"
     borderopacity="1"
     objecttolerance="10"
     gridtolerance="10"
     guidetolerance="10"
     inkscape:pageopacity="0"
     inkscape:pageshadow="2"
     inkscape:window-width="1920"
     inkscape:window-height="1027"
     id="namedview4170"
     showgrid="false"
     inkscape:zoom="1.6192853"
     inkscape:cx="190.63448"
     inkscape:cy="716.6777"
     inkscape:window-x="1912"
     inkscape:window-y="-8"
     inkscape:window-maximized="1"
     inkscape:current-layer="g4155" />
  <g
     id="g4150"
     transform="translate(-207.49894,-229.73097)">
    <title
       id="title4152">background</title>
    <rect
       id="canvas_background"
       height="402"
       width="582"
       y="-1"
       x="-1"
       style="fill:none" />
  </g>
  <g
     id="g4155"
     transform="translate(-207.49894,-229.73097)">
    <title
       id="title4157">Layer 1</title>
    <path
       id="svg_2"
       d="m 405.5,244 c 0,0 -186,107 -186.5,107 0.5,0 2.5,209 2,209 0.5,0 186.5,112 186,112 0.5,0 184.5,-104 184,-104 0.5,0 3.5,-216 3,-216 0.5,0 -188.5,-108 -188.5,-108 z"
       inkscape:connector-curvature="0"
       style="fill:#000000;stroke:#000000;stroke-width:1.5" />
    <g
       id="svgg">
      <path
         d="m 243.6685,405.45099 c 0,15.579 0.063,21.952 0.139,14.162 0.076,-7.789 0.076,-20.535 0,-28.325 -0.076,-7.789 -0.139,-1.416 -0.139,14.163 m 58.128,0 c 0,15.579 0.063,21.952 0.139,14.162 0.076,-7.789 0.076,-20.535 0,-28.325 -0.076,-7.789 -0.139,-1.416 -0.139,14.163 m 55.537,-19.358 -0.102,5.027 -3.325,0.172 -3.325,0.173 3.34,0.096 c 4.001,0.116 3.894,0.285 3.678,-5.852 l -0.164,-4.642 -0.102,5.026 m 11.61,5.433 c 1.159,0.104 2.932,0.103 3.941,-0.003 1.009,-0.106 0.061,-0.191 -2.106,-0.189 -2.168,0.002 -2.993,0.088 -1.835,0.192 m -76.579,6.536 c 0,1.761 0.089,2.481 0.199,1.601 0.109,-0.881 0.109,-2.322 0,-3.202 -0.11,-0.881 -0.199,-0.16 -0.199,1.601 m -39.419,1.477 c 0,1.491 0.092,2.1 0.205,1.355 0.113,-0.745 0.113,-1.964 0,-2.709 -0.113,-0.745 -0.205,-0.136 -0.205,1.354 m 104.5,11.577 c 0.001,7.044 0.07,9.857 0.154,6.252 0.084,-3.606 0.084,-9.37 0,-12.808 -0.085,-3.439 -0.154,-0.489 -0.154,6.556 m -21.748,-5.419 c 0.004,1.355 0.099,1.85 0.212,1.102 0.114,-0.749 0.111,-1.857 -0.006,-2.463 -0.117,-0.606 -0.21,0.006 -0.206,1.361 m -43.768,15.025 c 0,7.18 0.069,10.117 0.153,6.527 0.084,-3.59 0.084,-9.464 0,-13.054 -0.084,-3.59 -0.153,-0.653 -0.153,6.527 m -38.424,0.246 c 0,7.044 0.069,9.858 0.153,6.252 0.085,-3.606 0.084,-9.37 0,-12.808 -0.085,-3.439 -0.154,-0.488 -0.153,6.556 m 126.563,-8.128 c 0,2.574 0.084,3.627 0.185,2.34 0.101,-1.287 0.101,-3.393 0,-4.68 -0.101,-1.287 -0.185,-0.234 -0.185,2.34 m -44.34,4.926 c 0,2.303 0.085,3.245 0.189,2.094 0.103,-1.152 0.103,-3.036 0,-4.188 -0.104,-1.151 -0.189,-0.209 -0.189,2.094 m 205.123,76.223 c 1.152,0.104 3.036,0.104 4.188,0 1.151,-0.104 0.209,-0.189 -2.094,-0.189 -2.303,0 -3.245,0.085 -2.094,0.189 m 13.27,-0.003 c 4.729,0.159 5.03,0.231 5.22,1.26 0.17,0.919 0.194,0.897 0.154,-0.14 -0.047,-1.231 -0.052,-1.232 -5.22,-1.26 l -5.172,-0.029 5.018,0.169 m -26.227,29.445 c 0,8.67 0.067,12.147 0.149,7.728 0.082,-4.42 0.081,-11.514 0,-15.764 -0.082,-4.25 -0.149,-0.634 -0.149,8.036 m 2.463,0.246 c 0,8.535 0.067,12.026 0.149,7.759 0.082,-4.267 0.082,-11.25 0,-15.517 -0.082,-4.267 -0.149,-0.776 -0.149,7.758 m -129.653,13.177 c 4.267,0.082 11.25,0.082 15.517,0 4.267,-0.082 0.776,-0.149 -7.759,-0.149 -8.534,0 -12.026,0.067 -7.758,0.149 m 51.108,13.579 c 0,0.084 0.721,0.805 1.601,1.601 l 1.601,1.446 -1.447,-1.601 c -1.348,-1.492 -1.755,-1.827 -1.755,-1.446"
         id="path1"
         inkscape:connector-curvature="0"
         style="fill:#2b1e00;fill-rule:evenodd" />
      <path
         d="m 247.0305,377.24499 c 1.84,0.095 4.721,0.094 6.404,-10e-4 1.682,-0.096 0.176,-0.174 -3.346,-0.173 -3.522,0.001 -4.898,0.079 -3.058,0.174 m 45.32,0 c 1.84,0.095 4.722,0.094 6.404,-10e-4 1.682,-0.096 0.176,-0.174 -3.346,-0.173 -3.522,0.001 -4.898,0.079 -3.058,0.174 m 59.821,21.172 c 0.874,0.109 2.426,0.111 3.448,0.004 1.022,-0.107 0.306,-0.196 -1.59,-0.198 -1.897,-0.002 -2.733,0.085 -1.858,0.194 m 17.006,0.003 c 1.016,0.107 2.678,0.107 3.694,0 1.016,-0.106 0.185,-0.193 -1.847,-0.193 -2.032,0 -2.863,0.087 -1.847,0.193 m 29.064,-0.019 c 0.474,0.124 1.25,0.124 1.724,0 0.474,-0.124 0.086,-0.225 -0.862,-0.225 -0.949,0 -1.336,0.101 -0.862,0.225 m -4.188,10.372 c 2.507,0.09 6.608,0.09 9.114,0 2.506,-0.089 0.455,-0.162 -4.557,-0.162 -5.012,0 -7.063,0.073 -4.557,0.162 m 2.493,6.899 c 3.878,0.083 10.084,0.083 13.793,-10e-4 3.709,-0.084 0.537,-0.152 -7.049,-0.151 -7.586,0 -10.621,0.068 -6.744,0.152 m -76.147,5.05 c 0,0.948 0.102,1.336 0.226,0.862 0.123,-0.474 0.123,-1.25 0,-1.724 -0.124,-0.474 -0.226,-0.087 -0.226,0.862 m 54.239,8.867 c 0,2.032 0.087,2.863 0.193,1.847 0.106,-1.016 0.106,-2.679 0,-3.695 -0.106,-1.016 -0.193,-0.184 -0.193,1.848 m 18.292,78.079 c 0,15.985 0.062,22.453 0.138,14.373 0.076,-8.08 0.076,-21.158 0,-29.064 -0.076,-7.905 -0.138,-1.295 -0.138,14.691 m 43.236,8.709 -0.117,22.503 -1.109,0.213 -1.108,0.214 1.124,0.067 c 1.643,0.098 1.607,0.681 1.462,-23.332 l -0.134,-22.168 -0.118,22.503 m 44.624,-18.314 c -0.088,2.168 0.006,3.941 0.209,3.941 0.203,-10e-4 0.37,-1.775 0.37,-3.942 0,-5.092 -0.371,-5.091 -0.579,0.001 m 0.295,19.457 c 0,5.689 0.072,7.95 0.159,5.022 0.087,-2.927 0.087,-7.582 -0.001,-10.345 -0.087,-2.762 -0.159,-0.367 -0.158,5.323 m -0.043,18.473 c 0,2.032 0.087,2.863 0.193,1.847 0.106,-1.016 0.106,-2.679 0,-3.695 -0.106,-1.016 -0.193,-0.184 -0.193,1.848 m -82.34,3.324 c 4.521,0.081 12.058,0.081 16.748,0 4.691,-0.081 0.993,-0.147 -8.219,-0.148 -9.212,0 -13.05,0.067 -8.529,0.148 m 56.066,10.715 c 0.919,0.948 1.782,1.724 1.917,1.724 0.136,0 -0.506,-0.776 -1.425,-1.724 -0.919,-0.948 -1.782,-1.724 -1.917,-1.724 -0.136,0 0.506,0.776 1.425,1.724 m 21.397,1.355 -1.447,1.601 1.601,-1.447 c 0.881,-0.796 1.601,-1.516 1.601,-1.601 0,-0.381 -0.406,-0.046 -1.755,1.447"
         id="path2"
         inkscape:connector-curvature="0"
         style="fill:#5b4100;fill-rule:evenodd" />
      <path
         d="m 292.5875,392.51999 c 0.284,2.86 0.523,3.068 0.566,0.492 0.021,-1.287 -0.139,-2.34 -0.355,-2.34 -0.217,0 -0.312,0.832 -0.211,1.848 m -0.233,11.453 c 0,1.49 0.092,2.1 0.205,1.355 0.113,-0.745 0.113,-1.965 0,-2.71 -0.113,-0.745 -0.205,-0.135 -0.205,1.355 m 18.686,17.734 c 0,0.948 0.101,1.336 0.225,0.862 0.124,-0.474 0.124,-1.25 0,-1.724 -0.124,-0.474 -0.225,-0.086 -0.225,0.862 m 188.773,67.98 c 0,7.993 0.068,11.263 0.151,7.266 0.083,-3.996 0.083,-10.535 0,-14.532 -0.083,-3.996 -0.151,-0.726 -0.151,7.266 m 47.261,-1.724 c 0.001,3.251 0.081,4.517 0.177,2.813 0.097,-1.704 0.096,-4.364 -0.002,-5.911 -0.097,-1.547 -0.176,-0.153 -0.175,3.098 m -82.324,5.526 c 0.749,0.113 1.857,0.11 2.463,-0.007 0.606,-0.117 -0.007,-0.209 -1.362,-0.206 -1.354,0.004 -1.85,0.1 -1.101,0.213 m 50.246,0 c 0.749,0.113 1.857,0.11 2.463,-0.007 0.606,-0.117 -0.007,-0.209 -1.361,-0.206 -1.355,0.004 -1.851,0.1 -1.102,0.213 m 32.112,20.582 c 0,9.754 0.066,13.814 0.147,9.023 0.08,-4.792 0.08,-12.772 0,-17.734 -0.081,-4.963 -0.147,-1.042 -0.147,8.711 m -47.295,10.592 c 0,7.992 0.068,11.262 0.151,7.266 0.083,-3.997 0.083,-10.536 0,-14.532 -0.083,-3.997 -0.151,-0.727 -0.151,7.266 m -50.774,-8.375 c 0,2.845 0.081,4.009 0.181,2.586 0.099,-1.422 0.099,-3.75 0,-5.172 -0.1,-1.422 -0.181,-0.259 -0.181,2.586 m 15.711,21.536 c 0.749,0.113 1.857,0.11 2.463,-0.007 0.606,-0.117 -0.007,-0.209 -1.362,-0.206 -1.354,0.004 -1.85,0.1 -1.101,0.213 m 90.64,0 c 0.749,0.113 1.857,0.11 2.463,-0.007 0.606,-0.117 -0.006,-0.209 -1.361,-0.206 -1.355,0.004 -1.851,0.1 -1.102,0.213"
         id="path3"
         inkscape:connector-curvature="0"
         style="fill:#805b00;fill-rule:evenodd" />
      <path
         d="m 362.2635,381.67299 4.293,0.169 0.166,4.785 0.166,4.784 -0.025,-4.926 -0.026,-4.926 -4.434,-0.028 -4.433,-0.027 4.293,0.169 m -109.891,12.078 c 0.07,3.761 0.291,3.351 0.529,-0.985 0.079,-1.423 -0.024,-2.587 -0.227,-2.586 -0.203,0 -0.339,1.607 -0.302,3.571 m 76.17,-2.73 c 0.613,0.118 1.499,0.113 1.97,-0.01 0.471,-0.123 -0.03,-0.22 -1.114,-0.214 -1.083,0.005 -1.469,0.106 -0.856,0.224 m 69.458,0 c 0.613,0.118 1.5,0.113 1.971,-0.01 0.471,-0.123 -0.031,-0.22 -1.115,-0.214 -1.083,0.005 -1.469,0.106 -0.856,0.224 m -47.011,3.839 c 0.002,1.896 0.091,2.612 0.197,1.59 0.107,-1.022 0.105,-2.574 -0.004,-3.449 -0.108,-0.874 -0.196,-0.038 -0.193,1.859 m 23.152,0 c 0.002,1.896 0.091,2.612 0.198,1.59 0.107,-1.022 0.105,-2.574 -0.004,-3.449 -0.109,-0.874 -0.196,-0.038 -0.194,1.859 m -7.336,16.01 c 0,6.908 0.069,9.735 0.153,6.28 0.085,-3.454 0.085,-9.107 0,-12.561 -0.084,-3.455 -0.153,-0.628 -0.153,6.281 m -52.308,-7.52 c 1.287,0.101 3.393,0.101 4.68,0 1.287,-0.102 0.234,-0.185 -2.34,-0.185 -2.574,0 -3.627,0.083 -2.34,0.185 m 30.632,11.46 c 0,6.638 0.069,9.354 0.155,6.035 0.085,-3.319 0.085,-8.75 0,-12.069 -0.086,-3.319 -0.155,-0.604 -0.155,6.034 m -92.184,-8.867 c 0,1.491 0.092,2.1 0.205,1.355 0.113,-0.745 0.113,-1.964 0,-2.709 -0.113,-0.745 -0.205,-0.136 -0.205,1.354 m 75.363,2.335 c 1.568,0.098 4.006,0.098 5.419,-0.002 1.412,-0.099 0.129,-0.179 -2.851,-0.178 -2.98,0.001 -4.136,0.082 -2.568,0.18 m 88.205,3.33 c 0.002,2.168 0.088,2.993 0.192,1.835 0.104,-1.159 0.103,-2.932 -0.003,-3.941 -0.106,-1.009 -0.191,-0.061 -0.189,2.106 m -86.499,2.085 c 1.152,0.104 3.036,0.104 4.187,0 1.152,-0.103 0.21,-0.188 -2.093,-0.188 -2.303,0 -3.245,0.085 -2.094,0.188 m -3.695,13.28 c 0.475,0.124 1.25,0.124 1.725,0 0.474,-0.124 0.086,-0.226 -0.862,-0.226 -0.949,0 -1.337,0.102 -0.863,0.226 m 73.153,0.008 c 0.61,0.117 1.607,0.117 2.217,0 0.61,-0.118 0.111,-0.214 -1.108,-0.214 -1.22,0 -1.718,0.096 -1.109,0.214 m -130.096,6.179 c 0.125,0.203 1.643,0.37 3.372,0.37 1.729,0 3.247,-0.167 3.372,-0.37 0.126,-0.203 -1.392,-0.369 -3.372,-0.369 -1.98,0 -3.498,0.166 -3.372,0.369 m -23.089,0.241 c 1.431,0.1 3.648,0.099 4.926,-0.003 1.278,-0.101 0.106,-0.182 -2.603,-0.181 -2.709,10e-4 -3.755,0.084 -2.323,0.184 m 48.276,0 c 1.431,0.1 3.648,0.099 4.926,-0.003 1.278,-0.101 0.106,-0.182 -2.603,-0.181 -2.709,10e-4 -3.755,0.084 -2.323,0.184 m 45.32,0 c 1.431,0.1 3.648,0.099 4.926,-0.003 1.278,-0.101 0.107,-0.182 -2.603,-0.181 -2.709,10e-4 -3.755,0.084 -2.323,0.184 m 57.372,0.468 c 0.475,0.124 1.25,0.124 1.725,0 0.474,-0.124 0.086,-0.225 -0.862,-0.225 -0.949,0 -1.337,0.101 -0.863,0.225 m 100.602,73.306 c 0,17.611 0.062,24.744 0.137,15.851 0.075,-8.893 0.075,-23.302 0,-32.02 -0.075,-8.718 -0.137,-1.442 -0.137,16.169 m -106.897,1.724 c 0,16.663 0.062,23.479 0.138,15.148 0.075,-8.331 0.075,-21.964 0,-30.296 -0.076,-8.331 -0.138,-1.514 -0.138,15.148 m 158.084,-20.443 c 10e-4,3.251 0.081,4.517 0.178,2.813 0.096,-1.704 0.095,-4.364 -0.002,-5.911 -0.098,-1.548 -0.176,-0.154 -0.176,3.098 m -114.739,28.079 c 0,12.463 0.064,17.49 0.142,11.173 0.078,-6.318 0.078,-16.515 0,-22.66 -0.078,-6.146 -0.142,-0.977 -0.142,11.487 m 48.769,0.738 c 0,12.87 0.064,18.135 0.142,11.7 0.077,-6.435 0.077,-16.964 0,-23.399 -0.078,-6.435 -0.142,-1.17 -0.142,11.699 m -18.324,-21.814 c 0.749,0.114 1.857,0.111 2.463,-0.006 0.606,-0.117 -0.007,-0.21 -1.362,-0.206 -1.354,0.004 -1.85,0.099 -1.101,0.212 m 49.993,-0.005 c 0.61,0.117 1.607,0.117 2.217,0 0.609,-0.118 0.111,-0.214 -1.109,-0.214 -1.219,0 -1.717,0.096 -1.108,0.214 m 26.108,0.998 c 1.152,0.104 3.036,0.104 4.188,0 1.151,-0.104 0.209,-0.189 -2.094,-0.189 -2.303,0 -3.245,0.085 -2.094,0.189 m 10.838,0.002 c 1.422,0.1 3.75,0.1 5.172,0 1.423,-0.099 0.259,-0.181 -2.586,-0.181 -2.845,0 -4.008,0.082 -2.586,0.181 m -74.261,1.854 c 0.919,0.948 1.782,1.724 1.917,1.724 0.136,0 -0.505,-0.776 -1.425,-1.724 -0.919,-0.948 -1.781,-1.724 -1.917,-1.724 -0.135,0 0.506,0.776 1.425,1.724 m 71.65,15.517 c 0,9.347 0.066,13.171 0.147,8.498 0.081,-4.674 0.081,-12.322 0,-16.995 -0.081,-4.674 -0.147,-0.85 -0.147,8.497 m -98.082,3.202 c 0.002,2.168 0.088,2.993 0.192,1.834 0.104,-1.158 0.103,-2.932 -0.003,-3.94 -0.106,-1.009 -0.191,-0.061 -0.189,2.106 m -42.569,20.317 c 13.054,0.12 15.27,0.247 15.468,0.882 0.158,0.507 0.205,0.466 0.151,-0.13 -0.074,-0.813 -1.11,-0.873 -15.467,-0.883 l -15.388,-0.01 15.236,0.141 m 56.323,2.45 c 0.749,0.114 1.857,0.111 2.463,-0.006 0.606,-0.117 -0.007,-0.21 -1.362,-0.206 -1.354,0.004 -1.85,0.099 -1.101,0.212 m 90.396,0.004 c 0.885,0.11 2.215,0.107 2.956,-0.005 0.74,-0.112 0.016,-0.202 -1.61,-0.199 -1.626,0.002 -2.231,0.094 -1.346,0.204 m -102.841,10.635 c 0,0.084 0.72,0.805 1.601,1.601 l 1.601,1.446 -1.447,-1.601 c -1.349,-1.492 -1.755,-1.827 -1.755,-1.446 m 12.684,6.606 c 0.881,0.109 2.322,0.109 3.202,0 0.881,-0.11 0.16,-0.199 -1.601,-0.199 -1.761,0 -2.481,0.089 -1.601,0.199"
         id="path4"
         inkscape:connector-curvature="0"
         style="fill:#a87800;fill-rule:evenodd" />
      <path
         d="m 308.8325,289.35799 -96.428,55.748 0.123,111.986 0.123,111.986 61.822,35.705 c 119.139,68.807 130.244,75.195 131.122,75.425 0.555,0.145 13.795,-7.219 35.498,-19.744 19.036,-10.986 62.432,-36.042 96.434,-55.68 l 61.823,-35.706 0.123,-111.986 0.123,-111.986 -96.399,-55.665 c -53.019,-30.616 -96.744,-55.703 -97.167,-55.748 -0.423,-0.046 -44.161,25.003 -97.197,55.665 m 186.33,14.025 88.423,51.086 0.125,103.013 0.124,103.013 -88.92,51.336 -88.92,51.336 -88.915,-51.336 -88.915,-51.336 0.125,-103.015 0.124,-103.014 88.424,-51.084 c 48.633,-28.096 88.756,-51.084 89.162,-51.084 0.407,0 40.53,22.988 89.163,51.085 m 14.039,60.894 c -6.969,3.111 -6.901,13.852 0.108,16.85 6.252,2.675 12.946,-1.686 12.946,-8.435 0,-6.754 -6.863,-11.178 -13.054,-8.415 m -265.271,40.913 0,27.847 4.757,0 4.757,0 -0.32,-16.626 c -0.175,-9.144 -0.464,-18.787 -0.641,-21.428 -0.185,-2.746 -0.134,-4.802 0.119,-4.801 0.243,0.001 4.109,9.589 8.592,21.305 l 8.151,21.304 3.405,0 3.405,0 4.454,-11.618 c 2.45,-6.39 6.117,-15.976 8.149,-21.302 4.067,-10.66 4.731,-11.576 4.26,-5.873 -0.173,2.099 -0.463,11.742 -0.643,21.428 l -0.327,17.611 4.759,0 4.759,0 0,-27.833 0,-27.832 -6.122,0 -6.122,0 -1.465,3.818 c -4.193,10.931 -9.616,25.327 -11.967,31.766 -1.457,3.993 -2.836,7.2 -3.065,7.128 -0.44,-0.14 -1.539,-2.945 -10.654,-27.195 l -5.74,-15.271 -6.25,-0.138 -6.251,-0.137 0,27.847 m 113.793,-18.458 0,4.926 -3.202,0 -3.202,0 0,3.202 0,3.202 3.162,0 3.162,0 0.164,13.916 0.163,13.916 1.343,2.736 c 1.884,3.835 4.005,4.977 9.243,4.977 5.853,0 5.916,-0.04 5.916,-3.805 l 0,-3.169 -2.709,0 c -5.068,0 -5.269,-0.666 -5.07,-16.749 l 0.144,-11.576 3.571,-0.145 3.572,-0.145 0,-3.18 0,-3.18 -3.695,0 -3.695,0 0,-4.926 0,-4.927 -4.433,0 -4.434,0 0,4.927 m 77.587,2.176 c -6.97,3.11 -6.901,13.851 0.107,16.85 6.252,2.675 12.947,-1.687 12.947,-8.435 0,-6.755 -6.863,-11.179 -13.054,-8.415 m -112.104,2.9 c -4.66,1.32 -8.631,4.486 -10.139,8.085 -1.253,2.991 -1.126,3.095 3.77,3.095 3.952,0 4.433,-0.097 4.433,-0.893 0,-2.111 3.968,-4.526 7.437,-4.526 4.815,0 7.337,2.647 7.34,7.703 l 0.002,3.023 -6.774,0.219 c -12.128,0.393 -17.857,4.479 -17.857,12.737 0,10.777 13.827,16.528 22.97,9.554 1.916,-1.462 2.646,-1.536 2.646,-0.271 0,2.335 0.351,2.503 5.231,2.503 l 4.634,0 -0.825,-1.847 c -0.686,-1.536 -0.875,-4.296 -1.119,-16.38 -0.328,-16.206 -0.433,-16.74 -3.887,-19.772 -3.86,-3.39 -12.064,-4.873 -17.862,-3.23 m 71.217,-0.201 c -16.992,4.556 -19.35,32.982 -3.344,40.309 7.277,3.332 17.394,1.888 22.8,-3.254 l 2.158,-2.053 -2.385,-2.421 -2.385,-2.422 -0.958,1.218 c -5.928,7.536 -19.068,3.855 -20.832,-5.834 l -0.336,-1.847 13.601,0 13.602,0 -0.006,-4.557 c -0.018,-13.979 -9.682,-22.419 -21.915,-19.139 m 7.973,6.979 c 3.048,1.151 5.574,5.307 5.574,9.171 l 0,1.142 -9.36,0 c -5.148,0 -9.359,-0.071 -9.359,-0.157 0,-6.89 7.155,-12.419 13.145,-10.156 m -66.347,19.388 0,4.641 -2.035,1.742 c -5.526,4.73 -13.729,2.696 -13.729,-3.404 0,-5.31 3.392,-7.46 11.946,-7.571 l 3.818,-0.049 0,4.641 m 99.261,20.195 c -6.97,3.11 -6.901,13.851 0.107,16.85 6.252,2.675 12.947,-1.687 12.947,-8.435 0,-6.754 -6.863,-11.179 -13.054,-8.415 m 73.891,0 c -6.969,3.11 -6.901,13.851 0.108,16.85 6.252,2.675 12.946,-1.687 12.946,-8.435 0,-6.754 -6.863,-11.179 -13.054,-8.415 m 24.631,0 c -6.969,3.11 -6.901,13.851 0.107,16.85 6.252,2.675 12.947,-1.687 12.947,-8.435 0,-6.754 -6.863,-11.179 -13.054,-8.415 m -197.045,24.63 c -6.969,3.111 -6.9,13.852 0.108,16.85 6.252,2.676 12.947,-1.686 12.947,-8.435 0,-6.754 -6.864,-11.178 -13.055,-8.415 m 161.331,44.376 c 0,27.915 0.089,31.773 0.738,31.773 0.641,0 0.739,-1.974 0.739,-14.81 l 0,-14.811 1.676,-3.627 c 4.052,-8.769 12.861,-12.745 20.545,-9.274 5.699,2.575 6.351,5.259 6.351,26.145 0,15.401 0.055,16.439 0.862,16.283 1.297,-0.252 1.306,-31.7 0.01,-35.898 -3.781,-12.245 -22.87,-12.27 -27.938,-0.036 -1.291,3.117 -1.506,1.267 -1.506,-12.986 0,-12.589 -0.098,-14.532 -0.739,-14.532 -0.649,0 -0.738,3.858 -0.738,31.773 m -64.254,-28.36 c -1.35,1.491 -0.599,3.086 1.365,2.895 1.872,-0.181 2.491,-2.126 1.018,-3.202 -1.155,-0.845 -1.366,-0.818 -2.383,0.307 m -42.643,30.084 0,30.049 16.256,0 c 14.052,0 16.256,-0.099 16.256,-0.732 0,-0.629 -2.163,-0.75 -15.394,-0.862 l -15.394,-0.13 -0.127,-29.187 c -0.111,-25.49 -0.22,-29.187 -0.862,-29.187 -0.644,0 -0.735,3.738 -0.735,30.049 m 156.158,-20.69 0,5.912 -4.188,0 c -3.83,0 -4.187,0.082 -4.187,0.965 0,0.869 0.405,0.98 4.064,1.108 l 4.064,0.143 0.247,18.72 c 0.277,21.115 0.399,21.815 4.114,23.577 2.478,1.176 8.693,1.137 8.693,-0.055 0,-0.744 -0.503,-0.862 -3.685,-0.862 -7.284,0 -7.713,-1.42 -7.528,-24.902 l 0.13,-16.478 5.082,-0.14 c 4.491,-0.125 5.063,-0.239 4.92,-0.985 -0.138,-0.721 -0.901,-0.866 -5.205,-0.985 l -5.044,-0.141 0,-5.894 c 0,-4.911 -0.123,-5.894 -0.738,-5.894 -0.616,0 -0.739,0.985 -0.739,5.911 m -284.483,-0.779 c -6.969,3.111 -6.901,13.851 0.107,16.85 6.252,2.675 12.947,-1.687 12.947,-8.435 0,-6.754 -6.863,-11.179 -13.054,-8.415 m 73.891,0 c -6.969,3.111 -6.9,13.851 0.108,16.85 6.252,2.675 12.947,-1.687 12.947,-8.435 0,-6.754 -6.864,-11.179 -13.055,-8.415 m 24.631,0 c -6.969,3.111 -6.901,13.851 0.107,16.85 6.253,2.675 12.947,-1.687 12.947,-8.435 0,-6.754 -6.863,-11.179 -13.054,-8.415 m 100.246,6.659 c -16.55,5.052 -16.781,40.438 -0.293,44.918 5.853,1.59 13.793,-0.605 17.526,-4.846 2.583,-2.934 2.633,-2.85 2.371,3.954 -0.453,11.759 -4.851,16.802 -14.678,16.83 -5.408,0.015 -7.628,-0.814 -11.268,-4.209 -2.974,-2.774 -4.083,-1.845 -1.269,1.064 7.984,8.253 22.438,6.035 27.153,-4.169 l 1.394,-3.018 0.14,-25.246 c 0.125,-22.426 0.056,-25.246 -0.615,-25.246 -0.621,0 -0.756,0.753 -0.756,4.205 l 0,4.205 -3.325,-3.411 c -4.704,-4.825 -10.86,-6.716 -16.38,-5.031 m -27.093,22.404 c 0,19.699 0.091,22.455 0.744,22.455 1.013,0 0.886,-44.366 -0.129,-44.704 -0.486,-0.162 -0.615,4.505 -0.615,22.249 m 37.565,-20.129 c 7.154,2.466 9.222,7.144 9.228,20.877 0.007,15.943 -3.342,20.433 -15.266,20.464 -9.298,0.024 -14.184,-5.767 -15.053,-17.838 -1.305,-18.134 7.666,-28.132 21.091,-23.503 m -110.718,15.696 c -6.969,3.111 -6.901,13.852 0.107,16.85 6.253,2.676 12.947,-1.686 12.947,-8.435 0,-6.754 -6.863,-11.178 -13.054,-8.415"
         id="path5"
         inkscape:connector-curvature="0"
         style="fill:#ffb800;fill-rule:evenodd" />
      <path
         d="m 459.9405,364.27699 c -6.969,3.111 -6.901,13.852 0.107,16.85 6.253,2.675 12.947,-1.686 12.947,-8.435 0,-6.754 -6.863,-11.178 -13.054,-8.415 m 73.892,24.631 c -6.969,3.11 -6.901,13.851 0.107,16.85 6.252,2.675 12.947,-1.687 12.947,-8.435 0,-6.755 -6.863,-11.179 -13.054,-8.415 m -73.892,49.261 c -6.969,3.11 -6.901,13.851 0.107,16.85 6.253,2.675 12.947,-1.687 12.947,-8.435 0,-6.754 -6.863,-11.179 -13.054,-8.415 m -172.414,49.261 c -6.969,3.111 -6.9,13.851 0.108,16.85 6.252,2.675 12.947,-1.687 12.947,-8.435 0,-6.754 -6.864,-11.179 -13.055,-8.415 m 24.631,24.63 c -6.969,3.111 -6.901,13.852 0.107,16.85 6.252,2.676 12.947,-1.686 12.947,-8.435 0,-6.754 -6.863,-11.178 -13.054,-8.415 m 24.63,24.631 c -6.969,3.111 -6.9,13.851 0.108,16.85 6.252,2.675 12.947,-1.686 12.947,-8.435 0,-6.754 -6.864,-11.179 -13.055,-8.415"
         id="path6"
         inkscape:connector-curvature="0"
         style="fill:#ddd072;fill-rule:evenodd" />
      <path
         d="m 484.5715,388.90799 c -6.97,3.11 -6.901,13.851 0.107,16.85 6.252,2.675 12.947,-1.687 12.947,-8.435 0,-6.755 -6.863,-11.179 -13.054,-8.415 m 24.63,24.63 c -6.969,3.111 -6.901,13.852 0.108,16.85 6.252,2.675 12.946,-1.686 12.946,-8.435 0,-6.754 -6.863,-11.178 -13.054,-8.415 m -246.305,49.261 c -6.969,3.111 -6.901,13.852 0.107,16.85 6.252,2.676 12.947,-1.686 12.947,-8.435 0,-6.754 -6.863,-11.178 -13.054,-8.415 m 24.63,73.892 c -6.969,3.111 -6.9,13.851 0.108,16.85 6.252,2.675 12.947,-1.686 12.947,-8.435 0,-6.754 -6.864,-11.179 -13.055,-8.415"
         id="path7"
         inkscape:connector-curvature="0"
         style="fill:#05ec7a;fill-rule:evenodd" />
      <path
         d="m 484.5715,364.27699 c -6.97,3.111 -6.901,13.852 0.107,16.85 6.252,2.675 12.947,-1.686 12.947,-8.435 0,-6.754 -6.863,-11.178 -13.054,-8.415 m 49.261,0 c -6.969,3.111 -6.901,13.852 0.107,16.85 6.252,2.675 12.947,-1.686 12.947,-8.435 0,-6.754 -6.863,-11.178 -13.054,-8.415 m -24.631,24.631 c -6.969,3.11 -6.901,13.851 0.108,16.85 6.252,2.675 12.946,-1.687 12.946,-8.435 0,-6.755 -6.863,-11.179 -13.054,-8.415 m -73.891,24.63 c -6.97,3.111 -6.901,13.852 0.107,16.85 6.252,2.675 12.947,-1.686 12.947,-8.435 0,-6.754 -6.863,-11.178 -13.054,-8.415 m 49.261,0 c -6.97,3.111 -6.901,13.852 0.107,16.85 6.252,2.675 12.947,-1.686 12.947,-8.435 0,-6.754 -6.863,-11.178 -13.054,-8.415 m -197.045,49.261 c -6.969,3.111 -6.9,13.852 0.108,16.85 6.252,2.676 12.947,-1.686 12.947,-8.435 0,-6.754 -6.864,-11.178 -13.055,-8.415 m 73.892,0 c -6.969,3.111 -6.901,13.852 0.107,16.85 6.253,2.676 12.947,-1.686 12.947,-8.435 0,-6.754 -6.863,-11.178 -13.054,-8.415 m -98.522,49.261 c -6.969,3.111 -6.901,13.852 0.107,16.85 6.252,2.676 12.947,-1.686 12.947,-8.435 0,-6.754 -6.863,-11.178 -13.054,-8.415 m 73.891,0 c -6.969,3.111 -6.9,13.852 0.108,16.85 6.252,2.676 12.947,-1.686 12.947,-8.435 0,-6.754 -6.864,-11.178 -13.055,-8.415 m -24.63,24.631 c -6.969,3.111 -6.901,13.851 0.107,16.85 6.252,2.675 12.947,-1.686 12.947,-8.435 0,-6.754 -6.863,-11.179 -13.054,-8.415"
         id="path8"
         inkscape:connector-curvature="0"
         style="fill:#7478ff;fill-rule:evenodd" />
      <path
         d="m 435.3105,364.27699 c -6.97,3.111 -6.901,13.852 0.107,16.85 6.252,2.675 12.947,-1.686 12.947,-8.435 0,-6.754 -6.863,-11.178 -13.054,-8.415 m 24.63,24.631 c -6.969,3.11 -6.901,13.851 0.107,16.85 6.253,2.675 12.947,-1.687 12.947,-8.435 0,-6.755 -6.863,-11.179 -13.054,-8.415 m 0,24.63 c -6.969,3.111 -6.901,13.852 0.107,16.85 6.253,2.675 12.947,-1.686 12.947,-8.435 0,-6.754 -6.863,-11.178 -13.054,-8.415 m 73.892,0 c -6.969,3.111 -6.901,13.852 0.107,16.85 6.252,2.675 12.947,-1.686 12.947,-8.435 0,-6.754 -6.863,-11.178 -13.054,-8.415 m -49.261,24.631 c -6.97,3.11 -6.901,13.851 0.107,16.85 6.252,2.675 12.947,-1.687 12.947,-8.435 0,-6.754 -6.863,-11.179 -13.054,-8.415 m -172.414,24.63 c -6.969,3.111 -6.901,13.852 0.107,16.85 6.252,2.676 12.947,-1.686 12.947,-8.435 0,-6.754 -6.863,-11.178 -13.054,-8.415 m 0,24.631 c -6.969,3.111 -6.901,13.851 0.107,16.85 6.252,2.675 12.947,-1.687 12.947,-8.435 0,-6.754 -6.863,-11.179 -13.054,-8.415 m -24.631,24.63 c -6.969,3.111 -6.9,13.852 0.108,16.85 6.252,2.676 12.947,-1.686 12.947,-8.435 0,-6.754 -6.864,-11.178 -13.055,-8.415 m -24.63,24.631 c -6.969,3.111 -6.901,13.851 0.107,16.85 6.252,2.675 12.947,-1.686 12.947,-8.435 0,-6.754 -6.863,-11.179 -13.054,-8.415 m 98.522,0 c -6.969,3.111 -6.901,13.851 0.107,16.85 6.253,2.675 12.947,-1.686 12.947,-8.435 0,-6.754 -6.863,-11.179 -13.054,-8.415"
         id="path9"
         inkscape:connector-curvature="0"
         style="fill:#d651e2;fill-rule:evenodd" />
    </g>
  </g>
</svg>
