<?xml version="1.0" encoding="UTF-8" standalone="no"?>
<!-- Created with Inkscape (http://www.inkscape.org/) -->

<svg
   xmlns:osb="http://www.openswatchbook.org/uri/2009/osb"
   xmlns:dc="http://purl.org/dc/elements/1.1/"
   xmlns:cc="http://creativecommons.org/ns#"
   xmlns:rdf="http://www.w3.org/1999/02/22-rdf-syntax-ns#"
   xmlns:svg="http://www.w3.org/2000/svg"
   xmlns="http://www.w3.org/2000/svg"
   xmlns:sodipodi="http://sodipodi.sourceforge.net/DTD/sodipodi-0.dtd"
   xmlns:inkscape="http://www.inkscape.org/namespaces/inkscape"
   width="43.900002mm"
   height="50.799999mm"
   viewBox="0 0 43.900002 50.799999"
   version="1.1"
   id="svg8"
   sodipodi:docname="matrix.svg"
   inkscape:version="0.92.3 (2405546, 2018-03-11)"
   inkscape:export-filename="/home/jcgruenhage/dev/hexbin/hexagons/matrix.png"
   inkscape:export-xdpi="104.50001"
   inkscape:export-ydpi="104.50001">
  <defs
     id="defs2">
    <linearGradient
       id="linearGradient4541"
       osb:paint="solid">
      <stop
         style="stop-color:#000000;stop-opacity:1;"
         offset="0"
         id="stop4539" />
    </linearGradient>
  </defs>
  <sodipodi:namedview
     id="base"
     pagecolor="#ffffff"
     bordercolor="#666666"
     borderopacity="1.0"
     inkscape:pageopacity="0"
     inkscape:pageshadow="2"
     inkscape:zoom="2.5600001"
     inkscape:cx="76.565993"
     inkscape:cy="94.208056"
     inkscape:document-units="mm"
     inkscape:current-layer="layer2"
     showgrid="false"
     units="in"
     inkscape:window-width="1076"
     inkscape:window-height="1881"
     inkscape:window-x="1080"
     inkscape:window-y="18"
     inkscape:window-maximized="0"
     inkscape:snap-center="true"
     inkscape:snap-object-midpoints="true"
     inkscape:snap-page="true"
     inkscape:pagecheckerboard="true" />
  <metadata
     id="metadata5">
    <rdf:RDF>
      <cc:Work
         rdf:about="">
        <dc:format>image/svg+xml</dc:format>
        <dc:type
           rdf:resource="http://purl.org/dc/dcmitype/StillImage" />
        <dc:title />
      </cc:Work>
    </rdf:RDF>
  </metadata>
  <g
     inkscape:label="Layer 1"
     inkscape:groupmode="layer"
     id="layer1"
     transform="translate(0,-246.2)">
    <path
       sodipodi:type="star"
       style="fill:#ffffec;fill-opacity:1;stroke:none;stroke-width:4;stroke-miterlimit:4;stroke-dasharray:none;stroke-dashoffset:0;stroke-opacity:1"
       id="path4596"
       sodipodi:sides="6"
       sodipodi:cx="160.07291"
       sodipodi:cy="148.03957"
       sodipodi:r1="59.309753"
       sodipodi:r2="51.363758"
       sodipodi:arg1="0.57018301"
       sodipodi:arg2="1.0937818"
       inkscape:flatsided="true"
       inkscape:rounded="0"
       inkscape:randomized="0"
       d="m 209.99999,180.05415 -52.68898,27.23083 -49.92708,-32.01458 2.7619,-59.24542 52.68898,-27.230825 49.92708,32.014585 z"
       inkscape:transform-center-x="21.95"
       inkscape:transform-center-y="-12.700002"
       transform="matrix(0.42688065,-0.01994286,0.01990022,0.42779545,-49.328054,211.46166)" />
  </g>
  <g
     inkscape:groupmode="layer"
     id="layer2"
     inkscape:label="Layer 2">
    <path
       sodipodi:type="star"
       style="fill:#000003;fill-opacity:1;stroke:none;stroke-width:4;stroke-miterlimit:4;stroke-dasharray:none;stroke-dashoffset:0;stroke-opacity:1"
       id="path5831"
       sodipodi:sides="6"
       sodipodi:cx="-13.844562"
       sodipodi:cy="290.2648"
       sodipodi:r1="15.395931"
       sodipodi:r2="13.333267"
       sodipodi:arg1="0.45277847"
       sodipodi:arg2="0.97637725"
       inkscape:flatsided="true"
       inkscape:rounded="0"
       inkscape:randomized="0"
       d="M 3.3868034e-8,296.99999 -12.755128,305.62214 l -13.844562,-6.73519 -1.089433,-15.35734 12.755128,-8.62215 13.8445617,6.7352 z"
       inkscape:transform-center-x="19.929015"
       inkscape:transform-center-y="-11.506028"
       transform="matrix(1.4909368,0.10576543,-0.10576543,1.4909368,73.291349,-405.9022)" />
  </g>
  <g
     inkscape:groupmode="layer"
     id="layer3"
     inkscape:label="Layer 3">
    <path
       transform="translate(0,-246.2)"
       inkscape:connector-curvature="0"
       d="M 5.1492474,279.49428 H 3.666603 c -0.051141,0 -0.092654,-0.0415 -0.092654,-0.0926 v -15.60329 c 0,-0.051 0.041515,-0.0927 0.092654,-0.0927 h 1.4826444 c 0.051141,0 0.092653,0.0415 0.092653,0.0927 v 0.35718 c 0,0.0511 -0.041504,0.0926 -0.092653,0.0926 H 4.170361 v 14.70351 h 0.9788864 c 0.051141,0 0.092653,0.0414 0.092653,0.0927 v 0.35728 c 0,0.051 -0.041504,0.0926 -0.092653,0.0926 z"
       id="path4731"
       style="opacity:0.5;fill:#ffffff;stroke-width:0.04632686" />
    <path
       transform="translate(0,-246.2)"
       inkscape:connector-curvature="0"
       d="m 4.0777534,264.15556 v 14.88879 h 1.0715403 v 0.35724 h -1.482737 v -15.60322 h 1.482737 v 0.35719 z"
       id="path4733"
       style="opacity:0.5;fill:#ffffff;stroke-width:0.04632686" />
    <path
       transform="translate(0,-246.2)"
       inkscape:connector-curvature="0"
       d="m 15.266939,274.53276 h -1.528463 c -0.05114,0 -0.09265,-0.0415 -0.09265,-0.0927 v -3.15361 c 0,-0.18293 -0.0071,-0.35774 -0.02117,-0.51946 -0.0134,-0.15204 -0.04976,-0.28504 -0.108035,-0.39517 -0.05577,-0.10544 -0.139767,-0.19082 -0.249424,-0.25368 -0.110859,-0.0631 -0.267536,-0.0953 -0.465213,-0.0953 -0.196333,0 -0.355513,0.037 -0.473135,0.10984 -0.11883,0.074 -0.213289,0.17146 -0.280417,0.28992 -0.06939,0.12243 -0.116281,0.26378 -0.139584,0.42004 -0.02437,0.16275 -0.03674,0.33008 -0.03674,0.4976 v 3.09973 c 0,0.0512 -0.04152,0.0926 -0.09265,0.0926 h -1.528379 c -0.05114,0 -0.09265,-0.0415 -0.09265,-0.0926 v -3.12119 c 0,-0.15912 -0.0036,-0.32262 -0.01056,-0.48574 -0.0069,-0.1506 -0.03554,-0.29082 -0.08529,-0.41669 -0.04716,-0.11912 -0.1235537,-0.21238 -0.2338115,-0.28505 -0.1098876,-0.0719 -0.2793049,-0.10846 -0.5033413,-0.10846 -0.063561,0 -0.1512574,0.0151 -0.2607736,0.0452 -0.1056258,0.029 -0.2101386,0.0846 -0.3106216,0.16569 -0.099696,0.0803 -0.1869753,0.1995 -0.259662,0.35464 -0.072686,0.15549 -0.1096554,0.36492 -0.1096554,0.62254 v 3.22903 c 0,0.051 -0.041461,0.0927 -0.092654,0.0927 H 6.7638701 c -0.051141,0 -0.092653,-0.0415 -0.092653,-0.0927 v -5.56459 c 0,-0.051 0.041504,-0.0926 0.092653,-0.0926 h 1.4421547 c 0.051143,0 0.092654,0.0415 0.092654,0.0926 v 0.50992 c 0.1776172,-0.20843 0.3821035,-0.37765 0.6102637,-0.50478 0.2963065,-0.16487 0.6392643,-0.24841 1.019283,-0.24841 0.3634805,0 0.7007865,0.0718 1.0026045,0.2133 0.268419,0.1261 0.482912,0.33633 0.638894,0.62634 0.159782,-0.20207 0.362878,-0.38479 0.60554,-0.54443 0.29751,-0.19588 0.653301,-0.29515 1.057363,-0.29515 0.301077,0 0.584876,0.0374 0.843566,0.11113 0.263413,0.0754 0.492686,0.19787 0.681559,0.36399 0.189386,0.16701 0.33902,0.38716 0.444785,0.65428 0.104236,0.26494 0.157095,0.58598 0.157095,0.95451 v 3.72394 c -4.7e-5,0.051 -0.04152,0.0927 -0.0927,0.0927 z"
       id="path4735"
       style="opacity:0.5;fill:#ffffff;stroke-width:0.04632686" />
    <path
       transform="translate(0,-246.2)"
       inkscape:connector-curvature="0"
       d="m 8.206078,268.87552 v 0.75346 h 0.021451 c 0.200966,-0.28681 0.4430234,-0.5095 0.7265901,-0.66738 0.2833816,-0.15762 0.6082255,-0.23674 0.9741149,-0.23674 0.351528,0 0.672712,0.0683 0.963274,0.20454 0.290655,0.13643 0.511355,0.37668 0.662058,0.72117 0.164923,-0.24392 0.389146,-0.45925 0.672712,-0.6458 0.283381,-0.18646 0.618834,-0.27991 1.006403,-0.27991 0.294222,0 0.566763,0.036 0.818132,0.10771 0.251,0.0717 0.46628,0.18655 0.645704,0.3444 0.179239,0.15798 0.319145,0.36426 0.419814,0.61879 0.100391,0.25497 0.150701,0.56158 0.150701,0.92046 v 3.72398 h -1.528507 v -3.15365 c 0,-0.18647 -0.0071,-0.36227 -0.02154,-0.52743 -0.01451,-0.16491 -0.05379,-0.30835 -0.118367,-0.43051 -0.06463,-0.12188 -0.159826,-0.21885 -0.285233,-0.29065 -0.125592,-0.0715 -0.296074,-0.10758 -0.51131,-0.10758 -0.215233,0 -0.389283,0.0414 -0.522056,0.12375 -0.132866,0.0827 -0.236823,0.19035 -0.312104,0.32293 -0.07532,0.13292 -0.125593,0.28352 -0.150655,0.45225 -0.02525,0.16853 -0.03771,0.33902 -0.03771,0.51122 v 3.09972 h -1.528374 v -3.12128 c 0,-0.165 -0.0037,-0.32831 -0.01065,-0.48966 -0.0073,-0.16155 -0.03771,-0.3104 -0.09164,-0.44682 -0.05383,-0.13621 -0.143567,-0.24573 -0.269112,-0.32836 -0.1255923,-0.0822 -0.3103435,-0.12375 -0.5543008,-0.12375 -0.071854,0 -0.1669159,0.0162 -0.2851885,0.0486 -0.1184113,0.0322 -0.2333017,0.0934 -0.3444395,0.18294 -0.1113702,0.0898 -0.2063397,0.21894 -0.2852807,0.38743 -0.078988,0.16872 -0.118412,0.38924 -0.118412,0.66187 v 3.22903 H 6.7638337 v -5.56468 z"
       id="path4737"
       style="opacity:0.5;fill:#ffffff;stroke-width:0.04632686" />
    <path
       transform="translate(0,-246.2)"
       inkscape:connector-curvature="0"
       d="m 17.699422,274.67277 c -0.272541,0 -0.530906,-0.0338 -0.767821,-0.10021 -0.240528,-0.0679 -0.454282,-0.17483 -0.63528,-0.31832 -0.182714,-0.14439 -0.327438,-0.32942 -0.430007,-0.54994 -0.10215,-0.21926 -0.153989,-0.48236 -0.153989,-0.78181 0,-0.3303 0.05992,-0.60768 0.178172,-0.82448 0.117763,-0.21652 0.272263,-0.39211 0.459193,-0.52177 0.183917,-0.12749 0.396371,-0.22432 0.631434,-0.28765 0.227048,-0.0613 0.460349,-0.11091 0.693096,-0.14749 0.230986,-0.0359 0.460905,-0.065 0.683506,-0.0867 0.216764,-0.0209 0.411383,-0.0528 0.578578,-0.0945 0.158065,-0.0395 0.283425,-0.0968 0.372559,-0.1701 0.07717,-0.0634 0.111925,-0.15677 0.10618,-0.28496 -9.2e-5,-0.15237 -0.02325,-0.26943 -0.06911,-0.35185 -0.04624,-0.0833 -0.105765,-0.14592 -0.181926,-0.1917 -0.07889,-0.0473 -0.172568,-0.0793 -0.278517,-0.0955 -0.114428,-0.0172 -0.238398,-0.0258 -0.368159,-0.0258 -0.279538,0 -0.499821,0.0589 -0.65483,0.17526 -0.149775,0.11229 -0.238816,0.3076 -0.264712,0.58034 -0.0046,0.0474 -0.04452,0.0839 -0.09228,0.0839 h -1.528416 c -0.02557,0 -0.04999,-0.0106 -0.0675,-0.0291 -0.01742,-0.0186 -0.0265,-0.0436 -0.02501,-0.069 0.02247,-0.374 0.118134,-0.68999 0.284539,-0.93913 0.164368,-0.24698 0.377425,-0.44854 0.632872,-0.59905 0.251276,-0.14784 0.537948,-0.25471 0.852043,-0.31766 0.309649,-0.0618 0.625412,-0.0933 0.938582,-0.0933 0.282408,0 0.572832,0.0202 0.862884,0.06 0.295427,0.0407 0.569126,0.12146 0.813593,0.23983 0.249052,0.12064 0.456087,0.2914 0.615312,0.50733 0.162051,0.21977 0.244189,0.51181 0.244189,0.86775 v 2.89515 c 0,0.24586 0.01419,0.48467 0.04239,0.70968 0.02669,0.21496 0.07282,0.37599 0.137267,0.47892 0.01783,0.0285 0.01885,0.0646 0.0024,0.0941 -0.01635,0.0294 -0.04734,0.0478 -0.08108,0.0478 h -1.549958 c -0.03988,0 -0.07523,-0.0254 -0.08793,-0.0632 -0.02992,-0.0899 -0.05448,-0.18249 -0.07283,-0.275 -0.0066,-0.0322 -0.01238,-0.065 -0.0176,-0.0982 -0.223526,0.19383 -0.479436,0.33541 -0.763188,0.42181 -0.33814,0.10275 -0.68763,0.15482 -1.038787,0.15482 z m 1.715576,-2.78295 c -0.03749,0.0189 -0.07764,0.0356 -0.120264,0.0497 -0.100113,0.0333 -0.208981,0.0615 -0.323733,0.0838 -0.11313,0.022 -0.233163,0.0404 -0.35667,0.055 -0.121886,0.0144 -0.243263,0.0323 -0.360609,0.0532 -0.107895,0.02 -0.217967,0.048 -0.326649,0.083 -0.101643,0.0329 -0.190589,0.0772 -0.264017,0.13166 -0.07092,0.0523 -0.129022,0.11985 -0.172847,0.20083 -0.04247,0.0791 -0.06415,0.18391 -0.06415,0.31127 0,0.12036 0.02154,0.22134 0.06415,0.30025 0.04299,0.0798 0.09923,0.1406 0.172151,0.18613 0.07616,0.0475 0.166823,0.0813 0.269438,0.10054 0.10859,0.0204 0.222322,0.0307 0.338046,0.0307 0.282826,0 0.501997,-0.0461 0.651494,-0.13717 0.150285,-0.0915 0.262488,-0.20148 0.333508,-0.32716 0.07265,-0.1288 0.117763,-0.26036 0.133978,-0.39082 0.01742,-0.13986 0.02617,-0.25183 0.02617,-0.33295 z"
       id="path4739"
       style="opacity:0.5;fill:#ffffff;stroke-width:0.04632686" />
    <path
       transform="translate(0,-246.2)"
       inkscape:connector-curvature="0"
       d="m 16.246379,269.69365 c 0.157744,-0.23687 0.358756,-0.4269 0.602806,-0.57056 0.243864,-0.14347 0.518212,-0.24567 0.823274,-0.30674 0.304924,-0.061 0.611746,-0.0915 0.920283,-0.0915 0.279907,0 0.563242,0.0198 0.850284,0.0591 0.286994,0.0396 0.548973,0.11683 0.785795,0.2315 0.236778,0.11475 0.43047,0.27452 0.581217,0.47893 0.150701,0.20447 0.226029,0.4754 0.226029,0.8127 v 2.89516 c 0,0.25146 0.01436,0.49156 0.04314,0.72116 0.0285,0.22973 0.0788,0.40192 0.15061,0.51668 h -1.549866 c -0.02877,-0.0862 -0.05216,-0.17396 -0.07,-0.26372 -0.01807,-0.0896 -0.03061,-0.18105 -0.03767,-0.27441 -0.244003,0.25118 -0.531136,0.42699 -0.860984,0.52748 -0.330172,0.10019 -0.667431,0.15061 -1.011871,0.15061 -0.265593,0 -0.513163,-0.0323 -0.742758,-0.0968 -0.229689,-0.0646 -0.430516,-0.16502 -0.602714,-0.3016 -0.172241,-0.1361 -0.306776,-0.30835 -0.403644,-0.5164 -0.09687,-0.20805 -0.145374,-0.45587 -0.145374,-0.74276 0,-0.31563 0.05555,-0.57585 0.166961,-0.78015 0.111138,-0.20463 0.254566,-0.36778 0.430608,-0.48991 0.175719,-0.12191 0.376592,-0.21341 0.602714,-0.27438 0.225982,-0.061 0.453771,-0.10923 0.683412,-0.14533 0.229643,-0.0358 0.455625,-0.0645 0.678134,-0.086 0.222414,-0.0216 0.419814,-0.0539 0.59201,-0.0969 0.172243,-0.0431 0.308443,-0.10573 0.409019,-0.18832 0.100299,-0.0824 0.14695,-0.20268 0.139908,-0.36066 0,-0.16493 -0.02687,-0.29597 -0.0807,-0.39281 -0.05379,-0.0968 -0.125593,-0.17227 -0.215236,-0.22607 -0.08974,-0.0538 -0.193785,-0.0897 -0.312103,-0.10771 -0.118458,-0.0177 -0.24595,-0.0268 -0.382105,-0.0268 -0.301401,0 -0.538179,0.0646 -0.710422,0.19378 -0.17215,0.12917 -0.272819,0.34455 -0.301402,0.6458 h -1.528368 c 0.0214,-0.35875 0.110952,-0.65667 0.269019,-0.89331 z m 3.019076,2.15804 c -0.09683,0.0323 -0.200919,0.0591 -0.312058,0.0806 -0.111276,0.0215 -0.227836,0.0395 -0.349814,0.0538 -0.122071,0.0145 -0.244051,0.0322 -0.365936,0.0539 -0.114891,0.0215 -0.227882,0.0503 -0.338974,0.086 -0.11137,0.0361 -0.208239,0.0844 -0.290654,0.14537 -0.08265,0.0611 -0.148987,0.13828 -0.199205,0.23135 -0.05026,0.0933 -0.07532,0.21176 -0.07532,0.35523 0,0.13621 0.02507,0.25119 0.07532,0.34426 0.05023,0.0935 0.118502,0.16697 0.204578,0.22076 0.08607,0.0538 0.186467,0.0915 0.30145,0.11294 0.114658,0.0215 0.23307,0.0322 0.355095,0.0322 0.301356,0 0.534472,-0.0501 0.699674,-0.1507 0.16497,-0.10034 0.286856,-0.2206 0.365936,-0.36065 0.07885,-0.13986 0.127353,-0.28129 0.145326,-0.42501 0.01779,-0.14347 0.02687,-0.25832 0.02687,-0.34439 v -0.57055 c -0.06467,0.0576 -0.145374,0.10237 -0.242289,0.1347 z"
       id="path4741"
       style="opacity:0.5;fill:#ffffff;stroke-width:0.04632686" />
    <path
       transform="translate(0,-246.2)"
       inkscape:connector-curvature="0"
       d="m 24.168177,274.58665 c -0.240296,0 -0.471282,-0.0166 -0.686701,-0.0495 -0.222461,-0.0339 -0.421759,-0.10114 -0.592012,-0.19981 -0.175532,-0.10123 -0.315994,-0.24743 -0.417219,-0.43432 -0.100206,-0.18466 -0.151024,-0.42769 -0.151024,-0.72224 v -3.19003 h -0.833005 c -0.05115,0 -0.09265,-0.0414 -0.09265,-0.0926 v -1.02257 c 0,-0.051 0.0415,-0.0926 0.09265,-0.0926 h 0.833005 v -1.5758 c 0,-0.051 0.04152,-0.0927 0.09265,-0.0927 h 1.528417 c 0.05115,0 0.09265,0.0415 0.09265,0.0927 v 1.57575 h 1.026696 c 0.05115,0 0.09265,0.0415 0.09265,0.0926 v 1.02257 c 0,0.051 -0.0415,0.0926 -0.09265,0.0926 h -1.026696 v 2.66283 c 0,0.28857 0.05551,0.40449 0.102012,0.4509 0.04651,0.0467 0.162422,0.10216 0.451132,0.10216 0.08357,0 0.164089,-0.003 0.239092,-0.0105 0.07431,-0.006 0.147042,-0.0171 0.2163,-0.0308 0.006,-8.5e-4 0.01209,-0.002 0.01811,-0.002 0.02121,0 0.04202,0.007 0.05884,0.021 0.02145,0.0177 0.03382,0.0437 0.03382,0.0717 v 1.18388 c 0,0.0453 -0.03275,0.084 -0.07745,0.0915 -0.131291,0.0218 -0.279861,0.0367 -0.441357,0.0443 -0.16738,0.007 -0.320118,0.0109 -0.467253,0.0109 z"
       id="path4743"
       style="opacity:0.5;fill:#ffffff;stroke-width:0.04632686" />
    <path
       transform="translate(0,-246.2)"
       inkscape:connector-curvature="0"
       d="m 25.061498,268.87552 v 1.02253 h -1.119302 v 2.75547 c 0,0.25818 0.04299,0.43046 0.129159,0.5165 0.08598,0.0861 0.258319,0.12915 0.516637,0.12915 0.08612,0 0.168538,-0.003 0.247526,-0.0107 0.07889,-0.007 0.154267,-0.018 0.22598,-0.0323 v 1.18397 c -0.129158,0.0216 -0.272725,0.0359 -0.430515,0.0431 -0.157834,0.006 -0.312103,0.0106 -0.462806,0.0106 -0.236775,0 -0.461089,-0.0162 -0.672712,-0.0485 -0.21176,-0.0322 -0.39827,-0.0948 -0.559674,-0.18822 -0.161495,-0.0931 -0.288894,-0.22607 -0.382104,-0.39826 -0.09339,-0.17206 -0.139952,-0.39818 -0.139952,-0.67818 v -3.28267 h -0.925612 v -1.02253 h 0.925612 v -1.66831 h 1.528414 v 1.66832 z"
       id="path4745"
       style="opacity:0.5;fill:#ffffff;stroke-width:0.04632686" />
    <path
       transform="translate(0,-246.2)"
       inkscape:connector-curvature="0"
       d="m 27.321694,274.53276 h -1.52837 c -0.05114,0 -0.09265,-0.0415 -0.09265,-0.0927 v -5.56464 c 0,-0.051 0.04151,-0.0926 0.09265,-0.0926 h 1.453089 c 0.05115,0 0.09265,0.0414 0.09265,0.0926 v 0.6981 c 0.04479,-0.0702 0.09423,-0.13796 0.148201,-0.20301 0.127584,-0.15343 0.275598,-0.2864 0.439919,-0.39478 0.164229,-0.10805 0.342124,-0.19315 0.52882,-0.25304 0.187903,-0.06 0.385764,-0.0905 0.587936,-0.0905 0.108452,0 0.229456,0.0193 0.359774,0.0576 0.03947,0.0117 0.06657,0.0478 0.06657,0.089 v 1.42083 c 0,0.0277 -0.01246,0.054 -0.03392,0.0717 -0.01673,0.0137 -0.03742,0.0209 -0.0586,0.0209 -0.0062,0 -0.01227,-5.3e-4 -0.01844,-0.002 -0.06875,-0.0139 -0.152831,-0.0262 -0.249794,-0.0365 -0.09719,-0.0104 -0.191608,-0.0157 -0.280833,-0.0157 -0.264341,0 -0.489768,0.044 -0.670212,0.13077 -0.178913,0.0862 -0.324842,0.20514 -0.433665,0.35343 -0.110675,0.15116 -0.190635,0.32983 -0.237518,0.53138 -0.04832,0.20748 -0.07293,0.43588 -0.07293,0.67854 v 2.50777 c -4.9e-5,0.051 -0.04156,0.0927 -0.0927,0.0927 z"
       id="path4747"
       style="opacity:0.5;fill:#ffffff;stroke-width:0.04632686" />
    <path
       transform="translate(0,-246.2)"
       inkscape:connector-curvature="0"
       d="m 27.246413,268.87552 v 1.03332 h 0.02154 c 0.07162,-0.17234 0.168444,-0.33183 0.290563,-0.47906 0.122025,-0.14696 0.261838,-0.27264 0.41972,-0.3767 0.157744,-0.10386 0.326466,-0.18461 0.506028,-0.24218 0.179192,-0.0572 0.36589,-0.0861 0.559676,-0.0861 0.100436,0 0.211527,0.0181 0.333647,0.0539 v 1.42084 c -0.07185,-0.0144 -0.157977,-0.027 -0.25832,-0.0377 -0.10053,-0.0109 -0.197354,-0.0162 -0.290655,-0.0162 -0.279862,0 -0.516637,0.0468 -0.710283,0.13996 -0.19374,0.0933 -0.349767,0.22055 -0.468225,0.38205 -0.118365,0.16155 -0.202867,0.34976 -0.253039,0.56509 -0.05016,0.21519 -0.07527,0.44854 -0.07527,0.69963 v 2.50781 h -1.528368 v -5.5646 z"
       id="path4749"
       style="opacity:0.5;fill:#ffffff;stroke-width:0.04632686" />
    <path
       transform="translate(0,-246.2)"
       inkscape:connector-curvature="0"
       d="m 31.551797,274.53276 h -1.528462 c -0.05115,0 -0.09265,-0.0415 -0.09265,-0.0927 v -5.56464 c 0,-0.051 0.04151,-0.0926 0.09265,-0.0926 h 1.528509 c 0.05113,0 0.09265,0.0414 0.09265,0.0926 v 5.56464 c -4.6e-5,0.051 -0.04156,0.0927 -0.0927,0.0927 z m 0,-6.42576 h -1.528462 c -0.05115,0 -0.09265,-0.0415 -0.09265,-0.0926 v -1.25926 c 0,-0.051 0.04151,-0.0926 0.09265,-0.0926 h 1.528509 c 0.05113,0 0.09265,0.0415 0.09265,0.0926 v 1.25926 c -4.6e-5,0.051 -0.04156,0.0926 -0.0927,0.0926 z"
       id="path4751"
       style="opacity:0.5;fill:#ffffff;stroke-width:0.04632686" />
    <path
       transform="translate(0,-246.2)"
       inkscape:connector-curvature="0"
       d="m 30.023335,268.0144 v -1.2593 h 1.528509 v 1.2593 z m 1.528509,0.86112 v 5.56464 h -1.528509 v -5.56464 z"
       id="path4753"
       style="opacity:0.5;fill:#ffffff;stroke-width:0.04632686" />
    <path
       transform="translate(0,-246.2)"
       inkscape:connector-curvature="0"
       d="m 37.956021,274.53276 h -1.743742 c -0.03108,0 -0.06008,-0.0155 -0.07723,-0.0415 l -1.085253,-1.63775 -1.085254,1.63775 c -0.01709,0.026 -0.04609,0.0415 -0.07723,0.0415 H 32.1761 c -0.03432,0 -0.06596,-0.0191 -0.082,-0.0495 -0.01599,-0.0304 -0.0139,-0.0671 0.0055,-0.0955 l 1.96588,-2.87482 -1.793312,-2.5847 c -0.01964,-0.0285 -0.02196,-0.0652 -0.0059,-0.0959 0.01591,-0.0306 0.04762,-0.0496 0.08205,-0.0496 h 1.743557 c 0.03081,0 0.05962,0.0153 0.07681,0.041 l 0.90231,1.33855 0.892025,-1.33812 c 0.01723,-0.0257 0.04613,-0.0413 0.07713,-0.0413 h 1.68977 c 0.03455,0 0.06625,0.0192 0.08228,0.0499 0.01591,0.0306 0.0134,0.0677 -0.0065,0.0959 l -1.792386,2.55178 2.018832,2.90673 c 0.01964,0.0283 0.02195,0.0652 0.0059,0.0957 -0.01589,0.0307 -0.04754,0.0498 -0.08205,0.0498 z"
       id="path4755"
       style="opacity:0.5;fill:#ffffff;stroke-width:0.04632686" />
    <path
       transform="translate(0,-246.2)"
       inkscape:connector-curvature="0"
       d="m 32.348249,268.87552 h 1.743604 l 0.979535,1.45303 0.96874,-1.45303 h 1.689817 l -1.829724,2.60476 2.055845,2.95992 h -1.743742 l -1.162477,-1.75439 -1.162529,1.75439 h -1.711219 l 2.001921,-2.92752 z"
       id="path4757"
       style="opacity:0.5;fill:#ffffff;stroke-width:0.04632686" />
    <path
       transform="translate(0,-246.2)"
       inkscape:connector-curvature="0"
       d="m 40.233402,279.49428 h -1.482829 c -0.05119,0 -0.09265,-0.0415 -0.09265,-0.0926 v -0.35728 c 0,-0.0511 0.0415,-0.0927 0.09265,-0.0927 h 0.978884 v -14.70351 h -0.978884 c -0.05119,0 -0.09265,-0.0415 -0.09265,-0.0926 v -0.35718 c 0,-0.051 0.0415,-0.0927 0.09265,-0.0927 h 1.482829 c 0.05114,0 0.09265,0.0415 0.09265,0.0927 v 15.60329 c 0,0.051 -0.04152,0.0926 -0.09265,0.0926 z"
       id="path4759"
       style="opacity:0.5;fill:#ffffff;stroke-width:0.04632686" />
    <path
       transform="translate(0,-246.2)"
       inkscape:connector-curvature="0"
       d="m 39.822068,279.04435 v -14.88879 h -1.071542 v -0.35719 h 1.482832 v 15.60322 h -1.482832 v -0.35724 z"
       id="path4761"
       style="opacity:0.5;fill:#ffffff;stroke-width:0.04632686" />
    <path
       transform="translate(0,-246.2)"
       inkscape:connector-curvature="0"
       d="m 4.0777534,264.15556 v 14.88879 h 1.0715403 v 0.35724 h -1.482737 v -15.60322 h 1.482737 v 0.35719 z"
       id="path4763"
       style="fill:#ffffff;stroke-width:0.04632686" />
    <path
       transform="translate(0,-246.2)"
       inkscape:connector-curvature="0"
       d="m 8.206078,268.87552 v 0.75346 h 0.021451 c 0.200966,-0.28681 0.4430234,-0.5095 0.7265901,-0.66738 0.2833816,-0.15762 0.6082255,-0.23674 0.9741149,-0.23674 0.351528,0 0.672712,0.0683 0.963274,0.20454 0.290655,0.13643 0.511355,0.37668 0.662058,0.72117 0.164923,-0.24392 0.389146,-0.45925 0.672712,-0.6458 0.283381,-0.18646 0.618834,-0.27991 1.006403,-0.27991 0.294222,0 0.566763,0.036 0.818132,0.10771 0.251,0.0717 0.46628,0.18655 0.645704,0.3444 0.179239,0.15798 0.319145,0.36426 0.419814,0.61879 0.100391,0.25497 0.150701,0.56158 0.150701,0.92046 v 3.72398 h -1.528507 v -3.15365 c 0,-0.18647 -0.0071,-0.36227 -0.02154,-0.52743 -0.01451,-0.16491 -0.05379,-0.30835 -0.118367,-0.43051 -0.06463,-0.12188 -0.159826,-0.21885 -0.285233,-0.29065 -0.125592,-0.0715 -0.296074,-0.10758 -0.51131,-0.10758 -0.215233,0 -0.389283,0.0414 -0.522056,0.12375 -0.132866,0.0827 -0.236823,0.19035 -0.312104,0.32293 -0.07532,0.13292 -0.125593,0.28352 -0.150655,0.45225 -0.02525,0.16853 -0.03771,0.33902 -0.03771,0.51122 v 3.09972 h -1.528374 v -3.12128 c 0,-0.165 -0.0037,-0.32831 -0.01065,-0.48966 -0.0073,-0.16155 -0.03771,-0.3104 -0.09164,-0.44682 -0.05383,-0.13621 -0.143567,-0.24573 -0.269112,-0.32836 -0.1255923,-0.0822 -0.3103435,-0.12375 -0.5543008,-0.12375 -0.071854,0 -0.1669159,0.0162 -0.2851885,0.0486 -0.1184113,0.0322 -0.2333017,0.0934 -0.3444395,0.18294 -0.1113702,0.0898 -0.2063397,0.21894 -0.2852807,0.38743 -0.078988,0.16872 -0.118412,0.38924 -0.118412,0.66187 v 3.22903 H 6.7638337 v -5.56468 z"
       id="path4765"
       style="fill:#ffffff;stroke-width:0.04632686" />
    <path
       transform="translate(0,-246.2)"
       inkscape:connector-curvature="0"
       d="m 16.246379,269.69365 c 0.157744,-0.23687 0.358756,-0.4269 0.602806,-0.57056 0.243864,-0.14347 0.518212,-0.24567 0.823274,-0.30674 0.304924,-0.061 0.611746,-0.0915 0.920283,-0.0915 0.279907,0 0.563242,0.0198 0.850284,0.0591 0.286994,0.0396 0.548973,0.11683 0.785795,0.2315 0.236778,0.11475 0.43047,0.27452 0.581217,0.47893 0.150701,0.20447 0.226029,0.4754 0.226029,0.8127 v 2.89516 c 0,0.25146 0.01436,0.49156 0.04314,0.72116 0.0285,0.22973 0.0788,0.40192 0.15061,0.51668 h -1.549866 c -0.02877,-0.0862 -0.05216,-0.17396 -0.07,-0.26372 -0.01807,-0.0896 -0.03061,-0.18105 -0.03767,-0.27441 -0.244003,0.25118 -0.531136,0.42699 -0.860984,0.52748 -0.330172,0.10019 -0.667431,0.15061 -1.011871,0.15061 -0.265593,0 -0.513163,-0.0323 -0.742758,-0.0968 -0.229689,-0.0646 -0.430516,-0.16502 -0.602714,-0.3016 -0.172241,-0.1361 -0.306776,-0.30835 -0.403644,-0.5164 -0.09687,-0.20805 -0.145374,-0.45587 -0.145374,-0.74276 0,-0.31563 0.05555,-0.57585 0.166961,-0.78015 0.111138,-0.20463 0.254566,-0.36778 0.430608,-0.48991 0.175719,-0.12191 0.376592,-0.21341 0.602714,-0.27438 0.225982,-0.061 0.453771,-0.10923 0.683412,-0.14533 0.229643,-0.0358 0.455625,-0.0645 0.678134,-0.086 0.222414,-0.0216 0.419814,-0.0539 0.59201,-0.0969 0.172243,-0.0431 0.308443,-0.10573 0.409019,-0.18832 0.100299,-0.0824 0.14695,-0.20268 0.139908,-0.36066 0,-0.16493 -0.02687,-0.29597 -0.0807,-0.39281 -0.05379,-0.0968 -0.125593,-0.17227 -0.215236,-0.22607 -0.08974,-0.0538 -0.193785,-0.0897 -0.312103,-0.10771 -0.118458,-0.0177 -0.24595,-0.0268 -0.382105,-0.0268 -0.301401,0 -0.538179,0.0646 -0.710422,0.19378 -0.17215,0.12917 -0.272819,0.34455 -0.301402,0.6458 h -1.528368 c 0.0214,-0.35875 0.110952,-0.65667 0.269019,-0.89331 z m 3.019076,2.15804 c -0.09683,0.0323 -0.200919,0.0591 -0.312058,0.0806 -0.111276,0.0215 -0.227836,0.0395 -0.349814,0.0538 -0.122071,0.0145 -0.244051,0.0322 -0.365936,0.0539 -0.114891,0.0215 -0.227882,0.0503 -0.338974,0.086 -0.11137,0.0361 -0.208239,0.0844 -0.290654,0.14537 -0.08265,0.0611 -0.148987,0.13828 -0.199205,0.23135 -0.05026,0.0933 -0.07532,0.21176 -0.07532,0.35523 0,0.13621 0.02507,0.25119 0.07532,0.34426 0.05023,0.0935 0.118502,0.16697 0.204578,0.22076 0.08607,0.0538 0.186467,0.0915 0.30145,0.11294 0.114658,0.0215 0.23307,0.0322 0.355095,0.0322 0.301356,0 0.534472,-0.0501 0.699674,-0.1507 0.16497,-0.10034 0.286856,-0.2206 0.365936,-0.36065 0.07885,-0.13986 0.127353,-0.28129 0.145326,-0.42501 0.01779,-0.14347 0.02687,-0.25832 0.02687,-0.34439 v -0.57055 c -0.06467,0.0576 -0.145374,0.10237 -0.242289,0.1347 z"
       id="path4767"
       style="fill:#ffffff;stroke-width:0.04632686" />
    <path
       transform="translate(0,-246.2)"
       inkscape:connector-curvature="0"
       d="m 25.061498,268.87552 v 1.02253 h -1.119302 v 2.75547 c 0,0.25818 0.04299,0.43046 0.129159,0.5165 0.08598,0.0861 0.258319,0.12915 0.516637,0.12915 0.08612,0 0.168538,-0.003 0.247526,-0.0107 0.07889,-0.007 0.154267,-0.018 0.22598,-0.0323 v 1.18397 c -0.129158,0.0216 -0.272725,0.0359 -0.430515,0.0431 -0.157834,0.006 -0.312103,0.0106 -0.462806,0.0106 -0.236775,0 -0.461089,-0.0162 -0.672712,-0.0485 -0.21176,-0.0322 -0.39827,-0.0948 -0.559674,-0.18822 -0.161495,-0.0931 -0.288894,-0.22607 -0.382104,-0.39826 -0.09339,-0.17206 -0.139952,-0.39818 -0.139952,-0.67818 v -3.28267 h -0.925612 v -1.02253 h 0.925612 v -1.66831 h 1.528414 v 1.66832 z"
       id="path4769"
       style="fill:#ffffff;stroke-width:0.04632686" />
    <path
       transform="translate(0,-246.2)"
       inkscape:connector-curvature="0"
       d="m 27.246413,268.87552 v 1.03332 h 0.02154 c 0.07162,-0.17234 0.168444,-0.33183 0.290563,-0.47906 0.122025,-0.14696 0.261838,-0.27264 0.41972,-0.3767 0.157744,-0.10386 0.326466,-0.18461 0.506028,-0.24218 0.179192,-0.0572 0.36589,-0.0861 0.559676,-0.0861 0.100436,0 0.211527,0.0181 0.333647,0.0539 v 1.42084 c -0.07185,-0.0144 -0.157977,-0.027 -0.25832,-0.0377 -0.10053,-0.0109 -0.197354,-0.0162 -0.290655,-0.0162 -0.279862,0 -0.516637,0.0468 -0.710283,0.13996 -0.19374,0.0933 -0.349767,0.22055 -0.468225,0.38205 -0.118365,0.16155 -0.202867,0.34976 -0.253039,0.56509 -0.05016,0.21519 -0.07527,0.44854 -0.07527,0.69963 v 2.50781 h -1.528368 v -5.5646 z"
       id="path4771"
       style="fill:#ffffff;stroke-width:0.04632686" />
    <path
       transform="translate(0,-246.2)"
       inkscape:connector-curvature="0"
       d="m 30.023335,268.0144 v -1.2593 h 1.528509 v 1.2593 z m 1.528509,0.86112 v 5.56464 h -1.528509 v -5.56464 z"
       id="path4773"
       style="fill:#ffffff;stroke-width:0.04632686" />
    <path
       transform="translate(0,-246.2)"
       inkscape:connector-curvature="0"
       d="m 32.348249,268.87552 h 1.743604 l 0.979535,1.45303 0.96874,-1.45303 h 1.689817 l -1.829724,2.60476 2.055845,2.95992 h -1.743742 l -1.162477,-1.75439 -1.162529,1.75439 h -1.711219 l 2.001921,-2.92752 z"
       id="path4775"
       style="fill:#ffffff;stroke-width:0.04632686" />
    <path
       transform="translate(0,-246.2)"
       inkscape:connector-curvature="0"
       d="m 39.822068,279.04435 v -14.88879 h -1.071542 v -0.35719 h 1.482832 v 15.60322 h -1.482832 v -0.35724 z"
       id="path4777"
       style="fill:#ffffff;stroke-width:0.04632686" />
  </g>
</svg>
