<?xml version="1.0" encoding="utf-8"?>
<!-- Generator: Adobe Illustrator 19.0.0, SVG Export Plug-In . SVG Version: 6.00 Build 0)  -->
<!DOCTYPE svg PUBLIC "-//W3C//DTD SVG 1.1//EN" "http://www.w3.org/Graphics/SVG/1.1/DTD/svg11.dtd">
<svg version="1.1" id="Layer_1" xmlns="http://www.w3.org/2000/svg" xmlns:xlink="http://www.w3.org/1999/xlink" x="0px" y="0px"
	 viewBox="0 0 216 216" enable-background="new 0 0 216 216" xml:space="preserve">
<g id="XMLID_299_">
	<polygon id="XMLID_109_" fill="#84CFCF" points="107.4,212.4 16.9,160.1 16.9,55.6 107.4,3.4 197.9,55.6 197.9,160.1 	"/>
</g>
<g id="XMLID_486_">
	<path id="XMLID_487_" fill="#716E60" d="M109.9,203.8l-0.6,0.3l-3-2.9l1,4.1l-0.6,0.3l-3.6-3.3l0.5-0.3l3.1,3l-1.1-4.1l0.6-0.3
		l3,2.9l-1-4.1l0.5-0.3L109.9,203.8z"/>
	<path id="XMLID_489_" fill="#716E60" d="M116,200.3l-0.6,0.3l-3-2.9l1,4.1l-0.6,0.3l-3.6-3.3l0.5-0.3l3.1,3l-1.1-4.1l0.6-0.3l3,2.9
		l-1-4.1l0.5-0.3L116,200.3z"/>
	<path id="XMLID_491_" fill="#716E60" d="M122.1,196.8l-0.6,0.3l-3-2.9l1,4.1l-0.6,0.3l-3.6-3.3l0.5-0.3l3.1,3l-1.1-4.1l0.6-0.3
		l3,2.9l-1-4.1l0.5-0.3L122.1,196.8z"/>
	<path id="XMLID_493_" fill="#716E60" d="M123.8,195.5c0.1,0.2,0.1,0.4-0.1,0.6c-0.2,0.1-0.5,0.1-0.6-0.2c-0.1-0.2-0.1-0.4,0.2-0.6
		C123.5,195.2,123.7,195.2,123.8,195.5z"/>
	<path id="XMLID_495_" fill="#716E60" d="M130,189.1l1.4,2.4l-1.4,0.8l-1.2-2c-0.1-0.1-0.2-0.3-0.3-0.5c-0.3-0.4-0.6-0.5-0.9-0.3
		c-0.4,0.3-0.4,0.8,0,1.4l1.2,2.1l-1.4,0.8l-1.2-2c-0.1-0.1-0.2-0.3-0.3-0.5c-0.3-0.4-0.6-0.5-0.9-0.3c-0.4,0.3-0.4,0.8,0,1.4
		l1.2,2.1l-1.4,0.8l-2.3-4l1.4-0.8l0.4,0.6l0-0.7c0.2-0.3,0.4-0.5,0.7-0.7c0.7-0.4,1.3-0.3,1.7,0l0.1-0.8c0.2-0.3,0.4-0.5,0.7-0.7
		c0.8-0.5,1.5-0.3,1.9,0.2C129.7,188.5,129.8,188.8,130,189.1z"/>
	<path id="XMLID_497_" fill="#716E60" d="M135.1,187.1l-2.8,1.6c0.5,0.6,0.9,0.7,1.2,0.4c0.4-0.2,0.5-0.6,0.4-0.9l1.3-0.8
		c0.3,1-0.2,2-1.2,2.6c-1.2,0.7-2.5,0.5-3.3-0.9c-0.7-1.2-0.4-2.6,0.9-3.4c1.3-0.8,2.6-0.1,3.2,0.9C135,186.8,135,186.9,135.1,187.1
		z M131.8,187.8l1.4-0.8c-0.3-0.4-0.7-0.5-1.1-0.3C131.8,186.9,131.7,187.3,131.8,187.8z"/>
	<path id="XMLID_500_" fill="#716E60" d="M135.2,182.6c0.2,0.4,0.1,0.8-0.3,1.1c-0.4,0.2-0.8,0.1-1.1-0.3c-0.2-0.4-0.1-0.8,0.3-1.1
		C134.5,182.1,134.9,182.2,135.2,182.6z M136.7,188.4l-2.3-4l1.4-0.8l2.3,4L136.7,188.4z"/>
	<path id="XMLID_503_" fill="#716E60" d="M141.6,182.5l1.3,2.3l-1.4,0.8l-1.2-2.1c-0.1-0.1-0.2-0.3-0.3-0.5c-0.3-0.4-0.6-0.5-1-0.2
		c-0.4,0.2-0.5,0.8,0,1.7l1.1,1.9l-1.4,0.8l-2.3-4l1.4-0.8l0.4,0.6l0.1-0.7c0.2-0.3,0.4-0.5,0.8-0.8c0.8-0.5,1.5-0.4,2.1,0.3
		C141.3,181.9,141.4,182.2,141.6,182.5z"/>
	<path id="XMLID_505_" fill="#716E60" d="M145.6,182.4l0.1,0.5c-0.2,0.3-0.5,0.6-0.8,0.8c-0.7,0.4-1.5,0.3-2-0.4
		c-0.5-0.9,0-1.9,1.4-2.6l0.3-0.1l0-0.1c0-0.1-0.1-0.2-0.2-0.3c-0.1-0.2-0.4-0.3-0.7-0.1c-0.3,0.2-0.4,0.5-0.2,0.9l-1.3,0.7
		c-0.5-0.9,0-2,1-2.5c1.3-0.7,2-0.4,2.5,0.3c0.1,0.2,0.3,0.4,0.4,0.7l0.7,1.1c0.2,0.3,0.3,0.6,0.7,1L146,183L145.6,182.4z
		 M145.1,181.6l-0.2-0.3c-0.6,0.3-1,0.7-0.8,1.1c0.1,0.2,0.4,0.3,0.7,0.1C145.1,182.4,145.3,182,145.1,181.6z"/>
	<path id="XMLID_508_" fill="#716E60" d="M150.9,177.2l1.3,2.3l-1.4,0.8l-1.2-2.1c-0.1-0.1-0.2-0.3-0.3-0.5c-0.3-0.4-0.6-0.5-1-0.2
		c-0.4,0.2-0.5,0.8,0.1,1.7l1.1,1.9l-1.4,0.8l-2.3-4l1.4-0.8l0.4,0.6l0.1-0.7c0.2-0.3,0.4-0.5,0.8-0.8c0.8-0.5,1.5-0.4,2.1,0.3
		C150.5,176.6,150.7,176.8,150.9,177.2z"/>
	<path id="XMLID_510_" fill="#716E60" d="M157,176.7l-1.4,0.8l-0.4-0.7l0,0.8c-0.2,0.3-0.4,0.5-0.8,0.8c-0.8,0.5-1.6,0.3-2-0.2
		c-0.1-0.2-0.3-0.4-0.5-0.7l-1.4-2.4l1.4-0.8l1.2,2c0.1,0.1,0.2,0.3,0.3,0.5c0.3,0.4,0.6,0.5,1,0.2c0.4-0.2,0.5-0.8,0.1-1.3
		l-1.3-2.3l1.4-0.8L157,176.7z"/>
	<path id="XMLID_512_" fill="#716E60" d="M158.4,173.6c0.1,0.1,0.2,0.3,0.2,0.4c0.3,0.4,0.4,0.4,1.1,0l0.5,0.8
		c-0.2,0.2-0.5,0.4-0.8,0.5c-1,0.6-1.5,0.4-1.9-0.1c-0.2-0.2-0.3-0.4-0.4-0.6l-1-1.7l-0.6,0.4l-0.5-0.8l0.6-0.4l-0.6-1l1.4-0.8
		l0.6,1l0.9-0.5l0.5,0.8l-0.9,0.5L158.4,173.6z"/>
	<path id="XMLID_514_" fill="#716E60" d="M162.6,169.6l-1.3,0.8c-0.2-0.2-0.4-0.3-0.7-0.2c-0.2,0.1-0.3,0.3-0.2,0.5
		c0.1,0.2,0.4,0.3,1.3,0c0.8-0.2,1.5-0.2,2,0.5c0.5,0.9-0.1,1.7-1.1,2.3c-1.1,0.6-2.1,0.6-2.7-0.2l1.3-0.8c0.3,0.3,0.6,0.3,0.9,0.2
		c0.2-0.1,0.4-0.3,0.3-0.6c-0.1-0.3-0.5-0.3-1.3,0c-0.9,0.3-1.5,0.2-1.9-0.5c-0.5-0.8-0.1-1.7,1-2.3
		C161.1,168.7,162,169,162.6,169.6z"/>
	<path id="XMLID_516_" fill="#716E60" d="M167.6,167.5l1.3,2.3l-1.4,0.8l-1.2-2.1c-0.1-0.1-0.2-0.3-0.3-0.5c-0.3-0.4-0.6-0.5-1-0.2
		c-0.4,0.2-0.5,0.8,0,1.7l1.1,1.9l-1.4,0.8l-3.2-5.6l1.4-0.8l1.3,2.2l0.1-0.7c0.2-0.3,0.4-0.5,0.8-0.8c0.8-0.5,1.5-0.4,2.1,0.3
		C167.3,166.9,167.4,167.2,167.6,167.5z"/>
	<path id="XMLID_518_" fill="#716E60" d="M172.7,165.4l-2.8,1.6c0.5,0.6,0.9,0.7,1.2,0.4c0.4-0.2,0.5-0.6,0.4-0.9l1.3-0.8
		c0.3,1-0.2,2-1.2,2.6c-1.2,0.7-2.5,0.5-3.3-0.9c-0.7-1.2-0.4-2.6,0.9-3.4c1.3-0.8,2.6-0.1,3.2,0.9
		C172.5,165.1,172.6,165.2,172.7,165.4z M169.4,166.1l1.4-0.8c-0.4-0.4-0.7-0.5-1.1-0.3C169.3,165.2,169.2,165.6,169.4,166.1z"/>
	<path id="XMLID_521_" fill="#716E60" d="M174.7,164.5c0.1,0.2,0.2,0.3,0.2,0.4c0.1,0.1,0.2,0.2,0.6-0.1l0.5,0.9
		c-0.2,0.2-0.5,0.3-0.8,0.5c-0.6,0.4-1.1,0.3-1.5-0.2c-0.1-0.2-0.3-0.4-0.4-0.7l-2.4-4.1l1.4-0.8L174.7,164.5z"/>
	<path id="XMLID_523_" fill="#716E60" d="M177,163.2c0.1,0.2,0.2,0.3,0.2,0.4c0.1,0.1,0.2,0.2,0.6-0.1l0.5,0.9
		c-0.2,0.2-0.5,0.3-0.8,0.5c-0.6,0.4-1.1,0.3-1.5-0.2c-0.1-0.2-0.3-0.4-0.4-0.7l-2.4-4.1l1.4-0.8L177,163.2z"/>
	<path id="XMLID_525_" fill="#716E60" d="M179.3,163.4c0.1,0.2,0.1,0.4-0.1,0.6c-0.2,0.1-0.4,0.1-0.6-0.2c-0.1-0.2-0.1-0.4,0.2-0.6
		C178.9,163.2,179.2,163.2,179.3,163.4z"/>
	<path id="XMLID_527_" fill="#716E60" d="M181.5,158.9l-0.5,0.3c-0.5-0.6-1.1-0.7-1.8-0.4c-0.7,0.4-1,1.3-0.3,2.5
		c0.7,1.2,1.6,1.4,2.3,1c0.6-0.3,0.8-0.9,0.6-1.7l0.5-0.3c0.3,1-0.1,1.8-0.9,2.3c-1,0.6-2.2,0.3-3-1.1c-0.8-1.3-0.4-2.6,0.6-3.2
		C180,157.9,180.9,158.1,181.5,158.9z"/>
	<path id="XMLID_529_" fill="#716E60" d="M186.2,157.1c0.7,1.2,0.5,2.5-0.7,3.2c-1.3,0.7-2.5,0.2-3.1-1c-0.7-1.2-0.5-2.5,0.7-3.2
		C184.3,155.4,185.6,155.9,186.2,157.1z M185.7,157.4c-0.6-1.1-1.6-1.4-2.4-0.9c-0.8,0.5-1.1,1.5-0.4,2.5c0.6,1.1,1.6,1.4,2.4,0.9
		C186.1,159.5,186.3,158.5,185.7,157.4z"/>
	<path id="XMLID_532_" fill="#716E60" d="M191.9,153.4l1.4,2.4l-0.5,0.3l-1.2-2.1c-0.2-0.3-0.3-0.5-0.5-0.7
		c-0.4-0.5-0.8-0.6-1.4-0.3c-0.6,0.3-0.7,1-0.1,2.2l1.2,2.1l-0.5,0.3l-1.2-2.1c-0.2-0.3-0.3-0.5-0.5-0.7c-0.4-0.5-0.8-0.6-1.4-0.3
		c-0.6,0.3-0.7,1-0.1,2.2l1.2,2.1l-0.5,0.3l-2.3-4l0.5-0.3l0.4,0.7l0-0.6c0.1-0.4,0.3-0.7,0.7-0.9c0.6-0.4,1.2-0.3,1.7,0.2l0-0.7
		c0.1-0.4,0.3-0.7,0.7-0.9c0.7-0.4,1.4-0.2,1.8,0.4C191.6,152.9,191.7,153.1,191.9,153.4z"/>
</g>
<g id="XMLID_351_">
	<g id="XMLID_352_">
		<path id="XMLID_397_" fill="#8E8A80" d="M89.4,123.4c0.2-0.4,0.5-1.7,0.7-2.2c0,0,0,0,0,0c0.4-0.7,0.4-1.3,0.5-2.1
			c0.2-0.5,0.4-1,0.6-1.5c3.1-6.5,8.3-12.1,13.5-17c6.1-5.7,12-11.9,19.2-16.4c0.1-0.1,0.3-0.2,0.4-0.3c0.2-0.2,0.5-0.4,0.7-0.6
			c1.4-1.2,2.8-2.7,4.5-3.5c0-1.1,0-2.4,0-2.6c-0.3-4-2.2-7.6-4.5-10.9c-2.7-3.8-6.7-4.4-11.1-3.9c-10,1.1-19.5,6.2-27.1,12.7
			c-1.4-1.3-2.5-2.8-3.2-4.7c-0.6-1.6-0.5-3.2-1.7-4.6c-2.6-2.9-5.7-0.5-7.7,1.5C68.6,73.5,73.5,80,78.8,84
			c-5.7,9.1-10.7,18.6-9.9,29.7c0.3,4.4,1.9,8.1,5.8,10.5c2,1.2,4.4,1.8,6.7,2.2c1.8,0.3,3.7-0.1,5.6,0.1c0,0,0,0,0,0.1c0,0,0,0,0,0
			c-0.1-0.3-0.2-0.6-0.2-0.9C86.8,125.6,88.3,125.7,89.4,123.4z"/>
		<path id="XMLID_396_" fill="#A2B663" d="M149.3,105.4c-0.1-0.3-0.2-0.7-0.3-1c-0.7-2.8-1.8-5.4-3.2-8.1c-2.4-4.5-5.3-9.2-8.9-13
			c-0.5-0.5-1-1.1-1.6-1.5c-0.1-0.1-0.2-0.2-0.3-0.2c-0.2-0.2-0.4-0.3-0.5-0.5c-0.2-0.2-0.4-0.3-0.5-0.5c-0.1-0.1-0.3-0.2-0.4-0.3
			c-0.9-0.6-1.9-1-3.1-0.6c-0.3,0.1-0.6,0.2-0.8,0.3c-1.6,0.8-3,2.3-4.5,3.5c-0.2,0.2-0.5,0.4-0.7,0.6c-0.1,0.1-0.3,0.2-0.4,0.3
			c-7.1,4.5-13,10.7-19.2,16.4c-5.2,4.9-10.4,10.5-13.5,17c-0.2,0.5-0.4,1-0.6,1.5c-0.2,0.8-0.2,1.4-0.5,2.1c0,0,0,0,0,0
			c-0.3,0.5-0.5,1.8-0.7,2.2c-1.1,2.3-2.6,2.1-2.6,2.1c0,0.3,0.1,0.6,0.2,0.9c0.1,0.4,0.3,0.7,0.5,1.1c0,0,0,0,0,0
			c0.1,0.1,0.1,0.2,0.2,0.3c0.1,0.1,0.1,0.2,0.2,0.3c0,0,0,0,0,0.1c1.5,2.3,4.4,4.3,6.5,5.8c0.1,0,0.1,0.1,0.2,0.1
			c0.2,0.1,0.4,0.3,0.5,0.4c0.5,0.4,1,0.7,1.5,1.1c0,0,0,0,0.1,0.1c1.1,0.8,2.3,1.6,3.4,2.3c0.1,0,0.1,0.1,0.2,0.1
			c0.6,0.3,1.1,0.7,1.7,1c0.1,0,0.2,0.1,0.3,0.1c0.6,0.3,1.1,0.6,1.7,0.9c0,0,0.1,0,0.1,0c0.6,0.3,1.2,0.5,1.8,0.8
			c0.1,0,0.1,0.1,0.2,0.1c0.6,0.2,1.2,0.5,1.8,0.7c0.1,0,0.2,0.1,0.3,0.1c0.6,0.2,1.2,0.4,1.8,0.6c0.1,0,0.2,0,0.2,0.1
			c0.6,0.2,1.3,0.4,2,0.5c0,0,0,0,0,0c6.5,1.5,12.8-0.1,19.1-1.8c0.4-0.1,0.8-0.2,1.3-0.3c1.6-0.4,3.1-1,4.6-1.6
			c1.5-0.6,2.6-0.6,4.1-0.8c0,0,0,0,0,0c0,0,0.1,0,0.1,0c0.1,0,0.3,0,0.4-0.1c0,0,0,0,0,0c0.1,0,0.3-0.1,0.4-0.1c0,0,0,0,0,0
			c1.1-0.4,1.8-1.1,2.2-2.1c0,0,0,0,0,0c0-0.1,0.1-0.2,0.1-0.3c0,0,0,0,0-0.1c0-0.1,0.1-0.2,0.1-0.3c0,0,0-0.1,0-0.1
			c0-0.1,0-0.2,0.1-0.3c0-0.1,0-0.1,0-0.2c0-0.1,0-0.1,0-0.2c0-0.1,0-0.2,0-0.3c0,0,0-0.1,0-0.1c0-0.1,0-0.3,0-0.4
			c0-1.4,1-2.7,1.6-3.9c0.7-1.4,1.2-2.8,1.7-4.3c1.1-3.2,1.6-6.6,1.9-10c0.1-0.9,0.1-1.7,0.1-2.5
			C150.1,110.3,149.8,107.8,149.3,105.4z"/>
		<path id="XMLID_395_" fill="#644945" d="M134,109.9c0.1,0,0.2,0,0.3-0.1C134.2,109.9,134.1,109.9,134,109.9z"/>
		<path id="XMLID_393_" fill="#80ADAE" d="M137.1,139.2c-1.5,0.6-3,1.2-4.6,1.6c-6.7,1.9-13.4,3.8-20.4,2.2
			c-5.8-1.4-10.8-3.8-15.5-7.3c-18.2,0.5-31.9,2.4-31.9,4.7c0,2.7,17.9,6.5,40,6.5c22.1,0,40-3.8,40-6.5c0-0.7-1.3-1.4-3.5-2
			c0,0,0,0,0,0C139.6,138.6,138.5,138.6,137.1,139.2z"/>
		<path id="XMLID_392_" fill="#716E60" d="M145.8,96.3c-2.7-5.1-6.2-10.6-10.5-14.5c-1.4-1.3-2.9-2.7-4.9-2.1
			c-2.4,0.7-4.3,3.3-6.4,4.6c-7.1,4.5-13,10.7-19.2,16.4c-5.9,5.5-11.6,11.8-14.5,19.4c-0.9,2.4,1.7,2.1,2.4,0.2
			c2.6-7,8.2-12.6,13.5-17.6c2.7-2.5,5.5-5,8.2-7.5c2.7-2.5,5.2-5,8.4-7c2.2-1.4,4.1-2.9,6.2-4.6c2.3-1.8,4.9,1.8,6.3,3.3
			c4.4,4.9,8.2,11.2,10.5,17.3c2.6,6.8,1.9,14.9-0.4,21.7c-0.9,2.6-3.2,5.3-3.4,8.1c0,0.6-0.2,0.9,0,0.9c0.1,0,0.2,0,0.3-0.1
			c-0.2,0-0.3,0.1-0.3,0.1c-0.6,0.1-1.2,0-1.7,0c-1.6,0.1-3.1,1-4.6,1.5c-0.6,0.2-1.2,0.4-1.8,0.6c-2.9,0.9-5.9,1.4-8.8,2.1
			c-3.8,1-7,1.1-10.8,0.4c-4-0.7-7.5-2.2-10.9-4.1c-2.4-1.3-4.6-2.9-6.8-4.7c-1.5-1.2-2.9-2.4-4.3-3.6c-0.8-0.7-2.6-2.1-2.7-3.3
			c-0.1-0.5-0.2-0.9-0.7-1c-1.5-0.3-3,0-4.6-0.1c-2.2-0.1-4.3-0.7-6.4-1.5c-4.1-1.7-5.8-5.1-6.3-9.4c-1.1-10.7,4.5-19.8,10-28.5
			c0.4-0.6,0.7-1.7,0-2.2c-2.2-1.5-4.1-3.3-5.7-5.4c-0.9-1.1-1.5-2.5-1.6-3.9c-0.1-1.6,2.2-3.8,3.7-3.8c2.6,0,2.6,3.6,3.3,5.4
			c0.8,2.2,2.4,4,4.2,5.4c0.4,0.3,1-0.1,1.3-0.3c6.9-6.2,14.7-10,23.8-12.2c4.3-1,8.6-1.2,11.7,2.3c2.3,2.7,4.3,6.5,4.6,10
			c0.2,2.3,2.9-0.1,2.8-1.5c-0.3-4-2.2-7.6-4.5-10.9c-2.7-3.8-6.7-4.4-11.1-3.9c-10,1.1-19.5,6.2-27.1,12.7
			c-1.4-1.3-2.5-2.8-3.2-4.7c-0.6-1.6-0.5-3.2-1.7-4.6c-2.6-2.9-5.7-0.5-7.7,1.5C68.6,73.5,73.5,80,78.8,84
			c-5.7,9.1-10.7,18.6-9.9,29.7c0.3,4.4,1.9,8.1,5.8,10.5c2,1.2,4.4,1.8,6.7,2.2c1.8,0.3,3.7-0.1,5.6,0.1c1,3.4,5.5,6.1,8,8.1
			c0.5,0.4,1,0.8,1.5,1.1c4.7,3.5,9.7,5.9,15.5,7.3c6.9,1.6,13.7-0.3,20.4-2.2c1.6-0.4,3.1-1,4.6-1.6c1.5-0.6,2.6-0.6,4.1-0.8
			c0,0,0,0,0,0c2.5-0.3,3.6-2.4,3.6-4.8c0-1.4,1-2.7,1.6-3.9c0.7-1.4,1.2-2.8,1.7-4.3c1.1-3.2,1.6-6.6,1.9-10
			C150.6,108.6,148.9,102.3,145.8,96.3z"/>
		<path id="XMLID_355_" fill="#716E60" d="M122.4,78.7c-1.1-1.9-3.8-2.6-6.3-2.9c-0.3-1-0.5-2-0.6-3.1c-0.1-1.3,0.8-2.2,2-2.1
			c1.7,0.3,1.9,3.1,0.4,1.9c-1-0.8-2.4,1.4-1.4,2.2c3.7,2.9,7-2.7,3.6-5.5c-3.5-2.8-7.1,0.9-6.7,4.7c0.1,0.4,0.1,1,0.2,1.6l0,0
			c-0.6-0.1-1.3-0.1-1.9-0.2c0.1-1.6,0.2-3.3-0.5-4.5c-1.3-2.2-3.6-2.3-5.3-0.2c-1.3,1.6-0.9,4.2,0.5,5.5c0.8,0.8,1.9,1.2,3,1.4
			c0,0.9,0,1.7,0.1,2.6c-1.7-0.1-3.3-0.1-4.5-0.3c0,0,0,0-0.1,0c0.4-3,0.5-6.1-2.2-7.3c-3.8-1.7-6.6,2.7-4.9,5.9
			c1,2,2.8,2.9,4.9,3.4c0,0,0,0,0,0c-0.1,0.7-0.1,1.5-0.1,2.4c-1.2,0-2.3,0-3.4,0c-0.3-1.5-0.8-2.9-1.4-4.2c-0.7-1.5-2-3.1-3.8-3.2
			c-1.7-0.1-4,1-3.9,3c0,2.2,1.6,4,3.1,5.4c1.2,1,2.6,1.4,4.1,1.5c0.1,1.1,0.2,2.2,0.2,3.4c-1.3,0-3,0-4.7-0.2c0-0.5-0.1-1-0.1-1.5
			c-0.4-3.8-3.9-8.4-7.6-4.7c-1.3,1.3-1.6,3.4-0.8,5.1c0.9,2.2,3.8,2.9,5.9,3.3c0.2,0,0.5,0.1,0.7,0.1c0,1.1-0.1,2.1-0.1,3.2
			c-1,0-2.1,0.2-3.2,0.4c-0.6-2.2-1.4-4.8-3.5-5.9c-1.5-0.8-3.4,0.2-4.3,1.5c-1.2,1.7-1.1,3.5,0.1,5.2c1.3,1.9,3.9,2,6,1.8
			c0,0.1,0.1,0.3,0.1,0.4c0.3,1.5,0.5,2.9,0.8,4.3c-0.7,0-1.4,0-2.1,0c-0.1-0.2-0.2-0.4-0.3-0.7c-0.9-2.1-3-4.2-5.2-4.9
			c-1.9-0.5-3.5,1-3.8,2.7c-0.7,3.7,4.5,4.8,7.6,5.2c0.4,1.5,0.6,3.1,0.7,4.7c-0.5-0.1-1.1-0.2-1.6-0.3c-1-2.5-2.7-4.7-4.9-5.3
			c-1.8-0.5-3.5,0.3-4.1,2.1c-0.7,2,1.3,3.9,2.9,4.6c1.3,0.6,2.9,0.8,4.4,1c0,0.1,0,0.1,0.1,0.2c0.4,1.1,1,3.7-0.1,4.6
			c-1,0.9-2.3-0.1-2.9-0.9c-0.3-0.4-0.5-0.8-0.5-1.3c0.4,0.3,0.7,0.7,0.9,1.1c0.8,1.1,2.4-0.8,1.7-1.8c-0.9-1.3-2.5-2.6-3.9-1.1
			c-1.6,1.6-0.9,3.9,0.4,5.4c3,3.4,6.8-0.3,6.9-3.7c0-0.7,0-1.5-0.2-2.3c0.3,0,0.6,0.1,0.9,0.1c0,0,0.1,0,0.1,0
			c0.1,2.1,0.2,4.9,1.8,6.3c1.9,1.8,4-0.5,4.8-2.2c1.8-3.7-1-5.3-4.6-6.2c-0.1-1.7-0.2-3.4-0.4-5c0.7,0,1.4,0,2.1,0.1
			c0.2,0.6,0.3,1.2,0.5,1.9c0.7,2.3,1.6,4.1,4.3,3.8c3.9-0.4,4.6-6.3,0.8-7.5c-1.3-0.4-2.6-0.6-4-0.7c-0.4-1.7-0.6-3.4-1-5.1
			c0.9-0.1,1.8-0.2,2.8-0.2c0,0.5,0.1,0.9,0.1,1.4c0.3,1.9,1.9,4.1,3.8,4.8c1.6,0.6,4-0.1,4.6-2c1.4-4.5-2.8-6.2-6.4-6.6
			c0-1,0-2,0.1-3.1c1.2,0.1,2.4,0.1,3.5,0c0.4,0,0.8,0,1.2,0c-0.1,1.4-0.3,3.8,0.9,4.8c1.7,1.3,4,1.6,5.7,0.1
			c1.4-1.2,1.9-2.9,1.1-4.5c-1-2-3.6-2.6-5.6-2.7c0-0.5,0.1-0.9,0.1-1.2c0-0.7,0-1.5-0.1-2.2c0.6,0,1.1,0,1.7,0c0.5,0,1,0,1.4,0
			c0.3,2.7,1.3,5.3,3.6,6.1c1.6,0.6,3.3-0.1,4.3-1.5c1-1.5,0.1-3.4-0.9-4.6c-1.2-1.5-3.2-2-5.1-2.2c0-0.6,0-1.4,0.1-2.2
			c1.6,0.2,3.3,0.3,4.6,0.4c0.1,0,0.2,0,0.3,0c0.1,1.9,0.5,4,1.9,5.2c3.5,3,5.9-1.9,4.4-5c-0.8-1.6-2.4-2.2-4.2-2.5c0-1,0-1.9,0-2.5
			c0,0,0,0,0-0.1c0.6,0.1,1.6,0.2,2.6,0.3c0.7,2.6,1.9,5.3,3.9,6C120.8,84.9,123.7,81,122.4,78.7z M76.4,108.7
			c-0.7-0.3-1.2-1-1.6-1.7c0.8-0.4,1.4-0.3,2,0.3c0.4,0.4,0.9,0.8,1.2,1.2c0.2,0.2,0.4,0.5,0.6,0.7C77.7,109.1,76.9,109,76.4,108.7z
			 M87.9,114.3c0.8,0.8-0.1,3.5-1.2,2.5c-0.5-0.5-0.7-1.4-0.8-2c-0.1-0.6-0.2-1.1-0.3-1.7C86.5,113.3,87.3,113.7,87.9,114.3z
			 M78.5,101.5c-0.3-0.2-2-1.9-0.5-1.8c1.3,0.1,2.6,1.5,3.5,2.9c-0.5-0.1-1.1-0.2-1.6-0.4C79.4,102.1,78.9,101.8,78.5,101.5z
			 M93.1,107.3c0.9,1.9-2,1.7-2.7,0.8c-0.5-0.6-0.7-1.6-0.9-2.5c0.3,0,0.6,0.1,0.8,0.1C91.5,105.8,92.6,106.2,93.1,107.3z
			 M81.3,94.6c-0.8-0.8-1-2.4,0.8-2.7c0.7-0.1,1.3,0.7,1.7,1.2c0.6,0.8,1,1.8,1.3,2.9C83.7,96,82.4,95.8,81.3,94.6z M96.9,100.1
			c1.3,2.5-1.5,1.5-2.4,0.8c-1.1-0.9-1.5-1.9-1.7-3.1c0.6,0.1,1.2,0.2,1.8,0.3C95.6,98.3,96.4,99.1,96.9,100.1z M86.1,85.2
			c1.2-2.3,3.5,0.7,4,1.9c0.3,0.7,0.4,1.6,0.5,2.4C87.3,88.9,84.7,87.8,86.1,85.2z M93.6,82c-0.8-0.8-2.3-2.8-0.5-3
			c1.5-0.2,2.4,1.7,2.9,2.8c0.3,0.7,0.5,1.3,0.7,2C95.6,83.6,94.6,83,93.6,82z M102,95.8c-2.2,0.5-2.6-1.4-2.7-3.5
			c0.1,0,0.3,0,0.4,0C101.2,92.5,105.4,95.1,102,95.8z M108.7,89.7c0.5,1.2-1.3,0.7-1.8,0.5c-0.6-0.3-1-1.2-1.3-1.7
			c-0.3-0.5-0.5-1-0.6-1.6C106.6,87.2,108,88,108.7,89.7z M101.1,78.2c-1.1-0.7-3.1-3.3-0.6-3.7c2.4-0.4,2.6,2.3,2.4,4.6
			C102.3,78.9,101.7,78.6,101.1,78.2z M112.8,83.4c0.8,0.4,2.5,3.1,1,2.8c-1.2-0.2-1.7-1.6-2-3.2C112.1,83.2,112.4,83.3,112.8,83.4z
			 M107.9,71.5c1.7-0.8,1.8,2.5,1.7,3.3c0,0.1,0,0.1,0,0.2c-0.6-0.2-1.2-0.5-1.7-1C107.3,73.5,107,72,107.9,71.5z M120.3,81.2
			c-1.1,1.7-2.4-0.6-3.2-2.6C119.3,79.1,121.1,80,120.3,81.2z"/>
		<path id="XMLID_354_" fill="#C5CE9B" d="M126.2,97.3c7.6,5.9,13.1,17.1,9.7,27.1c-0.4,1.2-0.7,3.6,1.1,3.7
			c1.7,0.2,3.3-1.8,3.7-3.3c4.3-12.5-0.4-26.1-10.7-34.2C127.7,88.8,123.7,95.3,126.2,97.3L126.2,97.3z"/>
	</g>
</g>
</svg>
