<?xml version="1.0" encoding="utf-8"?>
<!-- Generator: Adobe Illustrator 19.0.0, SVG Export Plug-In . SVG Version: 6.00 Build 0)  -->
<!DOCTYPE svg PUBLIC "-//W3C//DTD SVG 1.1//EN" "http://www.w3.org/Graphics/SVG/1.1/DTD/svg11.dtd">
<svg version="1.1" id="Layer_1" xmlns="http://www.w3.org/2000/svg" xmlns:xlink="http://www.w3.org/1999/xlink" x="0px" y="0px"
	 viewBox="-915 324 216 216" enable-background="new -915 324 216 216" xml:space="preserve">
<pattern  x="-915" y="540" width="14.8" height="14.8" patternUnits="userSpaceOnUse" id="Unnamed_Pattern" viewBox="0 -14.8 14.8 14.8" overflow="visible">
	<g>
		<polygon fill="none" points="0,0 14.8,0 14.8,-14.8 0,-14.8 		"/>
		<g id="XMLID_12_">
			<polygon id="XMLID_22_" fill="none" points="14.8,-14.8 0,-14.8 0,0 14.8,0 			"/>
			<g id="XMLID_13_">
				<g id="XMLID_20_">
					<path id="XMLID_21_" fill="#FF7962" d="M7.2-7.2C7.2-7,7-6.8,6.9-6.7C6.6-6.2,6.5-5.8,6.4-5.3c0,0.4,0.1,1-0.2,1.3
						C5.8-3.6,5.6-4.2,5.5-4.5c0-0.1-0.1-0.1-0.2,0S5.2-4.1,5.2-4c0.1,0.5,0.4,1,0.3,1.5c0,0.2-0.1,0.4-0.3,0.5
						C5.1-1.9,5.1-1.7,5-1.6C4.9-1.4,4.6-1.3,4.4-1.4S4.2-1.7,4-1.8C3.8-2,3.8-2.2,3.8-2.4c0-0.1-0.1-0.4-0.2-0.2
						C3.5-2.4,3.5-2.1,3.5-1.9S3.4-1.4,3.3-1.2C3.1-0.9,2.7-0.8,2.4-1C2.3-1.1,2-0.9,1.9-0.9C1.7-0.9,1.4-1,1.3-1.2
						C1.1-1.4,1-1.6,1-1.9C1-2,1.1-2.3,1.1-2.4C0.9-2.7,1-3.1,1.3-3.3C1.5-3.5,1.7-3.5,2-3.5c0.2,0,0.5,0,0.7-0.1
						c0.1-0.1-0.2-0.2-0.3-0.2C2.2-3.8,2-3.9,1.8-4C1.7-4.1,1.5-4.2,1.4-4.4C1.3-4.6,1.4-4.9,1.6-5C1.7-5.1,1.9-5.1,2-5.2
						c0.2-0.1,0.3-0.2,0.5-0.3C3-5.6,3.5-5.3,4-5.2c0.2,0,0.4,0,0.5-0.1s0-0.1,0-0.2c-0.2,0-0.8-0.3-0.4-0.6C4.4-6.4,5-6.3,5.3-6.3
						c0.5-0.1,1-0.3,1.4-0.5C6.9-6.9,7-7.1,7.2-7.2L7.2-7.2z"/>
				</g>
				<g id="XMLID_18_">
					<path id="XMLID_19_" fill="#FF7962" d="M7.6-7.2C7.7-7,7.8-6.8,7.9-6.7c0.3,0.5,0.5,0.9,0.5,1.4c0,0.4-0.1,1,0.2,1.3
						C9-3.6,9.2-4.2,9.3-4.5c0-0.1,0.1-0.1,0.2,0C9.6-4.4,9.6-4.1,9.6-4C9.5-3.5,9.2-3,9.3-2.5c0,0.2,0.1,0.4,0.3,0.5
						c0.1,0.1,0.1,0.3,0.2,0.4c0.1,0.2,0.4,0.3,0.6,0.2c0.2-0.1,0.2-0.3,0.4-0.4C11-2,11-2.2,11-2.4c0-0.1,0.1-0.4,0.2-0.2
						c0.1,0.2,0.1,0.5,0.1,0.7s0.1,0.5,0.2,0.7c0.2,0.3,0.6,0.4,0.9,0.2c0.1-0.1,0.4,0.1,0.5,0.1c0.2,0,0.5-0.1,0.6-0.3
						c0.2-0.2,0.3-0.4,0.3-0.6c0-0.1-0.1-0.4-0.1-0.5c0.2-0.3,0.1-0.7-0.2-0.9c-0.2-0.2-0.4-0.2-0.7-0.2c-0.2,0-0.5,0-0.7-0.1
						s0.1-0.2,0.2-0.2c0.2,0,0.4-0.1,0.6-0.2C13-4,13.2-4.1,13.3-4.3c0.1-0.2,0-0.5-0.2-0.6C13-5,12.8-5,12.7-5.1
						c-0.2-0.1-0.3-0.2-0.5-0.3c-0.5-0.1-1,0.2-1.5,0.3c-0.2,0-0.4,0-0.5-0.1s0-0.1,0-0.2c0.2-0.1,0.9-0.4,0.5-0.7
						c-0.3-0.3-0.9-0.2-1.3-0.2C9-6.4,8.5-6.6,8.1-6.8C8-6.9,7.8-7.1,7.6-7.2L7.6-7.2z"/>
				</g>
				<g id="XMLID_16_">
					<path id="XMLID_17_" fill="#FF7962" d="M7.6-7.6C7.7-7.8,7.8-8,7.9-8.1C8.2-8.5,8.3-9,8.4-9.5c0-0.4-0.1-1,0.2-1.3
						c0.4-0.3,0.6,0.3,0.8,0.5c0,0.1,0.1,0.1,0.2,0c0.1,0,0.1-0.3,0-0.5c0-0.5-0.3-1-0.2-1.5c0-0.2,0.1-0.4,0.3-0.5
						c0.1-0.1,0.1-0.3,0.2-0.4c0.1-0.2,0.4-0.3,0.6-0.2c0.2,0.1,0.2,0.3,0.4,0.4c0,0.2,0,0.4,0.1,0.6c0,0.1,0.1,0.4,0.2,0.2
						c0.1-0.2,0.1-0.5,0.1-0.7c0-0.2,0.1-0.5,0.2-0.7c0.3-0.2,0.6-0.3,0.9-0.2c0.1,0.1,0.4,0,0.5,0c0.2,0,0.5,0.1,0.6,0.3
						c0.2,0.2,0.3,0.4,0.3,0.6c0,0.1-0.1,0.4-0.1,0.5c0.2,0.3,0.1,0.7-0.2,0.9c-0.2,0.2-0.4,0.2-0.7,0.2c-0.2,0-0.5,0-0.7,0.1
						c-0.2,0.1,0.1,0.2,0.2,0.2c0.2,0,0.4,0.1,0.6,0.2c0.1,0.1,0.3,0.2,0.4,0.4c0.1,0.2,0,0.5-0.2,0.6c-0.1,0.1-0.3,0.1-0.4,0.2
						c-0.2,0.1-0.3,0.2-0.5,0.3c-0.5,0.1-1-0.2-1.5-0.3c-0.2,0-0.4,0-0.5,0.1c-0.1,0.1,0,0.1,0,0.2c0.2,0.1,0.9,0.4,0.5,0.7
						c-0.3,0.3-0.9,0.2-1.3,0.2C9-8.4,8.5-8.2,8.1-7.9C8-7.8,7.8-7.7,7.6-7.6L7.6-7.6z"/>
				</g>
				<g id="XMLID_14_">
					<path id="XMLID_15_" fill="#FF7962" d="M7.2-7.6C7.2-7.8,7-8,6.9-8.1C6.6-8.5,6.5-9,6.4-9.5c0-0.4,0.1-1-0.2-1.3
						c-0.4-0.3-0.6,0.3-0.8,0.5c0,0.1-0.1,0.1-0.2,0c-0.1,0,0-0.3,0-0.5c0.1-0.5,0.4-1,0.3-1.5c0-0.2-0.1-0.4-0.3-0.5
						c-0.1-0.2-0.1-0.3-0.1-0.4c-0.2-0.2-0.5-0.3-0.7-0.2c-0.1,0.1-0.2,0.3-0.3,0.4c-0.2,0.2-0.2,0.4-0.2,0.6c0,0.1-0.1,0.4-0.2,0.2
						c-0.2-0.2-0.2-0.5-0.2-0.7s-0.1-0.5-0.2-0.7c-0.2-0.2-0.6-0.3-0.9-0.2c-0.1,0.1-0.4,0-0.5,0c-0.2,0-0.5,0.1-0.6,0.2
						C1.2-13.5,1-13.2,1-12.9c0,0.1,0.1,0.4,0,0.5c-0.1,0.3,0,0.6,0.3,0.9c0.2,0.1,0.4,0.2,0.7,0.2c0.2,0,0.5,0,0.7,0.1
						C2.9-11.1,2.6-11,2.5-11c-0.3,0.1-0.5,0.1-0.7,0.3c-0.1,0.1-0.3,0.2-0.4,0.3c-0.1,0.2,0,0.5,0.2,0.6C1.7-9.7,1.9-9.7,2-9.6
						c0.2,0.1,0.3,0.2,0.5,0.3C3-9.2,3.5-9.5,4-9.6c0.2,0,0.4,0,0.5,0.1c0.1,0.1,0,0.1,0,0.2C4.3-9.2,3.7-9,4.1-8.6
						C4.4-8.3,5-8.5,5.3-8.4c0.5,0.1,0.9,0.3,1.4,0.5C6.9-7.8,7-7.7,7.2-7.6L7.2-7.6z"/>
				</g>
			</g>
		</g>
	</g>
</pattern>
<g id="XMLID_204_">
	<polygon id="XMLID_23_" fill="#FF8E7B" points="-806.9,536.6 -897.4,484.3 -897.4,379.8 -806.9,327.6 -716.4,379.8 -716.4,484.3 	
		"/>
</g>
<g id="XMLID_25_">
	<pattern  id="XMLID_2_" xlink:href="#Unnamed_Pattern" patternTransform="matrix(1.2 0 0 -1.2 2795.3298 -18726.2969)">
	</pattern>
	<polygon id="XMLID_24_" fill="url(#XMLID_2_)" points="-806.9,536.6 -897.4,484.3 -897.4,379.8 -806.9,327.6 -716.4,379.8 
		-716.4,484.3 	"/>
</g>
<g id="XMLID_459_">
	<path id="XMLID_463_" fill="#FFFFFF" d="M-867.4,412.3c0.4,0,0.7,0.2,1,0.4c0.3,0.3,0.5,0.6,0.8,1.1c0.2,0.4,0.5,0.9,0.6,1.5
		c0.2,0.5,0.4,1.1,0.6,1.7l0.6,1.5l0.3-0.9c0.2-0.6,0.4-1.2,0.6-1.9c0.2-0.6,0.5-1.2,0.8-1.6c0.3-0.5,0.6-0.9,1-1.2
		c0.4-0.3,0.8-0.4,1.3-0.4c0.4,0,0.8,0.3,1.1,0.9s0.5,1.3,0.7,2.2s0.3,1.8,0.4,2.8c0.1,1,0.2,1.9,0.3,2.8l0.3,0.8
		c0.3,1.6,0.5,3.1,0.7,4.6c0.1,1.5,0.3,3.1,0.4,4.6c0.1,1.5,0.2,3,0.2,4.4c0.1,1.4,0.1,3.4,0.3,4.8v-0.1c0.2,1,0.4,1.7,0.5,1.9
		c0.2,0.2,0.4,0.4,0.6,0.4c0.3,0.1,0.7,0.2,1.1,0.4c0.4,0.2,0.6,0.5,0.6,1s-0.2,0.8-0.7,1c-0.4,0.2-0.9,0.3-1.3,0.3
		c-0.8-0.1-1.4-0.3-1.9-0.6s-0.9-0.8-1.2-1.3c-0.3-0.6-0.5-1.2-0.6-2c-0.1-0.8-0.2-1.6-0.2-2.6v-1.1c0-0.2,0-0.4,0-0.6
		c0-0.2,0-0.4,0-0.6c-0.1-1-0.2-2.6-0.2-3.4c0-0.9-0.1-1.7-0.1-2.6c0-0.8-0.1-1.7-0.2-2.6c-0.1-0.9-0.2-1.9-0.4-3
		c-0.2-1.1-0.4-2.3-0.5-3.4c-0.2-1.1-0.3-2.3-0.4-3.4c0-0.2,0-0.3,0-0.4c-0.3,0.7-0.5,1.4-0.8,2.3c-0.2,0.8-0.5,1.8-0.8,2.7
		c0.1,0.3,0.1,0.7,0.2,1.2c0.1,0.5,0.1,1.1,0.1,1.7c0,0.5,0,1-0.1,1.4c-0.1,0.5-0.2,0.9-0.3,1.3s-0.4,0.7-0.6,0.9
		c-0.3,0.2-0.6,0.3-1,0.3c-0.9,0-1.5-0.3-1.8-0.8c-0.3-0.5-0.5-1.1-0.5-1.9c0-0.4,0-0.9,0.1-1.4c0.1-0.5,0.2-0.9,0.3-1.3
		s0.2-0.8,0.3-1.2c0.1-0.4,0.1-0.7,0.1-1c0-0.4-0.1-0.8-0.2-1.1c-0.1-0.4-0.3-0.7-0.5-1c-0.2-0.3-0.4-0.6-0.6-0.8
		c-0.2-0.3-0.4-0.5-0.5-0.7l0,0l-0.2,1.2c-0.2,1.5-0.5,3.2-0.7,5c-0.2,1.8-0.4,3.5-0.4,5.1c0,0.1,0,0.5-0.1,1.4
		c-0.1,0.9-0.2,1.9-0.4,3.1s-0.4,3-0.6,4.3c-0.2,1.3-0.5,2.3-0.8,3.2c-0.1,0.1-0.2,0.6-0.6,1.4c-0.3,0.8-0.7,1.6-1.3,2.5
		c-0.5,0.9-1.2,1.7-1.9,2.4c-0.8,0.7-1.6,1.1-2.5,1.1c-1.2,0-2.2-0.1-3.1-0.4c-0.8-0.3-1.5-0.7-2-1.2s-0.9-1.1-1.1-1.7
		c-0.2-0.6-0.3-1.3-0.3-2c0-1.3,0.1-2.1,0.4-2.5s0.9-0.6,1.7-0.6c0.5,0,0.9,0.1,1,0.4c0.2,0.2,0.3,0.5,0.3,0.9c0,0.4,0,0.8-0.1,1.2
		c-0.1,0.4-0.1,0.9-0.1,1.3c0,0.7,0.1,1.1,0.4,1.4s0.9,0.4,1.9,0.4c0.5,0,1-0.1,1.4-0.4c0.4-0.2,0.7-0.6,1.1-1.1
		c0.3-0.5,0.6-1.1,1-1.8c0.3-0.7,0.7-1.6,1.1-2.6c0.1-0.5,0.3-1.1,0.4-1.7c0.1-0.6,0.2-1.3,0.3-1.9c0.1-0.7,0.2-1.9,0.3-2.5
		c0.1-0.6,0.2-1.2,0.3-1.8c0.2-1.1,0.4-2.2,0.4-3.3c0.1-1.1,0.1-2.1,0.2-3.2c0-1,0.1-2.1,0.2-3.2c0.1-1.1,0.3-2.2,0.6-3.3
		c0.1-0.7,0.2-1.4,0.3-2.2c0-0.8,0.2-1.6,0.4-2.4c-0.1,0-0.3,0-0.4,0c-0.1,0-0.3,0-0.4,0c-0.5,0-1,0-1.5,0s-1,0.1-1.5,0.1
		c-0.5,0.1-1,0.2-1.4,0.3c-0.4,0.1-0.8,0.3-1.1,0.6c-0.5,0.4-0.9,0.8-1.1,1.1s-0.3,0.6-0.3,0.9s0.1,0.6,0.3,0.9
		c0.2,0.3,0.4,0.5,0.6,0.7c0.2,0.2,0.5,0.5,0.6,0.7c0.2,0.2,0.3,0.5,0.3,0.7c0,0.3-0.1,0.6-0.4,0.8c-0.3,0.2-0.6,0.3-0.9,0.3
		c-0.4,0-0.7-0.1-1.1-0.4c-0.4-0.2-0.7-0.6-1-1c-0.3-0.4-0.6-0.9-0.8-1.4s-0.3-1.1-0.3-1.7c0-1.1,0.4-2,1.1-2.7
		c0.7-0.7,1.6-1.3,2.7-1.7s2.3-0.7,3.6-0.8c1.3-0.2,2.5-0.2,3.7-0.2c0.3,0,0.6,0,0.9,0C-867.8,412.2-867.6,412.3-867.4,412.3z"/>
	<path id="XMLID_460_" fill="#FFFFFF" d="M-843.8,438.8c0,0.6-0.1,1.2-0.2,1.7s-0.3,1-0.7,1.4c-0.3,0.4-0.8,0.7-1.4,1
		c-0.6,0.2-1.5,0.4-2.5,0.4c-0.9,0-1.6-0.2-2.1-0.6c-0.5-0.4-1-0.9-1.2-1.5c-0.3-0.6-0.5-1.4-0.6-2.2c-0.1-0.9-0.1-1.2-0.1-2.2
		c0-0.8,0-1.5,0-2.1s0-1.1,0-1.5s0-0.8,0-1.1c0-0.3,0-0.7,0-1.1c0-0.2,0-0.5,0-1s0-1,0.1-1.6c0-0.6,0.1-1.1,0.1-1.6s0-0.9,0-1.1
		c0-0.4,0-1,0.1-1.5c0-0.6,0.2-1.1,0.4-1.6c0.2-0.5,0.6-1,1.1-1.3c0.5-0.4,1.2-0.5,2.1-0.5c0.9,0,1.8,0.2,2.5,0.7
		c0.8,0.5,1.4,1,1.7,1.5l0.2,0.3c0,0.1,0.1,0.2,0.2,0.4c0.1,0.2,0.2,0.5,0.3,0.9c0.1,0.4,0.2,0.9,0.2,1.5c0.1,0.6,0.1,1.4,0.1,2.4
		c0,2-0.4,3.6-1.2,4.8c-0.8,1.2-2,1.7-3.4,1.7c-0.5,0-1,0-1.5-0.1c0,0.4,0,0.7,0,1.1c0,0.3,0,0.6,0,0.9c0,0.4,0,0.4,0,0.9
		s0.1,1,0.2,1.5c0.1,0.5,0.3,0.9,0.4,1.2c0.2,0.3,0.5,0.5,0.8,0.5c0.1,0,0.3,0,0.5,0s0.4-0.1,0.6-0.1c0.2-0.1,0.4-0.2,0.5-0.3
		c0.1-0.2,0.2-0.4,0.2-0.6c0-0.9,0.1-1.5,0.4-1.9c0.2-0.4,0.7-0.6,1.4-0.6c0.3,0,0.6,0.1,0.9,0.4
		C-843.9,437.8-843.8,438.2-843.8,438.8z M-849.7,427.5c0,0.9,0,1.7,0,2.4c0,0.7,0,1.4-0.1,2v0.2c0.2,0.1,0.5,0.1,0.9,0.1
		c0.3,0,0.6,0,0.7,0c0.1,0,0.3-0.1,0.4-0.2c0.2-0.1,0.4-0.3,0.5-0.6c0.2-0.3,0.3-0.6,0.4-1.1c0.1-0.5,0.2-1.1,0.2-1.8
		c0-1-0.1-1.9-0.2-2.6c-0.1-0.7-0.3-1.2-0.5-1.6c-0.2-0.4-0.4-0.7-0.7-0.8c-0.3-0.2-0.6-0.2-0.9-0.2c-0.2,0-0.4,0.1-0.6,0.2
		c-0.2,0.1-0.3,0.4-0.3,0.9c0,0.3,0,0.7,0.1,1.2C-849.8,426.2-849.7,426.8-849.7,427.5z"/>
</g>
<g id="XMLID_440_">
	<path id="XMLID_457_" fill="#FFFFFF" d="M-805.3,416.1c0.1,0.1,0.2,0.5,0.4,0.9c0.1,0.5,0.3,1,0.4,1.7c0.1,0.6,0.3,1.4,0.4,2.1
		c0.1,0.8,0.3,1.5,0.4,2.3c-0.1-0.7-0.1-1.5-0.2-2.4c0-0.8-0.1-1.6-0.1-2.4c0-0.7-0.1-1.4-0.1-1.9c0-0.6,0-0.9,0-1.1
		c0-0.7,0-1.3,0.1-1.7s0.2-0.7,0.4-0.9c0.1-0.2,0.3-0.3,0.5-0.4c0.2,0,0.4-0.1,0.6-0.1s0.4,0,0.6,0c0.2,0,0.4,0.1,0.5,0.2
		c0.1,0.1,0.3,0.4,0.4,0.6c0.1,0.3,0.1,0.7,0.1,1.2c0,1.6-0.1,3.2-0.2,4.6c-0.1,1.4-0.2,2.9-0.3,4.3c-0.1,1.4-0.2,2.9-0.3,4.5
		c-0.1,1.6-0.2,3.3-0.2,5.1c0,0.5,0,1.1,0.1,1.7c0.1,0.6,0.1,1.3,0.2,1.9c0.1,0.6,0.1,1.2,0.2,1.7c0.1,0.5,0.1,0.9,0.1,1.2
		c0,0.2,0,0.6,0,1.2c0,0.6,0.1,1.3,0.2,2.2c0.1,0.8,0.2,1.7,0.4,2.6s0.5,1.7,0.8,2.5c0.3,0.7,0.7,1.4,1.2,1.9s1.1,0.7,1.7,0.7
		c0.7,0,1.2-0.1,1.6-0.3c0.4-0.2,0.7-0.4,0.9-0.6c0.2-0.2,0.3-0.4,0.4-0.7c0.1-0.2,0.1-0.4,0.1-0.5c0-0.4-0.1-0.7-0.3-0.9
		c-0.2-0.1-0.4-0.2-0.7-0.4c-0.2-0.1-0.4-0.2-0.4-0.5c0-0.2,0-0.5,0-0.7c0.1-0.2,0.2-0.4,0.3-0.6c0.1-0.2,0.3-0.3,0.4-0.3
		c0.8-0.1,1.5,0.2,2.1,0.6c0.6,0.5,0.9,1.4,0.9,2.8s-0.5,2.4-1.4,3.2c-0.9,0.8-2.6,1.1-5,1.1c-0.9,0-1.7-0.4-2.4-1.1
		c-0.7-0.7-1.4-1.7-1.9-2.7c-0.6-1.1-1-2.2-1.3-3.3c-0.3-1.2-0.6-2.1-0.6-2.9c-0.1-0.6-0.2-1.4-0.3-2.4c-0.1-1-0.2-2-0.3-3
		c-0.1-1-0.2-2.1-0.3-3c-0.1-1-0.1-1.8-0.2-2.4l-0.1-2.7c-0.1-1.2-0.1-2.4-0.2-3.4s-0.2-2-0.4-3c-0.2-1-0.5-1.9-0.9-2.9
		c-0.4-1-0.9-2-1.6-3.2l-0.1,2.4c0,0.4-0.1,0.7-0.1,1.1s0,0.8,0,1.3v14.4c0,2.3,0,4.4,0,6.4c0,0.2-0.1,0.4-0.2,0.5s-0.3,0.3-0.5,0.4
		s-0.4,0.1-0.6,0.2c-0.2,0-0.4,0-0.5,0c-0.3,0-0.6-0.1-0.9-0.4c-0.3-0.3-0.4-0.9-0.4-1.7c0-0.4,0-1.1,0-2.1s0-2.1,0-3.4
		s0-2.6,0.1-4.1c0-1.4,0.1-2.8,0.1-4c0-1.3,0-2.4,0-3.3s0-1.6,0-1.9v-0.1v-0.1l0,0c0-0.1,0-0.3,0-0.5s0-0.6,0-1.1c0-0.8,0-1.5,0-2.1
		c0-0.6,0-1.1,0.1-1.6c0-0.5,0.1-0.9,0.1-1.4s0.1-1,0.1-1.6c-0.2-0.1-0.4-0.3-0.6-0.4c-0.2-0.1-0.4-0.2-0.6-0.2
		c-0.1,0-0.3,0-0.4,0.1c-0.1,0.1-0.3,0.1-0.4,0.1c-0.4,0-0.8-0.1-1-0.4c-0.3-0.2-0.4-0.5-0.4-0.9c0-0.5,0.2-0.8,0.7-1.1
		c0.5-0.3,0.9-0.4,1.4-0.4c0.7,0,1.5,0.2,2.2,0.6c0.8,0.4,1.5,0.9,2.2,1.4c0.7,0.5,1.3,1.1,1.9,1.7
		C-806,415.1-805.6,415.7-805.3,416.1z"/>
	<path id="XMLID_455_" fill="#FFFFFF" d="M-791.1,443.2c-0.5-0.2-0.8-0.4-0.9-0.6c-0.2,0.1-0.5,0.3-0.9,0.4
		c-0.3,0.1-0.8,0.2-1.3,0.2c-0.6,0-1.2-0.1-1.6-0.3c-0.4-0.2-0.8-0.5-1.1-0.8c-0.3-0.3-0.5-0.6-0.7-1c-0.2-0.3-0.3-0.6-0.4-0.9
		l-0.1-0.4c-0.1-0.4-0.1-1-0.1-1.7c0-0.7,0-1.5,0-2.4c0-1.3,0-2.4,0-3.3c0-1,0-1.8-0.1-2.5c0-0.8,0-0.9,0-1.5c0-0.5,0-1,0.1-1.5
		c0.1-0.5,0.1-1,0.1-1.4c0-0.6-0.1-1.2-0.2-1.7c-0.1-0.5-0.2-1.1-0.2-1.7c0-0.3,0.1-0.7,0.3-1c0.2-0.3,0.7-0.5,1.4-0.5
		c0.6,0,1,0.1,1.2,0.4c0.2,0.3,0.3,0.6,0.3,1.1v0.4c0,0.1,0,0.1,0,0.2s0,0.2,0,0.2c0,0.2,0,0.6,0,1.1c0,0.6,0,1.3,0,2
		c0,0.8,0,1.6,0,2.5c0,0.9,0,1.2,0,2c0,0.8,0,1.5,0,2.2s0,1.1,0,1.4v0.3c0,0.1,0,0.3,0,0.6c0,0.3,0,0.6,0,0.9c0,0.4,0,0.9,0,1.5
		c0,0.5,0.1,1,0.2,1.5c0.1,0.4,0.2,0.8,0.4,1.2c0.2,0.3,0.4,0.5,0.7,0.5c0.7-0.1,1.2-0.3,1.5-0.4s0.5-0.5,0.5-1.1c0-0.3,0-0.8,0-1.4
		s0.1-1.3,0.1-1.9c0-0.6,0.1-1.2,0.1-1.8c0-0.5,0-0.9,0-1c0-1,0-1.8,0-2.6c0-0.8,0-1,0-1.7V426c0-2,0.1-3.4,0.3-4.1
		c0.2-0.8,0.7-1.2,1.5-1.2c0.1,0,0.2,0,0.4,0c0.2,0,0.3,0.1,0.5,0.1c0.2,0.1,0.3,0.2,0.4,0.4c0.1,0.2,0.2,0.4,0.2,0.8
		c0,0.4,0,1.2-0.1,2.3c0,1.1-0.1,2.2-0.2,3.4c-0.1,1.2-0.1,1.8-0.2,2.9c0,1.1-0.1,1.9-0.1,2.4c0,0.1,0,0.2,0,0.2c0,0.1,0,0.1,0,0.2
		s0,0.3,0,0.4c0,0.2,0,0.5,0,0.9c0,0.8,0,1.6,0,2.6c0,0.9,0,1.7,0,2.2c0,0.3,0,0.6,0.1,0.9c0.1,0.3,0.1,0.6,0.1,1
		c0,0.6-0.1,1.1-0.4,1.5c-0.2,0.4-0.6,0.6-1.2,0.6c-0.1,0-0.2,0-0.3,0C-791,443.3-791.1,443.3-791.1,443.2l0.4,0.1l0,0l0,0
		L-791.1,443.2z"/>
	<path id="XMLID_453_" fill="#FFFFFF" d="M-789.5,418.4c0-0.5,0.3-0.9,0.8-1.1c0.5-0.2,1.1-0.3,1.8-0.3c0.3,0,0.5,0,0.7,0
		s0.4,0,0.5,0v-1.2c0-0.5,0-1-0.1-1.6c-0.1-0.6-0.1-1.1-0.1-1.7c0-0.5,0.1-0.9,0.4-1.2c0.3-0.3,0.7-0.5,1.4-0.5
		c0.7,0.1,1,0.3,1.2,0.4c0.1,0.2,0.2,0.5,0.2,1c0,0.4,0,0.7-0.1,1c0,0.3-0.1,0.6-0.1,0.8c0,0.1,0.1,0.6,0.1,1.3
		c0,0.7,0.1,1.1,0.2,1.9c0.1,0,0.1,0,0.2,0s0.2,0,0.3,0c0.4,0,0.7,0,1.1,0.1c0.4,0,0.6,0.1,0.8,0.1c0.1,0,0.2,0,0.3-0.1
		s0.4-0.1,0.9-0.1c0.6,0,1,0.1,1.1,0.3c0.1,0.2,0.2,0.6,0.2,1c0,0.6-0.2,1-0.5,1.1c-0.3,0.2-0.7,0.2-1.2,0.2h-1c-0.1,0-0.1,0-0.2,0
		c-0.1,0-0.2,0-0.2,0c-0.3,0-0.5,0-0.8,0s-0.6,0-0.8-0.1c0,1.4,0,5.2,0,6.5c0,1.3-0.1,2.5-0.1,3.6s-0.1,2-0.1,2.8c0,0.8,0,1.3,0,1.6
		v1.3c0,0.4,0,0.8,0,1.3s0,1.2,0,2.1c0,0.4,0.1,0.6,0.3,0.8c0.2,0.2,0.4,0.3,0.7,0.4c0.3,0.1,0.6,0.1,0.9,0.2c0.3,0,1.1-0.1,1.2-0.1
		c0.1,0,0.2,0,0.4,0s0.4,0.1,0.6,0.2s0.3,0.3,0.4,0.4c0.1,0.2,0.2,0.3,0.2,0.5c0.1,0.1,0.1,0.3,0.1,0.3c0,0.3-0.1,0.5-0.3,0.7
		c-0.2,0.2-0.4,0.4-0.6,0.5c-0.3,0.1-0.5,0.2-0.8,0.3c-0.3,0.1-0.5,0.1-0.8,0.1c-1.1,0-2.1-0.2-2.8-0.5c-0.7-0.3-1.3-0.7-1.7-1.2
		c-0.4-0.5-0.6-1.1-0.8-1.7c-0.1-0.6-0.2-1.3-0.2-2c0-0.5,0-0.9,0.1-1.3c0-0.4,0.1-0.7,0.1-1.1c0-0.2,0-0.5-0.1-0.9
		c0-0.4-0.1-0.8-0.1-1.1c0-1.4,0-2.8,0.1-4.1c0-1.3,0.1-2.4,0.2-3.4c0.1-1,0.1-1.8,0.2-2.5c0-0.7,0.1-3.5,0.1-3.7
		c-0.1-0.1-0.4-0.2-0.6-0.2c-0.3,0-0.6,0-0.8,0c-0.2,0-0.5,0-0.8,0c-0.5,0-0.9-0.1-1.3-0.3C-789.1,419.4-789.4,419-789.5,418.4z"/>
	<path id="XMLID_451_" fill="#FFFFFF" d="M-770.4,425.3c0,0.7-0.1,1.2-0.2,1.5c-0.1,0.3-0.6,0.5-1.2,0.5c-0.8,0-1.2-0.3-1.4-0.8
		c-0.2-0.5-0.2-1.3-0.2-2.5c0-0.6-0.2-0.9-0.6-1.1c-0.4-0.2-0.8-0.3-1.2-0.4c-0.3,0-0.5,0.2-0.6,0.5c-0.2,0.3-0.3,0.7-0.4,1.2
		c-0.1,0.4-0.1,0.9-0.2,1.5c0,0.5,0,1,0,1.5c0,0.4,0.2,1,0.7,1.7s1,1.4,1.7,2.1c0.6,0.7,1.3,1.5,1.9,2.2c0.6,0.7,1.1,1.4,1.4,2
		c0.5,1,0.7,2,0.7,3.1c0,0.5-0.1,1.1-0.2,1.7c-0.2,0.6-0.4,1.1-0.9,1.6c-0.4,0.5-0.9,0.9-1.6,1.2s-1.6,0.5-2.6,0.5
		c-0.8,0-1.5-0.2-2-0.7c-0.5-0.4-0.9-1-1.2-1.5c-0.3-0.6-0.5-1.1-0.6-1.7c-0.1-0.5-0.2-0.9-0.2-1s0-0.3,0-0.4c0-0.2,0.1-0.3,0.2-0.5
		c0.1-0.1,0.2-0.3,0.4-0.4c0.2-0.1,0.4-0.2,0.8-0.2c0.5,0,0.9,0.2,1.1,0.6c0.3,0.4,0.5,0.9,0.6,1.4c0.2,0.5,0.4,1,0.6,1.4
		c0.2,0.4,0.5,0.6,0.9,0.6c0.3,0,0.5-0.1,0.8-0.2c0.2-0.1,0.5-0.4,0.7-0.6c0.2-0.3,0.4-0.5,0.5-0.8c0.1-0.3,0.2-0.6,0.2-0.8
		c0-0.4-0.1-0.8-0.3-1.3s-0.5-1-0.8-1.5c-0.3-0.5-0.7-1-1.1-1.6c-0.4-0.5-0.8-1.1-1.3-1.6l0,0c-0.8-1-1.5-1.9-2.2-2.8s-1-1.9-1-3.1
		c0-0.9,0.1-1.8,0.3-2.6c0.2-0.8,0.4-1.5,0.8-2.2c0.3-0.6,0.8-1.1,1.3-1.5s1.1-0.5,1.8-0.5c1.1,0,1.9,0.2,2.6,0.5
		c0.7,0.3,1.2,0.8,1.5,1.3c0.3,0.5,0.6,1.1,0.7,1.7C-770.5,424.1-770.4,424.7-770.4,425.3z"/>
	<path id="XMLID_448_" fill="#FFFFFF" d="M-770.2,419.5c-0.1-0.1-0.1-0.3-0.2-0.4c0-0.1,0-0.3,0-0.4c0-0.5,0.1-0.8,0.3-0.9
		c0.2-0.1,0.5-0.2,0.8-0.2s0.6,0,1,0.1c0.3,0.1,0.7,0.2,1,0.2c0-0.7,0-1.5,0.1-2.3c0.1-0.8,0.1-1.6,0.1-2.4c0-0.2,0-0.5,0-0.7
		c0-0.2,0-0.4,0-0.7c0-0.5,0.2-0.8,0.5-1c0.3-0.2,0.6-0.3,0.9-0.3c0.3,0,0.7,0,1.2,0.1c0.5,0,1,0.2,1.4,0.4c0.4,0.2,0.8,0.5,1.2,0.9
		c0.3,0.4,0.5,1,0.5,1.7c0,0.3-0.1,0.7-0.3,1.4c-0.2,0.7-0.4,1.4-0.7,2.2c-0.3,0.8-0.7,1.5-1.2,2.2c-0.5,0.7-1,1.2-1.5,1.5
		c0.3-0.1,0.6-0.1,1.1-0.2s1.1-0.1,1.7-0.1c1.3,0,2.3,0.3,3,0.9c0.7,0.6,1,1.3,1,2.2v0.2c0,0.1,0.1,0.3,0.1,0.5c0,0.2,0,0.4,0,0.5
		c0,0.3,0,0.7,0,1.1c0,0.4,0,0.9-0.1,1.3c0,0.4-0.1,0.9-0.1,1.3c0,0.4,0,0.2,0,0.4c0,0.4,0,0.6,0,0.8c0,0.1,0,0.4,0,0.9
		c0,0.4,0,1,0,1.7s0,0.5,0,1.2c0,0.7,0,1.5,0,2.3s0.1,1.6,0.1,2.4c0,0.8,0.1,1.5,0.2,2.1s0.2,1.1,0.4,1.4c0,0.3-0.1,0.5-0.2,0.7
		c-0.1,0.2-0.2,0.3-0.4,0.5c-0.2,0.1-0.5,0.2-0.8,0.2c-0.5,0-1-0.3-1.3-0.8c-0.3-0.5-0.5-1.3-0.7-2.2c-0.2-0.9-0.2-2.1-0.3-3.4
		c0-1.3,0-2.7,0-4.2c0-1.6,0-2.2,0-3.6c0-1.4,0-2,0-3v-0.5c0-0.2,0-0.5,0-0.8c0-0.3,0-0.5,0-0.8c0-0.2-0.1-0.4-0.2-0.5
		c-0.1-0.1-0.5-0.2-1-0.2c-0.8,0-1.3,0-1.5,0.1c-0.2,0.1-0.3,0.2-0.3,0.3c0,0.1,0,0.3,0,0.5c0,0.2,0,0.4,0,0.5c0,0.2,0,0.5,0,0.8
		s-0.1,0.7-0.1,1s-0.1,0.6-0.1,0.9c0,0.3,0,0.4,0,0.4v1.6c0,2.6-0.1,3.7-0.2,5.4c-0.1,1.7-0.2,3.2-0.2,4.4v2.6
		c0,0.3-0.1,0.5-0.3,0.6c-0.2,0.2-0.4,0.3-0.6,0.4c-0.2,0.1-0.4,0.1-0.6,0.2c-0.2,0-0.3,0-0.4,0c-0.3,0-0.6-0.1-0.9-0.3
		c-0.3-0.2-0.4-0.7-0.4-1.4c0-0.6,0-1.5,0.1-2.8c0.1-1.3,0.1-2.5,0.2-3.9c0.1-1.3,0.1-1.5,0.2-2.6c0.1-1.1,0.1-1.9,0.1-2.3
		c0-0.1,0-0.3,0-0.5c0-0.2,0,0,0-0.5c0-0.7,0-1.5,0-2.4c0-0.8,0-1.5,0-2c0-0.2,0-0.6,0-1c0-0.5,0-1,0-1.7v-1.6
		c-0.7-0.1-1.3-0.1-1.7-0.2C-769.7,420.1-770,419.9-770.2,419.5z M-764.8,413c0,0.4,0,1,0,1.7c0,0.7,0,1.5,0.1,2.4
		c0.1-0.3,0.2-0.7,0.4-1.2c0.1-0.5,0.2-0.9,0.2-1.2c0-0.2,0-0.5-0.1-0.9C-764.3,413.3-764.5,413.1-764.8,413z"/>
	<path id="XMLID_445_" fill="#FFFFFF" d="M-746.9,438.8c0,0.6-0.1,1.2-0.2,1.7c-0.1,0.5-0.3,1-0.7,1.4c-0.3,0.4-0.8,0.7-1.4,1
		c-0.6,0.2-1.5,0.4-2.5,0.4c-0.9,0-1.6-0.2-2.1-0.6c-0.5-0.4-1-0.9-1.2-1.5c-0.3-0.6-0.5-1.4-0.6-2.2c-0.1-0.9-0.1-1.8-0.1-2.7
		c0-0.8,0-1,0-1.6s0-1.1,0-1.5s0-0.8,0-1.1c0-0.3,0-0.7,0-1.1c0-0.2,0-0.5,0-1s0-1,0.1-1.6c0-0.6,0.1-1.1,0.1-1.6s0-0.9,0-1.1
		c0-0.4,0-1,0.1-1.5c0-0.6,0.2-1.1,0.4-1.6c0.2-0.5,0.6-1,1.1-1.3c0.5-0.4,1.2-0.5,2.1-0.5c0.9,0,1.8,0.2,2.5,0.7
		c0.8,0.5,1.4,1,1.7,1.5l0.2,0.3c0,0.1,0.1,0.2,0.2,0.4c0.1,0.2,0.2,0.5,0.3,0.9c0.1,0.4,0.2,0.9,0.2,1.5c0.1,0.6,0.1,1.4,0.1,2.4
		c0,2-0.4,3.6-1.2,4.8c-0.8,1.2-2,1.7-3.4,1.7c-0.5,0-1,0-1.5-0.1c0,0.4,0,0.7,0,1.1c0,0.3,0,0.1,0,0.4c0,0.4,0,0.9,0,1.5
		c0,0.5,0.1,1,0.2,1.5c0.1,0.5,0.3,0.9,0.4,1.2c0.2,0.3,0.5,0.5,0.8,0.5c0.1,0,0.3,0,0.5,0s0.4-0.1,0.6-0.1c0.2-0.1,0.4-0.2,0.5-0.3
		c0.1-0.2,0.2-0.4,0.2-0.6c0-0.9,0.1-1.5,0.4-1.9c0.2-0.4,0.7-0.6,1.4-0.6c0.3,0,0.6,0.1,0.9,0.4
		C-747,437.7-746.9,438.1-746.9,438.8z M-752.8,427.4c0,0.9,0,1.7,0,2.4c0,0.7,0,1.4-0.1,2v0.2c0.2,0.1,0.5,0.1,0.9,0.1
		c0.3,0,0.6,0,0.7,0c0.1,0,0.3-0.1,0.4-0.2c0.2-0.1,0.4-0.3,0.5-0.6c0.2-0.3,0.3-0.6,0.4-1.1c0.1-0.5,0.2-1.1,0.2-1.8
		c0-1-0.1-1.9-0.2-2.6c-0.1-0.7-0.3-1.2-0.5-1.6c-0.2-0.4-0.4-0.7-0.7-0.8c-0.3-0.2-0.6-0.2-0.9-0.2c-0.2,0-0.4,0.1-0.6,0.2
		s-0.3,0.4-0.3,0.9c0,0.3,0,0.7,0.1,1.2C-752.9,426.1-752.8,426.7-752.8,427.4z"/>
	<path id="XMLID_443_" fill="#FFFFFF" d="M-738.1,441.9c-0.1,0.5-0.3,0.9-0.6,1.1c-0.4,0.2-0.8,0.3-1.2,0.3c-1,0-1.9-0.1-2.5-0.2
		c-0.6-0.2-1.1-0.5-1.4-1.1c-0.3-0.6-0.5-1.5-0.6-2.6c-0.1-1.2-0.1-2.7-0.1-4.7c0-1.5,0-2.4,0-3.8c0-1.5,0.1-2.3,0.1-3.5
		c0-1.3,0-2.3,0.1-3.3c0-0.9,0-1.6,0-1.9c0-0.3,0-0.7,0-1.2s0-1,0-1.6c0-0.6,0-0.3,0-0.9c0-0.6,0-1.2,0-1.8c0-0.5,0-1-0.1-1.5
		c-0.1-0.5-0.1-0.9-0.1-1.4c0-0.4,0.1-0.7,0.2-1c0.2-0.3,0.6-0.4,1.3-0.4c0.6,0.1,1,0.3,1.2,0.4c0.2,0.1,0.3,0.5,0.3,1
		c0,0.1,0,0.4,0,0.7s0,0.7,0,1.3c0,0.5,0,0.9,0,1.1c0,0.3,0.1,0.6,0.1,0.9c0,0.4,0.1,0.9,0.1,1.5c0,0.7,0.1,0.7,0.1,2
		c0,0.5-0.1,1-0.2,1.4c-0.1,0.4-0.1,0.8-0.1,1.2v1.3c0,0.4,0.1,0.9,0.1,1.4s0,1,0,1.5v2.2c0,1.4-0.1,1.6-0.2,2.8
		c-0.1,1.2-0.2,2.2-0.2,2.8c0,0.4,0,0.8,0,1.3s0.1,0.9,0.1,1.3c0,0.4,0.1,0.8,0.2,1.1c0.1,0.3,0.2,0.5,0.3,0.6
		c0.1,0.1,0.2,0.1,0.5,0.2c0.3,0,0.6,0.1,0.9,0.1c0.6,0.1,1,0.2,1.2,0.5C-738.3,441-738.2,441.4-738.1,441.9z"/>
	<path id="XMLID_441_" fill="#FFFFFF" d="M-730.6,441.9c-0.1,0.5-0.3,0.9-0.6,1.1c-0.4,0.2-0.8,0.3-1.2,0.3c-1,0-1.9-0.1-2.5-0.2
		c-0.6-0.2-1.1-0.5-1.4-1.1c-0.3-0.6-0.5-1.5-0.6-2.6c-0.1-1.2-0.1-2.7-0.1-4.7c0-1.5,0-2.4,0-3.8c0-1.5,0.1-2.3,0.1-3.5
		c0-1.3,0-2.3,0.1-3.3c0-0.9,0-1.6,0-1.9c0-0.3,0-0.7,0-1.2s0-1,0-1.6c0-0.6,0-0.3,0-0.9c0-0.6,0-1.2,0-1.8c0-0.5,0-1-0.1-1.5
		c-0.1-0.5-0.1-0.9-0.1-1.4c0-0.4,0.1-0.7,0.2-1c0.2-0.3,0.6-0.4,1.3-0.4c0.6,0.1,1,0.3,1.2,0.4c0.2,0.1,0.3,0.5,0.3,1
		c0,0.1,0,0.4,0,0.7s0,0.7,0,1.3c0,0.5,0,0.9,0,1.1c0,0.3,0.1,0.6,0.1,0.9c0,0.4,0.1,0.9,0.1,1.5c0,0.7,0.1,0.7,0.1,2
		c0,0.5-0.1,1-0.2,1.4c-0.1,0.4-0.1,0.8-0.1,1.2v1.3c0,0.4,0.1,0.9,0.1,1.4s0,1,0,1.5v2.2c0,1.4-0.1,1.6-0.2,2.8
		c-0.1,1.2-0.2,2.2-0.2,2.8c0,0.4,0,0.8,0,1.3s0.1,0.9,0.1,1.3c0,0.4,0.1,0.8,0.2,1.1c0.1,0.3,0.2,0.5,0.3,0.6
		c0.1,0.1,0.2,0.1,0.5,0.2c0.3,0,0.6,0.1,0.9,0.1c0.6,0.1,1,0.2,1.2,0.5C-730.8,441-730.7,441.4-730.6,441.9z"/>
</g>
<g id="XMLID_429_">
	<g id="XMLID_431_">
		<path id="XMLID_438_" fill="#FFFFFF" d="M-835.2,426.1c0,0.1,0.1,0.2,0.1,0.5c0.1,0.3,0.1,0.5,0.2,0.8c0.1,0.3,0.1,0.5,0.1,0.7
			c0,0.2,0,0.3,0.1,0.4c0,0.1,0,0.2,0,0.2v0.1l0.2,1c0.1,0.6,0.3,1.2,0.3,1.7c0.1,0.5,0.1,0.9,0.2,1.3c0.1,0.6,0.2,1.1,0.3,1.5
			c0.1,0.4,0.1,0.6,0.1,0.8c0,0.2,0,0.3,0,0.4s0,0.1-0.1,0.2c-0.2,0.2-0.3,0.3-0.3,0.3s-0.1,0.1-0.3,0.1c-0.1,0-0.3,0-0.4-0.1
			s-0.2-0.3-0.3-0.6c-0.1-0.3-0.1-0.6-0.2-1.1s-0.2-1-0.2-1.5c-0.1-0.5-0.2-1-0.2-1.5c-0.1-0.5-0.1-0.8-0.2-1l0,0l0,0l0,0l0,0l0,0
			c0,0,0-0.1-0.1-0.1c0,0,0-0.1-0.1-0.3c0-0.1-0.1-0.3-0.1-0.6c-0.1-0.3-0.2-0.7-0.3-1.2c-0.1-0.2-0.1-0.5-0.2-0.7
			c0-0.2-0.1-0.5-0.1-0.7s0-0.4,0-0.5s0.1-0.2,0.1-0.2c0.2-0.1,0.4-0.1,0.6-0.1c0.1,0,0.3,0,0.3,0.1c0.1,0,0.1,0.1,0.2,0.2
			C-835.2,426-835.2,426.1-835.2,426.1z"/>
		<path id="XMLID_435_" fill="#FFFFFF" d="M-833.7,424.8c0.1,0,0.2,0,0.3,0.1c0.1,0,0.1,0.1,0.2,0.1c0.1-0.1,0.2-0.2,0.4-0.3
			c0.1-0.1,0.3-0.2,0.5-0.2c0.3-0.1,0.5-0.1,0.8,0c0.2,0.1,0.4,0.2,0.6,0.3c0.2,0.1,0.3,0.2,0.4,0.4c0.1,0.1,0.2,0.2,0.3,0.3
			l0.1,0.1c0.1,0.2,0.1,0.4,0.2,0.8c0.1,0.3,0.2,0.7,0.2,1.1c0.1,0.6,0.2,1,0.3,1.5c0.1,0.4,0.2,0.8,0.3,1.1
			c0.1,0.4,0.2,0.7,0.2,0.9s0.1,0.4,0.1,0.6s0,0.5,0.1,0.7c0.1,0.3,0.1,0.5,0.2,0.7s0.2,0.5,0.2,0.7c0,0.1,0,0.3,0,0.5
			c-0.1,0.2-0.3,0.3-0.6,0.3c-0.3,0.1-0.5,0-0.6-0.1s-0.2-0.2-0.2-0.4v-0.2v-0.1v-0.1c0-0.1-0.1-0.2-0.1-0.5
			c-0.1-0.2-0.1-0.5-0.2-0.9c-0.1-0.3-0.1-0.7-0.2-1.1c-0.1-0.4-0.2-0.8-0.2-1.1c-0.1-0.4-0.1-0.7-0.2-1c-0.1-0.3-0.1-0.5-0.1-0.7
			v-0.1c0-0.1,0-0.2,0-0.3c0-0.1,0-0.2-0.1-0.4c0-0.2-0.1-0.4-0.2-0.6c-0.1-0.2-0.1-0.4-0.2-0.6c-0.1-0.2-0.2-0.3-0.3-0.5
			c-0.1-0.1-0.2-0.2-0.4-0.2c-0.3,0.1-0.5,0.2-0.6,0.3c-0.1,0.1-0.1,0.3-0.1,0.5c0,0.1,0.1,0.4,0.1,0.6c0,0.3,0.1,0.6,0.1,0.9
			c0,0.3,0.1,0.6,0.1,0.8s0.1,0.4,0.1,0.4c0.1,0.4,0.2,0.8,0.3,1.2c0.1,0.4,0.2,0.7,0.2,1l0.3,1.2c0.2,0.9,0.3,1.5,0.3,1.9
			c0,0.4-0.2,0.6-0.5,0.7c0,0-0.1,0-0.2,0c-0.1,0-0.2,0-0.2,0c-0.1,0-0.2-0.1-0.2-0.1c-0.1-0.1-0.1-0.2-0.1-0.3
			c-0.1-0.3-0.1-0.7-0.2-1.2c-0.1-0.6-0.2-1.2-0.3-1.8c-0.1-0.7-0.3-1.3-0.4-2c-0.1-0.7-0.2-1.2-0.3-1.7c-0.1-0.5-0.2-0.8-0.3-1.1
			c-0.1-0.3-0.2-0.6-0.3-1c-0.1-0.3,0-0.5,0-0.7c0.1-0.2,0.2-0.3,0.5-0.4h0.1C-833.8,424.8-833.8,424.8-833.7,424.8h-0.2l0,0l0,0
			H-833.7z M-833.2,425.2L-833.2,425.2L-833.2,425.2L-833.2,425.2z"/>
		<path id="XMLID_432_" fill="#FFFFFF" d="M-826.5,425.7c-0.1-0.3-0.1-0.5-0.1-0.8s0-0.6,0.1-0.8c0.1-0.3,0.3-0.5,0.5-0.7
			c0.3-0.2,0.6-0.4,1.1-0.5c0.4-0.1,0.8-0.1,1,0c0.3,0.1,0.5,0.3,0.7,0.6s0.4,0.6,0.5,1c0.1,0.4,0.2,0.8,0.3,1.3
			c0.1,0.4,0.2,0.8,0.2,1.2c0.1,0.4,0.1,0.8,0.2,1.1c0.1,0.4,0.2,0.8,0.2,1.2c0.1,0.4,0.2,0.9,0.3,1.3l0.2,0.8
			c0,0.1,0.1,0.1,0.1,0.1c0.1,0,0.2-0.1,0.3-0.1c0.1-0.1,0.2-0.1,0.3-0.1c0.1,0,0.2,0,0.3,0c0.1,0,0.1,0.1,0.2,0.3
			c0,0.1,0,0.2,0,0.3s-0.1,0.2-0.1,0.4c-0.1,0.1-0.2,0.2-0.3,0.4c-0.1,0.1-0.3,0.2-0.6,0.2c-0.4,0.1-0.7,0-0.9-0.1
			c-0.1,0.1-0.2,0.2-0.4,0.3c-0.2,0.1-0.4,0.2-0.6,0.3c-0.2,0.1-0.5,0-0.6,0c-0.2-0.1-0.4-0.1-0.5-0.2c-0.1-0.1-0.2-0.2-0.3-0.3
			c-0.1-0.1-0.2-0.2-0.2-0.2l-0.1-0.1c-0.1-0.1-0.1-0.2-0.2-0.3c-0.1-0.2-0.2-0.4-0.2-0.7c-0.1-0.3-0.2-0.6-0.3-1
			c-0.2-0.9-0.2-1.6,0.1-2.2c0.3-0.6,0.7-1,1.4-1.1c0.1,0,0.2,0,0.3-0.1c0.1,0,0.2,0,0.3,0c0-0.2-0.1-0.3-0.1-0.5
			c0-0.1,0-0.3-0.1-0.4c0-0.2-0.1-0.4-0.2-0.6c-0.1-0.2-0.2-0.4-0.2-0.6c-0.1-0.2-0.2-0.3-0.3-0.5c-0.1-0.1-0.2-0.2-0.4-0.2
			c-0.2,0.1-0.4,0.2-0.5,0.3c-0.1,0.1-0.1,0.3-0.1,0.5c0,0.2,0,0.3,0,0.5c0,0.2,0.1,0.3,0.1,0.5c0,0.2,0,0.3-0.1,0.4
			c-0.1,0.1-0.2,0.2-0.4,0.2s-0.3,0-0.5-0.1C-826.3,426.2-826.4,426-826.5,425.7z M-822.8,430c-0.1-0.4-0.2-0.8-0.2-1.1
			c-0.1-0.3-0.1-0.6-0.2-0.9c-0.1,0-0.2,0-0.4,0c-0.1,0-0.2,0-0.3,0c0,0-0.1,0-0.1,0.1c-0.1,0-0.1,0.1-0.2,0.3
			c-0.1,0.1-0.1,0.3-0.1,0.5c0,0.2,0,0.5,0.1,0.9c0.1,0.5,0.2,0.9,0.3,1.1c0.1,0.3,0.2,0.5,0.4,0.7c0.1,0.1,0.3,0.2,0.4,0.3
			c0.1,0,0.3,0,0.4,0c0.1,0,0.1,0,0.2-0.1c0.1,0,0.1-0.1,0.2-0.1c-0.1-0.2-0.2-0.5-0.2-0.8C-822.6,430.6-822.7,430.3-822.8,430z"/>
	</g>
	<path id="XMLID_430_" fill="#FFFFFF" d="M-836.2,424.9c-0.3,0.1-0.6,0.1-0.8,0c-0.3-0.1-0.4-0.2-0.5-0.4c-0.1-0.3,0-0.7,0.2-1
		s0.4-0.5,0.7-0.6c0.2,0,0.3,0,0.4,0c0.1,0,0.2,0.1,0.3,0.2c0.1,0.1,0.1,0.2,0.2,0.3c0,0.1,0.1,0.2,0.1,0.3c0.1,0.3,0,0.5-0.1,0.8
		C-835.7,424.7-835.9,424.8-836.2,424.9z"/>
</g>
<g id="XMLID_59_">
	<path id="XMLID_425_" fill="#FFB8AC" d="M-838.9,421.1c2.1,0.9,5.1-0.4,6.9-1.1l0.2-0.1c3.3-1.3,7.7-3.1,11.1-2.3
		c0.9,0.2,2,1,2.2,1.8c0.1,0.2,0.1,0.5-0.3,0.8c-0.3,0.3-1.5,0.5-2.2,0.3c-0.2,0-0.5-0.3-0.7-0.5c0.3-0.1,0.6-0.4,0.5-0.8
		c0-0.4-0.4-0.7-0.8-0.7c-1.2,0.1-1.4,0.9-1.4,1.1c-0.1,1.1,1.3,2.1,2,2.3c0.3,0.1,0.7,0.1,1.1,0.1c0.9,0,2-0.2,2.6-0.8
		c0.6-0.7,0.9-1.5,0.6-2.3c-0.4-1.4-2-2.5-3.4-2.8c-3.9-0.9-8.6,1-12.1,2.4l-0.2,0.1c-1.5,0.6-4.3,1.7-5.8,1.1
		c-0.2-0.1-0.5-0.4-0.5-0.6c0-0.1,0-0.2,0.1-0.3c0.1-0.1,0.2-0.1,0.4-0.1c-0.1,0.2,0,0.5,0.1,0.7c0.3,0.3,0.8,0.4,1.1,0.1
		c0.6-0.5,0.6-1,0.6-1.3c-0.1-0.5-0.5-0.8-1.1-1c-0.7-0.2-1.7-0.1-2.2,0.6c-0.4,0.5-0.5,1.1-0.4,1.7
		C-840.1,420.1-839.6,420.8-838.9,421.1z"/>
	<path id="XMLID_422_" fill="#FFB8AC" d="M-816.8,438c-0.4-1.4-2-2.5-3.4-2.8c-3.9-0.9-8.6,1-12.1,2.4l-0.2,0.1
		c-1.5,0.6-4.3,1.7-5.8,1.1c-0.2-0.1-0.5-0.4-0.5-0.6c0-0.1,0-0.2,0.1-0.3c0.1-0.1,0.2-0.1,0.4-0.1c-0.1,0.2,0,0.5,0.1,0.7
		c0.3,0.3,0.8,0.4,1.1,0.1c0.6-0.5,0.6-1,0.6-1.3c-0.1-0.5-0.5-0.8-1.1-1c-0.7-0.2-1.7-0.1-2.2,0.6c-0.4,0.5-0.5,1.1-0.4,1.7
		c0.2,0.7,0.7,1.4,1.4,1.7c1.6,0.7,3.8,0.1,5.5-0.5c-0.1,0.5,0,1,0.1,1.5c0.2,0.7,0.9,1.1,1.7,1.2c0.1,0,0.3,0,0.5,0
		c0.8,0,1.8-0.3,2.3-1c0.4-0.5,0.4-1,0.2-1.6c-0.2-0.4-0.6-0.6-1-0.4c-0.4,0.2-0.6,0.6-0.4,1l0,0c0,0.1-0.4,0.4-1,0.4
		c-0.4,0-0.8,0-0.9-0.3c-0.1-0.3-0.1-0.7,0-1.1c0.2-0.3,0.4-0.6,0.8-0.8c3.2-1.3,7.2-2.8,10.4-2c0.9,0.2,2,1,2.2,1.8
		c0.1,0.2,0.1,0.5-0.2,0.8c-0.3,0.3-1.5,0.5-2.2,0.3c-0.2,0-0.5-0.3-0.7-0.5c0.3-0.1,0.6-0.4,0.5-0.8c0-0.4-0.4-0.7-0.8-0.7
		c-1.2,0.1-1.4,0.9-1.4,1.1c-0.1,1.1,1.3,2.1,2,2.3c0.3,0.1,0.7,0.1,1.1,0.1c0.9,0,2-0.2,2.6-0.8
		C-816.8,439.7-816.6,438.9-816.8,438z"/>
</g>
<g id="XMLID_68_">
	<path id="XMLID_69_" fill="#FAD0CC" d="M-804.3,528l-0.6,0.3l-3-2.9l1,4.1l-0.6,0.3l-3.6-3.3l0.5-0.3l3.1,3l-1.1-4.1l0.6-0.3l3,2.9
		l-1-4.1l0.5-0.3L-804.3,528z"/>
	<path id="XMLID_72_" fill="#FAD0CC" d="M-798.2,524.5l-0.6,0.3l-3-2.9l1,4.1l-0.6,0.3l-3.6-3.3l0.5-0.3l3.1,3l-1.1-4.1l0.6-0.3
		l3,2.9l-1-4.1l0.5-0.3L-798.2,524.5z"/>
	<path id="XMLID_74_" fill="#FAD0CC" d="M-792.1,521l-0.6,0.3l-3-2.9l1,4.1l-0.6,0.3l-3.6-3.3l0.5-0.3l3.1,3l-1.1-4.1l0.6-0.3l3,2.9
		l-1-4.1l0.5-0.3L-792.1,521z"/>
	<path id="XMLID_76_" fill="#FAD0CC" d="M-790.4,519.6c0.1,0.2,0.1,0.4-0.1,0.6c-0.2,0.1-0.5,0.1-0.6-0.2c-0.1-0.2-0.1-0.4,0.2-0.6
		C-790.7,519.4-790.5,519.4-790.4,519.6z"/>
	<path id="XMLID_80_" fill="#FAD0CC" d="M-784.2,513.3l1.4,2.4l-1.4,0.8l-1.2-2.1c-0.1-0.1-0.2-0.3-0.3-0.5
		c-0.3-0.4-0.6-0.5-0.9-0.3c-0.4,0.3-0.4,0.8,0,1.4l1.2,2.1l-1.4,0.8l-1.2-2.1c-0.1-0.1-0.2-0.3-0.3-0.5c-0.3-0.4-0.6-0.5-0.9-0.3
		c-0.4,0.3-0.4,0.8,0,1.4l1.2,2.1l-1.4,0.8l-2.3-4l1.4-0.8l0.4,0.6v-0.7c0.2-0.3,0.4-0.5,0.7-0.7c0.7-0.4,1.3-0.3,1.7,0l0.1-0.8
		c0.2-0.3,0.4-0.5,0.7-0.7c0.8-0.5,1.5-0.3,1.9,0.2C-784.5,512.7-784.4,512.9-784.2,513.3z"/>
	<path id="XMLID_84_" fill="#FAD0CC" d="M-779.1,511.2l-2.8,1.6c0.5,0.6,0.9,0.6,1.2,0.4c0.4-0.2,0.5-0.6,0.4-0.9l1.3-0.8
		c0.3,1-0.2,2-1.2,2.6c-1.2,0.7-2.5,0.5-3.3-0.9c-0.7-1.2-0.4-2.6,0.9-3.4c1.3-0.8,2.6-0.1,3.2,0.9
		C-779.3,511-779.2,511.1-779.1,511.2z M-782.4,512l1.4-0.8c-0.3-0.4-0.7-0.5-1.1-0.3C-782.4,511.1-782.6,511.5-782.4,512z"/>
	<path id="XMLID_87_" fill="#FAD0CC" d="M-779.1,506.8c0.2,0.4,0.1,0.8-0.3,1.1c-0.4,0.2-0.8,0.1-1.1-0.3c-0.2-0.4-0.1-0.8,0.3-1.1
		S-779.3,506.4-779.1,506.8z M-777.6,512.6l-2.3-4l1.4-0.8l2.3,4L-777.6,512.6z"/>
	<path id="XMLID_104_" fill="#FAD0CC" d="M-772.6,506.7l1.3,2.3l-1.4,0.8l-1.2-2c-0.1-0.1-0.2-0.3-0.3-0.5c-0.3-0.4-0.6-0.5-1-0.2
		c-0.4,0.2-0.5,0.8,0,1.7l1.1,1.9l-1.4,0.8l-2.3-4l1.4-0.8l0.4,0.6l0.1-0.7c0.2-0.3,0.4-0.5,0.8-0.8c0.8-0.5,1.5-0.4,2.1,0.3
		C-772.9,506.1-772.8,506.3-772.6,506.7z"/>
	<path id="XMLID_107_" fill="#FAD0CC" d="M-768.6,506.6l0.1,0.5c-0.2,0.3-0.5,0.6-0.8,0.8c-0.7,0.4-1.5,0.3-2-0.4
		c-0.5-0.9,0-1.9,1.4-2.6l0.3-0.1v-0.1c0-0.1-0.1-0.2-0.2-0.3c-0.1-0.2-0.4-0.3-0.7-0.1s-0.4,0.5-0.2,0.8l-1.3,0.7
		c-0.5-0.9,0-2,1-2.6c1.3-0.7,2-0.4,2.5,0.3c0.1,0.2,0.3,0.4,0.4,0.7l0.7,1.1c0.2,0.3,0.3,0.6,0.7,1l-1.3,0.8L-768.6,506.6z
		 M-769.1,505.8l-0.2-0.3c-0.6,0.3-1,0.7-0.8,1.1c0.1,0.2,0.4,0.3,0.7,0.1C-769.1,506.6-768.9,506.2-769.1,505.8z"/>
	<path id="XMLID_110_" fill="#FAD0CC" d="M-763.4,501.3l1.3,2.3l-1.4,0.8l-1.2-2c-0.1-0.1-0.2-0.3-0.3-0.5c-0.3-0.4-0.6-0.5-1-0.2
		c-0.4,0.2-0.5,0.8,0.1,1.7l1.1,1.9l-1.4,0.8l-2.3-4l1.4-0.8l0.4,0.6l0.1-0.7c0.2-0.3,0.4-0.5,0.8-0.8c0.8-0.5,1.5-0.4,2.1,0.3
		C-763.7,500.8-763.6,501-763.4,501.3z"/>
	<path id="XMLID_112_" fill="#FAD0CC" d="M-757.3,500.8l-1.4,0.8l-0.3-0.6v0.8c-0.2,0.3-0.4,0.5-0.8,0.8c-0.8,0.5-1.6,0.3-2-0.2
		c-0.1-0.2-0.3-0.4-0.5-0.7l-1.4-2.4l1.4-0.8l1.2,2c0.1,0.1,0.2,0.3,0.3,0.5c0.3,0.4,0.6,0.5,1,0.2c0.4-0.2,0.5-0.8,0.1-1.3
		l-1.3-2.3l1.4-0.8L-757.3,500.8z"/>
	<path id="XMLID_114_" fill="#FAD0CC" d="M-755.8,497.8c0.1,0.1,0.2,0.3,0.2,0.4c0.3,0.4,0.4,0.4,1.1,0l0.5,0.8
		c-0.2,0.2-0.5,0.4-0.8,0.5c-1,0.6-1.5,0.4-1.9-0.1c-0.2-0.2-0.3-0.4-0.4-0.6l-1-1.7l-0.6,0.4l-0.5-0.8l0.6-0.4l-0.6-1l1.4-0.8
		l0.6,1l0.9-0.5l0.5,0.8l-0.9,0.5L-755.8,497.8z"/>
	<path id="XMLID_240_" fill="#FAD0CC" d="M-751.7,493.8l-1.3,0.8c-0.2-0.2-0.4-0.3-0.7-0.2c-0.2,0.1-0.3,0.3-0.2,0.5
		c0.1,0.2,0.4,0.3,1.3,0c0.8-0.2,1.5-0.2,2,0.6c0.5,0.9-0.1,1.7-1.1,2.3c-1.1,0.6-2.1,0.6-2.7-0.2l1.3-0.8c0.3,0.3,0.6,0.3,0.9,0.2
		c0.2-0.1,0.4-0.3,0.3-0.6c-0.1-0.3-0.5-0.3-1.3,0c-0.9,0.3-1.5,0.2-1.9-0.5c-0.5-0.8-0.1-1.7,1-2.3
		C-753.1,492.9-752.2,493.1-751.7,493.8z"/>
	<path id="XMLID_304_" fill="#FAD0CC" d="M-746.6,491.7l1.3,2.3l-1.4,0.8l-1.2-2c-0.1-0.1-0.2-0.3-0.3-0.5c-0.3-0.4-0.6-0.5-1-0.2
		c-0.4,0.2-0.5,0.8,0,1.7l1.1,1.9l-1.4,0.8l-3.2-5.6l1.4-0.8l1.3,2.2l0.1-0.7c0.2-0.3,0.4-0.5,0.8-0.8c0.8-0.5,1.5-0.4,2.1,0.3
		C-746.9,491.1-746.8,491.3-746.6,491.7z"/>
	<path id="XMLID_306_" fill="#FAD0CC" d="M-741.6,489.6l-2.8,1.6c0.5,0.6,0.9,0.7,1.2,0.4c0.4-0.2,0.5-0.6,0.4-0.9l1.3-0.8
		c0.3,1-0.2,2-1.2,2.6c-1.2,0.7-2.5,0.5-3.3-0.9c-0.7-1.2-0.4-2.6,0.9-3.4s2.6-0.1,3.2,0.9C-741.7,489.3-741.6,489.4-741.6,489.6z
		 M-744.8,490.3l1.4-0.8c-0.4-0.4-0.7-0.5-1.1-0.3C-744.9,489.4-745,489.8-744.8,490.3z"/>
	<path id="XMLID_423_" fill="#FAD0CC" d="M-739.5,488.7c0.1,0.2,0.2,0.3,0.2,0.4c0.1,0.1,0.2,0.2,0.6-0.1l0.5,0.9
		c-0.2,0.2-0.5,0.3-0.8,0.5c-0.6,0.4-1.1,0.3-1.5-0.2c-0.1-0.2-0.3-0.4-0.4-0.7l-2.4-4.1l1.4-0.8L-739.5,488.7z"/>
	<path id="XMLID_426_" fill="#FAD0CC" d="M-737.2,487.3c0.1,0.2,0.2,0.3,0.2,0.4c0.1,0.1,0.2,0.2,0.6-0.1l0.5,0.9
		c-0.2,0.2-0.5,0.3-0.8,0.5c-0.6,0.4-1.1,0.3-1.5-0.2c-0.1-0.2-0.3-0.4-0.4-0.7l-2.4-4.1l1.4-0.8L-737.2,487.3z"/>
	<path id="XMLID_465_" fill="#FAD0CC" d="M-734.9,487.6c0.1,0.2,0.1,0.4-0.1,0.6c-0.2,0.1-0.4,0.1-0.6-0.2c-0.1-0.2-0.1-0.4,0.2-0.6
		C-735.3,487.3-735.1,487.4-734.9,487.6z"/>
	<path id="XMLID_467_" fill="#FAD0CC" d="M-732.7,483.1l-0.5,0.3c-0.5-0.6-1.1-0.7-1.8-0.4c-0.7,0.4-1,1.3-0.3,2.5
		c0.7,1.2,1.6,1.4,2.3,1c0.6-0.3,0.8-0.9,0.6-1.7l0.5-0.3c0.3,1-0.1,1.8-0.9,2.3c-1,0.6-2.2,0.3-3-1.1c-0.8-1.3-0.4-2.6,0.6-3.2
		C-734.3,482.1-733.3,482.3-732.7,483.1z"/>
	<path id="XMLID_469_" fill="#FAD0CC" d="M-728,481.3c0.7,1.2,0.5,2.5-0.7,3.2c-1.3,0.7-2.5,0.2-3.1-1c-0.7-1.2-0.5-2.5,0.7-3.2
		C-729.9,479.6-728.7,480.1-728,481.3z M-728.5,481.6c-0.6-1.1-1.6-1.4-2.4-0.9c-0.8,0.5-1.1,1.5-0.4,2.5c0.6,1.1,1.6,1.4,2.4,0.9
		C-728.1,483.7-727.9,482.7-728.5,481.6z"/>
	<path id="XMLID_472_" fill="#FAD0CC" d="M-722.4,477.6l1.4,2.4l-0.5,0.3l-1.2-2.1c-0.2-0.3-0.3-0.5-0.5-0.7
		c-0.4-0.5-0.8-0.6-1.4-0.3c-0.6,0.3-0.7,1-0.1,2.2l1.2,2.1l-0.5,0.3l-1.2-2.1c-0.2-0.3-0.3-0.5-0.5-0.7c-0.4-0.5-0.8-0.6-1.4-0.3
		c-0.6,0.3-0.7,1-0.1,2.2l1.2,2.1l-0.5,0.3l-2.3-4l0.5-0.3l0.4,0.7v-0.6c0.1-0.4,0.3-0.7,0.7-0.9c0.6-0.4,1.2-0.3,1.7,0.2v-0.7
		c0.1-0.4,0.3-0.7,0.7-0.9c0.7-0.4,1.4-0.2,1.8,0.4C-722.6,477.1-722.5,477.2-722.4,477.6z"/>
</g>
</svg>
