<?xml version="1.0" encoding="utf-8"?>
<!-- Generator: Adobe Illustrator 18.1.1, SVG Export Plug-In . SVG Version: 6.00 Build 0)  -->
<!DOCTYPE svg PUBLIC "-//W3C//DTD SVG 1.1//EN" "http://www.w3.org/Graphics/SVG/1.1/DTD/svg11.dtd">
<svg version="1.1" xmlns="http://www.w3.org/2000/svg" xmlns:xlink="http://www.w3.org/1999/xlink" x="0px" y="0px"
	 viewBox="0 0 144 144" enable-background="new 0 0 144 144" xml:space="preserve">
<g id="Background">
	<polygon fill="#7F141C" points="8.5,36.3 8.5,108 70.6,143.8 132.6,108 132.6,36.3 70.6,0.4 	"/>
</g>
<g id="Matz">
	<g>
		<rect x="83.7" y="63" fill="#FFFFFF" width="1.5" height="1.5"/>
		<rect x="62.8" y="63" fill="#FFFFFF" width="1.5" height="1.5"/>
		<g>
			<polygon fill="#BDA05E" points="85.2,74.9 86.7,74.9 86.7,73.4 85.2,73.4 85.2,71.9 83.7,71.9 83.7,70.4 82.2,70.4 80.7,70.4 
				80.7,71.9 82.2,71.9 82.2,73.4 83.7,73.4 83.7,74.9 			"/>
			<rect x="76.2" y="73.4" fill="#BDA05E" width="1.5" height="1.5"/>
			<polygon fill="#BDA05E" points="73.2,76.4 74.7,76.4 76.2,76.4 76.2,74.9 74.7,74.9 74.7,73.4 74.7,71.9 74.7,70.4 74.7,68.9 
				73.2,68.9 73.2,70.4 73.2,71.9 73.2,73.4 73.2,74.9 71.7,74.9 70.3,74.9 70.3,76.4 71.7,76.4 			"/>
			<polygon fill="#BDA05E" points="94.2,63 94.2,61.5 92.7,61.5 91.2,61.5 91.2,63 92.7,63 			"/>
			<polygon fill="#BDA05E" points="77.7,65.9 79.2,65.9 80.7,65.9 82.2,65.9 83.7,65.9 85.2,65.9 86.7,65.9 88.2,65.9 88.2,64.4 
				89.7,64.4 91.2,64.4 91.2,63 89.7,63 89.7,61.5 88.2,61.5 88.2,63 86.7,63 86.7,64.4 85.2,64.4 83.7,64.4 82.2,64.4 80.7,64.4 
				79.2,64.4 79.2,63 77.7,63 76.2,63 76.2,64.4 77.7,64.4 			"/>
			<polygon fill="#BDA05E" points="58.3,65.9 59.8,65.9 61.3,65.9 62.8,65.9 64.3,65.9 65.8,65.9 67.3,65.9 67.3,64.4 68.8,64.4 
				68.8,63 68.8,61.5 67.3,61.5 67.3,63 65.8,63 65.8,64.4 64.3,64.4 62.8,64.4 61.3,64.4 59.8,64.4 58.3,64.4 			"/>
			<polygon fill="#BDA05E" points="53.8,55.5 53.8,54 55.3,54 55.3,52.5 56.8,52.5 56.8,51 56.8,49.5 56.8,48 55.3,48 55.3,46.5 
				56.8,46.5 56.8,45 56.8,43.5 56.8,42 56.8,40.5 58.3,40.5 58.3,39 56.8,39 55.3,39 55.3,40.5 55.3,42 55.3,43.5 53.8,43.5 
				53.8,45 53.8,46.5 53.8,48 52.3,48 52.3,49.5 52.3,51 52.3,52.5 50.8,52.5 50.8,54 50.8,55.5 49.3,55.5 49.3,57 49.3,58.5 
				50.8,58.5 50.8,60 52.3,60 52.3,58.5 52.3,57 53.8,57 			"/>
			<polygon fill="#BDA05E" points="80.7,86.9 80.7,85.4 80.7,83.9 80.7,82.4 79.2,82.4 79.2,83.9 79.2,85.4 77.7,85.4 77.7,86.9 
				79.2,86.9 			"/>
			<rect x="79.2" y="74.9" fill="#BDA05E" width="1.5" height="1.5"/>
			<rect x="77.7" y="76.4" fill="#BDA05E" width="1.5" height="1.5"/>
			<polygon fill="#BDA05E" points="76.2,88.4 74.7,88.4 73.2,88.4 73.2,89.9 74.7,89.9 76.2,89.9 77.7,89.9 77.7,88.4 77.7,86.9 
				76.2,86.9 			"/>
			<polygon fill="#BDA05E" points="74.7,85.4 73.2,85.4 71.7,85.4 70.3,85.4 70.3,86.9 71.7,86.9 73.2,86.9 74.7,86.9 76.2,86.9 
				76.2,85.4 			"/>
			<polygon fill="#BDA05E" points="73.2,77.9 71.7,77.9 71.7,79.4 71.7,80.9 73.2,80.9 74.7,80.9 74.7,79.4 76.2,79.4 76.2,77.9 
				74.7,77.9 			"/>
			<rect x="80.7" y="92.9" fill="#BDA05E" width="1.5" height="1.5"/>
			<rect x="80.7" y="89.9" fill="#BDA05E" width="1.5" height="1.5"/>
			<rect x="79.2" y="94.4" fill="#BDA05E" width="1.5" height="1.5"/>
			<rect x="86.7" y="86.9" fill="#BDA05E" width="1.5" height="1.5"/>
			<polygon fill="#BDA05E" points="83.7,88.4 83.7,89.9 83.7,91.4 82.2,91.4 82.2,92.9 83.7,92.9 85.2,92.9 85.2,91.4 85.2,89.9 
				86.7,89.9 86.7,88.4 85.2,88.4 			"/>
			<polygon fill="#BDA05E" points="98.7,60 97.2,60 97.2,61.5 95.7,61.5 95.7,63 95.7,64.4 95.7,65.9 95.7,67.4 95.7,68.9 
				94.2,68.9 94.2,70.4 94.2,71.9 92.7,71.9 92.7,73.4 91.2,73.4 91.2,74.9 89.7,74.9 89.7,76.4 89.7,77.9 91.2,77.9 91.2,79.4 
				91.2,80.9 89.7,80.9 89.7,82.4 89.7,83.9 88.2,83.9 88.2,85.4 88.2,86.9 89.7,86.9 89.7,85.4 91.2,85.4 91.2,83.9 91.2,82.4 
				92.7,82.4 92.7,80.9 92.7,79.4 92.7,77.9 92.7,76.4 92.7,74.9 94.2,74.9 94.2,73.4 95.7,73.4 95.7,71.9 95.7,70.4 97.2,70.4 
				97.2,68.9 97.2,67.4 98.7,67.4 98.7,65.9 98.7,64.4 98.7,63 98.7,61.5 100.2,61.5 100.2,60 			"/>
			<polygon fill="#BDA05E" points="79.2,54 80.7,54 82.2,54 83.7,54 85.2,54 86.7,54 88.2,54 88.2,55.5 89.7,55.5 91.2,55.5 
				91.2,57 92.7,57 92.7,58.5 94.2,58.5 94.2,60 95.7,60 95.7,58.5 95.7,57 94.2,57 94.2,55.5 94.2,54 92.7,54 92.7,52.5 92.7,51 
				91.2,51 91.2,52.5 89.7,52.5 88.2,52.5 86.7,52.5 85.2,52.5 83.7,52.5 82.2,52.5 82.2,51 80.7,51 79.2,51 77.7,51 77.7,52.5 
				79.2,52.5 			"/>
			<polygon fill="#BDA05E" points="76.2,95.9 74.7,95.9 73.2,95.9 71.7,95.9 70.3,95.9 68.8,95.9 67.3,95.9 67.3,97.4 68.8,97.4 
				70.3,97.4 71.7,97.4 71.7,98.9 73.2,98.9 74.7,98.9 74.7,97.4 76.2,97.4 77.7,97.4 77.7,95.9 77.7,94.4 76.2,94.4 			"/>
			<polygon fill="#BDA05E" points="64.3,92.9 62.8,92.9 62.8,91.4 61.3,91.4 61.3,89.9 61.3,88.4 59.8,88.4 58.3,88.4 58.3,89.9 
				59.8,89.9 59.8,91.4 59.8,92.9 61.3,92.9 61.3,94.4 62.8,94.4 62.8,95.9 64.3,95.9 65.8,95.9 65.8,94.4 64.3,94.4 			"/>
			<rect x="65.8" y="92.9" fill="#BDA05E" width="1.5" height="1.5"/>
			<polygon fill="#BDA05E" points="64.3,92.9 65.8,92.9 65.8,91.4 65.8,89.9 64.3,89.9 64.3,88.4 62.8,88.4 62.8,89.9 62.8,91.4 
				64.3,91.4 			"/>
			<polygon fill="#BDA05E" points="55.3,76.4 55.3,77.9 56.8,77.9 56.8,76.4 56.8,74.9 56.8,73.4 55.3,73.4 55.3,74.9 			"/>
			<polygon fill="#BDA05E" points="58.3,85.4 56.8,85.4 56.8,83.9 56.8,82.4 55.3,82.4 53.8,82.4 53.8,83.9 55.3,83.9 55.3,85.4 
				55.3,86.9 56.8,86.9 56.8,88.4 58.3,88.4 58.3,86.9 			"/>
			<rect x="53.8" y="71.9" fill="#BDA05E" width="1.5" height="1.5"/>
			<rect x="50.8" y="70.4" fill="#BDA05E" width="1.5" height="1.5"/>
			<polygon fill="#BDA05E" points="47.8,68.9 47.8,70.4 47.8,71.9 47.8,73.4 47.8,74.9 47.8,76.4 49.3,76.4 49.3,74.9 49.3,73.4 
				49.3,71.9 49.3,70.4 49.3,68.9 49.3,67.4 47.8,67.4 			"/>
			<polygon fill="#BDA05E" points="47.8,64.4 46.3,64.4 46.3,65.9 46.3,67.4 47.8,67.4 47.8,65.9 			"/>
			<rect x="44.8" y="61.5" fill="#BDA05E" width="1.5" height="1.5"/>
		</g>
		<g>
			<polygon fill="#E1C878" points="92.7,58.5 92.7,57 91.2,57 91.2,55.5 89.7,55.5 88.2,55.5 88.2,54 86.7,54 85.2,54 83.7,54 
				82.2,54 80.7,54 79.2,54 79.2,52.5 77.7,52.5 76.2,52.5 74.7,52.5 73.2,52.5 71.7,52.5 70.3,52.5 70.3,51 68.8,51 67.3,51 
				65.8,51 65.8,49.5 64.3,49.5 64.3,48 62.8,48 62.8,46.5 61.3,46.5 61.3,45 59.8,45 59.8,43.5 59.8,42 58.3,42 58.3,40.5 
				56.8,40.5 56.8,42 56.8,43.5 56.8,45 56.8,46.5 55.3,46.5 55.3,48 56.8,48 56.8,49.5 56.8,51 56.8,52.5 55.3,52.5 55.3,54 
				53.8,54 53.8,55.5 53.8,57 52.3,57 52.3,58.5 52.3,60 53.8,60 53.8,58.5 55.3,58.5 55.3,57 56.8,57 58.3,57 59.8,57 61.3,57 
				62.8,57 64.3,57 65.8,57 67.3,57 67.3,58.5 68.8,58.5 68.8,60 68.8,61.5 70.3,61.5 71.7,61.5 73.2,61.5 74.7,61.5 76.2,61.5 
				76.2,60 76.2,58.5 77.7,58.5 77.7,57 79.2,57 80.7,57 82.2,57 83.7,57 85.2,57 86.7,57 88.2,57 89.7,57 89.7,58.5 91.2,58.5 
				91.2,60 92.7,60 94.2,60 94.2,58.5 			"/>
			<polygon fill="#E1C878" points="91.2,63 91.2,64.4 89.7,64.4 89.7,65.9 88.2,65.9 88.2,67.4 86.7,67.4 85.2,67.4 83.7,67.4 
				82.2,67.4 80.7,67.4 79.2,67.4 77.7,67.4 77.7,65.9 77.7,64.4 76.2,64.4 76.2,65.9 76.2,67.4 74.7,67.4 74.7,68.9 76.2,68.9 
				76.2,70.4 77.7,70.4 79.2,70.4 80.7,70.4 82.2,70.4 83.7,70.4 83.7,71.9 85.2,71.9 85.2,73.4 86.7,73.4 86.7,74.9 86.7,76.4 
				85.2,76.4 83.7,76.4 83.7,74.9 82.2,74.9 80.7,74.9 80.7,76.4 79.2,76.4 79.2,77.9 77.7,77.9 76.2,77.9 76.2,79.4 74.7,79.4 
				74.7,80.9 76.2,80.9 77.7,80.9 79.2,80.9 80.7,80.9 80.7,79.4 82.2,79.4 82.2,77.9 83.7,77.9 85.2,77.9 86.7,77.9 86.7,79.4 
				85.2,79.4 85.2,80.9 83.7,80.9 82.2,80.9 82.2,82.4 80.7,82.4 80.7,83.9 80.7,85.4 80.7,86.9 79.2,86.9 77.7,86.9 77.7,88.4 
				77.7,89.9 76.2,89.9 74.7,89.9 73.2,89.9 73.2,88.4 71.7,88.4 70.3,88.4 70.3,86.9 68.8,86.9 68.8,85.4 68.8,83.9 67.3,83.9 
				65.8,83.9 65.8,82.4 64.3,82.4 64.3,80.9 62.8,80.9 62.8,79.4 64.3,79.4 65.8,79.4 65.8,80.9 67.3,80.9 68.8,80.9 70.3,80.9 
				71.7,80.9 71.7,79.4 71.7,77.9 70.3,77.9 68.8,77.9 68.8,76.4 67.3,76.4 67.3,74.9 67.3,73.4 65.8,73.4 65.8,74.9 64.3,74.9 
				62.8,74.9 62.8,76.4 61.3,76.4 59.8,76.4 59.8,74.9 61.3,74.9 61.3,73.4 62.8,73.4 64.3,73.4 64.3,71.9 65.8,71.9 67.3,71.9 
				67.3,70.4 68.8,70.4 70.3,70.4 70.3,68.9 71.7,68.9 71.7,67.4 73.2,67.4 74.7,67.4 74.7,65.9 74.7,64.4 74.7,63 73.2,63 71.7,63 
				71.7,64.4 70.3,64.4 70.3,65.9 68.8,65.9 67.3,65.9 67.3,67.4 65.8,67.4 64.3,67.4 62.8,67.4 61.3,67.4 59.8,67.4 58.3,67.4 
				56.8,67.4 55.3,67.4 55.3,65.9 53.8,65.9 53.8,64.4 55.3,64.4 55.3,65.9 56.8,65.9 58.3,65.9 58.3,64.4 56.8,64.4 56.8,63 
				55.3,63 55.3,61.5 53.8,61.5 53.8,63 52.3,63 52.3,61.5 50.8,61.5 49.3,61.5 49.3,60 47.8,60 47.8,61.5 47.8,63 49.3,63 
				49.3,64.4 49.3,65.9 49.3,67.4 50.8,67.4 50.8,68.9 50.8,70.4 52.3,70.4 52.3,71.9 53.8,71.9 55.3,71.9 55.3,73.4 56.8,73.4 
				56.8,74.9 56.8,76.4 56.8,77.9 55.3,77.9 55.3,76.4 53.8,76.4 53.8,74.9 52.3,74.9 52.3,73.4 50.8,73.4 50.8,74.9 50.8,76.4 
				50.8,77.9 52.3,77.9 52.3,79.4 52.3,80.9 53.8,80.9 53.8,82.4 55.3,82.4 56.8,82.4 56.8,83.9 56.8,85.4 58.3,85.4 58.3,86.9 
				58.3,88.4 59.8,88.4 61.3,88.4 61.3,89.9 61.3,91.4 62.8,91.4 62.8,89.9 62.8,88.4 64.3,88.4 64.3,89.9 65.8,89.9 65.8,91.4 
				65.8,92.9 67.3,92.9 67.3,94.4 67.3,95.9 68.8,95.9 70.3,95.9 71.7,95.9 73.2,95.9 74.7,95.9 76.2,95.9 76.2,94.4 77.7,94.4 
				79.2,94.4 79.2,92.9 80.7,92.9 80.7,91.4 80.7,89.9 82.2,89.9 82.2,91.4 83.7,91.4 83.7,89.9 83.7,88.4 85.2,88.4 86.7,88.4 
				86.7,86.9 88.2,86.9 88.2,85.4 88.2,83.9 89.7,83.9 89.7,82.4 89.7,80.9 91.2,80.9 91.2,79.4 91.2,77.9 89.7,77.9 89.7,76.4 
				89.7,74.9 89.7,73.4 91.2,73.4 91.2,71.9 91.2,70.4 92.7,70.4 92.7,68.9 92.7,67.4 94.2,67.4 94.2,65.9 94.2,64.4 94.2,63 
				92.7,63 			"/>
			<rect x="79.2" y="73.4" fill="#E1C878" width="1.5" height="1.5"/>
			<rect x="77.7" y="71.9" fill="#E1C878" width="1.5" height="1.5"/>
			<polygon fill="#E1C878" points="77.7,63 79.2,63 79.2,61.5 80.7,61.5 82.2,61.5 83.7,61.5 85.2,61.5 85.2,60 86.7,60 86.7,61.5 
				88.2,61.5 88.2,60 88.2,58.5 86.7,58.5 85.2,58.5 83.7,58.5 82.2,58.5 80.7,58.5 79.2,58.5 79.2,60 77.7,60 77.7,61.5 76.2,61.5 
				76.2,63 			"/>
			<polygon fill="#E1C878" points="76.2,73.4 76.2,71.9 74.7,71.9 74.7,73.4 74.7,74.9 76.2,74.9 			"/>
			<polygon fill="#E1C878" points="71.7,71.9 70.3,71.9 70.3,73.4 68.8,73.4 68.8,74.9 70.3,74.9 71.7,74.9 73.2,74.9 73.2,73.4 
				73.2,71.9 73.2,70.4 73.2,68.9 71.7,68.9 71.7,70.4 			"/>
			<polygon fill="#E1C878" points="71.7,83.9 73.2,83.9 74.7,83.9 76.2,83.9 77.7,83.9 77.7,82.4 76.2,82.4 74.7,82.4 73.2,82.4 
				71.7,82.4 70.3,82.4 68.8,82.4 68.8,83.9 70.3,83.9 			"/>
			<rect x="67.3" y="71.9" fill="#E1C878" width="1.5" height="1.5"/>
			<polygon fill="#E1C878" points="58.3,61.5 59.8,61.5 61.3,61.5 62.8,61.5 64.3,61.5 64.3,63 65.8,63 67.3,63 67.3,61.5 67.3,60 
				65.8,60 65.8,58.5 64.3,58.5 62.8,58.5 61.3,58.5 59.8,58.5 58.3,58.5 56.8,58.5 56.8,60 58.3,60 			"/>
			<rect x="55.3" y="60" fill="#E1C878" width="1.5" height="1.5"/>
			<polygon fill="#E1C878" points="46.3,65.9 46.3,64.4 46.3,63 44.8,63 44.8,61.5 43.3,61.5 43.3,63 43.3,64.4 44.8,64.4 
				44.8,65.9 44.8,67.4 44.8,68.9 44.8,70.4 46.3,70.4 46.3,71.9 46.3,73.4 46.3,74.9 47.8,74.9 47.8,73.4 47.8,71.9 47.8,70.4 
				47.8,68.9 47.8,67.4 46.3,67.4 			"/>
		</g>
		<g>
			<path fill="#636464" d="M97.2,45v-1.5V42h-1.5v-1.5h-1.5V39v-1.5h-1.5V36v-1.5V33h-1.5v-1.5h-1.5h-1.5V30h-1.5v-1.5h-1.5V27h-1.5
				h-1.5v1.5h1.5V30v1.5h1.5V33h1.5v1.5h1.5V36h1.5h1.5v1.5h-1.5h-1.5h-1.5V36h-1.5v-1.5h-1.5V33h-1.5v-1.5V30h-1.5v-1.5h-1.5h-1.5
				V27h1.5v-1.5h-1.5h-1.5h-1.5h-1.5h-1.5h-1.5h-1.5h-1.5h-1.5h-1.5V27v1.5h1.5V30h-1.5v-1.5h-1.5h-1.5h-1.5V30h-1.5h-1.5h-1.5v1.5
				h-1.5V33h-1.5v1.5h-1.5h-1.5V36h-1.5v1.5V39h1.5v-1.5h1.5h1.5V39h-1.5h-1.5v1.5V42h-1.5h-1.5v-1.5h-1.5V42h-1.5v1.5h-1.5V45v1.5
				V48v1.5V51h1.5v1.5V54h1.5h1.5v-1.5h1.5h1.5V51v-1.5h1.5V48v-1.5V45h1.5v-1.5V42v-1.5h1.5V39v-1.5h1.5h1.5V36v-1.5h1.5V33v-1.5
				h1.5h1.5V33h-1.5v1.5V36h-1.5v1.5h1.5V39h1.5v1.5h1.5V42h1.5v1.5h-1.5V45h1.5v1.5h1.5V48h1.5h1.5h1.5h1.5v1.5h1.5h1.5h1.5h1.5
				h1.5V48h1.5h1.5v-1.5h1.5V45h1.5v1.5h-1.5V48v1.5h1.5h1.5h1.5h1.5V48h1.5v-1.5h1.5V48v1.5h1.5V51h1.5v1.5V54h1.5v1.5V57v1.5h1.5
				V57v-1.5V54v-1.5V51v-1.5V48v-1.5V45H97.2z M49.3,45h-1.5v1.5V48v1.5h-1.5V51h-1.5v-1.5V48v-1.5h1.5V45v-1.5h1.5h1.5V45z
				 M80.7,42v1.5V45h-1.5v1.5h-1.5h-1.5h-1.5h-1.5h-1.5V45h-1.5h-1.5v-1.5h-1.5V42v-1.5h-1.5V39v-1.5h-1.5V36v-1.5h-1.5V33h1.5h1.5
				v1.5h1.5V36v1.5V39h1.5v1.5h1.5V42h1.5v1.5h1.5V45h1.5h1.5v-1.5h1.5V42h1.5v-1.5h1.5V42z M91.2,45h-1.5h-1.5v-1.5h-1.5h-1.5V42
				h-1.5v-1.5h-1.5V39h-1.5v-1.5h-1.5V36h-1.5v-1.5h-1.5V33h-1.5h-1.5v-1.5h-1.5V30h-1.5h-1.5h-1.5v-1.5h1.5h1.5h1.5h1.5h1.5V30h1.5
				v1.5h1.5h1.5V33h1.5v1.5h1.5V36v1.5h1.5V39h1.5v1.5h1.5V42h1.5h1.5v1.5h1.5h1.5V42h1.5v1.5V45h-1.5H91.2z"/>
			<rect x="46.3" y="39" fill="#636464" width="1.5" height="1.5"/>
			<polygon fill="#636464" points="44.8,55.5 44.8,57 44.8,58.5 46.3,58.5 46.3,57 47.8,57 47.8,55.5 46.3,55.5 			"/>
		</g>
		<g>
			<rect x="89.7" y="73.4" width="1.5" height="1.5"/>
			<rect x="88.2" y="64.4" width="1.5" height="1.5"/>
			<polygon points="85.2,65.9 83.7,65.9 82.2,65.9 80.7,65.9 79.2,65.9 77.7,65.9 77.7,67.4 79.2,67.4 80.7,67.4 82.2,67.4 
				83.7,67.4 85.2,67.4 86.7,67.4 88.2,67.4 88.2,65.9 86.7,65.9 			"/>
			<polygon points="86.7,60 85.2,60 85.2,61.5 83.7,61.5 82.2,61.5 80.7,61.5 79.2,61.5 79.2,63 79.2,64.4 80.7,64.4 82.2,64.4 
				83.7,64.4 83.7,63 85.2,63 85.2,64.4 86.7,64.4 86.7,63 88.2,63 88.2,61.5 86.7,61.5 			"/>
			<polygon points="68.8,64.4 67.3,64.4 67.3,65.9 68.8,65.9 70.3,65.9 70.3,64.4 71.7,64.4 71.7,63 73.2,63 74.7,63 74.7,64.4 
				74.7,65.9 74.7,67.4 76.2,67.4 76.2,65.9 76.2,64.4 76.2,63 76.2,61.5 74.7,61.5 73.2,61.5 71.7,61.5 70.3,61.5 68.8,61.5 
				68.8,63 			"/>
			<rect x="64.3" y="63" width="1.5" height="1.5"/>
			<polygon points="64.3,65.9 62.8,65.9 61.3,65.9 59.8,65.9 58.3,65.9 56.8,65.9 55.3,65.9 55.3,67.4 56.8,67.4 58.3,67.4 
				59.8,67.4 61.3,67.4 62.8,67.4 64.3,67.4 65.8,67.4 67.3,67.4 67.3,65.9 65.8,65.9 			"/>
			<polygon points="56.8,63 56.8,64.4 58.3,64.4 59.8,64.4 61.3,64.4 62.8,64.4 62.8,63 64.3,63 64.3,61.5 62.8,61.5 61.3,61.5 
				59.8,61.5 58.3,61.5 58.3,60 56.8,60 56.8,61.5 55.3,61.5 55.3,63 			"/>
			<rect x="53.8" y="64.4" width="1.5" height="1.5"/>
			<polygon points="83.7,77.9 82.2,77.9 82.2,79.4 80.7,79.4 80.7,80.9 79.2,80.9 77.7,80.9 76.2,80.9 74.7,80.9 73.2,80.9 
				71.7,80.9 70.3,80.9 68.8,80.9 67.3,80.9 65.8,80.9 65.8,79.4 64.3,79.4 62.8,79.4 62.8,80.9 64.3,80.9 64.3,82.4 65.8,82.4 
				65.8,83.9 67.3,83.9 68.8,83.9 68.8,82.4 70.3,82.4 71.7,82.4 73.2,82.4 74.7,82.4 76.2,82.4 77.7,82.4 77.7,83.9 76.2,83.9 
				74.7,83.9 73.2,83.9 71.7,83.9 70.3,83.9 68.8,83.9 68.8,85.4 68.8,86.9 70.3,86.9 70.3,85.4 71.7,85.4 73.2,85.4 74.7,85.4 
				76.2,85.4 76.2,86.9 77.7,86.9 77.7,85.4 79.2,85.4 79.2,83.9 79.2,82.4 80.7,82.4 82.2,82.4 82.2,80.9 83.7,80.9 85.2,80.9 
				85.2,79.4 86.7,79.4 86.7,77.9 85.2,77.9 			"/>
			<polygon points="73.2,86.9 71.7,86.9 70.3,86.9 70.3,88.4 71.7,88.4 73.2,88.4 74.7,88.4 76.2,88.4 76.2,86.9 74.7,86.9 			"/>
			<polygon points="85.2,76.4 86.7,76.4 86.7,74.9 85.2,74.9 83.7,74.9 83.7,76.4 			"/>
			<polygon points="74.7,71.9 76.2,71.9 76.2,73.4 77.7,73.4 77.7,71.9 79.2,71.9 79.2,73.4 80.7,73.4 80.7,74.9 82.2,74.9 
				83.7,74.9 83.7,73.4 82.2,73.4 82.2,71.9 80.7,71.9 80.7,70.4 79.2,70.4 77.7,70.4 76.2,70.4 76.2,68.9 74.7,68.9 74.7,70.4 			
				"/>
			<polygon points="77.7,74.9 76.2,74.9 76.2,76.4 74.7,76.4 73.2,76.4 71.7,76.4 70.3,76.4 70.3,74.9 68.8,74.9 68.8,73.4 
				67.3,73.4 67.3,74.9 67.3,76.4 68.8,76.4 68.8,77.9 70.3,77.9 71.7,77.9 73.2,77.9 74.7,77.9 76.2,77.9 77.7,77.9 77.7,76.4 
				79.2,76.4 79.2,74.9 79.2,73.4 77.7,73.4 			"/>
			<polygon points="71.7,67.4 71.7,68.9 73.2,68.9 74.7,68.9 74.7,67.4 73.2,67.4 			"/>
			<polygon points="68.8,73.4 70.3,73.4 70.3,71.9 71.7,71.9 71.7,70.4 71.7,68.9 70.3,68.9 70.3,70.4 68.8,70.4 67.3,70.4 
				67.3,71.9 68.8,71.9 			"/>
			<polygon points="65.8,71.9 64.3,71.9 64.3,73.4 62.8,73.4 61.3,73.4 61.3,74.9 59.8,74.9 59.8,76.4 61.3,76.4 62.8,76.4 
				62.8,74.9 64.3,74.9 65.8,74.9 65.8,73.4 67.3,73.4 67.3,71.9 			"/>
			<polygon points="43.3,61.5 41.8,61.5 41.8,63 41.8,64.4 43.3,64.4 43.3,63 			"/>
			<rect x="64.3" y="92.9" width="1.5" height="1.5"/>
			<rect x="62.8" y="91.4" width="1.5" height="1.5"/>
			<polygon points="82.2,92.9 82.2,94.4 80.7,94.4 80.7,95.9 79.2,95.9 79.2,94.4 77.7,94.4 77.7,95.9 77.7,97.4 76.2,97.4 
				74.7,97.4 74.7,98.9 73.2,98.9 71.7,98.9 71.7,97.4 70.3,97.4 68.8,97.4 67.3,97.4 67.3,95.9 67.3,94.4 65.8,94.4 65.8,95.9 
				64.3,95.9 62.8,95.9 62.8,94.4 61.3,94.4 61.3,92.9 59.8,92.9 59.8,91.4 59.8,89.9 58.3,89.9 58.3,88.4 56.8,88.4 56.8,86.9 
				55.3,86.9 55.3,85.4 55.3,83.9 53.8,83.9 53.8,82.4 53.8,80.9 52.3,80.9 52.3,79.4 52.3,77.9 50.8,77.9 50.8,76.4 50.8,74.9 
				50.8,73.4 52.3,73.4 52.3,74.9 53.8,74.9 53.8,76.4 55.3,76.4 55.3,74.9 55.3,73.4 53.8,73.4 53.8,71.9 52.3,71.9 50.8,71.9 
				50.8,70.4 50.8,68.9 50.8,67.4 49.3,67.4 49.3,68.9 49.3,70.4 49.3,71.9 49.3,73.4 49.3,74.9 49.3,76.4 47.8,76.4 47.8,74.9 
				46.3,74.9 46.3,73.4 46.3,71.9 46.3,70.4 44.8,70.4 44.8,68.9 44.8,67.4 44.8,65.9 44.8,64.4 43.3,64.4 43.3,65.9 43.3,67.4 
				43.3,68.9 43.3,70.4 43.3,71.9 44.8,71.9 44.8,73.4 44.8,74.9 44.8,76.4 46.3,76.4 46.3,77.9 47.8,77.9 49.3,77.9 49.3,79.4 
				50.8,79.4 50.8,80.9 50.8,82.4 52.3,82.4 52.3,83.9 52.3,85.4 53.8,85.4 53.8,86.9 53.8,88.4 55.3,88.4 55.3,89.9 56.8,89.9 
				56.8,91.4 58.3,91.4 58.3,92.9 58.3,94.4 59.8,94.4 59.8,95.9 61.3,95.9 61.3,97.4 62.8,97.4 64.3,97.4 65.8,97.4 65.8,98.9 
				67.3,98.9 68.8,98.9 70.3,98.9 70.3,100.4 71.7,100.4 73.2,100.4 74.7,100.4 76.2,100.4 76.2,98.9 77.7,98.9 79.2,98.9 
				79.2,97.4 80.7,97.4 82.2,97.4 82.2,95.9 83.7,95.9 83.7,94.4 85.2,94.4 85.2,92.9 83.7,92.9 			"/>
			<rect x="80.7" y="91.4" width="1.5" height="1.5"/>
			<rect x="79.2" y="92.9" width="1.5" height="1.5"/>
			<rect x="100.2" y="60" width="1.5" height="1.5"/>
			<polygon points="98.7,63 98.7,64.4 98.7,65.9 98.7,67.4 97.2,67.4 97.2,68.9 97.2,70.4 95.7,70.4 95.7,71.9 95.7,73.4 94.2,73.4 
				94.2,74.9 92.7,74.9 92.7,76.4 92.7,77.9 92.7,79.4 92.7,80.9 92.7,82.4 91.2,82.4 91.2,83.9 91.2,85.4 89.7,85.4 89.7,86.9 
				88.2,86.9 88.2,88.4 86.7,88.4 86.7,89.9 85.2,89.9 85.2,91.4 85.2,92.9 86.7,92.9 86.7,91.4 88.2,91.4 88.2,89.9 89.7,89.9 
				89.7,88.4 91.2,88.4 91.2,86.9 92.7,86.9 92.7,85.4 92.7,83.9 94.2,83.9 94.2,82.4 94.2,80.9 94.2,79.4 94.2,77.9 94.2,76.4 
				95.7,76.4 95.7,74.9 97.2,74.9 97.2,73.4 97.2,71.9 98.7,71.9 98.7,70.4 98.7,68.9 100.2,68.9 100.2,67.4 100.2,65.9 100.2,64.4 
				100.2,63 100.2,61.5 98.7,61.5 			"/>
			<path d="M100.2,45v-1.5V42v-1.5h-1.5V39v-1.5h-1.5V36h-1.5v-1.5V33h-1.5v-1.5V30h-1.5v-1.5h-1.5h-1.5V27h-1.5v-1.5h-1.5V24h-1.5
				v-1.5h-1.5h-1.5h-1.5h-1.5h-1.5h-1.5h-1.5h-1.5h-1.5h-1.5h-1.5h-1.5h-1.5h-1.5V24h-1.5h-1.5v1.5h-1.5h-1.5V27h-1.5h-1.5v1.5h-1.5
				h-1.5V30h-1.5v1.5h-1.5V33h-1.5v1.5h-1.5V36v1.5h-1.5h-1.5V39v1.5h-1.5V42h-1.5v1.5V45v1.5V48v1.5V51v1.5h1.5V54v1.5V57h1.5v1.5
				V60v1.5h1.5h1.5V63v1.5h1.5v1.5v1.5h1.5v-1.5v-1.5V63h-1.5v-1.5V60h1.5v1.5h1.5h1.5V63h1.5v-1.5h1.5V60h1.5v-1.5h1.5h1.5h1.5h1.5
				h1.5h1.5V60h1.5v1.5h1.5V60v-1.5h-1.5V57h-1.5h-1.5h-1.5h-1.5h-1.5h-1.5h-1.5h-1.5v1.5h-1.5V60h-1.5h-1.5v-1.5h-1.5V57v-1.5h1.5
				V54v-1.5h1.5V51v-1.5V48h1.5v-1.5V45v-1.5h1.5V42v-1.5V39h1.5h1.5v1.5V42h1.5v1.5V45h1.5v1.5h1.5V48h1.5v1.5h1.5V51h1.5h1.5h1.5
				v1.5h1.5h1.5h1.5h1.5h1.5V51h1.5h1.5h1.5v1.5h1.5h1.5h1.5h1.5h1.5h1.5V51h1.5v1.5V54h1.5v1.5V57h1.5v1.5V60h-1.5h-1.5h-1.5v-1.5
				h-1.5V57h-1.5h-1.5h-1.5h-1.5h-1.5h-1.5h-1.5h-1.5v1.5h-1.5V60v1.5h1.5V60h1.5v-1.5h1.5h1.5h1.5h1.5h1.5h1.5V60v1.5h1.5V63h1.5
				v-1.5h1.5h1.5V63v1.5v1.5v1.5h-1.5v1.5v1.5h-1.5v1.5v1.5h1.5v-1.5h1.5v-1.5v-1.5h1.5v-1.5v-1.5v-1.5V63v-1.5h1.5V60h1.5h1.5v-1.5
				V57v-1.5h1.5V54v-1.5V51v-1.5V48v-1.5V45H100.2z M47.8,57h-1.5v1.5h-1.5V57v-1.5h1.5h1.5V57z M98.7,46.5V48v1.5V51v1.5V54v1.5V57
				v1.5h-1.5V57v-1.5V54h-1.5v-1.5V51h-1.5v-1.5h-1.5V48v-1.5h-1.5V48h-1.5v1.5h-1.5h-1.5h-1.5h-1.5V48v-1.5h-1.5V48h-1.5h-1.5v1.5
				h-1.5h-1.5h-1.5h-1.5h-1.5V48h-1.5h-1.5h-1.5h-1.5v-1.5h-1.5V45h-1.5v-1.5h1.5V42h-1.5v-1.5h-1.5V39h-1.5v-1.5h-1.5V36h1.5v-1.5
				V33h1.5v-1.5h-1.5h-1.5V33v1.5h-1.5V36v1.5h-1.5h-1.5V39v1.5h-1.5V42v1.5V45h-1.5v1.5V48v1.5h-1.5V51v1.5h-1.5h-1.5V54h-1.5h-1.5
				v-1.5V51h-1.5v-1.5V48v-1.5V45v-1.5h1.5V42h1.5v-1.5h1.5V39h1.5v-1.5V36h1.5v-1.5h1.5h1.5V33h1.5v-1.5h1.5V30h1.5h1.5h1.5v-1.5
				h1.5h1.5h1.5V27v-1.5h1.5h1.5h1.5h1.5h1.5h1.5h1.5h1.5h1.5h1.5V27h-1.5v1.5h1.5h1.5V30h1.5v1.5V33h1.5v1.5h1.5V36h1.5v1.5h1.5
				h1.5h1.5V36h-1.5h-1.5v-1.5h-1.5V33h-1.5v-1.5h-1.5V30v-1.5h-1.5V27h1.5h1.5v1.5h1.5V30h1.5v1.5h1.5h1.5V33h1.5v1.5V36v1.5h1.5
				V39v1.5h1.5V42h1.5v1.5V45h1.5V46.5z"/>
			<polygon points="92.7,43.5 91.2,43.5 89.7,43.5 89.7,42 88.2,42 86.7,42 86.7,40.5 85.2,40.5 85.2,39 83.7,39 83.7,37.5 
				82.2,37.5 82.2,36 82.2,34.5 80.7,34.5 80.7,33 79.2,33 79.2,31.5 77.7,31.5 76.2,31.5 76.2,30 74.7,30 74.7,28.5 73.2,28.5 
				71.7,28.5 70.3,28.5 68.8,28.5 67.3,28.5 67.3,30 68.8,30 70.3,30 71.7,30 71.7,31.5 73.2,31.5 73.2,33 74.7,33 76.2,33 
				76.2,34.5 77.7,34.5 77.7,36 79.2,36 79.2,37.5 80.7,37.5 80.7,39 82.2,39 82.2,40.5 83.7,40.5 83.7,42 85.2,42 85.2,43.5 
				86.7,43.5 88.2,43.5 88.2,45 89.7,45 91.2,45 92.7,45 94.2,45 94.2,43.5 94.2,42 92.7,42 			"/>
			<rect x="83.7" y="45" width="1.5" height="1.5"/>
			<polygon points="79.2,42 77.7,42 77.7,43.5 76.2,43.5 76.2,45 74.7,45 73.2,45 73.2,43.5 71.7,43.5 71.7,42 70.3,42 70.3,40.5 
				68.8,40.5 68.8,39 67.3,39 67.3,37.5 67.3,36 67.3,34.5 65.8,34.5 65.8,33 64.3,33 62.8,33 62.8,34.5 64.3,34.5 64.3,36 
				64.3,37.5 65.8,37.5 65.8,39 65.8,40.5 67.3,40.5 67.3,42 67.3,43.5 68.8,43.5 68.8,45 70.3,45 71.7,45 71.7,46.5 73.2,46.5 
				74.7,46.5 76.2,46.5 77.7,46.5 79.2,46.5 79.2,45 80.7,45 80.7,43.5 80.7,42 80.7,40.5 79.2,40.5 			"/>
			<rect x="64.3" y="28.5" width="1.5" height="1.5"/>
			<polygon points="52.3,39 52.3,37.5 50.8,37.5 49.3,37.5 49.3,39 50.8,39 			"/>
			<polygon points="46.3,43.5 46.3,45 46.3,46.5 44.8,46.5 44.8,48 44.8,49.5 44.8,51 46.3,51 46.3,49.5 47.8,49.5 47.8,48 
				47.8,46.5 47.8,45 49.3,45 49.3,43.5 47.8,43.5 			"/>
			<polygon points="47.8,42 49.3,42 49.3,40.5 49.3,39 47.8,39 47.8,40.5 46.3,40.5 46.3,42 			"/>
		</g>
	</g>
	<g>
		<polygon fill="#E8E8E8" points="110.5,106.3 109.2,106.3 109.2,107.6 109.2,108.8 108,108.8 108,107.6 106.7,107.6 106.7,106.3 
			105.5,106.3 104.2,106.3 104.2,107.6 104.2,108.8 104.2,110.1 104.2,111.3 104.2,112.6 104.2,113.8 104.2,115.1 105.5,115.1 
			106.7,115.1 106.7,113.8 106.7,112.6 106.7,111.3 108,111.3 108,112.6 109.2,112.6 109.2,113.8 109.2,115.1 110.5,115.1 
			111.7,115.1 111.7,113.8 111.7,112.6 111.7,111.3 111.7,110.1 111.7,108.8 111.7,107.6 111.7,106.3 		"/>
		<path fill="#E8E8E8" d="M100.5,107.6h-1.3v-1.2H98h-1.2v1.2h-1.3v1.2h-1.3v1.3v1.3v1.2v1.3v1.3h1.3h1.3v-1.3v-1.3v-1.2H98h1.2v1.2
			v1.3v1.3h1.3h1.3v-1.3v-1.3v-1.2v-1.3v-1.3h-1.3V107.6z M99.2,110.1H98h-1.2v-1.3H98h1.2V110.1z"/>
		<polygon fill="#E8E8E8" points="90.5,106.3 90.5,107.6 90.5,108.8 90.5,110.1 90.5,111.3 89.2,111.3 89.2,110.1 88,110.1 
			88,111.3 86.7,111.3 86.7,110.1 86.7,108.8 86.7,107.6 86.7,106.3 85.5,106.3 84.2,106.3 84.2,107.6 84.2,108.8 84.2,110.1 
			84.2,111.3 84.2,112.6 84.2,113.8 84.2,115.1 85.5,115.1 86.7,115.1 86.7,113.8 88,113.8 88,112.6 89.2,112.6 89.2,113.8 
			90.5,113.8 90.5,115.1 91.7,115.1 93,115.1 93,113.8 93,112.6 93,111.3 93,110.1 93,108.8 93,107.6 93,106.3 91.7,106.3 		"/>
		<polygon fill="#E8E8E8" points="80.5,106.3 79.3,106.3 78,106.3 76.8,106.3 75.5,106.3 75.5,107.6 74.3,107.6 74.3,108.8 
			74.3,110.1 75.5,110.1 75.5,111.3 76.8,111.3 78,111.3 79.3,111.3 79.3,112.6 79.3,113.8 78,113.8 76.8,113.8 76.8,112.6 
			75.5,112.6 74.3,112.6 74.3,113.8 75.5,113.8 75.5,115.1 76.8,115.1 78,115.1 79.3,115.1 80.5,115.1 80.5,113.8 81.7,113.8 
			81.7,112.6 81.7,111.3 80.5,111.3 80.5,110.1 79.3,110.1 78,110.1 76.8,110.1 76.8,108.8 76.8,107.6 78,107.6 79.3,107.6 
			79.3,108.8 80.5,108.8 81.7,108.8 81.7,107.6 80.5,107.6 		"/>
		<path fill="#E8E8E8" d="M70.5,107.6h-1.3v-1.2H68h-1.3v1.2h-1.3v1.2h-1.3v1.3v1.3v1.2v1.3v1.3h1.3h1.3v-1.3v-1.3v-1.2H68h1.2v1.2
			v1.3v1.3h1.3h1.3v-1.3v-1.3v-1.2v-1.3v-1.3h-1.3V107.6z M69.2,110.1H68h-1.3v-1.3H68h1.2V110.1z"/>
		<polygon fill="#E8E8E8" points="59.3,106.3 59.3,107.6 59.3,108.8 58,108.8 58,107.6 56.8,107.6 56.8,106.3 55.5,106.3 
			54.3,106.3 54.3,107.6 54.3,108.8 54.3,110.1 54.3,111.3 54.3,112.6 54.3,113.8 54.3,115.1 55.5,115.1 56.8,115.1 56.8,113.8 
			56.8,112.6 56.8,111.3 58,111.3 58,112.6 59.3,112.6 59.3,113.8 59.3,115.1 60.5,115.1 61.8,115.1 61.8,113.8 61.8,112.6 
			61.8,111.3 61.8,110.1 61.8,108.8 61.8,107.6 61.8,106.3 60.5,106.3 		"/>
		<polygon fill="#E8E8E8" points="48,106.3 46.8,106.3 45.5,106.3 45.5,107.6 46.8,107.6 46.8,108.8 46.8,110.1 46.8,111.3 
			46.8,112.6 46.8,113.8 45.5,113.8 45.5,115.1 46.8,115.1 48,115.1 49.3,115.1 50.5,115.1 50.5,113.8 49.3,113.8 49.3,112.6 
			49.3,111.3 49.3,110.1 49.3,108.8 49.3,107.6 50.5,107.6 50.5,106.3 49.3,106.3 		"/>
		<polygon fill="#E8E8E8" points="40.5,106.3 40.5,107.6 39.3,107.6 39.3,108.8 38,108.8 38,107.6 36.8,107.6 36.8,106.3 
			35.5,106.3 34.3,106.3 34.3,107.6 34.3,108.8 34.3,110.1 34.3,111.3 34.3,112.6 34.3,113.8 34.3,115.1 35.5,115.1 36.8,115.1 
			36.8,113.8 36.8,112.6 36.8,111.3 36.8,110.1 38,110.1 38,111.3 39.3,111.3 39.3,110.1 40.5,110.1 40.5,111.3 40.5,112.6 
			40.5,113.8 40.5,115.1 41.8,115.1 43,115.1 43,113.8 43,112.6 43,111.3 43,110.1 43,108.8 43,107.6 43,106.3 41.8,106.3 		"/>
	</g>
</g>
<g id="Cut_Path" display="none">
	<polygon display="inline" fill="none" stroke="#EA0A8A" stroke-miterlimit="10" points="134.5,108.2 72,144.3 9.5,108.2 9.5,36 
		72,-0.1 134.5,36 	"/>
</g>
</svg>
