<?xml version="1.0" encoding="UTF-8" standalone="no"?>
<!-- Generator: Adobe Illustrator 18.1.0, SVG Export Plug-In . SVG Version: 6.00 Build 0)  -->

<svg
   xmlns:dc="http://purl.org/dc/elements/1.1/"
   xmlns:cc="http://creativecommons.org/ns#"
   xmlns:rdf="http://www.w3.org/1999/02/22-rdf-syntax-ns#"
   xmlns:svg="http://www.w3.org/2000/svg"
   xmlns="http://www.w3.org/2000/svg"
   xmlns:sodipodi="http://sodipodi.sourceforge.net/DTD/sodipodi-0.dtd"
   xmlns:inkscape="http://www.inkscape.org/namespaces/inkscape"
   version="1.1"
   id="Layer_1"
   x="0px"
   y="0px"
   viewBox="0 0 181 209"
   enable-background="new 0 0 320 240"
   xml:space="preserve"
   inkscape:version="0.91 r13725"
   sodipodi:docname="mongodb.svg"
   width="181"
   height="209"
   inkscape:export-filename="/home/mc/Papers/Projects/Forks/hexbin/hexagons/mongodb.png"
   inkscape:export-xdpi="90"
   inkscape:export-ydpi="90"><metadata
     id="metadata65"><rdf:RDF><cc:Work
         rdf:about=""><dc:format>image/svg+xml</dc:format><dc:type
           rdf:resource="http://purl.org/dc/dcmitype/StillImage" /><dc:title /></cc:Work></rdf:RDF></metadata><defs
     id="defs63" /><sodipodi:namedview
     pagecolor="#ffffff"
     bordercolor="#666666"
     borderopacity="1"
     objecttolerance="10"
     gridtolerance="10"
     guidetolerance="10"
     inkscape:pageopacity="0"
     inkscape:pageshadow="2"
     inkscape:window-width="1920"
     inkscape:window-height="1029"
     id="namedview61"
     showgrid="false"
     fit-margin-top="0"
     fit-margin-left="0"
     fit-margin-right="0"
     fit-margin-bottom="0"
     inkscape:zoom="4.0526316"
     inkscape:cx="53.487013"
     inkscape:cy="104.5"
     inkscape:window-x="0"
     inkscape:window-y="25"
     inkscape:window-maximized="1"
     inkscape:current-layer="Layer_1" /><polygon
     points="251,171.7 160.5,224 70,171.7 70,67.2 160.5,15 251,67.2 "
     id="polygon3"
     style="fill:#442d22;fill-opacity:1"
     transform="translate(-70,-15)" /><polygon
     points="70,171.7 70,67.2 160.5,15 251,67.2 251,171.7 160.5,224 "
     id="polygon3-3"
     style="fill:#8e714e;fill-opacity:1"
     transform="matrix(0.88665879,0,0,0.88665879,-51.808736,-1.4557254)" /><g
     transform="translate(58.681435,33.24005)"
     style="fill:none;fill-rule:evenodd;stroke:none;stroke-width:1"
     id="g4229"><path
       d="m 35.053436,142.317 -3.783447,-1.29251 c 0,0 0.461923,-19.28678 -6.459143,-20.67082 -4.614044,-5.35225 0.738212,-227.01285 17.348425,-0.73821 0,0 -5.720931,2.86047 -6.736297,7.75166 -1.10775,4.79882 -0.369538,14.94988 -0.369538,14.94988 l 0,0 0,0 z"
       id="path4231"
       inkscape:connector-curvature="0"
       style="fill:#ffffff" /><path
       d="m 35.053436,142.317 -3.783447,-1.29251 c 0,0 0.461923,-19.28678 -6.459143,-20.67082 -4.614044,-5.35225 0.738212,-227.01285 17.348425,-0.73821 0,0 -5.720931,2.86047 -6.736297,7.75166 -1.10775,4.79882 -0.369538,14.94988 -0.369538,14.94988 l 0,0 0,0 z"
       id="path4233"
       inkscape:connector-curvature="0"
       style="fill:#a6a385" /><path
       d="m 37.084168,123.67606 c 0,0 33.128904,-21.77856 25.377241,-67.089267 C 54.9869,23.642658 37.360458,12.845761 35.422974,8.6927757 33.300721,5.7399258 31.269989,0.57243845 31.269989,0.57243845 L 32.654893,92.207487 c 0,0.09238 -2.861329,28.053803 4.429275,31.468573"
       id="path4235"
       inkscape:connector-curvature="0"
       style="fill:#ffffff" /><path
       d="m 37.084168,123.67606 c 0,0 33.128904,-21.77856 25.377241,-67.089267 C 54.9869,23.642658 37.360458,12.845761 35.422974,8.6927757 33.300721,5.7399258 31.269989,0.57243845 31.269989,0.57243845 L 32.654893,92.207487 c 0,0.09238 -2.861329,28.053803 4.429275,31.468573"
       id="path4237"
       inkscape:connector-curvature="0"
       style="fill:#499d4a" /><path
       d="m 29.332506,124.87533 c 0,0 -31.0990355,-21.22512 -29.25307261,-58.598527 C 1.8321484,28.90253 23.795481,10.538739 28.039987,7.2163508 c 2.768944,-2.95285 2.861328,-4.0606004 3.046097,-7.01345029 1.937484,4.15298479 1.56881,62.10568649 1.8451,68.93436749 0.830597,26.300223 -1.476425,50.755342 -3.598678,55.738062 l 0,0 0,0 z"
       id="path4239"
       inkscape:connector-curvature="0"
       style="fill:#ffffff" /><path
       d="m 29.332506,124.87533 c 0,0 -31.0990355,-21.22512 -29.25307261,-58.598527 C 1.8321484,28.90253 23.795481,10.538739 28.039987,7.2163508 c 2.768944,-2.95285 2.861328,-4.0606004 3.046097,-7.01345029 1.937484,4.15298479 1.56881,62.10568649 1.8451,68.93436749 0.830597,26.300223 -1.476425,50.755342 -3.598678,55.738062 l 0,0 0,0 z"
       id="path4241"
       inkscape:connector-curvature="0"
       style="fill:#58aa50" /></g></svg>