<?xml version="1.0" encoding="UTF-8"?>
<svg width="181px" height="209px" viewBox="0 0 181 209" version="1.1" xmlns="http://www.w3.org/2000/svg" xmlns:xlink="http://www.w3.org/1999/xlink">
    <!-- Generator: Sketch 42 (36781) - http://www.bohemiancoding.com/sketch -->
    <title>hexagon-logo-dark</title>
    <desc>Created with Sketch.</desc>
    <defs>
        <radialGradient cx="50%" cy="0%" fx="50%" fy="0%" r="100%" id="radialGradient-1">
            <stop stop-color="#20C6B7" offset="0%"></stop>
            <stop stop-color="#4D9ABF" offset="100%"></stop>
        </radialGradient>
        <linearGradient x1="67.0275807%" y1="83.5406959%" x2="67.0275781%" y2="1.53132336%" id="linearGradient-2">
            <stop stop-color="#F7F8F8" offset="0%"></stop>
            <stop stop-color="#FFFFFF" offset="100%"></stop>
        </linearGradient>
    </defs>
    <g id="Swag-Packs" stroke="none" stroke-width="1" fill="none" fill-rule="evenodd">
        <g id="Swag-Pack-v2" transform="translate(-929.000000, -74.000000)">
            <g id="hexagon-logo-dark" transform="translate(929.000000, 74.000000)">
                <polygon id="Shape" fill="#1F1F1F" fill-rule="nonzero" points="180.885082 156.376633 90.4425411 208.501695 0 156.376633 0 52.1250618 90.4425411 0 180.885082 52.1250618"></polygon>
                <path d="M56.6327534,96.9613448 C56.6124683,96.9613448 56.5921831,96.9210087 56.571898,96.9008406 L57.5252993,91.0319329 C57.5252993,90.9915968 57.5455845,90.9714287 57.5658696,90.9714287 L57.5861547,90.9714287 C57.5861547,90.9714287 57.6064399,90.9714287 57.626725,90.9915968 L61.988029,95.3277313 C62.0083141,95.3478994 62.0083141,95.3680675 62.0083141,95.3882355 C62.0083141,95.4084036 61.988029,95.4285717 61.9677438,95.4487397 L57.3021628,97.4453784 L57.2818777,97.4453784 C57.2615926,97.4453784 57.2615926,97.4453784 57.2413074,97.4252103 C57.0790264,97.2436977 56.876175,97.0823532 56.6327534,96.9613448 Z M46.9567441,93.0285716 C46.936459,93.0084036 46.936459,92.9680674 46.9567441,92.9277313 L51.8454616,85.3042018 C51.8454616,85.2840337 51.8657467,85.2638656 51.8860319,85.2638656 C51.906317,85.2638656 51.906317,85.2638656 51.9266021,85.2840337 L56.267621,89.6201682 C56.2879061,89.6403363 56.2879061,89.6605043 56.2879061,89.6806724 L55.1519386,96.7596641 C55.1519386,96.8000003 55.1316534,96.8201683 55.1113683,96.8201683 C54.8476615,96.9008406 54.6042399,97.021849 54.4013886,97.1831935 C54.4013886,97.2033616 54.3811034,97.2033616 54.3608183,97.2033616 L54.3405332,97.2033616 L47.4030171,94.2386557 C47.382732,94.2184876 47.3624468,94.1983195 47.3624468,94.1781515 C47.3218766,93.7747901 47.1798806,93.3714288 46.9567441,93.0285716 Z M70.6497815,103.939496 C70.6903518,103.959664 70.6903518,104.020168 70.6497815,104.020168 L70.6092112,104.060505 C70.6092112,104.080673 70.5889261,104.080673 70.568641,104.080673 L70.5483558,104.080673 L58.0932831,98.7764709 C58.072998,98.7764709 58.0527128,98.7361347 58.0527128,98.7159667 C58.0527128,98.6957986 58.072998,98.6756305 58.0932831,98.6554625 L63.1442817,96.4974792 L63.1645668,96.4974792 C63.1645668,96.4974792 63.1848519,96.4974792 63.2051371,96.5176473 L70.6497815,103.939496 Z M69.4123883,105.14958 C69.4326734,105.169748 69.4326734,105.189916 69.4326734,105.210084 C69.4326734,105.230252 69.4326734,105.250421 69.4123883,105.270589 L62.7994344,111.865547 C62.7994344,111.885715 62.7791492,111.885715 62.7588641,111.885715 L62.738579,111.885715 L55.517071,110.37311 C55.4765007,110.37311 55.4562156,110.352942 55.4562156,110.312605 C55.3953602,109.7479 55.1316534,109.243698 54.6853805,108.900841 C54.6650953,108.880673 54.6650953,108.860505 54.6650953,108.840337 L55.9430588,100.954622 C55.9430588,100.914286 55.9836291,100.894118 56.0039142,100.894118 C56.571898,100.813446 57.0587412,100.531093 57.3833034,100.087395 C57.4035885,100.067227 57.4238737,100.067227 57.4441588,100.067227 L57.4644439,100.067227 L69.4123883,105.14958 Z M53.5899832,98.4134457 C53.6102683,98.4336137 53.6305535,98.4537818 53.6305535,98.4941179 C53.6102683,98.5949583 53.5899832,98.7159667 53.5899832,98.8369751 L53.5899832,98.9378154 L53.5899832,99.0184877 C53.5899832,99.0386557 53.5696981,99.0588238 53.5494129,99.0789919 L39.2078227,105.230252 L39.1875375,105.230252 C39.1672524,105.230252 39.1469673,105.230252 39.1266821,105.210084 C39.106397,105.189916 39.106397,105.14958 39.1266821,105.129412 L44.5022428,96.7596641 C44.522528,96.739496 44.5428131,96.719328 44.5630982,96.719328 L44.5833834,96.719328 C44.7253793,96.739496 44.8470901,96.7596641 44.9688009,96.7596641 C45.7802063,96.7596641 46.5307563,96.3563028 46.9770293,95.6705885 C46.9973144,95.6504204 47.0175995,95.6302523 47.0378847,95.6302523 L47.0581698,95.6302523 L53.5899832,98.4134457 Z M61.4606155,113.055463 C61.4809006,113.055463 61.5011857,113.075631 61.5011857,113.136135 C61.5011857,113.156303 61.5011857,113.176471 61.4809006,113.196639 L52.6771521,121.969749 C52.6771521,121.989917 52.656867,121.989917 52.6365819,121.989917 L52.5960116,121.989917 C52.5757265,121.969749 52.5554413,121.94958 52.5554413,121.909244 L54.0768264,112.510925 C54.0768264,112.490757 54.0971116,112.450421 54.1173967,112.450421 C54.4825291,112.309244 54.7868061,112.067227 55.0302278,111.764706 C55.0505129,111.764706 55.070798,111.744538 55.0910832,111.744538 L55.1113683,111.744538 L61.4606155,113.055463 Z M52.5960116,112.410085 C52.6365819,112.430253 52.6365819,112.470589 52.5960116,112.470589 L50.7703495,123.764707 C50.7703495,123.784875 50.7500643,123.784875 50.7500643,123.805043 L50.10094,124.450421 C50.10094,124.470589 50.0806549,124.470589 50.0603697,124.470589 C50.0400846,124.470589 50.0400846,124.470589 50.0197995,124.450421 L39.3092483,108.880673 C39.2889632,108.860505 39.2889632,108.820168 39.3092483,108.8 C39.3701037,108.719328 39.410674,108.638656 39.4715294,108.537816 C39.4918145,108.517647 39.5120997,108.497479 39.5323848,108.497479 C39.5526699,108.497479 39.5526699,108.497479 39.5526699,108.497479 L51.3180481,110.937816 C51.3586184,110.957984 51.3789035,110.978152 51.3789035,110.99832 C51.5411846,111.62353 51.9874575,112.168068 52.5960116,112.410085 Z M39.7960916,107.065547 C39.7960916,106.904202 39.7555213,106.763026 39.7352362,106.601681 C39.7352362,106.561345 39.7352362,106.541177 39.7758064,106.521009 L54.1985372,100.329412 L54.2188224,100.329412 C54.2188224,100.329412 54.2391075,100.329412 54.2593926,100.34958 C54.3608183,100.45042 54.4419589,100.510925 54.5230994,100.571429 C54.5636697,100.571429 54.5636697,100.611765 54.5636697,100.631933 L53.3059913,108.396639 C53.3059913,108.436975 53.2857062,108.457143 53.2451359,108.457143 C52.5554413,108.497479 51.9468873,108.900841 51.60204,109.505883 C51.5817549,109.526051 51.5614697,109.546219 51.5411846,109.546219 L51.5208994,109.546219 L39.856947,107.126051 C39.8163767,107.126051 39.7960916,107.105883 39.7960916,107.065547 Z M34.9073741,109.021849 C34.9276592,109.042017 34.9276592,109.062185 34.9276592,109.062185 L32.1485958,113.39832 C32.1283106,113.418488 32.1080255,113.438656 32.0877404,113.438656 C32.0877404,113.438656 32.0674552,113.438656 32.0471701,113.418488 L29.5926688,110.978152 C29.5723837,110.957984 29.5723837,110.937816 29.5723837,110.917648 C29.5723837,110.897479 29.5926688,110.877311 29.6129539,110.877311 L34.6436673,108.719328 L34.6639525,108.719328 C34.6842376,108.719328 34.7045227,108.739496 34.7248079,108.759664 C34.7856633,108.860505 34.8465187,108.941177 34.9073741,109.021849 Z M38.2341362,109.808404 L48.9852576,125.49916 C49.0055427,125.519328 49.0055427,125.559665 48.9852576,125.579833 L46.632182,127.939497 C46.632182,127.959665 46.6118968,127.959665 46.5916117,127.959665 C46.5916117,127.959665 46.5713266,127.959665 46.5510414,127.939497 L33.1222822,114.568068 C33.1019971,114.5479 33.1019971,114.507564 33.1222822,114.487395 L33.1425674,114.467227 L36.0636268,109.909244 C36.0839119,109.889076 36.104197,109.868908 36.1244822,109.868908 L36.1447673,109.868908 C36.4490443,109.969748 36.7330362,110.010084 37.0373132,110.010084 C37.4227308,110.010084 37.7878632,109.929412 38.1529957,109.768068 L38.1732808,109.768068 C38.1935659,109.768068 38.2138511,109.788236 38.2341362,109.808404 Z M36.3476187,104.544538 L30.5866404,96.0941179 C30.5663553,96.0739498 30.5663553,96.0336137 30.5866404,96.0134456 L35.7593498,90.8504203 C35.7593498,90.8302523 35.7796349,90.8302523 35.79992,90.8302523 L35.8202052,90.8302523 C35.8202052,90.8504203 41.9260307,93.431933 42.6157253,93.734454 C42.6360104,93.7546221 42.6562956,93.7747901 42.6562956,93.8151263 C42.6157253,93.9966389 42.5954402,94.1781515 42.5954402,94.3596641 C42.5954402,94.9848742 42.8388618,95.5697481 43.2648496,96.0134456 C43.2851347,96.0336137 43.2851347,96.0739498 43.2648496,96.0941179 L37.8284335,104.564706 C37.8081484,104.584874 37.7878632,104.605042 37.7675781,104.605042 L37.747293,104.605042 C37.5241565,104.544538 37.2807349,104.504202 37.0575984,104.504202 C36.854747,104.504202 36.6316105,104.544538 36.4287592,104.584874 L36.4084741,104.584874 C36.3881889,104.584874 36.3679038,104.564706 36.3476187,104.544538 Z M36.9358876,89.7815128 C36.9156024,89.7613447 36.8953173,89.7613447 36.9156024,89.7210085 C36.9156024,89.7008405 36.9156024,89.6806724 36.9358876,89.6605043 L46.5916117,80.0201681 C46.5916117,80 46.6118968,80 46.632182,80 C46.6524671,80 46.6524671,80 46.6727522,80.0201681 L50.8312049,84.1546219 C50.85149,84.17479 50.85149,84.2151261 50.8312049,84.2352942 L45.8207766,92.0403363 C45.8004915,92.0605044 45.7802063,92.0806724 45.7599212,92.0806724 L45.739636,92.0806724 C45.4759293,92.0000002 45.2122225,91.959664 44.9485158,91.959664 C44.4008172,91.959664 43.8531185,92.1613447 43.4271307,92.5042019 C43.4068456,92.5243699 43.4068456,92.5243699 43.3865604,92.5243699 L43.3662753,92.5243699 C43.1025685,92.4033615 36.9358876,89.7815128 36.9358876,89.7815128 Z M34.5422417,106.016807 C34.5219565,106.016807 34.5219565,106.016807 34.5422417,106.016807 L23.0608554,103.596639 C23.0202851,103.596639 23,103.576471 23,103.556303 C23,103.536135 23,103.515967 23.0202851,103.495799 L29.4303877,97.1226893 C29.4303877,97.1025213 29.4506728,97.1025213 29.470958,97.1025213 C29.5115283,97.1226893 29.5115283,97.1226893 29.5318134,97.1428574 C29.5318134,97.1630255 35.0290849,105.14958 35.0899403,105.230252 C35.1102254,105.250421 35.1102254,105.290757 35.0899403,105.310925 C34.9073741,105.512605 34.7248079,105.734454 34.6030971,105.976471 C34.5828119,105.996639 34.5625268,106.016807 34.5422417,106.016807 Z M34.0148282,107.408404 C34.0148282,107.428572 33.994543,107.44874 33.9539728,107.489076 L28.4364161,109.84874 L28.416131,109.84874 C28.416131,109.84874 28.3958458,109.84874 28.3755607,109.828572 L23.9331162,105.391597 C23.9128311,105.371429 23.8925459,105.331093 23.9128311,105.310925 C23.9331162,105.290757 23.9534013,105.270589 23.9736865,105.270589 C23.9939716,105.270589 23.9939716,105.270589 23.9939716,105.270589 L33.9539728,107.3479 C33.994543,107.3479 34.0148282,107.368068 34.0148282,107.408404 Z" id="Combined-Shape-Copy-2" fill="url(#radialGradient-1)"></path>
                <path d="M119.570269,91.302521 L122.815891,91.302521 L122.815891,112.317647 L119.570269,112.317647 L119.570269,91.302521 Z M86.3635039,97.2319329 C89.385989,97.2319329 90.9073741,99.0067228 90.9479444,102.515967 L90.9479444,112.297479 L87.7023228,112.297479 L87.7023228,102.717647 C87.7023228,101.789916 87.5197566,101.084034 87.1140539,100.640336 C86.7083512,100.176471 86.0592269,99.954622 85.166681,99.954622 C83.8684323,99.954622 82.8947459,100.559664 82.2456216,101.769748 L82.2456216,112.297479 L79,112.297479 L79,97.4941177 L82.0427702,97.4941177 L82.1441959,99.2084035 C83.219308,97.8974791 84.6189823,97.2319329 86.3635039,97.2319329 Z M100.380532,97.2319329 C102.34819,97.2319329 103.869575,97.877311 104.985258,99.1680673 C106.040085,100.458824 106.587783,102.27395 106.587783,104.633614 L106.587783,105.964706 L97.1349105,105.964706 C97.2363361,107.194958 97.6217537,108.163025 98.3317334,108.868908 C99.021428,109.57479 99.9139739,109.937815 100.968801,109.937815 C102.449616,109.937815 103.666724,109.312605 104.59984,108.082353 L106.344362,109.796639 C105.776378,110.684034 105.005543,111.369748 104.031856,111.853782 C103.05817,112.337815 101.962773,112.579832 100.76595,112.579832 C98.6968658,112.579832 97.0334848,111.914286 95.7555213,110.583194 C94.4775578,109.252101 93.8284335,107.477311 93.8284335,105.278992 L93.8284335,104.87563 C93.8284335,103.403362 94.1124254,102.092437 94.660124,100.922689 C95.2281078,99.7529413 95.9989429,98.8453783 97.0131997,98.2000001 C98.0274564,97.5546219 99.1431388,97.2319329 100.380532,97.2319329 Z M103.342162,103.52437 L103.362447,103.52437 L103.362447,103.282353 C103.281306,102.173109 102.997314,101.326051 102.490186,100.761345 C101.983058,100.196639 101.273078,99.9142858 100.380532,99.9142858 C99.4879861,99.9142858 98.7577212,100.216807 98.2100226,100.862185 C97.662324,101.487395 97.2971915,102.37479 97.1551956,103.52437 L103.342162,103.52437 Z M113.890432,109.453782 C114.113568,109.715967 114.498986,109.836975 115.087255,109.816807 C115.452387,109.816807 115.837805,109.776471 116.223222,109.675631 L116.223222,112.257143 C115.472672,112.478992 114.762693,112.579832 114.072998,112.579832 C111.577926,112.579832 110.320248,111.168068 110.320248,108.344538 L110.320248,99.954622 L107.946887,99.954622 L107.946887,97.4941177 L110.320248,97.4941177 L110.320248,93.9042017 L113.56587,93.9042017 L113.56587,97.4941177 L116.121797,97.4941177 L116.121797,99.954622 L113.56587,99.954622 L113.56587,108.22353 C113.56587,108.788236 113.667295,109.211765 113.890432,109.453782 Z M127.846604,97.5142858 L131.092226,97.5142858 L131.092226,112.317647 L127.846604,112.317647 L127.846604,97.5142858 Z M149.511128,107.557983 L152.472758,97.5142858 L155.941516,97.5142858 L150.180538,114.556303 C149.287992,117.036975 147.786892,118.287395 145.677238,118.287395 C145.21068,118.287395 144.683266,118.206723 144.115283,118.045379 L144.115283,115.463866 L144.723837,115.504202 C145.535242,115.504202 146.164081,115.342858 146.569784,115.040336 C146.995772,114.737815 147.320334,114.233614 147.563755,113.507563 L148.030314,112.236975 L142.938745,97.5142858 L146.448073,97.5142858 L149.511128,107.557983 Z M137.461758,92.3512605 C138.354304,91.4638656 139.611983,91 141.194223,91.0201681 C141.782492,91.0201681 142.370761,91.1008403 143.019885,91.2621849 L142.938745,93.8638656 C142.593897,93.8033614 142.16791,93.7630253 141.701351,93.7630253 C140.139396,93.7630253 139.368561,94.569748 139.368561,96.2033614 L139.368561,97.5142858 L142.309906,97.5142858 L142.309906,99.97479 L139.368561,99.97479 L139.368561,112.317647 L136.122939,112.317647 L136.122939,99.97479 L133.91186,99.97479 L133.91186,97.5142858 L136.122939,97.5142858 L136.122939,96.1630253 C136.122939,94.5092437 136.569212,93.2386555 137.461758,92.3512605 Z M131.092226,91 L131.092226,93.9042017 L127.846604,93.9042017 L127.846604,91 L131.092226,91 Z" id="Combined-Shape-Copy" fill="url(#linearGradient-2)"></path>
            </g>
        </g>
    </g>
</svg>