<?xml version="1.0" encoding="utf-8"?>
<!-- Generator: Adobe Illustrator 21.0.0, SVG Export Plug-In . SVG Version: 6.00 Build 0)  -->
<svg version="1.1" id="sticker" xmlns="http://www.w3.org/2000/svg" xmlns:xlink="http://www.w3.org/1999/xlink" x="0px" y="0px"
	 viewBox="0 0 181 209" style="enable-background:new 0 0 181 209;" xml:space="preserve">
<style type="text/css">
	.st0{fill:url(#SVGID_1_);}
	.st1{fill:url(#SVGID_2_);}
	.st2{fill:url(#XMLID_3_);}
	.st3{fill:url(#SVGID_3_);}
	.st4{fill:url(#SVGID_4_);}
	.st5{fill:url(#SVGID_5_);}
	.st6{fill:url(#SVGID_6_);}
	.st7{fill:url(#SVGID_7_);}
	.st8{fill:url(#SVGID_8_);}
	.st9{fill:url(#SVGID_9_);}
	.st10{fill:url(#SVGID_10_);}
	.st11{opacity:0.5;fill:url(#SVGID_11_);enable-background:new    ;}
	.st12{fill:url(#SVGID_12_);}
	.st13{fill:url(#SVGID_13_);}
	.st14{opacity:0.5;fill:url(#SVGID_14_);enable-background:new    ;}
	.st15{fill:url(#SVGID_15_);}
	.st16{fill:url(#SVGID_16_);}
</style>
<g id="background">
	<linearGradient id="SVGID_1_" gradientUnits="userSpaceOnUse" x1="90.5" y1="0" x2="90.5" y2="209">
		<stop  offset="0" style="stop-color:#182446"/>
		<stop  offset="0.2138" style="stop-color:#192444"/>
		<stop  offset="0.3877" style="stop-color:#1A2340"/>
		<stop  offset="0.5478" style="stop-color:#1A2138"/>
		<stop  offset="0.6994" style="stop-color:#191D2E"/>
		<stop  offset="0.8452" style="stop-color:#14151F"/>
		<stop  offset="0.9848" style="stop-color:#050406"/>
		<stop  offset="1" style="stop-color:#030202"/>
	</linearGradient>
	<path class="st0" d="M90.5,0L0,52.3v104.5L90.5,209l90.5-52.3V52.3L90.5,0z"/>
</g>
<g id="logo">
	<g>
		
			<linearGradient id="SVGID_2_" gradientUnits="userSpaceOnUse" x1="-15373.0977" y1="8798.2793" x2="-15340.9941" y2="8798.2793" gradientTransform="matrix(0.7621 3.394695e-02 4.995754e-02 -1.1202 11398.5762 10464.2676)">
			<stop  offset="0" style="stop-color:#4375B5"/>
			<stop  offset="9.755859e-02" style="stop-color:#4686C2"/>
			<stop  offset="0.3057" style="stop-color:#2CA8DE"/>
			<stop  offset="0.5213" style="stop-color:#2FB5D8"/>
			<stop  offset="0.7469" style="stop-color:#42B7CE"/>
			<stop  offset="0.9986" style="stop-color:#48B7CA"/>
		</linearGradient>
		<path class="st1" d="M126.3,55.7c-2.9,3.4-4.3,11-1.3,18.8c3,7.8,7.5,6.1,10.3,14c3.7,10.4,2,24.5,2,24.5s4.5,13,7.6-0.8
			C151.8,86.2,126.3,62.1,126.3,55.7z"/>
		
			<radialGradient id="XMLID_3_" cx="-8109.0513" cy="8379.6152" r="96.4799" gradientTransform="matrix(1.2255 0 0 -1.2248 10050.2734 10331.3818)" gradientUnits="userSpaceOnUse">
			<stop  offset="2.469308e-02" style="stop-color:#355BA3"/>
			<stop  offset="0.1771" style="stop-color:#264998"/>
			<stop  offset="0.3226" style="stop-color:#082D89"/>
			<stop  offset="0.3967" style="stop-color:#03227A"/>
			<stop  offset="0.4732" style="stop-color:#171F78"/>
			<stop  offset="0.6577" style="stop-color:#3C1976"/>
			<stop  offset="0.7534" style="stop-color:#4B1875"/>
		</radialGradient>
		<path id="XMLID_1_" class="st2" d="M90.5,163.1c29.9,0,54.1-24.4,54.1-54.4s-24.2-54.4-54.1-54.4s-54.1,24.4-54.1,54.4
			C36.4,138.8,60.6,163.1,90.5,163.1z"/>
		<g>
			<g>
				
					<linearGradient id="SVGID_3_" gradientUnits="userSpaceOnUse" x1="97.3001" y1="177.5784" x2="73.9569" y2="253.9386" gradientTransform="matrix(1 0 0 -1 1 311)">
					<stop  offset="3.786671e-04" style="stop-color:#051344;stop-opacity:0.4"/>
					<stop  offset="0.1736" style="stop-color:#061950;stop-opacity:0.3307"/>
					<stop  offset="0.7033" style="stop-color:#031E6D;stop-opacity:0.1187"/>
					<stop  offset="1" style="stop-color:#03227A;stop-opacity:0"/>
				</linearGradient>
				<path class="st3" d="M131.2,142.5c-1.1,0.8-2.4,1.5-3.7,2.2c1.5-2.1,3.1-4.7,4.7-7.7c1.2-1.3,2.2-2.5,3.1-3.9
					c0.4-0.7,0.9-1.5,1.4-2.4c3-5.5,6.4-14.3,6.5-23.4c0,0,0,0,0,0c0-0.2,0-0.5,0-0.7c0-2.3-0.2-4.6-0.7-6.8c0,0.2,0,0.4,0.1,0.5
					c0-0.1,0-0.3-0.1-0.4c0,0.2,0.1,0.5,0.1,0.7c0.6,5.3,0.2,10.4-2,14.2c0,0.1-0.1,0.1-0.1,0.2c1.1-5.8,1.5-12.1,0.3-18.5
					c0,0-0.5-3.1-4.3-12.5c-2.2-5.4-6.1-9.8-9.5-13.1c-3-3.7-5.7-6.2-7.3-7.8c-3.1-3.3-4.5-5.8-5-7.4c-0.5-0.2-6.5-6.1-7-6.3
					c-2.6,4.1-10.9,16.8-7,28.7c1.8,5.4,6.3,11,11,14.1c0.2,0.2,2.8,3,4,9.4c1.3,6.6,0.6,11.7-2,19.3c-3.1,6.6-11,13.2-18.4,13.9
					c-15.8,1.4-21.6-7.9-21.6-7.9c5.6,2.3,11.9,1.8,15.7-0.6c3.8-2.4,6.1-4.1,8-3.4c1.9,0.7,3.3-1.3,2-3.4c-1.3-2.1-4.7-5-9.7-4.2
					c-3.8,0.6-7.3,3.7-12.4,0.7c-0.3-0.2-0.6-0.4-0.9-0.6c-0.3-0.2,1.1,0.3,0.7,0.1c-1-0.5-2.7-1.7-3.2-2.1
					c-0.1-0.1,0.8,0.3,0.7,0.2c-4.7-3.9-4.1-6.5-4-8.1c0.1-1.3,1-3,2.4-3.7c0.7,0.4,1.1,0.7,1.1,0.7s-0.3-0.6-0.5-0.9
					c0.1,0,0.1,0,0.2,0c0.6,0.3,1.8,1,2.5,1.4c0.9,0.6,1.1,1.1,1.1,1.1s0.2-0.1,0.1-0.7c-0.1-0.2-0.3-0.9-1.2-1.6h0
					c0.5,0.3,1,0.6,1.5,1c0.2-0.9,0.7-1.8,0.6-3.4c-0.1-1.1,0-1.5-0.2-1.9c-0.2-0.4,0.1-0.5,0.4-0.1c0-0.3-0.1-0.6-0.3-0.9v0
					c0.4-1.4,8.3-4.9,8.9-5.4c0.8-0.6,1.7-1.5,2.3-2.5c0.4-0.7,0.8-1.7,0.9-3.2c0-1.1-0.5-1.8-8.5-2.6c-2.2-0.2-3.5-1.8-4.2-3.3
					c-0.1-0.3-0.3-0.6-0.4-0.9c-0.1-0.4-0.3-0.8-0.3-1c1.3-3.8,3.5-7,6.8-9.4c0.2-0.2-0.7,0-0.5-0.1c0.2-0.2,1.5-0.7,1.8-0.9
					c0.3-0.1-1.3-0.8-2.8-0.7c-1.5,0.2-1.8,0.3-2.6,0.7c0.3-0.3,1.4-0.7,1.1-0.7c-1.6,0.2-3.6,1.2-5.2,2.2c0-0.2,0-0.3,0.1-0.5
					c-0.8,0.3-2.7,1.7-3.3,2.8c0-0.3,0-0.4,0-0.7c-0.6,0.5-1.1,1-1.6,1.7l0,0c-4.6-1.8-8.6-2-12-1.1c-0.7-0.7-1.1-0.2-2.8-3.9
					c-0.1-0.2,0.1,0.2,0,0c-0.3-0.7,0.2,1,0,0c-2.8,2.2-6.6,4.8-8.4,6.6c0,0.1,2.1-0.6,0,0c-0.7,0.2-0.7,0.6-0.8,4.6
					c0,0.3,0,0.6,0,0.9c-1.4,1.8-2.4,3.4-2.8,4.2c-1.9,3.2-3.9,8.2-5.9,16c0,0,1.1-2.9,3.1-6.1c-1.7,4.2-3.3,10.8-3.6,20.9
					c0.1-0.3,0.5-2.9,1.5-6.2c-0.3,6.7,0.4,15.1,4.2,24.5c1.1,2.8,3,7,6.2,11.6c10.1,10.6,24.3,17.2,40,17.2
					C106.4,161.1,121.1,153.9,131.2,142.5z"/>
			</g>
			<g>
				
					<linearGradient id="SVGID_4_" gradientUnits="userSpaceOnUse" x1="98.3001" y1="177.5784" x2="74.9569" y2="253.9386" gradientTransform="matrix(1 0 0 -1 0 311)">
					<stop  offset="3.786671e-04" style="stop-color:#051344;stop-opacity:0.4"/>
					<stop  offset="0.1736" style="stop-color:#061950;stop-opacity:0.3307"/>
					<stop  offset="0.7033" style="stop-color:#031E6D;stop-opacity:0.1187"/>
					<stop  offset="1" style="stop-color:#03227A;stop-opacity:0"/>
				</linearGradient>
				<path class="st4" d="M131.2,142.5c-1.1,0.8-2.4,1.5-3.7,2.2c1.5-2.1,3.1-4.7,4.7-7.7c1.2-1.3,2.2-2.5,3.1-3.9
					c0.4-0.7,0.9-1.5,1.4-2.4c3-5.5,6.4-14.3,6.5-23.4c0,0,0,0,0,0c0-0.2,0-0.5,0-0.7c0-2.3-0.2-4.6-0.7-6.8c0,0.2,0,0.4,0.1,0.5
					c0-0.1,0-0.3-0.1-0.4c0,0.2,0.1,0.5,0.1,0.7c0.6,5.3,0.2,10.4-2,14.2c0,0.1-0.1,0.1-0.1,0.2c1.1-5.8,1.5-12.1,0.3-18.5
					c0,0-0.5-3.1-4.3-12.5c-2.2-5.4-6.1-9.8-9.5-13.1c-3-3.7-5.7-6.2-7.3-7.8c-3.1-3.3-4.5-5.8-5-7.4c-0.5-0.2-6.5-6.1-7-6.3
					c-2.6,4.1-10.9,16.8-7,28.7c1.8,5.4,6.3,11,11,14.1c0.2,0.2,2.8,3,4,9.4c1.3,6.6,0.6,11.7-2,19.3c-3.1,6.6-11,13.2-18.4,13.9
					c-15.8,1.4-21.6-7.9-21.6-7.9c5.6,2.3,11.9,1.8,15.7-0.6c3.8-2.4,6.1-4.1,8-3.4c1.9,0.7,3.3-1.3,2-3.4c-1.3-2.1-4.7-5-9.7-4.2
					c-3.8,0.6-7.3,3.7-12.4,0.7c-0.3-0.2-0.6-0.4-0.9-0.6c-0.3-0.2,1.1,0.3,0.7,0.1c-1-0.5-2.7-1.7-3.2-2.1
					c-0.1-0.1,0.8,0.3,0.7,0.2c-4.7-3.9-4.1-6.5-4-8.1c0.1-1.3,1-3,2.4-3.7c0.7,0.4,1.1,0.7,1.1,0.7s-0.3-0.6-0.5-0.9
					c0.1,0,0.1,0,0.2,0c0.6,0.3,1.8,1,2.5,1.4c0.9,0.6,1.1,1.1,1.1,1.1s0.2-0.1,0.1-0.7c-0.1-0.2-0.3-0.9-1.2-1.6h0
					c0.5,0.3,1,0.6,1.5,1c0.2-0.9,0.7-1.8,0.6-3.4c-0.1-1.1,0-1.5-0.2-1.9c-0.2-0.4,0.1-0.5,0.4-0.1c0-0.3-0.1-0.6-0.3-0.9v0
					c0.4-1.4,8.3-4.9,8.9-5.4c0.8-0.6,1.7-1.5,2.3-2.5c0.4-0.7,0.8-1.7,0.9-3.2c0-1.1-0.5-1.8-8.5-2.6c-2.2-0.2-3.5-1.8-4.2-3.3
					c-0.1-0.3-0.3-0.6-0.4-0.9c-0.1-0.4-0.3-0.8-0.3-1c1.3-3.8,3.5-7,6.8-9.4c0.2-0.2-0.7,0-0.5-0.1c0.2-0.2,1.5-0.7,1.8-0.9
					c0.3-0.1-1.3-0.8-2.8-0.7c-1.5,0.2-1.8,0.3-2.6,0.7c0.3-0.3,1.4-0.7,1.1-0.7c-1.6,0.2-3.6,1.2-5.2,2.2c0-0.2,0-0.3,0.1-0.5
					c-0.8,0.3-2.7,1.7-3.3,2.8c0-0.3,0-0.4,0-0.7c-0.6,0.5-1.1,1-1.6,1.7l0,0c-4.6-1.8-8.6-2-12-1.1c-0.7-0.7-1.1-0.2-2.8-3.9
					c-0.1-0.2,0.1,0.2,0,0c-0.3-0.7,0.2,1,0,0c-2.8,2.2-6.6,4.8-8.4,6.6c0,0.1,2.1-0.6,0,0c-0.7,0.2-0.7,0.6-0.8,4.6
					c0,0.3,0,0.6,0,0.9c-1.4,1.8-2.4,3.4-2.8,4.2c-1.9,3.2-3.9,8.2-5.9,16c0,0,1.1-2.9,3.1-6.1c-1.7,4.2-3.3,10.8-3.6,20.9
					c0.1-0.3,0.5-2.9,1.5-6.2c-0.3,6.7,0.4,15.1,4.2,24.5c1.1,2.8,3,7,6.2,11.6c10.1,10.6,24.3,17.2,40,17.2
					C106.4,161.1,121.1,153.9,131.2,142.5z"/>
			</g>
		</g>
		
			<linearGradient id="SVGID_5_" gradientUnits="userSpaceOnUse" x1="-9102.2197" y1="7252.5781" x2="-9116.2715" y2="7253.6626" gradientTransform="matrix(1.2193 0.1226 0.1227 -1.2186 10354.8496 10095.9238)">
			<stop  offset="0" style="stop-color:#693F91"/>
			<stop  offset="1" style="stop-color:#355BA3"/>
		</linearGradient>
		<path class="st5" d="M119.1,150.2c19.9-2.3,28.7-22.8,17.4-23.2C126.2,126.7,109.7,151.3,119.1,150.2L119.1,150.2z"/>
		
			<linearGradient id="SVGID_6_" gradientUnits="userSpaceOnUse" x1="-9112.6064" y1="7272.7148" x2="-9099.4434" y2="7286.3867" gradientTransform="matrix(1.2193 0.1226 0.1227 -1.2186 10354.8496 10095.9238)">
			<stop  offset="4.875986e-02" style="stop-color:#355BA3"/>
			<stop  offset="0.1768" style="stop-color:#365AA3"/>
			<stop  offset="0.3528" style="stop-color:#3756A0"/>
			<stop  offset="0.5567" style="stop-color:#3F4F9B"/>
			<stop  offset="0.7797" style="stop-color:#524695"/>
			<stop  offset="0.9508" style="stop-color:#693F91"/>
		</linearGradient>
		<path class="st6" d="M137.9,122.8c13.7-8,10.1-25.1,10.1-25.1s-5.3,6.1-8.9,15.9C135.6,123.3,129.7,127.6,137.9,122.8z"/>
		
			<linearGradient id="SVGID_7_" gradientUnits="userSpaceOnUse" x1="-9137.0039" y1="7240.0527" x2="-9108.8506" y2="7239.9868" gradientTransform="matrix(1.2193 0.1226 0.1227 -1.2186 10354.8496 10095.9238)">
			<stop  offset="0" style="stop-color:#03227A"/>
			<stop  offset="0.9948" style="stop-color:#704996"/>
		</linearGradient>
		<path class="st7" d="M94.5,160.4c19,6.1,35.4-8.9,25.3-13.9C110.7,141.9,85.4,157.5,94.5,160.4z"/>
		
			<radialGradient id="SVGID_8_" cx="110.9127" cy="219.648" r="96.8116" fx="128.0975" fy="203.9005" gradientTransform="matrix(1 0 0 -1 0 311)" gradientUnits="userSpaceOnUse">
			<stop  offset="0.2032" style="stop-color:#6AC1D9"/>
			<stop  offset="0.2638" style="stop-color:#66C1DD"/>
			<stop  offset="0.3725" style="stop-color:#56BEE9"/>
			<stop  offset="0.5166" style="stop-color:#6593CA"/>
			<stop  offset="0.6889" style="stop-color:#695BA1"/>
			<stop  offset="0.7703" style="stop-color:#704996"/>
			<stop  offset="0.8092" style="stop-color:#754995"/>
			<stop  offset="0.8552" style="stop-color:#7E4C97"/>
			<stop  offset="0.9047" style="stop-color:#934E97"/>
			<stop  offset="0.9564" style="stop-color:#B05198"/>
			<stop  offset="0.9793" style="stop-color:#C15199"/>
		</radialGradient>
		<path class="st8" d="M110.2,47.1C110.3,47.1,110.3,47,110.2,47.1C110.3,47,110.3,47.1,110.2,47.1z M139.3,130.1
			c0.5-0.7,1.1-2.7,1.6-3.7c3.4-5.4,3.4-9.8,3.4-9.9c2-10.1,1.8-14.3,0.6-21.9c-1-6.2-5.4-15-9.2-19.3c-3.9-4.4-1.2-3-5-6.2
			c-3.3-3.7-6.6-7.4-8.3-8.8c-12.7-10.6-12.4-12.9-12.2-13.3c0,0-0.1,0.1-0.2,0.2c-0.1-0.6-0.3-1.1-0.3-1.1s-7,7-8.4,18.5
			c-1,7.6,1.9,15.4,6,20.5c3.5,4.3,7.2,7.1,7.2,7.1l0,0c3.1,4.5,4.8,9.9,4.8,15.8c0,14.8-12,26.8-26.8,26.8c-2.1,0-4.1-0.2-6-0.7
			c-7-1.3-11-4.9-13-7.2c-1.1-1.4-1.6-2.4-1.6-2.4c6.3,2.2,13.2,1.8,17.4-0.5c4.2-2.4,6.8-4.1,8.9-3.4c2,0.7,3.7-1.3,2.2-3.4
			c-1.4-2-5.2-5-10.7-4.2c-4.2,0.6-8.1,3.6-13.7,0.7c-0.3-0.2-0.7-0.4-1-0.6c-0.4-0.2,1.2,0.3,0.8,0.1c-1.1-0.5-3-1.7-3.5-2.1
			c-0.1-0.1,0.8,0.3,0.8,0.2c-5.2-3.8-4.5-6.4-4.4-8c0.1-1.3,1.1-3,2.7-3.6c0.8,0.4,1.2,0.7,1.2,0.7s-0.3-0.6-0.5-0.9
			c0.1,0,0.1,0,0.2,0c0.6,0.3,2,1,2.8,1.4c1,0.6,1.3,1.1,1.3,1.1s0.3-0.1,0.1-0.6c-0.1-0.2-0.4-0.9-1.3-1.6h0.1c0.5,0.3,1,0.6,1.6,1
			c0.3-0.9,0.7-1.8,0.6-3.4c-0.1-1.1,0-1.4-0.3-1.9c-0.2-0.4,0.1-0.5,0.5-0.1c-0.1-0.3-0.1-0.6-0.3-0.9v0c0.4-1.4,9.2-4.9,9.9-5.3
			c0.9-0.6,1.9-1.5,2.6-2.5c0.5-0.7,0.9-1.7,0.9-3.2c0-0.7-0.2-1.2-2.5-1.7c-1.4-0.3-3.5-0.6-6.9-0.9c-2.4-0.2-3.9-1.8-4.7-3.2
			c-0.1-0.3-0.3-0.6-0.5-0.9c-0.2-0.4-0.3-0.7-0.3-1c1.5-3.7,3.9-6.9,7.5-9.3c0.2-0.2-0.8,0-0.6-0.1c0.2-0.2,1.7-0.7,2-0.8
			c0.3-0.1-1.5-0.8-3.1-0.7c-1.6,0.2-2,0.3-2.8,0.7c0.4-0.3,1.5-0.7,1.2-0.7c-1.8,0.2-3.9,1.2-5.8,2.2c0-0.2,0-0.3,0.1-0.5
			c-0.9,0.3-3,1.7-3.6,2.8c0-0.3,0-0.4,0-0.7c-0.6,0.5-1.2,1-1.8,1.7l0,0c-5-1.8-9.5-1.9-13.2-1.1c-0.8-0.7-2.1-1.9-4-5.5
			c-0.1-0.2-0.2,0.5-0.3,0.2c-0.7-1.7-1.2-4.4-1.1-6.3c0,0-1.5,0.7-2.7,3.5c-0.2,0.5-0.4,0.8-0.5,1.1c-0.1,0.1,0.2-0.9,0.1-0.9
			c-0.2,0.4-0.8,0.9-1,1.5c-0.2,0.5-0.4,0.8-0.6,1.4l0,0.1c0-0.2,0-0.7,0-0.6c-0.5,1-1,2.3-1.5,3.6c-0.7,2.2-1.5,5.2-1.6,9.1
			c0,0.3,0,0.6,0,0.9c-1.6,1.8-2.7,3.3-3.1,4.1c-2.1,3.2-4.3,8.1-6.5,15.9c0,0,1.2-2.9,3.5-6.1c-1.8,4.1-3.6,10.6-3.9,20.7
			c0.1-0.3,0.6-2.8,1.7-6.1c-0.3,6.7,0.5,15,4.7,24.3c2.5,5.5,8.3,16.7,22.4,25.4l0,0c0,0,4.8,3.6,13,6.3c0.6,0.2,1.2,0.4,1.9,0.6
			c-0.2-0.1-0.4-0.2-0.6-0.3c4.7,1.4,10.4,2.5,16.9,2.5c21.4,0,27.7-8.6,27.7-8.6s0,0-0.1,0c0.3-0.3,0.6-0.6,0.9-0.9
			c-3.4,3.2-11.1,3.4-13.9,3.2c4.9-1.4,8.1-2.7,14.4-5.1c0.7-0.3,1.5-0.6,2.3-0.9c0.1,0,0.2-0.1,0.3-0.1c0.1-0.1,0.3-0.1,0.5-0.2
			c2.7-1.3,5.6-3,8.6-5.4c6.3-5,7.7-10,8.4-13.2c-0.1,0.3-0.4,1-0.6,1.5c-1.6,3.5-5.2,5.6-9.1,7.4c1.6-2.1,3.4-4.7,5.2-7.6
			C137.9,133.4,138.3,131.5,139.3,130.1z"/>
		
			<linearGradient id="SVGID_9_" gradientUnits="userSpaceOnUse" x1="-8096.2271" y1="8407.5176" x2="-8105.0176" y2="8308.708" gradientTransform="matrix(1.2255 0 0 -1.2248 10050.2734 10331.3818)">
			<stop  offset="0" style="stop-color:#5FAD29"/>
			<stop  offset="9.636725e-02" style="stop-color:#5AAD3B"/>
			<stop  offset="0.2187" style="stop-color:#53B189"/>
			<stop  offset="0.3057" style="stop-color:#4CB5B8"/>
			<stop  offset="0.3484" style="stop-color:#48B7CA"/>
			<stop  offset="0.4505" style="stop-color:#2FB5D7;stop-opacity:0.8433"/>
			<stop  offset="0.6519" style="stop-color:#4F8EC8;stop-opacity:0.5341"/>
			<stop  offset="0.9312" style="stop-color:#66589F;stop-opacity:0.1056"/>
			<stop  offset="1" style="stop-color:#6C5099;stop-opacity:0"/>
		</linearGradient>
		<path class="st9" d="M131.6,142.2c2.6-2.8,4.9-6.1,6.6-9.8c4.5-9.5,11.5-25.2,6-41.6c-4.3-13-10.3-20.1-17.8-27
			c-12.3-11.3-15.7-16.3-15.7-19.3c0,0-14.2,15.8-8,32.2c6.1,16.5,18.7,15.9,27,33c9.8,20.2-7.9,42.3-22.6,48.4
			c0.9-0.2,32.6-7.4,34.2-25.5C141.3,133.1,140.6,138.1,131.6,142.2z"/>
		<g>
			
				<linearGradient id="SVGID_10_" gradientUnits="userSpaceOnUse" x1="-9170.3145" y1="7293.1094" x2="-9153.6738" y2="7293.1094" gradientTransform="matrix(1.2193 0.1226 0.1227 -1.2186 10354.8496 10095.9238)">
				<stop  offset="0" style="stop-color:#355BA3"/>
				<stop  offset="8.368624e-02" style="stop-color:#365DA5;stop-opacity:0.9163"/>
				<stop  offset="1" style="stop-color:#4375B5;stop-opacity:0"/>
			</linearGradient>
			<path class="st10" d="M90.6,83.5c0-1.1-0.5-1.8-9.4-2.6c-3.6-0.3-5-3.7-5.5-5.1c-1.3,3.4-1.8,6.9-1.5,11.2c0.2,2.8,2.1,5.8,3,7.6
				c0,0,0.2-0.3,0.3-0.4c1.7-1.8,8.8-4.4,9.4-4.8C87.7,88.8,90.5,86.7,90.6,83.5z"/>
			
				<radialGradient id="SVGID_11_" cx="-9168.8516" cy="7299.6318" r="20.2382" fx="-9169.0596" fy="7299.6636" gradientTransform="matrix(1.2193 0.1226 0.1227 -1.2186 10354.8496 10095.9238)" gradientUnits="userSpaceOnUse">
				<stop  offset="0.6254" style="stop-color:#FFE311;stop-opacity:0"/>
				<stop  offset="0.9946" style="stop-color:#FFE311;stop-opacity:0.7"/>
			</radialGradient>
			<path class="st11" d="M90.6,83.5c0-1.1-0.5-1.8-9.4-2.6c-3.6-0.3-5-3.7-5.5-5.1c-1.3,3.4-1.8,6.9-1.5,11.2c0.2,2.8,2.1,5.8,3,7.6
				c0,0,0.2-0.3,0.3-0.4c1.7-1.8,8.8-4.4,9.4-4.8C87.7,88.8,90.5,86.7,90.6,83.5z"/>
		</g>
		
			<linearGradient id="SVGID_12_" gradientUnits="userSpaceOnUse" x1="121.6106" y1="1616.9875" x2="107.2437" y2="1647.6958" gradientTransform="matrix(0.995 0.1001 0.1001 -0.995 -230.5444 1679.2007)">
			<stop  offset="0.1868" style="stop-color:#4B1875;stop-opacity:0.5"/>
			<stop  offset="0.3381" style="stop-color:#3D3588;stop-opacity:0.4001"/>
			<stop  offset="0.6675" style="stop-color:#2285B4;stop-opacity:0.1825"/>
			<stop  offset="0.9439" style="stop-color:#48B7CA;stop-opacity:0"/>
		</linearGradient>
		<path class="st12" d="M51.7,63.6c-0.1-0.2-0.2,0.5-0.3,0.2c-0.7-1.7-1.2-4.4-1.1-6.3c0,0-1.5,0.7-2.7,3.5
			c-0.2,0.5-0.4,0.8-0.5,1.1c-0.1,0.1,0.2-0.9,0.1-0.9c-0.2,0.4-0.8,0.9-1,1.5c-0.2,0.5-0.4,0.8-0.6,1.4c0,0.2,0-0.8,0-0.7
			c-2.9,5.6-3.5,14-3.2,13.6c6.2-6.6,13.2-8.1,13.2-8.1C54.9,68.5,53.3,66.9,51.7,63.6L51.7,63.6z"/>
		
			<linearGradient id="SVGID_13_" gradientUnits="userSpaceOnUse" x1="-190.0954" y1="-1.9392" x2="-178.6202" y2="-14.9728" gradientTransform="matrix(0.995 0.1001 0.1001 -0.995 248.5896 118.7888)">
			<stop  offset="5.405406e-03" style="stop-color:#03227A;stop-opacity:0.5"/>
			<stop  offset="1" style="stop-color:#4375B5;stop-opacity:0"/>
		</linearGradient>
		<path class="st13" d="M75,132.3c-8.5-3.6-18.2-8.8-17.8-20.4c0.5-15.3,14.3-12.3,14.3-12.3c-0.5,0.1-1.9,1.1-2.4,2.2
			c-0.5,1.3-1.5,4.3,1.4,7.4c4.5,4.9-9.3,11.6,12,24.3C83.1,133.9,77.5,133.4,75,132.3L75,132.3z"/>
		
			<linearGradient id="SVGID_14_" gradientUnits="userSpaceOnUse" x1="-168.3864" y1="-24.2987" x2="-168.3805" y2="-17.7844" gradientTransform="matrix(0.995 0.1001 0.1001 -0.995 248.5896 118.7888)">
			<stop  offset="4.763233e-03" style="stop-color:#4B1875;stop-opacity:0.9"/>
			<stop  offset="0.1107" style="stop-color:#5B2987;stop-opacity:0.7966"/>
			<stop  offset="0.2844" style="stop-color:#663A8F;stop-opacity:0.6269"/>
			<stop  offset="0.4561" style="stop-color:#6B4292;stop-opacity:0.4592"/>
			<stop  offset="0.6227" style="stop-color:#6E4593;stop-opacity:0.2965"/>
			<stop  offset="0.782" style="stop-color:#6F4795;stop-opacity:0.1409"/>
			<stop  offset="0.9263" style="stop-color:#704996;stop-opacity:0"/>
		</linearGradient>
		<path class="st14" d="M72,124.7c6,2.1,13,1.7,17.3-0.6c2.8-1.6,6.4-4.1,8.6-3.5c-1.9-0.8-3.4-1.1-5.1-1.2c-0.3,0-0.7,0-1,0
			c-0.6,0-1.2,0-1.9,0.1c-1.1,0.1-2.3,0.8-3.4,0.7c-0.1,0,1.1-0.5,1-0.4c-0.6,0.1-1.2,0.1-1.9,0.2c-0.4,0-0.8,0.1-1.2,0.1
			c-12.6,1.1-23.2-6.8-23.2-6.8C60.3,116.3,65.3,122.3,72,124.7L72,124.7z"/>
		
			<linearGradient id="SVGID_15_" gradientUnits="userSpaceOnUse" x1="108.0442" y1="262.0916" x2="145.3149" y2="178.7485" gradientTransform="matrix(1 0 0 -1 0 311)">
			<stop  offset="0" style="stop-color:#5FAD29;stop-opacity:0"/>
			<stop  offset="0.2801" style="stop-color:#58AF65;stop-opacity:0.4682"/>
			<stop  offset="0.4985" style="stop-color:#4FB5AC;stop-opacity:0.8334"/>
			<stop  offset="0.5982" style="stop-color:#48B7CA"/>
			<stop  offset="0.6774" style="stop-color:#42B6CC"/>
			<stop  offset="0.7535" style="stop-color:#39B6D5"/>
			<stop  offset="0.8283" style="stop-color:#25B3E6"/>
			<stop  offset="0.9023" style="stop-color:#5496CD"/>
			<stop  offset="0.9751" style="stop-color:#677AB6"/>
			<stop  offset="0.9853" style="stop-color:#6776B3"/>
		</linearGradient>
		<path class="st15" d="M131.6,142.3c12.7-12.5,19.1-27.6,16.4-44.6c0,0,1.1,8.7-3,17.6c2-8.7,2.2-19.5-3-30.7
			c-7-14.9-18.5-22.8-22.9-26.1c-6.7-5-9.4-10-9.5-11.1c-2,4.1-8,18.1-0.6,30.1c6.9,11.3,17.8,14.6,25.4,25
			C148.3,121.5,131.6,142.3,131.6,142.3z"/>
		
			<linearGradient id="SVGID_16_" gradientUnits="userSpaceOnUse" x1="115.3948" y1="214.157" x2="97.7401" y2="166.7541" gradientTransform="matrix(1 0 0 -1 0 311)">
			<stop  offset="0" style="stop-color:#4375B5"/>
			<stop  offset="5.336332e-02" style="stop-color:#4375B5;stop-opacity:0.9466"/>
			<stop  offset="1" style="stop-color:#4375B5;stop-opacity:0"/>
		</linearGradient>
		<path class="st16" d="M129.8,109.8c-4.4-9.2-10-13.2-15.2-17.5c0.6,0.9,0.8,1.2,1.1,1.7c4.6,4.9,11.4,16.9,6.5,32
			c-9.3,28.3-46.5,15-50.4,11.2c1.6,16.4,29,24.2,46.9,13.6C128.8,141.2,137.1,124.8,129.8,109.8z"/>
	</g>
</g>
</svg>
