<?xml version="1.0" encoding="UTF-8" standalone="no"?>
<!DOCTYPE svg PUBLIC "-//W3C//DTD SVG 1.1//EN" "http://www.w3.org/Graphics/SVG/1.1/DTD/svg11.dtd">
<svg width="100%" height="100%" viewBox="0 0 181 209" version="1.1" xmlns="http://www.w3.org/2000/svg" xmlns:xlink="http://www.w3.org/1999/xlink" xml:space="preserve" xmlns:serif="http://www.serif.com/" style="fill-rule:evenodd;clip-rule:evenodd;stroke-linejoin:round;stroke-miterlimit:2;">
    <g id="Background" transform="matrix(0.419759,0,0,0.419759,0,0.348145)">
        <path d="M431.2,125.1L215.6,0.6L0,125.1L0,374.1L215.6,498.5L249,479.3L431.2,374.1L431.2,125.1Z" style="fill:rgb(0,119,255);fill-rule:nonzero;"/>
    </g>
    <g transform="matrix(0.0993611,0,0,0.0993611,40.8195,40.48)">
        <path d="M155.98,1030.5L119.402,1030.5L36.578,905.346L36.578,1030.5L0,1030.5L0,847.867L36.578,847.867L119.402,973.279L119.402,847.867L155.98,847.867L155.98,1030.5Z" style="fill:white;fill-rule:nonzero;"/>
        <path d="M194.514,862.366C190.243,858.276 188.112,853.183 188.112,847.082C188.112,840.99 190.243,835.892 194.514,831.797C198.78,827.707 204.136,825.657 210.582,825.657C217.024,825.657 222.38,827.707 226.651,831.797C230.917,835.892 233.051,840.99 233.051,847.082C233.051,853.183 230.917,858.276 226.651,862.366C222.38,866.461 217.024,868.506 210.582,868.506C204.136,868.506 198.78,866.461 194.514,862.366ZM228.61,885.754L228.61,1030.5L192.032,1030.5L192.032,885.754L228.61,885.754Z" style="fill:white;fill-rule:nonzero;"/>
        <path d="M487.4,899.991C498.283,910.881 503.729,926.078 503.729,945.584L503.729,1030.5L467.152,1030.5L467.152,950.546C467.152,939.225 464.277,930.561 458.529,924.551C452.781,918.542 444.943,915.538 435.015,915.538C425.087,915.538 417.203,918.542 411.37,924.551C405.531,930.561 402.618,939.225 402.618,950.546L402.618,1030.5L366.039,1030.5L366.039,950.546C366.039,939.225 363.164,930.561 357.417,924.551C351.669,918.542 343.831,915.538 333.902,915.538C323.798,915.538 315.83,918.542 309.996,924.551C304.158,930.561 301.243,939.225 301.243,950.546L301.243,1030.5L264.665,1030.5L264.665,885.754L301.243,885.754L301.243,903.258C305.946,897.161 311.997,892.373 319.402,888.889C326.803,885.405 334.948,883.66 343.831,883.66C355.151,883.66 365.255,886.059 374.138,890.847C383.021,895.64 389.9,902.473 394.779,911.356C399.482,902.996 406.315,896.294 415.289,891.239C424.258,886.19 433.969,883.66 444.42,883.66C462.187,883.66 476.512,889.107 487.4,899.991L487.4,899.991Z" style="fill:white;fill-rule:nonzero;"/>
        <path d="M761.211,899.991C772.094,910.881 777.54,926.078 777.54,945.584L777.54,1030.5L740.963,1030.5L740.963,950.546C740.963,939.225 738.088,930.561 732.34,924.551C726.591,918.542 718.754,915.538 708.826,915.538C698.897,915.538 691.014,918.542 685.18,924.551C679.342,930.561 676.428,939.225 676.428,950.546L676.428,1030.5L639.85,1030.5L639.85,950.546C639.85,939.225 636.975,930.561 631.227,924.551C625.48,918.542 617.641,915.538 607.713,915.538C597.609,915.538 589.641,918.542 583.807,924.551C577.969,930.561 575.054,939.225 575.054,950.546L575.054,1030.5L538.476,1030.5L538.476,885.754L575.054,885.754L575.054,903.258C579.757,897.161 585.807,892.373 593.212,888.889C600.613,885.405 608.759,883.66 617.641,883.66C628.962,883.66 639.066,886.059 647.949,890.847C656.832,895.64 663.711,902.473 668.59,911.356C673.293,902.996 680.126,896.294 689.1,891.239C698.068,886.19 707.78,883.66 718.231,883.66C735.998,883.66 750.323,889.107 761.211,899.991L761.211,899.991Z" style="fill:white;fill-rule:nonzero;"/>
        <path d="M811.633,918.673C817.467,907.353 825.391,898.644 835.409,892.543C845.423,886.451 856.613,883.398 868.983,883.398C879.78,883.398 889.231,885.579 897.33,889.931C905.431,894.288 911.917,899.773 916.796,906.393L916.796,885.754L953.635,885.754L953.635,1030.5L916.796,1030.5L916.796,1009.33C912.093,1016.13 905.602,1021.75 897.33,1026.18C889.056,1030.63 879.52,1032.85 868.721,1032.85C856.527,1032.85 845.423,1029.71 835.409,1023.44C825.391,1017.17 817.467,1008.34 811.633,996.923C805.796,985.515 802.881,972.407 802.881,957.602C802.881,942.971 805.796,929.998 811.633,918.673L811.633,918.673ZM911.569,935.261C908.084,928.908 903.381,924.028 897.461,920.631C891.538,917.234 885.181,915.538 878.388,915.538C871.595,915.538 865.324,917.195 859.577,920.5C853.829,923.81 849.166,928.646 845.598,935C842.027,941.363 840.242,948.893 840.242,957.602C840.242,966.315 842.027,973.933 845.598,980.461C849.166,986.993 853.869,992.004 859.708,995.489C865.541,998.973 871.767,1000.71 878.388,1000.71C885.181,1000.71 891.538,999.012 897.461,995.615C903.381,992.222 908.084,987.347 911.569,980.984C915.053,974.631 916.796,967.008 916.796,958.125C916.796,949.242 915.053,941.624 911.569,935.261L911.569,935.261Z" style="fill:white;fill-rule:nonzero;"/>
        <path d="M75.509,1146.63C83.608,1132.44 94.668,1121.38 108.69,1113.45C122.71,1105.53 138.431,1101.57 155.85,1101.57C176.229,1101.57 194.082,1106.79 209.411,1117.24C224.736,1127.69 235.448,1142.15 241.547,1160.61L199.483,1160.61C195.302,1151.91 189.424,1145.37 181.847,1141.02C174.27,1136.66 165.517,1134.48 155.588,1134.48C144.962,1134.48 135.512,1136.97 127.241,1141.93C118.966,1146.89 112.52,1153.91 107.906,1162.96C103.289,1172.02 100.982,1182.65 100.982,1194.84C100.982,1206.86 103.289,1217.44 107.906,1226.59C112.52,1235.73 118.966,1242.78 127.241,1247.75C135.512,1252.71 144.962,1255.19 155.588,1255.19C165.517,1255.19 174.27,1252.97 181.847,1248.53C189.424,1244.09 195.302,1237.52 199.483,1228.8L241.547,1228.8C235.448,1247.44 224.781,1261.95 209.541,1272.31C194.298,1282.67 176.401,1287.85 155.85,1287.85C138.431,1287.85 122.71,1283.89 108.69,1275.96C94.668,1268.04 83.608,1257.02 75.509,1242.91C67.41,1228.8 63.36,1212.78 63.36,1194.84C63.36,1176.9 67.41,1160.83 75.509,1146.63Z" style="fill:white;fill-rule:nonzero;"/>
        <path d="M299.548,1279.36C288.399,1273.18 279.646,1264.43 273.29,1253.1C266.93,1241.78 263.753,1228.72 263.753,1213.91C263.753,1199.11 267.019,1186.05 273.551,1174.72C280.083,1163.4 289.007,1154.65 300.332,1148.46C311.652,1142.28 324.279,1139.18 338.216,1139.18C352.15,1139.18 364.776,1142.28 376.1,1148.46C387.421,1154.65 396.35,1163.4 402.881,1174.72C409.412,1186.05 412.679,1199.11 412.679,1213.91C412.679,1228.72 409.323,1241.78 402.619,1253.1C395.912,1264.43 386.854,1273.18 375.447,1279.36C364.037,1285.55 351.28,1288.63 337.172,1288.63C323.234,1288.63 310.693,1285.55 299.548,1279.36L299.548,1279.36ZM355.852,1251.92C361.686,1248.71 366.344,1243.87 369.831,1237.42C373.313,1230.99 375.056,1223.14 375.056,1213.91C375.056,1200.15 371.438,1189.57 364.213,1182.16C356.982,1174.77 348.144,1171.06 337.694,1171.06C327.243,1171.06 318.49,1174.77 311.435,1182.16C304.382,1189.57 300.854,1200.15 300.854,1213.91C300.854,1227.67 304.292,1238.25 311.175,1245.65C318.054,1253.06 326.72,1256.76 337.172,1256.76C343.789,1256.76 350.014,1255.15 355.852,1251.92L355.852,1251.92Z" style="fill:white;fill-rule:nonzero;"/>
        <path d="M438.932,1174.46C444.766,1163.14 452.735,1154.43 462.839,1148.33C472.939,1142.24 484.173,1139.18 496.543,1139.18C505.949,1139.18 514.918,1141.24 523.454,1145.33C531.986,1149.42 538.779,1154.86 543.834,1161.66L543.834,1092.94L580.934,1092.94L580.934,1286.28L543.834,1286.28L543.834,1264.86C539.302,1272 532.946,1277.75 524.76,1282.1C516.572,1286.45 507.079,1288.63 496.282,1288.63C484.087,1288.63 472.939,1285.5 462.839,1279.23C452.735,1272.96 444.766,1264.12 438.932,1252.71C433.095,1241.3 430.18,1228.19 430.18,1213.39C430.18,1198.76 433.095,1185.79 438.932,1174.46L438.932,1174.46ZM538.869,1191.05C535.383,1184.69 530.68,1179.82 524.76,1176.42C518.837,1173.02 512.48,1171.33 505.687,1171.33C498.894,1171.33 492.624,1172.98 486.876,1176.29C481.129,1179.6 476.465,1184.43 472.898,1190.79C469.326,1197.15 467.541,1204.68 467.541,1213.39C467.541,1222.1 469.326,1229.72 472.898,1236.25C476.465,1242.78 481.169,1247.79 487.007,1251.28C492.84,1254.76 499.066,1256.5 505.687,1256.5C512.48,1256.5 518.837,1254.8 524.76,1251.4C530.68,1248.01 535.383,1243.13 538.869,1236.77C542.352,1230.42 544.095,1222.8 544.095,1213.91C544.095,1205.03 542.352,1197.41 538.869,1191.05L538.869,1191.05Z" style="fill:white;fill-rule:nonzero;"/>
        <path d="M750.236,1224.88L644.422,1224.88C645.29,1235.34 648.949,1243.53 655.394,1249.44C661.837,1255.37 669.764,1258.33 679.171,1258.33C692.757,1258.33 702.423,1252.49 708.172,1240.82L747.624,1240.82C743.443,1254.76 735.43,1266.21 723.586,1275.18C711.74,1284.15 697.198,1288.63 679.954,1288.63C666.017,1288.63 653.521,1285.55 642.461,1279.36C631.399,1273.18 622.776,1264.43 616.595,1253.1C610.41,1241.78 607.321,1228.72 607.321,1213.91C607.321,1198.93 610.366,1185.79 616.466,1174.46C622.56,1163.14 631.096,1154.43 642.07,1148.33C653.043,1142.24 665.671,1139.18 679.954,1139.18C693.712,1139.18 706.036,1142.15 716.924,1148.07C727.808,1154 736.259,1162.4 742.268,1173.28C748.277,1184.17 751.282,1196.67 751.282,1210.78C751.282,1216 750.93,1220.71 750.236,1224.88L750.236,1224.88ZM713.397,1200.32C713.222,1190.92 709.825,1183.39 703.207,1177.73C696.586,1172.07 688.486,1169.24 678.909,1169.24C669.85,1169.24 662.229,1171.98 656.047,1177.46C649.863,1182.95 646.074,1190.57 644.682,1200.32L713.397,1200.32L713.397,1200.32Z" style="fill:white;fill-rule:nonzero;"/>
        <path d="M801.442,1282.23C792.037,1277.97 784.59,1272.18 779.104,1264.86C773.617,1257.54 770.613,1249.44 770.091,1240.56L806.929,1240.56C807.624,1246.14 810.367,1250.75 815.159,1254.41C819.949,1258.07 825.913,1259.9 833.057,1259.9C840.021,1259.9 845.467,1258.5 849.386,1255.71C853.305,1252.93 855.264,1249.36 855.264,1245.01C855.264,1240.3 852.868,1236.77 848.08,1234.42C843.287,1232.07 835.669,1229.5 825.219,1226.71C814.417,1224.1 805.579,1221.4 798.7,1218.61C791.817,1215.83 785.897,1211.56 780.933,1205.81C775.969,1200.06 773.487,1192.32 773.487,1182.56C773.487,1174.55 775.793,1167.23 780.41,1160.61C785.024,1154 791.645,1148.77 800.267,1144.94C808.889,1141.1 819.034,1139.18 830.706,1139.18C847.949,1139.18 861.707,1143.5 871.986,1152.12C882.262,1160.74 887.924,1172.37 888.969,1187L853.958,1187C853.436,1181.25 851.04,1176.68 846.774,1173.28C842.503,1169.88 836.801,1168.19 829.66,1168.19C823.039,1168.19 817.943,1169.41 814.376,1171.85C810.804,1174.29 809.019,1177.68 809.019,1182.03C809.019,1186.91 811.457,1190.62 816.336,1193.14C821.21,1195.67 828.787,1198.24 839.066,1200.85C849.517,1203.46 858.139,1206.16 864.932,1208.94C871.725,1211.74 877.604,1216.04 882.567,1221.88C887.532,1227.72 890.099,1235.42 890.275,1245.01C890.275,1253.36 887.965,1260.86 883.351,1267.47C878.734,1274.1 872.117,1279.28 863.496,1283.02C854.873,1286.76 844.814,1288.63 833.318,1288.63C821.471,1288.63 810.849,1286.5 801.443,1282.23L801.442,1282.23Z" style="fill:white;fill-rule:nonzero;"/>
        <path d="M977.016,0L515.748,0C507.054,0 499.106,4.912 495.218,12.688L427.165,148.794C425.869,151.386 423.22,153.023 420.321,153.023L240.305,153.023C231.612,153.023 223.664,157.936 219.775,165.712L59.101,487.061C51.47,502.323 62.568,520.28 79.631,520.28L236.693,520.28C242.381,520.28 246.08,526.265 243.537,531.353L181.519,655.387C173.889,670.649 184.987,688.606 202.05,688.606L655.702,688.606C664.396,688.606 672.344,683.693 676.232,675.917L745.093,538.196C752.723,522.934 741.626,504.977 724.563,504.977L582.803,504.977C579.904,504.977 577.255,503.34 575.959,500.748L523.708,396.245C520.888,390.606 512.84,390.606 510.021,396.245L457.769,500.748C456.473,503.34 453.824,504.977 450.926,504.977L292.058,504.977C286.37,504.977 282.671,498.992 285.215,493.905L438.238,187.858C439.534,185.266 442.183,183.628 445.081,183.628L588.647,183.628C591.545,183.628 594.195,185.266 595.491,187.858L647.742,292.36C650.561,297.999 658.609,297.999 661.429,292.36L713.68,187.858C714.976,185.266 717.625,183.628 720.524,183.628L908.156,183.628C916.851,183.628 924.798,178.716 928.687,170.94L997.547,33.219C1005.18,17.957 994.08,0 977.016,0L977.016,0Z" style="fill:white;fill-rule:nonzero;"/>
    </g>
</svg>
