<?xml version="1.0" encoding="UTF-8" standalone="no"?>
<svg
   xmlns:dc="http://purl.org/dc/elements/1.1/"
   xmlns:cc="http://creativecommons.org/ns#"
   xmlns:rdf="http://www.w3.org/1999/02/22-rdf-syntax-ns#"
   xmlns:svg="http://www.w3.org/2000/svg"
   xmlns="http://www.w3.org/2000/svg"
   xmlns:sodipodi="http://sodipodi.sourceforge.net/DTD/sodipodi-0.dtd"
   xmlns:inkscape="http://www.inkscape.org/namespaces/inkscape"
   width="100%"
   height="100%"
   viewBox="0 0 181 209"
   version="1.1"
   xml:space="preserve"
   style="fill-rule:evenodd;clip-rule:evenodd;stroke-linejoin:round;stroke-miterlimit:1.41421;"
   id="svg2"
   inkscape:version="0.91 r13725"
   sodipodi:docname="nodemon.svg"
   inkscape:export-filename="/media/LinuxSSD/Projects/Forks/hexbin/hexagons/nodemon.png"
   inkscape:export-xdpi="90"
   inkscape:export-ydpi="90"><metadata
     id="metadata30"><rdf:RDF><cc:Work
         rdf:about=""><dc:format>image/svg+xml</dc:format><dc:type
           rdf:resource="http://purl.org/dc/dcmitype/StillImage" /></cc:Work></rdf:RDF></metadata><defs
     id="defs28" /><sodipodi:namedview
     pagecolor="#ffffff"
     bordercolor="#666666"
     borderopacity="1"
     objecttolerance="10"
     gridtolerance="10"
     guidetolerance="10"
     inkscape:pageopacity="0"
     inkscape:pageshadow="2"
     inkscape:window-width="1920"
     inkscape:window-height="1030"
     id="namedview26"
     showgrid="false"
     inkscape:zoom="4.0287081"
     inkscape:cx="90.5"
     inkscape:cy="104.5"
     inkscape:window-x="0"
     inkscape:window-y="24"
     inkscape:window-maximized="1"
     inkscape:current-layer="svg2" /><path
     inkscape:connector-curvature="0"
     style="fill:#76d04b;fill-opacity:1"
     d="M 0,51.944 90.197,0 181,51.944 181,157.056 90.803,209 0,157.056 0,51.944 Z"
     id="template" /><path
     style="fill:#4f4d3f"
     inkscape:connector-curvature="0"
     id="path4220"
     d="m 142.7717,82.775901 -3.62091,-2.083765 c 5.56801,-8.212652 8.89523,-20.560187 4.72295,-39.020306 0,0 -9.3956,26.332845 -28.28335,25.460591 L 93.474682,54.405524 C 92.640503,53.910589 91.7057,53.655644 90.760701,53.616891 l -0.509893,0 c -0.942956,0.03943 -1.876396,0.294377 -2.722136,0.788633 L 65.410929,67.132421 C 46.525223,68.007395 37.126221,41.67183 37.126221,41.67183 32.951908,60.131267 36.28456,72.478805 41.851217,80.692136 l -3.620231,2.08444 c -1.839009,1.059892 -2.982526,3.02808 -2.982526,5.175057 l 0.108777,76.390607 c 0,1.06601 0.552042,2.05316 1.487522,2.57188 0.913727,0.55206 2.045008,0.55206 2.957372,0 L 69.09983,150.13801 c 1.853961,-1.10136 2.98116,-3.04371 2.98116,-5.1669 l 0,-35.68765 c 0,-2.12794 1.127202,-4.10088 2.973006,-5.15536 l 12.475351,-7.184013 c 0.929362,-0.541163 1.94643,-0.804269 2.984564,-0.804269 1.015025,0 2.058602,0.263106 2.962137,0.803585 l 12.471272,7.184027 c 1.84648,1.05378 2.97776,3.02742 2.97776,5.15467 l 0,35.68764 c 0,2.12321 1.14217,4.0805 2.98457,5.16691 l 29.29022,16.77612 c 0.91917,0.55068 2.06676,0.55068 2.97778,0 0.9076,-0.51873 1.47869,-1.50656 1.47869,-2.57257 l 0.0952,-76.390602 c -0.002,-2.148345 -1.12856,-4.116524 -2.97913,-5.175065 l -6.9e-4,0.0014 z" /></svg>