<?xml version="1.0" encoding="utf-8"?>
<!-- Generator: Adobe Illustrator 17.0.0, SVG Export Plug-In . SVG Version: 6.00 Build 0)  -->
<!DOCTYPE svg PUBLIC "-//W3C//DTD SVG 1.1//EN" "http://www.w3.org/Graphics/SVG/1.1/DTD/svg11.dtd">
<svg version="1.1" id="Layer_1" xmlns="http://www.w3.org/2000/svg" xmlns:xlink="http://www.w3.org/1999/xlink" x="0px" y="0px"
	 width="512px" height="512px" viewBox="0 0 512 512" enable-background="new 0 0 512 512" xml:space="preserve">
<polygon fill="none" stroke="#B72025" stroke-width="10" stroke-miterlimit="10" points="100.992,166.387 256,76.893 
	411.008,166.387 411.008,345.375 256,434.869 100.992,345.375 "/>
<g>
	
		<polyline fill="none" stroke="#2B3990" stroke-width="3" stroke-linecap="round" stroke-linejoin="round" stroke-miterlimit="10" points="
		191.481,371.483 255.74,408.348 320.139,371.483 	"/>
	
		<polyline fill="none" stroke="#2B3990" stroke-width="3" stroke-linecap="round" stroke-linejoin="round" stroke-miterlimit="10" points="
		227.002,371.483 255.74,408.348 284.618,371.483 	"/>
	
		<line fill="none" stroke="#2B3990" stroke-width="3" stroke-linecap="round" stroke-linejoin="round" stroke-miterlimit="10" x1="255.81" y1="371.983" x2="255.81" y2="407.848"/>
</g>
<g>
	
		<polyline fill="none" stroke="#2B3990" stroke-width="3" stroke-linecap="round" stroke-linejoin="round" stroke-miterlimit="10" points="
		320.139,138.669 255.88,101.804 191.481,138.669 	"/>
	
		<polyline fill="none" stroke="#2B3990" stroke-width="3" stroke-linecap="round" stroke-linejoin="round" stroke-miterlimit="10" points="
		284.618,138.669 255.88,101.804 227.002,138.669 	"/>
	
		<line fill="none" stroke="#2B3990" stroke-width="3" stroke-linecap="round" stroke-linejoin="round" stroke-miterlimit="10" x1="255.81" y1="138.169" x2="255.81" y2="102.304"/>
</g>
<circle fill="#2B3990" cx="186.727" cy="368.763" r="1.667"/>
<circle fill="#2B3990" cx="325.223" cy="368.763" r="1.667"/>
<g>
	<g>
		<path fill="#2B3990" d="M219.413,369.122l-0.023-0.032c-0.203-0.287-0.277-0.616-0.243-0.975l0.683-7.207l-3.302,2.337
			c-0.393,0.278-0.947,0.193-1.225-0.201c-0.278-0.392-0.182-0.955,0.211-1.233l4.745-3.358c0.393-0.278,0.955-0.182,1.233,0.211
			l0.023,0.032c0.203,0.287,0.269,0.606,0.243,0.975l-0.683,7.207l3.429-2.427c0.393-0.278,0.955-0.182,1.233,0.211
			c0.278,0.393,0.174,0.944-0.219,1.223l-4.873,3.448C220.253,369.611,219.691,369.515,219.413,369.122z"/>
	</g>
	<g>
		<path fill="#2B3990" d="M251.672,357.523v-0.025c0-2.588,2.016-4.708,4.773-4.708c1.379,0,2.289,0.312,3.109,0.884
			c0.195,0.143,0.416,0.416,0.416,0.806c0,0.546-0.442,0.989-0.989,0.989c-0.286,0-0.468-0.105-0.611-0.209
			c-0.546-0.39-1.132-0.624-1.99-0.624c-1.457,0-2.614,1.288-2.614,2.835v0.026c0,1.665,1.145,2.887,2.758,2.887
			c0.728,0,1.378-0.182,1.885-0.546v-1.3h-1.352c-0.481,0-0.872-0.377-0.872-0.859c0-0.481,0.39-0.87,0.872-0.87h2.289
			c0.559,0,1.001,0.442,1.001,1.001v2.211c0,0.586-0.221,0.988-0.702,1.275c-0.741,0.455-1.821,0.91-3.186,0.91
			C253.623,362.204,251.672,360.214,251.672,357.523z"/>
	</g>
	<g>
		<path fill="#2B3990" d="M290.187,358.696c0.336-0.447,0.956-0.534,1.403-0.198l2.577,1.94c0.831,0.625,1.314,1.347,1.416,2.076
			c0.082,0.583-0.056,1.114-0.431,1.612l-0.016,0.021c-0.618,0.821-1.398,0.949-2.137,0.849c0.599,0.956,0.751,1.835,0.016,2.812
			l-0.016,0.021c-1.001,1.33-2.583,1.181-4.224-0.054l-2.66-2.002c-0.447-0.336-0.534-0.956-0.198-1.403L290.187,358.696z
			 M291.61,363.121c0.706,0.532,1.325,0.64,1.732,0.099l0.016-0.021c0.36-0.478,0.189-1.029-0.487-1.538l-1.579-1.188l-1.158,1.538
			L291.61,363.121z M289.831,366.371c0.706,0.532,1.321,0.603,1.727,0.063l0.016-0.021c0.367-0.488,0.23-1.063-0.59-1.681
			l-1.85-1.392l-1.204,1.6L289.831,366.371z"/>
	</g>
	<g>
		<path fill="#2B3990" d="M199.851,166.461c0-0.645,0.51-1.155,1.155-1.155h0.24c0.555,0,0.885,0.27,1.199,0.675l4.455,5.85v-5.415
			c0-0.63,0.51-1.14,1.14-1.14s1.141,0.51,1.141,1.14v8.355c0,0.645-0.511,1.155-1.155,1.155h-0.075c-0.555,0-0.885-0.27-1.2-0.675
			l-4.619-6.06v5.625c0,0.63-0.51,1.14-1.141,1.14c-0.63,0-1.14-0.51-1.14-1.14V166.461z"/>
		<path fill="#2B3990" d="M211.761,170.646v-0.03c0-2.985,2.354-5.43,5.595-5.43s5.564,2.415,5.564,5.4v0.03
			c0,2.985-2.354,5.43-5.595,5.43C214.086,176.046,211.761,173.631,211.761,170.646z M220.506,170.646v-0.03
			c0-1.8-1.32-3.3-3.181-3.3c-1.859,0-3.149,1.47-3.149,3.27v0.03c0,1.8,1.32,3.3,3.18,3.3
			C219.216,173.916,220.506,172.446,220.506,170.646z"/>
		<path fill="#2B3990" d="M225.5,166.521c0-0.645,0.51-1.155,1.155-1.155h2.939c3.3,0,5.58,2.265,5.58,5.22v0.03
			c0,2.955-2.28,5.25-5.58,5.25h-2.939c-0.646,0-1.155-0.51-1.155-1.155V166.521z M229.595,173.781c1.891,0,3.165-1.275,3.165-3.135
			v-0.03c0-1.86-1.274-3.165-3.165-3.165h-1.784v6.33H229.595z"/>
		<path fill="#2B3990" d="M237.755,174.711v-8.19c0-0.645,0.51-1.155,1.155-1.155h5.819c0.57,0,1.035,0.465,1.035,1.035
			c0,0.57-0.465,1.02-1.035,1.02h-4.68v2.13h4.005c0.57,0,1.035,0.465,1.035,1.035s-0.465,1.02-1.035,1.02h-4.005v2.205h4.755
			c0.57,0,1.035,0.465,1.035,1.035s-0.465,1.02-1.035,1.02h-5.895C238.265,175.866,237.755,175.356,237.755,174.711z"/>
		<path fill="#2B3990" d="M248.12,174.756c-0.255-0.18-0.435-0.51-0.435-0.87c0-0.6,0.479-1.065,1.08-1.065
			c0.3,0,0.51,0.105,0.659,0.21c0.795,0.585,1.665,0.945,2.686,0.945c0.944,0,1.515-0.375,1.515-0.99v-0.03
			c0-0.585-0.36-0.885-2.115-1.335c-2.114-0.54-3.479-1.125-3.479-3.21v-0.03c0-1.905,1.53-3.165,3.675-3.165
			c1.275,0,2.385,0.33,3.33,0.93c0.255,0.15,0.51,0.465,0.51,0.915c0,0.6-0.479,1.065-1.08,1.065c-0.225,0-0.405-0.06-0.585-0.165
			c-0.765-0.45-1.484-0.705-2.205-0.705c-0.885,0-1.35,0.405-1.35,0.915v0.03c0,0.69,0.45,0.915,2.265,1.38
			c2.13,0.555,3.33,1.32,3.33,3.15v0.03c0,2.085-1.59,3.255-3.854,3.255C250.685,176.016,249.29,175.596,248.12,174.756z"/>
		<path fill="#2B3990" d="M257.989,170.646v-0.03c0-2.985,2.25-5.43,5.475-5.43c1.575,0,2.64,0.42,3.51,1.065
			c0.24,0.18,0.45,0.51,0.45,0.915c0,0.63-0.51,1.125-1.14,1.125c-0.315,0-0.525-0.12-0.69-0.225c-0.645-0.48-1.319-0.75-2.145-0.75
			c-1.771,0-3.045,1.47-3.045,3.27v0.03c0,1.8,1.245,3.3,3.045,3.3c0.975,0,1.62-0.3,2.279-0.825c0.181-0.15,0.421-0.255,0.69-0.255
			c0.585,0,1.08,0.48,1.08,1.065c0,0.36-0.18,0.645-0.39,0.825c-0.945,0.825-2.056,1.32-3.735,1.32
			C260.284,176.046,257.989,173.661,257.989,170.646z"/>
		<path fill="#2B3990" d="M270.05,166.431c0-0.645,0.51-1.155,1.155-1.155c0.645,0,1.155,0.51,1.155,1.155v3.09h4.26v-3.09
			c0-0.645,0.51-1.155,1.154-1.155c0.646,0,1.155,0.51,1.155,1.155v8.37c0,0.645-0.51,1.155-1.155,1.155
			c-0.645,0-1.154-0.51-1.154-1.155v-3.15h-4.26v3.15c0,0.645-0.511,1.155-1.155,1.155c-0.646,0-1.155-0.51-1.155-1.155V166.431z"/>
		<path fill="#2B3990" d="M281.51,170.646v-0.03c0-2.985,2.354-5.43,5.595-5.43s5.564,2.415,5.564,5.4v0.03
			c0,2.985-2.354,5.43-5.595,5.43C283.835,176.046,281.51,173.631,281.51,170.646z M290.255,170.646v-0.03c0-1.8-1.32-3.3-3.181-3.3
			c-1.859,0-3.149,1.47-3.149,3.27v0.03c0,1.8,1.32,3.3,3.18,3.3C288.965,173.916,290.255,172.446,290.255,170.646z"/>
		<path fill="#2B3990" d="M294.785,170.646v-0.03c0-2.985,2.354-5.43,5.595-5.43s5.564,2.415,5.564,5.4v0.03
			c0,2.985-2.354,5.43-5.595,5.43C297.11,176.046,294.785,173.631,294.785,170.646z M303.53,170.646v-0.03c0-1.8-1.32-3.3-3.181-3.3
			c-1.859,0-3.149,1.47-3.149,3.27v0.03c0,1.8,1.32,3.3,3.18,3.3C302.24,173.916,303.53,172.446,303.53,170.646z"/>
		<path fill="#2B3990" d="M308.524,166.431c0-0.645,0.51-1.155,1.155-1.155c0.645,0,1.155,0.51,1.155,1.155v7.334h4.274
			c0.585,0,1.05,0.465,1.05,1.05s-0.465,1.05-1.05,1.05h-5.43c-0.646,0-1.155-0.51-1.155-1.155V166.431z"/>
	</g>
</g>
<polygon fill="none" stroke="#2B3990" stroke-width="3.75" stroke-linecap="square" stroke-linejoin="round" stroke-miterlimit="10" points="
	294.546,190.757 284.684,254.533 284.684,317.41 305.353,317.41 305.353,254.533 "/>
<polygon fill="none" stroke="#2B3990" stroke-width="3.75" stroke-linecap="square" stroke-linejoin="round" stroke-miterlimit="10" points="
	332.895,190.757 323.034,254.533 323.034,317.41 343.703,317.41 343.703,254.533 "/>
<polyline fill="none" stroke="#2B3990" stroke-width="3.75" stroke-linecap="round" stroke-linejoin="round" stroke-miterlimit="10" points="
	305.353,278.721 314.02,262.584 323.034,278.721 "/>
<g>
	
		<path fill="none" stroke="#2B3990" stroke-width="3.5" stroke-linecap="square" stroke-linejoin="round" stroke-miterlimit="10" d="
		M134.007,330.725c11.05,0,11.05,8,22.099,8c11.051,0,11.051-8,22.103-8c11.05,0,11.05,8,22.099,8c11.051,0,11.051-8,22.101-8
		c11.051,0,11.051,8,22.102,8c11.052,0,11.052-8,22.105-8c11.052,0,11.053,8,22.105,8c11.052,0,11.052-8,22.105-8
		c11.053,0,11.053,8,22.106,8c11.054,0,11.054-8,22.109-8s11.054,8,22.109,8"/>
</g>
<line fill="none" stroke="#2B3990" stroke-width="4" stroke-linecap="square" stroke-linejoin="round" stroke-miterlimit="10" x1="377.15" y1="317.41" x2="134.135" y2="317.41"/>
<circle fill="#2B3990" cx="295.019" cy="246.022" r="3.305"/>
<circle fill="#2B3990" cx="292.164" cy="263.132" r="1.727"/>
<circle fill="#2B3990" cx="297.874" cy="263.132" r="1.727"/>
<circle fill="#2B3990" cx="333.368" cy="246.022" r="3.305"/>
<circle fill="#2B3990" cx="314.194" cy="293.306" r="3.792"/>
<rect x="292.164" y="303.258" fill="#2B3990" width="5.709" height="14.152"/>
<rect x="311.339" y="308.661" fill="#2B3990" width="5.709" height="8.748"/>
<rect x="293.292" y="294.882" fill="#2B3990" width="3.453" height="4.779"/>
<rect x="293.292" y="287.124" fill="#2B3990" width="3.453" height="4.779"/>
<rect x="290.438" y="263.132" fill="#2B3990" width="3.453" height="15.296"/>
<rect x="296.147" y="263.132" fill="#2B3990" width="3.453" height="15.296"/>
<circle fill="#2B3990" cx="330.514" cy="263.132" r="1.727"/>
<circle fill="#2B3990" cx="336.223" cy="263.132" r="1.727"/>
<rect x="328.787" y="263.132" fill="#2B3990" width="3.453" height="15.296"/>
<rect x="334.496" y="263.132" fill="#2B3990" width="3.453" height="15.296"/>
<rect x="331.642" y="294.882" fill="#2B3990" width="3.453" height="4.779"/>
<rect x="331.642" y="287.124" fill="#2B3990" width="3.453" height="4.779"/>
<rect x="330.514" y="303.258" fill="#2B3990" width="5.709" height="14.152"/>
<path fill="#2B3990" d="M314.197,303.176c2.882,0.354,2.857,5.485,2.857,5.485h-2.857"/>
<path fill="#2B3990" d="M314.197,303.176c-2.882,0.354-2.857,5.485-2.857,5.485h2.857"/>
<polyline fill="none" stroke="#2B3990" stroke-width="4" stroke-linecap="square" stroke-linejoin="round" stroke-miterlimit="10" points="
	134.135,245.24 149.704,239.569 170.496,222.422 187.568,222.422 215.144,209.124 227.002,209.124 246.105,213.106 260.347,218.479 
	284.684,222.422 288.708,223.379 "/>
<polyline fill="none" stroke="#2B3990" stroke-width="4" stroke-linecap="square" stroke-linejoin="round" stroke-miterlimit="10" points="
	302.021,225.83 314.194,230.638 325.223,234.93 "/>
<polyline fill="none" stroke="#2B3990" stroke-width="4" stroke-linecap="square" stroke-linejoin="round" stroke-miterlimit="10" points="
	343.135,243.24 354.476,248.833 377.15,243.577 "/>
<path fill="none" stroke="#000000" stroke-width="4" stroke-linecap="square" stroke-linejoin="round" stroke-miterlimit="10" d="
	M191.779,236.846"/>
<path fill="none" stroke="#000000" stroke-width="4" stroke-linecap="round" stroke-linejoin="round" stroke-miterlimit="10" d="
	M213.051,275.003"/>
<g>
	<path fill="#2B3990" d="M224.722,316.25c1.758-3.906,2.689-6.686,3.159-9.25c0.47-2.567,0.462-4.808,0.464-7.573
		c0-1.088,0.02-2.335,0.02-3.68c-0.001-2.692-0.077-5.774-0.577-8.861c-0.503-3.084-1.428-6.198-3.223-8.905
		c-0.612-0.92-1.853-1.17-2.773-0.558c-0.92,0.612-1.17,1.853-0.558,2.773c1.355,2.032,2.164,4.597,2.606,7.332
		c0.445,2.732,0.526,5.61,0.526,8.22c0,1.306-0.02,2.546-0.02,3.68c0.001,2.79-0.006,4.721-0.398,6.852
		c-0.391,2.133-1.184,4.577-2.872,8.33c-0.453,1.007-0.004,2.191,1.003,2.645C223.085,317.707,224.269,317.257,224.722,316.25
		L224.722,316.25z"/>
	<path fill="#2B3990" d="M211.889,280.195c0.407,0.603,0.818,1.601,1.134,2.822c0.482,1.834,0.777,4.156,0.936,6.489
		c0.161,2.336,0.195,4.688,0.195,6.645c0,1.307-0.015,2.435-0.015,3.29c0.001,2.08-0.002,4.615-0.31,7.297
		c-0.306,2.681-0.918,5.495-2.099,8.115c-0.453,1.007-0.004,2.191,1.003,2.645c1.007,0.453,2.191,0.004,2.645-1.003
		c1.405-3.124,2.085-6.343,2.425-9.301c0.339-2.957,0.336-5.666,0.336-7.753c0-0.811,0.015-1.956,0.015-3.29
		c-0.001-2.673-0.058-6.112-0.426-9.403c-0.185-1.647-0.447-3.259-0.836-4.745c-0.393-1.486-0.898-2.85-1.672-4.024
		c-0.612-0.92-1.853-1.17-2.773-0.558C211.528,278.034,211.278,279.275,211.889,280.195L211.889,280.195z"/>
	<path fill="#2B3990" d="M202.546,280.195c0.03,0.037,0.163,0.3,0.28,0.694c0.215,0.695,0.42,1.783,0.574,3.045
		c0.472,3.809,0.547,9.204,0.545,12.622c0,1.307-0.01,2.326-0.01,2.901c0,1.381-0.001,4.496-0.211,7.706
		c-0.105,1.603-0.263,3.227-0.49,4.642c-0.222,1.41-0.538,2.625-0.845,3.294c-0.453,1.007-0.004,2.191,1.003,2.645
		c1.007,0.453,2.191,0.004,2.645-1.003c0.554-1.245,0.885-2.698,1.147-4.3c0.384-2.394,0.566-5.098,0.66-7.486
		c0.093-2.384,0.092-4.452,0.092-5.498c0-0.536,0.01-1.577,0.01-2.901c0-2.653-0.039-6.46-0.28-9.957
		c-0.122-1.751-0.292-3.422-0.548-4.87c-0.129-0.725-0.277-1.396-0.466-2.012c-0.193-0.618-0.41-1.181-0.774-1.736
		c-0.612-0.92-1.853-1.17-2.773-0.558C202.184,278.034,201.935,279.275,202.546,280.195L202.546,280.195z"/>
	<path fill="#2B3990" d="M193.203,280.195l0.995-0.662l-1.108,0.455C193.103,280.018,193.127,280.079,193.203,280.195l0.995-0.662
		l-1.108,0.455l0.35-0.144l-0.358,0.123l0.008,0.021l0.35-0.144l-0.358,0.123c0.008,0.008,0.086,0.326,0.141,0.751
		c0.105,0.758,0.198,1.915,0.268,3.251c0.212,4.025,0.245,9.726,0.244,12.99c0,1.308-0.005,2.219-0.005,2.511
		c0,0.688,0,4.367-0.107,8.092c-0.053,1.86-0.134,3.734-0.25,5.224c-0.058,0.743-0.126,1.392-0.198,1.872
		c-0.035,0.239-0.072,0.435-0.103,0.565l-0.036,0.136l-0.005,0.015l0.46,0.169l-0.446-0.201l-0.013,0.032l0.46,0.169l-0.446-0.201
		c-0.453,1.007-0.004,2.191,1.003,2.645c1.007,0.453,2.191,0.004,2.645-1.003c0.14-0.316,0.209-0.576,0.276-0.856
		c0.119-0.517,0.2-1.089,0.274-1.754c0.251-2.304,0.366-5.701,0.428-8.719c0.06-3.009,0.06-5.611,0.06-6.186
		c0-0.264,0.005-1.198,0.005-2.511c0-2.632-0.02-6.817-0.139-10.522c-0.06-1.855-0.144-3.585-0.268-4.973
		c-0.063-0.696-0.134-1.304-0.227-1.834c-0.048-0.267-0.1-0.513-0.173-0.766c-0.081-0.256-0.152-0.508-0.394-0.885
		c-0.612-0.92-1.853-1.17-2.773-0.558C192.841,278.034,192.591,279.275,193.203,280.195L193.203,280.195z"/>
	<path fill="#2B3990" d="M183.525,279.088v37.322c0,1.105,0.895,2,2,2c1.105,0,2-0.895,2-2v-37.322c0-1.105-0.895-2-2-2
		C184.421,277.088,183.525,277.983,183.525,279.088"/>
	<path fill="#2B3990" d="M146.655,278.267c-1.758,3.906-2.689,6.686-3.159,9.25c-0.47,2.567-0.462,4.808-0.464,7.573
		c0,1.088-0.02,2.335-0.02,3.68c0.001,2.692,0.077,5.774,0.577,8.861c0.503,3.084,1.428,6.198,3.223,8.905
		c0.612,0.92,1.853,1.17,2.773,0.558c0.92-0.612,1.17-1.853,0.558-2.773c-1.355-2.032-2.164-4.597-2.606-7.332
		c-0.445-2.732-0.526-5.61-0.526-8.22c0-1.306,0.02-2.546,0.02-3.68c-0.001-2.79,0.006-4.721,0.398-6.852
		c0.391-2.133,1.184-4.577,2.872-8.33c0.453-1.007,0.004-2.191-1.003-2.645C148.292,276.81,147.108,277.26,146.655,278.267
		L146.655,278.267z"/>
	<path fill="#2B3990" d="M155.917,278.242c-1.405,3.124-2.085,6.343-2.425,9.301c-0.339,2.957-0.336,5.666-0.336,7.753
		c0,0.811-0.015,1.956-0.015,3.29c0.001,2.673,0.058,6.112,0.426,9.403c0.185,1.647,0.447,3.259,0.836,4.745
		c0.393,1.486,0.898,2.85,1.673,4.024c0.612,0.92,1.853,1.17,2.773,0.558c0.92-0.612,1.17-1.853,0.558-2.773
		c-0.407-0.604-0.818-1.601-1.134-2.822c-0.482-1.834-0.777-4.156-0.936-6.489c-0.161-2.335-0.195-4.688-0.195-6.645
		c0-1.307,0.015-2.435,0.015-3.29c-0.001-2.08,0.002-4.615,0.31-7.297c0.306-2.681,0.918-5.495,2.099-8.115
		c0.453-1.007,0.004-2.191-1.003-2.645C157.554,276.785,156.37,277.234,155.917,278.242L155.917,278.242z"/>
	<path fill="#2B3990" d="M165.178,278.216c-0.554,1.245-0.885,2.698-1.147,4.3c-0.384,2.394-0.566,5.098-0.66,7.486
		c-0.093,2.384-0.092,4.452-0.092,5.498c0,0.536-0.01,1.577-0.01,2.901c0,2.653,0.039,6.46,0.28,9.957
		c0.122,1.751,0.292,3.422,0.548,4.87c0.129,0.726,0.277,1.396,0.466,2.012c0.193,0.618,0.41,1.181,0.774,1.736
		c0.612,0.92,1.853,1.17,2.773,0.558c0.92-0.612,1.17-1.853,0.558-2.773c-0.03-0.037-0.163-0.3-0.28-0.694
		c-0.215-0.695-0.42-1.783-0.574-3.045c-0.472-3.809-0.547-9.204-0.545-12.622c0-1.307,0.01-2.326,0.01-2.901
		c0-1.381,0.001-4.496,0.211-7.707c0.105-1.603,0.263-3.227,0.49-4.642c0.222-1.41,0.538-2.625,0.845-3.294
		c0.453-1.007,0.004-2.191-1.003-2.645C166.815,276.76,165.631,277.209,165.178,278.216L165.178,278.216z"/>
	<path fill="#2B3990" d="M174.44,278.191c-0.14,0.316-0.209,0.576-0.276,0.856c-0.119,0.517-0.2,1.089-0.274,1.754
		c-0.251,2.304-0.366,5.701-0.428,8.719c-0.06,3.009-0.06,5.611-0.06,6.186c0,0.264-0.005,1.198-0.005,2.511
		c0,2.632,0.02,6.817,0.139,10.522c0.06,1.855,0.144,3.585,0.268,4.973c0.063,0.696,0.134,1.304,0.227,1.834
		c0.048,0.267,0.1,0.513,0.173,0.766c0.081,0.256,0.152,0.508,0.394,0.885c0.612,0.92,1.853,1.17,2.773,0.558
		c0.92-0.612,1.17-1.853,0.558-2.773l-0.995,0.661l1.107-0.455c-0.013-0.029-0.037-0.09-0.113-0.206l-0.995,0.662l1.107-0.455
		l-0.35,0.144l0.358-0.123l-0.008-0.021l-0.35,0.144l0.358-0.123c-0.008-0.008-0.086-0.326-0.141-0.751
		c-0.105-0.758-0.198-1.915-0.268-3.251c-0.212-4.025-0.245-9.726-0.244-12.99c0-1.308,0.005-2.22,0.005-2.511
		c0-0.688,0-4.367,0.107-8.092c0.053-1.86,0.134-3.734,0.25-5.224c0.058-0.743,0.126-1.392,0.198-1.872
		c0.035-0.239,0.072-0.435,0.103-0.565l0.036-0.136l0.005-0.015l-0.459-0.169l0.446,0.201l0.013-0.032l-0.459-0.169l0.446,0.201
		c0.453-1.007,0.004-2.191-1.003-2.645C176.077,276.735,174.893,277.184,174.44,278.191L174.44,278.191z"/>
	<path fill="#2B3990" d="M183.525,278.986v37.322c0,1.105,0.895,2,2,2c1.105,0,2-0.895,2-2v-37.322c0-1.105-0.895-2-2-2
		C184.421,276.986,183.525,277.882,183.525,278.986"/>
</g>
<polyline fill="none" stroke="#2B3990" stroke-width="3.5" stroke-linecap="round" stroke-linejoin="round" stroke-miterlimit="10" points="
	203.358,254.594 203.358,236.93 216.038,236.93 216.038,246.599 228.886,246.599 234.025,238.262 238.137,246.599 249.684,246.599 
	249.684,255.844 "/>
<polyline fill="none" stroke="#2B3990" stroke-width="3.5" stroke-linecap="round" stroke-linejoin="round" stroke-miterlimit="10" points="
	190.316,255.844 197.568,255.132 206.427,257.632 215.526,253.57 220.807,257.632 225.477,255.601 231.109,257.632 238.445,253.57 
	242.373,257.632 255.935,255.132 260.077,255.844 "/>
<line fill="none" stroke="#2B3990" stroke-width="3.5" stroke-linecap="round" stroke-linejoin="round" stroke-miterlimit="10" x1="225.894" y1="194.532" x2="225.894" y2="209.124"/>
<path fill="none" stroke="#2B3990" stroke-width="3.5" stroke-linecap="square" stroke-linejoin="round" stroke-miterlimit="10" d="
	M349.053,194.532c7.978,0,10.242,7.296,10.242,7.296s3.046-7.296,10.89-7.296"/>
<path fill="none" stroke="#2B3990" stroke-width="3.5" stroke-linecap="square" stroke-linejoin="round" stroke-miterlimit="10" d="
	M360.078,213.136c6.196,0,7.954,5.666,7.954,5.666s2.366-5.666,8.457-5.666"/>
</svg>
