<?xml version="1.0" encoding="utf-8"?>
<!-- Generator: Adobe Illustrator 15.0.0, SVG Export Plug-In . SVG Version: 6.00 Build 0)  -->
<!DOCTYPE svg PUBLIC "-//W3C//DTD SVG 1.1//EN" "http://www.w3.org/Graphics/SVG/1.1/DTD/svg11.dtd">
<svg version="1.1" xmlns="http://www.w3.org/2000/svg" xmlns:xlink="http://www.w3.org/1999/xlink" x="0px" y="0px"
	 width="125.302px" height="144px" viewBox="0 0 125.302 144" enable-background="new 0 0 125.302 144" xml:space="preserve">
<g id="Layer_1">
</g>
<g id="Layer_3">
	<path id="Cut_Path_1_" display="none" fill="none" stroke="#ED1C24" stroke-width="0.25" stroke-miterlimit="10" d="
		M124.192,35.188L63.76,0.297c-0.687-0.396-1.531-0.396-2.218,0L1.108,35.188C0.422,35.584,0,36.316,0,37.108v69.785
		c0,0.793,0.422,1.523,1.108,1.92l60.434,34.893c0.343,0.197,0.726,0.295,1.108,0.295s0.766-0.098,1.109-0.295l60.433-34.893
		c0.687-0.396,1.109-1.127,1.109-1.92V37.108C125.302,36.316,124.879,35.584,124.192,35.188z"/>
	<path id="Cut_Path" d="M124.192,35.188L63.76,0.297c-0.687-0.396-1.531-0.396-2.218,0L1.108,35.188C0.422,35.584,0,36.316,0,37.108
		v69.785c0,0.793,0.422,1.523,1.108,1.92l60.434,34.893c0.343,0.197,0.726,0.295,1.108,0.295s0.766-0.098,1.109-0.295l60.433-34.893
		c0.687-0.396,1.109-1.127,1.109-1.92V37.108C125.302,36.316,124.879,35.584,124.192,35.188z"/>
	<g display="none">
		<g display="inline">
			<path display="none" fill="#010101" d="M124.192,35.188L63.76,0.297c-0.687-0.396-1.531-0.396-2.218,0L1.108,35.188
				C0.422,35.584,0,36.316,0,37.108v69.785c0,0.793,0.422,1.523,1.108,1.92l60.434,34.893c0.343,0.197,0.726,0.295,1.108,0.295
				s0.766-0.098,1.109-0.295l60.433-34.893c0.687-0.396,1.109-1.127,1.109-1.92V37.108
				C125.302,36.316,124.879,35.584,124.192,35.188z"/>
			<path d="M62.65,144.125c-0.412,0-0.816-0.107-1.171-0.312L1.046,108.921c-0.722-0.417-1.171-1.194-1.171-2.028V37.108
				c0-0.834,0.449-1.611,1.171-2.028L61.479,0.189c0.712-0.411,1.631-0.411,2.343,0l60.433,34.891
				c0.723,0.417,1.172,1.195,1.172,2.028v69.785c0,0.834-0.449,1.61-1.172,2.028l-60.433,34.893
				C63.467,144.018,63.062,144.125,62.65,144.125z M62.651,0.125c-0.367,0-0.729,0.097-1.046,0.281L1.171,35.296
				c-0.645,0.373-1.046,1.066-1.046,1.812v69.785c0,0.745,0.401,1.439,1.046,1.812l60.434,34.893c0.633,0.363,1.459,0.364,2.093,0
				l60.432-34.893c0.646-0.373,1.047-1.067,1.047-1.812V37.108c0-0.745-0.401-1.439-1.047-1.812L63.697,0.406
				C63.379,0.222,63.018,0.125,62.651,0.125z"/>
		</g>
		<g display="inline">
			<polygon fill="#FFFFFF" points="120.49,105.497 62.477,138.991 4.464,105.497 4.464,38.505 62.477,5.012 120.49,38.505 			"/>
			<path d="M62.477,139.135l-0.063-0.036l-58.075-33.53V38.433l0.063-0.036L62.477,4.868l0.063,0.036l58.076,33.529v67.136
				l-0.063,0.036L62.477,139.135z M4.589,105.424l57.888,33.422l57.889-33.422V38.578L62.477,5.157L4.589,38.578V105.424z"/>
		</g>
	</g>
	<polygon fill="#FFFFFF" points="5.667,104.801 5.667,39.201 62.477,6.403 119.285,39.201 119.285,104.801 62.477,137.6 	"/>
	<g>
		<circle display="none" fill="#E23D33" cx="24.845" cy="23.711" r="32.529"/>
		<g>
			<defs>
				<polygon id="SVGID_1_" points="5.667,104.801 5.667,39.201 62.477,6.403 119.285,39.201 119.285,104.801 62.477,137.6 				"/>
			</defs>
			<clipPath id="SVGID_2_">
				<use xlink:href="#SVGID_1_"  overflow="visible"/>
			</clipPath>
			<path clip-path="url(#SVGID_2_)" fill="#E23D33" d="M26.952,55.199c-17.272,0-31.325-14.052-31.325-31.325
				C-4.373,6.602,9.68-7.45,26.952-7.45S58.277,6.602,58.277,23.874C58.277,41.146,44.225,55.199,26.952,55.199z"/>
		</g>
	</g>
	<rect x="21.146" y="48.964" fill="#FFFFFF" width="16.632" height="13.121"/>
	<rect x="23.458" y="41.029" fill="#FFFFFF" width="12.332" height="7.772"/>
	<ellipse fill="#FFFFFF" cx="29.598" cy="40.209" rx="6.18" ry="4.705"/>
	<g>
		<rect x="86.555" y="62.155" width="1.199" height="39.193"/>
		<rect x="103.279" y="62.155" width="1.199" height="44.041"/>
		<path d="M95.468,58.863c-1.937,0-3.512-1.575-3.512-3.51c0-1.937,1.575-3.513,3.512-3.513c1.938,0,3.513,1.576,3.513,3.513
			C98.98,57.289,97.405,58.863,95.468,58.863z M95.468,53.041c-1.274,0-2.313,1.038-2.313,2.313c0,1.273,1.038,2.31,2.313,2.31
			c1.275,0,2.313-1.036,2.313-2.31C97.781,54.078,96.743,53.041,95.468,53.041z"/>
		<path d="M97.977,77.829H92.96c-0.331,0-0.6-0.269-0.6-0.6v-8.31c0-0.332,0.269-0.6,0.6-0.6h5.017c0.331,0,0.6,0.269,0.6,0.6v8.31
			C98.576,77.56,98.308,77.829,97.977,77.829z M93.56,76.629h3.817v-7.11H93.56V76.629z"/>
		<path d="M103.784,62.755c-0.331,0-0.6-0.269-0.6-0.6V49.634H87.754v12.521c0,0.332-0.269,0.6-0.6,0.6s-0.6-0.269-0.6-0.6V49.034
			c0-0.332,0.269-0.6,0.6-0.6h16.63c0.331,0,0.6,0.269,0.6,0.6v13.121C104.384,62.486,104.115,62.755,103.784,62.755z"/>
		<rect x="115.722" y="66.191" width="1.199" height="39.495"/>
		<path d="M115.541,66.178l-1.199-0.007c0.001-0.313-0.061-7.671-7.508-7.811h-2.955v-1.2h2.966
			C115.498,57.322,115.542,66.09,115.541,66.178z"/>
		<path d="M97.978,96.987H92.96c-0.331,0-0.6-0.269-0.6-0.6v-8.311c0-0.331,0.269-0.6,0.6-0.6h5.018c0.331,0,0.6,0.269,0.6,0.6
			v8.311C98.577,96.718,98.309,96.987,97.978,96.987z M93.56,95.788h3.818v-7.111H93.56V95.788z"/>
		<path d="M112.793,98.366h-5.017c-0.331,0-0.6-0.269-0.6-0.6v-8.309c0-0.331,0.269-0.6,0.6-0.6h5.017c0.331,0,0.6,0.269,0.6,0.6
			v8.309C113.393,98.097,113.124,98.366,112.793,98.366z M108.376,97.167h3.817v-7.109h-3.817V97.167z"/>
		<path d="M112.793,82.754h-5.017c-0.331,0-0.6-0.269-0.6-0.6v-8.313c0-0.331,0.269-0.6,0.6-0.6h5.017c0.331,0,0.6,0.269,0.6,0.6
			v8.313C113.393,82.486,113.124,82.754,112.793,82.754z M108.376,81.555h3.817v-7.113h-3.817V81.555z"/>
		<polygon points="102.233,48.872 101.034,48.872 101.034,41.698 89.902,41.698 89.902,48.872 88.703,48.872 88.703,41.098 
			89.303,40.498 101.634,40.498 102.233,41.098 		"/>
		<path d="M102.222,41.698h-1.199v-0.6c0-2.753-2.489-4.994-5.549-4.994c-3.059,0-5.547,2.24-5.547,4.994v0.6h-1.199v-0.6
			c0-3.415,3.026-6.194,6.746-6.194c3.721,0,6.748,2.779,6.748,6.194V41.698z"/>
		<path d="M95.468,36.035c-0.331,0-0.6-0.269-0.6-0.6v-5.852c0-0.332,0.269-0.6,0.6-0.6s0.6,0.269,0.6,0.6v5.852
			C96.067,35.766,95.799,36.035,95.468,36.035z"/>
		<path d="M89.162,103.848h-1.199v-1.971H36.968v1.898h-1.2v-2.498c0-0.331,0.269-0.6,0.6-0.6h52.194c0.331,0,0.6,0.269,0.6,0.6
			V103.848z"/>
		<path d="M90.279,107.649H34.651c-0.332,0-0.6-0.269-0.6-0.6v-2.863c0-0.159,0.063-0.313,0.176-0.425
			c0.112-0.112,0.265-0.175,0.424-0.175c0,0,0.001,0,0.001,0l31.542,0.07h24.085c0.331,0,0.6,0.269,0.6,0.6v2.793
			C90.879,107.38,90.61,107.649,90.279,107.649z M35.251,106.45H89.68v-1.594H66.193l-30.942-0.068V106.45z"/>
		<rect x="90.279" y="105.086" width="33.131" height="1.199"/>
		<rect x="1.52" y="105.018" width="33.132" height="1.199"/>
		<rect x="38.344" y="69.773" width="48.244" height="1.2"/>
		<rect x="37.178" y="62.086" width="1.2" height="39.192"/>
		<rect x="20.451" y="62.086" width="1.2" height="43.532"/>
		<path d="M106.409,62.684H18.52c-0.332,0-0.6-0.269-0.6-0.6s0.269-0.6,0.6-0.6h87.889c0.331,0,0.6,0.269,0.6,0.6
			S106.74,62.684,106.409,62.684z"/>
		<path d="M29.461,58.795c-1.937,0-3.513-1.576-3.513-3.512s1.576-3.512,3.513-3.512c1.937,0,3.512,1.575,3.512,3.512
			S31.398,58.795,29.461,58.795z M29.461,52.971c-1.275,0-2.313,1.037-2.313,2.312c0,1.275,1.037,2.312,2.313,2.312
			c1.275,0,2.312-1.037,2.312-2.312C31.773,54.008,30.736,52.971,29.461,52.971z"/>
		<path d="M31.97,77.758h-5.018c-0.332,0-0.6-0.269-0.6-0.6V68.85c0-0.332,0.269-0.6,0.6-0.6h5.018c0.332,0,0.6,0.269,0.6,0.6v8.309
			C32.57,77.49,32.302,77.758,31.97,77.758z M27.552,76.559h3.818V69.45h-3.818V76.559z"/>
		<path d="M37.778,62.686c-0.332,0-0.6-0.269-0.6-0.6V49.564H21.746v12.521c0,0.332-0.269,0.6-0.6,0.6s-0.6-0.269-0.6-0.6V48.964
			c0-0.332,0.269-0.6,0.6-0.6h16.632c0.332,0,0.6,0.269,0.6,0.6v13.122C38.378,62.417,38.109,62.686,37.778,62.686z"/>
		<path d="M40.938,62.161l-1.19-0.15c1.552-12.303,11.319-21.582,22.717-21.582c11.4,0,21.167,9.277,22.718,21.58l-1.191,0.15
			c-1.476-11.704-10.73-20.53-21.527-20.53C51.669,41.629,42.415,50.456,40.938,62.161z"/>
		<path d="M48.815,62.227l-1.166-0.285c2.012-8.218,7.967-13.74,14.816-13.74c6.848,0,12.802,5.521,14.816,13.738l-1.166,0.285
			c-1.879-7.67-7.364-12.823-13.65-12.823C56.179,49.401,50.693,54.555,48.815,62.227z"/>
		<rect x="8.01" y="66.123" width="1.2" height="38.834"/>
		<path d="M20.749,66.723H7.304c-0.332,0-0.6-0.269-0.6-0.6s0.269-0.6,0.6-0.6h13.445c0.332,0,0.6,0.269,0.6,0.6
			S21.081,66.723,20.749,66.723z"/>
		<path d="M9.389,66.109c0-0.088,0.042-8.854,8.686-9.019h2.977v1.2h-2.965c-7.438,0.141-7.498,7.498-7.497,7.812L9.389,66.109z"/>
		<path d="M31.97,96.917h-5.018c-0.332,0-0.6-0.269-0.6-0.6v-8.309c0-0.331,0.269-0.6,0.6-0.6h5.018c0.332,0,0.6,0.269,0.6,0.6
			v8.309C32.57,96.648,32.302,96.917,31.97,96.917z M27.552,95.717h3.818v-7.109h-3.818V95.717z"/>
		<path d="M17.154,98.295h-5.017c-0.332,0-0.6-0.269-0.6-0.6v-8.307c0-0.331,0.269-0.6,0.6-0.6h5.017c0.332,0,0.6,0.269,0.6,0.6
			v8.307C17.754,98.027,17.485,98.295,17.154,98.295z M12.737,97.096h3.817v-7.107h-3.817V97.096z"/>
		<path d="M17.154,82.684h-5.017c-0.332,0-0.6-0.269-0.6-0.6v-8.309c0-0.331,0.269-0.6,0.6-0.6h5.017c0.332,0,0.6,0.269,0.6,0.6
			v8.309C17.754,82.416,17.485,82.684,17.154,82.684z M12.737,81.485h3.817v-7.109h-3.817V81.485z"/>
		<path d="M36.228,48.801h-1.2v-7.172H23.896v7.172h-1.2v-7.772c0-0.332,0.269-0.6,0.6-0.6h12.332c0.332,0,0.6,0.269,0.6,0.6V48.801
			z"/>
		<path d="M36.212,41.629h-1.2v-0.6c0-2.754-2.491-4.994-5.553-4.994c-3.062,0-5.552,2.24-5.552,4.994v0.6h-1.2v-0.6
			c0-3.416,3.029-6.194,6.752-6.194c3.724,0,6.753,2.779,6.753,6.194V41.629z"/>
		<path d="M29.436,36.035c-0.332,0-0.6-0.269-0.6-0.6v-5.853c0-0.332,0.269-0.6,0.6-0.6s0.6,0.269,0.6,0.6v5.853
			C30.036,35.767,29.767,36.035,29.436,36.035z"/>
		<g>
			<path d="M70.397,101.278h-1.199V73.696c0-0.331,0.269-0.6,0.6-0.6h1.238v-2.544h1.199v3.144c0,0.331-0.269,0.6-0.6,0.6h-1.238
				V101.278z"/>
			<path d="M67.161,101.278h-1.199V74.295h-1.24c-0.331,0-0.6-0.269-0.6-0.6v-3.144h1.199v2.544h1.24c0.331,0,0.6,0.269,0.6,0.6
				V101.278z"/>
		</g>
		<g>
			<path d="M81.822,101.28h-1.199V73.698c0-0.331,0.269-0.6,0.6-0.6h1.24v-2.546h1.199v3.146c0,0.331-0.269,0.6-0.6,0.6h-1.24
				V101.28z"/>
			<path d="M78.588,101.28h-1.199V74.297h-1.239c-0.331,0-0.6-0.269-0.6-0.6v-3.146h1.199v2.546h1.239c0.331,0,0.6,0.269,0.6,0.6
				V101.28z"/>
		</g>
		<g>
			<path d="M47.541,101.278h-1.2V73.696c0-0.331,0.269-0.6,0.6-0.6h1.24v-2.544h1.2v3.144c0,0.331-0.269,0.6-0.6,0.6h-1.24V101.278z
				"/>
			<path d="M44.307,101.278h-1.2V74.295h-1.24c-0.332,0-0.6-0.269-0.6-0.6v-3.144h1.2v2.544h1.24c0.332,0,0.6,0.269,0.6,0.6V101.278
				z"/>
		</g>
		<g>
			<path d="M58.969,101.278h-1.2v-27.58c0-0.331,0.269-0.6,0.6-0.6h1.239v-2.546h1.2v3.146c0,0.331-0.269,0.6-0.6,0.6h-1.239
				V101.278z"/>
			<path d="M55.733,101.278h-1.2v-26.98h-1.239c-0.332,0-0.6-0.269-0.6-0.6v-3.146h1.2v2.546h1.239c0.332,0,0.6,0.269,0.6,0.6
				V101.278z"/>
		</g>
		<path d="M117.531,66.774h-13.396c-0.331,0-0.6-0.269-0.6-0.6s0.269-0.6,0.6-0.6h13.396c0.331,0,0.6,0.269,0.6,0.6
			S117.862,66.774,117.531,66.774z"/>
	</g>
	<g>
		<path d="M62.465,58.621c0.943,0,1.711-0.769,1.711-1.712c0-0.941-0.768-1.71-1.711-1.71s-1.711,0.769-1.711,1.71
			C60.754,57.852,61.521,58.621,62.465,58.621z"/>
		<path d="M87.49,25.345L62.778,11.078c-0.001,0-0.002,0-0.004-0.001c-0.028-0.017-0.059-0.029-0.089-0.04
			c-0.005-0.002-0.008-0.005-0.012-0.007c-0.002,0-0.004,0-0.005,0c-0.008-0.004-0.017-0.005-0.025-0.007
			c-0.013-0.004-0.026-0.007-0.04-0.009c-0.032-0.008-0.064-0.012-0.098-0.014c-0.007,0-0.015-0.003-0.022-0.003
			c-0.009,0-0.017,0.002-0.026,0.002c-0.041,0.001-0.083,0.006-0.123,0.016c-0.005,0.002-0.011,0.002-0.015,0.003
			c-0.003,0.001-0.007,0.002-0.01,0.004c-0.005,0.001-0.01,0.004-0.016,0.005c-0.036,0.012-0.071,0.026-0.106,0.046
			c-0.005,0.002-0.01,0.003-0.014,0.005L37.86,25.115c-0.289,0.168-0.388,0.537-0.221,0.827c0.166,0.289,0.537,0.388,0.825,0.221
			l21.607-12.475l-9.189,11.724c-0.205,0.263-0.159,0.644,0.103,0.849c0.265,0.206,0.645,0.161,0.85-0.103l10.036-12.804v12.515
			c0,0.334,0.271,0.604,0.605,0.604c0.333,0,0.604-0.271,0.604-0.604V13.354l10.036,12.804c0.119,0.152,0.296,0.231,0.476,0.231
			c0.131,0,0.263-0.041,0.373-0.129c0.263-0.205,0.309-0.586,0.104-0.849l-9.19-11.724l22.006,12.704
			c0.096,0.055,0.199,0.081,0.302,0.081c0.209,0,0.412-0.107,0.524-0.302C87.878,25.881,87.779,25.512,87.49,25.345z"/>
		<path d="M87.313,117.483c-0.167-0.291-0.537-0.391-0.826-0.223L64.88,129.735l9.189-11.723c0.206-0.264,0.16-0.645-0.103-0.85
			c-0.264-0.205-0.644-0.16-0.85,0.102l-10.036,12.805v-12.516c0-0.334-0.271-0.604-0.604-0.604c-0.334,0-0.605,0.27-0.605,0.604
			v12.516l-10.036-12.805c-0.205-0.262-0.585-0.307-0.85-0.102c-0.262,0.205-0.308,0.586-0.103,0.85l9.189,11.723L38.067,117.03
			c-0.289-0.166-0.659-0.068-0.826,0.223c-0.167,0.289-0.068,0.658,0.221,0.826l24.712,14.266c0.006,0.004,0.013,0.004,0.018,0.008
			c0.021,0.012,0.044,0.02,0.066,0.029c0.008,0.004,0.014,0.01,0.021,0.01c0.006,0.004,0.013,0.002,0.019,0.004
			c0.011,0.004,0.022,0.008,0.033,0.012c0.047,0.012,0.095,0.02,0.143,0.02h0.003l0,0l0,0c0,0,0,0,0.001,0
			c0.049,0,0.097-0.008,0.145-0.02c0.01-0.004,0.02-0.008,0.03-0.01c0.014-0.006,0.026-0.01,0.04-0.014
			c0.022-0.01,0.046-0.02,0.068-0.031c0.006-0.004,0.012-0.004,0.018-0.008l24.313-14.037
			C87.381,118.141,87.479,117.77,87.313,117.483z"/>
		<circle cx="88.943" cy="116.342" r="0.758"/>
		<circle cx="35.696" cy="116.342" r="0.758"/>
		<path display="none" d="M124.018,35.188L63.585,0.297c-0.686-0.396-1.532-0.396-2.217,0L0.934,35.188
			c-0.687,0.396-1.108,1.129-1.108,1.921v69.784c0,0.793,0.422,1.523,1.108,1.92l60.435,34.893c0.343,0.197,0.726,0.295,1.108,0.295
			c0.382,0,0.766-0.098,1.108-0.295l60.433-34.893c0.687-0.396,1.109-1.127,1.109-1.92V37.109
			C125.127,36.317,124.704,35.584,124.018,35.188z M62.477,4.778l58.215,33.61v9.855h-7.12c-0.426,0-0.77,0.345-0.77,0.77v2.31
			h-8.821V33.361c0-0.426-0.345-0.771-0.77-0.771H20.838c-0.426,0-0.771,0.345-0.771,0.771v17.962h-8.82v-2.31
			c0-0.425-0.345-0.77-0.771-0.77H4.26v-9.855L62.477,4.778z M114.673,88.704h5.254v3.852h-5.254V88.704z M114.673,87.165v-3.848
			h5.254v3.848H114.673z M120.691,69.634l-0.1-0.174h0.1V69.634z M119.702,67.919l-0.84-1.455h1.829v1.455H119.702z M118.862,64.924
			l0.988-1.709h0.841v1.709H118.862z M120.691,58.675l-3.829,6.634c-0.005,0.01-0.007,0.02-0.012,0.027
			c-0.021,0.043-0.04,0.086-0.054,0.131c-0.005,0.016-0.01,0.031-0.014,0.047c-0.015,0.059-0.024,0.117-0.024,0.182
			c0,0.061,0.01,0.121,0.024,0.18c0.004,0.016,0.009,0.029,0.014,0.047c0.014,0.045,0.032,0.088,0.054,0.129
			c0.005,0.01,0.007,0.02,0.012,0.029l3.829,6.634v9.062h-6.789c-0.425,0-0.769,0.346-0.769,0.77v5.391v5.389
			c0,0.424,0.344,0.77,0.769,0.77h6.789v7.527h-9.878v-45.68h2.758h7.12V58.675z M5.004,63.215l0.988,1.709H4.26v-1.709H5.004z
			 M5.992,66.464l-0.84,1.455H4.26v-1.455H5.992z M4.264,69.46L4.26,69.466V69.46H4.264z M9.376,87.165H4.928v-3.848h4.448V87.165z
			 M9.376,88.704v3.852H4.928v-3.852H9.376z M4.26,94.094h5.886c0.426,0,0.77-0.346,0.77-0.77v-5.389v-5.391
			c0-0.424-0.344-0.77-0.77-0.77H4.26v-9.229l3.732-6.466c0.006-0.01,0.007-0.02,0.012-0.029c0.021-0.041,0.039-0.084,0.054-0.129
			c0.005-0.018,0.011-0.031,0.015-0.047c0.014-0.059,0.023-0.119,0.023-0.18c0-0.064-0.01-0.123-0.023-0.182
			c-0.004-0.016-0.01-0.031-0.015-0.047c-0.015-0.045-0.032-0.088-0.054-0.131c-0.005-0.008-0.006-0.018-0.012-0.027L4.26,58.843
			v-2.901h6.217h2.759v45.68H4.26V94.094z M9.707,52.092v2.31H4.26v-4.618h5.447V52.092z M14.006,54.402h-2.759v-1.54h8.82v46.963
			v1.797h-5.292v-46.45C14.775,54.747,14.431,54.402,14.006,54.402z M102.441,52.092v46.961h-1.027v-3.977
			c0-0.424-0.344-0.77-0.77-0.77h-1.797v-3.977c0-0.426-0.344-0.771-0.77-0.771h-1.796v-3.977c0-0.426-0.345-0.77-0.771-0.77h-1.539
			V55.942h1.539c0.426,0,0.771-0.345,0.771-0.771v-2.31h1.796c0.426,0,0.77-0.344,0.77-0.77v-8.468c0-0.425-0.344-0.77-0.77-0.77
			H27.253c-0.425,0-0.77,0.345-0.77,0.77v8.468c0,0.426,0.345,0.77,0.77,0.77h1.797v2.31c0,0.426,0.344,0.771,0.77,0.771h1.539
			v28.871h-1.539c-0.426,0-0.77,0.344-0.77,0.77v3.977h-1.797c-0.425,0-0.77,0.346-0.77,0.771v3.977h-2.994
			c-0.426,0-0.77,0.346-0.77,0.77v3.977h-1.112V52.092V34.13h80.834V52.092z M32.128,54.402h-1.539v-1.54h10.521v1.54H39.57
			c-0.425,0-0.77,0.345-0.77,0.77v29.642h-5.902V55.171C32.898,54.747,32.554,54.402,32.128,54.402z M28.023,51.323v-6.929h69.285
			v6.929h-1.797H83.708H41.88H29.819H28.023z M92.433,55.171v29.642h-5.646V55.171c0-0.425-0.345-0.77-0.77-0.77h-1.54v-1.54h10.265
			v1.54h-1.539C92.777,54.402,92.433,54.747,92.433,55.171z M69.937,77.743h4.756l-3.963,6.865h-0.793V77.743z M75.582,76.204
			h-5.646v-4.542h8.269L75.582,76.204z M69.937,70.123v-5.065h5.345l2.924,5.065H69.937z M69.937,63.516v-6.344h0.793l3.663,6.344
			H69.937z M68.396,70.892v13.716H57.105v-7.635v-6.081v-6.604v-7.115h11.291V70.892z M55.566,63.516h-4.339l3.662-6.344h0.677
			V63.516z M50.339,65.057h5.228v5.065h-8.151L50.339,65.057z M55.566,71.662v4.542h-5.528l-2.623-4.542H55.566z M55.566,77.743
			v6.865H54.89l-3.963-6.865H55.566z M80.204,71.277c0.006-0.01,0.007-0.018,0.012-0.027c0.022-0.041,0.04-0.086,0.054-0.129
			c0.005-0.016,0.011-0.031,0.015-0.047c0.015-0.059,0.023-0.119,0.023-0.182s-0.009-0.123-0.023-0.182
			c-0.004-0.016-0.01-0.031-0.015-0.045c-0.014-0.047-0.031-0.09-0.054-0.131c-0.005-0.01-0.006-0.02-0.012-0.029l-8.363-14.486
			c-0.138-0.239-0.392-0.387-0.667-0.387h-2.008h-12.83h-1.891c-0.274,0-0.529,0.147-0.666,0.387l-8.364,14.486
			c-0.005,0.01-0.007,0.02-0.012,0.029c-0.021,0.041-0.039,0.084-0.054,0.131c-0.005,0.016-0.01,0.029-0.014,0.045
			c-0.015,0.059-0.024,0.119-0.024,0.182s0.01,0.123,0.024,0.182c0.004,0.016,0.009,0.031,0.014,0.045
			c0.014,0.045,0.032,0.09,0.054,0.131c0.005,0.01,0.007,0.018,0.012,0.027l7.815,13.536H40.34V55.942h1.54
			c0.425,0,0.77-0.345,0.77-0.771v-2.31h40.288v2.31c0,0.426,0.345,0.771,0.771,0.771h1.54v28.871H72.39L80.204,71.277z
			 M93.203,86.352h1.539v3.207H30.589v-3.207h1.539H93.203z M95.512,91.1h1.797v3.207H28.023V91.1h1.796H95.512z M98.078,95.848
			h1.797v3.205H24.259v-3.205h2.994H98.078z M21.607,102.391v-1.797h1.882h77.155h1.797v1.797v1.412H21.607V102.391z M103.98,99.825
			V52.862h8.821v1.54h-2.759c-0.426,0-0.771,0.345-0.771,0.77v46.45h-5.292V99.825z M114.341,54.402v-2.31v-2.309h6.351v4.618
			H114.341z M62.477,139.225L4.26,105.614v-2.453h9.745h0.001h6.062v1.41c0,0.426,0.345,0.771,0.771,0.771h82.373
			c0.425,0,0.77-0.346,0.77-0.771v-1.41h6.063h0.001h10.647v2.453L62.477,139.225z"/>
		<g>
			<path d="M40.484,68.58c0.259,0,0.468-0.209,0.468-0.467v-2.31l1.896,2.487c0.129,0.168,0.265,0.277,0.492,0.277h0.031
				c0.265,0,0.474-0.209,0.474-0.475v-3.427c0-0.26-0.209-0.471-0.469-0.471c-0.258,0-0.467,0.211-0.467,0.471v2.222l-1.828-2.401
				c-0.13-0.166-0.265-0.277-0.493-0.277h-0.098c-0.266,0-0.475,0.209-0.475,0.475v3.429C40.016,68.371,40.225,68.58,40.484,68.58z"
				/>
			<path d="M46.974,68.617c1.33,0,2.296-1.002,2.296-2.227v-0.014c0-1.224-0.954-2.216-2.283-2.216c-1.33,0-2.296,1.004-2.296,2.229
				v0.012C44.691,67.626,45.645,68.617,46.974,68.617z M45.682,66.376c0-0.739,0.529-1.343,1.292-1.343
				c0.764,0,1.306,0.615,1.306,1.356v0.012c0,0.738-0.53,1.342-1.293,1.342c-0.764,0-1.305-0.615-1.305-1.354V66.376z"/>
			<path d="M50.59,68.542h1.207c1.354,0,2.289-0.941,2.289-2.152v-0.014c0-1.212-0.936-2.144-2.289-2.144H50.59
				c-0.265,0-0.474,0.211-0.474,0.477v3.36C50.117,68.333,50.326,68.542,50.59,68.542z M51.065,65.088h0.732
				c0.775,0,1.298,0.537,1.298,1.302v0.012c0,0.762-0.522,1.285-1.298,1.285h-0.732V65.088z"/>
			<path d="M55.407,68.542h2.419c0.234,0,0.425-0.184,0.425-0.418c0-0.232-0.19-0.424-0.425-0.424h-1.951v-0.904h1.644
				c0.233,0,0.425-0.186,0.425-0.42c0-0.235-0.191-0.425-0.425-0.425h-1.644v-0.873h1.921c0.233,0,0.424-0.186,0.424-0.42
				s-0.19-0.426-0.424-0.426h-2.389c-0.265,0-0.474,0.211-0.474,0.477v3.36C54.933,68.333,55.142,68.542,55.407,68.542z"/>
			<path d="M58.973,68.087c0.479,0.346,1.053,0.518,1.618,0.518c0.93,0,1.582-0.48,1.582-1.336v-0.012
				c0-0.75-0.492-1.065-1.366-1.294c-0.745-0.191-0.93-0.283-0.93-0.566v-0.012c0-0.211,0.191-0.375,0.555-0.375
				c0.295,0,0.591,0.104,0.904,0.289c0.074,0.043,0.147,0.066,0.24,0.066c0.246,0,0.443-0.191,0.443-0.436
				c0-0.186-0.104-0.314-0.21-0.375c-0.388-0.248-0.843-0.383-1.366-0.383c-0.88,0-1.508,0.518-1.508,1.299v0.012
				c0,0.855,0.56,1.099,1.428,1.319c0.721,0.186,0.868,0.307,0.868,0.547v0.014c0,0.252-0.234,0.406-0.622,0.406
				c-0.418,0-0.775-0.148-1.102-0.389c-0.062-0.043-0.147-0.086-0.271-0.086c-0.246,0-0.443,0.191-0.443,0.438
				C58.794,67.878,58.869,68.013,58.973,68.087z"/>
			<path d="M65.02,68.617c0.688,0,1.145-0.203,1.532-0.539c0.086-0.076,0.16-0.191,0.16-0.34c0-0.242-0.203-0.438-0.443-0.438
				c-0.111,0-0.209,0.043-0.283,0.105c-0.271,0.215-0.536,0.338-0.936,0.338c-0.738,0-1.25-0.615-1.25-1.354v-0.014
				c0-0.739,0.523-1.343,1.25-1.343c0.339,0,0.615,0.111,0.88,0.309c0.067,0.043,0.154,0.092,0.283,0.092
				c0.259,0,0.468-0.201,0.468-0.461c0-0.168-0.086-0.301-0.185-0.375c-0.357-0.266-0.794-0.438-1.44-0.438
				c-1.323,0-2.246,1.004-2.246,2.229v0.012C62.81,67.64,63.751,68.617,65.02,68.617z"/>
			<path d="M68.02,68.58c0.265,0,0.474-0.209,0.474-0.473v-1.293h1.748v1.293c0,0.264,0.209,0.473,0.474,0.473
				s0.474-0.209,0.474-0.473v-3.435c0-0.266-0.209-0.477-0.474-0.477s-0.474,0.211-0.474,0.477v1.268h-1.748v-1.268
				c0-0.266-0.209-0.477-0.474-0.477c-0.266,0-0.475,0.211-0.475,0.477v3.435C67.545,68.371,67.754,68.58,68.02,68.58z"/>
			<path d="M74.319,68.617c1.329,0,2.295-1.002,2.295-2.227v-0.014c0-1.224-0.954-2.216-2.283-2.216
				c-1.33,0-2.296,1.004-2.296,2.229v0.012C72.035,67.626,72.989,68.617,74.319,68.617z M73.026,66.376
				c0-0.739,0.529-1.343,1.293-1.343c0.763,0,1.305,0.615,1.305,1.356v0.012c0,0.738-0.529,1.342-1.293,1.342
				s-1.305-0.615-1.305-1.354V66.376z"/>
			<path d="M79.553,68.617c1.33,0,2.297-1.002,2.297-2.227v-0.014c0-1.224-0.954-2.216-2.284-2.216
				c-1.329,0-2.296,1.004-2.296,2.229v0.012C77.27,67.626,78.224,68.617,79.553,68.617z M78.261,66.376
				c0-0.739,0.529-1.343,1.292-1.343c0.764,0,1.306,0.615,1.306,1.356v0.012c0,0.738-0.529,1.342-1.293,1.342
				c-0.763,0-1.305-0.615-1.305-1.354V66.376z"/>
			<path d="M82.844,68.542h2.229c0.239,0,0.431-0.189,0.431-0.43s-0.191-0.432-0.431-0.432h-1.755v-3.009
				c0-0.266-0.209-0.477-0.474-0.477s-0.474,0.211-0.474,0.477v3.397C82.37,68.333,82.579,68.542,82.844,68.542z"/>
		</g>
	</g>
	<path d="M73.983,114.344l2.537-1.85c0.177-0.129,0.376-0.152,0.565-0.043l0.041,0.023c0.189,0.109,0.266,0.293,0.243,0.508
		l-0.335,3.123c-0.006,0.064-0.018,0.117-0.044,0.162c-0.107,0.184-0.338,0.25-0.523,0.143c-0.162-0.094-0.216-0.25-0.196-0.432
		l0.075-0.619l-1.391-0.801l-0.521,0.389c-0.137,0.104-0.302,0.115-0.445,0.031c-0.181-0.104-0.237-0.328-0.133-0.51
		C73.886,114.42,73.933,114.381,73.983,114.344z M76.444,114.596l0.164-1.295l-1.04,0.791L76.444,114.596z"/>
	<path d="M61.463,113.983c-0.089-0.063-0.151-0.176-0.151-0.301c0-0.209,0.167-0.371,0.375-0.371c0.104,0,0.178,0.037,0.229,0.074
		c0.276,0.203,0.579,0.326,0.934,0.326c0.328,0,0.526-0.129,0.526-0.344v-0.01c0-0.203-0.125-0.309-0.735-0.463
		c-0.734-0.188-1.209-0.393-1.209-1.115v-0.012c0-0.662,0.531-1.1,1.277-1.1c0.442,0,0.828,0.115,1.157,0.324
		c0.088,0.051,0.177,0.16,0.177,0.316c0,0.209-0.167,0.371-0.376,0.371c-0.078,0-0.14-0.021-0.202-0.059
		c-0.267-0.156-0.517-0.244-0.767-0.244c-0.308,0-0.47,0.141-0.47,0.318v0.01c0,0.24,0.157,0.318,0.787,0.48
		c0.74,0.191,1.158,0.457,1.158,1.094v0.012c0,0.725-0.554,1.131-1.341,1.131C62.354,114.422,61.869,114.276,61.463,113.983z"/>
	<path d="M47.535,115.426l-0.005-0.008c-0.519-0.898-0.234-2.045,0.74-2.607c0.976-0.563,2.095-0.24,2.613,0.658l0.005,0.01
		c0.519,0.898,0.234,2.043-0.74,2.605C49.174,116.649,48.055,116.325,47.535,115.426z M50.167,113.909l-0.005-0.012
		c-0.313-0.541-0.971-0.762-1.53-0.439c-0.56,0.324-0.693,0.988-0.38,1.531l0.005,0.01c0.313,0.541,0.971,0.764,1.53,0.439
		C50.348,115.116,50.479,114.448,50.167,113.909z"/>
</g>
<g id="Note">
	<g id="memo" display="none">
		<g display="inline">
			<path fill="#ED1C24" d="M-19.626,166.379V164.6h-3.019v-0.569l2.898-4.147h0.949v4.037h0.91v0.68h-0.91v1.779H-19.626z
				 M-19.626,163.92v-2.169c0-0.339,0.01-0.679,0.03-1.019h-0.03c-0.2,0.379-0.36,0.659-0.54,0.959l-1.589,2.209v0.02H-19.626z"/>
			<path fill="#ED1C24" d="M-14.496,166.379V164.6h-3.019v-0.569l2.898-4.147h0.949v4.037h0.91v0.68h-0.91v1.779H-14.496z
				 M-14.496,163.92v-2.169c0-0.339,0.01-0.679,0.03-1.019h-0.03c-0.2,0.379-0.36,0.659-0.54,0.959l-1.589,2.209v0.02H-14.496z"/>
			<path fill="#ED1C24" d="M-12.015,165.86c0-0.36,0.25-0.63,0.6-0.63c0.35,0,0.589,0.26,0.589,0.63c0,0.359-0.24,0.63-0.609,0.63
				C-11.775,166.49-12.015,166.219-12.015,165.86z"/>
			<path fill="#ED1C24" d="M-10.015,166.379v-0.54l0.689-0.669c1.659-1.579,2.419-2.419,2.419-3.398c0-0.66-0.31-1.27-1.279-1.27
				c-0.59,0-1.08,0.3-1.379,0.55l-0.28-0.619c0.44-0.37,1.089-0.66,1.829-0.66c1.399,0,1.989,0.96,1.989,1.889
				c0,1.2-0.87,2.169-2.239,3.488l-0.51,0.479v0.021h2.909v0.729H-10.015z"/>
			<path fill="#ED1C24" d="M-4.605,162.851c0-0.51-0.02-0.909-0.04-1.309h0.77l0.04,0.789h0.03c0.27-0.46,0.719-0.89,1.529-0.89
				c0.65,0,1.149,0.4,1.359,0.97h0.02c0.15-0.28,0.35-0.479,0.55-0.63c0.29-0.22,0.6-0.34,1.06-0.34c0.649,0,1.599,0.42,1.599,2.099
				v2.839h-0.86v-2.729c0-0.939-0.35-1.489-1.049-1.489c-0.51,0-0.89,0.37-1.049,0.79c-0.04,0.13-0.07,0.279-0.07,0.439v2.988h-0.86
				v-2.898c0-0.77-0.34-1.319-1.009-1.319c-0.54,0-0.95,0.439-1.089,0.88c-0.05,0.12-0.07,0.279-0.07,0.43v2.908h-0.86V162.851z"/>
			<path fill="#ED1C24" d="M3.734,162.851c0-0.51-0.02-0.909-0.04-1.309h0.77l0.04,0.789h0.03c0.27-0.46,0.719-0.89,1.529-0.89
				c0.65,0,1.149,0.4,1.359,0.97h0.02c0.15-0.28,0.35-0.479,0.55-0.63c0.29-0.22,0.6-0.34,1.06-0.34c0.649,0,1.599,0.42,1.599,2.099
				v2.839h-0.86v-2.729c0-0.939-0.35-1.489-1.049-1.489c-0.51,0-0.89,0.37-1.049,0.79c-0.04,0.13-0.07,0.279-0.07,0.439v2.988h-0.86
				v-2.898c0-0.77-0.34-1.319-1.009-1.319c-0.54,0-0.95,0.439-1.089,0.88c-0.05,0.12-0.07,0.279-0.07,0.43v2.908h-0.86V162.851z"/>
			<path fill="#ED1C24" d="M14.604,161.542l0.69,1.039c0.19,0.27,0.34,0.51,0.5,0.779h0.02c0.16-0.279,0.32-0.529,0.49-0.789
				l0.67-1.029h0.959l-1.649,2.338l1.689,2.499h-0.989l-0.72-1.09c-0.19-0.279-0.35-0.549-0.52-0.839h-0.02
				c-0.16,0.29-0.32,0.55-0.51,0.839l-0.7,1.09h-0.969l1.719-2.469l-1.639-2.368H14.604z"/>
			<path fill="#ED1C24" d="M24.542,160.623h-2.479l-0.25,1.669c0.15-0.02,0.29-0.03,0.53-0.03c0.51,0,1,0.101,1.399,0.351
				c0.51,0.279,0.93,0.85,0.93,1.659c0,1.269-1.009,2.219-2.418,2.219c-0.71,0-1.299-0.2-1.619-0.4l0.22-0.669
				c0.27,0.159,0.8,0.359,1.399,0.359c0.819,0,1.539-0.54,1.529-1.409c0-0.84-0.569-1.43-1.859-1.43c-0.38,0-0.669,0.03-0.909,0.061
				l0.419-3.118h3.108V160.623z"/>
			<path fill="#ED1C24" d="M30.122,163.061c0,2.209-0.83,3.429-2.259,3.429c-1.269,0-2.139-1.189-2.159-3.339
				c0-2.188,0.949-3.378,2.269-3.378C29.333,159.773,30.122,160.993,30.122,163.061z M26.594,163.162
				c0,1.688,0.52,2.648,1.319,2.648c0.89,0,1.319-1.05,1.319-2.709c0-1.599-0.399-2.648-1.319-2.648
				C27.154,160.453,26.594,161.392,26.594,163.162z"/>
			<path fill="#ED1C24" d="M30.994,165.86c0-0.36,0.25-0.63,0.6-0.63c0.35,0,0.59,0.26,0.59,0.63c0,0.359-0.24,0.63-0.609,0.63
				C31.234,166.49,30.994,166.219,30.994,165.86z"/>
			<path fill="#ED1C24" d="M34.193,162.961c-0.729-0.34-1.039-0.899-1.039-1.459c0-1.03,0.869-1.729,2.019-1.729
				c1.259,0,1.899,0.779,1.899,1.6c0,0.549-0.28,1.149-1.079,1.519v0.03c0.81,0.319,1.309,0.899,1.309,1.679
				c0,1.14-0.969,1.89-2.208,1.89c-1.359,0-2.179-0.8-2.179-1.749c0-0.82,0.49-1.409,1.29-1.749L34.193,162.961z M36.412,164.69
				c0-0.779-0.549-1.169-1.429-1.419c-0.759,0.22-1.169,0.729-1.169,1.35c-0.03,0.649,0.47,1.229,1.299,1.229
				C35.902,165.85,36.412,165.36,36.412,164.69z M33.994,161.442c-0.01,0.649,0.49,1,1.239,1.199c0.56-0.189,0.99-0.589,0.99-1.179
				c0-0.521-0.31-1.06-1.1-1.06C34.394,160.403,33.994,160.882,33.994,161.442z"/>
			<path fill="#ED1C24" d="M38.404,162.851c0-0.51-0.02-0.909-0.04-1.309h0.77l0.04,0.789h0.03c0.27-0.46,0.719-0.89,1.529-0.89
				c0.649,0,1.149,0.4,1.359,0.97h0.021c0.149-0.28,0.35-0.479,0.549-0.63c0.29-0.22,0.601-0.34,1.06-0.34
				c0.65,0,1.6,0.42,1.6,2.099v2.839h-0.859v-2.729c0-0.939-0.351-1.489-1.05-1.489c-0.51,0-0.89,0.37-1.05,0.79
				c-0.04,0.13-0.069,0.279-0.069,0.439v2.988h-0.859v-2.898c0-0.77-0.34-1.319-1.01-1.319c-0.54,0-0.95,0.439-1.089,0.88
				c-0.05,0.12-0.07,0.279-0.07,0.43v2.908h-0.86V162.851z"/>
			<path fill="#ED1C24" d="M46.743,162.851c0-0.51-0.02-0.909-0.04-1.309h0.77l0.04,0.789h0.03c0.27-0.46,0.72-0.89,1.529-0.89
				c0.649,0,1.149,0.4,1.359,0.97h0.02c0.15-0.28,0.35-0.479,0.55-0.63c0.29-0.22,0.6-0.34,1.06-0.34
				c0.649,0,1.599,0.42,1.599,2.099v2.839H52.8v-2.729c0-0.939-0.35-1.489-1.049-1.489c-0.51,0-0.89,0.37-1.05,0.79
				c-0.04,0.13-0.07,0.279-0.07,0.439v2.988h-0.859v-2.898c0-0.77-0.34-1.319-1.01-1.319c-0.539,0-0.949,0.439-1.089,0.88
				c-0.05,0.12-0.07,0.279-0.07,0.43v2.908h-0.859V162.851z"/>
			<path fill="#ED1C24" d="M59.932,159.763c-0.04,0.09-0.12,0.16-0.25,0.16c-0.36,3.107-1.399,5.816-3.059,5.816
				c-0.839,0-1.599-0.84-1.599-2.419c0-2.398,1.869-4.407,4.497-4.407c2.889,0,4.138,1.829,4.138,3.778
				c0,2.378-1.379,3.527-3.798,4.087c-0.09-0.159-0.26-0.43-0.42-0.609c2.299-0.439,3.479-1.559,3.479-3.448
				c0-1.648-1.06-3.148-3.398-3.148c-0.1,0-0.21,0.011-0.3,0.021L59.932,159.763z M58.972,159.633
				c-2.019,0.25-3.268,1.919-3.268,3.668c0,1.069,0.459,1.739,0.939,1.739C57.853,165.041,58.722,162.372,58.972,159.633z"/>
			<path fill="#ED1C24" d="M72.789,160.583c-0.021,0.04-0.04,0.09-0.09,0.13c-0.13,2.879-0.41,4.688-0.8,5.397
				c-0.399,0.689-0.979,0.72-1.31,0.72c-0.39,0-1.1-0.091-1.789-0.23c0.021-0.2,0-0.5-0.029-0.709
				c0.749,0.169,1.519,0.249,1.749,0.249c0.359,0,0.56-0.09,0.77-0.47c0.3-0.609,0.55-2.288,0.649-4.537h-3.198
				c-0.5,2.389-1.489,4.367-3.298,5.727c-0.12-0.13-0.38-0.319-0.57-0.439c1.729-1.3,2.639-3.009,3.118-5.287h-2.758v-0.67h2.898
				c0.119-0.709,0.18-1.349,0.229-2.179l0.989,0.08c-0.01,0.11-0.1,0.17-0.25,0.18c-0.06,0.729-0.109,1.279-0.22,1.919h3.238
				l0.16-0.06L72.789,160.583z"/>
			<path fill="#ED1C24" d="M75.313,160.903c0.3,0.609,0.63,1.568,0.75,2.148l-0.561,0.149c-0.119-0.579-0.43-1.488-0.729-2.128
				L75.313,160.903z M81.28,160.972c-0.021,0.09-0.12,0.11-0.21,0.101c-0.779,2.918-2.249,4.707-4.667,5.687
				c-0.08-0.12-0.261-0.35-0.391-0.46c2.389-0.939,3.759-2.578,4.488-5.557L81.28,160.972z M77.742,160.422
				c0.21,0.67,0.399,1.63,0.47,2.27l-0.59,0.109c-0.06-0.64-0.25-1.559-0.47-2.249L77.742,160.422z"/>
			<path fill="#ED1C24" d="M88.569,163.541c-1.02-0.549-2.418-1.199-3.508-1.629v4.997h-0.75v-8.685l1.01,0.06
				c-0.01,0.11-0.09,0.18-0.26,0.21v2.919l0.15-0.21c1.169,0.43,2.718,1.119,3.758,1.669L88.569,163.541z"/>
			<path fill="#ED1C24" d="M93.813,159.783c-0.03,0.08-0.109,0.141-0.26,0.15c-0.399,2.398-1.229,4.927-2.398,6.406
				c-0.18-0.14-0.45-0.27-0.67-0.359c1.119-1.359,1.999-3.898,2.318-6.407L93.813,159.783z M98.84,166.28
				c-0.47-1.749-1.629-4.588-2.658-6.437l0.649-0.311c1.05,1.789,2.219,4.608,2.738,6.457L98.84,166.28z M98.71,157.784
				c0.62,0,1.119,0.5,1.119,1.13c0,0.609-0.499,1.119-1.119,1.119s-1.119-0.51-1.119-1.119
				C97.591,158.264,98.11,157.784,98.71,157.784z M99.499,158.914c0-0.45-0.359-0.8-0.789-0.8c-0.439,0-0.79,0.35-0.79,0.8
				c0,0.43,0.351,0.789,0.79,0.789C99.16,159.703,99.499,159.324,99.499,158.914z"/>
			<path fill="#ED1C24" d="M107.35,159.253c-0.02,0.05-0.069,0.09-0.13,0.109c-0.539,1.27-1.179,2.369-1.998,3.438
				c1.089,0.869,2.729,2.358,3.657,3.389l-0.609,0.529c-0.88-1.02-2.488-2.539-3.508-3.358c-0.88,1.069-2.398,2.529-3.848,3.358
				c-0.11-0.15-0.351-0.399-0.521-0.54c2.769-1.519,4.958-4.357,5.857-6.526h-4.907v-0.68h5.297l0.13-0.05L107.35,159.253z"/>
			<path fill="#ED1C24" d="M109.773,159.293c0.75-0.03,6.906-0.47,8.206-0.479l0.01,0.749c-0.13-0.01-0.25-0.01-0.37-0.01
				c-0.579,0-1.069,0.1-1.709,0.51c-1.499,0.899-2.948,2.509-2.948,3.798c0,1.399,0.979,2.229,3.458,2.549l-0.33,0.699
				c-2.838-0.409-3.897-1.469-3.897-3.248c0-1.409,1.39-3.118,3.218-4.268c-1.099,0.08-4.048,0.3-5.337,0.42
				c-0.029,0.08-0.14,0.149-0.22,0.159L109.773,159.293z M116.25,161.262c0.479,0.359,1.05,0.949,1.359,1.379l-0.38,0.311
				c-0.28-0.44-0.89-1.06-1.319-1.39L116.25,161.262z M117.329,160.382c0.49,0.36,1.069,0.939,1.359,1.38l-0.38,0.3
				c-0.27-0.4-0.85-1.02-1.319-1.38L117.329,160.382z"/>
			<path fill="#ED1C24" d="M124.251,159.593c-0.01-0.22-0.04-1.31-0.06-1.56l1.029,0.04c-0.01,0.08-0.08,0.18-0.26,0.21
				c0,0.12,0,0.24,0.02,1.289c1.229-0.04,2.519-0.069,3.269-0.079v0.689c-0.85-0.021-2.059,0-3.248,0.04
				c0.02,0.779,0.04,1.499,0.069,2.049c0.101,0.329,0.12,0.629,0.12,1.049c0,0.32-0.029,0.689-0.1,0.97
				c-0.26,1.169-1.119,2.199-2.879,2.898c-0.13-0.17-0.35-0.42-0.51-0.569c1.529-0.55,2.35-1.38,2.599-2.329h-0.01
				c-0.21,0.3-0.579,0.529-1.029,0.529c-0.89,0-1.679-0.729-1.679-1.749c-0.011-1.059,0.85-1.868,1.799-1.868
				c0.359,0,0.729,0.13,0.93,0.31c0-0.17-0.021-0.84-0.04-1.27c-1.04,0.021-4.198,0.13-4.607,0.15l-0.021-0.66l2.279-0.06
				L124.251,159.593z M124.441,163.101c0-0.39,0-1.299-1.02-1.299c-0.689,0.01-1.18,0.539-1.189,1.269c0,0.7,0.529,1.16,1.109,1.16
				C124.052,164.231,124.441,163.681,124.441,163.101z"/>
			<path fill="#ED1C24" d="M131.003,165.83c0,0.77-0.63,1.399-1.399,1.399s-1.399-0.63-1.399-1.399s0.63-1.399,1.399-1.399
				C130.394,164.43,131.003,165.081,131.003,165.83z M130.643,165.83c0-0.579-0.459-1.039-1.039-1.039
				c-0.569,0-1.029,0.46-1.029,1.039c0,0.569,0.46,1.029,1.029,1.029C130.203,166.859,130.643,166.379,130.643,165.83z"/>
			<path fill="#ED1C24" d="M-21.925,173.092c0.899,0.2,2.019,0.58,2.688,0.899l-0.3,0.63c-0.66-0.32-1.809-0.72-2.688-0.92
				L-21.925,173.092z M-21.325,177.98c3.248-1.09,5.467-2.818,6.796-5.817c0.15,0.13,0.459,0.34,0.609,0.44
				c-1.339,2.968-3.668,4.817-6.726,5.906c0.02,0.09-0.03,0.21-0.12,0.25L-21.325,177.98z M-20.826,170.614
				c0.9,0.24,1.999,0.64,2.679,0.979l-0.33,0.609c-0.71-0.359-1.749-0.76-2.649-1.01L-20.826,170.614z"/>
			<path fill="#ED1C24" d="M-12.625,174.052h8.345v0.709h-7.965c-0.06,0.101-0.19,0.17-0.32,0.19L-12.625,174.052z"/>
			<path fill="#ED1C24" d="M-0.436,171.793c-0.01,0.09-0.1,0.149-0.229,0.17c-0.06,2.688-0.28,5.137-1.819,6.926
				c-0.16-0.12-0.399-0.27-0.6-0.38c1.489-1.619,1.669-4.118,1.699-6.807L-0.436,171.793z M2.153,177.55
				c1.669-0.81,2.749-2.27,3.328-4.019c0.15,0.13,0.45,0.3,0.62,0.39c-0.709,2.02-1.949,3.509-4.078,4.518
				c-0.03,0.08-0.1,0.16-0.17,0.2l-0.52-0.659l0.11-0.15v-7.336l0.929,0.05c-0.01,0.09-0.08,0.17-0.22,0.19V177.55z"/>
			<path fill="#ED1C24" d="M12.083,171.763c-0.04,0.09-0.12,0.16-0.25,0.16c-0.36,3.107-1.399,5.816-3.059,5.816
				c-0.839,0-1.599-0.84-1.599-2.419c0-2.398,1.869-4.407,4.498-4.407c2.889,0,4.138,1.829,4.138,3.778
				c0,2.378-1.379,3.527-3.798,4.087c-0.09-0.159-0.26-0.43-0.419-0.609c2.298-0.439,3.478-1.559,3.478-3.448
				c0-1.648-1.06-3.148-3.398-3.148c-0.1,0-0.21,0.011-0.3,0.021L12.083,171.763z M11.124,171.633
				c-2.019,0.25-3.269,1.919-3.269,3.668c0,1.069,0.46,1.739,0.939,1.739C10.004,177.041,10.874,174.372,11.124,171.633z"/>
			<path fill="#ED1C24" d="M24.771,175.042l0.889,0.06c-0.01,0.07-0.06,0.12-0.2,0.13v3.978h-0.689v-0.629h-6.497v0.659h-0.669
				v-4.197l0.879,0.05c-0.01,0.08-0.07,0.13-0.21,0.14v2.688h2.838v-3.548h-3.128v-3.458l0.88,0.06c-0.01,0.061-0.07,0.11-0.21,0.13
				v2.609h2.458v-3.729l0.89,0.061c-0.01,0.069-0.07,0.119-0.2,0.14v3.528h2.559v-2.809l0.89,0.06c-0.01,0.07-0.06,0.12-0.2,0.14
				v3.269h-3.249v3.548h2.969V175.042z"/>
			<path fill="#ED1C24" d="M36,175.091h-3.638c0.939,1.27,2.479,2.509,3.868,3.118c-0.16,0.13-0.38,0.399-0.49,0.59
				c-1.389-0.689-2.898-1.989-3.898-3.368v3.788h-0.699v-3.729c-1,1.359-2.479,2.589-3.848,3.269c-0.11-0.17-0.32-0.43-0.49-0.569
				c1.389-0.601,2.908-1.829,3.848-3.099h-3.638v-0.64h4.128v-2.619h-3.638v-0.649h3.638v-1.239l0.899,0.061
				c-0.01,0.069-0.06,0.119-0.2,0.14v1.039h3.728v0.649h-3.728v2.619H36V175.091z M29.294,174.322
				c-0.14-0.53-0.54-1.359-0.939-1.969l0.589-0.22c0.41,0.6,0.84,1.398,0.99,1.929L29.294,174.322z M34.971,172.373
				c-0.04,0.061-0.11,0.09-0.23,0.09c-0.27,0.56-0.729,1.369-1.099,1.899c0-0.01-0.57-0.25-0.57-0.25
				c0.36-0.54,0.819-1.43,1.069-2.049L34.971,172.373z"/>
			<path fill="#ED1C24" d="M41.513,178.07h4.538v0.68h-9.085v-0.68h3.848v-7.966l0.909,0.06c-0.01,0.07-0.069,0.12-0.21,0.141v2.958
				h3.838v0.68h-3.838V178.07z"/>
			<path fill="#ED1C24" d="M50.733,170.423c-0.02,0.12-0.14,0.17-0.33,0.181c-0.109,0.56-0.289,1.529-0.409,2.129
				c0.449-0.051,0.859-0.091,1.109-0.091c1.519-0.02,2.039,0.99,2.039,2.489c0,0.749-0.141,1.639-0.34,2.238
				c-0.311,1.02-0.95,1.51-1.779,1.51c-0.41,0-0.949-0.17-1.809-0.87c0.109-0.18,0.189-0.399,0.27-0.609
				c0.8,0.62,1.219,0.76,1.529,0.76c0.569,0,0.909-0.36,1.109-1c0.21-0.619,0.319-1.539,0.319-2.049
				c-0.01-1.139-0.38-1.818-1.379-1.809c-0.3,0-0.71,0.04-1.22,0.1c-0.499,2.039-1.089,3.788-2.049,5.397l-0.659-0.32
				c0.97-1.549,1.519-3.098,1.988-4.997c-0.51,0.061-1.239,0.15-1.778,0.24l-0.061-0.7c0.49-0.06,1.31-0.149,1.979-0.229
				c0.149-0.729,0.31-1.629,0.43-2.509L50.733,170.423z M53.053,170.114c0.479,0.37,1.049,0.97,1.339,1.399l-0.39,0.28
				c-0.28-0.431-0.88-1.06-1.319-1.39L53.053,170.114z M55.291,175.931c-0.33-1.439-1.119-2.649-2.039-3.408l0.58-0.39
				c0.989,0.829,1.849,2.078,2.179,3.527L55.291,175.931z M54.562,169.724c0.489,0.359,1.06,0.96,1.35,1.39l-0.391,0.289
				c-0.279-0.43-0.879-1.069-1.319-1.398L54.562,169.724z"/>
			<path fill="#ED1C24" d="M57.865,175.84c-0.19-0.539-0.28-1.318-0.29-1.879c0-0.939,0.1-2.028,0.34-3.298l0.999,0.17
				c-0.04,0.13-0.159,0.16-0.29,0.17c-0.199,0.829-0.339,2.099-0.339,2.908c0,0.22,0.01,0.4,0.029,0.54
				c0.2-0.49,0.57-1.17,0.779-1.549c0.091,0.13,0.29,0.34,0.391,0.439c-0.74,1.329-0.96,1.709-0.96,2.129
				c0,0.08,0.01,0.16,0.03,0.25L57.865,175.84z M63.222,170.404c-0.01,0.12-0.09,0.17-0.26,0.22c0.07,0.87,0.17,2.318,0.17,3.468
				c-0.01,1.93-0.709,3.668-3.718,4.918c-0.11-0.16-0.35-0.43-0.5-0.58c2.729-1.039,3.458-2.688,3.458-4.327
				c0-1.229-0.119-2.679-0.229-3.748L63.222,170.404z"/>
			<path fill="#ED1C24" d="M73.841,172.123v0.66h-2.449v5.387c0,0.6-0.16,0.83-0.569,0.949c-0.4,0.11-1.17,0.13-2.269,0.12
				c-0.051-0.21-0.19-0.539-0.311-0.749c0.48,0.01,0.939,0.02,1.319,0.02s0.67-0.01,0.8-0.01c0.24,0,0.32-0.08,0.32-0.32v-5.396
				h-5.907v-0.66h5.907v-2.179c0.709,0.03,0.81,0.03,0.909,0.05c-0.01,0.08-0.061,0.12-0.2,0.141v1.988H73.841z M67.884,176.78
				c-0.33-0.729-1.14-1.809-1.909-2.578l0.6-0.37c0.779,0.75,1.619,1.789,1.959,2.519L67.884,176.78z"/>
			<path fill="#ED1C24" d="M74.995,172.802c0.7,0.22,1.589,0.61,2.039,0.93l-0.359,0.58c-0.44-0.33-1.319-0.75-2.02-0.99
				L74.995,172.802z M75.016,178.66c0.52-0.79,1.279-2.129,1.839-3.278c0.399,0.34,0.449,0.38,0.499,0.42
				c-0.509,1.079-1.179,2.328-1.669,3.098c0.03,0.05,0.051,0.101,0.051,0.14c0,0.051-0.021,0.091-0.051,0.12L75.016,178.66z
				 M75.555,170.014c0.7,0.26,1.569,0.689,2.009,1.049l-0.39,0.561c-0.43-0.36-1.289-0.83-1.999-1.109L75.555,170.014z
				 M83.94,174.232v0.649h-3.888l0.359,0.12c-0.029,0.06-0.109,0.1-0.229,0.109c-0.31,0.85-0.819,1.999-1.27,2.889
				c1.05-0.06,2.278-0.12,3.488-0.2c-0.35-0.52-0.76-1.049-1.149-1.499l0.569-0.3c0.79,0.87,1.649,2.069,2.02,2.868l-0.63,0.36
				c-0.101-0.25-0.26-0.54-0.439-0.85c-1.84,0.15-3.769,0.28-4.978,0.359c-0.021,0.08-0.08,0.13-0.15,0.141l-0.279-0.8l0.829-0.04
				c0.46-0.89,0.979-2.179,1.3-3.158h-2.14v-0.649h2.879v-1.969h-2.389v-0.64h2.389v-1.68l0.92,0.061
				c-0.011,0.1-0.101,0.17-0.23,0.189v1.43h2.438v0.64h-2.438v1.969H83.94z"/>
			<path fill="#ED1C24" d="M89.883,171.763c-0.04,0.09-0.12,0.16-0.25,0.16c-0.36,3.107-1.399,5.816-3.059,5.816
				c-0.839,0-1.599-0.84-1.599-2.419c0-2.398,1.869-4.407,4.497-4.407c2.889,0,4.138,1.829,4.138,3.778
				c0,2.378-1.379,3.527-3.798,4.087c-0.09-0.159-0.26-0.43-0.42-0.609c2.299-0.439,3.479-1.559,3.479-3.448
				c0-1.648-1.06-3.148-3.398-3.148c-0.1,0-0.21,0.011-0.3,0.021L89.883,171.763z M88.923,171.633
				c-2.019,0.25-3.268,1.919-3.268,3.668c0,1.069,0.459,1.739,0.939,1.739C87.804,177.041,88.673,174.372,88.923,171.633z"/>
			<path fill="#ED1C24" d="M98.163,174.881c-0.029,0.07-0.109,0.11-0.229,0.1c-0.64,1.539-1.609,3.139-2.599,4.168
				c-0.14-0.12-0.42-0.34-0.6-0.449c0.97-0.95,1.939-2.549,2.528-4.108L98.163,174.881z M99.633,172.413h4.157v0.689h-8.944v-0.689
				h4.067v-2.419l0.92,0.061c-0.011,0.069-0.061,0.12-0.2,0.14V172.413z M103.021,179.169c-0.43-1.12-1.499-2.938-2.479-4.278
				l0.66-0.279c0.979,1.319,2.078,3.088,2.538,4.218L103.021,179.169z"/>
			<path fill="#ED1C24" d="M113.031,172.263v6.066c0,0.47-0.13,0.689-0.49,0.8c-0.359,0.109-1.02,0.119-2.049,0.119
				c-0.04-0.189-0.16-0.479-0.27-0.659c0.499,0.01,0.969,0.02,1.329,0.02c0.77,0,0.81,0,0.81-0.279v-1.35h-5.797
				c-0.25,0.84-0.699,1.649-1.509,2.289c-0.091-0.13-0.33-0.38-0.47-0.479c1.429-1.13,1.608-2.719,1.608-4.019v-1.868
				c-0.27,0.249-0.56,0.489-0.869,0.709c-0.12-0.149-0.34-0.369-0.5-0.47c1.38-0.93,2.369-2.209,2.889-3.229l0.859,0.141
				c-0.01,0.08-0.08,0.13-0.21,0.13l-0.21,0.359h2.579l0.109-0.04l0.52,0.33c-0.029,0.04-0.09,0.07-0.14,0.08
				c-0.229,0.41-0.569,0.919-0.909,1.35H113.031z M109.193,174.881h-2.349c0,0.47-0.04,0.979-0.141,1.499h2.489V174.881z
				 M109.563,172.263c0.271-0.33,0.55-0.75,0.76-1.14h-2.549c-0.27,0.37-0.579,0.76-0.929,1.14H109.563z M106.845,172.863v1.429
				h2.349v-1.429H106.845z M112.361,174.292v-1.429h-2.519v1.429H112.361z M109.843,176.38h2.519v-1.499h-2.519V176.38z"/>
			<path fill="#ED1C24" d="M120.213,174.542h-1.07v4.688h-0.659v-4.688h-2.009c-0.05,1.679-0.31,3.358-1.47,4.728
				c-0.1-0.15-0.329-0.38-0.479-0.47c1.02-1.249,1.26-2.759,1.31-4.258h-1.17v-0.63h1.18v-2.719h-1.029v-0.629h5.247v0.629h-0.92
				v2.719h1.07V174.542z M116.484,173.912h1.999v-2.719h-1.999V173.912z M124.181,176.151c-0.03,0.06-0.101,0.09-0.2,0.09
				c-0.79,1.159-2.199,2.309-3.668,2.998c-0.12-0.16-0.32-0.39-0.49-0.539c1.409-0.59,2.829-1.68,3.578-2.839L124.181,176.151z
				 M123.521,170.414c-0.04,0.07-0.109,0.101-0.189,0.09c-0.63,0.79-1.709,1.709-2.659,2.289c-0.12-0.15-0.319-0.35-0.499-0.479
				c0.909-0.5,1.979-1.38,2.568-2.179L123.521,170.414z M123.891,173.212c-0.03,0.06-0.101,0.1-0.19,0.1
				c-0.72,0.85-1.938,1.829-3.018,2.438c-0.11-0.149-0.32-0.35-0.49-0.479c1.029-0.54,2.259-1.479,2.938-2.349L123.891,173.212z"/>
			<path fill="#ED1C24" d="M129.883,171.763c-0.04,0.09-0.12,0.16-0.25,0.16c-0.36,3.107-1.399,5.816-3.059,5.816
				c-0.839,0-1.599-0.84-1.599-2.419c0-2.398,1.869-4.407,4.497-4.407c2.889,0,4.138,1.829,4.138,3.778
				c0,2.378-1.379,3.527-3.798,4.087c-0.09-0.159-0.26-0.43-0.42-0.609c2.299-0.439,3.479-1.559,3.479-3.448
				c0-1.648-1.06-3.148-3.398-3.148c-0.1,0-0.21,0.011-0.3,0.021L129.883,171.763z M128.923,171.633
				c-2.019,0.25-3.268,1.919-3.268,3.668c0,1.069,0.459,1.739,0.939,1.739C127.804,177.041,128.673,174.372,128.923,171.633z"/>
			<path fill="#ED1C24" d="M135.774,175.88c-0.02,0.07-0.079,0.101-0.189,0.101c-0.12,0.839-0.33,1.809-0.609,2.389
				c-0.12-0.08-0.34-0.17-0.48-0.24c0.271-0.56,0.46-1.519,0.57-2.429L135.774,175.88z M142.312,175.601v2.729
				c0.35,0.12,0.489,0.12,1.739,0.12c-0.08,0.149-0.17,0.43-0.19,0.6h-0.77c-1.02,0-1.879-0.33-2.429-1.77
				c-0.149,0.75-0.38,1.42-0.76,1.929c-0.08-0.13-0.27-0.3-0.42-0.379c0.7-0.979,0.83-2.779,0.87-4.448l0.77,0.07
				c-0.01,0.07-0.07,0.109-0.2,0.12c-0.02,0.51-0.05,1.039-0.1,1.559c0.21,0.93,0.52,1.499,0.899,1.839v-5.007h-1.649v-0.31
				c-0.04,0.029-0.09,0.04-0.17,0.04c-0.149,0.47-0.34,0.939-0.56,1.389l0.2,0.05c-0.01,0.061-0.061,0.11-0.18,0.12v4.978h-0.58
				v-4.147c-0.189,0.3-0.399,0.579-0.609,0.819c-0.07-0.13-0.23-0.39-0.34-0.51c0.04-0.05,0.09-0.1,0.13-0.16l-0.35,0.16
				c-0.04-0.14-0.091-0.31-0.16-0.49l-0.77,0.051v4.277h-0.59v-4.248c-0.47,0.03-0.89,0.05-1.229,0.061
				c-0.01,0.069-0.08,0.109-0.14,0.13l-0.18-0.75h0.619c0.22-0.29,0.46-0.64,0.7-1.009c-0.3-0.45-0.79-1.02-1.229-1.439l0.329-0.44
				l0.311,0.29c0.29-0.579,0.609-1.329,0.789-1.879l0.72,0.271c-0.03,0.069-0.109,0.1-0.21,0.09c-0.229,0.56-0.6,1.349-0.93,1.898
				c0.21,0.23,0.4,0.46,0.55,0.67c0.37-0.609,0.7-1.239,0.95-1.759l0.689,0.329c-0.03,0.061-0.11,0.09-0.22,0.09
				c-0.46,0.84-1.189,2.02-1.84,2.879l1.47-0.021c-0.15-0.329-0.33-0.669-0.51-0.959l0.489-0.2c0.37,0.57,0.73,1.31,0.88,1.829
				c0.52-0.699,0.989-1.688,1.289-2.698l0.68,0.229v-0.239h3.888v0.609h-1.648v2.039h1.539v0.6H142.312z M137.594,177.86
				c-0.07-0.55-0.319-1.39-0.579-2.02l0.489-0.149c0.28,0.64,0.529,1.459,0.62,2.009L137.594,177.86z M139.942,170.224
				c-0.03,0.06-0.1,0.1-0.22,0.08c-0.359,0.829-0.92,1.759-1.429,2.349c-0.101-0.101-0.311-0.311-0.431-0.41
				c0.48-0.529,1.01-1.429,1.34-2.278L139.942,170.224z M140.902,170.024c0.319,0.62,0.59,1.43,0.68,1.969l-0.58,0.2
				c-0.07-0.54-0.34-1.369-0.63-1.989L140.902,170.024z M142.251,172.073c0.23-0.56,0.51-1.489,0.65-2.129l0.799,0.24
				c-0.029,0.069-0.1,0.1-0.21,0.109c-0.17,0.57-0.479,1.439-0.739,1.97L142.251,172.073z"/>
			<path fill="#ED1C24" d="M149.883,171.763c-0.04,0.09-0.12,0.16-0.25,0.16c-0.36,3.107-1.399,5.816-3.059,5.816
				c-0.839,0-1.599-0.84-1.599-2.419c0-2.398,1.869-4.407,4.497-4.407c2.889,0,4.138,1.829,4.138,3.778
				c0,2.378-1.379,3.527-3.798,4.087c-0.09-0.159-0.26-0.43-0.42-0.609c2.299-0.439,3.479-1.559,3.479-3.448
				c0-1.648-1.06-3.148-3.398-3.148c-0.1,0-0.21,0.011-0.3,0.021L149.883,171.763z M148.923,171.633
				c-2.019,0.25-3.268,1.919-3.268,3.668c0,1.069,0.459,1.739,0.939,1.739C147.804,177.041,148.673,174.372,148.923,171.633z"/>
			<path fill="#ED1C24" d="M-22.405,186.112h9.255v0.739h-9.255V186.112z"/>
			<path fill="#ED1C24" d="M-3.34,185.362h-3.408c0.939,0.83,2.398,1.579,3.668,1.939c-0.16,0.14-0.35,0.399-0.46,0.569
				c-0.31-0.109-0.64-0.239-0.969-0.39v3.718h-0.67v-0.319h-5.107v0.359h-0.65v-3.777c-0.38,0.199-0.759,0.369-1.119,0.499
				c-0.1-0.149-0.29-0.399-0.44-0.529c1.239-0.4,2.668-1.199,3.598-2.069h-3.338v-0.579h2.259c-0.15-0.38-0.459-0.92-0.759-1.31
				l0.58-0.22c0.34,0.42,0.689,0.989,0.819,1.379l-0.38,0.15h1.559v-1.689c-1.119,0.09-2.289,0.16-3.368,0.2
				c-0.02-0.14-0.09-0.39-0.15-0.52c2.408-0.11,5.337-0.36,6.916-0.7l0.49,0.54c-0.02,0.02-0.05,0.02-0.09,0.02
				c-0.03,0-0.07,0-0.11-0.01c-0.79,0.16-1.859,0.3-3.018,0.41v1.749h1.419c-0.11-0.05-0.22-0.09-0.29-0.12
				c0.31-0.43,0.7-1.119,0.899-1.6l0.81,0.3c-0.03,0.061-0.1,0.091-0.21,0.091c-0.22,0.379-0.56,0.929-0.859,1.329h2.378V185.362z
				 M-8.157,185.462c-0.669,0.699-1.599,1.369-2.548,1.879h5.907c-1-0.5-1.999-1.189-2.688-1.909v1.719h-0.67V185.462z
				 M-8.137,188.831v-0.95h-2.148v0.95H-8.137z M-10.286,189.33v1h2.148v-1H-10.286z M-5.179,188.831v-0.95h-2.319v0.95H-5.179z
				 M-7.498,190.33h2.319v-1h-2.319V190.33z"/>
			<path fill="#ED1C24" d="M2.363,187.431c0.28,0.579,0.649,1.089,1.099,1.539c0.76-0.399,1.679-0.979,2.239-1.419l0.64,0.459
				c-0.04,0.051-0.13,0.061-0.22,0.051c-0.58,0.39-1.479,0.899-2.229,1.289c0.79,0.63,1.799,1.079,2.988,1.31
				c-0.14,0.14-0.32,0.409-0.42,0.6c-2.329-0.54-3.928-1.839-4.777-3.828H0.174v2.788c0.86-0.14,1.809-0.3,2.729-0.46l0.03,0.561
				c-1.589,0.3-3.289,0.609-4.338,0.789c-0.01,0.08-0.07,0.13-0.13,0.15l-0.3-0.729c0.38-0.061,0.819-0.12,1.319-0.2v-2.898h-1.799
				v-0.62h1.799v-4.457h6.276v0.579H0.174v0.91h5.277v0.56H0.174v0.909h5.277v0.56H0.174v0.939H6.73v0.62H2.363z"/>
			<path fill="#ED1C24" d="M9.265,183.293c-0.02,0.09-0.13,0.149-0.27,0.16c-0.12,0.749-0.19,1.648-0.19,2.488
				c0,0.37,0.02,0.729,0.04,1.05c0.12,1.698,0.81,2.729,1.579,2.718c0.4,0,0.919-1.02,1.279-2.139c0.14,0.14,0.41,0.33,0.58,0.43
				c-0.459,1.35-1.04,2.449-1.869,2.469c-1.269,0.021-2.148-1.52-2.289-3.438c-0.03-0.379-0.04-0.799-0.04-1.249
				c0-0.879,0.05-1.839,0.15-2.688L9.265,183.293z M15.891,187.941c-0.28-1.749-1.169-3.009-2.519-3.758l0.44-0.54
				c1.459,0.779,2.528,2.219,2.818,4.067L15.891,187.941z"/>
			<path fill="#ED1C24" d="M20.784,185.792c0.23-0.52,0.5-1.358,0.64-1.929l0.77,0.22c-0.02,0.061-0.09,0.09-0.21,0.101
				c-0.15,0.489-0.4,1.209-0.629,1.709h1.489v0.619h-5.267v-0.619h3.518L20.784,185.792z M22.672,183.114v0.6h-4.837v-0.6h2.079
				v-1.17l0.85,0.05c-0.01,0.07-0.07,0.12-0.2,0.141v0.979H22.672z M18.265,191.239v-3.798h3.958v3.738h-0.649v-0.51h-2.668v0.569
				H18.265z M19.035,183.963c0.23,0.509,0.419,1.188,0.479,1.629l-0.589,0.14c-0.05-0.439-0.23-1.129-0.44-1.649L19.035,183.963z
				 M21.573,188.041h-2.668v2.029h2.668V188.041z M26.431,182.514l0.439,0.22c-0.01,0.05-0.05,0.08-0.09,0.1
				c-0.38,0.85-0.91,1.929-1.459,2.979c1.079,1.01,1.529,1.759,1.529,2.479c0,1.569-1.089,1.569-1.739,1.569
				c-0.15,0-0.31,0-0.46-0.01c-0.01-0.181-0.1-0.47-0.23-0.66c0.22,0.021,0.43,0.03,0.62,0.03c0.67,0,1.149-0.03,1.149-0.949
				c0-0.65-0.49-1.35-1.579-2.35c0.49-0.989,0.919-1.929,1.259-2.738h-1.989v8.046h-0.649v-8.686h3.068L26.431,182.514z"/>
			<path fill="#ED1C24" d="M31.313,182.454c-0.04,0.07-0.11,0.1-0.24,0.09c-0.699,1.579-1.859,3.059-3.128,3.958
				c-0.12-0.13-0.36-0.359-0.53-0.479c1.239-0.84,2.389-2.289,3.038-3.858L31.313,182.454z M34.812,185.792l0.16-0.01l0.38,0.04
				c0,0.07-0.01,0.16-0.01,0.24c-0.16,3.228-0.31,4.388-0.66,4.768c-0.28,0.319-0.58,0.35-1.189,0.35c-0.34,0-0.77-0.01-1.199-0.04
				c-0.01-0.2-0.1-0.479-0.22-0.67c0.68,0.061,1.33,0.07,1.569,0.07c0.21,0,0.33-0.021,0.43-0.13c0.26-0.26,0.42-1.3,0.55-3.958
				h-2.749c-0.27,1.919-0.83,3.857-3.508,4.817c-0.09-0.17-0.27-0.43-0.43-0.569c2.419-0.81,2.988-2.489,3.229-4.248h-2.149v-0.66
				H34.812z M33.932,182.144c0.66,1.379,1.969,2.929,3.079,3.688c-0.18,0.141-0.43,0.41-0.56,0.6
				c-1.12-0.889-2.409-2.528-3.159-4.027L33.932,182.144z"/>
			<path fill="#ED1C24" d="M41.434,182.423c-0.021,0.12-0.141,0.17-0.33,0.181c-0.11,0.56-0.29,1.529-0.41,2.129
				c0.45-0.051,0.859-0.091,1.109-0.091c1.52-0.02,2.039,0.99,2.039,2.489c0,0.749-0.14,1.639-0.34,2.238
				c-0.31,1.02-0.949,1.51-1.779,1.51c-0.409,0-0.949-0.17-1.809-0.87c0.11-0.18,0.19-0.399,0.27-0.609
				c0.799,0.62,1.219,0.76,1.529,0.76c0.57,0,0.91-0.36,1.109-1c0.21-0.619,0.32-1.539,0.32-2.049
				c-0.011-1.139-0.38-1.818-1.38-1.809c-0.3,0-0.709,0.04-1.219,0.1c-0.5,2.039-1.09,3.788-2.049,5.397l-0.659-0.32
				c0.969-1.549,1.519-3.098,1.989-4.997c-0.51,0.061-1.239,0.15-1.779,0.24l-0.06-0.7c0.49-0.06,1.309-0.149,1.979-0.229
				c0.15-0.729,0.31-1.629,0.43-2.509L41.434,182.423z M43.752,182.114c0.479,0.37,1.05,0.97,1.339,1.399l-0.39,0.28
				c-0.279-0.431-0.879-1.06-1.319-1.39L43.752,182.114z M45.991,187.931c-0.33-1.439-1.12-2.649-2.039-3.408l0.579-0.39
				c0.99,0.829,1.85,2.078,2.179,3.527L45.991,187.931z M45.261,181.724c0.49,0.359,1.06,0.96,1.35,1.39l-0.39,0.289
				c-0.28-0.43-0.88-1.069-1.319-1.398L45.261,181.724z"/>
			<path fill="#ED1C24" d="M51.532,184.623h-2.479l-0.249,1.669c0.149-0.02,0.289-0.03,0.529-0.03c0.51,0,0.999,0.101,1.399,0.351
				c0.51,0.279,0.93,0.85,0.93,1.659c0,1.269-1.01,2.219-2.419,2.219c-0.71,0-1.3-0.2-1.619-0.4l0.22-0.669
				c0.27,0.159,0.8,0.359,1.399,0.359c0.819,0,1.539-0.54,1.529-1.409c0-0.84-0.57-1.43-1.859-1.43c-0.38,0-0.67,0.03-0.909,0.061
				l0.42-3.118h3.107V184.623z"/>
			<path fill="#ED1C24" d="M57.112,187.061c0,2.209-0.829,3.429-2.259,3.429c-1.27,0-2.139-1.189-2.159-3.339
				c0-2.188,0.95-3.378,2.27-3.378C56.323,183.773,57.112,184.993,57.112,187.061z M53.584,187.162c0,1.688,0.52,2.648,1.319,2.648
				c0.89,0,1.319-1.05,1.319-2.709c0-1.599-0.399-2.648-1.319-2.648C54.144,184.453,53.584,185.392,53.584,187.162z"/>
			<path fill="#ED1C24" d="M57.984,189.86c0-0.36,0.25-0.63,0.6-0.63s0.59,0.26,0.59,0.63c0,0.359-0.24,0.63-0.609,0.63
				C58.225,190.49,57.984,190.219,57.984,189.86z"/>
			<path fill="#ED1C24" d="M61.185,186.961c-0.729-0.34-1.04-0.899-1.04-1.459c0-1.03,0.87-1.729,2.02-1.729
				c1.259,0,1.898,0.779,1.898,1.6c0,0.549-0.279,1.149-1.079,1.519v0.03c0.81,0.319,1.31,0.899,1.31,1.679
				c0,1.14-0.97,1.89-2.209,1.89c-1.359,0-2.179-0.8-2.179-1.749c0-0.82,0.489-1.409,1.289-1.749L61.185,186.961z M63.403,188.69
				c0-0.779-0.55-1.169-1.43-1.419c-0.76,0.22-1.169,0.729-1.169,1.35c-0.03,0.649,0.47,1.229,1.299,1.229
				C62.894,189.85,63.403,189.36,63.403,188.69z M60.984,185.442c-0.01,0.649,0.489,1,1.239,1.199
				c0.56-0.189,0.989-0.589,0.989-1.179c0-0.521-0.31-1.06-1.1-1.06C61.384,184.403,60.984,184.882,60.984,185.442z"/>
			<path fill="#ED1C24" d="M65.395,186.851c0-0.51-0.02-0.909-0.04-1.309h0.77l0.04,0.789h0.03c0.27-0.46,0.72-0.89,1.529-0.89
				c0.649,0,1.149,0.4,1.359,0.97h0.02c0.15-0.28,0.35-0.479,0.55-0.63c0.29-0.22,0.6-0.34,1.06-0.34
				c0.649,0,1.599,0.42,1.599,2.099v2.839h-0.859v-2.729c0-0.939-0.35-1.489-1.049-1.489c-0.51,0-0.89,0.37-1.05,0.79
				c-0.04,0.13-0.07,0.279-0.07,0.439v2.988h-0.859v-2.898c0-0.77-0.34-1.319-1.01-1.319c-0.539,0-0.949,0.439-1.089,0.88
				c-0.05,0.12-0.07,0.279-0.07,0.43v2.908h-0.859V186.851z"/>
			<path fill="#ED1C24" d="M73.734,186.851c0-0.51-0.02-0.909-0.04-1.309h0.77l0.04,0.789h0.03c0.27-0.46,0.72-0.89,1.529-0.89
				c0.649,0,1.149,0.4,1.359,0.97h0.02c0.15-0.28,0.35-0.479,0.55-0.63c0.29-0.22,0.6-0.34,1.06-0.34
				c0.649,0,1.599,0.42,1.599,2.099v2.839h-0.859v-2.729c0-0.939-0.35-1.489-1.049-1.489c-0.51,0-0.89,0.37-1.05,0.79
				c-0.04,0.13-0.07,0.279-0.07,0.439v2.988h-0.859v-2.898c0-0.77-0.34-1.319-1.01-1.319c-0.539,0-0.949,0.439-1.089,0.88
				c-0.05,0.12-0.07,0.279-0.07,0.43v2.908h-0.859V186.851z"/>
			<path fill="#ED1C24" d="M81.864,183.293c0.75-0.03,6.906-0.47,8.206-0.479l0.01,0.749c-0.13-0.01-0.25-0.01-0.37-0.01
				c-0.579,0-1.069,0.1-1.709,0.51c-1.499,0.899-2.948,2.509-2.948,3.798c0,1.399,0.979,2.229,3.458,2.549l-0.33,0.699
				c-2.838-0.409-3.897-1.469-3.897-3.248c0-1.409,1.39-3.118,3.218-4.268c-1.099,0.08-4.048,0.3-5.337,0.42
				c-0.029,0.08-0.14,0.149-0.22,0.159L81.864,183.293z M88.341,185.262c0.479,0.359,1.05,0.949,1.359,1.379l-0.38,0.311
				c-0.279-0.44-0.89-1.06-1.319-1.39L88.341,185.262z M89.42,184.382c0.49,0.36,1.069,0.939,1.359,1.38l-0.38,0.3
				c-0.27-0.4-0.85-1.02-1.319-1.38L89.42,184.382z"/>
			<path fill="#ED1C24" d="M96.342,183.593c-0.01-0.22-0.04-1.31-0.06-1.56l1.029,0.04c-0.01,0.08-0.08,0.18-0.26,0.21
				c0,0.12,0,0.24,0.02,1.289c1.229-0.04,2.519-0.069,3.269-0.079v0.689c-0.85-0.021-2.059,0-3.248,0.04
				c0.02,0.779,0.04,1.499,0.069,2.049c0.101,0.329,0.12,0.629,0.12,1.049c0,0.32-0.029,0.689-0.1,0.97
				c-0.26,1.169-1.119,2.199-2.879,2.898c-0.13-0.17-0.35-0.42-0.51-0.569c1.529-0.55,2.35-1.38,2.599-2.329h-0.01
				c-0.21,0.3-0.579,0.529-1.029,0.529c-0.89,0-1.679-0.729-1.679-1.749c-0.011-1.059,0.85-1.868,1.799-1.868
				c0.359,0,0.729,0.13,0.93,0.31c0-0.17-0.021-0.84-0.04-1.27c-1.04,0.021-4.198,0.13-4.607,0.15l-0.021-0.66l2.279-0.06
				L96.342,183.593z M96.532,187.101c0-0.39,0-1.299-1.02-1.299c-0.689,0.01-1.18,0.539-1.189,1.269c0,0.7,0.529,1.16,1.109,1.16
				C96.143,188.231,96.532,187.681,96.532,187.101z"/>
			<path fill="#ED1C24" d="M103.094,189.83c0,0.77-0.63,1.399-1.399,1.399s-1.399-0.63-1.399-1.399s0.63-1.399,1.399-1.399
				C102.484,188.43,103.094,189.081,103.094,189.83z M102.733,189.83c0-0.579-0.459-1.039-1.039-1.039
				c-0.569,0-1.029,0.46-1.029,1.039c0,0.569,0.46,1.029,1.029,1.029C102.294,190.859,102.733,190.379,102.733,189.83z"/>
			<path fill="#ED1C24" d="M107.714,185.583c0.29,0.369,1.069,1.488,1.25,1.759l-0.391,0.539c-0.149-0.329-0.539-1.009-0.859-1.519
				v4.847h-0.64v-4.877c-0.35,1.149-0.829,2.279-1.309,2.958c-0.091-0.18-0.25-0.439-0.37-0.589c0.64-0.87,1.299-2.509,1.619-3.938
				h-1.399v-0.629h1.459v-2.199l0.83,0.06c-0.011,0.061-0.061,0.11-0.19,0.13v2.01h1.22v0.43h1.389v-1.1h-1.188v-0.56h1.188v-0.96
				l0.83,0.05c-0.01,0.07-0.061,0.12-0.19,0.13v0.78h1.72v-0.96l0.829,0.05c-0.01,0.07-0.06,0.12-0.189,0.13v0.78h1.289v0.56h-1.289
				v1.1h1.519v0.589h-2.698v0.77h2.318v3.389h-5.187v-3.389h2.238v-0.77h-2.748v-0.39h-1.05V185.583z M111.272,189.95
				c-0.04,0.03-0.101,0.06-0.19,0.07c-0.43,0.409-1.299,0.929-2.009,1.219c-0.109-0.13-0.31-0.34-0.449-0.46
				c0.719-0.279,1.568-0.779,1.988-1.199L111.272,189.95z M109.883,186.431v0.93h1.629v-0.93H109.883z M109.883,187.861v0.939h1.629
				v-0.939H109.883z M110.962,183.463v1.1h1.72v-1.1H110.962z M113.841,186.431h-1.699v0.93h1.699V186.431z M113.841,188.8v-0.939
				h-1.699v0.939H113.841z M114.37,191.249c-0.42-0.35-1.269-0.899-1.919-1.269l0.48-0.38c0.649,0.35,1.509,0.869,1.948,1.219
				L114.37,191.249z"/>
			<path fill="#ED1C24" d="M116.495,190.669c-0.311-0.72-0.43-2.209-0.43-3.519c0-1.329,0.209-2.998,0.539-4.667l0.97,0.189
				c-0.021,0.101-0.12,0.17-0.26,0.181c-0.36,1.369-0.58,3.147-0.58,4.308c0,0.759,0.01,1.519,0.09,1.889
				c0.221-0.6,0.62-1.56,0.83-2.029l0.449,0.42c-0.329,0.68-1.029,2.199-1.029,2.669c0,0.14,0.03,0.289,0.101,0.479L116.495,190.669
				z M119.033,184.783c0.84,0.01,1.68,0.02,2.519-0.04c-0.04-0.859-0.069-1.6-0.09-2.339l1.01,0.03c-0.01,0.1-0.101,0.18-0.26,0.21
				c0.01,0.64,0.029,1.289,0.05,2.049c0.789-0.08,1.429-0.221,1.959-0.4l0.09,0.7c-0.479,0.149-1.17,0.289-2.019,0.359
				c0.04,1.109,0.09,2.279,0.119,2.919c0.76,0.31,1.52,0.799,2.039,1.269l-0.39,0.64c-0.41-0.409-0.999-0.85-1.619-1.139
				c-0.01,0.85-0.17,1.799-1.669,1.799c-1.169,0-1.949-0.56-1.949-1.439c0-1.02,1.029-1.469,1.949-1.469
				c0.31,0,0.64,0.04,0.949,0.13c-0.029-0.63-0.09-1.68-0.14-2.659c-0.31,0.021-0.729,0.03-1.02,0.03h-1.52L119.033,184.783z
				 M121.771,188.71c-0.319-0.1-0.659-0.18-0.989-0.18c-0.609,0-1.339,0.22-1.339,0.85c0,0.56,0.6,0.839,1.329,0.839
				c0.739,0,1.01-0.359,1.01-1.159L121.771,188.71z"/>
			<path fill="#ED1C24" d="M128.313,190.379V188.6h-3.018v-0.569l2.897-4.147h0.95v4.037h0.909v0.68h-0.909v1.779H128.313z
				 M128.313,187.92v-2.169c0-0.339,0.011-0.679,0.03-1.019h-0.03c-0.199,0.379-0.359,0.659-0.539,0.959l-1.59,2.209v0.02H128.313z"
				/>
			<path fill="#ED1C24" d="M133.443,190.379V188.6h-3.018v-0.569l2.897-4.147h0.95v4.037h0.909v0.68h-0.909v1.779H133.443z
				 M133.443,187.92v-2.169c0-0.339,0.011-0.679,0.03-1.019h-0.03c-0.199,0.379-0.359,0.659-0.539,0.959l-1.59,2.209v0.02H133.443z"
				/>
			<path fill="#ED1C24" d="M135.925,189.86c0-0.36,0.25-0.63,0.6-0.63s0.59,0.26,0.59,0.63c0,0.359-0.24,0.63-0.609,0.63
				C136.165,190.49,135.925,190.219,135.925,189.86z"/>
			<path fill="#ED1C24" d="M137.925,190.379v-0.54l0.689-0.669c1.659-1.579,2.418-2.419,2.418-3.398c0-0.66-0.31-1.27-1.279-1.27
				c-0.589,0-1.079,0.3-1.379,0.55l-0.279-0.619c0.439-0.37,1.089-0.66,1.828-0.66c1.399,0,1.989,0.96,1.989,1.889
				c0,1.2-0.869,2.169-2.238,3.488l-0.51,0.479v0.021h2.908v0.729H137.925z"/>
			<path fill="#ED1C24" d="M143.334,186.851c0-0.51-0.02-0.909-0.04-1.309h0.77l0.04,0.789h0.03c0.27-0.46,0.72-0.89,1.529-0.89
				c0.649,0,1.149,0.4,1.359,0.97h0.02c0.15-0.28,0.35-0.479,0.55-0.63c0.29-0.22,0.6-0.34,1.06-0.34
				c0.649,0,1.599,0.42,1.599,2.099v2.839h-0.859v-2.729c0-0.939-0.35-1.489-1.049-1.489c-0.51,0-0.89,0.37-1.05,0.79
				c-0.04,0.13-0.07,0.279-0.07,0.439v2.988h-0.859v-2.898c0-0.77-0.34-1.319-1.01-1.319c-0.539,0-0.949,0.439-1.089,0.88
				c-0.05,0.12-0.07,0.279-0.07,0.43v2.908h-0.859V186.851z"/>
			<path fill="#ED1C24" d="M151.674,186.851c0-0.51-0.02-0.909-0.04-1.309h0.77l0.04,0.789h0.03c0.27-0.46,0.72-0.89,1.529-0.89
				c0.649,0,1.149,0.4,1.359,0.97h0.02c0.15-0.28,0.35-0.479,0.55-0.63c0.29-0.22,0.6-0.34,1.06-0.34
				c0.649,0,1.599,0.42,1.599,2.099v2.839h-0.859v-2.729c0-0.939-0.35-1.489-1.049-1.489c-0.51,0-0.89,0.37-1.05,0.79
				c-0.04,0.13-0.07,0.279-0.07,0.439v2.988h-0.859v-2.898c0-0.77-0.34-1.319-1.01-1.319c-0.539,0-0.949,0.439-1.089,0.88
				c-0.05,0.12-0.07,0.279-0.07,0.43v2.908h-0.859V186.851z"/>
			<path fill="#ED1C24" d="M159.804,183.293c0.75-0.03,6.906-0.47,8.206-0.479l0.01,0.749c-0.13-0.01-0.25-0.01-0.37-0.01
				c-0.579,0-1.069,0.1-1.709,0.51c-1.499,0.899-2.948,2.509-2.948,3.798c0,1.399,0.979,2.229,3.458,2.549l-0.33,0.699
				c-2.838-0.409-3.897-1.469-3.897-3.248c0-1.409,1.39-3.118,3.218-4.268c-1.099,0.08-4.048,0.3-5.337,0.42
				c-0.029,0.08-0.14,0.149-0.22,0.159L159.804,183.293z M166.28,185.262c0.479,0.359,1.05,0.949,1.359,1.379l-0.38,0.311
				c-0.279-0.44-0.89-1.06-1.319-1.39L166.28,185.262z M167.359,184.382c0.49,0.36,1.069,0.939,1.359,1.38l-0.38,0.3
				c-0.27-0.4-0.85-1.02-1.319-1.38L167.359,184.382z"/>
			<path fill="#ED1C24" d="M174.281,183.593c-0.01-0.22-0.04-1.31-0.06-1.56l1.029,0.04c-0.01,0.08-0.08,0.18-0.26,0.21
				c0,0.12,0,0.24,0.02,1.289c1.229-0.04,2.519-0.069,3.269-0.079v0.689c-0.85-0.021-2.059,0-3.248,0.04
				c0.02,0.779,0.04,1.499,0.069,2.049c0.101,0.329,0.12,0.629,0.12,1.049c0,0.32-0.029,0.689-0.1,0.97
				c-0.26,1.169-1.119,2.199-2.879,2.898c-0.13-0.17-0.35-0.42-0.51-0.569c1.529-0.55,2.35-1.38,2.599-2.329h-0.01
				c-0.21,0.3-0.579,0.529-1.029,0.529c-0.89,0-1.679-0.729-1.679-1.749c-0.011-1.059,0.85-1.868,1.799-1.868
				c0.359,0,0.729,0.13,0.93,0.31c0-0.17-0.021-0.84-0.04-1.27c-1.04,0.021-4.198,0.13-4.607,0.15l-0.021-0.66l2.279-0.06
				L174.281,183.593z M174.472,187.101c0-0.39,0-1.299-1.02-1.299c-0.689,0.01-1.18,0.539-1.189,1.269c0,0.7,0.529,1.16,1.109,1.16
				C174.082,188.231,174.472,187.681,174.472,187.101z"/>
			<path fill="#ED1C24" d="M181.033,189.83c0,0.77-0.63,1.399-1.399,1.399s-1.399-0.63-1.399-1.399s0.63-1.399,1.399-1.399
				C180.424,188.43,181.033,189.081,181.033,189.83z M180.673,189.83c0-0.579-0.459-1.039-1.039-1.039
				c-0.569,0-1.029,0.46-1.029,1.039c0,0.569,0.46,1.029,1.029,1.029C180.233,190.859,180.673,190.379,180.673,189.83z"/>
			<path fill="#ED1C24" d="M-15.169,202.2c-0.879,0.16-2.039,0.229-3.038,0.229c-0.839,0-1.569-0.05-1.959-0.13
				c-1.209-0.27-1.729-1.029-1.729-1.909c0-0.77,0.43-1.539,1.02-2.139l0.58,0.3c-0.56,0.58-0.879,1.22-0.879,1.779
				c0,0.58,0.39,1.109,1.249,1.299c0.35,0.08,0.939,0.12,1.629,0.12c0.969,0,2.129-0.08,3.078-0.27L-15.169,202.2z M-19.656,197.152
				c0.52-0.399,1.229-0.889,1.769-1.159v-0.01c-0.76,0.09-2.499,0.13-3.608,0.12c0-0.19,0-0.52-0.01-0.7
				c0.22,0.011,4.058,0.07,5.697-0.319l0.08,0.739c-1.189,0.141-2.718,1.18-3.358,1.689L-19.656,197.152z"/>
			<path fill="#ED1C24" d="M-8.817,195.763c-0.04,0.09-0.12,0.16-0.25,0.16c-0.36,3.107-1.399,5.816-3.059,5.816
				c-0.839,0-1.599-0.84-1.599-2.419c0-2.398,1.869-4.407,4.498-4.407c2.889,0,4.138,1.829,4.138,3.778
				c0,2.378-1.379,3.527-3.798,4.087c-0.09-0.159-0.26-0.43-0.419-0.609c2.298-0.439,3.478-1.559,3.478-3.448
				c0-1.648-1.06-3.148-3.398-3.148c-0.1,0-0.21,0.011-0.3,0.021L-8.817,195.763z M-9.777,195.633
				c-2.019,0.25-3.269,1.919-3.269,3.668c0,1.069,0.46,1.739,0.939,1.739C-10.896,201.041-10.027,198.372-9.777,195.633z"/>
			<path fill="#ED1C24" d="M5.07,197.572H1.163c0.649,2.389,1.939,4.228,4.067,5.018c-0.17,0.149-0.39,0.43-0.5,0.63
				c-2.089-0.859-3.358-2.629-4.098-5.037c-0.46,1.979-1.549,3.938-4.128,5.047c-0.1-0.18-0.31-0.42-0.479-0.569
				c2.638-1.07,3.628-3.068,4.008-5.088h-3.858v-0.689h3.968c0.13-1.039,0.12-2.059,0.13-2.929l0.939,0.051
				c-0.01,0.09-0.09,0.14-0.22,0.17c-0.01,0.789-0.02,1.729-0.14,2.708H5.07V197.572z"/>
			<path fill="#ED1C24" d="M14.341,197.522c-0.899,0.31-1.989,0.5-3.019,0.62c0.31,0.539,0.92,1.289,1.649,1.568l-0.4,0.57
				c-0.14-0.07-0.4-0.19-0.58-0.3c-0.22-0.08-0.709-0.15-1.179-0.15c-0.14,0-0.28,0.01-0.41,0.021l-0.14-0.55
				c0.34-0.021,0.83,0,1.119,0.04c-0.27-0.29-0.589-0.72-0.79-1.13c-0.669,0.07-1.409,0.101-2.678,0.101c-0.49,0-1.04,0-1.489-0.011
				l-0.01-0.629c0.45,0.01,1.03,0.02,1.529,0.02c0.819,0,1.629,0,2.438-0.07c-0.11-0.31-0.27-0.879-0.39-1.329
				c-0.4,0.04-0.85,0.061-1.259,0.061c-0.54,0-1.229,0-1.699-0.021v-0.619c0.6,0.029,1.259,0.029,1.689,0.029
				c0.36,0,0.77-0.02,1.149-0.05c-0.09-0.46-0.19-1.009-0.27-1.569l1.029,0.011c0,0.119-0.09,0.189-0.27,0.22
				c0.06,0.43,0.13,0.89,0.209,1.279c0.939-0.09,1.949-0.29,2.679-0.58l0.17,0.62c-0.729,0.27-1.719,0.46-2.719,0.569
				c0.13,0.53,0.26,1,0.38,1.31c1.06-0.11,2.209-0.34,3.119-0.66L14.341,197.522z M12.582,202.809c-0.55,0.04-1.209,0.06-2.199,0.06
				c-1.619-0.01-2.878-0.529-2.858-1.658c0.01-0.59,0.53-1.22,1.18-1.579l0.45,0.459c-0.58,0.311-0.919,0.729-0.919,1.109
				c0,0.71,0.879,1.02,2.148,1.029c0.75,0,1.54-0.039,2.219-0.09L12.582,202.809z"/>
			<path fill="#ED1C24" d="M23.741,196.243c-0.91,0.26-2.129,0.439-3.328,0.55c0.39,1.359,0.81,2.169,1.889,2.639l-0.49,0.609
				c-0.459-0.35-0.929-0.619-2.229-0.689l-0.12-0.59c0.49,0.04,0.859,0.101,1.109,0.15c-0.35-0.42-0.62-1.06-0.89-2.069
				c-0.45,0.04-1.059,0.061-1.659,0.061c-0.65,0-1.709-0.011-2.349-0.03v-0.68c0.6,0.03,1.449,0.03,2.359,0.03
				c0.51,0,1.089-0.011,1.489-0.051c-0.12-0.539-0.23-1.279-0.35-2.049l1.069,0.021c-0.01,0.12-0.1,0.189-0.26,0.229
				c0.06,0.57,0.16,1.199,0.27,1.749c1.149-0.1,2.449-0.31,3.328-0.59L23.741,196.243z M21.952,202.819
				c-0.48,0.021-0.99,0.03-1.859,0.03c-2.089,0-3.568-0.64-3.568-1.979c0-0.57,0.35-1.149,0.899-1.68l0.54,0.43
				c-0.45,0.36-0.72,0.85-0.72,1.229c0,0.989,1.279,1.31,2.869,1.31c0.869,0,1.379-0.021,1.889-0.05L21.952,202.819z"/>
			<path fill="#ED1C24" d="M26.834,194.684c-0.03,0.109-0.13,0.17-0.33,0.159c-0.35,1.629-0.53,3.418-0.53,4.498
				c0,0.749,0.03,1.509,0.13,1.979c0.19-0.489,0.62-1.539,0.76-1.889l0.419,0.439c-0.41,1.01-0.709,1.579-0.849,2.029
				c-0.05,0.17-0.08,0.329-0.08,0.47c0,0.109,0.02,0.21,0.05,0.31l-0.709,0.13c-0.32-0.949-0.44-2.108-0.44-3.438
				c0-1.309,0.21-3.138,0.53-4.867L26.834,194.684z M33.201,201.99c-0.36,0.02-0.729,0.03-1.1,0.03c-0.709,0-1.379-0.04-1.859-0.11
				c-1.229-0.18-1.799-0.859-1.799-1.659c0-0.689,0.38-1.27,0.939-1.929l0.649,0.279c-0.5,0.521-0.85,1-0.85,1.569
				c0,1.159,1.699,1.159,2.739,1.159c0.42,0,0.87-0.02,1.289-0.05L33.201,201.99z M28.574,195.883c1.289-0.03,3.028-0.15,4.357-0.38
				l0.06,0.699c-1.239,0.21-3.248,0.34-4.397,0.37L28.574,195.883z"/>
			<path fill="#ED1C24" d="M39.713,193.994c-0.03,0.09-0.1,0.13-0.21,0.15c0.99,1.339,2.809,2.759,4.378,3.488
				c-0.16,0.149-0.33,0.38-0.44,0.579c-1.589-0.829-3.398-2.269-4.357-3.578c-0.829,1.239-2.508,2.709-4.257,3.658
				c-0.09-0.149-0.28-0.39-0.42-0.529c1.779-0.92,3.518-2.489,4.318-3.828L39.713,193.994z M36.045,203.239v-4.048h6.156v4.048
				h-0.68v-0.43h-4.817v0.43H36.045z M36.555,197.262h5.117v0.609h-5.117V197.262z M41.521,199.811h-4.817v2.389h4.817V199.811z"/>
			<path fill="#ED1C24" d="M46.864,194.194l1.01,0.1c-0.03,0.12-0.12,0.17-0.29,0.19c-0.04,0.47-0.07,1.02-0.09,1.429
				c0.06,0.03,0.16,0.07,0.359,0.15c-0.12,0.24-0.319,0.779-0.409,1.209c-0.011,0.2-0.021,0.271-0.03,0.43
				c1.079-0.789,2.209-1.209,3.269-1.209c1.749,0,2.668,1.189,2.668,2.868c0,2.099-1.649,3.049-4.348,3.288
				c-0.06-0.21-0.149-0.449-0.25-0.64c2.479-0.229,3.878-0.929,3.878-2.639c0-1.219-0.629-2.219-1.999-2.219
				c-1.049,0-2.099,0.41-3.228,1.319c0,1.439,0,3.169,0.01,4.498h-0.699c0.01-0.6,0-3.538,0.01-4.198
				c-0.33,0.6-1.109,1.619-1.899,2.319l-0.369-0.59c0.789-0.71,1.839-1.899,2.278-2.969l0.03-0.819c-0.39,0.07-1.18,0.15-1.969,0.17
				l-0.021-0.689c0.699,0,1.52-0.04,2.029-0.15L46.864,194.194z"/>
			<path fill="#ED1C24" d="M61.412,194.304c0,0.1-0.07,0.149-0.22,0.189c0.039,0.699,0.069,1.52,0.09,2.269
				c0.789-0.13,1.549-0.25,2.139-0.34l0.06,0.7c-0.6,0.06-1.379,0.17-2.188,0.3c0.01,0.919-0.01,1.729-0.11,2.219
				c-0.12,0.59-0.55,0.93-1.119,0.93c-0.41,0-0.989-0.141-1.539-0.44c0.05-0.149,0.09-0.399,0.12-0.59
				c0.56,0.3,1.069,0.391,1.309,0.391c0.601,0,0.69-0.59,0.64-2.409c-1.148,0.19-2.349,0.39-3.258,0.55
				c0.021,0.949,0.04,1.859,0.08,2.419c0.12,1.519,0.869,1.608,2.309,1.608c0.819,0,1.899-0.05,2.618-0.149l0.021,0.68
				c-0.71,0.08-1.719,0.109-2.559,0.109c-1.549,0-2.908-0.039-3.078-2.188c-0.05-0.56-0.07-1.429-0.09-2.358
				c-0.62,0.109-1.439,0.27-1.949,0.369l-0.11-0.669c0.53-0.08,1.359-0.23,2.049-0.34c-0.01-0.87-0.02-1.81-0.02-2.568l0.989,0.09
				c-0.01,0.109-0.09,0.17-0.25,0.189c-0.01,0.609-0.01,1.409,0,2.159l3.238-0.54c-0.029-0.85-0.069-1.819-0.13-2.629
				L61.412,194.304z"/>
			<path fill="#ED1C24" d="M64.525,195.293c0.75-0.03,6.906-0.47,8.206-0.479l0.01,0.749c-0.13-0.01-0.25-0.01-0.37-0.01
				c-0.579,0-1.069,0.1-1.709,0.51c-1.499,0.899-2.948,2.509-2.948,3.798c0,1.399,0.979,2.229,3.458,2.549l-0.33,0.699
				c-2.838-0.409-3.897-1.469-3.897-3.248c0-1.409,1.39-3.118,3.218-4.268c-1.059,0.069-4.048,0.3-5.337,0.42
				c-0.029,0.08-0.14,0.149-0.22,0.159L64.525,195.293z"/>
			<path fill="#ED1C24" d="M82.092,198.152h-3.299l0.17,0.05c-0.01,0.06-0.09,0.11-0.199,0.12c-0.26,1.809-1.08,3.607-3.089,4.617
				c-0.109-0.13-0.369-0.359-0.539-0.489c1.969-0.979,2.658-2.499,2.888-4.298h-3.817v-0.67h7.886V198.152z M80.622,195.423h-5.547
				v-0.67h5.547V195.423z M80.752,193.954c0.41,0.43,0.87,1.109,1.1,1.579l-0.399,0.271c-0.21-0.46-0.689-1.17-1.09-1.579
				L80.752,193.954z M81.932,193.614c0.41,0.431,0.89,1.109,1.129,1.569l-0.409,0.25c-0.21-0.439-0.71-1.149-1.1-1.559
				L81.932,193.614z"/>
			<path fill="#ED1C24" d="M92.432,197.243h-2.139v0.669c0,1.909-0.59,3.848-3.209,5.027c-0.13-0.16-0.34-0.359-0.51-0.5
				c2.539-1.099,3.009-2.878,3.009-4.518v-0.679h-3.179v2.468h-0.709v-2.468h-1.959v-0.68h1.959v-2.189l0.959,0.061
				c-0.01,0.1-0.1,0.189-0.25,0.21v1.919h3.179v-2.31l0.949,0.061c-0.01,0.08-0.09,0.17-0.239,0.189v2.06h2.139V197.243z
				 M90.893,194.604c0.43,0.39,0.919,0.969,1.188,1.419l-0.359,0.27c-0.28-0.449-0.77-1.049-1.169-1.409L90.893,194.604z
				 M91.882,193.774c0.449,0.4,0.93,0.97,1.199,1.43l-0.35,0.27c-0.29-0.449-0.78-1.05-1.189-1.419L91.882,193.774z"/>
			<path fill="#ED1C24" d="M101.551,194.864c-0.04,0.05-0.1,0.08-0.189,0.08c-0.03,0-0.06,0-0.1-0.011
				c-0.77,0.78-1.879,1.689-2.849,2.389c0.08,0.03,0.2,0.091,0.239,0.11c-0.02,0.06-0.109,0.12-0.22,0.13v5.367h-0.729v-5.138
				c-1.06,0.75-2.438,1.56-3.808,2.229c-0.1-0.16-0.28-0.41-0.42-0.55c2.729-1.26,5.717-3.398,7.326-5.167L101.551,194.864z"/>
			<path fill="#ED1C24" d="M103.255,195.034c1.04,0.329,2.239,0.85,2.979,1.359l-0.38,0.629c-0.72-0.51-1.898-1.039-2.918-1.389
				L103.255,195.034z M103.215,201.959c3.549-1.1,5.907-3.088,7.106-5.856c0.21,0.17,0.439,0.3,0.649,0.409
				c-1.249,2.739-3.688,4.868-7.076,5.997c-0.01,0.09-0.069,0.19-0.14,0.229L103.215,201.959z"/>
			<path fill="#ED1C24" d="M120.472,198.221c-0.021,0.011-0.04,0.021-0.06,0.021c-0.061,0-0.11-0.03-0.15-0.06
				c-0.76,0.249-1.869,0.659-2.698,1.019c0.02,0.23,0.029,0.49,0.029,0.78c0,0.319-0.01,0.68-0.029,1.069l-0.729,0.04
				c0.029-0.36,0.05-0.819,0.05-1.21c0-0.149,0-0.289-0.01-0.399c-1.13,0.55-2.05,1.22-2.05,1.819c0,0.579,0.69,0.859,2.069,0.859
				c0.97,0,1.869-0.021,2.509-0.101l0.01,0.67c-0.59,0.061-1.489,0.08-2.519,0.08c-1.919,0-2.769-0.46-2.769-1.479
				c0-0.879,1.159-1.729,2.658-2.479c-0.06-0.63-0.34-0.939-0.739-0.939c-0.729,0-1.489,0.41-2.389,1.409
				c-0.279,0.311-0.67,0.7-1.1,1.09l-0.489-0.49c0.999-0.879,1.938-1.719,2.519-3.688l-0.56,0.01h-1.669v-0.649
				c0.609,0.01,1.319,0.01,1.729,0.01l0.68-0.01c0.11-0.46,0.2-0.89,0.27-1.43l0.979,0.12c-0.02,0.1-0.1,0.16-0.249,0.18
				c-0.07,0.4-0.16,0.75-0.25,1.109c0.68-0.01,2.139-0.17,3.438-0.579l0.12,0.669c-1.249,0.391-2.759,0.53-3.748,0.561
				c-0.239,0.749-0.489,1.349-0.72,1.688h0.011c0.439-0.39,1.099-0.649,1.608-0.649c0.68,0,1.109,0.489,1.239,1.299
				c0.84-0.379,1.899-0.789,2.699-1.099L120.472,198.221z"/>
			<path fill="#ED1C24" d="M124.704,195.633v0.56h-3.258v-0.56H124.704z M124.435,202.639h-2.029v0.479h-0.56v-3.408h2.589V202.639z
				 M124.444,196.993v0.55h-2.588v-0.55H124.444z M121.856,198.901v-0.549h2.588v0.549H121.856z M124.415,194.304v0.55h-2.489v-0.55
				H124.415z M123.865,200.271h-1.46v1.799h1.46V200.271z M130.441,194.374v7.966c0,0.88-0.42,0.88-1.919,0.88
				c-0.021-0.181-0.11-0.48-0.2-0.67c0.29,0.01,0.56,0.01,0.79,0.01h0.489c0.16-0.01,0.2-0.05,0.2-0.22v-7.366h-3.908v3.009
				c0,1.579-0.109,3.808-0.969,5.317c-0.11-0.12-0.38-0.311-0.53-0.38c0.81-1.43,0.88-3.438,0.88-4.938v-3.608H130.441z
				 M126.354,197.702h1.199v-1.039h-1.1v-0.529h1.1v-0.95l0.74,0.05c-0.011,0.07-0.061,0.11-0.181,0.13v0.771h1.12v0.529h-1.12
				v1.039h1.279v0.53h-3.038V197.702z M129.172,201.66h-2.129v0.42h-0.52v-3.019h2.648V201.66z M128.643,199.591h-1.6v1.549h1.6
				V199.591z"/>
			<path fill="#ED1C24" d="M133.825,196.632c-0.07-0.319-0.26-0.819-0.47-1.239h-0.45c-0.29,0.479-0.609,0.93-0.939,1.26
				c-0.13-0.11-0.359-0.271-0.52-0.35c0.58-0.55,1.149-1.489,1.479-2.409l0.759,0.25c-0.02,0.06-0.09,0.1-0.209,0.08
				c-0.08,0.21-0.181,0.42-0.28,0.63h2.769v0.539h-1.949c0.18,0.36,0.33,0.75,0.39,1.02L133.825,196.632z M134.895,201.7
				c-0.25-0.34-0.54-0.67-0.819-0.949l0.51-0.28c0.689,0.66,1.369,1.56,1.669,2.179l-0.55,0.32c-0.101-0.23-0.26-0.49-0.44-0.77
				c-1.269,0.22-2.578,0.439-3.407,0.56c-0.011,0.08-0.07,0.13-0.13,0.149l-0.261-0.719l0.79-0.11v-5.147h3.468v3.349h-2.828v1.709
				L134.895,201.7z M135.084,197.482h-2.188v0.85h2.188V197.482z M132.896,199.741h2.188v-0.89h-2.188V199.741z M137.663,194.134
				c-0.021,0.069-0.09,0.09-0.2,0.09c-0.09,0.21-0.189,0.42-0.31,0.63h3.567v0.539h-2.378c0.27,0.36,0.51,0.76,0.629,1.05
				l-0.579,0.25c-0.13-0.36-0.45-0.88-0.79-1.3h-0.779c-0.319,0.479-0.699,0.91-1.089,1.229c-0.12-0.11-0.36-0.28-0.51-0.37
				c0.669-0.52,1.309-1.419,1.658-2.358L137.663,194.134z M140.161,196.922v4.308c0,0.79-0.409,0.79-1.849,0.79
				c-0.03-0.181-0.11-0.44-0.21-0.63c0.34,0.01,0.649,0.02,0.88,0.02c0.479,0,0.529,0,0.529-0.189v-3.668h-2.209v5.677h-0.64v-6.307
				H140.161z"/>
			<path fill="#ED1C24" d="M143.734,194.374c-0.02,0.12-0.109,0.19-0.31,0.22c-0.08,1.16-0.18,3.809-0.18,5.287
				c0,1.489,0.739,2.209,1.998,2.209c1.22,0,2.459-0.609,3.599-1.898c0.1,0.159,0.33,0.479,0.449,0.589
				c-1.169,1.33-2.588,2.029-4.058,2.029c-1.818,0-2.748-1.05-2.748-2.938c0-1.259,0.09-4.357,0.16-5.587L143.734,194.374z"/>
			<path fill="#ED1C24" d="M149.826,195.293c0.75-0.03,6.906-0.47,8.206-0.479l0.01,0.749c-0.13-0.01-0.25-0.01-0.37-0.01
				c-0.579,0-1.069,0.1-1.709,0.51c-1.499,0.899-2.948,2.509-2.948,3.798c0,1.399,0.979,2.229,3.458,2.549l-0.33,0.699
				c-2.838-0.409-3.897-1.469-3.897-3.248c0-1.409,1.39-3.118,3.218-4.268c-1.059,0.069-4.048,0.3-5.337,0.42
				c-0.029,0.08-0.14,0.149-0.22,0.159L149.826,195.293z"/>
			<path fill="#ED1C24" d="M160.665,195.293c-0.02,0.09-0.13,0.149-0.27,0.16c-0.12,0.749-0.19,1.648-0.19,2.488
				c0,0.37,0.021,0.729,0.04,1.05c0.12,1.698,0.81,2.729,1.579,2.718c0.4,0,0.92-1.02,1.279-2.139c0.141,0.14,0.41,0.33,0.58,0.43
				c-0.46,1.35-1.039,2.449-1.869,2.469c-1.27,0.021-2.148-1.52-2.288-3.438c-0.03-0.379-0.04-0.799-0.04-1.249
				c0-0.879,0.05-1.839,0.149-2.688L160.665,195.293z M167.292,199.941c-0.28-1.749-1.17-3.009-2.519-3.758l0.439-0.54
				c1.459,0.779,2.528,2.219,2.818,4.067L167.292,199.941z"/>
			<path fill="#ED1C24" d="M169.366,195.494c0.62,0.039,1.449,0.039,2.129,0.039c0.45,0,0.96-0.01,1.379-0.02
				c-0.01-0.479-0.02-1.039-0.02-1.39l1.01,0.051c-0.011,0.119-0.101,0.18-0.271,0.209c-0.01,0.16,0,0.93,0,1.1
				c1.17-0.06,2.329-0.159,3.318-0.39l0.09,0.66c-0.979,0.22-2.139,0.319-3.408,0.38c0.011,0.6,0.021,1.219,0.04,1.839
				c0.97-0.061,2.009-0.19,2.818-0.39l0.08,0.649c-0.839,0.18-1.889,0.3-2.888,0.35l0.079,1.669c0.92,0.3,1.899,0.819,2.938,1.56
				l-0.439,0.609c-0.899-0.71-1.749-1.189-2.479-1.47c0,0.16,0.01,0.34,0.01,0.471c-0.01,0.949-0.58,1.499-1.789,1.499
				c-1.27,0-2.198-0.521-2.198-1.46c0-0.959,1.089-1.488,2.208-1.488c0.33,0,0.68,0.029,1.05,0.119
				c-0.01-0.43-0.03-0.949-0.04-1.489c-0.319,0.011-0.68,0.021-0.97,0.021c-1.709,0-2.188-0.27-2.188-0.85
				c0-0.38,0.29-0.689,0.93-1.1l0.479,0.31c-0.45,0.25-0.689,0.47-0.689,0.67c0,0.3,0.47,0.36,1.739,0.36
				c0.22,0,0.449,0,0.669-0.011l-0.06-1.849c-0.43,0.02-0.93,0.02-1.379,0.02c-0.64,0-1.55,0-2.149-0.02V195.494z M173.064,200.701
				c-0.399-0.11-0.77-0.16-1.119-0.16c-0.76,0-1.529,0.31-1.529,0.909c0,0.59,0.699,0.88,1.569,0.88c0.789,0,1.089-0.35,1.089-1.05
				L173.064,200.701z"/>
			<path fill="#ED1C24" d="M183.104,195.593c-0.01-0.22-0.04-1.31-0.06-1.56l1.029,0.04c-0.01,0.08-0.08,0.18-0.26,0.21
				c0,0.12,0,0.24,0.02,1.289c1.229-0.04,2.519-0.069,3.269-0.079v0.689c-0.85-0.021-2.059,0-3.248,0.04
				c0.02,0.779,0.04,1.499,0.069,2.049c0.101,0.329,0.12,0.629,0.12,1.049c0,0.32-0.029,0.689-0.1,0.97
				c-0.26,1.169-1.119,2.199-2.879,2.898c-0.13-0.17-0.35-0.42-0.51-0.569c1.529-0.55,2.35-1.38,2.599-2.329h-0.01
				c-0.21,0.3-0.579,0.529-1.029,0.529c-0.89,0-1.679-0.729-1.679-1.749c-0.011-1.059,0.85-1.868,1.799-1.868
				c0.359,0,0.729,0.13,0.93,0.31c0-0.17-0.021-0.84-0.04-1.27c-1.04,0.021-4.198,0.13-4.607,0.15l-0.021-0.66l2.279-0.06
				L183.104,195.593z M183.294,199.101c0-0.39,0-1.299-1.02-1.299c-0.689,0.01-1.18,0.539-1.189,1.269c0,0.7,0.529,1.16,1.109,1.16
				C182.904,200.231,183.294,199.681,183.294,199.101z"/>
			<path fill="#ED1C24" d="M189.855,201.83c0,0.77-0.63,1.399-1.399,1.399s-1.399-0.63-1.399-1.399s0.63-1.399,1.399-1.399
				C189.246,200.43,189.855,201.081,189.855,201.83z M189.495,201.83c0-0.579-0.459-1.039-1.039-1.039
				c-0.569,0-1.029,0.46-1.029,1.039c0,0.569,0.46,1.029,1.029,1.029C189.056,202.859,189.495,202.379,189.495,201.83z"/>
		</g>
	</g>
</g>
</svg>
