<?xml version="1.0" encoding="utf-8"?>
<!-- Generator: Adobe Illustrator 16.0.0, SVG Export Plug-In . SVG Version: 6.00 Build 0)  -->
<!DOCTYPE svg PUBLIC "-//W3C//DTD SVG 1.1//EN" "http://www.w3.org/Graphics/SVG/1.1/DTD/svg11.dtd">
<svg version="1.1" id="Layer_1" xmlns="http://www.w3.org/2000/svg" xmlns:xlink="http://www.w3.org/1999/xlink" x="0px" y="0px"
	 width="259.805px" height="300px" viewBox="370.098 0 259.805 300" enable-background="new 370.098 0 259.805 300"
	 xml:space="preserve">
<g display="none">
	
		<image display="inline" overflow="visible" opacity="0.4" enable-background="new    " width="1829" height="2096" xlink:href="4361ABE90C65C6F6.png"  transform="matrix(0.1526 0 0 0.1523 360.5576 -9.1162)">
	</image>
	<g display="inline">
		<polygon fill="#FCF4DA" points="629.902,225.397 500.032,300.445 370.098,225.397 370.098,75.429 500.032,0.445 629.902,75.429 		
			"/>
	</g>
</g>
<polygon fill="#FCF4DA" points="629.902,225.016 500.032,300 370.098,225.016 370.098,74.984 500.032,0 629.902,74.984 "/>
<polygon fill="#EF3D30" points="615.847,211.215 615.847,219.419 499.841,286.39 384.153,220.564 384.153,211.215 499.714,277.422 
	"/>
<g>
	<path fill="#EF3D30" d="M604.145,205.236l10.367,5.979l-114.544,66.144l-114.543-66.144l10.367-5.979l103.667,59.848l0.318,0.19
		l0.318-0.19L604.145,205.236 M395.855,204.473l-11.639,6.742l115.815,66.844l115.814-66.844l-11.702-6.742l-104.304,60.039
		L395.855,204.473L395.855,204.473z"/>
</g>
<g>
	<path fill="#EF3D30" d="M572.345,178.524l30.528,18.126l-102.905,59.402L397.063,196.65l30.528-18.126l14.183,8.204l0.127,0.064
		h0.191l115.497-0.255h0.19l0.127-0.063L572.345,178.524 M572.408,177.762l-14.818,8.141l-115.497,0.254l-14.501-8.395l-31.8,18.889
		l104.176,60.166l104.177-60.166L572.408,177.762L572.408,177.762z"/>
</g>
<polygon fill="#EF3D30" points="604.145,196.65 604.145,204.473 499.968,264.639 395.855,204.473 395.855,196.65 499.968,256.434 
	"/>
<polygon fill="#F26C66" points="418.434,61.564 499.714,14.501 581.566,61.564 564.84,69.96 435.287,69.96 "/>
<polygon fill="#EF3D30" points="418.434,183.549 418.434,61.564 435.287,69.96 564.713,69.96 581.566,61.564 581.566,183.676 
	564.713,192.008 435.287,192.008 "/>
<rect x="473.829" y="129.171" fill="#FCF4DA" width="50.243" height="65.19"/>
<g>
	<path fill="#FCF4DA" d="M441.329,104.876V90.312h2.099l3.181,7.568v-7.568h2.416v14.501h-2.035l-3.18-8.077v8.077h-2.48V104.876z"
		/>
	<path fill="#FCF4DA" d="M451.441,100.106v-4.897c0-3.435,1.399-5.152,4.262-5.152c2.861,0,4.261,1.717,4.261,5.152v4.833
		c0,0.572-0.063,1.145-0.127,1.59c-0.063,0.509-0.255,0.954-0.445,1.399c-0.19,0.445-0.445,0.827-0.764,1.145
		c-0.317,0.318-0.699,0.573-1.208,0.7c-0.509,0.191-1.018,0.254-1.653,0.254s-1.209-0.063-1.653-0.254
		c-0.51-0.191-0.891-0.382-1.209-0.7s-0.572-0.636-0.763-1.081c-0.191-0.445-0.382-0.891-0.445-1.399
		C451.441,101.187,451.441,100.678,451.441,100.106z M456.975,100.742v-6.296c0-1.399-0.445-2.163-1.336-2.163
		c-0.254,0-0.508,0.063-0.699,0.191c-0.19,0.127-0.318,0.318-0.382,0.509c-0.063,0.254-0.127,0.445-0.19,0.7
		s-0.063,0.445-0.063,0.699v6.296c0,1.399,0.445,2.163,1.335,2.163C456.529,102.904,456.975,102.141,456.975,100.742z"/>
	<path fill="#FCF4DA" d="M462.254,104.876V90.312h3.053c0.954,0,1.78,0.063,2.416,0.254c0.637,0.191,1.146,0.445,1.463,0.891
		c0.382,0.381,0.637,0.89,0.764,1.463c0.127,0.572,0.19,1.272,0.19,2.162v4.77c0,0.509,0,0.954-0.063,1.335
		c-0.063,0.382-0.063,0.763-0.19,1.145c-0.063,0.381-0.191,0.7-0.382,0.954c-0.127,0.254-0.382,0.509-0.572,0.699
		c-0.191,0.191-0.509,0.382-0.891,0.509c-0.318,0.127-0.763,0.255-1.208,0.318s-1.018,0.127-1.59,0.127h-2.989V104.876z
		 M465.307,102.777c0.254,0,0.509,0,0.636,0c0.19,0,0.318,0,0.509-0.064c0.19-0.063,0.254-0.063,0.382-0.127
		c0.063-0.063,0.127-0.127,0.19-0.254c0.063-0.127,0.127-0.254,0.127-0.382c0-0.127,0-0.318,0-0.572v-7.823
		c0-0.509-0.127-0.827-0.445-0.954c-0.254-0.127-0.763-0.254-1.462-0.254v10.431H465.307z"/>
	<path fill="#FCF4DA" d="M472.493,104.876V90.312h6.042v2.035h-3.116v3.943h2.226v2.035h-2.226v4.452h3.116v2.035h-6.042V104.876z"
		/>
	<path fill="#FCF4DA" d="M479.935,100.678l2.989-0.572c0,0.318,0,0.572,0,0.763c0,0.254,0.063,0.445,0.063,0.763
		s0.127,0.509,0.19,0.636c0.063,0.19,0.191,0.318,0.318,0.445c0.127,0.127,0.317,0.191,0.509,0.191c0.572,0,0.891-0.381,0.891-1.145
		c0-1.018-0.573-2.035-1.718-3.053l-0.891-0.764c-0.317-0.254-0.509-0.445-0.699-0.636s-0.382-0.382-0.636-0.636
		c-0.255-0.254-0.445-0.509-0.572-0.763c-0.128-0.254-0.255-0.572-0.318-0.954c-0.063-0.382-0.127-0.763-0.127-1.145
		c0-1.208,0.382-2.099,1.145-2.798s1.717-1.018,2.989-1.018c1.018,0,1.908,0.381,2.607,1.081s1.081,1.59,1.081,2.671v0.127
		c0,0.064,0,0.127,0,0.254l-3.053,0.445c0-0.063,0-0.127,0-0.254c0-0.127,0-0.254,0-0.318c0-0.191,0-0.382-0.063-0.572
		c0-0.191-0.063-0.382-0.127-0.509c-0.063-0.191-0.127-0.318-0.318-0.445c-0.127-0.127-0.254-0.127-0.445-0.127
		c-0.317,0-0.572,0.127-0.699,0.382c-0.191,0.254-0.255,0.572-0.255,0.89c0,0.318,0.063,0.573,0.128,0.827
		c0.063,0.254,0.254,0.509,0.445,0.763c0.19,0.254,0.381,0.445,0.509,0.572c0.19,0.127,0.381,0.318,0.636,0.572
		c0.254,0.191,0.445,0.382,0.572,0.509c0.445,0.382,0.763,0.7,1.018,1.018c0.254,0.318,0.572,0.7,0.827,1.081
		c0.254,0.382,0.444,0.827,0.572,1.336c0.127,0.445,0.19,0.954,0.19,1.526c0,1.018-0.382,1.844-1.081,2.48
		c-0.699,0.636-1.59,0.954-2.671,0.954c-0.7,0-1.272-0.127-1.781-0.382s-0.954-0.572-1.271-1.018
		c-0.318-0.445-0.572-0.891-0.764-1.399C480.062,101.823,479.935,101.314,479.935,100.678z"/>
	<path fill="#FCF4DA" d="M489.538,99.979v-4.834c0-3.434,1.399-5.151,4.197-5.151c0.572,0,1.145,0.063,1.59,0.254
		c0.445,0.127,0.827,0.382,1.146,0.636c0.317,0.255,0.572,0.636,0.763,1.018c0.19,0.382,0.318,0.827,0.445,1.336
		c0.063,0.509,0.127,1.018,0.127,1.59v1.272h-2.862v-1.335c0-0.254,0-0.509,0-0.7s-0.063-0.381-0.063-0.636
		c-0.063-0.254-0.127-0.445-0.19-0.573c-0.063-0.127-0.19-0.254-0.318-0.381c-0.127-0.127-0.317-0.191-0.572-0.191
		c-0.826,0-1.271,0.7-1.271,2.163v6.296c0,1.399,0.445,2.162,1.271,2.162c0.255,0,0.445-0.063,0.637-0.191
		c0.19-0.127,0.317-0.381,0.381-0.636s0.127-0.509,0.127-0.763s0.064-0.572,0.064-0.891v-1.463h2.861v1.208
		c0,0.573-0.063,1.082-0.127,1.526c-0.063,0.445-0.19,0.954-0.382,1.336c-0.19,0.381-0.445,0.827-0.763,1.145
		c-0.318,0.318-0.7,0.572-1.145,0.763c-0.445,0.191-1.018,0.254-1.654,0.254c-0.636,0-1.208-0.063-1.653-0.254
		c-0.509-0.191-0.891-0.445-1.208-0.7c-0.318-0.318-0.573-0.699-0.764-1.145s-0.318-0.891-0.445-1.399
		C489.602,101.124,489.538,100.615,489.538,99.979z"/>
	<path fill="#FCF4DA" d="M500.032,104.876V90.312h2.925v5.979h2.1v-5.979h2.925v14.501h-2.925v-6.487h-2.1v6.487h-2.925V104.876z"/>
	<path fill="#FCF4DA" d="M510.398,100.106v-4.897c0-3.435,1.399-5.152,4.262-5.152c2.861,0,4.261,1.717,4.261,5.152v4.833
		c0,0.572-0.063,1.145-0.127,1.59c-0.063,0.509-0.255,0.954-0.445,1.399c-0.19,0.445-0.445,0.827-0.764,1.145
		c-0.317,0.318-0.699,0.573-1.208,0.7c-0.509,0.191-1.018,0.254-1.653,0.254c-0.637,0-1.209-0.063-1.654-0.254
		c-0.509-0.191-0.89-0.382-1.208-0.7s-0.572-0.636-0.764-1.081c-0.19-0.445-0.381-0.891-0.444-1.399
		C510.462,101.187,510.398,100.678,510.398,100.106z M515.932,100.742v-6.296c0-1.399-0.445-2.163-1.336-2.163
		c-0.254,0-0.509,0.063-0.699,0.191c-0.19,0.127-0.318,0.318-0.382,0.509c-0.063,0.254-0.127,0.445-0.19,0.7
		s-0.063,0.445-0.063,0.699v6.296c0,1.399,0.445,2.163,1.335,2.163C515.486,102.904,515.932,102.141,515.932,100.742z"/>
	<path fill="#FCF4DA" d="M521.083,100.106v-4.897c0-3.435,1.399-5.152,4.262-5.152c2.861,0,4.261,1.717,4.261,5.152v4.833
		c0,0.572-0.063,1.145-0.127,1.59c-0.063,0.509-0.254,0.954-0.445,1.399c-0.19,0.445-0.445,0.827-0.763,1.145
		c-0.318,0.318-0.7,0.573-1.209,0.7c-0.509,0.191-1.018,0.254-1.653,0.254s-1.209-0.063-1.653-0.254
		c-0.509-0.191-0.891-0.382-1.209-0.7c-0.317-0.318-0.572-0.636-0.763-1.081c-0.191-0.445-0.382-0.891-0.445-1.399
		C521.083,101.187,521.083,100.678,521.083,100.106z M526.616,100.742v-6.296c0-1.399-0.445-2.163-1.335-2.163
		c-0.255,0-0.509,0.063-0.7,0.191c-0.19,0.127-0.317,0.318-0.382,0.509c-0.063,0.254-0.127,0.445-0.19,0.7s-0.063,0.445-0.063,0.699
		v6.296c0,1.399,0.445,2.163,1.336,2.163C526.171,102.904,526.616,102.141,526.616,100.742z"/>
	<path fill="#FCF4DA" d="M531.959,104.876V90.312h2.926v12.529h2.861v2.035H531.959z"/>
	<path fill="#FCF4DA" d="M539.464,104.876v-2.544h2.607v2.544H539.464z"/>
	<path fill="#FCF4DA" d="M544.552,104.876V90.312h2.926v14.501h-2.926V104.876z"/>
	<path fill="#FCF4DA" d="M549.83,100.106v-4.897c0-3.435,1.399-5.152,4.262-5.152c2.861,0,4.261,1.717,4.261,5.152v4.833
		c0,0.572-0.063,1.145-0.127,1.59c-0.063,0.509-0.255,0.954-0.445,1.399c-0.19,0.445-0.445,0.827-0.763,1.145
		c-0.318,0.318-0.7,0.573-1.209,0.7c-0.509,0.191-1.018,0.254-1.653,0.254s-1.208-0.063-1.653-0.254
		c-0.509-0.191-0.891-0.382-1.209-0.7c-0.317-0.318-0.572-0.636-0.763-1.081c-0.191-0.445-0.382-0.891-0.445-1.399
		C549.895,101.187,549.83,100.678,549.83,100.106z M555.427,100.742v-6.296c0-1.399-0.444-2.163-1.335-2.163
		c-0.255,0-0.509,0.063-0.7,0.191c-0.19,0.127-0.317,0.318-0.381,0.509c-0.063,0.254-0.128,0.445-0.191,0.7
		s-0.063,0.445-0.063,0.699v6.296c0,1.399,0.445,2.163,1.336,2.163C554.982,102.904,555.427,102.141,555.427,100.742z"/>
</g>
<rect x="445.463" y="118.359" fill="#FCF4DA" width="17.236" height="3.434"/>
<rect x="535.394" y="118.359" fill="#FCF4DA" width="17.235" height="3.434"/>
<g>
	<rect x="498.314" y="128.472" fill="#D52827" width="1.272" height="63.536"/>
</g>
<g>
	<path fill="#D52827" d="M523.437,129.298v61.5h-48.972v-61.5H523.437 M524.709,128.026h-51.517v64.045h51.517V128.026
		L524.709,128.026z"/>
</g>
<polygon fill="#FCF4DA" points="418.434,108.565 418.434,101.251 435.287,109.709 564.713,109.709 581.566,101.251 581.566,108.755 
	564.713,117.023 435.287,117.023 "/>
<polygon fill="#D52827" points="418.37,110.218 418.37,107.992 435.224,116.388 564.649,116.388 581.503,107.992 581.503,110.409 
	564.649,118.677 435.224,118.677 "/>
<polygon fill="#D52827" points="418.37,183.485 418.37,182.531 435.224,190.926 564.649,190.926 581.503,182.531 581.503,183.612 
	564.649,191.943 435.224,191.943 "/>
<polygon fill="#FCF4DA" points="418.434,75.811 418.434,68.497 435.287,76.956 564.713,76.956 581.566,68.497 581.566,76.002 
	564.713,84.27 435.287,84.27 "/>
<rect x="539.973" y="121.793" fill="#FCF4DA" width="8.014" height="70.914"/>
<polygon fill="#D52827" points="418.37,77.464 418.37,75.238 435.224,83.634 564.649,83.634 581.503,75.238 581.503,77.655 
	564.649,85.923 435.224,85.923 "/>
<rect x="449.533" y="121.793" fill="#FCF4DA" width="8.014" height="70.914"/>
<line fill="none" stroke="#EF3D30" stroke-miterlimit="10" x1="542.325" y1="121.857" x2="542.325" y2="191.943"/>
<line fill="none" stroke="#EF3D30" stroke-miterlimit="10" x1="545.696" y1="121.857" x2="545.696" y2="191.943"/>
<polyline fill="none" stroke="#D52827" stroke-width="2" stroke-miterlimit="10" points="462.444,118.359 462.444,122.43 
	457.865,122.43 457.865,191.943 "/>
<polyline fill="none" stroke="#D52827" stroke-width="2" stroke-miterlimit="10" points="552.629,118.359 552.629,122.43 
	548.622,122.43 548.622,191.943 "/>
<polygon fill="#D52827" points="418.37,63.791 418.37,61.564 435.224,69.96 564.649,69.96 581.503,61.564 581.503,63.918 
	564.649,72.25 435.224,72.25 "/>
<polyline fill="none" stroke="#D52827" stroke-width="2" stroke-miterlimit="10" points="539.4,191.943 539.4,122.493 
	535.394,122.493 535.394,117.532 "/>
<polyline fill="none" stroke="#D52827" stroke-width="2" stroke-miterlimit="10" points="449.152,191.943 449.152,122.493 
	445.082,122.493 445.082,117.532 "/>
<line fill="none" stroke="#EF3D30" stroke-miterlimit="10" x1="451.823" y1="121.73" x2="451.823" y2="191.943"/>
<line fill="none" stroke="#EF3D30" stroke-miterlimit="10" x1="455.258" y1="121.73" x2="455.258" y2="191.943"/>
</svg>
