<?xml version="1.0" encoding="UTF-8" standalone="no"?>
<!-- Generator: Adobe Illustrator 18.1.0, SVG Export Plug-In . SVG Version: 6.00 Build 0)  -->

<svg
   xmlns:dc="http://purl.org/dc/elements/1.1/"
   xmlns:cc="http://creativecommons.org/ns#"
   xmlns:rdf="http://www.w3.org/1999/02/22-rdf-syntax-ns#"
   xmlns:svg="http://www.w3.org/2000/svg"
   xmlns="http://www.w3.org/2000/svg"
   xmlns:sodipodi="http://sodipodi.sourceforge.net/DTD/sodipodi-0.dtd"
   xmlns:inkscape="http://www.inkscape.org/namespaces/inkscape"
   version="1.1"
   id="Layer_1"
   x="0px"
   y="0px"
   viewBox="0 0 181 209"
   enable-background="new 0 0 320 240"
   xml:space="preserve"
   inkscape:version="0.91 r13725"
   sodipodi:docname="nodejs2.svg"
   width="181"
   height="209"
   inkscape:export-filename="/home/mc/Papers/Projects/Forks/hexbin/hexagons/nodejs2.png"
   inkscape:export-xdpi="90"
   inkscape:export-ydpi="90"><metadata
     id="metadata65"><rdf:RDF><cc:Work
         rdf:about=""><dc:format>image/svg+xml</dc:format><dc:type
           rdf:resource="http://purl.org/dc/dcmitype/StillImage" /><dc:title /></cc:Work></rdf:RDF></metadata><defs
     id="defs63"><clipPath
       clipPathUnits="userSpaceOnUse"
       id="clipPath228"><path
         d="m 239.032,373.393 -42.134,-24.315 c -1.575,-0.909 -2.545,-2.588 -2.545,-4.407 l 0,-48.666 c 0,-1.818 0.97,-3.497 2.544,-4.408 l 42.133,-24.334 c 1.576,-0.909 3.516,-0.909 5.091,0 l 42.124,24.334 c 1.574,0.911 2.543,2.59 2.543,4.408 l 0,48.668 c 0,1.817 -0.969,3.496 -2.545,4.405 l -42.123,24.315 c -0.787,0.454 -1.666,0.682 -2.544,0.682 -0.879,0 -1.757,-0.228 -2.544,-0.682"
         id="path230"
         inkscape:connector-curvature="0" /></clipPath><clipPath
       clipPathUnits="userSpaceOnUse"
       id="clipPath236"><path
         d="m 286.351,291.597 -42.177,-24.333 c -0.58,-0.335 -1.213,-0.545 -1.861,-0.633 l 0.84,-1.53 46.847,27.117 0,0.639 -1.158,1.979 c -0.347,-1.348 -1.263,-2.528 -2.491,-3.239"
         id="path238"
         inkscape:connector-curvature="0" /></clipPath><linearGradient
       x1="0"
       y1="0"
       x2="1"
       y2="0"
       gradientUnits="userSpaceOnUse"
       gradientTransform="matrix(-60.080605,-122.56444,-122.56444,60.080605,304.47177,357.58765)"
       spreadMethod="pad"
       id="linearGradient244"><stop
         style="stop-opacity:1;stop-color:#687e67"
         offset="0"
         id="stop246" /><stop
         style="stop-opacity:1;stop-color:#687e67"
         offset="0.5288042"
         id="stop248" /><stop
         style="stop-opacity:1;stop-color:#83a178"
         offset="1"
         id="stop250" /></linearGradient><clipPath
       clipPathUnits="userSpaceOnUse"
       id="clipPath194"><path
         d="m 239.032,373.393 -42.134,-24.315 c -1.575,-0.909 -2.545,-2.588 -2.545,-4.407 l 0,-48.666 c 0,-1.818 0.97,-3.497 2.544,-4.408 l 42.133,-24.334 c 1.576,-0.909 3.516,-0.909 5.091,0 l 42.124,24.334 c 1.574,0.911 2.543,2.59 2.543,4.408 l 0,48.668 c 0,1.817 -0.969,3.496 -2.545,4.405 l -42.123,24.315 c -0.787,0.454 -1.666,0.682 -2.544,0.682 -0.879,0 -1.757,-0.228 -2.544,-0.682"
         id="path196"
         inkscape:connector-curvature="0" /></clipPath><clipPath
       clipPathUnits="userSpaceOnUse"
       id="clipPath202"><path
         d="m 286.351,291.597 -42.177,-24.333 c -0.58,-0.335 -1.213,-0.545 -1.861,-0.633 l 0.84,-1.53 46.847,27.117 0,0.639 -1.158,1.979 c -0.347,-1.348 -1.263,-2.528 -2.491,-3.239"
         id="path204"
         inkscape:connector-curvature="0" /></clipPath><linearGradient
       x1="0"
       y1="0"
       x2="1"
       y2="0"
       gradientUnits="userSpaceOnUse"
       gradientTransform="matrix(97.416992,0,0,-97.416992,192.8623,279.9682)"
       spreadMethod="pad"
       id="linearGradient210"><stop
         style="stop-opacity:1;stop-color:#9bb48f"
         offset="0"
         id="stop212" /><stop
         style="stop-opacity:1;stop-color:#9bb48f"
         offset="0.0919165"
         id="stop214" /><stop
         style="stop-opacity:1;stop-color:#9bb48f"
         offset="0.30262629"
         id="stop216" /><stop
         style="stop-opacity:1;stop-color:#687e67"
         offset="0.862444"
         id="stop218" /><stop
         style="stop-opacity:1;stop-color:#687e67"
         offset="1"
         id="stop220" /></linearGradient><clipPath
       clipPathUnits="userSpaceOnUse"
       id="clipPath134"><path
         d="m 241.065,374.048 c -0.705,-0.07 -1.398,-0.289 -2.033,-0.655 l 0,0 -42.014,-24.245 45.293,-82.513 c 0.628,0.091 1.243,0.301 1.81,0.628 l 0,0 42.124,24.334 c 1.301,0.753 2.189,2.031 2.458,3.477 l 0,0 -46.178,78.89 c -0.341,0.068 -0.688,0.102 -1.035,0.102 l 0,0 c -0.142,0 -0.284,-0.006 -0.425,-0.018"
         id="path136"
         inkscape:connector-curvature="0" /></clipPath><linearGradient
       x1="0"
       y1="0"
       x2="1"
       y2="0"
       gradientUnits="userSpaceOnUse"
       gradientTransform="matrix(97.416992,0,0,-97.416992,192.8623,320.34848)"
       spreadMethod="pad"
       id="linearGradient142"><stop
         style="stop-opacity:1;stop-color:#9bb48f"
         offset="0"
         id="stop144" /><stop
         style="stop-opacity:1;stop-color:#9bb48f"
         offset="0.0919165"
         id="stop146" /><stop
         style="stop-opacity:1;stop-color:#9bb48f"
         offset="0.30262629"
         id="stop148" /><stop
         style="stop-opacity:1;stop-color:#687e67"
         offset="0.862444"
         id="stop150" /><stop
         style="stop-opacity:1;stop-color:#687e67"
         offset="1"
         id="stop152" /></linearGradient><clipPath
       clipPathUnits="userSpaceOnUse"
       id="clipPath74"><path
         d="m 195.4,292.914 c 0.401,-0.525 0.906,-0.975 1.497,-1.317 l 0,0 36.143,-20.874 6.017,-3.46 c 0.9,-0.519 1.927,-0.739 2.936,-0.665 l 0,0 c 0.337,0.028 0.673,0.09 1.001,0.185 l 0,0 44.43,81.357 c -0.34,0.365 -0.736,0.682 -1.181,0.938 l 0,0 -27.588,15.925 -14.579,8.39 c -0.417,0.24 -0.864,0.413 -1.323,0.526 l 0,0 -47.353,-81.005 z"
         id="path76"
         inkscape:connector-curvature="0" /></clipPath><linearGradient
       x1="0"
       y1="0"
       x2="1"
       y2="0"
       gradientUnits="userSpaceOnUse"
       gradientTransform="matrix(106.80725,78.914902,78.914902,-106.80725,235.15767,314.64658)"
       spreadMethod="pad"
       id="linearGradient82"><stop
         style="stop-opacity:1;stop-color:#687e67"
         offset="0"
         id="stop84" /><stop
         style="stop-opacity:1;stop-color:#687e67"
         offset="0.137556"
         id="stop86" /><stop
         style="stop-opacity:1;stop-color:#9bb48f"
         offset="0.69737407"
         id="stop88" /><stop
         style="stop-opacity:1;stop-color:#9bb48f"
         offset="0.908084"
         id="stop90" /><stop
         style="stop-opacity:1;stop-color:#9bb48f"
         offset="1"
         id="stop92" /></linearGradient><clipPath
       clipPathUnits="userSpaceOnUse"
       id="clipPath52"><path
         d="m 239.032,373.393 -42.134,-24.315 c -1.576,-0.909 -2.545,-2.588 -2.545,-4.407 l 0,0 0,-48.666 c 0,-1.818 0.969,-3.497 2.544,-4.408 l 0,0 42.133,-24.334 c 1.576,-0.909 3.516,-0.909 5.091,0 l 0,0 42.124,24.334 c 1.574,0.911 2.543,2.59 2.543,4.408 l 0,0 0,48.668 c 0,1.817 -0.969,3.496 -2.545,4.405 l 0,0 -42.123,24.315 c -0.787,0.454 -1.666,0.682 -2.544,0.682 l 0,0 c -0.879,0 -1.757,-0.228 -2.544,-0.682"
         id="path54"
         inkscape:connector-curvature="0" /></clipPath><linearGradient
       x1="0"
       y1="0"
       x2="1"
       y2="0"
       gradientUnits="userSpaceOnUse"
       gradientTransform="matrix(-38.064877,-77.652351,-77.652351,38.064877,258.70169,355.28543)"
       spreadMethod="pad"
       id="linearGradient60"><stop
         style="stop-opacity:1;stop-color:#687e67"
         offset="0"
         id="stop62" /><stop
         style="stop-opacity:1;stop-color:#687e67"
         offset="0.5288042"
         id="stop64" /><stop
         style="stop-opacity:1;stop-color:#83a178"
         offset="1"
         id="stop66" /></linearGradient></defs><sodipodi:namedview
     pagecolor="#ffffff"
     bordercolor="#666666"
     borderopacity="1"
     objecttolerance="10"
     gridtolerance="10"
     guidetolerance="10"
     inkscape:pageopacity="0"
     inkscape:pageshadow="2"
     inkscape:window-width="1920"
     inkscape:window-height="1030"
     id="namedview61"
     showgrid="false"
     fit-margin-top="0"
     fit-margin-left="0"
     fit-margin-right="0"
     fit-margin-bottom="0"
     inkscape:zoom="4.0287081"
     inkscape:cx="90.5"
     inkscape:cy="104.5"
     inkscape:window-x="0"
     inkscape:window-y="24"
     inkscape:window-maximized="1"
     inkscape:current-layer="Layer_1" /><g
     id="g4276"
     transform="matrix(1.5362056,0,0,1.5528314,-53.848538,-34.083739)"><g
       id="g48"
       transform="matrix(1.25,0,0,-1.25,-207.8883,489.76882)"><g
         clip-path="url(#clipPath52)"
         id="g50"><g
           id="g56"><g
             id="g58"><path
               inkscape:connector-curvature="0"
               id="path68"
               style="fill:url(#linearGradient60);stroke:none"
               d="m 239.032,373.393 -42.134,-24.315 c -1.576,-0.909 -2.545,-2.588 -2.545,-4.407 l 0,0 0,-48.666 c 0,-1.818 0.969,-3.497 2.544,-4.408 l 0,0 42.133,-24.334 c 1.576,-0.909 3.516,-0.909 5.091,0 l 0,0 42.124,24.334 c 1.574,0.911 2.543,2.59 2.543,4.408 l 0,0 0,48.668 c 0,1.817 -0.969,3.496 -2.545,4.405 l 0,0 -42.123,24.315 c -0.787,0.454 -1.666,0.682 -2.544,0.682 l 0,0 c -0.879,0 -1.757,-0.228 -2.544,-0.682" /></g></g></g></g><g
       id="g70"
       transform="matrix(1.25,0,0,-1.25,-207.8883,489.76882)"><g
         clip-path="url(#clipPath74)"
         id="g72"><g
           id="g78"><g
             id="g80"><path
               inkscape:connector-curvature="0"
               id="path94"
               style="fill:url(#linearGradient82);stroke:none"
               d="m 195.4,292.914 c 0.401,-0.525 0.906,-0.975 1.497,-1.317 l 0,0 36.143,-20.874 6.017,-3.46 c 0.9,-0.519 1.927,-0.739 2.936,-0.665 l 0,0 c 0.337,0.028 0.673,0.09 1.001,0.185 l 0,0 44.43,81.357 c -0.34,0.365 -0.736,0.682 -1.181,0.938 l 0,0 -27.588,15.925 -14.579,8.39 c -0.417,0.24 -0.864,0.413 -1.323,0.526 l 0,0 -47.353,-81.005 z" /></g></g></g></g><g
       id="g130"
       transform="matrix(1.25,0,0,-1.25,-207.8883,489.76882)"><g
         clip-path="url(#clipPath134)"
         id="g132"><g
           id="g138"><g
             id="g140"><path
               inkscape:connector-curvature="0"
               id="path154"
               style="fill:url(#linearGradient142);stroke:none"
               d="m 241.065,374.048 c -0.705,-0.07 -1.398,-0.289 -2.033,-0.655 l 0,0 -42.014,-24.245 45.293,-82.513 c 0.628,0.091 1.243,0.301 1.81,0.628 l 0,0 42.124,24.334 c 1.301,0.753 2.189,2.031 2.458,3.477 l 0,0 -46.178,78.89 c -0.341,0.068 -0.688,0.102 -1.035,0.102 l 0,0 c -0.142,0 -0.284,-0.006 -0.425,-0.018" /></g></g></g></g><g
       id="g190"
       transform="matrix(1.25,0,0,-1.25,-207.8883,489.76882)"><g
         clip-path="url(#clipPath194)"
         id="g192"><g
           id="g198"><g
             clip-path="url(#clipPath202)"
             id="g200"><g
               id="g206"><g
                 id="g208"><path
                   inkscape:connector-curvature="0"
                   id="path222"
                   style="fill:url(#linearGradient210);stroke:none"
                   d="m 286.351,291.597 -42.177,-24.333 c -0.58,-0.335 -1.213,-0.545 -1.861,-0.633 l 0.84,-1.53 46.847,27.117 0,0.639 -1.158,1.979 c -0.347,-1.348 -1.263,-2.528 -2.491,-3.239" /></g></g></g></g></g></g><g
       id="g224"
       transform="matrix(1.25,0,0,-1.25,-207.8883,489.76882)"><g
         clip-path="url(#clipPath228)"
         id="g226"><g
           id="g232"><g
             clip-path="url(#clipPath236)"
             id="g234"><g
               id="g240"><g
                 id="g242"><path
                   inkscape:connector-curvature="0"
                   id="path252"
                   style="fill:url(#linearGradient244);stroke:none"
                   d="m 286.351,291.597 -42.177,-24.333 c -0.58,-0.335 -1.213,-0.545 -1.861,-0.633 l 0.84,-1.53 46.847,27.117 0,0.639 -1.158,1.979 c -0.347,-1.348 -1.263,-2.528 -2.491,-3.239" /></g></g></g></g></g></g></g></svg>