<?xml version="1.0" encoding="utf-8"?>
<!-- Generator: Adobe Illustrator 16.0.0, SVG Export Plug-In . SVG Version: 6.00 Build 0)  -->
<!DOCTYPE svg PUBLIC "-//W3C//DTD SVG 1.1//EN" "http://www.w3.org/Graphics/SVG/1.1/DTD/svg11.dtd">
<svg version="1.1" id="Слой_1" xmlns="http://www.w3.org/2000/svg" xmlns:xlink="http://www.w3.org/1999/xlink" x="0px" y="0px"
	 width="612px" height="792px" viewBox="0 0 612 792" enable-background="new 0 0 612 792" xml:space="preserve">
<polygon id="background" fill="#FAFA00" points="10.656,225.312 305.841,54.817 600.865,225.312 600.865,566.143 305.841,736.479 
	10.656,566.143 "/>
<g id="foreground">
	<path fill="#333333" d="M305.999,71.506l281.725,162.268v324.443l-281.725,162.27L24.281,558.217V233.773L305.999,71.506
		L305.999,71.506z M305.999,43.233L-0.219,219.614v352.765l306.218,176.389l306.22-176.389V219.614L305.999,43.233z"/>
	<path id="top-stripes_2_" fill="#333333" d="M428.145,168.17L307.431,98.509l0,0c-0.159-0.158-0.317-0.158-0.478-0.158l0,0l0,0
		h-0.158h-0.159c-0.159,0-0.318,0-0.479,0c0,0,0,0-0.158,0h-0.158c-0.159,0-0.479,0-0.638,0l0,0l0,0l0,0
		c-0.158,0-0.316,0.158-0.477,0.158l0,0l-118.806,68.549c-1.433,0.796-1.908,2.545-1.113,3.977s2.704,1.908,3.977,1.113
		l105.604-60.914l-44.851,57.256c-0.954,1.272-0.795,3.181,0.478,4.135c1.272,0.955,3.181,0.796,4.135-0.477l48.985-62.504v61.071
		c0,1.592,1.271,3.021,3.021,3.021c1.75,0,3.022-1.271,3.022-3.021v-61.071l48.984,62.504c0.637,0.795,1.433,1.113,2.387,1.113
		c0.636,0,1.271-0.159,1.749-0.638c1.271-0.954,1.432-2.861,0.478-4.135l-44.851-57.256L425.44,173.26
		c0.477,0.317,0.954,0.317,1.432,0.317c0.954,0,2.067-0.478,2.544-1.432C430.054,170.874,429.575,168.966,428.145,168.17z"/>
	<path id="bottom-stripes_2_" fill="#333333" d="M427.35,618.105c-0.795-1.432-2.703-1.909-3.977-1.113l-105.445,60.913
		l44.851-57.256c0.954-1.271,0.795-3.181-0.478-4.135c-1.273-0.954-3.182-0.795-4.136,0.477l-48.984,62.505v-61.072
		c0-1.59-1.272-3.021-3.022-3.021c-1.749,0-3.021,1.272-3.021,3.021v61.072l-48.985-62.504c-0.953-1.271-2.862-1.432-4.135-0.478
		c-1.271,0.954-1.432,2.862-0.478,4.135l44.851,57.256L186.877,615.88c-1.433-0.797-3.182-0.318-3.977,1.112
		c-0.796,1.432-0.317,3.182,1.113,3.977l120.714,69.661c0,0,0,0,0.159,0c0.158,0,0.158,0.158,0.316,0.158c0,0,0,0,0.159,0
		c0,0,0,0,0.159,0h0.159c0.158,0,0.477,0.159,0.636,0.159l0,0l0,0l0,0l0,0c0.318,0,0.479,0,0.637-0.159h0.159h0.158
		c0.159,0,0.159-0.158,0.318-0.158c0,0,0,0,0.158,0l118.807-68.549C427.668,621.445,428.145,619.536,427.35,618.105z"/>
	<circle id="bottom-dot-right_2_" fill="#333333" cx="435.302" cy="612.538" r="3.658"/>
	<circle id="bottom-dot-left_2_" fill="#333333" cx="175.266" cy="612.538" r="3.658"/>
	<g id="nodeschool-banner_2_">
		<path fill="#333333" d="M273.641,317.47c1.4,0,2.449-1.051,2.449-2.449V302.6l10.146,13.297c0.699,0.874,1.399,1.573,2.624,1.573
			h0.176c1.398,0,2.624-1.051,2.624-2.623v-18.37c0-1.4-1.051-2.449-2.449-2.449c-1.399,0-2.449,1.049-2.449,2.449v11.896
			l-9.797-12.945c-0.699-0.874-1.399-1.575-2.624-1.575h-0.524c-1.399,0-2.625,1.05-2.625,2.625v18.37
			C271.192,316.421,272.24,317.47,273.641,317.47L273.641,317.47z"/>
		<path fill="#333333" d="M308.454,317.645c7.173,0,12.423-5.422,12.423-11.896l0,0c0-6.647-5.074-11.896-12.246-11.896
			c-7.174,0-12.422,5.424-12.422,11.896l0,0C296.209,312.397,301.282,317.645,308.454,317.645z M301.632,305.75
			c0-4.023,2.8-7.174,6.999-7.174c4.022,0,6.997,3.325,6.997,7.349l0,0c0,4.023-2.799,7.174-6.997,7.174
			C304.432,312.923,301.632,309.774,301.632,305.75L301.632,305.75z"/>
		<path fill="#333333" d="M327.874,317.297h6.474c7.349,0,12.247-5.072,12.247-11.547l0,0c0-6.474-5.074-11.547-12.247-11.547
			h-6.474c-1.398,0-2.624,1.05-2.624,2.624v17.846C325.425,316.246,326.476,317.297,327.874,317.297z M330.497,298.751h3.851
			c4.199,0,6.998,2.801,6.998,6.999l0,0c0,4.024-2.799,6.997-6.998,6.997h-3.851V298.751z"/>
		<path fill="#333333" d="M353.767,317.297h12.947c1.225,0,2.272-1.051,2.272-2.274c0-1.225-1.049-2.274-2.272-2.274h-10.498v-4.897
			h8.748c1.225,0,2.272-1.05,2.272-2.273s-1.049-2.273-2.272-2.273h-8.748v-4.726h10.321c1.226,0,2.274-1.05,2.274-2.273
			c0-1.225-1.05-2.273-2.274-2.273h-12.771c-1.399,0-2.624,1.049-2.624,2.624v18.021
			C351.318,316.246,352.366,317.297,353.767,317.297L353.767,317.297z"/>
		<path fill="#333333" d="M373.012,314.847c2.624,1.924,5.598,2.798,8.747,2.798c5.073,0,8.571-2.624,8.571-7.172l0,0
			c0-4.024-2.624-5.773-7.348-6.998c-4.023-1.052-5.073-1.574-5.073-2.976l0,0c0-1.049,1.05-2.099,2.975-2.099
			c1.573,0,3.148,0.523,4.897,1.573c0.351,0.176,0.875,0.351,1.226,0.351c1.398,0,2.449-1.05,2.449-2.273
			c0-1.05-0.524-1.75-1.051-2.1c-2.099-1.398-4.548-2.101-7.348-2.101c-4.725,0-8.047,2.8-8.047,6.999l0,0
			c0,4.548,2.974,5.947,7.697,6.997c3.85,1.05,4.724,1.574,4.724,2.975l0,0c0,1.4-1.226,2.1-3.324,2.1
			c-2.273,0-4.198-0.875-5.948-2.1c-0.349-0.175-0.874-0.525-1.398-0.525c-1.398,0-2.449,1.051-2.449,2.274
			C371.962,313.797,372.487,314.497,373.012,314.847L373.012,314.847z"/>
		<path fill="#333333" d="M405.377,317.645c3.674,0,6.122-1.049,8.222-2.974c0.524-0.351,0.875-1.051,0.875-1.75
			c0-1.225-1.05-2.273-2.449-2.273c-0.524,0-1.05,0.175-1.574,0.523c-1.398,1.226-2.799,1.75-5.072,1.75
			c-4.024,0-6.648-3.323-6.648-7.348l0,0c0-4.023,2.8-7.173,6.648-7.173c1.749,0,3.322,0.523,4.724,1.573
			c0.35,0.176,0.874,0.524,1.574,0.524c1.398,0,2.448-1.049,2.448-2.449c0-0.873-0.524-1.573-1.05-2.099
			c-1.925-1.398-4.197-2.274-7.697-2.274c-7.174,0-12.071,5.424-12.071,11.896l0,0C393.656,312.397,398.729,317.645,405.377,317.645
			z"/>
		<path fill="#333333" d="M421.647,317.47c1.4,0,2.625-1.051,2.625-2.623v-6.999h9.446v6.999c0,1.397,1.05,2.623,2.624,2.623
			c1.399,0,2.625-1.051,2.625-2.623v-18.37c0-1.4-1.051-2.625-2.625-2.625c-1.399,0-2.624,1.05-2.624,2.625v6.823h-9.446v-6.823
			c0-1.4-1.05-2.625-2.625-2.625c-1.399,0-2.624,1.05-2.624,2.625v18.37C419.023,316.421,420.073,317.47,421.647,317.47z"/>
		<path fill="#333333" d="M455.411,317.645c7.173,0,12.246-5.422,12.246-11.896l0,0c0-6.647-5.073-11.896-12.246-11.896
			s-12.422,5.424-12.422,11.896l0,0C443.165,312.397,448.24,317.645,455.411,317.645z M448.413,305.75
			c0-4.023,2.8-7.174,6.998-7.174c4.023,0,6.997,3.325,6.997,7.349l0,0c0,4.023-2.798,7.174-6.997,7.174
			C451.388,312.923,448.413,309.774,448.413,305.75L448.413,305.75z"/>
		<path fill="#333333" d="M483.577,317.645c7.173,0,12.422-5.422,12.422-11.896l0,0c0-6.647-5.073-11.896-12.247-11.896
			c-7.173,0-12.421,5.424-12.421,11.896l0,0C471.331,312.397,476.406,317.645,483.577,317.645z M476.579,305.75
			c0-4.023,2.801-7.174,6.998-7.174c4.023,0,6.998,3.325,6.998,7.349l0,0c0,4.023-2.799,7.174-6.998,7.174
			C479.555,312.923,476.579,309.774,476.579,305.75L476.579,305.75z"/>
		<path fill="#333333" d="M502.996,317.297h11.897c1.226,0,2.275-1.051,2.275-2.274c0-1.225-1.051-2.274-2.275-2.274h-9.447v-16.095
			c0-1.399-1.049-2.624-2.624-2.624c-1.398,0-2.624,1.049-2.624,2.624v18.021C500.372,316.246,501.598,317.297,502.996,317.297
			L502.996,317.297z"/>
	</g>
	
		<line id="line_2_" fill="none" stroke="#333333" stroke-width="10" stroke-miterlimit="10" x1="16.935" y1="530.5" x2="593.276" y2="531.5"/>
	<g id="cat_3_" transform="matrix(0.38647344,0,0,0.38665296,1.8582016,-8.7224655)">
		<path fill="#333333" d="M1174.657,1188.203c7.27,0,13.17,4.965,13.17,11.07c0,6.127-5.9,11.068-13.17,11.068
			c-7.297,0-13.195-4.94-13.195-11.068C1161.462,1193.169,1167.359,1188.203,1174.657,1188.203z"/>
		<path fill="#333333" d="M1126.166,1346.046c-8.617-1.475-17.258-3.7-26.057-3.675c7.219-3.438,20.364-4.241,29.991-3.412
			c8.073,0.697,16.687,1.99,23.106-2.665c8.177-5.923,1.395-23.019-1.552-33.88c5.562,6.052,10.633,11.949,12.187,20.38
			c2.277,12.543-2.304,19.733-9.781,22.706C1144.744,1349.226,1135.351,1347.622,1126.166,1346.046z"/>
		<path fill="#333333" d="M1149.765,1223.583c6.754,0,12.212,4.604,12.212,10.267c0,5.665-5.458,10.242-12.212,10.242
			c-6.726,0-12.187-4.577-12.187-10.242C1137.578,1228.187,1143.038,1223.583,1149.765,1223.583z"/>
		<path fill="#333333" d="M1146.53,1128.59c4.968,0,8.978,3.387,8.978,7.552c0,4.162-4.01,7.527-8.978,7.527
			c-4.943,0-8.953-3.364-8.953-7.527C1137.578,1131.977,1141.588,1128.59,1146.53,1128.59z"/>
		<path fill="#333333" d="M1134.705,1161.098c6.729,0,12.187,4.604,12.187,10.269c0,5.662-5.458,10.267-12.187,10.267
			c-6.752,0-12.212-4.604-12.212-10.267C1122.492,1165.702,1127.953,1161.098,1134.705,1161.098z"/>
		<path fill="#333333" d="M1132.999,1262.17c7.27,0,13.17,4.965,13.17,11.07c0,6.13-5.9,11.07-13.17,11.07
			c-7.272,0-13.172-4.94-13.172-11.07C1119.827,1267.136,1125.727,1262.17,1132.999,1262.17z"/>
		<path fill="#333333" d="M1116.489,1196.816c7.272,0,13.172,4.965,13.172,11.068c0,6.13-5.9,11.07-13.172,11.07
			c-7.27,0-13.195-4.94-13.195-11.07C1103.293,1201.781,1109.219,1196.816,1116.489,1196.816z"/>
		<path fill="#333333" d="M1108.468,1128.59c4.968,0,8.978,3.387,8.978,7.552c0,4.162-4.01,7.527-8.978,7.527
			c-4.943,0-8.953-3.364-8.953-7.527C1099.516,1131.977,1103.526,1128.59,1108.468,1128.59z"/>
		<path fill="#333333" d="M1086.32,1229.117c7.27,0,13.17,4.968,13.17,11.095c0,6.104-5.9,11.07-13.17,11.07
			c-7.272,0-13.198-4.966-13.198-11.07C1073.123,1234.085,1079.048,1229.117,1086.32,1229.117z"/>
		<path fill="#333333" d="M1079.384,1176.901c6.754,0,12.215,4.604,12.215,10.267c0,5.665-5.461,10.267-12.215,10.267
			c-6.727,0-12.187-4.602-12.187-10.267C1067.197,1181.505,1072.658,1176.901,1079.384,1176.901z"/>
		<path fill="#333333" d="M1079.023,1107.768c4.968,0,8.978,3.389,8.978,7.552c0,4.14-4.01,7.527-8.978,7.527
			c-4.943,0-8.953-3.387-8.953-7.527C1070.07,1111.157,1074.08,1107.768,1079.023,1107.768z"/>
		<path fill="#333333" d="M1065.024,1281.75c6.754,0,12.212,4.604,12.212,10.267c0,5.665-5.458,10.242-12.212,10.242
			c-6.729,0-12.187-4.577-12.187-10.242C1052.837,1286.354,1058.297,1281.75,1065.024,1281.75z"/>
		<path fill="#333333" d="M1060.003,1333.475c6.754,0,12.215,4.577,12.215,10.242c0,5.663-5.46,10.267-12.215,10.267
			c-6.752,0-12.212-4.604-12.212-10.267C1047.791,1338.052,1053.251,1333.475,1060.003,1333.475z"/>
		<path fill="#333333" d="M1058.944,1142.943c4.94,0,8.953,3.387,8.953,7.552c0,4.165-4.013,7.552-8.953,7.552
			c-4.968,0-8.98-3.387-8.98-7.552C1049.964,1146.33,1053.977,1142.943,1058.944,1142.943z"/>
		<path fill="#333333" d="M1037.752,1192.133c6.754,0,12.212,4.604,12.212,10.269c0,5.637-5.458,10.242-12.212,10.242
			c-6.726,0-12.212-4.604-12.212-10.242C1025.539,1196.738,1031.025,1192.133,1037.752,1192.133z"/>
		<path fill="#333333" d="M1020.157,1154.453c4.943,0,8.953,3.387,8.953,7.552c0,4.162-4.01,7.526-8.953,7.526
			c-4.968,0-8.978-3.364-8.978-7.526C1011.179,1157.839,1015.189,1154.453,1020.157,1154.453z"/>
		<path fill="#333333" d="M1012.341,1228.42c7.298,0,13.198,4.965,13.198,11.07c0,6.102-5.9,11.068-13.198,11.068
			c-7.27,0-13.17-4.963-13.17-11.068C999.171,1233.385,1005.072,1228.42,1012.341,1228.42z"/>
		<path fill="#333333" d="M1011.877,1315.5c6.754,0,12.212,4.604,12.212,10.267c0,5.665-5.458,10.242-12.212,10.242
			c-6.727,0-12.187-4.577-12.187-10.242C999.689,1320.104,1005.15,1315.5,1011.877,1315.5z"/>
		<path fill="#333333" d="M1009.003,1274.584c6.754,0,12.215,4.579,12.215,10.242c0,5.665-5.461,10.27-12.215,10.27
			c-6.727,0-12.187-4.604-12.187-10.27C996.816,1279.163,1002.277,1274.584,1009.003,1274.584z"/>
		<path fill="#333333" d="M985.665,1183.884c4.968,0,8.978,3.387,8.978,7.552c0,4.162-4.01,7.527-8.978,7.527
			c-4.943,0-8.978-3.364-8.978-7.527C976.688,1187.271,980.723,1183.884,985.665,1183.884z"/>
		<path fill="#333333" d="M954.433,1232.221c6.754,0,12.215,4.579,12.215,10.242c0,5.665-5.461,10.27-12.215,10.27
			c-6.752,0-12.212-4.602-12.212-10.27C942.221,1236.8,947.682,1232.221,954.433,1232.221z"/>
		<path fill="#333333" d="M942.946,1312.656c6.752,0,12.212,4.576,12.212,10.242c0,5.663-5.461,10.267-12.212,10.267
			c-6.754,0-12.215-4.604-12.215-10.267C930.732,1317.233,936.192,1312.656,942.946,1312.656z"/>
		<path fill="#333333" d="M943.308,1195.366c4.943,0,8.978,3.39,8.978,7.552c0,4.165-4.035,7.552-8.978,7.552
			c-4.968,0-8.978-3.387-8.978-7.552C934.33,1198.756,938.34,1195.366,943.308,1195.366z"/>
		<path fill="#333333" d="M936.839,1137.925c4.968,0,8.978,3.389,8.978,7.552c0,4.165-4.01,7.526-8.978,7.526
			c-4.97,0-8.978-3.362-8.978-7.526C927.861,1141.314,931.871,1137.925,936.839,1137.925z"/>
		<path fill="#333333" d="M908.841,1178.866c4.943,0,8.953,3.362,8.953,7.527c0,4.19-4.01,7.552-8.953,7.552
			c-4.968,0-8.978-3.362-8.978-7.552C899.863,1182.228,903.874,1178.866,908.841,1178.866z"/>
		<path fill="#333333" d="M898.052,1137.202c4.968,0,8.98,3.387,8.98,7.552c0,4.162-4.013,7.524-8.98,7.524
			c-4.945,0-8.978-3.362-8.978-7.524C889.074,1140.589,893.109,1137.202,898.052,1137.202z"/>
		<path fill="#333333" d="M833.778,1224.308c6.754,0,12.212,4.577,12.212,10.242c0,5.69-5.458,10.267-12.212,10.267
			c-6.726,0-12.212-4.577-12.212-10.267C821.566,1228.884,827.052,1224.308,833.778,1224.308z"/>
		<path fill="#333333" d="M809.015,1164.512c4.943,0,8.98,3.362,8.98,7.526c0,4.162-4.038,7.552-8.98,7.552
			c-4.968,0-8.978-3.389-8.978-7.552C800.037,1167.874,804.047,1164.512,809.015,1164.512z"/>
		<path fill="#333333" d="M790.698,1197.023c6.727,0,12.212,4.576,12.212,10.242c0,5.663-5.486,10.267-12.212,10.267
			c-6.754,0-12.215-4.604-12.215-10.267C778.483,1201.599,783.944,1197.023,790.698,1197.023z"/>
		<path fill="#333333" d="M790.698,1242.98c6.727,0,12.212,4.604,12.212,10.242c0,5.69-5.486,10.267-12.212,10.267
			c-6.754,0-12.215-4.577-12.215-10.267C778.483,1247.584,783.944,1242.98,790.698,1242.98z"/>
		<path fill="#333333" d="M784.952,1134.538c6.754,0,12.215,4.604,12.215,10.267c0,5.665-5.461,10.242-12.215,10.242
			c-6.754,0-12.212-4.577-12.212-10.242C772.74,1139.142,778.198,1134.538,784.952,1134.538z"/>
		<path fill="#333333" d="M760.164,1163.787c4.968,0,8.978,3.362,8.978,7.526c0,4.19-4.01,7.552-8.978,7.552
			c-4.943,0-8.978-3.362-8.978-7.552C751.186,1167.149,755.224,1163.787,760.164,1163.787z"/>
		<path fill="#333333" d="M754.781,1274.584c6.754,0,12.212,4.579,12.212,10.242c0,5.665-5.458,10.27-12.212,10.27
			c-6.727,0-12.212-4.604-12.212-10.27C742.569,1279.163,748.055,1274.584,754.781,1274.584z"/>
		<path fill="#333333" d="M748.313,1228.627c6.754,0,12.212,4.577,12.212,10.242s-5.458,10.267-12.212,10.267
			c-6.727,0-12.212-4.602-12.212-10.267S741.586,1228.627,748.313,1228.627z"/>
		<path fill="#333333" d="M728.932,1185.539c6.754,0,12.215,4.579,12.215,10.242c0,5.665-5.458,10.267-12.215,10.267
			c-6.752,0-12.212-4.602-12.212-10.267C716.719,1190.118,722.18,1185.539,728.932,1185.539z"/>
		<path fill="#333333" d="M700.211,1141.003c6.727,0,12.212,4.604,12.212,10.267c0,5.665-5.486,10.242-12.212,10.242
			c-6.754,0-12.212-4.577-12.212-10.242C687.999,1145.608,693.459,1141.003,700.211,1141.003z"/>
		<path fill="#333333" d="M658.915,1125.718c4.968,0,8.978,3.387,8.978,7.552s-4.01,7.526-8.978,7.526
			c-4.968,0-8.978-3.362-8.978-7.526C649.937,1129.107,653.947,1125.718,658.915,1125.718z"/>
		<path fill="#333333" d="M653.275,1265.042c7.27,0,13.17,4.966,13.17,11.07c0,6.127-5.9,11.068-13.17,11.068
			c-7.298,0-13.198-4.94-13.198-11.068C640.077,1270.008,645.977,1265.042,653.275,1265.042z"/>
		<path fill="#333333" d="M652.807,1312.656c6.754,0,12.215,4.576,12.215,10.242c0,5.663-5.461,10.267-12.215,10.267
			c-6.752,0-12.212-4.604-12.212-10.267C640.595,1317.233,646.056,1312.656,652.807,1312.656z"/>
		<path fill="#333333" d="M640.337,1214.066c7.295,0,13.198,4.94,13.198,11.07c0,6.102-5.9,11.068-13.198,11.068
			c-7.272,0-13.17-4.966-13.17-11.068C627.167,1219.006,633.065,1214.066,640.337,1214.066z"/>
		<path fill="#333333" d="M628.019,1095.561c4.97,0,8.98,3.362,8.98,7.552c0,4.165-4.01,7.526-8.98,7.526
			c-4.94,0-8.953-3.362-8.953-7.526C619.066,1098.923,623.079,1095.561,628.019,1095.561z"/>
		<path fill="#333333" d="M616.196,1151.063c6.727,0,12.187,4.579,12.187,10.242c0,5.665-5.461,10.267-12.187,10.267
			c-6.754,0-12.215-4.602-12.215-10.267C603.981,1155.642,609.441,1151.063,616.196,1151.063z"/>
		<path fill="#333333" d="M605.406,1250.171c6.754,0,12.212,4.576,12.212,10.242c0,5.663-5.458,10.267-12.212,10.267
			c-6.729,0-12.215-4.604-12.215-10.267C593.191,1254.747,598.677,1250.171,605.406,1250.171z"/>
		<path fill="#333333" d="M597.98,1321.062c7.27,0,13.17,4.965,13.17,11.067c0,6.132-5.9,11.07-13.17,11.07
			c-7.298,0-13.198-4.938-13.198-11.07C584.782,1326.027,590.682,1321.062,597.98,1321.062z"/>
		<path fill="#333333" d="M595.003,1127.89c4.945,0,8.978,3.362,8.978,7.527s-4.033,7.552-8.978,7.552
			c-4.968,0-8.978-3.387-8.978-7.552S590.035,1127.89,595.003,1127.89z"/>
		<path fill="#333333" d="M554.871,1192.522c7.298,0,13.198,4.94,13.198,11.07c0,6.102-5.9,11.067-13.198,11.067
			c-7.27,0-13.17-4.965-13.17-11.067C541.701,1197.462,547.602,1192.522,554.871,1192.522z"/>
		<path fill="#333333" d="M551.533,1283.922c6.754,0,12.215,4.579,12.215,10.242c0,5.665-5.461,10.267-12.215,10.267
			c-6.727,0-12.187-4.602-12.187-10.267C539.346,1288.501,544.807,1283.922,551.533,1283.922z"/>
		<path fill="#333333" d="M533.964,1147.262c4.943,0,8.978,3.387,8.978,7.552s-4.035,7.527-8.978,7.527
			c-4.968,0-8.978-3.362-8.978-7.527C524.986,1150.651,528.996,1147.262,533.964,1147.262z"/>
		<path fill="#333333" d="M528.557,1231.499c6.754,0,12.212,4.576,12.212,10.242c0,5.663-5.458,10.267-12.212,10.267
			c-6.729,0-12.187-4.602-12.187-10.267S521.828,1231.499,528.557,1231.499z"/>
		<path fill="#333333" d="M517.535,1321.784c7.295,0,13.195,4.94,13.195,11.07c0,6.105-5.898,11.07-13.195,11.07
			c-7.272,0-13.172-4.965-13.172-11.07C504.362,1326.724,510.262,1321.784,517.535,1321.784z"/>
		<path fill="#333333" d="M480.817,1170.978c4.943,0,8.98,3.362,8.98,7.527c0,4.162-4.038,7.552-8.98,7.552
			c-4.968,0-8.978-3.389-8.978-7.552C471.839,1174.34,475.849,1170.978,480.817,1170.978z"/>
		<path fill="#333333" d="M471.839,1281.75c6.727,0,12.187,4.604,12.187,10.267c0,5.665-5.461,10.242-12.187,10.242
			c-6.754,0-12.212-4.577-12.212-10.242C459.627,1286.354,465.085,1281.75,471.839,1281.75z"/>
		<path fill="#333333" d="M459.263,1195.366c4.968,0,8.978,3.39,8.978,7.552c0,4.165-4.01,7.552-8.978,7.552
			s-8.978-3.387-8.978-7.552C450.285,1198.756,454.295,1195.366,459.263,1195.366z"/>
		<path fill="#333333" d="M435.664,1313.871c7.272,0,13.198,4.965,13.198,11.07c0,6.13-5.926,11.095-13.198,11.095
			c-7.27,0-13.17-4.965-13.17-11.095C422.494,1318.837,428.395,1313.871,435.664,1313.871z"/>
		<path fill="#333333" d="M440.038,761.593c-7.763,0.725-15.629,0.543-23.366,0.076c-0.104,3.647,1.036,7.218,3.184,9.802
			c2.484,3,6.39,4.422,10.115,3.96C436.7,774.628,441.279,768.084,440.038,761.593z M410.36,762.315
			c-3.752-0.129-7.09,1.578-10.145,3.647c2.072-6.698,8.98-11.146,15.707-10.706c7.765,0.465,15.603,0.725,23.366,0.104
			c5.021-0.414,10.403-1.19,14.595-2.432c-0.983,3.7-4.063,6.726-7.555,7.862c1.008,5.69-0.882,11.689-4.996,15.803h-0.025
			c-2.949,2.947-6.906,4.887-11.333,5.223c-5.021,0.361-10.115-1.422-13.817-4.965C411.73,772.635,410.722,767.826,410.36,762.315z"
			/>
		<path fill="#333333" d="M407.202,1207.083c6.729,0,12.215,4.576,12.215,10.242c0,5.668-5.486,10.267-12.215,10.267
			c-6.752,0-12.212-4.602-12.212-10.267S400.45,1207.083,407.202,1207.083z"/>
		<path fill="#333333" d="M401.82,1170.978c4.943,0,8.98,3.362,8.98,7.527c0,4.162-4.038,7.552-8.98,7.552
			c-4.968,0-8.978-3.389-8.978-7.552C392.842,1174.34,396.852,1170.978,401.82,1170.978z"/>
		<path fill="#333333" d="M397.863,1288.94c6.727,0,12.212,4.602,12.212,10.267c0,5.662-5.486,10.242-12.212,10.242
			c-6.754,0-12.215-4.579-12.215-10.242C385.648,1293.542,391.108,1288.94,397.863,1288.94z"/>
		<path fill="#333333" d="M395.947,800.413c2.459,0,4.45,1.965,4.45,4.425c0,2.455-1.991,4.448-4.45,4.448
			c-2.433,0-4.425-1.993-4.425-4.448C391.523,802.378,393.514,800.413,395.947,800.413z"/>
		<path fill="#333333" d="M394.472,822.293c2.459,0,4.45,1.993,4.45,4.45c0,2.43-1.991,4.42-4.45,4.42
			c-2.431,0-4.425-1.99-4.425-4.42C390.047,824.285,392.041,822.293,394.472,822.293z"/>
		<path fill="#333333" d="M385.337,810.758c2.433,0,4.427,1.993,4.427,4.425c0,2.455-1.991,4.448-4.427,4.448
			c-2.456,0-4.45-1.993-4.45-4.448C380.887,812.748,382.881,810.758,385.337,810.758z"/>
		<path fill="#333333" d="M372.038,816.681c2.459,0,4.427,1.99,4.427,4.42c0,2.46-1.968,4.45-4.427,4.45
			c-2.459,0-4.45-1.99-4.45-4.45C367.588,818.671,369.579,816.681,372.038,816.681z"/>
		<g>
			<path fill="#333333" d="M500.612,563.43l1.733,41.148c12.705,15.543,21.943,34.14,34.105,50.226
				c6.519,8.638,13.92,16.475,21.655,23.976c7.737,7.499,15.864,14.664,23.805,21.931c18.32,12.596,33.302,28.553,47.404,45.546
				l-15.886,3.751c9.574,9.671,16.354,20.198,21.915,32.508c-2.085-0.034-4.191-0.111-6.294-0.111c-2.542,0-5.081,0.112-7.573,0.551
				c8.72,11.123,12.366,23.898,15.189,37.426c-5.15-2.122-10.171-4.268-15.682-5.276c6.987,16.139,11.439,31.914,13.016,49.422
				c-6.133-2.276-11.823-3.905-18.449-4.319c-2.845,15.442-5.175,30.985-5.797,46.735c-0.596,15.775,0.518,31.864,4.607,48.415
				c0.747-0.033,1.493-0.049,2.238-0.049c6.91,0,13.712,1.402,20.557,4.111c8.306,3.258,16.637,8.431,25.281,15.26
				c11.151,8.817,23.131,14.482,35.5,17.948c12.08,3.363,24.55,4.633,37.034,4.633c0.378,0,0.754-0.001,1.132-0.004
				c0.733-0.004,1.466-0.006,2.198-0.006c12.874,0,25.722,0.653,38.502,2.024c13.534,1.447,27.068,3.672,40.546,6.802
				c24.427,5.64,48.336,8.251,71.957,8.277c23.626,0,46.992-2.586,70.277-7.319c10.014-2.043,20.081-3.155,30.173-3.309
				c0.852-0.028,1.678-0.028,2.532-0.028c9.238,0,18.502,0.778,27.74,2.354c51.775,8.741,103.707,41.823,154.032,98.022
				c28.955,32.354,55.735,59.227,84.432,77.046c24.167,15.005,49.776,23.59,79.328,23.59c5.188,0,10.497-0.265,15.942-0.806
				c3.73-0.369,7.333-0.558,10.762-0.558c8.349,0,15.682,1.119,21.402,3.483c3.828,1.551,6.959,3.698,9.314,6.413
				c2.38,2.847,3.881,6.233,4.27,10.242c0.44,4.296-0.414,9.234-2.744,14.871c-5.097,12.389-11.851,22.14-20.286,29.432
				c-8.488,7.319-18.605,12.106-30.403,14.457h-0.023c-5.542,1.116-11.336,1.915-17.314,2.46
				c-5.584,0.493-11.426,0.728-17.418,0.728c-0.308,0-0.617,0-0.927-0.003c-30.403-0.104-63.187-6.544-88.541-17.432
				c-1.526,10.605-6.732,21.88-16.978,26.613c3.495,8.613,6.315,17.225,7.737,26.459c1.448,9.259,1.579,18.465,0.258,26.896
				c-1.37,8.613-4.268,16.397-8.849,22.58l-0.025-0.025c-5.329,7.163-12.882,12.128-22.949,13.707
				c-7.376,1.134-15.31,1.561-23.457,1.561c-13.228,0-27.025-1.126-39.962-2.182c-5.668-0.465-11.151-0.932-16.043-1.243h-0.053
				c-16.455-1.058-32.938-2.586-49.395-4.37c-16.326-1.786-32.811-3.829-49.342-5.976c-5.488-0.722-12.551-2.248-20.159-3.905
				c-12.854-2.793-27.416-5.961-37.494-5.961c-2.335,0-4.43,0.172-6.206,0.556h-0.03c-2.302,0.493-4.217,1.834-5.951,3.647
				c-7.09,7.345-8.824,15.566-21.529,17.122c-0.735,0.086-1.471,0.129-2.203,0.129c-3.474,0-6.891-0.952-9.905-2.768
				c-5.925,7.14-13.17,10.631-19.742,12.002c-2.254,0.472-4.553,0.722-6.845,0.722c-4.334,0-8.642-0.889-12.584-2.819
				c-2.666-1.293-5.021-3-7.09-5.016c-3.068,2.622-7.063,3.718-11.055,3.718c-1.127,0-2.251-0.089-3.358-0.253
				c-9.21-1.397-17.13-7.734-21.812-15.571c-6.961-11.638-12.212-24.027-13.405-36.648c-17.769-1.611-35.611-2.339-53.452-2.339
				c-10.788,0-21.573,0.265-32.348,0.763c3.853,22.191-3.209,32.301-15.76,36.855c-7.687,2.806-16.089,3.538-24.642,3.538
				c-9.373,0-18.931-0.879-27.932-0.879c-0.949,0-1.89,0.008-2.825,0.03c-20.725,0.49-41.478,0.879-62.282,1.086
				c-12.558,0.126-25.121,0.194-37.681,0.194c-8.192,0-16.382-0.03-24.574-0.091c-17.362-0.104-34.62-0.932-51.775-2.2
				c-17.258-1.293-34.492-3.076-51.697-5.094c-13.122-1.579-25.178-4.372-37.365-7.191h-0.025
				c-7.245-1.707-14.517-3.387-21.915-4.809c-4.349-0.828-8.748-1.397-13.145-1.632c-1.008-0.051-1.932-0.073-2.78-0.073
				c-7.121,0-9.011,1.73-12.617,4.988c-13.248,12.078-26.653,13.654-43.937,15.826c-8.048,9.34-17.18,13.992-26.211,15.285
				c-1.735,0.245-3.461,0.364-5.17,0.364c-4.053,0-8.011-0.662-11.778-1.864c-5.797-1.811-11.179-4.94-15.682-8.974
				c-4.79,2.114-9.602,3.708-14.417,3.708c-0.542,0-1.084-0.02-1.626-0.063c-6.416-0.513-12.521-3.905-18.059-12.462
				c-7.141-11.095-12.473-24.183-12.498-37.582c-0.025-7.888,1.862-16.139,4.735-23.355c-2.461-2.531-4.167-5.716-5.253-9.05
				c-3.209-9.908-1.397-23.279,5.357-32.846c4.708-6.701,9.754-13.192,15.472-19.294c5.746-6.155,12.162-11.921,19.563-17.198
				l0.025-0.025c1.605-1.139,3.234-2.147,4.864-2.975c1.655-0.879,3.363-1.629,5.071-2.225c4.384-1.566,8.927-2.331,13.443-2.331
				c4.572,0,9.117,0.783,13.44,2.306c9.284,3.233,18.336,4.887,27.342,4.887c2.239,0,4.474-0.104,6.71-0.308
				c11.255-1.036,22.537-4.733,34.181-11.148c13.352-7.395,28.541-9.517,43.573-10.06c2.226-4.422,1.319-9.027,0.182-14.924
				c-1.526-7.966-3.467-17.973-0.078-32.819l-10.272,6.544c-0.854-14.563-0.283-28.735,1.347-43.219l-13.145,5.483
				c-0.232-24.335,3.543-47.096,11.851-70.009c7.373-20.38,17.385-39.519,27.866-57.78c11.927-20.794,22.406-41.924,30.168-63.079
				c7.298-19.965,12.19-39.984,13.559-59.821c-2.431,1.008-4.685,2.147-6.729,3.44v0.025l-0.051,0.025
				c-5.668,3.544-11.565,5.433-17.466,5.433c-2.744,0-5.486-0.414-8.202-1.243c-3.52-1.061-6.805-2.819-9.781-5.016l-0.129-0.104
				h-0.025c-9.003-6.726-14.749-19.862-11.98-31.036c-2.198-0.285-4.374-0.778-6.469-1.475
				c-12.24-3.932-22.719-14.432-30.739-33.933c-2.949-2.094-5.435-4.422-7.376-6.827c-7.763-9.623-6.34-21.13,3.131-28.76
				c1.655-1.346,3.002-2.432,4.399-3.594c7.063-5.769,14.878-12.156,22.977-17.122c6.858-4.215,12.523-8.095,17.309-12.828
				c4.763-4.733,8.644-10.267,11.957-17.819s8.048-15.364,14.206-22.011c12.159-13.139,29.443-22.034,46.186-28.189
				c0.361-6.751,1.036-13.396,1.966-19.993c2.587-18.283,7.659-37.812,13.481-50.847l-15.783-35.716l6.416-2.819l2.072,4.705
				l-1.19-5.198l6.805-1.576l1.112,4.758l-0.182-4.655l6.989-0.26l1.602,40.244c4.427,3.645,7.944,8.56,11.204,13.214
				c2.019-5.483,4.192-11.095,7.558-16.887l-15.967-36.734l6.416-2.766l2.072,4.758l-1.137-5.019l6.805-1.551l1.137,4.89
				l-0.207-4.94L500.612,563.43 M498.506,554.459l-6.743,1.537l-2.462,0.091l-0.315-0.722l-1.864,0.803l-1.579,0.059l0.025,0.611
				l-2.801,1.207l-6.159,1.404l0.258,1.139l-0.062,0.026l-2.95,0.11l-1.493,0.056l-0.34-1.452l-7.536,1.745l-1.679,0.063
				l-0.289-0.657l-1.658,0.729l-1.764,0.066l0.027,0.697l-1.655,0.727l-7.341,1.701l0.317,1.385l-1.444,0.634l-7.119,3.128
				l3.142,7.11l14.422,32.638c-5.396,13.238-10.183,31.877-12.705,49.703c-0.756,5.354-1.318,10.503-1.706,15.612
				C425.94,682.197,411,691.734,400.574,703c-6.234,6.728-11.635,15.086-15.617,24.165c-2.745,6.26-6.025,11.163-10.321,15.432
				c-4.569,4.518-10.344,8.304-15.902,11.72c-8.519,5.224-16.623,11.843-23.773,17.682l-0.027,0.021l-0.076,0.063
				c-1.07,0.889-2.11,1.733-3.287,2.689l-1.047,0.851c-6.176,4.976-10.035,11.653-10.841,18.78
				c-0.814,7.198,1.519,14.61,6.567,20.868c2.001,2.48,4.378,4.799,7.087,6.914c8.417,19.438,20.083,31.668,34.696,36.362
				c0.13,0.044,0.26,0.086,0.392,0.129c0.063,11.68,6.022,23.917,15.785,31.21l2.067,1.544h0.152
				c3.253,2.134,6.648,3.742,10.123,4.789c3.415,1.042,6.936,1.573,10.444,1.573c5.021,0,10.023-1.052,14.939-3.136
				c-2.099,13.817-5.913,28.207-11.544,43.612c-7.028,19.152-16.715,39.398-29.611,61.882c-8.924,15.546-20.22,36.303-28.432,59
				c-8.528,23.519-12.556,47.308-12.313,72.722l0.11,11.527l10.642-4.44l1.263-0.528c-0.74,10.881-0.806,21.299-0.203,31.558
				l0.773,13.192l7.613-4.852c-0.063,7.711,1.112,13.843,2.071,18.852l0.001,0.003l0.039,0.205c0.473,2.45,0.826,4.362,0.963,5.903
				c-12.45,0.826-27.247,3.167-40.88,10.716c-10.763,5.93-20.95,9.272-31.13,10.209c-1.986,0.182-4.004,0.275-5.999,0.275
				c-8.071,0-16.179-1.457-24.788-4.455c-5.147-1.813-10.537-2.738-15.994-2.738c-5.488,0-10.891,0.937-16.057,2.786
				c-2,0.697-4.049,1.594-6.037,2.644c-1.893,0.967-3.837,2.155-5.78,3.536l-0.532,0.376l-0.037,0.038
				c-7.276,5.238-13.889,11.08-20.2,17.839c-5.395,5.759-10.681,12.346-16.149,20.13c-7.888,11.171-10.459,27.128-6.389,39.694
				c0.973,2.988,2.265,5.69,3.86,8.082c-1.952,5.87-3.746,13.563-3.72,21.958c0.025,13.394,4.773,27.836,13.732,41.755
				c6.383,9.86,14.444,15.237,23.969,15.998c0.763,0.061,1.503,0.089,2.245,0.089c4.783,0,9.255-1.162,13.093-2.558
				c4.489,3.296,9.492,5.847,14.69,7.471c4.598,1.467,9.354,2.218,14.094,2.218c2.087,0,4.193-0.149,6.256-0.439
				c10.725-1.536,20.675-6.92,28.948-15.629c16.588-2.106,31.075-4.425,45.344-17.432c3.094-2.796,3.279-2.963,7.386-2.963
				c0.732,0,1.529,0.02,2.399,0.063c3.842,0.207,7.914,0.712,12.072,1.505c7.392,1.419,14.719,3.119,21.587,4.738l0.879,0.207h0.04
				c11.931,2.758,24.149,5.551,37.324,7.135c19.794,2.321,36.324,3.95,52.044,5.127c18.914,1.399,36.022,2.124,52.309,2.223
				c8.015,0.061,16.303,0.091,24.62,0.091c12.18,0,24.883-0.066,37.758-0.195c19.034-0.189,39.44-0.546,62.388-1.089
				c0.872-0.02,1.754-0.028,2.642-0.028c4.272,0,8.666,0.205,13.318,0.424c4.767,0.225,9.697,0.455,14.615,0.455
				c7.004,0,17.456-0.414,27.304-4.008c15.569-5.65,22.876-17.988,21.783-36.731c8.02-0.278,15.948-0.417,23.661-0.417
				c15.95,0,31.61,0.601,46.645,1.788c1.994,10.57,6.459,21.567,13.549,33.42c6.219,10.411,16.43,17.612,27.31,19.261
				c1.519,0.227,3.035,0.341,4.523,0.341c3.75,0,7.25-0.692,10.373-2.031c1.405,0.962,2.868,1.816,4.384,2.551
				c4.867,2.382,10.249,3.597,15.972,3.597c2.797,0,5.635-0.301,8.44-0.889c5.496-1.147,13.039-3.874,20.013-10.302
				c2.595,0.813,5.304,1.235,8.04,1.235c1.031,0,2.075-0.061,3.1-0.182c12.579-1.538,17.754-8.519,21.91-14.129
				c1.397-1.882,2.714-3.662,4.308-5.312c0.541-0.566,1.268-1.23,1.875-1.417l0.162-0.035c1.162-0.25,2.699-0.379,4.564-0.379
				c9.226,0,23.336,3.066,35.78,5.769c7.358,1.604,14.906,3.248,20.859,4.031c19.333,2.51,35.06,4.415,49.511,5.996
				c18.35,1.988,34.618,3.427,49.741,4.4l0.248,0.015h0.056c4.061,0.26,8.531,0.629,13.256,1.02l2.401,0.197
				c13.291,1.083,27.032,2.208,40.597,2.208c9.349,0,17.408-0.541,24.637-1.652c8.47-1.326,15.942-4.809,22.011-10.199l0.655,0.649
				l5.367-7.183c5.193-7.006,8.65-15.748,10.277-25.979c1.438-9.178,1.352-19.036-0.255-29.311
				c-1.077-6.984-2.962-14.116-5.857-22.069c5.814-4.551,10.256-11.174,12.92-19.256c24.912,9.259,54.633,14.545,83.025,14.641
				l0.953,0.002c6.317,0,12.404-0.255,18.1-0.758c6.193-0.566,12.033-1.381,17.395-2.43h0.003l0.776-0.149
				c13.099-2.612,24.523-8.059,33.956-16.192c9.354-8.087,16.887-18.973,22.393-32.356c2.759-6.678,3.869-12.942,3.287-18.612
				c-0.523-5.397-2.555-10.264-6.037-14.427l-0.046-0.053l-0.046-0.053c-3.153-3.637-7.28-6.504-12.263-8.522
				c-6.486-2.68-14.684-4.051-24.316-4.051c-3.654,0-7.533,0.202-11.528,0.596c-5.132,0.51-10.236,0.768-15.179,0.768
				c-26.325,0-50.931-7.335-75.232-22.423c-29.789-18.495-57.372-47.278-82.742-75.626
				c-51.619-57.642-104.953-91.455-158.525-100.499c-9.574-1.634-19.346-2.463-29.034-2.463c-0.917,0-1.804,0.001-2.716,0.03
				c-10.469,0.163-21.082,1.328-31.54,3.463c-23.71,4.819-46.191,7.163-68.725,7.163c-23.48-0.025-47.103-2.743-70.211-8.077
				c-13.359-3.103-27.315-5.444-41.466-6.957c-12.787-1.373-26.019-2.068-39.328-2.068l-2.243,0.006l-1.088,0.004
				c-13.01,0-24.442-1.423-34.95-4.349c-12.32-3.451-23.042-8.869-32.767-16.557c-9.65-7.625-18.566-12.988-27.262-16.398
				c-6.552-2.594-12.943-4.083-19.408-4.515c-2.612-12.727-3.617-26.021-3.071-40.446c0.537-13.629,2.442-27.069,4.37-38.318
				c2.825,0.626,5.848,1.56,9.416,2.883l11.535,4.281l-1.103-12.251c-1.105-12.275-3.56-24.029-7.584-36.097l13.111,5.401
				l-2.992-14.338c-1.974-9.455-4.49-19.246-9.089-28.524c0.014,0,0.026,0,0.04,0l12.24,0.202l-5.039-11.153
				c-4.231-9.365-9.002-17.442-14.651-24.728l3.332-0.785l12.182-2.877l-7.991-9.629c-12.628-15.215-28.255-32.638-48.532-46.676
				c-2.112-1.93-4.236-3.854-6.363-5.779c-5.613-5.083-11.418-10.338-16.886-15.638c-8.764-8.5-15.395-15.835-20.862-23.078
				c-5.339-7.062-10.26-14.89-15.02-22.461c-5.469-8.701-11.111-17.675-17.634-25.96l-1.626-38.606l-0.326-7.715l-7.72,0.287
				l-1.52,0.057L498.506,554.459L498.506,554.459z M483.371,605.158l-0.273-6.884l2.775,6.384c-0.35,0.677-0.687,1.35-1.012,2.021
				C484.378,606.165,483.881,605.656,483.371,605.158L483.371,605.158z"/>
		</g>
		<g>
			<path fill="#333333" d="M498.833,610.393c5.847,7.734,11.05,15.907,16.248,24.08c5.228,8.198,10.456,16.397,16.303,24.156
				c13.352,17.665,30.143,32.071,46.421,46.917l0.154,0.154l0.182,0.129c14.903,10.216,27.945,22.941,39.667,36.597l-17.13,4.034
				c9.418,9.052,18.499,18.028,24.632,29.692c-5.382,0.285-10.039,1.864-15.007,3.751c8.359,9.027,14.206,18.261,17.544,30.311
				c-5.642-1.68-11.257-2.094-17.051-2.455c6.855,15.361,13.557,30.801,15.886,47.586c-5.382-1.293-10.896-1.523-16.379-1.783
				c-3.285,17.586-6.211,35.226-6.883,53.148c-0.675,17.175,0.647,34.708,5.458,52.84l0.7,2.612l2.691-0.258
				c1.474-0.151,2.943-0.226,4.411-0.226c6.054,0,12.07,1.27,18.152,3.663c7.712,3.054,15.55,7.89,23.649,14.303
				c11.904,9.388,24.609,15.439,37.754,19.114c12.685,3.545,25.758,4.865,38.797,4.865c0.368,0,0.735,0,1.102-0.003
				c0.743-0.004,1.485-0.006,2.229-0.006c12.583,0,25.165,0.629,37.746,1.971c13.301,1.422,26.575,3.622,39.823,6.698
				c24.864,5.741,49.238,8.406,73.355,8.406c0.116,0,0.227,0,0.344,0c23.998,0,47.664-2.634,71.227-7.423v-0.025
				c9.65-1.965,19.303-3,28.981-3.155c0.836-0.014,1.67-0.02,2.507-0.02c8.849,0,17.741,0.756,26.653,2.268
				c50.302,8.509,101.016,40.888,150.333,95.953c29.344,32.793,56.513,60.053,85.802,78.235
				c25.172,15.626,51.836,24.55,82.653,24.55c5.392,0,10.919-0.275,16.579-0.833c3.588-0.354,7.027-0.535,10.279-0.535
				c7.462,0,13.926,0.957,18.881,2.993c2.898,1.189,5.228,2.743,6.858,4.683c1.577,1.808,2.535,4.059,2.795,6.723
				c0.336,3.258-0.364,7.188-2.277,11.82c-4.71,11.457-10.893,20.43-18.58,27.053c-7.606,6.569-16.766,10.86-27.48,13.007v0.028
				h-0.025c-5.304,1.058-10.893,1.836-16.637,2.326c-5.847,0.518-11.8,0.75-17.776,0.75c-30.403-0.129-63.161-6.726-88.079-17.844
				c0.051-6.625-2.924-18.056-7.323-24.34c-1.155-1.662-3.629-2.925-5.145-2.925c-1.337,0-1.933,0.977-0.238,3.521
				c8.152,12.181,11.669,40.037-7.399,51.312l-0.131,0.078c-4.243-8.999-10.919-20.329-18.113-27.388
				c-1.463-1.432-3.073-2.109-4.235-2.109c-1.693,0-2.438,1.437-0.397,4.074c12.162,15.674,23.522,36.158,26.989,58.581
				c1.344,8.613,1.473,17.172,0.258,24.931c-1.215,7.605-3.725,14.406-7.684,19.733v0.028c-4.374,5.844-10.557,9.903-18.838,11.196
				c-6.951,1.079-14.504,1.485-22.32,1.485c-13.016,0-26.754-1.131-39.624-2.182c-5.46-0.439-10.764-0.879-16.121-1.215
				l-0.081-0.028c-16.379-1.058-32.758-2.558-49.135-4.344c-16.533-1.783-32.89-3.826-49.19-5.948
				c-5.018-0.647-12.03-2.172-19.639-3.829c-13.122-2.849-27.975-6.079-38.911-6.079c-2.757,0-5.263,0.207-7.432,0.674h-0.025
				c-3.727,0.803-6.676,2.819-9.238,5.458c-5.562,5.766-8.538,14.096-17.698,15.207c-0.513,0.061-1.021,0.091-1.524,0.091
				c-2.062,0-4.035-0.505-5.824-1.462c-2.302-1.19-4.296-3.104-5.797-5.587c-2.221-3.698-3.31-8.663-2.534-14.404
				c0.306-2.329-1.253-3.811-2.924-3.811c-1.594,0-3.292,1.351-3.57,4.612c-0.078,0.957-0.131,1.889-0.131,2.819
				c0,5.433,1.397,10.216,3.727,14.071c0.697,1.19,1.501,2.276,2.38,3.283c-4.889,5.872-10.815,8.744-16.172,9.88
				c-1.809,0.374-3.661,0.576-5.509,0.576c-3.383,0-6.754-0.674-9.835-2.18c-4.167-2.018-7.426-5.405-9.574-9.491
				c-2.226-4.19-3.287-9.156-3.052-14.25c0.154-3.569,0.955-7.191,2.456-10.656c0.705-1.649-0.978-3.513-2.949-3.513
				c-1.43,0-3.01,0.983-3.934,3.743c-1.137,3.364-1.759,6.776-1.913,10.138c-0.286,6.236,1.034,12.31,3.752,17.485
				c0.412,0.778,0.852,1.551,1.344,2.276c-1.89,1.697-4.442,2.316-6.959,2.316c-0.859,0-1.713-0.071-2.537-0.197
				c-7.323-1.109-13.584-6.309-17.312-12.515c-6.883-11.535-11.98-23.744-12.677-35.978c-0.672-11.997,2.924-24.181,13.299-35.945
				c14.8-16.76,32.24-25.35,51.078-28.48c6.009-1.005,11.975-1.442,17.903-1.442c20.902,0,41.357,5.42,61.714,10.418
				c-35.836-22.347-78.171-48.054-88.026-92.564c-6.34-28.606,6.08-70.916,28.617-102.934
				c-26.262,25.191-43.366,65.769-34.8,104.331c5.976,27.002,25.094,52.347,59.975,76.816c-9.142-1.551-18.229-2.44-27.133-2.44
				c-6.542,0-12.988,0.48-19.288,1.531c-20.205,3.364-38.939,12.573-54.8,30.548c-10.431,11.843-14.752,24.128-14.959,36.362
				c-17.736-1.589-35.53-2.298-53.331-2.298c-11.179,0-22.361,0.28-33.53,0.798c-0.905-3.829-2.12-7.991-3.621-12.467l11.437,1.45
				c-1.423-22.966-9.213-42.727-22.254-61.553c7.454-4.14,16.665-5.407,24.763-6.519c-13.506-16.861-28.152-32.225-45.875-44.768
				c3.649-2.172,7.502-4.008,11.591-5.536c4.038-1.5,8.177-2.533,12.344-3.672c-15.138-13.914-28.49-27.803-48.958-32.639
				c10.479,7.372,25.774,20.304,36.278,29.692c-8.177,2.74-15.603,7.216-22.666,12.128c17.337,11.563,32.551,24.908,46.057,40.994
				c-8.644,1.94-15.603,4.008-22.487,8.716c12.526,15.594,22.097,35.844,24.298,55.863l-13.999-1.758
				c5.407,14.846,19.404,48.933-3.52,57.26c-7.017,2.561-14.821,3.253-22.809,3.253c-9.383,0-19.017-0.955-27.922-0.955
				c-0.9,0-1.792,0.01-2.675,0.03c-20.753,0.49-41.478,0.854-62.153,1.061c-13.106,0.131-26.219,0.2-39.326,0.2
				c-7.621,0-15.242-0.023-22.853-0.071c-17.026-0.129-34.156-0.932-51.336-2.225c-17.13-1.293-34.259-3.026-51.414-5.069
				c-12.859-1.525-24.71-4.266-36.69-7.059c-7.219-1.682-14.464-3.364-22.201-4.837c-4.632-0.879-9.317-1.5-14.024-1.733
				c-1.261-0.063-2.417-0.093-3.483-0.093c-9.154,0-11.67,2.281-16.466,6.635c-13.016,11.82-26.289,12.234-42.979,14.563
				c-6.208,7.524-13.842,13.55-23.778,14.947c-1.454,0.21-2.901,0.308-4.336,0.308c-3.366,0-6.662-0.551-9.819-1.548
				c-4.528-1.447-8.745-3.801-12.344-6.776c-6.312-5.223-10.762-12.338-11.798-19.655c-0.543-3.852-0.829-7.577-0.518-10.888
				c0.235-2.301,0.753-4.425,1.683-6.284c1.089-2.162-0.558-4.589-2.637-4.589c-1.428,0-3.057,1.144-4.143,4.304
				c-0.647,1.889-1.033,3.879-1.215,5.976c-0.389,3.905-0.078,8.095,0.543,12.363c0.879,6.334,3.803,12.464,8.099,17.715
				c-3.314,1.326-6.567,2.245-9.636,2.245c-0.406,0-0.807-0.018-1.207-0.051c-4.503-0.333-8.9-2.945-13.17-9.539
				c-6.469-10.035-11.49-22.011-11.515-34.115c-0.051-20.822,11.98-39.858,31.775-47.458c10.934-4.2,23.87-5.683,37.454-5.683
				c7.246,0,14.676,0.422,22.083,1.079c3.957,0.356,7.368,0.538,10.498,0.538c3.236,0,6.171-0.194,9.09-0.588
				c14.438-1.968,28.566-7.916,42.747-11.277c43.598-10.345,88.544-10.216,133.178-10.292l0.672-0.932
				c-2.666-15.207,4.786-34.733,19.406-41.381c-16.457,1.914-26.807,19.319-27.04,35.976c-7.065,0.025-14.128,0.076-21.165,0.207
				c-1.941-10.113-0.26-21.337,5.251-30.028c-9.392,7.062-13.327,18.829-12.109,30.182c-8.541,0.207-17.079,0.493-25.592,0.957
				c-12.109-5.741-19.381-16.94-25.615-26.588c-6.547-9.724-9.185-13.474-10.246-18.233c-0.801-3.728-0.389-8.047-1.759-16.243
				c-3.234-16.71-0.44-30.389,4.682-46.167l-15.472,9.83c-0.26-14.068,1.423-28.091,3.181-42.055l-14.489,6.054
				c0.44-20.564,4.839-39.908,11.515-58.323c7.191-19.89,17.077-38.741,27.427-56.77c12.083-21.105,22.719-42.52,30.61-64.064
				c7.813-21.362,12.938-42.853,14.075-64.243c6.609-1.806,13.519-2.559,20.512-2.559c14.035,0,28.397,3.036,41.283,6.691
				c13.788,3.953,26.056,7.355,38.535,7.355c8.996,0,18.101-1.768,27.965-6.372c-3.57-3.516-7.348-6.956-10.168-11.121
				c6.984-1.318,13.584-3.905,20.104-6.723c-3.156-2.071-6.572-4.061-9.496-6.494c-2.534-2.094-4.528-4.266-5.847-6.206
				c5.071-4.887,9.754-9.466,13.741-15.414c-11.49-1.864-21.089-7.526-32.217-9.802c4.374-7.862,9.938-14.922,15.682-21.827
				c-10.801-1.711-21.352-2.354-32.181-2.354c-1.78,0-3.567,0.018-5.363,0.051c3.543-5.844,8.642-11.095,13.481-15.828l-3.674-2.094
				l-0.053-0.025c-2.095-1.164-4.217-2.147-6.365-2.95c-6.502-2.415-13.452-3.613-20.407-3.613c-8.988,0-17.986,2.002-26.037,5.967
				c4.138-0.871,8.925-1.281,13.933-1.281c10.457,0,21.87,1.788,30.287,4.902h0.025c0.596,0.232,1.162,0.439,1.733,0.697
				c-5.822,6.284-9.728,13.035-13.248,20.769l8.126-0.154c3.711-0.073,7.418-0.145,11.118-0.145c5.559,0,11.104,0.164,16.617,0.739
				c-4.321,5.69-8.225,11.767-11.409,18.157l-2.019,4.059c11.386,1.321,20.104,6.104,30.79,9.08
				c-3.361,3.437-7.113,6.438-10.297,10.085c2.355,4.811,5.357,8.638,9.521,12.078l0.157,0.131c-5.407,1.654-10.84,2.43-16.404,3.18
				c2.38,5.223,4.917,9.802,8.824,14.045c-5.348,1.902-10.737,2.662-16.128,2.662c-12.715,0-25.434-4.229-37.588-7.681
				c-16.296-4.621-30.767-6.829-43.343-6.829c-7.133,0-13.658,0.711-19.558,2.096c-3.234,0.775-6.289,1.733-9.162,2.897
				c-2.82,1.139-5.511,2.536-8.046,4.112l-0.053,0.028c-4.639,2.925-9.426,4.472-14.149,4.472c-2.125,0-4.239-0.313-6.318-0.956
				c-2.82-0.854-5.458-2.276-7.813-4.034l-0.157-0.104c-7.219-5.405-12.316-16.632-9.263-25.605
				c8.308-0.182,17.104-2.69,26.289-6.905c3.293-1.519,1.433-5.07-2.605-5.07c-0.975,0-2.08,0.207-3.267,0.701
				c-7.584,3.151-14.786,4.944-21.488,4.944c-3.473,0-6.814-0.482-10.001-1.506c-9.832-3.182-18.502-11.691-25.514-27.389
				c3.517-0.75,6.934-2.586,9.392-5.948c2.556-3.525,1.301-5.253-0.92-5.253c-1.511,0-3.469,0.801-4.978,2.382
				c-1.372,1.422-3.108,2.25-4.839,2.614c-0.571,0.101-1.165,0.179-1.733,0.207c-0.232,0.023-0.493,0.023-0.75,0.023
				c-2.33-1.705-4.245-3.49-5.718-5.352c-5.564-6.905-4.632-14.354,2.145-19.812c1.218-0.982,2.823-2.303,4.427-3.619h0.025
				c6.934-5.665,14.593-11.949,22.252-16.632c14.853-9.103,24.609-17.223,31.775-33.491c3.078-7.036,7.426-14.225,13.041-20.279
				c11.411-12.31,28.387-20.87,43.548-26.482c12.134-4.476,24.27-7.087,36.301-8.82c0.882,4.422,1.994,8.767,3.366,13.06
				c2.716,8.509,3.363,15.364-2.719,21.13c-14.596,13.805-1.696,21.688,13.445,21.688c8.26,0,17.189-2.348,22.679-7.36
				c7.712-7.059,8.927-18.518-2.044-21.827c-16.637-5.019-23.702-18.571-27.634-34.839
				C493.14,649.733,489.052,628.757,498.833,610.393 M497.695,596.019l-5.713,10.728c-10.72,20.126-7.002,42.015-1.991,62.804
				l-0.315,0.046c-14.421,2.076-26.457,5.006-37.881,9.22c-20.355,7.534-36.015,17.118-46.555,28.487
				c-5.747,6.198-10.748,13.959-14.46,22.444c-6.315,14.336-14.627,21.347-28.72,29.984c-7.294,4.459-14.485,10.206-20.962,15.487
				h-0.009l-2.172,1.76l-0.898,0.738c-1.275,1.046-2.504,2.055-3.479,2.843c-10.179,8.197-11.514,20.543-3.316,30.716
				c1.847,2.335,4.277,4.622,7.178,6.745l0.059,0.044l1.267,2.835c7.564,16.932,17.728,27.567,30.21,31.606
				c1.697,0.546,3.444,0.972,5.234,1.282c-2.349,12.159,4.475,24.726,12.84,30.99l0.183,0.136l0.172,0.114
				c3.164,2.331,6.533,4.047,10.018,5.102c2.754,0.851,5.651,1.289,8.569,1.289c6.086,0,12.157-1.855,18.047-5.515l0.256-0.155
				c1.447-0.9,2.919-1.71,4.398-2.421c-1.471,18.012-5.835,36.758-13.285,57.131c-7.1,19.383-16.932,39.951-30.058,62.874
				c-8.83,15.383-19.998,35.884-27.989,57.987c-7.634,21.054-11.552,40.941-11.976,60.793l-0.254,11.926l11.01-4.602l2.202-0.919
				c-1.027,9.436-1.838,19.738-1.65,29.907l0.255,13.818l10.513-6.678c-1.721,9.742-1.957,19.516,0.143,30.429
				c0.676,4.074,0.867,7.052,1.035,9.681c0.158,2.457,0.294,4.579,0.774,6.814c1.341,6.014,4.2,10.257,10.462,19.551l0.892,1.323
				c4.447,6.882,9.636,14.899,16.968,21.428c-19.874,1.437-39.718,4.013-59.266,8.651c-5.776,1.369-11.519,3.142-17.071,4.854
				c-8.614,2.66-16.751,5.17-24.931,6.284c-2.609,0.354-5.167,0.518-8.042,0.518c-2.814,0-6.02-0.167-9.802-0.508
				c-8.43-0.745-15.878-1.109-22.78-1.109c-16.217,0-29.38,2.028-40.239,6.198c-22.385,8.595-36.813,30.073-36.753,54.719
				c0.032,15.354,6.953,29.303,12.752,38.299c5.266,8.13,11.696,12.525,19.122,13.075c0.539,0.045,1.159,0.071,1.78,0.071
				c3.765,0,7.744-0.892,12.519-2.801l1.596-0.636c0.184,0.157,0.369,0.313,0.557,0.467c4.409,3.647,9.572,6.478,14.93,8.191
				c4.039,1.276,8.129,1.92,12.183,1.92c1.818,0,3.649-0.131,5.442-0.389c9.86-1.387,18.603-6.413,26.631-15.333
				c0.883-0.116,1.756-0.23,2.619-0.341c14.546-1.884,28.286-3.662,41.622-15.773c4.31-3.915,5.085-4.62,11.246-4.62
				c0.95,0,1.977,0.028,3.1,0.083c4.088,0.202,8.327,0.727,12.959,1.606c7.715,1.468,14.92,3.147,21.886,4.771
				c11.823,2.756,24.051,5.607,37.538,7.208c18.432,2.195,35.358,3.864,51.744,5.099c18.433,1.389,35.396,2.124,51.861,2.248
				c7.637,0.048,15.275,0.071,22.912,0.071c12.876,0,26.133-0.068,39.403-0.199c19.878-0.199,40.824-0.558,62.259-1.063
				c0.825-0.02,1.655-0.028,2.492-0.028c4.197,0,8.571,0.222,13.203,0.457c4.802,0.245,9.769,0.498,14.719,0.498
				c10.417,0,18.51-1.184,25.471-3.723c6.953-2.526,11.977-7.029,14.925-13.384c3.237-6.973,3.413-15.252,2.177-23.471
				c10.341-0.442,20.547-0.664,30.378-0.664c18.008,0,35.601,0.753,52.297,2.238c1.284,11.219,5.706,23.052,13.466,36.054
				c5.281,8.794,13.807,14.846,22.815,16.21c1.233,0.189,2.481,0.285,3.699,0.285c4.182,0,7.901-1.124,10.863-3.266
				c1.976,1.786,4.185,3.281,6.582,4.443c3.997,1.955,8.455,2.955,13.218,2.955c2.34,0,4.723-0.247,7.083-0.737
				c7.692-1.632,14.502-5.637,19.793-11.616c0.028,0.018,0.058,0.033,0.088,0.048c2.86,1.528,6.052,2.329,9.39,2.329
				c0.809,0,1.63-0.048,2.441-0.146c9.913-1.202,15.02-8.044,18.749-13.04c1.236-1.659,2.403-3.225,3.621-4.486
				c1.713-1.766,3.285-2.768,5.041-3.203l0.273-0.056c1.531-0.331,3.479-0.5,5.792-0.5c10.092,0,24.508,3.132,37.228,5.895
				c7.709,1.68,14.964,3.258,20.329,3.95c13.445,1.75,31.214,4.011,49.35,5.966c17.425,1.899,33.284,3.311,48.43,4.306l0.008,0.003
				l1.127,0.094c4.718,0.296,9.347,0.669,14.246,1.066l1.738,0.139l0.308,0.025c13.132,1.073,26.711,2.182,39.937,2.182
				c8.975,0,16.665-0.515,23.51-1.576c9.799-1.531,18.047-6.445,23.864-14.217l1.546-2.066v-0.189
				c3.74-5.779,6.289-12.805,7.588-20.928c1.317-8.411,1.228-17.859-0.255-27.353c-1.412-9.135-3.997-17.768-7.224-25.727
				c8.179-5.049,13.711-13.015,15.998-23.072c0.152-0.662,0.286-1.326,0.407-1.993c25.16,10.426,57.375,16.662,87.187,16.788
				c6.436,0,12.647-0.263,18.494-0.781c5.756-0.49,11.381-1.263,16.708-2.296h7.007l0.005-1.692
				c9.461-2.725,17.784-7.16,24.814-13.232c8.589-7.398,15.55-17.485,20.682-29.972c2.347-5.685,3.297-10.926,2.82-15.566
				c-0.404-4.142-2.001-7.946-4.614-10.969c-2.403-2.839-5.703-5.132-9.812-6.819c-5.774-2.369-13.117-3.574-21.83-3.574
				c-3.467,0-7.181,0.192-11.04,0.573c-5.347,0.528-10.668,0.796-15.818,0.796c-27.52,0-53.216-7.65-78.557-23.383
				c-30.398-18.869-58.391-48.071-84.111-76.816c-50.598-56.495-102.689-89.611-154.823-98.431
				c-9.299-1.577-18.704-2.377-27.95-2.377c-0.877,0-1.754,0.008-2.63,0.021c-10.186,0.162-20.417,1.276-30.406,3.31l-4.227,0.86
				c-22.514,4.325-43.97,6.432-65.451,6.432h-0.331c-23.945,0-48.036-2.76-71.621-8.206c-13.221-3.071-26.934-5.377-40.744-6.853
				c-12.531-1.337-25.509-2.016-38.571-2.016c-0.759,0-1.515,0.003-2.274,0.006l-1.056,0.002c-13.675,0-25.683-1.496-36.708-4.578
				c-13.082-3.657-24.542-9.459-35.035-17.733c-8.988-7.117-17.365-12.166-25.598-15.426c-7.203-2.834-14.07-4.209-21.011-4.209
				c-0.404,0-0.81,0.005-1.215,0.015c-3.541-14.764-4.946-30.159-4.288-46.92c0.545-14.524,2.579-28.872,5.528-45.317
				c2.824,0.222,5.548,0.563,8.164,1.192l11.068,2.658l-1.564-11.268c-1.847-13.305-6.361-25.992-11.059-37.239
				c0.778,0.179,1.55,0.38,2.318,0.609l13.439,4.001l-3.742-13.507c-2.435-8.789-6.115-16.518-11.547-24.065
				c0.638-0.082,1.284-0.143,1.941-0.178l12.094-0.642l-5.634-10.715c-4.406-8.379-10.259-15.534-16.123-21.733l3.529-0.831
				l12.419-2.925l-8.308-9.68c-13.534-15.767-26.892-28.106-40.825-37.707c-1.975-1.801-3.958-3.597-5.941-5.391
				c-13.817-12.506-28.104-25.436-39.356-40.324c-5.659-7.509-10.891-15.714-15.951-23.648c-5.175-8.139-10.532-16.562-16.6-24.588
				L497.695,596.019L497.695,596.019z M492.823,722.365c0.128-0.514,0.776-2.269,3.942-5.264c5.922-5.615,7.329-12.126,7.095-17.795
				c4.719,5.193,10.983,9.547,19.406,12.088c1.461,0.441,2.286,1.034,2.452,1.766c0.346,1.52-0.73,4.46-3.409,6.911
				c-3.538,3.23-10.385,5.323-17.435,5.323C497.559,725.395,493.636,723.281,492.823,722.365L492.823,722.365z"/>
		</g>
		<g>
			<path fill="#333333" d="M369.84,1217.092c-0.001,0-0.001,0-0.003,0l0,0H369.84 M369.837,1217.092v0.025
				c4.553,2.377,8.538,8.509,13.041,15.437c5.2,8.044,11.075,17.096,19.846,23.769c-21.137,1.447-42.33,3.569-62.979,8.456
				c-13.946,3.311-27.917,9.259-42.097,11.199c-2.576,0.346-5.198,0.515-8.115,0.515c-2.972,0-6.25-0.174-10.101-0.515
				c-7.535-0.672-15.108-1.101-22.531-1.101c-14.293,0-28.025,1.594-39.83,6.122c-11.823,4.551-21.658,12-28.099,23.666
				c-0.958-1.425-1.683-3.028-2.201-4.657c-2.666-8.173-1.14-19.266,4.478-27.232c4.579-6.493,9.471-12.752,14.954-18.622
				c5.486-5.872,11.568-11.355,18.58-16.346l0.025-0.025c1.319-0.932,2.691-1.786,4.114-2.536c1.4-0.722,2.848-1.344,4.296-1.861
				c3.685-1.323,7.511-1.962,11.313-1.962c3.859,0,7.694,0.659,11.33,1.937c9.914,3.468,19.649,5.256,29.361,5.256
				c2.451,0,4.903-0.114,7.354-0.344c12.134-1.137,24.243-5.069,36.665-11.921C341.608,1219.496,355.918,1217.61,369.837,1217.092
				 M377.6,1209.065l-8.052,0.273c-12.785,0.477-29.349,2.069-44.071,10.227c-11.505,6.347-22.508,9.941-33.625,10.982
				c-2.195,0.207-4.426,0.311-6.63,0.311c-8.759,0-17.525-1.576-26.796-4.822c-4.48-1.573-9.157-2.372-13.895-2.372
				c-4.772,0-9.461,0.813-13.936,2.42c-1.803,0.644-3.567,1.409-5.233,2.268c-1.731,0.912-3.404,1.942-5.035,3.094l-0.539,0.384
				l-0.042,0.04c-6.867,4.94-13.157,10.502-19.217,16.988c-5.248,5.62-10.36,11.982-15.625,19.448
				c-6.804,9.651-9.02,23.358-5.512,34.107c0.759,2.389,1.821,4.622,3.137,6.579l7.094,10.552l6.145-11.131
				c5.142-9.312,13.023-15.912,24.092-20.173c9.824-3.771,21.943-5.604,37.04-5.604c6.614,0,13.759,0.351,21.842,1.071
				c4.216,0.371,7.642,0.546,10.79,0.546c3.233,0,6.226-0.192,9.151-0.583c9.275-1.27,18.254-4.066,26.938-6.769
				c5.506-1.715,10.708-3.334,15.918-4.572c21.156-5.008,43.07-6.989,61.716-8.264l20.605-1.412l-16.435-12.502
				c-7.735-5.887-13.203-14.346-18.028-21.807c-3.958-6.092-7.496-11.535-11.798-15.24V1209.065L377.6,1209.065z"/>
		</g>
		<g>
			<path fill="#333333" d="M472.615,614.381c5.926,5.508,10.325,12.904,14.671,19.604c0,12.646,0.493,25.035,2.355,37.011
				c-10.118,1.473-20.311,3.569-30.585,6.827c0.286-5.64,0.879-11.277,1.683-16.864C463.066,644.381,467.49,626.82,472.615,614.381
				 M469.701,601.076l-4.264,10.351c-5.304,12.873-9.934,30.988-12.385,48.454c-0.892,6.199-1.466,11.948-1.749,17.551l-0.566,11.17
				l10.666-3.383c8.911-2.825,18.513-4.965,29.356-6.544l7.756-1.129l-1.204-7.741c-1.565-10.065-2.263-21.112-2.263-35.819v-2.295
				l-1.25-1.926c-0.537-0.83-1.076-1.67-1.618-2.516c-3.927-6.124-8.378-13.064-14.279-18.55L469.701,601.076L469.701,601.076z"/>
		</g>
	</g>
	<path fill="#333333" d="M242.25,602.174l-1.761-2.515l6.494-4.547l4.163,5.944c-0.204,1.052-0.741,2.23-1.614,3.534
		c-0.872,1.303-1.922,2.385-3.15,3.245c-1.561,1.093-3.15,1.718-4.77,1.876c-1.619,0.158-3.146-0.168-4.583-0.979
		c-1.437-0.809-2.656-1.93-3.658-3.361c-1.088-1.554-1.729-3.163-1.924-4.827c-0.194-1.664,0.11-3.257,0.915-4.782
		c0.61-1.165,1.627-2.246,3.052-3.244c1.853-1.298,3.572-1.922,5.158-1.874c1.586,0.048,3.007,0.652,4.266,1.814l-2.6,2.654
		c-0.724-0.585-1.524-0.888-2.401-0.905c-0.877-0.018-1.75,0.277-2.619,0.886c-1.316,0.922-2.071,2.072-2.263,3.451
		c-0.192,1.378,0.286,2.889,1.436,4.531c1.24,1.771,2.563,2.824,3.97,3.157c1.407,0.335,2.75,0.056,4.025-0.837
		c0.631-0.442,1.177-1.009,1.638-1.702c0.461-0.69,0.796-1.372,1.003-2.044l-1.325-1.893L242.25,602.174z"/>
	<path fill="#333333" d="M298.259,601.883v-18.216h5.504l3.305,12.426l3.268-12.426h5.518v18.216h-3.418v-14.339l-3.615,14.339
		h-3.542l-3.603-14.339v14.339H298.259z"/>
	<path fill="#333333" d="M361.518,606.107l10.448-14.922l11.064,7.746l-1.768,2.525l-8.051-5.639l-2.316,3.309l7.491,5.246
		l-1.761,2.514l-7.491-5.246l-2.844,4.063l8.336,5.836l-1.761,2.516L361.518,606.107z"/>
</g>
</svg>
