<?xml version="1.0" encoding="utf-8"?>
<!-- Generator: Adobe Illustrator 16.0.0, SVG Export Plug-In . SVG Version: 6.00 Build 0)  -->
<!DOCTYPE svg PUBLIC "-//W3C//DTD SVG 1.1 Basic//EN" "http://www.w3.org/Graphics/SVG/1.1/DTD/svg11-basic.dtd">
<svg version="1.1" baseProfile="basic" id="Layer_1"
	 xmlns="http://www.w3.org/2000/svg" xmlns:xlink="http://www.w3.org/1999/xlink" x="0px" y="0px" width="144px" height="144px"
	 viewBox="0 0 144 144" xml:space="preserve">
<g>
	<defs>
		<rect id="SVGID_1_" width="144" height="144"/>
	</defs>
	<clipPath id="SVGID_2_">
		<use xlink:href="#SVGID_1_"  overflow="visible"/>
	</clipPath>
	<path clip-path="url(#SVGID_2_)" fill="#FAB327" d="M10.6,35.046L70.696,0.349c0.807-0.465,1.801-0.465,2.607,0l60.096,34.697
		c0.807,0.466,1.304,1.326,1.304,2.257v69.395c0,0.931-0.497,1.792-1.304,2.257l-60.096,34.697c-0.807,0.466-1.8,0.466-2.607,0
		L10.6,108.954c-0.807-0.465-1.303-1.326-1.303-2.257V37.303C9.297,36.372,9.793,35.512,10.6,35.046"/>
	<path clip-path="url(#SVGID_2_)" fill="#242930" d="M15.365,37.926L70.777,5.934c0.744-0.43,1.66-0.43,2.404,0l55.412,31.992
		c0.743,0.429,1.201,1.223,1.201,2.081v63.985c0,0.859-0.458,1.652-1.201,2.081l-55.412,31.993c-0.744,0.429-1.66,0.429-2.404,0
		l-55.412-31.993c-0.744-0.429-1.202-1.222-1.202-2.081V40.007C14.163,39.149,14.621,38.355,15.365,37.926"/>
	<path clip-path="url(#SVGID_2_)" fill="#FFFFFF" d="M96.829,25.193L72.104,10.918c-0.002-0.001-0.003-0.001-0.004-0.002
		c-0.028-0.016-0.059-0.029-0.09-0.04c-0.004-0.002-0.007-0.005-0.012-0.006c-0.001-0.001-0.003-0.001-0.004-0.001
		c-0.008-0.003-0.017-0.005-0.025-0.007c-0.014-0.004-0.027-0.006-0.04-0.009c-0.033-0.007-0.065-0.011-0.098-0.013
		c-0.007,0-0.015-0.002-0.022-0.003c-0.009,0-0.018,0.002-0.027,0.002c-0.041,0.001-0.083,0.006-0.124,0.016
		c-0.005,0.001-0.009,0.001-0.014,0.002c-0.004,0.001-0.007,0.003-0.01,0.004c-0.005,0.001-0.01,0.004-0.015,0.006
		c-0.036,0.011-0.072,0.026-0.107,0.045c-0.004,0.002-0.009,0.003-0.014,0.006L47.171,24.963c-0.289,0.167-0.388,0.537-0.221,0.826
		c0.167,0.29,0.538,0.389,0.826,0.222l21.62-12.483l-9.195,11.731c-0.206,0.263-0.16,0.644,0.103,0.85
		c0.264,0.206,0.644,0.16,0.85-0.103l10.042-12.812v12.523c0,0.334,0.271,0.605,0.605,0.605s0.605-0.271,0.605-0.605V13.194
		l10.042,12.812c0.119,0.152,0.297,0.232,0.476,0.232c0.131,0,0.262-0.042,0.374-0.129c0.262-0.206,0.308-0.587,0.103-0.85
		l-9.195-11.731l22.019,12.713c0.096,0.055,0.199,0.081,0.303,0.081c0.209,0,0.411-0.108,0.523-0.303
		C97.217,25.73,97.118,25.36,96.829,25.193"/>
	<path clip-path="url(#SVGID_2_)" fill="#FFFFFF" d="M34.019,60.901c0.44,0,0.795-0.356,0.795-0.796v-3.922l3.222,4.226
		c0.22,0.282,0.45,0.471,0.837,0.471h0.053c0.45,0,0.805-0.355,0.805-0.806v-5.827c0-0.439-0.355-0.795-0.795-0.795
		c-0.439,0-0.795,0.356-0.795,0.795v3.776l-3.107-4.079c-0.22-0.283-0.45-0.471-0.837-0.471H34.03c-0.451,0-0.806,0.356-0.806,0.806
		v5.826C33.224,60.545,33.579,60.901,34.019,60.901"/>
	<path clip-path="url(#SVGID_2_)" fill="#FFFFFF" d="M45.05,60.964c2.26,0,3.902-1.705,3.902-3.787v-0.021
		c0-2.082-1.621-3.766-3.881-3.766c-2.26,0-3.902,1.705-3.902,3.787v0.021C41.169,59.28,42.79,60.964,45.05,60.964 M42.853,57.156
		c0-1.256,0.9-2.28,2.197-2.28s2.218,1.046,2.218,2.301v0.021c0,1.255-0.9,2.28-2.197,2.28s-2.218-1.046-2.218-2.301V57.156z"/>
	<path clip-path="url(#SVGID_2_)" fill="#FFFFFF" d="M51.197,60.838h2.05c2.302,0,3.892-1.6,3.892-3.661v-0.021
		c0-2.061-1.59-3.641-3.892-3.641h-2.05c-0.451,0-0.806,0.356-0.806,0.806v5.711C50.391,60.482,50.746,60.838,51.197,60.838
		 M52.002,54.969h1.245c1.318,0,2.207,0.911,2.207,2.208v0.02c0,1.298-0.889,2.187-2.207,2.187h-1.245V54.969z"/>
	<path clip-path="url(#SVGID_2_)" fill="#FFFFFF" d="M59.382,60.838h4.111c0.398,0,0.722-0.313,0.722-0.711
		s-0.324-0.723-0.722-0.723h-3.316v-1.537h2.793c0.398,0,0.722-0.314,0.722-0.712c0-0.397-0.324-0.721-0.722-0.721h-2.793v-1.486
		h3.264c0.397,0,0.722-0.314,0.722-0.711c0-0.398-0.325-0.722-0.722-0.722h-4.059c-0.45,0-0.806,0.356-0.806,0.805v5.712
		C58.576,60.482,58.932,60.838,59.382,60.838"/>
	<path clip-path="url(#SVGID_2_)" fill="#FFFFFF" d="M65.443,60.064c0.816,0.586,1.789,0.879,2.751,0.879
		c1.58,0,2.689-0.816,2.689-2.27v-0.021c0-1.276-0.837-1.81-2.322-2.197c-1.266-0.325-1.58-0.482-1.58-0.963v-0.02
		c0-0.356,0.325-0.638,0.942-0.638c0.502,0,1.004,0.177,1.537,0.491c0.126,0.073,0.252,0.115,0.408,0.115
		c0.419,0,0.754-0.324,0.754-0.743c0-0.314-0.178-0.533-0.356-0.638c-0.659-0.418-1.433-0.649-2.322-0.649
		c-1.497,0-2.564,0.879-2.564,2.208v0.021c0,1.454,0.952,1.862,2.427,2.238c1.224,0.315,1.476,0.523,1.476,0.931v0.022
		c0,0.429-0.398,0.69-1.057,0.69c-0.711,0-1.318-0.251-1.873-0.659c-0.104-0.073-0.251-0.146-0.46-0.146
		c-0.419,0-0.753,0.324-0.753,0.742C65.14,59.709,65.265,59.939,65.443,60.064"/>
	<path clip-path="url(#SVGID_2_)" fill="#FFFFFF" d="M75.721,60.964c1.172,0,1.945-0.345,2.604-0.92
		c0.146-0.126,0.272-0.325,0.272-0.576c0-0.408-0.346-0.743-0.753-0.743c-0.189,0-0.356,0.074-0.482,0.178
		c-0.46,0.367-0.91,0.575-1.59,0.575c-1.255,0-2.124-1.046-2.124-2.3v-0.022c0-1.255,0.89-2.28,2.124-2.28
		c0.576,0,1.046,0.188,1.496,0.523c0.115,0.073,0.262,0.157,0.481,0.157c0.439,0,0.795-0.345,0.795-0.785
		c0-0.283-0.146-0.513-0.313-0.638c-0.607-0.45-1.35-0.743-2.448-0.743c-2.25,0-3.819,1.706-3.819,3.788v0.02
		C71.964,59.301,73.565,60.964,75.721,60.964"/>
	<path clip-path="url(#SVGID_2_)" fill="#FFFFFF" d="M80.819,60.901c0.45,0,0.806-0.356,0.806-0.806v-2.197h2.972v2.197
		c0,0.45,0.354,0.806,0.805,0.806s0.807-0.356,0.807-0.806v-5.838c0-0.449-0.356-0.805-0.807-0.805s-0.805,0.356-0.805,0.805v2.156
		h-2.972v-2.156c0-0.449-0.355-0.805-0.806-0.805s-0.806,0.356-0.806,0.805v5.838C80.014,60.545,80.369,60.901,80.819,60.901"/>
	<path clip-path="url(#SVGID_2_)" fill="#FFFFFF" d="M91.526,60.964c2.26,0,3.901-1.705,3.901-3.787v-0.021
		c0-2.082-1.62-3.766-3.881-3.766c-2.26,0-3.901,1.705-3.901,3.787v0.021C87.646,59.28,89.267,60.964,91.526,60.964 M89.329,57.156
		c0-1.256,0.9-2.28,2.197-2.28s2.218,1.046,2.218,2.301v0.021c0,1.255-0.9,2.28-2.197,2.28s-2.218-1.046-2.218-2.301V57.156z"/>
	<path clip-path="url(#SVGID_2_)" fill="#FFFFFF" d="M100.424,60.964c2.26,0,3.901-1.705,3.901-3.787v-0.021
		c0-2.082-1.621-3.766-3.881-3.766s-3.902,1.705-3.902,3.787v0.021C96.542,59.28,98.163,60.964,100.424,60.964 M98.227,57.156
		c0-1.256,0.899-2.28,2.197-2.28c1.297,0,2.218,1.046,2.218,2.301v0.021c0,1.255-0.9,2.28-2.197,2.28s-2.218-1.046-2.218-2.301
		V57.156z"/>
	<path clip-path="url(#SVGID_2_)" fill="#FFFFFF" d="M106.569,60.838h3.787c0.408,0,0.732-0.325,0.732-0.733
		s-0.324-0.731-0.732-0.731h-2.982v-5.117c0-0.449-0.354-0.805-0.805-0.805s-0.806,0.356-0.806,0.805v5.775
		C105.764,60.482,106.119,60.838,106.569,60.838"/>
	<polygon clip-path="url(#SVGID_2_)" fill="#FAB327" points="106.055,39.447 110.393,38.634 106.055,37.82 105.179,30.814 
		104.303,37.82 99.965,38.634 104.303,39.447 105.179,46.454 	"/>
	<polygon clip-path="url(#SVGID_2_)" fill="#FAB327" points="114.337,45.125 116.448,44.612 114.337,44.098 113.77,40.593 
		113.2,44.098 111.089,44.612 113.2,45.125 113.77,48.631 	"/>
	<polygon clip-path="url(#SVGID_2_)" fill="#FAB327" points="26.03,63.618 28.142,63.104 26.03,62.59 25.462,59.084 24.894,62.59 
		22.783,63.104 24.894,63.618 25.462,67.124 	"/>
	<polygon clip-path="url(#SVGID_2_)" fill="#FAB327" points="31.803,43.294 34.512,42.548 31.803,41.802 30.962,37.225 
		30.122,41.802 27.413,42.548 30.122,43.294 30.962,47.871 	"/>
	<path clip-path="url(#SVGID_2_)" fill="#318ABD" d="M71.979,70.479c-21.184,0-40.979,3.636-57.816,9.941v23.572
		c0,0.859,0.458,1.652,1.202,2.081l55.412,31.993c0.744,0.429,1.66,0.429,2.404,0l55.412-31.993
		c0.743-0.429,1.202-1.222,1.202-2.081V80.42C112.958,74.115,93.162,70.479,71.979,70.479"/>
	<path clip-path="url(#SVGID_2_)" fill="#FFFFFF" d="M14.163,79.595v1.713c16.815-6.345,36.624-10.014,57.816-10.014
		c21.191,0,41,3.669,57.815,10.014v-1.713c-16.878-6.3-36.67-9.93-57.815-9.93C50.833,69.665,31.041,73.295,14.163,79.595"/>
	<path clip-path="url(#SVGID_2_)" fill="#44AD4D" d="M59.357,107.646l-5.025-8.377l7.467-3.181l2.037-10.509l-3.718-5.783
		l6.538-6.423c0,0-19.865,0.068-40.344,5.954l15.204,10.219l-11.73,9.723l7.82,9.282l8.513-5.566L59.357,107.646z"/>
	<path clip-path="url(#SVGID_2_)" fill="#44AD4D" d="M122.625,80.797c0,0-12.051-4.111-27.562-6.016l-8.735,6.198l17.944,8.081
		l-3.861,5.36l2.708,3.614l-7.385,4.562l0.434,5.198l8.255-0.702l15.538-6.4l-3.611-7.229L122.625,80.797z"/>
	<path clip-path="url(#SVGID_2_)" fill="#FFFFFF" d="M57.16,113.174c-0.135-0.18-0.101-0.428,0.077-0.563
		c0.179-0.135,0.428-0.101,0.563,0.078l1.758,2.319c0.135,0.179,0.101,0.427-0.077,0.562c-0.179,0.135-0.428,0.102-0.563-0.078
		L57.16,113.174z"/>
	<path clip-path="url(#SVGID_2_)" fill="#FFFFFF" d="M97.007,117.381c-0.167-0.29-0.538-0.39-0.826-0.222l-21.619,12.481
		l9.194-11.73c0.206-0.263,0.16-0.643-0.103-0.849c-0.265-0.206-0.644-0.16-0.85,0.102l-10.043,12.812v-12.523
		c0-0.334-0.271-0.604-0.604-0.604s-0.605,0.271-0.605,0.604v12.523l-10.042-12.812c-0.206-0.262-0.586-0.309-0.85-0.102
		c-0.262,0.206-0.308,0.586-0.102,0.849l9.194,11.73L47.733,116.93c-0.289-0.167-0.659-0.069-0.826,0.221
		c-0.167,0.289-0.068,0.659,0.221,0.826l24.726,14.276c0.006,0.003,0.012,0.004,0.018,0.007c0.022,0.012,0.044,0.021,0.066,0.029
		c0.008,0.002,0.013,0.009,0.021,0.012c0.006,0.002,0.013,0.001,0.019,0.003c0.011,0.003,0.022,0.008,0.033,0.011
		c0.047,0.011,0.096,0.018,0.144,0.018l0.002,0.002h0.001h0.001c0.049-0.002,0.097-0.009,0.144-0.02
		c0.011-0.003,0.021-0.007,0.03-0.01c0.014-0.004,0.027-0.01,0.04-0.016c0.023-0.009,0.046-0.018,0.069-0.029
		c0.006-0.003,0.012-0.004,0.018-0.007l24.327-14.047C97.075,118.039,97.174,117.671,97.007,117.381"/>
	<path clip-path="url(#SVGID_2_)" fill="#FFFFFF" d="M99.397,116.241c0,0.419-0.34,0.758-0.758,0.758
		c-0.419,0-0.759-0.339-0.759-0.758s0.34-0.758,0.759-0.758C99.058,115.483,99.397,115.822,99.397,116.241"/>
	<path clip-path="url(#SVGID_2_)" fill="#FFFFFF" d="M46.12,116.241c0,0.419-0.34,0.758-0.758,0.758
		c-0.419,0-0.759-0.339-0.759-0.758s0.34-0.758,0.759-0.758C45.779,115.483,46.12,115.822,46.12,116.241"/>
	<path clip-path="url(#SVGID_2_)" fill="#FFFFFF" d="M70.534,110.689c0-0.225,0.177-0.402,0.402-0.402h0.083
		c0.193,0,0.308,0.095,0.417,0.235l1.549,2.034v-1.883c0-0.22,0.178-0.396,0.397-0.396c0.219,0,0.396,0.177,0.396,0.396v2.905
		c0,0.224-0.177,0.401-0.402,0.401h-0.025c-0.192,0-0.308-0.095-0.417-0.234l-1.606-2.107v1.955c0,0.22-0.178,0.397-0.397,0.397
		c-0.219,0-0.396-0.178-0.396-0.397V110.689z"/>
	<path clip-path="url(#SVGID_2_)" fill="#FFFFFF" d="M86.163,112.943l-0.631-0.445c-0.166-0.116-0.206-0.35-0.089-0.516
		c0.117-0.167,0.35-0.207,0.516-0.089l1.918,1.353c0.166,0.117,0.206,0.351,0.089,0.517s-0.35,0.206-0.516,0.089l-0.631-0.445
		l-1.465,2.075c-0.129,0.183-0.377,0.226-0.56,0.097c-0.183-0.13-0.226-0.377-0.096-0.56L86.163,112.943z"/>
	<polygon clip-path="url(#SVGID_2_)" fill="#FFFFFF" points="79.607,44.984 79.021,40.239 75.406,38.63 63.499,30.262 
		63.013,31.067 74.254,38.966 71.801,41.002 63.939,37.492 63.6,38.38 71.472,41.895 71.878,45.191 58.743,42.231 58.561,43.172 
		72.53,46.319 76.091,47.903 	"/>
</g>
</svg>
