<?xml version="1.0" encoding="utf-8"?>
<!-- Generator: Adobe Illustrator 18.1.1, SVG Export Plug-In . SVG Version: 6.00 Build 0)  -->
<svg version="1.1" id="Camada_1" xmlns="http://www.w3.org/2000/svg" xmlns:xlink="http://www.w3.org/1999/xlink" x="0px" y="0px"
	 viewBox="0 0 595 842" enable-background="new 0 0 595 842" xml:space="preserve">
<g>
	<polygon fill-rule="evenodd" clip-rule="evenodd" fill="#FFE172" points="384.2,470.5 297.4,520.6 210.7,470.5 210.7,370.4 
		297.4,320.3 384.2,370.4 	"/>
	
		<path fill-rule="evenodd" clip-rule="evenodd" fill="#F17722" stroke="#F17722" stroke-width="0.101" stroke-miterlimit="22.9256" d="
		M385.9,368.2l-86.8-50.1c-1-0.6-2.2-0.6-3.2,0l-86.8,50.1c-1,0.6-1.6,1.6-1.6,2.8v100.1c0,1.1,0.6,2.2,1.6,2.8l86.8,50.1
		c0.5,0.3,1,0.4,1.6,0.4c0.5,0,1.1-0.1,1.6-0.4l86.8-50.1c1-0.6,1.6-1.6,1.6-2.8V370.9C387.4,369.8,386.8,368.7,385.9,368.2
		L385.9,368.2z M297.5,324.5L297.5,324.5l83.6,48.2c0,32.2,0,64.3,0,96.5l-83.6,48.2l-83.6-48.2c0-32.2,0-64.3,0-96.5L297.5,324.5z"
		/>
	<path fill-rule="evenodd" clip-rule="evenodd" fill="#F17722" d="M333.1,354.1l-35.5-20.5c0,0,0,0,0,0c0,0-0.1,0-0.1-0.1
		c0,0,0,0,0,0c0,0,0,0,0,0c0,0,0,0,0,0c0,0,0,0-0.1,0c0,0-0.1,0-0.1,0c0,0,0,0,0,0c0,0,0,0,0,0c-0.1,0-0.1,0-0.2,0c0,0,0,0,0,0
		c0,0,0,0,0,0c0,0,0,0,0,0c-0.1,0-0.1,0-0.2,0.1c0,0,0,0,0,0l-34.9,20.1c-0.4,0.2-0.6,0.8-0.3,1.2c0.2,0.4,0.8,0.6,1.2,0.3l31-17.9
		l-13.2,16.8c-0.3,0.4-0.2,0.9,0.1,1.2c0.4,0.3,0.9,0.2,1.2-0.1l14.4-18.4v18c0,0.5,0.4,0.9,0.9,0.9s0.9-0.4,0.9-0.9v-18l14.4,18.4
		c0.2,0.2,0.4,0.3,0.7,0.3c0.2,0,0.4-0.1,0.5-0.2c0.4-0.3,0.4-0.8,0.1-1.2l-13.2-16.8l31.6,18.2c0.1,0.1,0.3,0.1,0.4,0.1
		c0.3,0,0.6-0.2,0.8-0.4C333.7,354.8,333.5,354.3,333.1,354.1z"/>
	
		<path fill-rule="evenodd" clip-rule="evenodd" fill="#F17722" stroke="#F17722" stroke-width="0.101" stroke-miterlimit="22.9256" d="
		M333.4,486.3c-0.2-0.4-0.8-0.6-1.2-0.3l-31,17.9l13.2-16.8c0.3-0.4,0.2-0.9-0.1-1.2c-0.4-0.3-0.9-0.2-1.2,0.1l-14.4,18.4v-18
		c0-0.5-0.4-0.9-0.9-0.9c-0.5,0-0.9,0.4-0.9,0.9v18l-14.4-18.4c-0.3-0.4-0.8-0.4-1.2-0.1c-0.4,0.3-0.4,0.8-0.1,1.2l13.2,16.8
		l-31.6-18.2c-0.4-0.2-0.9-0.1-1.2,0.3c-0.2,0.4-0.1,0.9,0.3,1.2l35.5,20.5c0,0,0,0,0,0c0,0,0.1,0,0.1,0c0,0,0,0,0,0c0,0,0,0,0,0
		c0,0,0,0,0,0c0.1,0,0.1,0,0.2,0l0,0h0h0l0,0c0.1,0,0.1,0,0.2,0c0,0,0,0,0,0c0,0,0,0,0.1,0c0,0,0.1,0,0.1,0c0,0,0,0,0,0l34.9-20.1
		C333.5,487.2,333.6,486.7,333.4,486.3z"/>
	
		<circle fill-rule="evenodd" clip-rule="evenodd" fill="#F17722" stroke="#F17722" stroke-width="0.101" stroke-miterlimit="22.9256" cx="335.7" cy="484.6" r="1.1"/>
	
		<circle fill-rule="evenodd" clip-rule="evenodd" fill="#F17722" stroke="#F17722" stroke-width="0.101" stroke-miterlimit="22.9256" cx="259.3" cy="484.6" r="1.1"/>
	
		<path fill-rule="evenodd" clip-rule="evenodd" fill="#F17722" stroke="#F17722" stroke-width="0.101" stroke-miterlimit="22.9256" d="
		M275.1,480.9c-0.2-0.3-0.1-0.6,0.2-0.8l1.6-0.9c0.5-0.3,1-0.4,1.4-0.3c0.3,0.1,0.6,0.3,0.8,0.6l0,0c0.3,0.5,0.2,1,0,1.3
		c0.6-0.1,1.1,0,1.5,0.6l0,0c0.5,0.8,0,1.6-1,2.2l-1.7,1c-0.3,0.2-0.6,0.1-0.8-0.2L275.1,480.9L275.1,480.9z M277.8,481.1
		L277.8,481.1c0.4-0.3,0.6-0.6,0.4-0.9l0,0c-0.2-0.3-0.5-0.3-0.9-0.1l-1,0.6l0.6,1L277.8,481.1L277.8,481.1z M279.1,482.8
		L279.1,482.8c0.4-0.3,0.6-0.6,0.4-0.9l0,0c-0.2-0.3-0.5-0.4-1-0.1l-1.2,0.7l0.6,1L279.1,482.8z"/>
	
		<path fill-rule="evenodd" clip-rule="evenodd" fill="#F17722" stroke="#F17722" stroke-width="0.101" stroke-miterlimit="22.9256" d="
		M316.7,478.8c0.2-0.3,0.5-0.4,0.8-0.2l0.1,0.1c0.2,0.1,0.3,0.3,0.4,0.6l0.5,3.6l1.4-2.3c0.2-0.3,0.5-0.4,0.8-0.2
		c0.3,0.2,0.4,0.5,0.2,0.8l-2.1,3.6c-0.2,0.3-0.5,0.4-0.8,0.2l0,0c-0.2-0.1-0.3-0.3-0.4-0.6l-0.5-3.8l-1.4,2.4
		c-0.2,0.3-0.5,0.4-0.8,0.2c-0.3-0.2-0.4-0.5-0.2-0.8L316.7,478.8z"/>
	
		<polygon fill-rule="evenodd" clip-rule="evenodd" fill="#F17722" stroke="#F17722" stroke-width="0.6625" stroke-linejoin="round" stroke-miterlimit="22.9256" points="
		297.5,422.5 299.5,423.6 301.4,424.8 301.4,427 301.4,429.3 299.5,430.4 297.5,431.6 295.5,430.4 293.6,429.3 293.6,427 
		293.6,424.8 295.5,423.6 	"/>
	
		<path fill-rule="evenodd" clip-rule="evenodd" fill="#F17722" stroke="#F17722" stroke-width="0.6625" stroke-linejoin="round" stroke-miterlimit="22.9256" d="
		M278,372.1c0.4-0.4,0.9-0.6,1.4-0.6l0,0l0,0l0,0l0,0v0l0,0l0,0l0,0v0l0,0v0l0,0l0,0v0l0,0v0l0,0v0l0,0l0,0l0,0v0l0,0l0,0l0,0v0l0,0
		v0l0,0l0,0v0l0,0l0,0l0,0l0,0l0,0l0,0v0l0,0v0l0,0v0l0,0l0.1,0v0l0.1,0l0.1,0v0l0.1,0l0,0v0l0,0v0l0,0v0l0,0l0,0l0,0l0,0l0,0l0,0v0
		l0,0l0,0v0l0,0v0l0,0l0,0h0c0,0,0.1,0,0.1,0c0,0,0.1,0,0.1,0v0l0,0v0l0,0v0l0,0l0,0v0l0,0v0c0.1,0.1,0.2,0.1,0.2,0.2l0,0
		c0.5,0,1,0.2,1.4,0.6c0.4,0.4,0.6,0.9,0.6,1.4c0.4,0.4,0.6,0.8,0.6,1.4c0,0.5-0.2,1-0.6,1.4c0,0.5-0.2,1-0.6,1.4
		c-0.4,0.4-0.9,0.6-1.4,0.6l0,0c-0.1,0.1-0.1,0.1-0.2,0.2v0l0,0v0l0,0v0l0,0l0,0v0l0,0c0,0-0.1,0-0.1,0c0,0-0.1,0-0.1,0h0l0,0v0l0,0
		v0l0,0v0l0,0v0l0,0v0l0,0v0l0,0l0,0v0l0,0v0l0,0v0l0,0v0l0,0v0l0,0l0,0v0l-0.1,0v0l-0.1,0l-0.1,0v0l-0.1,0v0l0,0l0,0v0l0,0v0l0,0v0
		l0,0v0l0,0v0l0,0l0,0v0l0,0v0l0,0v0l0,0v0l0,0v0l0,0v0l0,0l0,0v0l0,0l0,0l0,0l0,0v0l0,0l0,0v0l0,0v0l0,0v0l0,0v0l0,0l0,0l0,0l0,0
		l0,0l0,0c-0.5,0-1-0.2-1.4-0.6c-0.4-0.4-0.6-0.9-0.6-1.4c-0.4-0.4-0.6-0.8-0.6-1.4c0-0.5,0.2-1,0.6-1.4
		C277.4,373,277.6,372.5,278,372.1L278,372.1z M280.8,373.2L280.8,373.2c-0.9,0-1.6,0.7-1.6,1.6c0,0.9,0.7,1.6,1.6,1.6
		c0.9,0,1.6-0.7,1.6-1.6C282.4,374,281.7,373.2,280.8,373.2z"/>
	
		<path fill-rule="evenodd" clip-rule="evenodd" fill="#F17722" stroke="#F17722" stroke-width="0.6625" stroke-linejoin="round" stroke-miterlimit="22.9256" d="
		M266.2,380.2c0.4-0.4,0.8-0.5,1.3-0.5l0,0l0,0l0,0l0,0v0l0,0v0l0,0v0l0,0v0l0,0v0l0,0v0l0,0l0,0v0l0,0l0,0v0l0,0l0,0v0l0,0l0,0v0
		l0,0v0l0,0v0l0,0v0l0,0v0l0,0l0,0l0,0v0l0,0v0l0,0v0l0,0v0l0,0v0l0,0v0l0,0v0l0,0v0l0,0l0,0v0l0,0v0l0,0v0l0,0v0l0,0v0l0,0v0l0,0v0
		l0,0v0l0,0l0,0l0,0v0l0,0v0l0,0v0l0,0v0l0,0v0l0,0c0,0,0.1,0,0.1,0c0,0,0.1,0,0.1,0l0,0v0l0,0l0,0v0l0,0v0l0,0v0
		c0.1,0.1,0.1,0.1,0.2,0.2l0,0c0.5,0,0.9,0.2,1.3,0.5c0.4,0.4,0.5,0.8,0.5,1.3c0.3,0.3,0.5,0.8,0.5,1.3c0,0.5-0.2,0.9-0.5,1.3
		c0,0.5-0.2,0.9-0.5,1.3c-0.4,0.4-0.8,0.5-1.3,0.5l0,0c-0.1,0.1-0.1,0.1-0.2,0.2l0,0l0,0v0l0,0v0l0,0v0l0,0c0,0-0.1,0-0.1,0
		c0,0-0.1,0-0.1,0l0,0v0l0,0l0,0v0l0,0l0,0v0l0,0l0,0l0,0l0,0v0l0,0v0l0,0v0l0,0l0,0l0,0v0l0,0v0l0,0l0,0v0l0,0v0l0,0l0,0l0,0v0l0,0
		v0l0,0v0l0,0l0,0l0,0l0,0v0l0,0l0,0v0l0,0l0,0v0l0,0l0,0v0l0,0l0,0v0l0,0l0,0v0l0,0v0l0,0v0l0,0l0,0l0,0l0,0v0l0,0v0l0,0v0l0,0l0,0
		l0,0c-0.5,0-0.9-0.2-1.3-0.5c-0.4-0.4-0.5-0.8-0.5-1.3c-0.3-0.3-0.5-0.8-0.5-1.3c0-0.5,0.2-0.9,0.5-1.3
		C265.7,381,265.9,380.5,266.2,380.2L266.2,380.2z M268.8,381.2L268.8,381.2c-0.8,0-1.5,0.7-1.5,1.5s0.7,1.5,1.5,1.5
		c0.8,0,1.5-0.7,1.5-1.5S269.6,381.2,268.8,381.2z"/>
	
		<path fill-rule="evenodd" clip-rule="evenodd" fill="#F17722" stroke="#F17722" stroke-width="0.6625" stroke-linejoin="round" stroke-miterlimit="22.9256" d="
		M317,372.1c-0.4-0.4-0.9-0.6-1.4-0.6l0,0l0,0l0,0l0,0v0l0,0l0,0l0,0v0l0,0v0l0,0l0,0v0l0,0v0l0,0v0l0,0l0,0l0,0v0l0,0l0,0l0,0v0
		l0,0v0l0,0l0,0v0l0,0l0,0l0,0l0,0l0,0l0,0v0l0,0v0l0,0v0l0,0l-0.1,0v0l-0.1,0l-0.1,0v0l-0.1,0l0,0v0l0,0v0l0,0v0l0,0l0,0l0,0l0,0
		l0,0l0,0v0l0,0l0,0v0l0,0v0l0,0l0,0h0c0,0-0.1,0-0.1,0c0,0-0.1,0-0.1,0v0l0,0v0l0,0v0l0,0l0,0v0l0,0v0c-0.1,0.1-0.2,0.1-0.2,0.2
		l0,0c-0.5,0-1,0.2-1.4,0.6c-0.4,0.4-0.6,0.9-0.6,1.4c-0.4,0.4-0.6,0.8-0.6,1.4c0,0.5,0.2,1,0.6,1.4c0,0.5,0.2,1,0.6,1.4
		c0.4,0.4,0.9,0.6,1.4,0.6l0,0c0.1,0.1,0.1,0.1,0.2,0.2v0l0,0v0l0,0v0l0,0l0,0v0l0,0c0,0,0.1,0,0.1,0c0,0,0.1,0,0.1,0h0l0,0v0l0,0v0
		l0,0v0l0,0v0l0,0v0l0,0v0l0,0l0,0v0l0,0v0l0,0v0l0,0v0l0,0v0l0,0l0,0v0l0.1,0v0l0.1,0l0.1,0v0l0.1,0v0l0,0l0,0v0l0,0v0l0,0v0l0,0v0
		l0,0v0l0,0l0,0v0l0,0v0l0,0v0l0,0v0l0,0v0l0,0v0l0,0l0,0v0l0,0l0,0l0,0l0,0v0l0,0l0,0v0l0,0v0l0,0v0l0,0v0l0,0l0,0l0,0l0,0l0,0l0,0
		c0.5,0,1-0.2,1.4-0.6c0.4-0.4,0.6-0.9,0.6-1.4c0.4-0.4,0.6-0.8,0.6-1.4c0-0.5-0.2-1-0.6-1.4C317.6,373,317.4,372.5,317,372.1
		L317,372.1z M314.2,373.2L314.2,373.2c0.9,0,1.6,0.7,1.6,1.6c0,0.9-0.7,1.6-1.6,1.6c-0.9,0-1.6-0.7-1.6-1.6
		C312.6,374,313.3,373.2,314.2,373.2z"/>
	
		<path fill-rule="evenodd" clip-rule="evenodd" fill="#F17722" stroke="#F17722" stroke-width="0.6625" stroke-linejoin="round" stroke-miterlimit="22.9256" d="
		M328.8,380.2c-0.4-0.4-0.8-0.5-1.3-0.5l0,0l0,0v0l0,0l0,0v0l0,0v0l0,0v0l0,0v0l0,0v0l0,0v0l0,0l0,0v0l0,0v0l0,0v0l0,0l0,0v0l0,0
		l0,0v0l0,0v0l0,0v0l0,0v0l0,0v0l0,0v0l0,0l0,0v0l0,0v0l0,0v0l0,0v0l0,0v0l0,0v0l0,0v0l0,0v0l0,0l0,0v0l0,0v0l0,0v0l0,0v0l0,0v0l0,0
		v0l0,0v0l0,0v0l0,0l0,0v0l0,0v0l0,0v0l0,0v0l0,0v0l0,0v0l0,0h0c0,0-0.1,0-0.1,0c0,0-0.1,0-0.1,0v0l0,0v0l0,0l0,0v0l0,0v0l0,0v0
		c-0.1,0.1-0.1,0.1-0.2,0.2l0,0c-0.5,0-0.9,0.2-1.3,0.5c-0.4,0.4-0.5,0.8-0.5,1.3c-0.3,0.3-0.5,0.8-0.5,1.3c0,0.5,0.2,0.9,0.5,1.3
		c0,0.5,0.2,0.9,0.5,1.3c0.4,0.4,0.8,0.5,1.3,0.5l0,0c0.1,0.1,0.1,0.1,0.2,0.2l0,0l0,0v0l0,0v0l0,0v0l0,0v0c0,0,0.1,0,0.1,0
		c0,0,0.1,0,0.1,0h0l0,0v0l0,0l0,0v0l0,0l0,0v0l0,0v0l0,0l0,0l0,0v0l0,0v0l0,0v0l0,0l0,0l0,0v0l0,0v0l0,0l0,0v0l0,0v0l0,0l0,0l0,0v0
		l0,0v0l0,0v0l0,0l0,0l0,0v0l0,0v0l0,0l0,0v0l0,0l0,0v0l0,0l0,0v0l0,0l0,0v0l0,0v0l0,0v0l0,0v0l0,0v0l0,0l0,0l0,0l0,0v0l0,0v0l0,0v0
		l0,0v0l0,0l0,0c0.5,0,0.9-0.2,1.3-0.5c0.4-0.4,0.5-0.8,0.5-1.3c0.3-0.3,0.5-0.8,0.5-1.3c0-0.5-0.2-0.9-0.5-1.3
		C329.3,381,329.1,380.5,328.8,380.2L328.8,380.2z M326.2,381.2L326.2,381.2c0.8,0,1.5,0.7,1.5,1.5s-0.7,1.5-1.5,1.5
		c-0.8,0-1.5-0.7-1.5-1.5S325.4,381.2,326.2,381.2z"/>
	<circle fill-rule="evenodd" clip-rule="evenodd" fill="#F17722" cx="297.5" cy="463.2" r="1"/>
	<path fill-rule="evenodd" clip-rule="evenodd" fill="#F17722" d="M265.7,367.6c0.4,0,0.7-0.3,0.7-0.7v-3.3l2.7,3.6
		c0.2,0.2,0.4,0.4,0.7,0.4h0c0.4,0,0.7-0.3,0.7-0.7v-4.9c0-0.4-0.3-0.7-0.7-0.7c-0.4,0-0.7,0.3-0.7,0.7v3.2l-2.6-3.4
		c-0.2-0.2-0.4-0.4-0.7-0.4h-0.1c-0.4,0-0.7,0.3-0.7,0.7v4.9C265,367.3,265.3,367.6,265.7,367.6z"/>
	<path fill-rule="evenodd" clip-rule="evenodd" fill="#F17722" d="M275,367.6c1.9,0,3.3-1.4,3.3-3.2v0c0-1.8-1.4-3.2-3.3-3.2
		c-1.9,0-3.3,1.4-3.3,3.2v0C271.7,366.2,273.1,367.6,275,367.6L275,367.6z M273.1,364.4L273.1,364.4c0-1.1,0.8-1.9,1.9-1.9
		c1.1,0,1.9,0.9,1.9,1.9v0c0,1.1-0.8,1.9-1.9,1.9C273.9,366.4,273.1,365.5,273.1,364.4L273.1,364.4z"/>
	<path fill-rule="evenodd" clip-rule="evenodd" fill="#F17722" d="M280.2,367.5h1.7c1.9,0,3.3-1.4,3.3-3.1v0c0-1.7-1.3-3.1-3.3-3.1
		h-1.7c-0.4,0-0.7,0.3-0.7,0.7v4.8C279.5,367.2,279.8,367.5,280.2,367.5L280.2,367.5z M280.9,362.6L280.9,362.6h1.1
		c1.1,0,1.9,0.8,1.9,1.9v0c0,1.1-0.8,1.8-1.9,1.8h-1.1V362.6z"/>
	<path fill-rule="evenodd" clip-rule="evenodd" fill="#F17722" d="M287.1,367.5h3.5c0.3,0,0.6-0.3,0.6-0.6c0-0.3-0.3-0.6-0.6-0.6
		h-2.8V365h2.4c0.3,0,0.6-0.3,0.6-0.6c0-0.3-0.3-0.6-0.6-0.6h-2.4v-1.3h2.8c0.3,0,0.6-0.3,0.6-0.6c0-0.3-0.3-0.6-0.6-0.6h-3.4
		c-0.4,0-0.7,0.3-0.7,0.7v4.8C286.4,367.2,286.7,367.5,287.1,367.5z"/>
	<path fill-rule="evenodd" clip-rule="evenodd" fill="#F17722" d="M292.2,366.9c0.7,0.5,1.5,0.7,2.3,0.7c1.3,0,2.3-0.7,2.3-1.9v0
		c0-1.1-0.7-1.5-2-1.9c-1.1-0.3-1.3-0.4-1.3-0.8v0c0-0.3,0.3-0.5,0.8-0.5c0.4,0,0.8,0.1,1.3,0.4c0.1,0.1,0.2,0.1,0.3,0.1
		c0.4,0,0.6-0.3,0.6-0.6c0-0.3-0.2-0.5-0.3-0.5c-0.6-0.4-1.2-0.5-2-0.5c-1.3,0-2.2,0.7-2.2,1.9v0c0,1.2,0.8,1.6,2.1,1.9
		c1,0.3,1.2,0.4,1.2,0.8v0c0,0.4-0.3,0.6-0.9,0.6c-0.6,0-1.1-0.2-1.6-0.6c-0.1-0.1-0.2-0.1-0.4-0.1c-0.4,0-0.6,0.3-0.6,0.6
		C292,366.6,292.1,366.7,292.2,366.9z"/>
	<path fill-rule="evenodd" clip-rule="evenodd" fill="#F17722" d="M300.9,367.6c1,0,1.6-0.3,2.2-0.8c0.1-0.1,0.2-0.3,0.2-0.5
		c0-0.3-0.3-0.6-0.6-0.6c-0.2,0-0.3,0.1-0.4,0.2c-0.4,0.3-0.8,0.5-1.3,0.5c-1.1,0-1.8-0.9-1.8-1.9v0c0-1.1,0.8-1.9,1.8-1.9
		c0.5,0,0.9,0.2,1.3,0.4c0.1,0.1,0.2,0.1,0.4,0.1c0.4,0,0.7-0.3,0.7-0.7c0-0.2-0.1-0.4-0.3-0.5c-0.5-0.4-1.1-0.6-2.1-0.6
		c-1.9,0-3.2,1.4-3.2,3.2v0C297.7,366.2,299.1,367.6,300.9,367.6z"/>
	<path fill-rule="evenodd" clip-rule="evenodd" fill="#F17722" d="M305.2,367.6c0.4,0,0.7-0.3,0.7-0.7V365h2.5v1.9
		c0,0.4,0.3,0.7,0.7,0.7s0.7-0.3,0.7-0.7V362c0-0.4-0.3-0.7-0.7-0.7s-0.7,0.3-0.7,0.7v1.8h-2.5V362c0-0.4-0.3-0.7-0.7-0.7
		c-0.4,0-0.7,0.3-0.7,0.7v4.9C304.5,367.3,304.8,367.6,305.2,367.6z"/>
	<path fill-rule="evenodd" clip-rule="evenodd" fill="#F17722" d="M314.3,367.6c1.9,0,3.3-1.4,3.3-3.2v0c0-1.8-1.4-3.2-3.3-3.2
		c-1.9,0-3.3,1.4-3.3,3.2v0C311,366.2,312.4,367.6,314.3,367.6L314.3,367.6z M312.4,364.4L312.4,364.4c0-1.1,0.8-1.9,1.9-1.9
		c1.1,0,1.9,0.9,1.9,1.9v0c0,1.1-0.8,1.9-1.9,1.9C313.2,366.4,312.4,365.5,312.4,364.4L312.4,364.4z"/>
	<path fill-rule="evenodd" clip-rule="evenodd" fill="#F17722" d="M321.8,367.6c1.9,0,3.3-1.4,3.3-3.2v0c0-1.8-1.4-3.2-3.3-3.2
		c-1.9,0-3.3,1.4-3.3,3.2v0C318.5,366.2,319.9,367.6,321.8,367.6L321.8,367.6z M319.9,364.4L319.9,364.4c0-1.1,0.8-1.9,1.9-1.9
		c1.1,0,1.9,0.9,1.9,1.9v0c0,1.1-0.8,1.9-1.9,1.9C320.7,366.4,319.9,365.5,319.9,364.4L319.9,364.4z"/>
	<path fill-rule="evenodd" clip-rule="evenodd" fill="#F17722" d="M327,367.5h3.2c0.3,0,0.6-0.3,0.6-0.6c0-0.3-0.3-0.6-0.6-0.6h-2.5
		V362c0-0.4-0.3-0.7-0.7-0.7c-0.4,0-0.7,0.3-0.7,0.7v4.9C326.3,367.2,326.6,367.5,327,367.5z"/>
	
		<path fill-rule="evenodd" clip-rule="evenodd" fill="#F17722" stroke="#F17722" stroke-width="0.5306" stroke-linejoin="round" stroke-miterlimit="22.9256" d="
		M371,398.3c-0.3-0.3-0.7-0.4-1-0.4l0,0l0,0v0l0,0l0,0v0l0,0v0l0,0l0,0v0l0,0v0l0,0v0l0,0v0l0,0v0l0,0v0l0,0l0,0l0,0v0l0,0l0,0v0
		l0,0v0l0,0v0l0,0v0l0,0v0l0,0v0l0,0l0,0v0l0,0v0l0,0v0l0,0l0,0v0l0,0v0l0,0l0,0v0l0,0l0,0v0l0,0l0,0v0l0,0v0l0,0l0,0v0l0,0v0l0,0v0
		l0,0l0,0v0l0,0v0l0,0v0l0,0v0l0,0v0l0,0v0l0,0h0c0,0,0,0-0.1,0c0,0,0,0-0.1,0v0l0,0v0l0,0v0l0,0v0l0,0v0l0,0v0
		c-0.1,0-0.1,0.1-0.2,0.1l0,0c-0.4,0-0.7,0.1-1,0.4c-0.3,0.3-0.4,0.7-0.4,1c-0.3,0.3-0.4,0.6-0.4,1c0,0.4,0.2,0.8,0.4,1
		c0,0.4,0.1,0.7,0.4,1c0.3,0.3,0.7,0.4,1,0.4l0,0c0.1,0,0.1,0.1,0.2,0.1v0l0,0v0l0,0l0,0l0,0v0l0,0v0c0,0,0,0,0.1,0c0,0,0,0,0.1,0h0
		l0,0v0l0,0l0,0l0,0l0,0l0,0l0,0l0,0v0l0,0l0,0l0,0l0,0l0,0l0,0v0l0,0v0l0,0l0,0v0l0,0v0l0,0l0,0l0,0l0,0l0,0l0,0v0l0,0l0,0l0,0l0,0
		l0,0l0,0l0,0v0l0,0l0,0l0,0l0,0l0,0v0l0,0v0l0,0l0,0l0,0v0l0,0v0l0,0l0,0v0l0,0v0l0,0v0l0,0v0l0,0l0,0c0.4,0,0.7-0.1,1-0.4
		c0.3-0.3,0.4-0.7,0.4-1c0.3-0.3,0.4-0.6,0.4-1c0-0.4-0.2-0.8-0.4-1C371.4,398.9,371.3,398.5,371,398.3L371,398.3z M368.9,399.1
		L368.9,399.1c0.7,0,1.2,0.5,1.2,1.2c0,0.7-0.5,1.2-1.2,1.2c-0.7,0-1.2-0.5-1.2-1.2C367.7,399.6,368.3,399.1,368.9,399.1z"/>
	
		<path fill-rule="evenodd" clip-rule="evenodd" fill="#F17722" stroke="#F17722" stroke-width="0.5306" stroke-linejoin="round" stroke-miterlimit="22.9256" d="
		M360.5,398.3c-0.3-0.3-0.7-0.4-1-0.4l0,0l0,0v0l0,0l0,0v0l0,0v0l0,0l0,0v0l0,0v0l0,0v0l0,0v0l0,0v0l0,0v0l0,0l0,0l0,0v0l0,0l0,0v0
		l0,0v0l0,0v0l0,0v0l0,0v0l0,0v0l0,0l0,0v0l0,0v0l0,0v0l0,0l0,0v0l0,0v0l0,0l0,0v0l0,0l0,0v0l0,0l0,0v0l0,0v0l0,0l0,0v0l0,0v0l0,0v0
		l0,0l0,0v0l0,0v0l0,0v0l0,0v0l0,0v0l0,0v0l0,0h0c0,0,0,0-0.1,0c0,0,0,0-0.1,0v0l0,0v0l0,0v0l0,0v0l0,0v0l0,0v0
		c-0.1,0-0.1,0.1-0.2,0.1l0,0c-0.4,0-0.7,0.1-1,0.4c-0.3,0.3-0.4,0.7-0.4,1c-0.3,0.3-0.4,0.6-0.4,1c0,0.4,0.2,0.8,0.4,1
		c0,0.4,0.1,0.7,0.4,1c0.3,0.3,0.7,0.4,1,0.4l0,0c0.1,0,0.1,0.1,0.2,0.1v0l0,0v0l0,0l0,0l0,0v0l0,0v0c0,0,0,0,0.1,0c0,0,0,0,0.1,0h0
		l0,0v0l0,0l0,0l0,0l0,0l0,0l0,0l0,0v0l0,0l0,0l0,0l0,0l0,0l0,0v0l0,0v0l0,0l0,0v0l0,0v0l0,0l0,0l0,0l0,0l0,0l0,0v0l0,0l0,0l0,0l0,0
		l0,0l0,0l0,0v0l0,0l0,0l0,0l0,0l0,0v0l0,0v0l0,0l0,0l0,0v0l0,0v0l0,0l0,0v0l0,0v0l0,0v0l0,0v0l0,0l0,0c0.4,0,0.7-0.1,1-0.4
		c0.3-0.3,0.4-0.7,0.4-1c0.3-0.3,0.4-0.6,0.4-1c0-0.4-0.2-0.8-0.4-1C360.9,398.9,360.8,398.5,360.5,398.3L360.5,398.3z M358.4,399.1
		L358.4,399.1c0.7,0,1.2,0.5,1.2,1.2c0,0.7-0.5,1.2-1.2,1.2c-0.7,0-1.2-0.5-1.2-1.2C357.2,399.6,357.8,399.1,358.4,399.1z"/>
	
		<path fill-rule="evenodd" clip-rule="evenodd" fill="#F17722" stroke="#F17722" stroke-width="0.5306" stroke-linejoin="round" stroke-miterlimit="22.9256" d="
		M350,398.3c-0.3-0.3-0.7-0.4-1-0.4l0,0l0,0v0l0,0l0,0v0l0,0v0l0,0l0,0v0l0,0l0,0l0,0l0,0v0l0,0v0l0,0l0,0l0,0v0l0,0l0,0v0l0,0v0
		l0,0v0l0,0v0l0,0v0l0,0v0l0,0l0,0v0l0,0l0,0v0l0,0v0l0,0v0l0,0v0l0,0l0,0v0l0,0l0,0v0l0,0l0,0v0l0,0v0l0,0v0l0,0v0l0,0l0,0v0l0,0
		l0,0v0l0,0v0l0,0v0l0,0v0l0,0v0l0,0v0l0,0h0c0,0,0,0-0.1,0c0,0,0,0-0.1,0v0l0,0v0l0,0l0,0l0,0l0,0v0c-0.1,0-0.1,0.1-0.2,0.1l0,0
		c-0.4,0-0.7,0.1-1,0.4c-0.3,0.3-0.4,0.7-0.4,1c-0.3,0.3-0.4,0.6-0.4,1c0,0.4,0.2,0.8,0.4,1c0,0.4,0.1,0.7,0.4,1
		c0.3,0.3,0.7,0.4,1,0.4l0,0c0.1,0,0.1,0.1,0.2,0.1v0l0,0v0l0,0v0l0,0l0,0v0l0,0v0c0,0,0,0,0.1,0c0,0,0,0,0.1,0h0l0,0v0l0,0v0l0,0
		l0,0l0,0v0l0,0l0,0l0,0l0,0l0,0l0,0v0l0,0v0l0,0l0,0v0l0,0v0l0,0l0,0v0l0,0v0l0,0l0,0v0l0,0v0l0,0l0,0l0,0l0,0l0,0l0,0v0l0,0l0,0
		l0,0v0l0,0v0l0,0l0,0l0,0l0,0v0l0,0v0l0,0v0l0,0l0,0v0l0,0v0l0,0v0l0,0l0,0v0l0,0v0l0,0v0l0,0v0l0,0l0,0c0.4,0,0.7-0.1,1-0.4
		c0.3-0.3,0.4-0.7,0.4-1c0.3-0.3,0.4-0.6,0.4-1c0-0.4-0.2-0.8-0.4-1C350.4,398.9,350.3,398.5,350,398.3L350,398.3z M347.9,399.1
		L347.9,399.1c0.7,0,1.2,0.5,1.2,1.2c0,0.7-0.5,1.2-1.2,1.2c-0.7,0-1.2-0.5-1.2-1.2C346.7,399.6,347.3,399.1,347.9,399.1z"/>
	
		<path fill-rule="evenodd" clip-rule="evenodd" fill="#F17722" stroke="#F17722" stroke-width="0.5306" stroke-linejoin="round" stroke-miterlimit="22.9256" d="
		M339.5,398.3c-0.3-0.3-0.7-0.4-1-0.4l0,0l0,0v0l0,0l0,0v0l0,0l0,0l0,0l0,0v0l0,0v0l0,0v0l0,0v0l0,0v0l0,0l0,0l0,0v0l0,0l0,0v0l0,0
		v0l0,0l0,0l0,0v0l0,0v0l0,0l0,0v0l0,0v0l0,0v0l0,0v0l0,0v0l0,0v0l0,0l0,0v0l0,0l0,0v0l0,0l0,0v0l0,0v0l0,0v0l0,0v0l0,0v0l0,0v0l0,0
		l0,0v0l0,0v0l0,0l0,0l0,0v0l0,0v0l0,0h0c0,0,0,0-0.1,0c0,0,0,0-0.1,0v0l0,0v0l0,0v0l0,0v0l0,0v0l0,0c-0.1,0-0.1,0.1-0.2,0.1l0,0
		c-0.4,0-0.7,0.1-1,0.4c-0.3,0.3-0.4,0.7-0.4,1c-0.3,0.3-0.4,0.6-0.4,1c0,0.4,0.2,0.8,0.4,1c0,0.4,0.1,0.7,0.4,1
		c0.3,0.3,0.7,0.4,1,0.4l0,0c0.1,0,0.1,0.1,0.2,0.1l0,0v0l0,0v0l0,0l0,0l0,0v0c0,0,0,0,0.1,0c0,0,0,0,0.1,0h0l0,0v0l0,0v0l0,0l0,0
		l0,0v0l0,0l0,0l0,0v0l0,0l0,0l0,0v0l0,0v0l0,0l0,0v0l0,0v0l0,0l0,0v0l0,0v0l0,0l0,0v0l0,0v0l0,0l0,0l0,0v0l0,0l0,0l0,0v0l0,0l0,0
		l0,0v0l0,0v0l0,0l0,0l0,0l0,0v0l0,0v0l0,0l0,0l0,0v0l0,0v0l0,0l0,0l0,0v0l0,0v0l0,0v0l0,0v0l0,0l0,0c0.4,0,0.7-0.1,1-0.4
		c0.3-0.3,0.4-0.7,0.4-1c0.3-0.3,0.4-0.6,0.4-1c0-0.4-0.2-0.8-0.4-1C339.9,398.9,339.8,398.5,339.5,398.3L339.5,398.3z M337.4,399.1
		L337.4,399.1c0.7,0,1.2,0.5,1.2,1.2c0,0.7-0.5,1.2-1.2,1.2c-0.7,0-1.2-0.5-1.2-1.2C336.2,399.6,336.8,399.1,337.4,399.1z"/>
	
		<polyline fill-rule="evenodd" clip-rule="evenodd" fill="none" stroke="#F27721" stroke-width="1.8548" stroke-linecap="round" stroke-linejoin="round" stroke-miterlimit="22.9256" points="
		247.4,443.8 246.6,443.8 241.8,436.9 237,443.8 236.4,443.8 	"/>
	
		<polyline fill-rule="evenodd" clip-rule="evenodd" fill="none" stroke="#F27721" stroke-width="1.8548" stroke-linecap="round" stroke-linejoin="round" stroke-miterlimit="22.9256" points="
		220.8,469.9 220.8,469.9 220.8,456.3 220.8,439.1 	"/>
	
		<path fill-rule="evenodd" clip-rule="evenodd" fill="none" stroke="#F27721" stroke-width="1.8548" stroke-linecap="round" stroke-linejoin="round" stroke-miterlimit="22.9256" d="
		M220.8,439.1c0-12,2.1-24.8,4.2-36"/>
	
		<line fill-rule="evenodd" clip-rule="evenodd" fill="none" stroke="#F27721" stroke-width="1.8548" stroke-linecap="round" stroke-linejoin="round" stroke-miterlimit="22.9256" x1="225" y1="403.1" x2="227.1" y2="403.1"/>
	
		<path fill-rule="evenodd" clip-rule="evenodd" fill="none" stroke="#F27721" stroke-width="1.8548" stroke-linecap="round" stroke-linejoin="round" stroke-miterlimit="22.9256" d="
		M227.1,403.1c2.1,10.4,4.1,22.1,4.2,33.8c0.2-11.3,2.2-23.2,4.2-33.7"/>
	
		<line fill-rule="evenodd" clip-rule="evenodd" fill="none" stroke="#F27721" stroke-width="1.8548" stroke-linecap="round" stroke-linejoin="round" stroke-miterlimit="22.9256" x1="235.5" y1="403.1" x2="237.6" y2="403.1"/>
	
		<path fill-rule="evenodd" clip-rule="evenodd" fill="none" stroke="#F27721" stroke-width="1.8548" stroke-linecap="round" stroke-linejoin="round" stroke-miterlimit="22.9256" d="
		M237.6,403.1c2.1,10.3,4.1,22,4.2,33.6c0.2-11.3,2.2-23.3,4.2-33.8"/>
	
		<line fill-rule="evenodd" clip-rule="evenodd" fill="none" stroke="#F27721" stroke-width="1.8548" stroke-linecap="round" stroke-linejoin="round" stroke-miterlimit="22.9256" x1="246" y1="402.9" x2="248.1" y2="402.9"/>
	
		<line fill-rule="evenodd" clip-rule="evenodd" fill="none" stroke="#F27721" stroke-width="1.8548" stroke-linecap="round" stroke-linejoin="round" stroke-miterlimit="22.9256" x1="221.5" y1="469.9" x2="220.8" y2="469.9"/>
	
		<polyline fill-rule="evenodd" clip-rule="evenodd" fill="none" stroke="#F27721" stroke-width="1.8548" stroke-linecap="round" stroke-linejoin="round" stroke-miterlimit="22.9256" points="
		220.8,443.8 226.5,443.8 231.3,436.9 236.1,443.8 	"/>
	
		<polyline fill-rule="evenodd" clip-rule="evenodd" fill="none" stroke="#F27721" stroke-width="1.8548" stroke-linecap="round" stroke-linejoin="round" stroke-miterlimit="22.9256" points="
		247.4,453.5 246.6,453.5 241.8,446.5 237,453.5 236.4,453.5 	"/>
	<g>
		
			<path fill-rule="evenodd" clip-rule="evenodd" fill="#F17722" stroke="#F17722" stroke-width="0.101" stroke-miterlimit="22.9256" d="
			M295.3,478.6L295.3,478.6c0-1.5,1.1-2.7,2.7-2.7c0.8,0,1.3,0.2,1.8,0.5c0.1,0.1,0.2,0.3,0.2,0.5c0,0.3-0.3,0.6-0.6,0.6
			c-0.2,0-0.3-0.1-0.3-0.1c-0.3-0.2-0.7-0.4-1.1-0.4c-0.9,0-1.5,0.7-1.5,1.6v0c0,0.9,0.6,1.6,1.5,1.6c0.5,0,0.8-0.1,1.1-0.4
			c0.1-0.1,0.2-0.1,0.3-0.1c0.3,0,0.5,0.2,0.5,0.5c0,0.2-0.1,0.3-0.2,0.4c-0.5,0.4-1,0.7-1.9,0.7
			C296.5,481.3,295.3,480.1,295.3,478.6z"/>
		
			<polyline fill-rule="evenodd" clip-rule="evenodd" fill="none" stroke="#F17722" stroke-width="1.8548" stroke-linecap="round" stroke-linejoin="round" stroke-miterlimit="22.9256" points="
			286.8,422.4 290.2,422.4 297.5,411.8 304.8,422.4 308.2,422.4 		"/>
		
			<line fill-rule="evenodd" clip-rule="evenodd" fill="none" stroke="#F17722" stroke-width="1.8548" stroke-linecap="round" stroke-linejoin="round" stroke-miterlimit="22.9256" x1="262.8" y1="453.5" x2="262.8" y2="434.4"/>
		
			<path fill-rule="evenodd" clip-rule="evenodd" fill="none" stroke="#F17722" stroke-width="1.8548" stroke-linecap="round" stroke-linejoin="round" stroke-miterlimit="22.9256" d="
			M262.8,434.4c-0.1-12,2.3-37,4.8-48.1"/>
		
			<line fill-rule="evenodd" clip-rule="evenodd" fill="none" stroke="#F17722" stroke-width="1.8548" stroke-linecap="round" stroke-linejoin="round" stroke-miterlimit="22.9256" x1="267.5" y1="386.3" x2="270" y2="386.3"/>
		
			<path fill-rule="evenodd" clip-rule="evenodd" fill="none" stroke="#F17722" stroke-width="1.8548" stroke-linecap="round" stroke-linejoin="round" stroke-miterlimit="22.9256" d="
			M270,386.3c2.4,11.2,4.8,36.1,4.8,48.1"/>
		
			<polyline fill-rule="evenodd" clip-rule="evenodd" fill="none" stroke="#F17722" stroke-width="1.8548" stroke-linecap="round" stroke-linejoin="round" stroke-miterlimit="22.9256" points="
			274.8,434.4 274.8,447.4 262.8,453.5 		"/>
		
			<line fill-rule="evenodd" clip-rule="evenodd" fill="none" stroke="#F17722" stroke-width="1.8548" stroke-linecap="round" stroke-linejoin="round" stroke-miterlimit="22.9256" x1="286.6" y1="406.6" x2="308.9" y2="406.7"/>
		
			<line fill-rule="evenodd" clip-rule="evenodd" fill="none" stroke="#F17722" stroke-width="1.8548" stroke-linecap="round" stroke-linejoin="round" stroke-miterlimit="22.9256" x1="274.8" y1="447.4" x2="274.8" y2="426.9"/>
		
			<path fill-rule="evenodd" clip-rule="evenodd" fill="none" stroke="#F17722" stroke-width="1.8548" stroke-linecap="round" stroke-linejoin="round" stroke-miterlimit="22.9256" d="
			M274.8,426.9c-0.1-12,2.3-37,4.8-48.1"/>
		
			<line fill-rule="evenodd" clip-rule="evenodd" fill="none" stroke="#F17722" stroke-width="1.8548" stroke-linecap="round" stroke-linejoin="round" stroke-miterlimit="22.9256" x1="279.5" y1="378.8" x2="282" y2="378.8"/>
		
			<path fill-rule="evenodd" clip-rule="evenodd" fill="none" stroke="#F17722" stroke-width="1.8548" stroke-linecap="round" stroke-linejoin="round" stroke-miterlimit="22.9256" d="
			M282,378.8c2.4,11.2,4.8,36.1,4.8,48.1"/>
		
			<polyline fill-rule="evenodd" clip-rule="evenodd" fill="none" stroke="#F17722" stroke-width="1.8548" stroke-linecap="round" stroke-linejoin="round" stroke-miterlimit="22.9256" points="
			286.8,426.9 286.8,441.3 274.8,447.4 		"/>
		
			<line fill-rule="evenodd" clip-rule="evenodd" fill="none" stroke="#F17722" stroke-width="1.8548" stroke-linecap="round" stroke-linejoin="round" stroke-miterlimit="22.9256" x1="275.8" y1="384.5" x2="285.8" y2="384.5"/>
		
			<line fill-rule="evenodd" clip-rule="evenodd" fill="none" stroke="#F17722" stroke-width="1.8548" stroke-linecap="round" stroke-linejoin="round" stroke-miterlimit="22.9256" x1="263.8" y1="392" x2="273.8" y2="392"/>
		
			<line fill-rule="evenodd" clip-rule="evenodd" fill="none" stroke="#F17722" stroke-width="1.8548" stroke-linecap="round" stroke-linejoin="round" stroke-miterlimit="22.9256" x1="280.8" y1="444.2" x2="280.8" y2="428.1"/>
		
			<line fill-rule="evenodd" clip-rule="evenodd" fill="none" stroke="#F17722" stroke-width="1.8548" stroke-linecap="round" stroke-linejoin="round" stroke-miterlimit="22.9256" x1="332.2" y1="453.5" x2="332.2" y2="434.4"/>
		
			<path fill-rule="evenodd" clip-rule="evenodd" fill="none" stroke="#F17722" stroke-width="1.8548" stroke-linecap="round" stroke-linejoin="round" stroke-miterlimit="22.9256" d="
			M332.2,434.4c0.1-12-2.3-37-4.8-48.1"/>
		
			<line fill-rule="evenodd" clip-rule="evenodd" fill="none" stroke="#F17722" stroke-width="1.8548" stroke-linecap="round" stroke-linejoin="round" stroke-miterlimit="22.9256" x1="327.5" y1="386.3" x2="325" y2="386.3"/>
		
			<path fill-rule="evenodd" clip-rule="evenodd" fill="none" stroke="#F17722" stroke-width="1.8548" stroke-linecap="round" stroke-linejoin="round" stroke-miterlimit="22.9256" d="
			M325,386.3c-2.4,11.2-4.8,36.1-4.8,48.1"/>
		
			<polyline fill-rule="evenodd" clip-rule="evenodd" fill="none" stroke="#F17722" stroke-width="1.8548" stroke-linecap="round" stroke-linejoin="round" stroke-miterlimit="22.9256" points="
			320.2,434.4 320.2,447.4 332.2,453.5 		"/>
		
			<line fill-rule="evenodd" clip-rule="evenodd" fill="none" stroke="#F17722" stroke-width="1.8548" stroke-linecap="round" stroke-linejoin="round" stroke-miterlimit="22.9256" x1="320.2" y1="447.4" x2="320.2" y2="426.9"/>
		
			<path fill-rule="evenodd" clip-rule="evenodd" fill="none" stroke="#F17722" stroke-width="1.8548" stroke-linecap="round" stroke-linejoin="round" stroke-miterlimit="22.9256" d="
			M320.2,426.9c0.1-12-2.3-37-4.8-48.1"/>
		
			<line fill-rule="evenodd" clip-rule="evenodd" fill="none" stroke="#F17722" stroke-width="1.8548" stroke-linecap="round" stroke-linejoin="round" stroke-miterlimit="22.9256" x1="315.5" y1="378.8" x2="313" y2="378.8"/>
		
			<path fill-rule="evenodd" clip-rule="evenodd" fill="none" stroke="#F17722" stroke-width="1.8548" stroke-linecap="round" stroke-linejoin="round" stroke-miterlimit="22.9256" d="
			M313,378.8c-2.4,11.2-4.8,36.1-4.8,48.1"/>
		
			<polyline fill-rule="evenodd" clip-rule="evenodd" fill="none" stroke="#F17722" stroke-width="1.8548" stroke-linecap="round" stroke-linejoin="round" stroke-miterlimit="22.9256" points="
			308.2,426.9 308.2,441.3 320.2,447.4 		"/>
		
			<line fill-rule="evenodd" clip-rule="evenodd" fill="none" stroke="#F17722" stroke-width="1.8548" stroke-linecap="round" stroke-linejoin="round" stroke-miterlimit="22.9256" x1="319.2" y1="384.5" x2="309.2" y2="384.5"/>
		
			<line fill-rule="evenodd" clip-rule="evenodd" fill="none" stroke="#F17722" stroke-width="1.8548" stroke-linecap="round" stroke-linejoin="round" stroke-miterlimit="22.9256" x1="331.2" y1="392" x2="321.2" y2="392"/>
		
			<line fill-rule="evenodd" clip-rule="evenodd" fill="none" stroke="#F17722" stroke-width="1.8548" stroke-linecap="round" stroke-linejoin="round" stroke-miterlimit="22.9256" x1="314.2" y1="444.2" x2="314.2" y2="428.1"/>
		
			<line fill-rule="evenodd" clip-rule="evenodd" fill="none" stroke="#F17722" stroke-width="1.8548" stroke-linecap="round" stroke-linejoin="round" stroke-miterlimit="22.9256" x1="268.8" y1="450.3" x2="268.8" y2="434.2"/>
		
			<line fill-rule="evenodd" clip-rule="evenodd" fill="none" stroke="#F17722" stroke-width="1.8548" stroke-linecap="round" stroke-linejoin="round" stroke-miterlimit="22.9256" x1="326.2" y1="450.3" x2="326.2" y2="434.2"/>
		
			<polygon fill-rule="evenodd" clip-rule="evenodd" fill="none" stroke="#F17722" stroke-width="1.8548" stroke-linecap="round" stroke-linejoin="round" stroke-miterlimit="22.9256" points="
			332.2,453.5 297.5,435.8 262.8,453.5 262.8,469.9 332.2,469.9 		"/>
		
			<polygon fill-rule="evenodd" clip-rule="evenodd" fill="none" stroke="#F17722" stroke-width="1.8548" stroke-linecap="round" stroke-linejoin="round" stroke-miterlimit="22.9256" points="
			269.9,460.4 281.4,454.5 281.4,469.9 269.9,469.9 		"/>
		
			<polygon fill-rule="evenodd" clip-rule="evenodd" fill="none" stroke="#F17722" stroke-width="1.8548" stroke-linecap="round" stroke-linejoin="round" stroke-miterlimit="22.9256" points="
			297.5,446.3 306.5,451 306.5,469.9 288.5,469.9 288.5,451 		"/>
		
			<polygon fill-rule="evenodd" clip-rule="evenodd" fill="none" stroke="#F17722" stroke-width="1.8548" stroke-linecap="round" stroke-linejoin="round" stroke-miterlimit="22.9256" points="
			325.1,460.4 313.6,454.5 313.6,469.9 325.1,469.9 		"/>
		
			<rect x="293.7" y="456.5" fill-rule="evenodd" clip-rule="evenodd" fill="none" stroke="#F17722" stroke-width="1.8548" stroke-linecap="round" stroke-linejoin="round" stroke-miterlimit="22.9256" width="7.5" height="13.4"/>
		
			<polygon fill-rule="evenodd" clip-rule="evenodd" fill="none" stroke="#F17722" stroke-width="1.8548" stroke-linecap="round" stroke-linejoin="round" stroke-miterlimit="22.9256" points="
			345.5,458.6 342.7,454.6 339.9,458.6 339.9,466 345.5,466 		"/>
		
			<polyline fill-rule="evenodd" clip-rule="evenodd" fill="none" stroke="#F17722" stroke-width="1.8548" stroke-linecap="round" stroke-linejoin="round" stroke-miterlimit="22.9256" points="
			347.6,443.8 348.4,443.8 353.2,436.9 358,443.8 358.5,443.8 		"/>
		
			<polyline fill-rule="evenodd" clip-rule="evenodd" fill="none" stroke="#F17722" stroke-width="1.8548" stroke-linecap="round" stroke-linejoin="round" stroke-miterlimit="22.9256" points="
			332.2,443.8 337.9,443.8 342.7,436.9 347.5,443.8 		"/>
		
			<polyline fill-rule="evenodd" clip-rule="evenodd" fill="none" stroke="#F17722" stroke-width="1.8548" stroke-linecap="round" stroke-linejoin="round" stroke-miterlimit="22.9256" points="
			374.2,469.9 374.2,469.9 374.2,456.3 374.2,439.1 		"/>
		
			<path fill-rule="evenodd" clip-rule="evenodd" fill="none" stroke="#F17722" stroke-width="1.8548" stroke-linecap="round" stroke-linejoin="round" stroke-miterlimit="22.9256" d="
			M374.2,439.1c0-12-2.1-24.8-4.2-36"/>
		
			<line fill-rule="evenodd" clip-rule="evenodd" fill="none" stroke="#F17722" stroke-width="1.8548" stroke-linecap="round" stroke-linejoin="round" stroke-miterlimit="22.9256" x1="370" y1="403.1" x2="367.8" y2="403.1"/>
		
			<path fill-rule="evenodd" clip-rule="evenodd" fill="none" stroke="#F17722" stroke-width="1.8548" stroke-linecap="round" stroke-linejoin="round" stroke-miterlimit="22.9256" d="
			M367.8,403.1c-2.1,10.4-4.1,22.1-4.2,33.8c-0.2-11.3-2.2-23.2-4.2-33.7"/>
		
			<line fill-rule="evenodd" clip-rule="evenodd" fill="none" stroke="#F17722" stroke-width="1.8548" stroke-linecap="round" stroke-linejoin="round" stroke-miterlimit="22.9256" x1="359.5" y1="403.1" x2="357.3" y2="403.1"/>
		
			<path fill-rule="evenodd" clip-rule="evenodd" fill="none" stroke="#F17722" stroke-width="1.8548" stroke-linecap="round" stroke-linejoin="round" stroke-miterlimit="22.9256" d="
			M357.3,403.1c-2.1,10.3-4.1,22-4.2,33.6c-0.2-11.3-2.2-23.3-4.2-33.8"/>
		
			<line fill-rule="evenodd" clip-rule="evenodd" fill="none" stroke="#F17722" stroke-width="1.8548" stroke-linecap="round" stroke-linejoin="round" stroke-miterlimit="22.9256" x1="349" y1="402.9" x2="346.8" y2="402.9"/>
		
			<path fill-rule="evenodd" clip-rule="evenodd" fill="none" stroke="#F17722" stroke-width="1.8548" stroke-linecap="round" stroke-linejoin="round" stroke-miterlimit="22.9256" d="
			M346.8,402.9c-2.1,10.3-4.1,22-4.2,33.6c-0.2-11.3-2.2-23.3-4.2-33.8"/>
		
			<line fill-rule="evenodd" clip-rule="evenodd" fill="none" stroke="#F17722" stroke-width="1.8548" stroke-linecap="round" stroke-linejoin="round" stroke-miterlimit="22.9256" x1="338.5" y1="402.7" x2="336.3" y2="402.6"/>
		
			<path fill-rule="evenodd" clip-rule="evenodd" fill="none" stroke="#F17722" stroke-width="1.8548" stroke-linecap="round" stroke-linejoin="round" stroke-miterlimit="22.9256" d="
			M336.3,402.6c-2.2,11-4.4,23.5-4.1,35.8"/>
		
			<polyline fill-rule="evenodd" clip-rule="evenodd" fill="none" stroke="#F17722" stroke-width="1.8548" stroke-linecap="round" stroke-linejoin="round" stroke-miterlimit="22.9256" points="
			332.2,438.4 332.2,451 332.2,451.1 332.2,463.6 332.2,463.6 332.2,469.9 		"/>
		
			<path fill-rule="evenodd" clip-rule="evenodd" fill="none" stroke="#F17722" stroke-width="1.8548" stroke-linecap="round" stroke-linejoin="round" stroke-miterlimit="22.9256" d="
			M332.2,469.9c14.3,0,27.6,0,41.3,0"/>
		
			<line fill-rule="evenodd" clip-rule="evenodd" fill="none" stroke="#F17722" stroke-width="1.8548" stroke-linecap="round" stroke-linejoin="round" stroke-miterlimit="22.9256" x1="373.5" y1="469.9" x2="374.2" y2="469.9"/>
		
			<polyline fill-rule="evenodd" clip-rule="evenodd" fill="none" stroke="#F17722" stroke-width="1.8548" stroke-linecap="round" stroke-linejoin="round" stroke-miterlimit="22.9256" points="
			374.2,443.8 368.5,443.8 363.7,436.9 358.9,443.8 		"/>
		
			<polyline fill-rule="evenodd" clip-rule="evenodd" fill="none" stroke="#F17722" stroke-width="1.8548" stroke-linecap="round" stroke-linejoin="round" stroke-miterlimit="22.9256" points="
			347.6,453.5 348.4,453.5 353.2,446.5 358,453.5 358.5,453.5 		"/>
		
			<polyline fill-rule="evenodd" clip-rule="evenodd" fill="none" stroke="#F17722" stroke-width="1.8548" stroke-linecap="round" stroke-linejoin="round" stroke-miterlimit="22.9256" points="
			332.2,453.5 337.9,453.5 342.7,446.5 347.5,453.5 		"/>
		
			<polyline fill-rule="evenodd" clip-rule="evenodd" fill="none" stroke="#F17722" stroke-width="1.8548" stroke-linecap="round" stroke-linejoin="round" stroke-miterlimit="22.9256" points="
			374.2,453.5 368.5,453.5 363.7,446.5 358.9,453.5 		"/>
		
			<polygon fill-rule="evenodd" clip-rule="evenodd" fill="none" stroke="#F17722" stroke-width="1.8548" stroke-linecap="round" stroke-linejoin="round" stroke-miterlimit="22.9256" points="
			356,458.6 353.2,454.6 350.4,458.6 350.4,466 356,466 		"/>
		
			<polygon fill-rule="evenodd" clip-rule="evenodd" fill="none" stroke="#F17722" stroke-width="1.8548" stroke-linecap="round" stroke-linejoin="round" stroke-miterlimit="22.9256" points="
			366.5,458.6 363.7,454.6 360.9,458.6 360.9,466 366.5,466 		"/>
		
			<polygon fill-rule="evenodd" clip-rule="evenodd" fill="none" stroke="#F17722" stroke-width="1.8548" stroke-linecap="round" stroke-linejoin="round" stroke-miterlimit="22.9256" points="
			249.5,458.6 252.3,454.6 255.1,458.6 255.1,466 249.5,466 		"/>
		
			<polyline fill-rule="evenodd" clip-rule="evenodd" fill="none" stroke="#F17722" stroke-width="1.8548" stroke-linecap="round" stroke-linejoin="round" stroke-miterlimit="22.9256" points="
			262.8,443.8 257.1,443.8 252.3,436.9 247.5,443.8 		"/>
		
			<path fill-rule="evenodd" clip-rule="evenodd" fill="none" stroke="#F17722" stroke-width="1.8548" stroke-linecap="round" stroke-linejoin="round" stroke-miterlimit="22.9256" d="
			M248.1,402.9c2.1,10.3,4.1,22,4.2,33.6c0.2-11.3,2.2-23.3,4.2-33.8"/>
		
			<line fill-rule="evenodd" clip-rule="evenodd" fill="none" stroke="#F17722" stroke-width="1.8548" stroke-linecap="round" stroke-linejoin="round" stroke-miterlimit="22.9256" x1="256.5" y1="402.7" x2="258.6" y2="402.6"/>
		
			<path fill-rule="evenodd" clip-rule="evenodd" fill="none" stroke="#F17722" stroke-width="1.8548" stroke-linecap="round" stroke-linejoin="round" stroke-miterlimit="22.9256" d="
			M258.6,402.6c2.2,11,4.4,23.5,4.1,35.8"/>
		
			<polyline fill-rule="evenodd" clip-rule="evenodd" fill="none" stroke="#F17722" stroke-width="1.8548" stroke-linecap="round" stroke-linejoin="round" stroke-miterlimit="22.9256" points="
			262.8,438.4 262.8,451 262.8,451.1 262.8,463.6 262.8,463.6 262.8,469.9 		"/>
		
			<path fill-rule="evenodd" clip-rule="evenodd" fill="none" stroke="#F17722" stroke-width="1.8548" stroke-linecap="round" stroke-linejoin="round" stroke-miterlimit="22.9256" d="
			M262.8,469.9c-14.3,0-27.6,0-41.3,0"/>
		
			<polyline fill-rule="evenodd" clip-rule="evenodd" fill="none" stroke="#F17722" stroke-width="1.8548" stroke-linecap="round" stroke-linejoin="round" stroke-miterlimit="22.9256" points="
			262.8,453.5 257.1,453.5 252.3,446.5 247.5,453.5 		"/>
	</g>
	
		<polyline fill-rule="evenodd" clip-rule="evenodd" fill="none" stroke="#F27721" stroke-width="1.8548" stroke-linecap="round" stroke-linejoin="round" stroke-miterlimit="22.9256" points="
		220.8,453.5 226.5,453.5 231.3,446.5 236.1,453.5 	"/>
	
		<polygon fill-rule="evenodd" clip-rule="evenodd" fill="none" stroke="#F27721" stroke-width="1.8548" stroke-linecap="round" stroke-linejoin="round" stroke-miterlimit="22.9256" points="
		239,458.6 241.8,454.6 244.6,458.6 244.6,466 239,466 	"/>
	
		<polygon fill-rule="evenodd" clip-rule="evenodd" fill="none" stroke="#F27721" stroke-width="1.8548" stroke-linecap="round" stroke-linejoin="round" stroke-miterlimit="22.9256" points="
		228.5,458.6 231.3,454.6 234.1,458.6 234.1,466 228.5,466 	"/>
	
		<path fill-rule="evenodd" clip-rule="evenodd" fill="#F17722" stroke="#F27721" stroke-width="0.5306" stroke-linejoin="round" stroke-miterlimit="22.9256" d="
		M224,398.3c0.3-0.3,0.7-0.4,1-0.4l0,0l0,0v0l0,0l0,0v0l0,0v0l0,0l0,0v0l0,0v0l0,0v0l0,0v0l0,0v0l0,0v0l0,0l0,0l0,0v0l0,0l0,0v0l0,0
		v0l0,0v0l0,0v0l0,0v0l0,0v0l0,0l0,0v0l0,0v0l0,0v0l0,0l0,0v0l0,0v0l0,0l0,0v0l0,0l0,0v0l0,0l0,0v0l0,0v0l0,0l0,0v0l0,0v0l0,0v0l0,0
		l0,0v0l0,0v0l0,0v0l0,0v0l0,0v0l0,0v0l0,0h0c0,0,0,0,0.1,0c0,0,0,0,0.1,0v0l0,0v0l0,0v0l0,0v0l0,0v0l0,0v0c0.1,0,0.1,0.1,0.2,0.1
		l0,0c0.4,0,0.7,0.1,1,0.4c0.3,0.3,0.4,0.7,0.4,1c0.3,0.3,0.4,0.6,0.4,1c0,0.4-0.2,0.8-0.4,1c0,0.4-0.1,0.7-0.4,1
		c-0.3,0.3-0.7,0.4-1,0.4l0,0c-0.1,0-0.1,0.1-0.2,0.1v0l0,0v0l0,0l0,0l0,0v0l0,0v0c0,0,0,0-0.1,0c0,0,0,0-0.1,0h0l0,0v0l0,0l0,0l0,0
		l0,0l0,0l0,0l0,0v0l0,0l0,0l0,0l0,0l0,0l0,0v0l0,0v0l0,0l0,0v0l0,0v0l0,0l0,0l0,0l0,0l0,0l0,0v0l0,0l0,0l0,0l0,0l0,0l0,0l0,0v0l0,0
		l0,0l0,0l0,0l0,0v0l0,0v0l0,0l0,0l0,0v0l0,0v0l0,0l0,0v0l0,0v0l0,0v0l0,0v0l0,0l0,0c-0.4,0-0.7-0.1-1-0.4c-0.3-0.3-0.4-0.7-0.4-1
		c-0.3-0.3-0.4-0.6-0.4-1c0-0.4,0.2-0.8,0.4-1C223.6,398.9,223.7,398.5,224,398.3L224,398.3z M226.1,399.1L226.1,399.1
		c-0.7,0-1.2,0.5-1.2,1.2c0,0.7,0.5,1.2,1.2,1.2c0.7,0,1.2-0.5,1.2-1.2C227.3,399.6,226.7,399.1,226.1,399.1z"/>
	
		<path fill-rule="evenodd" clip-rule="evenodd" fill="#F17722" stroke="#F27721" stroke-width="0.5306" stroke-linejoin="round" stroke-miterlimit="22.9256" d="
		M234.5,398.3c0.3-0.3,0.7-0.4,1-0.4l0,0l0,0v0l0,0l0,0v0l0,0v0l0,0l0,0v0l0,0v0l0,0v0l0,0v0l0,0v0l0,0v0l0,0l0,0l0,0v0l0,0l0,0v0
		l0,0v0l0,0v0l0,0v0l0,0v0l0,0v0l0,0l0,0v0l0,0v0l0,0v0l0,0l0,0v0l0,0v0l0,0l0,0v0l0,0l0,0v0l0,0l0,0v0l0,0v0l0,0l0,0v0l0,0v0l0,0v0
		l0,0l0,0v0l0,0v0l0,0v0l0,0v0l0,0v0l0,0v0l0,0h0c0,0,0,0,0.1,0c0,0,0,0,0.1,0v0l0,0v0l0,0v0l0,0v0l0,0v0l0,0v0
		c0.1,0,0.1,0.1,0.2,0.1l0,0c0.4,0,0.7,0.1,1,0.4c0.3,0.3,0.4,0.7,0.4,1c0.3,0.3,0.4,0.6,0.4,1c0,0.4-0.2,0.8-0.4,1
		c0,0.4-0.1,0.7-0.4,1c-0.3,0.3-0.7,0.4-1,0.4l0,0c-0.1,0-0.1,0.1-0.2,0.1v0l0,0v0l0,0l0,0l0,0v0l0,0v0c0,0,0,0-0.1,0c0,0,0,0-0.1,0
		h0l0,0v0l0,0l0,0l0,0l0,0l0,0l0,0l0,0v0l0,0l0,0l0,0l0,0l0,0l0,0v0l0,0v0l0,0l0,0v0l0,0v0l0,0l0,0l0,0l0,0l0,0l0,0v0l0,0l0,0l0,0
		l0,0l0,0l0,0l0,0v0l0,0l0,0l0,0l0,0l0,0v0l0,0v0l0,0l0,0l0,0v0l0,0v0l0,0l0,0v0l0,0v0l0,0v0l0,0v0l0,0l0,0c-0.4,0-0.7-0.1-1-0.4
		c-0.3-0.3-0.4-0.7-0.4-1c-0.3-0.3-0.4-0.6-0.4-1c0-0.4,0.2-0.8,0.4-1C234.1,398.9,234.2,398.5,234.5,398.3L234.5,398.3z
		 M236.6,399.1L236.6,399.1c-0.7,0-1.2,0.5-1.2,1.2c0,0.7,0.5,1.2,1.2,1.2c0.7,0,1.2-0.5,1.2-1.2
		C237.8,399.6,237.2,399.1,236.6,399.1z"/>
	
		<path fill-rule="evenodd" clip-rule="evenodd" fill="#F17722" stroke="#F27721" stroke-width="0.5306" stroke-linejoin="round" stroke-miterlimit="22.9256" d="
		M245,398.3c0.3-0.3,0.7-0.4,1-0.4l0,0l0,0v0l0,0l0,0v0l0,0v0l0,0l0,0v0l0,0l0,0l0,0l0,0v0l0,0v0l0,0l0,0l0,0v0l0,0l0,0v0l0,0v0l0,0
		v0l0,0v0l0,0v0l0,0v0l0,0l0,0v0l0,0l0,0v0l0,0v0l0,0v0l0,0v0l0,0l0,0v0l0,0l0,0v0l0,0l0,0v0l0,0v0l0,0v0l0,0v0l0,0l0,0v0l0,0l0,0v0
		l0,0v0l0,0v0l0,0v0l0,0v0l0,0v0l0,0c0,0,0,0,0.1,0c0,0,0,0,0.1,0v0l0,0v0l0,0l0,0l0,0l0,0v0c0.1,0,0.1,0.1,0.2,0.1l0,0
		c0.4,0,0.7,0.1,1,0.4c0.3,0.3,0.4,0.7,0.4,1c0.3,0.3,0.4,0.6,0.4,1c0,0.4-0.2,0.8-0.4,1c0,0.4-0.1,0.7-0.4,1
		c-0.3,0.3-0.7,0.4-1,0.4l0,0c-0.1,0-0.1,0.1-0.2,0.1v0l0,0v0l0,0v0l0,0l0,0v0l0,0v0c0,0,0,0-0.1,0c0,0,0,0-0.1,0l0,0v0l0,0v0l0,0
		l0,0l0,0v0l0,0l0,0l0,0l0,0l0,0l0,0v0l0,0v0l0,0l0,0v0l0,0v0l0,0l0,0v0l0,0v0l0,0l0,0v0l0,0v0l0,0l0,0l0,0l0,0l0,0l0,0v0l0,0l0,0
		l0,0v0l0,0v0l0,0l0,0l0,0l0,0v0l0,0v0l0,0v0l0,0l0,0v0l0,0v0l0,0v0l0,0l0,0v0l0,0v0l0,0v0l0,0v0l0,0l0,0c-0.4,0-0.7-0.1-1-0.4
		c-0.3-0.3-0.4-0.7-0.4-1c-0.3-0.3-0.4-0.6-0.4-1c0-0.4,0.2-0.8,0.4-1C244.6,398.9,244.7,398.5,245,398.3L245,398.3z M247.1,399.1
		L247.1,399.1c-0.7,0-1.2,0.5-1.2,1.2c0,0.7,0.5,1.2,1.2,1.2c0.7,0,1.2-0.5,1.2-1.2C248.3,399.6,247.7,399.1,247.1,399.1z"/>
	
		<path fill-rule="evenodd" clip-rule="evenodd" fill="#F17722" stroke="#F27721" stroke-width="0.5306" stroke-linejoin="round" stroke-miterlimit="22.9256" d="
		M255.5,398.3c0.3-0.3,0.7-0.4,1-0.4l0,0l0,0v0l0,0l0,0v0l0,0l0,0l0,0l0,0v0l0,0v0l0,0v0l0,0v0l0,0v0l0,0l0,0l0,0v0l0,0l0,0v0l0,0v0
		l0,0l0,0l0,0v0l0,0v0l0,0l0,0v0l0,0v0l0,0v0l0,0v0l0,0v0l0,0v0l0,0l0,0v0l0,0l0,0v0l0,0l0,0v0l0,0v0l0,0v0l0,0v0l0,0v0l0,0v0l0,0
		l0,0v0l0,0v0l0,0l0,0l0,0v0l0,0v0l0,0h0c0,0,0,0,0.1,0c0,0,0,0,0.1,0v0l0,0v0l0,0v0l0,0v0l0,0v0l0,0c0.1,0,0.1,0.1,0.2,0.1l0,0
		c0.4,0,0.7,0.1,1,0.4c0.3,0.3,0.4,0.7,0.4,1c0.3,0.3,0.4,0.6,0.4,1c0,0.4-0.2,0.8-0.4,1c0,0.4-0.1,0.7-0.4,1
		c-0.3,0.3-0.7,0.4-1,0.4l0,0c-0.1,0-0.1,0.1-0.2,0.1l0,0v0l0,0v0l0,0l0,0l0,0v0c0,0,0,0-0.1,0c0,0,0,0-0.1,0h0l0,0v0l0,0v0l0,0l0,0
		l0,0v0l0,0l0,0l0,0v0l0,0l0,0l0,0v0l0,0v0l0,0l0,0v0l0,0v0l0,0l0,0v0l0,0v0l0,0l0,0v0l0,0v0l0,0l0,0l0,0v0l0,0l0,0l0,0v0l0,0l0,0
		l0,0v0l0,0v0l0,0l0,0l0,0l0,0v0l0,0v0l0,0l0,0l0,0v0l0,0v0l0,0l0,0l0,0v0l0,0v0l0,0v0l0,0v0l0,0l0,0c-0.4,0-0.7-0.1-1-0.4
		c-0.3-0.3-0.4-0.7-0.4-1c-0.3-0.3-0.4-0.6-0.4-1c0-0.4,0.2-0.8,0.4-1C255.1,398.9,255.2,398.5,255.5,398.3L255.5,398.3z
		 M257.5,399.1L257.5,399.1c-0.7,0-1.2,0.5-1.2,1.2c0,0.7,0.5,1.2,1.2,1.2c0.7,0,1.2-0.5,1.2-1.2
		C258.8,399.6,258.2,399.1,257.5,399.1z"/>
</g>
</svg>
