<?xml version="1.0" encoding="utf-8"?>
<!-- Generator: Adobe Illustrator 19.1.0, SVG Export Plug-In . SVG Version: 6.00 Build 0)  -->
<svg version="1.1" id="Слой_24" xmlns="http://www.w3.org/2000/svg" xmlns:xlink="http://www.w3.org/1999/xlink" x="0px"
	 y="0px" viewBox="0 0 800 800" style="enable-background:new 0 0 800 800;" xml:space="preserve">
<style type="text/css">
	.st0{fill:#E3E5D6;}
	.st1{fill:none;stroke:#894242;stroke-width:9;stroke-linecap:round;stroke-miterlimit:10;}
	.st2{fill:#894242;}
	.st3{fill:none;stroke:#894242;stroke-width:4;stroke-linecap:round;stroke-miterlimit:10;}
	.st4{fill:none;stroke:#894242;stroke-width:3;stroke-linecap:round;stroke-miterlimit:10;}
	.st5{fill:none;stroke:#894242;stroke-width:2;stroke-linecap:round;stroke-miterlimit:10;}
	.st6{fill:none;stroke:#894242;stroke-width:4;stroke-miterlimit:10;}
</style>
<g>
	<polygon class="st0" points="622,524.5 400,652.7 178.1,524.5 178.1,268.2 400,140.1 622,268.2 	"/>
	<polygon class="st1" points="622,524.5 400,652.7 178.1,524.5 178.1,268.2 400,140.1 622,268.2 	"/>
</g>
<path class="st2" d="M491.2,220l-90.8-52.4l0,0c-0.1-0.1-0.2-0.1-0.3-0.1l0,0l0,0H400h-0.1c-0.1,0-0.2,0-0.4,0h-0.1h-0.1
	c-0.2,0-0.3,0-0.5,0.1c0,0,0,0-0.1,0l0,0c0,0,0,0-0.1,0s-0.3,0.1-0.4,0.2c0,0,0,0-0.1,0l-89.3,51.6c-1.1,0.6-1.4,2-0.8,3
	c0.6,1.1,2,1.4,3,0.8l79.4-45.8l-33.8,43.1c-0.8,1-0.6,2.4,0.4,3.1c1,0.8,2.4,0.6,3.1-0.4l36.9-47v46c0,1.2,1,2.2,2.2,2.2
	c1.2,0,2.2-1,2.2-2.2v-46l36.9,47c0.4,0.6,1.1,0.9,1.7,0.9c0.5,0,1-0.2,1.4-0.5c1-0.8,1.1-2.2,0.4-3.1L408,177.4l81,46.5
	c0.3,0.2,0.7,0.3,1.1,0.3c0.8,0,1.5-0.4,1.9-1.1C492.6,222,492.3,220.6,491.2,220z"/>
<g>
	<g>
		<path class="st2" d="M318.8,259.2c0.9-0.2,1.6-1.1,1.4-2c-0.5-2.8-1.1-5.5-1.6-8.3c2.9,2.5,5.9,5.1,8.7,7.6c0.6,0.5,1.1,0.8,2,0.7
			h0.1c1-0.2,1.6-1.1,1.4-2c-0.7-4.1-1.4-8.3-2.1-12.4c-0.2-0.9-1.1-1.6-2.1-1.4s-1.6,1.1-1.5,2c0.5,2.7,1,5.4,1.4,8
			c-2.8-2.5-5.6-4.9-8.5-7.4c-0.6-0.5-1.2-0.8-2.1-0.6c-0.1,0-0.2,0.1-0.4,0.1c-1,0.2-1.6,1.1-1.4,2.1c0.9,4.1,1.7,8.2,2.6,12.3
			C316.9,258.8,317.9,259.4,318.8,259.2z"/>
		<path class="st2" d="M342.5,255.2c4.9-0.7,8-4.8,7.4-9.2l0,0c-0.5-4.5-4.6-7.6-9.7-6.9c-5.1,0.7-8.2,5-7.4,9.4l0,0
			C333.6,252.9,337.7,255.9,342.5,255.2z M336.5,247.8c-0.4-2.7,1.2-5.2,4.1-5.6c2.9-0.4,5.2,1.6,5.6,4.3l0,0
			c0.3,2.7-1.3,5.1-4.1,5.5C339.3,252.4,337,250.5,336.5,247.8L336.5,247.8z"/>
		<path class="st2" d="M355.8,253.3c1.5-0.2,3-0.3,4.4-0.5c5-0.5,8.1-4.2,7.8-8.6l0,0c-0.3-4.4-4.2-7.6-9.4-7.1
			c-1.5,0.2-3.1,0.3-4.6,0.5c-1,0.1-1.7,1-1.6,1.9c0.5,4.1,0.9,8.2,1.4,12.3C353.9,252.7,354.8,253.4,355.8,253.3z M356.2,240.5
			c0.9-0.1,1.9-0.2,2.8-0.3c2.9-0.3,5.1,1.5,5.3,4.3l0,0c0.2,2.8-1.5,4.9-4.4,5.2c-0.9,0.1-1.8,0.2-2.7,0.3
			C356.8,246.8,356.5,243.6,356.2,240.5z"/>
		<path class="st2" d="M373.5,251.7c3-0.2,5.9-0.4,8.9-0.5c0.9,0,1.5-0.7,1.5-1.6c0-0.9-0.8-1.5-1.6-1.5c-2.4,0.1-4.8,0.2-7.3,0.4
			c-0.1-1.1-0.1-2.2-0.2-3.3c2.1-0.1,4.1-0.2,6.2-0.3c0.9,0,1.6-0.8,1.5-1.6c0-0.9-0.8-1.5-1.7-1.5c-2.1,0.1-4.1,0.2-6.2,0.3
			c-0.1-1.1-0.1-2.1-0.2-3.2c2.4-0.2,4.9-0.3,7.3-0.4c0.9,0,1.6-0.7,1.6-1.6c0-0.9-0.8-1.5-1.7-1.5c-3.1,0.1-6.1,0.3-9.1,0.5
			c-1,0.1-1.8,0.9-1.7,1.9c0.3,4.1,0.6,8.2,0.9,12.3C371.7,251.1,372.5,251.8,373.5,251.7z"/>
		<path class="st2" d="M386.6,249.4c1.8,1.2,4,1.8,6,1.7c3.4-0.1,5.8-1.8,5.8-5l0,0c0-2.8-1.9-3.9-5.2-4.7c-2.8-0.6-3.5-1-3.6-2l0,0
			c0-0.8,0.7-1.4,2.1-1.4c1.1,0,2.3,0.3,3.5,1c0.3,0.2,0.6,0.2,0.9,0.2c0.9,0,1.7-0.7,1.7-1.6c0-0.7-0.4-1.1-0.8-1.4
			c-1.5-0.9-3.2-1.4-5.3-1.3c-3.4,0.1-5.7,2.1-5.6,4.9l0,0c0.1,3.1,2.3,3.9,5.5,4.7c2.7,0.6,3.3,1.1,3.3,2l0,0
			c0,0.9-0.8,1.5-2.3,1.5c-1.6,0-2.9-0.5-4.1-1.3c-0.2-0.2-0.6-0.3-1-0.3c-0.9,0-1.6,0.8-1.6,1.7
			C385.9,248.6,386.2,249.1,386.6,249.4z"/>
		<path class="st2" d="M409,251.1c2.5,0,4.2-0.6,5.7-1.8c0.3-0.3,0.6-0.7,0.6-1.2c0-0.9-0.7-1.6-1.6-1.7c-0.4,0-0.8,0.1-1.1,0.4
			c-1,0.8-2,1.2-3.5,1.2c-2.7-0.1-4.6-2.3-4.6-5l0,0c0-2.7,2-4.9,4.8-4.9c1.3,0,2.3,0.5,3.3,1.2c0.3,0.2,0.6,0.4,1.1,0.4
			c1,0,1.8-0.7,1.8-1.6c0-0.6-0.3-1.1-0.7-1.4c-1.3-1-3-1.7-5.5-1.7c-5.1-0.1-8.6,3.6-8.6,8.1l0,0C400.9,247.4,404.3,251,409,251.1z
			"/>
		<path class="st2" d="M420.1,251.3c1,0,1.8-0.7,1.8-1.7c0.1-1.6,0.2-3.2,0.2-4.7c2.2,0.1,4.4,0.2,6.5,0.4c-0.1,1.6-0.2,3.2-0.3,4.7
			c-0.1,1,0.7,1.8,1.6,1.9c1,0.1,1.8-0.6,1.9-1.6c0.3-4.2,0.6-8.4,0.9-12.6c0.1-1-0.7-1.8-1.7-1.9c-1-0.1-1.9,0.6-1.9,1.6
			c-0.1,1.5-0.2,3.1-0.3,4.6c-2.2-0.1-4.4-0.3-6.6-0.4c0.1-1.6,0.2-3.1,0.2-4.7c0-1-0.7-1.8-1.7-1.8s-1.8,0.7-1.9,1.7
			c-0.2,4.2-0.3,8.4-0.5,12.6C418.4,250.5,419.1,251.3,420.1,251.3z"/>
		<path class="st2" d="M443.3,253.2c4.9,0.5,8.9-2.7,9.4-7.2l0,0c0.6-4.5-2.6-8.5-7.7-9.1c-5.1-0.5-9.1,2.9-9.4,7.4l0,0
			C435.2,248.8,438.4,252.7,443.3,253.2z M439.3,244.5c0.2-2.7,2.4-4.7,5.4-4.4c2.9,0.3,4.7,2.8,4.4,5.5l0,0
			c-0.3,2.7-2.5,4.7-5.3,4.4C440.8,249.7,439,247.3,439.3,244.5C439.3,244.6,439.3,244.5,439.3,244.5z"/>
		<path class="st2" d="M462.5,255.6c4.9,0.7,9-2.3,9.8-6.7l0,0c0.8-4.4-2.2-8.7-7.3-9.4c-5.1-0.8-9.2,2.4-9.8,6.9l0,0
			C454.6,250.8,457.6,254.9,462.5,255.6z M458.9,246.8c0.4-2.7,2.7-4.6,5.6-4.2c2.9,0.4,4.6,3,4.1,5.7l0,0c-0.4,2.7-2.7,4.5-5.6,4.1
			C460.2,252,458.5,249.5,458.9,246.8L458.9,246.8z"/>
		<path class="st2" d="M475.8,257.5c2.7,0.5,5.4,1,8.1,1.6c0.9,0.2,1.7-0.4,1.9-1.2c0.2-0.9-0.4-1.7-1.3-1.9
			c-2.1-0.4-4.3-0.9-6.4-1.3c0.7-3.6,1.4-7.2,2-10.9c0.2-1-0.5-1.9-1.5-2c-1-0.2-1.9,0.4-2.1,1.4c-0.7,4.1-1.5,8.2-2.2,12.3
			C474.2,256.4,474.8,257.3,475.8,257.5z"/>
	</g>
</g>
<g>
	<path class="st2" d="M491.8,571.4c-0.6-1.1-2-1.4-3-0.8l-79.4,45.8l33.7-43.1c0.8-1,0.6-2.4-0.4-3.1c-1-0.8-2.4-0.6-3.1,0.4
		l-36.9,47v-46c0-1.2-1-2.2-2.2-2.2c-1.2,0-2.2,1-2.2,2.2v46l-36.9-47c-0.8-1-2.2-1.1-3.1-0.4c-1,0.8-1.1,2.2-0.4,3.1l33.7,43.1
		L311,569.7c-1.1-0.6-2.4-0.3-3,0.8c-0.6,1.1-0.3,2.4,0.8,3l90.8,52.4c0,0,0,0,0.1,0s0.2,0.1,0.2,0.1s0,0,0.1,0c0,0,0,0,0.1,0h0.1
		c0.2,0,0.3,0.1,0.5,0.1l0,0l0,0l0,0l0,0c0.2,0,0.4,0,0.5-0.1h0.1c0,0,0.1,0,0.1-0.1c0.1,0,0.2-0.1,0.3-0.1c0,0,0,0,0.1,0l89.3-51.6
		C492,573.8,492.5,572.5,491.8,571.4z"/>
	<g>
		<circle class="st2" cx="497.8" cy="567.2" r="2.8"/>
		<circle class="st2" cx="302.3" cy="567.2" r="2.8"/>
		<g>
			<path class="st2" d="M444.4,561.1l6.2-8.5c0.5-0.7,1.4-0.9,2-0.3l6,4.4c0.6,0.5,0.7,1.3,0.3,1.8c-0.4,0.6-1.3,0.7-1.8,0.3
				l-4.8-3.6l-1.7,2.2l4.1,3.1c0.6,0.5,0.7,1.3,0.3,1.8c-0.5,0.6-1.3,0.7-1.8,0.3l-4.1-3.1l-1.7,2.2l4.9,3.6
				c0.6,0.5,0.7,1.3,0.3,1.8c-0.5,0.6-1.3,0.7-1.8,0.3l-6-4.5C444,562.6,443.8,561.7,444.4,561.1z"/>
			<g>
				<path class="st2" d="M357.7,562.3c-0.7,0.9-1.7,1.8-2.9,2.6c-1.2,0.8-2.4,1.2-3.5,1.3c-1.2,0.1-2.2-0.1-3.2-0.6
					c-1-0.5-1.9-1.3-2.6-2.4c-0.8-1.2-1.2-2.4-1.3-3.6s0.2-2.4,0.8-3.5c0.6-1.1,1.5-2.1,2.7-2.9c1-0.6,2-1.1,3-1.5l2,3.1
					c-0.4,0-0.9,0.1-1.4,0.3c-0.5,0.2-1,0.4-1.4,0.7c-0.9,0.6-1.5,1.3-1.6,2.2c-0.2,0.9,0,1.7,0.6,2.6c0.6,0.9,1.3,1.4,2.2,1.6
					c0.9,0.2,1.7,0,2.6-0.6c0.8-0.5,1.5-1.3,2-2.2L357.7,562.3z"/>
			</g>
			<g>
				<path class="st2" d="M403,558.6v-5h-4.6v5h-4v-13.3h4v4.9h4.6v-4.9h4v13.3H403z"/>
			</g>
		</g>
	</g>
</g>
<g>
	<line class="st3" x1="409.4" y1="285.4" x2="409.4" y2="279.7"/>
	<line class="st3" x1="390.5" y1="285.4" x2="390.5" y2="279.7"/>
	<line class="st4" x1="390.5" y1="279.7" x2="409.4" y2="279.7"/>
	<line class="st3" x1="390.5" y1="285.4" x2="409.4" y2="285.4"/>
	<line class="st3" x1="390.5" y1="279.7" x2="390.5" y2="277.1"/>
	<line class="st3" x1="409.4" y1="279.7" x2="409.4" y2="277.1"/>
	<line class="st4" x1="400" y1="279.7" x2="400" y2="277.1"/>
	<line class="st4" x1="394.9" y1="279.7" x2="394.9" y2="277.1"/>
	<line class="st4" x1="404.9" y1="279.7" x2="404.9" y2="277.1"/>
	<line class="st3" x1="392.8" y1="294.8" x2="392.8" y2="285.4"/>
	<line class="st3" x1="407.2" y1="294.8" x2="407.2" y2="285.4"/>
	<line class="st3" x1="392.8" y1="294.8" x2="407.2" y2="294.8"/>
	<line class="st3" x1="309.5" y1="354.4" x2="309.5" y2="348.7"/>
	<line class="st3" x1="290.6" y1="354.4" x2="290.6" y2="348.7"/>
	<line class="st3" x1="290.6" y1="348.7" x2="309.5" y2="348.7"/>
	<line class="st3" x1="290.6" y1="354.4" x2="309.5" y2="354.4"/>
	<line class="st3" x1="290.6" y1="348.7" x2="290.6" y2="346.1"/>
	<line class="st3" x1="309.5" y1="348.7" x2="309.5" y2="346.1"/>
	<line class="st3" x1="300.1" y1="348.7" x2="300.1" y2="346.1"/>
	<line class="st3" x1="295" y1="348.7" x2="295" y2="346.1"/>
	<line class="st3" x1="305" y1="348.7" x2="305" y2="346.1"/>
	<line class="st3" x1="292.9" y1="363.4" x2="292.9" y2="354.4"/>
	<line class="st3" x1="307.3" y1="363.4" x2="307.3" y2="354.4"/>
	<line class="st3" x1="342.5" y1="354.7" x2="342.5" y2="349"/>
	<line class="st3" x1="323.5" y1="354.7" x2="323.5" y2="349"/>
	<line class="st4" x1="323.5" y1="349" x2="342.5" y2="349"/>
	<line class="st3" x1="323.5" y1="354.7" x2="342.5" y2="354.7"/>
	<line class="st3" x1="323.5" y1="349" x2="323.5" y2="346.5"/>
	<line class="st3" x1="342.5" y1="349" x2="342.5" y2="346.5"/>
	<line class="st4" x1="333" y1="349" x2="333" y2="346.5"/>
	<line class="st4" x1="327.9" y1="349" x2="327.9" y2="346.5"/>
	<line class="st4" x1="337.9" y1="349" x2="337.9" y2="346.5"/>
	<line class="st3" x1="325.9" y1="363.6" x2="325.9" y2="354.7"/>
	<line class="st3" x1="340.2" y1="363.6" x2="340.2" y2="354.7"/>
	<line class="st3" x1="375.6" y1="285.8" x2="375.6" y2="280"/>
	<line class="st3" x1="356.6" y1="285.8" x2="356.6" y2="280"/>
	<line class="st4" x1="356.6" y1="280" x2="375.6" y2="280"/>
	<line class="st3" x1="356.6" y1="285.8" x2="375.6" y2="285.8"/>
	<line class="st3" x1="356.6" y1="280" x2="356.6" y2="277.5"/>
	<line class="st3" x1="375.6" y1="280" x2="375.6" y2="277.5"/>
	<line class="st4" x1="366.1" y1="280" x2="366.1" y2="277.5"/>
	<line class="st4" x1="361" y1="280" x2="361" y2="277.5"/>
	<line class="st4" x1="371" y1="280" x2="371" y2="277.5"/>
	<line class="st3" x1="358.9" y1="294.8" x2="358.9" y2="285.8"/>
	<line class="st3" x1="373.3" y1="294.8" x2="373.3" y2="285.8"/>
	<line class="st3" x1="268.2" y1="424.6" x2="268.2" y2="418.9"/>
	<line class="st3" x1="249.3" y1="424.6" x2="249.3" y2="418.9"/>
	<line class="st4" x1="249.3" y1="418.9" x2="268.2" y2="418.9"/>
	<line class="st3" x1="249.3" y1="424.6" x2="268.2" y2="424.6"/>
	<line class="st3" x1="249.3" y1="418.9" x2="249.3" y2="416.3"/>
	<line class="st3" x1="268.2" y1="418.9" x2="268.2" y2="416.3"/>
	<line class="st4" x1="258.8" y1="418.9" x2="258.8" y2="416.3"/>
	<line class="st4" x1="253.7" y1="418.9" x2="253.7" y2="416.3"/>
	<line class="st4" x1="263.7" y1="418.9" x2="263.7" y2="416.3"/>
	<line class="st3" x1="251.6" y1="433.6" x2="251.6" y2="424.6"/>
	<line class="st3" x1="266" y1="433.6" x2="266" y2="424.6"/>
	<rect x="269.3" y="493.6" class="st5" width="20.3" height="20.5"/>
	
		<rect x="274.2" y="498.6" transform="matrix(0.7071 -0.7071 0.7071 0.7071 -274.4235 345.1807)" class="st5" width="10.6" height="10.6"/>
	<rect x="335.2" y="420.1" class="st5" width="20.3" height="20.5"/>
	
		<rect x="340.1" y="425" transform="matrix(0.7071 -0.7071 0.7071 0.7071 -203.1208 370.2462)" class="st5" width="10.6" height="10.6"/>
	<rect x="310.7" y="420.1" class="st5" width="20.3" height="20.5"/>
	
		<rect x="315.5" y="425" transform="matrix(0.7071 -0.7071 0.7071 0.7071 -210.3092 352.902)" class="st5" width="10.6" height="10.6"/>
	<rect x="376.9" y="350.1" class="st5" width="20.3" height="20.5"/>
	
		<rect x="381.8" y="355.1" transform="matrix(0.7071 -0.7071 0.7071 0.7071 -141.4686 379.2929)" class="st5" width="10.6" height="10.6"/>
	<path class="st4" d="M378.5,333.2v-10.4c0-2.3,1.8-4.1,4.1-4.1l0,0c2.3,0,4.1,1.8,4.1,4.1v10.4"/>
	<path class="st4" d="M312.7,404v-10.4c0-2.3,1.8-4.1,4.1-4.1l0,0c2.3,0,4.1,1.8,4.1,4.1V404"/>
	<path class="st4" d="M345.2,404v-10.4c0-2.3,1.8-4.1,4.1-4.1l0,0c2.3,0,4.1,1.8,4.1,4.1V404"/>
	<path class="st4" d="M387.1,427.4v-33c0-2.4,1.8-4.3,4.1-4.3l0,0c2.3,0,4.1,1.9,4.1,4.3v33"/>
	<line class="st4" x1="387.1" y1="427.4" x2="395.3" y2="427.4"/>
	<path class="st4" d="M338.4,503.9v-33c0-2.4,1.8-4.3,4.1-4.3l0,0c2.3,0,4.1,1.9,4.1,4.3v33"/>
	<line class="st4" x1="338.4" y1="503.9" x2="346.6" y2="503.9"/>
	<path class="st4" d="M320.5,503.9v-33c0-2.4,1.8-4.3,4.1-4.3h0c2.3,0,4.1,1.9,4.1,4.3v33"/>
	<line class="st4" x1="320.5" y1="503.9" x2="328.7" y2="503.9"/>
	<path class="st4" d="M269,473.8v-10.4c0-2.3,1.8-4.1,4.1-4.1h0c2.3,0,4.1,1.8,4.1,4.1v10.4"/>
	<path class="st4" d="M281.4,473.8v-10.4c0-2.3,1.8-4.1,4.1-4.1l0,0c2.3,0,4.1,1.8,4.1,4.1v10.4"/>
	<path class="st4" d="M387.1,503.9v-33c0-2.4,1.8-4.3,4.1-4.3l0,0c2.3,0,4.1,1.9,4.1,4.3v33"/>
	<line class="st4" x1="387.1" y1="503.9" x2="395.3" y2="503.9"/>
	<line class="st3" x1="248" y1="522.6" x2="399.2" y2="522.6"/>
	<line class="st3" x1="293.9" y1="364.4" x2="293.9" y2="522.6"/>
	<line class="st3" x1="248" y1="474.5" x2="293.4" y2="474.5"/>
	<line class="st3" x1="360.1" y1="294.8" x2="360.1" y2="522.7"/>
	<line class="st3" x1="289.6" y1="404" x2="358.7" y2="404"/>
	<line class="st3" x1="355.5" y1="333.2" x2="399.2" y2="333.2"/>
	<line class="st3" x1="266" y1="449.1" x2="293.6" y2="449.1"/>
	<line class="st3" x1="264.7" y1="522.4" x2="264.7" y2="433.6"/>
	<line class="st3" x1="251.6" y1="433.6" x2="266" y2="433.6"/>
	<line class="st6" x1="306.5" y1="379.5" x2="327" y2="379.5"/>
	<line class="st3" x1="326.9" y1="404" x2="326.9" y2="364.4"/>
	<line class="st3" x1="292.9" y1="363.6" x2="307.3" y2="363.6"/>
	<line class="st3" x1="306.2" y1="363.8" x2="306.2" y2="522.1"/>
	<line class="st3" x1="325.9" y1="363.6" x2="339.9" y2="363.6"/>
	<line class="st3" x1="339" y1="364.4" x2="339" y2="404"/>
	<line class="st3" x1="339" y1="379.5" x2="359.5" y2="379.5"/>
	<line class="st3" x1="372.7" y1="309.9" x2="393.1" y2="309.9"/>
	<line class="st3" x1="393.8" y1="333" x2="393.8" y2="295.1"/>
	<line class="st3" x1="358.9" y1="294.8" x2="373.3" y2="294.8"/>
	<line class="st3" x1="372.1" y1="294.8" x2="372.1" y2="522.6"/>
	<line class="st6" x1="372" y1="448.6" x2="401.8" y2="448.6"/>
	<path class="st3" d="M375.8,284.2"/>
	<path class="st3" d="M356.4,284.2"/>
	<path class="st4" d="M382.4,522.4v-52.6c0-4.6,3.9-8.3,8.8-8.3l0,0c4.8,0,8.8,3.7,8.8,8.3v52.6"/>
	<line class="st3" x1="252.7" y1="433.7" x2="252.7" y2="522.4"/>
	<path class="st4" d="M315.8,522.4v-52.6c0-4.6,3.9-8.3,8.8-8.3h0c4.8,0,8.8,3.7,8.8,8.3v52.6"/>
	<path class="st4" d="M333.7,522.4v-52.6c0-4.6,3.9-8.3,8.8-8.3l0,0c4.8,0,8.8,3.7,8.8,8.3v52.6"/>
	<path class="st4" d="M382.4,447.7V394c0-4.7,3.9-8.5,8.8-8.5l0,0c4.8,0,8.8,3.8,8.8,8.5v53.7"/>
	<path class="st3" d="M548.4,433.6"/>
	<line class="st3" x1="552" y1="522.6" x2="399" y2="522.6"/>
	<line class="st3" x1="506.1" y1="364.4" x2="506.1" y2="522.6"/>
	<line class="st3" x1="552" y1="474.5" x2="506.6" y2="474.5"/>
	<line class="st3" x1="439.9" y1="294.8" x2="439.9" y2="522.7"/>
	<line class="st3" x1="510.4" y1="404" x2="440.5" y2="404"/>
	<line class="st3" x1="444.5" y1="333.2" x2="396.4" y2="333.2"/>
	<line class="st3" x1="534" y1="449.1" x2="506.4" y2="449.1"/>
	<line class="st3" x1="535.3" y1="522.4" x2="535.3" y2="433.6"/>
	<line class="st3" x1="548.4" y1="433.6" x2="534" y2="433.6"/>
	<line class="st6" x1="493.5" y1="379.5" x2="473" y2="379.5"/>
	<line class="st3" x1="473.1" y1="404" x2="473.1" y2="364.4"/>
	<line class="st3" x1="507.1" y1="363.6" x2="492.7" y2="363.6"/>
	<line class="st3" x1="493.8" y1="363.6" x2="493.8" y2="521.6"/>
	<line class="st3" x1="473.8" y1="363.6" x2="460.1" y2="363.6"/>
	<line class="st3" x1="461" y1="364.4" x2="461" y2="404"/>
	<line class="st3" x1="461" y1="379.5" x2="440.5" y2="379.5"/>
	<line class="st3" x1="427.3" y1="309.9" x2="406.9" y2="309.9"/>
	<line class="st3" x1="406.1" y1="333.3" x2="406.1" y2="294.8"/>
	<line class="st3" x1="441.1" y1="294.8" x2="426.7" y2="294.8"/>
	<line class="st3" x1="427.9" y1="294.8" x2="427.9" y2="522.6"/>
	<line class="st6" x1="428" y1="448.6" x2="398.2" y2="448.6"/>
	<path class="st3" d="M424.2,284.2"/>
	<path class="st3" d="M443.6,284.2"/>
	<path class="st4" d="M417.6,522.4v-52.6c0-4.6-3.9-8.3-8.8-8.3l0,0c-4.8,0-8.8,3.7-8.8,8.3v52.6"/>
	<line class="st3" x1="490.5" y1="354.4" x2="490.5" y2="348.7"/>
	<line class="st3" x1="509.4" y1="354.4" x2="509.4" y2="348.7"/>
	<line class="st4" x1="509.4" y1="348.7" x2="490.5" y2="348.7"/>
	<line class="st3" x1="509.4" y1="354.4" x2="490.5" y2="354.4"/>
	<line class="st3" x1="509.4" y1="348.7" x2="509.4" y2="346.1"/>
	<line class="st3" x1="490.5" y1="348.7" x2="490.5" y2="346.1"/>
	<line class="st4" x1="499.9" y1="348.7" x2="499.9" y2="346.1"/>
	<line class="st4" x1="505" y1="348.7" x2="505" y2="346.1"/>
	<line class="st4" x1="495" y1="348.7" x2="495" y2="346.1"/>
	<line class="st3" x1="507.1" y1="363.4" x2="507.1" y2="354.4"/>
	<line class="st3" x1="492.7" y1="363.6" x2="492.7" y2="354.4"/>
	<line class="st3" x1="457.5" y1="354.7" x2="457.5" y2="349"/>
	<line class="st3" x1="476.5" y1="354.7" x2="476.5" y2="349"/>
	<line class="st4" x1="476.5" y1="349" x2="457.5" y2="349"/>
	<line class="st3" x1="476.5" y1="354.7" x2="457.5" y2="354.7"/>
	<line class="st3" x1="476.5" y1="349" x2="476.5" y2="346.5"/>
	<line class="st3" x1="457.5" y1="349" x2="457.5" y2="346.5"/>
	<line class="st4" x1="467" y1="349" x2="467" y2="346.5"/>
	<line class="st4" x1="472.1" y1="349" x2="472.1" y2="346.5"/>
	<line class="st4" x1="462.1" y1="349" x2="462.1" y2="346.5"/>
	<line class="st3" x1="474.1" y1="363.6" x2="474.1" y2="354.7"/>
	<line class="st3" x1="459.8" y1="363.6" x2="459.8" y2="354.7"/>
	<line class="st3" x1="424.4" y1="285.8" x2="424.4" y2="280"/>
	<line class="st3" x1="443.4" y1="285.8" x2="443.4" y2="280"/>
	<line class="st4" x1="443.4" y1="280" x2="424.4" y2="280"/>
	<line class="st3" x1="443.4" y1="285.8" x2="424.4" y2="285.8"/>
	<line class="st3" x1="443.4" y1="280" x2="443.4" y2="277.5"/>
	<line class="st3" x1="424.4" y1="280" x2="424.4" y2="277.5"/>
	<line class="st4" x1="433.9" y1="280" x2="433.9" y2="277.5"/>
	<line class="st4" x1="439" y1="280" x2="439" y2="277.5"/>
	<line class="st4" x1="429" y1="280" x2="429" y2="277.5"/>
	<line class="st3" x1="441.1" y1="294.8" x2="441.1" y2="285.8"/>
	<line class="st3" x1="426.7" y1="294.8" x2="426.7" y2="285.8"/>
	<line class="st3" x1="531.8" y1="424.6" x2="531.8" y2="418.9"/>
	<line class="st3" x1="550.7" y1="424.6" x2="550.7" y2="418.9"/>
	<line class="st4" x1="550.7" y1="418.9" x2="531.8" y2="418.9"/>
	<line class="st3" x1="550.7" y1="424.6" x2="531.8" y2="424.6"/>
	<line class="st3" x1="550.7" y1="418.9" x2="550.7" y2="416.3"/>
	<line class="st3" x1="531.8" y1="418.9" x2="531.8" y2="416.3"/>
	<line class="st4" x1="541.2" y1="418.9" x2="541.2" y2="416.3"/>
	<line class="st4" x1="546.3" y1="418.9" x2="546.3" y2="416.3"/>
	<line class="st4" x1="536.3" y1="418.9" x2="536.3" y2="416.3"/>
	<line class="st3" x1="548.4" y1="433.6" x2="548.4" y2="424.6"/>
	<line class="st3" x1="534" y1="433.6" x2="534" y2="424.6"/>
	<rect x="510.4" y="493.6" class="st5" width="20.3" height="20.5"/>
	
		<rect x="515.3" y="498.6" transform="matrix(-0.7071 -0.7071 0.7071 -0.7071 532.3454 1228.2024)" class="st5" width="10.6" height="10.6"/>
	<rect x="444.5" y="420.1" class="st5" width="20.3" height="20.5"/>
	
		<rect x="449.3" y="425" transform="matrix(-0.7071 -0.7071 0.7071 -0.7071 471.8321 1056.0625)" class="st5" width="10.6" height="10.6"/>
	<rect x="469" y="420.1" class="st5" width="20.3" height="20.5"/>
	
		<rect x="473.9" y="425" transform="matrix(-0.7071 -0.7071 0.7071 -0.7071 513.7046 1073.4167)" class="st5" width="10.6" height="10.6"/>
	<rect x="402.3" y="350.1" class="st5" width="20.3" height="20.5"/>
	
		<rect x="407.2" y="355.1" transform="matrix(-0.7071 -0.7071 0.7071 -0.7071 449.3658 906.9617)" class="st5" width="10.6" height="10.6"/>
	<path class="st4" d="M421.5,333.2v-10.4c0-2.3-1.8-4.1-4.1-4.1l0,0c-2.3,0-4.1,1.8-4.1,4.1v10.4"/>
	<path class="st4" d="M487.3,404v-10.4c0-2.3-1.8-4.1-4.1-4.1l0,0c-2.3,0-4.1,1.8-4.1,4.1V404"/>
	<path class="st4" d="M454.8,404v-10.4c0-2.3-1.8-4.1-4.1-4.1l0,0c-2.3,0-4.1,1.8-4.1,4.1V404"/>
	<path class="st4" d="M412.9,427.4v-33c0-2.4-1.8-4.3-4.1-4.3l0,0c-2.3,0-4.1,1.9-4.1,4.3v33"/>
	<line class="st4" x1="412.9" y1="427.4" x2="404.7" y2="427.4"/>
	<path class="st4" d="M461.6,503.9v-33c0-2.4-1.8-4.3-4.1-4.3l0,0c-2.3,0-4.1,1.9-4.1,4.3v33"/>
	<line class="st4" x1="461.6" y1="503.9" x2="453.4" y2="503.9"/>
	<path class="st4" d="M479.5,503.9v-33c0-2.4-1.8-4.3-4.1-4.3h0c-2.3,0-4.1,1.9-4.1,4.3v33"/>
	<line class="st4" x1="479.5" y1="503.9" x2="471.3" y2="503.9"/>
	<path class="st4" d="M531,473.8v-10.4c0-2.3-1.8-4.1-4.1-4.1l0,0c-2.3,0-4.1,1.8-4.1,4.1v10.4"/>
	<path class="st4" d="M518.6,473.8v-10.4c0-2.3-1.8-4.1-4.1-4.1l0,0c-2.3,0-4.1,1.8-4.1,4.1v10.4"/>
	<path class="st4" d="M412.9,503.9v-33c0-2.4-1.8-4.3-4.1-4.3l0,0c-2.3,0-4.1,1.9-4.1,4.3v33"/>
	<line class="st4" x1="412.9" y1="503.9" x2="404.7" y2="503.9"/>
	<line class="st3" x1="547.3" y1="433.7" x2="547.3" y2="522.4"/>
	<path class="st4" d="M484.2,522.4v-52.6c0-4.6-3.9-8.3-8.8-8.3h0c-4.8,0-8.8,3.7-8.8,8.3v52.6"/>
	<path class="st4" d="M466.3,522.4v-52.6c0-4.6-3.9-8.3-8.8-8.3l0,0c-4.8,0-8.8,3.7-8.8,8.3v52.6"/>
	<path class="st4" d="M417.6,447.7V394c0-4.7-3.9-8.5-8.8-8.5l0,0c-4.8,0-8.8,3.8-8.8,8.5v53.7"/>
</g>
</svg>
