<?xml version="1.0" encoding="utf-8"?>
<!-- Generator: Adobe Illustrator 16.0.0, SVG Export Plug-In . SVG Version: 6.00 Build 0)  -->
<!DOCTYPE svg PUBLIC "-//W3C//DTD SVG 1.1//EN" "http://www.w3.org/Graphics/SVG/1.1/DTD/svg11.dtd">
<svg version="1.1" id="Layer_1" xmlns="http://www.w3.org/2000/svg" xmlns:xlink="http://www.w3.org/1999/xlink" x="0px" y="0px"
	 width="734.828px" height="848.508px" viewBox="0 0 734.828 848.508" enable-background="new 0 0 734.828 848.508"
	 xml:space="preserve">
<polygon opacity="0.5" fill="#9AD7DA" points="0,212.127 367.412,0 734.828,212.127 734.828,636.381 367.412,848.508 0,636.381 "/>
<g id="layer1" transform="translate(0.540538,-486.00542)" inkscape:label="Layer 1" inkscape:groupmode="layer">
	
		<path id="path7549" inkscape:export-ydpi="100.04697" inkscape:export-filename="/home/substack/media/vector/oakjs.png" inkscape:export-xdpi="100.04697" inkscape:connector-curvature="0" sodipodi:nodetypes="cc" fill="none" stroke="#4E4E4E" stroke-width="8" stroke-linecap="round" stroke-linejoin="round" d="
		M506.671,771.579c-1.051-8.365-1.299-25.081,2.808-36.964"/>
	
		<path id="path7207" inkscape:export-ydpi="100.04697" inkscape:export-filename="/home/substack/media/vector/oakjs.png" inkscape:export-xdpi="100.04697" inkscape:connector-curvature="0" sodipodi:nodetypes="ccc" fill="none" stroke="#4E4E4E" stroke-width="8" stroke-linecap="round" stroke-linejoin="round" d="
		M415.924,900.026c55.465,43.319,39.915-37.514,15.119-42.05c-67.504-28.384-27.06-152.423,66.527-81.356"/>
	
		<path id="path7113" inkscape:export-ydpi="100.04697" inkscape:export-filename="/home/substack/media/vector/oakjs.png" inkscape:export-xdpi="100.04697" inkscape:connector-curvature="0" sodipodi:nodetypes="cc" fill="none" stroke="#8FAA89" stroke-width="8" stroke-linecap="round" stroke-opacity="0.9883" d="
		M316.774,757.834c29.318,139.091-2.73,238.771-51.117,158.614"/>
	
		<path id="path7147" inkscape:export-ydpi="100.04697" inkscape:export-filename="/home/substack/media/vector/oakjs.png" inkscape:export-xdpi="100.04697" inkscape:connector-curvature="0" sodipodi:nodetypes="cc" fill="none" stroke="#4E4E4E" stroke-width="8" stroke-linecap="round" stroke-linejoin="round" d="
		M340.125,764.396c37.642,143.642-18.907,266.922-92.874,162.959"/>
	
		<path id="path7111" inkscape:export-ydpi="100.04697" inkscape:export-filename="/home/substack/media/vector/oakjs.png" inkscape:export-xdpi="100.04697" inkscape:connector-curvature="0" sodipodi:nodetypes="ccccccccccc" fill="none" stroke="#8FAA89" stroke-width="8" stroke-linejoin="round" stroke-opacity="0.9883" d="
		M287.897,709.668c-0.849,5.696,21.107,10.344,22.638,15.112c1.399,5.848-13.284,22.401-11.067,26.586
		c4.305,3.556,18.113-15.905,22.635-16.142c5.184,0.433,16.451,18.938,21.18,17.502c3.247-2.481-6.545-22.626-6.809-28.115
		c-0.349-4.252,22.091-9.196,20.406-14.099c-0.737-6.245-21.737,2.381-24.566-1.062c-3.287-2.994-0.228-23.27-5.926-23.799
		c-5.105,0.111-8.599,21.48-11.348,24.342C311.614,713.248,288.202,704.594,287.897,709.668L287.897,709.668z"/>
	
		<path id="path7126" inkscape:export-ydpi="100.04697" inkscape:export-filename="/home/substack/media/vector/oakjs.png" inkscape:export-xdpi="100.04697" inkscape:connector-curvature="0" sodipodi:nodetypes="cc" fill="none" stroke="#8FAA89" stroke-width="8" stroke-linecap="round" stroke-opacity="0.9883" d="
		M328.202,756.471c39.448,181.619-26.158,244.576-72.185,164.341"/>
	
		<path id="path7326" inkscape:export-ydpi="100.04697" inkscape:export-filename="/home/substack/media/vector/oakjs.png" inkscape:export-xdpi="100.04697" inkscape:connector-curvature="0" sodipodi:nodetypes="cccccc" fill="none" stroke="#4E4E4E" stroke-width="8" d="
		M307.352,696.667c8.061-25.729,29.612-42.049,33.142,2.139c26.422-4.538,42.234,11.262,9.622,31.003
		c12.508,38.691-3.604,47.186-26.727,20.312c-19.09,16.091-48.334,23.893-28.866-20.312
		C252.962,707.472,282.628,691.789,307.352,696.667L307.352,696.667z"/>
	
		<path id="path3972" inkscape:export-ydpi="100.04697" inkscape:export-filename="/home/substack/media/vector/oakjs.png" inkscape:export-xdpi="100.04697" inkscape:connector-curvature="0" sodipodi:nodetypes="cc" fill="none" stroke="#4E4E4E" stroke-width="9" stroke-linecap="round" stroke-linejoin="round" d="
		M355.032,741.398c30.121-17.924,23.025-44.85,21.933-50.942"/>
	
		<path id="path3974" inkscape:export-ydpi="100.04697" inkscape:export-filename="/home/substack/media/vector/oakjs.png" inkscape:export-xdpi="100.04697" inkscape:connector-curvature="0" sodipodi:nodetypes="cc" fill="none" stroke="#4E4E4E" stroke-width="9" stroke-linecap="round" stroke-linejoin="round" d="
		M356.149,755.667c24.164-17.255,38.672-43.045,31.786-66.973"/>
	
		<path id="path3018" inkscape:export-ydpi="100.04697" inkscape:export-filename="/home/substack/media/vector/oakjs.png" inkscape:export-xdpi="100.04697" inkscape:connector-curvature="0" sodipodi:nodetypes="csccc" fill="none" stroke="#4E4E4E" stroke-width="9" stroke-linecap="round" stroke-linejoin="round" d="
		M324.22,1118.6c-4.349-4.348,17.943-127.456-36.527-133.139c-28.772-3.001-75.208,34.817-121.135,27.562 M130.084,1002.515
		c-13.545-6.559-32.398-7.74-49.376-3.022"/>
	
		<path id="path3046" inkscape:export-ydpi="100.04697" inkscape:export-filename="/home/substack/media/vector/oakjs.png" inkscape:export-xdpi="100.04697" inkscape:connector-curvature="0" sodipodi:nodetypes="ccccc" fill="none" stroke="#4E4E4E" stroke-width="9" stroke-linecap="round" stroke-linejoin="round" d="
		M333.483,1117.277c-2.099-39.268,11.727-127.254-37.055-139.489c-40.335-13.378-69.852,32.487-121.873,25.54 M137.686,996.744
		c-13.618-8.035-34.042-13.841-61.677-7.406"/>
	
		<path id="path3048" inkscape:export-ydpi="100.04697" inkscape:export-filename="/home/substack/media/vector/oakjs.png" inkscape:export-xdpi="100.04697" inkscape:connector-curvature="0" sodipodi:nodetypes="ccccc" fill="none" stroke="#4E4E4E" stroke-width="9" stroke-linecap="round" stroke-linejoin="round" d="
		M341.425,1118.6c0.662-50.511,8.833-116.747-27.792-145.576c-53.593-30.939-90.469,28.015-133.543,21.77 M147.941,986.641
		c-28.454-11.345-45.854-13.848-75.172-8.323"/>
	
		<path id="path3847" inkscape:export-ydpi="100.04697" inkscape:export-filename="/home/substack/media/vector/oakjs.png" inkscape:export-xdpi="100.04697" inkscape:connector-curvature="0" sodipodi:nodetypes="cc" fill="none" stroke="#4E4E4E" stroke-width="9" stroke-linecap="round" stroke-linejoin="round" d="
		M90.053,964.447c-4.271-7.44-7.465-8.847-16.304-13.772"/>
	
		<path id="path3849" inkscape:export-ydpi="100.04697" inkscape:export-filename="/home/substack/media/vector/oakjs.png" inkscape:export-xdpi="100.04697" inkscape:connector-curvature="0" sodipodi:nodetypes="cc" fill="none" stroke="#4E4E4E" stroke-width="9" stroke-linecap="round" stroke-linejoin="round" d="
		M101.953,963.274c-5.644-8.771-14.498-15.14-24.148-22.094"/>
	
		<path id="path3851" inkscape:export-ydpi="100.04697" inkscape:export-filename="/home/substack/media/vector/oakjs.png" inkscape:export-xdpi="100.04697" inkscape:connector-curvature="0" sodipodi:nodetypes="cc" fill="none" stroke="#4E4E4E" stroke-width="9" stroke-linecap="round" stroke-linejoin="round" d="
		M114.479,966.104c-5.799-13.856-17.304-22.958-28.793-32.072"/>
	
		<path id="path3853" inkscape:export-ydpi="100.04697" inkscape:export-filename="/home/substack/media/vector/oakjs.png" inkscape:export-xdpi="100.04697" inkscape:connector-curvature="0" sodipodi:nodetypes="cc" fill="none" stroke="#4E4E4E" stroke-width="9" stroke-linecap="round" stroke-linejoin="round" d="
		M125.146,965.509c-4.389-16.266-18.69-26.856-31.44-37.311"/>
	
		<path id="path3855" inkscape:export-ydpi="100.04697" inkscape:export-filename="/home/substack/media/vector/oakjs.png" inkscape:export-xdpi="100.04697" inkscape:connector-curvature="0" sodipodi:nodetypes="cc" fill="none" stroke="#4E4E4E" stroke-width="9" stroke-linecap="round" stroke-linejoin="round" d="
		M163.683,953.347c-10.042,43.941-39.328,59.985-79.455,58.315"/>
	
		<path id="path3857" inkscape:export-ydpi="100.04697" inkscape:export-filename="/home/substack/media/vector/oakjs.png" inkscape:export-xdpi="100.04697" inkscape:connector-curvature="0" sodipodi:nodetypes="cc" fill="none" stroke="#4E4E4E" stroke-width="9" stroke-linecap="round" stroke-linejoin="round" d="
		M173.523,954.079c-10.21,53.716-46.239,68.169-89.295,67.789"/>
	
		<path id="path3859" inkscape:export-ydpi="100.04697" inkscape:export-filename="/home/substack/media/vector/oakjs.png" inkscape:export-xdpi="100.04697" inkscape:connector-curvature="0" sodipodi:nodetypes="cc" fill="none" stroke="#4E4E4E" stroke-width="9" stroke-linecap="round" stroke-linejoin="round" d="
		M184.124,954.541c-14.164,63.613-58.031,85.453-99.896,80.084"/>
	
		<path id="path3861" inkscape:export-ydpi="100.04697" inkscape:export-filename="/home/substack/media/vector/oakjs.png" inkscape:export-xdpi="100.04697" inkscape:connector-curvature="0" sodipodi:nodetypes="cc" fill="none" stroke="#4E4E4E" stroke-width="9" stroke-linecap="round" stroke-linejoin="round" d="
		M194.297,951.525c-9.989,57.87-55.17,104.621-110.069,95.491"/>
	
		<path id="path3863" inkscape:export-ydpi="100.04697" inkscape:export-filename="/home/substack/media/vector/oakjs.png" inkscape:export-xdpi="100.04697" inkscape:connector-curvature="0" sodipodi:nodetypes="cccc" fill="none" stroke="#4E4E4E" stroke-width="9" stroke-linecap="round" stroke-linejoin="round" d="
		M234.753,966.468c-22.954-32.058-30.904-58.263-39.956-95.557 M187.374,837.083c-3.755-19.804-11.418-39.604-18.953-59.407"/>
	
		<path id="path3865" inkscape:export-ydpi="100.04697" inkscape:export-filename="/home/substack/media/vector/oakjs.png" inkscape:export-xdpi="100.04697" inkscape:connector-curvature="0" sodipodi:nodetypes="cccc" fill="none" stroke="#4E4E4E" stroke-width="9" stroke-linecap="round" stroke-linejoin="round" d="
		M244.958,962.094c-22.249-28.373-34.159-64.317-41.778-94.53 M196.849,833.074c-5.812-20.288-12.555-40.577-19.317-60.866"/>
	
		<path id="path3867" inkscape:export-ydpi="100.04697" inkscape:export-filename="/home/substack/media/vector/oakjs.png" inkscape:export-xdpi="100.04697" inkscape:connector-curvature="0" sodipodi:nodetypes="cccc" fill="none" stroke="#4E4E4E" stroke-width="9" stroke-linecap="round" stroke-linejoin="round" d="
		M254.799,959.544c-24.023-29.555-33.741-65.518-43.007-97.312 M205.748,828.167c-4.391-20.648-11.841-41.735-19.104-61.426"/>
	
		<path id="path3869" inkscape:export-ydpi="100.04697" inkscape:export-filename="/home/substack/media/vector/oakjs.png" inkscape:export-xdpi="100.04697" inkscape:connector-curvature="0" sodipodi:nodetypes="cccc" fill="none" stroke="#4E4E4E" stroke-width="9" stroke-linecap="round" stroke-linejoin="round" d="
		M267.192,954.441c-25.162-29.146-39.607-64.255-45.559-97.312 M214.495,823.107c-4.085-19.801-11.253-41.666-20.197-61.47"/>
	
		<path id="path3980" inkscape:export-ydpi="100.04697" inkscape:export-filename="/home/substack/media/vector/oakjs.png" inkscape:export-xdpi="100.04697" inkscape:connector-curvature="0" sodipodi:nodetypes="cc" fill="none" stroke="#4E4E4E" stroke-width="9" stroke-linecap="round" stroke-linejoin="round" d="
		M124.819,814.485c13.466,14.176,22.555,21.324,34.854,28.793"/>
	
		<path id="path3982" inkscape:export-ydpi="100.04697" inkscape:export-filename="/home/substack/media/vector/oakjs.png" inkscape:export-xdpi="100.04697" inkscape:connector-curvature="0" sodipodi:nodetypes="cc" fill="none" stroke="#4E4E4E" stroke-width="9" stroke-linecap="round" stroke-linejoin="round" d="
		M129.422,804.847c15.633,14.285,32.268,31.923,48.839,35.88"/>
	
		<path id="path3984" inkscape:export-ydpi="100.04697" inkscape:export-filename="/home/substack/media/vector/oakjs.png" inkscape:export-xdpi="100.04697" inkscape:connector-curvature="0" sodipodi:nodetypes="cc" fill="none" stroke="#4E4E4E" stroke-width="9" stroke-linecap="round" stroke-linejoin="round" d="
		M136.347,794.642c16.112,18.829,33.243,31.501,50.296,42.805"/>
	
		<path id="path3986" inkscape:export-ydpi="100.04697" inkscape:export-filename="/home/substack/media/vector/oakjs.png" inkscape:export-xdpi="100.04697" inkscape:connector-curvature="0" sodipodi:nodetypes="cc" fill="none" stroke="#4E4E4E" stroke-width="9" stroke-linecap="round" stroke-linejoin="round" d="
		M145.325,786.164c11.853,12.517,21.051,26.164,37.31,32.332"/>
	
		<path id="path3988" inkscape:export-ydpi="100.04697" inkscape:export-filename="/home/substack/media/vector/oakjs.png" inkscape:export-xdpi="100.04697" inkscape:connector-curvature="0" sodipodi:nodetypes="cc" fill="none" stroke="#4E4E4E" stroke-width="9" stroke-linecap="round" stroke-linejoin="round" d="
		M286,825.679c-9.135-29.195-9.262-83.859-9.839-107.554"/>
	
		<path id="path3990" inkscape:export-ydpi="100.04697" inkscape:export-filename="/home/substack/media/vector/oakjs.png" inkscape:export-xdpi="100.04697" inkscape:connector-curvature="0" sodipodi:nodetypes="cc" fill="none" stroke="#4E4E4E" stroke-width="9" stroke-linecap="round" stroke-linejoin="round" d="
		M271.229,820.48c-2.902-28.002-5.607-72.924-6.723-107.604"/>
	
		<path id="path3992" inkscape:export-ydpi="100.04697" inkscape:export-filename="/home/substack/media/vector/oakjs.png" inkscape:export-xdpi="100.04697" inkscape:connector-curvature="0" sodipodi:nodetypes="cc" fill="none" stroke="#4E4E4E" stroke-width="9" stroke-linecap="round" stroke-linejoin="round" d="
		M259.902,816.674c-3.577-30.712-5.905-67.67-7.587-99.328"/>
	
		<path id="path3994" inkscape:export-ydpi="100.04697" inkscape:export-filename="/home/substack/media/vector/oakjs.png" inkscape:export-xdpi="100.04697" inkscape:connector-curvature="0" sodipodi:nodetypes="cc" fill="none" stroke="#4E4E4E" stroke-width="9" stroke-linecap="round" stroke-linejoin="round" d="
		M248.239,814.485c-5.58-29.399-5.234-64.094-7.154-93.493"/>
	
		<path id="path3996" inkscape:export-ydpi="100.04697" inkscape:export-filename="/home/substack/media/vector/oakjs.png" inkscape:export-xdpi="100.04697" inkscape:connector-curvature="0" sodipodi:nodetypes="cc" fill="none" stroke="#4E4E4E" stroke-width="9" stroke-linecap="round" stroke-linejoin="round" d="
		M245.324,802.094c-20.336-5.775-36.574-27.888-44.235-51.025"/>
	
		<path id="path3998" inkscape:export-ydpi="100.04697" inkscape:export-filename="/home/substack/media/vector/oakjs.png" inkscape:export-xdpi="100.04697" inkscape:connector-curvature="0" sodipodi:nodetypes="cc" fill="none" stroke="#4E4E4E" stroke-width="9" stroke-linecap="round" stroke-linejoin="round" d="
		M243.866,788.974c-19.27-5.758-26.057-25.321-33.962-42.442"/>
	
		<path id="path4000" inkscape:export-ydpi="100.04697" inkscape:export-filename="/home/substack/media/vector/oakjs.png" inkscape:export-xdpi="100.04697" inkscape:connector-curvature="0" sodipodi:nodetypes="cc" fill="none" stroke="#4E4E4E" stroke-width="9" stroke-linecap="round" stroke-linejoin="round" d="
		M218.649,740.836c5.068,12.716,13.046,30.932,25.217,38.662"/>
	
		<path id="path4002" inkscape:export-ydpi="100.04697" inkscape:export-filename="/home/substack/media/vector/oakjs.png" inkscape:export-xdpi="100.04697" inkscape:connector-curvature="0" sodipodi:nodetypes="cc" fill="none" stroke="#4E4E4E" stroke-width="9" stroke-linecap="round" stroke-linejoin="round" d="
		M228.883,736.462c3.666,11.174,6.092,15.103,12.632,24.42"/>
	
		<path id="path4008" inkscape:export-ydpi="100.04697" inkscape:export-filename="/home/substack/media/vector/oakjs.png" inkscape:export-xdpi="100.04697" inkscape:connector-curvature="0" sodipodi:nodetypes="cc" fill="none" stroke="#4E4E4E" stroke-width="9" stroke-linecap="round" stroke-linejoin="round" d="
		M370.863,862.382c8.758-34.316,2.683-57.378-12.962-77.003"/>
	
		<path id="path4010" inkscape:export-ydpi="100.04697" inkscape:export-filename="/home/substack/media/vector/oakjs.png" inkscape:export-xdpi="100.04697" inkscape:connector-curvature="0" sodipodi:nodetypes="cc" fill="none" stroke="#4E4E4E" stroke-width="9" stroke-linecap="round" stroke-linejoin="round" d="
		M379.85,872.683c11.656-46.599,4.054-74.271-15.181-94.744"/>
	
		<path id="path4020" inkscape:export-ydpi="100.04697" inkscape:export-filename="/home/substack/media/vector/oakjs.png" inkscape:export-xdpi="100.04697" inkscape:connector-curvature="0" sodipodi:nodetypes="cc" fill="none" stroke="#4E4E4E" stroke-width="9" stroke-linecap="round" stroke-linejoin="round" d="
		M374.609,782.509c25.631-29.053,65.081-44.315,91.944-72.262"/>
	
		<path id="path4044" inkscape:export-ydpi="100.04697" inkscape:export-filename="/home/substack/media/vector/oakjs.png" inkscape:export-xdpi="100.04697" inkscape:connector-curvature="0" sodipodi:nodetypes="cc" fill="none" stroke="#4E4E4E" stroke-width="9" stroke-linecap="round" stroke-linejoin="round" d="
		M485.506,877.903c71.756-31.179,83.232,13.758,129.072-3.747"/>
	
		<path id="path4046" inkscape:export-ydpi="100.04697" inkscape:export-filename="/home/substack/media/vector/oakjs.png" inkscape:export-xdpi="100.04697" inkscape:connector-curvature="0" sodipodi:nodetypes="cc" fill="none" stroke="#4E4E4E" stroke-width="9" stroke-linecap="round" stroke-linejoin="round" d="
		M486.752,888.266c75.043-31.464,80.174,19.276,132.295-2.315"/>
	
		<path id="path4048" inkscape:export-ydpi="100.04697" inkscape:export-filename="/home/substack/media/vector/oakjs.png" inkscape:export-xdpi="100.04697" inkscape:connector-curvature="0" sodipodi:nodetypes="cc" fill="none" stroke="#4E4E4E" stroke-width="9" stroke-linecap="round" stroke-linejoin="round" d="
		M485.813,900.914c83.496-32.162,74.898,18.723,136.7-4.475"/>
	
		<path id="path4050" inkscape:export-ydpi="100.04697" inkscape:export-filename="/home/substack/media/vector/oakjs.png" inkscape:export-xdpi="100.04697" inkscape:connector-curvature="0" sodipodi:nodetypes="cc" fill="none" stroke="#4E4E4E" stroke-width="9" stroke-linecap="round" stroke-linejoin="round" d="
		M483.754,913.363c87.414-37.068,70.307,31.547,161.025-15.414"/>
	
		<path id="path4052" inkscape:export-ydpi="100.04697" inkscape:export-filename="/home/substack/media/vector/oakjs.png" inkscape:export-xdpi="100.04697" inkscape:connector-curvature="0" sodipodi:nodetypes="ccc" fill="none" stroke="#4E4E4E" stroke-width="9" stroke-linecap="round" stroke-linejoin="round" d="
		M386.372,1119.179c0.645-113.146,1.909-109.539,53.578-156.355c90.573-53.101,118.344,65.227,212.118,62.324"/>
	
		<path id="path4054" inkscape:export-ydpi="100.04697" inkscape:export-filename="/home/substack/media/vector/oakjs.png" inkscape:export-xdpi="100.04697" inkscape:connector-curvature="0" sodipodi:nodetypes="cc" fill="none" stroke="#4E4E4E" stroke-width="9" stroke-linecap="round" stroke-linejoin="round" d="
		M654.984,1014.579c-84.566,3.704-108.593-90.116-184.808-74.086"/>
	
		<path id="path4056" inkscape:export-ydpi="100.04697" inkscape:export-filename="/home/substack/media/vector/oakjs.png" inkscape:export-xdpi="100.04697" inkscape:connector-curvature="0" sodipodi:nodetypes="csc" fill="none" stroke="#4E4E4E" stroke-width="9" stroke-linecap="round" stroke-linejoin="round" d="
		M394.754,1119.179c1.907-47.319,3.327-96.462,10.617-105.502c107.224-132.957,147.908,37.1,244.874,21.676"/>
	
		<path id="path4058" inkscape:export-ydpi="100.04697" inkscape:export-filename="/home/substack/media/vector/oakjs.png" inkscape:export-xdpi="100.04697" inkscape:connector-curvature="0" sodipodi:nodetypes="ccc" fill="none" stroke="#4E4E4E" stroke-width="9" stroke-linecap="round" stroke-linejoin="round" d="
		M405.543,1118.712c3.584-70.806-6.919-100.777,37.627-128.344c87.963-54.194,108.873,68.855,209.781,57.73"/>
	
		<path id="path4060" inkscape:export-ydpi="100.04697" inkscape:export-filename="/home/substack/media/vector/oakjs.png" inkscape:export-xdpi="100.04697" inkscape:connector-curvature="0" sodipodi:nodetypes="cc" fill="none" stroke="#4E4E4E" stroke-width="9" stroke-linecap="round" stroke-linejoin="round" d="
		M503.058,825.368c42.716,43.312,90.956,38.214,125.01,24.192"/>
	
		<path id="path4062" inkscape:export-ydpi="100.04697" inkscape:export-filename="/home/substack/media/vector/oakjs.png" inkscape:export-xdpi="100.04697" inkscape:connector-curvature="0" sodipodi:nodetypes="cc" fill="none" stroke="#4E4E4E" stroke-width="9" stroke-linecap="round" stroke-linejoin="round" d="
		M510.791,818.813c42.14,34.3,72.839,34.21,112.78,21.612"/>
	
		<path id="path4064" inkscape:export-ydpi="100.04697" inkscape:export-filename="/home/substack/media/vector/oakjs.png" inkscape:export-xdpi="100.04697" inkscape:connector-curvature="0" sodipodi:nodetypes="cc" fill="none" stroke="#4E4E4E" stroke-width="9" stroke-linecap="round" stroke-linejoin="round" d="
		M520.284,813.212c47.398,31.896,69.422,25.062,99.354,17.888"/>
	
		<path id="path4066" inkscape:export-ydpi="100.04697" inkscape:export-filename="/home/substack/media/vector/oakjs.png" inkscape:export-xdpi="100.04697" inkscape:connector-curvature="0" sodipodi:nodetypes="cc" fill="none" stroke="#4E4E4E" stroke-width="9" stroke-linecap="round" stroke-linejoin="round" d="
		M534.603,809c29.879,20.25,55.339,17.515,85.36,12.822"/>
	
		<path id="path4068" inkscape:export-ydpi="100.04697" inkscape:export-filename="/home/substack/media/vector/oakjs.png" inkscape:export-xdpi="100.04697" inkscape:connector-curvature="0" sodipodi:nodetypes="cccc" fill="none" stroke="#4E4E4E" stroke-width="9" stroke-linecap="round" stroke-linejoin="round" d="
		M559.983,970.498c4.708-2.86,13.099-10.105,18.704-14.586 M601.815,932.025c9.68-10.691,21.618-22.45,42.375-34.434"/>
	
		<path id="path4070" inkscape:export-ydpi="100.04697" inkscape:export-filename="/home/substack/media/vector/oakjs.png" inkscape:export-xdpi="100.04697" inkscape:connector-curvature="0" sodipodi:nodetypes="cccc" fill="none" stroke="#4E4E4E" stroke-width="9" stroke-linecap="round" stroke-linejoin="round" d="
		M569.453,977.484c5.546-4.896,8.478-7.585,13.078-12.178 M608.862,939.122c13.301-14.115,23.729-22.059,41.702-33.427"/>
	
		<path id="path4072" inkscape:export-ydpi="100.04697" inkscape:export-filename="/home/substack/media/vector/oakjs.png" inkscape:export-xdpi="100.04697" inkscape:connector-curvature="0" sodipodi:nodetypes="cccc" fill="none" stroke="#4E4E4E" stroke-width="9" stroke-linecap="round" stroke-linejoin="round" d="
		M579.244,986.246c4.203-4.317,8.388-8.752,12.567-13.216 M616.956,946.127c12.44-12.675,23.912-23.158,39.787-32.367"/>
	
		<path id="path4074" inkscape:export-ydpi="100.04697" inkscape:export-filename="/home/substack/media/vector/oakjs.png" inkscape:export-xdpi="100.04697" inkscape:connector-curvature="0" sodipodi:nodetypes="cccc" fill="none" stroke="#4E4E4E" stroke-width="9" stroke-linecap="round" stroke-linejoin="round" d="
		M589.553,993.462c3.992-4.316,7.656-8.349,11.044-12.122 M624.031,953.261c9.589-9.707,20.406-20.426,36.271-29.613"/>
	
		<path id="path7188" inkscape:export-ydpi="100.04697" inkscape:export-filename="/home/substack/media/vector/oakjs.png" inkscape:export-xdpi="100.04697" inkscape:connector-curvature="0" sodipodi:nodetypes="cc" fill="none" stroke="#4E4E4E" stroke-width="8" stroke-linecap="round" d="
		M306.262,762.818c26.131,131.373,1.58,210.042-30.579,149.554"/>
	
		<path id="path7190" inkscape:export-ydpi="100.04697" inkscape:export-filename="/home/substack/media/vector/oakjs.png" inkscape:export-xdpi="100.04697" inkscape:connector-curvature="0" sodipodi:nodetypes="ccc" fill="none" stroke="#8FAA89" stroke-width="8" stroke-linecap="round" stroke-opacity="0.9883" d="
		M486.087,783.233c-68.262-54.664-112.338,39.971-43.031,69.354c28.445,14.852,35.417,114.534-36.28,51.947"/>
	
		<path id="path7203" inkscape:export-ydpi="100.04697" inkscape:export-filename="/home/substack/media/vector/oakjs.png" inkscape:export-xdpi="100.04697" inkscape:connector-curvature="0" sodipodi:nodetypes="ccsc" fill="none" stroke="#8FAA89" stroke-width="8" stroke-linecap="round" stroke-opacity="0.9883" d="
		M475.642,791.454c-54.129-46.634-75.128,33.223-30.236,49.136c34.665,15.574,39.722,96.19,1.825,96.583
		c-11.613,0.12-27.261-7.296-47.324-26.424"/>
	
		<path id="path3071" inkscape:export-ydpi="100.04697" inkscape:export-filename="/home/substack/media/vector/oakjs.png" inkscape:export-xdpi="100.04697" inkscape:connector-curvature="0" sodipodi:nodetypes="cccccccc" fill="none" stroke="#4E4E4E" stroke-width="9" stroke-linecap="round" stroke-linejoin="round" d="
		M338.514,985.266c-2.014-10.565-5.207-23.228-10.3-35.024 M307.555,921.171c-7.769-6.093-17.298-9.654-28.992-9.025
		c-10.117,0.765-22.824,5.139-32.684,11.29 M217.891,940.654c-13.487,7.731-19.337,12.691-41.1,13.343
		c-29.717,0.676-66.085-19.868-92.111-47.807"/>
	
		<path id="path3073" inkscape:export-ydpi="100.04697" inkscape:export-filename="/home/substack/media/vector/oakjs.png" inkscape:export-xdpi="100.04697" inkscape:connector-curvature="0" sodipodi:nodetypes="cccccc" fill="none" stroke="#4E4E4E" stroke-width="9" stroke-linecap="round" stroke-linejoin="round" d="
		M350.343,1024.42c-0.526-25.123,0.56-57.668-13.854-84.98 M307.016,907.513c-22.22-11.654-40.47-9.322-66.346,6.717
		 M213.685,929.58c-50.014,29.89-86.189,3.031-123.712-31.99"/>
	
		<path id="path3075" inkscape:export-ydpi="100.04697" inkscape:export-filename="/home/substack/media/vector/oakjs.png" inkscape:export-xdpi="100.04697" inkscape:connector-curvature="0" sodipodi:nodetypes="cccccc" fill="none" stroke="#4E4E4E" stroke-width="9" stroke-linecap="round" stroke-linejoin="round" d="
		M359.291,1117.939c2.019-119.671,7.661-153.989-17.347-191.273 M312.021,898.294c-18.499-11.678-42.424-16.708-75.944,5.979
		 M208.672,918.596c-41.174,18.149-60.854,19.224-114.068-29.61"/>
	
		<path id="path3077" inkscape:export-ydpi="100.04697" inkscape:export-filename="/home/substack/media/vector/oakjs.png" inkscape:export-xdpi="100.04697" inkscape:connector-curvature="0" sodipodi:nodetypes="ccccccc" fill="none" stroke="#4E4E4E" stroke-width="9" stroke-linecap="round" stroke-linejoin="round" d="
		M367.232,1118.6c2.128-104.76,8.111-133.45-3.353-172.403c-5.112-11.129-11.224-21.582-18.258-30.805 M314.876,887.554
		c-23.011-13.089-51.165-14.213-83.313,5.207 M205.313,908.703c-39.817,22.911-69.156,3.273-102.767-26.996"/>
	
		<path id="path3069" inkscape:export-ydpi="100.04697" inkscape:export-filename="/home/substack/media/vector/oakjs.png" inkscape:export-xdpi="100.04697" inkscape:connector-curvature="0" sodipodi:nodetypes="cccccc" fill="none" stroke="#4E4E4E" stroke-width="9" stroke-linecap="round" stroke-linejoin="round" d="
		M350.689,1119.263c-3.31-74.995,14.512-113.823-29.777-155.504 M268.626,955.311c-34.539,7.562-65.908,33.877-84.537,29.394
		 M154.223,976.815c-17.895-9.108-53.843-16.482-82.778-8.424"/>
	
		<path id="path3978" inkscape:export-ydpi="100.04697" inkscape:export-filename="/home/substack/media/vector/oakjs.png" inkscape:export-xdpi="100.04697" inkscape:connector-curvature="0" sodipodi:nodetypes="cc" fill="none" stroke="#4E4E4E" stroke-width="9" stroke-linecap="round" stroke-linejoin="round" d="
		M347.368,793.82c28.167-30.202,68.146-50.231,64.57-109.388"/>
	
		<path id="path3976" inkscape:export-ydpi="100.04697" inkscape:export-filename="/home/substack/media/vector/oakjs.png" inkscape:export-xdpi="100.04697" inkscape:connector-curvature="0" sodipodi:nodetypes="cc" fill="none" stroke="#4E4E4E" stroke-width="9" stroke-linecap="round" stroke-linejoin="round" d="
		M346.238,780.253c20.368-23.653,59.794-44.143,54.215-93.912"/>
	
		<path id="path4006" inkscape:export-ydpi="100.04697" inkscape:export-filename="/home/substack/media/vector/oakjs.png" inkscape:export-xdpi="100.04697" inkscape:connector-curvature="0" sodipodi:nodetypes="cc" fill="none" stroke="#4E4E4E" stroke-width="9" stroke-linecap="round" stroke-linejoin="round" d="
		M361.584,857.226c1.883-15.526,7.152-38.635-12.517-65.438"/>
	
		<path id="path3970" inkscape:export-ydpi="100.04697" inkscape:export-filename="/home/substack/media/vector/oakjs.png" inkscape:export-xdpi="100.04697" inkscape:connector-curvature="0" sodipodi:nodetypes="cccc" fill="none" stroke="#4E4E4E" stroke-width="9" stroke-linecap="round" stroke-linejoin="round" d="
		M401.635,982.025c-2.827-49.983,6.183-101.588-48.701-123.959 M316.439,842.915c-106.754-62.48-122.216,27.757-188.938-3.352"/>
	
		<path id="path3968" inkscape:export-ydpi="100.04697" inkscape:export-filename="/home/substack/media/vector/oakjs.png" inkscape:export-xdpi="100.04697" inkscape:connector-curvature="0" sodipodi:nodetypes="cccc" fill="none" stroke="#4E4E4E" stroke-width="9" stroke-linecap="round" stroke-linejoin="round" d="
		M391.375,996.351c-3.345-47.805,4.885-110.927-37.712-125.464 M316.038,856.291c-114.73-68.354-113.43,29.209-194.499-7.666"/>
	
		<path id="path3927" inkscape:export-ydpi="100.04697" inkscape:export-filename="/home/substack/media/vector/oakjs.png" inkscape:export-xdpi="100.04697" inkscape:connector-curvature="0" sodipodi:nodetypes="cccc" fill="none" stroke="#4E4E4E" stroke-width="9" stroke-linecap="round" stroke-linejoin="round" d="
		M381.386,1028.393c-0.759-75.629-1.264-140.347-29.785-146.638 M314.667,868.098c-121.539-73.405-94.14,33.192-198.282-11.741"/>
	
		<path id="path3925" inkscape:export-ydpi="100.04697" inkscape:export-filename="/home/substack/media/vector/oakjs.png" inkscape:export-xdpi="100.04697" inkscape:connector-curvature="0" sodipodi:nodetypes="cccccc" fill="none" stroke="#4E4E4E" stroke-width="9" stroke-linecap="round" stroke-linejoin="round" d="
		M367.916,961.505c-3.763-31.136,1.423-56.838-16.927-68.002 M314.33,880.456c-27.7-18.177-61.21-38.442-92.796-24.099
		l-25.772,14.432c-28.864,17.878-61.335,8.031-86.593-6.186"/>
	
		<path id="path4022" inkscape:export-ydpi="100.04697" inkscape:export-filename="/home/substack/media/vector/oakjs.png" inkscape:export-xdpi="100.04697" inkscape:connector-curvature="0" sodipodi:nodetypes="cc" fill="none" stroke="#4E4E4E" stroke-width="9" stroke-linecap="round" stroke-linejoin="round" d="
		M377.69,794.461c35.597-39.558,69.668-45.799,97.977-80.568"/>
	
		<path id="path4024" inkscape:export-ydpi="100.04697" inkscape:export-filename="/home/substack/media/vector/oakjs.png" inkscape:export-xdpi="100.04697" inkscape:connector-curvature="0" sodipodi:nodetypes="cccc" fill="none" stroke="#4E4E4E" stroke-width="9" stroke-linecap="round" stroke-linejoin="round" d="
		M382.987,804.386c5.339-6.716,10.809-12.461,16.332-17.499 M448.272,753.472c13.184-8.604,24.641-17.886,36.141-33.018"/>
	
		<path id="path4026" inkscape:export-ydpi="100.04697" inkscape:export-filename="/home/substack/media/vector/oakjs.png" inkscape:export-xdpi="100.04697" inkscape:connector-curvature="0" sodipodi:nodetypes="cccc" fill="none" stroke="#4E4E4E" stroke-width="9" stroke-linecap="round" stroke-linejoin="round" d="
		M385.604,819.425c3.489-4.637,5.082-7.588,9.33-11.725 M464.866,756.994c7.5-6.325,18.638-14.88,29.437-29.773"/>
	
		<path id="path4036" inkscape:export-ydpi="100.04697" inkscape:export-filename="/home/substack/media/vector/oakjs.png" inkscape:export-xdpi="100.04697" inkscape:connector-curvature="0" sodipodi:nodetypes="cccc" fill="none" stroke="#4E4E4E" stroke-width="9" stroke-linecap="round" stroke-linejoin="round" d="
		M387.737,878.997c12.395-5.825,27.742-13.644,36.008-22.37 M572.995,778.459c-57.365-25.568-89.293,4.051-121.534,50.672"/>
	
		<path id="path4038" inkscape:export-ydpi="100.04697" inkscape:export-filename="/home/substack/media/vector/oakjs.png" inkscape:export-xdpi="100.04697" inkscape:connector-curvature="0" sodipodi:nodetypes="cccc" fill="none" stroke="#4E4E4E" stroke-width="9" stroke-linecap="round" stroke-linejoin="round" d="
		M392.42,887.281c9.134-3.237,29.979-14.646,43.667-26.367 M565.54,788.218c-51.967-19.088-75.049,6.846-101.915,46.06"/>
	
		<path id="path4040" inkscape:export-ydpi="100.04697" inkscape:export-filename="/home/substack/media/vector/oakjs.png" inkscape:export-xdpi="100.04697" inkscape:connector-curvature="0" sodipodi:nodetypes="cccc" fill="none" stroke="#4E4E4E" stroke-width="9" stroke-linecap="round" stroke-linejoin="round" d="
		M396.686,896.447c16.586-6.809,34.455-17.405,45.492-25.889 M561.439,798.318c-49.324-10.795-60.938,4.802-89.392,43.914"/>
	
		<path id="path4042" inkscape:export-ydpi="100.04697" inkscape:export-filename="/home/substack/media/vector/oakjs.png" inkscape:export-xdpi="100.04697" inkscape:connector-curvature="0" sodipodi:nodetypes="cccc" fill="none" stroke="#4E4E4E" stroke-width="9" stroke-linecap="round" stroke-linejoin="round" d="
		M397.051,908.435c21.093-10.521,36.275-18.243,49.939-28.734 M558.803,808.687c-45.82-8.141-56.132,7.746-81.142,43.372"/>
	
		<path id="path3877" inkscape:export-ydpi="100.04697" inkscape:export-filename="/home/substack/media/vector/oakjs.png" inkscape:export-xdpi="100.04697" inkscape:connector-curvature="0" fill="none" stroke="#4E4E4E" stroke-width="9" stroke-linecap="round" stroke-linejoin="round" d="
		M445.77,726.162c-1.338-9.234-3.021-13.954-2.418-21.246"/>
	
		<path id="path7510" inkscape:export-ydpi="100.04697" inkscape:export-filename="/home/substack/media/vector/oakjs.png" inkscape:export-xdpi="100.04697" inkscape:connector-curvature="0" fill="none" stroke="#4E4E4E" stroke-width="9" stroke-linecap="round" stroke-linejoin="round" d="
		M432.985,705.079c-0.711,11.889,0.528,18.586,1.756,28.535"/>
	
		<path id="path3873" inkscape:export-ydpi="100.04697" inkscape:export-filename="/home/substack/media/vector/oakjs.png" inkscape:export-xdpi="100.04697" inkscape:connector-curvature="0" sodipodi:nodetypes="ccccc" fill="none" stroke="#4E4E4E" stroke-width="9" stroke-linecap="round" stroke-linejoin="round" d="
		M376.897,1119.179c-0.01-36.699,2.194-89.078,6.098-106.165c14.155-29.749,34.47-46.897,57.688-63.033 M424.373,739.013
		c-3.567-14.612-2.47-21.921-2.484-33.868"/>
	
		<path id="path3871" inkscape:export-ydpi="100.04697" inkscape:export-filename="/home/substack/media/vector/oakjs.png" inkscape:export-xdpi="100.04697" inkscape:connector-curvature="0" fill="none" stroke="#4E4E4E" stroke-width="9" stroke-linecap="round" stroke-linejoin="round" d="
		M414.235,746.896c-3.655-16.59-3.241-21.507-3.443-35.51"/>
	
		<path id="path4076" inkscape:export-ydpi="100.04697" inkscape:export-filename="/home/substack/media/vector/oakjs.png" inkscape:export-xdpi="100.04697" inkscape:connector-curvature="0" sodipodi:nodetypes="cccccc" fill="none" stroke="#4E4E4E" stroke-width="9" stroke-linecap="round" stroke-linejoin="round" d="
		M657.59,1000.677c-52.269,2.239-86.125-40.002-98.585-91.714 M553.097,867.561c-0.161-4.613,0.497-6.589,0.656-11.195
		 M557.809,817.951c3.218-13.975,12.563-37.744,23.465-50.922"/>
	
		<path id="path4078" inkscape:export-ydpi="100.04697" inkscape:export-filename="/home/substack/media/vector/oakjs.png" inkscape:export-xdpi="100.04697" inkscape:connector-curvature="0" sodipodi:nodetypes="cccccc" fill="none" stroke="#4E4E4E" stroke-width="9" stroke-linecap="round" stroke-linejoin="round" d="
		M592.262,769.052c-7.854,9.397-20.529,36.213-24.985,52.98 M563.486,858.831c-0.092,5.52-0.535,6.396-0.022,11.859
		 M569.907,912.559c13.242,44.406,46.394,77.231,88.199,77.81"/>
	
		<path id="path4080" inkscape:export-ydpi="100.04697" inkscape:export-filename="/home/substack/media/vector/oakjs.png" inkscape:export-xdpi="100.04697" inkscape:connector-curvature="0" sodipodi:nodetypes="cccccc" fill="none" stroke="#4E4E4E" stroke-width="9" stroke-linecap="round" stroke-linejoin="round" d="
		M659.652,977.999c-32.139,1.111-63.547-24.763-78.497-63.539 M572.782,873.826c-0.557-6.037,0.591-7.602,0.828-13.922
		 M578.111,821.392c4.685-17.968,13.308-31.445,24.945-47.989"/>
	
		<path id="path4082" inkscape:export-ydpi="100.04697" inkscape:export-filename="/home/substack/media/vector/oakjs.png" inkscape:export-xdpi="100.04697" inkscape:connector-curvature="0" sodipodi:nodetypes="cccccc" fill="none" stroke="#4E4E4E" stroke-width="9" stroke-linecap="round" stroke-linejoin="round" d="
		M657.077,967.175c-24.717-2.545-48.047-15.054-64.899-51.216 M583.778,875.127c-0.605-6.354-0.692-7.729-0.182-14.704
		 M587.778,824.841c2.726-8.482,13.643-30.938,21.731-41.743"/>
	
		<path id="path7205" inkscape:export-ydpi="100.04697" inkscape:export-filename="/home/substack/media/vector/oakjs.png" inkscape:export-xdpi="100.04697" inkscape:connector-curvature="0" sodipodi:nodetypes="ccc" fill="none" stroke="#4E4E4E" stroke-width="8" stroke-linecap="round" stroke-linejoin="round" d="
		M399.004,925.723c103.281,81.145,98.93-81.068,55.472-92.692c-45.438-24.732-17.971-68.894,15.12-32.506"/>
	
		<path id="path7551" inkscape:export-ydpi="100.04697" inkscape:export-filename="/home/substack/media/vector/oakjs.png" inkscape:export-xdpi="100.04697" inkscape:connector-curvature="0" sodipodi:nodetypes="cc" fill="none" stroke="#4E4E4E" stroke-width="8" stroke-linecap="round" stroke-linejoin="round" d="
		M515.562,769.708c-1.261-16.802,1.477-25.478,3.744-33.222"/>
	
		<path id="path7553" inkscape:export-ydpi="100.04697" inkscape:export-filename="/home/substack/media/vector/oakjs.png" inkscape:export-xdpi="100.04697" inkscape:connector-curvature="0" sodipodi:nodetypes="cc" fill="none" stroke="#4E4E4E" stroke-width="8" stroke-linecap="round" stroke-linejoin="round" d="
		M524.92,767.837c-1.146-13.243,1.877-21.682,5.146-29.012"/>
	
		<path id="path7555" inkscape:export-ydpi="100.04697" inkscape:export-filename="/home/substack/media/vector/oakjs.png" inkscape:export-xdpi="100.04697" inkscape:connector-curvature="0" sodipodi:nodetypes="cc" fill="none" stroke="#4E4E4E" stroke-width="8" stroke-linecap="round" stroke-linejoin="round" d="
		M533.811,766.9c-0.703-7.536,0.566-14.765,5.146-22.927"/>
</g>
</svg>
