<?xml version="1.0" encoding="UTF-8" standalone="no"?>
<!-- Created with Inkscape (http://www.inkscape.org/) -->

<svg
   xmlns:osb="http://www.openswatchbook.org/uri/2009/osb"
   xmlns:dc="http://purl.org/dc/elements/1.1/"
   xmlns:cc="http://creativecommons.org/ns#"
   xmlns:rdf="http://www.w3.org/1999/02/22-rdf-syntax-ns#"
   xmlns:svg="http://www.w3.org/2000/svg"
   xmlns="http://www.w3.org/2000/svg"
   xmlns:sodipodi="http://sodipodi.sourceforge.net/DTD/sodipodi-0.dtd"
   xmlns:inkscape="http://www.inkscape.org/namespaces/inkscape"
   width="43.900002mm"
   height="50.799999mm"
   viewBox="0 0 43.900002 50.799999"
   version="1.1"
   id="svg8"
   sodipodi:docname="odch.svg"
   inkscape:version="0.92.4 (5da689c313, 2019-01-14)"
   inkscape:export-filename="C:\Users\Oleg\Desktop\Stickers\READY\odch.png"
   inkscape:export-xdpi="104.50001"
   inkscape:export-ydpi="104.50001">
  <defs
     id="defs2">
    <linearGradient
       id="linearGradient4541"
       osb:paint="solid">
      <stop
         style="stop-color:#000000;stop-opacity:1;"
         offset="0"
         id="stop4539" />
    </linearGradient>
  </defs>
  <sodipodi:namedview
     id="base"
     pagecolor="#ffffff"
     bordercolor="#666666"
     borderopacity="1.0"
     inkscape:pageopacity="0"
     inkscape:pageshadow="2"
     inkscape:zoom="3.6203869"
     inkscape:cx="81.160916"
     inkscape:cy="83.812471"
     inkscape:document-units="mm"
     inkscape:current-layer="layer3"
     showgrid="false"
     units="in"
     inkscape:window-width="1347"
     inkscape:window-height="1044"
     inkscape:window-x="457"
     inkscape:window-y="12"
     inkscape:window-maximized="0"
     inkscape:snap-center="true"
     inkscape:snap-object-midpoints="true"
     inkscape:snap-page="true"
     inkscape:pagecheckerboard="true" />
  <metadata
     id="metadata5">
    <rdf:RDF>
      <cc:Work
         rdf:about="">
        <dc:format>image/svg+xml</dc:format>
        <dc:type
           rdf:resource="http://purl.org/dc/dcmitype/StillImage" />
        <dc:title></dc:title>
      </cc:Work>
    </rdf:RDF>
  </metadata>
  <g
     inkscape:label="Layer 1"
     inkscape:groupmode="layer"
     id="layer1"
     transform="translate(0,-246.2)">
    <path
       sodipodi:type="star"
       style="fill:#ffffec;fill-opacity:1;stroke:none;stroke-width:4;stroke-miterlimit:4;stroke-dasharray:none;stroke-dashoffset:0;stroke-opacity:1"
       id="path4596"
       sodipodi:sides="6"
       sodipodi:cx="160.07291"
       sodipodi:cy="148.03957"
       sodipodi:r1="59.309753"
       sodipodi:r2="51.363758"
       sodipodi:arg1="0.57018301"
       sodipodi:arg2="1.0937818"
       inkscape:flatsided="true"
       inkscape:rounded="0"
       inkscape:randomized="0"
       d="m 209.99999,180.05415 -52.68898,27.23083 -49.92708,-32.01458 2.7619,-59.24542 52.68898,-27.230825 49.92708,32.014585 z"
       inkscape:transform-center-x="21.95"
       inkscape:transform-center-y="-12.700002"
       transform="matrix(0.42688065,-0.01994286,0.01990022,0.42779545,-49.328054,211.46166)" />
  </g>
  <g
     inkscape:groupmode="layer"
     id="layer2"
     inkscape:label="Layer 2">
    <path
       sodipodi:type="star"
       style="fill:#ffffff;fill-opacity:1;stroke:none;stroke-width:4;stroke-miterlimit:4;stroke-dasharray:none;stroke-dashoffset:0;stroke-opacity:1"
       id="path5831"
       sodipodi:sides="6"
       sodipodi:cx="-13.844562"
       sodipodi:cy="290.2648"
       sodipodi:r1="15.395931"
       sodipodi:r2="13.333267"
       sodipodi:arg1="0.45277847"
       sodipodi:arg2="0.97637725"
       inkscape:flatsided="true"
       inkscape:rounded="0"
       inkscape:randomized="0"
       d="M 3.3868034e-8,296.99999 -12.755128,305.62214 l -13.844562,-6.73519 -1.089433,-15.35734 12.755128,-8.62215 13.8445617,6.7352 z"
       inkscape:transform-center-x="19.929015"
       inkscape:transform-center-y="-11.506028"
       transform="matrix(1.4909368,0.10576543,-0.10576543,1.4909368,73.291349,-405.9022)" />
  </g>
  <g
     inkscape:groupmode="layer"
     id="layer3"
     inkscape:label="Layer 3">
    <g
       id="g101"
       transform="matrix(0.21212168,0,0,0.21212168,-44.105964,4.4519237)">
      <circle
         style="fill:#e31e25;fill-opacity:1;stroke:none;stroke-width:0.97717059"
         cx="311.40601"
         cy="98.754997"
         r="88.480835"
         id="circle77" />
    </g>
    <g
       id="g113"
       transform="matrix(0.21337554,0,0,0.21337554,-0.23828187,4.1595314)">
      <path
         id="path105"
         d="m 77.079,146.727 c -0.852,1.418 -1.701,2.128 -2.979,2.128 h -2.412 c -1.844,0 -3.404,-1.986 -2.27,-3.974 L 129.971,51.67 c 0.85,-1.418 1.844,-2.129 3.119,-2.129 h 2.129 c 1.846,0 3.264,1.987 2.271,3.973 z"
         inkscape:connector-curvature="0"
         style="fill:#ffffff" />
      <g
         id="g109">
        <path
           id="path107"
           d="m 117.042,144.744 v -39.65 c 0,-0.684 0.559,-1.242 1.244,-1.242 h 15.115 c 7.211,0 12.186,5.322 13.057,12.536 0.623,4.975 0.561,11.741 0,16.716 -0.809,7.15 -5.846,12.884 -13.057,12.884 h -15.115 c -0.686,-0.001 -1.244,-0.561 -1.244,-1.244 z m 14.97,-5.881 c 3.791,0 6.715,-3.247 7.148,-6.978 0.623,-4.975 0.623,-9.307 0,-14.281 -0.434,-3.73 -3.357,-6.629 -7.148,-6.629 h -7.053 c -0.373,0 -0.621,0.249 -0.621,0.622 v 26.644 c 0,0.372 0.248,0.622 0.621,0.622 0.249,0 7.053,0 7.053,0 z"
           inkscape:connector-curvature="0"
           style="fill:#ffffff" />
      </g>
      <path
         id="path111"
         d="m 92.834,68.639 c -1.135,-9.08 -7.379,-14.896 -15.891,-14.896 -9.363,0 -15.039,7.235 -16.033,14.896 -0.707,5.675 -0.707,8.513 0,14.188 1.137,9.222 7.52,14.897 16.033,14.897 9.363,0 15.039,-7.094 15.891,-14.897 0.709,-5.676 0.709,-8.514 0,-14.188 z m -7.945,14.33 c -0.568,3.973 -3.547,7.235 -7.945,7.235 -5.107,0 -7.379,-3.973 -7.945,-7.235 -0.709,-4.398 -0.709,-9.932 0,-14.613 0.566,-3.831 3.547,-6.952 7.945,-6.952 5.107,0 7.52,3.973 7.945,6.952 0.709,4.681 0.709,10.214 0,14.613 z"
         inkscape:connector-curvature="0"
         style="fill:#ffffff" />
    </g>
  </g>
</svg>
