<?xml version="1.0" encoding="UTF-8" standalone="no"?>
<svg width="386px" height="443px" viewBox="0 0 386 443" version="1.1" xmlns="http://www.w3.org/2000/svg" xmlns:xlink="http://www.w3.org/1999/xlink" xmlns:sketch="http://www.bohemiancoding.com/sketch/ns">
    <!-- Generator: Sketch 3.5.1 (25234) - http://www.bohemiancoding.com/sketch -->
    <title>base</title>
    <desc>Created with Sketch.</desc>
    <defs></defs>
    <g id="Page-1" stroke="none" stroke-width="1" fill="none" fill-rule="evenodd" sketch:type="MSPage">
        <g id="nodeschool_ba" sketch:type="MSLayerGroup" transform="translate(-50.000000, -16.000000)" fill="#FFFFFF">
            <g id="base" sketch:type="MSShapeGroup">
                <g id="Page-1">
                    <g id="base">
                        <path d="M246.4,17.4 C244.3,16.2 241.7,16.2 239.6,17.4 L54,124.5 C51.9,125.7 50.6,128 50.6,130.4 L50.6,344.7 C50.6,347.1 51.9,349.4 54,350.6 L239.6,457.7 C240.7,458.3 241.8,458.6 243,458.6 C244.2,458.6 245.4,458.3 246.4,457.7 L432,350.6 C434.1,349.4 435.4,347.1 435.4,344.7 L435.4,130.4 C435.4,128 434.1,125.7 432,124.5 L246.4,17.4 L246.4,17.4 Z" id="background"></path>
                        <path d="M427,343.79958 L243.049582,450 L59,343.79958 L59,131.29958 L243.049582,25 L427,131.29958 L427,343.79958 L427,343.79958 Z" id="foreground"></path>
                    </g>
                </g>
            </g>
        </g>
        <path d="M214.2,253.348837 L204.6,253.348837 L204.6,291.674419 L195,291.674419 L175.8,291.674419 L166.2,291.674419 L166.2,301.255814 L168.877148,301.255814 L166.2,301.255814 L166.2,308.595435 L166.2,310.837209 L156.6,310.837209 L156.6,320.418605 L166.2,320.418605 L166.2,330 L161.4,330 L147,330 L147,291.674419 L137.4,291.674419 L137.4,286.118407 L137.4,284.488372 L137.4,279.697674 L137.4,274.906977 L137.4,267.72093 L130.2,267.72093 L125.4,267.72093 L118.2,267.72093 L118.2,268.518581 L118.2,262.930233 L110.2008,262.930233 L108.6,262.930233 L108.6,256.674779 L108.6,253.348837 L99,253.348837 L99,195.860465 L108.6,195.860465 L108.6,215.023256 L108.6,224.604651 L118.2,224.604651 L118.2,222.055728 L118.2,224.604651 L125.677148,224.604651 L127.8,224.604651 L127.8,234.186047 L147,234.186047 L147,224.604651 L153.707787,224.604651 L156.6,224.604651 L156.6,217.052082 L156.6,210.232558 L166.2,210.232558 L166.2,211.216252 L166.2,210.232558 L167.7336,210.232558 L171,210.232558 L171,204.806503 L171,200.651163 L177.760032,200.651163 L179.720063,200.651163 L185.4,200.651163 L185.4,195.372168 L185.4,191.069767 L195,191.069767 L195,193.465116 L195,133.581395 L197.4,133.581395 L204.6,133.581395 L204.6,124 L279,124 L276.6,124 L276.6,133.581395 L286.2,133.581395 L291,133.581395 L291,176.697674 L243,176.697674 L243,186.27907 L271.8,186.27907 L271.8,195.860465 L233.4,195.860465 L233.4,215.023256 L252.6,215.023256 L252.6,229.395349 L252.6,234.186047 L243,234.186047 L243,227.341138 L243,224.604651 L233.4,224.604651 L233.4,253.348837 L223.8,253.348837 L223.8,258.139535 L214.2,258.139535 L214.2,253.348837 L214.2,253.348837 L214.2,253.348837 L214.2,253.348837 L214.2,253.348837 Z M214.2,133.581395 L223.8,133.581395 L223.8,143.162791 L214.2,143.162791 L214.2,133.581395 L214.2,133.581395 L214.2,133.581395 L214.2,133.581395 L214.2,133.581395 Z M118.2,215.023256 L118.2,224.604651 L108.6,224.604651 L108.6,215.023256 L118.2,215.023256 L118.2,215.023256 L118.2,215.023256 L118.2,215.023256 L118.2,215.023256 Z M233.4,253.348837 L233.4,262.930233 L223.8,262.930233 L223.8,253.348837 L233.4,253.348837 L233.4,253.348837 L233.4,253.348837 L233.4,253.348837 L233.4,253.348837 Z M214.2,260.534884 L214.2,253.348837 L204.6,253.348837 L204.6,260.534884 L204.6,267.72093 L214.2,267.72093 L214.2,260.534884 L214.2,260.534884 L214.2,260.534884 Z M137.4,274.906977 L137.4,267.72093 L127.8,267.72093 L127.8,274.906977 L127.8,282.093023 L137.4,282.093023 L137.4,274.906977 L137.4,274.906977 L137.4,274.906977 Z M166.2,291.674419 L175.8,291.674419 L175.8,301.255814 L166.2,301.255814 L166.2,291.674419 L166.2,291.674419 L166.2,291.674419 L166.2,291.674419 L166.2,291.674419 Z M185.4,291.674419 L195,291.674419 L195,301.255814 L185.4,301.255814 L185.4,291.674419 L185.4,291.674419 L185.4,291.674419 L185.4,291.674419 L185.4,291.674419 Z M195,291.674419 L204.6,291.674419 L204.6,301.255814 L195,301.255814 L195,291.674419 L195,291.674419 L195,291.674419 L195,291.674419 L195,291.674419 Z M195,301.255814 L204.6,301.255814 L204.6,310.837209 L195,310.837209 L195,301.255814 L195,301.255814 L195,301.255814 L195,301.255814 L195,301.255814 Z M195,310.837209 L204.6,310.837209 L204.6,320.418605 L195,320.418605 L195,310.837209 L195,310.837209 L195,310.837209 L195,310.837209 L195,310.837209 Z M195,320.418605 L204.6,320.418605 L204.6,330 L195,330 L195,320.418605 L195,320.418605 L195,320.418605 L195,320.418605 L195,320.418605 Z M204.6,320.418605 L214.2,320.418605 L214.2,330 L204.6,330 L204.6,320.418605 L204.6,320.418605 L204.6,320.418605 L204.6,320.418605 L204.6,320.418605 Z M214.2,258.139535 L223.8,258.139535 L223.8,267.72093 L214.2,267.72093 L214.2,258.139535 L214.2,258.139535 L214.2,258.139535 L214.2,258.139535 L214.2,258.139535 Z M204.6,267.72093 L214.2,267.72093 L214.2,277.302326 L204.6,277.302326 L204.6,267.72093 L204.6,267.72093 L204.6,267.72093 L204.6,267.72093 L204.6,267.72093 Z M204.6,277.302326 L214.2,277.302326 L214.2,286.883721 L204.6,286.883721 L204.6,277.302326 L204.6,277.302326 L204.6,277.302326 L204.6,277.302326 L204.6,277.302326 Z M214.2,267.72093 L223.8,267.72093 L223.8,277.302326 L214.2,277.302326 L214.2,267.72093 L214.2,267.72093 L214.2,267.72093 L214.2,267.72093 L214.2,267.72093 Z" id="Path" fill="#535353" sketch:type="MSShapeGroup"></path>
        <path d="M128.8,263.674419 L128.8,273.255814 L118.2,273.255814 L118.2,263.674419 L128.8,263.674419 Z" id="Path" fill="#535353" sketch:type="MSShapeGroup"></path>
        <path d="M225.60274,299.5 L312.472566,299.5" id="Line" stroke="#535353" stroke-width="4.8" stroke-linecap="square" sketch:type="MSShapeGroup"></path>
        <path d="M77,299 L125,299" id="Line" stroke="#535353" stroke-width="4.8" stroke-linecap="square" sketch:type="MSShapeGroup"></path>
        <path d="M113,313 L131,313" id="Line" stroke="#535353" stroke-width="4.8" stroke-linecap="square" sketch:type="MSShapeGroup"></path>
        <path d="M72,324 L90,324" id="Line" stroke="#535353" stroke-width="4.8" stroke-linecap="square" sketch:type="MSShapeGroup"></path>
        <path d="M288,324 L294,324" id="Line" stroke="#535353" stroke-width="4.8" stroke-linecap="square" sketch:type="MSShapeGroup"></path>
    </g>
</svg>