<?xml version="1.0" encoding="UTF-8" standalone="no"?>
<!-- Created with Inkscape (http://www.inkscape.org/) -->

<svg
   xmlns:osb="http://www.openswatchbook.org/uri/2009/osb"
   xmlns:dc="http://purl.org/dc/elements/1.1/"
   xmlns:cc="http://creativecommons.org/ns#"
   xmlns:rdf="http://www.w3.org/1999/02/22-rdf-syntax-ns#"
   xmlns:svg="http://www.w3.org/2000/svg"
   xmlns="http://www.w3.org/2000/svg"
   xmlns:sodipodi="http://sodipodi.sourceforge.net/DTD/sodipodi-0.dtd"
   xmlns:inkscape="http://www.inkscape.org/namespaces/inkscape"
   width="43.900002mm"
   height="50.799999mm"
   viewBox="0 0 43.900002 50.799999"
   version="1.1"
   id="svg8"
   sodipodi:docname="onia.svg"
   inkscape:version="0.92.4 (5da689c313, 2019-01-14)"
   inkscape:export-filename="C:\Users\Oleg\Desktop\Stickers\READY\onia.png"
   inkscape:export-xdpi="104.50001"
   inkscape:export-ydpi="104.50001">
  <defs
     id="defs2">
    <linearGradient
       id="linearGradient4541"
       osb:paint="solid">
      <stop
         style="stop-color:#000000;stop-opacity:1;"
         offset="0"
         id="stop4539" />
    </linearGradient>
    <clipPath
       id="clipPath96"
       clipPathUnits="userSpaceOnUse">
      <path
         inkscape:connector-curvature="0"
         id="path94"
         d="M 0,144 H 124.708 V 0 H 0 Z" />
    </clipPath>
    <clipPath
       id="clipPath364"
       clipPathUnits="userSpaceOnUse">
      <path
         inkscape:connector-curvature="0"
         id="path362"
         d="M 0,144 H 124.708 V 0 H 0 Z" />
    </clipPath>
  </defs>
  <sodipodi:namedview
     id="base"
     pagecolor="#ffffff"
     bordercolor="#666666"
     borderopacity="1.0"
     inkscape:pageopacity="0"
     inkscape:pageshadow="2"
     inkscape:zoom="3.6203869"
     inkscape:cx="81.160916"
     inkscape:cy="83.812471"
     inkscape:document-units="mm"
     inkscape:current-layer="layer3"
     showgrid="false"
     units="in"
     inkscape:window-width="1347"
     inkscape:window-height="1044"
     inkscape:window-x="457"
     inkscape:window-y="12"
     inkscape:window-maximized="0"
     inkscape:snap-center="true"
     inkscape:snap-object-midpoints="true"
     inkscape:snap-page="true"
     inkscape:pagecheckerboard="true" />
  <metadata
     id="metadata5">
    <rdf:RDF>
      <cc:Work
         rdf:about="">
        <dc:format>image/svg+xml</dc:format>
        <dc:type
           rdf:resource="http://purl.org/dc/dcmitype/StillImage" />
        <dc:title></dc:title>
      </cc:Work>
    </rdf:RDF>
  </metadata>
  <g
     inkscape:label="Layer 1"
     inkscape:groupmode="layer"
     id="layer1"
     transform="translate(0,-246.2)">
    <path
       sodipodi:type="star"
       style="fill:#ffffec;fill-opacity:1;stroke:none;stroke-width:4;stroke-miterlimit:4;stroke-dasharray:none;stroke-dashoffset:0;stroke-opacity:1"
       id="path4596"
       sodipodi:sides="6"
       sodipodi:cx="160.07291"
       sodipodi:cy="148.03957"
       sodipodi:r1="59.309753"
       sodipodi:r2="51.363758"
       sodipodi:arg1="0.57018301"
       sodipodi:arg2="1.0937818"
       inkscape:flatsided="true"
       inkscape:rounded="0"
       inkscape:randomized="0"
       d="m 209.99999,180.05415 -52.68898,27.23083 -49.92708,-32.01458 2.7619,-59.24542 52.68898,-27.230825 49.92708,32.014585 z"
       inkscape:transform-center-x="21.95"
       inkscape:transform-center-y="-12.700002"
       transform="matrix(0.42688065,-0.01994286,0.01990022,0.42779545,-49.328054,211.46166)" />
  </g>
  <g
     inkscape:groupmode="layer"
     id="layer2"
     inkscape:label="Layer 2" />
  <g
     inkscape:groupmode="layer"
     id="layer3"
     inkscape:label="Layer 3">
    <g
       id="g4552"
       transform="matrix(0.93952007,0,0,0.93952007,4.4413069,6.7162142)">
      <g
         id="g20"
         transform="matrix(0.35277777,0,0,-0.35277777,-3.3612323,45.310969)" />
      <g
         id="g70"
         transform="matrix(0.35277777,0,0,-0.35277777,18.550465,-5.4890306)">
        <path
           d="m 0,0 -62.112,-35.86 v -72.002 l 62.352,-35.999 62.354,36 v 72 L 0.48,0 Z"
           style="fill:#ffffff;fill-opacity:1;fill-rule:nonzero;stroke:none"
           id="path72"
           inkscape:connector-curvature="0" />
      </g>
      <g
         id="g74"
         transform="matrix(0.35277777,0,0,-0.35277777,18.550465,-5.4890306)">
        <path
           d="m 0,0 -62.112,-35.86 v -72.002 l 62.352,-35.999 62.354,36 v 72 L 0.48,0 Z"
           style="fill:#1d1d1b;fill-opacity:1;fill-rule:nonzero;stroke:none"
           id="path76"
           inkscape:connector-curvature="0" />
      </g>
      <g
         id="g78"
         transform="matrix(0.35277777,0,0,-0.35277777,18.5511,-5.4890306)">
        <path
           d="m 0,0 -62.114,-35.861 v -72 l 62.354,-36 62.354,36 v 72 L 0.48,0 Z"
           style="fill:#310f4c;fill-opacity:1;fill-rule:nonzero;stroke:none"
           id="path80"
           inkscape:connector-curvature="0" />
      </g>
      <g
         id="g82"
         transform="matrix(0.35277777,0,0,-0.35277777,18.5511,-5.4890306)">
        <path
           d="m 0,0 -62.114,-35.861 62.354,-36 62.354,36 L 0.48,0 Z"
           style="fill:#5e377d;fill-opacity:1;fill-rule:nonzero;stroke:none"
           id="path84"
           inkscape:connector-curvature="0" />
      </g>
      <g
         id="g86"
         transform="matrix(0.35277777,0,0,-0.35277777,18.635803,19.862073)">
        <path
           d="m 0,0 v -72 l 62.354,36 v 72 z"
           style="fill:#745192;fill-opacity:1;fill-rule:nonzero;stroke:none"
           id="path88"
           inkscape:connector-curvature="0" />
      </g>
      <g
         id="g90"
         transform="matrix(0.35277777,0,0,-0.35277777,-3.3612323,45.310969)">
        <g
           id="g92"
           clip-path="url(#clipPath96)">
          <g
             id="g98"
             transform="translate(119.5838,36.7219)">
            <path
               d="m 0,0 -55.173,-31.854 c -1.273,-0.735 -2.841,-0.735 -4.114,0 L -114.46,0 c -1.273,0.735 -2.057,2.093 -2.057,3.563 v 63.708 c 0,1.47 0.784,2.828 2.057,3.562 l 55.173,31.855 c 1.273,0.735 2.841,0.735 4.114,0 L 0,70.833 C 1.273,70.099 2.057,68.741 2.057,67.271 V 3.563 C 2.057,2.093 1.273,0.735 0,0"
               style="fill:#1d1d1b;fill-opacity:1;fill-rule:nonzero;stroke:none"
               id="path100"
               inkscape:connector-curvature="0" />
          </g>
          <g
             id="g102"
             transform="translate(64.2894,8.2685)">
            <path
               d="m 0,0 c 0.279,-0.491 0.529,-0.618 0.796,-0.467 0.266,0.153 0.278,0.44 0.006,0.918 C 0.521,0.942 0.272,1.071 0.006,0.919 -0.26,0.768 -0.272,0.479 0,0 M 1.484,0.841 C 1.888,0.133 1.745,-0.565 1.07,-0.95 0.4,-1.332 -0.258,-1.134 -0.682,-0.389 -1.085,0.319 -0.943,1.019 -0.269,1.402 0.405,1.787 1.061,1.586 1.484,0.841"
               style="fill:#ffffff;fill-opacity:1;fill-rule:nonzero;stroke:none"
               id="path104"
               inkscape:connector-curvature="0" />
          </g>
          <g
             id="g106"
             transform="translate(67.556,10.124)">
            <path
               d="M 0,0 C -0.313,0.55 -0.53,0.619 -0.746,0.496 -0.9,0.408 -0.979,0.236 -0.981,0.02 l 0.531,-0.934 c 0.167,-0.08 0.31,-0.08 0.448,-0.002 C 0.243,-0.775 0.282,-0.496 0,0 M 0.678,0.397 C 1.067,-0.286 1.019,-0.975 0.473,-1.285 0.256,-1.408 0.03,-1.437 -0.194,-1.363 l 0.576,-1.012 -0.617,-0.444 -1.786,3.134 0.579,0.33 0.172,-0.226 c 0.052,0.333 0.241,0.556 0.457,0.679 0.57,0.325 1.084,0.015 1.491,-0.701"
               style="fill:#ffffff;fill-opacity:1;fill-rule:nonzero;stroke:none"
               id="path108"
               inkscape:connector-curvature="0" />
          </g>
          <g
             id="g110"
             transform="translate(69.8002,11.7119)">
            <path
               d="m 0,0 c -0.175,0.297 -0.385,0.452 -0.647,0.303 -0.221,-0.126 -0.27,-0.34 -0.074,-0.752 l 0.738,0.42 z m 0.875,-0.064 -1.37,-0.781 c 0.271,-0.37 0.52,-0.371 0.791,-0.217 0.179,0.102 0.302,0.254 0.417,0.497 L 1.192,-0.776 C 1.071,-1.077 0.864,-1.372 0.506,-1.576 -0.231,-1.996 -0.876,-1.734 -1.27,-1.044 -1.646,-0.382 -1.583,0.35 -0.913,0.731 -0.28,1.092 0.344,0.896 0.752,0.18 0.792,0.109 0.846,0.006 0.875,-0.064"
               style="fill:#ffffff;fill-opacity:1;fill-rule:nonzero;stroke:none"
               id="path112"
               inkscape:connector-curvature="0" />
          </g>
          <g
             id="g114"
             transform="translate(72.5629,13.6552)">
            <path
               d="m 0,0 0.921,-1.616 -0.657,-0.375 -0.857,1.503 c -0.133,0.233 -0.248,0.251 -0.377,0.177 -0.145,-0.083 -0.207,-0.254 -0.218,-0.504 l 0.86,-1.512 -0.658,-0.375 -1.259,2.211 0.574,0.327 0.195,-0.236 c 0.062,0.327 0.21,0.561 0.485,0.717 C -0.607,0.536 -0.238,0.42 0,0"
               style="fill:#ffffff;fill-opacity:1;fill-rule:nonzero;stroke:none"
               id="path116"
               inkscape:connector-curvature="0" />
          </g>
          <g
             id="g118"
             transform="translate(74.8441,14.8769)">
            <path
               d="m 0,0 0.888,-1.558 -0.242,-0.136 -0.868,1.523 c -0.204,0.359 -0.432,0.42 -0.699,0.269 -0.296,-0.168 -0.391,-0.466 -0.418,-0.833 l 0.899,-1.578 -0.242,-0.138 -1.24,2.178 0.208,0.118 0.235,-0.357 C -1.45,-0.164 -1.303,0.14 -0.986,0.32 -0.592,0.546 -0.238,0.42 0,0"
               style="fill:#ffffff;fill-opacity:1;fill-rule:nonzero;stroke:none"
               id="path120"
               inkscape:connector-curvature="0" />
          </g>
          <g
             id="g122"
             transform="translate(77.1918,15.7997)">
            <path
               d="M 0,0 C -0.271,0.475 -0.635,0.67 -1.047,0.436 -1.389,0.24 -1.5,-0.154 -1.188,-0.759 l 1.223,0.697 z m 0.371,-0.118 -1.453,-0.827 c 0.366,-0.576 0.781,-0.665 1.156,-0.451 0.237,0.134 0.352,0.299 0.463,0.55 L 0.738,-0.937 C 0.629,-1.219 0.465,-1.444 0.177,-1.608 c -0.574,-0.328 -1.161,-0.11 -1.56,0.589 -0.395,0.696 -0.319,1.346 0.213,1.65 0.566,0.322 1.084,0.071 1.449,-0.569 0.039,-0.068 0.073,-0.136 0.092,-0.18"
               style="fill:#ffffff;fill-opacity:1;fill-rule:nonzero;stroke:none"
               id="path124"
               inkscape:connector-curvature="0" />
          </g>
          <g
             id="g126"
             transform="translate(79.764,15.7372)">
            <path
               d="m 0,0 c -0.084,-0.162 -0.205,-0.299 -0.381,-0.398 -0.328,-0.188 -0.643,-0.108 -0.859,0.271 l -0.828,1.453 -0.367,-0.209 -0.111,0.196 0.366,0.208 -0.296,0.522 0.224,0.166 0.315,-0.55 0.561,0.32 0.082,-0.212 -0.532,-0.304 0.82,-1.44 c 0.145,-0.253 0.317,-0.322 0.536,-0.197 0.121,0.07 0.206,0.162 0.279,0.286 z"
               style="fill:#ffffff;fill-opacity:1;fill-rule:nonzero;stroke:none"
               id="path128"
               inkscape:connector-curvature="0" />
          </g>
          <g
             id="g130"
             transform="translate(82.0726,16.9316)">
            <path
               d="m 0,0 -0.325,-0.186 -1.596,1.679 0.622,-2.233 -0.321,-0.183 -1.785,1.867 0.249,0.143 1.599,-1.725 -0.625,2.28 0.276,0.156 1.635,-1.709 -0.674,2.257 0.237,0.135 z"
               style="fill:#ffffff;fill-opacity:1;fill-rule:nonzero;stroke:none"
               id="path132"
               inkscape:connector-curvature="0" />
          </g>
          <g
             id="g134"
             transform="translate(82.6146,18.6796)">
            <path
               d="M 0,0 C 0.349,-0.612 0.774,-0.788 1.191,-0.552 1.607,-0.314 1.684,0.143 1.327,0.767 0.979,1.38 0.556,1.552 0.135,1.312 -0.277,1.077 -0.355,0.624 0,0 m 1.582,0.911 c 0.4,-0.703 0.3,-1.34 -0.275,-1.667 -0.579,-0.329 -1.166,-0.09 -1.566,0.61 -0.398,0.699 -0.293,1.337 0.278,1.663 0.578,0.329 1.157,0.106 1.563,-0.606"
               style="fill:#ffffff;fill-opacity:1;fill-rule:nonzero;stroke:none"
               id="path136"
               inkscape:connector-curvature="0" />
          </g>
          <g
             id="g138"
             transform="translate(85.3373,21.7021)">
            <path
               d="M 0,0 0.084,-0.254 C 0.013,-0.273 -0.046,-0.296 -0.121,-0.339 -0.425,-0.512 -0.465,-0.82 -0.327,-1.333 l 0.759,-1.332 -0.242,-0.138 -1.24,2.178 0.208,0.119 0.298,-0.475 c -0.088,0.424 0.009,0.71 0.313,0.883 C -0.147,-0.05 -0.068,-0.017 0,0"
               style="fill:#ffffff;fill-opacity:1;fill-rule:nonzero;stroke:none"
               id="path140"
               inkscape:connector-curvature="0" />
          </g>
          <g
             id="g142"
             transform="translate(86.9398,21.2978)">
            <path
               d="M 0,0 1.697,-0.627 1.406,-0.793 -0.271,-0.172 0.082,1.337 0.361,1.496 Z M 0.382,-1.377 0.141,-1.514 -1.605,1.551 -1.38,1.717 Z"
               style="fill:#ffffff;fill-opacity:1;fill-rule:nonzero;stroke:none"
               id="path144"
               inkscape:connector-curvature="0" />
          </g>
          <g
             id="g146"
             transform="translate(89.2533,21.0214)">
            <path
               d="m 0,0 -0.092,-0.052 -1.23,2.161 0.092,0.052 z M -1.628,2.956 C -1.604,2.914 -1.612,2.86 -1.671,2.827 -1.721,2.798 -1.775,2.816 -1.799,2.858 c -0.023,0.041 -0.013,0.102 0.036,0.131 0.059,0.033 0.112,0.008 0.135,-0.033"
               style="fill:#ffffff;fill-opacity:1;fill-rule:nonzero;stroke:none"
               id="path148"
               inkscape:connector-curvature="0" />
          </g>
          <g
             id="g150"
             transform="translate(90.8217,23.9501)">
            <path
               d="M 0,0 0.875,-1.536 0.784,-1.589 -0.087,-0.061 C -0.31,0.331 -0.581,0.44 -0.91,0.253 -1.26,0.054 -1.379,-0.289 -1.405,-0.718 l 0.911,-1.598 -0.092,-0.053 -1.23,2.162 0.079,0.045 0.259,-0.438 c 0.03,0.405 0.179,0.742 0.52,0.936 C -0.562,0.562 -0.242,0.425 0,0"
               style="fill:#ffffff;fill-opacity:1;fill-rule:nonzero;stroke:none"
               id="path152"
               inkscape:connector-curvature="0" />
          </g>
          <g
             id="g154"
             transform="translate(91.3021,25.5742)">
            <path
               d="m 0,0 0.226,-0.395 0.612,0.349 0.03,-0.094 -0.596,-0.339 1.184,-2.077 -0.092,-0.052 -1.182,2.078 -0.375,-0.214 -0.048,0.084 0.375,0.214 -0.233,0.408 c -0.185,0.324 -0.076,0.617 0.228,0.79 0.175,0.1 0.374,0.147 0.557,0.146 L 0.692,0.808 C 0.515,0.801 0.349,0.763 0.187,0.67 -0.071,0.522 -0.171,0.301 0,0"
               style="fill:#ffffff;fill-opacity:1;fill-rule:nonzero;stroke:none"
               id="path156"
               inkscape:connector-curvature="0" />
          </g>
          <g
             id="g158"
             transform="translate(93.6371,26.4033)">
            <path
               d="M 0,0 0.024,-0.091 C -0.037,-0.11 -0.104,-0.137 -0.179,-0.18 -0.504,-0.364 -0.557,-0.687 -0.429,-1.231 l 0.816,-1.433 -0.092,-0.052 -1.231,2.161 0.081,0.045 0.308,-0.535 c -0.104,0.465 -0.009,0.761 0.32,0.948 C -0.131,-0.042 -0.057,-0.016 0,0"
               style="fill:#ffffff;fill-opacity:1;fill-rule:nonzero;stroke:none"
               id="path160"
               inkscape:connector-curvature="0" />
          </g>
          <g
             id="g162"
             transform="translate(96.1351,25.5986)">
            <path
               d="M 0,0 -0.4,0.703 -0.875,0.434 c -0.475,-0.271 -0.65,-0.64 -0.424,-1.037 0.194,-0.341 0.524,-0.435 0.864,-0.241 C -0.098,-0.651 0.018,-0.359 0,0 m 0.556,-0.308 0.012,-0.079 c -0.201,-0.044 -0.338,0.022 -0.489,0.278 0.003,-0.363 -0.143,-0.639 -0.464,-0.822 -0.408,-0.232 -0.796,-0.112 -1.014,0.271 -0.252,0.441 -0.052,0.875 0.46,1.167 l 0.492,0.28 -0.148,0.258 C -0.809,1.42 -1.062,1.545 -1.479,1.308 -1.67,1.199 -1.832,1.04 -1.995,0.831 L -2.07,0.895 c 0.17,0.217 0.337,0.377 0.545,0.496 0.458,0.261 0.775,0.139 1.017,-0.286 L 0.113,0.016 c 0.164,-0.288 0.273,-0.354 0.443,-0.324"
               style="fill:#ffffff;fill-opacity:1;fill-rule:nonzero;stroke:none"
               id="path164"
               inkscape:connector-curvature="0" />
          </g>
          <g
             id="g166"
             transform="translate(97.4291,28.2929)">
            <path
               d="m 0,0 -0.016,-0.097 c -0.264,0.037 -0.462,0.018 -0.704,-0.12 -0.324,-0.185 -0.467,-0.497 -0.309,-0.772 0.144,-0.254 0.37,-0.274 0.866,-0.147 0.562,0.145 0.824,0.112 1.028,-0.247 0.203,-0.357 0.05,-0.764 -0.362,-0.999 -0.338,-0.192 -0.614,-0.19 -0.885,-0.14 l 0.018,0.092 c 0.275,-0.047 0.51,-0.041 0.817,0.135 0.346,0.196 0.504,0.529 0.317,0.858 -0.178,0.312 -0.388,0.341 -0.933,0.204 -0.525,-0.141 -0.797,-0.102 -0.962,0.189 -0.181,0.316 -0.013,0.699 0.354,0.907 C -0.513,0.011 -0.278,0.046 0,0"
               style="fill:#ffffff;fill-opacity:1;fill-rule:nonzero;stroke:none"
               id="path168"
               inkscape:connector-curvature="0" />
          </g>
          <g
             id="g170"
             transform="translate(100.1801,27.3554)">
            <path
               d="m 0,0 c -0.072,-0.134 -0.176,-0.264 -0.35,-0.363 -0.287,-0.163 -0.568,-0.087 -0.767,0.262 l -0.906,1.59 -0.358,-0.204 -0.047,0.084 0.358,0.204 -0.311,0.545 0.086,0.062 0.316,-0.554 0.6,0.341 0.03,-0.093 -0.583,-0.332 0.905,-1.586 c 0.165,-0.291 0.382,-0.372 0.636,-0.227 0.15,0.084 0.241,0.197 0.309,0.319 z"
               style="fill:#ffffff;fill-opacity:1;fill-rule:nonzero;stroke:none"
               id="path172"
               inkscape:connector-curvature="0" />
          </g>
          <g
             id="g174"
             transform="translate(100.4193,30.2665)">
            <path
               d="M 0,0 0.023,-0.092 C -0.037,-0.11 -0.104,-0.137 -0.18,-0.18 -0.505,-0.365 -0.558,-0.687 -0.43,-1.231 l 0.817,-1.433 -0.092,-0.053 -1.231,2.162 0.08,0.045 0.309,-0.535 c -0.104,0.464 -0.009,0.761 0.32,0.948 C -0.131,-0.042 -0.058,-0.016 0,0"
               style="fill:#ffffff;fill-opacity:1;fill-rule:nonzero;stroke:none"
               id="path176"
               inkscape:connector-curvature="0" />
          </g>
          <g
             id="g178"
             transform="translate(103.641,29.2177)">
            <path
               d="M 0,0 -0.084,-0.048 -0.335,0.394 C -0.33,0.038 -0.451,-0.312 -0.81,-0.516 -1.192,-0.734 -1.55,-0.629 -1.794,-0.201 L -2.671,1.34 -2.58,1.393 -1.707,-0.14 c 0.225,-0.395 0.523,-0.473 0.861,-0.282 0.332,0.19 0.439,0.526 0.439,0.924 l -0.915,1.606 0.092,0.053 z"
               style="fill:#ffffff;fill-opacity:1;fill-rule:nonzero;stroke:none"
               id="path180"
               inkscape:connector-curvature="0" />
          </g>
          <g
             id="g182"
             transform="translate(104.7318,32.4804)">
            <path
               d="m 0,0 -0.019,-0.094 c -0.206,0.043 -0.398,0.022 -0.61,-0.099 -0.458,-0.261 -0.574,-0.812 -0.184,-1.494 0.383,-0.675 0.912,-0.837 1.361,-0.582 0.224,0.128 0.346,0.302 0.415,0.5 l 0.089,-0.03 C 0.979,-2.018 0.843,-2.216 0.602,-2.354 0.081,-2.649 -0.507,-2.45 -0.909,-1.742 c -0.402,0.703 -0.3,1.328 0.228,1.63 C -0.447,0.021 -0.245,0.054 0,0"
               style="fill:#ffffff;fill-opacity:1;fill-rule:nonzero;stroke:none"
               id="path184"
               inkscape:connector-curvature="0" />
          </g>
          <g
             id="g186"
             transform="translate(107.3646,31.4482)">
            <path
               d="m 0,0 c -0.072,-0.134 -0.175,-0.264 -0.35,-0.363 -0.287,-0.163 -0.567,-0.087 -0.766,0.262 l -0.906,1.59 -0.358,-0.204 -0.048,0.084 0.359,0.204 -0.312,0.545 0.087,0.062 0.316,-0.554 0.6,0.341 0.03,-0.093 -0.583,-0.332 0.904,-1.586 c 0.165,-0.291 0.382,-0.372 0.636,-0.227 0.151,0.085 0.241,0.197 0.309,0.319 z"
               style="fill:#ffffff;fill-opacity:1;fill-rule:nonzero;stroke:none"
               id="path188"
               inkscape:connector-curvature="0" />
          </g>
          <g
             id="g190"
             transform="translate(109.3187,32.4521)">
            <path
               d="m 0,0 -0.083,-0.048 -0.252,0.442 c 0.005,-0.356 -0.116,-0.706 -0.474,-0.91 -0.383,-0.218 -0.741,-0.113 -0.985,0.315 l -0.877,1.541 0.092,0.053 0.872,-1.533 c 0.226,-0.395 0.523,-0.473 0.861,-0.282 0.333,0.19 0.44,0.526 0.439,0.924 l -0.915,1.606 0.092,0.053 z"
               style="fill:#ffffff;fill-opacity:1;fill-rule:nonzero;stroke:none"
               id="path192"
               inkscape:connector-curvature="0" />
          </g>
          <g
             id="g194"
             transform="translate(110.0023,35.7255)">
            <path
               d="M 0,0 0.023,-0.092 C -0.037,-0.11 -0.104,-0.138 -0.18,-0.18 -0.504,-0.365 -0.557,-0.687 -0.43,-1.231 l 0.817,-1.433 -0.092,-0.053 -1.231,2.161 0.08,0.046 0.309,-0.535 c -0.104,0.464 -0.009,0.761 0.32,0.948 C -0.131,-0.043 -0.058,-0.017 0,0"
               style="fill:#ffffff;fill-opacity:1;fill-rule:nonzero;stroke:none"
               id="path196"
               inkscape:connector-curvature="0" />
          </g>
          <g
             id="g198"
             transform="translate(112.3226,35.7734)">
            <path
               d="M 0,0 C -0.299,0.524 -0.727,0.782 -1.201,0.512 -1.613,0.277 -1.742,-0.231 -1.363,-0.926 l 1.427,0.814 z m 0.193,-0.144 -1.511,-0.861 c 0.397,-0.65 0.886,-0.791 1.323,-0.542 0.259,0.147 0.377,0.325 0.476,0.587 L 0.572,-1.003 C 0.475,-1.268 0.334,-1.476 0.055,-1.634 c -0.525,-0.299 -1.092,-0.088 -1.491,0.612 -0.405,0.711 -0.32,1.328 0.179,1.612 0.533,0.304 1.025,0.032 1.368,-0.571 0.034,-0.058 0.06,-0.115 0.082,-0.163"
               style="fill:#ffffff;fill-opacity:1;fill-rule:nonzero;stroke:none"
               id="path200"
               inkscape:connector-curvature="0" />
          </g>
          <g
             id="g202"
             transform="translate(113.7523,35.0546)">
            <path
               d="m 0,0 c 0.028,-0.05 0.016,-0.113 -0.047,-0.148 -0.058,-0.034 -0.12,-0.013 -0.148,0.037 -0.034,0.057 -0.02,0.121 0.039,0.154 C -0.094,0.078 -0.033,0.058 0,0"
               style="fill:#ffffff;fill-opacity:1;fill-rule:nonzero;stroke:none"
               id="path204"
               inkscape:connector-curvature="0" />
          </g>
          <g
             id="g206"
             transform="translate(113.7709,36.4169)">
            <path
               d="M 0,0 C 0.374,-0.658 0.876,-0.87 1.354,-0.597 1.825,-0.329 1.916,0.209 1.529,0.887 1.152,1.549 0.656,1.751 0.178,1.479 -0.289,1.213 -0.386,0.678 0,0 M 1.625,0.941 C 2.035,0.222 1.929,-0.385 1.403,-0.684 0.866,-0.99 0.303,-0.755 -0.096,-0.055 -0.504,0.661 -0.39,1.266 0.13,1.562 0.659,1.863 1.217,1.657 1.625,0.941"
               style="fill:#ffffff;fill-opacity:1;fill-rule:nonzero;stroke:none"
               id="path208"
               inkscape:connector-curvature="0" />
          </g>
          <g
             id="g210"
             transform="translate(116.5131,39.4335)">
            <path
               d="m 0,0 0.024,-0.091 c -0.061,-0.018 -0.128,-0.046 -0.203,-0.088 -0.325,-0.185 -0.378,-0.508 -0.25,-1.051 l 0.816,-1.433 -0.092,-0.053 -1.231,2.161 0.08,0.045 0.31,-0.534 c -0.105,0.464 -0.01,0.761 0.319,0.947 C -0.131,-0.042 -0.058,-0.016 0,0"
               style="fill:#ffffff;fill-opacity:1;fill-rule:nonzero;stroke:none"
               id="path212"
               inkscape:connector-curvature="0" />
          </g>
          <g
             id="g214"
             transform="translate(117.2582,38.9482)">
            <path
               d="M 0,0 C 0.232,-0.407 0.65,-0.445 1.005,-0.244 1.404,-0.017 1.52,0.342 1.299,0.729 1.068,1.134 0.691,1.227 0.291,0.999 -0.133,0.757 -0.209,0.366 0,0 M 1.195,1.608 C 1.086,1.501 0.917,1.372 0.592,1.187 0.911,1.247 1.196,1.134 1.396,0.784 1.638,0.359 1.506,-0.068 1.052,-0.327 0.936,-0.394 0.817,-0.428 0.711,-0.444 0.62,-0.594 0.596,-0.746 0.672,-0.88 0.762,-1.038 0.943,-1.084 1.238,-0.916 l 0.363,0.207 C 2.009,-0.477 2.354,-0.55 2.524,-0.851 2.733,-1.217 2.586,-1.588 1.995,-1.924 1.396,-2.266 1.043,-2.256 0.804,-1.836 l 0.091,0.052 c 0.216,-0.362 0.492,-0.37 1.05,-0.052 0.541,0.308 0.665,0.621 0.491,0.93 -0.151,0.262 -0.444,0.304 -0.79,0.107 L 1.279,-1.007 c -0.328,-0.187 -0.582,-0.139 -0.695,0.06 -0.088,0.154 -0.055,0.328 0.033,0.494 -0.302,-0.013 -0.541,0.105 -0.709,0.4 -0.244,0.43 -0.118,0.876 0.332,1.132 0.627,0.353 0.726,0.459 0.865,0.609 z"
               style="fill:#ffffff;fill-opacity:1;fill-rule:nonzero;stroke:none"
               id="path216"
               inkscape:connector-curvature="0" />
          </g>
        </g>
      </g>
      <g
         id="g218"
         transform="matrix(0.35277777,0,0,-0.35277777,18.5511,-5.4890306)">
        <path
           d="m 0,0 -62.114,-35.861 v -72 l 62.354,-36 62.354,36 v 72 L 0.48,0 Z"
           style="fill:#310f4c;fill-opacity:1;fill-rule:nonzero;stroke:none"
           id="path220"
           inkscape:connector-curvature="0" />
      </g>
      <g
         id="g222"
         transform="matrix(0.35277777,0,0,-0.35277777,18.5511,-5.4890306)">
        <path
           d="m 0,0 -62.114,-35.861 62.354,-36 62.354,36 L 0.48,0 Z"
           style="fill:#5e377d;fill-opacity:1;fill-rule:nonzero;stroke:none"
           id="path224"
           inkscape:connector-curvature="0" />
      </g>
      <g
         id="g226"
         transform="matrix(0.35277777,0,0,-0.35277777,18.635803,19.862073)">
        <path
           d="m 0,0 v -72 l 62.354,36 v 72 z"
           style="fill:#745192;fill-opacity:1;fill-rule:nonzero;stroke:none"
           id="path228"
           inkscape:connector-curvature="0" />
      </g>
      <g
         id="g358"
         transform="matrix(0.35277777,0,0,-0.35277777,-3.3612323,45.310969)">
        <g
           id="g360"
           clip-path="url(#clipPath364)">
          <g
             id="g366"
             transform="translate(111.1842,71.1256)">
            <path
               d="m 0,0 c 0,-26.71 -21.652,-48.362 -48.362,-48.362 -26.709,0 -48.361,21.652 -48.361,48.362 0,26.711 21.652,48.362 48.361,48.362 C -21.652,48.362 0,26.711 0,0"
               style="fill:#ffffff;fill-opacity:1;fill-rule:nonzero;stroke:none"
               id="path368"
               inkscape:connector-curvature="0" />
          </g>
          <g
             id="g370"
             transform="translate(92.8271,102.1299)">
            <path
               d="m 0,0 c 16.572,-16.57 16.572,-43.438 0,-60.008 -16.569,-16.573 -43.437,-16.573 -60.008,-10e-4 -16.572,16.571 -16.572,43.439 0,60.01 C -43.437,16.572 -16.569,16.572 0,0"
               style="fill:#5e377d;fill-opacity:1;fill-rule:nonzero;stroke:none"
               id="path372"
               inkscape:connector-curvature="0" />
          </g>
          <g
             id="g374"
             transform="translate(62.3416,117.079)">
            <path
               d="m 0,0 c -12.007,0 -23.296,-4.676 -31.787,-13.166 -17.526,-17.527 -17.526,-46.046 0,-63.573 8.491,-8.491 19.78,-13.166 31.787,-13.166 12.008,0 23.296,4.675 31.786,13.166 8.491,8.491 13.167,19.779 13.167,31.786 0,12.007 -4.676,23.296 -13.166,31.786 C 23.296,-4.676 12.008,0 0,0 m 0,-95.675 c -13.548,0 -26.286,5.276 -35.866,14.856 -19.776,19.777 -19.776,51.956 0,71.733 9.58,9.58 22.318,14.856 35.866,14.856 13.549,0 26.286,-5.277 35.866,-14.857 9.58,-9.58 14.856,-22.317 14.856,-35.866 0,-13.548 -5.276,-26.286 -14.856,-35.865 C 26.286,-90.399 13.549,-95.675 0,-95.675"
               style="fill:#310f4c;fill-opacity:1;fill-rule:nonzero;stroke:none"
               id="path376"
               inkscape:connector-curvature="0" />
          </g>
          <g
             id="g378"
             transform="translate(69.8921,72.1258)">
            <path
               d="m 0,0 c 0,-3.904 -3.165,-7.069 -7.069,-7.069 -3.904,0 -7.069,3.165 -7.069,7.069 0,3.904 3.165,7.069 7.069,7.069 C -3.165,7.069 0,3.904 0,0"
               style="fill:#ffffff;fill-opacity:1;fill-rule:nonzero;stroke:none"
               id="path380"
               inkscape:connector-curvature="0" />
          </g>
          <g
             id="g382"
             transform="translate(68.4779,105.7809)">
            <path
               d="m 0,0 c 0,-3.123 -2.532,-5.655 -5.655,-5.655 -3.123,0 -5.655,2.532 -5.655,5.655 0,3.123 2.532,5.655 5.655,5.655 C -2.532,5.655 0,3.123 0,0"
               style="fill:#ffffff;fill-opacity:1;fill-rule:nonzero;stroke:none"
               id="path384"
               inkscape:connector-curvature="0" />
          </g>
          <g
             id="g386"
             transform="translate(68.4779,38.4706)">
            <path
               d="m 0,0 c 0,-3.123 -2.532,-5.655 -5.655,-5.655 -3.123,0 -5.655,2.532 -5.655,5.655 0,3.123 2.532,5.655 5.655,5.655 C -2.532,5.655 0,3.123 0,0"
               style="fill:#ffffff;fill-opacity:1;fill-rule:nonzero;stroke:none"
               id="path388"
               inkscape:connector-curvature="0" />
          </g>
          <g
             id="g390"
             transform="translate(35.3433,92.3625)">
            <path
               d="m 0,0 c 2.787,-1.409 3.903,-4.812 2.494,-7.599 -1.409,-2.787 -4.812,-3.903 -7.599,-2.493 -2.787,1.409 -3.903,4.811 -2.494,7.598 C -6.189,0.293 -2.787,1.41 0,0"
               style="fill:#ffffff;fill-opacity:1;fill-rule:nonzero;stroke:none"
               id="path392"
               inkscape:connector-curvature="0" />
          </g>
          <g
             id="g394"
             transform="translate(95.4072,61.9818)">
            <path
               d="m 0,0 c 2.787,-1.41 3.904,-4.813 2.495,-7.599 -1.41,-2.787 -4.813,-3.903 -7.6,-2.494 -2.787,1.41 -3.903,4.812 -2.493,7.599 C -6.189,0.292 -2.787,1.409 0,0"
               style="fill:#ffffff;fill-opacity:1;fill-rule:nonzero;stroke:none"
               id="path396"
               inkscape:connector-curvature="0" />
          </g>
          <g
             id="g398"
             transform="translate(30.2475,61.9526)">
            <path
               d="M 0,0 C 2.786,1.412 6.189,0.298 7.601,-2.487 9.013,-5.273 7.899,-8.676 5.114,-10.088 2.328,-11.5 -1.075,-10.386 -2.487,-7.601 -3.899,-4.815 -2.785,-1.412 0,0"
               style="fill:#ffffff;fill-opacity:1;fill-rule:nonzero;stroke:none"
               id="path400"
               inkscape:connector-curvature="0" />
          </g>
          <g
             id="g402"
             transform="translate(90.2849,92.386)">
            <path
               d="m 0,0 c 2.786,1.412 6.189,0.298 7.602,-2.488 1.411,-2.785 0.297,-6.188 -2.488,-7.6 -2.786,-1.413 -6.188,-0.299 -7.601,2.487 C -3.899,-4.816 -2.786,-1.413 0,0"
               style="fill:#ffffff;fill-opacity:1;fill-rule:nonzero;stroke:none"
               id="path404"
               inkscape:connector-curvature="0" />
          </g>
          <g
             id="g406"
             transform="translate(53.8124,75.7212)">
            <path
               d="M 0,0 C -0.146,0 -0.294,0.033 -0.433,0.104 L -12.446,6.18 c -0.474,0.24 -0.664,0.818 -0.424,1.292 0.239,0.474 0.818,0.664 1.292,0.424 L 0.435,1.82 C 0.909,1.58 1.099,1.002 0.859,0.528 0.689,0.193 0.351,0 0,0"
               style="fill:#9d7cb7;fill-opacity:1;fill-rule:nonzero;stroke:none"
               id="path408"
               inkscape:connector-curvature="0" />
          </g>
          <g
             id="g410"
             transform="translate(83.8449,60.5311)">
            <path
               d="M 0,0 C -0.146,0 -0.294,0.033 -0.433,0.104 L -12.446,6.18 c -0.474,0.239 -0.664,0.818 -0.424,1.292 0.238,0.474 0.817,0.664 1.292,0.424 L 0.435,1.82 C 0.909,1.58 1.098,1.002 0.859,0.528 0.69,0.193 0.351,0 0,0"
               style="fill:#9d7cb7;fill-opacity:1;fill-rule:nonzero;stroke:none"
               id="path412"
               inkscape:connector-curvature="0" />
          </g>
          <g
             id="g414"
             transform="translate(71.8291,75.7287)">
            <path
               d="m 0,0 c -0.35,0 -0.689,0.193 -0.858,0.527 -0.24,0.474 -0.051,1.053 0.423,1.292 l 12.008,6.087 c 0.474,0.24 1.052,0.05 1.292,-0.423 0.24,-0.474 0.051,-1.052 -0.423,-1.292 L 0.434,0.104 C 0.295,0.034 0.147,0 0,0"
               style="fill:#9d7cb7;fill-opacity:1;fill-rule:nonzero;stroke:none"
               id="path416"
               inkscape:connector-curvature="0" />
          </g>
          <g
             id="g418"
             transform="translate(41.811,60.5119)">
            <path
               d="m 0,0 c -0.351,0 -0.689,0.193 -0.858,0.527 -0.24,0.474 -0.051,1.053 0.423,1.292 l 12.007,6.087 c 0.473,0.241 1.052,0.051 1.292,-0.422 0.24,-0.474 0.051,-1.053 -0.423,-1.293 L 0.434,0.104 C 0.295,0.034 0.146,0 0,0"
               style="fill:#9d7cb7;fill-opacity:1;fill-rule:nonzero;stroke:none"
               id="path420"
               inkscape:connector-curvature="0" />
          </g>
          <g
             id="g422"
             transform="translate(32.8008,65.0694)">
            <path
               d="m 0,0 c -0.531,0 -0.962,0.43 -0.962,0.961 l -0.005,12.163 c -0.001,0.531 0.43,0.962 0.961,0.962 v 0 c 0.531,0 0.962,-0.43 0.962,-0.961 L 0.962,0.962 C 0.962,0.431 0.531,0 0,0 Z"
               style="fill:#9d7cb7;fill-opacity:1;fill-rule:nonzero;stroke:none"
               id="path424"
               inkscape:connector-curvature="0" />
          </g>
          <g
             id="g426"
             transform="translate(53.8165,43.04)">
            <path
               d="M 0,0 C -0.172,0 -0.345,0.046 -0.503,0.143 L -12.51,7.518 c -0.452,0.278 -0.594,0.87 -0.316,1.323 0.278,0.452 0.87,0.594 1.323,0.316 L 0.504,1.781 C 0.957,1.503 1.098,0.911 0.82,0.459 0.639,0.163 0.323,0 0,0"
               style="fill:#9d7cb7;fill-opacity:1;fill-rule:nonzero;stroke:none"
               id="path428"
               inkscape:connector-curvature="0" />
          </g>
          <g
             id="g430"
             transform="translate(92.8516,65.0959)">
            <path
               d="m 0,0 c -0.531,0 -0.962,0.43 -0.962,0.961 l -0.005,12.163 c -0.001,0.531 0.43,0.961 0.961,0.962 v 0 c 0.531,0 0.961,-0.431 0.962,-0.962 L 0.961,0.962 C 0.962,0.431 0.531,0 0.001,0 Z"
               style="fill:#9d7cb7;fill-opacity:1;fill-rule:nonzero;stroke:none"
               id="path432"
               inkscape:connector-curvature="0" />
          </g>
          <g
             id="g434"
             transform="translate(83.8355,91.9117)">
            <path
               d="M 0,0 C -0.172,0 -0.346,0.046 -0.502,0.143 L -12.51,7.518 c -0.453,0.278 -0.594,0.87 -0.316,1.323 0.277,0.453 0.869,0.595 1.322,0.316 L 0.505,1.781 C 0.957,1.503 1.098,0.911 0.821,0.459 0.638,0.163 0.323,0 0,0"
               style="fill:#9d7cb7;fill-opacity:1;fill-rule:nonzero;stroke:none"
               id="path436"
               inkscape:connector-curvature="0" />
          </g>
          <g
             id="g438"
             transform="translate(41.8014,91.8939)">
            <path
               d="m 0,0 c -0.323,0 -0.638,0.163 -0.82,0.458 -0.278,0.453 -0.137,1.045 0.316,1.323 l 12.012,7.386 c 0.453,0.278 1.045,0.136 1.323,-0.316 0.278,-0.452 0.137,-1.044 -0.316,-1.323 L 0.503,0.143 C 0.346,0.046 0.172,0 0,0"
               style="fill:#9d7cb7;fill-opacity:1;fill-rule:nonzero;stroke:none"
               id="path440"
               inkscape:connector-curvature="0" />
          </g>
          <g
             id="g442"
             transform="translate(71.8332,43.0484)">
            <path
               d="m 0,0 c -0.323,0 -0.638,0.163 -0.82,0.458 -0.278,0.453 -0.137,1.044 0.315,1.323 l 12.014,7.386 c 0.452,0.279 1.044,0.137 1.323,-0.316 0.277,-0.452 0.136,-1.044 -0.316,-1.322 L 0.503,0.143 C 0.346,0.046 0.172,0 0,0"
               style="fill:#9d7cb7;fill-opacity:1;fill-rule:nonzero;stroke:none"
               id="path444"
               inkscape:connector-curvature="0" />
          </g>
        </g>
      </g>
    </g>
  </g>
</svg>
