<?xml version="1.0" encoding="UTF-8" standalone="no"?>
<svg width="181px" height="209px" viewBox="0 0 181 209" version="1.1" xmlns="http://www.w3.org/2000/svg" xmlns:xlink="http://www.w3.org/1999/xlink" xmlns:sketch="http://www.bohemiancoding.com/sketch/ns">
    <!-- Generator: Sketch 3.5.1 (25234) - http://www.bohemiancoding.com/sketch -->
    <title>opbeat-node-mark@2x</title>
    <desc>Created with Sketch.</desc>
    <defs></defs>
    <g id="Page-1" stroke="none" stroke-width="1" fill="none" fill-rule="evenodd" sketch:type="MSPage">
        <g id="opbeat-node-mark" sketch:type="MSLayerGroup">
            <path d="M92.527964,0.107197182 C91.6179379,-0.0357323939 90.3890789,-0.0357323939 89.4775916,0.107197182 L2.03358163,51.0820808 C0.613698887,51.4809954 0,52.537808 0,54.0806034 L0,154.031356 C0,155.572707 0.613698887,156.62952 2.03358163,157.029878 L89.4775916,209 C89.8908138,208.85707 90.4475264,209 91.5111732,209 C91.5594903,209 92.1147417,208.855627 92.527964,209 L178.966418,157.029878 C180.386301,156.62952 181,155.572707 181,154.031356 L181,54.0806034 C181,52.537808 180.386301,51.4809954 178.966418,51.0820808 L92.527964,0.107197182 Z" id="Fill-1" fill="#3B5DAA" sketch:type="MSShapeGroup"></path>
            <path d="M121.58285,86.0389064 L120.43381,85 L55.5254129,85.0334194 L54.3792852,86.0737788 C43.9694754,95.5154765 38,108.97331 38,122.99782 C38,137.047032 43.9840387,150.519396 54.4200623,159.961094 L55.5676463,161 L120.474587,160.966581 L121.620715,159.926221 C132.030525,150.484523 138,137.028143 138,122.99782 C138,108.950062 132.017418,95.4806041 121.58285,86.0389064 Z M79.3041821,109.056004 C63.3496953,103.147887 55.068895,101.404773 52,100.906321 C53.7517913,98.057817 55.8382922,95.4086937 58.2406661,93.0307867 L116.569957,93 C120.064846,96.4510439 122.906254,100.472375 125,104.852884 C119.401223,109.215801 103.924892,118.173269 79.3041821,109.056004 Z M112.108106,104 L101.891894,104 C100.301209,104 99,105.348983 99,106.998435 C99,108.649452 100.301209,110 101.891894,110 L112.108106,110 C113.698791,110 115,108.649452 115,106.998435 C115,105.348983 113.698791,104 112.108106,104 Z M112.108106,121 L101.893327,121 C100.302642,121 99,119.649452 99,117.998435 C99,116.348983 100.302642,115 101.893327,115 L112.108106,115 C113.698791,115 115,116.348983 115,117.998435 C115,119.649452 113.698791,121 112.108106,121 Z M112.108106,132 L101.893327,132 C100.302642,132 99,130.6491 99,128.999217 C99,127.349335 100.302642,126 101.893327,126 L112.108106,126 C113.698791,126 115,127.349335 115,128.999217 C115,130.6491 113.698791,132 112.108106,132 Z M112.108106,144 L101.893327,144 C100.302642,144 99,142.649452 99,141 C99,139.350548 100.302642,138 101.893327,138 L112.108106,138 C113.698791,138 115,139.350548 115,141 C115,142.649452 113.698791,144 112.108106,144 Z M141.267429,84.9695437 C137.203766,80.0438402 132.667584,76.4863877 128.138672,74.677416 L121.029079,74.6788562 L121.143937,74.4844206 C122.065713,72.9102118 123.649015,70.1809112 123.672277,70.1449046 C125.912744,66.8683036 126.535015,64.154846 125.518736,62.077985 C124.422492,59.8383743 121.270427,58.1619068 117.677829,57.9040995 L49.4955245,53.0388871 C49.1131476,53.0129624 48.7525793,53 48.4138196,53 C44.1495177,53 42.745046,55.0970246 42.2856122,56.3471739 C41.4423476,58.6415147 42.4731659,61.0784417 45.287925,63.4102294 C45.318457,63.4390347 48.5330398,66.3858152 51.5353525,69.4506973 C52.9514555,70.8376717 54.0825932,72.6019953 54.8938719,74.6961394 L55.0072764,81.6756595 L124.192775,81.5791618 C124.192775,81.5791618 129.522789,83.8490182 134.7772,90.2207468 C142.20229,99.2295992 148.946953,115.664454 145.874853,135 L154.339485,135 C157.344705,113.469491 149.591032,95.068676 141.267429,84.9695437 Z M63.487827,73.4937238 L63.2819364,72.9653595 C63.0412474,72.4603484 62.7512606,71.9188479 62.4192257,71.3466965 C62.2423337,71.0358081 62.0929905,70.7906004 61.9885953,70.6242094 L61.9842455,70.6242094 L61.8175031,70.3614868 C60.0514835,67.5868444 57.7083901,64.8107424 55.7002316,63.12202 L52,60 L117.448571,64.7465214 C117.940098,64.781551 118.275033,64.8720444 118.467874,64.9406442 L119,65.1274691 L118.814408,65.6645908 C118.714363,65.9535857 118.55342,66.2630145 118.33593,66.5841199 L117.880651,67.2584412 C116.684455,69.0391165 114.460257,73.3536051 113.629444,74.9868639 L64.0678006,75 C63.8996083,74.5081249 63.7125668,74.0147903 63.487827,73.4937238 Z" id="opbeat" fill="#FEFEFE" sketch:type="MSShapeGroup"></path>
        </g>
    </g>
</svg>