<svg id="Cut_Lines" data-name="Cut Lines" xmlns="http://www.w3.org/2000/svg" viewBox="0 0 124.71 144"><defs><style>.cls-1{fill:#5c58a6;}.cls-2{fill:#069484;}.cls-3{fill:#eea720;}.cls-4{fill:#f26724;}.cls-5{fill:#fff;}.cls-6{fill:#231f20;}.cls-7{fill:#a7a9ac;}.cls-8{fill:#939598;}.cls-9{fill:#f26522;}.cls-10{fill:#eea616;}.cls-11{fill:#5b57a6;}.cls-12{fill:#009384;}</style></defs><title>openmrs-hex-wcsl</title><g id="Solid_Color" data-name="Solid Color"><polygon class="cls-1" points="62.35 0 124.71 36 124.71 108 62.35 144 0 108 0 36 62.35 0"/><polygon class="cls-2" points="62.35 0 124.71 36 124.71 108 62.35 144 0 108 0 36 62.35 0"/><polygon class="cls-3" points="62.35 0 124.71 36 124.71 108 62.35 144 0 108 0 36 62.35 0"/><polygon class="cls-4" points="62.35 0 124.71 36 124.71 108 62.35 144 0 108 0 36 62.35 0"/><polygon class="cls-5" points="62.35 0 124.71 36 124.71 108 62.35 144 0 108 0 36 62.35 0"/><polygon class="cls-6" points="62.35 0 124.71 36 124.71 108 62.35 144 0 108 0 36 62.35 0"/></g><g id="For_Solid" data-name="For Solid"><g id="_Group_" data-name="&lt;Group&gt;"><path id="_Compound_Path_" data-name="&lt;Compound Path&gt;" class="cls-7" d="M42.37,64.37a8.76,8.76,0,0,1-2.94,1.42,12.93,12.93,0,0,1-3.52.47,10,10,0,0,1-3.54-.58A7.21,7.21,0,0,1,29.76,64a7,7,0,0,1-1.61-2.56,9.53,9.53,0,0,1-.55-3.31,8.64,8.64,0,0,1,.64-3.43A7.23,7.23,0,0,1,30,52.2a7.71,7.71,0,0,1,2.71-1.58,10.42,10.42,0,0,1,3.4-.54,12.51,12.51,0,0,1,3.22.4,14.88,14.88,0,0,1,2.3.77v5.39H38.29V53.83a8.63,8.63,0,0,0-1.9-.21,5.74,5.74,0,0,0-1.7.26,4.16,4.16,0,0,0-1.5.83,4.33,4.33,0,0,0-1.07,1.42,4.69,4.69,0,0,0-.41,2.05A4.74,4.74,0,0,0,32,60a4.21,4.21,0,0,0,2.47,2.41,5.48,5.48,0,0,0,2,.35,7.18,7.18,0,0,0,2.86-.49,11.48,11.48,0,0,0,1.67-.86Z" transform="translate(-0.04)"/><path id="_Compound_Path_2" data-name="&lt;Compound Path&gt;" class="cls-7" d="M43.93,58.18a9.44,9.44,0,0,1,.58-3.43,6.9,6.9,0,0,1,4.21-4.12A9.75,9.75,0,0,1,52,50.09a9.57,9.57,0,0,1,3.45.58,7.12,7.12,0,0,1,2.56,1.64,6.9,6.9,0,0,1,1.58,2.56,9.79,9.79,0,0,1,.54,3.31,9.45,9.45,0,0,1-.58,3.43,6.9,6.9,0,0,1-4.21,4.12,9.75,9.75,0,0,1-3.32.54,9.57,9.57,0,0,1-3.45-.58A7.11,7.11,0,0,1,46,64a6.88,6.88,0,0,1-1.58-2.56A9.77,9.77,0,0,1,43.93,58.18Zm4.11,0A6.07,6.07,0,0,0,48.31,60a4.58,4.58,0,0,0,.8,1.5,3.59,3.59,0,0,0,1.26,1A3.85,3.85,0,0,0,52,62.9a3.89,3.89,0,0,0,2.9-1.13,4.94,4.94,0,0,0,1.12-3.58,5.31,5.31,0,0,0-1-3.42,3.59,3.59,0,0,0-3-1.3,4.75,4.75,0,0,0-1.59.26,3.13,3.13,0,0,0-1.27.84A4.12,4.12,0,0,0,48.34,56,6.61,6.61,0,0,0,48,58.18Z" transform="translate(-0.04)"/><path id="_Compound_Path_3" data-name="&lt;Compound Path&gt;" class="cls-7" d="M70.33,44.39h6.4V57.63A41.56,41.56,0,0,0,77,62.16a1.55,1.55,0,0,0,0,.31h2v3.37H74l-0.4-2H73.51a3.42,3.42,0,0,1-.83,1,6.14,6.14,0,0,1-1.16.75,6,6,0,0,1-1.41.49,7.12,7.12,0,0,1-1.53.17,7.92,7.92,0,0,1-2.71-.46,5.88,5.88,0,0,1-2.22-1.42,6.81,6.81,0,0,1-1.5-2.45,10.08,10.08,0,0,1-.55-3.51,9.56,9.56,0,0,1,.6-3.49,7.42,7.42,0,0,1,1.65-2.59,7.24,7.24,0,0,1,2.5-1.62,8.55,8.55,0,0,1,3.16-.57,14.22,14.22,0,0,1,1.79.11,6,6,0,0,1,1.46.35V47.76H70.33V44.39ZM69.5,62.9a3.81,3.81,0,0,0,2.07-.57,2.63,2.63,0,0,0,1.18-1.64v-6.5a2.94,2.94,0,0,0-1.18-.51A7.21,7.21,0,0,0,70,53.52a4.8,4.8,0,0,0-1.61.28,3.64,3.64,0,0,0-1.38.87,4.23,4.23,0,0,0-.95,1.55,6.73,6.73,0,0,0-.35,2.33,4.82,4.82,0,0,0,1,3.16A3.44,3.44,0,0,0,69.5,62.9Z" transform="translate(-0.04)"/><path id="_Compound_Path_4" data-name="&lt;Compound Path&gt;" class="cls-7" d="M94.87,64.21a5.44,5.44,0,0,1-1,.72,10,10,0,0,1-1.47.66,11.38,11.38,0,0,1-1.85.49,12,12,0,0,1-2.14.18,10.4,10.4,0,0,1-3.51-.55,6.87,6.87,0,0,1-4.26-4.15A9.44,9.44,0,0,1,80,58.18a9,9,0,0,1,.64-3.54,7.07,7.07,0,0,1,1.76-2.53,7.35,7.35,0,0,1,2.62-1.52,10.2,10.2,0,0,1,5.65-.2A6.57,6.57,0,0,1,93,51.45a5.67,5.67,0,0,1,1.7,2,6.83,6.83,0,0,1,.66,3.19,14.6,14.6,0,0,1-.31,2.85H84a3.52,3.52,0,0,0,.41,1.65,3.27,3.27,0,0,0,1,1.1,4.36,4.36,0,0,0,1.44.63,7.22,7.22,0,0,0,1.73.2,9,9,0,0,0,3-.43,6.37,6.37,0,0,0,1.91-1ZM88.25,53.28a5,5,0,0,0-1.5.22,4.19,4.19,0,0,0-1.27.64,3.5,3.5,0,0,0-.93,1,3.23,3.23,0,0,0-.43,1.4h7.54A3,3,0,0,0,88.25,53.28Z" transform="translate(-0.04)"/></g><g id="_Group_2" data-name="&lt;Group&gt;"><path id="_Compound_Path_5" data-name="&lt;Compound Path&gt;" class="cls-5" d="M27.61,76.1q0-.2.05-0.33a0.4,0.4,0,0,0-.09-0.27l0.09-.33a0.89,0.89,0,0,0,0-.33A1.47,1.47,0,0,1,28,74.25a2.64,2.64,0,0,1,.54-0.41,3.82,3.82,0,0,1,.61-0.28l0.6-.19a0,0,0,0,0-.05-0.05s0,0,0-.07a9.78,9.78,0,0,0,1.44-.39q0.72-.25,1.48-0.45a7.92,7.92,0,0,1,1.56-.25,5,5,0,0,1,1.68.21,1.37,1.37,0,0,0,.15.31L36.19,73l0.18,0.27a0.65,0.65,0,0,1,.09.28,1.41,1.41,0,0,1,.26.31,0.59,0.59,0,0,1,0,.45l-0.31.21-0.33.2a3.92,3.92,0,0,0-1.2-.11l-1.08.09a0.43,0.43,0,0,0-.35-0.15,1.83,1.83,0,0,0-.42.07l-0.43.12a1,1,0,0,1-.4,0,0.78,0.78,0,0,1-.39.18L31.36,75a0.08,0.08,0,0,0,0,.09,0.09,0.09,0,0,1,0,.11,0.48,0.48,0,0,0,.25.17L32,75.45a1.21,1.21,0,0,1,.3.11,0.35,0.35,0,0,1,.17.23,0.82,0.82,0,0,1,.41.13,1.15,1.15,0,0,1,.29.27,1.07,1.07,0,0,1,.17.34,0.88,0.88,0,0,1,0,.33Q33.42,77,33.48,77a0.13,0.13,0,0,1,.14.07,1.07,1.07,0,0,0,.25.42,1.74,1.74,0,0,1,.3.47l0,0.72a1.34,1.34,0,0,1-.11.63,3.32,3.32,0,0,1-.65,1.05,5,5,0,0,1-1,.82,7.56,7.56,0,0,1-1.14.61,10.34,10.34,0,0,1-1.18.43H30s-0.06,0,0-.08a0.55,0.55,0,0,1-.27.13,1.61,1.61,0,0,1-.33,0l-0.36,0a1.54,1.54,0,0,0-.35,0L28.49,82a0.86,0.86,0,0,1-.14-0.25,0.07,0.07,0,0,1-.06-0.09,0.06,0.06,0,0,0-.06-0.07,0.18,0.18,0,0,1,0-.08l0-.05a0.08,0.08,0,0,0,0-.06l0,0-0.07,0a0.06,0.06,0,0,1,0-.07,0.46,0.46,0,0,0,0-.29q0-.17,0-0.34a1,1,0,0,1,0-.33,0.43,0.43,0,0,1,.23-0.26,3.29,3.29,0,0,0,1-.05,5,5,0,0,0,.92-0.29,8.91,8.91,0,0,0,.82-0.41L32,78.91a0.56,0.56,0,0,1,.13-0.23l0.18-.18,0.17-.19a0.67,0.67,0,0,0,.12-0.25,0.12,0.12,0,0,0,0-.08l0,0-0.05,0a0.11,0.11,0,0,1,0-.08l-0.07,0H32.34a4.86,4.86,0,0,0-.73-0.29A3.52,3.52,0,0,1,31,77.22a0.35,0.35,0,0,1-.32.05l-0.39-.11a9.57,9.57,0,0,1-1.06-.11,4.07,4.07,0,0,1-1-.28,0.59,0.59,0,0,0-.07-0.14,0.18,0.18,0,0,0-.19,0l-0.19-.25A1.4,1.4,0,0,1,27.61,76.1Z" transform="translate(-0.04)"/><path id="_Compound_Path_6" data-name="&lt;Compound Path&gt;" class="cls-5" d="M42.42,81a2.13,2.13,0,0,1-.23.46,2,2,0,0,1-.82.71,1.39,1.39,0,0,1-.53.13,0.65,0.65,0,0,1-.23-0.09l-0.13-.09-0.07,0-0.06,0L40.18,82l0.05-.17a0.2,0.2,0,0,0,0-.17,1,1,0,0,0-.16-0.17L40,81.38l-0.07-.08L39.69,81,40,81a0.84,0.84,0,0,0,.45-0.24,0.73,0.73,0,0,0,.09-0.49,1.1,1.1,0,0,0-.45,0l-0.37.09-0.49.11a2.89,2.89,0,0,1-.54,0h-0.2l-0.2,0-0.13,0a0.36,0.36,0,0,0-.05-0.17l-0.05,0A1.08,1.08,0,0,1,38,80a0.36,0.36,0,0,1,0-.29,0.63,0.63,0,0,1-.08-0.24,1.49,1.49,0,0,0-.12.33L37.68,80l-0.13,0a0.09,0.09,0,0,0,0,.06,0.28,0.28,0,0,0,0,.07l-0.07.23-0.05,0-0.05,0a2.45,2.45,0,0,1-.07.24l-0.08.23q-0.07.17-.11,0.34a0.91,0.91,0,0,0,0,.33L37,81.71a0.56,0.56,0,0,1-.15.13l-0.16.09L36.6,82l-0.07,0,0,0.15-0.16,0-0.21,0H35.85L35.62,82l-0.19-.14a0.67,0.67,0,0,1-.13-0.24l0-.15a0.74,0.74,0,0,1,0-.13,0.13,0.13,0,0,0,0-.08L35,81.13,35.18,81V80.78q0.27-.68.57-1.3l0.62-1.28,0.21-.43,0.21-.43a0.29,0.29,0,0,1,0-.09,0.33,0.33,0,0,1,0-.12q0.15-.23.24-0.41l0.19-.37,0.22-.44a3.2,3.2,0,0,1,.29-0.44l0.21-.09,0.09,0,0.12,0,0.2,0A2,2,0,0,0,39,74.88a6.74,6.74,0,0,0,.57-0.75l0.13-.19,0.17,0.11,0.19,0.07,0.25,0.07,0.45,0.12a0.83,0.83,0,0,1,.35.2,1.58,1.58,0,0,1,.09.32,1.73,1.73,0,0,0,0,.21q0,0.23.07,0.45t0,0.51q0.07,0.23.11,0.45t0.09,0.45l0.13,0.62a3.63,3.63,0,0,0,.17.57H42l0.14,0,0.17,0h0.15l0.05,0.13a0.23,0.23,0,0,0,.13.13,0.49,0.49,0,0,1,.25.07l0.15,0.13,0.11,0.08,0.2,0.08-0.11.2a1.78,1.78,0,0,1-.38.46,2.34,2.34,0,0,1-.55.37c0,0.05,0,.1,0,0.15a0.67,0.67,0,0,0,0,.15q0,0.23.07,0.47a2.29,2.29,0,0,1,0,.49Zm-3.84-2.3,0.72-.06q0.33,0,.72-0.11l-0.2-.83q-0.11-.43-0.23-0.86L39.52,77a5.66,5.66,0,0,0-.51.63,7.46,7.46,0,0,0-.42.65l-0.16.24-0.15.24h0.29Z" transform="translate(-0.04)"/><path id="_Compound_Path_7" data-name="&lt;Compound Path&gt;" class="cls-5" d="M47.57,79.76a1.06,1.06,0,0,1-.09.35,1.89,1.89,0,0,1-.18.32,3,3,0,0,1-.23.29L46.82,81a0.47,0.47,0,0,1,0,.26,0.63,0.63,0,0,0,0,.26,1.17,1.17,0,0,1-.61.71,0.73,0.73,0,0,1-.76-0.07,0.91,0.91,0,0,1-.25-0.27,0.42,0.42,0,0,0-.27-0.21,0.88,0.88,0,0,0,0-.45A0.32,0.32,0,0,0,44.71,81a6,6,0,0,0-.12-0.6q-0.08-.32-0.15-0.64t-0.11-.64a2.93,2.93,0,0,1,0-.58,0.4,0.4,0,0,0,0-.24A0.8,0.8,0,0,1,44.16,78a2.79,2.79,0,0,1,0-.64q0-.34,0-0.64t0-.63q0-.34-0.06-0.65t0-.57a1,1,0,0,1,.07-0.41,0.69,0.69,0,0,1,.22-0.26A2.06,2.06,0,0,0,44.58,74a0.65,0.65,0,0,1,.47.24,0.48,0.48,0,0,1,.13.4,1.34,1.34,0,0,1,.45.45,2.56,2.56,0,0,1,.27.61,4,4,0,0,1,.14.72q0,0.38.07,0.74t0.05,0.7a2.43,2.43,0,0,0,.11.57q0.49-.7.82-1.26t0.68-1.06q0.35-.51.77-1a13.89,13.89,0,0,1,1.1-1.17,0.7,0.7,0,0,1,.22.05L50,74l0.16,0a0.7,0.7,0,0,0,.25,0l0.08,0.19,0,0.12,0.05,0.15q0,0.09.11,0.27a0.11,0.11,0,0,1,0,.11s0,0.09,0,.13a0.85,0.85,0,0,0,0,.09s0,0,.07,0a1,1,0,0,1-.14.34,0.58,0.58,0,0,0-.09.37q-0.31.4-.67,0.82l-0.73.88q-0.37.45-.7,1a6.82,6.82,0,0,0-.57,1,0.12,0.12,0,0,0-.1,0l-0.06.09-0.06.09A0.11,0.11,0,0,1,47.57,79.76Z" transform="translate(-0.04)"/><path id="_Compound_Path_8" data-name="&lt;Compound Path&gt;" class="cls-5" d="M57.48,74.61a0.55,0.55,0,0,1,0,.14v0.09a0.51,0.51,0,0,0,0,.09,0.56,0.56,0,0,0,0,.14,1.52,1.52,0,0,1-.64.62,3.21,3.21,0,0,1-.79.24l-0.87.15a2.58,2.58,0,0,0-.88.35,0.38,0.38,0,0,0-.31,0,0.79,0.79,0,0,1-.41,0,0.44,0.44,0,0,1-.2.11l-0.24.07a0.53,0.53,0,0,1,0,.25,0.41,0.41,0,0,0,0,.21,5.78,5.78,0,0,0,1,0Q54.82,77,55.37,77a0.08,0.08,0,0,1,0,.09,0.07,0.07,0,0,0,0,.07,1.28,1.28,0,0,1,.19.17l0.19,0.19a1,1,0,0,0,.19.15,0.37,0.37,0,0,0,.23,0,0.8,0.8,0,0,1,.07.23,0.49,0.49,0,0,1,0,.26l-0.43.3a3.53,3.53,0,0,1-.45.27,2.63,2.63,0,0,1-.49.19,1.84,1.84,0,0,1-.58.06h-0.1a0.16,0.16,0,0,1-.09,0,0.44,0.44,0,0,1-.3,0,0.45,0.45,0,0,0-.3,0A0.79,0.79,0,0,0,53.1,79a1,1,0,0,1-.37,0,4.58,4.58,0,0,0-.39.6,5.22,5.22,0,0,0-.31.68,4.07,4.07,0,0,0,.75.05l0.57,0,0.55-.07a4.9,4.9,0,0,1,.7,0A1.77,1.77,0,0,1,55.24,80a3.31,3.31,0,0,0,.67-0.15,0.43,0.43,0,0,1,.19.14l0.15,0.19,0.15,0.15a0.25,0.25,0,0,0,.2.05,0.28,0.28,0,0,1,.07.13l0,0.14a0.29,0.29,0,0,0,0,.11,0.11,0.11,0,0,0,.11,0,2,2,0,0,1-.46.67,1.78,1.78,0,0,1-.59.35,4.17,4.17,0,0,1-.74.19l-0.9.16a0.33,0.33,0,0,1-.2,0,0.48,0.48,0,0,0-.19,0q-0.31.07-.73,0.12a5.63,5.63,0,0,1-.86,0,3.94,3.94,0,0,1-.84-0.11,1.37,1.37,0,0,1-.65-0.35,0.43,0.43,0,0,1-.14-0.22,0.3,0.3,0,0,0-.18-0.19A3.64,3.64,0,0,0,50.34,81l-0.08-.45q0-.23-0.06-0.46a1.39,1.39,0,0,1,0-.41,0.83,0.83,0,0,1,.17-0.36A0.4,0.4,0,0,0,50.48,79a0.09,0.09,0,0,0,.08-0.07s0-.06.11,0q0.08-.24.17-0.45L51,78l0.2-.41q0.1-.21.19-0.46a1.09,1.09,0,0,1-.27-0.38A2.08,2.08,0,0,1,51,76.35q0-.21-0.07-0.43a2.78,2.78,0,0,0-.09-0.45,1.14,1.14,0,0,1,.33-0.33,1.93,1.93,0,0,1,.42-0.21,3.6,3.6,0,0,1,.49-0.13l0.56-.12q0.53-.17,1-0.27t0.82-.15l0.84-.11q0.44-.05,1-0.16a0.34,0.34,0,0,0,.23.12q0.05-.12.13-0.07s0.07,0,.06-0.07a1.26,1.26,0,0,0,.34.38A2.19,2.19,0,0,0,57.48,74.61Z" transform="translate(-0.04)"/><path id="_Compound_Path_9" data-name="&lt;Compound Path&gt;" class="cls-5" d="M63,81.61a0.54,0.54,0,0,1-.09-0.13,0.74,0.74,0,0,1-.07-0.19,1.74,1.74,0,0,1-.29-0.52,2.79,2.79,0,0,1-.15-0.61,3,3,0,0,1,0-.63,4,4,0,0,1,.09-0.6,2.59,2.59,0,0,0,.07-0.28l0.13-.5a1.05,1.05,0,0,1,.2-0.41,0.44,0.44,0,0,1,0-.32L63,77.11,63,77l0-.06,0.31-.9,0.3-.83,0.51-1.44q0.25-.7.45-1.5a0.69,0.69,0,0,1,.19-0.11l0.07,0H65a4.45,4.45,0,0,0,.66.27,2.1,2.1,0,0,0,.64.13l0.23,0.2a2.7,2.7,0,0,1,.3.42,0.86,0.86,0,0,1,.07.57,0.44,0.44,0,0,1-.13.15,4.57,4.57,0,0,1-.17.54l-0.19.45q-0.11.24-.2,0.48a3.4,3.4,0,0,0-.16.59,0.48,0.48,0,0,0-.1.16l0,0.13-0.07.17a0.43,0.43,0,0,1-.12.15,2.72,2.72,0,0,1-.16.67l-0.21.51q-0.19.47-.35,0.92a3.68,3.68,0,0,0-.19,1,1.21,1.21,0,0,1,.29,0,1,1,0,0,1,.33.05,2.93,2.93,0,0,1,1-.29q0.57-.05,1.12-0.07t0.86,0a0.63,0.63,0,0,0,.17.1h0.32a1.17,1.17,0,0,0,.36.26l0.37,0.14L70,80a1.66,1.66,0,0,1,.33.19l0.12,0.68a0.3,0.3,0,0,1,0,.39l0,0.17a1,1,0,0,0-.33.11L70,81.67H69.73a2,2,0,0,0-.55.08,2.53,2.53,0,0,0-.88-0.15H67.93l-0.38,0-0.4,0-0.4,0-0.23,0-0.13,0-1,.29a3.93,3.93,0,0,1-1.06.15,1.91,1.91,0,0,1-1.26-.4L63,81.7Z" transform="translate(-0.04)"/><path id="_Compound_Path_10" data-name="&lt;Compound Path&gt;" class="cls-5" d="M73.26,81.17a1,1,0,0,1,0,.63,0.76,0.76,0,0,1-.32.34,1.08,1.08,0,0,1-.47.13,2.36,2.36,0,0,1-.51,0,2.06,2.06,0,0,1-.24-0.47q-0.11-.28-0.2-0.58t-0.17-.59l-0.13-.52a1.27,1.27,0,0,0,.09-0.37q0-.21,0-0.42V78.86a4.06,4.06,0,0,1,0-.42,6.22,6.22,0,0,1,.27-1.06,7.33,7.33,0,0,0,.29-1.05,0.36,0.36,0,0,0,0-.23,0.29,0.29,0,0,1,0-.2,0.1,0.1,0,0,1,.08-0.07A0.11,0.11,0,0,0,72,75.74a0.52,0.52,0,0,0,0-.24,0.35,0.35,0,0,1,0-.23A3.5,3.5,0,0,0,72.25,75a0.77,0.77,0,0,0,.07-0.43,1.48,1.48,0,0,0,.23-0.19l0.22-.19A1.42,1.42,0,0,1,73,74a0.79,0.79,0,0,1,.34-0.07,0.69,0.69,0,0,1,.14.29l0.07,0.32a1.31,1.31,0,0,0,.1.3,0.47,0.47,0,0,0,.23.22v0.27q0,0.16,0,.31a1.06,1.06,0,0,0,.06.28,0.26,0.26,0,0,0,.15.17q-0.24.64-.45,1.26a11.67,11.67,0,0,0-.34,1.26,8.21,8.21,0,0,0-.17,1.27A5.52,5.52,0,0,0,73.26,81.17Z" transform="translate(-0.04)"/><path id="_Compound_Path_11" data-name="&lt;Compound Path&gt;" class="cls-5" d="M79.05,79.76a1.06,1.06,0,0,1-.09.35,1.89,1.89,0,0,1-.18.32,3,3,0,0,1-.23.29L78.31,81a0.47,0.47,0,0,1,0,.26,0.63,0.63,0,0,0,0,.26,1.17,1.17,0,0,1-.61.71,0.73,0.73,0,0,1-.76-0.07,0.91,0.91,0,0,1-.25-0.27,0.42,0.42,0,0,0-.27-0.21,0.88,0.88,0,0,0,0-.45A0.32,0.32,0,0,0,76.19,81a6,6,0,0,0-.12-0.6Q76,80,75.93,79.71t-0.11-.64a2.93,2.93,0,0,1,0-.58,0.4,0.4,0,0,0,0-.24A0.8,0.8,0,0,1,75.65,78a2.79,2.79,0,0,1,0-.64q0-.34,0-0.64t0-.63q0-.34-0.06-0.65t0-.57a1,1,0,0,1,.07-0.41,0.69,0.69,0,0,1,.22-0.26A2.06,2.06,0,0,0,76.06,74a0.65,0.65,0,0,1,.47.24,0.48,0.48,0,0,1,.13.4,1.34,1.34,0,0,1,.45.45,2.56,2.56,0,0,1,.27.61,4,4,0,0,1,.14.72q0,0.38.07,0.74t0.05,0.7a2.43,2.43,0,0,0,.11.57q0.49-.7.82-1.26t0.68-1.06q0.35-.51.77-1a13.89,13.89,0,0,1,1.1-1.17,0.7,0.7,0,0,1,.22.05L81.49,74l0.16,0a0.7,0.7,0,0,0,.25,0L82,74.25l0,0.12,0.05,0.15q0,0.09.11,0.27a0.11,0.11,0,0,1,0,.11s0,0.09,0,.13a0.85,0.85,0,0,0,0,.09s0,0,.07,0a1,1,0,0,1-.14.34,0.58,0.58,0,0,0-.09.37q-0.31.4-.67,0.82l-0.73.88q-0.37.45-.7,1a6.82,6.82,0,0,0-.57,1,0.12,0.12,0,0,0-.1,0l-0.06.09-0.06.09A0.11,0.11,0,0,1,79.05,79.76Z" transform="translate(-0.04)"/><path id="_Compound_Path_12" data-name="&lt;Compound Path&gt;" class="cls-5" d="M89,74.61a0.55,0.55,0,0,1,0,.14v0.09a0.51,0.51,0,0,0,0,.09,0.56,0.56,0,0,0,0,.14,1.52,1.52,0,0,1-.64.62,3.21,3.21,0,0,1-.79.24l-0.87.15a2.58,2.58,0,0,0-.88.35,0.38,0.38,0,0,0-.31,0,0.79,0.79,0,0,1-.41,0,0.44,0.44,0,0,1-.2.11l-0.24.07a0.53,0.53,0,0,1,0,.25,0.41,0.41,0,0,0,0,.21,5.78,5.78,0,0,0,1,0Q86.31,77,86.86,77a0.08,0.08,0,0,1,0,.09,0.07,0.07,0,0,0,0,.07,1.28,1.28,0,0,1,.19.17l0.19,0.19a1,1,0,0,0,.19.15,0.37,0.37,0,0,0,.23,0,0.8,0.8,0,0,1,.07.23,0.49,0.49,0,0,1,0,.26l-0.43.3a3.53,3.53,0,0,1-.45.27,2.63,2.63,0,0,1-.49.19,1.84,1.84,0,0,1-.58.06h-0.1a0.16,0.16,0,0,1-.09,0,0.44,0.44,0,0,1-.3,0,0.45,0.45,0,0,0-.3,0A0.79,0.79,0,0,0,84.59,79a1,1,0,0,1-.37,0,4.58,4.58,0,0,0-.39.6,5.22,5.22,0,0,0-.31.68,4.07,4.07,0,0,0,.75.05l0.57,0,0.55-.07a4.9,4.9,0,0,1,.7,0A1.77,1.77,0,0,1,86.73,80a3.31,3.31,0,0,0,.67-0.15,0.43,0.43,0,0,1,.19.14l0.15,0.19,0.15,0.15a0.25,0.25,0,0,0,.2.05,0.28,0.28,0,0,1,.07.13l0,0.14a0.29,0.29,0,0,0,0,.11,0.11,0.11,0,0,0,.11,0,2,2,0,0,1-.46.67,1.78,1.78,0,0,1-.59.35,4.17,4.17,0,0,1-.74.19l-0.9.16a0.33,0.33,0,0,1-.2,0,0.48,0.48,0,0,0-.19,0q-0.31.07-.73,0.12a5.63,5.63,0,0,1-.86,0,3.94,3.94,0,0,1-.84-0.11,1.37,1.37,0,0,1-.65-0.35,0.43,0.43,0,0,1-.14-0.22,0.3,0.3,0,0,0-.18-0.19A3.64,3.64,0,0,0,81.83,81l-0.08-.45q0-.23-0.06-0.46a1.39,1.39,0,0,1,0-.41,0.83,0.83,0,0,1,.17-0.36A0.4,0.4,0,0,0,82,79,0.09,0.09,0,0,0,82,78.91s0-.06.11,0q0.08-.24.17-0.45L82.51,78l0.2-.41q0.1-.21.19-0.46a1.09,1.09,0,0,1-.27-0.38,2.08,2.08,0,0,1-.13-0.41q0-.21-0.07-0.43a2.78,2.78,0,0,0-.09-0.45,1.14,1.14,0,0,1,.33-0.33,1.93,1.93,0,0,1,.42-0.21,3.6,3.6,0,0,1,.49-0.13l0.56-.12q0.53-.17,1-0.27t0.82-.15l0.84-.11q0.44-.05,1-0.16a0.34,0.34,0,0,0,.23.12Q88,74,88.11,74s0.07,0,.06-0.07a1.26,1.26,0,0,0,.34.38A2.19,2.19,0,0,0,89,74.61Z" transform="translate(-0.04)"/><path id="_Compound_Path_13" data-name="&lt;Compound Path&gt;" class="cls-5" d="M89.14,76.11a1.17,1.17,0,0,1,.3-0.48,2.23,2.23,0,0,1,.45-0.34,3.13,3.13,0,0,1,.51-0.23l0.51-.16q0.53-.23,1.14-0.43t1.24-.37a7.4,7.4,0,0,1,1.3-.21,4,4,0,0,1,1.4.17,0.94,0.94,0,0,0,.12.25l0.17,0.24,0.15,0.23a0.59,0.59,0,0,1,.08.23,1.06,1.06,0,0,1,.21.26,0.5,0.5,0,0,1,0,.37l-0.26.19a1.79,1.79,0,0,1-.27.15,3.15,3.15,0,0,0-1-.08L94.3,76A0.39,0.39,0,0,0,94,75.86a1.22,1.22,0,0,0-.35.05L93.31,76A0.75,0.75,0,0,1,93,76a0.7,0.7,0,0,1-.33.14l-0.42.06a0.07,0.07,0,0,0,0,.09s0,0,0,.09a0.44,0.44,0,0,0,.21.13l0.27,0.08a1.14,1.14,0,0,1,.25.1,0.31,0.31,0,0,1,.15.19,0.63,0.63,0,0,1,.35.09,0.84,0.84,0,0,1,.24.23,1,1,0,0,1,.14.29,1,1,0,0,1,0,.27q0,0.11.09,0.09a0.13,0.13,0,0,1,.12.05,0.82,0.82,0,0,0,.2.35,1.49,1.49,0,0,1,.25.39q0,0.33,0,.59a1.24,1.24,0,0,1-.09.53,2.91,2.91,0,0,1-.55.88,4.39,4.39,0,0,1-.8.68,5.59,5.59,0,0,1-1,.51,10.32,10.32,0,0,1-1,.36H91.13s0,0,0-.07a0.51,0.51,0,0,1-.23.12,1.09,1.09,0,0,1-.27,0l-0.3,0a1,1,0,0,0-.29,0l-0.17-.18a0.6,0.6,0,0,1-.11-0.22,0.05,0.05,0,0,1-.06-0.07s0-.07,0-0.07a0.41,0.41,0,0,0,.07-0.15l0,0-0.06,0a0,0,0,0,1,0-.06,0.45,0.45,0,0,0,0-.25l0-.29a0.83,0.83,0,0,1,0-.28,0.33,0.33,0,0,1,.19-0.21,2.62,2.62,0,0,0,.86,0,3.85,3.85,0,0,0,.76-0.25,7.59,7.59,0,0,0,.68-0.35q0.33-.19.64-0.33a0.55,0.55,0,0,1,.11-0.2L93,79.17,93.17,79a0.47,0.47,0,0,0,.09-0.2,0.09,0.09,0,0,0,0-.11,0.09,0.09,0,0,1-.06-0.1l-0.15,0a2.82,2.82,0,0,0-.57-0.25,3.23,3.23,0,0,1-.55-0.22,0.34,0.34,0,0,1-.27,0l-0.33-.08q-0.45,0-.87-0.09a3.17,3.17,0,0,1-.8-0.24,0.53,0.53,0,0,0-.07-0.12,0.13,0.13,0,0,0-.15,0l-0.16-.21a1.57,1.57,0,0,1-.15-0.22q0-.16,0-0.27a0.28,0.28,0,0,0-.08-0.22l0.08-.28A0.73,0.73,0,0,0,89.14,76.11Z" transform="translate(-0.04)"/></g><g id="_Group_3" data-name="&lt;Group&gt;"><path id="_Compound_Path_14" data-name="&lt;Compound Path&gt;" class="cls-8" d="M30.16,35.4l0,1.43h0.07l0.32-1.34,1.12-3.17h1.91l1,3.17L35,36.83h0.07l0-1.46,0.52-6.62H38L36.66,40.66H34.49l-1.4-3.76-0.43-1.63H32.56L32.11,36.9l-1.52,3.76H28.35L27,28.75h2.57Z" transform="translate(-0.04)"/><path id="_Compound_Path_15" data-name="&lt;Compound Path&gt;" class="cls-8" d="M43,28.87l0.93-.13,1-.09,1-.05,0.86,0a10.1,10.1,0,0,1,1.81.16,5.14,5.14,0,0,1,1.59.55,3.09,3.09,0,0,1,1.12,1.06A3,3,0,0,1,51.7,32a4.49,4.49,0,0,1-.16,1.27,3.33,3.33,0,0,1-.44.94,3,3,0,0,1-.68.71,6.15,6.15,0,0,1-.87.54l3.16,5.21h-3L47.11,36H45.58v4.66H43V28.87Zm3.93,1.79-0.78,0a3.19,3.19,0,0,0-.59.07V34.2h1a3.12,3.12,0,0,0,1.74-.44A1.62,1.62,0,0,0,49,32.29a1.47,1.47,0,0,0-.52-1.2A2.36,2.36,0,0,0,46.95,30.66Z" transform="translate(-0.04)"/><path id="_Compound_Path_16" data-name="&lt;Compound Path&gt;" class="cls-8" d="M57.65,38.59H61V30.83H57.65V28.75h9.21v2.08H63.53v7.76h3.33v2.08H57.65V38.59Z" transform="translate(-0.04)"/><path id="_Compound_Path_17" data-name="&lt;Compound Path&gt;" class="cls-8" d="M73.57,38.79h2.13V30.62h-1.8v2.06H71.85V28.75H82.11v3.93H80.05V30.62H78.27v8.17h2.12v1.87H73.57V38.79Z" transform="translate(-0.04)"/><path id="_Compound_Path_18" data-name="&lt;Compound Path&gt;" class="cls-8" d="M87.24,28.75h8.59v2.08h-6V33.6h5.56v2.08H89.8v2.91h6.12v2.08H87.24V28.75Z" transform="translate(-0.04)"/></g><g id="Stacked"><path id="_Path_" data-name="&lt;Path&gt;" class="cls-9" d="M56.73,96.75a8,8,0,0,1,11.37,0V91.38a12.23,12.23,0,0,0-11.38.06v5.31h0Z" transform="translate(-0.04)"/><path id="_Path_2" data-name="&lt;Path&gt;" class="cls-10" d="M68.1,108.13a8,8,0,0,1-11.37,0v5.36a12.46,12.46,0,0,0,11.37,0v-5.37h0Z" transform="translate(-0.04)"/><path id="_Path_3" data-name="&lt;Path&gt;" class="cls-11" d="M56.74,108.13a8,8,0,0,1,0-11.37H51.37a12.46,12.46,0,0,0,0,11.37h5.37Z" transform="translate(-0.04)"/><path id="_Path_4" data-name="&lt;Path&gt;" class="cls-12" d="M68.1,96.74a8,8,0,0,1,0,11.37h5.36a12.46,12.46,0,0,0,0-11.37H68.1Z" transform="translate(-0.04)"/><path id="_Compound_Path_19" data-name="&lt;Compound Path&gt;" class="cls-5" d="M48.31,122.2a2.48,2.48,0,1,0-2.48,2.6,2.48,2.48,0,0,0,2.48-2.6h0Zm-5.75,0a3.27,3.27,0,1,1,3.27,3.29,3.18,3.18,0,0,1-3.27-3.29h0Z" transform="translate(-0.04)"/><path id="_Compound_Path_20" data-name="&lt;Compound Path&gt;" class="cls-5" d="M52.16,124.77a1.57,1.57,0,1,0-1.49-1.56,1.47,1.47,0,0,0,1.49,1.56h0ZM50,121.1h0.7v0.61h0a2,2,0,0,1,1.51-.72,2.21,2.21,0,0,1,.11,4.42,1.82,1.82,0,0,1-1.62-.85h0v2.73H50V121.1h0Z" transform="translate(-0.04)"/><path id="_Compound_Path_21" data-name="&lt;Compound Path&gt;" class="cls-5" d="M58.47,122.82a1.17,1.17,0,0,0-1.27-1.19,1.3,1.3,0,0,0-1.37,1.19h2.64Zm0.6,1.72a2.16,2.16,0,0,1-1.87.87,2.08,2.08,0,0,1-2.13-2.21A2.11,2.11,0,0,1,57.23,121a2,2,0,0,1,2,2.2v0.22h-3.4a1.41,1.41,0,0,0,1.37,1.35,1.57,1.57,0,0,0,1.34-.64l0.53,0.41h0Z" transform="translate(-0.04)"/><path id="_Path_5" data-name="&lt;Path&gt;" class="cls-5" d="M60.13,122.1c0-.39,0-0.72,0-1h0.66c0,0.22,0,.46,0,0.69h0a1.53,1.53,0,0,1,1.4-.8,1.5,1.5,0,0,1,1.6,1.72v2.6h-0.7v-2.52a1,1,0,0,0-1-1.14c-0.91,0-1.3.66-1.3,1.62v2h-0.7V122.1h0Z" transform="translate(-0.04)"/><polygon id="_Path_6" data-name="&lt;Path&gt;" class="cls-5" points="65.26 119.07 66.36 119.07 68.49 123.98 68.51 123.98 70.65 119.07 71.73 119.07 71.73 125.33 70.98 125.33 70.98 120.08 70.97 120.08 68.72 125.33 68.27 125.33 66.02 120.08 66 120.08 66 125.33 65.26 125.33 65.26 119.07 65.26 119.07"/><path id="_Compound_Path_22" data-name="&lt;Compound Path&gt;" class="cls-5" d="M74.07,121.83h0.66c0.82,0,1.89,0,1.89-1s-0.79-1-1.51-1h-1v2.07h0Zm-0.74-2.76h1.6c1.21,0,2.5.18,2.5,1.73a1.64,1.64,0,0,1-1.57,1.65l1.78,2.88H76.72L75,122.52h-1v2.81H73.33v-6.26h0Z" transform="translate(-0.04)"/><path id="_Path_7" data-name="&lt;Path&gt;" class="cls-5" d="M81.61,120.18a1.3,1.3,0,0,0-1.14-.57,1.16,1.16,0,0,0-1.34,1.05c0,0.58.32,0.83,1.32,1.15s1.88,0.63,1.88,1.86a1.94,1.94,0,0,1-2.2,1.83,2.27,2.27,0,0,1-1.93-.87l0.64-.52a1.52,1.52,0,0,0,1.34.7,1.24,1.24,0,0,0,1.36-1.09c0-.77-0.52-0.9-1.64-1.27a1.77,1.77,0,0,1-1.56-1.73,1.9,1.9,0,0,1,2.13-1.8,2.15,2.15,0,0,1,1.75.73l-0.61.53h0Z" transform="translate(-0.04)"/></g></g></svg>