<?xml version="1.0" encoding="UTF-8" standalone="no"?>
<!-- Created with Inkscape (http://www.inkscape.org/) -->

<svg
   xmlns:dc="http://purl.org/dc/elements/1.1/"
   xmlns:cc="http://creativecommons.org/ns#"
   xmlns:rdf="http://www.w3.org/1999/02/22-rdf-syntax-ns#"
   xmlns:svg="http://www.w3.org/2000/svg"
   xmlns="http://www.w3.org/2000/svg"
   xmlns:sodipodi="http://sodipodi.sourceforge.net/DTD/sodipodi-0.dtd"
   xmlns:inkscape="http://www.inkscape.org/namespaces/inkscape"
   width="181"
   height="209"
   id="svg3105"
   version="1.1"
   inkscape:version="0.91 r"
   sodipodi:docname="open_access.svg"
   inkscape:export-filename="/home/jsaturno/Dropbox/Diseño/hexbin/designs/open_access.png"
   inkscape:export-xdpi="90"
   inkscape:export-ydpi="90">
  <defs
     id="defs3107">
    <linearGradient
       id="linearGradient4063">
      <stop
         id="stop4065"
         offset="0"
         style="stop-color:#b6e18f;stop-opacity:1;" />
      <stop
         id="stop4067"
         offset="1"
         style="stop-color:#b6e18f;stop-opacity:0;" />
    </linearGradient>
  </defs>
  <sodipodi:namedview
     id="base"
     pagecolor="#ffffff"
     bordercolor="#666666"
     borderopacity="1.0"
     inkscape:pageopacity="0.0"
     inkscape:pageshadow="2"
     inkscape:zoom="2.67"
     inkscape:cx="-17.225173"
     inkscape:cy="132.20963"
     inkscape:document-units="px"
     inkscape:current-layer="text4265"
     showgrid="false"
     inkscape:window-width="1538"
     inkscape:window-height="870"
     inkscape:window-x="62"
     inkscape:window-y="0"
     inkscape:window-maximized="1" />
  <metadata
     id="metadata3110">
    <rdf:RDF>
      <cc:Work
         rdf:about="">
        <dc:format>image/svg+xml</dc:format>
        <dc:type
           rdf:resource="http://purl.org/dc/dcmitype/StillImage" />
        <dc:title />
      </cc:Work>
    </rdf:RDF>
  </metadata>
  <g
     inkscape:label="Layer 1"
     inkscape:groupmode="layer"
     id="layer1"
     transform="translate(0,-843.36215)">
    <path
       inkscape:connector-curvature="0"
       d="M 90.5,1052.3622 0,1000.112 0,895.61216 90.5,843.3622 180.99999,895.61215 181,1000.112 z"
       id="path4662-3-7-5-5"
       style="fill:#f68212;fill-opacity:1;stroke:none" />
    <path
       inkscape:connector-curvature="0"
       d="m 90.5,1039.4015 -80.031691,-45.56205 0,-91.12382 L 90.5,857.15371 l 80.03163,45.56191 5e-5,91.12383 z"
       id="path4662-3-7-5-5-9"
       style="fill:#ffffff;fill-opacity:1;stroke:none" />
    <flowRoot
       xml:space="preserve"
       id="flowRoot3906"
       style="font-size:40px;font-style:normal;font-weight:normal;line-height:125%;letter-spacing:0px;word-spacing:0px;fill:#000000;fill-opacity:1;stroke:none;font-family:Sans"
       transform="matrix(1.0288839,0,0,1.0402392,-6.2736635,-42.445118)"><flowRegion
         id="flowRegion3908"><rect
           id="rect3910"
           width="129"
           height="117"
           x="96"
           y="151.36218" /></flowRegion><flowPara
         id="flowPara3912" /></flowRoot>    <g
       transform="matrix(1.3298955,0,0,1.4650554,-42.307932,808.04559)"
       style="font-size:40px;font-style:normal;font-weight:bold;line-height:125%;letter-spacing:0px;word-spacing:0px;fill:#3e3221;fill-opacity:1;stroke:none;font-family:Sans;-inkscape-font-specification:Courier New Bold"
       id="flowRoot3914" />
    <g
       id="g4258"
       transform="matrix(0.09468633,0,0,0.09468633,60.200369,879.32845)">
      <rect
         id="rect4244"
         height="1000"
         width="640"
         x="0"
         y="0"
         style="fill:#ffffff" />
      <g
         id="g4246"
         style="fill:none;stroke:#f68212;stroke-width:104.76399994">
        <path
           id="path4248"
           d="m 111.387,308.135 0,-35.727 a 209.21,209.214 0 0 1 418.42,0 l 0,258.426"
           inkscape:connector-curvature="0" />
        <circle
           id="circle4250"
           r="256.08301"
           cy="680.729"
           cx="320.004" />
      </g>
      <circle
         id="circle4252"
         r="86.428703"
         cy="681.659"
         cx="321.01001"
         style="fill:#f68212" />
    </g>
    <g
       style="font-style:normal;font-variant:normal;font-weight:900;font-stretch:normal;font-size:25px;line-height:125%;font-family:Roboto;-inkscape-font-specification:'Roboto Heavy';text-align:center;letter-spacing:0px;word-spacing:0px;text-anchor:middle;fill:#f68212;fill-opacity:1;stroke:none;stroke-width:1px;stroke-linecap:butt;stroke-linejoin:miter;stroke-opacity:1"
       id="text4265">
      <path
         d="m 33.415031,988.49994 q 0,2.95532 -1.878662,4.87793 -1.867675,1.91162 -4.888916,1.91162 -3.043213,0 -4.932861,-1.91162 -1.889648,-1.92261 -1.889648,-4.87793 l 0,-2.87842 q 0,-2.94433 1.878662,-4.86694 1.889648,-1.92261 4.921875,-1.92261 3.010254,0 4.899902,1.92261 1.889648,1.92261 1.889648,4.86694 l 0,2.87842 z m -3.702392,-2.90039 q 0,-1.71387 -0.812988,-2.8125 -0.802002,-1.09863 -2.27417,-1.09863 -1.505127,0 -2.307129,1.09863 -0.791016,1.08764 -0.791016,2.8125 l 0,2.90039 q 0,1.73584 0.802002,2.83447 0.812988,1.09863 2.318115,1.09863 1.461182,0 2.263184,-1.09863 0.802002,-1.09863 0.802002,-2.83447 l 0,-2.90039 z"
         style="font-size:22.5px"
         id="path4153" />
      <path
         d="m 39.292717,989.5766 0,5.48218 -3.724365,0 0,-15.9961 6.49292,0 q 2.845459,0 4.515381,1.46118 1.669921,1.4502 1.669921,3.80127 0,2.36206 -1.669921,3.81226 -1.669922,1.43921 -4.515381,1.43921 l -2.768555,0 z m 0,-2.85645 2.768555,0 q 1.208496,0 1.834716,-0.65918 0.637207,-0.67016 0.637207,-1.71386 0,-1.06568 -0.637207,-1.74683 -0.62622,-0.68115 -1.834716,-0.68115 l -2.768555,0 0,4.80102 z"
         style="font-size:22.5px"
         id="path4155" />
      <path
         d="m 60.331535,988.21429 -6.273193,0 0,3.98804 7.393799,0 0,2.85645 -11.118164,0 0,-15.9961 11.140136,0 0,2.85645 -7.415771,0 0,3.43872 6.273193,0 0,2.85644 z"
         style="font-size:22.5px"
         id="path4157" />
      <path
         d="m 76.470451,995.05878 -3.702392,0 -5.855713,-10.19532 -0.06592,0.022 0,10.17334 -3.724365,0 0,-15.9961 3.724365,0 5.855713,10.19532 0.06592,-0.022 0,-10.17334 3.702392,0 0,15.9961 z"
         style="font-size:22.5px"
         id="path4159" />
      <path
         d="m 88.148918,991.32343 -6.262207,0 -1.274414,3.73535 -2.702637,0 5.877686,-15.9961 2.526855,0 5.811768,15.9961 -2.713623,0 -1.263428,-3.73535 z m -5.493164,-2.23023 4.735108,0 -2.318116,-6.8335 -0.06592,0 -2.351074,6.8335 z"
         style="font-style:normal;font-variant:normal;font-weight:500;font-stretch:normal;font-size:22.5px;font-family:Roboto;-inkscape-font-specification:'Roboto Medium'"
         id="path4161" />
      <path
         d="m 105.65014,989.75238 0.022,0.0659 q 0.0439,2.42798 -1.58203,3.95508 -1.61499,1.51611 -4.383545,1.51611 -2.801513,0 -4.559326,-1.87866 -1.746826,-1.88965 -1.746826,-4.823 l 0,-3.04321 q 0,-2.92237 1.724854,-4.81202 1.735839,-1.90063 4.504394,-1.90063 2.834469,0 4.460449,1.49414 1.63696,1.48316 1.59302,3.99902 l -0.022,0.0659 -2.58179,0 q 0,-1.61499 -0.87891,-2.51587 -0.86792,-0.90088 -2.570799,-0.90088 -1.636963,0 -2.60376,1.29639 -0.95581,1.29639 -0.95581,3.25195 l 0,3.06519 q 0,1.97754 0.977783,3.27393 0.988769,1.29638 2.658691,1.29638 1.658935,0 2.515865,-0.88989 0.85694,-0.88989 0.85694,-2.51587 l 2.5708,0 z"
         style="font-style:normal;font-variant:normal;font-weight:500;font-stretch:normal;font-size:22.5px;font-family:Roboto;-inkscape-font-specification:'Roboto Medium'"
         id="path4163" />
      <path
         d="m 119.97631,989.75238 0.022,0.0659 q 0.044,2.42798 -1.58203,3.95508 -1.61499,1.51611 -4.38354,1.51611 -2.80152,0 -4.55933,-1.87866 -1.74683,-1.88965 -1.74683,-4.823 l 0,-3.04321 q 0,-2.92237 1.72486,-4.81202 1.73584,-1.90063 4.50439,-1.90063 2.83448,0 4.46045,1.49414 1.63697,1.48316 1.59302,3.99902 l -0.022,0.0659 -2.58179,0 q 0,-1.61499 -0.87891,-2.51587 -0.86792,-0.90088 -2.5708,-0.90088 -1.63696,0 -2.60376,1.29639 -0.95581,1.29639 -0.95581,3.25195 l 0,3.06519 q 0,1.97754 0.97779,3.27393 0.98877,1.29638 2.65869,1.29638 1.65893,0 2.51587,-0.88989 0.85693,-0.88989 0.85693,-2.51587 l 2.5708,0 z"
         style="font-style:normal;font-variant:normal;font-weight:500;font-stretch:normal;font-size:22.5px;font-family:Roboto;-inkscape-font-specification:'Roboto Medium'"
         id="path4165" />
      <path
         d="m 132.30297,987.86273 -6.99829,0 0,5.0647 8.1189,0 0,2.13135 -10.78858,0 0,-15.9961 10.71167,0 0,2.14234 -8.04199,0 0,4.51538 6.99829,0 0,2.14233 z"
         style="font-style:normal;font-variant:normal;font-weight:500;font-stretch:normal;font-size:22.5px;font-family:Roboto;-inkscape-font-specification:'Roboto Medium'"
         id="path4167" />
      <path
         d="m 144.35497,990.94989 q 0,-0.99976 -0.74707,-1.63696 -0.73608,-0.63721 -2.61474,-1.14258 -2.68067,-0.70313 -4.13086,-1.85669 -1.43921,-1.16455 -1.43921,-3.04321 0,-1.9336 1.59302,-3.18604 1.604,-1.25244 4.13086,-1.25244 2.63671,0 4.22973,1.41724 1.60401,1.41723 1.54907,3.40576 l -0.022,0.0659 -2.55981,0 q 0,-1.23047 -0.83496,-1.98853 -0.83497,-0.76904 -2.38404,-0.76904 -1.46118,0 -2.25219,0.6372 -0.78003,0.63721 -0.78003,1.64795 0,0.91187 0.84594,1.51612 0.85694,0.60425 2.82349,1.14258 2.58179,0.69213 3.92212,1.91162 1.34033,1.21948 1.34033,3.10913 0,1.99951 -1.604,3.18603 -1.59302,1.17554 -4.19678,1.17554 -2.50488,0 -4.39453,-1.31836 -1.88965,-1.32935 -1.83472,-3.63647 l 0.022,-0.0659 2.5708,0 q 0,1.46118 1.01075,2.18628 1.01074,0.71411 2.62573,0.71411 1.48315,0 2.30713,-0.59326 0.82397,-0.60425 0.82397,-1.62598 z"
         style="font-style:normal;font-variant:normal;font-weight:500;font-stretch:normal;font-size:22.5px;font-family:Roboto;-inkscape-font-specification:'Roboto Medium'"
         id="path4169" />
      <path
         d="m 158.50536,990.94989 q 0,-0.99976 -0.74707,-1.63696 -0.73608,-0.63721 -2.61474,-1.14258 -2.68067,-0.70313 -4.13086,-1.85669 -1.43921,-1.16455 -1.43921,-3.04321 0,-1.9336 1.59302,-3.18604 1.604,-1.25244 4.13086,-1.25244 2.63671,0 4.22973,1.41724 1.60401,1.41723 1.54907,3.40576 l -0.022,0.0659 -2.55981,0 q 0,-1.23047 -0.83496,-1.98853 -0.83496,-0.76904 -2.38404,-0.76904 -1.46118,0 -2.25219,0.6372 -0.78003,0.63721 -0.78003,1.64795 0,0.91187 0.84594,1.51612 0.85694,0.60425 2.82349,1.14258 2.58179,0.69213 3.92212,1.91162 1.34033,1.21948 1.34033,3.10913 0,1.99951 -1.604,3.18603 -1.59302,1.17554 -4.19678,1.17554 -2.50488,0 -4.39453,-1.31836 -1.88965,-1.32935 -1.83472,-3.63647 l 0.022,-0.0659 2.57081,0 q 0,1.46118 1.01074,2.18628 1.01074,0.71411 2.62573,0.71411 1.48315,0 2.30713,-0.59326 0.82397,-0.60425 0.82397,-1.62598 z"
         style="font-style:normal;font-variant:normal;font-weight:500;font-stretch:normal;font-size:22.5px;font-family:Roboto;-inkscape-font-specification:'Roboto Medium'"
         id="path4171" />
    </g>
  </g>
</svg>
