<?xml version="1.0" encoding="utf-8"?>
<!-- Generator: Adobe Illustrator 16.0.4, SVG Export Plug-In . SVG Version: 6.00 Build 0)  -->
<!DOCTYPE svg PUBLIC "-//W3C//DTD SVG 1.1//EN" "http://www.w3.org/Graphics/SVG/1.1/DTD/svg11.dtd">
<svg version="1.1" id="Layer_1" xmlns="http://www.w3.org/2000/svg" xmlns:xlink="http://www.w3.org/1999/xlink" x="0px" y="0px"
	 width="124.56px" height="144px" viewBox="0 0 124.56 144" enable-background="new 0 0 124.56 144" xml:space="preserve">
<g>
	<linearGradient id="SVGID_1_" gradientUnits="userSpaceOnUse" x1="62.2793" y1="1.0879" x2="62.2793" y2="142.9126">
		<stop  offset="0" style="stop-color:#4272B9"/>
		<stop  offset="1" style="stop-color:#64C5F0"/>
	</linearGradient>
	<polygon fill="url(#SVGID_1_)" points="62.28,1.088 0.868,36.545 0.868,107.457 62.28,142.912 123.691,107.457 123.691,36.545 	"/>
</g>
<path fill="#2E3192" d="M41.211,129.215l18.612,10.742l61.413-35.455V82.831c-7.588-3.983-16.219-6.247-25.383-6.247
	C66.338,76.584,42.298,99.964,41.211,129.215z"/>
<path fill="#006838" d="M118.156,94.863c-6.88,2.988-17.322,5.793-33.413,4.914c-48.069-2.63,0,0-11.646,27.174l19.241-7.911
	l25.818-14.905V94.863z"/>
<path fill="#FFFFFF" d="M62.28,8.462l55.026,31.77v63.539L62.28,135.54l-55.026-31.77V40.231L62.28,8.462 M62.28,0.043
	L-0.038,36.021v71.958l62.318,35.978l62.317-35.978V36.021L62.28,0.043L62.28,0.043z"/>
<rect x="12.248" y="39.787" fill="none" width="100.065" height="62.753"/>
<text transform="matrix(1 0 0 1 26.584 49.8608)"><tspan x="0" y="0" fill="#FFFFFF" font-family="'JoystixMonospace-Regular'" font-size="14.3705">&lt;open&gt;</tspan><tspan x="17.848" y="17.244" fill="#FFFFFF" font-family="'JoystixMonospace-Regular'" font-size="14.3705">Geo</tspan><tspan x="-11.898" y="34.489" fill="#FFFFFF" font-family="'JoystixMonospace-Regular'" font-size="14.3705">Metadata</tspan><tspan x="-5.949" y="51.734" fill="#FFFFFF" font-family="'JoystixMonospace-Regular'" font-size="14.3705">&lt;/open&gt;</tspan></text>
</svg>
