<?xml version="1.0" encoding="UTF-8" standalone="no"?>
<!-- Generator: Adobe Illustrator 16.0.4, SVG Export Plug-In . SVG Version: 6.00 Build 0)  -->

<svg
   xmlns:dc="http://purl.org/dc/elements/1.1/"
   xmlns:cc="http://creativecommons.org/ns#"
   xmlns:rdf="http://www.w3.org/1999/02/22-rdf-syntax-ns#"
   xmlns:svg="http://www.w3.org/2000/svg"
   xmlns="http://www.w3.org/2000/svg"
   xmlns:sodipodi="http://sodipodi.sourceforge.net/DTD/sodipodi-0.dtd"
   xmlns:inkscape="http://www.inkscape.org/namespaces/inkscape"
   version="1.1"
   id="Ebene_1"
   x="0px"
   y="0px"
   width="198.425px"
   height="198.425px"
   viewBox="0 0 198.425 198.425"
   enable-background="new 0 0 198.425 198.425"
   xml:space="preserve"
   inkscape:version="0.91 r13725"
   sodipodi:docname="HEX.svg"><metadata
     id="metadata119"><rdf:RDF><cc:Work
         rdf:about=""><dc:format>image/svg+xml</dc:format><dc:type
           rdf:resource="http://purl.org/dc/dcmitype/StillImage" /></cc:Work></rdf:RDF></metadata><defs
     id="defs117"><clipPath
       id="clipPath4329"
       clipPathUnits="userSpaceOnUse"><path
         inkscape:connector-curvature="0"
         id="path4331"
         d="m 0,0 313.118,0 0,228 L 0,228 0,0 Z" /></clipPath></defs><sodipodi:namedview
     pagecolor="#ffffff"
     bordercolor="#666666"
     borderopacity="1"
     objecttolerance="10"
     gridtolerance="10"
     guidetolerance="10"
     inkscape:pageopacity="0"
     inkscape:pageshadow="2"
     inkscape:window-width="1290"
     inkscape:window-height="1102"
     id="namedview115"
     showgrid="false"
     inkscape:zoom="3.3640357"
     inkscape:cx="106.35916"
     inkscape:cy="99.212502"
     inkscape:window-x="163"
     inkscape:window-y="29"
     inkscape:window-maximized="0"
     inkscape:current-layer="g7" /><polygon
     points="161.713,135.213 99.213,171.213 36.713,135.213 36.713,63.212 99.213,27.212 161.713,63.212 "
     id="polygon3"
     style="fill:#73ba25;fill-opacity:1"
     fill="#659ED6" /><polygon
     fill="none"
     stroke="#FFFFFF"
     stroke-width="2"
     stroke-miterlimit="10"
     points="157.713,133.045 99.213,166.879   40.713,133.045 40.713,65.379 99.213,31.545 157.713,65.379 "
     id="polygon5"
     style="opacity:1" /><g
     id="g7"
     transform="translate(0,-0.59452401)"><line
       stroke-miterlimit="10"
       x1="47"
       y1="70"
       x2="47"
       y2="129"
       id="line75"
       style="fill:none;stroke:#ffffff;stroke-width:2;stroke-miterlimit:10" /><line
       stroke-miterlimit="10"
       x1="53"
       y1="80"
       x2="53"
       y2="119"
       id="line77"
       style="fill:none;stroke:#ffffff;stroke-width:2;stroke-miterlimit:10" /><line
       style="fill:none;stroke:#ffffff;stroke-width:2;stroke-miterlimit:10"
       stroke-miterlimit="10"
       x1="146.84743"
       y1="81.125809"
       x2="146.84743"
       y2="120.12581"
       id="line77-3" /><line
       style="fill:none;stroke:#ffffff;stroke-width:2;stroke-miterlimit:10"
       stroke-miterlimit="10"
       x1="152.19815"
       y1="69.93676"
       x2="152.19815"
       y2="128.93675"
       id="line75-6" /><g
       transform="matrix(0.32579326,0,0,-0.32579326,48.070798,142.02743)"
       inkscape:label="openSUSE logo"
       id="g4323"><g
         id="g4325"><g
           clip-path="url(#clipPath4329)"
           id="g4327"><g
             transform="translate(241.7974,157.4448)"
             id="g4333"><path
               inkscape:connector-curvature="0"
               id="path4335"
               style="fill:#ffffff;fill-opacity:1;fill-rule:nonzero;stroke:none"
               d="m 0,0 c 0.142,3.813 1.738,7.352 4.525,9.947 2.79,2.605 6.429,3.95 10.246,3.829 7.867,-0.281 14.049,-6.923 13.78,-14.783 -0.15,-3.813 -1.745,-7.351 -4.527,-9.938 -2.789,-2.62 -6.42,-3.966 -10.252,-3.837 C 5.912,-14.493 -0.263,-7.866 0,0 m 38.166,-14.057 c 0.649,0.428 1.126,0.783 1.326,0.862 l 0.217,0.338 c -0.549,3.45 -5.69,20.176 -9.579,24.198 -1.072,1.096 -1.931,2.176 -3.667,3.193 -14.07,8.198 -47.45,13.146 -49.014,13.373 l -0.265,-0.074 -0.101,-0.242 c 0,0 -0.129,-6.916 -0.148,-7.689 -3.409,1.145 -28.191,9.15 -51.422,9.956 -19.701,0.692 -48.392,3.24 -86.41,-20.137 l -1.124,-0.7 c -17.888,-11.157 -30.236,-24.916 -36.691,-40.9 -2.026,-5.03 -4.748,-16.38 -2.05,-27.06 1.162,-4.668 3.33,-9.359 6.252,-13.558 6.605,-9.488 17.69,-15.783 29.623,-16.847 16.851,-1.507 29.611,6.061 34.148,20.233 3.12,9.778 0,24.125 -11.962,31.444 -9.73,5.957 -20.191,4.603 -26.26,0.588 -5.266,-3.491 -8.247,-8.915 -8.195,-14.873 0.122,-10.568 9.225,-16.185 15.771,-16.202 1.902,0 3.811,0.331 5.965,1.032 0.767,0.234 1.487,0.523 2.281,1.015 l 0.249,0.147 0.158,0.104 -0.053,-0.032 c 1.492,1.017 2.389,2.67 2.389,4.443 0,0.483 -0.067,0.974 -0.206,1.467 -0.773,2.676 -3.418,4.295 -6.157,3.796 l -0.37,-0.088 -0.5,-0.152 -0.727,-0.251 c -1.508,-0.369 -2.636,-0.403 -2.877,-0.41 -0.767,0.048 -4.535,1.177 -4.535,5.304 l 0,0.056 c 0,1.516 0.608,2.579 0.943,3.16 1.173,1.838 4.382,3.642 8.718,3.264 5.69,-0.492 9.794,-3.409 12.51,-8.915 2.522,-5.118 1.863,-11.412 -1.7,-16.025 -3.539,-4.569 -9.839,-6.511 -18.217,-5.61 -8.448,0.934 -15.59,5.796 -19.59,13.364 -3.916,7.4 -4.128,16.17 -0.554,22.908 8.553,16.145 24.706,15.977 33.563,14.446 13.107,-2.274 28.018,-14.364 33.307,-28.325 0.854,-2.226 1.29,-3.99 1.67,-5.603 l 0.572,-2.411 14.807,-7.23 0.195,-0.145 0.358,0.032 0.065,0.427 c -0.091,0.331 -0.307,0.637 -0.649,4.78 -0.281,3.678 -0.854,13.745 4.215,18.734 1.969,1.95 4.967,3.69 7.334,4.247 9.706,2.371 21.087,0.735 31.847,-11.72 5.57,-6.433 8.286,-9.365 9.649,-10.68 l 0.475,-0.428 0.561,-0.418 c 0.447,-0.244 18.502,-8.562 18.502,-8.562 l 0.373,0.089 0.006,0.386 c -0.12,0.137 -11.446,14.774 -9.429,26.826 1.588,9.6 9.227,8.73 19.796,7.537 3.45,-0.403 7.377,-0.854 11.442,-0.944 11.353,-0.073 23.582,2.024 31.119,5.321 4.876,2.119 7.988,3.53 9.938,5.303 0.702,0.581 1.064,1.524 1.443,2.539 l 0.267,0.67 c 0.314,0.823 0.779,2.556 0.981,3.507 0.082,0.418 0.131,0.861 -0.168,1.095 l -1.043,-0.193 c -3.309,-1.992 -11.584,-5.764 -19.317,-5.926 -9.605,-0.193 -28.938,9.658 -30.953,10.705 l -0.195,0.225 c -0.474,1.161 -3.378,8.021 -3.998,9.471 13.921,-9.172 25.467,-14.242 34.307,-15.024 9.84,-0.877 17.51,4.493 20.785,6.789 l -0.001,0 z M 16.278,-1.322 c -2.443,0 -4.416,1.322 -4.416,2.942 0,1.636 1.973,2.951 4.416,2.951 C 18.722,4.571 20.7,3.256 20.7,1.62 20.699,0 18.721,-1.322 16.278,-1.322 M 14.65,9.57 C 11.98,9.666 9.45,8.723 7.517,6.909 5.582,5.095 4.441,2.638 4.36,-0.023 c -0.184,-5.498 4.12,-10.124 9.606,-10.326 2.668,-0.08 5.211,0.863 7.156,2.677 1.942,1.822 3.06,4.28 3.145,6.931 C 24.451,4.756 20.148,9.375 14.65,9.57" /></g><g
             transform="translate(138.0493,74.873)"
             id="g4337"><path
               inkscape:connector-curvature="0"
               id="path4339"
               style="fill:#ffffff;fill-opacity:1;fill-rule:nonzero;stroke:none"
               d="m 0,0 c -6.274,0 -9.725,-5.305 -9.725,-8.972 l 0,-4.708 c 0,-5.4 4.412,-8.747 8.503,-8.747 l 14.364,0 c 1.81,0 2.189,-1.183 2.189,-2.183 l 0,-3.038 c 0,-0.324 -0.065,-3.242 -2.189,-3.242 l -19.59,0 c -1.947,0 -3.354,-1.354 -3.354,-3.207 l 0,-0.84 c 0,-1.847 1.407,-3.193 3.354,-3.193 l 20.655,0 c 5.399,0 8.883,3.757 8.883,9.576 l 0,5.08 c 0,5.464 -3.926,7.908 -7.824,7.908 l -14.134,0 c -2.127,0 -3.092,1.595 -3.092,2.723 l 0,2.805 c 0,1.767 1.181,2.79 3.245,2.79 l 15.645,0 c 1.918,0 3.362,1.378 3.362,3.2 l 0,0.839 C 20.292,-1.38 18.824,0 16.865,0 L 0,0 Z" /></g><g
             transform="translate(196.7837,74.873)"
             id="g4341"><path
               inkscape:connector-curvature="0"
               id="path4343"
               style="fill:#ffffff;fill-opacity:1;fill-rule:nonzero;stroke:none"
               d="m 0,0 c -1.855,0 -3.35,-1.507 -3.35,-3.361 l 0,-24.054 c 0,-1.927 -1.572,-3.475 -3.474,-3.475 l -10.919,0 c -1.91,0 -3.475,1.548 -3.475,3.475 l 0,24.054 c 0,1.854 -1.507,3.361 -3.359,3.361 l -1.057,0 c -1.882,0 -3.361,-1.483 -3.361,-3.361 l 0,-24.964 c 0,-5.812 4.572,-10.028 10.873,-10.028 l 11.676,0 c 6.292,0 10.861,4.215 10.861,10.028 l 0,24.964 C 4.415,-1.483 2.941,0 1.063,0 L 0,0 Z" /></g><g
             transform="translate(217.687,74.873)"
             id="g4345"><path
               inkscape:connector-curvature="0"
               id="path4347"
               style="fill:#ffffff;fill-opacity:1;fill-rule:nonzero;stroke:none"
               d="m 0,0 c -6.271,0 -9.731,-5.305 -9.731,-8.972 l 0,-4.708 c 0,-5.4 4.42,-8.747 8.514,-8.747 l 14.36,0 c 1.812,0 2.192,-1.183 2.192,-2.183 l 0,-3.038 c 0,-0.324 -0.064,-3.242 -2.192,-3.242 l -19.6,0 c -1.938,0 -3.353,-1.354 -3.353,-3.207 l 0,-0.84 c 0,-1.847 1.415,-3.193 3.353,-3.193 l 20.663,0 c 5.4,0 8.899,3.757 8.899,9.576 l 0,5.08 c 0,5.464 -3.937,7.908 -7.834,7.908 l -14.133,0 c -2.135,0 -3.096,1.595 -3.096,2.723 l 0,2.805 c 0,1.767 1.181,2.79 3.244,2.79 l 15.654,0 c 1.914,0 3.352,1.378 3.352,3.2 l 0,0.839 C 20.292,-1.38 18.826,0 16.858,0 L 0,0 Z" /></g><g
             transform="translate(250.7085,74.873)"
             id="g4349"><path
               inkscape:connector-curvature="0"
               id="path4351"
               style="fill:#ffffff;fill-opacity:1;fill-rule:nonzero;stroke:none"
               d="m 0,0 c -1.861,0 -3.269,-1.38 -3.269,-3.209 l 0,-31.727 c 0,-1.821 1.374,-3.192 3.196,-3.192 l 25.282,0 c 1.947,0 3.354,1.346 3.354,3.192 l 0,0.84 c 0,1.853 -1.407,3.208 -3.354,3.208 l -20.706,0 0,8.077 15.174,0 c 1.941,0 3.352,1.364 3.352,3.209 l 0,0.838 c 0,1.855 -1.411,3.201 -3.352,3.201 l -15.174,0 0,8.319 19.654,0 c 1.941,0 3.355,1.337 3.355,3.201 l 0,0.838 c 0,1.855 -1.414,3.209 -3.355,3.209 L 0,0.004 0,0 Z" /></g><g
             transform="translate(34.1226,42.79)"
             id="g4353"><path
               inkscape:connector-curvature="0"
               id="path4355"
               style="fill:#ffffff;fill-opacity:1;fill-rule:nonzero;stroke:none"
               d="m 0,0 0,10.924 c 0,1.28 1.052,2.327 2.338,2.327 l 6.029,0 c 1.258,0 2.33,-1.07 2.33,-2.327 L 10.697,0 c 0,-1.288 -1.044,-2.337 -2.33,-2.337 l -6.074,0 C 1.004,-2.337 0,-1.312 0,0 m 1.674,16.992 c -3.168,0 -5.747,-2.465 -5.747,-5.505 l 0,-11.962 c 0,-3.088 2.495,-5.602 5.555,-5.602 l 7.737,0 c 3.06,0 5.555,2.514 5.555,5.602 l 0,11.962 c 0,3.038 -2.58,5.505 -5.747,5.505 l -7.353,0 z" /></g><g
             transform="translate(58.6729,43.0234)"
             id="g4357"><path
               inkscape:connector-curvature="0"
               id="path4359"
               style="fill:#ffffff;fill-opacity:1;fill-rule:nonzero;stroke:none"
               d="m 0,0 0,10.448 c 0,1.444 1.128,2.571 2.57,2.571 l 5.651,0 c 1.444,0 2.57,-1.128 2.57,-2.571 L 10.791,0 c 0,-1.418 -1.156,-2.569 -2.57,-2.569 l -5.651,0 C 1.155,-2.569 0,-1.418 0,0 m 7.74,16.897 c -2.231,0 -3.913,-0.796 -5.263,-1.45 -0.823,-0.394 -1.535,-0.735 -2.088,-0.735 -0.25,0 -0.464,0.113 -0.577,0.299 l -0.515,0.983 c -0.128,0.259 -0.644,0.766 -1.282,0.766 l -0.765,0 c -0.735,0 -1.323,-0.66 -1.323,-1.467 l 0,-30.341 c 0,-0.952 0.751,-1.701 1.701,-1.701 l 0.661,0 c 0.943,0 1.71,0.759 1.71,1.701 l 0,10.068 c 0,0.298 0.193,0.621 0.39,0.621 0.553,0 1.265,-0.325 2.088,-0.702 1.35,-0.621 3.032,-1.385 5.263,-1.385 l 0.714,0 c 3.95,0 6.408,2.258 6.408,5.883 l 0,11.583 c 0,3.571 -2.51,5.876 -6.408,5.876 l -0.714,0 0,10e-4 z" /></g><g
             transform="translate(83.3091,53.7529)"
             id="g4361"><path
               inkscape:connector-curvature="0"
               id="path4363"
               style="fill:#ffffff;fill-opacity:1;fill-rule:nonzero;stroke:none"
               d="m 0,0 c 0,1.282 1.008,2.289 2.292,2.289 l 6.215,0 c 1.281,0 2.28,-1.007 2.28,-2.289 l 0,-3.707 -10.788,0 C 0,-3.223 0,0 0,0 m 1.672,6.03 c -3.168,0 -5.739,-2.466 -5.739,-5.505 l 0,-11.873 c 0,-3.08 2.499,-5.691 5.448,-5.691 l 7.984,0 c 0.987,0 1.701,0.684 1.701,1.613 l 0,0.523 c 0,0.935 -0.714,1.605 -1.701,1.605 l -6.559,0 c -1.838,0 -2.807,0.902 -2.807,2.621 l 0,3.474 11.831,0 c 1.903,0 3.029,1.161 3.029,3.127 l 0,4.603 c 0,3.039 -2.576,5.506 -5.732,5.506 l -7.455,0 0,-0.003 z" /></g><g
             transform="translate(114.6045,59.9209)"
             id="g4365"><path
               inkscape:connector-curvature="0"
               id="path4367"
               style="fill:#ffffff;fill-opacity:1;fill-rule:nonzero;stroke:none"
               d="m 0,0 c -2.224,0 -3.902,-0.797 -5.256,-1.442 -0.843,-0.397 -1.563,-0.744 -2.151,-0.744 -0.258,0 -0.363,0.034 -0.564,0.381 l -0.468,0.855 c -0.268,0.54 -0.725,0.811 -1.341,0.811 l -0.658,0 c -0.794,0 -1.374,-0.619 -1.374,-1.465 l 0,-19.902 c 0,-0.942 0.745,-1.701 1.705,-1.701 l 0.657,0 c 0.943,0 1.712,0.767 1.712,1.701 l 0,15.057 c 0,1.41 1.153,2.57 2.564,2.57 l 5.653,0 c 1.416,0 2.568,-1.16 2.568,-2.57 l 0,-15.057 c 0,-0.942 0.749,-1.701 1.7,-1.701 l 0.665,0 c 0.943,0 1.709,0.767 1.709,1.701 l 0,15.629 C 7.121,-2.306 4.61,0 0.71,0 L 0,0 Z" /></g><g
             transform="translate(284.3042,41.3926)"
             id="g4369"><path
               inkscape:connector-curvature="0"
               id="path4371"
               style="fill:#ffffff;fill-opacity:1;fill-rule:nonzero;stroke:none"
               d="M 0,0 0.406,0 C 0.868,0 1.26,0.167 1.26,0.602 1.26,0.91 1.036,1.219 0.406,1.219 0.224,1.219 0.099,1.205 0,1.188 L 0,0 Z m 0,-1.947 -0.56,0 0,3.512 C -0.266,1.608 0.015,1.65 0.435,1.65 0.967,1.65 1.316,1.54 1.525,1.385 1.736,1.232 1.85,0.995 1.85,0.656 1.85,0.195 1.541,-0.083 1.164,-0.197 l 0,-0.03 C 1.473,-0.281 1.682,-0.562 1.752,-1.08 1.836,-1.627 1.918,-1.837 1.976,-1.948 l -0.588,0 c -0.086,0.111 -0.169,0.433 -0.239,0.895 -0.084,0.448 -0.308,0.616 -0.755,0.616 l -0.393,0 0,-1.51 -0.001,0 z m 0.588,4.495 c -1.385,0 -2.519,-1.192 -2.519,-2.661 0,-1.499 1.134,-2.674 2.534,-2.674 1.399,-0.016 2.519,1.175 2.519,2.66 0,1.483 -1.12,2.675 -2.519,2.675 l -0.015,0 z m 0.015,0.489 c 1.721,0 3.093,-1.4 3.093,-3.152 0,-1.778 -1.373,-3.162 -3.108,-3.162 -1.722,0 -3.121,1.384 -3.121,3.162 0,1.751 1.399,3.152 3.121,3.152 l 0.015,0 z" /></g></g></g></g><text
       xml:space="preserve"
       style="font-style:normal;font-weight:normal;font-size:40px;line-height:125%;font-family:sans-serif;letter-spacing:0px;word-spacing:0px;fill:#000000;fill-opacity:1;stroke:none;stroke-width:1px;stroke-linecap:butt;stroke-linejoin:miter;stroke-opacity:1"
       x="52.615379"
       y="75.655792"
       id="text4398"
       sodipodi:linespacing="125%"><tspan
         sodipodi:role="line"
         id="tspan4400"
         x="52.615379"
         y="75.655792"
         style="font-style:normal;font-variant:normal;font-weight:normal;font-stretch:normal;font-size:8.125px;font-family:'Open Sans';-inkscape-font-specification:'Open Sans';fill:#ffffff">Openly Engineered Tools</tspan></text>
</g></svg>