<svg id="Cut_Lines" data-name="Cut Lines" xmlns="http://www.w3.org/2000/svg" viewBox="0 0 124.71 144"><defs><style>.cls-1{fill:#231f20;}.cls-2{fill:#f26724;}.cls-3{fill:#f26522;}.cls-4{fill:#eea616;}.cls-5{fill:#5b57a6;}.cls-6{fill:#009384;}</style></defs><title>openmrs-hex-icon</title><g id="Black_with_Stroke" data-name="Black with Stroke"><polygon class="cls-1" points="2.5 106.56 2.5 37.44 62.35 2.89 122.21 37.44 122.21 106.56 62.35 141.11 2.5 106.56"/><path class="cls-2" d="M62.39,5.77l57.35,33.11v66.23L62.39,138.23,5,105.11V38.89L62.39,5.77m0-5.77L0,36v72l62.35,36,62.35-36V36L62.39,0h0Z" transform="translate(-0.04 0)"/></g><g id="Icon_Only" data-name="Icon Only"><path id="_Path_" data-name="&lt;Path&gt;" class="cls-3" d="M42.6,52.28a28.1,28.1,0,0,1,39.7,0l0-18.71a42.71,42.71,0,0,0-39.74.22l0,18.53h0Z" transform="translate(-0.04 0)"/><path id="_Path_2" data-name="&lt;Path&gt;" class="cls-4" d="M82.32,92a28.1,28.1,0,0,1-39.7,0l0,18.71a43.49,43.49,0,0,0,39.71,0V92h0Z" transform="translate(-0.04 0)"/><path id="_Path_3" data-name="&lt;Path&gt;" class="cls-5" d="M42.64,92a28.1,28.1,0,0,1,0-39.7l-18.71,0a43.5,43.5,0,0,0,0,39.71H42.64Z" transform="translate(-0.04 0)"/><path id="_Path_4" data-name="&lt;Path&gt;" class="cls-6" d="M82.31,52.24a28.1,28.1,0,0,1,0,39.7l18.71,0a43.5,43.5,0,0,0,0-39.7H82.31Z" transform="translate(-0.04 0)"/></g></svg>