<svg id="Cut_Lines" data-name="Cut Lines" xmlns="http://www.w3.org/2000/svg" viewBox="0 0 124.71 144"><defs><style>.cls-1{fill:#231f20;}.cls-2{fill:#eea720;}.cls-3{fill:#5c58a6;}.cls-4{fill:#069484;}.cls-5{fill:#f26724;}.cls-6{fill:#fff;}</style></defs><title>openmrs-hex-talk</title><g id="Black_with_Stroke" data-name="Black with Stroke"><polygon class="cls-1" points="2.5 106.56 2.5 37.44 62.35 2.89 122.21 37.44 122.21 106.56 62.35 141.11 2.5 106.56"/><path class="cls-2" d="M62.39,5.77l57.35,33.11v66.23L62.39,138.23,5,105.11V38.89L62.39,5.77m0-5.77L0,36v72l62.35,36,62.35-36V36L62.39,0h0Z" transform="translate(-0.04 0)"/></g><g id="For_Stroke" data-name="For Stroke"><path class="cls-2" d="M69.15,77H54.73a5.41,5.41,0,0,0-5.41,5.41V96.83H74.56V82.41A5.41,5.41,0,0,0,69.15,77Z" transform="translate(-0.04 0)"/><circle class="cls-3" cx="42.06" cy="71.59" r="5.41"/><circle class="cls-2" cx="61.9" cy="67.98" r="6.31"/><path class="cls-3" d="M45.71,82.41a9,9,0,0,1,.42-2.7H34a4.51,4.51,0,0,0-4.51,4.51V96.83H45.71V82.41Z" transform="translate(-0.04 0)"/><circle class="cls-4" cx="81.73" cy="71.59" r="5.41"/><path class="cls-4" d="M78.17,82.41a9,9,0,0,0-.42-2.7H89.89a4.51,4.51,0,0,1,4.51,4.51V96.83H78.17V82.41Z" transform="translate(-0.04 0)"/><path class="cls-5" d="M81.77,31.92H42.1a3.61,3.61,0,0,0-3.61,3.61V51.75a3.61,3.61,0,0,0,3.61,3.61H58.33l3.61,4.51,3.61-4.51H81.77a3.61,3.61,0,0,0,3.61-3.61V35.53A3.61,3.61,0,0,0,81.77,31.92ZM53.83,45.44h-2.7v2.7H47.51v-2.7h-2.7V41.84h2.7v-2.7h3.61v2.7h2.7v3.61Zm11.83-1.17L61.94,48l-3.72-3.7A3.71,3.71,0,0,1,57,41.66a2.24,2.24,0,0,1,2.38-2.36c1.34,0,1.79.62,2.58,1.52,0.78-.9,1.24-1.52,2.58-1.52a2.24,2.24,0,0,1,2.38,2.36A3.71,3.71,0,0,1,65.66,44.28Zm8.9,3.87a3.6,3.6,0,0,1-1.78-6.73,1.78,1.78,0,0,1-.42-0.09A2.83,2.83,0,0,1,71,39.89a2.82,2.82,0,0,1,2-.25,2.56,2.56,0,0,1,1.27,1.18,3.24,3.24,0,0,1,.55-1.15A0.89,0.89,0,0,0,75,39.13h0.9a1.73,1.73,0,0,1-.4,1,2.38,2.38,0,0,0-.41.81A3.6,3.6,0,0,1,74.56,48.15Z" transform="translate(-0.04 0)"/><path class="cls-6" d="M32.38,103.65H31.33v1.29a2.41,2.41,0,0,0,0,.29,0.58,0.58,0,0,0,.07.23,0.36,0.36,0,0,0,.17.15,0.75,0.75,0,0,0,.31.05l0.25,0a0.43,0.43,0,0,0,.23-0.09v1a1.84,1.84,0,0,1-.41.09l-0.42,0A2.32,2.32,0,0,1,31,106.6a1.28,1.28,0,0,1-.45-0.2,1,1,0,0,1-.3-0.36,1.24,1.24,0,0,1-.11-0.54v-1.84H29.37v-1h0.76v-1.15h1.19v1.15h1.05v1Z" transform="translate(-0.04 0)"/><path class="cls-6" d="M35.63,106.08h0a1.12,1.12,0,0,1-.53.45,1.81,1.81,0,0,1-.7.14,1.79,1.79,0,0,1-.52-0.08,1.31,1.31,0,0,1-.44-0.23,1.1,1.1,0,0,1-.3-0.37,1.14,1.14,0,0,1-.11-0.52,1.18,1.18,0,0,1,.12-0.57,1.1,1.1,0,0,1,.33-0.38,1.66,1.66,0,0,1,.48-0.23,3.39,3.39,0,0,1,.56-0.12,5.54,5.54,0,0,1,.58,0h0.54a0.62,0.62,0,0,0-.23-0.51,0.82,0.82,0,0,0-.54-0.19,1.17,1.17,0,0,0-.54.12,1.47,1.47,0,0,0-.43.34l-0.64-.65a2.19,2.19,0,0,1,.78-0.47A2.79,2.79,0,0,1,35,102.6a2.43,2.43,0,0,1,.86.13,1.26,1.26,0,0,1,.54.39,1.49,1.49,0,0,1,.28.63,4.1,4.1,0,0,1,.08.86v2h-1.1v-0.49Zm-0.29-1.21H35a1.71,1.71,0,0,0-.39.07,0.88,0.88,0,0,0-.32.17,0.38,0.38,0,0,0-.13.31,0.34,0.34,0,0,0,.18.32,0.76,0.76,0,0,0,.38.1,1.19,1.19,0,0,0,.34,0,1,1,0,0,0,.29-0.14,0.63,0.63,0,0,0,.28-0.54v-0.25H35.34Z" transform="translate(-0.04 0)"/><path class="cls-6" d="M37.74,100.54h1.19v6H37.74v-6Z" transform="translate(-0.04 0)"/><path class="cls-6" d="M40,100.54h1.19v3.68l1.32-1.53H44l-1.54,1.74L44,106.57h-1.5l-1.31-2h0v2H40v-6Z" transform="translate(-0.04 0)"/><path class="cls-6" d="M44.59,105.88a0.74,0.74,0,0,1,.06-0.29,0.73,0.73,0,0,1,.16-0.24A0.74,0.74,0,0,1,45,105.2a0.75,0.75,0,0,1,.81.16,0.73,0.73,0,0,1,.16.24,0.76,0.76,0,0,1,0,.57,0.7,0.7,0,0,1-.39.39,0.77,0.77,0,0,1-.57,0,0.7,0.7,0,0,1-.39-0.39A0.73,0.73,0,0,1,44.59,105.88Z" transform="translate(-0.04 0)"/><path class="cls-6" d="M46.82,104.63a2,2,0,0,1,.17-0.84,1.93,1.93,0,0,1,.46-0.64,2,2,0,0,1,.69-0.41,2.55,2.55,0,0,1,1.68,0,2,2,0,0,1,.68.41,1.93,1.93,0,0,1,.46.64,2.17,2.17,0,0,1,0,1.67,1.92,1.92,0,0,1-.46.64,2,2,0,0,1-.68.41,2.53,2.53,0,0,1-1.68,0,2,2,0,0,1-.69-0.41,1.93,1.93,0,0,1-.46-0.64A2,2,0,0,1,46.82,104.63Zm1.19,0a1,1,0,0,0,.25.71,1.05,1.05,0,0,0,1.41,0,1.13,1.13,0,0,0,0-1.42,1.05,1.05,0,0,0-1.41,0A1,1,0,0,0,48,104.63Z" transform="translate(-0.04 0)"/><path class="cls-6" d="M52,102.7h1.1v0.51h0a1.39,1.39,0,0,1,.46-0.41,1.67,1.67,0,0,1,.34-0.14,1.34,1.34,0,0,1,.39-0.06,2,2,0,0,1,.78.15,1.73,1.73,0,0,1,.6.41,1.84,1.84,0,0,1,.39.63,2.32,2.32,0,0,1,.14.8,2.45,2.45,0,0,1-.12.78,2.14,2.14,0,0,1-.35.66,1.73,1.73,0,0,1-.55.46,1.58,1.58,0,0,1-.74.17,2.07,2.07,0,0,1-.7-0.12,1.12,1.12,0,0,1-.53-0.39h0v2.23H52V102.7Zm1.1,1.93a1,1,0,0,0,.25.71,1.05,1.05,0,0,0,1.41,0,1.13,1.13,0,0,0,0-1.42,1.05,1.05,0,0,0-1.41,0A1,1,0,0,0,53.15,104.63Z" transform="translate(-0.04 0)"/><path class="cls-6" d="M60.75,105.9a1.91,1.91,0,0,1-.72.57,2.17,2.17,0,0,1-.91.2,2.44,2.44,0,0,1-.84-0.14,2,2,0,0,1-.69-0.41,1.93,1.93,0,0,1-.46-0.64,2.18,2.18,0,0,1,0-1.67,1.93,1.93,0,0,1,.46-0.64,2,2,0,0,1,.69-0.41,2.46,2.46,0,0,1,.84-0.14,1.93,1.93,0,0,1,.75.14,1.57,1.57,0,0,1,.57.41,1.88,1.88,0,0,1,.36.64,2.6,2.6,0,0,1,.13.84V105H58.17a0.94,0.94,0,0,0,.31.54,0.88,0.88,0,0,0,.59.2,0.9,0.9,0,0,0,.5-0.13,1.36,1.36,0,0,0,.35-0.34Zm-1-1.7a0.69,0.69,0,0,0-.2-0.52,0.71,0.71,0,0,0-.53-0.22,0.89,0.89,0,0,0-.35.06,0.86,0.86,0,0,0-.26.16,0.72,0.72,0,0,0-.17.23,0.76,0.76,0,0,0-.07.28h1.58Z" transform="translate(-0.04 0)"/><path class="cls-6" d="M61.84,102.7H63v0.53h0a1,1,0,0,1,.16-0.22,1.13,1.13,0,0,1,.25-0.2,1.39,1.39,0,0,1,.33-0.14,1.36,1.36,0,0,1,.4-0.06,1.65,1.65,0,0,1,.73.14,1.06,1.06,0,0,1,.43.39,1.57,1.57,0,0,1,.21.58,4.43,4.43,0,0,1,.06.72v2.13H64.38v-1.9c0-.11,0-0.23,0-0.35a1.09,1.09,0,0,0-.07-0.33,0.51,0.51,0,0,0-.54-0.34,0.74,0.74,0,0,0-.37.08,0.57,0.57,0,0,0-.22.22,0.91,0.91,0,0,0-.1.31,2.69,2.69,0,0,0,0,.37v1.93H61.84V102.7Z" transform="translate(-0.04 0)"/><path class="cls-6" d="M66.62,102.7h1.15v0.53h0a1,1,0,0,1,.16-0.22,1.13,1.13,0,0,1,.25-0.2,1.39,1.39,0,0,1,.33-0.14,1.36,1.36,0,0,1,.4-0.06,1.52,1.52,0,0,1,.72.17,1.06,1.06,0,0,1,.47.53,1.29,1.29,0,0,1,.5-0.53,1.5,1.5,0,0,1,.72-0.16,1.49,1.49,0,0,1,.66.13,1.08,1.08,0,0,1,.42.36,1.51,1.51,0,0,1,.22.53,3,3,0,0,1,.07.66v2.29H71.51v-2.25a0.9,0.9,0,0,0-.12-0.47,0.44,0.44,0,0,0-.41-0.2,0.79,0.79,0,0,0-.35.07,0.59,0.59,0,0,0-.22.19,0.78,0.78,0,0,0-.12.28,1.51,1.51,0,0,0,0,.33v2H69.06v-2c0-.07,0-0.15,0-0.25A1,1,0,0,0,69,104a0.54,0.54,0,0,0-.16-0.23,0.46,0.46,0,0,0-.31-0.1,0.74,0.74,0,0,0-.37.08,0.57,0.57,0,0,0-.22.22,0.91,0.91,0,0,0-.1.31,2.69,2.69,0,0,0,0,.37v1.93H66.62V102.7Z" transform="translate(-0.04 0)"/><path class="cls-6" d="M73.75,102.7h1.2v0.62h0a1.47,1.47,0,0,1,.45-0.54,1.15,1.15,0,0,1,.66-0.18h0.21l0.19,0v1.09l-0.25-.06-0.26,0a1.27,1.27,0,0,0-.54.1,0.71,0.71,0,0,0-.31.27,1,1,0,0,0-.14.41,4,4,0,0,0,0,.53v1.62h-1.2V102.7Z" transform="translate(-0.04 0)"/><path class="cls-6" d="M79.39,103.83a0.84,0.84,0,0,0-.69-0.33,0.65,0.65,0,0,0-.29.07,0.25,0.25,0,0,0-.14.25,0.22,0.22,0,0,0,.15.21,1.93,1.93,0,0,0,.37.12l0.49,0.11a1.86,1.86,0,0,1,.49.19,1.08,1.08,0,0,1,.37.35,1,1,0,0,1,.15.58,1.08,1.08,0,0,1-.16.62,1.26,1.26,0,0,1-.42.39,1.82,1.82,0,0,1-.57.21,3.5,3.5,0,0,1-.63.06,3.08,3.08,0,0,1-.82-0.12,1.54,1.54,0,0,1-.7-0.41l0.73-.8a1.2,1.2,0,0,0,.37.31,1,1,0,0,0,.47.11,1.11,1.11,0,0,0,.38-0.06,0.22,0.22,0,0,0,.17-0.22,0.24,0.24,0,0,0-.15-0.23,1.64,1.64,0,0,0-.37-0.13L78.07,105a2,2,0,0,1-.48-0.18,1,1,0,0,1-.37-0.34,1,1,0,0,1-.15-0.59,1.17,1.17,0,0,1,.14-0.59,1.22,1.22,0,0,1,.37-0.41,1.58,1.58,0,0,1,.52-0.24,2.41,2.41,0,0,1,.6-0.08,2.8,2.8,0,0,1,.77.11,1.43,1.43,0,0,1,.66.4Z" transform="translate(-0.04 0)"/><path class="cls-6" d="M81.1,105.88a0.75,0.75,0,0,1,.06-0.29,0.73,0.73,0,0,1,.16-0.24,0.74,0.74,0,0,1,.23-0.16,0.77,0.77,0,0,1,.57,0,0.74,0.74,0,0,1,.23.16,0.73,0.73,0,0,1,.16.24,0.77,0.77,0,0,1,0,.57,0.7,0.7,0,0,1-.39.39,0.77,0.77,0,0,1-.57,0,0.7,0.7,0,0,1-.39-0.39A0.74,0.74,0,0,1,81.1,105.88Z" transform="translate(-0.04 0)"/><path class="cls-6" d="M83.33,104.63a2,2,0,0,1,.17-0.84,1.92,1.92,0,0,1,.46-0.64,2,2,0,0,1,.68-0.41,2.55,2.55,0,0,1,1.68,0,2,2,0,0,1,.68.41,1.92,1.92,0,0,1,.46.64,2.18,2.18,0,0,1,0,1.67,1.92,1.92,0,0,1-.46.64,2,2,0,0,1-.68.41,2.53,2.53,0,0,1-1.68,0,2,2,0,0,1-.68-0.41,1.92,1.92,0,0,1-.46-0.64A2,2,0,0,1,83.33,104.63Zm1.2,0a1,1,0,0,0,.25.71,1.05,1.05,0,0,0,1.41,0,1.13,1.13,0,0,0,0-1.42,1.05,1.05,0,0,0-1.41,0A1,1,0,0,0,84.52,104.63Z" transform="translate(-0.04 0)"/><path class="cls-6" d="M88.5,102.7h1.2v0.62h0a1.46,1.46,0,0,1,.45-0.54,1.15,1.15,0,0,1,.66-0.18H91l0.19,0v1.09L91,103.67l-0.26,0a1.27,1.27,0,0,0-.54.1,0.71,0.71,0,0,0-.31.27,1,1,0,0,0-.14.41,4,4,0,0,0,0,.53v1.62H88.5V102.7Z" transform="translate(-0.04 0)"/><path class="cls-6" d="M96,106.24a2.3,2.3,0,0,1-.55,1.67,2.25,2.25,0,0,1-1.68.57,4.51,4.51,0,0,1-1-.12,2.3,2.3,0,0,1-.92-0.45l0.66-1a2.47,2.47,0,0,0,.58.37,1.64,1.64,0,0,0,.67.14,1.08,1.08,0,0,0,.81-0.27,0.94,0.94,0,0,0,.26-0.68V106.1h0a1.13,1.13,0,0,1-.51.39,1.66,1.66,0,0,1-.58.12,2,2,0,0,1-.78-0.15,1.73,1.73,0,0,1-.6-0.41,1.83,1.83,0,0,1-.39-0.63,2.39,2.39,0,0,1,0-1.55,2,2,0,0,1,.35-0.64,1.76,1.76,0,0,1,.55-0.45,1.57,1.57,0,0,1,.74-0.17,1.82,1.82,0,0,1,.47.06,1.79,1.79,0,0,1,.38.14,1.37,1.37,0,0,1,.29.19,1.27,1.27,0,0,1,.19.21h0V102.7H96v3.54Zm-3-1.63a0.93,0.93,0,0,0,.27.67,1.06,1.06,0,0,0,.3.21,0.89,0.89,0,0,0,.38.08,0.9,0.9,0,0,0,.38-0.08,1.05,1.05,0,0,0,.31-0.21,1,1,0,0,0,.2-0.3,1,1,0,0,0,0-.72,1,1,0,0,0-.2-0.3,1,1,0,0,0-.31-0.21,0.89,0.89,0,0,0-.37-0.08,0.88,0.88,0,0,0-.38.08,1,1,0,0,0-.3.21A0.93,0.93,0,0,0,93,104.61Z" transform="translate(-0.04 0)"/></g></svg>