<?xml version="1.0" encoding="utf-8"?>
<!-- Generator: Adobe Illustrator 17.1.0, SVG Export Plug-In . SVG Version: 6.00 Build 0)  -->
<!DOCTYPE svg PUBLIC "-//W3C//DTD SVG 1.1//EN" "http://www.w3.org/Graphics/SVG/1.1/DTD/svg11.dtd">
<svg version="1.1" id="Layer_1" xmlns="http://www.w3.org/2000/svg" xmlns:xlink="http://www.w3.org/1999/xlink" x="0px" y="0px"
	 viewBox="0 0 431.2 500" enable-background="new 0 0 431.2 500" xml:space="preserve">
<polygon fill="#29BBAF" points="7.7,129.5 7.7,369.6 215.6,489.6 423.5,369.6 423.5,129.5 215.6,9.5 "/>
<path fill="#E35082" d="M414,115.1L251,21L215.6,0.6L180.2,21l-163,94.1L0,125.1v249l17.2,9.9l165,95.3l33.4,19.2l33.4-19.2L414,384
	l17.2-9.9v-249L414,115.1z M401.7,357.6L215.6,465L29.5,357.6V142.7L215.6,35.3l0,0l186.1,107.4V357.6L401.7,357.6z"/>
<polyline fill="#FFFFFF" points="297,203.7 266.5,250 281.8,273.2 239.6,273.2 257.6,299.9 215.7,299.9 233.6,326.5 191,326.5 
	208.9,299.9 167.1,299.9 185,273.2 142.9,273.2 158.2,250 142.9,226.8 185,226.8 167.1,200.1 208.9,200.1 191,173.5 233.6,173.5 
	215.7,200.1 243.5,200.1 277,150.4 147.6,150.4 165.6,177 123.7,177 141.6,203.7 100,203.7 130.5,250 100,296.3 141.6,296.3 
	123.7,323 165.6,323 147.6,349.6 277,349.6 259.1,323 301,323 283,296.3 324.6,296.3 294.1,250 324.6,203.7 297,203.7 "/>
</svg>
