<?xml version="1.0" encoding="UTF-8" standalone="no"?>
<svg
   xmlns:dc="http://purl.org/dc/elements/1.1/"
   xmlns:cc="http://creativecommons.org/ns#"
   xmlns:rdf="http://www.w3.org/1999/02/22-rdf-syntax-ns#"
   xmlns:svg="http://www.w3.org/2000/svg"
   xmlns="http://www.w3.org/2000/svg"
   xmlns:sodipodi="http://sodipodi.sourceforge.net/DTD/sodipodi-0.dtd"
   xmlns:inkscape="http://www.inkscape.org/namespaces/inkscape"
   version="1.1"
   id="Calque_1"
   x="0px"
   y="0px"
   width="181.00005"
   height="209"
   viewBox="0 0 181.00005 209"
   enable-background="new 0 0 100 100"
   xml:space="preserve"
   inkscape:version="0.91 r13725"
   sodipodi:docname="logo opendatasicilia_esagonale.svg"><metadata
     id="metadata45"><rdf:RDF><cc:Work
         rdf:about=""><dc:format>image/svg+xml</dc:format><dc:type
           rdf:resource="http://purl.org/dc/dcmitype/StillImage" /><dc:title></dc:title></cc:Work></rdf:RDF></metadata><defs
     id="defs43" /><sodipodi:namedview
     pagecolor="#ffffff"
     bordercolor="#666666"
     borderopacity="1"
     objecttolerance="10"
     gridtolerance="10"
     guidetolerance="10"
     inkscape:pageopacity="0"
     inkscape:pageshadow="2"
     inkscape:window-width="1680"
     inkscape:window-height="987"
     id="namedview41"
     showgrid="false"
     fit-margin-top="0"
     fit-margin-left="0"
     fit-margin-right="0"
     fit-margin-bottom="0"
     inkscape:zoom="1"
     inkscape:cx="93.688041"
     inkscape:cy="156.00666"
     inkscape:window-x="-8"
     inkscape:window-y="74"
     inkscape:window-maximized="1"
     inkscape:current-layer="Calque_1" /><rect
     style="opacity:1;fill:none;fill-opacity:1;stroke:none;stroke-width:2;stroke-miterlimit:4;stroke-dasharray:none;stroke-opacity:1"
     id="rect4157"
     width="181"
     height="209"
     x="2.0742187e-005"
     y="0"
     inkscape:export-xdpi="90"
     inkscape:export-ydpi="90" /><path
     sodipodi:type="star"
     style="opacity:1;fill:#ffffff;fill-opacity:1;stroke:none;stroke-width:2;stroke-miterlimit:4;stroke-dasharray:none;stroke-opacity:1"
     id="path4663"
     sodipodi:sides="6"
     sodipodi:cx="-415"
     sodipodi:cy="443.70316"
     sodipodi:r1="154.54773"
     sodipodi:r2="133.84225"
     sodipodi:arg1="1.0492425"
     sodipodi:arg2="1.5728413"
     inkscape:flatsided="true"
     inkscape:rounded="0"
     inkscape:randomized="0"
     d="m -338,577.70316 -154.5474,-0.31605 -77.00001,-134 L -492,309.70315 l 154.5474,0.31605 77.00001,134 z"
     transform="matrix(0,0.67537328,-0.67537328,0,390.16528,384.77991)"
     inkscape:export-xdpi="90"
     inkscape:export-ydpi="90" /><g
     id="g4637"
     transform="translate(-374.63076,-571.47434)"
     inkscape:export-xdpi="90"
     inkscape:export-ydpi="90"><path
       id="path4241"
       d="m 465.13078,580.074 83.26002,47.95633 0,95.88802 -83.26002,47.95633 -83.26002,-47.95633 0,-95.88802 83.26002,-47.95633 z m 0,-8.35641 -90.50002,52.12801 0,104.25747 90.50002,52.12802 90.50002,-52.12802 0,-104.25747 -90.50002,-52.12801 z"
       inkscape:connector-curvature="0"
       style="fill:#000000" /><g
       id="g4613"><g
         transform="matrix(0.98509452,0,0,0.98509452,415.87556,597.16348)"
         id="g4497"><polygon
           id="polygon4499"
           points="5.226,62.299 9.007,62.299 9.007,47.49 2.804,47.49 2.804,50.671 5.226,50.671 " /><polygon
           id="polygon4501"
           points="27.707,47.49 27.707,50.671 30.128,50.671 30.128,62.299 33.91,62.299 33.91,47.49 " /><polygon
           id="polygon4503"
           points="16.171,65.123 16.171,68.307 18.592,68.307 18.592,79.933 22.374,79.933 22.374,65.123 " /><polygon
           id="polygon4505"
           points="16.171,82.37 16.171,85.554 18.592,85.554 18.592,97.18 22.374,97.18 22.374,82.37 " /><polygon
           id="polygon4507"
           points="27.707,65.123 27.707,68.307 30.128,68.307 30.128,79.933 33.91,79.933 33.91,65.123 " /><path
           inkscape:connector-curvature="0"
           id="path4509"
           d="m 21.594,47.688 c -0.701,-0.3 -1.5,-0.48 -2.262,-0.48 -0.76,0 -1.52,0.161 -2.241,0.442 -2.241,0.899 -3.342,2.799 -3.342,5.182 l 0,4.121 c 0,2.363 1.121,4.244 3.322,5.164 0.72,0.302 1.48,0.46 2.261,0.46 0.841,0 1.681,-0.182 2.441,-0.539 2.082,-0.96 3.022,-2.863 3.022,-5.085 l 0,-4.121 c 0,-2.321 -1.04,-4.202 -3.201,-5.144 z m -0.581,9.368 c 0,1.159 -0.38,2.198 -1.741,2.198 -1.301,0 -1.741,-1.06 -1.741,-2.198 l 0,-4.323 c 0,-1.122 0.44,-2.202 1.741,-2.202 1.361,0 1.741,1.04 1.741,2.202 l 0,4.323 z" /><polygon
           id="polygon4511"
           points="89.854,65.123 89.854,68.307 92.277,68.307 92.277,79.933 96.059,79.933 96.059,65.123 " /><polygon
           id="polygon4513"
           points="89.854,82.37 89.854,85.554 92.277,85.554 92.277,97.18 96.059,97.18 96.059,82.37 " /><path
           inkscape:connector-curvature="0"
           id="path4515"
           d="m 95.278,47.688 c -0.7,-0.3 -1.501,-0.48 -2.261,-0.48 -0.76,0 -1.521,0.161 -2.242,0.442 -2.241,0.899 -3.341,2.799 -3.341,5.182 l 0,4.121 c 0,2.363 1.121,4.244 3.322,5.164 0.72,0.302 1.479,0.46 2.261,0.46 0.84,0 1.68,-0.182 2.441,-0.539 2.082,-0.96 3.021,-2.863 3.021,-5.085 l 0,-4.121 c 0,-2.321 -1.041,-4.202 -3.201,-5.144 z m -0.581,9.368 c 0,1.159 -0.38,2.198 -1.741,2.198 -1.301,0 -1.739,-1.06 -1.739,-2.198 l 0,-4.323 c 0,-1.122 0.438,-2.202 1.739,-2.202 1.361,0 1.741,1.04 1.741,2.202 l 0,4.323 z" /><polygon
           id="polygon4517"
           points="69.48,79.933 73.262,79.933 73.262,65.123 67.06,65.123 67.06,68.307 69.48,68.307 " /><polygon
           id="polygon4519"
           points="78.595,65.123 78.595,68.307 81.016,68.307 81.016,79.933 84.799,79.933 84.799,65.123 " /><path
           inkscape:connector-curvature="0"
           id="path4521"
           d="m 72.482,82.571 c -0.701,-0.298 -1.5,-0.479 -2.261,-0.479 -0.762,0 -1.522,0.159 -2.241,0.44 -2.241,0.9 -3.344,2.801 -3.344,5.181 l 0,4.124 c 0,2.36 1.122,4.244 3.323,5.164 0.719,0.299 1.48,0.46 2.262,0.46 0.841,0 1.68,-0.182 2.439,-0.542 2.082,-0.96 3.022,-2.86 3.022,-5.082 l 0,-4.124 c 0.002,-2.32 -1.038,-4.198 -3.2,-5.142 z m -0.581,9.366 c 0,1.162 -0.379,2.201 -1.741,2.201 -1.3,0 -1.739,-1.06 -1.739,-2.201 l 0,-4.32 c 0,-1.122 0.439,-2.204 1.739,-2.204 1.362,0 1.741,1.043 1.741,2.204 l 0,4.32 z" /><path
           inkscape:connector-curvature="0"
           id="path4523"
           d="M 8.228,65.324 C 7.527,65.023 6.727,64.845 5.965,64.845 c -0.76,0 -1.52,0.158 -2.239,0.439 -2.242,0.9 -3.343,2.801 -3.343,5.185 l 0,4.121 c 0,2.36 1.121,4.241 3.322,5.164 0.721,0.298 1.481,0.457 2.26,0.457 0.842,0 1.682,-0.179 2.441,-0.539 2.082,-0.961 3.022,-2.86 3.022,-5.082 l 0,-4.121 c 10e-4,-2.324 -1.04,-4.204 -3.2,-5.145 z m -0.582,9.365 c 0,1.162 -0.38,2.201 -1.741,2.201 -1.3,0 -1.74,-1.062 -1.74,-2.201 l 0,-4.323 c 0,-1.119 0.44,-2.198 1.74,-2.198 1.361,0 1.741,1.039 1.741,2.198 l 0,4.323 z" /><polygon
           id="polygon4525"
           points="42.637,62.299 46.418,62.299 46.418,47.49 40.215,47.49 40.215,50.671 42.637,50.671 " /><polygon
           id="polygon4527"
           points="53.582,65.123 53.582,68.307 56.004,68.307 56.004,79.933 59.785,79.933 59.785,65.123 " /><polygon
           id="polygon4529"
           points="53.582,82.37 53.582,85.554 56.004,85.554 56.004,97.18 59.785,97.18 59.785,82.37 " /><path
           inkscape:connector-curvature="0"
           id="path4531"
           d="m 45.639,65.324 c -0.702,-0.301 -1.501,-0.479 -2.263,-0.479 -0.76,0 -1.52,0.158 -2.24,0.439 -2.242,0.9 -3.342,2.801 -3.342,5.185 l 0,4.121 c 0,2.36 1.121,4.241 3.322,5.164 0.721,0.298 1.481,0.457 2.26,0.457 0.842,0 1.682,-0.179 2.441,-0.539 2.082,-0.961 3.022,-2.86 3.022,-5.082 l 0,-4.121 c 0.001,-2.324 -1.04,-4.204 -3.2,-5.145 z m -0.581,9.365 c 0,1.162 -0.38,2.201 -1.741,2.201 -1.3,0 -1.74,-1.062 -1.74,-2.201 l 0,-4.323 c 0,-1.119 0.44,-2.198 1.74,-2.198 1.361,0 1.741,1.039 1.741,2.198 l 0,4.323 z" /><path
           inkscape:connector-curvature="0"
           id="path4533"
           d="m 81.751,44.757 1.139,0.001 11.635,0.021 0.425,-0.427 c 2.887,-3.004 4.668,-7.079 4.668,-11.563 0,-8.235 -5.993,-15.094 -13.842,-16.455 C 85.759,16.331 85.743,16.328 85.725,16.327 84.337,8.503 77.496,2.539 69.281,2.539 c -7.739,0 -14.262,5.292 -16.151,12.447 -2.866,-2.308 -6.503,-3.694 -10.459,-3.694 -8.319,0 -15.236,6.114 -16.499,14.085 -2.616,-1.703 -5.735,-2.697 -9.083,-2.697 -9.211,0 -16.706,7.495 -16.706,16.705 0,1.814 0.294,3.562 0.832,5.197 l 10e-4,0.018 0.006,0 5.785,0.01 20.144,0.04 5.785,0.011 7.922,0.017 0.911,0.001 c 0.298,0.016 0.6,0.024 0.902,0.024 l 0,-0.024 1.811,0.004 c 0.014,-0.003 0.029,-0.004 0.044,-0.006 l 6.111,0.016 c 0.559,1.433 1.316,2.764 2.228,3.975 -1.134,1.021 -1.704,2.466 -1.704,4.164 l 0,4.121 c 0,2.363 1.121,4.244 3.322,5.164 0.72,0.302 1.479,0.46 2.261,0.46 0.841,0 1.682,-0.182 2.441,-0.539 2.081,-0.96 3.021,-2.863 3.021,-5.085 l 0,-2.088 c 0.79,0.195 1.602,0.33 2.431,0.408 l 0,1.68 c 0,2.363 1.122,4.244 3.323,5.164 0.719,0.302 1.48,0.46 2.262,0.46 0.841,0 1.68,-0.182 2.439,-0.539 2.082,-0.96 3.022,-2.863 3.022,-5.085 l 0,-4.558 c 0.747,-0.517 1.445,-1.097 2.098,-1.725 l 3.234,0 0,11.628 3.783,0 0,-14.808 -4.441,0 c 0.541,-0.864 1.016,-1.773 1.394,-2.733 z M 30.471,39.438 28.45,39.435 5.729,39.39 c 0,-10e-4 0,-0.004 0,-0.007 0,-6.265 5.097,-11.362 11.361,-11.362 4.293,0 8.036,2.396 9.967,5.916 -0.009,-0.025 -0.018,-0.051 -0.026,-0.078 0.786,2.09 1.981,3.982 3.487,5.58 l -0.047,0 z m 27.954,17.618 c 0,1.159 -0.381,2.198 -1.741,2.198 -1.301,0 -1.741,-1.06 -1.741,-2.198 l 0,-4.323 c 0,-0.536 0.104,-1.059 0.352,-1.463 0.956,0.828 2.005,1.55 3.131,2.146 l 0,3.64 z m 13.476,0 c 0,1.159 -0.379,2.198 -1.741,2.198 -1.3,0 -1.739,-1.06 -1.739,-2.198 l 0,-1.858 c 1.206,-0.16 2.37,-0.451 3.48,-0.855 l 0,2.713 z m -5.693,-7.051 c -5.985,0 -10.896,-4.647 -11.328,-10.521 0,0 0,0 0,-0.003 -0.003,-0.021 -0.006,-0.04 -0.006,-0.061 L 49.52,39.409 c 10e-4,0.02 0.003,0.042 0.005,0.064 L 42.084,39.456 C 36.091,39.144 31.31,34.06 31.31,27.992 c 0.001,-6.259 5.097,-11.354 11.363,-11.354 6.265,0 11.361,5.094 11.361,11.36 l 5.345,0 c 0,-0.312 -0.012,-0.621 -0.027,-0.927 -0.005,-0.088 -0.016,-0.178 -0.021,-0.264 -0.016,-0.223 -0.033,-0.446 -0.059,-0.667 -0.01,-0.083 -0.021,-0.163 -0.031,-0.244 -0.031,-0.243 -0.064,-0.483 -0.105,-0.721 -0.007,-0.042 -0.014,-0.083 -0.02,-0.124 -0.153,-0.833 -0.362,-1.647 -0.632,-2.436 l -0.559,-3.372 c 0,-6.265 5.095,-11.362 11.36,-11.362 5.282,0 9.73,3.623 11,8.514 0.015,-0.003 0.032,-0.005 0.05,-0.007 0.22,0.877 0.338,1.798 0.338,2.745 0,0.886 -0.105,1.751 -0.3,2.579 0.815,-0.185 1.668,-0.288 2.542,-0.288 0.997,0 1.966,0.13 2.887,0.374 4.871,1.281 8.473,5.721 8.473,10.987 0,2.534 -0.835,4.877 -2.244,6.77 L 77.519,39.537 c 0.004,0.011 0.012,0.022 0.015,0.033 -0.092,1.238 -0.378,2.34 -0.837,3.437 -1.714,4.103 -5.771,6.998 -10.489,6.998 z" /></g><text
         sodipodi:linespacing="82.000005%"
         id="text4535"
         y="712.43732"
         x="464.95862"
         style="font-style:normal;font-weight:normal;font-size:26.11946678px;line-height:82.00000525%;font-family:Sans;letter-spacing:0px;word-spacing:0px;fill:#000000;fill-opacity:1;stroke:none"
         xml:space="preserve"><tspan
           style="font-style:normal;font-variant:normal;font-weight:normal;font-stretch:normal;line-height:82.00000525%;font-family:'Courier New';-inkscape-font-specification:'Courier New';text-align:center;text-anchor:middle"
           y="712.43732"
           x="464.95862"
           id="tspan4537"
           sodipodi:role="line">opendata</tspan><tspan
           id="tspan4539"
           style="font-style:normal;font-variant:normal;font-weight:normal;font-stretch:normal;line-height:82.00000525%;font-family:'Courier New';-inkscape-font-specification:'Courier New';text-align:center;text-anchor:middle"
           y="733.85529"
           x="464.95862"
           sodipodi:role="line">sicilia</tspan></text>
</g></g></svg>