<?xml version="1.0" encoding="UTF-8" standalone="no"?>
<svg
   xmlns:dc="http://purl.org/dc/elements/1.1/"
   xmlns:cc="http://creativecommons.org/ns#"
   xmlns:rdf="http://www.w3.org/1999/02/22-rdf-syntax-ns#"
   xmlns:svg="http://www.w3.org/2000/svg"
   xmlns="http://www.w3.org/2000/svg"
   xml:space="preserve"
   enable-background="new 21 0 312 360"
   viewBox="21 0 312 360"
   y="0px"
   x="0px"
   id="Layer_1"
   version="1.1"><metadata
   id="metadata23"><rdf:RDF><cc:Work
       rdf:about=""><dc:format>image/svg+xml</dc:format><dc:type
         rdf:resource="http://purl.org/dc/dcmitype/StillImage" /><dc:title></dc:title></cc:Work></rdf:RDF></metadata><defs
   id="defs21">
	
</defs>
<polygon
   points="177.2,359.5 333,269.5 333,89.5 177.2,-0.5 21.2,89.5 21.2,269.5 "
   id="polygon2"
   style="fill:#4c2447;fill-opacity:1" />
<g
   display="none"
   id="Cut_Path">
	<polygon
   id="polygon5"
   points="336.2,270.5 180,360.8 23.8,270.5 23.8,90    180,-0.2 336.2,90  "
   stroke-miterlimit="10"
   stroke="#EA0A8A"
   fill="none"
   display="inline" />
</g>


<g
   id="layer1"
   transform="matrix(0.39303906,0,0,0.39303906,134.97099,144.59721)"><g
     id="layer1-3"
     transform="matrix(2.5283948,0,0,2.5283948,-342.97618,-120.24904)"
     style="fill:#ffffff"><g
       id="g788"
       transform="matrix(2.5139572,0,0,2.5139572,-180.91497,-275.77257)"
       style="fill:#ffffff"><g
         style="fill:#ffffff"
         transform="matrix(0.35277777,0,0,-0.35277777,117.61592,137.02431)"
         id="g281"><path
           id="path283"
           style="fill:#ffffff;fill-opacity:1;fill-rule:nonzero;stroke:none"
           d="m 0,0 h 1.633 c 0,3.981 5.414,7.684 10.944,7.684 h 24.678 c 8.188,0 14.435,2.653 18.565,7.887 9.432,11.947 5.688,34.015 4.671,39.061 -2.408,0.487 -8.691,1.597 -15.903,1.597 -7.894,0 -16.901,-1.33 -23.153,-6.262 -5.237,-4.131 -7.893,-10.38 -7.893,-18.571 v -6 h 14.286 v 6 c 0,3.566 2.07,6.639 5.404,8.021 1.211,0.501 2.478,0.745 3.732,0.745 2.507,0 4.959,-0.976 6.802,-2.819 2.681,-2.681 3.516,-6.582 2.126,-9.937 -1.389,-3.354 -4.7,-5.436 -8.637,-5.437 0,0 -9.176,0.031 -18.047,0.031 C 14.819,22 10.504,21.992 7.412,21.97 3.95,21.944 -1.852,20.809 -6.158,16.501 -6.349,16.312 -6.526,16.117 -6.707,15.924 -3.431,11.694 -1.76,6.705 -1.625,0.78 -1.076,0.545 -0.535,0.282 0,0" /></g><g
         style="fill:#ffffff"
         transform="matrix(0.35277777,0,0,-0.35277777,113.3795,137.54315)"
         id="g285"><path
           id="path287"
           style="fill:#ffffff;fill-opacity:1;fill-rule:nonzero;stroke:none"
           d="m 0,0 h -0.004 c -5.693,0 -10.278,-3.083 -12.582,-5.354 -6.219,-6.128 -19.723,-19.723 -19.723,-19.723 -1.782,-1.782 -4.015,-2.724 -6.252,-2.724 -1.03,0 -2.06,0.199 -3.048,0.609 -3.137,1.298 -5.163,4.428 -5.162,7.972 -10e-4,3.654 2.194,6.925 5.59,8.332 1.053,0.436 2.139,0.649 3.205,0.649 2.089,0 4.107,-0.818 5.667,-2.378 l 3.965,-3.965 9.442,9.441 -3.965,3.965 C -27.643,1.6 -32.785,4.01 -38.18,4.01 c -0.721,0 -1.446,-0.043 -2.176,-0.129 -14.146,-1.67 -26.236,-18.72 -28.895,-22.728 2.662,-4.007 14.772,-21.066 28.9,-22.729 0.728,-0.085 1.453,-0.128 2.171,-0.128 5.396,0 10.536,2.41 15.312,7.185 l 16.308,16.31 c 2.294,2.293 5.521,3.593 8.256,3.593 1.624,0 3.075,-0.458 4.056,-1.439 0,0 5.118,5.119 9.44,9.441 C 11.089,-2.511 6.19,0 0,0" /></g><g
         style="fill:#ffffff"
         transform="matrix(0.35277777,0,0,-0.35277777,126.37784,135.74118)"
         id="g289"><path
           id="path291"
           style="fill:#ffffff;fill-opacity:1;fill-rule:nonzero;stroke:none"
           d="m 0,0 c -4.407,-0.677 -8.628,-3.005 -12.595,-6.973 l -20.711,-20.71 9.441,-9.44 20.711,20.71 c 2.602,2.603 6.166,3.413 9.301,2.116 3.136,-1.3 5.162,-4.429 5.163,-7.973 0,-3.654 -2.195,-6.924 -5.593,-8.331 -3.114,-1.291 -6.515,-0.628 -8.871,1.728 l -3.965,3.966 -9.441,-9.441 3.965,-3.965 c 5.413,-5.413 11.298,-7.789 17.49,-7.058 14.143,1.669 26.234,18.722 28.894,22.728 C 31.161,-18.69 19.338,-2.043 5.454,0 5.266,0.028 5.078,0.063 4.889,0.086 3.235,0.281 1.605,0.247 0,0" /></g><g
         style="fill:#ffffff"
         transform="matrix(0.35277777,0,0,-0.35277777,119.14487,152.01999)"
         id="g293"><path
           id="path295"
           style="fill:#ffffff;fill-opacity:1;fill-rule:nonzero;stroke:none"
           d="m 0,0 -20.711,20.71 -9.441,-9.441 20.71,-20.71 c 0.163,-0.163 0.318,-0.329 0.466,-0.499 0.298,-0.34 0.567,-0.693 0.807,-1.057 0.24,-0.365 0.451,-0.74 0.633,-1.123 0.091,-0.192 0.174,-0.386 0.25,-0.581 0.151,-0.391 0.273,-0.789 0.365,-1.191 0.045,-0.201 0.083,-0.403 0.113,-0.606 0.062,-0.406 0.092,-0.814 0.09,-1.222 -0.001,-0.408 -0.034,-0.817 -0.098,-1.223 -0.098,-0.608 -0.267,-1.211 -0.51,-1.799 -0.081,-0.196 -0.17,-0.387 -0.265,-0.574 -0.475,-0.936 -1.122,-1.758 -1.894,-2.438 -0.31,-0.271 -0.639,-0.521 -0.986,-0.746 -0.52,-0.336 -1.081,-0.619 -1.671,-0.839 -0.982,-0.368 -2.049,-0.566 -3.157,-0.566 -2.969,0.001 -5.684,1.449 -7.353,3.814 -0.386,0.546 -0.715,1.141 -0.979,1.778 -0.483,1.167 -0.692,2.374 -0.641,3.551 l 0.003,0.048 c 0.048,0.966 0.271,1.912 0.663,2.798 0.079,0.18 0.166,0.358 0.258,0.533 0.373,0.698 0.857,1.353 1.447,1.942 l 3.965,3.965 -9.44,9.44 -3.966,-3.965 c -5.414,-5.413 -7.788,-11.297 -7.058,-17.489 0.104,-0.884 0.268,-1.76 0.486,-2.626 0.218,-0.866 0.488,-1.722 0.806,-2.567 0.316,-0.845 0.679,-1.678 1.082,-2.498 0.201,-0.41 0.412,-0.816 0.631,-1.219 0.305,-0.558 0.632,-1.106 0.969,-1.65 0.393,-0.634 0.8,-1.261 1.23,-1.873 0.265,-0.38 0.538,-0.755 0.815,-1.125 0.556,-0.742 1.133,-1.465 1.726,-2.169 0.592,-0.703 1.199,-1.387 1.814,-2.05 0.615,-0.662 1.238,-1.303 1.863,-1.921 0.937,-0.926 1.875,-1.8 2.793,-2.615 0.448,-0.396 0.886,-0.774 1.32,-1.141 2.243,-1.903 4.284,-3.422 5.746,-4.45 0.581,-0.409 1.071,-0.741 1.447,-0.991 0.375,0.25 0.865,0.583 1.447,0.992 1.163,0.819 2.692,1.946 4.398,3.332 0.284,0.23 0.573,0.469 0.867,0.714 1.173,0.98 2.411,2.072 3.659,3.26 2.496,2.377 5.03,5.141 7.156,8.176 0.533,0.759 1.039,1.535 1.512,2.326 1.897,3.163 3.275,6.569 3.69,10.102 0.591,5.028 -0.865,9.854 -4.334,14.39 C 1.922,-2.046 1.015,-1.015 0,0" /></g><g
         style="fill:#ffffff"
         transform="matrix(0.35277777,0,0,-0.35277777,112.85414,131.203)"
         id="g297"><path
           id="path299"
           style="fill:#ffffff;fill-opacity:1;fill-rule:nonzero;stroke:none"
           d="m 0,0 c -4.307,4.307 -10.108,5.443 -13.57,5.468 -3.092,0.023 -7.407,0.031 -11.796,0.031 -8.871,0 -18.047,-0.032 -18.047,-0.032 -3.938,0.001 -7.248,2.084 -8.637,5.437 -1.39,3.356 -0.555,7.257 2.126,9.937 1.843,1.844 4.295,2.82 6.802,2.82 1.253,0 2.52,-0.244 3.731,-0.746 3.334,-1.381 5.405,-4.454 5.405,-8.02 v -6 H -19.7 v 6 c 0,8.191 -2.656,14.44 -7.893,18.57 -6.254,4.933 -15.259,6.263 -23.153,6.263 -7.211,0 -13.495,-1.11 -15.903,-1.597 -1.017,-5.046 -4.761,-27.114 4.67,-39.061 4.13,-5.235 10.377,-7.887 18.566,-7.887 h 24.678 c 5.151,0 10.196,-3.213 10.864,-6.871 2.231,1 4.931,1.763 8.012,1.763 2.202,0 4.296,-0.283 6.297,-0.841 C 6.122,-9.246 4.245,-4.243 0,0" /></g></g></g><g
     aria-label="Özgür Yazılım Derneği"
     transform="matrix(2.1600362,0,0,2.1600362,-934.92844,509.65084)"
     style="font-style:normal;font-weight:normal;font-size:40px;line-height:125%;font-family:sans-serif;letter-spacing:0px;word-spacing:0px;fill:#ffffff;fill-opacity:1;stroke:none;stroke-width:1px;stroke-linecap:butt;stroke-linejoin:miter;stroke-opacity:1"
     id="flowRoot2745"><path
       d="m 508.15508,-263.85117 c -6,0 -12.84,3.52 -12.84,16.04 0,12.56 6.84,15.96 12.72,15.96 6.32,0 12.76,-3.44 12.76,-16.04 -0.04,-12.36 -6.76,-15.96 -12.64,-15.96 z m 0,3 c 4.28,0 9.12,3.28 9.12,13.04 -0.04,9.92 -4.84,12.92 -9.24,12.92 -4.04,0 -9.2,-3.04 -9.2,-13 0,-9.8 5.16,-12.96 9.32,-12.96 z m -6.12,-6.68 c 0,1.2 0.88,2.08 2.08,2.08 1.16,0 2.04,-0.88 2.04,-2.08 0,-1.16 -0.88,-2.04 -2.04,-2.04 -1.2,0 -2.08,0.88 -2.08,2.04 z m 8.04,0 c 0,1.2 0.92,2.08 2.08,2.08 1.2,0 2.04,-0.88 2.04,-2.08 0,-1.16 -0.84,-2.04 -2.04,-2.04 -1.16,0 -2.08,0.88 -2.08,2.04 z"
       style="font-style:normal;font-variant:normal;font-weight:normal;font-stretch:normal;font-family:Junction;-inkscape-font-specification:Junction;fill:#ffffff"
       id="path830" /><path
       d="m 542.26945,-235.97117 c -0.64,0.68 -2.84,0.68 -2.84,0.68 h -10.24 l 12.4,-16.36 v -2.8 h -16.44 v 2.8 h 12.4 l -12.4,16.36 v 2.84 h 14.24 c 0,0 2.36,-0.08 2.88,-0.68 z"
       style="font-style:normal;font-variant:normal;font-weight:normal;font-stretch:normal;font-family:Junction;-inkscape-font-specification:Junction;fill:#ffffff"
       id="path832" /><path
       d="m 550.25445,-247.97117 c 0,-3.28 3.36,-4.48 5.36,-4.48 2,0 5.32,1.2 5.32,4.48 0,4.2 -3.32,5.08 -5.32,5.08 -2,0 -5.36,-0.52 -5.36,-5.08 z m -2.76,10.64 c 0,1.36 0.92,2.12 2.04,2.6 -1.92,1.4 -3.32,2.68 -3.36,6.2 0,3.84 4.56,7.08 9.6,7.08 7.72,0 11.24,-4.16 11.24,-9 0,-5.32 -6.12,-6.28 -11.36,-6.56 -0.92,-0.04 -4.52,-0.04 -4.8,-0.32 0,-1.12 1.08,-2.28 2.36,-3.2 0.84,0.16 1.68,0.2 2.4,0.2 3.28,0 8.64,-1.28 8.64,-7.64 0,-2.56 -1.4,-4.32 -3.16,-5.44 0.96,-0.4 2.12,-0.64 3.24,-0.64 0.72,0 1.36,0.08 1.84,0.24 l 0.56,-2.8 c -0.8,-0.24 -1.64,-0.4 -2.4,-0.4 -2.12,0 -4.4,0.88 -6.04,2.36 -0.96,-0.24 -1.88,-0.36 -2.68,-0.36 -3.28,0 -8.68,2.04 -8.68,7.04 0,3.52 1.56,5.44 3.4,6.48 -1.6,1.28 -2.84,2.76 -2.84,4.16 z m 8.28,12.96 c -3.04,0 -6.32,-1.84 -6.32,-4.16 0,-3.4 1.4,-4.4 3.28,-5.56 1.08,0 2.12,0.04 2.88,0.04 3.64,0.2 8.08,0.68 8.08,3.6 0,3.24 -2.52,6.08 -7.92,6.08 z"
       style="font-style:normal;font-variant:normal;font-weight:normal;font-stretch:normal;font-family:Junction;-inkscape-font-specification:Junction;fill:#ffffff"
       id="path834" /><path
       d="m 576.1857,-235.21117 c -1.24,0 -1.72,-1.44 -1.72,-3.6 v -15.64 h -3.36 v 15.64 c 0,4.24 1.44,6.84 5.08,6.84 3.56,0 7.12,-2 9.6,-4.36 v 3.88 h 3.36 v -22 h -3.36 v 13.92 c -2.12,2.2 -5.64,5.32 -9.6,5.32 z m -2.16,-23.72 c 0,1.2 0.88,2.08 2.08,2.08 1.16,0 2.04,-0.88 2.04,-2.08 0,-1.16 -0.88,-2.04 -2.04,-2.04 -1.2,0 -2.08,0.88 -2.08,2.04 z m 8.04,0 c 0,1.2 0.92,2.08 2.08,2.08 1.2,0 2.04,-0.88 2.04,-2.08 0,-1.16 -0.84,-2.04 -2.04,-2.04 -1.16,0 -2.08,0.88 -2.08,2.04 z"
       style="font-style:normal;font-variant:normal;font-weight:normal;font-stretch:normal;font-family:Junction;-inkscape-font-specification:Junction;fill:#ffffff"
       id="path836" /><path
       d="m 595.84633,-254.45117 v 22 h 3.36 v -13.76 c 1.16,-2.44 3.16,-5.52 5.72,-5.52 1.88,0 2.84,1.24 2.84,1.24 l 2.32,-2.24 c 0,0 -1.88,-2.2 -5.32,-2.2 -2.24,0 -4.16,1.08 -5.56,3.48 v -3 z"
       style="font-style:normal;font-variant:normal;font-weight:normal;font-stretch:normal;font-family:Junction;-inkscape-font-specification:Junction;fill:#ffffff"
       id="path838" /><path
       d="m 513.23508,-213.25117 -7.92,12.36 -7.88,-12.36 h -4.12 l 10.24,16.04 v 14.76 h 3.48 v -14.76 l 10.16,-16.04 z"
       style="font-style:normal;font-variant:normal;font-weight:normal;font-stretch:normal;font-family:Junction;-inkscape-font-specification:Junction;fill:#ffffff"
       id="path840" /><path
       d="m 519.54258,-198.73117 c 0,0.04 5.36,-3.08 8.76,-3.08 2.28,0 2.48,2.36 2.48,3.2 v 2.52 c -0.96,0.24 -2.64,0.52 -5.56,0.92 -6.76,1 -7.92,4.36 -7.92,7.2 0,5.56 5.32,6 6.2,6 2.96,0 5.6,-1.4 7.52,-3.44 0.36,1.4 1.16,2.68 3.08,3.44 l 2.16,-2 c -2.2,-1.04 -2.16,-2.64 -2.16,-2.8 v -11.84 c 0,-2.08 -0.72,-6.32 -5.32,-6.32 -4.44,0 -9.12,2.68 -10.56,3.48 -0.04,0.08 1.32,2.68 1.32,2.72 z m 3.84,13.96 c -0.6,-0.04 -2.8,-0.44 -2.8,-3.2 0,-1.84 0.64,-3.72 5,-4.4 2.6,-0.4 4,-0.6 5.2,-0.84 v 4.72 c -1.6,2 -4.6,3.92 -7.4,3.72 z"
       style="font-style:normal;font-variant:normal;font-weight:normal;font-stretch:normal;font-family:Junction;-inkscape-font-specification:Junction;fill:#ffffff"
       id="path842" /><path
       d="m 556.72258,-185.97117 c -0.64,0.68 -2.84,0.68 -2.84,0.68 h -10.24 l 12.4,-16.36 v -2.8 h -16.44 v 2.8 h 12.4 l -12.4,16.36 v 2.84 h 14.24 c 0,0 2.36,-0.08 2.88,-0.68 z"
       style="font-style:normal;font-variant:normal;font-weight:normal;font-stretch:normal;font-family:Junction;-inkscape-font-specification:Junction;fill:#ffffff"
       id="path844" /><path
       d="m 561.62758,-204.45117 v 22 h 3.32 v -22 z"
       style="font-style:normal;font-variant:normal;font-weight:normal;font-stretch:normal;font-family:Junction;-inkscape-font-specification:Junction;fill:#ffffff"
       id="path846" /><path
       d="m 571.7057,-215.25117 v 26.96 c 0,1.48 0,3.56 1.4,4.96 1.24,1.24 3.64,1.36 4.88,1.36 l 0.12,-2.84 c -1.12,0 -1.96,-0.24 -2.56,-0.84 -0.52,-0.52 -0.52,-1.72 -0.52,-2.64 v -26.96 z"
       style="font-style:normal;font-variant:normal;font-weight:normal;font-stretch:normal;font-family:Junction;-inkscape-font-specification:Junction;fill:#ffffff"
       id="path848" /><path
       d="m 582.79945,-204.45117 v 22 h 3.32 v -22 z"
       style="font-style:normal;font-variant:normal;font-weight:normal;font-stretch:normal;font-family:Junction;-inkscape-font-specification:Junction;fill:#ffffff"
       id="path850" /><path
       d="m 596.23758,-182.45117 v -13.96 c 1.6,-1.92 4.52,-5.16 8.32,-5.16 1.24,0 1.72,1.32 1.72,3.48 v 15.64 h 3.36 v -13.96 c 1.6,-1.92 4.24,-5.16 8.32,-5.16 1.24,0 1.72,1.32 1.72,3.48 v 15.64 h 3.36 v -15.64 c 0,-4.24 -1.44,-6.84 -5.08,-6.84 -3.52,0 -6.36,2.24 -8.44,4.56 -0.4,-3.12 -1.92,-4.56 -4.96,-4.56 -3.48,0 -6.24,2.16 -8.32,4.44 v -3.96 h -3.36 v 22 z"
       style="font-style:normal;font-variant:normal;font-weight:normal;font-stretch:normal;font-family:Junction;-inkscape-font-specification:Junction;fill:#ffffff"
       id="path852" /><path
       d="m 499.83508,-132.45117 c 4.4,0 4.24,0 6.68,0 7.4,0 12.56,-5.52 12.56,-15.2 0,-13.48 -7.08,-15.8 -14.48,-15.8 -2.48,0 -4.4,0.24 -8.28,0.72 v 30.28 z m 15.72,-15.2 c 0,7.6 -3.88,12.16 -9.04,12.16 -2.96,0 -3.12,0 -6.68,0 v -24.52 c 0.6,-0.08 2.24,-0.44 4.84,-0.44 8.56,0 10.88,5.24 10.88,12.8 z"
       style="font-style:normal;font-variant:normal;font-weight:normal;font-stretch:normal;font-family:Junction;-inkscape-font-specification:Junction;fill:#ffffff"
       id="path854" /><path
       d="m 523.6307,-143.21117 c 0,6.04 3.2,11.24 9.6,11.24 1.64,0 4.84,0.16 8.84,-4.8 l -2.04,-1.96 c -3.04,4 -5.64,3.88 -6.8,3.88 -4.24,0 -6.48,-3.56 -6.28,-8.76 h 15 v -1.56 c 0,-1.56 -0.68,-9.76 -8.88,-9.76 -5.76,0 -9.44,5.32 -9.44,11.72 z m 9.44,-8.84 c 3.76,0 5.12,3.24 5.48,5.48 h -11.16 c 0.88,-3.08 2.72,-5.48 5.68,-5.48 z"
       style="font-style:normal;font-variant:normal;font-weight:normal;font-stretch:normal;font-family:Junction;-inkscape-font-specification:Junction;fill:#ffffff"
       id="path856" /><path
       d="m 547.87758,-154.45117 v 22 h 3.36 v -13.76 c 1.16,-2.44 3.16,-5.52 5.72,-5.52 1.88,0 2.84,1.24 2.84,1.24 l 2.32,-2.24 c 0,0 -1.88,-2.2 -5.32,-2.2 -2.24,0 -4.16,1.08 -5.56,3.48 v -3 z"
       style="font-style:normal;font-variant:normal;font-weight:normal;font-stretch:normal;font-family:Junction;-inkscape-font-specification:Junction;fill:#ffffff"
       id="path858" /><path
       d="m 568.65945,-132.45117 v -13.88 c 2.12,-2.16 5.6,-5.24 9.6,-5.24 1.24,0 1.72,1.32 1.72,3.48 v 15.64 h 3.36 v -15.64 c 0,-4.24 -1.44,-6.84 -5.08,-6.84 -3.6,0 -7.16,2.36 -9.6,4.72 v -4.24 h -3.36 v 22 z"
       style="font-style:normal;font-variant:normal;font-weight:normal;font-stretch:normal;font-family:Junction;-inkscape-font-specification:Junction;fill:#ffffff"
       id="path860" /><path
       d="m 588.24008,-143.21117 c 0,6.04 3.2,11.24 9.6,11.24 1.64,0 4.84,0.16 8.84,-4.8 l -2.04,-1.96 c -3.04,4 -5.64,3.88 -6.8,3.88 -4.24,0 -6.48,-3.56 -6.28,-8.76 h 15 v -1.56 c 0,-1.56 -0.68,-9.76 -8.88,-9.76 -5.76,0 -9.44,5.32 -9.44,11.72 z m 9.44,-8.84 c 3.76,0 5.12,3.24 5.48,5.48 h -11.16 c 0.88,-3.08 2.72,-5.48 5.68,-5.48 z"
       style="font-style:normal;font-variant:normal;font-weight:normal;font-stretch:normal;font-family:Junction;-inkscape-font-specification:Junction;fill:#ffffff"
       id="path862" /><path
       d="m 615.56695,-147.97117 c 0,-3.28 3.36,-4.48 5.36,-4.48 2,0 5.32,1.2 5.32,4.48 0,4.2 -3.32,5.08 -5.32,5.08 -2,0 -5.36,-0.52 -5.36,-5.08 z m -2.76,10.64 c 0,1.36 0.92,2.12 2.04,2.6 -1.92,1.4 -3.32,2.68 -3.36,6.2 0,3.84 4.56,7.08 9.6,7.08 7.72,0 11.24,-4.16 11.24,-9 0,-5.32 -6.12,-6.28 -11.36,-6.56 -0.92,-0.04 -4.52,-0.04 -4.8,-0.32 0,-1.12 1.08,-2.28 2.36,-3.2 0.84,0.16 1.68,0.2 2.4,0.2 3.28,0 8.64,-1.28 8.64,-7.64 0,-2.56 -1.4,-4.32 -3.16,-5.44 0.96,-0.4 2.12,-0.64 3.24,-0.64 0.72,0 1.36,0.08 1.84,0.24 l 0.56,-2.8 c -0.8,-0.24 -1.64,-0.4 -2.4,-0.4 -2.12,0 -4.4,0.88 -6.04,2.36 -0.96,-0.24 -1.88,-0.36 -2.68,-0.36 -3.28,0 -8.68,2.04 -8.68,7.04 0,3.52 1.56,5.44 3.4,6.48 -1.6,1.28 -2.84,2.76 -2.84,4.16 z m 8.28,12.96 c -3.04,0 -6.32,-1.84 -6.32,-4.16 0,-3.4 1.4,-4.4 3.28,-5.56 1.08,0 2.12,0.04 2.88,0.04 3.64,0.2 8.08,0.68 8.08,3.6 0,3.24 -2.52,6.08 -7.92,6.08 z m -6.84,-38.08 c 0.4,3.08 2.92,5.96 6.44,5.96 3.36,0 5.76,-2.88 6.16,-5.96 h -2.4 c -0.2,1.72 -1.84,3.4 -3.76,3.4 -2.16,0 -3.84,-1.68 -4,-3.4 0,0 -2.44,0 -2.44,0 z"
       style="font-style:normal;font-variant:normal;font-weight:normal;font-stretch:normal;font-family:Junction;-inkscape-font-specification:Junction;fill:#ffffff"
       id="path864" /><path
       d="m 637.4182,-154.45117 v 22 h 3.32 v -22 z m -0.4,-6.76 c 0,1.2 0.88,2.08 2.08,2.08 1.16,0 2.04,-0.88 2.04,-2.08 0,-1.16 -0.88,-2.04 -2.04,-2.04 -1.2,0 -2.08,0.88 -2.08,2.04 z"
       style="font-style:normal;font-variant:normal;font-weight:normal;font-stretch:normal;font-family:Junction;-inkscape-font-specification:Junction;fill:#ffffff"
       id="path866" /></g></g><text
   transform="rotate(-30)"
   id="text978"
   y="392.65613"
   x="-13.17972"
   style="font-style:normal;font-weight:normal;font-size:13.30508518px;line-height:125%;font-family:sans-serif;letter-spacing:0px;word-spacing:0px;fill:#000000;fill-opacity:1;stroke:none;stroke-width:0.33262712px;stroke-linecap:butt;stroke-linejoin:miter;stroke-opacity:1"
   xml:space="preserve"><tspan
     style="font-style:normal;font-variant:normal;font-weight:normal;font-stretch:normal;font-family:'Noto Sans';-inkscape-font-specification:'Noto Sans';fill:#ffffff;stroke-width:0.33262712px"
     y="392.65613"
     x="-13.17972"
     id="tspan976">www.oyd.org.tr</tspan></text>
</svg>