<?xml version="1.0" encoding="UTF-8" standalone="no"?>
<svg
   xmlns:dc="http://purl.org/dc/elements/1.1/"
   xmlns:cc="http://creativecommons.org/ns#"
   xmlns:rdf="http://www.w3.org/1999/02/22-rdf-syntax-ns#"
   xmlns:svg="http://www.w3.org/2000/svg"
   xmlns="http://www.w3.org/2000/svg"
   xmlns:sodipodi="http://sodipodi.sourceforge.net/DTD/sodipodi-0.dtd"
   xmlns:inkscape="http://www.inkscape.org/namespaces/inkscape"
   id="Layer_1"
   data-name="Layer 1"
   viewBox="0 0 735 852"
   version="1.1"
   sodipodi:docname="ozgurkon.svg"
   inkscape:version="0.92.5 (2060ec1f9f, 2020-04-08)">
  <metadata
     id="metadata438">
    <rdf:RDF>
      <cc:Work
         rdf:about="">
        <dc:format>image/svg+xml</dc:format>
        <dc:type
           rdf:resource="http://purl.org/dc/dcmitype/StillImage" />
        <dc:title>RStudio_Hex 2016 v7 outlines</dc:title>
      </cc:Work>
    </rdf:RDF>
  </metadata>
  <sodipodi:namedview
     pagecolor="#ffffff"
     bordercolor="#666666"
     borderopacity="1"
     objecttolerance="10"
     gridtolerance="10"
     guidetolerance="10"
     inkscape:pageopacity="0"
     inkscape:pageshadow="2"
     inkscape:window-width="1920"
     inkscape:window-height="1031"
     id="namedview436"
     showgrid="false"
     inkscape:zoom="0.78346103"
     inkscape:cx="212.41581"
     inkscape:cy="430.11855"
     inkscape:window-x="0"
     inkscape:window-y="25"
     inkscape:window-maximized="1"
     inkscape:current-layer="Layer_1" />
  <defs
     id="defs17">
    <style
       id="style2">.cls-1,.cls-13{fill:none;}.cls-2{fill:#de5a27;}.cls-3{clip-path:url(#clip-path);}.cls-4{fill:#ed7d15;}.cls-5{opacity:0.25;fill:url(#linear-gradient);}.cls-6{fill:#ac5d12;}.cls-7{clip-path:url(#clip-path-2);}.cls-8{fill:#144f85;}.cls-9{fill:#e6b35a;}.cls-10{fill:#e5b259;}.cls-11{fill:#fff;}.cls-12,.cls-13{stroke:#000;stroke-miterlimit:10;}.cls-12{stroke-width:10px;}.cls-13{stroke-width:0.75px;}</style>
    <clipPath
       id="clip-path">
      <polygon
         class="cls-1"
         points="369.5 7.4 728.2 214.5 728.2 636.6 369.5 845 2.8 636.6 2.8 214.5 369.5 7.4"
         id="polygon4" />
    </clipPath>
    <linearGradient
       id="linear-gradient"
       x1="366.25"
       y1="-122.39"
       x2="367.55"
       y2="341.13"
       gradientUnits="userSpaceOnUse">
      <stop
         offset="0"
         stop-color="#fff"
         stop-opacity="0.83"
         id="stop7" />
      <stop
         offset="0.56"
         stop-color="#fff"
         stop-opacity="0.37"
         id="stop9" />
      <stop
         offset="1"
         stop-color="#fff"
         stop-opacity="0"
         id="stop11" />
    </linearGradient>
    <clipPath
       id="clip-path-2">
      <polygon
         class="cls-2"
         points="1173.3 7.4 1532 214.5 1532 636.6 1173.3 845 806.6 636.6 806.6 214.5 1173.3 7.4"
         id="polygon14" />
    </clipPath>
    <clipPath
       clipPathUnits="userSpaceOnUse"
       id="clipPath1474">
      <path
         style="opacity:1;fill:#008000;fill-opacity:1;fill-rule:nonzero;stroke:none;stroke-width:1.43659818;stroke-linecap:square;stroke-linejoin:round;stroke-miterlimit:4;stroke-dasharray:none;stroke-dashoffset:0;stroke-opacity:1"
         d="M 2371.4512,512.60865 2000.6371,722.44921 1629.823,512.60865 V 92.927357 l 741.6282,1.1e-5 z"
         id="path1476"
         inkscape:connector-curvature="0"
         sodipodi:nodetypes="cccccc" />
    </clipPath>
  </defs>
  <title
     id="title19">RStudio_Hex 2016 v7 outlines</title>
  <g
     class="cls-3"
     clip-path="url(#clip-path)"
     id="g25"
     style="fill:#ededed;fill-opacity:1">
    <circle
       class="cls-4"
       cx="365.5"
       cy="437.39999"
       r="442.10001"
       id="circle21"
       style="fill:#ededed;fill-opacity:1" />
    <ellipse
       class="cls-5"
       cx="366.89999"
       cy="105.8"
       rx="315.20001"
       ry="234.60001"
       id="ellipse23"
       style="opacity:0.25;fill:#ededed;fill-opacity:1" />
  </g>
  <g
     id="g1391"
     transform="matrix(0.9123789,0,0,0.9123789,-1457.8391,157.55258)"
     clip-path="url(#clipPath1474)">
    <polygon
       transform="translate(864.55932,-177.43221)"
       id="polygon1319"
       points="1396,900 957,450 539,900 "
       style="fill:#c03e24" />
    <polygon
       transform="translate(864.55932,-177.43221)"
       id="polygon1321"
       points="1396,900 957,450 872.9,900 "
       style="fill:#e4682c" />
    <polygon
       transform="translate(864.55932,-177.43221)"
       id="polygon1323"
       points="816,900 -60,900 398,662 "
       style="fill:#c13e24" />
    <polygon
       transform="translate(864.55932,-177.43221)"
       id="polygon1325"
       points="816,900 337,900 398,662 "
       style="fill:#e4682c" />
    <polygon
       transform="translate(864.55932,-177.43221)"
       id="polygon1327"
       points="876,900 1203,546 1552,900 "
       style="fill:#c33e24" />
    <polygon
       transform="translate(864.55932,-177.43221)"
       id="polygon1329"
       points="1162,900 1203,546 1552,900 "
       style="fill:#e4682c" />
    <polygon
       transform="translate(864.55932,-177.43221)"
       id="polygon1331"
       points="367,900 641,695 886,900 "
       style="fill:#c43e24" />
    <polygon
       transform="translate(864.55932,-177.43221)"
       id="polygon1333"
       points="886,900 587,900 641,695 "
       style="fill:#e4682c" />
    <polygon
       transform="translate(864.55932,-177.43221)"
       id="polygon1335"
       points="1096,900 1710,900 1401,632 "
       style="fill:#c63e24" />
    <polygon
       transform="translate(864.55932,-177.43221)"
       id="polygon1337"
       points="1365,900 1710,900 1401,632 "
       style="fill:#e4682c" />
    <polygon
       transform="translate(864.55932,-177.43221)"
       id="polygon1339"
       points="725,900 1210,900 971,687 "
       style="fill:#c73e24" />
    <polygon
       transform="translate(864.55932,-177.43221)"
       id="polygon1341"
       points="971,687 943,900 1210,900 "
       style="fill:#e4682c" />
  </g>
  <path
     class="cls-6"
     d="M705.6,196.2L427.8,35.8,367.5,1,307.2,35.8,29.4,196.2,0.1,213.1V637.4l29.3,16.9L310.6,816.7l56.9,32.8,56.9-32.8L705.6,654.3l29.3-16.9V213.1Zm0,425.3L367.5,816.7,29.4,621.5V231L367.5,35.8h0L705.6,231V621.5Z"
     id="path27"
     style="fill:#c03e24;fill-opacity:1" />
  <g
     id="g1566"
     transform="matrix(1.0040883,0,0,1.0040883,93.769886,249.98711)">
    <flowRoot
       transform="matrix(0.26458333,0,0,0.26458333,313.59696,-112.34231)"
       style="font-style:normal;font-variant:normal;font-weight:bold;font-stretch:normal;font-size:40px;line-height:125%;font-family:Bitter;-inkscape-font-specification:'Bitter Bold';letter-spacing:0px;word-spacing:0px;fill:#c03e24;fill-opacity:1;stroke:none;stroke-width:1px;stroke-linecap:butt;stroke-linejoin:miter;stroke-opacity:1"
       id="flowRoot815"
       xml:space="preserve"><flowRegion
         style="font-style:normal;font-variant:normal;font-weight:bold;font-stretch:normal;font-family:Bitter;-inkscape-font-specification:'Bitter Bold';fill:#c03e24;fill-opacity:1"
         id="flowRegion817"><rect
           style="font-style:normal;font-variant:normal;font-weight:bold;font-stretch:normal;font-family:Bitter;-inkscape-font-specification:'Bitter Bold';fill:#c03e24;fill-opacity:1"
           y="245.37683"
           x="-1334.2858"
           height="171.42857"
           width="1242.8572"
           id="rect819" /></flowRegion><flowPara
         id="flowPara821" /></flowRoot>    <g
       id="flowRoot823-3"
       style="font-style:normal;font-variant:normal;font-weight:normal;font-stretch:normal;font-size:40px;line-height:125%;font-family:Bitter;-inkscape-font-specification:Bitter;letter-spacing:0px;word-spacing:0px;fill:#c03e24;fill-opacity:1;stroke:none;stroke-width:1px;stroke-linecap:butt;stroke-linejoin:miter;stroke-opacity:1"
       transform="matrix(1.9972134,0,0,1.9972134,3505.9051,-909.41541)"
       aria-label="ÖzgürKon">
      <path
         inkscape:connector-curvature="0"
         id="path842"
         style="font-style:normal;font-variant:normal;font-weight:bold;font-stretch:normal;font-family:Bitter;-inkscape-font-specification:'Bitter Bold';fill:#c03e24;fill-opacity:1"
         d="m -1667.4574,473.75578 q 6,0 9.28,3.76 3.32,3.72 3.32,10.44 0,6.76 -3.72,10.88 -3.68,4.12 -9.68,4.12 -6,0 -9.2,-3.68 -3.2,-3.68 -3.2,-10.72 0,-6.88 3.52,-10.84 3.56,-3.96 9.68,-3.96 z m -0.2,5 q -3.12,0 -4.72,2.24 -1.6,2.2 -1.6,7.36 0,4.92 1.44,7.28 1.48,2.32 4.48,2.32 3.16,0 4.8,-2.28 1.68,-2.32 1.68,-7.52 0,-4.88 -1.52,-7.12 -1.52,-2.28 -4.56,-2.28 z m -7.44,-10.2 q 0,-1.4 0.84,-2.24 0.88,-0.88 2.12,-0.88 1.4,0 2.12,0.84 0.76,0.8 0.76,2.28 0,1.44 -0.88,2.28 -0.84,0.84 -2.08,0.84 -2.88,0 -2.88,-3.12 z m 8.72,0 q 0,-1.4 0.88,-2.24 0.88,-0.88 2.08,-0.88 2.88,0 2.88,3.12 0,1.44 -0.88,2.28 -0.84,0.84 -2.08,0.84 -2.88,0 -2.88,-3.12 z" />
      <path
         inkscape:connector-curvature="0"
         id="path844"
         style="font-style:normal;font-variant:normal;font-weight:bold;font-stretch:normal;font-family:Bitter;-inkscape-font-specification:'Bitter Bold';fill:#c03e24;fill-opacity:1"
         d="m -1650.143,480.83578 h 16.8 v 3.72 l -10.28,13.68 h 6.12 l 0.76,-3.6 h 3.52 v 7.8 h -17.4 v -3.68 l 10.44,-13.72 h -5.76 l -0.68,3.12 h -3.52 z" />
      <path
         inkscape:connector-curvature="0"
         id="path846"
         style="font-style:normal;font-variant:normal;font-weight:bold;font-stretch:normal;font-family:Bitter;-inkscape-font-specification:'Bitter Bold';fill:#c03e24;fill-opacity:1"
         d="m -1630.2399,506.83578 q 0,-1.52 1.04,-2.72 1.04,-1.2 2.08,-1.64 l 1.08,-0.44 q -0.28,-0.04 -0.68,-0.16 -0.4,-0.12 -1.08,-0.8 -0.64,-0.68 -0.64,-1.68 0,-1.24 2.08,-4.52 -3.08,-2.04 -3.08,-6.24 0,-3.96 2.64,-6.08 2.68,-2.12 6.96,-2.12 2.68,0 4.72,0.96 l 6.88,-0.16 v 3.2 l -3.28,0.56 q 0,0.04 0.2,0.56 0.2,0.48 0.32,1.16 0.16,0.68 0.16,1.44 0,4.16 -2.6,6.2 -2.6,2 -7,2 -0.48,0 -0.96,-0.04 -0.44,-0.04 -0.76,-0.08 -0.28,-0.08 -0.32,-0.08 l -0.16,2.68 h 5.92 q 3.84,0 5.92,1.6 2.08,1.6 2.08,4.6 0,3.44 -2.84,5.52 -2.8,2.08 -8.36,2.08 -5.04,0 -7.68,-1.32 -2.64,-1.32 -2.64,-4.48 z m 10.2,-22.28 q -3.4,0 -3.4,3.8 0,4 3.2,4 1.84,0 2.6,-0.96 0.8,-0.96 0.8,-3.04 0,-3.8 -3.2,-3.8 z m 1.72,18.68 h -4.2 q -0.2,0.08 -0.52,0.28 -0.32,0.2 -0.88,0.88 -0.52,0.68 -0.52,1.44 0,1.44 1.16,1.92 1.2,0.48 3.84,0.48 2.72,0 3.92,-0.64 1.2,-0.64 1.2,-2.08 0,-1.28 -0.96,-1.8 -0.92,-0.48 -3.04,-0.48 z" />
      <path
         inkscape:connector-curvature="0"
         id="path848"
         style="font-style:normal;font-variant:normal;font-weight:bold;font-stretch:normal;font-family:Bitter;-inkscape-font-specification:'Bitter Bold';fill:#c03e24;fill-opacity:1"
         d="m -1603.7505,495.67578 v -10.6 l -2.92,-0.72 v -3.2 l 8.84,-0.32 v 13.72 q 0,1.64 0.52,2.44 0.52,0.76 1.72,0.76 1.12,0 2.28,-0.52 1.2,-0.56 1.84,-1.12 l 0.6,-0.56 v -10.48 l -2.96,-0.72 v -3.2 l 8.84,-0.32 v 17.4 l 3.04,0.8 v 3.12 l -8.16,0.28 -0.4,-2.8 q -0.12,0.12 -0.4,0.36 -0.24,0.2 -1,0.76 -0.76,0.56 -1.56,1 -0.8,0.4 -1.96,0.72 -1.12,0.36 -2.16,0.36 -3,0 -4.6,-1.88 -1.56,-1.88 -1.56,-5.28 z m 1.72,-21.16 q 0,-1.4 0.84,-2.24 0.88,-0.88 2.12,-0.88 1.4,0 2.12,0.84 0.76,0.8 0.76,2.28 0,1.44 -0.88,2.28 -0.84,0.84 -2.08,0.84 -2.88,0 -2.88,-3.12 z m 8.72,0 q 0,-1.4 0.88,-2.24 0.88,-0.88 2.08,-0.88 2.88,0 2.88,3.12 0,1.44 -0.88,2.28 -0.84,0.84 -2.08,0.84 -2.88,0 -2.88,-3.12 z" />
      <path
         inkscape:connector-curvature="0"
         id="path850"
         style="font-style:normal;font-variant:normal;font-weight:bold;font-stretch:normal;font-family:Bitter;-inkscape-font-specification:'Bitter Bold';fill:#c03e24;fill-opacity:1"
         d="m -1579.7387,481.15578 8.28,-0.32 0.36,2.76 q 0.32,-0.36 0.88,-0.88 0.56,-0.52 2,-1.4 1.48,-0.88 2.68,-0.88 0.96,0 1.84,0.2 0.92,0.16 1.36,0.36 l 0.4,0.16 -0.32,7.6 h -3.48 l -0.6,-3.4 q -1.04,0 -2.12,0.56 -1.08,0.56 -1.64,1.12 l -0.56,0.56 v 10.64 l 3.8,1 v 3.2 h -12.88 v -3.2 l 3.2,-1 v -13.08 l -3.2,-0.8 z" />
      <path
         inkscape:connector-curvature="0"
         id="path852"
         style="font-style:normal;font-variant:normal;font-weight:bold;font-stretch:normal;font-family:Bitter;-inkscape-font-specification:'Bitter Bold';fill:#c03e24;fill-opacity:1"
         d="m -1547.6493,498.95578 v 3.48 h -12.28 v -3.48 l 3,-1 v -19 l -3,-1.2 v -3.32 l 12.28,-0.2 v 3.52 l -3.08,1.2 v 6.88 h 2.72 l 6.68,-11.4 7.28,-0.2 v 3.52 l -3.56,1.12 -5.28,8.72 7.48,10.36 2.96,1 v 3.48 h -12.28 v -3.48 l 2.32,-0.96 -5.4,-7.76 h -2.92 v 7.72 z" />
      <path
         inkscape:connector-curvature="0"
         id="path854"
         style="font-style:normal;font-variant:normal;font-weight:bold;font-stretch:normal;font-family:Bitter;-inkscape-font-specification:'Bitter Bold';fill:#c03e24;fill-opacity:1"
         d="m -1519.9543,480.43578 q 4.84,0 7.44,2.84 2.64,2.8 2.64,7.96 0,5.36 -2.92,8.48 -2.88,3.12 -7.76,3.12 -10.2,0 -10.2,-11 0,-5.36 2.92,-8.36 2.92,-3.04 7.88,-3.04 z m -0.2,4.6 q -2.28,0 -3.36,1.48 -1.04,1.48 -1.04,5.12 0,3.44 1,5.04 1,1.56 3.2,1.56 2.2,0 3.24,-1.56 1.04,-1.56 1.04,-5.24 0,-3.24 -1,-4.8 -0.96,-1.6 -3.08,-1.6 z" />
      <path
         inkscape:connector-curvature="0"
         id="path856"
         style="font-style:normal;font-variant:normal;font-weight:bold;font-stretch:normal;font-family:Bitter;-inkscape-font-specification:'Bitter Bold';fill:#c03e24;fill-opacity:1"
         d="m -1507.0824,481.15578 8.28,-0.32 0.28,2.76 q 0.44,-0.36 1.16,-0.84 0.72,-0.52 2.64,-1.36 1.96,-0.88 3.56,-0.88 2.88,0 4.4,1.92 1.56,1.88 1.56,5.2 v 10.6 q 0.52,0.16 1.48,0.52 0.96,0.36 1.32,0.48 v 3.2 h -10.8 v -3.2 l 2.12,-1 v -9.68 q 0,-1.4 -0.76,-2.28 -0.72,-0.92 -1.96,-0.92 -1.12,0 -2.2,0.6 -1.04,0.56 -1.56,1.12 l -0.52,0.56 v 10.6 l 2.08,1 v 3.2 h -11.08 v -3.2 l 3.08,-1 v -13.08 l -3.08,-0.8 z" />
    </g>
    <path
       inkscape:connector-curvature="0"
       id="path866"
       d="M 15.31351,121.47822 C 8.88344,120.89979 7.10595,119.83282 4.77882,115.15452 2.32883,110.22927 1.9152,104.86442 1.50188,72.65092 1.29554,56.57922 0.81409,36.97027 0.43171,29.07547 -0.23938,15.21973 -0.21513,14.59194 1.12955,10.99788 1.89575,8.95006 3.79691,5.86709 5.35436,4.14684 8.05746,1.16115 8.39494,0.99592 12.78533,0.50859 23.50804,-0.6816 94.67799,0.39488 105.3008,1.90797 c 6.5942,0.93924 9.05774,2.22105 11.15868,5.80603 3.61579,6.1699 3.5332,4.76166 2.8211,48.10207 -0.79672,48.49097 -1.14624,54.38077 -3.5117,59.1748 -1.05025,2.12852 -2.67598,4.13027 -4.17821,5.14456 l -2.45902,1.66028 -44.21324,0.0838 c -24.31727,0.0462 -46.63947,-0.13454 -49.6049,-0.40126 z m 45.99971,-17.44769 c 6.88824,-7.50559 21.48711,-26.90338 21.48711,-28.5503 0,-1.35729 -3.81481,-7.0877 -12.41522,-18.64952 l -4.85185,-6.52256 v -8.17663 c 0,-9.72528 -0.93967,-8.9782 11.29,-8.97622 l 8.30149,0.001 3.78431,5.80065 c 2.08133,3.19032 3.9825,6.32709 4.22477,6.9706 0.30909,0.82094 -0.48848,2.25732 -2.67344,4.81487 -1.71265,2.00468 -3.38496,3.64487 -3.71621,3.64487 -0.33125,0 -1.55126,-0.84792 -2.71113,-1.88425 -2.13943,-1.91158 -2.15316,-3.41965 -0.0314,-3.43887 0.61765,-0.005 1.55272,-0.28208 2.07792,-0.61442 0.79406,-0.50243 0.6542,-1.03818 -0.83024,-3.18024 -0.98186,-1.41683 -2.82367,-3.58255 -4.09288,-4.81273 -1.99034,-1.92908 -2.51937,-2.14022 -3.84683,-1.53541 -2.19716,1.0011 -9.12002,7.46145 -9.12002,8.51073 0,0.90444 10.4204,10.83007 17.70054,16.86008 l 4.08609,3.38443 3.14046,-3.49009 c 5.16283,-5.73756 12.9277,-16.51169 12.9277,-17.93784 0,-1.96056 -10.23002,-16.64448 -15.49755,-22.24482 l -2.0301,-2.1584 H 58.13358 27.75044 l -4.26921,5.479 c -6.53965,8.39283 -13.06998,17.82937 -13.06998,18.88652 0,1.7111 14.63268,20.26085 16.30096,20.66461 0.90249,0.21838 10.61801,-7.70037 17.37397,-14.16098 2.60147,-2.48774 4.17985,-4.5377 4.17985,-5.4287 0,-0.95643 -1.48063,-2.66055 -4.46117,-5.13451 -2.45363,-2.03662 -4.79898,-3.70294 -5.21186,-3.70294 -1.30932,0 -8.36918,7.89875 -8.13707,9.10398 0.11998,0.62239 0.94134,1.30238 1.82548,1.51112 2.31732,0.54705 2.32974,1.47526 0.0492,3.66026 l -2.01016,1.92584 -3.0324,-2.95367 c -4.86436,-4.73812 -4.87019,-4.41364 0.21487,-11.98852 l 4.51323,-6.72311 8.56583,0.11048 c 4.71123,0.0607 9.1146,0.40412 9.78528,0.76305 1.07348,0.5745 1.21946,1.55696 1.21946,8.20648 v 7.55387 L 46.1576,57.1497 c -2.98602,4.14233 -7.02053,9.74279 -8.96562,12.44544 -1.94504,2.70268 -3.53594,5.39236 -3.53526,5.97707 6.5e-4,0.58472 2.4662,4.20699 5.47897,8.04946 9.64951,12.30689 18.64099,23.23108 19.12103,23.23108 0.25638,0 1.63179,-1.27013 3.05647,-2.8225 z M 52.1902,85.63711 c -3.43667,-4.04464 -6.33902,-7.62273 -6.44972,-7.95132 -0.22314,-0.6624 9.35565,-10.87427 11.55517,-12.31883 1.30222,-0.85528 1.81042,-0.49443 7.87066,5.58866 l 6.47857,6.50296 -5.47945,6.56176 c -3.01369,3.60898 -5.98512,7.10378 -6.60313,7.76624 -1.07219,1.14923 -1.40999,0.86745 -7.3721,-6.14947 z"
       style="fill:#c03e24;fill-opacity:1;stroke-width:0.66411901" />
  </g>
  <flowRoot
     xml:space="preserve"
     id="flowRoot858"
     style="font-style:normal;font-variant:normal;font-weight:normal;font-stretch:normal;font-size:40px;line-height:125%;font-family:Bitter;-inkscape-font-specification:Bitter;letter-spacing:0px;word-spacing:0px;fill:#ffffff;fill-opacity:1;stroke:none;stroke-width:1px;stroke-linecap:butt;stroke-linejoin:miter;stroke-opacity:1"
     transform="matrix(0.91151545,0,0,0.91151545,922.00391,367.57437)"><flowRegion
       id="flowRegion860"
       style="fill:#ffffff"><rect
         id="rect862"
         width="566.79663"
         height="162.45763"
         x="-792.43219"
         y="333.94067"
         style="fill:#ffffff" /></flowRegion><flowPara
       id="flowPara864">www.ozgurkon.org</flowPara></flowRoot></svg>
