<svg id="Layer_1" data-name="Layer 1" xmlns="http://www.w3.org/2000/svg" xmlns:xlink="http://www.w3.org/1999/xlink" viewBox="0 0 735 852"><defs><style>.cls-1,.cls-3{fill:#de5a27;}.cls-2{clip-path:url(#clip-path);}.cls-3{opacity:0.25;}.cls-4{fill:#e6b35a;}.cls-5{fill:#fff;}.cls-6{fill:#b1471b;}.cls-7{fill:#fefefe;}</style><clipPath id="clip-path"><polygon class="cls-1" points="369.5 7.4 728.2 214.5 728.2 636.6 369.5 845 2.8 636.6 2.8 214.5 369.5 7.4"/></clipPath></defs><title>RStudio_Hex 2016 v7 outlines</title><polygon class="cls-1" points="369.5 7.4 728.2 214.5 728.2 636.6 369.5 845 2.8 636.6 2.8 214.5 369.5 7.4"/><g class="cls-2"><circle class="cls-1" cx="365.5" cy="437.4" r="442.1"/><ellipse class="cls-3" cx="366.9" cy="105.8" rx="315.2" ry="234.6"/></g><path class="cls-4" d="M367,633.9l0.9-.9h-0.3Z"/><path class="cls-5" d="M145.3,542.7c0-9.9-.3-17.9-0.6-25.3h12.6l0.6,13.3h0.3c5.8-9.4,14.9-15,27.5-15,18.7,0,32.8,15.8,32.8,39.4,0,27.8-17,41.6-35.2,41.6-10.2,0-19.2-4.5-23.8-12.2h-0.3v42.1H145.3V542.7Zm13.9,20.6a31.7,31.7,0,0,0,.6,5.8,21.7,21.7,0,0,0,21.1,16.5c14.9,0,23.5-12.2,23.5-29.9,0-15.5-8.2-28.8-23-28.8-9.6,0-18.6,6.9-21.3,17.4a22.9,22.9,0,0,0-1,5.8v13.3Z"/><path class="cls-5" d="M285.6,576.3a109,109,0,0,0,1.3,18.6H274.1l-1.1-9.8h-0.5c-4.3,6.1-12.6,11.5-23.7,11.5-15.7,0-23.7-11-23.7-22.2,0-18.7,16.6-29,46.6-28.8V544c0-6.4-1.8-17.9-17.6-17.9a38.6,38.6,0,0,0-20.2,5.8l-3.2-9.3c6.4-4.2,15.7-6.9,25.4-6.9,23.7,0,29.4,16.2,29.4,31.7v29Zm-13.6-21c-15.4-.3-32.8,2.4-32.8,17.4,0,9.1,6.1,13.4,13.3,13.4a19.3,19.3,0,0,0,18.7-13,14.7,14.7,0,0,0,.8-4.5V555.4Z"/><path class="cls-5" d="M358.4,592c-3.7,1.9-11.8,4.6-22.2,4.6-23.4,0-38.6-16-38.6-39.7s16.3-41.1,41.6-41.1c8.3,0,15.7,2.1,19.5,4l-3.2,10.9c-3.4-1.9-8.6-3.7-16.3-3.7-17.8,0-27.4,13.1-27.4,29.3,0,17.9,11.5,29,26.9,29a40,40,0,0,0,17.3-3.8Z"/><path class="cls-5" d="M383.7,553H384c1.9-2.7,4.6-6.1,6.9-8.8l22.7-26.7h17l-29.9,31.8,34.1,45.6H417.6l-26.7-37.1-7.2,8v29.1H369.7V481.3h13.9V553Z"/><path class="cls-5" d="M442.4,541.6c0-9.1-.2-17-0.6-24.2H454l0.5,15.2h0.6c3.5-10.4,12-17,21.4-17a15.2,15.2,0,0,1,4,.5v13.3a21.1,21.1,0,0,0-4.8-.5c-9.9,0-17,7.5-18.9,18.1a39.6,39.6,0,0,0-.6,6.6v41.3H442.4V541.6Z"/><path class="cls-5" d="M543.2,576.3a109,109,0,0,0,1.3,18.6H531.7l-1.1-9.8H530c-4.3,6.1-12.6,11.5-23.7,11.5-15.7,0-23.7-11-23.7-22.2,0-18.7,16.6-29,46.6-28.8V544c0-6.4-1.8-17.9-17.6-17.9a38.6,38.6,0,0,0-20.2,5.8l-3.2-9.3c6.4-4.2,15.7-6.9,25.4-6.9,23.7,0,29.4,16.2,29.4,31.7v29Zm-13.6-21c-15.4-.3-32.8,2.4-32.8,17.4,0,9.1,6.1,13.4,13.3,13.4a19.3,19.3,0,0,0,18.7-13,14.7,14.7,0,0,0,.8-4.5V555.4Z"/><path class="cls-5" d="M577.1,498.9v18.6h20.2v10.7H577.1v41.8c0,9.6,2.7,15,10.6,15a26.3,26.3,0,0,0,8.2-1l0.6,10.6a33.9,33.9,0,0,1-12.5,2.1c-6.6,0-11.8-2.2-15.2-6.1s-5.4-11-5.4-20.2V528.2h-12V517.4h12V503.2Z"/><path class="cls-6" d="M705.6,196.2L427.8,35.8,367.5,1,307.2,35.8,29.4,196.2,0.1,213.1V637.4l29.3,16.9L310.6,816.7l56.9,32.8,56.9-32.8L705.6,654.3l29.3-16.9V213.1Zm0,425.3L367.5,816.7,29.4,621.5V231L367.5,35.8h0L705.6,231V621.5Z"/><path class="cls-5" d="M365.5,797.3l4.5,4.5,2.7,2.9h0.1c-0.4-1.2-.7-2.5-1-3.9l-1.4-6.3,1.6-.9,4.7,4.3,2.9,2.9h0.1a36.7,36.7,0,0,1-1.2-3.9l-1.6-6.1,1.9-1.1,2.7,12.4-1.7,1-4.5-4.1a40.7,40.7,0,0,1-2.9-2.9h0a35.5,35.5,0,0,1,1.1,4l1.2,5.9-1.7,1-9.2-8.6Z"/><path class="cls-5" d="M381.7,787.9l4.5,4.5,2.7,2.9h0.1c-0.4-1.2-.7-2.5-1-3.9l-1.4-6.3,1.6-.9,4.7,4.3,2.9,2.9h0.1a36.3,36.3,0,0,1-1.2-3.9l-1.6-6.1,1.9-1.1,2.7,12.4-1.7,1-4.5-4.1a40.2,40.2,0,0,1-2.9-2.9h0a35.4,35.4,0,0,1,1.1,4l1.2,5.9-1.7,1-9.2-8.6Z"/><path class="cls-5" d="M397.8,778.5l4.5,4.5,2.7,2.9h0.1c-0.4-1.2-.7-2.5-1-3.9l-1.4-6.3,1.6-.9L409,779l2.9,2.9h0.1a36.4,36.4,0,0,1-1.2-3.9l-1.6-6.1,1.9-1.1,2.7,12.4-1.7,1-4.5-4.1a40.4,40.4,0,0,1-2.9-2.9h0a35.1,35.1,0,0,1,1.1,4l1.2,5.9-1.7,1-9.2-8.6Z"/><path class="cls-5" d="M419.2,780.4a1.6,1.6,0,1,1,.5-2.1,1.5,1.5,0,0,1-.5,2.1h0Z"/><path class="cls-5" d="M418.5,770.8l-2-3.2,1.7-1,1.3,2h0.1a3.6,3.6,0,0,1,1.6-4l0.6-.2,1,1.8-0.7.3a3.1,3.1,0,0,0-1.1,3.9l0.4,0.9,3.2,5.6-1.9,1.1Z"/><path class="cls-5" d="M428.4,772.1a5.8,5.8,0,0,0,2.9-.7c1.4-.8,1.6-1.9,1.1-2.7s-1.4-1.1-3.1-.8-3.8-.1-4.5-1.3-0.4-3.9,1.8-5.2a6,6,0,0,1,2.9-.8l0.3,1.7a4.7,4.7,0,0,0-2.5.6,1.8,1.8,0,0,0-.9,2.4c0.5,0.9,1.4.9,3,.6s3.7,0,4.6,1.6,0.4,4-2.1,5.4a6.9,6.9,0,0,1-3.4,1Z"/><path class="cls-5" d="M433.1,754.6l1.5,2.5,2.7-1.6,0.8,1.4-2.7,1.6,3.3,5.6c0.8,1.3,1.6,1.8,2.6,1.2l1-.8,0.9,1.4a5.3,5.3,0,0,1-1.5,1.3,3.1,3.1,0,0,1-2.5.4,4.5,4.5,0,0,1-2.3-2.3l-3.3-5.7-1.6.9-0.8-1.4,1.6-.9-1.1-1.9Z"/><path class="cls-5" d="M452.6,756.8l1.7,2.8-1.7,1-1.1-1.6h0a4.6,4.6,0,0,1-2.3,4c-1.6,1-4.1,1.2-6.3-2.5l-3.6-6.1,1.9-1.1,3.4,5.8c1.2,2,2.5,3,4.3,2a3.2,3.2,0,0,0,1.5-3.2,3.2,3.2,0,0,0-.4-1.1l-3.7-6.4,1.9-1.1Z"/><path class="cls-5" d="M457.5,737.2l7.4,12.6,1.7,2.6-1.7,1-1.1-1.8h0a4.5,4.5,0,0,1-2.4,4.1c-2.5,1.5-5.7.5-7.6-2.7s-1.1-6.9,1.4-8.3a4,4,0,0,1,4.1-.2h0l-3.6-6.2Zm3.4,10.2-0.6-.7a3.2,3.2,0,0,0-4-.6c-2,1.1-2.1,3.6-.8,5.9s3.3,3.3,5.3,2.1a3.3,3.3,0,0,0,1.5-3.9,3.8,3.8,0,0,0-.4-0.9Z"/><path class="cls-5" d="M463.9,736.1a1.4,1.4,0,0,1-2.4,1.4,1.3,1.3,0,0,1,.5-1.9A1.3,1.3,0,0,1,463.9,736.1Zm5.7,14.6-6.1-10.5,1.9-1.1,6.1,10.5Z"/><path class="cls-5" d="M481,736.9c2.3,3.9.6,7.1-2,8.6s-6.2.8-8.1-2.5-0.9-6.9,2-8.6S479.1,733.7,481,736.9Zm-8.2,4.9c1.3,2.3,3.7,3.2,5.5,2.2s2.2-3.6.8-5.9-3.2-3.5-5.5-2.2S471.6,739.9,472.8,741.9Z"/><path class="cls-5" d="M486.9,740.9a1.6,1.6,0,1,1,.5-2.1,1.5,1.5,0,0,1-.5,2.1h0Z"/><path class="cls-5" d="M497.7,733.8a8,8,0,0,1-2.6,2.4c-3.2,1.8-6.5.9-8.3-2.3a6.1,6.1,0,0,1,2.4-8.8,7.3,7.3,0,0,1,2.9-1l0.4,1.7a5.1,5.1,0,0,0-2.5.8c-2.4,1.4-2.7,3.9-1.4,6.1s3.8,3,5.9,1.8a6.2,6.2,0,0,0,2-1.9Z"/><path class="cls-5" d="M506.4,722.2c2.3,3.9.6,7.1-2,8.6s-6.2.8-8.1-2.5-0.9-6.9,2-8.6S504.5,719,506.4,722.2Zm-8.2,4.9c1.3,2.3,3.7,3.2,5.5,2.2s2.2-3.6.8-5.9-3.2-3.5-5.5-2.2S497,725.1,498.1,727.1Z"/><path class="cls-5" d="M507.4,718.5l-1.7-2.8,1.7-1,1.1,1.6h0.1a4.2,4.2,0,0,1,2.2-3.8,3.6,3.6,0,0,1,4.2.4h0a5,5,0,0,1,.4-2,4.1,4.1,0,0,1,1.9-2.1c1.4-.8,4-1.1,6.1,2.5l3.6,6.2-1.9,1.1-3.4-5.9c-1.2-2-2.6-2.8-4.1-1.9a2.9,2.9,0,0,0-1.2,3,3.6,3.6,0,0,0,.4,1l3.8,6.5-1.9,1.1-3.6-6.3c-1-1.7-2.4-2.4-3.9-1.6a3,3,0,0,0-1.2,3.3,3.1,3.1,0,0,0,.4,1l3.7,6.3-1.9,1.1Z"/><path class="cls-6" d="M371.9,377.7c-5.9-8.1-1.8-17.5,8.1-19.4,24.3-4.6,22.5,1.8,22.5-26.1,0-16.9,0-16.9-17.2-19.3-6.4-.9-12.1-1.4-15.3-9.2s1.6-11.4,5.1-16.1c9.5-12.4,9.5-12.3-.6-24-16-18.5-16-18.5-35.8-4.4-7.9,5.6-17.1,2.2-18.9-7.1a105.9,105.9,0,0,1-1.8-12.2c-0.6-7.8-3.9-12.2-12.4-11.2a69.1,69.1,0,0,1-8.2,0c-21.6,0-22.2-.1-24,21.3-0.7,8.3-5.4,10.2-11.2,12.2s-8.5-3.5-12-6.1c-13.9-10.5-14.6-10.6-27,2l-3.6,3.7c-12.2,12.7-12.4,12.8-1.3,26.5,4.5,5.6,7.8,10.4,3.4,18.2s-9.5,4.7-14.4,5.7c-16.7,3.4-16.8,3.1-16.8,19.7,0,21.4,0,21.4,20.9,25.4,12.8,2.5,16.2,12.2,8.1,22.8-3.3,4.3-7.6,8-9.3,14.2a74.3,74.3,0,0,0,23.7,26c6.5,4.4,10.2-3.2,14.9-5.8,2.4-1.3,4.4-3.3,6.6-4.9a11.5,11.5,0,0,1,17.7,7.5c0.9,4.7,1.6,9.5,2.1,14.2,0.7,6.5,3.6,10.1,10.6,9.5,3.1-.3,6.2,0,9.3,0,24.5-.1,21.2,2.7,24.6-21.8,1.2-8.8,6.3-10.8,12.5-11.9,4.7-.8,7.6,4.1,11,6.7,13.4,10.3,14.3,10.3,26.1-1.9C385,395.7,385,395.7,371.9,377.7Zm-75.2-.6c-24.1.1-42.8-18.9-42.5-43.3,0.3-22.9,19.5-41.4,42.6-41.2A42.2,42.2,0,0,1,296.7,377.1Z"/><path class="cls-6" d="M396.7,265.7l3.1,0.3c9,1.4,11.8,6.5,8.5,15.2-1.9,4.8-3.6,9.6-4.9,13s0,4.6,1.3,6c10.4,11.2,20.4,11,29.6-.6,0.8-1.1,1.7-2.2,2.6-3.2,5.5-6.2,10.9-6,16.2.2,3.1,3.7,6,7.5,9.1,11.1s3.8,3,7.1,1.7c17.8-6.8,19.5-10.2,12.5-27.6L481,280c-2.6-7.2.5-12.6,8.2-13.9l13.2-2.1c2.9-.4,4.9-1.5,5.8-4.8,4.2-15.4-.4-22.6-16.1-24.7l-3.1-.4c-7.7-1.6-10.6-6.8-7.9-14.1,1.1-2.9,2.1-5.8,3.5-8.6,3.4-7.1,2.4-12.3-5.6-15.2a31.4,31.4,0,0,1-7.2-4c-4.5-3.3-8-2.4-11.1,2a96.4,96.4,0,0,1-8.4,10.4c-4.8,5.1-10.1,5.1-14.8-.1-3.2-3.5-6-7.5-9.1-11.1-1.5-1.7-3.4-4.5-5.9-3.2-6.4,3.2-13.3,6.2-18.3,11.1s0.8,9,2.4,13.3c5.7,15.6,4.3,17.9-12.1,20.5-4.4.7-10.1-.4-12.5,5.1C376.2,253,382.6,263.9,396.7,265.7ZM445,229c11.2,0.1,21.1,10,21.2,21.1s-10.3,21.5-22,21-20.9-10.2-20.6-21.4S433.9,228.9,445,229Z"/><path class="cls-6" d="M493,404c-1.7-.2-3.5,0-5.1-0.5-6.4-2-9.6-6-7.1-13,1.7-4.8,3.5-9.7,5.3-14.5,0.9-2.4,1.2-4.3-.9-6.5-10.5-11.1-20.3-10.9-29.7.8l-1.9,2.4c-5.5,6.4-11.6,6.5-17,.2-2.7-3.1-5.1-6.5-7.8-9.6s-3.5-4.6-5.8-3.5c-6.5,3.1-13.4,6-18.6,10.7s0.6,9,2.1,13.2c5.7,15.9,4.7,17.6-11.7,20.7-4.4.8-10.2-.3-12.8,5-5.7,11.6.9,23.9,13.5,25.6,15,2,16.7,5.1,11.3,19.5-1.7,4.6-6.4,10.4-2.7,14.3s12,7.7,17.4,11c3.8,0.4,5.4-1.6,6.9-3.4,2.9-3.4,5.5-7,8.4-10.4,5.2-6.1,11-6,16.1.1,3.1,3.7,6,7.5,9.1,11.1s3.9,3.1,7.2,1.9c17.3-6.2,19.4-10.5,12.5-27.6l-1.1-2.9c-2.4-6.6.5-10.7,6.6-12.4,4.6-1.3,9.5-1.4,14.2-2.5,2.4-.6,5.3-0.5,6.6-3.9C513.2,416.6,507.1,405.9,493,404Zm-48.2,36.7c-11.3-.1-21.1-9.8-21.2-20.9s10.1-21.4,21.9-21.1,20.9,10.2,20.7,21.3S456,440.8,444.7,440.7Z"/><path class="cls-7" d="M366.9,368.7c-5.9-8.1-1.8-17.5,8.1-19.4,24.3-4.6,22.5,1.8,22.5-26.1,0-16.9,0-16.9-17.2-19.3-6.4-.9-12.1-1.4-15.3-9.2s1.6-11.4,5.1-16.1c9.5-12.4,9.5-12.3-.6-24-16-18.5-16-18.5-35.8-4.4-7.9,5.6-17.1,2.2-18.9-7.1a105.9,105.9,0,0,1-1.8-12.2c-0.6-7.8-3.9-12.2-12.4-11.2a69.1,69.1,0,0,1-8.2,0c-21.6,0-22.2-.1-24,21.3-0.7,8.3-5.4,10.2-11.2,12.2s-8.5-3.5-12-6.1c-13.9-10.5-14.6-10.6-27,2l-3.6,3.7c-12.2,12.7-12.4,12.8-1.3,26.5,4.5,5.6,7.8,10.4,3.4,18.2s-9.5,4.7-14.4,5.7c-16.7,3.4-16.8,3.1-16.8,19.7,0,21.4,0,21.4,20.9,25.4,12.8,2.5,16.2,12.2,8.1,22.8-3.3,4.3-7.6,8-9.3,14.2a74.3,74.3,0,0,0,23.7,26c6.5,4.4,10.2-3.2,14.9-5.8,2.4-1.3,4.4-3.3,6.6-4.9a11.5,11.5,0,0,1,17.7,7.5c0.9,4.7,1.6,9.5,2.1,14.2,0.7,6.5,3.6,10.1,10.6,9.5,3.1-.3,6.2,0,9.3,0,24.5-.1,21.2,2.7,24.6-21.8,1.2-8.8,6.3-10.8,12.5-11.9,4.7-.8,7.6,4.1,11,6.7,13.4,10.3,14.3,10.3,26.1-1.9C380,386.7,380,386.7,366.9,368.7Zm-75.2-.6c-24.1.1-42.8-18.9-42.5-43.3,0.3-22.9,19.5-41.4,42.6-41.2A42.2,42.2,0,0,1,291.7,368.1Z"/><path class="cls-7" d="M391.7,256.7l3.1,0.3c9,1.4,11.8,6.5,8.5,15.2-1.9,4.8-3.6,9.6-4.9,13s0,4.6,1.3,6c10.4,11.2,20.4,11,29.6-.6,0.8-1.1,1.7-2.2,2.6-3.2,5.5-6.2,10.9-6,16.2.2,3.1,3.7,6,7.5,9.1,11.1s3.8,3,7.1,1.7c17.8-6.8,19.5-10.2,12.5-27.6L476,271c-2.6-7.2.5-12.6,8.2-13.9l13.2-2.1c2.9-.4,4.9-1.5,5.8-4.8,4.2-15.4-.4-22.6-16.1-24.7l-3.1-.4c-7.7-1.6-10.6-6.8-7.9-14.1,1.1-2.9,2.1-5.8,3.5-8.6,3.4-7.1,2.4-12.3-5.6-15.2a31.4,31.4,0,0,1-7.2-4c-4.5-3.3-8-2.4-11.1,2a96.4,96.4,0,0,1-8.4,10.4c-4.8,5.1-10.1,5.1-14.8-.1-3.2-3.5-6-7.5-9.1-11.1-1.5-1.7-3.4-4.5-5.9-3.2-6.4,3.2-13.3,6.2-18.3,11.1s0.8,9,2.4,13.3c5.7,15.6,4.3,17.9-12.1,20.5-4.4.7-10.1-.4-12.5,5.1C371.2,244,377.6,254.9,391.7,256.7ZM440,220c11.2,0.1,21.1,10,21.2,21.1s-10.3,21.5-22,21-20.9-10.2-20.6-21.4S428.9,219.9,440,220Z"/><path class="cls-7" d="M488,395c-1.7-.2-3.5,0-5.1-0.5-6.4-2-9.6-6-7.1-13,1.7-4.8,3.5-9.7,5.3-14.5,0.9-2.4,1.2-4.3-.9-6.5-10.5-11.1-20.3-10.9-29.7.8l-1.9,2.4c-5.5,6.4-11.6,6.5-17,.2-2.7-3.1-5.1-6.5-7.8-9.6s-3.5-4.6-5.8-3.5c-6.5,3.1-13.4,6-18.6,10.7s0.6,9,2.1,13.2c5.7,15.9,4.7,17.6-11.7,20.7-4.4.8-10.2-.3-12.8,5-5.7,11.6.9,23.9,13.5,25.6,15,2,16.7,5.1,11.3,19.5-1.7,4.6-6.4,10.4-2.7,14.3s12,7.7,17.4,11c3.8,0.4,5.4-1.6,6.9-3.4,2.9-3.4,5.5-7,8.4-10.4,5.2-6.1,11-6,16.1.1,3.1,3.7,6,7.5,9.1,11.1s3.9,3.1,7.2,1.9c17.3-6.2,19.4-10.5,12.5-27.6l-1.1-2.9c-2.4-6.6.5-10.7,6.6-12.4,4.6-1.3,9.5-1.4,14.2-2.5,2.4-.6,5.3-0.5,6.6-3.9C508.2,407.6,502.1,396.9,488,395Zm-48.2,36.7c-11.3-.1-21.1-9.8-21.2-20.9s10.1-21.4,21.9-21.1,20.9,10.2,20.7,21.3S451,431.8,439.7,431.7Z"/></svg>