<?xml version="1.0" encoding="utf-8"?>
<!-- Generator: Adobe Illustrator 16.0.0, SVG Export Plug-In . SVG Version: 6.00 Build 0)  -->
<!DOCTYPE svg PUBLIC "-//W3C//DTD SVG 1.1//EN" "http://www.w3.org/Graphics/SVG/1.1/DTD/svg11.dtd">
<svg version="1.1"
	 id="svg39" xmlns:dc="http://purl.org/dc/elements/1.1/" xmlns:cc="http://creativecommons.org/ns#" xmlns:rdf="http://www.w3.org/1999/02/22-rdf-syntax-ns#" xmlns:svg="http://www.w3.org/2000/svg"
	 xmlns="http://www.w3.org/2000/svg" xmlns:xlink="http://www.w3.org/1999/xlink" x="0px" y="0px" width="605.122px"
	 height="701.799px" viewBox="0 0 605.122 701.799" enable-background="new 0 0 605.122 701.799" xml:space="preserve">
<path id="path5" fill="#20455A" d="M302.602,0.08l302.521,175.03v351.699l-302.521,174.99L0.08,526.809V175.11L302.602,0.08z"/>
<path id="path7" fill="#418AB3" d="M302.602,29.212l277.229,160.384v322.729L302.602,672.668L25.37,512.325V189.596L302.602,29.212z
	"/>
<g enable-background="new    ">
	<path fill="#FFFFFF" d="M101.411,502.696v27.438H90.527v-85.406h10.884v5.041c4.124-4.123,9.107-6.188,14.95-6.188
		c8.707,0,15.485,2.713,20.335,8.135c4.849,5.422,7.275,13.365,7.275,23.828c0,9.318-2.444,16.928-7.332,22.828
		c-4.889,5.898-11.953,8.85-21.194,8.85c-2.597,0-5.375-0.459-8.334-1.375C104.15,504.93,102.25,503.879,101.411,502.696z
		 M101.411,457.959v35.742c0.687,1.031,2.138,2.016,4.353,2.951c2.214,0.936,4.373,1.402,6.473,1.402
		c13.518,0,20.277-7.637,20.277-22.912c0-7.752-1.604-13.424-4.812-17.014c-3.208-3.588-8.344-5.385-15.409-5.385
		c-1.528,0-3.399,0.535-5.614,1.604C104.466,455.42,102.708,456.624,101.411,457.959z"/>
	<path fill="#FFFFFF" d="M190.541,499.03c-4.353,5.463-11.018,8.191-19.991,8.191c-4.812,0-8.984-1.748-12.516-5.24
		c-3.532-3.494-5.298-7.84-5.298-13.031c0-6.227,2.721-11.486,8.163-15.781c5.442-4.297,12.382-6.445,20.822-6.445
		c2.292,0,4.888,0.498,7.791,1.49c0-9.93-4.431-14.893-13.29-14.893c-6.798,0-12.029,1.832-15.695,5.498l-4.583-9.107
		c2.062-1.68,4.917-3.123,8.564-4.324c3.646-1.203,7.131-1.805,10.454-1.805c8.897,0,15.36,2.023,19.39,6.072
		c4.028,4.047,6.043,10.48,6.043,19.303v21.996c0,5.385,1.604,8.975,4.812,10.77v5.441c-4.43,0-7.743-0.631-9.938-1.891
		C193.07,504.012,191.495,501.932,190.541,499.03z M189.51,475.946c-3.437-0.764-5.843-1.146-7.218-1.146
		c-5.499,0-9.986,1.414-13.461,4.238c-3.476,2.828-5.213,6.168-5.213,10.025c0,6.377,3.761,9.564,11.285,9.564
		c5.499,0,10.368-2.615,14.607-7.848V475.946z"/>
	<path fill="#FFFFFF" d="M250.857,455.209c-2.367-1.643-4.754-2.463-7.159-2.463c-3.857,0-7.229,1.775-10.11,5.326
		c-2.884,3.553-4.324,7.83-4.324,12.832v35.17H218.38v-61.35h10.884v9.797c3.971-7.293,9.871-10.941,17.699-10.941
		c1.947,0,4.755,0.344,8.421,1.031L250.857,455.209z"/>
	<path fill="#FFFFFF" d="M275.432,432.469v23.312h27.726v9.736h-27.726v30.246h38.035v10.311h-49.49v-83.916h50.121v10.311H275.432z
		"/>
	<path fill="#FFFFFF" d="M350.758,506.077h-23.943v-83.918c10.195-0.496,17.547-0.744,22.054-0.744
		c8.285,0,14.701,1.785,19.246,5.355c4.544,3.57,6.815,8.678,6.815,15.322c0,3.896-1.451,7.445-4.354,10.654
		c-2.903,3.207-6.109,5.213-9.623,6.014c6.645,1.605,11.484,4.26,14.521,7.963c3.035,3.705,4.554,8.744,4.554,15.121
		c0,7.371-2.701,13.252-8.105,17.645C366.52,503.879,359.464,506.077,350.758,506.077z M338.27,431.325v24.115
		c2.406,0.229,5.386,0.344,8.937,0.344c10.846,0,16.269-4.412,16.269-13.232c0-7.752-4.982-11.629-14.949-11.629
		C344.704,430.922,341.286,431.055,338.27,431.325z M338.27,464.319v32.02c3.935,0.383,6.95,0.572,9.052,0.572
		c7.179,0,12.42-1.346,15.724-4.037c3.303-2.693,4.955-6.98,4.955-12.861c0-5.459-1.575-9.486-4.727-12.086
		c-3.149-2.596-8.411-3.895-15.78-3.895L338.27,464.319z"/>
	<path fill="#FFFFFF" d="M404.659,432.469v23.312h27.725v9.736h-27.725v30.246h38.035v10.311h-49.491v-83.916h50.121v10.311H404.659
		z"/>
	<path fill="#FFFFFF" d="M510.286,507.221l-43.362-61.35v60.203h-10.883v-83.916h4.582l42.217,58.023v-58.023h10.883v85.061h-3.437
		V507.221z"/>
</g>
<path id="path15" fill="#418AB3" d="M178.871,176.43l72.309-72.309h102.241l72.269,72.309V278.67l-72.269,72.27H251.18
	l-72.309-72.27V176.43z"/>
<path id="path17" fill="none" stroke="#8ABAD4" stroke-width="8.0032" stroke-miterlimit="8" d="M178.871,176.43l72.309-72.309
	h102.241l72.269,72.309V278.67l-72.269,72.27H251.18l-72.309-72.27V176.43z"/>
<path id="path19" fill="#8ABAD4" stroke="#8ABAD4" stroke-width="0.04" stroke-linejoin="round" stroke-miterlimit="10" d="
	M217.567,317.686l174.549-174.549l-5.643-5.643l-174.55,174.549L217.567,317.686z M206.242,306.362
	c-4.682,4.723-4.682,12.325,0,17.008c4.682,4.682,12.285,4.682,17.007,0c4.683-4.683,4.683-12.285,0-17.008
	C218.527,301.68,210.924,301.68,206.242,306.362z M397.799,148.819c4.682-4.722,4.682-12.325,0-17.007s-12.285-4.682-17.007,0
	c-4.683,4.682-4.683,12.285,0,17.007C385.514,153.501,393.117,153.501,397.799,148.819z"/>
<path id="path21" fill="#FFFFFF" stroke="#FFFFFF" stroke-width="0.04" stroke-linejoin="round" stroke-miterlimit="10" d="
	M350.62,353.702l-174.55-174.55l5.642-5.642l174.549,174.55L350.62,353.702z M361.944,342.375c4.682,4.723,4.682,12.326,0,17.008
	c-4.683,4.682-12.285,4.682-17.007,0c-4.683-4.682-4.683-12.285,0-17.008C349.659,337.694,357.263,337.694,361.944,342.375z
	 M170.388,184.833c-4.682-4.722-4.682-12.325,0-17.006c4.682-4.682,12.285-4.682,17.007,0c4.682,4.682,4.682,12.285,0,17.006
	C182.673,189.516,175.07,189.516,170.388,184.833z"/>
<path id="path23" fill="#8ABAD4" stroke="#8ABAD4" stroke-width="0.04" stroke-linejoin="round" stroke-miterlimit="10" d="
	M386.794,317.686L212.245,143.137l5.642-5.643l174.551,174.549L386.794,317.686z M398.119,306.362
	c4.682,4.723,4.682,12.325,0,17.008c-4.684,4.682-12.285,4.682-17.007,0c-4.684-4.683-4.684-12.285,0-17.008
	C385.834,301.68,393.438,301.68,398.119,306.362z M206.562,148.819c-4.682-4.722-4.682-12.325,0-17.007s12.285-4.682,17.007,0
	c4.682,4.682,4.682,12.285,0,17.007C218.847,153.501,211.244,153.501,206.562,148.819z"/>
<path id="path25" fill="#FFFFFF" stroke="#FFFFFF" stroke-width="0.04" stroke-linejoin="round" stroke-miterlimit="10" d="
	M422.969,281.512l-174.55-174.549l5.644-5.643l174.55,174.55L422.969,281.512z M434.293,270.188c4.682,4.723,4.682,12.324,0,17.006
	c-4.682,4.684-12.285,4.684-17.007,0c-4.683-4.682-4.683-12.283,0-17.006C422.008,265.506,429.611,265.506,434.293,270.188z
	 M242.736,112.645c-4.683-4.722-4.683-12.325,0-17.007c4.682-4.682,12.285-4.682,17.008,0c4.682,4.682,4.682,12.285,0,17.007
	C255.021,117.327,247.418,117.327,242.736,112.645z"/>
<path id="path27" fill="#FFFFFF" stroke="#FFFFFF" stroke-width="0.04" stroke-linejoin="round" stroke-miterlimit="10" d="
	M181.712,281.512l174.549-174.549l-5.642-5.643L176.07,275.87L181.712,281.512z M170.388,270.188
	c-4.682,4.723-4.682,12.324,0,17.006c4.682,4.684,12.285,4.684,17.007,0c4.682-4.682,4.682-12.283,0-17.006
	C182.673,265.506,175.07,265.506,170.388,270.188z M361.944,112.645c4.682-4.722,4.682-12.325,0-17.007
	c-4.683-4.682-12.285-4.682-17.007,0c-4.683,4.682-4.683,12.285,0,17.007C349.659,117.327,357.263,117.327,361.944,112.645z"/>
<path id="path29" fill="#FFFFFF" stroke="#FFFFFF" stroke-width="0.04" stroke-linejoin="round" stroke-miterlimit="10" d="
	M422.969,173.509l-174.55,174.55l5.644,5.643l174.55-174.55L422.969,173.509z M434.293,184.833c4.682-4.722,4.682-12.325,0-17.006
	c-4.682-4.682-12.285-4.682-17.007,0c-4.683,4.682-4.683,12.285,0,17.006C422.008,189.516,429.611,189.516,434.293,184.833z
	 M242.736,342.375c-4.683,4.723-4.683,12.326,0,17.008c4.682,4.682,12.285,4.682,17.008,0c4.682-4.682,4.682-12.285,0-17.008
	C255.021,337.694,247.418,337.694,242.736,342.375z"/>
<path id="path31" fill="#FFFFFF" stroke="#FFFFFF" stroke-width="0.04" stroke-linejoin="round" stroke-miterlimit="10" d="
	M351.9,354.622l-174.55-72.309l3.081-7.402l174.549,72.309L351.9,354.622z M358.021,339.815c6.123,2.562,9.045,9.564,6.522,15.688
	c-2.561,6.121-9.563,9.043-15.686,6.482c-6.123-2.521-9.044-9.523-6.523-15.688C344.896,340.176,351.9,337.293,358.021,339.815z
	 M174.31,289.715c-6.123-2.561-9.044-9.564-6.522-15.686c2.561-6.123,9.563-9.046,15.686-6.523
	c6.123,2.561,9.043,9.563,6.522,15.687C187.435,289.315,180.432,292.237,174.31,289.715z"/>
<path id="path33" fill="#FFFFFF" stroke="#FFFFFF" stroke-width="0.04" stroke-linejoin="round" stroke-miterlimit="10" d="
	M421.969,174.79l-72.31,174.55l7.403,3.08l72.309-174.548L421.969,174.79z M436.734,180.912c2.561-6.123-0.36-13.125-6.482-15.687
	c-6.123-2.521-13.126,0.4-15.688,6.523c-2.521,6.123,0.36,13.125,6.482,15.686C427.21,189.956,434.213,187.035,436.734,180.912z
	 M342.256,346.297c-2.521,6.123,0.4,13.125,6.523,15.688c6.122,2.521,13.125-0.4,15.686-6.523
	c2.521-6.121-0.398-13.125-6.521-15.686C351.82,337.254,344.817,340.176,342.256,346.297z"/>
<path id="path35" fill="#FFFFFF" stroke="#FFFFFF" stroke-width="0.04" stroke-linejoin="round" stroke-miterlimit="10" d="
	M252.781,100.44l174.549,72.309l-3.081,7.403l-174.55-72.309L252.781,100.44z M246.658,115.246
	c-6.122-2.561-9.043-9.564-6.522-15.687c2.562-6.122,9.563-9.043,15.688-6.522c6.122,2.561,9.043,9.564,6.521,15.687
	C259.783,114.846,252.781,117.767,246.658,115.246z M430.371,165.346c6.123,2.562,9.044,9.564,6.523,15.688
	c-2.562,6.122-9.564,9.043-15.688,6.482c-6.122-2.521-9.044-9.523-6.521-15.686C417.246,165.706,424.249,162.825,430.371,165.346z"
	/>
<path id="path37" fill="#FFFFFF" stroke="#FFFFFF" stroke-width="0.02" stroke-linejoin="round" stroke-miterlimit="10" d="
	M182.573,280.211l72.309-174.549l-7.403-3.061l-72.289,174.55L182.573,280.211z M167.787,274.088
	c-2.541,6.123,0.38,13.146,6.502,15.688s13.145-0.381,15.686-6.503s-0.38-13.146-6.502-15.687
	C177.351,265.065,170.328,267.967,167.787,274.088z M262.266,108.724c2.541-6.123-0.36-13.146-6.482-15.687
	s-13.146,0.38-15.688,6.502s0.36,13.146,6.502,15.687C252.721,117.767,259.744,114.846,262.266,108.724z"/>
</svg>
