<?xml version="1.0" encoding="UTF-8" standalone="no"?>
<svg
   xmlns:dc="http://purl.org/dc/elements/1.1/"
   xmlns:cc="http://creativecommons.org/ns#"
   xmlns:rdf="http://www.w3.org/1999/02/22-rdf-syntax-ns#"
   xmlns:svg="http://www.w3.org/2000/svg"
   xmlns="http://www.w3.org/2000/svg"
   id="svg39"
   height="186.03mm"
   width="160.42mm"
   version="1.0">
  <metadata
     id="metadata43">
    <rdf:RDF>
      <cc:Work
         rdf:about="">
        <dc:format>image/svg+xml</dc:format>
        <dc:type
           rdf:resource="http://purl.org/dc/dcmitype/StillImage" />
      </cc:Work>
    </rdf:RDF>
  </metadata>
  <defs
     id="defs3">
    <pattern
       y="0"
       x="0"
       height="6"
       width="6"
       patternUnits="userSpaceOnUse"
       id="EMFhbasepattern" />
  </defs>
  <path
     id="path5"
     d="  M 302.60062,0.0800319   L 605.1212,175.1098   L 605.1212,526.80998   L 302.60062,701.79973   L 0.0800319,526.80998   L 0.0800319,175.1098   z "
     style="fill:#20455a;fill-rule:evenodd;fill-opacity:1;stroke:none;" />
  <path
     id="path7"
     d="  M 302.60062,29.211644   L 579.83112,189.59557   L 579.83112,512.32421   L 302.60062,672.66812   L 25.370112,512.32421   L 25.370112,189.59557   z "
     style="fill:#418ab3;fill-rule:evenodd;fill-opacity:1;stroke:none;" />
  <text
     id="text13"
     y="0.000000"
     x="0.000000"
     transform="matrix(1.000000,-0.000000,0.000000,1.000000,82.794486,506.075118)"
     style="font-size:117.312500px;font-style:normal;font-variant:normal;font-weight:400;font-stretch:Normal;line-height:125.000000%;letter-spacing:0px;word-spacing:0px;fill:#000000;fill-opacity:1;stroke:none;font-family:Trebuchet MS;text-align:start;text-anchor:start;"
     xml:space="preserve"><tspan
       id="tspan11"
       y="0.000000"
       x="0.000000"><tspan
         id="tspan9"
         style="fill:#FFFFFF;font-size:117.312500px;font-style:normal;font-variant:normal;font-weight:400;font-stretch:Normal;font-family:Trebuchet MS;"
         dy="0.000000"
         dx="0.000000">parEBEN</tspan></tspan></text>
  <path
     id="path15"
     d="  M 178.8713,176.43032   L 251.18012,104.1215   L 353.42087,104.1215   L 425.68968,176.43032   L 425.68968,278.67108   L 353.42087,350.93988   L 251.18012,350.93988   L 178.8713,278.67108   z "
     style="fill:#418ab3;fill-rule:evenodd;fill-opacity:1;stroke:none;" />
  <path
     id="path17"
     d="  M 178.8713,176.43032   L 251.18012,104.1215   L 353.42087,104.1215   L 425.68968,176.43032   L 425.68968,278.67108   L 353.42087,350.93988   L 251.18012,350.93988   L 178.8713,278.67108   z "
     style="fill:none;stroke:#8abad4;stroke-width:8.00319px;stroke-linecap:butt;stroke-linejoin:miter;stroke-miterlimit:8;stroke-dasharray:none;stroke-opacity:1;" />
  <path
     id="path19"
     d="  M 217.56672,317.68663   L 392.1163,143.13705   L 386.47405,137.4948   L 211.92447,312.04438   z  M 206.24221,306.36211   C 201.56034,311.084 201.56034,318.68703 206.24221,323.36889   C 210.92407,328.05076 218.5271,328.05076 223.24899,323.36889   C 227.93085,318.68703 227.93085,311.084 223.24899,306.36211   C 218.5271,301.68025 210.92407,301.68025 206.24221,306.36211   z  M 397.79856,148.81932   C 402.48043,144.09744 402.48043,136.49441 397.79856,131.81254   C 393.11669,127.13067 385.51366,127.13067 380.79178,131.81254   C 376.10992,136.49441 376.10992,144.09744 380.79178,148.81932   C 385.51366,153.50119 393.11669,153.50119 397.79856,148.81932   z "
     style="fill:#8abad4;fill-rule:nonzero;fill-opacity:1;stroke:#8abad4;stroke-width:0.040015951px;stroke-linecap:butt;stroke-linejoin:round;stroke-miterlimit:10;stroke-dasharray:none;stroke-opacity:1;" />
  <path
     id="path21"
     d="  M 350.61976,353.70098   L 176.07018,179.15141   L 181.71243,173.50916   L 356.262,348.05873   z  M 361.94427,342.37647   C 366.62614,347.09835 366.62614,354.70138 361.94427,359.38325   C 357.2624,364.06512 349.65937,364.06512 344.93749,359.38325   C 340.25562,354.70138 340.25562,347.09835 344.93749,342.37647   C 349.65937,337.6946 357.2624,337.6946 361.94427,342.37647   z  M 170.38792,184.83367   C 165.70605,180.11179 165.70605,172.50876 170.38792,167.8269   C 175.06978,163.14503 182.67281,163.14503 187.39469,167.8269   C 192.07656,172.50876 192.07656,180.11179 187.39469,184.83367   C 182.67281,189.51554 175.06978,189.51554 170.38792,184.83367   z "
     style="fill:#ffffff;fill-rule:nonzero;fill-opacity:1;stroke:#ffffff;stroke-width:0.040015951px;stroke-linecap:butt;stroke-linejoin:round;stroke-miterlimit:10;stroke-dasharray:none;stroke-opacity:1;" />
  <path
     id="path23"
     d="  M 386.79417,317.68663   L 212.2446,143.13705   L 217.88685,137.4948   L 392.43642,312.04438   z  M 398.11869,306.36211   C 402.80055,311.084 402.80055,318.68703 398.11869,323.36889   C 393.43682,328.05076 385.83379,328.05076 381.11191,323.36889   C 376.43004,318.68703 376.43004,311.084 381.11191,306.36211   C 385.83379,301.68025 393.43682,301.68025 398.11869,306.36211   z  M 206.56234,148.81932   C 201.88047,144.09744 201.88047,136.49441 206.56234,131.81254   C 211.2442,127.13067 218.84723,127.13067 223.56911,131.81254   C 228.25098,136.49441 228.25098,144.09744 223.56911,148.81932   C 218.84723,153.50119 211.2442,153.50119 206.56234,148.81932   z "
     style="fill:#8abad4;fill-rule:nonzero;fill-opacity:1;stroke:#8abad4;stroke-width:0.040015951px;stroke-linecap:butt;stroke-linejoin:round;stroke-miterlimit:10;stroke-dasharray:none;stroke-opacity:1;" />
  <path
     id="path25"
     d="  M 422.96859,281.51221   L 248.41902,106.96263   L 254.06127,101.32039   L 428.61084,275.86996   z  M 434.29311,270.1877   C 438.97497,274.90958 438.97497,282.51261 434.29311,287.19447   C 429.61124,291.87634 422.00821,291.87634 417.28633,287.19447   C 412.60446,282.51261 412.60446,274.90958 417.28633,270.1877   C 422.00821,265.50583 429.61124,265.50583 434.29311,270.1877   z  M 242.73675,112.6449   C 238.05489,107.92302 238.05489,100.31999 242.73675,95.638121   C 247.41862,90.956255 255.02165,90.956255 259.74353,95.638121   C 264.4254,100.31999 264.4254,107.92302 259.74353,112.6449   C 255.02165,117.32677 247.41862,117.32677 242.73675,112.6449   z "
     style="fill:#ffffff;fill-rule:nonzero;fill-opacity:1;stroke:#ffffff;stroke-width:0.040015951px;stroke-linecap:butt;stroke-linejoin:round;stroke-miterlimit:10;stroke-dasharray:none;stroke-opacity:1;" />
  <path
     id="path27"
     d="  M 181.71243,281.51221   L 356.262,106.96263   L 350.61976,101.32039   L 176.07018,275.86996   z  M 170.38792,270.1877   C 165.70605,274.90958 165.70605,282.51261 170.38792,287.19447   C 175.06978,291.87634 182.67281,291.87634 187.39469,287.19447   C 192.07656,282.51261 192.07656,274.90958 187.39469,270.1877   C 182.67281,265.50583 175.06978,265.50583 170.38792,270.1877   z  M 361.94427,112.6449   C 366.62614,107.92302 366.62614,100.31999 361.94427,95.638121   C 357.2624,90.956255 349.65937,90.956255 344.93749,95.638121   C 340.25562,100.31999 340.25562,107.92302 344.93749,112.6449   C 349.65937,117.32677 357.2624,117.32677 361.94427,112.6449   z "
     style="fill:#ffffff;fill-rule:nonzero;fill-opacity:1;stroke:#ffffff;stroke-width:0.040015951px;stroke-linecap:butt;stroke-linejoin:round;stroke-miterlimit:10;stroke-dasharray:none;stroke-opacity:1;" />
  <path
     id="path29"
     d="  M 422.96859,173.50916   L 248.41902,348.05873   L 254.06127,353.70098   L 428.61084,179.15141   z  M 434.29311,184.83367   C 438.97497,180.11179 438.97497,172.50876 434.29311,167.8269   C 429.61124,163.14503 422.00821,163.14503 417.28633,167.8269   C 412.60446,172.50876 412.60446,180.11179 417.28633,184.83367   C 422.00821,189.51554 429.61124,189.51554 434.29311,184.83367   z  M 242.73675,342.37647   C 238.05489,347.09835 238.05489,354.70138 242.73675,359.38325   C 247.41862,364.06512 255.02165,364.06512 259.74353,359.38325   C 264.4254,354.70138 264.4254,347.09835 259.74353,342.37647   C 255.02165,337.6946 247.41862,337.6946 242.73675,342.37647   z "
     style="fill:#ffffff;fill-rule:nonzero;fill-opacity:1;stroke:#ffffff;stroke-width:0.040015951px;stroke-linecap:butt;stroke-linejoin:round;stroke-miterlimit:10;stroke-dasharray:none;stroke-opacity:1;" />
  <path
     id="path31"
     d="  M 351.90027,354.62135   L 177.35069,282.31253   L 180.43192,274.90958   L 354.98149,347.2184   z  M 358.02271,339.81545   C 364.14515,342.37647 367.06631,349.37926 364.54531,355.5017   C 361.98429,361.62414 354.98149,364.54531 348.85905,361.98429   C 342.73661,359.46328 339.81545,352.46049 342.33645,346.29803   C 344.89747,340.17559 351.90027,337.29444 358.02271,339.81545   z  M 174.30948,289.71548   C 168.18704,287.15446 165.26587,280.15167 167.78688,274.02923   C 170.3479,267.90679 177.35069,264.98562 183.47313,267.50663   C 189.59557,270.06765 192.51674,277.07044 189.99573,283.19288   C 187.43471,289.31532 180.43192,292.23648 174.30948,289.71548   z "
     style="fill:#ffffff;fill-rule:nonzero;fill-opacity:1;stroke:#ffffff;stroke-width:0.040015951px;stroke-linecap:butt;stroke-linejoin:round;stroke-miterlimit:10;stroke-dasharray:none;stroke-opacity:1;" />
  <path
     id="path33"
     d="  M 421.9682,174.78967   L 349.65937,349.33925   L 357.06232,352.42047   L 429.37115,177.8709   z  M 436.73408,180.91211   C 439.2951,174.78967 436.37394,167.78688 430.2515,165.22586   C 424.12906,162.70485 417.12627,165.62602 414.56524,171.74846   C 412.04424,177.8709 414.92539,184.87369 421.04783,187.43471   C 427.21028,189.95572 434.21308,187.03455 436.73408,180.91211   z  M 342.25642,346.29803   C 339.73542,352.42047 342.65658,359.42326 348.77902,361.98429   C 354.90146,364.50529 361.90425,361.58413 364.46527,355.46169   C 366.98628,349.33925 364.06512,342.33645 357.94267,339.77543   C 351.82023,337.25443 344.81744,340.17559 342.25642,346.29803   z "
     style="fill:#ffffff;fill-rule:nonzero;fill-opacity:1;stroke:#ffffff;stroke-width:0.040015951px;stroke-linecap:butt;stroke-linejoin:round;stroke-miterlimit:10;stroke-dasharray:none;stroke-opacity:1;" />
  <path
     id="path35"
     d="  M 252.78076,100.44004   L 427.33033,172.74886   L 424.2491,180.15181   L 249.69953,107.84299   z  M 246.65832,115.24594   C 240.53588,112.68492 237.61471,105.68212 240.13572,99.559684   C 242.69674,93.437244 249.69953,90.516079 255.82197,93.037084   C 261.94441,95.598105 264.86557,102.6009 262.34457,108.72334   C 259.78355,114.84578 252.78076,117.76694 246.65832,115.24594   z  M 430.37154,165.34591   C 436.49398,167.90693 439.41515,174.90972 436.89414,181.03216   C 434.33312,187.1546 427.33033,190.07576 421.20789,187.51474   C 415.08545,184.99374 412.16429,177.99095 414.68529,171.82849   C 417.24631,165.70605 424.2491,162.8249 430.37154,165.34591   z "
     style="fill:#ffffff;fill-rule:nonzero;fill-opacity:1;stroke:#ffffff;stroke-width:0.040015951px;stroke-linecap:butt;stroke-linejoin:round;stroke-miterlimit:10;stroke-dasharray:none;stroke-opacity:1;" />
  <path
     id="path37"
     d="  M 182.57277,280.21169   L 254.88159,105.66212   L 247.47864,102.6009   L 175.18983,277.15047   z  M 167.78688,274.08925   C 165.24587,280.21169 168.16703,287.23449 174.28947,289.7755   C 180.41191,292.31652 187.43471,289.39535 189.97572,283.27291   C 192.51674,277.15047 189.59557,270.12767 183.47313,267.58666   C 177.35069,265.06565 170.32789,267.96681 167.78688,274.08925   z  M 262.26454,108.72334   C 264.80555,102.6009 261.90439,95.578097 255.78195,93.037084   C 249.65951,90.496071 242.63671,93.417236 240.0957,99.539676   C 237.55469,105.66212 240.45584,112.68492 246.59829,115.22593   C 252.72073,117.76694 259.74353,114.84578 262.26454,108.72334   z "
     style="fill:#ffffff;fill-rule:nonzero;fill-opacity:1;stroke:#ffffff;stroke-width:0.020007975px;stroke-linecap:butt;stroke-linejoin:round;stroke-miterlimit:10;stroke-dasharray:none;stroke-opacity:1;" />
</svg>
