<?xml version="1.0" encoding="UTF-8" standalone="no"?>
<svg width="445px" height="509px" viewBox="0 0 445 509" version="1.1" xmlns="http://www.w3.org/2000/svg" xmlns:xlink="http://www.w3.org/1999/xlink" xmlns:sketch="http://www.bohemiancoding.com/sketch/ns">
    <title>pdxnode</title>
    <description>Created with Sketch (http://www.bohemiancoding.com/sketch)</description>
    <defs>
        <polygon id="path-1" points="230.325958 0 429.794088 115.211219 429.794088 345.633656 230.325958 460.844875 30.8578272 345.633656 30.8578272 115.211219 "></polygon>
        <mask id="mask-2" sketch:name="Polygon 13" fill="white">
            <use xlink:href="#path-1"></use>
        </mask>
        <path id="path-3" d="M83.2019067,291.017915 C88.2754828,289.562521 96.2060883,291.396066 101.01871,289.325262 C103.205639,288.384256 109.428117,289.356889 111.129887,287.892392 C115.103541,284.472775 143.239595,280.114768 150.403266,276.418611 C151.427857,275.889965 180.361128,274.779149 185.961404,273.172668 C192.287831,271.357885 222.857679,252.363283 224.541418,248.74488 C224.733138,248.332869 234.887346,239.754787 236.831745,242.161325 C243.450945,250.353759 257.519699,247.946927 263.987748,259.048281 C264.618032,260.130061 270.394163,258.474923 272.756216,260.602925 C274.327341,262.01837 291.128027,267.622261 291.920443,268.031115 C300.448159,272.431063 307.045464,271.410992 316.617438,273.470337 C320.034692,274.205536 324.066801,277.424483 326.233354,279.376357 C331.491396,284.113389 347.738289,282.173378 354.544966,283.34753 C360.902975,284.444287 365.838751,288.424137 373.503227,288.424137 C390.683813,288.424137 399.007333,292.39531 415.333093,292.39531 C420.547506,292.39531 426.577503,296.193863 429.480252,292.621267 C432.744773,288.603416 437.816271,-52.4065018 437.816271,-58.5204085 C437.816271,-71.272906 -17.0564585,-58.5204085 -19.7245767,-58.5204085 C-26.4032716,-58.5204085 11.8284075,254.153087 11.5259071,264.82441 C11.4867322,266.206385 7.66265497,296.547404 11.525907,297.378556 C16.4680718,298.441829 53.0047825,296.217913 60.5079658,295.231282 C67.9333857,295.231282 76.9483151,292.811804 83.2019067,291.017915 Z"></path>
    </defs>
    <g id="Page-1" stroke="none" stroke-width="1" fill="none" fill-rule="evenodd" sketch:type="MSPage">
        <g id="Group" sketch:type="MSLayerGroup" transform="translate(-7.000000, 24.000000)">
            <g id="Path-+-Path" transform="translate(0.155125, -0.234375)">
                <polygon id="Polygon-13-copy" fill="#FFFFFF" sketch:type="MSShapeGroup" points="230.422437 4 428.242071 117.259459 428.242071 343.778376 230.422437 457.037834 32.6028038 343.778376 32.6028038 117.259459 "></polygon>
                <use id="Polygon-13" sketch:type="MSShapeGroup" xlink:href="#path-1"></use>
                <g id="Path">
                    <use fill="#F6A98D" fill-rule="evenodd" sketch:type="MSShapeGroup" mask="url(#mask-2)" xlink:href="#path-3"></use>
                    <use fill="none" xlink:href="#path-3"></use>
                </g>
                <path d="M38.0367782,307.912263 L43.8912592,307.912263 C43.8912592,307.912263 42.3570478,307.708828 41.6475129,307.912263 C36.5144162,309.384003 37.9200931,311.51294 41.1227151,314.396793 C43.6695314,316.690116 60.881877,314.697211 64.383514,313.191249 C65.8197843,312.573547 70.1240828,313.191249 71.6426934,313.191249 L75.8159359,313.191249 C74.0005636,313.191249 61.9393436,317.289878 64.6631967,318.918935 C67.4712623,320.598358 91.8837424,311.136792 94.0613018,309.26377 C95.067989,308.397871 104.812138,304.152661 104.371851,303.773949 C104.254761,303.673235 101.069325,312.39407 103.284545,314.299485 C107.286363,317.741637 111.524829,315.157364 113.390831,319.75687 C113.68332,320.477827 115.178752,319.456027 115.917402,319.032462 C119.106531,317.203716 122.973165,316.356177 126.303371,314.929287 C130.260207,313.233906 131.324748,309.43475 134.087348,307.782519 C136.229848,306.501152 142.593085,309.296396 144.435607,307.782519 C144.663333,307.595411 150.010405,293.220867 150.010405,303.195504 C150.010405,307.304729 146.346723,307.020591 147.483834,312.626319 C147.515459,312.782224 154.581101,312.626319 155.063548,312.626319 C168.51878,312.626319 173.366236,305.688712 182.010502,302.727883 C189.5187,300.156179 198.753276,301.103196 207.401917,298.140868 C209.494434,297.424141 213.65414,297.752844 214.661097,296.448782 C215.042103,295.955359 219.022125,290.569655 220.55643,291.13736 C220.688766,291.186325 221.383766,297.852384 221.961129,298.349 C225.923871,301.757542 238.524367,297.334689 242.544516,300.941191 C243.890842,302.148988 241.177329,306.759408 242.544516,307.941996 C244.954055,310.026198 247.773481,311.083455 250.177653,313.058802 C256.563915,318.305965 272.648534,305.478561 276.728651,308.988063 C285.202701,316.276992 298.968548,309.91214 306.463004,303.465806 C308.369418,301.826009 326.262612,308.28028 340.725702,295.256753 C340.930932,295.07195 342.848783,295.256753 343.214564,295.256753 C351.804552,295.256753 373.502006,291.645534 376.015998,293.807937 C387.309235,303.521782 423.721023,297.820798 431.050634,304.125341 C433.216455,305.988266 447.217596,501.765355 446.621749,502.277871 C434.970155,512.299955 27.3473902,518.348482 15.6024576,493.944479 C11.7921741,486.027351 -2.70823483,305.227495 10.8376388,305.227495 C20.3293585,305.227495 29.6218322,307.912263 38.0367782,307.912263 Z" id="Path" fill="#A0907B" sketch:type="MSShapeGroup" mask="url(#mask-2)"></path>
                <path d="M232.277752,366.515715 C233.670655,365.495298 238.941479,363.270734 241.209392,362.857336 C244.184357,362.315056 260.492312,361.897433 262.621021,359.66894 C264.929382,357.252375 265.53788,351.104249 268.997814,348.512526 C274.720382,344.225939 283.934749,356.604786 288.922319,353.292147 C297.255612,347.757347 308.698695,348.388632 311.928146,338.718319 C312.647232,336.565078 316.699708,337.932253 318.304939,336.327022 C319.79309,334.83887 322.309486,337.92122 324.41405,337.92122 C326.712079,337.92122 334.286009,334.340129 336.031472,333.174316 C341.69194,329.39363 347.324527,330.390331 353.035262,333.245698 C353.438414,333.447274 355.931204,333.514498 356.187968,333.245698 C358.169661,331.171113 357.96484,327.215647 359.56969,325.610797 C362.034936,323.145552 373.57841,322.943661 373.57841,329.066876 L373.57841,328.534485 C373.57841,326.942465 380.250594,320.016263 381.549401,319.236978 C387.41778,315.715951 394.882095,323.706338 399.240243,320.795486 C401.154359,319.517028 397.554766,310.871165 399.240243,309.106681 C403.510526,304.63623 411.55402,319.369741 417.924485,314.915392 C420.688452,312.982775 431.321904,308.760089 435.121601,312.559786 C435.946803,313.384988 436.7158,315.676801 436.7158,315.676801 C436.7158,315.676801 438.405664,314.784035 439.071406,314.118293 C443.310185,309.879514 457.685703,315.135285 463.442414,318.297115 C466.467559,320.871643 467.927868,320.000474 470.387289,321.643147 C470.549498,321.751488 470.387289,323.843614 470.387289,324.034444 C470.387289,334.104845 483.83605,345.333581 490.50512,352.158957 C491.625247,353.305337 491.170747,362.001147 491.302219,363.315371 C492.121127,371.501393 496.437311,379.156634 497.679012,387.22537 C500.499802,405.555247 497.936745,436.832648 486.025898,451.710095 C476.109743,464.096039 410.899184,487.505238 394.106687,492.356202 C385.124045,494.95108 374.519058,485.245555 358.311582,485.982384 C344.221683,486.622942 329.042059,493.689425 315.309869,492.356202 C309.672563,491.808891 305.672665,485.761002 299.37086,485.060366 C283.058373,483.24674 263.7046,484.808193 247.56834,485.060366 C232.35666,485.29809 169.740617,494.539086 150.390654,480.013063 C146.984897,477.45636 144.537329,473.107233 143.014658,468.13343 C135.006236,466.602094 126.814544,464.043074 119.006226,463.69578 C104.857807,463.066494 95.6001145,471.355465 87.7586599,469.139319 C73.0995419,464.996369 16.1735649,445.003821 7.51719363,434.425648 C-2.88045639,421.719614 -5.11789389,395.007255 -2.65546661,379.352686 C-1.57151621,372.461609 2.19632505,365.923676 2.91119586,358.932432 C3.02596472,357.810023 2.62920632,350.383397 3.60702867,349.404334 C9.42883619,343.575145 21.1690179,333.985281 21.1690179,325.384689 C21.1690179,325.221711 21.0274167,323.434938 21.1690179,323.34241 C23.3159852,321.93949 24.5907716,322.683509 27.2315911,320.484743 C32.256949,317.784392 44.8061501,313.295719 48.5064196,316.915834 C49.0875834,317.484409 50.5627613,318.246872 50.5627613,318.246872 C50.5627613,318.246872 51.2340616,316.289557 51.9544269,315.584796 C55.2713972,312.339677 64.5539369,315.946048 66.9667601,317.596594 C72.5278987,321.400815 79.5495186,308.817709 83.2772889,312.635683 C84.7486369,314.142635 81.6063496,321.526605 83.2772889,322.618467 C87.0817621,325.104471 93.5977839,318.280308 98.720623,321.28743 C99.8544254,321.952975 105.678951,327.868274 105.678951,329.227934 C105.678951,324.453109 115.755901,324.625533 117.907953,326.730968 C119.308917,328.101585 119.130118,331.479737 120.86005,333.251529 C121.084193,333.481097 123.26029,333.423685 123.612224,333.251529 C128.597447,330.812912 133.51445,329.961684 138.455792,333.190566 C139.979505,334.186225 146.591216,337.244643 148.597296,337.244643 C150.434488,337.244643 152.631192,334.612173 153.930283,335.883123 C155.331579,337.254065 158.869214,336.086434 159.496945,337.925403 C162.316116,346.1843 172.305428,345.645154 179.58003,350.372131 C183.933961,353.201279 191.977702,342.629167 196.973254,346.290112 C199.993626,348.503565 200.524819,353.75435 202.539917,355.818209 C204.398187,357.721446 218.634321,358.078117 221.231336,358.541249 C223.465323,358.939641 229.037094,361.307567 229.316498,361.945048 C229.923352,363.329631 228.471185,365.526173 230.708163,366.25568 C231.197809,366.41536 231.726535,366.489111 232.277752,366.515715 Z" id="Path" fill="#44395B" sketch:type="MSShapeGroup" mask="url(#mask-2)"></path>
                <path d="M231.311087,381.868745 C231.311087,378.774452 232.562675,375.759635 229.184497,375.759635 C227.453955,375.759635 220.419381,375.38251 220.419381,377.88325 L220.419381,382.930553 C220.419381,373.556208 217.154195,380.197757 216.734285,379.777847 C215.036019,378.079581 215.66325,373.000543 214.342988,371.012731 C211.13287,366.17952 211.062537,379.943401 203.451282,372.339247 C203.137495,372.025752 199.392666,369.266377 198.403979,370.748023 C197.545829,372.034046 199.262647,375.03914 198.403979,376.324742 C198.059824,376.840014 196.983221,376.762891 196.545073,376.324742 C194.7778,374.557469 185.40056,361.965057 182.232979,365.132638 C180.972073,366.393544 181.398118,369.153051 180.638781,369.915232 C179.335396,371.223499 177.541103,364.490529 172.174064,372.571238 C172.136045,372.628481 167.132244,367.657544 166.329662,367.256253 C162.94472,365.563782 161.636894,371.817565 158.891061,370.444649 C156.505996,369.252116 156.825545,365.290958 154.376149,364.07083 C150.153295,361.967282 138.880534,362.297947 137.179033,363.999448 C137.127163,364.051318 135.120889,364.045079 135.052444,363.999448 C132.347197,362.19595 132.610993,360.393677 129.475724,359.216853 C129.060825,359.061121 128.459598,358.90349 128.146234,359.216853 C126.508947,360.85414 127.20082,365.738987 125.754937,367.184871 C123.594823,369.344984 118.843626,358.418736 116.189747,361.608151 C115.176434,362.825944 115.763145,365.349545 114.598523,366.123063 C112.885878,367.260566 110.283426,362.89576 109.018829,362.137567 C107.928787,361.48403 107.036158,364.630374 105.830433,364.228466 C104.735013,363.863326 99.1460844,361.345822 97.8594414,362.634267 C96.7399439,363.755333 96.6743573,367.760853 95.7358266,368.743378 C95.0471412,369.464345 90.506671,366.605315 87.571509,369.540477 C87.1333605,369.978625 86.0554249,370.056637 85.7126024,369.540477 C81.3810887,363.018872 70.3341067,372.704539 67.2216871,371.667066 C67.1908153,371.656775 64.5971986,369.974039 64.2979989,370.869967 C63.9613482,371.878038 64.2979989,372.995565 64.2979989,374.058363 C64.2979989,380.567684 59.2612185,371.505897 56.0652735,374.058363 C53.7310705,375.922593 56.2679807,382.391345 54.7357836,384.68536 C53.7226406,386.202245 49.9196442,376.041286 47.0324748,377.776177 C44.3334374,379.39802 46.8624649,385.209062 45.4382765,387.341366 C44.1609219,389.25383 37.5119772,382.461849 35.6440697,384.950069 C35.1935924,385.550145 36.2393434,388.537975 35.6440697,388.935564 C34.4865927,389.708655 31.0488945,387.995129 30.0643758,388.935564 C24.8009778,393.963288 35.1411814,399.259188 26.1145711,399.259188 C22.3932973,399.259188 19.6202795,397.896134 16.3203643,396.903581 C14.855951,396.463113 16.3693296,400.147618 15.5232651,401.421468 C12.6160299,405.798653 7.47159382,396.513498 9.64317192,402.979975 C9.66920591,403.057499 0.539964192,402.31546 -0.415743232,402.979975 C-2.27761365,404.274557 -6.70023904,429.387504 -8.58006082,432.201986 C-8.85030933,432.606604 -9.63630433,448.836032 -9.37715995,448.938094 C-3.81408461,451.129066 4.69216465,449.776272 7.48089181,455.06505 C11.4440177,462.581056 -11.646048,471.37542 -6.06681916,480.833956 C-3.01380024,486.009777 29.0094947,507.626282 31.0548012,508.393361 C45.8733903,513.95098 62.5673599,515.254988 78.0747272,516.361378 C128.889093,519.986783 209.241055,497.265307 249.162538,463.49705 C273.491171,442.918267 271.555037,427.195816 249.694929,409.70773 C246.825553,407.412229 242.39326,406.263779 240.66213,402.80152 C238.805777,399.088814 233.268204,383.139974 231.311087,381.868745 L231.311087,381.868745 Z" id="Path" fill="#6C6B8A" sketch:type="MSShapeGroup" mask="url(#mask-2)"></path>
                <path d="M490.189849,374.254664 C490.189849,371.160371 491.441437,368.145553 488.06326,368.145553 C486.332718,368.145553 479.298144,367.768429 479.298144,370.269168 L479.298144,375.316471 C479.298144,365.942126 476.032958,372.583676 475.613047,372.163766 C473.914782,370.4655 474.542013,365.386461 473.22175,363.39865 C470.011632,358.565438 469.941299,372.32932 462.330045,364.725165 C462.016257,364.411671 458.271429,361.652296 457.282742,363.133941 C456.424592,364.419964 458.141409,367.425058 457.282742,368.710661 C456.938586,369.225933 455.861984,369.14881 455.423835,368.710661 C453.656562,366.943388 444.279322,354.350976 441.111742,357.518556 C439.850835,358.779463 440.276881,361.53897 439.517543,362.301151 C438.214159,363.609418 436.419865,356.876447 431.052827,364.957157 C431.014807,365.0144 426.011006,360.043462 425.208424,359.642171 C421.823483,357.9497 420.515657,364.203484 417.769824,362.830568 C415.384759,361.638035 415.704308,357.676877 413.254912,356.456749 C409.032058,354.3532 397.759296,354.683866 396.057795,356.385367 C396.005926,356.437237 393.999652,356.430997 393.931206,356.385367 C391.225959,354.581869 391.489755,352.779596 388.354487,351.602772 C387.939588,351.44704 387.33836,351.289408 387.024997,351.602772 C385.38771,353.240059 386.079583,358.124906 384.633699,359.570789 C382.473585,361.730903 377.722388,350.804655 375.06851,353.99407 C374.055197,355.211863 374.641908,357.735464 373.477286,358.508982 C371.764641,359.646485 369.162188,355.281678 367.897592,354.523486 C366.80755,353.869949 365.91492,357.016293 364.709195,356.614384 C363.613776,356.249244 358.024847,353.731741 356.738204,355.020186 C355.618706,356.141251 355.55312,360.146772 354.614589,361.129297 C353.925904,361.850264 349.385434,358.991234 346.450271,361.926396 C346.012123,362.364544 344.934187,362.442555 344.591365,361.926396 C340.259851,355.404791 329.212869,365.090458 326.10045,364.052985 C326.069578,364.042694 323.475961,362.359958 323.176761,363.255886 C322.840111,364.263957 323.176761,365.381483 323.176761,366.444282 C323.176761,372.953603 318.139981,363.891816 314.944036,366.444282 C312.609833,368.308511 315.146743,374.777263 313.614546,377.071279 C312.601403,378.588164 308.798407,368.427204 305.911237,370.162095 C303.2122,371.783938 305.741227,377.59498 304.317039,379.727285 C303.039684,381.639749 296.39074,374.847767 294.522832,377.335987 C294.072355,377.936064 295.118106,380.923894 294.522832,381.321483 C293.365355,382.094574 289.927657,380.381047 288.943138,381.321483 C283.67974,386.349207 294.019944,391.645107 284.993334,391.645107 C281.27206,391.645107 278.499042,390.282053 275.199127,389.2895 C273.734713,388.849032 275.248092,392.533537 274.402028,393.807387 C271.494792,398.184572 266.350356,388.899417 268.521934,395.365894 C268.547968,395.443417 259.418727,394.701379 258.463019,395.365894 C256.601149,396.660476 252.178523,421.773423 250.298702,424.587905 C250.028453,424.992523 249.242458,441.221951 249.501603,441.324012 C255.064678,443.514985 263.570927,442.162191 266.359654,447.450968 C270.32278,454.966975 247.232715,463.761338 252.811943,473.219875 C255.864962,478.395696 287.888257,500.0122 289.933564,500.77928 C304.752153,506.336899 321.446122,507.640907 336.95349,508.747297 C387.767856,512.372702 468.119818,489.651226 508.0413,455.882969 C532.369933,435.304185 530.4338,419.581735 508.573691,402.093649 C505.704316,399.798148 501.272022,398.649698 499.540893,395.187439 C497.68454,391.474733 492.146967,375.525893 490.189849,374.254664 L490.189849,374.254664 Z" id="Path" fill="#6C6B8A" sketch:type="MSShapeGroup" mask="url(#mask-2)"></path>
                <rect id="Rectangle-2" fill="#FFF9CF" sketch:type="MSShapeGroup" mask="url(#mask-2)" x="-8.1368975" y="118.211219" width="460.651916" height="81.0058297"></rect>
                <rect id="Rectangle-2" fill-opacity="0.269215303" fill="#FFFEF5" sketch:type="MSShapeGroup" mask="url(#mask-2)" x="-8.1368975" y="106.325257" width="460.651916" height="150.758809"></rect>
            </g>
            <polygon id="Polygon-13" stroke-opacity="0.44" stroke="#44395B" stroke-width="24" sketch:type="MSShapeGroup" points="229.577563 3.765625 427.397196 117.025084 427.397196 343.544001 229.577563 456.803459 31.7579288 343.544001 31.7579288 117.025084 "></polygon>
            <polygon id="Polygon-13" stroke="#44395B" stroke-width="24" sketch:type="MSShapeGroup" points="229.577563 3.765625 427.397196 117.025084 427.397196 343.544001 229.577563 456.803459 31.7579288 343.544001 31.7579288 117.025084 "></polygon>
            <path d="M110.077563,169.375 L110.077563,153.375 L118.077563,153.375 L118.077563,169.375 L110.077563,169.375 Z M86.0775625,185.375 L86.0775625,145.375 L110.077563,145.375 L110.077563,153.375 L94.0775625,153.375 L94.0775625,169.375 L110.077563,169.375 L110.077563,177.375 L94.0775625,177.375 L94.0775625,185.375 L86.0775625,185.375 Z M127.077563,169.375 L127.077563,153.375 L135.077563,153.375 L135.077563,169.375 L127.077563,169.375 Z M135.077563,177.375 L135.077563,169.375 L151.077563,169.375 L151.077563,153.375 L135.077563,153.375 L135.077563,145.375 L151.077563,145.375 L151.077563,137.375 L159.077563,137.375 L159.077563,177.375 L135.077563,177.375 Z M168.077563,177.375 L168.077563,169.375 L176.077563,169.375 L176.077563,177.375 L168.077563,177.375 Z M192.077563,177.375 L192.077563,169.375 L200.077563,169.375 L200.077563,177.375 L192.077563,177.375 Z M176.077563,169.375 L176.077563,153.375 L192.077563,153.375 L192.077563,169.375 L176.077563,169.375 Z M168.077563,153.375 L168.077563,145.375 L176.077563,145.375 L176.077563,153.375 L168.077563,153.375 Z M192.077563,153.375 L192.077563,145.375 L200.077563,145.375 L200.077563,153.375 L192.077563,153.375 Z M233.077563,177.375 L233.077563,153.375 L241.077563,153.375 L241.077563,177.375 L233.077563,177.375 Z M209.077563,177.375 L209.077563,145.375 L233.077563,145.375 L233.077563,153.375 L217.077563,153.375 L217.077563,177.375 L209.077563,177.375 Z M258.077563,177.375 L258.077563,169.375 L274.077563,169.375 L274.077563,177.375 L258.077563,177.375 Z M250.077563,169.375 L250.077563,153.375 L258.077563,153.375 L258.077563,169.375 L250.077563,169.375 Z M274.077563,169.375 L274.077563,153.375 L282.077563,153.375 L282.077563,169.375 L274.077563,169.375 Z M258.077563,153.375 L258.077563,145.375 L274.077563,145.375 L274.077563,153.375 L258.077563,153.375 Z M291.077563,169.375 L291.077563,153.375 L299.077563,153.375 L299.077563,169.375 L291.077563,169.375 Z M299.077563,177.375 L299.077563,169.375 L315.077563,169.375 L315.077563,153.375 L299.077563,153.375 L299.077563,145.375 L315.077563,145.375 L315.077563,137.375 L323.077563,137.375 L323.077563,177.375 L299.077563,177.375 Z M340.077563,177.375 L340.077563,169.375 L348.077563,169.375 L348.077563,161.375 L356.077563,161.375 L356.077563,169.375 L364.077563,169.375 L364.077563,177.375 L340.077563,177.375 Z M332.077563,169.375 L332.077563,153.375 L340.077563,153.375 L340.077563,169.375 L332.077563,169.375 Z M356.077563,161.375 L356.077563,153.375 L364.077563,153.375 L364.077563,161.375 L356.077563,161.375 Z M340.077563,153.375 L340.077563,145.375 L356.077563,145.375 L356.077563,153.375 L340.077563,153.375 Z" id="pdxnode" fill="#6C6B8A" sketch:type="MSShapeGroup"></path>
        </g>
    </g>
</svg>