<?xml version="1.0" encoding="UTF-8" standalone="no"?>
<svg
   xmlns:ns2="http://ns.adobe.com/AdobeIllustrator/10.0/"
   xmlns:dc="http://purl.org/dc/elements/1.1/"
   xmlns:cc="http://creativecommons.org/ns#"
   xmlns:rdf="http://www.w3.org/1999/02/22-rdf-syntax-ns#"
   xmlns:svg="http://www.w3.org/2000/svg"
   xmlns="http://www.w3.org/2000/svg"
   version="1.1"
   id="svg2"
   viewBox="0 0 155.88457 180"
   height="2in"
   width="1.7320508in">
  <defs
     id="defs4" />
  <metadata
     id="metadata7">
    <rdf:RDF>
      <cc:Work
         rdf:about="">
        <dc:format>image/svg+xml</dc:format>
        <dc:type
           rdf:resource="http://purl.org/dc/dcmitype/StillImage" />
        <dc:title />
        <cc:license
           rdf:resource="http://creativecommons.org/licenses/by-sa/3.0/" />
        <dc:description>Debian logo from https://www.debian.org/logos/

Community description by Enrico Zini: http://www.enricozini.org/blog/2015/debian/standup-comedy-notes/</dc:description>
      </cc:Work>
      <cc:License
         rdf:about="http://creativecommons.org/licenses/by-sa/3.0/">
        <cc:permits
           rdf:resource="http://creativecommons.org/ns#Reproduction" />
        <cc:permits
           rdf:resource="http://creativecommons.org/ns#Distribution" />
        <cc:requires
           rdf:resource="http://creativecommons.org/ns#Notice" />
        <cc:requires
           rdf:resource="http://creativecommons.org/ns#Attribution" />
        <cc:permits
           rdf:resource="http://creativecommons.org/ns#DerivativeWorks" />
        <cc:requires
           rdf:resource="http://creativecommons.org/ns#ShareAlike" />
      </cc:License>
    </rdf:RDF>
  </metadata>
  <g
     transform="translate(3.9159987e-6,0)"
     style="display:inline;opacity:0.98999999"
     id="layer3">
    <path
       d="M 77.942286,0 155.88457,45.000002 155.88457,135 77.942281,180 -3.9159987e-6,135 -1.504458e-6,44.999998 Z"
       id="path4232"
       style="fill:#000000;fill-opacity:1;stroke:none;stroke-width:1;stroke-miterlimit:4;stroke-dasharray:none;stroke-dashoffset:0;stroke-opacity:1" />
    <path
       d="m 77.942286,18 62.353824,36.000002 0,71.999998 -62.353828,36 -62.353828,-36 2e-6,-72.000002 z"
       id="path4234"
       style="fill:#000000;fill-opacity:1;stroke:none;stroke-width:1;stroke-miterlimit:4;stroke-dasharray:none;stroke-dashoffset:0;stroke-opacity:1" />
    <g
       ns2:rgbTrio="#4F008000FFFF"
       ns2:dimmedPercent="50"
       ns2:layer="yes"
       id="Layer_1"
       transform="matrix(0.35194331,0,0,0.35194331,62.639632,26.371018)"
       style="display:inline;opacity:0.98999999">
      <g
         id="g4680">
        <path
           id="path4682-3"
           d="m 51.986,57.297 c -1.797,0.025 0.34,0.926 2.686,1.287 0.648,-0.506 1.236,-1.018 1.76,-1.516 -1.461,0.358 -2.948,0.366 -4.446,0.229"
           ns2:knockout="Off"
           style="fill:#a80030" />
        <path
           id="path4684-6"
           d="m 61.631,54.893 c 1.07,-1.477 1.85,-3.094 2.125,-4.766 -0.24,1.192 -0.887,2.221 -1.496,3.307 -3.359,2.115 -0.316,-1.256 -0.002,-2.537 -3.612,4.546 -0.496,2.726 -0.627,3.996"
           ns2:knockout="Off"
           style="fill:#a80030" />
        <path
           id="path4686-7"
           d="m 65.191,45.629 c 0.217,-3.236 -0.637,-2.213 -0.924,-0.978 0.335,0.174 0.6,2.281 0.924,0.978"
           ns2:knockout="Off"
           style="fill:#a80030" />
        <path
           id="path4688-5"
           d="m 45.172,1.399 c 0.959,0.172 2.072,0.304 1.916,0.533 1.049,-0.23 1.287,-0.442 -1.916,-0.533"
           ns2:knockout="Off"
           style="fill:#a80030" />
        <path
           id="path4690-3"
           d="M 47.088,1.932 46.41,2.072 47.041,2.016 47.088,1.932"
           ns2:knockout="Off"
           style="fill:#a80030" />
        <path
           id="path4692-5"
           d="m 76.992,46.856 c 0.107,2.906 -0.85,4.316 -1.713,6.812 l -1.553,0.776 c -1.271,2.468 0.123,1.567 -0.787,3.53 -1.984,1.764 -6.021,5.52 -7.313,5.863 -0.943,-0.021 0.639,-1.113 0.846,-1.541 -2.656,1.824 -2.131,2.738 -6.193,3.846 L 60.16,65.878 C 50.142,70.591 36.226,61.251 36.409,48.507 c -0.107,0.809 -0.304,0.607 -0.526,0.934 -0.517,-6.557 3.028,-13.143 9.007,-15.832 5.848,-2.895 12.704,-1.707 16.893,2.197 -2.301,-3.014 -6.881,-6.209 -12.309,-5.91 -5.317,0.084 -10.291,3.463 -11.951,7.131 -2.724,1.715 -3.04,6.611 -4.227,7.507 -1.597,11.737 3.004,16.808 10.787,22.773 1.225,0.826 0.345,0.951 0.511,1.58 -2.586,-1.211 -4.954,-3.039 -6.901,-5.277 1.033,1.512 2.148,2.982 3.589,4.137 -2.438,-0.826 -5.695,-5.908 -6.646,-6.115 4.203,7.525 17.052,13.197 23.78,10.383 -3.113,0.115 -7.068,0.064 -10.566,-1.229 -1.469,-0.756 -3.467,-2.322 -3.11,-2.615 9.182,3.43 18.667,2.598 26.612,-3.771 2.021,-1.574 4.229,-4.252 4.867,-4.289 -0.961,1.445 0.164,0.695 -0.574,1.971 2.014,-3.248 -0.875,-1.322 2.082,-5.609 l 1.092,1.504 c -0.406,-2.696 3.348,-5.97 2.967,-10.234 0.861,-1.304 0.961,1.403 0.047,4.403 1.268,-3.328 0.334,-3.863 0.66,-6.609 0.352,0.923 0.814,1.904 1.051,2.878 -0.826,-3.216 0.848,-5.416 1.262,-7.285 -0.408,-0.181 -1.275,1.422 -1.473,-2.377 0.029,-1.65 0.459,-0.865 0.625,-1.271 -0.324,-0.186 -1.174,-1.451 -1.691,-3.877 0.375,-0.57 1.002,1.478 1.512,1.562 -0.328,-1.929 -0.893,-3.4 -0.916,-4.88 -1.49,-3.114 -0.527,0.415 -1.736,-1.337 -1.586,-4.947 1.316,-1.148 1.512,-3.396 2.404,3.483 3.775,8.881 4.404,11.117 -0.48,-2.726 -1.256,-5.367 -2.203,-7.922 0.73,0.307 -1.176,-5.609 0.949,-1.691 C 83.519,18.706 76.074,10.902 69.225,7.24 70.063,8.007 71.121,8.97 70.741,9.121 67.335,7.093 67.934,6.935 67.446,6.078 64.671,4.949 64.489,6.169 62.651,6.08 57.421,3.306 56.413,3.601 51.6,1.863 l 0.219,1.023 c -3.465,-1.154 -4.037,0.438 -7.782,0.004 -0.228,-0.178 1.2,-0.644 2.375,-0.815 -3.35,0.442 -3.193,-0.66 -6.471,0.122 0.808,-0.567 1.662,-0.942 2.524,-1.424 -2.732,0.166 -6.522,1.59 -5.352,0.295 -4.456,1.988 -12.37,4.779 -16.811,8.943 l -0.14,-0.933 c -2.035,2.443 -8.874,7.296 -9.419,10.46 l -0.544,0.127 c -1.059,1.793 -1.744,3.825 -2.584,5.67 -1.385,2.36 -2.03,0.908 -1.833,1.278 -2.724,5.523 -4.077,10.164 -5.246,13.97 0.833,1.245 0.02,7.495 0.335,12.497 -1.368,24.704 17.338,48.69 37.785,54.228 2.997,1.072 7.454,1.031 11.245,1.141 -4.473,-1.279 -5.051,-0.678 -9.408,-2.197 -3.143,-1.48 -3.832,-3.17 -6.058,-5.102 l 0.881,1.557 c -4.366,-1.545 -2.539,-1.912 -6.091,-3.037 l 0.941,-1.229 C 28.751,98.334 26.418,96.056 25.78,94.795 l -1.548,0.061 c -1.86,-2.295 -2.851,-3.949 -2.779,-5.23 l -0.5,0.891 c -0.567,-0.973 -6.843,-8.607 -3.587,-6.83 -0.605,-0.553 -1.409,-0.9 -2.281,-2.484 l 0.663,-0.758 c -1.567,-2.016 -2.884,-4.6 -2.784,-5.461 0.836,1.129 1.416,1.34 1.99,1.533 -3.957,-9.818 -4.179,-0.541 -7.176,-9.994 L 8.412,66.472 C 7.926,65.74 7.631,64.945 7.24,64.165 l 0.276,-2.75 C 4.667,58.121 6.719,47.409 7.13,41.534 7.415,39.145 9.508,36.602 11.1,32.614 l -0.97,-0.167 c 1.854,-3.234 10.586,-12.988 14.63,-12.486 1.959,-2.461 -0.389,-0.009 -0.772,-0.629 4.303,-4.453 5.656,-3.146 8.56,-3.947 3.132,-1.859 -2.688,0.725 -1.203,-0.709 5.414,-1.383 3.837,-3.144 10.9,-3.846 0.745,0.424 -1.729,0.655 -2.35,1.205 4.511,-2.207 14.275,-1.705 20.617,1.225 7.359,3.439 15.627,13.605 15.953,23.17 l 0.371,0.1 c -0.188,3.802 0.582,8.199 -0.752,12.238 l 0.908,-1.912"
           ns2:knockout="Off"
           style="fill:#a80030" />
        <path
           id="path4694-6"
           d="m 32.372,59.764 -0.252,1.26 c 1.181,1.604 2.118,3.342 3.626,4.596 -1.085,-2.118 -1.891,-2.993 -3.374,-5.856"
           ns2:knockout="Off"
           style="fill:#a80030" />
        <path
           id="path4696-2"
           d="m 35.164,59.654 c -0.625,-0.691 -0.995,-1.523 -1.409,-2.352 0.396,1.457 1.207,2.709 1.962,3.982 l -0.553,-1.63"
           ns2:knockout="Off"
           style="fill:#a80030" />
        <path
           id="path4698-9"
           d="m 84.568,48.916 -0.264,0.662 c -0.484,3.438 -1.529,6.84 -3.131,9.994 1.77,-3.328 2.915,-6.968 3.395,-10.656"
           ns2:knockout="Off"
           style="fill:#a80030" />
        <path
           id="path4700-1"
           d="M 45.527,0.537 C 46.742,0.092 48.514,0.293 49.803,0 48.123,0.141 46.451,0.225 44.8,0.438 l 0.727,0.099"
           ns2:knockout="Off"
           style="fill:#a80030" />
        <path
           id="path4702-2"
           d="m 2.872,23.219 c 0.28,2.592 -1.95,3.598 0.494,1.889 1.31,-2.951 -0.512,-0.815 -0.494,-1.889"
           ns2:knockout="Off"
           style="fill:#a80030" />
        <path
           id="path4704-7"
           d="M 0,35.215 C 0.563,33.487 0.665,32.449 0.88,31.449 -0.676,33.438 0.164,33.862 0,35.215"
           ns2:knockout="Off"
           style="fill:#a80030" />
      </g>
    </g>
    <g
       id="g4838"
       transform="matrix(1.0930527,0,0,1.0930527,15.63828,73.929261)">
      <path
         id="path4840"
         d="M 0,0.5 0,0 0.5,0 1,0 1.5,0 2,0 2.5,0 3,0 3.5,0 4,0 4.5,0 5,0 5.5,0 6,0 6.5,0 7,0 7.5,0 8,0 8.5,0 9,0 9.5,0 10,0 l 0.5,0 0.5,0 0.5,0 0.5,0 0.5,0 0.5,0 0.5,0 0.5,0 0.5,0 0.5,0 0.5,0 0.5,0 0.5,0 0.5,0 0.5,0 0.5,0 0.5,0 0.5,0 0.5,0 0.5,0 0.5,0 0.5,0 0.5,0 0.5,0 0.5,0 0.5,0 0.5,0 0.5,0 0.5,0 0.5,0 0.5,0 0.5,0 0.5,0 0.5,0 0.5,0 0.5,0 0.5,0 0.5,0 0.5,0 0.5,0 0.5,0 0.5,0 0.5,0 0.5,0 0.5,0 0.5,0 0.5,0 0.5,0 0.5,0 0.5,0 0.5,0 0.5,0 0.5,0 0.5,0 0.5,0 0.5,0 0.5,0 0.5,0 0.5,0 0.5,0 0.5,0 0.5,0 0.5,0 0.5,0 0.5,0 0.5,0 0.5,0 0.5,0 0.5,0 0.5,0 0.5,0 0.5,0 0.5,0 0.5,0 0.5,0 0.5,0 0.5,0 0.5,0 0.5,0 0.5,0 0.5,0 0.5,0 0.5,0 0.5,0 0.5,0 0.5,0 0.5,0 0.5,0 0.5,0 0.5,0 0.5,0 0.5,0 0.5,0 0.5,0 0.5,0 0.5,0 0.5,0 0.5,0 0.5,0 0.5,0 0.5,0 0.5,0 0.5,0 0.5,0 0.5,0 0.5,0 0.5,0 0.5,0 0.5,0 0.5,0 0.5,0 0.5,0 0.5,0 0.5,0 0.5,0 0.5,0 0.5,0 0.5,0 0.5,0 0.5,0 0.5,0 0.5,0 0.5,0 0.5,0 0.5,0 0.5,0 0.5,0 0.5,0 0.5,0 0.5,0 0.5,0 0.5,0 0.5,0 0.5,0 0.5,0 0.5,0 0.5,0 0.5,0 0.5,0 0.5,0 0.5,0 0.5,0 0.5,0 0.5,0 0.5,0 0.5,0 0.5,0 0.5,0 0.5,0 0.5,0 0.5,0 0.5,0 0.5,0 0.5,0 0.5,0 0.5,0 0.5,0 0.5,0 0.5,0 0.5,0 0.5,0 0.5,0 0.5,0 0.5,0 0.5,0 0.5,0 0.5,0 0.5,0 0.5,0 0.5,0 0.5,0 0.5,0 0.5,0 0.5,0 0.5,0 0.5,0 0.5,0 0.5,0 0.5,0 0.5,0 0.5,0 0.5,0 0.5,0 0.5,0 0.5,0 0.5,0 0.5,0 0.5,0 0.5,0 0.5,0 0.5,0 0.5,0 0.5,0 0.5,0 0.5,0 0.5,0 0.5,0 0.5,0 0.5,0 0.5,0 0.5,0 0.5,0 0.5,0 0.5,0 0.5,0 0.5,0 0.5,0 0.5,0 0,0.5 0,0.5 0,0.5 0,0.5 0,0.5 0,0.5 0,0.5 0,0.5 0,0.5 0,0.5 0,0.5 0,0.5 0,0.5 0,0.5 0,0.5 0,0.5 0,0.5 0,0.5 0,0.5 0,0.5 0,0.5 0,0.5 0,0.5 0,0.5 0,0.5 0,0.5 0,0.5 0,0.5 0,0.5 0,0.5 0,0.5 0,0.5 0,0.5 0,0.5 0,0.5 0,0.5 0,0.5 0,0.5 0,0.5 0,0.5 0,0.5 0,0.5 0,0.5 0,0.5 0,0.5 0,0.5 0,0.5 0,0.5 0,0.5 0,0.5 0,0.5 0,0.5 0,0.5 0,0.5 0,0.5 0,0.5 0,0.5 0,0.5 0,0.5 0,0.5 0,0.5 0,0.5 0,0.5 0,0.5 0,0.5 0,0.5 0,0.5 0,0.5 0,0.5 0,0.5 0,0.5 0,0.5 0,0.5 0,0.5 0,0.5 0,0.5 0,0.5 0,0.5 0,0.5 0,0.5 0,0.5 0,0.5 0,0.5 0,0.5 0,0.5 0,0.5 0,0.5 0,0.5 0,0.5 0,0.5 0,0.5 0,0.5 0,0.5 0,0.5 0,0.5 0,0.5 0,0.5 0,0.5 0,0.5 0,0.5 0,0.5 0,0.5 0,0.5 0,0.5 0,0.5 0,0.5 0,0.5 0,0.5 0,0.5 0,0.5 0,0.5 0,0.5 0,0.5 0,0.5 0,0.5 0,0.5 0,0.5 0,0.5 0,0.5 0,0.5 0,0.5 0,0.5 0,0.5 0,0.5 0,0.5 0,0.5 0,0.5 0,0.5 0,0.5 0,0.5 0,0.5 0,0.5 -0.5,0 -0.5,0 -0.5,0 -0.5,0 -0.5,0 -0.5,0 -0.5,0 -0.5,0 -0.5,0 -0.5,0 -0.5,0 -0.5,0 -0.5,0 -0.5,0 -0.5,0 -0.5,0 -0.5,0 -0.5,0 -0.5,0 -0.5,0 -0.5,0 -0.5,0 -0.5,0 -0.5,0 -0.5,0 -0.5,0 -0.5,0 -0.5,0 -0.5,0 L 99,66 98.5,66 98,66 97.5,66 97,66 96.5,66 96,66 95.5,66 95,66 94.5,66 94,66 93.5,66 93,66 92.5,66 92,66 91.5,66 91,66 90.5,66 90,66 89.5,66 89,66 88.5,66 88,66 87.5,66 87,66 86.5,66 86,66 85.5,66 85,66 84.5,66 84,66 83.5,66 83,66 82.5,66 82,66 81.5,66 81,66 80.5,66 80,66 79.5,66 79,66 78.5,66 78,66 77.5,66 77,66 76.5,66 76,66 75.5,66 75,66 74.5,66 74,66 73.5,66 73,66 72.5,66 72,66 71.5,66 71,66 70.5,66 70,66 69.5,66 69,66 68.5,66 68,66 67.5,66 67,66 66.5,66 66,66 65.5,66 65,66 64.5,66 64,66 63.5,66 63,66 62.5,66 62,66 61.5,66 61,66 60.5,66 60,66 59.5,66 59,66 58.5,66 58,66 57.5,66 57,66 56.5,66 56,66 55.5,66 55,66 54.5,66 54,66 53.5,66 53,66 52.5,66 52,66 51.5,66 51,66 50.5,66 50,66 49.5,66 49,66 48.5,66 48,66 47.5,66 47,66 46.5,66 46,66 45.5,66 45,66 44.5,66 44,66 43.5,66 43,66 42.5,66 42,66 41.5,66 41,66 40.5,66 40,66 39.5,66 39,66 38.5,66 38,66 37.5,66 37,66 36.5,66 36,66 35.5,66 35,66 34.5,66 34,66 33.5,66 33,66 32.5,66 32,66 31.5,66 31,66 30.5,66 30,66 29.5,66 29,66 28.5,66 28,66 27.5,66 27,66 26.5,66 26,66 25.5,66 25,66 24.5,66 24,66 23.5,66 23,66 22.5,66 22,66 21.5,66 21,66 20.5,66 20,66 19.5,66 19,66 18.5,66 18,66 17.5,66 17,66 16.5,66 16,66 15.5,66 15,66 14.5,66 14,66 13.5,66 13,66 12.5,66 12,66 11.5,66 11,66 10.5,66 10,66 9.5,66 9,66 8.5,66 8,66 7.5,66 7,66 6.5,66 6,66 5.5,66 5,66 4.5,66 4,66 3.5,66 3,66 2.5,66 2,66 1.5,66 1,66 0.5,66 0,66 0,65.5 0,65 0,64.5 0,64 0,63.5 0,63 0,62.5 0,62 0,61.5 0,61 0,60.5 0,60 0,59.5 0,59 0,58.5 0,58 0,57.5 0,57 0,56.5 0,56 0,55.5 0,55 0,54.5 0,54 0,53.5 0,53 0,52.5 0,52 0,51.5 0,51 0,50.5 0,50 0,49.5 0,49 0,48.5 0,48 0,47.5 0,47 0,46.5 0,46 0,45.5 0,45 0,44.5 0,44 0,43.5 0,43 0,42.5 0,42 0,41.5 0,41 0,40.5 0,40 0,39.5 0,39 0,38.5 0,38 0,37.5 0,37 0,36.5 0,36 0,35.5 0,35 0,34.5 0,34 0,33.5 0,33 0,32.5 0,32 0,31.5 0,31 0,30.5 0,30 0,29.5 0,29 0,28.5 0,28 0,27.5 0,27 0,26.5 0,26 0,25.5 0,25 0,24.5 0,24 0,23.5 0,23 0,22.5 0,22 0,21.5 0,21 0,20.5 0,20 0,19.5 0,19 0,18.5 0,18 0,17.5 0,17 0,16.5 0,16 0,15.5 0,15 0,14.5 0,14 0,13.5 0,13 0,12.5 0,12 0,11.5 0,11 0,10.5 0,10 0,9.5 0,9 0,8.5 0,8 0,7.5 0,7 0,6.5 0,6 0,5.5 0,5 0,4.5 0,4 0,3.5 0,3 0,2.5 0,2 0,1.5 0,1 0,0.5 m 10,43 q 0.25,0.25 0.5,0.25 0.25,0 0.375,-0.375 Q 11,43 11,42.5 q 0,-0.5 0,-1 0,-0.5 0,-1 0,-0.5 0,-1 0,-0.5 0,-1 0,-0.5 0,-1 0,-0.5 0,-1 0,-0.5 0,-1 Q 11,35 10.875,34.625 10.75,34.25 10.5,34.25 q -0.25,0 -0.375,0.375 Q 10,35 10,35.5 10,36 10,36.5 10,37 9.875,37.375 9.75,37.75 9.5,37.75 9.25,37.75 9,37.5 8.75,37.25 8.375,37.125 8,37 7.5,37 7,37 6.5,37 6,37 5.625,37.125 5.25,37.25 5,37.5 4.75,37.75 4.5,38 4.25,38.25 4.125,38.625 4,39 4,39.5 4,40 4,40.5 4,41 4,41.5 4,42 4.125,42.375 4.25,42.75 4.5,43 4.75,43.25 5,43.5 5.25,43.75 5.625,43.875 6,44 6.5,44 7,44 7.5,44 8,44 8.375,43.875 8.75,43.75 9,43.5 q 0.25,-0.25 0.5,-0.25 0.25,0 0.5,0.25 M 8.5,29 Q 9,29 9.375,28.875 9.75,28.75 10,28.5 q 0.25,-0.25 0.5,-0.5 0.25,-0.25 0.25,-0.5 0,-0.25 -0.25,-0.25 -0.25,0 -0.5,0.25 Q 9.75,27.75 9.375,27.875 9,28 8.5,28 8,28 7.5,28 7,28 6.5,28 6,28 5.625,27.875 5.25,27.75 5.125,27.375 5,27 5,26.5 5,26 5,25.5 5,25 5,24.5 5,24 5.125,23.625 5.25,23.25 5.625,23.125 6,23 6.5,23 7,23 7.5,23 8,23 8.5,23 9,23 9.375,23.125 9.75,23.25 10,23.5 q 0.25,0.25 0.5,0.25 0.25,0 0.25,-0.25 0,-0.25 -0.25,-0.5 Q 10.25,22.75 10,22.5 9.75,22.25 9.375,22.125 9,22 8.5,22 8,22 7.5,22 7,22 6.5,22 6,22 5.625,22.125 5.25,22.25 5,22.5 4.75,22.75 4.5,23 4.25,23.25 4.125,23.625 4,24 4,24.5 4,25 4,25.5 4,26 4,26.5 4,27 4.125,27.375 4.25,27.75 4.5,28 4.75,28.25 5,28.5 5.25,28.75 5.625,28.875 6,29 6.5,29 q 0.5,0 1,0 0.5,0 1,0 m 9,15 Q 18,44 18.375,43.875 18.75,43.75 19,43.5 19.25,43.25 19.5,43 19.75,42.75 19.875,42.375 20,42 20,41.5 20,41 20,40.5 20,40 20,39.5 20,39 19.875,38.625 19.75,38.25 19.5,38 19.25,37.75 19,37.5 18.75,37.25 18.375,37.125 18,37 17.5,37 17,37 16.5,37 16,37 15.5,37 15,37 14.625,37.125 14.25,37.25 14,37.5 13.75,37.75 13.5,38 13.25,38.25 13.125,38.625 13,39 13,39.5 q 0,0.5 0,1 0,0.5 0,1 0,0.5 0.125,0.875 0.125,0.375 0.375,0.625 0.25,0.25 0.5,0.5 0.25,0.25 0.625,0.375 Q 15,44 15.5,44 q 0.5,0 1,0 0.5,0 1,0 m 0,-15 Q 18,29 18.375,28.875 18.75,28.75 19,28.5 19.25,28.25 19.5,28 19.75,27.75 19.875,27.375 20,27 20,26.5 20,26 20,25.5 20,25 20,24.5 20,24 19.875,23.625 19.75,23.25 19.5,23 19.25,22.75 19,22.5 18.75,22.25 18.375,22.125 18,22 17.5,22 17,22 16.5,22 16,22 15.5,22 15,22 14.625,22.125 14.25,22.25 14,22.5 13.75,22.75 13.5,23 13.25,23.25 13.125,23.625 13,24 13,24.5 q 0,0.5 0,1 0,0.5 0,1 0,0.5 0.125,0.875 0.125,0.375 0.375,0.625 0.25,0.25 0.5,0.5 0.25,0.25 0.625,0.375 Q 15,29 15.5,29 q 0.5,0 1,0 0.5,0 1,0 m 9,30 Q 27,59 27.375,58.875 27.75,58.75 28,58.5 q 0.25,-0.25 0.5,-0.5 0.25,-0.25 0.25,-0.5 0,-0.25 -0.25,-0.25 -0.25,0 -0.5,0.25 -0.25,0.25 -0.625,0.375 Q 27,58 26.5,58 26,58 25.625,57.875 25.25,57.75 25.125,57.375 25,57 25,56.5 q 0,-0.5 0,-1 0,-0.5 0,-1 0,-0.5 0.125,-0.875 0.125,-0.375 0.5,-0.5 Q 26,53 26.5,53 27,53 27.375,52.875 27.75,52.75 27.75,52.5 27.75,52.25 27.375,52.125 27,52 26.5,52 26,52 25.625,51.875 25.25,51.75 25.125,51.375 25,51 24.875,50.625 24.75,50.25 24.5,50.25 q -0.25,0 -0.375,0.375 Q 24,51 23.875,51.375 23.75,51.75 23.375,51.875 23,52 22.625,52.125 22.25,52.25 22.25,52.5 q 0,0.25 0.375,0.375 0.375,0.125 0.75,0.25 0.375,0.125 0.5,0.5 Q 24,54 24,54.5 q 0,0.5 0,1 0,0.5 0,1 0,0.5 0.125,0.875 0.125,0.375 0.375,0.625 0.25,0.25 0.5,0.5 0.25,0.25 0.625,0.375 Q 26,59 26.5,59 m 0,-15 Q 27,44 27.375,43.875 27.75,43.75 27.75,43.5 27.75,43.25 27.375,43.125 27,43 26.625,42.875 26.25,42.75 26.125,42.375 26,42 26,41.5 q 0,-0.5 0,-1 0,-0.5 0,-1 0,-0.5 0,-1 0,-0.5 -0.125,-0.875 -0.125,-0.375 -0.5,-0.5 Q 25,37 24.5,37 24,37 23.625,37.125 23.25,37.25 23.25,37.5 q 0,0.25 0.375,0.375 0.375,0.125 0.75,0.25 0.375,0.125 0.5,0.5 Q 25,39 25,39.5 q 0,0.5 0,1 0,0.5 0,1 0,0.5 -0.125,0.875 -0.125,0.375 -0.5,0.5 Q 24,43 23.625,43.125 23.25,43.25 23.25,43.5 q 0,0.25 0.375,0.375 Q 24,44 24.5,44 q 0.5,0 1,0 0.5,0 1,0 m 1.625,-15.625 q 0.125,0.375 0.375,0.375 0.25,0 0.375,-0.375 Q 29,28 29,27.5 q 0,-0.5 0,-1 0,-0.5 0,-1 0,-0.5 0,-1 Q 29,24 28.875,23.625 28.75,23.25 28.5,23 28.25,22.75 28,22.5 27.75,22.25 27.375,22.125 27,22 26.5,22 26,22 25.5,22 25,22 24.625,22.125 24.25,22.25 24,22.5 q -0.25,0.25 -0.5,0.25 -0.25,0 -0.5,-0.25 -0.25,-0.25 -0.5,-0.25 -0.25,0 -0.375,0.375 Q 22,23 22,23.5 q 0,0.5 0,1 0,0.5 0,1 0,0.5 0,1 0,0.5 0,1 0,0.5 0.125,0.875 0.125,0.375 0.375,0.375 0.25,0 0.375,-0.375 Q 23,28 23,27.5 23,27 23,26.5 23,26 23,25.5 23,25 23.125,24.625 23.25,24.25 23.5,24 23.75,23.75 24,23.5 24.25,23.25 24.625,23.125 25,23 25.5,23 q 0.5,0 1,0 0.5,0 0.875,0.125 0.375,0.125 0.5,0.5 Q 28,24 28,24.5 q 0,0.5 0,1 0,0.5 0,1 0,0.5 0,1 0,0.5 0.125,0.875 m -3.5,6.5 Q 25,35 25.375,34.875 25.75,34.75 25.75,34.5 25.75,34.25 25.375,34.125 25,34 24.625,34.125 24.25,34.25 24.25,34.5 q 0,0.25 0.375,0.375 m 6.5,-18.5 q 0.125,0.375 0.375,0.375 0.25,0 0.375,-0.375 Q 32,16 32,15.5 32,15 32,14.5 32,14 32.125,13.625 32.25,13.25 32.5,13.25 q 0.25,0 0.5,0.25 0.25,0.25 0.625,0.375 Q 34,14 34.5,14 q 0.5,0 1,0 0.5,0 0.875,-0.125 Q 36.75,13.75 37,13.5 37.25,13.25 37.5,13 37.75,12.75 37.875,12.375 38,12 38,11.5 38,11 38,10.5 38,10 38,9.5 38,9 37.875,8.625 37.75,8.25 37.5,8 37.25,7.75 37,7.5 36.75,7.25 36.375,7.125 36,7 35.5,7 35,7 34.5,7 34,7 33.625,7.125 33.25,7.25 33,7.5 32.75,7.75 32.5,7.75 32.25,7.75 32,7.5 31.75,7.25 31.5,7.25 31.25,7.25 31.125,7.625 31,8 31,8.5 q 0,0.5 0,1 0,0.5 0,1 0,0.5 0,1 0,0.5 0,1 0,0.5 0,1 0,0.5 0,1 0,0.5 0,1 0,0.5 0.125,0.875 M 35.5,59 Q 36,59 36.375,58.875 36.75,58.75 37,58.5 37.25,58.25 37.5,58 37.75,57.75 37.875,57.375 38,57 38,56.5 38,56 38,55.5 38,55 38,54.5 38,54 37.875,53.625 37.75,53.25 37.5,53 37.25,52.75 37,52.5 36.75,52.25 36.375,52.125 36,52 35.5,52 35,52 34.5,52 34,52 33.5,52 33,52 32.625,52.125 32.25,52.25 32,52.5 31.75,52.75 31.5,53 31.25,53.25 31.125,53.625 31,54 31,54.5 q 0,0.5 0,1 0,0.5 0,1 0,0.5 0.125,0.875 0.125,0.375 0.375,0.625 0.25,0.25 0.5,0.5 0.25,0.25 0.625,0.375 Q 33,59 33.5,59 q 0.5,0 1,0 0.5,0 1,0 m 1.625,-15.625 q 0.125,0.375 0.375,0.375 0.25,0 0.375,-0.375 Q 38,43 38,42.5 q 0,-0.5 0,-1 0,-0.5 0,-1 0,-0.5 0,-1 Q 38,39 37.875,38.625 37.75,38.25 37.5,38 37.25,37.75 37,37.5 36.75,37.25 36.375,37.125 36,37 35.5,37 35,37 34.5,37 34,37 33.625,37.125 33.25,37.25 33,37.5 q -0.25,0.25 -0.5,0.25 -0.25,0 -0.5,-0.25 -0.25,-0.25 -0.5,-0.25 -0.25,0 -0.375,0.375 Q 31,38 31,38.5 q 0,0.5 0,1 0,0.5 0,1 0,0.5 0,1 0,0.5 0,1 0,0.5 0.125,0.875 0.125,0.375 0.375,0.375 0.25,0 0.375,-0.375 Q 32,43 32,42.5 32,42 32,41.5 32,41 32,40.5 32,40 32.125,39.625 32.25,39.25 32.5,39 32.75,38.75 33,38.5 33.25,38.25 33.625,38.125 34,38 34.5,38 q 0.5,0 1,0 0.5,0 0.875,0.125 0.375,0.125 0.5,0.5 Q 37,39 37,39.5 q 0,0.5 0,1 0,0.5 0,1 0,0.5 0,1 0,0.5 0.125,0.875 M 35.5,29 Q 36,29 36.375,28.875 36.75,28.75 37,28.5 37.25,28.25 37.5,28 37.75,27.75 37.875,27.375 38,27 37.875,26.625 37.75,26.25 37.5,26 37.25,25.75 37,25.5 36.75,25.25 36.375,25.125 36,25 35.5,25 q -0.5,0 -1,0 -0.5,0 -1,0 -0.5,0 -0.875,-0.125 -0.375,-0.125 -0.5,-0.5 -0.125,-0.375 0,-0.75 0.125,-0.375 0.5,-0.5 Q 33,23 33.5,23 q 0.5,0 1,0 0.5,0 1,0 0.5,0 0.875,0.125 0.375,0.125 0.625,0.375 0.25,0.25 0.5,0.25 0.25,0 0.25,-0.25 0,-0.25 -0.25,-0.5 Q 37.25,22.75 37,22.5 36.75,22.25 36.375,22.125 36,22 35.5,22 35,22 34.5,22 34,22 33.5,22 33,22 32.625,22.125 32.25,22.25 32,22.5 31.75,22.75 31.5,23 31.25,23.25 31.125,23.625 31,24 31.125,24.375 31.25,24.75 31.5,25 q 0.25,0.25 0.5,0.5 0.25,0.25 0.625,0.375 Q 33,26 33.5,26 q 0.5,0 1,0 0.5,0 1,0 0.5,0 0.875,0.125 0.375,0.125 0.5,0.5 0.125,0.375 0,0.75 -0.125,0.375 -0.5,0.5 Q 36,28 35.5,28 35,28 34.5,28 34,28 33.5,28 33,28 32.625,27.875 32.25,27.75 32,27.5 q -0.25,-0.25 -0.5,-0.25 -0.25,0 -0.25,0.25 0,0.25 0.25,0.5 0.25,0.25 0.5,0.5 0.25,0.25 0.625,0.375 Q 33,29 33.5,29 q 0.5,0 1,0 0.5,0 1,0 m 9,33 Q 45,62 45.375,61.875 45.75,61.75 46,61.5 46.25,61.25 46.5,61 46.75,60.75 46.875,60.375 47,60 46.875,59.625 46.75,59.25 46.5,59 46.25,58.75 46,58.5 45.75,58.25 45.375,58.125 45,58 44.5,58 44,58 43.5,58 43,58 42.5,58 42,58 41.625,57.875 41.25,57.75 41.25,57.5 q 0,-0.25 0.375,-0.375 Q 42,57 42.5,57 q 0.5,0 1,0 0.5,0 0.875,-0.125 Q 44.75,56.75 45,56.5 45.25,56.25 45.5,56 45.75,55.75 45.875,55.375 46,55 46,54.5 46,54 46.125,53.625 46.25,53.25 46.5,53 q 0.25,-0.25 0.25,-0.5 0,-0.25 -0.25,-0.25 -0.25,0 -0.5,0.25 -0.25,0.25 -0.5,0.25 -0.25,0 -0.5,-0.25 Q 44.75,52.25 44.375,52.125 44,52 43.5,52 43,52 42.5,52 42,52 41.625,52.125 41.25,52.25 41,52.5 40.75,52.75 40.5,53 40.25,53.25 40.125,53.625 40,54 40,54.5 40,55 40.125,55.375 40.25,55.75 40.5,56 q 0.25,0.25 0.25,0.5 0,0.25 -0.25,0.5 -0.25,0.25 -0.25,0.5 0,0.25 0.25,0.5 0.25,0.25 0.25,0.5 0,0.25 -0.25,0.5 -0.25,0.25 -0.375,0.625 -0.125,0.375 0,0.75 0.125,0.375 0.375,0.625 0.25,0.25 0.5,0.5 0.25,0.25 0.625,0.375 Q 42,62 42.5,62 q 0.5,0 1,0 0.5,0 1,0 m 0,-15 Q 45,47 45.375,46.875 45.75,46.75 46,46.5 46.25,46.25 46.5,46 46.75,45.75 46.875,45.375 47,45 46.875,44.625 46.75,44.25 46.5,44 46.25,43.75 46,43.5 45.75,43.25 45.375,43.125 45,43 44.5,43 44,43 43.5,43 43,43 42.5,43 42,43 41.625,42.875 41.25,42.75 41.25,42.5 q 0,-0.25 0.375,-0.375 Q 42,42 42.5,42 q 0.5,0 1,0 0.5,0 0.875,-0.125 Q 44.75,41.75 45,41.5 45.25,41.25 45.5,41 45.75,40.75 45.875,40.375 46,40 46,39.5 46,39 46.125,38.625 46.25,38.25 46.5,38 q 0.25,-0.25 0.25,-0.5 0,-0.25 -0.25,-0.25 -0.25,0 -0.5,0.25 -0.25,0.25 -0.5,0.25 -0.25,0 -0.5,-0.25 Q 44.75,37.25 44.375,37.125 44,37 43.5,37 43,37 42.5,37 42,37 41.625,37.125 41.25,37.25 41,37.5 40.75,37.75 40.5,38 40.25,38.25 40.125,38.625 40,39 40,39.5 40,40 40.125,40.375 40.25,40.75 40.5,41 q 0.25,0.25 0.25,0.5 0,0.25 -0.25,0.5 -0.25,0.25 -0.25,0.5 0,0.25 0.25,0.5 0.25,0.25 0.25,0.5 0,0.25 -0.25,0.5 -0.25,0.25 -0.375,0.625 -0.125,0.375 0,0.75 0.125,0.375 0.375,0.625 0.25,0.25 0.5,0.5 0.25,0.25 0.625,0.375 Q 42,47 42.5,47 q 0.5,0 1,0 0.5,0 1,0 m 0,-18 Q 45,29 45.375,28.875 45.75,28.75 45.75,28.5 45.75,28.25 45.375,28.125 45,28 44.5,28 q -0.5,0 -1,0 -0.5,0 -1,0 -0.5,0 -0.875,-0.125 -0.375,-0.125 -0.5,-0.5 -0.125,-0.375 0,-0.75 0.125,-0.375 0.5,-0.5 Q 42,26 42.5,26 q 0.5,0 1,0 0.5,0 1,0 0.5,0 1,0 0.5,0 0.875,-0.125 0.375,-0.125 0.5,-0.5 Q 47,25 47,24.5 47,24 46.875,23.625 46.75,23.25 46.5,23 46.25,22.75 46,22.5 45.75,22.25 45.375,22.125 45,22 44.5,22 44,22 43.5,22 43,22 42.5,22 42,22 41.625,22.125 41.25,22.25 41,22.5 40.75,22.75 40.5,23 40.25,23.25 40.125,23.625 40,24 40,24.5 q 0,0.5 0,1 0,0.5 0,1 0,0.5 0.125,0.875 0.125,0.375 0.375,0.625 0.25,0.25 0.5,0.5 0.25,0.25 0.625,0.375 Q 42,29 42.5,29 q 0.5,0 1,0 0.5,0 1,0 m 0,-15 Q 45,14 45.375,13.875 45.75,13.75 45.75,13.5 45.75,13.25 45.375,13.125 45,13 44.5,13 q -0.5,0 -1,0 -0.5,0 -1,0 -0.5,0 -0.875,-0.125 -0.375,-0.125 -0.5,-0.5 -0.125,-0.375 0,-0.75 0.125,-0.375 0.5,-0.5 Q 42,11 42.5,11 q 0.5,0 1,0 0.5,0 1,0 0.5,0 1,0 0.5,0 0.875,-0.125 0.375,-0.125 0.5,-0.5 Q 47,10 47,9.5 47,9 46.875,8.625 46.75,8.25 46.5,8 46.25,7.75 46,7.5 45.75,7.25 45.375,7.125 45,7 44.5,7 44,7 43.5,7 43,7 42.5,7 42,7 41.625,7.125 41.25,7.25 41,7.5 40.75,7.75 40.5,8 40.25,8.25 40.125,8.625 40,9 40,9.5 q 0,0.5 0,1 0,0.5 0,1 0,0.5 0.125,0.875 0.125,0.375 0.375,0.625 0.25,0.25 0.5,0.5 0.25,0.25 0.625,0.375 Q 42,14 42.5,14 q 0.5,0 1,0 0.5,0 1,0 m 9,45 Q 54,59 54.375,58.875 54.75,58.75 54.75,58.5 54.75,58.25 54.375,58.125 54,58 53.5,58 q -0.5,0 -1,0 -0.5,0 -1,0 -0.5,0 -0.875,-0.125 -0.375,-0.125 -0.5,-0.5 -0.125,-0.375 0,-0.75 0.125,-0.375 0.5,-0.5 Q 51,56 51.5,56 q 0.5,0 1,0 0.5,0 1,0 0.5,0 1,0 0.5,0 0.875,-0.125 0.375,-0.125 0.5,-0.5 Q 56,55 56,54.5 56,54 55.875,53.625 55.75,53.25 55.5,53 55.25,52.75 55,52.5 54.75,52.25 54.375,52.125 54,52 53.5,52 53,52 52.5,52 52,52 51.5,52 51,52 50.625,52.125 50.25,52.25 50,52.5 49.75,52.75 49.5,53 49.25,53.25 49.125,53.625 49,54 49,54.5 q 0,0.5 0,1 0,0.5 0,1 0,0.5 0.125,0.875 0.125,0.375 0.375,0.625 0.25,0.25 0.5,0.5 0.25,0.25 0.625,0.375 Q 51,59 51.5,59 q 0.5,0 1,0 0.5,0 1,0 m 1.625,-30.625 q 0.125,0.375 0.375,0.375 0.25,0 0.375,-0.375 Q 56,28 56,27.5 q 0,-0.5 0,-1 0,-0.5 0,-1 0,-0.5 0,-1 Q 56,24 55.875,23.625 55.75,23.25 55.5,23 55.25,22.75 55,22.5 54.75,22.25 54.375,22.125 54,22 53.5,22 53,22 52.5,22 52,22 51.625,22.125 51.25,22.25 51,22.5 q -0.25,0.25 -0.5,0.25 -0.25,0 -0.5,-0.25 -0.25,-0.25 -0.5,-0.25 -0.25,0 -0.375,0.375 Q 49,23 49,23.5 q 0,0.5 0,1 0,0.5 0,1 0,0.5 0,1 0,0.5 0,1 0,0.5 0.125,0.875 0.125,0.375 0.375,0.375 0.25,0 0.375,-0.375 Q 50,28 50,27.5 50,27 50,26.5 50,26 50,25.5 50,25 50.125,24.625 50.25,24.25 50.5,24 50.75,23.75 51,23.5 51.25,23.25 51.625,23.125 52,23 52.5,23 q 0.5,0 1,0 0.5,0 0.875,0.125 0.375,0.125 0.5,0.5 Q 55,24 55,24.5 q 0,0.5 0,1 0,0.5 0,1 0,0.5 0,1 0,0.5 0.125,0.875 M 53.5,14 Q 54,14 54.375,13.875 54.75,13.75 55,13.5 55.25,13.25 55.5,13 55.75,12.75 55.875,12.375 56,12 56,11.5 56,11 56,10.5 56,10 56,9.5 56,9 55.875,8.625 55.75,8.25 55.5,8 55.25,7.75 55,7.5 54.75,7.25 54.375,7.125 54,7 53.5,7 53,7 52.5,7 52,7 51.5,7 51,7 50.625,7.125 50.25,7.25 50,7.5 49.75,7.75 49.5,8 49.25,8.25 49.125,8.625 49,9 49,9.5 q 0,0.5 0,1 0,0.5 0,1 0,0.5 0.125,0.875 0.125,0.375 0.375,0.625 0.25,0.25 0.5,0.5 0.25,0.25 0.625,0.375 Q 51,14 51.5,14 q 0.5,0 1,0 0.5,0 1,0 m 4.625,2.375 q 0.125,0.375 0.375,0.375 0.25,0 0.375,-0.375 Q 59,16 59,15.5 59,15 59,14.5 59,14 59.125,13.625 59.25,13.25 59.5,13.25 q 0.25,0 0.5,0.25 0.25,0.25 0.625,0.375 Q 61,14 61.5,14 q 0.5,0 1,0 0.5,0 0.875,-0.125 Q 63.75,13.75 64,13.5 64.25,13.25 64.5,13 64.75,12.75 64.875,12.375 65,12 65,11.5 65,11 65,10.5 65,10 65,9.5 65,9 64.875,8.625 64.75,8.25 64.5,8 64.25,7.75 64,7.5 63.75,7.25 63.375,7.125 63,7 62.5,7 62,7 61.5,7 61,7 60.625,7.125 60.25,7.25 60,7.5 59.75,7.75 59.5,7.75 59.25,7.75 59,7.5 58.75,7.25 58.5,7.25 58.25,7.25 58.125,7.625 58,8 58,8.5 q 0,0.5 0,1 0,0.5 0,1 0,0.5 0,1 0,0.5 0,1 0,0.5 0,1 0,0.5 0,1 0,0.5 0,1 0,0.5 0.125,0.875 M 62.5,59 Q 63,59 63.375,58.875 63.75,58.75 64,58.5 q 0.25,-0.25 0.5,-0.5 0.25,-0.25 0.25,-0.5 0,-0.25 -0.25,-0.25 -0.25,0 -0.5,0.25 -0.25,0.25 -0.625,0.375 Q 63,58 62.5,58 62,58 61.625,57.875 61.25,57.75 61.125,57.375 61,57 61,56.5 q 0,-0.5 0,-1 0,-0.5 0,-1 0,-0.5 0.125,-0.875 0.125,-0.375 0.5,-0.5 Q 62,53 62.5,53 63,53 63.375,52.875 63.75,52.75 63.75,52.5 63.75,52.25 63.375,52.125 63,52 62.5,52 62,52 61.625,51.875 61.25,51.75 61.125,51.375 61,51 60.875,50.625 60.75,50.25 60.5,50.25 q -0.25,0 -0.375,0.375 Q 60,51 59.875,51.375 59.75,51.75 59.375,51.875 59,52 58.625,52.125 58.25,52.25 58.25,52.5 q 0,0.25 0.375,0.375 0.375,0.125 0.75,0.25 0.375,0.125 0.5,0.5 Q 60,54 60,54.5 q 0,0.5 0,1 0,0.5 0,1 0,0.5 0.125,0.875 0.125,0.375 0.375,0.625 0.25,0.25 0.5,0.5 0.25,0.25 0.625,0.375 Q 62,59 62.5,59 m 0,-15 Q 63,44 63.375,43.875 63.75,43.75 64,43.5 q 0.25,-0.25 0.5,-0.5 0.25,-0.25 0.25,-0.5 0,-0.25 -0.25,-0.25 -0.25,0 -0.5,0.25 -0.25,0.25 -0.625,0.375 Q 63,43 62.5,43 62,43 61.625,42.875 61.25,42.75 61.125,42.375 61,42 61,41.5 q 0,-0.5 0,-1 0,-0.5 0,-1 0,-0.5 0.125,-0.875 0.125,-0.375 0.5,-0.5 Q 62,38 62.5,38 63,38 63.375,37.875 63.75,37.75 63.75,37.5 63.75,37.25 63.375,37.125 63,37 62.5,37 62,37 61.625,36.875 61.25,36.75 61.125,36.375 61,36 60.875,35.625 60.75,35.25 60.5,35.25 q -0.25,0 -0.375,0.375 Q 60,36 59.875,36.375 59.75,36.75 59.375,36.875 59,37 58.625,37.125 58.25,37.25 58.25,37.5 q 0,0.25 0.375,0.375 0.375,0.125 0.75,0.25 0.375,0.125 0.5,0.5 Q 60,39 60,39.5 q 0,0.5 0,1 0,0.5 0,1 0,0.5 0.125,0.875 0.125,0.375 0.375,0.625 0.25,0.25 0.5,0.5 0.25,0.25 0.625,0.375 Q 62,44 62.5,44 m 0,-15 Q 63,29 63.375,28.875 63.75,28.75 64,28.5 64.25,28.25 64.5,28 64.75,27.75 64.875,27.375 65,27 64.875,26.625 64.75,26.25 64.5,26 64.25,25.75 64,25.5 63.75,25.25 63.375,25.125 63,25 62.5,25 q -0.5,0 -1,0 -0.5,0 -1,0 -0.5,0 -0.875,-0.125 -0.375,-0.125 -0.5,-0.5 -0.125,-0.375 0,-0.75 0.125,-0.375 0.5,-0.5 Q 60,23 60.5,23 q 0.5,0 1,0 0.5,0 1,0 0.5,0 0.875,0.125 0.375,0.125 0.625,0.375 0.25,0.25 0.5,0.25 0.25,0 0.25,-0.25 0,-0.25 -0.25,-0.5 Q 64.25,22.75 64,22.5 63.75,22.25 63.375,22.125 63,22 62.5,22 62,22 61.5,22 61,22 60.5,22 60,22 59.625,22.125 59.25,22.25 59,22.5 58.75,22.75 58.5,23 58.25,23.25 58.125,23.625 58,24 58.125,24.375 58.25,24.75 58.5,25 q 0.25,0.25 0.5,0.5 0.25,0.25 0.625,0.375 Q 60,26 60.5,26 q 0.5,0 1,0 0.5,0 1,0 0.5,0 0.875,0.125 0.375,0.125 0.5,0.5 0.125,0.375 0,0.75 -0.125,0.375 -0.5,0.5 Q 63,28 62.5,28 62,28 61.5,28 61,28 60.5,28 60,28 59.625,27.875 59.25,27.75 59,27.5 q -0.25,-0.25 -0.5,-0.25 -0.25,0 -0.25,0.25 0,0.25 0.25,0.5 0.25,0.25 0.5,0.5 0.25,0.25 0.625,0.375 Q 60,29 60.5,29 q 0.5,0 1,0 0.5,0 1,0 m 10.625,29.375 q 0.125,0.375 0.375,0.375 0.25,0 0.375,-0.375 Q 74,58 74,57.5 q 0,-0.5 0,-1 0,-0.5 0,-1 0,-0.5 0,-1 Q 74,54 73.875,53.625 73.75,53.25 73.5,53 73.25,52.75 73,52.5 72.75,52.25 72.375,52.125 72,52 71.5,52 71,52 70.5,52 70,52 69.625,52.125 69.25,52.25 69,52.5 q -0.25,0.25 -0.5,0.25 -0.25,0 -0.375,-0.375 Q 68,52 68,51.5 68,51 68,50.5 68,50 67.875,49.625 67.75,49.25 67.5,49.25 q -0.25,0 -0.375,0.375 Q 67,50 67,50.5 q 0,0.5 0,1 0,0.5 0,1 0,0.5 0,1 0,0.5 0,1 0,0.5 0,1 0,0.5 0,1 0,0.5 0,1 0,0.5 0.125,0.875 0.125,0.375 0.375,0.375 0.25,0 0.375,-0.375 Q 68,58 68,57.5 68,57 68,56.5 68,56 68,55.5 68,55 68.125,54.625 68.25,54.25 68.5,54 68.75,53.75 69,53.5 69.25,53.25 69.625,53.125 70,53 70.5,53 q 0.5,0 1,0 0.5,0 0.875,0.125 0.375,0.125 0.5,0.5 Q 73,54 73,54.5 q 0,0.5 0,1 0,0.5 0,1 0,0.5 0,1 0,0.5 0.125,0.875 m 0,-15 q 0.125,0.375 0.375,0.375 0.25,0 0.375,-0.375 Q 74,43 74,42.5 q 0,-0.5 0,-1 0,-0.5 0,-1 0,-0.5 0,-1 Q 74,39 73.875,38.625 73.75,38.25 73.5,38 73.25,37.75 73,37.5 72.75,37.25 72.375,37.125 72,37 71.5,37 71,37 70.5,37 70,37 69.625,37.125 69.25,37.25 69,37.5 q -0.25,0.25 -0.5,0.25 -0.25,0 -0.375,-0.375 Q 68,37 68,36.5 68,36 68,35.5 68,35 67.875,34.625 67.75,34.25 67.5,34.25 q -0.25,0 -0.375,0.375 Q 67,35 67,35.5 q 0,0.5 0,1 0,0.5 0,1 0,0.5 0,1 0,0.5 0,1 0,0.5 0,1 0,0.5 0,1 0,0.5 0,1 0,0.5 0.125,0.875 0.125,0.375 0.375,0.375 0.25,0 0.375,-0.375 Q 68,43 68,42.5 68,42 68,41.5 68,41 68,40.5 68,40 68.125,39.625 68.25,39.25 68.5,39 68.75,38.75 69,38.5 69.25,38.25 69.625,38.125 70,38 70.5,38 q 0.5,0 1,0 0.5,0 0.875,0.125 0.375,0.125 0.5,0.5 Q 73,39 73,39.5 q 0,0.5 0,1 0,0.5 0,1 0,0.5 0,1 0,0.5 0.125,0.875 M 73,28.5 q 0.25,0.25 0.5,0.25 0.25,0 0.25,-0.25 0,-0.25 -0.25,-0.5 Q 73.25,27.75 73.125,27.375 73,27 73,26.5 q 0,-0.5 0,-1 0,-0.5 0,-1 0,-0.5 0,-1 Q 73,23 72.875,22.625 72.75,22.25 72.5,22.25 q -0.25,0 -0.375,0.375 Q 72,23 72,23.5 q 0,0.5 0,1 0,0.5 0,1 0,0.5 0,1 0,0.5 -0.125,0.875 -0.125,0.375 -0.5,0.5 Q 71,28 70.5,28 70,28 69.5,28 69,28 68.625,27.875 68.25,27.75 68.125,27.375 68,27 68,26.5 q 0,-0.5 0,-1 0,-0.5 0,-1 0,-0.5 0,-1 Q 68,23 67.875,22.625 67.75,22.25 67.5,22.25 q -0.25,0 -0.375,0.375 Q 67,23 67,23.5 q 0,0.5 0,1 0,0.5 0,1 0,0.5 0,1 0,0.5 0.125,0.875 0.125,0.375 0.375,0.625 0.25,0.25 0.5,0.5 0.25,0.25 0.625,0.375 Q 69,29 69.5,29 q 0.5,0 1,0 0.5,0 0.875,-0.125 Q 71.75,28.75 72,28.5 q 0.25,-0.25 0.5,-0.25 0.25,0 0.5,0.25 M 71.5,14 Q 72,14 72.375,13.875 72.75,13.75 72.75,13.5 72.75,13.25 72.375,13.125 72,13 71.625,12.875 71.25,12.75 71.125,12.375 71,12 71,11.5 71,11 71,10.5 71,10 71,9.5 71,9 71,8.5 71,8 71,7.5 71,7 71,6.5 71,6 71,5.5 71,5 70.875,4.625 70.75,4.25 70.375,4.125 70,4 69.5,4 69,4 68.625,4.125 68.25,4.25 68.25,4.5 q 0,0.25 0.375,0.375 Q 69,5 69.375,5.125 69.75,5.25 69.875,5.625 70,6 70,6.5 q 0,0.5 0,1 0,0.5 0,1 0,0.5 0,1 0,0.5 0,1 0,0.5 0,1 0,0.5 -0.125,0.875 -0.125,0.375 -0.5,0.5 Q 69,13 68.625,13.125 68.25,13.25 68.25,13.5 q 0,0.25 0.375,0.375 Q 69,14 69.5,14 q 0.5,0 1,0 0.5,0 1,0 m 9,45 Q 81,59 81.375,58.875 81.75,58.75 81.75,58.5 81.75,58.25 81.375,58.125 81,58 80.5,58 q -0.5,0 -1,0 -0.5,0 -1,0 -0.5,0 -0.875,-0.125 -0.375,-0.125 -0.5,-0.5 -0.125,-0.375 0,-0.75 0.125,-0.375 0.5,-0.5 Q 78,56 78.5,56 q 0.5,0 1,0 0.5,0 1,0 0.5,0 1,0 0.5,0 0.875,-0.125 0.375,-0.125 0.5,-0.5 Q 83,55 83,54.5 83,54 82.875,53.625 82.75,53.25 82.5,53 82.25,52.75 82,52.5 81.75,52.25 81.375,52.125 81,52 80.5,52 80,52 79.5,52 79,52 78.5,52 78,52 77.625,52.125 77.25,52.25 77,52.5 76.75,52.75 76.5,53 76.25,53.25 76.125,53.625 76,54 76,54.5 q 0,0.5 0,1 0,0.5 0,1 0,0.5 0.125,0.875 0.125,0.375 0.375,0.625 0.25,0.25 0.5,0.5 0.25,0.25 0.625,0.375 Q 78,59 78.5,59 q 0.5,0 1,0 0.5,0 1,0 m 0,-15 Q 81,44 81.375,43.875 81.75,43.75 81.75,43.5 81.75,43.25 81.375,43.125 81,43 80.625,42.875 80.25,42.75 80.125,42.375 80,42 80,41.5 q 0,-0.5 0,-1 0,-0.5 0,-1 0,-0.5 0,-1 0,-0.5 -0.125,-0.875 -0.125,-0.375 -0.5,-0.5 Q 79,37 78.5,37 78,37 77.625,37.125 77.25,37.25 77.25,37.5 q 0,0.25 0.375,0.375 0.375,0.125 0.75,0.25 0.375,0.125 0.5,0.5 Q 79,39 79,39.5 q 0,0.5 0,1 0,0.5 0,1 0,0.5 -0.125,0.875 -0.125,0.375 -0.5,0.5 Q 78,43 77.625,43.125 77.25,43.25 77.25,43.5 q 0,0.25 0.375,0.375 Q 78,44 78.5,44 q 0.5,0 1,0 0.5,0 1,0 M 82,28.5 q 0.25,0.25 0.5,0.25 0.25,0 0.375,-0.375 Q 83,28 83,27.5 q 0,-0.5 0,-1 0,-0.5 0,-1 0,-0.5 0,-1 Q 83,24 82.875,23.625 82.75,23.25 82.5,23 82.25,22.75 82,22.5 81.75,22.25 81.375,22.125 81,22 80.5,22 q -0.5,0 -1,0 -0.5,0 -1,0 -0.5,0 -0.875,0.125 -0.375,0.125 -0.375,0.375 0,0.25 0.375,0.375 Q 78,23 78.5,23 q 0.5,0 1,0 0.5,0 1,0 0.5,0 0.875,0.125 0.375,0.125 0.5,0.5 0.125,0.375 0,0.75 -0.125,0.375 -0.5,0.5 Q 81,25 80.5,25 80,25 79.5,25 79,25 78.5,25 78,25 77.625,25.125 77.25,25.25 77,25.5 76.75,25.75 76.5,26 76.25,26.25 76.125,26.625 76,27 76.125,27.375 76.25,27.75 76.5,28 q 0.25,0.25 0.5,0.5 0.25,0.25 0.625,0.375 Q 78,29 78.5,29 q 0.5,0 1,0 0.5,0 0.875,-0.125 Q 80.75,28.75 81,28.5 q 0.25,-0.25 0.5,-0.25 0.25,0 0.5,0.25 M 80.5,14 Q 81,14 81.375,13.875 81.75,13.75 81.75,13.5 81.75,13.25 81.375,13.125 81,13 80.5,13 q -0.5,0 -1,0 -0.5,0 -1,0 -0.5,0 -0.875,-0.125 -0.375,-0.125 -0.5,-0.5 -0.125,-0.375 0,-0.75 0.125,-0.375 0.5,-0.5 Q 78,11 78.5,11 q 0.5,0 1,0 0.5,0 1,0 0.5,0 1,0 0.5,0 0.875,-0.125 0.375,-0.125 0.5,-0.5 Q 83,10 83,9.5 83,9 82.875,8.625 82.75,8.25 82.5,8 82.25,7.75 82,7.5 81.75,7.25 81.375,7.125 81,7 80.5,7 80,7 79.5,7 79,7 78.5,7 78,7 77.625,7.125 77.25,7.25 77,7.5 76.75,7.75 76.5,8 76.25,8.25 76.125,8.625 76,9 76,9.5 q 0,0.5 0,1 0,0.5 0,1 0,0.5 0.125,0.875 0.125,0.375 0.375,0.625 0.25,0.25 0.5,0.5 0.25,0.25 0.625,0.375 Q 78,14 78.5,14 q 0.5,0 1,0 0.5,0 1,0 M 78.625,34.875 Q 79,35 79.375,34.875 79.75,34.75 79.75,34.5 79.75,34.25 79.375,34.125 79,34 78.625,34.125 78.25,34.25 78.25,34.5 q 0,0.25 0.375,0.375 m 7.5,23.5 q 0.125,0.375 0.375,0.375 0.25,0 0.375,-0.375 Q 87,58 87,57.5 87,57 87,56.5 87,56 87,55.5 87,55 87.125,54.625 87.25,54.25 87.5,54 87.75,53.75 88,53.5 88.25,53.25 88.625,53.125 89,53 89.5,53 q 0.5,0 0.875,0.125 0.375,0.125 0.5,0.5 0.125,0.375 0.25,0.75 0.125,0.375 0.375,0.375 0.25,0 0.375,-0.375 Q 92,54 91.875,53.625 91.75,53.25 91.5,53 91.25,52.75 91,52.5 90.75,52.25 90.375,52.125 90,52 89.5,52 89,52 88.625,52.125 88.25,52.25 88,52.5 87.75,52.75 87.375,52.875 87,53 86.625,52.875 86.25,52.75 86,52.5 q -0.25,-0.25 -0.5,-0.25 -0.25,0 -0.25,0.25 0,0.25 0.25,0.5 0.25,0.25 0.375,0.625 Q 86,54 86,54.5 q 0,0.5 0,1 0,0.5 0,1 0,0.5 0,1 0,0.5 0.125,0.875 m 5,-15 q 0.125,0.375 0.375,0.375 0.25,0 0.375,-0.375 Q 92,43 92,42.5 q 0,-0.5 0,-1 0,-0.5 0,-1 0,-0.5 0,-1 Q 92,39 91.875,38.625 91.75,38.25 91.5,38 91.25,37.75 91,37.5 90.75,37.25 90.375,37.125 90,37 89.5,37 89,37 88.5,37 88,37 87.625,37.125 87.25,37.25 87,37.5 q -0.25,0.25 -0.5,0.25 -0.25,0 -0.5,-0.25 -0.25,-0.25 -0.5,-0.25 -0.25,0 -0.375,0.375 Q 85,38 85,38.5 q 0,0.5 0,1 0,0.5 0,1 0,0.5 0,1 0,0.5 0,1 0,0.5 0.125,0.875 0.125,0.375 0.375,0.375 0.25,0 0.375,-0.375 Q 86,43 86,42.5 86,42 86,41.5 86,41 86,40.5 86,40 86.125,39.625 86.25,39.25 86.5,39 86.75,38.75 87,38.5 87.25,38.25 87.625,38.125 88,38 88.5,38 q 0.5,0 1,0 0.5,0 0.875,0.125 0.375,0.125 0.5,0.5 Q 91,39 91,39.5 q 0,0.5 0,1 0,0.5 0,1 0,0.5 0,1 0,0.5 0.125,0.875 M 89.5,29 Q 90,29 90.375,28.875 90.75,28.75 90.75,28.5 90.75,28.25 90.375,28.125 90,28 89.625,27.875 89.25,27.75 89.125,27.375 89,27 89,26.5 q 0,-0.5 0,-1 0,-0.5 0,-1 0,-0.5 0,-1 0,-0.5 0,-1 0,-0.5 0,-1 0,-0.5 0,-1 0,-0.5 -0.125,-0.875 -0.125,-0.375 -0.5,-0.5 Q 88,19 87.5,19 87,19 86.625,19.125 86.25,19.25 86.25,19.5 q 0,0.25 0.375,0.375 0.375,0.125 0.75,0.25 0.375,0.125 0.5,0.5 Q 88,21 88,21.5 q 0,0.5 0,1 0,0.5 0,1 0,0.5 0,1 0,0.5 0,1 0,0.5 0,1 0,0.5 -0.125,0.875 -0.125,0.375 -0.5,0.5 Q 87,28 86.625,28.125 86.25,28.25 86.25,28.5 q 0,0.25 0.375,0.375 Q 87,29 87.5,29 q 0.5,0 1,0 0.5,0 1,0 m 9,18 Q 99,47 99.375,46.875 99.75,46.75 100,46.5 q 0.25,-0.25 0.5,-0.5 0.25,-0.25 0.375,-0.625 0.125,-0.375 0,-0.75 Q 100.75,44.25 100.5,44 100.25,43.75 100,43.5 99.75,43.25 99.375,43.125 99,43 98.5,43 98,43 97.5,43 97,43 96.5,43 96,43 95.625,42.875 95.25,42.75 95.25,42.5 q 0,-0.25 0.375,-0.375 Q 96,42 96.5,42 q 0.5,0 1,0 0.5,0 0.875,-0.125 Q 98.75,41.75 99,41.5 99.25,41.25 99.5,41 99.75,40.75 99.875,40.375 100,40 100,39.5 100,39 100.125,38.625 100.25,38.25 100.5,38 q 0.25,-0.25 0.25,-0.5 0,-0.25 -0.25,-0.25 -0.25,0 -0.5,0.25 -0.25,0.25 -0.5,0.25 -0.25,0 -0.5,-0.25 Q 98.75,37.25 98.375,37.125 98,37 97.5,37 97,37 96.5,37 96,37 95.625,37.125 95.25,37.25 95,37.5 94.75,37.75 94.5,38 94.25,38.25 94.125,38.625 94,39 94,39.5 94,40 94.125,40.375 94.25,40.75 94.5,41 q 0.25,0.25 0.25,0.5 0,0.25 -0.25,0.5 -0.25,0.25 -0.25,0.5 0,0.25 0.25,0.5 0.25,0.25 0.25,0.5 0,0.25 -0.25,0.5 -0.25,0.25 -0.375,0.625 -0.125,0.375 0,0.75 0.125,0.375 0.375,0.625 0.25,0.25 0.5,0.5 0.25,0.25 0.625,0.375 Q 96,47 96.5,47 q 0.5,0 1,0 0.5,0 1,0 m 0,-18 Q 99,29 99.375,28.875 99.75,28.75 99.75,28.5 99.75,28.25 99.375,28.125 99,28 98.625,27.875 98.25,27.75 98.125,27.375 98,27 98,26.5 q 0,-0.5 0,-1 0,-0.5 0,-1 0,-0.5 0,-1 0,-0.5 0,-1 0,-0.5 0,-1 0,-0.5 0,-1 0,-0.5 -0.125,-0.875 -0.125,-0.375 -0.5,-0.5 Q 97,19 96.5,19 96,19 95.625,19.125 95.25,19.25 95.25,19.5 q 0,0.25 0.375,0.375 0.375,0.125 0.75,0.25 0.375,0.125 0.5,0.5 Q 97,21 97,21.5 q 0,0.5 0,1 0,0.5 0,1 0,0.5 0,1 0,0.5 0,1 0,0.5 0,1 0,0.5 -0.125,0.875 -0.125,0.375 -0.5,0.5 Q 96,28 95.625,28.125 95.25,28.25 95.25,28.5 q 0,0.25 0.375,0.375 Q 96,29 96.5,29 q 0.5,0 1,0 0.5,0 1,0 m 9,15 q 0.5,0 0.875,-0.125 0.375,-0.125 0.625,-0.375 0.25,-0.25 0.5,-0.5 0.25,-0.25 0.375,-0.625 0.125,-0.375 0,-0.75 Q 109.75,41.25 109.5,41 109.25,40.75 109,40.5 108.75,40.25 108.375,40.125 108,40 107.5,40 q -0.5,0 -1,0 -0.5,0 -1,0 -0.5,0 -0.875,-0.125 -0.375,-0.125 -0.5,-0.5 -0.125,-0.375 0,-0.75 0.125,-0.375 0.5,-0.5 Q 105,38 105.5,38 q 0.5,0 1,0 0.5,0 1,0 0.5,0 0.875,0.125 0.375,0.125 0.625,0.375 0.25,0.25 0.5,0.25 0.25,0 0.25,-0.25 0,-0.25 -0.25,-0.5 -0.25,-0.25 -0.5,-0.5 -0.25,-0.25 -0.625,-0.375 Q 108,37 107.5,37 q -0.5,0 -1,0 -0.5,0 -1,0 -0.5,0 -0.875,0.125 -0.375,0.125 -0.625,0.375 -0.25,0.25 -0.5,0.5 -0.25,0.25 -0.375,0.625 -0.125,0.375 0,0.75 0.125,0.375 0.375,0.625 0.25,0.25 0.5,0.5 0.25,0.25 0.625,0.375 Q 105,41 105.5,41 q 0.5,0 1,0 0.5,0 1,0 0.5,0 0.875,0.125 0.375,0.125 0.5,0.5 0.125,0.375 0,0.75 -0.125,0.375 -0.5,0.5 Q 108,43 107.5,43 q -0.5,0 -1,0 -0.5,0 -1,0 -0.5,0 -0.875,-0.125 Q 104.25,42.75 104,42.5 q -0.25,-0.25 -0.5,-0.25 -0.25,0 -0.25,0.25 0,0.25 0.25,0.5 0.25,0.25 0.5,0.5 0.25,0.25 0.625,0.375 Q 105,44 105.5,44 q 0.5,0 1,0 0.5,0 1,0 m -1,-12 q 0.5,0 0.875,-0.125 0.375,-0.125 0.625,-0.375 0.25,-0.25 0.5,-0.5 0.25,-0.25 0.375,-0.625 Q 109,30 109,29.5 q 0,-0.5 0,-1 0,-0.5 0,-1 0,-0.5 0,-1 0,-0.5 0,-1 0,-0.5 0,-1 0,-0.5 0,-1 0,-0.5 -0.125,-0.875 -0.125,-0.375 -0.375,-0.375 -0.25,0 -0.375,0.375 Q 108,23 108,23.5 q 0,0.5 0,1 0,0.5 0,1 0,0.5 -0.125,0.875 -0.125,0.375 -0.375,0.625 -0.25,0.25 -0.5,0.5 -0.25,0.25 -0.625,0.375 Q 106,28 105.5,28 q -0.5,0 -0.875,-0.125 -0.375,-0.125 -0.5,-0.5 Q 104,27 104,26.5 q 0,-0.5 0,-1 0,-0.5 0,-1 0,-0.5 0,-1 0,-0.5 -0.125,-0.875 -0.125,-0.375 -0.375,-0.375 -0.25,0 -0.375,0.375 Q 103,23 103,23.5 q 0,0.5 0,1 0,0.5 0,1 0,0.5 0,1 0,0.5 0.125,0.875 0.125,0.375 0.375,0.625 0.25,0.25 0.5,0.5 0.25,0.25 0.625,0.375 Q 105,29 105.5,29 106,29 106.375,28.875 106.75,28.75 107,28.5 q 0.25,-0.25 0.5,-0.25 0.25,0 0.375,0.375 Q 108,29 108,29.5 q 0,0.5 -0.125,0.875 -0.125,0.375 -0.5,0.5 Q 107,31 106.5,31 q -0.5,0 -1,0 -0.5,0 -0.875,-0.125 Q 104.25,30.75 104,30.5 q -0.25,-0.25 -0.5,-0.25 -0.25,0 -0.25,0.25 0,0.25 0.25,0.5 0.25,0.25 0.5,0.5 0.25,0.25 0.625,0.375 Q 105,32 105.5,32 q 0.5,0 1,0"
         style="fill:#000000;fill-opacity:0" />
      <path
         id="path4842"
         d="m 68.25,4.5 q 0,-0.25 0.375,-0.375 Q 69,4 69.5,4 70,4 70.375,4.125 70.75,4.25 70.875,4.625 71,5 71,5.5 q 0,0.5 0,1 0,0.5 0,1 0,0.5 0,1 0,0.5 0,1 0,0.5 0,1 0,0.5 0,1 0,0.5 0.125,0.875 0.125,0.375 0.5,0.5 0.375,0.125 0.75,0.25 0.375,0.125 0.375,0.375 0,0.25 -0.375,0.375 Q 72,14 71.5,14 71,14 70.5,14 70,14 69.5,14 69,14 68.625,13.875 68.25,13.75 68.25,13.5 q 0,-0.25 0.375,-0.375 Q 69,13 69.375,12.875 69.75,12.75 69.875,12.375 70,12 70,11.5 70,11 70,10.5 70,10 70,9.5 70,9 70,8.5 70,8 70,7.5 70,7 70,6.5 70,6 69.875,5.625 69.75,5.25 69.375,5.125 69,5 68.625,4.875 68.25,4.75 68.25,4.5"
         style="fill:#ffffff;fill-opacity:1" />
      <path
         id="path4844"
         d="M 31.125,7.625 Q 31.25,7.25 31.5,7.25 q 0.25,0 0.5,0.25 0.25,0.25 0.5,0.25 0.25,0 0.5,-0.25 Q 33.25,7.25 33.625,7.125 34,7 34.5,7 35,7 35.5,7 36,7 36.375,7.125 36.75,7.25 37,7.5 37.25,7.75 37.5,8 37.75,8.25 37.875,8.625 38,9 38,9.5 q 0,0.5 0,1 0,0.5 0,1 0,0.5 -0.125,0.875 Q 37.75,12.75 37.5,13 37.25,13.25 37,13.5 36.75,13.75 36.375,13.875 36,14 35.5,14 35,14 34.5,14 34,14 33.625,13.875 33.25,13.75 33,13.5 q -0.25,-0.25 -0.5,-0.25 -0.25,0 -0.375,0.375 Q 32,14 32,14.5 q 0,0.5 0,1 0,0.5 -0.125,0.875 -0.125,0.375 -0.375,0.375 -0.25,0 -0.375,-0.375 Q 31,16 31,15.5 q 0,-0.5 0,-1 0,-0.5 0,-1 0,-0.5 0,-1 0,-0.5 0,-1 0,-0.5 0,-1 0,-0.5 0,-1 Q 31,9 31,8.5 31,8 31.125,7.625 M 35.5,13 q 0.5,0 0.875,-0.125 0.375,-0.125 0.5,-0.5 Q 37,12 37,11.5 37,11 37,10.5 37,10 37,9.5 37,9 36.875,8.625 36.75,8.25 36.375,8.125 36,8 35.5,8 35,8 34.5,8 34,8 33.625,8.125 33.25,8.25 33,8.5 32.75,8.75 32.5,9 32.25,9.25 32.125,9.625 32,10 32,10.5 32,11 32.125,11.375 32.25,11.75 32.5,12 q 0.25,0.25 0.5,0.5 0.25,0.25 0.625,0.375 Q 34,13 34.5,13 q 0.5,0 1,0"
         style="fill:#ffffff;fill-opacity:1" />
      <path
         id="path4846"
         d="M 41,7.5 Q 41.25,7.25 41.625,7.125 42,7 42.5,7 43,7 43.5,7 44,7 44.5,7 45,7 45.375,7.125 45.75,7.25 46,7.5 46.25,7.75 46.5,8 46.75,8.25 46.875,8.625 47,9 47,9.5 q 0,0.5 -0.125,0.875 -0.125,0.375 -0.5,0.5 Q 46,11 45.5,11 q -0.5,0 -1,0 -0.5,0 -1,0 -0.5,0 -1,0 -0.5,0 -0.875,0.125 -0.375,0.125 -0.5,0.5 -0.125,0.375 0,0.75 0.125,0.375 0.5,0.5 Q 42,13 42.5,13 q 0.5,0 1,0 0.5,0 1,0 0.5,0 0.875,0.125 0.375,0.125 0.375,0.375 0,0.25 -0.375,0.375 Q 45,14 44.5,14 44,14 43.5,14 43,14 42.5,14 42,14 41.625,13.875 41.25,13.75 41,13.5 40.75,13.25 40.5,13 40.25,12.75 40.125,12.375 40,12 40,11.5 40,11 40,10.5 40,10 40,9.5 40,9 40.125,8.625 40.25,8.25 40.5,8 40.75,7.75 41,7.5 M 44.5,10 Q 45,10 45.375,9.875 45.75,9.75 45.875,9.375 46,9 45.875,8.625 45.75,8.25 45.375,8.125 45,8 44.5,8 44,8 43.5,8 43,8 42.5,8 42,8 41.625,8.125 41.25,8.25 41.125,8.625 41,9 41.125,9.375 41.25,9.75 41.625,9.875 42,10 42.5,10 q 0.5,0 1,0 0.5,0 1,0"
         style="fill:#ffffff;fill-opacity:1" />
      <path
         id="path4848"
         d="M 50,7.5 Q 50.25,7.25 50.625,7.125 51,7 51.5,7 52,7 52.5,7 53,7 53.5,7 54,7 54.375,7.125 54.75,7.25 55,7.5 55.25,7.75 55.5,8 55.75,8.25 55.875,8.625 56,9 56,9.5 q 0,0.5 0,1 0,0.5 0,1 0,0.5 -0.125,0.875 Q 55.75,12.75 55.5,13 55.25,13.25 55,13.5 54.75,13.75 54.375,13.875 54,14 53.5,14 53,14 52.5,14 52,14 51.5,14 51,14 50.625,13.875 50.25,13.75 50,13.5 49.75,13.25 49.5,13 49.25,12.75 49.125,12.375 49,12 49,11.5 49,11 49,10.5 49,10 49,9.5 49,9 49.125,8.625 49.25,8.25 49.5,8 49.75,7.75 50,7.5 m 3.5,5.5 q 0.5,0 0.875,-0.125 0.375,-0.125 0.5,-0.5 Q 55,12 55,11.5 55,11 55,10.5 55,10 55,9.5 55,9 54.875,8.625 54.75,8.25 54.375,8.125 54,8 53.5,8 53,8 52.5,8 52,8 51.5,8 51,8 50.625,8.125 50.25,8.25 50.125,8.625 50,9 50,9.5 q 0,0.5 0,1 0,0.5 0,1 0,0.5 0.125,0.875 0.125,0.375 0.5,0.5 Q 51,13 51.5,13 q 0.5,0 1,0 0.5,0 1,0"
         style="fill:#ffffff;fill-opacity:1" />
      <path
         id="path4850"
         d="M 58.125,7.625 Q 58.25,7.25 58.5,7.25 q 0.25,0 0.5,0.25 0.25,0.25 0.5,0.25 0.25,0 0.5,-0.25 Q 60.25,7.25 60.625,7.125 61,7 61.5,7 62,7 62.5,7 63,7 63.375,7.125 63.75,7.25 64,7.5 64.25,7.75 64.5,8 64.75,8.25 64.875,8.625 65,9 65,9.5 q 0,0.5 0,1 0,0.5 0,1 0,0.5 -0.125,0.875 Q 64.75,12.75 64.5,13 64.25,13.25 64,13.5 63.75,13.75 63.375,13.875 63,14 62.5,14 62,14 61.5,14 61,14 60.625,13.875 60.25,13.75 60,13.5 q -0.25,-0.25 -0.5,-0.25 -0.25,0 -0.375,0.375 Q 59,14 59,14.5 q 0,0.5 0,1 0,0.5 -0.125,0.875 -0.125,0.375 -0.375,0.375 -0.25,0 -0.375,-0.375 Q 58,16 58,15.5 q 0,-0.5 0,-1 0,-0.5 0,-1 0,-0.5 0,-1 0,-0.5 0,-1 0,-0.5 0,-1 0,-0.5 0,-1 Q 58,9 58,8.5 58,8 58.125,7.625 M 62.5,13 q 0.5,0 0.875,-0.125 0.375,-0.125 0.5,-0.5 Q 64,12 64,11.5 64,11 64,10.5 64,10 64,9.5 64,9 63.875,8.625 63.75,8.25 63.375,8.125 63,8 62.5,8 62,8 61.5,8 61,8 60.625,8.125 60.25,8.25 60,8.5 59.75,8.75 59.5,9 59.25,9.25 59.125,9.625 59,10 59,10.5 59,11 59.125,11.375 59.25,11.75 59.5,12 q 0.25,0.25 0.5,0.5 0.25,0.25 0.625,0.375 Q 61,13 61.5,13 q 0.5,0 1,0"
         style="fill:#ffffff;fill-opacity:1" />
      <path
         id="path4852"
         d="M 77,7.5 Q 77.25,7.25 77.625,7.125 78,7 78.5,7 79,7 79.5,7 80,7 80.5,7 81,7 81.375,7.125 81.75,7.25 82,7.5 82.25,7.75 82.5,8 82.75,8.25 82.875,8.625 83,9 83,9.5 q 0,0.5 -0.125,0.875 -0.125,0.375 -0.5,0.5 Q 82,11 81.5,11 q -0.5,0 -1,0 -0.5,0 -1,0 -0.5,0 -1,0 -0.5,0 -0.875,0.125 -0.375,0.125 -0.5,0.5 -0.125,0.375 0,0.75 0.125,0.375 0.5,0.5 Q 78,13 78.5,13 q 0.5,0 1,0 0.5,0 1,0 0.5,0 0.875,0.125 0.375,0.125 0.375,0.375 0,0.25 -0.375,0.375 Q 81,14 80.5,14 80,14 79.5,14 79,14 78.5,14 78,14 77.625,13.875 77.25,13.75 77,13.5 76.75,13.25 76.5,13 76.25,12.75 76.125,12.375 76,12 76,11.5 76,11 76,10.5 76,10 76,9.5 76,9 76.125,8.625 76.25,8.25 76.5,8 76.75,7.75 77,7.5 M 80.5,10 Q 81,10 81.375,9.875 81.75,9.75 81.875,9.375 82,9 81.875,8.625 81.75,8.25 81.375,8.125 81,8 80.5,8 80,8 79.5,8 79,8 78.5,8 78,8 77.625,8.125 77.25,8.25 77.125,8.625 77,9 77.125,9.375 77.25,9.75 77.625,9.875 78,10 78.5,10 q 0.5,0 1,0 0.5,0 1,0"
         style="fill:#ffffff;fill-opacity:1" />
      <path
         id="path4854"
         d="M 33,8.5 Q 33.25,8.25 33.625,8.125 34,8 34.5,8 q 0.5,0 1,0 0.5,0 0.875,0.125 0.375,0.125 0.5,0.5 Q 37,9 37,9.5 q 0,0.5 0,1 0,0.5 0,1 0,0.5 -0.125,0.875 -0.125,0.375 -0.5,0.5 Q 36,13 35.5,13 35,13 34.5,13 34,13 33.625,12.875 33.25,12.75 33,12.5 32.75,12.25 32.5,12 32.25,11.75 32.125,11.375 32,11 32,10.5 32,10 32.125,9.625 32.25,9.25 32.5,9 32.75,8.75 33,8.5"
         style="fill:#000000;fill-opacity:0" />
      <path
         id="path4856"
         d="M 41.125,8.625 Q 41.25,8.25 41.625,8.125 42,8 42.5,8 q 0.5,0 1,0 0.5,0 1,0 0.5,0 0.875,0.125 0.375,0.125 0.5,0.5 0.125,0.375 0,0.75 -0.125,0.375 -0.5,0.5 Q 45,10 44.5,10 44,10 43.5,10 43,10 42.5,10 42,10 41.625,9.875 41.25,9.75 41.125,9.375 41,9 41.125,8.625"
         style="fill:#000000;fill-opacity:0" />
      <path
         id="path4858"
         d="M 50.125,8.625 Q 50.25,8.25 50.625,8.125 51,8 51.5,8 q 0.5,0 1,0 0.5,0 1,0 0.5,0 0.875,0.125 0.375,0.125 0.5,0.5 Q 55,9 55,9.5 q 0,0.5 0,1 0,0.5 0,1 0,0.5 -0.125,0.875 -0.125,0.375 -0.5,0.5 Q 54,13 53.5,13 q -0.5,0 -1,0 -0.5,0 -1,0 -0.5,0 -0.875,-0.125 -0.375,-0.125 -0.5,-0.5 Q 50,12 50,11.5 50,11 50,10.5 50,10 50,9.5 50,9 50.125,8.625"
         style="fill:#000000;fill-opacity:0" />
      <path
         id="path4860"
         d="M 60,8.5 Q 60.25,8.25 60.625,8.125 61,8 61.5,8 q 0.5,0 1,0 0.5,0 0.875,0.125 0.375,0.125 0.5,0.5 Q 64,9 64,9.5 q 0,0.5 0,1 0,0.5 0,1 0,0.5 -0.125,0.875 -0.125,0.375 -0.5,0.5 Q 63,13 62.5,13 62,13 61.5,13 61,13 60.625,12.875 60.25,12.75 60,12.5 59.75,12.25 59.5,12 59.25,11.75 59.125,11.375 59,11 59,10.5 59,10 59.125,9.625 59.25,9.25 59.5,9 59.75,8.75 60,8.5"
         style="fill:#000000;fill-opacity:0" />
      <path
         id="path4862"
         d="M 77.125,8.625 Q 77.25,8.25 77.625,8.125 78,8 78.5,8 q 0.5,0 1,0 0.5,0 1,0 0.5,0 0.875,0.125 0.375,0.125 0.5,0.5 0.125,0.375 0,0.75 -0.125,0.375 -0.5,0.5 Q 81,10 80.5,10 80,10 79.5,10 79,10 78.5,10 78,10 77.625,9.875 77.25,9.75 77.125,9.375 77,9 77.125,8.625"
         style="fill:#000000;fill-opacity:0" />
      <path
         id="path4864"
         d="m 86.25,19.5 q 0,-0.25 0.375,-0.375 Q 87,19 87.5,19 q 0.5,0 0.875,0.125 0.375,0.125 0.5,0.5 Q 89,20 89,20.5 q 0,0.5 0,1 0,0.5 0,1 0,0.5 0,1 0,0.5 0,1 0,0.5 0,1 0,0.5 0,1 0,0.5 0.125,0.875 0.125,0.375 0.5,0.5 0.375,0.125 0.75,0.25 0.375,0.125 0.375,0.375 0,0.25 -0.375,0.375 Q 90,29 89.5,29 89,29 88.5,29 88,29 87.5,29 87,29 86.625,28.875 86.25,28.75 86.25,28.5 q 0,-0.25 0.375,-0.375 Q 87,28 87.375,27.875 87.75,27.75 87.875,27.375 88,27 88,26.5 q 0,-0.5 0,-1 0,-0.5 0,-1 0,-0.5 0,-1 0,-0.5 0,-1 0,-0.5 0,-1 0,-0.5 -0.125,-0.875 -0.125,-0.375 -0.5,-0.5 Q 87,20 86.625,19.875 86.25,19.75 86.25,19.5"
         style="fill:#ffffff;fill-opacity:1" />
      <path
         id="path4866"
         d="m 95.25,19.5 q 0,-0.25 0.375,-0.375 Q 96,19 96.5,19 q 0.5,0 0.875,0.125 0.375,0.125 0.5,0.5 Q 98,20 98,20.5 q 0,0.5 0,1 0,0.5 0,1 0,0.5 0,1 0,0.5 0,1 0,0.5 0,1 0,0.5 0,1 0,0.5 0.125,0.875 0.125,0.375 0.5,0.5 0.375,0.125 0.75,0.25 0.375,0.125 0.375,0.375 0,0.25 -0.375,0.375 Q 99,29 98.5,29 98,29 97.5,29 97,29 96.5,29 96,29 95.625,28.875 95.25,28.75 95.25,28.5 q 0,-0.25 0.375,-0.375 Q 96,28 96.375,27.875 96.75,27.75 96.875,27.375 97,27 97,26.5 q 0,-0.5 0,-1 0,-0.5 0,-1 0,-0.5 0,-1 0,-0.5 0,-1 0,-0.5 0,-1 0,-0.5 -0.125,-0.875 -0.125,-0.375 -0.5,-0.5 Q 96,20 95.625,19.875 95.25,19.75 95.25,19.5"
         style="fill:#ffffff;fill-opacity:1" />
      <path
         id="path4868"
         d="M 5,22.5 Q 5.25,22.25 5.625,22.125 6,22 6.5,22 7,22 7.5,22 8,22 8.5,22 9,22 9.375,22.125 9.75,22.25 10,22.5 q 0.25,0.25 0.5,0.5 0.25,0.25 0.25,0.5 0,0.25 -0.25,0.25 -0.25,0 -0.5,-0.25 Q 9.75,23.25 9.375,23.125 9,23 8.5,23 8,23 7.5,23 7,23 6.5,23 6,23 5.625,23.125 5.25,23.25 5.125,23.625 5,24 5,24.5 q 0,0.5 0,1 0,0.5 0,1 0,0.5 0.125,0.875 0.125,0.375 0.5,0.5 Q 6,28 6.5,28 7,28 7.5,28 8,28 8.5,28 9,28 9.375,27.875 9.75,27.75 10,27.5 q 0.25,-0.25 0.5,-0.25 0.25,0 0.25,0.25 0,0.25 -0.25,0.5 Q 10.25,28.25 10,28.5 9.75,28.75 9.375,28.875 9,29 8.5,29 8,29 7.5,29 7,29 6.5,29 6,29 5.625,28.875 5.25,28.75 5,28.5 4.75,28.25 4.5,28 4.25,27.75 4.125,27.375 4,27 4,26.5 4,26 4,25.5 4,25 4,24.5 4,24 4.125,23.625 4.25,23.25 4.5,23 4.75,22.75 5,22.5"
         style="fill:#ffffff;fill-opacity:1" />
      <path
         id="path4870"
         d="M 14,22.5 Q 14.25,22.25 14.625,22.125 15,22 15.5,22 q 0.5,0 1,0 0.5,0 1,0 0.5,0 0.875,0.125 0.375,0.125 0.625,0.375 0.25,0.25 0.5,0.5 0.25,0.25 0.375,0.625 Q 20,24 20,24.5 q 0,0.5 0,1 0,0.5 0,1 0,0.5 -0.125,0.875 Q 19.75,27.75 19.5,28 19.25,28.25 19,28.5 18.75,28.75 18.375,28.875 18,29 17.5,29 17,29 16.5,29 16,29 15.5,29 15,29 14.625,28.875 14.25,28.75 14,28.5 13.75,28.25 13.5,28 13.25,27.75 13.125,27.375 13,27 13,26.5 13,26 13,25.5 13,25 13,24.5 13,24 13.125,23.625 13.25,23.25 13.5,23 13.75,22.75 14,22.5 m 3.5,5.5 q 0.5,0 0.875,-0.125 0.375,-0.125 0.5,-0.5 Q 19,27 19,26.5 q 0,-0.5 0,-1 0,-0.5 0,-1 0,-0.5 -0.125,-0.875 -0.125,-0.375 -0.5,-0.5 Q 18,23 17.5,23 q -0.5,0 -1,0 -0.5,0 -1,0 -0.5,0 -0.875,0.125 -0.375,0.125 -0.5,0.5 Q 14,24 14,24.5 q 0,0.5 0,1 0,0.5 0,1 0,0.5 0.125,0.875 0.125,0.375 0.5,0.5 Q 15,28 15.5,28 q 0.5,0 1,0 0.5,0 1,0"
         style="fill:#ffffff;fill-opacity:1" />
      <path
         id="path4872"
         d="M 22.125,22.625 Q 22.25,22.25 22.5,22.25 q 0.25,0 0.5,0.25 0.25,0.25 0.5,0.25 0.25,0 0.5,-0.25 0.25,-0.25 0.625,-0.375 Q 25,22 25.5,22 q 0.5,0 1,0 0.5,0 0.875,0.125 0.375,0.125 0.625,0.375 0.25,0.25 0.5,0.5 0.25,0.25 0.375,0.625 Q 29,24 29,24.5 q 0,0.5 0,1 0,0.5 0,1 0,0.5 0,1 0,0.5 -0.125,0.875 -0.125,0.375 -0.375,0.375 -0.25,0 -0.375,-0.375 Q 28,28 28,27.5 q 0,-0.5 0,-1 0,-0.5 0,-1 0,-0.5 0,-1 0,-0.5 -0.125,-0.875 -0.125,-0.375 -0.5,-0.5 Q 27,23 26.5,23 26,23 25.5,23 25,23 24.625,23.125 24.25,23.25 24,23.5 23.75,23.75 23.5,24 23.25,24.25 23.125,24.625 23,25 23,25.5 q 0,0.5 0,1 0,0.5 0,1 0,0.5 -0.125,0.875 -0.125,0.375 -0.375,0.375 -0.25,0 -0.375,-0.375 Q 22,28 22,27.5 q 0,-0.5 0,-1 0,-0.5 0,-1 0,-0.5 0,-1 0,-0.5 0,-1 0,-0.5 0.125,-0.875"
         style="fill:#ffffff;fill-opacity:1" />
      <path
         id="path4874"
         d="M 32,22.5 Q 32.25,22.25 32.625,22.125 33,22 33.5,22 q 0.5,0 1,0 0.5,0 1,0 0.5,0 0.875,0.125 0.375,0.125 0.625,0.375 0.25,0.25 0.5,0.5 0.25,0.25 0.25,0.5 0,0.25 -0.25,0.25 -0.25,0 -0.5,-0.25 Q 36.75,23.25 36.375,23.125 36,23 35.5,23 q -0.5,0 -1,0 -0.5,0 -1,0 -0.5,0 -0.875,0.125 -0.375,0.125 -0.5,0.5 -0.125,0.375 0,0.75 0.125,0.375 0.5,0.5 Q 33,25 33.5,25 q 0.5,0 1,0 0.5,0 1,0 0.5,0 0.875,0.125 0.375,0.125 0.625,0.375 0.25,0.25 0.5,0.5 0.25,0.25 0.375,0.625 0.125,0.375 0,0.75 Q 37.75,27.75 37.5,28 37.25,28.25 37,28.5 36.75,28.75 36.375,28.875 36,29 35.5,29 35,29 34.5,29 34,29 33.5,29 33,29 32.625,28.875 32.25,28.75 32,28.5 31.75,28.25 31.5,28 q -0.25,-0.25 -0.25,-0.5 0,-0.25 0.25,-0.25 0.25,0 0.5,0.25 0.25,0.25 0.625,0.375 Q 33,28 33.5,28 q 0.5,0 1,0 0.5,0 1,0 0.5,0 0.875,-0.125 0.375,-0.125 0.5,-0.5 0.125,-0.375 0,-0.75 -0.125,-0.375 -0.5,-0.5 Q 36,26 35.5,26 35,26 34.5,26 34,26 33.5,26 33,26 32.625,25.875 32.25,25.75 32,25.5 31.75,25.25 31.5,25 31.25,24.75 31.125,24.375 31,24 31.125,23.625 31.25,23.25 31.5,23 31.75,22.75 32,22.5"
         style="fill:#ffffff;fill-opacity:1" />
      <path
         id="path4876"
         d="M 41,22.5 Q 41.25,22.25 41.625,22.125 42,22 42.5,22 q 0.5,0 1,0 0.5,0 1,0 0.5,0 0.875,0.125 0.375,0.125 0.625,0.375 0.25,0.25 0.5,0.5 0.25,0.25 0.375,0.625 Q 47,24 47,24.5 q 0,0.5 -0.125,0.875 -0.125,0.375 -0.5,0.5 Q 46,26 45.5,26 q -0.5,0 -1,0 -0.5,0 -1,0 -0.5,0 -1,0 -0.5,0 -0.875,0.125 -0.375,0.125 -0.5,0.5 -0.125,0.375 0,0.75 0.125,0.375 0.5,0.5 Q 42,28 42.5,28 q 0.5,0 1,0 0.5,0 1,0 0.5,0 0.875,0.125 0.375,0.125 0.375,0.375 0,0.25 -0.375,0.375 Q 45,29 44.5,29 44,29 43.5,29 43,29 42.5,29 42,29 41.625,28.875 41.25,28.75 41,28.5 40.75,28.25 40.5,28 40.25,27.75 40.125,27.375 40,27 40,26.5 40,26 40,25.5 40,25 40,24.5 40,24 40.125,23.625 40.25,23.25 40.5,23 40.75,22.75 41,22.5 m 3.5,2.5 q 0.5,0 0.875,-0.125 0.375,-0.125 0.5,-0.5 0.125,-0.375 0,-0.75 -0.125,-0.375 -0.5,-0.5 Q 45,23 44.5,23 q -0.5,0 -1,0 -0.5,0 -1,0 -0.5,0 -0.875,0.125 -0.375,0.125 -0.5,0.5 -0.125,0.375 0,0.75 0.125,0.375 0.5,0.5 Q 42,25 42.5,25 q 0.5,0 1,0 0.5,0 1,0"
         style="fill:#ffffff;fill-opacity:1" />
      <path
         id="path4878"
         d="M 49.125,22.625 Q 49.25,22.25 49.5,22.25 q 0.25,0 0.5,0.25 0.25,0.25 0.5,0.25 0.25,0 0.5,-0.25 0.25,-0.25 0.625,-0.375 Q 52,22 52.5,22 q 0.5,0 1,0 0.5,0 0.875,0.125 0.375,0.125 0.625,0.375 0.25,0.25 0.5,0.5 0.25,0.25 0.375,0.625 Q 56,24 56,24.5 q 0,0.5 0,1 0,0.5 0,1 0,0.5 0,1 0,0.5 -0.125,0.875 -0.125,0.375 -0.375,0.375 -0.25,0 -0.375,-0.375 Q 55,28 55,27.5 q 0,-0.5 0,-1 0,-0.5 0,-1 0,-0.5 0,-1 0,-0.5 -0.125,-0.875 -0.125,-0.375 -0.5,-0.5 Q 54,23 53.5,23 53,23 52.5,23 52,23 51.625,23.125 51.25,23.25 51,23.5 50.75,23.75 50.5,24 50.25,24.25 50.125,24.625 50,25 50,25.5 q 0,0.5 0,1 0,0.5 0,1 0,0.5 -0.125,0.875 -0.125,0.375 -0.375,0.375 -0.25,0 -0.375,-0.375 Q 49,28 49,27.5 q 0,-0.5 0,-1 0,-0.5 0,-1 0,-0.5 0,-1 0,-0.5 0,-1 0,-0.5 0.125,-0.875"
         style="fill:#ffffff;fill-opacity:1" />
      <path
         id="path4880"
         d="M 59,22.5 Q 59.25,22.25 59.625,22.125 60,22 60.5,22 q 0.5,0 1,0 0.5,0 1,0 0.5,0 0.875,0.125 0.375,0.125 0.625,0.375 0.25,0.25 0.5,0.5 0.25,0.25 0.25,0.5 0,0.25 -0.25,0.25 -0.25,0 -0.5,-0.25 Q 63.75,23.25 63.375,23.125 63,23 62.5,23 q -0.5,0 -1,0 -0.5,0 -1,0 -0.5,0 -0.875,0.125 -0.375,0.125 -0.5,0.5 -0.125,0.375 0,0.75 0.125,0.375 0.5,0.5 Q 60,25 60.5,25 q 0.5,0 1,0 0.5,0 1,0 0.5,0 0.875,0.125 0.375,0.125 0.625,0.375 0.25,0.25 0.5,0.5 0.25,0.25 0.375,0.625 0.125,0.375 0,0.75 Q 64.75,27.75 64.5,28 64.25,28.25 64,28.5 63.75,28.75 63.375,28.875 63,29 62.5,29 62,29 61.5,29 61,29 60.5,29 60,29 59.625,28.875 59.25,28.75 59,28.5 58.75,28.25 58.5,28 q -0.25,-0.25 -0.25,-0.5 0,-0.25 0.25,-0.25 0.25,0 0.5,0.25 0.25,0.25 0.625,0.375 Q 60,28 60.5,28 q 0.5,0 1,0 0.5,0 1,0 0.5,0 0.875,-0.125 0.375,-0.125 0.5,-0.5 0.125,-0.375 0,-0.75 -0.125,-0.375 -0.5,-0.5 Q 63,26 62.5,26 62,26 61.5,26 61,26 60.5,26 60,26 59.625,25.875 59.25,25.75 59,25.5 58.75,25.25 58.5,25 58.25,24.75 58.125,24.375 58,24 58.125,23.625 58.25,23.25 58.5,23 58.75,22.75 59,22.5"
         style="fill:#ffffff;fill-opacity:1" />
      <path
         id="path4882"
         d="M 67.125,22.625 Q 67.25,22.25 67.5,22.25 q 0.25,0 0.375,0.375 Q 68,23 68,23.5 q 0,0.5 0,1 0,0.5 0,1 0,0.5 0,1 0,0.5 0.125,0.875 0.125,0.375 0.5,0.5 Q 69,28 69.5,28 q 0.5,0 1,0 0.5,0 0.875,-0.125 0.375,-0.125 0.5,-0.5 Q 72,27 72,26.5 q 0,-0.5 0,-1 0,-0.5 0,-1 0,-0.5 0,-1 0,-0.5 0.125,-0.875 0.125,-0.375 0.375,-0.375 0.25,0 0.375,0.375 Q 73,23 73,23.5 q 0,0.5 0,1 0,0.5 0,1 0,0.5 0,1 0,0.5 0.125,0.875 0.125,0.375 0.375,0.625 0.25,0.25 0.25,0.5 0,0.25 -0.25,0.25 -0.25,0 -0.5,-0.25 -0.25,-0.25 -0.5,-0.25 -0.25,0 -0.5,0.25 -0.25,0.25 -0.625,0.375 Q 71,29 70.5,29 70,29 69.5,29 69,29 68.625,28.875 68.25,28.75 68,28.5 67.75,28.25 67.5,28 67.25,27.75 67.125,27.375 67,27 67,26.5 q 0,-0.5 0,-1 0,-0.5 0,-1 0,-0.5 0,-1 0,-0.5 0.125,-0.875"
         style="fill:#ffffff;fill-opacity:1" />
      <path
         id="path4884"
         d="m 77.25,22.5 q 0,-0.25 0.375,-0.375 Q 78,22 78.5,22 q 0.5,0 1,0 0.5,0 1,0 0.5,0 0.875,0.125 0.375,0.125 0.625,0.375 0.25,0.25 0.5,0.5 0.25,0.25 0.375,0.625 Q 83,24 83,24.5 q 0,0.5 0,1 0,0.5 0,1 0,0.5 0,1 0,0.5 -0.125,0.875 -0.125,0.375 -0.375,0.375 -0.25,0 -0.5,-0.25 -0.25,-0.25 -0.5,-0.25 -0.25,0 -0.5,0.25 -0.25,0.25 -0.625,0.375 Q 80,29 79.5,29 79,29 78.5,29 78,29 77.625,28.875 77.25,28.75 77,28.5 76.75,28.25 76.5,28 76.25,27.75 76.125,27.375 76,27 76.125,26.625 76.25,26.25 76.5,26 76.75,25.75 77,25.5 77.25,25.25 77.625,25.125 78,25 78.5,25 q 0.5,0 1,0 0.5,0 1,0 0.5,0 0.875,-0.125 0.375,-0.125 0.5,-0.5 0.125,-0.375 0,-0.75 -0.125,-0.375 -0.5,-0.5 Q 81,23 80.5,23 80,23 79.5,23 79,23 78.5,23 78,23 77.625,22.875 77.25,22.75 77.25,22.5 M 79.5,28 Q 80,28 80.375,27.875 80.75,27.75 81,27.5 q 0.25,-0.25 0.5,-0.5 0.25,-0.25 0.25,-0.5 0,-0.25 -0.375,-0.375 Q 81,26 80.5,26 q -0.5,0 -1,0 -0.5,0 -1,0 -0.5,0 -0.875,0.125 -0.375,0.125 -0.5,0.5 -0.125,0.375 0,0.75 0.125,0.375 0.5,0.5 Q 78,28 78.5,28 q 0.5,0 1,0"
         style="fill:#ffffff;fill-opacity:1" />
      <path
         id="path4886"
         d="m 103.125,22.625 q 0.125,-0.375 0.375,-0.375 0.25,0 0.375,0.375 Q 104,23 104,23.5 q 0,0.5 0,1 0,0.5 0,1 0,0.5 0,1 0,0.5 0.125,0.875 0.125,0.375 0.5,0.5 Q 105,28 105.5,28 106,28 106.375,27.875 106.75,27.75 107,27.5 q 0.25,-0.25 0.5,-0.5 0.25,-0.25 0.375,-0.625 Q 108,26 108,25.5 q 0,-0.5 0,-1 0,-0.5 0,-1 0,-0.5 0.125,-0.875 0.125,-0.375 0.375,-0.375 0.25,0 0.375,0.375 Q 109,23 109,23.5 q 0,0.5 0,1 0,0.5 0,1 0,0.5 0,1 0,0.5 0,1 0,0.5 0,1 0,0.5 0,1 0,0.5 -0.125,0.875 -0.125,0.375 -0.375,0.625 -0.25,0.25 -0.5,0.5 -0.25,0.25 -0.625,0.375 Q 107,32 106.5,32 q -0.5,0 -1,0 -0.5,0 -0.875,-0.125 Q 104.25,31.75 104,31.5 q -0.25,-0.25 -0.5,-0.5 -0.25,-0.25 -0.25,-0.5 0,-0.25 0.25,-0.25 0.25,0 0.5,0.25 0.25,0.25 0.625,0.375 Q 105,31 105.5,31 q 0.5,0 1,0 0.5,0 0.875,-0.125 0.375,-0.125 0.5,-0.5 Q 108,30 108,29.5 108,29 107.875,28.625 107.75,28.25 107.5,28.25 q -0.25,0 -0.5,0.25 -0.25,0.25 -0.625,0.375 Q 106,29 105.5,29 105,29 104.625,28.875 104.25,28.75 104,28.5 103.75,28.25 103.5,28 103.25,27.75 103.125,27.375 103,27 103,26.5 q 0,-0.5 0,-1 0,-0.5 0,-1 0,-0.5 0,-1 0,-0.5 0.125,-0.875"
         style="fill:#ffffff;fill-opacity:1" />
      <path
         id="path4888"
         d="m 14.125,23.625 q 0.125,-0.375 0.5,-0.5 Q 15,23 15.5,23 q 0.5,0 1,0 0.5,0 1,0 0.5,0 0.875,0.125 0.375,0.125 0.5,0.5 Q 19,24 19,24.5 q 0,0.5 0,1 0,0.5 0,1 0,0.5 -0.125,0.875 -0.125,0.375 -0.5,0.5 Q 18,28 17.5,28 q -0.5,0 -1,0 -0.5,0 -1,0 -0.5,0 -0.875,-0.125 -0.375,-0.125 -0.5,-0.5 Q 14,27 14,26.5 q 0,-0.5 0,-1 0,-0.5 0,-1 0,-0.5 0.125,-0.875"
         style="fill:#000000;fill-opacity:0" />
      <path
         id="path4890"
         d="m 41.125,23.625 q 0.125,-0.375 0.5,-0.5 Q 42,23 42.5,23 q 0.5,0 1,0 0.5,0 1,0 0.5,0 0.875,0.125 0.375,0.125 0.5,0.5 0.125,0.375 0,0.75 -0.125,0.375 -0.5,0.5 Q 45,25 44.5,25 q -0.5,0 -1,0 -0.5,0 -1,0 -0.5,0 -0.875,-0.125 -0.375,-0.125 -0.5,-0.5 -0.125,-0.375 0,-0.75"
         style="fill:#000000;fill-opacity:0" />
      <path
         id="path4892"
         d="m 77.125,26.625 q 0.125,-0.375 0.5,-0.5 Q 78,26 78.5,26 q 0.5,0 1,0 0.5,0 1,0 0.5,0 0.875,0.125 0.375,0.125 0.375,0.375 0,0.25 -0.25,0.5 -0.25,0.25 -0.5,0.5 -0.25,0.25 -0.625,0.375 Q 80,28 79.5,28 79,28 78.5,28 78,28 77.625,27.875 77.25,27.75 77.125,27.375 77,27 77.125,26.625"
         style="fill:#000000;fill-opacity:0" />
      <path
         id="path4894"
         d="M 10.125,34.625 Q 10.25,34.25 10.5,34.25 q 0.25,0 0.375,0.375 Q 11,35 11,35.5 q 0,0.5 0,1 0,0.5 0,1 0,0.5 0,1 0,0.5 0,1 0,0.5 0,1 0,0.5 0,1 0,0.5 0,1 0,0.5 -0.125,0.875 Q 10.75,43.75 10.5,43.75 10.25,43.75 10,43.5 9.75,43.25 9.5,43.25 9.25,43.25 9,43.5 8.75,43.75 8.375,43.875 8,44 7.5,44 7,44 6.5,44 6,44 5.625,43.875 5.25,43.75 5,43.5 4.75,43.25 4.5,43 4.25,42.75 4.125,42.375 4,42 4,41.5 4,41 4,40.5 4,40 4,39.5 4,39 4.125,38.625 4.25,38.25 4.5,38 4.75,37.75 5,37.5 5.25,37.25 5.625,37.125 6,37 6.5,37 7,37 7.5,37 8,37 8.375,37.125 8.75,37.25 9,37.5 q 0.25,0.25 0.5,0.25 0.25,0 0.375,-0.375 Q 10,37 10,36.5 10,36 10,35.5 10,35 10.125,34.625 M 7.5,43 Q 8,43 8.375,42.875 8.75,42.75 9,42.5 9.25,42.25 9.5,42 9.75,41.75 9.875,41.375 10,41 10,40.5 10,40 9.875,39.625 9.75,39.25 9.5,39 9.25,38.75 9,38.5 8.75,38.25 8.375,38.125 8,38 7.5,38 7,38 6.5,38 6,38 5.625,38.125 5.25,38.25 5.125,38.625 5,39 5,39.5 q 0,0.5 0,1 0,0.5 0,1 0,0.5 0.125,0.875 0.125,0.375 0.5,0.5 Q 6,43 6.5,43 q 0.5,0 1,0"
         style="fill:#ffffff;fill-opacity:1" />
      <path
         id="path4896"
         d="m 24.25,34.5 q 0,-0.25 0.375,-0.375 0.375,-0.125 0.75,0 0.375,0.125 0.375,0.375 0,0.25 -0.375,0.375 Q 25,35 24.625,34.875 24.25,34.75 24.25,34.5"
         style="fill:#ffffff;fill-opacity:1" />
      <path
         id="path4898"
         d="M 67.125,34.625 Q 67.25,34.25 67.5,34.25 q 0.25,0 0.375,0.375 Q 68,35 68,35.5 q 0,0.5 0,1 0,0.5 0.125,0.875 0.125,0.375 0.375,0.375 0.25,0 0.5,-0.25 0.25,-0.25 0.625,-0.375 Q 70,37 70.5,37 q 0.5,0 1,0 0.5,0 0.875,0.125 0.375,0.125 0.625,0.375 0.25,0.25 0.5,0.5 0.25,0.25 0.375,0.625 Q 74,39 74,39.5 q 0,0.5 0,1 0,0.5 0,1 0,0.5 0,1 0,0.5 -0.125,0.875 -0.125,0.375 -0.375,0.375 -0.25,0 -0.375,-0.375 Q 73,43 73,42.5 q 0,-0.5 0,-1 0,-0.5 0,-1 0,-0.5 0,-1 0,-0.5 -0.125,-0.875 -0.125,-0.375 -0.5,-0.5 Q 72,38 71.5,38 71,38 70.5,38 70,38 69.625,38.125 69.25,38.25 69,38.5 68.75,38.75 68.5,39 68.25,39.25 68.125,39.625 68,40 68,40.5 q 0,0.5 0,1 0,0.5 0,1 0,0.5 -0.125,0.875 -0.125,0.375 -0.375,0.375 -0.25,0 -0.375,-0.375 Q 67,43 67,42.5 q 0,-0.5 0,-1 0,-0.5 0,-1 0,-0.5 0,-1 0,-0.5 0,-1 0,-0.5 0,-1 0,-0.5 0,-1 0,-0.5 0,-1 0,-0.5 0.125,-0.875"
         style="fill:#ffffff;fill-opacity:1" />
      <path
         id="path4900"
         d="m 78.25,34.5 q 0,-0.25 0.375,-0.375 0.375,-0.125 0.75,0 0.375,0.125 0.375,0.375 0,0.25 -0.375,0.375 Q 79,35 78.625,34.875 78.25,34.75 78.25,34.5"
         style="fill:#ffffff;fill-opacity:1" />
      <path
         id="path4902"
         d="M 60.125,35.625 Q 60.25,35.25 60.5,35.25 q 0.25,0 0.375,0.375 0.125,0.375 0.25,0.75 0.125,0.375 0.5,0.5 Q 62,37 62.5,37 q 0.5,0 0.875,0.125 0.375,0.125 0.375,0.375 0,0.25 -0.375,0.375 Q 63,38 62.5,38 62,38 61.625,38.125 61.25,38.25 61.125,38.625 61,39 61,39.5 q 0,0.5 0,1 0,0.5 0,1 0,0.5 0.125,0.875 0.125,0.375 0.5,0.5 Q 62,43 62.5,43 63,43 63.375,42.875 63.75,42.75 64,42.5 q 0.25,-0.25 0.5,-0.25 0.25,0 0.25,0.25 0,0.25 -0.25,0.5 -0.25,0.25 -0.5,0.5 -0.25,0.25 -0.625,0.375 Q 63,44 62.5,44 62,44 61.625,43.875 61.25,43.75 61,43.5 60.75,43.25 60.5,43 60.25,42.75 60.125,42.375 60,42 60,41.5 q 0,-0.5 0,-1 0,-0.5 0,-1 0,-0.5 -0.125,-0.875 -0.125,-0.375 -0.5,-0.5 Q 59,38 58.625,37.875 58.25,37.75 58.25,37.5 q 0,-0.25 0.375,-0.375 Q 59,37 59.375,36.875 59.75,36.75 59.875,36.375 60,36 60.125,35.625"
         style="fill:#ffffff;fill-opacity:1" />
      <path
         id="path4904"
         d="M 14,37.5 Q 14.25,37.25 14.625,37.125 15,37 15.5,37 q 0.5,0 1,0 0.5,0 1,0 0.5,0 0.875,0.125 0.375,0.125 0.625,0.375 0.25,0.25 0.5,0.5 0.25,0.25 0.375,0.625 Q 20,39 20,39.5 q 0,0.5 0,1 0,0.5 0,1 0,0.5 -0.125,0.875 Q 19.75,42.75 19.5,43 19.25,43.25 19,43.5 18.75,43.75 18.375,43.875 18,44 17.5,44 17,44 16.5,44 16,44 15.5,44 15,44 14.625,43.875 14.25,43.75 14,43.5 13.75,43.25 13.5,43 13.25,42.75 13.125,42.375 13,42 13,41.5 13,41 13,40.5 13,40 13,39.5 13,39 13.125,38.625 13.25,38.25 13.5,38 13.75,37.75 14,37.5 m 3.5,5.5 q 0.5,0 0.875,-0.125 0.375,-0.125 0.5,-0.5 Q 19,42 19,41.5 q 0,-0.5 0,-1 0,-0.5 0,-1 0,-0.5 -0.125,-0.875 -0.125,-0.375 -0.5,-0.5 Q 18,38 17.5,38 q -0.5,0 -1,0 -0.5,0 -1,0 -0.5,0 -0.875,0.125 -0.375,0.125 -0.5,0.5 Q 14,39 14,39.5 q 0,0.5 0,1 0,0.5 0,1 0,0.5 0.125,0.875 0.125,0.375 0.5,0.5 Q 15,43 15.5,43 q 0.5,0 1,0 0.5,0 1,0"
         style="fill:#ffffff;fill-opacity:1" />
      <path
         id="path4906"
         d="m 23.25,37.5 q 0,-0.25 0.375,-0.375 Q 24,37 24.5,37 q 0.5,0 0.875,0.125 0.375,0.125 0.5,0.5 Q 26,38 26,38.5 q 0,0.5 0,1 0,0.5 0,1 0,0.5 0,1 0,0.5 0.125,0.875 0.125,0.375 0.5,0.5 0.375,0.125 0.75,0.25 0.375,0.125 0.375,0.375 0,0.25 -0.375,0.375 Q 27,44 26.5,44 26,44 25.5,44 25,44 24.5,44 24,44 23.625,43.875 23.25,43.75 23.25,43.5 q 0,-0.25 0.375,-0.375 Q 24,43 24.375,42.875 24.75,42.75 24.875,42.375 25,42 25,41.5 q 0,-0.5 0,-1 0,-0.5 0,-1 0,-0.5 -0.125,-0.875 -0.125,-0.375 -0.5,-0.5 Q 24,38 23.625,37.875 23.25,37.75 23.25,37.5"
         style="fill:#ffffff;fill-opacity:1" />
      <path
         id="path4908"
         d="M 31.125,37.625 Q 31.25,37.25 31.5,37.25 q 0.25,0 0.5,0.25 0.25,0.25 0.5,0.25 0.25,0 0.5,-0.25 0.25,-0.25 0.625,-0.375 Q 34,37 34.5,37 q 0.5,0 1,0 0.5,0 0.875,0.125 0.375,0.125 0.625,0.375 0.25,0.25 0.5,0.5 0.25,0.25 0.375,0.625 Q 38,39 38,39.5 q 0,0.5 0,1 0,0.5 0,1 0,0.5 0,1 0,0.5 -0.125,0.875 -0.125,0.375 -0.375,0.375 -0.25,0 -0.375,-0.375 Q 37,43 37,42.5 q 0,-0.5 0,-1 0,-0.5 0,-1 0,-0.5 0,-1 0,-0.5 -0.125,-0.875 -0.125,-0.375 -0.5,-0.5 Q 36,38 35.5,38 35,38 34.5,38 34,38 33.625,38.125 33.25,38.25 33,38.5 32.75,38.75 32.5,39 32.25,39.25 32.125,39.625 32,40 32,40.5 q 0,0.5 0,1 0,0.5 0,1 0,0.5 -0.125,0.875 -0.125,0.375 -0.375,0.375 -0.25,0 -0.375,-0.375 Q 31,43 31,42.5 q 0,-0.5 0,-1 0,-0.5 0,-1 0,-0.5 0,-1 0,-0.5 0,-1 0,-0.5 0.125,-0.875"
         style="fill:#ffffff;fill-opacity:1" />
      <path
         id="path4910"
         d="M 41,37.5 Q 41.25,37.25 41.625,37.125 42,37 42.5,37 q 0.5,0 1,0 0.5,0 0.875,0.125 0.375,0.125 0.625,0.375 0.25,0.25 0.5,0.25 0.25,0 0.5,-0.25 0.25,-0.25 0.5,-0.25 0.25,0 0.25,0.25 0,0.25 -0.25,0.5 -0.25,0.25 -0.375,0.625 Q 46,39 46,39.5 46,40 45.875,40.375 45.75,40.75 45.5,41 45.25,41.25 45,41.5 44.75,41.75 44.375,41.875 44,42 43.5,42 43,42 42.5,42 42,42 41.625,42.125 41.25,42.25 41.25,42.5 q 0,0.25 0.375,0.375 Q 42,43 42.5,43 q 0.5,0 1,0 0.5,0 1,0 0.5,0 0.875,0.125 0.375,0.125 0.625,0.375 0.25,0.25 0.5,0.5 0.25,0.25 0.375,0.625 0.125,0.375 0,0.75 Q 46.75,45.75 46.5,46 46.25,46.25 46,46.5 45.75,46.75 45.375,46.875 45,47 44.5,47 44,47 43.5,47 43,47 42.5,47 42,47 41.625,46.875 41.25,46.75 41,46.5 40.75,46.25 40.5,46 40.25,45.75 40.125,45.375 40,45 40.125,44.625 40.25,44.25 40.5,44 q 0.25,-0.25 0.25,-0.5 0,-0.25 -0.25,-0.5 -0.25,-0.25 -0.25,-0.5 0,-0.25 0.25,-0.5 0.25,-0.25 0.25,-0.5 0,-0.25 -0.25,-0.5 Q 40.25,40.75 40.125,40.375 40,40 40,39.5 40,39 40.125,38.625 40.25,38.25 40.5,38 40.75,37.75 41,37.5 m 3.5,8.5 q 0.5,0 0.875,-0.125 0.375,-0.125 0.5,-0.5 0.125,-0.375 0,-0.75 -0.125,-0.375 -0.5,-0.5 Q 45,44 44.5,44 q -0.5,0 -1,0 -0.5,0 -1,0 -0.5,0 -0.875,0.125 -0.375,0.125 -0.5,0.5 -0.125,0.375 0,0.75 0.125,0.375 0.5,0.5 Q 42,46 42.5,46 q 0.5,0 1,0 0.5,0 1,0 m -1,-5 q 0.5,0 0.875,-0.125 0.375,-0.125 0.5,-0.5 Q 45,40 45,39.5 45,39 44.875,38.625 44.75,38.25 44.375,38.125 44,38 43.5,38 q -0.5,0 -1,0 -0.5,0 -0.875,0.125 -0.375,0.125 -0.5,0.5 Q 41,39 41,39.5 q 0,0.5 0.125,0.875 0.125,0.375 0.5,0.5 Q 42,41 42.5,41 q 0.5,0 1,0"
         style="fill:#ffffff;fill-opacity:1" />
      <path
         id="path4912"
         d="m 77.25,37.5 q 0,-0.25 0.375,-0.375 Q 78,37 78.5,37 q 0.5,0 0.875,0.125 0.375,0.125 0.5,0.5 Q 80,38 80,38.5 q 0,0.5 0,1 0,0.5 0,1 0,0.5 0,1 0,0.5 0.125,0.875 0.125,0.375 0.5,0.5 0.375,0.125 0.75,0.25 0.375,0.125 0.375,0.375 0,0.25 -0.375,0.375 Q 81,44 80.5,44 80,44 79.5,44 79,44 78.5,44 78,44 77.625,43.875 77.25,43.75 77.25,43.5 q 0,-0.25 0.375,-0.375 Q 78,43 78.375,42.875 78.75,42.75 78.875,42.375 79,42 79,41.5 q 0,-0.5 0,-1 0,-0.5 0,-1 0,-0.5 -0.125,-0.875 -0.125,-0.375 -0.5,-0.5 Q 78,38 77.625,37.875 77.25,37.75 77.25,37.5"
         style="fill:#ffffff;fill-opacity:1" />
      <path
         id="path4914"
         d="M 85.125,37.625 Q 85.25,37.25 85.5,37.25 q 0.25,0 0.5,0.25 0.25,0.25 0.5,0.25 0.25,0 0.5,-0.25 0.25,-0.25 0.625,-0.375 Q 88,37 88.5,37 q 0.5,0 1,0 0.5,0 0.875,0.125 0.375,0.125 0.625,0.375 0.25,0.25 0.5,0.5 0.25,0.25 0.375,0.625 Q 92,39 92,39.5 q 0,0.5 0,1 0,0.5 0,1 0,0.5 0,1 0,0.5 -0.125,0.875 -0.125,0.375 -0.375,0.375 -0.25,0 -0.375,-0.375 Q 91,43 91,42.5 q 0,-0.5 0,-1 0,-0.5 0,-1 0,-0.5 0,-1 0,-0.5 -0.125,-0.875 -0.125,-0.375 -0.5,-0.5 Q 90,38 89.5,38 89,38 88.5,38 88,38 87.625,38.125 87.25,38.25 87,38.5 86.75,38.75 86.5,39 86.25,39.25 86.125,39.625 86,40 86,40.5 q 0,0.5 0,1 0,0.5 0,1 0,0.5 -0.125,0.875 -0.125,0.375 -0.375,0.375 -0.25,0 -0.375,-0.375 Q 85,43 85,42.5 q 0,-0.5 0,-1 0,-0.5 0,-1 0,-0.5 0,-1 0,-0.5 0,-1 0,-0.5 0.125,-0.875"
         style="fill:#ffffff;fill-opacity:1" />
      <path
         id="path4916"
         d="M 95,37.5 Q 95.25,37.25 95.625,37.125 96,37 96.5,37 q 0.5,0 1,0 0.5,0 0.875,0.125 0.375,0.125 0.625,0.375 0.25,0.25 0.5,0.25 0.25,0 0.5,-0.25 0.25,-0.25 0.5,-0.25 0.25,0 0.25,0.25 0,0.25 -0.25,0.5 -0.25,0.25 -0.375,0.625 Q 100,39 100,39.5 100,40 99.875,40.375 99.75,40.75 99.5,41 99.25,41.25 99,41.5 98.75,41.75 98.375,41.875 98,42 97.5,42 97,42 96.5,42 96,42 95.625,42.125 95.25,42.25 95.25,42.5 q 0,0.25 0.375,0.375 Q 96,43 96.5,43 q 0.5,0 1,0 0.5,0 1,0 0.5,0 0.875,0.125 0.375,0.125 0.625,0.375 0.25,0.25 0.5,0.5 0.25,0.25 0.375,0.625 0.125,0.375 0,0.75 Q 100.75,45.75 100.5,46 100.25,46.25 100,46.5 99.75,46.75 99.375,46.875 99,47 98.5,47 98,47 97.5,47 97,47 96.5,47 96,47 95.625,46.875 95.25,46.75 95,46.5 94.75,46.25 94.5,46 94.25,45.75 94.125,45.375 94,45 94.125,44.625 94.25,44.25 94.5,44 q 0.25,-0.25 0.25,-0.5 0,-0.25 -0.25,-0.5 -0.25,-0.25 -0.25,-0.5 0,-0.25 0.25,-0.5 0.25,-0.25 0.25,-0.5 0,-0.25 -0.25,-0.5 Q 94.25,40.75 94.125,40.375 94,40 94,39.5 94,39 94.125,38.625 94.25,38.25 94.5,38 94.75,37.75 95,37.5 m 3.5,8.5 q 0.5,0 0.875,-0.125 0.375,-0.125 0.5,-0.5 0.125,-0.375 0,-0.75 -0.125,-0.375 -0.5,-0.5 Q 99,44 98.5,44 q -0.5,0 -1,0 -0.5,0 -1,0 -0.5,0 -0.875,0.125 -0.375,0.125 -0.5,0.5 -0.125,0.375 0,0.75 0.125,0.375 0.5,0.5 Q 96,46 96.5,46 q 0.5,0 1,0 0.5,0 1,0 m -1,-5 q 0.5,0 0.875,-0.125 0.375,-0.125 0.5,-0.5 Q 99,40 99,39.5 99,39 98.875,38.625 98.75,38.25 98.375,38.125 98,38 97.5,38 q -0.5,0 -1,0 -0.5,0 -0.875,0.125 -0.375,0.125 -0.5,0.5 Q 95,39 95,39.5 q 0,0.5 0.125,0.875 0.125,0.375 0.5,0.5 Q 96,41 96.5,41 q 0.5,0 1,0"
         style="fill:#ffffff;fill-opacity:1" />
      <path
         id="path4918"
         d="m 104,37.5 q 0.25,-0.25 0.625,-0.375 Q 105,37 105.5,37 q 0.5,0 1,0 0.5,0 1,0 0.5,0 0.875,0.125 0.375,0.125 0.625,0.375 0.25,0.25 0.5,0.5 0.25,0.25 0.25,0.5 0,0.25 -0.25,0.25 -0.25,0 -0.5,-0.25 -0.25,-0.25 -0.625,-0.375 Q 108,38 107.5,38 q -0.5,0 -1,0 -0.5,0 -1,0 -0.5,0 -0.875,0.125 -0.375,0.125 -0.5,0.5 -0.125,0.375 0,0.75 0.125,0.375 0.5,0.5 Q 105,40 105.5,40 q 0.5,0 1,0 0.5,0 1,0 0.5,0 0.875,0.125 0.375,0.125 0.625,0.375 0.25,0.25 0.5,0.5 0.25,0.25 0.375,0.625 0.125,0.375 0,0.75 -0.125,0.375 -0.375,0.625 -0.25,0.25 -0.5,0.5 -0.25,0.25 -0.625,0.375 Q 108,44 107.5,44 q -0.5,0 -1,0 -0.5,0 -1,0 -0.5,0 -0.875,-0.125 Q 104.25,43.75 104,43.5 q -0.25,-0.25 -0.5,-0.5 -0.25,-0.25 -0.25,-0.5 0,-0.25 0.25,-0.25 0.25,0 0.5,0.25 0.25,0.25 0.625,0.375 Q 105,43 105.5,43 q 0.5,0 1,0 0.5,0 1,0 0.5,0 0.875,-0.125 0.375,-0.125 0.5,-0.5 0.125,-0.375 0,-0.75 -0.125,-0.375 -0.5,-0.5 Q 108,41 107.5,41 q -0.5,0 -1,0 -0.5,0 -1,0 -0.5,0 -0.875,-0.125 Q 104.25,40.75 104,40.5 103.75,40.25 103.5,40 103.25,39.75 103.125,39.375 103,39 103.125,38.625 103.25,38.25 103.5,38 q 0.25,-0.25 0.5,-0.5"
         style="fill:#ffffff;fill-opacity:1" />
      <path
         id="path4920"
         d="M 5.125,38.625 Q 5.25,38.25 5.625,38.125 6,38 6.5,38 7,38 7.5,38 8,38 8.375,38.125 8.75,38.25 9,38.5 9.25,38.75 9.5,39 9.75,39.25 9.875,39.625 10,40 10,40.5 10,41 9.875,41.375 9.75,41.75 9.5,42 9.25,42.25 9,42.5 8.75,42.75 8.375,42.875 8,43 7.5,43 7,43 6.5,43 6,43 5.625,42.875 5.25,42.75 5.125,42.375 5,42 5,41.5 5,41 5,40.5 5,40 5,39.5 5,39 5.125,38.625"
         style="fill:#000000;fill-opacity:0" />
      <path
         id="path4922"
         d="m 14.125,38.625 q 0.125,-0.375 0.5,-0.5 Q 15,38 15.5,38 q 0.5,0 1,0 0.5,0 1,0 0.5,0 0.875,0.125 0.375,0.125 0.5,0.5 Q 19,39 19,39.5 q 0,0.5 0,1 0,0.5 0,1 0,0.5 -0.125,0.875 -0.125,0.375 -0.5,0.5 Q 18,43 17.5,43 q -0.5,0 -1,0 -0.5,0 -1,0 -0.5,0 -0.875,-0.125 -0.375,-0.125 -0.5,-0.5 Q 14,42 14,41.5 q 0,-0.5 0,-1 0,-0.5 0,-1 0,-0.5 0.125,-0.875"
         style="fill:#000000;fill-opacity:0" />
      <path
         id="path4924"
         d="m 41.125,38.625 q 0.125,-0.375 0.5,-0.5 Q 42,38 42.5,38 q 0.5,0 1,0 0.5,0 0.875,0.125 0.375,0.125 0.5,0.5 Q 45,39 45,39.5 q 0,0.5 -0.125,0.875 -0.125,0.375 -0.5,0.5 Q 44,41 43.5,41 43,41 42.5,41 42,41 41.625,40.875 41.25,40.75 41.125,40.375 41,40 41,39.5 41,39 41.125,38.625"
         style="fill:#000000;fill-opacity:0" />
      <path
         id="path4926"
         d="m 95.125,38.625 q 0.125,-0.375 0.5,-0.5 Q 96,38 96.5,38 q 0.5,0 1,0 0.5,0 0.875,0.125 0.375,0.125 0.5,0.5 Q 99,39 99,39.5 q 0,0.5 -0.125,0.875 -0.125,0.375 -0.5,0.5 Q 98,41 97.5,41 97,41 96.5,41 96,41 95.625,40.875 95.25,40.75 95.125,40.375 95,40 95,39.5 95,39 95.125,38.625"
         style="fill:#000000;fill-opacity:0" />
      <path
         id="path4928"
         d="m 41.125,44.625 q 0.125,-0.375 0.5,-0.5 Q 42,44 42.5,44 q 0.5,0 1,0 0.5,0 1,0 0.5,0 0.875,0.125 0.375,0.125 0.5,0.5 0.125,0.375 0,0.75 -0.125,0.375 -0.5,0.5 Q 45,46 44.5,46 q -0.5,0 -1,0 -0.5,0 -1,0 -0.5,0 -0.875,-0.125 -0.375,-0.125 -0.5,-0.5 -0.125,-0.375 0,-0.75"
         style="fill:#000000;fill-opacity:0" />
      <path
         id="path4930"
         d="m 95.125,44.625 q 0.125,-0.375 0.5,-0.5 Q 96,44 96.5,44 q 0.5,0 1,0 0.5,0 1,0 0.5,0 0.875,0.125 0.375,0.125 0.5,0.5 0.125,0.375 0,0.75 -0.125,0.375 -0.5,0.5 Q 99,46 98.5,46 q -0.5,0 -1,0 -0.5,0 -1,0 -0.5,0 -0.875,-0.125 -0.375,-0.125 -0.5,-0.5 -0.125,-0.375 0,-0.75"
         style="fill:#000000;fill-opacity:0" />
      <path
         id="path4932"
         d="M 67.125,49.625 Q 67.25,49.25 67.5,49.25 q 0.25,0 0.375,0.375 Q 68,50 68,50.5 q 0,0.5 0,1 0,0.5 0.125,0.875 0.125,0.375 0.375,0.375 0.25,0 0.5,-0.25 0.25,-0.25 0.625,-0.375 Q 70,52 70.5,52 q 0.5,0 1,0 0.5,0 0.875,0.125 0.375,0.125 0.625,0.375 0.25,0.25 0.5,0.5 0.25,0.25 0.375,0.625 Q 74,54 74,54.5 q 0,0.5 0,1 0,0.5 0,1 0,0.5 0,1 0,0.5 -0.125,0.875 -0.125,0.375 -0.375,0.375 -0.25,0 -0.375,-0.375 Q 73,58 73,57.5 q 0,-0.5 0,-1 0,-0.5 0,-1 0,-0.5 0,-1 0,-0.5 -0.125,-0.875 -0.125,-0.375 -0.5,-0.5 Q 72,53 71.5,53 71,53 70.5,53 70,53 69.625,53.125 69.25,53.25 69,53.5 68.75,53.75 68.5,54 68.25,54.25 68.125,54.625 68,55 68,55.5 q 0,0.5 0,1 0,0.5 0,1 0,0.5 -0.125,0.875 -0.125,0.375 -0.375,0.375 -0.25,0 -0.375,-0.375 Q 67,58 67,57.5 q 0,-0.5 0,-1 0,-0.5 0,-1 0,-0.5 0,-1 0,-0.5 0,-1 0,-0.5 0,-1 0,-0.5 0,-1 0,-0.5 0,-1 0,-0.5 0.125,-0.875"
         style="fill:#ffffff;fill-opacity:1" />
      <path
         id="path4934"
         d="M 24.125,50.625 Q 24.25,50.25 24.5,50.25 q 0.25,0 0.375,0.375 0.125,0.375 0.25,0.75 0.125,0.375 0.5,0.5 Q 26,52 26.5,52 q 0.5,0 0.875,0.125 0.375,0.125 0.375,0.375 0,0.25 -0.375,0.375 Q 27,53 26.5,53 26,53 25.625,53.125 25.25,53.25 25.125,53.625 25,54 25,54.5 q 0,0.5 0,1 0,0.5 0,1 0,0.5 0.125,0.875 0.125,0.375 0.5,0.5 Q 26,58 26.5,58 27,58 27.375,57.875 27.75,57.75 28,57.5 q 0.25,-0.25 0.5,-0.25 0.25,0 0.25,0.25 0,0.25 -0.25,0.5 -0.25,0.25 -0.5,0.5 -0.25,0.25 -0.625,0.375 Q 27,59 26.5,59 26,59 25.625,58.875 25.25,58.75 25,58.5 24.75,58.25 24.5,58 24.25,57.75 24.125,57.375 24,57 24,56.5 q 0,-0.5 0,-1 0,-0.5 0,-1 0,-0.5 -0.125,-0.875 -0.125,-0.375 -0.5,-0.5 Q 23,53 22.625,52.875 22.25,52.75 22.25,52.5 q 0,-0.25 0.375,-0.375 Q 23,52 23.375,51.875 23.75,51.75 23.875,51.375 24,51 24.125,50.625"
         style="fill:#ffffff;fill-opacity:1" />
      <path
         id="path4936"
         d="M 60.125,50.625 Q 60.25,50.25 60.5,50.25 q 0.25,0 0.375,0.375 0.125,0.375 0.25,0.75 0.125,0.375 0.5,0.5 Q 62,52 62.5,52 q 0.5,0 0.875,0.125 0.375,0.125 0.375,0.375 0,0.25 -0.375,0.375 Q 63,53 62.5,53 62,53 61.625,53.125 61.25,53.25 61.125,53.625 61,54 61,54.5 q 0,0.5 0,1 0,0.5 0,1 0,0.5 0.125,0.875 0.125,0.375 0.5,0.5 Q 62,58 62.5,58 63,58 63.375,57.875 63.75,57.75 64,57.5 q 0.25,-0.25 0.5,-0.25 0.25,0 0.25,0.25 0,0.25 -0.25,0.5 -0.25,0.25 -0.5,0.5 -0.25,0.25 -0.625,0.375 Q 63,59 62.5,59 62,59 61.625,58.875 61.25,58.75 61,58.5 60.75,58.25 60.5,58 60.25,57.75 60.125,57.375 60,57 60,56.5 q 0,-0.5 0,-1 0,-0.5 0,-1 0,-0.5 -0.125,-0.875 -0.125,-0.375 -0.5,-0.5 Q 59,53 58.625,52.875 58.25,52.75 58.25,52.5 q 0,-0.25 0.375,-0.375 Q 59,52 59.375,51.875 59.75,51.75 59.875,51.375 60,51 60.125,50.625"
         style="fill:#ffffff;fill-opacity:1" />
      <path
         id="path4938"
         d="M 32,52.5 Q 32.25,52.25 32.625,52.125 33,52 33.5,52 q 0.5,0 1,0 0.5,0 1,0 0.5,0 0.875,0.125 0.375,0.125 0.625,0.375 0.25,0.25 0.5,0.5 0.25,0.25 0.375,0.625 Q 38,54 38,54.5 q 0,0.5 0,1 0,0.5 0,1 0,0.5 -0.125,0.875 Q 37.75,57.75 37.5,58 37.25,58.25 37,58.5 36.75,58.75 36.375,58.875 36,59 35.5,59 35,59 34.5,59 34,59 33.5,59 33,59 32.625,58.875 32.25,58.75 32,58.5 31.75,58.25 31.5,58 31.25,57.75 31.125,57.375 31,57 31,56.5 31,56 31,55.5 31,55 31,54.5 31,54 31.125,53.625 31.25,53.25 31.5,53 31.75,52.75 32,52.5 m 3.5,5.5 q 0.5,0 0.875,-0.125 0.375,-0.125 0.5,-0.5 Q 37,57 37,56.5 q 0,-0.5 0,-1 0,-0.5 0,-1 0,-0.5 -0.125,-0.875 -0.125,-0.375 -0.5,-0.5 Q 36,53 35.5,53 q -0.5,0 -1,0 -0.5,0 -1,0 -0.5,0 -0.875,0.125 -0.375,0.125 -0.5,0.5 Q 32,54 32,54.5 q 0,0.5 0,1 0,0.5 0,1 0,0.5 0.125,0.875 0.125,0.375 0.5,0.5 Q 33,58 33.5,58 q 0.5,0 1,0 0.5,0 1,0"
         style="fill:#ffffff;fill-opacity:1" />
      <path
         id="path4940"
         d="M 41,52.5 Q 41.25,52.25 41.625,52.125 42,52 42.5,52 q 0.5,0 1,0 0.5,0 0.875,0.125 0.375,0.125 0.625,0.375 0.25,0.25 0.5,0.25 0.25,0 0.5,-0.25 0.25,-0.25 0.5,-0.25 0.25,0 0.25,0.25 0,0.25 -0.25,0.5 -0.25,0.25 -0.375,0.625 Q 46,54 46,54.5 46,55 45.875,55.375 45.75,55.75 45.5,56 45.25,56.25 45,56.5 44.75,56.75 44.375,56.875 44,57 43.5,57 43,57 42.5,57 42,57 41.625,57.125 41.25,57.25 41.25,57.5 q 0,0.25 0.375,0.375 Q 42,58 42.5,58 q 0.5,0 1,0 0.5,0 1,0 0.5,0 0.875,0.125 0.375,0.125 0.625,0.375 0.25,0.25 0.5,0.5 0.25,0.25 0.375,0.625 0.125,0.375 0,0.75 Q 46.75,60.75 46.5,61 46.25,61.25 46,61.5 45.75,61.75 45.375,61.875 45,62 44.5,62 44,62 43.5,62 43,62 42.5,62 42,62 41.625,61.875 41.25,61.75 41,61.5 40.75,61.25 40.5,61 40.25,60.75 40.125,60.375 40,60 40.125,59.625 40.25,59.25 40.5,59 q 0.25,-0.25 0.25,-0.5 0,-0.25 -0.25,-0.5 -0.25,-0.25 -0.25,-0.5 0,-0.25 0.25,-0.5 0.25,-0.25 0.25,-0.5 0,-0.25 -0.25,-0.5 Q 40.25,55.75 40.125,55.375 40,55 40,54.5 40,54 40.125,53.625 40.25,53.25 40.5,53 40.75,52.75 41,52.5 m 3.5,8.5 q 0.5,0 0.875,-0.125 0.375,-0.125 0.5,-0.5 0.125,-0.375 0,-0.75 -0.125,-0.375 -0.5,-0.5 Q 45,59 44.5,59 q -0.5,0 -1,0 -0.5,0 -1,0 -0.5,0 -0.875,0.125 -0.375,0.125 -0.5,0.5 -0.125,0.375 0,0.75 0.125,0.375 0.5,0.5 Q 42,61 42.5,61 q 0.5,0 1,0 0.5,0 1,0 m -1,-5 q 0.5,0 0.875,-0.125 0.375,-0.125 0.5,-0.5 Q 45,55 45,54.5 45,54 44.875,53.625 44.75,53.25 44.375,53.125 44,53 43.5,53 q -0.5,0 -1,0 -0.5,0 -0.875,0.125 -0.375,0.125 -0.5,0.5 Q 41,54 41,54.5 q 0,0.5 0.125,0.875 0.125,0.375 0.5,0.5 Q 42,56 42.5,56 q 0.5,0 1,0"
         style="fill:#ffffff;fill-opacity:1" />
      <path
         id="path4942"
         d="M 50,52.5 Q 50.25,52.25 50.625,52.125 51,52 51.5,52 q 0.5,0 1,0 0.5,0 1,0 0.5,0 0.875,0.125 0.375,0.125 0.625,0.375 0.25,0.25 0.5,0.5 0.25,0.25 0.375,0.625 Q 56,54 56,54.5 q 0,0.5 -0.125,0.875 -0.125,0.375 -0.5,0.5 Q 55,56 54.5,56 q -0.5,0 -1,0 -0.5,0 -1,0 -0.5,0 -1,0 -0.5,0 -0.875,0.125 -0.375,0.125 -0.5,0.5 -0.125,0.375 0,0.75 0.125,0.375 0.5,0.5 Q 51,58 51.5,58 q 0.5,0 1,0 0.5,0 1,0 0.5,0 0.875,0.125 0.375,0.125 0.375,0.375 0,0.25 -0.375,0.375 Q 54,59 53.5,59 53,59 52.5,59 52,59 51.5,59 51,59 50.625,58.875 50.25,58.75 50,58.5 49.75,58.25 49.5,58 49.25,57.75 49.125,57.375 49,57 49,56.5 49,56 49,55.5 49,55 49,54.5 49,54 49.125,53.625 49.25,53.25 49.5,53 49.75,52.75 50,52.5 m 3.5,2.5 q 0.5,0 0.875,-0.125 0.375,-0.125 0.5,-0.5 0.125,-0.375 0,-0.75 -0.125,-0.375 -0.5,-0.5 Q 54,53 53.5,53 q -0.5,0 -1,0 -0.5,0 -1,0 -0.5,0 -0.875,0.125 -0.375,0.125 -0.5,0.5 -0.125,0.375 0,0.75 0.125,0.375 0.5,0.5 Q 51,55 51.5,55 q 0.5,0 1,0 0.5,0 1,0"
         style="fill:#ffffff;fill-opacity:1" />
      <path
         id="path4944"
         d="M 77,52.5 Q 77.25,52.25 77.625,52.125 78,52 78.5,52 q 0.5,0 1,0 0.5,0 1,0 0.5,0 0.875,0.125 0.375,0.125 0.625,0.375 0.25,0.25 0.5,0.5 0.25,0.25 0.375,0.625 Q 83,54 83,54.5 q 0,0.5 -0.125,0.875 -0.125,0.375 -0.5,0.5 Q 82,56 81.5,56 q -0.5,0 -1,0 -0.5,0 -1,0 -0.5,0 -1,0 -0.5,0 -0.875,0.125 -0.375,0.125 -0.5,0.5 -0.125,0.375 0,0.75 0.125,0.375 0.5,0.5 Q 78,58 78.5,58 q 0.5,0 1,0 0.5,0 1,0 0.5,0 0.875,0.125 0.375,0.125 0.375,0.375 0,0.25 -0.375,0.375 Q 81,59 80.5,59 80,59 79.5,59 79,59 78.5,59 78,59 77.625,58.875 77.25,58.75 77,58.5 76.75,58.25 76.5,58 76.25,57.75 76.125,57.375 76,57 76,56.5 76,56 76,55.5 76,55 76,54.5 76,54 76.125,53.625 76.25,53.25 76.5,53 76.75,52.75 77,52.5 m 3.5,2.5 q 0.5,0 0.875,-0.125 0.375,-0.125 0.5,-0.5 0.125,-0.375 0,-0.75 -0.125,-0.375 -0.5,-0.5 Q 81,53 80.5,53 q -0.5,0 -1,0 -0.5,0 -1,0 -0.5,0 -0.875,0.125 -0.375,0.125 -0.5,0.5 -0.125,0.375 0,0.75 0.125,0.375 0.5,0.5 Q 78,55 78.5,55 q 0.5,0 1,0 0.5,0 1,0"
         style="fill:#ffffff;fill-opacity:1" />
      <path
         id="path4946"
         d="m 85.25,52.5 q 0,-0.25 0.25,-0.25 0.25,0 0.5,0.25 0.25,0.25 0.625,0.375 0.375,0.125 0.75,0 Q 87.75,52.75 88,52.5 88.25,52.25 88.625,52.125 89,52 89.5,52 90,52 90.375,52.125 90.75,52.25 91,52.5 q 0.25,0.25 0.5,0.5 0.25,0.25 0.375,0.625 0.125,0.375 0,0.75 -0.125,0.375 -0.375,0.375 -0.25,0 -0.375,-0.375 Q 91,54 90.875,53.625 90.75,53.25 90.375,53.125 90,53 89.5,53 89,53 88.625,53.125 88.25,53.25 88,53.5 87.75,53.75 87.5,54 87.25,54.25 87.125,54.625 87,55 87,55.5 q 0,0.5 0,1 0,0.5 0,1 0,0.5 -0.125,0.875 -0.125,0.375 -0.375,0.375 -0.25,0 -0.375,-0.375 Q 86,58 86,57.5 q 0,-0.5 0,-1 0,-0.5 0,-1 0,-0.5 0,-1 Q 86,54 85.875,53.625 85.75,53.25 85.5,53 85.25,52.75 85.25,52.5"
         style="fill:#ffffff;fill-opacity:1" />
      <path
         id="path4948"
         d="m 32.125,53.625 q 0.125,-0.375 0.5,-0.5 Q 33,53 33.5,53 q 0.5,0 1,0 0.5,0 1,0 0.5,0 0.875,0.125 0.375,0.125 0.5,0.5 Q 37,54 37,54.5 q 0,0.5 0,1 0,0.5 0,1 0,0.5 -0.125,0.875 -0.125,0.375 -0.5,0.5 Q 36,58 35.5,58 q -0.5,0 -1,0 -0.5,0 -1,0 -0.5,0 -0.875,-0.125 -0.375,-0.125 -0.5,-0.5 Q 32,57 32,56.5 q 0,-0.5 0,-1 0,-0.5 0,-1 0,-0.5 0.125,-0.875"
         style="fill:#000000;fill-opacity:0" />
      <path
         id="path4950"
         d="m 41.125,53.625 q 0.125,-0.375 0.5,-0.5 Q 42,53 42.5,53 q 0.5,0 1,0 0.5,0 0.875,0.125 0.375,0.125 0.5,0.5 Q 45,54 45,54.5 q 0,0.5 -0.125,0.875 -0.125,0.375 -0.5,0.5 Q 44,56 43.5,56 43,56 42.5,56 42,56 41.625,55.875 41.25,55.75 41.125,55.375 41,55 41,54.5 41,54 41.125,53.625"
         style="fill:#000000;fill-opacity:0" />
      <path
         id="path4952"
         d="m 50.125,53.625 q 0.125,-0.375 0.5,-0.5 Q 51,53 51.5,53 q 0.5,0 1,0 0.5,0 1,0 0.5,0 0.875,0.125 0.375,0.125 0.5,0.5 0.125,0.375 0,0.75 -0.125,0.375 -0.5,0.5 Q 54,55 53.5,55 q -0.5,0 -1,0 -0.5,0 -1,0 -0.5,0 -0.875,-0.125 -0.375,-0.125 -0.5,-0.5 -0.125,-0.375 0,-0.75"
         style="fill:#000000;fill-opacity:0" />
      <path
         id="path4954"
         d="m 77.125,53.625 q 0.125,-0.375 0.5,-0.5 Q 78,53 78.5,53 q 0.5,0 1,0 0.5,0 1,0 0.5,0 0.875,0.125 0.375,0.125 0.5,0.5 0.125,0.375 0,0.75 -0.125,0.375 -0.5,0.5 Q 81,55 80.5,55 q -0.5,0 -1,0 -0.5,0 -1,0 -0.5,0 -0.875,-0.125 -0.375,-0.125 -0.5,-0.5 -0.125,-0.375 0,-0.75"
         style="fill:#000000;fill-opacity:0" />
      <path
         id="path4956"
         d="m 41.125,59.625 q 0.125,-0.375 0.5,-0.5 Q 42,59 42.5,59 q 0.5,0 1,0 0.5,0 1,0 0.5,0 0.875,0.125 0.375,0.125 0.5,0.5 0.125,0.375 0,0.75 -0.125,0.375 -0.5,0.5 Q 45,61 44.5,61 q -0.5,0 -1,0 -0.5,0 -1,0 -0.5,0 -0.875,-0.125 -0.375,-0.125 -0.5,-0.5 -0.125,-0.375 0,-0.75"
         style="fill:#000000;fill-opacity:0" />
    </g>
  </g>
</svg>
