<?xml version="1.0" encoding="UTF-8" standalone="no"?><!DOCTYPE svg PUBLIC "-//W3C//DTD SVG 1.1//EN" "http://www.w3.org/Graphics/SVG/1.1/DTD/svg11.dtd"><svg width="100%" height="100%" viewBox="0 0 972 1123" version="1.1" xmlns="http://www.w3.org/2000/svg" xmlns:xlink="http://www.w3.org/1999/xlink" xml:space="preserve" style="fill-rule:evenodd;clip-rule:evenodd;stroke-linecap:round;stroke-linejoin:round;stroke-miterlimit:1.5;"><path id="Logo-Hexagon" d="M485.861,0l485.86,280.512l0,561.023l-485.86,280.512l-485.861,-280.512l0,-561.023l485.861,-280.512Z" style="fill:#fff;"/><clipPath id="_clip1"><path d="M485.861,0l485.86,280.512l0,561.023l-485.86,280.512l-485.861,-280.512l0,-561.023l485.861,-280.512Z"/></clipPath><g clip-path="url(#_clip1)"><g><rect x="-184.244" y="469.211" width="1340.21" height="675.189" style="fill:#d4edfc;"/><rect x="-201.005" y="-33.487" width="1340.21" height="642.757" style="fill:#a2d9f6;"/><text x="165.107px" y="793.88px" style="font-family:'HandelGothicBT-Regular', 'HandelGothic BT', fantasy;font-stretch:semi-expanded;font-size:66.694px;fill:#171715;">Frankfurt am Main</text></g><g><path d="M-1412,883.959l0,-290.361l255.116,-1.049c0,0 0.121,-43.442 0.121,-52.809l0,-145.18l4.683,-2.342c4.683,-2.341 7.025,-4.683 7.025,-11.708l0,-7.025l39.807,0l0,14.05l14.05,2.342l0.189,79.807l34.936,-0.192l0,-67.907l4.683,0l14.05,-42.15c0,0 15.059,39.813 15.059,42.155c0,0 3.026,0.043 4.827,0.043c2.341,0 1.188,21.026 1.188,56.151l0,56.199l14.05,18.733l-0.1,27.516l28.199,0.583l2.342,-58.541l7.025,0l0,-14.049c0,-16.39 2.341,-21.074 11.708,-21.075l7.025,0l2.341,21.075l18.733,0l0,53.857l9.367,0l0,23.416l14.05,14.05l0,-25.758c2.341,-14.05 2.341,-51.516 2.341,-79.615l0,-51.516c0,0 21.848,-2.764 38.239,-2.764l43.718,0.423l0,84.298l7.025,0c14.05,0 16.391,0 16.391,30.441l0,25.758l0.164,9.625l16.228,-0.258l0,-65.566l2.341,2.342c2.342,0 2.342,11.708 2.342,28.099l0,30.441l37.466,0l2.342,-2.341l9.366,11.708l0,-16.392l4.683,0l0,7.025l23.417,0c15.627,-0.289 44.211,0.405 46.832,0c3.273,-0.505 2.342,-28.099 2.342,-126.447c0,-121.765 0,-124.106 -4.683,-126.448c-2.342,-2.342 -4.684,-4.683 -4.684,-4.683l0,-2.342l28.1,0l0,-11.708l9.366,0c11.709,0 16.392,2.342 18.733,9.366c0,2.342 7.025,4.684 11.708,4.684c0.878,0.439 1.839,0.878 2.82,1.317l1.971,0.878c3.597,1.61 6.917,3.22 6.917,4.83l0,2.341l-18.733,4.683l0,32.783l2.342,32.783l7.025,2.342l9.366,2.341l-4.683,2.342l-2.341,0l0,163.913l7.024,0l0,7.025l9.367,0l7.025,-2.341l2.341,-2.342l0,-4.683l4.684,0l0,-4.683l7.025,-2.342c9.366,-4.683 14.049,-2.342 16.391,7.025l0,9.366l2.342,0c0.037,0 2.341,-0.018 2.341,-2.341c2.342,0 44.491,-2.342 44.491,-4.684l7.025,9.367l0,-14.05l4.683,0l0,2.342l2.342,4.683l0,-9.366l63.224,-2.342l0,9.366l86.64,7.025l0,35.125l4.683,0l4.452,2.139l0.231,-95.804l0,-93.665l11.708,0l0,199.038c0.605,-12.834 5.918,-196.635 3.577,-198.977l-3.577,-2.403l4.684,-4.683c0,0 4.681,-2.341 7.024,-2.342l7.025,0l0,7.025l18.733,0l0,147.522l14.05,-2.341c9.367,0 14.05,2.341 18.733,4.683c2.342,2.342 7.024,2.342 16.391,0l98.349,0c0.007,-0.218 2.422,-77.588 -1.546,-77.481l-5.479,-4.476c0,0 3.49,-1.893 7.05,-4.661l1.399,-23.918l1.861,23.795l3.261,2.104l5.385,2.234l-4.87,2.951l-2.378,2.178c0,0 0,74.932 2.342,74.932l2.341,2.342l4.683,-4.683c2.341,-2.341 7.023,-4.682 9.367,-4.683l2.342,0l0,2.341l28.099,4.683l0,-16.391c0,-14.05 2.342,-18.733 4.683,-21.075c4.684,-2.341 25.758,4.684 25.758,4.684l2.342,-177.964l9.366,-2.341c9.367,0 14.05,0 14.05,2.341c2.342,2.342 11.708,2.342 35.124,2.342l32.783,0l0,98.348c0,60.882 0,96.007 2.342,98.348c2.341,0 2.341,2.342 2.341,4.684l0,4.683l4.684,0c2.341,2.341 7.024,2.341 11.708,2.341l7.025,0l-2.342,-2.341c0,-2.342 0,-42.149 0,-44.491c2.342,-2.342 23.416,-2.342 30.441,-2.342l9.367,2.342l0,39.808l2.341,0c0.003,-2.41 4.683,-138.156 4.683,-138.156l9.367,-2.342l11.708,0l0,110.056l4.683,0l0,-18.733l2.342,-2.341l2.342,0l0,-88.982l11.708,0l0,91.323l9.366,0l0,25.758l4.683,0l2.342,-117.081l2.342,-2.341l0,156.888l21.074,0c0.004,-0.393 2.34,-248.214 0,-250.553l-2.341,-2.342l4.683,0l0,-35.124l7.025,0l4.683,-2.342l2.342,2.342l0,2.341l4.683,-4.683l4.683,-2.342l2.342,2.342l0,4.683l7.025,0l0,-7.025l7.025,0l4.683,21.075l16.391,0l0,2.342l2.342,0c2.341,0 4.683,2.341 7.025,4.683l4.683,2.341l0,-39.807l44.491,2.341l0,37.466l7.025,0l0.102,37.279l20.972,0.187l0,84.299l11.708,0l0,11.708l-9.366,0l0,9.367l16.391,0l0,-11.709l-2.341,-11.708l18.733,7.025l0,67.907l21.074,0l0,30.441c0,16.392 0,30.441 2.342,32.783l2.341,2.342l2.342,-2.342c2.342,-2.342 63.224,-4.683 72.59,-2.342l4.684,2.342c0,0 -2.342,39.808 0,39.808l2.341,2.341c0,0 0.225,-60.465 0.225,-69.832l-2.566,-19.149l35.124,0l2.342,-147.523l9.366,0c1.026,-1.024 2.946,-2.049 4.978,-3.073l1.752,-0.878c2.033,-1.025 3.954,-2.049 4.978,-3.074c4.684,-7.024 28.1,-9.366 39.808,-4.683l7.025,2.342l0,-11.708l23.416,0l-2.342,-7.025c0,-11.708 7.025,-16.392 18.733,-16.392c4.684,0 21.075,7.025 21.075,7.025l-2.342,133.473l14.05,0l0,-23.416l18.733,0l-2.342,9.366l56.199,0l-2.341,93.665l82.057,1.501l-0.1,-209.905l14.049,-2.342c2.342,2.342 7.025,2.342 7.025,4.683l16.392,2.342l0,2.341c0,2.342 0,7.025 2.341,7.025c2.342,2.342 4.684,4.684 4.684,11.708l0,25.758l-2.342,4.684l0,53.857c-0.426,52.273 -2.34,58.993 7.025,58.54c4.683,2.342 9.366,4.684 11.708,4.684l4.683,0l0,-11.708l21.075,0l0,-30.442l18.733,0l0,-149.863l-9.367,0l4.684,-2.342c4.683,-2.342 4.683,-4.683 4.683,-14.05l0,-110.056l4.683,0c0.002,-2.341 4.681,-2.342 7.025,-2.342l2.341,0l-0.276,70.248l7.301,0.001l0,44.491l37.466,4.683l0,-7.025l2.342,-4.683l9.366,-2.342c4.684,0 14.05,0 16.392,2.342l4.683,0l-0.278,70.326l26.036,-0.077l0,53.857l2.342,9.367l2.341,0l0,16.391l-2.341,0l-0.429,121.346l63.625,0.247c0,0 0.027,-63.053 0.027,-130.96l0,-77.273l37.466,2.341l0,128.79l9.367,0l0,14.049c0,7.025 -0.293,64.984 2.048,64.984c0,2.342 11.743,-0.346 11.743,-0.346c0,-16.391 0.966,-48.246 0.966,-48.246l39.533,1.285l-0.277,35.757l180.149,2.765l0,325.486l-2824,0Zm2144.93,-313.777l2.342,-86.641l-49.174,2.342l0,-4.683l-2.342,-2.342l7.025,2.342l0,-14.05l-14.05,0c0,0 0,81.957 2.342,96.007l0,25.758l4.683,0l0,-14.05l49.174,2.341l-4.683,-7.024l4.683,0Zm-114.739,-46.833l0,-121.764l-18.733,4.683l0,117.081l18.733,0Zm105.373,-16.391l-0.552,-4.745l-36.914,-2.28l0,4.683l37.466,2.342Zm-681.413,-135.814l0,-11.709c0,0 -7.025,2.342 -14.05,4.684l-9.366,2.341l9.366,2.342c4.684,0 9.367,2.342 11.709,2.342l2.341,0Z" style="fill:#bce4fa;"/><path d="M-617.302,883.959l0,-208.651l183.324,-0.753c0,0 0.087,-31.218 0.087,-37.948l0,-104.326l3.365,-1.683c3.366,-1.682 5.048,-3.365 5.048,-8.413l0,-5.048l28.606,0l0,10.096l10.096,1.683l0.136,57.348l25.104,-0.138l0,-48.797l3.365,0l10.096,-30.288c0,0 10.821,28.609 10.821,30.292c0,0 2.175,0.031 3.469,0.031c1.683,0 0.854,15.109 0.854,40.349l0,40.384l10.096,13.461l-0.072,19.774l20.264,0.419l1.683,-42.067l5.048,0l0,-10.096c0,-11.778 1.682,-15.144 8.413,-15.144l5.048,0l1.683,15.144l13.461,0l0,38.701l6.731,0l0,16.827l10.096,10.096l0,-18.509c1.683,-10.096 1.683,-37.019 1.683,-57.211l0,-37.019c0,0 15.699,-1.987 27.478,-1.987l31.415,0.304l0,60.576l5.048,0c10.096,0 11.779,0 11.779,21.875l0,18.51l0.117,6.916l11.662,-0.186l0,-47.115l1.682,1.683c1.683,0 1.683,8.413 1.683,20.192l0,21.875l26.923,0l1.682,-1.683l6.731,8.414l0,-11.779l3.365,0l0,5.048l16.827,0c11.23,-0.208 31.77,0.291 33.654,0c2.351,-0.363 1.682,-20.192 1.682,-90.864c0,-87.499 0,-89.182 -3.365,-90.865c-1.683,-1.682 -3.365,-3.365 -3.365,-3.365l0,-1.683l20.192,0l0,-8.413l6.73,0c8.414,0 11.779,1.683 13.462,6.731c0,1.682 5.048,3.365 8.413,3.365c0.631,0.316 1.321,0.631 2.026,0.947l1.417,0.631c2.584,1.156 4.97,2.313 4.97,3.47l0,1.683l-13.461,3.365l0,23.557l1.683,23.558l5.048,1.683l6.73,1.682l-3.365,1.683l-1.683,0l0,117.787l5.048,0l0,5.048l6.731,0l5.048,-1.683l1.683,-1.682l0,-3.366l3.365,0l0,-3.365l5.048,-1.683c6.731,-3.365 10.096,-1.682 11.779,5.048l0,6.731l1.682,0c0.027,0 1.683,-0.013 1.683,-1.683c1.683,0 31.971,-1.682 31.971,-3.365l5.048,6.731l0,-10.096l3.365,0l0,1.682l1.683,3.366l0,-6.731l45.432,-1.683l0,6.731l62.259,5.048l0,25.24l3.365,0l3.199,1.537l0.167,-68.844l0,-67.307l8.413,0l0,143.027c0.435,-9.222 4.253,-141.3 2.57,-142.983l-2.57,-1.726l3.365,-3.366c0,0 3.364,-1.682 5.048,-1.682l5.048,0l0,5.048l13.462,0l0,106.008l10.096,-1.683c6.73,0 10.096,1.683 13.461,3.366c1.683,1.682 5.048,1.682 11.779,0l70.672,0c0.005,-0.157 1.741,-55.755 -1.111,-55.678l-3.937,-3.216c0,0 2.508,-1.36 5.066,-3.35l1.005,-17.187l1.337,17.099l2.344,1.512l3.87,1.606l-3.5,2.12l-1.709,1.565c0,0 0,53.846 1.683,53.846l1.683,1.683l3.365,-3.366c1.682,-1.682 5.046,-3.364 6.731,-3.365l1.682,0l0,1.683l20.192,3.365l0,-11.779c0,-10.096 1.683,-13.461 3.366,-15.144c3.365,-1.683 18.509,3.365 18.509,3.365l1.683,-127.883l6.73,-1.682c6.731,0 10.096,0 10.096,1.682c1.683,1.683 8.414,1.683 25.241,1.683l23.557,0l0,70.672c0,43.75 0,68.99 1.683,70.673c1.682,0 1.682,1.682 1.682,3.365l0,3.365l3.366,0c1.682,1.683 5.048,1.683 8.413,1.683l5.048,0l-1.683,-1.683c0,-1.682 0,-30.288 0,-31.971c1.683,-1.682 16.827,-1.682 21.875,-1.682l6.731,1.682l0,28.606l1.682,0c0.002,-1.732 3.366,-99.278 3.366,-99.278l6.73,-1.682l8.414,0l0,79.085l3.365,0l0,-13.461l1.683,-1.683l1.682,0l0,-63.941l8.414,0l0,65.624l6.731,0l0,18.509l3.365,0l1.683,-84.133l1.682,-1.683l0,112.739l15.144,0c0.003,-0.283 1.682,-178.365 0,-180.046l-1.682,-1.683l3.365,0l0,-25.24l5.048,0l3.365,-1.682l1.683,1.682l0,1.683l3.365,-3.365l3.366,-1.683l1.682,1.683l0,3.365l5.048,0l0,-5.048l5.048,0l3.366,15.144l11.778,0l0,1.683l1.683,0c1.683,0 3.365,1.682 5.048,3.365l3.365,1.683l0,-28.606l31.971,1.683l0,26.923l5.048,0l0.073,26.788l15.071,0.134l0,60.577l8.414,0l0,8.413l-6.731,0l0,6.731l11.779,0l0,-8.414l-1.683,-8.413l13.461,5.048l0,48.797l15.144,0l0,21.875c0,11.779 0,21.875 1.683,23.558l1.683,1.682l1.682,-1.682c1.683,-1.683 45.432,-3.366 52.163,-1.683l3.366,1.683c0,0 -1.683,28.605 0,28.605l1.682,1.683c0,0 0.161,-43.45 0.161,-50.181l-1.843,-13.761l25.24,0l1.682,-106.008l6.731,0c0.737,-0.736 2.117,-1.473 3.577,-2.209l1.259,-0.631c1.461,-0.736 2.841,-1.472 3.577,-2.208c3.366,-5.048 20.192,-6.731 28.606,-3.366l5.048,1.683l0,-8.413l16.826,0l-1.682,-5.048c0,-8.414 5.048,-11.779 13.461,-11.779c3.365,0 15.144,5.048 15.144,5.048l-1.682,95.912l10.096,0l0,-16.826l13.461,0l-1.683,6.73l40.384,0l-1.682,67.307l58.965,1.078l-0.072,-150.836l10.096,-1.682c1.683,1.682 5.048,1.682 5.048,3.365l11.779,1.683l0,1.682c0,1.683 0,5.048 1.683,5.048c1.682,1.683 3.365,3.366 3.365,8.414l0,18.509l-1.683,3.366l0,38.701c-0.306,37.563 -1.681,42.392 5.048,42.067c3.366,1.682 6.731,3.365 8.414,3.365l3.365,0l0,-8.413l15.144,0l0,-21.875l13.461,0l0,-107.691l-6.73,0l3.365,-1.683c3.365,-1.682 3.365,-3.365 3.365,-10.096l0,-79.085l3.366,0c0.001,-1.682 3.364,-1.683 5.048,-1.683l1.682,0l-0.198,50.479l5.246,0.001l0,31.971l26.923,3.365l0,-5.048l1.683,-3.365l6.731,-1.683c3.365,0 10.096,0 11.778,1.683l3.366,0l-0.2,50.536l18.709,-0.056l0,38.702l1.683,6.73l1.682,0l0,11.779l-1.682,0l-0.308,87.198l45.72,0.177c0,0 0.02,-45.308 0.02,-94.106l0,-55.528l26.922,1.683l0,92.547l6.731,0l0,10.096c0,5.048 -0.211,46.697 1.472,46.697c0,1.682 8.438,-0.249 8.438,-0.249c0,-11.779 0.695,-34.67 0.695,-34.67l28.408,0.924l-0.199,25.695l129.453,1.987l0,233.891l-2029.3,0Zm1541.33,-225.478l1.682,-62.259l-35.336,1.683l0,-3.365l-1.682,-1.683l5.048,1.683l0,-10.096l-10.096,0c0,0 0,58.893 1.682,68.989l0,18.51l3.366,0l0,-10.096l35.336,1.682l-3.366,-5.048l3.366,0Zm-82.451,-33.653l0,-87.499l-13.462,3.365l0,84.134l13.462,0Zm75.72,-11.779l-0.397,-3.41l-26.526,-1.638l0,3.365l26.923,1.683Zm-489.657,-97.595l0,-8.413c0,0 -5.048,1.682 -10.096,3.365l-6.731,1.683l6.731,1.683c3.365,0 6.73,1.682 8.413,1.682l1.683,0Z" style="fill:#d4edfc;"/></g><g transform="matrix(1.00304,0,0,1.00304,-320.281,342.006)"><text x="367.142px" y="330.709px" style="font-family:'HandelGothic-Italic', 'Handel Gothic Italic';font-style:italic;font-size:125px;fill:#648ac6;">php</text><text x="595.142px" y="330.709px" style="font-family:'HandelGothic-Italic', 'Handel Gothic Italic';font-style:italic;font-size:125px;fill:#171715;">usergroup</text></g><text x="165.107px" y="793.88px" style="font-family:'HandelGothicBT-Regular', 'HandelGothic BT', fantasy;font-stretch:semi-expanded;font-size:66.694px;fill:#171715;">Frankfurt am Main</text><path d="M485.861,0l485.86,280.512l0,561.023l-485.86,280.512l-485.861,-280.512l0,-561.023l485.861,-280.512Zm0,28.179l461.457,266.422l0,532.845l-461.457,266.423l-461.458,-266.423l0,-532.845l461.458,-266.422Z" style="fill:#fff;"/><g><path d="M267.51,530.193l0,-178.132l2.284,-2.283l0,-5.71l2.283,-2.283l0,-9.135l1.142,-0.164l0,-13.539l2.284,0l0,-3.425l3.425,-2.284l1.142,0l0,-6.851l15.987,-35.398l13.702,36.539l4.567,4.568l0,4.567l1.142,0l3.426,2.284l0,5.71l1.142,0l0,7.739l1.142,0.254l0,13.702l2.283,0l0,6.851l2.284,0l0,176.99l6.851,0l0,30.831l-71.937,0l0,-30.831l6.851,0Z" style="fill:#648ac6;"/><path d="M445.969,220.746l0,38.824l7.993,4.567l0.038,31.745l2.261,1.539l-0.015,7.824l13.703,0l5.709,3.425l0,231.8l5.709,0l0,20.554l-83.356,0l0,-20.554l5.709,0l0,-243.218l3.426,-1.142l12.56,0l11.419,5.709l0,7.993l3.426,2.284l0,-14.844l4.567,-2.284l0,-31.972l3.426,-3.426l0,-38.824l3.425,0Z" style="fill:#16509f;"/><g><g><path d="M369.132,304.448l2.173,1.738l0,1.738l-25.854,18.032l-0.869,-1.303l24.767,-17.598l1.304,-0.869l-1.521,-1.738Z" style="fill:none;stroke:#4273a6;stroke-width:0.22px;"/><path d="M345.017,327.26l0.434,-1.304l-1.214,-1.825l-0.741,0.522l0,2.607l1.521,0Z" style="fill:none;stroke:#4273a6;stroke-width:0.22px;"/><path d="M371.305,306.186l-0.652,0" style="fill:none;stroke:#4273a6;stroke-width:0.22px;"/><path d="M368.698,304.883l0.434,-0.435" style="fill:none;stroke:#4273a6;stroke-width:0.22px;"/><path d="M369.585,306.918l1.509,1.133l-3.008,-0.093l1.868,0.896l-3.461,0.259l2.03,0.755l-3.522,0.262l2.099,0.726l-3.422,0.217l1.978,0.762l-3.415,0.28l1.87,0.794l-3.314,0.226l1.771,0.853l-3.184,0.149l1.867,0.776l-3.254,0.219l1.668,0.867l-3.475,0.418l2.004,0.63l-3.265,0.258l1.93,0.667l-3.411,0.384l1.844,0.71l-3.278,0.331l1.807,0.712l-3.141,0.216l1.823,0.695l-3.027,0.163l1.585,0.84l-3.104,0.24l1.84,0.652l-3.37,0.438l1.801,0.64l-2.721,0.003l1.751,0.681l-2.676,-0.024" style="fill:none;stroke:#4273a6;stroke-width:0.22px;"/></g><path d="M324.812,561.024l4.346,-147.949l0.651,-88.422l-26.722,-18.467l1.738,-1.955l5.432,0l0.869,-7.169l-3.477,0l1.739,-4.345l21.942,0l0,-11.08l-8.69,-1.956l0.434,-0.869l8.256,-0.217l0.217,-4.562l-8.69,-1.956l0.435,-0.869l8.473,-0.217l0.217,-4.345l-8.69,-2.172l0.434,-0.869l8.256,-0.218l0.217,-4.345l-8.69,-2.172l0.434,-0.869l8.256,-0.435l0.217,-4.128l-8.69,-2.389l0.435,-0.652l8.255,-0.217l0.218,-4.563l-8.691,-2.172l0.435,-0.652l8.256,-0.434l0.217,-4.128l-8.473,-2.173l0.434,-1.086l8.256,-0.217l0.869,-13.904l0.217,-13.036l1.738,-5.431l0,-23.029l1.521,0l0,23.029l1.738,5.431l0.217,13.036l0.869,13.904l8.256,0.217l0.435,1.086l-8.473,2.173l0.217,4.128l8.256,0.434l0.434,0.652l-8.69,2.172l0.217,4.563l8.256,0.217l0.434,0.652l-8.69,2.389l0.217,4.128l8.256,0.435l0.435,0.869l-8.691,2.172l0.218,4.345l8.255,0.218l0.435,0.869l-8.69,2.172l0.217,4.345l8.473,0.217l0.434,0.869l-8.69,1.956l0.217,4.562l8.256,0.217l0.435,0.869l-8.691,1.956l0,11.08l21.943,0l1.738,4.345l-3.476,0l0.869,7.169l5.431,0l1.738,1.955l-26.722,18.467l0.652,88.422l4.345,147.949l-23.681,0Z" style="fill:#4273a6;"/></g><path d="M518.677,561.024l70.796,0l-1.142,-205.537l-18.27,0l0,-20.554l-21.696,0c0,0 0.33,-5.191 -1.141,-5.709c-1.586,-1.475 -7.994,-1.142 -7.994,-1.142l0,-46.817l-3.425,0l0,46.817c0,0 -5.016,0.009 -5.71,0c-2.952,0.617 -3.425,3.426 -3.425,3.426l-4.568,0l-4.567,1.142" style="fill:#4578ad;"/><path d="M463.277,561.024l0,-211.246l12.561,0l5.138,3.425l23.408,0l2.284,-3.425l21.696,0l0,211.246l-65.087,0Zm19.412,-206.489l0,8.945l21.695,0l0,-4.573l-4.567,2.289l-17.128,-6.661Z" style="fill:#2e5883;"/><path d="M660.821,354.559l0,-26.477l2.283,7.993l0,18.627l12.561,0.785l25.121,6.851l0,3.426l1.142,0l3.426,12.56l5.709,182.7l-182.699,0l0,-34.256l25.121,0l0,-11.419l7.993,0l11.419,2.284l0,2.283l43.391,0l12.56,-3.425l7.993,0l0,13.702l4.529,-54.34l-6.812,-116.94l13.702,-7.993l9.135,3.425l3.426,0.214Z" style="fill:#6b8bad;"/><path d="M399.965,331.508l0,6.851c0,0 3.034,0.253 7.993,2.284c6.952,2.847 4.567,3.425 4.567,3.425l-12.56,5.71l0,53.487l4.111,0.866l16.443,2.74l-3.426,1.142l0,153.011l-69.654,0l0,-214.672l-11.419,-5.709c0,0 -0.165,-2.34 11.419,-3.426c9.14,-0.857 20.554,-1.142 20.554,-1.142l0,-10.277l13.702,0l18.27,5.71Z" style="fill:#7196ce;"/></g></g></svg>