<svg id="Layer_1" data-name="Layer 1" xmlns="http://www.w3.org/2000/svg" xmlns:xlink="http://www.w3.org/1999/xlink" viewBox="0 0 735 852"><defs><style>.cls-1{fill:none;}.cls-2{clip-path:url(#clip-path);}.cls-3{fill:#f9ecc6;}.cls-4{opacity:0.25;fill:url(#linear-gradient);}.cls-5{fill:#484546;}.cls-6{clip-path:url(#clip-path-2);}.cls-7{fill:#428bca;}.cls-8{fill:#3e3221;}</style><clipPath id="clip-path"><polygon class="cls-1" points="369.5 9.2 728.2 216.3 728.2 638.4 369.5 846.8 2.8 638.4 2.8 216.3 369.5 9.2"/></clipPath><linearGradient id="linear-gradient" x1="366.25" y1="-120.6" x2="367.55" y2="342.93" gradientUnits="userSpaceOnUse"><stop offset="0" stop-color="#fff" stop-opacity="0.83"/><stop offset="0.56" stop-color="#fff" stop-opacity="0.37"/><stop offset="1" stop-color="#fff" stop-opacity="0"/></linearGradient><clipPath id="clip-path-2"><polygon class="cls-1" points="1173.3 7.4 1532 214.5 1532 636.6 1173.3 845 806.6 636.6 806.6 214.5 1173.3 7.4"/></clipPath></defs><title>RStudio_Hex 2016 v7 outlines</title><g class="cls-2"><circle class="cls-3" cx="365.5" cy="439.2" r="442.1"/><ellipse class="cls-4" cx="366.9" cy="107.6" rx="315.2" ry="234.6"/></g><path class="cls-5" d="M705.6,198L427.8,37.6,367.5,2.8,307.2,37.6,29.4,198,0.1,214.9V639.2l29.3,16.9L310.6,818.5l56.9,32.8,56.9-32.8L705.6,656.1l29.3-16.9V214.9Zm0,425.3L367.5,818.5,29.4,623.3V232.8L367.5,37.6h0L705.6,232.8V623.3Z"/><g class="cls-6"><circle class="cls-7" cx="1169.3" cy="437.4" r="442.1"/></g><path class="cls-8" d="M705.6,198L427.8,37.6,367.5,2.8,307.2,37.6,29.4,198,0.1,214.9V639.2l29.3,16.9L310.6,818.5l56.9,32.8,56.9-32.8L705.6,656.1l29.3-16.9V214.9Zm0,425.3L367.5,818.5,29.4,623.3V232.8L367.5,37.6h0L705.6,232.8V623.3Z"/><g id="layer1"><path id="path4083" class="cls-8" d="M521.1,603.1a5.3,5.3,0,0,1,.9-2.7c0.8-1,3.7-9.7,10.9-32.3l1.8-5.8-2,1.3c-3,2-3.6.2-.8-2.1a41.3,41.3,0,0,0,4.8-5.2c2.1-2.8,3.2-3.2,8.2-3.1s6,0.4,7.2,3.2,1.1,4-1.7,13.6c-3.6,12.2-3.5,14.8.6,12.5,6.2-3.4,7.9-5.8,12.1-17.8,3.1-8.7,4.7-12,5.9-12s2.3,0.7-2.2,14.6-4.1,15.3.3,13.2,14.5-15.8,18-22.7c1.7-3.3,3.1-4.9,4-4.5s3.5,0,6-.8c9-2.9,12.3,4.3,7.2,16.1-3,7-3.5,12.8-1.3,14.6s9.3-4.3,10.5-10.5c2.5-12.5,8.1-20.1,14.8-20.1s8.3,7,5.2,14.3c-1.6,4-7.4,9-12.5,11s-4.4,2.4-1.7,5.4,7,1.8,14.8-3.1c5.8-3.7,7.3-3.1,3.5,1.4-6.3,7.3-15.2,10.4-19.6,6.8a10.1,10.1,0,0,1-3-4.4l-0.6-2.5-2.8,2.5a36.9,36.9,0,0,1-6.2,4.2c-3.3,1.7-3.4,1.7-5.9-1.9s-3.2-10.3.4-19.2c4.8-11.7,3.8-13.8-4.2-9.1-5,2.9-5.3,3.4-8,11.8-1.5,4.8-4.9,14.3-7.5,21.1-3.7,9.6-5.2,12.4-6.7,12.4a1.9,1.9,0,0,1-1.9-1.9c0-2,1.8-6.8,2.9-7.8s7.7-20.5,7-20.5-2.7,2.7-5.3,6c-5.4,6.8-9.3,8.5-12.8,5.6s-2.6-1.8-5.6.5c-5.9,4.5-13.4,2.4-13.4-3.7,0-1.3,1.5-6.1,3.4-10.8,3.5-8.7,4.3-13.8,2.2-14.8s-4.8.9-7.1,4.1-8,19.2-9.7,26.4-6.7,18.1-8.4,18.1a1.7,1.7,0,0,1-1.8-1.6h0Zm98.4-30a28.8,28.8,0,0,0,7-5c3.1-3,3.7-4.2,3.4-7.4s-0.8-3.8-3-4.2q-5.7-.8-9.3,8.6c-1.8,4.7-2.7,9.3-1.7,9.3l3.7-1.4h0ZM334.2,599.5a10.4,10.4,0,0,1,1.3-3.9c0.7-1.3,2.9-7.5,4.8-13.9s4.2-13.5,5-16c1.9-5.7,1.9-5.7-.4-4.9s-2.4-.2,1.7-3.6,4.8-3,9.1-2.8,5.9,0.6,6.5,1.1,1.3,6.1-1.8,14.2-3.8,13.1-.9,13.1,8.7-7.5,8.7-10.8c0-7,9.6-19.4,15.1-19.4,0.9,0,3,1.7,4.6,3.8s3.2,3.2,3.4,2.6a19.2,19.2,0,0,1,1.7-3.5c1-1.7,1.6-1.9,2.5-.9s0.6,2.9-1.3,7.9c-3.5,9.4-5.3,18.7-3.9,20.4,2.9,3.6,12-6.7,19.9-22.8,2.7-5.5,5.3-10,5.8-10s1.1,0.9-.2,3.9-0.7,3.4,1,7.2c4.8,10.5,4.3,15.4-2,22-3.5,3.6-6.3,4.1-7.2,1.2-1.5-4.9,2.2-8.8,4.2-4.4,0.8,1.8,1.2,1.5,2.5-2.4a28.7,28.7,0,0,0,1.5-6.8c0-3-2-9.9-2.8-9.9s-1.6,2.3-2.8,5.1c-7,17.3-18.2,26.3-22.3,18.1l-2-3.8c-0.2-.3-1.5,1-3.1,2.8a12.9,12.9,0,0,1-6.1,3.9c-2.8.6-3.8,0.1-6.1-3l-2.8-3.7-3.5,3.6c-4.1,4.2-6.2,4.5-8.9,1.2s-2.4-7.5,1.1-17.2,3-11.5-1.9-9.1c-3.4,1.6-4.3,3.5-10.3,22.1s-6.8,19.9-8.6,19.9a1.6,1.6,0,0,1-1.7-1.5h0Zm49.1-21.6c3.8-5.5,5.6-11.4,4.7-15.7-1.9-9.5-9.5-7-14.3,4.7-1.9,4.6-2.1,14.4-.4,15.3C377.1,584,379.9,582.8,383.3,577.9Zm-284,15.9c-3.4-1.3-6.2-4.4-8.1-8.8l-1.4-3.3-3.9,3.9c-5.7,5.7-6.8,3-1.8-4.4s6.7-11.6,6.7-14.1,4.7-13.7,7.9-18.1,9.3-9.5,12.4-9.5,8,6.2,8,9.7-5.1,9.6-6.9,9.6-1.9-3.9.1-6.6,2-3.7,1.5-5.3c-1.4-5.3-6.2-4.2-10.9,2.5-8.4,11.9-11.1,31.6-5.1,37.3s18.2,1,20.2-5.3l2.1-6.7c1.5-4.9,6.4-11.5,10.6-14.2,2.6-1.7,3.7-1.8,5.7-.7s2.4,1.9,1.9,6.9-3.1,9.7-10.7,13.8c-4.7,2.6-5.5,4.3-3.5,6.8s6,1.6,10.6-2,7.2-6.9,8.6-12.5,6.4-12.4,10.2-14.2c5.5-2.6,9.9,5.1,5.9,10.1-1.8,2.3-3.7,1.3-3-1.7a6.7,6.7,0,0,0-.3-3.7c-1.5-3-5.7.8-8.3,7.6s-2.9,9.2-1.3,13.5,4.3,4,10.9,0,8.7-6.3,12.5-15.6c3.1-7.7,5.1-10.4,6.4-8.7s-1.2,5.3-3.4,10.9-4,11.9-4,14c0,3.8.1,3.9,3.7,3.4a20.6,20.6,0,0,0,5.4-1.5c2.5-1.3,2.1,1.4-.4,3s-8.8,1.7-11.2-1.8l-2.2-3.1-4.8,3c-6.5,4.1-11.8,4-15.1-.2s-2.7-3.1-4.4-1.1c-4.8,5.4-14.7,7-18.1,3l-2.1-2.5-5.1,3.2c-5.7,3.6-10.8,4.6-15,3h0Zm28.5-17.7a40.2,40.2,0,0,0,5.2-5.7c1.7-2.6,2.3-6.8,1-6.8s-5.3,4.1-8.1,8.8c-4.5,7.6-3.8,9,1.9,3.7h0ZM266.3,589c-1.7-1.3-3.2-3-3.2-3.7s-1.1-2.6-2.5-4.2-2.4-2.9-.6-4.1a7.9,7.9,0,0,0,2.5-4.6,24.9,24.9,0,0,1,8.5-14.4c3.3-2.7,4.5-3.1,6.6-2.1s2.7,2.1,2.9,5.1-0.3,4.7-3.7,8.6a38.8,38.8,0,0,1-7.3,6.6c-4.1,2.4-4.7,3.6-3.4,6.6,4.1,9.4,13.4,2.6,24.6-18.1,5.4-10,7.2-11.8,6.3-6.3a8.9,8.9,0,0,0,1.3,6.2,21.6,21.6,0,0,1,2.4,7c0.3,2.3.9,4.1,1.2,4s9.9-14.2,9.9-15.6a1.1,1.1,0,0,1,1-1.3c0.5,0,2.1-3,3.4-6.6s3-6.6,4-6.6,1.6,2.2-.2,7.8c-0.5,1.7-.1,1.9,2.9,1.2,5-1.2,4.4.9-1.1,4.2s-4.8,3.3-7.3,11.4c-3.7,12.2-4.3,16.5-2.2,16.5a11.5,11.5,0,0,0,4.5-1.8c3.5-2.2,3.7-.8.5,3s-7.1,3.7-8.4,1.1-1-9.1,1.1-15.5c1.1-3.3,1.6-6,1.2-6s-5.7,7.5-10,15.3c-5.2,9.4-9.3,10.7-12.2,3.8-1.3-3.2-1.3-3.6.6-6s2.3-2.3,3.5-1,1.3,1.8-.6,3.6-2.6,3.5-.7,3.5,2.5-1.7,3.9-3.7c3.1-4.6,3.5-12.9.8-16s-2-1.5-6.8,6.4c-6,10-13.9,18.1-17.6,18.1a12,12,0,0,1-5.8-2.4h0Zm8.8-22.7c1.5-1.7,2.7-3.8,2.7-4.6s-3.5-3.3-5.3-2-6.4,9-6.4,11.5,0.2,2.1,3.2.2a31.2,31.2,0,0,0,5.8-5.1h0Zm-59.6,21.9c0-1.1,1.6-6.1,3.5-11.1,3.5-9,5.2-15.9,3.9-15.9s-7.2,4.2-9.5,6.3-3.3-.4-0.3-3.4,10.6-7,12.9-5.5,2.8,0.9,4.8-.1c7.8-3.6,10.8,2.9,7.1,15.4-1.2,3.9-2.3,8-2.6,9.1s2.5,4.1,3.9,2.3a3.6,3.6,0,0,1,2.5-1.2c1,0,.6,1-1.3,3.1-3.6,4-7.5,3.6-8.8-.9-0.7-2.5-.3-5,1.7-11.2,4.1-12.7,3.2-17.3-2.5-13.2-2.4,1.7-3.9,4.6-6.7,13.1-2,6-3.9,11.8-4.2,13-0.7,2.7-4.5,2.8-4.5.1h0Zm276.3-3c-2.5-3.1-2.3-7.8.8-19.2,2.1-7.6,2.4-9.9,1.4-11.1s-2-1-4.8.9-3.9,3.3-7,15.3-5.1,16.8-6.7,14.8,0.2-5.3,1.9-12c3.3-12.7,3.2-16.1-.3-6.6a79.7,79.7,0,0,1-6.5,13c-3.7,5.7-4.4,6.3-7.9,6.3s-3.9-.3-4.6-3.8-1-3.6-2.2-2.1c-5.3,6.4-9.8,7.5-12.2,2.9s-1.2-11,.9-15.5c0.8-1.7.8-2.4-.1-2.8s0.1-2.5,2.2-6,3.4-5.9,3.4-6.6a1.4,1.4,0,0,1,1.6-1.1c1.9,0,1.4,2.9-2.6,15.5-3.2,9.9-3.6,14.1-1.3,15.2s6.8-2.2,9.5-6.8c1.3-2.2,3.6-8.2,5.1-13.3,2.9-10,3.3-10.9,5.1-9.5s0.1,4.7-2.7,14.6c-2.1,7.5-3.6,14.2-3.3,14.7s4,1,6.6-2.4,4.9-8.8,7.7-15.4c5-11.7,7.7-14.9,9.5-11.2,0.6,1.2,1.3,1.3,3.3.1s6.6-1.8,8.1,0,1.4,9.8-.8,17.6-2.5,12.4.1,12.4,5.9-2.1,7-4.1,0.7-.3.7,1.2c0,5.7-8.4,9.4-11.8,5.1h0Zm156.9,0.4c0-2.8,1.8-5,3.5-4.2s1.7,4.8-.2,5.7-3.3.9-3.3-1.4h0Zm-394.4-20c1.2-1.6,2-3.6,1.9-4.5a1.9,1.9,0,0,1,1.4-2.1c2.6-.7,2.1,3.1-1,6.4s-5.1,3.9-2.3.1h0Zm-76.8-15.9c0-2.1,2.3-3.6,3.9-2.4s0.7,1.3-.1,2.5-3.8,2.2-3.8-.1h0Zm392.6-6.2c-0.6-1.9,1.9-5.3,3.8-5.3s0.8,5.8-.8,6.5S570.8,545.8,570.1,543.6Z"/><g id="flowRoot3914"><path id="path4408" class="cls-8" d="M184.3,323.8q0,22.1-14.2,37.7t-34,15.4q-20,0-34.2-15.4T87.8,323.8q0-22.1,14.2-37.7t34.2-15.6q20,0,34,15.6t14.2,37.7m-21,0a30,30,0,0,0-8-21.1q-8-8.8-19.2-8.8t-19.3,8.8q-7.8,8.6-7.8,21.1a30.4,30.4,0,0,0,8,21.1q8,8.8,19.2,8.8t19.2-8.8a30.4,30.4,0,0,0,8-21.1m61.3,56.1-126,45a23.4,23.4,0,0,1-6.8,1.7,8.8,8.8,0,0,1-6.8-3.5,13.1,13.1,0,0,1-3-8.8,11.4,11.4,0,0,1,2.3-7q1.7-2.4,7.8-4.6l126-45a23.4,23.4,0,0,1,6.8-1.7,8.4,8.4,0,0,1,6.8,3.7,12.5,12.5,0,0,1,3,8.5,11.7,11.7,0,0,1-2.3,7.2q-1.7,2.4-7.8,4.6m3,79.2q0,22.1-14.2,37.7t-34.2,15.4q-20,0-34.2-15.6t-14.2-37.5q0-22.1,14.2-37.7t34.2-15.6q20,0,34.2,15.6t14.2,37.7m-21.2,0a30,30,0,0,0-8-21.1q-8-8.8-19.2-8.8T160.1,438a30,30,0,0,0-8,21.1,30.4,30.4,0,0,0,8,21.1q8,8.6,19.2,8.6t19.2-8.6a30.4,30.4,0,0,0,8-21.1"/><path id="path4410" class="cls-8" d="M398.7,399.4L288.1,331.7q-8.3-5.1-11.2-9.2a18.3,18.3,0,0,1-2.7-10.3,19.6,19.6,0,0,1,5.2-13.6,15.9,15.9,0,0,1,12.2-5.7q4.3,0,13.3,5.3L469.7,399.4,304.9,500.4q-9,5.5-13.3,5.5a15.9,15.9,0,0,1-12.2-5.7,19.8,19.8,0,0,1-5.2-13.8,18.3,18.3,0,0,1,2.7-10.3q2.8-4,11.2-9.2l110.6-67.6"/><path id="path4412" class="cls-8" d="M593.5,323.8q0,22.1-14.2,37.7t-34,15.4q-20,0-34.2-15.4T497,323.8q0-22.1,14.2-37.7t34.2-15.6q20,0,34,15.6t14.2,37.7m-21,0a30,30,0,0,0-8-21.1q-8-8.8-19.2-8.8T526,302.7q-7.8,8.6-7.8,21.1a30.4,30.4,0,0,0,8,21.1q8,8.8,19.2,8.8t19.2-8.8a30.4,30.4,0,0,0,8-21.1m61.3,56.1-126,45a23.4,23.4,0,0,1-6.8,1.7,8.8,8.8,0,0,1-6.8-3.5,13.1,13.1,0,0,1-3-8.8,11.4,11.4,0,0,1,2.3-7q1.7-2.4,7.8-4.6l126-45a23.4,23.4,0,0,1,6.8-1.7,8.4,8.4,0,0,1,6.8,3.7,12.5,12.5,0,0,1,3,8.5,11.7,11.7,0,0,1-2.3,7.2q-1.7,2.4-7.8,4.6m3,79.2q0,22.1-14.2,37.7t-34.2,15.4q-20,0-34.2-15.6t-14.2-37.5q0-22.1,14.2-37.7t34.2-15.6q20,0,34.2,15.6t14.2,37.7m-21.2,0a30,30,0,0,0-8-21.1q-8-8.8-19.2-8.8T569.3,438a30,30,0,0,0-8,21.1,30.4,30.4,0,0,0,8,21.1q8,8.6,19.2,8.6t19.2-8.6a30.4,30.4,0,0,0,8-21.1"/></g></g></svg>