<?xml version="1.0" encoding="UTF-8" standalone="no"?>
<svg
   xmlns:dc="http://purl.org/dc/elements/1.1/"
   xmlns:cc="http://creativecommons.org/ns#"
   xmlns:rdf="http://www.w3.org/1999/02/22-rdf-syntax-ns#"
   xmlns:svg="http://www.w3.org/2000/svg"
   xmlns="http://www.w3.org/2000/svg"
   width="181"
   height="209"
   viewBox="0 0 181 209"
   id="svg4823"
   version="1.1">
  <defs
     id="defs4825" />
  <metadata
     id="metadata4828">
    <rdf:RDF>
      <cc:Work
         rdf:about="">
        <dc:format>image/svg+xml</dc:format>
        <dc:type
           rdf:resource="http://purl.org/dc/dcmitype/StillImage" />
        <dc:title></dc:title>
      </cc:Work>
    </rdf:RDF>
  </metadata>
  <g
     id="layer1"
     transform="translate(0,-843.36216)">
    <g
       id="g4861"
       transform="translate(-1.4238812,1.0609422)">
      <path
         d="m 169.25487,991.50021 -77.330993,44.69899 -77.330984,-44.69899 0,-89.39798 77.330984,-44.69898 77.330993,44.69898 z"
         id="path4713"
         style="opacity:1;fill:#ff8800;fill-opacity:1;stroke:#ff8800;stroke-width:1.03862655;stroke-opacity:1" />
      <path
         d="m 156.27388,983.99775 -64.350002,37.19655 -64.349997,-37.19655 0,-74.39306 64.349997,-37.19653 64.350002,37.19653 z"
         id="path4713-9"
         style="opacity:1;fill:#ffffff;fill-opacity:1;stroke:none" />
      <path
         d="m 151.18888,981.05845 -59.265001,34.25725 -59.264997,-34.25725 0,-68.51445 59.264997,-34.25722 59.265001,34.25722 z"
         id="path4713-9-2"
         style="opacity:1;fill:#000000;fill-opacity:1;stroke:none" />
      <path
         d="m 145.20388,977.5989 -53.280002,30.7977 -53.279997,-30.7977 0,-61.59537 53.279997,-30.79768 53.280002,30.79768 z"
         id="path4713-9-2-3"
         style="opacity:1;fill:#ffffff;fill-opacity:1;stroke:none" />
      <g
         transform="matrix(0.49200385,0,0,0.49200385,-92.923163,810.32044)"
         id="g3504-5-4">
        <path
           d="m 383.135,204.728 c 45.095,1.401 71.316,21.923 71.316,52.016 0,27.513 -17.008,42.568 -72.991,52.5 -41.696,7.409 -52.725,17.462 -52.725,34.635 0,10.523 3.516,18.574 9.667,25.793 -9.366,-5.886 -16.893,-18.028 -16.893,-31.771 0,-8.442 2.494,-16.447 8.153,-23.223 l 0,-98.354 c -1.39,-0.09 -2.8,-0.131 -4.235,-0.131 -0.624,0 -1.233,0.028 -1.825,0.061 -0.766,0.051 -1,-0.835 -0.201,-1.172 1.935,-0.811 4.024,-1.607 6.261,-2.358 l 0,-20.674 c 0,-0.421 0.331,-0.767 0.765,-0.767 l 11.207,0 c 0.422,0 0.767,0.346 0.767,0.767 l 0,17.141 c 13.392,-3.075 28.708,-4.839 40.734,-4.463 M 342.4,304.515 c 1.521,-0.823 3.15,-1.606 4.85,-2.339 20.276,-8.74 30.313,-24.1 30.313,-43.009 0,-18.755 -13.859,-35.087 -35.163,-40.797 l 0,86.145 z"
           id="path3506-3-1" />
      </g>
    </g>
  </g>
</svg>
