<svg id="Layer_1" data-name="Layer 1" xmlns="http://www.w3.org/2000/svg" xmlns:xlink="http://www.w3.org/1999/xlink" viewBox="0 0 735 852"><defs><style>.cls-1{fill:#77aab6;}.cls-2{clip-path:url(#clip-path);}.cls-3,.cls-4{fill:#fff;}.cls-4{opacity:0.25;}.cls-5{fill:#e6b35a;}.cls-6{fill:#404040;}.cls-7{fill:#fefefe;}.cls-8{fill:#070707;}.cls-9{fill:#a7a7a7;}.cls-10{fill:#888585;}.cls-11{fill:#fdeac5;}.cls-12{fill:#406e9f;}.cls-13{fill:#374653;}.cls-14{fill:#3a577c;}.cls-15{fill:#e2ca9c;}.cls-16{fill:#232e39;}.cls-17{fill:#274369;}.cls-18{fill:#702b2b;}.cls-19{fill:#2a5786;}.cls-20{fill:#582816;}.cls-21{fill:#c9c9c9;}.cls-22{fill:#441c0d;}</style><clipPath id="clip-path"><polygon class="cls-1" points="369.5 7.4 728.2 214.5 728.2 636.6 369.5 845 2.8 636.6 2.8 214.5 369.5 7.4"/></clipPath></defs><title>RStudio_Hex 2016 v7 outlines</title><polygon class="cls-1" points="369.5 7.4 728.2 214.5 728.2 636.6 369.5 845 2.8 636.6 2.8 214.5 369.5 7.4"/><g class="cls-2"><circle class="cls-3" cx="365.5" cy="437.4" r="442.1"/><ellipse class="cls-4" cx="366.9" cy="105.8" rx="315.2" ry="234.6"/></g><path class="cls-5" d="M367,633.9l0.9-.9h-0.3Z"/><path class="cls-6" d="M107.6,542.7c0-9.9-.3-17.9-0.6-25.3h12.6l0.6,13.3h0.3c5.8-9.4,14.9-15,27.5-15,18.7,0,32.8,15.8,32.8,39.4,0,27.8-17,41.6-35.2,41.6-10.2,0-19.2-4.5-23.8-12.2h-0.3v42.1H107.6V542.7Zm13.9,20.6a31.7,31.7,0,0,0,.6,5.8,21.7,21.7,0,0,0,21.1,16.5c14.9,0,23.5-12.2,23.5-29.9,0-15.5-8.2-28.8-23-28.8-9.6,0-18.6,6.9-21.3,17.4a22.8,22.8,0,0,0-1,5.8v13.3Z"/><path class="cls-6" d="M193.5,481.3h14.1V594.9H193.5V481.3Z"/><path class="cls-6" d="M290.9,573.8c0,8,.2,15,0.6,21.1H279.1l-0.8-12.6H278a29.1,29.1,0,0,1-25.6,14.4c-12.2,0-26.7-6.7-26.7-33.9V517.4h14.1v42.9c0,14.7,4.5,24.6,17.3,24.6,9.4,0,16-6.6,18.6-12.8a20.6,20.6,0,0,0,1.3-7.2V517.4h14.1v56.3Z"/><path class="cls-6" d="M309.2,538.4c0-8-.2-14.6-0.6-21h12.3l0.6,12.5H322c4.3-7.4,11.5-14.2,24.3-14.2,10.6,0,18.6,6.4,21.9,15.5h0.3a31.9,31.9,0,0,1,8.6-10.1c4.6-3.5,9.8-5.4,17.1-5.4,10.2,0,25.4,6.7,25.4,33.6v45.6H406V551c0-14.9-5.4-23.8-16.8-23.8-8,0-14.2,5.9-16.6,12.8a23.2,23.2,0,0,0-1.1,7v47.8H357.7V548.5c0-12.3-5.4-21.3-16.2-21.3-8.8,0-15.2,7-17.4,14.1a19.4,19.4,0,0,0-1.1,6.9v46.7H309.2V538.4Z"/><path class="cls-6" d="M437.5,481.3h13.9v48.6h0.3c5-8.6,13.9-14.2,26.4-14.2,19.2,0,32.8,16,32.6,39.5,0,27.7-17.4,41.4-34.7,41.4-11.2,0-20.2-4.3-25.9-14.6h-0.5L449,594.9H436.9c0.3-5.3.6-13.1,0.6-20V481.3Zm13.9,82.6a26.3,26.3,0,0,0,.6,5.1c2.7,9.8,10.9,16.5,21.1,16.5,14.7,0,23.5-12,23.5-29.8,0-15.5-8-28.8-23-28.8-9.6,0-18.6,6.6-21.4,17.3a27.7,27.7,0,0,0-.8,5.8v13.9Z"/><path class="cls-6" d="M531.2,558.7c0.3,19,12.5,26.9,26.6,26.9,10.1,0,16.2-1.8,21.4-4l2.4,10.1c-5,2.2-13.4,5-25.8,5-23.8,0-38.1-15.8-38.1-39.2s13.8-41.8,36.3-41.8c25.3,0,32,22.2,32,36.5a53.1,53.1,0,0,1-.5,6.6H531.2Zm41.3-10.1c0.2-9-3.7-22.9-19.5-22.9-14.2,0-20.5,13.1-21.6,22.9h41.1Z"/><path class="cls-6" d="M598.4,541.6c0-9.1-.2-17-0.6-24.2h12.3l0.5,15.2h0.6c3.5-10.4,12-17,21.4-17a15.2,15.2,0,0,1,4,.5v13.3a21.1,21.1,0,0,0-4.8-.5c-9.9,0-17,7.5-18.9,18.1a39.7,39.7,0,0,0-.6,6.6v41.3H598.4V541.6Z"/><path class="cls-6" d="M705.6,196.2L427.8,35.8,367.5,1,307.2,35.8,29.4,196.2,0.1,213.1V637.4l29.3,16.9L310.6,816.7l56.9,32.8,56.9-32.8L705.6,654.3l29.3-16.9V213.1Zm0,425.3L367.5,816.7,29.4,621.5V231L367.5,35.8h0L705.6,231V621.5Z"/><path class="cls-6" d="M365.5,797.3l4.5,4.5,2.7,2.9h0.1c-0.4-1.2-.7-2.5-1-3.9l-1.4-6.3,1.6-.9,4.7,4.3,2.9,2.9h0.1a36.7,36.7,0,0,1-1.2-3.9l-1.6-6.1,1.9-1.1,2.7,12.4-1.7,1-4.5-4.1a40.7,40.7,0,0,1-2.9-2.9h0a35.5,35.5,0,0,1,1.1,4l1.2,5.9-1.7,1-9.2-8.6Z"/><path class="cls-6" d="M381.7,787.9l4.5,4.5,2.7,2.9h0.1c-0.4-1.2-.7-2.5-1-3.9l-1.4-6.3,1.6-.9,4.7,4.3,2.9,2.9h0.1a36.3,36.3,0,0,1-1.2-3.9l-1.6-6.1,1.9-1.1,2.7,12.4-1.7,1-4.5-4.1a40.2,40.2,0,0,1-2.9-2.9h0a35.4,35.4,0,0,1,1.1,4l1.2,5.9-1.7,1-9.2-8.6Z"/><path class="cls-6" d="M397.8,778.5l4.5,4.5,2.7,2.9h0.1c-0.4-1.2-.7-2.5-1-3.9l-1.4-6.3,1.6-.9L409,779l2.9,2.9h0.1a36.4,36.4,0,0,1-1.2-3.9l-1.6-6.1,1.9-1.1,2.7,12.4-1.7,1-4.5-4.1a40.4,40.4,0,0,1-2.9-2.9h0a35.1,35.1,0,0,1,1.1,4l1.2,5.9-1.7,1-9.2-8.6Z"/><path class="cls-6" d="M419.2,780.4a1.6,1.6,0,1,1,.5-2.1,1.5,1.5,0,0,1-.5,2.1h0Z"/><path class="cls-6" d="M418.5,770.8l-2-3.2,1.7-1,1.3,2h0.1a3.6,3.6,0,0,1,1.6-4l0.6-.2,1,1.8-0.7.3a3.1,3.1,0,0,0-1.1,3.9l0.4,0.9,3.2,5.6-1.9,1.1Z"/><path class="cls-6" d="M428.4,772.1a5.8,5.8,0,0,0,2.9-.7c1.4-.8,1.6-1.9,1.1-2.7s-1.4-1.1-3.1-.8-3.8-.1-4.5-1.3-0.4-3.9,1.8-5.2a6,6,0,0,1,2.9-.8l0.3,1.7a4.7,4.7,0,0,0-2.5.6,1.8,1.8,0,0,0-.9,2.4c0.5,0.9,1.4.9,3,.6s3.7,0,4.6,1.6,0.4,4-2.1,5.4a6.9,6.9,0,0,1-3.4,1Z"/><path class="cls-6" d="M433.1,754.6l1.5,2.5,2.7-1.6,0.8,1.4-2.7,1.6,3.3,5.6c0.8,1.3,1.6,1.8,2.6,1.2l1-.8,0.9,1.4a5.3,5.3,0,0,1-1.5,1.3,3.1,3.1,0,0,1-2.5.4,4.5,4.5,0,0,1-2.3-2.3l-3.3-5.7-1.6.9-0.8-1.4,1.6-.9-1.1-1.9Z"/><path class="cls-6" d="M452.6,756.8l1.7,2.8-1.7,1-1.1-1.6h0a4.6,4.6,0,0,1-2.3,4c-1.6,1-4.1,1.2-6.3-2.5l-3.6-6.1,1.9-1.1,3.4,5.8c1.2,2,2.5,3,4.3,2a3.2,3.2,0,0,0,1.5-3.2,3.2,3.2,0,0,0-.4-1.1l-3.7-6.4,1.9-1.1Z"/><path class="cls-6" d="M457.5,737.2l7.4,12.6,1.7,2.6-1.7,1-1.1-1.8h0a4.5,4.5,0,0,1-2.4,4.1c-2.5,1.5-5.7.5-7.6-2.7s-1.1-6.9,1.4-8.3a4,4,0,0,1,4.1-.2h0l-3.6-6.2Zm3.4,10.2-0.6-.7a3.2,3.2,0,0,0-4-.6c-2,1.1-2.1,3.6-.8,5.9s3.3,3.3,5.3,2.1a3.3,3.3,0,0,0,1.5-3.9,3.8,3.8,0,0,0-.4-0.9Z"/><path class="cls-6" d="M463.9,736.1a1.4,1.4,0,0,1-2.4,1.4,1.3,1.3,0,0,1,.5-1.9A1.3,1.3,0,0,1,463.9,736.1Zm5.7,14.6-6.1-10.5,1.9-1.1,6.1,10.5Z"/><path class="cls-6" d="M481,736.9c2.3,3.9.6,7.1-2,8.6s-6.2.8-8.1-2.5-0.9-6.9,2-8.6S479.1,733.7,481,736.9Zm-8.2,4.9c1.3,2.3,3.7,3.2,5.5,2.2s2.2-3.6.8-5.9-3.2-3.5-5.5-2.2S471.6,739.9,472.8,741.9Z"/><path class="cls-6" d="M486.9,740.9a1.6,1.6,0,1,1,.5-2.1,1.5,1.5,0,0,1-.5,2.1h0Z"/><path class="cls-6" d="M497.7,733.8a8,8,0,0,1-2.6,2.4c-3.2,1.8-6.5.9-8.3-2.3a6.1,6.1,0,0,1,2.4-8.8,7.3,7.3,0,0,1,2.9-1l0.4,1.7a5.1,5.1,0,0,0-2.5.8c-2.4,1.4-2.7,3.9-1.4,6.1s3.8,3,5.9,1.8a6.2,6.2,0,0,0,2-1.9Z"/><path class="cls-6" d="M506.4,722.2c2.3,3.9.6,7.1-2,8.6s-6.2.8-8.1-2.5-0.9-6.9,2-8.6S504.5,719,506.4,722.2Zm-8.2,4.9c1.3,2.3,3.7,3.2,5.5,2.2s2.2-3.6.8-5.9-3.2-3.5-5.5-2.2S497,725.1,498.1,727.1Z"/><path class="cls-6" d="M507.4,718.5l-1.7-2.8,1.7-1,1.1,1.6h0.1a4.2,4.2,0,0,1,2.2-3.8,3.6,3.6,0,0,1,4.2.4h0a5,5,0,0,1,.4-2,4.1,4.1,0,0,1,1.9-2.1c1.4-.8,4-1.1,6.1,2.5l3.6,6.2-1.9,1.1-3.4-5.9c-1.2-2-2.6-2.8-4.1-1.9a2.9,2.9,0,0,0-1.2,3,3.6,3.6,0,0,0,.4,1l3.8,6.5-1.9,1.1-3.6-6.3c-1-1.7-2.4-2.4-3.9-1.6a3,3,0,0,0-1.2,3.3,3.1,3.1,0,0,0,.4,1l3.7,6.3-1.9,1.1Z"/><path class="cls-7" d="M388.2,139.8l-10.4,1.4c-4.8.7-9.4,2.4-14.2,3.3a30.2,30.2,0,0,0-10.5,4.5c-11.2,7.2-19.8,16.7-25.3,28.9-0.6,1.4-.6,3.3-1.9,4.1s-3,1.1-4.5,1.6a46,46,0,0,0-15.2,8.8c-2.7,2.4-3.3,5.5-1.5,7.9a9.7,9.7,0,0,0,7.9,3.7,15.4,15.4,0,0,0,6.1-.9,4,4,0,0,1,1.8-.2c0.7,0.1,1.5.3,1.4,1.1a56,56,0,0,0-.8,11.5,125.6,125.6,0,0,1-.5,13c-0.5,4.7-1.6,9.3-2,14.1s-1.2,10,.2,14.9a37.3,37.3,0,0,0,4.8,11.3c1.6,2.4,3.4,4.6,5,7.1,2.6,4.2,6.5,7,10.8,9.3a41.4,41.4,0,0,0,11.3,3.9c0.6,0.1,1.4.1,1.3,1.2a1.6,1.6,0,0,1-1.2,1.8,12.4,12.4,0,0,0-5.5,3.9c-0.9,1.2-1.9,2.6-3.5,3.1l-21,6.1a28.5,28.5,0,0,0-4.4,1.1,29.6,29.6,0,0,1-6.2,1.8,24.2,24.2,0,0,0-4.4,1.4,1.8,1.8,0,0,0-1.3,1.8,0.6,0.6,0,0,1-.7.8,46.6,46.6,0,0,0-15.4,4.7c-0.5.2-.7,0.2-0.9-0.3a39,39,0,0,0-4.8-6.8,41.6,41.6,0,0,0-11.5-10.4c-2.8-1.6-2.3-.7-1.9-4.1s0.4-4.7-.5-6.9,0.1-1.8.9-2.4l1.5-.7c6.7-2.7,12.9-6.4,19.7-8.9a13.2,13.2,0,0,0,5.7-4.5c3.3-4.1,3.6-8.8,1.5-13.4a55.1,55.1,0,0,0-5.6-9.4,1,1,0,0,1-.1-1.3c0-.1.1-0.3,0.3-0.1s-0.2,0-.3-0.2,0.5-1.8,1.2-1.8,0.5-.3.5-0.6a2.5,2.5,0,0,0-.4-1.4c-1.3-2.1-2.5-4.3-4-6.4a5.2,5.2,0,0,0-4.1-2.4,39.4,39.4,0,0,0-6.1.4c-3.7.4-6.7,2.5-9.8,4.3a17,17,0,0,0-5.5,4.4,3.1,3.1,0,0,0-.6,3.1q1.5,3.7,3.2,7.4c0.7,1.5,1.8,2.8,3.7,2.7a1.8,1.8,0,0,1,2.2,1.7c0.1,0.4.3,0.8,0.4,1.2a4.2,4.2,0,0,1-2.2,4.7l-12.5,5.6a1,1,0,0,1-1.4-.2,9,9,0,0,0-3.9-2.5c-2.5-.7-4.2.1-5,2.5-0.2.7-.5,0.5-1,0.4-2.9-.6-4.8.3-5.9,2.9a1.1,1.1,0,0,1-1.3.6,3.2,3.2,0,0,0-3.5,2.9,5.5,5.5,0,0,0-.1,2.3,0.9,0.9,0,0,1-.7,1.2l-17.2,7.7c-6.5,2.8-13.1,5.5-19.4,8.7-1.6.8-3.2,1.9-4.9,2-3.6.3-6.2,2.4-9,4.2a1.5,1.5,0,0,0-.7.9c0.2,1.5-1,1.7-1.9,2.2l-4,2.2a22,22,0,0,0-3.7,3,1.6,1.6,0,0,1,1.8,1.3c0.7,1.4,1.4,2.8,2.2,4.1a26.3,26.3,0,0,0,2.5,3.7c1.1,1.4,1.2,1.6,2.8,1a31.3,31.3,0,0,0,5.3-2.5c0.9-.6,1.7-1.5,2.8-0.4a1,1,0,0,0,.7.1c3.5-.2,6.6-1.2,8.8-4.1a1.3,1.3,0,0,0,.9-0.2,2.9,2.9,0,0,0,1.1-.1c3.5-1.9,7.3-3,10.9-4.7,7.9-3.7,15.8-7.3,23.8-10.7a1.3,1.3,0,0,1,1.8.4,8.6,8.6,0,0,0,2.2,2.2,36.4,36.4,0,0,1,6.7,5.4c0.9,0.9,1.7,2.1,3.3,2s0.5,0.5.6,0.8,0.6,3.1,1,4.7c1.2,4.5,1.9,9.2,4.7,13,5.1,7.1,10.5,13.9,18.6,18a37.4,37.4,0,0,0,24.3,3.6,53.5,53.5,0,0,0,10-2.7,1.1,1.1,0,0,1,1.4.1,5.6,5.6,0,0,0,6.7,1.2,0.9,0.9,0,0,1,1-.2c0.4,0.3,0,.7,0,1-2,9.8-4.6,19.5-5.7,29.5-0.1.8,0.1,1.8-1.3,0.9a0.8,0.8,0,0,0-1.1.3,4.2,4.2,0,0,0-.6,1.3,49.7,49.7,0,0,0-1.7,14.9,2.8,2.8,0,0,0,.4,1.2,11.7,11.7,0,0,0,4.7,4.9,0.9,0.9,0,0,1,.7,1,72.6,72.6,0,0,0,.5,17.3,109.1,109.1,0,0,0,5.4,22.7,314.9,314.9,0,0,0,14.7,33.9c3,5.9,5.8,11.9,10,17.1a1,1,0,0,1,.3.9c-0.4.2-1.2-.1-1.3,0.6a1.6,1.6,0,0,0,.7,1.5,7,7,0,0,1,1.6,1.4,26.1,26.1,0,0,0-14.1,12,8.9,8.9,0,0,0-.5,7.1,4.3,4.3,0,0,0,1.3,1.9c6.3,5.7,13.5,6.9,21.5,4.8a1,1,0,0,1,1.5.8,9,9,0,0,0,4.2,4.9c5.4,2.8,11.1,2.9,16.9,1.7,1.3-.3,2.5-0.8,3.8-1a51.3,51.3,0,0,0,11.3-3.2c7-3,13.3-7.1,17.7-13.5a1.2,1.2,0,0,1,.5-0.5c0.9-.3.7-0.8,0.5-1.5-0.6-2.8-1.3-5.6-1.7-8.4-0.7-5.1-.6-10.3-1.5-15.5-2.2-12.9-4.1-25.9-6-38.8a153.1,153.1,0,0,1-2.1-17.7c-0.1-1.5-.3-3.2.3-4.6a40,40,0,0,0,1.7-4.9,70,70,0,0,0,2.8-13.9c0.1-1.6.7-1.6,1.9-1.5,3,0.2,5.9-.1,8.4-1.9a2.3,2.3,0,0,1,2-.5c3,0.5,5.3-1.8,4.5-4.3a4.6,4.6,0,0,1-.1-2c0.2-1.7.4-3.4-1.4-4.7s-1-1.2.3-1.7a20.8,20.8,0,0,0,3.1-1.7c7.3-4.4,13.2-10.4,18.7-16.9s5.9-15.1,3.7-23.4a1.2,1.2,0,0,0-.5-0.8c-1.3-.2-1.2-1.5-1.6-2.3s-1.1-2.4-1.7-3.6c-2.1-4.9-5.7-8.8-8.3-13.3a51.2,51.2,0,0,0-4.6-6.7c-1-1.2-1.8-2.4-2.7-3.6s-0.2-1.1-.7-1.6l-3.6-3.4a85.8,85.8,0,0,0-23-15.3l-0.9-.3c-2.3-.2-4-1.9-6.1-2.6a2.9,2.9,0,0,1-1.1-1.2,1.3,1.3,0,0,1,.2-2,8.2,8.2,0,0,1,3.2-1.7c2.4-.8,4.9-1.2,7.1-2.5,5-3.1,9.9-6.2,14.2-10.2,6.7-6.4,11.7-13.8,13.9-22.9a1.1,1.1,0,0,1,1.1-1,21.1,21.1,0,0,0,9.3-2.9c8.6-5.1,11.3-12.5,9.6-21.6-0.3-1.7-2.1-2.8-1.9-4.5s0.9-3.3,1.3-5c0.9-4.5,1-9.1,1.4-13.6a64.7,64.7,0,0,0-2.6-24.5,3.1,3.1,0,0,0-.9-1.8,6.9,6.9,0,0,1-2.2-3.2,65.1,65.1,0,0,0-15.7-21c-5.9-5.4-13.2-8.4-20.4-11.4-1-.4-2.1-1.2-3-1.1s-1.9-.5-2.7-1.1a15.1,15.1,0,0,0-9-2.8,1.1,1.1,0,0,0-1.1.6,23.8,23.8,0,0,1-3.9-.1A1.8,1.8,0,0,0,388.2,139.8Z"/><path class="cls-8" d="M292.4,247.6a1,1,0,0,0,.1,1.3,55.1,55.1,0,0,1,5.6,9.4c2.1,4.6,1.8,9.2-1.5,13.4a13.2,13.2,0,0,1-5.7,4.5c-6.8,2.4-13,6.2-19.7,8.9l-1.5.7c-0.8.6-1.6,0.9-.9,2.4s0.8,4.6.5,6.9-0.9,2.4,1.9,4.1a41.6,41.6,0,0,1,11.5,10.4,39,39,0,0,1,4.8,6.8c0.3,0.5.5,0.5,0.9,0.3a46.6,46.6,0,0,1,15.4-4.7,0.6,0.6,0,0,0,.7-0.8,1.8,1.8,0,0,1,1.3-1.8,24.2,24.2,0,0,1,4.4-1.4,29.6,29.6,0,0,0,6.2-1.8,28.5,28.5,0,0,1,4.4-1.1l21-6.1c1.6-.5,2.6-1.9,3.5-3.1a12.4,12.4,0,0,1,5.5-3.9,1.6,1.6,0,0,0,1.2-1.8c0-1.1-.7-1-1.3-1.2a41.4,41.4,0,0,1-11.3-3.9c-4.2-2.3-8.1-5-10.8-9.3-1.5-2.4-3.3-4.7-5-7.1a37.3,37.3,0,0,1-4.8-11.3c-1.4-4.9-.7-9.9-0.2-14.9s1.6-9.4,2-14.1a125.6,125.6,0,0,0,.5-13,56,56,0,0,1,.8-11.5c0.2-.8-0.7-1.1-1.4-1.1a4,4,0,0,0-1.8.2,15.4,15.4,0,0,1-6.1.9,9.7,9.7,0,0,1-7.9-3.7c-1.9-2.4-1.3-5.5,1.5-7.9a46,46,0,0,1,15.2-8.8c1.5-.5,3.2-0.8,4.5-1.6s1.2-2.7,1.9-4.1c5.5-12.2,14.1-21.7,25.3-28.9a30.2,30.2,0,0,1,10.5-4.5c4.8-1,9.4-2.7,14.2-3.3l10.4-1.4c1.1,0.4,2.3-.1,3.6.5l-0.9.3c-4.8,1.3-9.7,1.8-14.5,2.7a69.6,69.6,0,0,0-14.1,3.6c-1.2.5-2.6,0.3-3.7,1.1l-5.4,3.8c-4.1,2.8-8.1,5.8-11.2,9.7a0.9,0.9,0,0,0-.8.5,52.6,52.6,0,0,0-9.8,14.5,21.4,21.4,0,0,0-1.9,3.6,0.8,0.8,0,0,0-.1.6,0.5,0.5,0,0,0,.7.1l3.4-1.3c0.6-.2,1.3-0.4,1.6.4s-0.7.6-.9,1h-0.4c-5.2,2.5-10.7,4.3-15.9,6.8a44.1,44.1,0,0,0-10,6.8,1.2,1.2,0,0,0-.9,1.1,2.1,2.1,0,0,0-.8,2.5c0.6,2.2,2.5,2.9,4.4,3.5a7.2,7.2,0,0,0,4.8.1,20.5,20.5,0,0,1,7-.7c2.6,0.1,5.3-.3,7.9-0.4a55.8,55.8,0,0,1,12.2,1.1c3.4,0.6,6.8,1,9.9,2.8s4.5,2.7,6.7,4.3a25.8,25.8,0,0,0,17.1,4.9,6.9,6.9,0,0,0,3.3-1.1l6.6-3.9c4.4-2.5,8.7-4.9,13.2-7.3,1.3-.7,1.8-2.1,3.1-2.8a16.2,16.2,0,0,0,3.1-1.6,56.1,56.1,0,0,0-7.8-3.4,87.2,87.2,0,0,0-10.5-3.9l-2.4-.9c-3.5-1.2-7.2-2-10.8-2.9a87.7,87.7,0,0,0-18.6-2.6,59.3,59.3,0,0,1-12.7-1.4c-0.4-.1-0.7-0.1-0.6-0.7l1.6-.4h2.1c4.9,0,9.8.1,14.7,0.6l8.9,1.1L370,183c5.3,1.1,10.5,2.5,15.7,3.9,8.7,2.5,16.6,7.1,25.3,9.8a38.7,38.7,0,0,1,8.2,3.7c0.7,0.4,1.1.3,1.4-.5s0.7-2.7,1.2-4.1a52.4,52.4,0,0,0,3.1-12.4,2.2,2.2,0,0,1,1.1-1.7c0.6,1.3.1,2.6,0.3,3.9a39.8,39.8,0,0,1-2,8.7,9.4,9.4,0,0,0-1,2.8c-0.7,1.2-.7,2.6-1.3,3.7s-0.1,1,.5,1.2l3.7,1.7c7,3.4,14.1,6.5,19.9,12l0.3,1.1c-9.2-5.9-19.3-10.2-29.2-15a28.6,28.6,0,0,0,4.2,5.9l0.9,1.4a10.9,10.9,0,0,1,1.6,9.4c-0.5,2-2,3.3-3.4,4.7s-0.6.9,0.3,1.1a10.6,10.6,0,0,1,5.7,3.8c2.7,3.3,2.9,7.1,1.8,11-0.2.7-.3,1.8-1.5,1.8,0.1-2,.1-3.9.3-5.9a9,9,0,0,0-6-8.9c-1.2-.4-2.5-1.3-3.9-0.4a0.4,0.4,0,0,1-.6-0.2,0.5,0.5,0,0,1,.3-0.7,15.8,15.8,0,0,0,2.7-2.7,9.2,9.2,0,0,0,1.5-11.8,53.6,53.6,0,0,0-3.6-5.1,36.5,36.5,0,0,0-3.6-5.1,1.1,1.1,0,0,0-1-.5c-1,.5-1.5-0.2-2.2-0.5s-2.8-1.3-4.4-.5a19.1,19.1,0,0,0-4.1,2.6c-3.2,2.8-7.1,4.5-10.7,6.5l-7.1,4.1a32.6,32.6,0,0,1,5.8,2.2,21.7,21.7,0,0,1,6.5,4.9,13.8,13.8,0,0,1,2.9,5.6c0.3,1.3-1,1.1-1.4,1.7s-0.7-.2-1-0.6a10.1,10.1,0,0,0-2-1.8c-1.6-.9-2.8-2.8-5-2.3l-0.3-.2c-0.9-1.7-2.7-1.8-4.3-2.3l-5.4-2.1c-1.7-.7-1.7-0.8-0.9-2.8-1.4,1.2-2.6.2-3.9,0.5a18.2,18.2,0,0,1-11.9-1.4,62.8,62.8,0,0,1-9.1-5.5c-1.9-1.3-3.9-2.7-6.2-3.2a95.1,95.1,0,0,0-18.3-2.5,2.9,2.9,0,0,0-2,.2c-2.1,1.8-4.2,3.6-4.3,6.7a32.1,32.1,0,0,0,.1,5.3,86.6,86.6,0,0,1-.8,9.5c-0.2,1.6-.5,3.3-0.6,4.9a83.8,83.8,0,0,1-1,11,30.9,30.9,0,0,0-.6,5.6,5.3,5.3,0,0,0-.1,1.9v1.9c-0.8,4.7.3,9.2,2.1,13.4a55.7,55.7,0,0,0,7,11,33.6,33.6,0,0,0,15.4,11.3c6.5,2.4,13.2,4,19.6,6.7,0.3,0.1.6,0,.7,0.5h-0.8c-3.3-.2-6.4-1.5-9.7-2.1-0.7-.1-1-0.2-1,0.7s-0.7,3-.9,4.5a1.2,1.2,0,0,1-1,1.2c-0.7.1-.7,0.6-0.7,1.1,0.2,2.7.8,5.3,3.4,6.9a2.2,2.2,0,0,1,1.1,1.4,0.2,0.2,0,0,0-.3.3,4.2,4.2,0,0,1-2.6-.9c-2.8-2.3-3.3-5.4-3.2-8.7a1.7,1.7,0,0,1,1.5-1.6c0.4-.1.6-0.3,0.4-0.7s-0.5-.2-0.7-0.1a7.5,7.5,0,0,0-4.6,4.4c-0.6,1.6-.9,3.2-1.4,4.8a9.3,9.3,0,0,0,2.6,9.9c2.6,2.6,5.8,4.3,8.3,7.2a7.5,7.5,0,0,0,.2-3.6,1,1,0,0,1,.1-1.1c0.7-.4.5-1,0.5-1.6a20.9,20.9,0,0,0-1.1-8.2,0.3,0.3,0,0,0,.3-0.3c1.4,0.5,2.6,1.4,2.5,2.9s1.7,3.4,3.8,3.7h0.4a17,17,0,0,0,5.7.7,0.3,0.3,0,0,0,.5,0c0.5-.7,0-1.5.2-2.2s0-1.1.5-1.2,2-1.1,3-1.5a24.2,24.2,0,0,1,8-2.2,11.8,11.8,0,0,0,6.5-2.9,8.2,8.2,0,0,0,2.7-2.8,4.2,4.2,0,0,1,1.5-2.1c0.4-.2,1-0.8.3-1.3a5.3,5.3,0,0,1-1.3-1.9c-1-1.8-1.8-2.3-3.8-2.1l-3,.5c3-1,5.6-2.9,8.6-3.8a38.9,38.9,0,0,0,8.9-3.5,92.1,92.1,0,0,0,20.7-16.6c3.3-3.6,5.7-7.4,6.6-12.1a18,18,0,0,0,1.3-4.6c0.1-2,.1-2,2.2-2s4,0.2,5.8-1l3.3-1.9c5.5-3.5,8.4-8.3,8.1-14.9a11.3,11.3,0,0,0-.8-4.4c-1.4-3-4.2-4-7-2.5a5.4,5.4,0,0,0-1.2.9c-2.9,2.8-5.4,5.8-6,10-0.9,1-.8,2.2-0.9,3.3a23,23,0,0,1-.7,3.3c-0.4,1.1-.7,2.2-2,2.8s-3.1-.3-4.6-0.8a0.5,0.5,0,0,1-.3-0.6,1.5,1.5,0,0,1,.7-0.2c1.2,1.5,2.8,1.3,3.7-.3a12.6,12.6,0,0,0,1.3-3.9c0.5-3,.6-6.1,1.7-9l3.9-4.9c2.7-3.5,7.9-5.1,11.3-2.4,0.2,0.1.4,0.3,0.6,0.1a0.6,0.6,0,0,0,.1-0.5c-0.3-1.5.1-3,0-4.4a1.8,1.8,0,0,0-.8-1.7,0.7,0.7,0,0,0,.9-0.5c0.9-2.2.9-4.6,1.8-6.8a1.3,1.3,0,0,0-.2-1.2c-1-1.5-.8-3.3-0.7-4.9a65.2,65.2,0,0,0-1.1-17.1c-0.4-2.3-1.2-4.5-1.4-6.8a6.8,6.8,0,0,0-1.7-3.9l-1-1.1c-3.7-4.5-6.7-9.5-10.6-13.9A51.1,51.1,0,0,0,416,149l-2.2-1.3c-0.4-.2-1-0.6-1.2-0.2a1.9,1.9,0,0,0-.2,1.7,3,3,0,0,0,.9,1,2.4,2.4,0,0,1,.7.6c1.5,3.1,3.6,5.8,5.4,8.6s4.7,7,6.5,10.7a4.2,4.2,0,0,1,.5,2.4c-0.1.5,0,1.2-.6,1.3s-0.8-.5-1-1a26.5,26.5,0,0,0-2.5-5,8.2,8.2,0,0,0-1.1-1.9c-2.9-4.5-5.9-8.9-8.5-13.6a20.4,20.4,0,0,0-6-6.7c-3.5-2.6-7-4.9-11.5-5.3a1.4,1.4,0,0,1-1.2-.8,1.1,1.1,0,0,1,1.1-.6,15.1,15.1,0,0,1,9,2.8c0.8,0.6,1.4,1.3,2.7,1.1s2,0.7,3,1.1c7.2,3,14.5,6.1,20.4,11.4a65.1,65.1,0,0,1,15.7,21,6.9,6.9,0,0,0,2.2,3.2,3.1,3.1,0,0,1,.9,1.8,64.7,64.7,0,0,1,2.6,24.5c-0.4,4.5-.5,9.1-1.4,13.6-0.4,1.7-1,3.3-1.3,5s1.6,2.8,1.9,4.5c1.8,9.1-1,16.5-9.6,21.6a21.1,21.1,0,0,1-9.3,2.9,1.1,1.1,0,0,0-1.1,1c-2.2,9.1-7.2,16.5-13.9,22.9-4.3,4.1-9.2,7.2-14.2,10.2-2.1,1.3-4.7,1.7-7.1,2.5a8.2,8.2,0,0,0-3.2,1.7,1.3,1.3,0,0,0-.2,2,2.9,2.9,0,0,0,1.1,1.2c2.1,0.6,3.8,2.4,6.1,2.6l0.9,0.3a85.8,85.8,0,0,1,23,15.3l3.6,3.4c0.5,0.5.3,1.1,0.7,1.6s1.8,2.4,2.7,3.6a51.2,51.2,0,0,1,4.6,6.7c2.7,4.5,6.2,8.5,8.3,13.3,0.5,1.2,1.1,2.4,1.7,3.6s0.3,2.1,1.6,2.3a1.2,1.2,0,0,1,.5.8c2.2,8.4,2.2,16.4-3.7,23.4s-11.4,12.5-18.7,16.9a20.8,20.8,0,0,1-3.1,1.7c-1.2.5-.8,1.3-0.3,1.7s1.5,3,1.4,4.7a4.6,4.6,0,0,0,.1,2c0.8,2.6-1.5,4.8-4.5,4.3a2.3,2.3,0,0,0-2,.5c-2.5,1.8-5.4,2.1-8.4,1.9-1.2-.1-1.7-0.2-1.9,1.5a70,70,0,0,1-2.8,13.9,40,40,0,0,1-1.7,4.9c-0.6,1.4-.4,3.1-0.3,4.6a153.1,153.1,0,0,0,2.1,17.7c1.9,12.9,3.8,25.9,6,38.8,0.9,5.1.7,10.3,1.5,15.5,0.4,2.9,1.2,5.6,1.7,8.4,0.1,0.7.4,1.2-.5,1.5a1.2,1.2,0,0,0-.5.5c-4.4,6.4-10.7,10.5-17.7,13.5a51.3,51.3,0,0,1-11.3,3.2c-1.3.2-2.6,0.7-3.8,1-5.8,1.2-11.5,1.1-16.9-1.7a9,9,0,0,1-4.2-4.9,1,1,0,0,0-1.5-.8c-8,2.1-15.2.9-21.5-4.8a4.3,4.3,0,0,1-1.3-1.9,8.9,8.9,0,0,1,.5-7.1,26.1,26.1,0,0,1,14.1-12,7,7,0,0,0-1.6-1.4,1.6,1.6,0,0,1-.7-1.5c0.2-.7.9-0.4,1.3-0.6a1,1,0,0,0-.3-0.9c-4.2-5.2-7-11.2-10-17.1a314.9,314.9,0,0,1-14.7-33.9,109.1,109.1,0,0,1-5.4-22.7,72.6,72.6,0,0,1-.5-17.3,0.9,0.9,0,0,0-.7-1,11.7,11.7,0,0,1-4.7-4.9,2.8,2.8,0,0,1-.4-1.2,49.7,49.7,0,0,1,1.7-14.9,4.2,4.2,0,0,1,.6-1.3,0.8,0.8,0,0,1,1.1-.3c1.3,1,1.2-.1,1.3-0.9,1-10,3.7-19.7,5.7-29.5,0.1-.3.4-0.7,0-1a0.9,0.9,0,0,0-1,.2,5.6,5.6,0,0,1-6.7-1.2,1.1,1.1,0,0,0-1.4-.1,53.5,53.5,0,0,1-10,2.7,37.4,37.4,0,0,1-24.3-3.6c-8.1-4.2-13.4-11-18.6-18-2.8-3.8-3.5-8.6-4.7-13-0.4-1.5-.7-3.1-1-4.7s-0.1-.9-0.6-0.8-2.4-1.1-3.3-2a36.4,36.4,0,0,0-6.7-5.4,8.6,8.6,0,0,1-2.2-2.2,1.3,1.3,0,0,0-1.8-.4c-8,3.4-15.9,7-23.8,10.7-3.6,1.7-7.4,2.8-10.9,4.7a2.9,2.9,0,0,1-1.1.1,1.1,1.1,0,0,1,1-1c2.8-1.3,5.6-2.8,8.4-4.3a207.6,207.6,0,0,1,18.8-8.8c8.4-3.5,16.8-7.1,25.1-10.9,0.5-.2,1.2-0.4.9-1.2a29.6,29.6,0,0,1,5.2-8.7l1.5-1.3c1.4-1.1,2.8-1.8,4.6-.9a8.6,8.6,0,0,1,2.1,3.8c0,0.5.1,1.1,0.1,1.6s0.2,0.9.9,0.5c6.7-3.5,13.7-6.1,20.4-9.5a11.7,11.7,0,0,0,4.9-4.6,9.9,9.9,0,0,0,.6-9.8,65.4,65.4,0,0,0-3.6-6l-2-3.2c-0.3-.4-0.6-0.9-0.8,0a146,146,0,0,1-13.5,6.1h-0.3c-2.6.6-2.6,0.6-1.5,2.7s0.2,4.7-2.7,6.4c-1.4.8-2.7,1.7-4.1,2.4l-7.8,3.6-1.6.4c-0.5.1-.6,0.3-0.4,0.7a13.1,13.1,0,0,1,.7,6.2l-0.3,1.2c-0.9,3-2.3,5.5-5.5,6.4-0.6.2-1.5,0.1-1.9,0.5s-3.3,1.4-5.1,1a2.7,2.7,0,0,0-1.6.4c-1.5.5-3,1.4-4.6,0.4a7.4,7.4,0,0,0-2.2-5.3c-0.6-.4-0.5-1.9-1.7-1.3-2.7,1.6-5.6,2.3-8.4,3.5-6.7,2.9-13.4,5.8-20.1,8.9-3.1,1.4-6.4,2.3-9.4,4l-3.3,1.1c-0.5.2-.9,0.3-0.6,0.9a50.9,50.9,0,0,0,2.6,5.2,29.6,29.6,0,0,0,2.6,4.8c0.7,0.8.7,2.4,1.4,2.7s0.3,0.9.2,1.3c-2.2,2.9-5.3,4-8.8,4.1a1,1,0,0,1-.7-0.1c-1.1-1.1-1.9-.2-2.8.4a31.3,31.3,0,0,1-5.3,2.5c-1.7.7-1.7,0.4-2.8-1a26.3,26.3,0,0,1-2.5-3.7c-0.8-1.3-1.5-2.7-2.2-4.1a1.6,1.6,0,0,0-1.8-1.3,22,22,0,0,1,3.7-3l4-2.2c0.9-.5,2.1-0.7,1.9-2.2a1.5,1.5,0,0,1,.7-0.9c2.8-1.8,5.5-3.9,9-4.2,1.7-.2,3.3-1.2,4.9-2,6.3-3.3,12.9-5.9,19.4-8.7l17.2-7.7a0.9,0.9,0,0,0,.7-1.2,5.5,5.5,0,0,1,.1-2.3,3.2,3.2,0,0,1,3.5-2.9,1.1,1.1,0,0,0,1.3-.6c1.1-2.6,3-3.4,5.9-2.9,0.5,0.1.8,0.3,1-.4,0.8-2.5,2.5-3.3,5-2.5a9,9,0,0,1,3.9,2.5,1,1,0,0,0,1.4.2l12.5-5.6a4.2,4.2,0,0,0,2.2-4.7c-0.1-.4-0.3-0.8-0.4-1.2a1.8,1.8,0,0,0-2.2-1.7c-1.9.2-3-1.1-3.7-2.7s-2.2-4.9-3.2-7.4a3.1,3.1,0,0,1,.6-3.1,17,17,0,0,1,5.5-4.4c3.1-1.8,6.1-3.9,9.8-4.3a39.4,39.4,0,0,1,6.1-.4,5.2,5.2,0,0,1,4.1,2.4c1.4,2.1,2.7,4.3,4,6.4a2.5,2.5,0,0,1,.4,1.4c0,0.3.4,0.7-.5,0.6s-1.1.9-1.2,1.8h0c-0.2-.1-0.4,0-0.4.2s0.2,0.2.4,0.2h0Zm87.4,261.1c-1.1.2-1.8-1-2.8-1s1,2.4-1,2.6l-0.3-.3c-0.5-3.5-.8-3.8-3.3-4.3s-4.7-.5-5.6,1.1a11.1,11.1,0,0,1,7.4,2.3,2.9,2.9,0,0,0,1.4,1l0.3,0.3a2.9,2.9,0,0,0,1.1,1.1c0.2,0.9,1.1,1.3,1.5,2.1a2.1,2.1,0,0,0,2.4,1.2,58.6,58.6,0,0,0,19.7-5.5c0.2-.1.4-0.4,0.8,0.1a46.6,46.6,0,0,1-5.9,3.8,38.4,38.4,0,0,1-15.3,3.5c-1.2,0-2.4-.1-2.6-1.7a3.1,3.1,0,0,0-1-1.4l-2.7-2.5c-2.4-2.3-5.2-2.8-8.3-2.6a1.2,1.2,0,0,0-.9.5c-1.8,2.7-4.4,4.9-4.9,8.4s0.5,5.9,3.6,7.2,9.2,1.5,13.8.2,8.9-2.9,13.2-4.6,7.7-2.1,10.6-5.2,4.1-2.7,5.7-4.7,2.9-2.9,2.2-5.3c-0.2-.6-0.2-1.3-0.3-1.9-0.5-2.3-.2-4.6-0.4-7.1-7.2,5.6-15.4,6.8-24.2,6.2,1.1,1.6,2.2,2.2,3.8,1.5l-0.7,1.3c-0.3.6-.4,1.1-1.3,1.1a2.1,2.1,0,0,0-1.6,1.3,0.7,0.7,0,0,1-.4.6c-1.1.1-1.8,1-2.6,1.6a3.4,3.4,0,0,1-2.5,1,0.9,0.9,0,0,1,.6-1,1,1,0,0,0,.8-0.9c1,0.1,1.5-.8,2.2-1.3a0.4,0.4,0,0,0-.1-0.8c-0.6-.3-0.9-1-1.9-1S379.7,507.6,379.8,508.7ZM268.1,248.8a2.6,2.6,0,0,0-1.6-.1,15.1,15.1,0,0,0,1.1,2.2l0.8,2.2c0.5,2.4.5,2.4,2.1,2.1h1c4.2-.2,7.8-2.1,11.5-3.7l2.9-1.2c1.5-.6,2.9-1.1,3.5-2.8l1.3-1.4a2.2,2.2,0,0,0,.3-3.3c-0.7-.9-1.2-1.9-1.8-2.9s-0.2-.7-0.7-0.5-2.1.3-2.8,1.3l-1.1.7-1.6.7c-3.9,1.5-7,4.5-11,5.6l-0.5.2-2.7.7h-0.8Zm-78.2,67-2.6-4.1c-0.6-1.5-1.5-2.8-2-4.3s-0.5-.5-1-0.3l-3.6,2c-1,.6-2.8.8-2.9,1.8s1.1,2.2,1.7,3.3l0.2,0.2a45.9,45.9,0,0,1,2.5,5,0.4,0.4,0,0,0,.7.3c2.8-.6,4.9-2.6,7.9-2.7A2.1,2.1,0,0,0,189.9,315.8Zm50.8-40.4c-1.9,0-2.6.9-2.5,3.1,0,0.6.1,1.1,0.9,0.9a0.5,0.5,0,0,1,.6.1,0.4,0.4,0,0,1-.3.5c-0.8.3-.4,0.7-0.1,1.1l1.5,2a7.8,7.8,0,0,1,1.2,3.1c0,0.8.9,0.6,1.4,0.5s0.9-.4.5-1.1a5.4,5.4,0,0,1-.6-2.9,14.8,14.8,0,0,0-.4-4.1C242.7,277.4,242.4,275.9,240.7,275.4Zm12.9,6.7-0.5,1.9a3.1,3.1,0,0,0,2.4-1.1,10.5,10.5,0,0,0,2.1-7.6,6,6,0,0,0-2.4-4.5,4.9,4.9,0,0,0-3.4-1.7,1.4,1.4,0,0,0-1.8,1.5,3.6,3.6,0,0,0,1,3C253.3,276,253.5,279.1,253.6,282.1Zm-6.6-9.6a3.2,3.2,0,0,0-2.7,0,1.7,1.7,0,0,0-.8,2.8,9.6,9.6,0,0,1,1.5,3.1,19.1,19.1,0,0,1,.7,5.4,1.6,1.6,0,0,0,1.5,1.6c0.8,0.2,1.7.8,2.4-.2s1.1-.2,1.3-0.9c1.5-3.9,1-7.3-1.9-10.4C248.3,273.4,248,272.5,246.9,272.6ZM394.1,401a100.8,100.8,0,0,1-10.4,1.8,73.1,73.1,0,0,1-11.7.6,2.2,2.2,0,0,0-1.7,0l3.8,1.9a13.9,13.9,0,0,0,12.4.5c2.8-1.2,5.6-2.4,7.6-4.9h0ZM198.7,314.6c1.8-.7,1.8-0.7.5-1.9l-1-1.3a54.5,54.5,0,0,1-4.7-9.3,1.1,1.1,0,0,0-1.7-.8,23.5,23.5,0,0,0-5.4,2.7,0.8,0.8,0,0,0-.3,1.2c1.6,3.2,3.4,6.3,5.2,9.5s1.6,2.3,4,1.5A9.3,9.3,0,0,0,198.7,314.6Zm135,148.9V464c2.5,4.8,4.8,9.8,7.2,14.7a151.3,151.3,0,0,0,7.3,14c0.4,0.6,1.1,1.5-.4,1.9a3.4,3.4,0,0,0,1.6,1,22.4,22.4,0,0,0,19.1,2.7c0.8-.3,1-0.6.5-1.3l-2.7-4.1a66.5,66.5,0,0,1-9.8-23.3c-2.3-10.7-5.1-21.4-4.9-32.5a0.8,0.8,0,0,0-.6-1,37.5,37.5,0,0,1-11.1-6c-0.6-.6-1.7-1-1-2s1.6-.4,2.5.1l2.1,1.3a35.6,35.6,0,0,0,17,6.4c0.2,0,.4.1,0.3,0.3h-4.3c-2.9,0-2.6-.3-2.5,2.7,0.1,1.2-.2,2.5.6,3.6a39,39,0,0,0,.9,7.9c1.6,8.1,2.7,16.2,5.3,24.1a161.8,161.8,0,0,0,8.5,19.8c0.3,1,.7,2.4,1.6,2.6s3.5,1.1,5.3,1.6c5.6,1.6,11.2,1.6,16.9,1.2a9.9,9.9,0,0,0,3-.4c3.8-1.5,7.6-2.8,11-5.1s2.8-1.7,1.8-4.9c-3.1-9.7-4.8-19.7-6.3-29.7-0.8-5.3-1.6-10.6-2.3-15.9s-1.5-9.9-.8-14.9a1.2,1.2,0,0,0-.2-0.8,2,2,0,0,1,0-2.2,37.2,37.2,0,0,0,1.7-4.2c1.4-4.9,2.4-10,3.3-15,0-.3.3-0.5-0.1-0.7a21.2,21.2,0,0,1-5.4-3.6,33.4,33.4,0,0,0,0,5,18.6,18.6,0,0,1-.9,8.5,6.7,6.7,0,0,1-3.9,4.6c-2.5,1.1-5.2,1.7-7.7,2.6a25,25,0,0,1-9.5,1.6,27.3,27.3,0,0,0-4.3-.2c-3.5.4-6.8-.2-10.1-0.7a8.1,8.1,0,0,1-5.3-2.8c-1.2-1.5-2.8-2.7-2.2-5.3s-0.1-3.6-.1-5.4,0-1.9-1.8-1.8c-4.5.1-9,.2-13.2-1.4a21.5,21.5,0,0,0-5.3-1.3,13.7,13.7,0,0,1-3.9-1.1l-1.9-.6c-3.1-.6-6.4-0.2-9.4-1.3-0.6-.2-0.8.3-0.7,0.8s0.1,2.4.1,3.6a50.8,50.8,0,0,0,.7,9.6c-0.2,1.3.4,2.6,0.5,3.9A112,112,0,0,0,324,440a194.9,194.9,0,0,0,7.5,18.7c0.7,1.6,1,3.4,2.2,4.8h0Zm20.5-61.9c0.2-2.5-.2-5.1.3-7.6,0.1-.7-0.1-1.1-1-1.2s-3.4,0-5.1-.4-1.4.2-1.6,1.2c-0.7,3-1.4,6-2.2,9-0.8,1.4-2.5,1.2-3.6,2,1.1,1.3,1.1,1.3,1.5,1.4,3.5,0.9,7.2.4,10.7,0.5a0.8,0.8,0,0,0,.9-1C354.3,404,354.3,402.8,354.3,401.5ZM406.4,513h0a16.8,16.8,0,0,1-4,3.8c-4.4,2.8-9.4,4.2-14.1,6.1s-9.5,2.5-14.1,4.3a8.4,8.4,0,0,1-2.7.4,29.7,29.7,0,0,1-8.4-.9c-0.1-.1-0.1-0.3-0.3-0.1h0.4a4.5,4.5,0,0,0,2.8,1.3,32.2,32.2,0,0,0,11,.3c9.1-1.6,17.8-4.2,25.3-9.8a28.3,28.3,0,0,0,7.3-7.4c0.4-.7.7-1.3,0-2.1a34.8,34.8,0,0,1-3.3,3.5C405.9,512.9,406,513,406.4,513ZM307.2,312.8v0.5a1.8,1.8,0,0,0-.7,1.5c0.4,3.8.9,7.7,1.6,11.5s1.1,7,2.7,10.3,3.3,5.7,4.9,8.6a1.1,1.1,0,0,0,1.1.4c1.2,0.1,2.2-.4,3.4-0.6a1.9,1.9,0,0,0,1.8-1.6,79.6,79.6,0,0,1,3.3-9.8c1.2-2.9,2.1-6,3.9-8.7,1.4,0,1.6.4,1.1,1.6l-0.5,1.1A167.5,167.5,0,0,0,321,357c-1.2,6.6-2.7,13.1-4,19.7a9.4,9.4,0,0,0-.6,2.2c-0.4,1.3.2,1.9,1.3,2.6a39,39,0,0,0,11.5,4.5,1,1,0,0,0,1-.1,1.6,1.6,0,0,1,1.7-.2c4.2,0.9,8.3,2.5,12.6,2.8,1.2,0.1,2.4.1,2.7,1.7a0.7,0.7,0,0,0,.7.3c3.1,0.1,6.2.9,9.3-.3a5.4,5.4,0,0,1,1.8-.2h4.7a1.2,1.2,0,0,0,1.3-.7l4.1-8a1.5,1.5,0,0,0,.4-1.6,1.6,1.6,0,0,1,1.5-2.3,13.3,13.3,0,0,1,7.3,1.2c1.9,0.9,2,1.5,1.1,3.4-0.6.4-1.5,0.2-1.9,1s-1.6,4-2.4,6c-0.2.4-.1,0.7,0.4,0.7a13.6,13.6,0,0,0,3-.1c0.6-.2.3-1.1,0.7-1.7l0.3-.5c2-3.2,5.1-3.3,8.3-2.9a6.7,6.7,0,0,1,5.1,3.3c0.3,0.5.6,0.5,1.1,0.3a28.5,28.5,0,0,1,4.1-1.2c1.3-.2,1.3-0.9,1.2-1.9s-0.7-4.5-1-6.8a100.4,100.4,0,0,1-.3-11.9,195.2,195.2,0,0,1,.6-21.3,1.9,1.9,0,0,0-.2-1.3c-1.7-2.8-3.2-5.7-5.2-8.4s-2.5-2.8-3.7-4.2a1,1,0,0,1-.3-1.4c0.5-.5.9,0,1.3,0.3a19.5,19.5,0,0,1,3.8,3.5,40.5,40.5,0,0,1,4.6,7.1c0.4,0.8.9,1,1.6,0.4l4.8-3.8a68.9,68.9,0,0,0,9.8-9.3c1.9-2.3,4-4.3,5.5-6.9a20.2,20.2,0,0,1,1.7-2.3c1.1-1.1.7-1.9-.3-2.8a97,97,0,0,0-13.8-10.5c-2.8-1.8-5.8-3.2-8.8-4.7-1.2-.6-1.9-0.3-1.9.6a7.1,7.1,0,0,1-2.3,6c1.1,0,2-.1,2.5.8l-0.2.5a6.5,6.5,0,0,0-4.7,2.8,75.3,75.3,0,0,0-4.5,6.8c-1.9,2.4-4,4.8-6.9,6.1-1,.4-2.3.2-2.9,1.5l-0.7.2c-1.8-.2-3.7.4-5.6-0.1s-2-.3-2.1-1.3-0.8-2.1-.7-3.6l-2.2,2c-2.6,2.1-5.2,4.2-6.8,7.3s-2.4,6.2-3.7,9.3a135.9,135.9,0,0,0-10.1,34c0,0.3-.1.7-0.5,0.7s-0.3-.5-0.3-0.8a35.1,35.1,0,0,1,.4-7.1l0.3-1.7c1.7-9.1,5.8-17.4,8.4-26.2a52.4,52.4,0,0,1,4.2-10c-1.3.7-1.2,0.1-1.3-.6a22.2,22.2,0,0,0-.9-5.8l-0.5.4c-0.6.9-1.2,0.9-1.8,0a13,13,0,0,0-2.9-2.9,55.2,55.2,0,0,1-5.7-4.7c-3.4-3.4-4-7.7-3.2-12.2,0.1-.5.6-1.2,0.1-1.5s-1.2.2-1.7,0.4l-2.2.7c-6.1,1.7-12.2,3.5-18.3,5-2.7.7-2.7,0.7-2.5,3.5a37.1,37.1,0,0,0,.5,8.8c0.5,3.6.9,7.2,2.3,10.6a33.9,33.9,0,0,1,1.5,6.3,16.9,16.9,0,0,1-3.8-4.7A52.1,52.1,0,0,1,316,312a4.5,4.5,0,0,0,0-.5c0.2-2.7.2-2.7-2.6-2.3a27.2,27.2,0,0,0-5.5,1.2C306,311.1,305.9,311.2,307.2,312.8Zm101.1,24.9-5.9,4.4c-1.6,1.2-1.6,1.1-.6,2.9s2.4,3.8,2.7,6.1c-1,.1-1.5-0.6-2-1.2l-1.7-2c-0.5,5.2-.9,30.7.5,33.7,1.3-4.9,4-9.1,6.5-13.4s5.3-8.4,9.9-11.2a18.6,18.6,0,0,1-8.3-6.3c-0.4-.5-0.7-0.1-1.1,0s-2.4,1-3.7.4a1.2,1.2,0,0,1,1.1-1.4,14.6,14.6,0,0,0,4.3-2.1,114.4,114.4,0,0,0,10.5-8.1,41.4,41.4,0,0,0,6.4-5.9,15.3,15.3,0,0,0,2.3-3,12.8,12.8,0,0,0,1.9-3.1,1.5,1.5,0,0,0,.1-1.6c-1.8-2.4-3.3-5.1-5.7-7.1a0.7,0.7,0,0,0-1.2.2l-2.2,3.6-1.8,2.4A85.7,85.7,0,0,1,408.3,337.7Zm-95.6,52a29.6,29.6,0,0,1-.1,4.6,3.7,3.7,0,0,0,1.4,3.7c3.5,3,7.6,3.8,12,4,0.8,0,.9-0.4.9-1a19.2,19.2,0,0,1,.2-3.9,56.1,56.1,0,0,1,1.6-7.8c0.4-1.3.2-1.8-1.2-2.1a24,24,0,0,1-4.1-1.1,33,33,0,0,1-8.6-4.4c-0.7-.5-1-0.5-1.2.4A57.6,57.6,0,0,0,312.7,389.8Zm78,9.8,4.1-1.1a1.4,1.4,0,0,0,1.1-.9,4.5,4.5,0,0,0-2.6-5.7,11,11,0,0,0-5.7-.8c-5.5.5-11,.7-16.5,0.9-3.8.1-7.7,0-11.5,0h-1.1c-0.9.1-1.2,0.6-.6,1.4l1.6,1.9a15.2,15.2,0,0,0,6.9,5.7,6,6,0,0,0,3.1.8c4.1-.5,8.2-0.1,12.2-0.8S387.8,400.3,390.7,399.6Zm-14.5-76.1a0.7,0.7,0,0,0,.8.1c5.7-.9,9.2-4.7,11.9-9.5,1.7-2.9,4.4-5,6-7.9a8.3,8.3,0,0,0,1.2-5.9c-0.3-1.5-1.3-2.2-2.1-3.1a17.9,17.9,0,0,1-13.3,11.2,53.7,53.7,0,0,0-8.8,2.7,0.9,0.9,0,0,0-.7,1.1q0.4,3,.7,6.1c0.1,1.1.2,2.1-.7,3.1a1.4,1.4,0,0,0-.1,1.8,1.1,1.1,0,0,0,1.4.5A27.8,27.8,0,0,1,376.2,323.5Zm-9,85.7c0,3.8,0,7.5,0,11.3a1.1,1.1,0,0,0,1,1.2,28.8,28.8,0,0,0,11.8.8c4.8-.8,9.7-1.7,14.1-3.9a1.7,1.7,0,0,0,1.2-1.3c0.3-1.6.7-3.2,1-4.8q0-5.2,0-10.4c0-.3.1-0.6-0.2-0.7a0.8,0.8,0,0,0-.8.5,22.3,22.3,0,0,1-7.6,5.7c-0.9.4-1.6,0.7-1.6,2a2.6,2.6,0,0,1-2.4,2.3,1.5,1.5,0,0,1-1.9-1.1c-0.2-1.9-1.6-1.6-2.7-1.8l-2.3-.5a29.2,29.2,0,0,1-8.2-4.1c-0.5-.4-1-0.5-1.1.4A22.6,22.6,0,0,0,367.2,409.2Zm-10.4,94h-1.1a1.1,1.1,0,0,0-1.3-.3c-0.2.1,0.2,0.4,0.4,0.6s-0.1,1.4-.9,1.3-3,.8-4.7.8c1.3,1.1,2.1,2.6,3.4,3.7a1.1,1.1,0,0,0,1.6.2l5-3c0.4-.2.8-0.6,1.2,0s-0.2.8-.5,1l-5.9,3.7c-0.7.4-1.8,1.2-2-.6a1.6,1.6,0,0,0-.7-0.7l-2.5-2.1c-2.1-1.7-4.1-3.3-7-3.2a3,3,0,0,0-2.3,1,32,32,0,0,0-5.2,7.7,2,2,0,0,0,0,1.5c0.4,1.7,1.8,1.9,3,2.5a25.3,25.3,0,0,0,15.2,1.8c2.4-.4,4.5-1.1,4.7-4.1v-0.3a31.8,31.8,0,0,1,10.1-12.3l4.8-2.8a2.5,2.5,0,0,0-3.1-.4c-3.5,1.6-7.1,2.9-11,2.1l-3.6-.6C356.6,502,356.6,502,356.8,503.2Zm58.6-102.5a2,2,0,0,1,1.4.2,3.9,3.9,0,0,0,2.6.4,1.7,1.7,0,0,0,1.7-1.6c-2,.8-3.8,1.3-5.7.3l-0.5-.6c-1.2-1.4-1.2-1.4.7-2.1a0.8,0.8,0,0,0,.7-0.5c-1.7-1.1-1.1-3.8-3.2-4.6a1.8,1.8,0,0,1,1.1-.7,81.7,81.7,0,0,0,9.2-4.6,68.3,68.3,0,0,0,18.4-16.7c5.1-6.6,6.4-13.9,2.2-21.8-3.2-6.1-6.4-12.3-10.8-17.7a2.5,2.5,0,0,0-1-1.4,24.4,24.4,0,0,1-6.7,8.9c-4.7,4.1-9.4,8.2-14.8,11.5a19.6,19.6,0,0,0,7.3,5.5l2.8,1.1a1.3,1.3,0,0,1,1.1.9c0,0.5-.7.6-1.1,0.9l-0.5.2a10.6,10.6,0,0,0-5.2,3.6,79.2,79.2,0,0,0-13.2,22.9c-0.5,1.4-1.2,2.9-.3,4.4a1.6,1.6,0,0,1-.2,1.1c-0.3,1.4-1.5,2.3-1.9,3.7-1.4,4.8.2,7.8,4.3,9.3a14.4,14.4,0,0,0,9.8-.2C415.1,402.6,415.9,402.1,415.4,400.6ZM267.8,280.8c-1-2.3-1.6-2.5-3.4-.7a30.1,30.1,0,0,0-5.6,8.4,1.1,1.1,0,0,0-.1.6c0.3,1.2-.6,1.6-1.4,1.9s-4.5,1.4-6.7,2.4-5.7,2.5-8.7,3.8a4.7,4.7,0,0,0,2.8,2.2,0.7,0.7,0,0,1,.8.6c-0.2,1.1.6,1.2,1.3,1.6a11.5,11.5,0,0,1,2.1,1.5,36.4,36.4,0,0,1,3.6,3.6c0.4,0.5,1.4.1,1.4,0.9s1.1,4.3,1.6,6.5a39,39,0,0,0,3.2,9.6c2.8,5.4,7,9.7,11.2,14.1a23.3,23.3,0,0,0,8.6,6.1,44.6,44.6,0,0,0,12.1,3.2c6.9,0.6,13.4-.7,19.9-2.8,1.8-.6,2.1-1.8.8-3.2a15.6,15.6,0,0,1-3.9-6.7,82.5,82.5,0,0,1-2.9-18.7c-0.1-1.4-.5-1.7-1.7-1.2a56.5,56.5,0,0,0-13.5,4.2l-0.5.3c-0.7,1.6-1.1.5-1.5-.2l-0.5-.8-6.7-8.5a39.4,39.4,0,0,0-11.9-10.2,2.6,2.6,0,0,1-1.5-3.1,21.2,21.2,0,0,0,0-5.6,9.1,9.1,0,0,1,.7-5.7A4.7,4.7,0,0,0,267.8,280.8Zm89,114.7c0,1.9,0,3.4,0,4.9a20,20,0,0,0,.1,4.5,5.7,5.7,0,0,1-.3,4c-0.7,1.6,0,3.4-.6,5.1s0,3.2,1.2,4.6,3.9,3.6,6.9,3.6c1.3,0,1.6-.5,1.4-1.8a40.4,40.4,0,0,1,0-16.1,1.3,1.3,0,0,0-.8-1.7,18.2,18.2,0,0,1-5-3.7C358.6,397.9,357.9,396.7,356.8,395.4ZM284.5,236.6c-6.4-.1-11.9,2.3-16.8,6.3a10.4,10.4,0,0,0-1.7,1.8c-0.9,1.2-.7,1.7.8,1.9a5.6,5.6,0,0,0,2.4-.1,53.3,53.3,0,0,0,15.7-6.8,17.9,17.9,0,0,0,2.1-1.7c0.3-.3.7-0.5,0.5-1a0.9,0.9,0,0,0-1-.3h-2Zm49.8,154.6c-0.7-.1-0.7.4-0.8,0.8l-1.3,7.1c-0.2,1,.4,1.3,1.2,1.4a30.6,30.6,0,0,0,3.9.3c0.7,0,1.5.8,2,.3s0.1-1.4.3-2.1,0.1-.9-0.6-1a17.6,17.6,0,0,1-2.2-.8,1.2,1.2,0,0,1-.9-1.6,1.1,1.1,0,0,1,1.5-.7l0.8,0.2c2.1,0.3,2.3.1,2.5-2.1a0.5,0.5,0,0,0-.4-0.7Zm9.1,6.8c-1.9.1-1.6,1.7-2.1,2.8s0.1,2.9-2,1.7h-0.1c-2.6,1-5.2,0-7.8-.2a1.8,1.8,0,0,1-1.6-2c0.6-3,1.3-5.9,2-8.9,0.3-1.2.9-2,2.3-1.9l8.7,1.1a0.7,0.7,0,0,1,.6,1.1c-0.7,1-.4,2.2-0.7,3.3a1.5,1.5,0,0,0,1,2,54.1,54.1,0,0,0,1.7-5.8,0.9,0.9,0,0,0-.9-1.3c-3.2-.5-6.4-0.9-9.5-1.8s-3.5-.2-4.1,2.7v0.5a60.6,60.6,0,0,0-1.5,10,1,1,0,0,0,.6,1.2c4.2,1.4,8.4,2.5,12.6,0a0.9,0.9,0,0,0,.6-1A14.9,14.9,0,0,1,343.4,397.9Zm34.7-17.6a15.6,15.6,0,0,0-5.5-1.5c-0.2,0-.5.1-0.4,0.2s-0.5,1.4-.8,2c-1.4,2.6-2.6,5.2-4,7.8-0.3.6-.2,0.8,0.5,0.8h4.1a0.9,0.9,0,0,0,.9-0.6c1-2.3,2-4.6,2.8-7S376.5,380.4,378.1,380.4Zm-8.9-65.8c-0.4,1.1-.4,1.2-1.7,1a36.1,36.1,0,0,1-6.8-1.4c-0.5-.2-1.2-0.7-1.6-0.2a2.4,2.4,0,0,0,0,2.1,1.6,1.6,0,0,0,1,.9,14.3,14.3,0,0,0,9,.8c0.4-.1.6-0.3,0.4-0.6S369.4,315.3,369.2,314.5Zm-2,6a19,19,0,0,1-6.8-.8c-0.7-.2-0.7.3-0.7,0.8a25.2,25.2,0,0,0,.7,6.4C362.2,324.4,364.8,322.9,367.2,320.5Zm24.2,68.7a0.8,0.8,0,0,0-.1-0.9c-1.7-2.4-7.9-3.2-9.8-.4-0.2.3-.7,0.6-0.5,1a0.9,0.9,0,0,0,1,.2h9.4ZM345,521.7c2.2,0.7,4.6.3,6.9,0.4a10.5,10.5,0,0,0,4-.7c0.6-.2,1.1-0.4.9-1.1s-0.8-.3-1.2-0.2a33.4,33.4,0,0,1-4.3,1.2C349.2,521.6,347.1,521.4,345,521.7Zm33.7-20.1a2.3,2.3,0,0,0,.2.6c1.2,1.4,2.9,2.3,4.1,3.8s0.9-.3,1.3-0.5,0.6-.4.2-0.7A12,12,0,0,0,378.7,501.5Zm18.5-108.5a40,40,0,0,1,1.9-3.7,0.8,0.8,0,0,0,0-.6c-0.1-.3-0.4-0.1-0.6-0.1l-4.5,1.4C395.4,390.7,396.7,391.3,397.3,393.1ZM378.5,506.9c0.6-2.5-.6-3.9-4.2-4a13.3,13.3,0,0,0,1.4,1.9C376.5,505.6,377.7,505.9,378.5,506.9ZM343,502.8a13.6,13.6,0,0,1,4.2,1.2,3.7,3.7,0,0,0,1.3.2c0.5,0,1.1.1,1.2-.6s-0.6-.6-1-0.7a8.1,8.1,0,0,1-3-.8C344.5,501.4,343.7,501.9,343,502.8Zm75-106.9a3.1,3.1,0,0,0,1.1-3.2c-0.1-.6-0.2-0.8-1-0.7s-1.6.3-1,1.8ZM388.2,218c-0.4-1.7-.3-3.4-2.7-3.7C386.3,215.7,386,217.6,388.2,218Zm2.7,1.1c-0.1-.6-0.1-1.1-0.2-1.6a1.7,1.7,0,0,0-1.3-1.4c-0.4-.2-0.7,0-0.6.4S389.3,218.8,390.9,219Zm0.8-1.3c0.8,1.1.4,2.7,2.2,2.9C393.6,218.5,393.5,218.3,391.7,217.8Zm-6.8-1.7c-0.2-.7-0.4-1.5-0.7-2.2a0.5,0.5,0,0,0-.6-0.4,0.5,0.5,0,0,0-.2.4c0.2,0.8.4,1.6,0.7,2.3a0.5,0.5,0,0,0,.6.3C384.9,216.6,384.9,216.3,384.9,216.1ZM373.7,504.2c-0.7-.8-1.1-1.6-2.1-1.1a0.7,0.7,0,0,0-.6.6c0.1,0.4.5,0.3,0.8,0.3Zm20.8-284.1c0.2,1,.7,1.9,1.1,1.9a0.3,0.3,0,0,0,.3-0.4,2,2,0,0,0-1.4-1.6h-0.1ZM382,215.8a0.5,0.5,0,0,0,.5-0.6c-0.1-.4-0.1-0.9-0.6-0.9a0.9,0.9,0,0,0-.7.9C381.2,215.7,381.6,215.8,382,215.8Zm30-68.7h0Z"/><path class="cls-9" d="M342.1,161.4c3.1-4,7.1-6.9,11.2-9.7l5.4-3.8c1.1-.8,2.5-0.7,3.7-1.1a69.6,69.6,0,0,1,14.1-3.6c4.8-.8,9.7-1.3,14.5-2.7l0.9-.3c-1.3-.5-2.5-0.1-3.6-0.5a1.8,1.8,0,0,1,1.8-.3,23.8,23.8,0,0,0,3.9.1,1.4,1.4,0,0,0,1.2.8c4.5,0.4,8,2.7,11.5,5.3a20.4,20.4,0,0,1,6,6.7c2.6,4.7,5.6,9.1,8.5,13.6a8.2,8.2,0,0,1,1.1,1.9c-1.2-.1-1.3-1.3-1.8-2-3.1-4.1-6.4-8.1-9.2-12.4a19.5,19.5,0,0,0-7.1-6.2,22.3,22.3,0,0,0-12-3.2c-2.2.1-4.4-.7-6.5-0.2s-6.7.4-10,1.2-5.1.9-7.6,1.7c-4.5,1.3-8.4,3.8-12.3,6.4a48.3,48.3,0,0,0-11,10.5,49.2,49.2,0,0,0-6,10.1c-0.2.4-.4,0.7-0.8,0.5a0.6,0.6,0,0,1-.3-0.8c0.5-3.1,1.1-6.2,2.9-8.9C341.1,163.5,342,162.6,342.1,161.4Z"/><path class="cls-10" d="M256.7,287.9c0.4,0.9-.3,1-0.9,1.2-8.3,3.9-16.7,7.4-25.1,10.9a207.6,207.6,0,0,0-18.8,8.8c-2.8,1.5-5.5,3-8.4,4.3a1.1,1.1,0,0,0-1,1,1.3,1.3,0,0,1-.9.2c0.1-.4,1-0.7-0.2-1.3s-0.7-1.9-1.4-2.7h0.7c3.8-1.4,7.6-2.7,11.3-4.3,5.4-2.3,11.1-3.9,16.1-7.1a26,26,0,0,1,6.3-2.5,136.3,136.3,0,0,0,17.3-6.6C253.4,289,254.9,288.1,256.7,287.9Z"/><path class="cls-8" d="M292.4,247.3c0,0.2.1,0.2,0.3,0.2s-0.2,0-.3.1h0.1v-0.2h0Z"/><path class="cls-11" d="M385.3,219.3c1.5,0.6,3.3.6,4.3,2.3l0.3,0.2c2.2-.5,3.4,1.4,5,2.3a10.1,10.1,0,0,1,2,1.8c0.3,0.3.7,1,1,.6s1.7-.4,1.4-1.7a13.8,13.8,0,0,0-2.9-5.6,21.7,21.7,0,0,0-6.5-4.9,1.4,1.4,0,0,1,1.2-1l3.9-1.5c1.2-.5,2.6-0.8,3.5-1.7a23.5,23.5,0,0,1,5.3-3.8,13.6,13.6,0,0,1,10.3-1.4,7.8,7.8,0,0,0,3.2.6,53.6,53.6,0,0,1,3.6,5.1,9.2,9.2,0,0,1-1.5,11.8,15.8,15.8,0,0,1-2.7,2.7,0.5,0.5,0,0,0-.3.7,0.4,0.4,0,0,0,.6.2c1.4-.9,2.7,0,3.9.4a9,9,0,0,1,6,8.9c-0.1,1.9-.2,3.9-0.3,5.9a10.2,10.2,0,0,0-.6,3.9,1.5,1.5,0,0,0-.7.2,0.5,0.5,0,0,0,.3.6c1.5,0.5,2.7,1.7,4.6.8s1.6-1.7,2-2.8a23,23,0,0,0,.7-3.3h0.7l0.6,1.1c-0.1,1.2-.6,2.4,0,3.5l-0.5.4c-0.2.2-.7,0.2-0.6,0.6s0.6,0.2.9,0a3.3,3.3,0,0,1,1.8-.2c0.3,0.9,1,.8,1.7.8l2.4-.5c1.7-.4,3.6-1,4.2-2.7s2.7-6.1,2.2-9.6c0.3-.1.2-0.2,0-0.3h0a1.3,1.3,0,0,0-.6-1.3c-2.3-1.4-4.9-2-7.5.1a17.2,17.2,0,0,0-4,4.8h-0.5c0.6-4.2,3.1-7.2,6-10a5.4,5.4,0,0,1,1.2-.9c2.8-1.5,5.5-.5,7,2.5a11.3,11.3,0,0,1,.8,4.4c0.3,6.6-2.6,11.5-8.1,14.9l-3.3,1.9c-1.8,1.1-3.8.9-5.8,1s-2.1,0-2.2,2a18,18,0,0,1-1.3,4.6,4.9,4.9,0,0,0-2.9,2.2,53.6,53.6,0,0,1-5.4,5.8c-2.6,2.4-5,5.1-7.7,7.3s-3.8,3.5-5.9,5a63.8,63.8,0,0,1-8.6,5.2c-4.1,2-8.1,3.9-12.6,4.6s-7.4,1.8-11.3,1.8a1.6,1.6,0,0,0-1,.3,2.9,2.9,0,0,1-2.7.4c-3.7-.9-7.5-0.7-11.2-2.1s-6.6-1.7-9.5-3.6l-0.9-.4a36,36,0,0,1-7.6-3.9c-3.8-2.4-6.8-5.7-9.8-9a35.8,35.8,0,0,1-5-7,49.1,49.1,0,0,1-4.8-13.7,0.6,0.6,0,0,0-.6-0.6v-1.9a1.9,1.9,0,0,0,.1-1.9,30.9,30.9,0,0,1,.6-5.6,83.8,83.8,0,0,0,1-11c0.1-1.6.3-3.3,0.6-4.9a86.6,86.6,0,0,0,.8-9.5c1.4,0.5,3-.1,4.5.6a3.3,3.3,0,0,0-.7,1.7c0,0.9.9,1,1.2,1.6s0.7-.3,1-0.6,4.3-1.5,6.3-2.6h0.2c0.4,0.4.6,0.2,0.9-.2a1.8,1.8,0,0,1,1.7-.7c0.4,0.9,1.2.9,2,.9s4.1-.1,6,0.4c3.9,1.1,8,1.4,11.9,2.6a55.3,55.3,0,0,0,6.3,1,24.8,24.8,0,0,0,10.8-.5c1.5-.4,2.7-0.5,4.1.5a8.9,8.9,0,0,0,2.8,1.1C384.3,221.2,384.6,221.1,385.3,219.3Zm-27.1,56.9c-0.3,1.5.8,1.7,1.8,1.8a8.4,8.4,0,0,0,8-2.7,2.4,2.4,0,0,0,1.7-.5c1.1-1,3-1.4,2.7-3.4,4.4-1.7,6.6-5.2,8.2-9.3,0.1-.2.3-0.5,0-0.7a0.7,0.7,0,0,0-.6.1c-2.2,1.7-4.8,2-7.4,2.5a31.2,31.2,0,0,1-22.9-3.2,1.1,1.1,0,0,0-1.3,0,1,1,0,0,0-.1,1.2,14.4,14.4,0,0,1,.3,6.5c-0.2,1.1-.5,2.2,1,2.6a1.8,1.8,0,0,1,.5.8c-0.5,1.6-.3,2.2,1.3,2.9a11.8,11.8,0,0,0,4.7,1C356.7,275.9,357.5,275.5,358.2,276.2ZM350,253.3a35,35,0,0,0,6.9-.7l-0.4-.3h-0.8a17.7,17.7,0,0,1-8-1.4c-2-.8-2.6-2.2-2.1-4.3a10.1,10.1,0,0,1,2-3.7c2.8-3.6,6.3-6.7,7.2-11.6s0.9-7.1-1.2-10.3c-0.7-1.1-1.7-1.9-3.2-1.4s-0.7.8-.7,1.4c0.1,2.2.3,4.4,0.3,6.7s0.2,4.4-1.2,6.4a85.1,85.1,0,0,0-5.7,9.8,11.5,11.5,0,0,0-1,6.2,2.5,2.5,0,0,0,1.5,2.3,24.3,24.3,0,0,0,3.3,1.1C347.9,253.7,349,254.5,350,253.3Zm-7.2-19.7c0.2,0.7.5,1,1.3,0.7,4.7-2,6.8-7,3.4-10.8,0.3-1.2-.6-1.8-1.4-2.4-3.2-2.4-8.7-2.3-11.2,1.7a1.7,1.7,0,0,0-.5,1.6,7.1,7.1,0,0,0,.7,7.3,2.4,2.4,0,0,0,3.3,1.1Zm30.9,2.7c0.4,2.4,2.4,3.6,4,5.1h0.4a10.2,10.2,0,0,0,1.4,1,7.1,7.1,0,0,0,7.1-.7,5.7,5.7,0,0,0,2.8-5.7,10.3,10.3,0,0,0-2-4.7,2,2,0,0,0-.8-2.2c-3.9-2.8-7.8-4.3-12.3-1-1.4,1-2.9,2.2-2.2,4.4a3.3,3.3,0,0,0-.1,3.3A1.4,1.4,0,0,0,373.7,236.3Z"/><path class="cls-12" d="M420.9,320.8c-1.5,2.6-3.6,4.6-5.5,6.9a68.9,68.9,0,0,1-9.8,9.3c-1.5-.2-2.4-1.4-3.6-2.1-3.2-2-6.6-3.5-9.7-5.6a31.7,31.7,0,0,0-4-2.7,1.2,1.2,0,0,0-1.8,1.6,57.6,57.6,0,0,1,2.7,7.5c1.2,3.9,2.3,7.8,2.3,11.8s-1.1,7.7-.8,11.7a1.3,1.3,0,0,1-.1.5c-2,5.3-2.5,10.9-4.4,16.3a9.2,9.2,0,0,1-6.5,6.1l-0.2-.2c1-1.9.8-2.5-1.1-3.4a13.3,13.3,0,0,0-7.3-1.2,1.6,1.6,0,0,0-1.5,2.3,1.5,1.5,0,0,1-.4,1.6h-0.5a27.4,27.4,0,0,1-18.7,4.2,13.1,13.1,0,0,1-3.8-.8c-2.3-1.1-4.7-2.2-7.1-3.1a12.1,12.1,0,0,0-9.5-.2,2.9,2.9,0,0,1-1.9.3c-3.4-.8-6.7-1.6-9.3-4.2a1.9,1.9,0,0,0-1.3-.7c1.3-6.6,2.8-13.1,4-19.7a167.5,167.5,0,0,1,8.7-29.3l0.5-1.1c0.5-1.2.3-1.6-1.1-1.6s-1.2,0-1.7.4-2.1,2-3.2,2.9-1.5,1.7-2.8,1.8c-1.5-3.4-1.8-7-2.3-10.6a37.1,37.1,0,0,1-.5-8.8c2.9-.5,5.6-1.2,8.4-1.9s7.9-2.3,11.8-3.7c0.7-.2,1.5-0.4,1.6-1.4a1.4,1.4,0,0,0-1.1-1.5l2.2-.7c-0.3,1.7-.7,3.5-0.8,5.2-0.3,3.4,1.3,6.2,3.2,8.8s6.9,6.8,9.7,10.9a5.2,5.2,0,0,1,1.1,3.4,33.5,33.5,0,0,1-1.7,6.9c-2.4,6.7-4.3,13.5-6.2,20.3a24.1,24.1,0,0,0-1.3,8.2c0,0.7.1,1.2,0.9,1.1a35.1,35.1,0,0,0-.4,7.1c0,0.3-.1.7,0.3,0.8s0.4-.3.5-0.7a135.9,135.9,0,0,1,10.1-34c1.3-3.1,2.2-6.3,3.7-9.3s4.2-5.2,6.8-7.3c0.8,0.9,1.2,2.1,2.3,2.8a8.4,8.4,0,0,0,6.3.9c0.7-.1,1.5-0.1,1.9-0.8l0.7-.2a3.2,3.2,0,0,0,2.9-1.5c3-1.3,5-3.6,6.9-6.1,3.9-2.4,7.7-5,9.2-9.6l0.2-.5c0.8-1.4.7-2.9,0.9-4.4s0.6-1.3,1.4-.9l2.2,1.3a36,36,0,0,1,7,4.6A111.2,111.2,0,0,1,420.9,320.8ZM386,348.2c-2.5-.3-4.7.5-6.9,0.6a26.3,26.3,0,0,1-10.4-1c-1.3-.4-1.8-1-1.5-2.4a16.8,16.8,0,0,0,.5-3.8c0-1.2.3-1.3,1.4-1.1,6.1,0.9,12.1,1.6,18.2.7,0.9-.1,1,0.2.9,0.9s-0.5,3.7-.8,5.6,0,0.9.8,0.7a1,1,0,0,0,.9-1c0.3-2.1.6-4.2,0.9-6.2a0.9,0.9,0,0,0-.2-1,0.8,0.8,0,0,0-1.1.2,1.4,1.4,0,0,1-1.3.3l-2.5-.2c-5.5,0-11-.4-16.5-0.9-2.1-.2-2.2-0.1-2.4,2a39.1,39.1,0,0,0-.5,5c0,0.2-.2.4,0.1,0.6s2.1,1.9,3.6,2.4c5.3,1.8,10.4,1.2,15.6-.4A1.9,1.9,0,0,0,386,348.2Z"/><path class="cls-13" d="M318.7,416.6a50.9,50.9,0,0,1-.7-9.6c1.7-.9,3.5-0.5,5.1,0a65.9,65.9,0,0,0,7.3,1.7c1.8,0.4,3.7,0,5.6.5a33.6,33.6,0,0,0,9.8,1.3,27.9,27.9,0,0,1,3.8.5,1,1,0,0,1,1,1c1.1,6.4,5.3,10.4,10.4,13.8,2.8,1.8,5.9,1.9,9,2.2s8.8-.7,13.2-0.9a11.3,11.3,0,0,0,3.3-.7l6.4-2a0.9,0.9,0,0,1,1.3.3,14.6,14.6,0,0,1,1.9,3.9c0.7,3.2-.1,6.2-0.4,9.3-0.5,5-.9,9.9.8,14.7s1.6,9.2,2.2,13.8c0.4,2.7.7,5.4,1,8.1s0.8,4.6,1.1,7-0.7,5.7-1.2,8.6-3.9,5.8-7.6,6.7c-1.8.4-3.5,0.1-5.3,0.3s-6,1-8.9.2-4.5-1-6.4-2.3a3.4,3.4,0,0,0-2.3-.7,161.8,161.8,0,0,1-8.5-19.8,0.8,0.8,0,0,0,.2-0.9c-0.4-1.8-.7-3.7-0.9-5.5-0.5-3.9-1.1-7.8-1.8-11.7s-1.3-8.5-2.2-12.7c-0.2-.9-0.6-1.4-1.6-1.2s-0.5-2.4-.6-3.6c-0.1-3-.4-2.7,2.5-2.7h4.3c0-.2-0.1-0.3-0.3-0.3a35.6,35.6,0,0,1-17-6.4l-2.1-1.3c-0.8-.5-1.8-1-2.5-0.1s0.5,1.4,1,2a2.2,2.2,0,0,0,.6,1.6,50,50,0,0,1,4.5,5.6c2.2,3.4,4.3,6.7,4.7,10.9,0.5,5.7,2,11.3,3.2,16.9s2.9,9,3.9,13.6,2.6,6.1,3.9,9.1a33.3,33.3,0,0,1,2.5,6c0.5,2-.3,3.2-2.3,3.6a2.3,2.3,0,0,1-1.4-.3c-2.8-1.4-6.1-.7-8.9-2.1a0.8,0.8,0,0,0-1.1.5,3.4,3.4,0,0,1-1.6-1c1.5-.4.8-1.2,0.4-1.9a151.3,151.3,0,0,1-7.3-14c-2.4-4.9-4.6-9.9-7.2-14.7,0.3-.2.2-0.4-0.1-0.5h0a13.9,13.9,0,0,0-1.4-4.8,179.4,179.4,0,0,1-8-25.3c-1.3-5.2-2.7-10.5-4.5-15.6C319.7,417.1,319.6,416.5,318.7,416.6Z"/><path class="cls-14" d="M342.1,161.4c-0.1,1.3-1,2.1-1.6,3.1-1.8,2.7-2.4,5.8-2.9,8.9a0.6,0.6,0,0,0,.3.8c0.4,0.2.6-.1,0.8-0.5a49.2,49.2,0,0,1,6-10.1,48.3,48.3,0,0,1,11-10.5c3.9-2.6,7.8-5,12.3-6.4,2.5-.7,5.1-1.1,7.6-1.7s6.7-.5,10-1.2,4.3,0.3,6.5.2a22.3,22.3,0,0,1,12,3.2,19.5,19.5,0,0,1,7.1,6.2c2.8,4.3,6.1,8.3,9.2,12.4,0.5,0.7.6,1.9,1.8,2a26.4,26.4,0,0,1,2.5,5c0.2,0.4.4,1.1,1,1s0.5-.8.6-1.3a4.2,4.2,0,0,0-.5-2.4c-1.9-3.8-4.3-7.2-6.5-10.7s-3.9-5.5-5.4-8.6a2.4,2.4,0,0,0-.7-0.6,3,3,0,0,1-.9-1,1.9,1.9,0,0,1,.2-1.7c0.2-.4.9,0,1.2,0.2L416,149a1.6,1.6,0,0,0,.6,1.3l1.9,2.3a103.1,103.1,0,0,0,14.9,16c2.8,2.4,5.1,5,6.1,8.7,0.1,0.4.2,1,.6,0.9s1.2,0.8,1.4,1.4c0.9,3.3.4,6.7,0.6,10s-0.9,6-4.4,6.9-4.8,1.8-7.5,1.4l-6.7-.9a9.4,9.4,0,0,1,1-2.8,39.9,39.9,0,0,0,2-8.7c1.6-1.1,1.3-2.8,1.4-4.4a0.8,0.8,0,0,0-.6-1,0.7,0.7,0,0,0-.8.8l-0.2.8a2.2,2.2,0,0,0-1.1,1.7,1.2,1.2,0,0,0-.8,1,6.7,6.7,0,0,1-3.1,3.2,14.6,14.6,0,0,1-7,1.8,89.8,89.8,0,0,1-12-.4,24.5,24.5,0,0,1-6-1.2c-3.7-1.4-7.5-2.6-11.4-3.7s-8.3-2.7-12.8-2.3c-0.9.1-1.9-.1-2.5,0.8l-8.9-1.1c-4.9-.5-9.8-0.5-14.7-0.6h-2.1a1,1,0,0,1,.4-1.1c0.4-.2,1.2.3,1.1-0.5s-0.9-.2-1.3-0.3l-1.3-.5a7.5,7.5,0,0,0-2.6-.9,37.4,37.4,0,0,1-8.6-1.4,52.7,52.7,0,0,1,9.8-14.5A0.9,0.9,0,0,1,342.1,161.4Z"/><path class="cls-14" d="M342.1,181.4c-0.2.5,0.2,0.6,0.6,0.7a59.3,59.3,0,0,0,12.7,1.4,87.7,87.7,0,0,1,18.6,2.6c3.6,0.9,7.3,1.7,10.8,2.9l2.4,0.9a1.3,1.3,0,0,0,.7,1.1l5.1,4.3a1.5,1.5,0,0,1,.4,2.2,10.8,10.8,0,0,1-4,3.6c-2.2,1.3-4.9,1.8-7.3,2.8s-5.5,2.9-8.8,3.2a21.6,21.6,0,0,1-6.7-.1,115.9,115.9,0,0,1-17-5.3l-6.1-2.6,0.4-.2c0.4-.1,1,0,0.9-0.6s-0.6-.4-1-0.5a26.3,26.3,0,0,0-3.8-.3c-7.3.1-14.6,0.1-21.9-.6-3.5-.3-7.1-0.5-10.2-2.6a44.2,44.2,0,0,1,10-6.8c5.2-2.5,10.8-4.2,15.9-6.8h0.4a1.3,1.3,0,0,0,1.3.3h5.2A1.4,1.4,0,0,1,342.1,181.4Z"/><path class="cls-15" d="M320.6,249.5a0.6,0.6,0,0,1,.6.6,49.1,49.1,0,0,0,4.8,13.7,35.8,35.8,0,0,0,5,7c3,3.3,6,6.6,9.8,9a36,36,0,0,0,7.6,3.9l0.9,0.4c2.9,2,6.3,2.4,9.5,3.6s7.5,1.2,11.2,2.1a2.9,2.9,0,0,0,2.7-.4,1.6,1.6,0,0,1,1-.3c3.9,0.1,7.5-1.2,11.3-1.8s8.6-2.6,12.6-4.6a63.8,63.8,0,0,0,8.6-5.2c2.1-1.5,3.9-3.4,5.9-5s5.2-4.8,7.7-7.3a53.6,53.6,0,0,0,5.4-5.8,4.9,4.9,0,0,1,2.9-2.2c-0.9,4.8-3.3,8.6-6.6,12.1a92.1,92.1,0,0,1-20.7,16.6,38.9,38.9,0,0,1-8.9,3.5c-3,.9-5.6,2.8-8.6,3.8l3-.5c2-.2,2.9.3,3.8,2.1a5.3,5.3,0,0,0,1.3,1.9c0.7,0.5.1,1.1-.3,1.3a4.2,4.2,0,0,0-1.5,2.1,8.2,8.2,0,0,1-2.7,2.8,11.8,11.8,0,0,1-6.5,2.9,24.2,24.2,0,0,0-8,2.2c-1,.5-1.8,1.4-3,1.5s-0.4.7-.5,1.2,0.4,1.5-.2,2.2a0.4,0.4,0,0,1-.5,0,17,17,0,0,1-5.7-.7h-0.4c-2.1-.4-3.9-0.9-3.8-3.7s-1.1-2.4-2.5-2.9h0a2.2,2.2,0,0,0-1.1-1.4c-2.6-1.6-3.2-4.1-3.4-6.9,0-.5-0.1-1,0.7-1.1a1.2,1.2,0,0,0,1-1.2c0.2-1.5,1-2.9.9-4.5s0.3-.8,1-0.7c3.2,0.7,6.3,2,9.7,2.1h0.8c0-.5-0.4-0.4-0.7-0.5-6.4-2.7-13.1-4.3-19.6-6.7A33.6,33.6,0,0,1,329.8,274a55.7,55.7,0,0,1-7-11C320.9,258.7,319.8,254.2,320.6,249.5Z"/><path class="cls-11" d="M267.8,280.8a4.7,4.7,0,0,1-.3,4.1,9.1,9.1,0,0,0-.7,5.7,21.2,21.2,0,0,1,0,5.6,2.6,2.6,0,0,0,1.5,3.1,39.4,39.4,0,0,1,11.9,10.2l6.7,8.5,0.5,0.8c0.4,0.7.7,1.8,1.5,0.2l0.5-.3a56.5,56.5,0,0,1,13.5-4.2l-0.3,1.7a83.4,83.4,0,0,0-.3,10.6,29.1,29.1,0,0,1-1.3,7.5,1.8,1.8,0,0,1-2.1,1.6H283.9a11.5,11.5,0,0,1-6.9-2.6,72.1,72.1,0,0,1-10.7-10.8,26.6,26.6,0,0,1-1.9-2.7,32.5,32.5,0,0,1-3.9-7,17.4,17.4,0,0,0-2.6-5.6,23.8,23.8,0,0,1-4-6.6c-0.2-.5-0.6-1.2-0.1-1.7s1-.1,1.6,0,1.5,0.6,1.8-.5l1.6-.3c0.8-.2,1.8-0.2,2-1.3a7,7,0,0,0,3.3-4.8c0.1-.7.2-1.4,0.3-2.1a20.4,20.4,0,0,1,2.1-6.3C266.7,282.5,266.7,281.3,267.8,280.8ZM283.6,321c-0.1-.4-0.1-1.1-0.3-1.8a6.2,6.2,0,0,0-.3-1.1,28.3,28.3,0,0,0-11.7-14.8c-0.7-.5-1.7-1.5-2.3-0.5s0.6,1.7,1.3,2.2a30.1,30.1,0,0,1,10.3,13.4l1.7,3.9a0.8,0.8,0,0,0,.8.7,0.9,0.9,0,0,0,.6-0.9A6.4,6.4,0,0,0,283.6,321Z"/><path class="cls-11" d="M433.3,330.6c4.4,5.4,7.6,11.5,10.8,17.7,4.1,7.9,2.9,15.2-2.2,21.8a68.3,68.3,0,0,1-18.4,16.7,81.7,81.7,0,0,1-9.2,4.6,1.8,1.8,0,0,0-1.1.7c2.1,0.9,1.5,3.5,3.2,4.6a0.8,0.8,0,0,1-.7.5c-1.9.7-1.9,0.7-.7,2.1a1.2,1.2,0,0,1-.9.9,7.4,7.4,0,0,1-3,.3c-1.9,0-3.7-1-3.9-2.8s-0.7-5.3.2-7.8a43.5,43.5,0,0,1,4.5-9.6,30.4,30.4,0,0,1,4.6-6.1,58.2,58.2,0,0,1,8.9-6.5,7.2,7.2,0,0,0,2.8-3.4c1.6-3.7.7-7.4-.3-11.1s-2.2-4-3.5-6a1.5,1.5,0,0,1-.1-1.4c0.6-2.3,2.5-3.6,4-5.2A18.8,18.8,0,0,0,433.3,330.6Zm8.2,23.3a19.8,19.8,0,0,1-2.6,10.3,114.3,114.3,0,0,1-6.5,9.6c-0.4.5-.8,1-0.1,1.5a1,1,0,0,0,1.6-.2l3.2-3.2c5.5-5.5,8.4-12,7.4-19.9a10.2,10.2,0,0,0-2.7-5.5,1.2,1.2,0,0,0-1.4-.4c-0.6.2-.5,0.8-0.5,1.3a4.7,4.7,0,0,0,.6,2A9.5,9.5,0,0,1,441.5,353.8Z"/><path class="cls-15" d="M267.8,280.8c-1.1.5-1.1,1.7-1.5,2.6a20.4,20.4,0,0,0-2.1,6.3c-0.1.7-.2,1.4-0.3,2.1a7,7,0,0,1-3.3,4.8,1.3,1.3,0,0,0-1.4-.3c-1.6.3-3.2,0.3-4.5-.9a0.8,0.8,0,0,0-1.2-.1,0.9,0.9,0,0,0,.1,1.3,4.9,4.9,0,0,0,3.3,1.6c-0.3,1.1-1.2.6-1.8,0.5s-1.1-.4-1.6,0-0.1,1.1.1,1.7a23.8,23.8,0,0,0,4,6.6,17.4,17.4,0,0,1,2.6,5.6,32.5,32.5,0,0,0,3.9,7,26.6,26.6,0,0,0,1.9,2.7A72.1,72.1,0,0,0,277,333.2a11.5,11.5,0,0,0,6.9,2.6h15.1a1.8,1.8,0,0,0,2.1-1.6,29.1,29.1,0,0,0,1.3-7.5,83.4,83.4,0,0,1,.3-10.6l0.3-1.7c1.2-.5,1.6-0.2,1.7,1.2a82.5,82.5,0,0,0,2.9,18.7,15.6,15.6,0,0,0,3.9,6.7c1.4,1.4,1.1,2.6-.8,3.2-6.5,2.1-13,3.4-19.9,2.8a44.6,44.6,0,0,1-12.1-3.2,23.3,23.3,0,0,1-8.6-6.1c-4.1-4.4-8.3-8.7-11.2-14.1a39,39,0,0,1-3.2-9.6c-0.5-2.2-1.4-4.2-1.6-6.5s-1-.4-1.4-0.9a36.4,36.4,0,0,0-3.6-3.6,11.5,11.5,0,0,0-2.1-1.5c-0.6-.4-1.5-0.4-1.3-1.6a0.7,0.7,0,0,0-.8-0.6,4.7,4.7,0,0,1-2.8-2.2c2.9-1.3,5.9-2.5,8.7-3.8s4.5-1.5,6.7-2.4,1.7-.7,1.4-1.9a1.1,1.1,0,0,1,.1-0.6,30.1,30.1,0,0,1,5.6-8.4C266.2,278.3,266.8,278.4,267.8,280.8Z"/><path class="cls-16" d="M369.1,494.4a3.4,3.4,0,0,1,2.3.7c1.9,1.2,4.2,1.7,6.4,2.3s6,0.1,8.9-.2,3.5,0.1,5.3-.3c3.7-.9,6.9-2.4,7.6-6.7s1.6-5.6,1.2-8.6-0.8-4.6-1.1-7-0.7-5.4-1-8.1c-0.6-4.6-.7-9.4-2.2-13.8s-1.4-9.8-.8-14.7c0.3-3.1,1.1-6.2.4-9.3a14.6,14.6,0,0,0-1.9-3.9,0.9,0.9,0,0,0-1.3-.3l-6.4,2a11.3,11.3,0,0,1-3.3.7c-4.4.2-8.7,1.3-13.2,0.9s-6.2-.4-9-2.2c-5.1-3.4-9.3-7.5-10.4-13.8a1,1,0,0,0-1-1,27.9,27.9,0,0,0-3.8-.5,33.6,33.6,0,0,1-9.8-1.3c-1.9-.5-3.7-0.1-5.6-0.5a65.9,65.9,0,0,1-7.3-1.7c-1.7-.5-3.4-0.9-5.1,0,0-1.2,0-2.4-.1-3.6s0.1-1,.7-0.8c3.1,1.1,6.3.7,9.4,1.3l1.9,0.6a13.7,13.7,0,0,0,3.9,1.1,21.5,21.5,0,0,1,5.3,1.3c4.2,1.6,8.7,1.5,13.2,1.4,1.8,0,1.8,0,1.8,1.8s0.5,3.8.1,5.4,1,3.8,2.2,5.3a8.1,8.1,0,0,0,5.3,2.8c3.4,0.5,6.7,1.1,10.1.7a27.3,27.3,0,0,1,4.3.2,25,25,0,0,0,9.5-1.6c2.6-.9,5.2-1.5,7.7-2.6a6.7,6.7,0,0,0,3.9-4.6,18.6,18.6,0,0,0,.9-8.5,33.4,33.4,0,0,1,0-5,21.2,21.2,0,0,0,5.4,3.6c0.4,0.2.2,0.4,0.1,0.7-0.9,5-1.9,10.1-3.3,15a37.2,37.2,0,0,1-1.7,4.2,2,2,0,0,0,0,2.2,1.2,1.2,0,0,1,.2.8c-0.7,5,.1,10,0.8,14.9s1.5,10.6,2.3,15.9c1.6,10,3.3,20,6.3,29.7,1,3.2.9,3.1-1.8,4.9s-7.2,3.6-11,5.1a9.9,9.9,0,0,1-3,.4c-5.7.4-11.3,0.5-16.9-1.2-1.8-.5-3.5-1.3-5.3-1.6S369.4,495.5,369.1,494.4Z"/><path class="cls-15" d="M433.3,330.6a18.8,18.8,0,0,1-5.1,9.9c-1.5,1.6-3.4,2.9-4,5.2a1.5,1.5,0,0,0,.1,1.4c1.2,2,2.8,3.7,3.5,6s1.9,7.3.3,11.1a7.2,7.2,0,0,1-2.8,3.4,58.2,58.2,0,0,0-8.9,6.5,30.4,30.4,0,0,0-4.6,6.1,43.5,43.5,0,0,0-4.5,9.6c-0.8,2.5-.5,5.3-0.2,7.8s2,2.8,3.9,2.8a7.4,7.4,0,0,0,3-.3,1.2,1.2,0,0,0,.9-0.9l0.5,0.6v0.7c0.5,1.5-.3,2-1.5,2.4a14.4,14.4,0,0,1-9.8.2c-4.1-1.6-5.8-4.6-4.3-9.3,0.4-1.4,1.6-2.3,1.9-3.7a1.6,1.6,0,0,0,.2-1.1c-0.9-1.6-.2-3.1.3-4.4a79.2,79.2,0,0,1,13.2-22.9,10.6,10.6,0,0,1,5.2-3.6l0.5-.2c0.4-.3,1.1-0.4,1.1-0.9a1.3,1.3,0,0,0-1.1-.9l-2.8-1.1a19.6,19.6,0,0,1-7.3-5.5c5.4-3.3,10.1-7.4,14.8-11.5a24.4,24.4,0,0,0,6.7-8.9A2.5,2.5,0,0,1,433.3,330.6Z"/><path class="cls-17" d="M423.3,197.2l6.7,0.9c2.7,0.4,5-.8,7.5-1.4s4.6-3.5,4.4-6.9,0.3-6.7-.6-10c-0.2-.7-0.2-1.6-1.4-1.4s-0.5-.5-0.6-0.9c-1-3.6-3.3-6.2-6.1-8.7a103.1,103.1,0,0,1-14.9-16l-1.9-2.3a1.6,1.6,0,0,1-.6-1.3,51.1,51.1,0,0,1,17.8,12.8c3.9,4.3,6.9,9.4,10.6,13.9l1,1.1a6.8,6.8,0,0,1,1.7,3.9c0.2,2.3,1,4.5,1.4,6.8a65.2,65.2,0,0,1,1.1,17.1c-0.1,1.6-.3,3.4.7,4.9a1.3,1.3,0,0,1,.2,1.2c-0.9,2.2-.9,4.6-1.8,6.8a0.7,0.7,0,0,1-.9.5h0l-0.3-.3-0.3-.3v-0.3c0.2-.1,1.1.3,0.4-0.5a2.2,2.2,0,0,0-1.4-.8c-5.8-5.4-12.9-8.6-19.9-12l-3.7-1.7c-0.6-.3-0.9-0.5-0.5-1.2S422.7,198.4,423.3,197.2Z"/><path class="cls-18" d="M406.4,510.3c-1.6,1.9-4,2.9-5.7,4.7s-7,3.7-10.6,5.2-8.7,3.3-13.2,4.6-9.2,1.7-13.8-.2-4.2-3.9-3.6-7.2,3.1-5.7,4.9-8.4a1.2,1.2,0,0,1,.9-0.5c3.1-.2,6,0.3,8.3,2.6l2.7,2.5a3.1,3.1,0,0,1,1,1.4c0.2,1.7,1.4,1.7,2.6,1.7a38.4,38.4,0,0,0,15.3-3.5,46.6,46.6,0,0,0,5.9-3.8c-0.3-.5-0.5-0.2-0.8-0.1a58.6,58.6,0,0,1-19.7,5.5,2.1,2.1,0,0,1-2.4-1.2c-0.3-.8-1.2-1.2-1.5-2.1a1.8,1.8,0,0,0,1.4-.8,3.4,3.4,0,0,0,2.5-1c0.8-.6,1.5-1.5,2.6-1.6a0.7,0.7,0,0,0,.4-0.6,2.1,2.1,0,0,1,1.6-1.3c0.9,0,1-.5,1.3-1.1l0.7-1.3a7.7,7.7,0,0,1,3.1-.3,26.4,26.4,0,0,0,11-1.5,1.8,1.8,0,0,1,2.1.6C406,504.7,406.3,507.4,406.4,510.3Z"/><path class="cls-19" d="M379.5,381.8l0.2,0.2a9.2,9.2,0,0,0,6.5-6.1c1.9-5.3,2.4-11,4.4-16.3a1.3,1.3,0,0,0,.1-0.5c-0.3-3.9.8-7.8,0.8-11.7s-1.2-8-2.3-11.8a57.6,57.6,0,0,0-2.7-7.5,1.2,1.2,0,0,1,1.8-1.6,31.7,31.7,0,0,1,4,2.7c3.1,2.1,6.5,3.7,9.7,5.6,1.2,0.7,2.1,1.9,3.6,2.1l-4.8,3.8c-0.7.6-1.2,0.4-1.6-.4a40.5,40.5,0,0,0-4.6-7.1,19.5,19.5,0,0,0-3.8-3.5c-0.4-.3-0.8-0.8-1.3-0.3a1,1,0,0,0,.3,1.4c1.2,1.4,2.6,2.7,3.7,4.2s3.4,5.6,5.2,8.4a1.9,1.9,0,0,1,.2,1.3,195.2,195.2,0,0,0-.6,21.3,100.4,100.4,0,0,0,.3,11.9q0.4,3.4,1,6.8c0.2,1.1.1,1.7-1.2,1.9a28.5,28.5,0,0,0-4.1,1.2c-0.5.2-.8,0.3-1.1-0.3a6.7,6.7,0,0,0-5.1-3.3c-3.3-.5-6.3-0.3-8.3,2.9l-0.3.5c-0.4.5-.1,1.5-0.7,1.7a13.6,13.6,0,0,1-3,.1c-0.5,0-.6-0.3-0.4-0.7,0.8-2,1.6-4,2.4-6S378.9,382.2,379.5,381.8Z"/><path class="cls-17" d="M343.6,199l6.1,2.6a115.9,115.9,0,0,0,17,5.3,21.6,21.6,0,0,0,6.7.1c3.2-.2,5.9-2,8.8-3.2s5-1.4,7.3-2.8a10.8,10.8,0,0,0,4-3.6,1.5,1.5,0,0,0-.4-2.2l-5.1-4.3a1.3,1.3,0,0,1-.7-1.1,87.2,87.2,0,0,1,10.5,3.9,56.1,56.1,0,0,1,7.8,3.4,16.2,16.2,0,0,1-3.1,1.6c-1.3.7-1.8,2.1-3.1,2.8-4.4,2.3-8.8,4.8-13.2,7.3l-6.6,3.9a6.9,6.9,0,0,1-3.3,1.1,25.8,25.8,0,0,1-17.1-4.9c-2.1-1.5-4.4-2.9-6.7-4.3s-6.5-2.2-9.9-2.8a55.8,55.8,0,0,0-12.2-1.1c-2.6.1-5.3,0.5-7.9,0.4a20.5,20.5,0,0,0-7,.7,7.2,7.2,0,0,1-4.8-.1c-1.8-.7-3.7-1.3-4.4-3.5a2.1,2.1,0,0,1,.8-2.5,5.9,5.9,0,0,0,2,1.2c5.1,2.1,10.5,1.9,15.8,2.1h11.3a9.3,9.3,0,0,0,3.4.1h4Z"/><path class="cls-15" d="M328.1,215.3c-1.4-.7-3-0.2-4.5-0.6a32.1,32.1,0,0,1-.1-5.3c0.1-3.1,2.2-4.9,4.3-6.7a2.9,2.9,0,0,1,2-.2,95.1,95.1,0,0,1,18.3,2.5c2.3,0.5,4.2,1.9,6.2,3.2a62.8,62.8,0,0,0,9.1,5.5,18.2,18.2,0,0,0,11.9,1.4c1.3-.3,2.5.6,3.9-0.5-0.9,2-.8,2.1.9,2.8l5.4,2.1c-0.7,1.8-1,2-2.8,1.4a8.9,8.9,0,0,1-2.8-1.1c-1.3-1-2.5-.9-4.1-0.5a24.8,24.8,0,0,1-10.8.5,55.3,55.3,0,0,1-6.3-1c-3.9-1.2-8-1.5-11.9-2.6-1.9-.5-4-0.3-6-0.4s-1.6,0-2-.9a5.8,5.8,0,0,1,2.1-.5l5.7-.9c0.7-.1,1.4-0.3,1.2-1.3s-0.5-1.8-.8-2.7-0.7-2.1-2.9-1.9h-1.1c-5.4.7-10.4,2.4-13.8,7.1A2.2,2.2,0,0,1,328.1,215.3Z"/><path class="cls-9" d="M256.7,287.9c-1.8.2-3.3,1.2-4.9,1.9a136.3,136.3,0,0,1-17.3,6.6,26,26,0,0,0-6.3,2.5c-5,3.2-10.7,4.8-16.1,7.1-3.7,1.6-7.6,2.9-11.3,4.3h-0.7a29.6,29.6,0,0,1-2.6-4.8c0.6-.3,1.2-1,1.9-0.6a2.2,2.2,0,0,0,2.4-.1l4-1.7c4.3-1.9,8.7-3.6,12.8-5.8a108.8,108.8,0,0,1,17.7-7.4c1.4-.5,3.1-0.4,4.2-1.6,1.6,1,3.1.1,4.6-.4a2.7,2.7,0,0,1,1.6-.4c1.8,0.4,3.6.6,5.1-1s1.3-.3,1.9-0.5c3.3-.9,4.6-3.4,5.5-6.4l0.3-1.2c0.9-.1,1.5.8,2.4,0.6A29.6,29.6,0,0,0,256.7,287.9Z"/><path class="cls-18" d="M367.5,502.4a31.8,31.8,0,0,0-10.1,12.3v0.3c-0.1,3-2.3,3.7-4.7,4.1a25.3,25.3,0,0,1-15.2-1.8c-1.2-.6-2.6-0.8-3-2.5a2,2,0,0,1,0-1.5,32,32,0,0,1,5.2-7.7,3,3,0,0,1,2.3-1c2.9-.1,5,1.5,7,3.2l2.5,2.1a1.6,1.6,0,0,1,.7.7c0.2,1.8,1.3,1,2,.6l5.9-3.7c0.4-.2.9-0.5,0.5-1s-0.8-.2-1.2,0l-5,3a1.1,1.1,0,0,1-1.6-.2c-1.3-1.1-2.1-2.6-3.4-3.7,1.6,0,2.9-1.2,4.7-.8s1.1-.5.9-1.3a0.9,0.9,0,0,0,.9-0.3h1.1c2,0.1,4-.4,6.1-0.3a5.4,5.4,0,0,0,3.5-.6A0.7,0.7,0,0,1,367.5,502.4Z"/><path class="cls-20" d="M367.2,409.2a22.6,22.6,0,0,1,.3-4.4c0.1-.9.5-0.8,1.1-0.4a29.2,29.2,0,0,0,8.2,4.1L379,409c1.1,0.2,2.6-.2,2.7,1.8a1.5,1.5,0,0,0,1.9,1.1,2.6,2.6,0,0,0,2.4-2.3c0-1.3.7-1.6,1.6-2a22.3,22.3,0,0,0,7.6-5.7,0.8,0.8,0,0,1,.8-0.5c0.3,0.1.2,0.5,0.2,0.7q0,5.2,0,10.4a1.1,1.1,0,0,0-1.1.5,13.1,13.1,0,0,1-5.3,4.4c-2.3,1.2-4.4,2.5-7.3,2.1a45.1,45.1,0,0,0-8.2,0,4.4,4.4,0,0,1-4.3-2.7,24,24,0,0,1-2-5.9C367.8,410.3,368.1,409.5,367.2,409.2Z"/><path class="cls-9" d="M270.1,280.8A8.6,8.6,0,0,0,268,277c1.4-1,3.1-1.4,4.5-2.5s4.2-4.2,6.2-6.3a11.3,11.3,0,0,0,3.5-7.2,8.9,8.9,0,0,1,3.6-6.7l4.6-3.2a28.5,28.5,0,0,1,3.3,7,1.2,1.2,0,0,0-.5,1.7,15.4,15.4,0,0,1,.2,4.1,3,3,0,0,1-.8,2.2l-2.7,2.5c-0.3.2-.7,0.4-0.5,0.8s0.7,0.3,1.1.2a12.9,12.9,0,0,0,3.2-2.1,1.7,1.7,0,0,1-.5,1.2c-1.9,2.9-5.1,3.9-7.9,5.3s-6.4,2.8-9.6,4.1Z"/><path class="cls-20" d="M426.1,244.9a10.2,10.2,0,0,1,.6-3.9c1.2,0,1.3-1.1,1.5-1.8,1.1-3.9,1-7.7-1.8-11a10.6,10.6,0,0,0-5.7-3.8c-1-.2-1-0.5-0.3-1.1s2.9-2.6,3.4-4.7a10.9,10.9,0,0,0-1.6-9.4l-0.9-1.4c1.3,0.2,2.2,1.3,3.4,1.8l9.4,4.3c0.6,0.3,1.3.4,1.5,1.3a14.3,14.3,0,0,0,1.5,3.8,3.3,3.3,0,0,1-.7,4.3c-0.9,1-2.2,1.6-2.6,2.9a29.1,29.1,0,0,0-1.2,5.4c-1,2.9-1.2,6-1.7,9a12.6,12.6,0,0,1-1.3,3.9C428.9,246.3,427.3,246.4,426.1,244.9Z"/><path class="cls-12" d="M376.2,323.5a27.8,27.8,0,0,0-3.8.2,1.1,1.1,0,0,1-1.4-.5,1.4,1.4,0,0,1,.1-1.8c0.9-.9.8-2,0.7-3.1s-0.4-4.1-.7-6.1a0.9,0.9,0,0,1,.7-1.1,53.7,53.7,0,0,1,8.8-2.7A17.9,17.9,0,0,0,394,297.4c0.8,0.9,1.8,1.6,2.1,3.1a8.3,8.3,0,0,1-1.2,5.9c-1.6,2.9-4.3,5-6,7.9a0.9,0.9,0,0,0-.7.3c-1.9,1.9-4.1,3.4-6,5.4a10,10,0,0,1-4.6,2.9A1.6,1.6,0,0,0,376.2,323.5Z"/><path class="cls-7" d="M404.7,351.2c1.3,0.6,2.5,0,3.7-.4s0.7-.5,1.1,0a18.6,18.6,0,0,0,8.3,6.3c-4.5,2.8-7.3,6.9-9.9,11.2s-5.3,8.4-6.5,13.4c-1.4-2.9-1-28.4-.5-33.7l1.7,2c0.5,0.6,1,1.3,2,1.2h0.2Z"/><path class="cls-17" d="M369.4,182.7c0.6-1,1.6-.7,2.5-0.8,4.5-.4,8.6,1.1,12.8,2.3s7.6,2.3,11.4,3.7a24.5,24.5,0,0,0,6,1.2,89.8,89.8,0,0,0,12,.4,14.6,14.6,0,0,0,7-1.8,6.7,6.7,0,0,0,3.1-3.2,1.2,1.2,0,0,1,.8-1,52.5,52.5,0,0,1-3.1,12.4c-0.5,1.3-.8,2.7-1.2,4.1s-0.7,1-1.4.5a38.7,38.7,0,0,0-8.2-3.7c-8.7-2.7-16.5-7.3-25.3-9.8-5.2-1.5-10.5-2.8-15.7-3.9Z"/><path class="cls-19" d="M317,376.6a1.9,1.9,0,0,1,1.3.7c2.6,2.6,5.9,3.4,9.3,4.2a2.9,2.9,0,0,0,1.9-.3,12.1,12.1,0,0,1,9.5.2c2.4,1,4.8,2,7.1,3.1a13.1,13.1,0,0,0,3.8.8,27.4,27.4,0,0,0,18.7-4.2h0.5l-4.1,8a1.2,1.2,0,0,1-1.3.7h-4.7a5.4,5.4,0,0,0-1.8.2c-3.1,1.1-6.2.4-9.3,0.3a0.7,0.7,0,0,1-.7-0.3c-0.3-1.6-1.5-1.6-2.7-1.7-4.4-.3-8.4-1.9-12.6-2.8a1.6,1.6,0,0,0-1.7.2,1,1,0,0,1-1,.1,39,39,0,0,1-11.5-4.5c-1.1-.7-1.6-1.3-1.3-2.6A9.4,9.4,0,0,1,317,376.6Z"/><path class="cls-16" d="M349.4,495.6a0.8,0.8,0,0,1,1.1-.5c2.8,1.4,6.1.7,8.9,2.1a2.3,2.3,0,0,0,1.4.3c2-.3,2.8-1.5,2.3-3.6a33.3,33.3,0,0,0-2.5-6c-1.4-3-3.2-5.8-3.9-9.1s-2.9-9-3.9-13.6-2.7-11.2-3.2-16.9c-0.4-4.2-2.6-7.5-4.7-10.9a50,50,0,0,0-4.5-5.6,2.2,2.2,0,0,1-.6-1.6,37.5,37.5,0,0,0,11.1,6,0.8,0.8,0,0,1,.6,1c-0.3,11.1,2.5,21.8,4.9,32.5a66.5,66.5,0,0,0,9.8,23.3l2.7,4.1c0.5,0.7.3,1.1-.5,1.3A22.4,22.4,0,0,1,349.4,495.6Z"/><path class="cls-20" d="M390.7,399.6c-3,.7-6,0.9-9,1.4s-8.2.3-12.2,0.8a6,6,0,0,1-3.1-.8,15.2,15.2,0,0,1-6.9-5.7,1,1,0,0,1,.9-0.6c2.3-.2,4.5-1.3,6.8-0.6h0.7c2.5-.4,5-0.3,7.4-0.5s2.2,0.5,3.4.3c3-.5,6-0.1,9-0.3h1.2c1.6-.5,2.8.2,3.9,1.1s1,1.5.1,2.5S391.1,398.5,390.7,399.6Z"/><path class="cls-21" d="M240.4,288.3c-1.1,1.2-2.8,1.2-4.2,1.6a108.8,108.8,0,0,0-17.7,7.4c-4.1,2.3-8.5,3.9-12.8,5.8l-4,1.7a2.2,2.2,0,0,1-2.4.1c-0.6-.4-1.3.2-1.9,0.6a50.9,50.9,0,0,1-2.6-5.2c-0.3-.6.1-0.8,0.6-0.9l3.3-1.1c0,1.7.7,2.2,2.3,1.7l0.9-.3a213.9,213.9,0,0,1,22.4-8.8,44.7,44.7,0,0,0,10.5-4.8c1.2-.8,2.8-1.4,3.4-3A7.4,7.4,0,0,1,240.4,288.3Z"/><path class="cls-19" d="M321.4,330.1c1.3-.1,1.9-1.1,2.8-1.8s2.1-2.1,3.2-2.9,1-.9,1.7-0.4c-1.8,2.7-2.7,5.8-3.9,8.7a79.6,79.6,0,0,0-3.3,9.8,1.9,1.9,0,0,1-1.8,1.6c-1.1.1-2.2,0.7-3.4,0.6a1.1,1.1,0,0,1-1.1-.4c-1.5-2.9-3.4-5.7-4.9-8.6s-2.1-6.8-2.7-10.3-1.2-7.6-1.6-11.5a1.8,1.8,0,0,1,.7-1.5,1,1,0,0,1,.5,1.1c-0.1,4.9,1.6,9.5,2.9,14.1,0.8,2.8,2.6,4.1,5,3.9a23.9,23.9,0,0,0,3.4-.8,16.9,16.9,0,0,0,3.8,4.7A33.9,33.9,0,0,0,321.4,330.1Z"/><path class="cls-22" d="M432.7,231.8a29.1,29.1,0,0,1,1.2-5.4c0.4-1.3,1.7-2,2.6-2.9a3.3,3.3,0,0,0,.7-4.3,14.3,14.3,0,0,1-1.5-3.8c-0.2-.9-0.9-1-1.5-1.3l-9.4-4.3c-1.2-.5-2.1-1.6-3.4-1.8a28.6,28.6,0,0,1-4.2-5.9c9.8,4.8,19.9,9,29.2,15l0.3,0.3h0l0.5,0.3,0.3,0.3,0.3,0.3h0a1.8,1.8,0,0,1,.8,1.7c0,1.5-.4,3,0,4.4a0.6,0.6,0,0,1-.1.5c-0.2.2-.4,0-0.6-0.1-3.4-2.8-8.6-1.1-11.3,2.4Z"/><path class="cls-21" d="M290.5,251.2l-4.6,3.2a8.9,8.9,0,0,0-3.6,6.7,11.3,11.3,0,0,1-3.5,7.2c-2.1,2.1-3.9,4.5-6.2,6.3s-3.1,1.5-4.5,2.5c-1.8-.9-3.2-0.2-4.6.9l-1.5,1.3c-0.9.1-1.5-.7-2.4-0.6a13.1,13.1,0,0,0-.7-6.2c-0.2-.4-0.1-0.6.4-0.7l1.6-.4c0.1,1.7,1.1,2.1,3,1.1a90,90,0,0,0,10.4-6.2c3-2.1,5.6-6.6,2.9-10.1a146,146,0,0,0,13.5-6.1v1.2Z"/><path class="cls-19" d="M346.5,366.2c-0.9.1-.9-0.4-0.9-1.1a24.1,24.1,0,0,1,1.3-8.2c1.9-6.8,3.8-13.7,6.2-20.3a33.5,33.5,0,0,0,1.7-6.9,5.2,5.2,0,0,0-1.1-3.4c-2.8-4-6.9-6.9-9.7-10.9s-3.5-5.4-3.2-8.8c0.2-1.8.6-3.5,0.8-5.2s1.2-.8,1.7-0.4,0,1-.1,1.5c-0.7,4.6-.2,8.8,3.2,12.2a55.2,55.2,0,0,0,5.7,4.7,13,13,0,0,1,2.9,2.9c0.7,1,1.2.9,1.8,0l0.5-.4a22.2,22.2,0,0,1,.9,5.8c0.1,0.7,0,1.3,1.3.6a52.4,52.4,0,0,0-4.2,10c-2.6,8.8-6.7,17.2-8.4,26.2Z"/><path class="cls-22" d="M356.8,395.4c1.2,1.3,1.8,2.4,2.8,3.4a18.2,18.2,0,0,0,5,3.7,1.3,1.3,0,0,1,.8,1.7,40.4,40.4,0,0,0,0,16.1c0.2,1.3-.1,1.8-1.4,1.8-2.9,0-5-1.5-6.9-3.6s-1.9-2.7-1.2-4.6-0.1-3.5.6-5.1a5.7,5.7,0,0,0,.3-4,20,20,0,0,1-.1-4.5C356.8,398.8,356.8,397.3,356.8,395.4Z"/><path class="cls-20" d="M312.7,389.8a57.6,57.6,0,0,1,1.1-7.7c0.2-.9.5-0.9,1.2-0.4a33,33,0,0,0,8.6,4.4,24,24,0,0,0,4.1,1.1c1.4,0.2,1.6.8,1.2,2.1a56,56,0,0,0-1.6,7.8l-0.6.3c-2.2,1.8-2.7,1.8-5.1.3l-2.4-1.6a13.9,13.9,0,0,1-4.8-4.6C313.8,390.9,313.7,390,312.7,389.8Z"/><path class="cls-12" d="M355.7,306.2a20.9,20.9,0,0,1,1.1,8.2c0,0.6.2,1.2-.5,1.6a1,1,0,0,0-.1,1.1,7.5,7.5,0,0,1-.2,3.6c-2.5-2.9-5.8-4.7-8.3-7.2a9.3,9.3,0,0,1-2.6-9.9c0.5-1.6.8-3.3,1.4-4.8a7.5,7.5,0,0,1,4.6-4.4c0.3-.1.6-0.3,0.7,0.1s-0.1.6-.4,0.7a1.7,1.7,0,0,0-1.5,1.6c-0.2,3.3.4,6.4,3.2,8.7a4.2,4.2,0,0,0,2.6.9h0Z"/><path class="cls-12" d="M429.2,330.6a15.3,15.3,0,0,1-2.3,3,6.6,6.6,0,0,0-4.2,1.9c-4,3.4-8.4,4.9-13.5,3a0.9,0.9,0,0,1-.8-0.8A85.7,85.7,0,0,0,420.4,325l1.8-2.4a5.1,5.1,0,0,1,3.5,2.5c0.7,1.3,1.1,2.6,1.7,4S428.1,330.7,429.2,330.6Z"/><path class="cls-15" d="M417.4,205.4a7.8,7.8,0,0,1-3.2-.6,13.6,13.6,0,0,0-10.3,1.4,23.5,23.5,0,0,0-5.3,3.8c-1,.9-2.3,1.2-3.5,1.7l-3.9,1.5a1.4,1.4,0,0,0-1.2,1,32.6,32.6,0,0,0-5.8-2.2l7.1-4.1c3.7-2,7.6-3.7,10.7-6.5a19.1,19.1,0,0,1,4.1-2.6c1.7-.9,3-0.1,4.4.5s1.3,1,2.2.5a1.1,1.1,0,0,1,1,.5A36.5,36.5,0,0,1,417.4,205.4Z"/><path class="cls-12" d="M319.1,331.7a23.9,23.9,0,0,1-3.4.8c-2.4.2-4.2-1.1-5-3.9-1.3-4.6-3-9.2-2.9-14.1a1,1,0,0,0-.5-1.1v-0.5a1,1,0,0,1,1.3-.4,3.3,3.3,0,0,0,1.6,0c2-.1,3.9-0.9,5.8-0.9a4.5,4.5,0,0,1,0,.5A52.1,52.1,0,0,0,319.1,331.7Z"/><path class="cls-19" d="M408.3,337.7a0.9,0.9,0,0,0,.8.8c5.2,2,9.6.5,13.5-3a6.6,6.6,0,0,1,4.2-1.9,41.4,41.4,0,0,1-6.4,5.9,114.4,114.4,0,0,1-10.5,8.1,14.6,14.6,0,0,1-4.3,2.1,1.2,1.2,0,0,0-1.1,1.4h-0.2c-0.3-2.3-1.7-4.1-2.7-6.1s-1-1.8.6-2.9Z"/><path class="cls-11" d="M238.3,283.1c-0.6,1.6-2.1,2.2-3.4,3a44.7,44.7,0,0,1-10.5,4.8,213.9,213.9,0,0,0-22.4,8.8l-0.9.3c-1.6.5-2.3,0-2.3-1.7,3-1.7,6.3-2.6,9.4-4,6.6-3.1,13.3-6,20.1-8.9,2.8-1.2,5.7-2,8.4-3.5C237.7,281.2,237.7,282.6,238.3,283.1Z"/><path class="cls-22" d="M367.2,409.2c0.8,0.2.6,1,.8,1.6a24,24,0,0,0,2,5.9,4.4,4.4,0,0,0,4.3,2.7,45.1,45.1,0,0,1,8.2,0c2.9,0.4,5-.9,7.3-2.1a13.1,13.1,0,0,0,5.3-4.4,1.1,1.1,0,0,1,1.1-.5c-0.3,1.6-.7,3.2-1,4.8a1.7,1.7,0,0,1-1.2,1.3c-4.5,2.2-9.3,3.1-14.1,3.9a28.8,28.8,0,0,1-11.8-.8,1.1,1.1,0,0,1-1-1.2C367.2,416.7,367.2,413,367.2,409.2Z"/><path class="cls-10" d="M290.5,251.2V250c0.2-.9.5-0.4,0.8,0l2,3.2a65.4,65.4,0,0,1,3.6,6,9.9,9.9,0,0,1-.6,9.8,11.7,11.7,0,0,1-4.9,4.6c-6.7,3.4-13.8,6-20.4,9.5-0.7.4-.9,0.2-0.9-0.5s0-1.1-.1-1.6l5.6-2.5c3.2-1.4,6.5-2.6,9.6-4.1s6-2.4,7.9-5.3a1.7,1.7,0,0,0,.5-1.2c1.9-2.6,1.7-5.4.9-8.3a1.4,1.4,0,0,0-.8-1.2A28.5,28.5,0,0,0,290.5,251.2Z"/><path class="cls-10" d="M284.5,236.6h2a0.9,0.9,0,0,1,1,.3c0.2,0.5-.2.7-0.5,1a17.9,17.9,0,0,1-2.1,1.7,53.3,53.3,0,0,1-15.7,6.8,5.6,5.6,0,0,1-2.4.1c-1.5-.3-1.7-0.7-0.8-1.9a10.4,10.4,0,0,1,1.7-1.8C272.6,238.9,278,236.5,284.5,236.6Z"/><path class="cls-22" d="M390.7,399.6c0.3-1.1,1.4-1.6,2.1-2.4s1-1.6-.1-2.5-2.3-1.6-3.9-1.1h-1.2c-3,.1-6-0.3-9,0.3-1.1.2-2.3-.3-3.4-0.3s-5,.1-7.4.5h-0.7c-2.3-.7-4.5.4-6.8,0.6a1,1,0,0,0-.9.6l-1.6-1.9c-0.6-.8-0.2-1.3.6-1.4h1.1c3.8,0,7.7.1,11.5,0,5.5-.2,11-0.4,16.5-0.9a11,11,0,0,1,5.7.8,4.5,4.5,0,0,1,2.6,5.7,1.4,1.4,0,0,1-1.1.9Z"/><path class="cls-19" d="M420.9,320.8a111.2,111.2,0,0,0-11.3-12.2,36,36,0,0,0-7-4.6l-2.2-1.3c-0.9-.4-1.4-0.2-1.4.9s-0.1,3.1-.9,4.4c-0.5-.9-1.4-0.8-2.5-0.8a7.1,7.1,0,0,0,2.3-6c-0.1-1,.7-1.2,1.9-0.6,3,1.5,6,2.9,8.8,4.7a97,97,0,0,1,13.8,10.5c1,0.9,1.3,1.7.3,2.8A20.2,20.2,0,0,0,420.9,320.8Z"/><path class="cls-20" d="M363.1,526.7a29.7,29.7,0,0,0,8.4.9,8.4,8.4,0,0,0,2.7-.4c4.6-1.8,9.5-2.5,14.1-4.3s9.8-3.3,14.1-6.1a16.8,16.8,0,0,0,4-3.8h0.3l-0.3.2c-0.4,0-.5-0.2-0.2-0.5a34.8,34.8,0,0,0,3.3-3.5c0.7,0.7.4,1.4,0,2.1a28.3,28.3,0,0,1-7.3,7.4c-7.5,5.6-16.2,8.2-25.3,9.8a32.2,32.2,0,0,1-11-.3,4.5,4.5,0,0,1-2.8-1.3h0Z"/><path class="cls-20" d="M344.7,402.4c0.7-3,1.5-6,2.2-9,0.2-1,.6-1.4,1.6-1.2s3.4,0.1,5.1.4,1.1,0.5,1,1.2c-0.5,2.5-.1,5.1-0.3,7.6a2.4,2.4,0,0,0-1.4,1,1.6,1.6,0,0,1-1.6.6c-1.7-.5-3.4-0.2-5.2-0.3S345,403,344.7,402.4Z"/><path class="cls-9" d="M284.7,241.4l1.1-.7c1.1,1.3,2.4,2.5,2.7,4.3a5.6,5.6,0,0,0,.9,2.4c-0.6,1.7-2,2.2-3.5,2.8l-2.9,1.2c-0.1-.8-0.6-0.4-1-0.3-2.3.4-4.6,1-7,.3s-3.3-1.8-3.5-3.5l0.5-.2c0.6,1,1.7,1.4,3.3.8a29.7,29.7,0,0,0,7.4-3.4C284,244.3,285,243.2,284.7,241.4Z"/><path class="cls-14" d="M318.7,416.6c0.9-.1,1,0.5,1.3,1.1,1.8,5.1,3.2,10.3,4.5,15.6a179.4,179.4,0,0,0,8,25.3,13.9,13.9,0,0,1,1.4,4.8c-1.2-1.4-1.5-3.2-2.2-4.8A194.9,194.9,0,0,1,324,440a112,112,0,0,1-4.8-19.5C319.1,419.2,318.5,418,318.7,416.6Z"/><path class="cls-21" d="M191.3,314.7c-1.8-3.1-3.6-6.2-5.2-9.5a0.8,0.8,0,0,1,.3-1.2,23.5,23.5,0,0,1,5.4-2.7,1.1,1.1,0,0,1,1.7.8,54.5,54.5,0,0,0,4.7,9.3l1,1.3c1.3,1.3,1.3,1.3-.5,1.9a10.6,10.6,0,0,0-2.5-2.3l-1.7-3.9c-0.6-1.3-1-1.4-2-.3a3.6,3.6,0,0,0-1,2,7.3,7.3,0,0,0,.6,3.8A0.7,0.7,0,0,1,191.3,314.7Z"/><path class="cls-20" d="M406.4,510.3c0-2.9-.4-5.6-2.7-7.7a1.8,1.8,0,0,0-2.1-.6,26.4,26.4,0,0,1-11,1.5,7.7,7.7,0,0,0-3.1.3c-1.6.8-2.7,0.1-3.8-1.5,8.8,0.6,17-.6,24.2-6.2,0.2,2.5-.1,4.8.4,7.1,0.1,0.6.1,1.3,0.3,1.9C409.3,507.4,408,508.9,406.4,510.3Z"/><path class="cls-22" d="M312.7,389.8c0.9,0.2,1.1,1.1,1.5,1.8a13.9,13.9,0,0,0,4.8,4.6l2.4,1.6c2.4,1.6,2.9,1.6,5.1-.3l0.6-.3a19.2,19.2,0,0,0-.2,3.9c0,0.6-.1,1-0.9,1-4.4-.2-8.5-1-12-4a3.7,3.7,0,0,1-1.4-3.7A29.6,29.6,0,0,0,312.7,389.8Z"/><path class="cls-19" d="M339.3,302.2a1.4,1.4,0,0,1,1.1,1.5c-0.1,1-.9,1.2-1.6,1.4-3.9,1.3-7.8,2.6-11.8,3.7s-5.6,1.5-8.4,1.9c-0.2-2.8-.2-2.8,2.5-3.5C327.1,305.6,333.2,303.9,339.3,302.2Z"/><path class="cls-20" d="M394,401c-2,2.4-4.9,3.6-7.6,4.9a13.9,13.9,0,0,1-12.4-.5l-3.8-1.9a2.2,2.2,0,0,1,1.7,0,73.1,73.1,0,0,0,11.7-.6,100.8,100.8,0,0,0,10.4-1.8h0Z"/><path class="cls-9" d="M336.3,198.9H324.9c-5.3-.1-10.7,0-15.8-2.1a5.9,5.9,0,0,1-2-1.2,1.2,1.2,0,0,1,.9-1.1c3.1,2.1,6.7,2.3,10.2,2.6,7.3,0.6,14.6.6,21.9,0.6a26.3,26.3,0,0,1,3.8.3c0.4,0.1,1-.1,1,0.5s-0.5.5-.9,0.6l-0.4.2h-4A8.6,8.6,0,0,0,336.3,198.9Z"/><path class="cls-22" d="M334.2,391.2l6.2,1.1a0.5,0.5,0,0,1,.4.7c-0.2,2.2-.3,2.3-2.5,2.1l-0.8-.2a1.1,1.1,0,0,0-1.5.7,1.2,1.2,0,0,0,.9,1.6,17.6,17.6,0,0,0,2.2.8c0.7,0.2.7,0.4,0.6,1s0.1,1.7-.3,2.1-1.3-.3-2-0.3a30.6,30.6,0,0,1-3.9-.3c-0.9-.1-1.4-0.4-1.2-1.4l1.3-7.1C333.5,391.6,333.6,391.1,334.2,391.2Z"/><path class="cls-13" d="M343.4,397.9a14.9,14.9,0,0,0-.5,3.7,0.9,0.9,0,0,1-.6,1c-4.2,2.5-8.4,1.4-12.6,0a1,1,0,0,1-.6-1.2,60.6,60.6,0,0,1,1.5-10v-0.5c0.6-2.9,1.2-3.5,4.1-2.7s6.3,1.2,9.5,1.8a0.9,0.9,0,0,1,.9,1.3,54.1,54.1,0,0,1-1.7,5.8,1.5,1.5,0,0,1-1-2c0.3-1.1,0-2.3.7-3.3a0.7,0.7,0,0,0-.6-1.1l-8.7-1.1c-1.3-.2-2,0.7-2.3,1.9-0.7,3-1.3,5.9-2,8.9a1.8,1.8,0,0,0,1.6,2c2.6,0.2,5.2,1.2,7.8.2h0.1c2.1,1.2,1.7-.8,2-1.7S341.5,398.1,343.4,397.9Z"/><path class="cls-18" d="M378.1,380.4c-1.6,0-1.9.7-2.3,1.8s-1.9,4.6-2.8,7a0.9,0.9,0,0,1-.9.6H368c-0.7,0-.8-0.2-0.5-0.8,1.3-2.6,2.6-5.2,4-7.8,0.4-.7,1.3-1,0.8-2s0.2-.3.4-0.2A15.6,15.6,0,0,1,378.1,380.4Z"/><path class="cls-19" d="M429.2,330.6c-1.1.1-1.4-.7-1.8-1.5s-1.1-2.7-1.7-4a5.1,5.1,0,0,0-3.5-2.5l2.2-3.6a0.7,0.7,0,0,1,1.2-.2c2.4,2,3.9,4.7,5.7,7.1a1.5,1.5,0,0,1-.1,1.6A12.8,12.8,0,0,1,429.2,330.6Z"/><path class="cls-11" d="M277,256.1c2.7,3.5.1,7.9-2.9,10.1a90,90,0,0,1-10.4,6.2c-1.9,1-2.9.6-3-1.1l7.8-3.6c1.4-.7,2.7-1.6,4.1-2.4,2.9-1.7,3.3-3.4,2.7-6.4a8,8,0,0,0,1.5-2.7H277Z"/><path class="cls-14" d="M354.5,442.7c1-.2,1.4.3,1.6,1.2,0.9,4.2,1.4,8.5,2.2,12.7s1.3,7.8,1.8,11.7c0.2,1.8.5,3.7,0.9,5.5a0.8,0.8,0,0,1-.2.9c-2.6-7.8-3.7-16-5.3-24.1A39,39,0,0,1,354.5,442.7Z"/><path class="cls-17" d="M342.1,181.4a1.4,1.4,0,0,0-1.4-.4h-5.2a1.3,1.3,0,0,1-1.3-.3c0.3-.4,1.3-0.2.9-1s-1-.6-1.6-0.4l-3.4,1.3a0.5,0.5,0,0,1-.7-0.1,0.8,0.8,0,0,1,.1-0.6,21.4,21.4,0,0,1,1.9-3.6,37.4,37.4,0,0,0,8.6,1.4,7.5,7.5,0,0,1,2.6.9l1.3,0.5c0.4,0.2,1.2-.3,1.3.3s-0.7.3-1.1,0.5a1,1,0,0,0-.4,1.1Z"/><path class="cls-11" d="M249.5,285.2c-0.7,1-1.6.4-2.4,0.2a1.6,1.6,0,0,1-1.5-1.6,19.1,19.1,0,0,0-.7-5.4,9.6,9.6,0,0,0-1.5-3.1,1.7,1.7,0,0,1,.8-2.8,3.2,3.2,0,0,1,2.7,0c-1.1.7-1,1.4-.3,2.4a6.6,6.6,0,0,1,1.4,3.5C248.2,280.7,248.3,283.1,249.5,285.2Z"/><path class="cls-22" d="M344.7,402.4c0.3,0.6.9,0.5,1.4,0.5s3.5-.2,5.2.3a1.6,1.6,0,0,0,1.6-.6,2.4,2.4,0,0,1,1.4-1c0,1.2,0,2.5,0,3.7a0.8,0.8,0,0,1-.9,1c-3.6-.1-7.2.3-10.7-0.5-0.4-.1-0.4-0.1-1.5-1.4C342.3,403.6,344,403.8,344.7,402.4Z"/><path class="cls-15" d="M253.6,282.1c-0.1-3.1-.3-6.1-2.6-8.5a3.6,3.6,0,0,1-1-3,1.4,1.4,0,0,1,1.8-1.5,4.9,4.9,0,0,1,3.4,1.7c-0.1,2-.6,4,0,6.1a11.5,11.5,0,0,1,.3,3.1C255.4,281.3,254.9,282.1,253.6,282.1Z"/><path class="cls-15" d="M249.5,285.2c-1.2-2.1-1.3-4.5-1.4-6.8a6.6,6.6,0,0,0-1.4-3.5c-0.7-.9-0.7-1.7.3-2.4s1.4,0.8,2,1.4c2.9,3,3.4,6.5,1.9,10.4C250.5,285.1,249.7,284.6,249.5,285.2Z"/><path class="cls-21" d="M271.6,248c0.2,1.7,1.4,2.9,3.5,3.5s4.7,0.1,7-.3c0.4-.1.9-0.4,1,0.3-3.7,1.6-7.3,3.5-11.5,3.7,0.3-2.7-1.2-4.6-2.7-6.5Z"/><path class="cls-9" d="M182.9,319.7a0.4,0.4,0,0,1-.7-0.3,45.9,45.9,0,0,0-2.5-5c0.9-.2,1.4-1,1.9-1.6a4.4,4.4,0,0,1,3-1.4c0.9,1.5,2.3,2.6,2.8,4.3a13,13,0,0,1-3.2,2.2A1.9,1.9,0,0,0,182.9,319.7Z"/><path class="cls-7" d="M369.2,314.5c0.2,0.8-.2,1.7.3,2.5s0,0.6-.4.6a14.3,14.3,0,0,1-9-.8,1.6,1.6,0,0,1-1-.9,2.4,2.4,0,0,1,0-2.1c0.4-.5,1.1.1,1.6,0.2a36.1,36.1,0,0,0,6.8,1.4C368.8,315.7,368.8,315.7,369.2,314.5Z"/><path class="cls-21" d="M284.7,241.4c0.2,1.7-.7,2.9-2,3.7a29.7,29.7,0,0,1-7.4,3.4c-1.6.6-2.7,0.2-3.3-.8,4.1-1.1,7.2-4.1,11-5.6Z"/><path class="cls-20" d="M367.5,502.4a0.7,0.7,0,0,0-1.1,0,5.4,5.4,0,0,1-3.5.6c-2-.1-4,0.4-6.1.3-0.2-1.2-.2-1.2-2.1-2.5l3.6,0.6c4,0.9,7.5-.5,11-2.1a2.5,2.5,0,0,1,3.1.4Z"/><path class="cls-21" d="M184.5,311.4a4.4,4.4,0,0,0-3,1.4c-0.6.6-1,1.4-1.9,1.6l-0.2-.2c-0.6-1.1-1.8-2.3-1.7-3.3s1.9-1.2,2.9-1.8l3.6-2c0.5-.3.8-0.4,1,0.3s1.4,2.8,2,4.3a1,1,0,0,1-.8-0.6,14.1,14.1,0,0,0-1.9-2.6,0.7,0.7,0,0,0-1.1-.2,0.8,0.8,0,0,0,0,1.1Z"/><path class="cls-7" d="M367.2,320.5c-2.3,2.4-5,3.9-6.9,6.4a25.2,25.2,0,0,1-.7-6.4c0-.4,0-1,0.7-0.8A19,19,0,0,0,367.2,320.5Z"/><path class="cls-11" d="M253.6,282.1c1.4-.1,1.9-0.9,1.9-2.2a11.5,11.5,0,0,0-.3-3.1c-0.5-2-.1-4,0-6.1a6,6,0,0,1,2.4,4.5,10.5,10.5,0,0,1-2.1,7.6,3.1,3.1,0,0,1-2.4,1.1Z"/><path class="cls-16" d="M391.4,389.2H382a0.9,0.9,0,0,1-1-.2c-0.2-.5.2-0.7,0.5-1,1.8-2.8,8-2.1,9.8.4A0.8,0.8,0,0,1,391.4,389.2Z"/><path class="cls-15" d="M240.7,275.4c1.7,0.5,2,2,2.3,3.5a14.8,14.8,0,0,1,.4,4.1,5.4,5.4,0,0,0,.6,2.9c0.4,0.7.1,0.9-.5,1.1s-1.4.3-1.4-.5a7.8,7.8,0,0,0-1.2-3.1,0.5,0.5,0,0,0,.2-0.6A29.2,29.2,0,0,1,240.7,275.4Z"/><path class="cls-19" d="M397.9,308.4c-1.5,4.7-5.3,7.2-9.2,9.6a75.4,75.4,0,0,1,4.5-6.8A6.5,6.5,0,0,1,397.9,308.4Z"/><path class="cls-19" d="M315.9,311.5c-2,.1-3.8.9-5.8,0.9a3.3,3.3,0,0,1-1.6,0,1,1,0,0,0-1.3.4c-1.3-1.6-1.3-1.7.7-2.4a27.2,27.2,0,0,1,5.5-1.2C316.1,308.8,316.1,308.8,315.9,311.5Z"/><path class="cls-10" d="M289.5,247.4a5.6,5.6,0,0,1-.9-2.4c-0.3-1.8-1.7-2.9-2.7-4.3,0.6-1.1,1.8-1,2.8-1.3s0.5,0.3.7,0.5,1.2,1.9,1.8,2.9a2.2,2.2,0,0,1-.3,3.3Z"/><path class="cls-19" d="M376.2,323.5a1.6,1.6,0,0,1,1.4-.8,10,10,0,0,0,4.6-2.9c1.8-2,4-3.5,6-5.4a0.9,0.9,0,0,1,.7-0.3c-2.7,4.8-6.1,8.5-11.9,9.5A0.7,0.7,0,0,1,376.2,323.5Z"/><path class="cls-10" d="M191.3,314.7a0.7,0.7,0,0,0,.9-0.8,16.6,16.6,0,0,0,4-1.7,10.6,10.6,0,0,1,2.5,2.3,9.3,9.3,0,0,1-3.4,1.6C192.9,317,192.7,316.9,191.3,314.7Z"/><path class="cls-20" d="M375.7,510a2.9,2.9,0,0,1-1.4-1,11.1,11.1,0,0,0-7.4-2.3c0.9-1.5,2.1-1.7,5.6-1.1s2.8,0.9,3.3,4.3h0Z"/><path class="cls-11" d="M184.5,311.4l-1.1-2a0.8,0.8,0,0,1,0-1.1,0.7,0.7,0,0,1,1.1.2,14.1,14.1,0,0,1,1.9,2.6,1,1,0,0,0,.8.6l2.6,4.1c-0.9.3-1.7-.4-2.6-0.1C186.8,314,185.4,312.9,184.5,311.4Z"/><path class="cls-7" d="M268.9,248.7c1.5,1.9,3.1,3.8,2.7,6.5h-1a11.2,11.2,0,0,0-2.1-2.1l-0.8-2.2,0.5-2.1h0.8Z"/><path class="cls-19" d="M378.2,325.8c-0.4.8-1.2,0.7-1.9,0.8a8.4,8.4,0,0,1-6.3-.9c-1.1-.7-1.5-1.9-2.3-2.8l2.2-2c-0.1,1.5.6,2.4,0.7,3.6s1.2,1.1,2.1,1.3S376.3,325.6,378.2,325.8Z"/><path class="cls-11" d="M240.7,275.4a29.2,29.2,0,0,0,.4,7.3,0.5,0.5,0,0,1-.2.6l-1.5-2c-0.3-.4-0.7-0.8.1-1.1a0.4,0.4,0,0,0,.3-0.5,0.5,0.5,0,0,0-.6-0.1c-0.8.2-.9-0.2-0.9-0.9C238.1,276.3,238.8,275.4,240.7,275.4Z"/><path class="cls-10" d="M187.3,315.7c0.9-.3,1.7.4,2.6,0.1a2.1,2.1,0,0,1,.9,1.2c-3,.1-5.2,2.2-7.9,2.7a1.9,1.9,0,0,1,1.3-1.7A13,13,0,0,0,187.3,315.7Z"/><path class="cls-20" d="M345,521.7c2.1-.2,4.1-0.1,6.2-0.3a33.4,33.4,0,0,0,4.3-1.2c0.4-.1,1-0.6,1.2.2s-0.3.9-.9,1.1a10.5,10.5,0,0,1-4,.7C349.6,521.9,347.3,522.4,345,521.7Z"/><path class="cls-20" d="M378.7,501.5a12,12,0,0,1,5.8,3.1c0.4,0.3.1,0.6-.2,0.7s-0.8,1.1-1.3.5-2.8-2.4-4.1-3.8A2.3,2.3,0,0,1,378.7,501.5Z"/><path class="cls-20" d="M397.3,393.1c-0.5-1.8-1.9-2.3-3.2-3l4.5-1.4c0.2-.1.5-0.2,0.6,0.1a0.8,0.8,0,0,1,0,.6A40,40,0,0,0,397.3,393.1Z"/><path class="cls-20" d="M378.5,506.9c-0.8-1-2-1.3-2.8-2.1a13.3,13.3,0,0,1-1.4-1.9C377.9,503,379.1,504.4,378.5,506.9Z"/><path class="cls-20" d="M343,502.8c0.8-1,1.5-1.4,2.7-.7a8.1,8.1,0,0,0,3,.8c0.4,0.1,1,.1,1,0.7s-0.7.6-1.2,0.6a3.7,3.7,0,0,1-1.3-.2A13.6,13.6,0,0,0,343,502.8Z"/><path class="cls-20" d="M378.4,510.6a1.8,1.8,0,0,1-1.4.8,2.9,2.9,0,0,1-1.1-1.1h0c2-.2.7-1.7,1-2.6s1.7,1.2,2.8,1h0a1,1,0,0,1-.8.9A0.9,0.9,0,0,0,378.4,510.6Z"/><path class="cls-15" d="M417.9,396l-0.8-2c-0.7-1.5-.7-1.5,1-1.8s0.9,0,1,.7A3.1,3.1,0,0,1,417.9,396Z"/><path class="cls-17" d="M426.1,181.8l0.2-.8a0.7,0.7,0,0,1,.8-0.8,0.8,0.8,0,0,1,.6,1c0,1.6.2,3.3-1.4,4.4C426.2,184.4,426.7,183.1,426.1,181.8Z"/><path class="cls-22" d="M388.2,218c-2.2-.4-2-2.3-2.7-3.7C387.9,214.5,387.9,216.3,388.2,218Z"/><path class="cls-20" d="M379.8,508.7c-0.1-1.1.5-2,.2-3.1s1.3,0.7,1.9,1a0.4,0.4,0,0,1,.1.8c-0.7.5-1.2,1.3-2.2,1.3h0Z"/><path class="cls-9" d="M415.4,400.6v-0.7c1.9,1,3.7.6,5.7-.3a1.7,1.7,0,0,1-1.7,1.6,3.9,3.9,0,0,1-2.6-.4A2,2,0,0,0,415.4,400.6Z"/><path class="cls-22" d="M390.9,219c-1.6-.3-1.7-1.6-2-2.7s0.2-.6.6-0.4a1.7,1.7,0,0,1,1.3,1.4C390.8,217.9,390.8,218.4,390.9,219Z"/><path class="cls-22" d="M391.7,217.8c1.8,0.5,1.9.7,2.2,2.9C392.2,220.5,392.5,218.9,391.7,217.8Z"/><path class="cls-21" d="M276.7,256.2a8,8,0,0,1-1.5,2.7C274.1,256.8,274.1,256.8,276.7,256.2Z"/><path class="cls-22" d="M384.9,216.1c0,0.2.1,0.5-.3,0.5a0.5,0.5,0,0,1-.6-0.3c-0.3-.8-0.5-1.6-0.7-2.3a0.5,0.5,0,0,1,.2-0.4,0.5,0.5,0,0,1,.6.4C384.5,214.6,384.7,215.4,384.9,216.1Z"/><path class="cls-15" d="M433.7,240.5H433c0.1-1.2,0-2.4.9-3.3h0.5A16.6,16.6,0,0,0,433.7,240.5Z"/><path class="cls-22" d="M373.7,504.2l-2-.2c-0.3,0-.7.1-0.8-0.3a0.7,0.7,0,0,1,.6-0.6C372.6,502.6,373,503.3,373.7,504.2Z"/><path class="cls-21" d="M268.4,253.1a11.2,11.2,0,0,1,2.1,2.1C268.9,255.4,268.9,255.4,268.4,253.1Z"/><path class="cls-21" d="M268.1,248.8l-0.5,2.1a15.1,15.1,0,0,1-1.1-2.2A2.6,2.6,0,0,1,268.1,248.8Z"/><path class="cls-19" d="M381.7,324.1a3.2,3.2,0,0,1-2.9,1.5C379.4,324.3,380.7,324.5,381.7,324.1Z"/><path class="cls-22" d="M394.5,220.1h0.1a2,2,0,0,1,1.4,1.6,0.3,0.3,0,0,1-.3.4C395.2,222.1,394.6,221.1,394.5,220.1Z"/><path class="cls-22" d="M382,215.8c-0.4,0-.8-0.1-0.7-0.6a0.9,0.9,0,0,1,.7-0.9c0.5,0,.5.5,0.6,0.9A0.5,0.5,0,0,1,382,215.8Z"/><path class="cls-22" d="M446.1,215.8a2.2,2.2,0,0,1,1.4.8c0.7,0.8-.2.4-0.4,0.5h-0.5l-0.3-.3Z"/><path class="cls-20" d="M355.7,503.2a0.9,0.9,0,0,1-.9.3c-0.2-.1-0.6-0.4-0.4-0.6A1.1,1.1,0,0,1,355.7,503.2Z"/><path class="cls-15" d="M320.7,245.7a1.9,1.9,0,0,1-.1,1.9A5.3,5.3,0,0,1,320.7,245.7Z"/><path class="cls-7" d="M368.4,313.3a0.4,0.4,0,0,0,.5,0A0.3,0.3,0,0,1,368.4,313.3Z"/><path class="cls-20" d="M363.1,526.7h-0.4c0.2-.2.3,0,0.3,0.1h0Z"/><path class="cls-14" d="M333.8,463.5c0.3,0.1.3,0.3,0.1,0.5v-0.5Z"/><path class="cls-7" d="M292.4,247.3v0.2h-0.1c-0.2.1-.4,0-0.4-0.2S292.2,247.2,292.4,247.3Z"/><path class="cls-12" d="M356,305.9a0.3,0.3,0,0,1-.3.3h0a0.2,0.2,0,0,1,.3-0.3h0Z"/><polygon class="cls-14" points="412 147.1 412 147.2 412 147.2 412 147.1"/><path class="cls-20" d="M376,510.3l-0.3-.3h0l0.3,0.3h0Z"/><path class="cls-20" d="M394.1,401h0Z"/><path class="cls-8" d="M350,271.9a1.8,1.8,0,0,0-.5-0.8c-1.5-.5-1.2-1.6-1-2.6a14.4,14.4,0,0,0-.3-6.5,1,1,0,0,1,.1-1.2,1.1,1.1,0,0,1,1.3,0,31.2,31.2,0,0,0,22.9,3.2c2.6-.5,5.3-0.8,7.4-2.5a0.7,0.7,0,0,1,.6-0.1c0.3,0.2.1,0.5,0,.7-1.6,4.1-3.9,7.6-8.2,9.3A27.3,27.3,0,0,1,350,271.9Zm1.3-7.6c0,1.1,0,2.1,0,3.1s-0.1,2.3,2.1,3a22.6,22.6,0,0,0,12.9.4,69.7,69.7,0,0,0,7.1-2.5c2.2-.9,2.7-1.6,3.7-4.1C368.5,268.4,360,267.9,351.3,264.3Zm26.1-.1h0Z"/><path class="cls-8" d="M387.4,231.2a10.3,10.3,0,0,1,2,4.7,5.7,5.7,0,0,1-2.8,5.7,7.1,7.1,0,0,1-7.1.7,10.2,10.2,0,0,1-1.4-1c0.9-.6,2.1-0.5,3.2-1-2.7-1.6-3.5-2.9-3-5a3.4,3.4,0,0,0,2.6.5,1.7,1.7,0,0,0,1.4,1.8l3.2,0.6a1.1,1.1,0,0,0,1.2-1.2c0.1-.8-0.4-1.5-0.3-2.3-0.9-2.5-2.1-3-4.3-2a4.2,4.2,0,0,0-2.5-.6c0.1-.7.8-0.9,0.9-1.5a4.6,4.6,0,0,0-1.9.1,7.5,7.5,0,0,0-3.5,2,2.7,2.7,0,0,0-.9,2.7,1.7,1.7,0,0,1-.5.8,1.4,1.4,0,0,1-1.8-.5,3.3,3.3,0,0,1,.1-3.3c2.6-3.5,5.9-5.2,10.4-4.4A9.5,9.5,0,0,1,387.4,231.2Z"/><path class="cls-8" d="M328.1,215.3a2.2,2.2,0,0,0,1-.9c3.4-4.7,8.4-6.3,13.8-7.1H344c2.2-.2,2.2-0.2,2.9,1.9s0.5,1.8.8,2.7-0.5,1.2-1.2,1.3l-5.7.9a5.8,5.8,0,0,0-2.1.5,1.8,1.8,0,0,0-1.7.7c-0.2.3-.5,0.6-0.9,0.2h-0.2c-2,1.1-4.5,1-6.3,2.6s-0.8,1-1,.6-1.2-.8-1.2-1.6A3.3,3.3,0,0,1,328.1,215.3Zm13.6-6c-1.5,0-2,.9-2.4,1.9s-0.5.7,0,.9a0.8,0.8,0,0,0,1-.3A7.2,7.2,0,0,0,341.7,209.4Zm-3,1.1c0-.2-0.1-0.4-0.3-0.3a1.6,1.6,0,0,0-1.3.7,4.1,4.1,0,0,0-.7,1.7c0,0.2.3,0.2,0.6,0.2A5.3,5.3,0,0,0,338.7,210.5Zm3.1,1.3,0.3,0.2c0.9-.4,1-1.5,1.5-2.3s0.3-.5,0-0.7a0.5,0.5,0,0,0-.6.4Zm-6.3-.4c-1.3.6-2.1,1.2-2.1,2.5C334.7,213.6,335,212.7,335.5,211.4Zm-2.6,1.7a2.2,2.2,0,0,0-1.8,1.9C332,214.6,332.8,214.3,332.9,213.1Zm12.2-3.4c-0.4.7-1,1-.6,1.7a0.6,0.6,0,0,0,.9,0C345.8,210.8,345.2,210.4,345.1,209.7Z"/><path class="cls-8" d="M347.5,223.5c3.4,3.8,1.4,8.8-3.4,10.8-0.8.3-1.1,0-1.3-.7s0.9-.8-0.2-1.3a4.7,4.7,0,0,1-2.9-4.5l2.5,0.4a3.5,3.5,0,0,0,1.7,1.8,1.6,1.6,0,0,0,1.9,0c0.9-.7,1.1-3,0.3-4.1s-1.3-1.4-2.9-.5a7.2,7.2,0,0,0-4.1-1.2,2.8,2.8,0,0,0-2.8,2.2,4.2,4.2,0,0,0,1.4,4.3,1.4,1.4,0,0,1,.5,2,2.4,2.4,0,0,1-3.3-1.1,7.1,7.1,0,0,1-.7-7.3,7.3,7.3,0,0,1,2.6-2.1C340.7,220.9,344.2,221.1,347.5,223.5Z"/><path class="cls-8" d="M350.4,219.6c1.5-.5,2.5.3,3.2,1.4,2.2,3.2,1.9,6.7,1.2,10.3s-4.4,8-7.2,11.6a10.1,10.1,0,0,0-2,3.7c-0.5,2.1.1,3.5,2.1,4.3a17.7,17.7,0,0,0,8,1.4h0.8l0.4,0.3a35,35,0,0,1-6.9.7l-2.9-.6a5.2,5.2,0,0,1-3.5-7.3,27,27,0,0,1,5.5-7.4,11.9,11.9,0,0,0,4-8.3A16.2,16.2,0,0,0,350.4,219.6Z"/><path class="cls-15" d="M350.4,219.6a16.2,16.2,0,0,1,2.7,10.1,11.9,11.9,0,0,1-4,8.3,27,27,0,0,0-5.5,7.4,5.2,5.2,0,0,0,3.5,7.3l2.9,0.6c-0.9,1.2-2,.4-3,0.2a24.3,24.3,0,0,1-3.3-1.1,2.5,2.5,0,0,1-1.5-2.3,11.5,11.5,0,0,1,1-6.2,85.1,85.1,0,0,1,5.7-9.8c1.4-2,1.2-4.2,1.2-6.4s-0.2-4.4-.3-6.7C349.6,220.5,349.6,219.8,350.4,219.6Z"/><path class="cls-15" d="M446.4,234c0.6,3.5-1.1,6.5-2.2,9.6s-2.4,2.3-4.2,2.7l-2.4.5c-0.7.1-1.4,0.1-1.7-.8,4.5-2,5.7-6.1,2.9-10.1-0.4-.7.1-0.8,0.3-1.1a6.3,6.3,0,0,1,7.2-1.2h0V234Z"/><path class="cls-8" d="M446.4,233.6a6.3,6.3,0,0,0-7.2,1.2c-0.3.2-.8,0.4-0.3,1.1,2.7,4,1.5,8.1-2.9,10.1a3.3,3.3,0,0,0-1.8.2c-0.3.1-.7,0.5-0.9,0s0.3-.5.6-0.6l0.5-.4c3-2.5,3.5-5.2,2.4-7a5.2,5.2,0,0,0-.7,2.2,1.3,1.3,0,0,1-1.7,1.3l-0.6-1.1a16.6,16.6,0,0,1,.6-3.3,17.2,17.2,0,0,1,4-4.8c2.5-2,5.2-1.4,7.5-.1A1.3,1.3,0,0,1,446.4,233.6Z"/><path class="cls-7" d="M380.9,235.8a3.4,3.4,0,0,1-2.6-.5c-0.5,2.1.3,3.4,3,5-1.1.5-2.2,0.4-3.2,1h-0.4c-1.6-1.5-3.6-2.6-4-5.1a1.7,1.7,0,0,0,.5-0.8,2.7,2.7,0,0,1,.9-2.7,7.5,7.5,0,0,1,3.5-2,4.6,4.6,0,0,1,1.9-.1c-0.1.6-.8,0.8-0.9,1.5a4.2,4.2,0,0,1,2.5.6,2.1,2.1,0,0,1,.2,1.9Z"/><path class="cls-15" d="M350,271.9a27.3,27.3,0,0,0,22.4-.5c0.3,2.1-1.6,2.5-2.7,3.4a2.4,2.4,0,0,1-1.7.5c-0.1-.9-0.7-0.4-1.1-0.3-2.4.6-4.7,1.4-7.2,0.9a1.8,1.8,0,0,0-1.5.3c-0.7-.6-1.5-0.3-2.2-0.3a11.8,11.8,0,0,1-4.7-1C349.7,274.1,349.5,273.5,350,271.9Z"/><path class="cls-7" d="M342.3,228.2l-2.5-.4a4.7,4.7,0,0,0,2.9,4.5c1,0.5.6,0.8,0.2,1.3l-4.4-.9a1.4,1.4,0,0,0-.5-2,4.2,4.2,0,0,1-1.4-4.3,2.8,2.8,0,0,1,2.8-2.2,7.2,7.2,0,0,1,4.1,1.2C343.9,227.1,343.7,227.6,342.3,228.2Z"/><path class="cls-15" d="M387.4,231.2a9.5,9.5,0,0,0-5-3.1c-4.5-.9-7.8.9-10.4,4.4-0.7-2.2.8-3.3,2.2-4.4,4.5-3.4,8.4-1.8,12.3,1A2,2,0,0,1,387.4,231.2Z"/><path class="cls-15" d="M347.5,223.5c-3.2-2.5-6.7-2.6-10.4-1.2a7.3,7.3,0,0,0-2.6,2.1,1.7,1.7,0,0,1,.5-1.6c2.5-4,8-4.1,11.2-1.7C346.9,221.7,347.8,222.3,347.5,223.5Z"/><path class="cls-8" d="M358.2,276.2a1.8,1.8,0,0,1,1.5-.3c2.5,0.5,4.8-.2,7.2-0.9,0.4-.1,1-0.6,1.1.3a8.4,8.4,0,0,1-8,2.7C359,277.8,357.9,277.6,358.2,276.2Z"/><path class="cls-15" d="M434.3,241.6a1.3,1.3,0,0,0,1.7-1.3,5.2,5.2,0,0,1,.7-2.2c1.1,1.8.6,4.5-2.4,7C433.8,243.9,434.2,242.8,434.3,241.6Z"/><path class="cls-8" d="M446.4,234v-0.3C446.5,233.7,446.6,233.8,446.4,234Z"/><path class="cls-8" d="M386,348.2a1.9,1.9,0,0,1-1.3,1c-5.1,1.6-10.3,2.2-15.6.4-1.5-.5-2.3-1.7-3.6-2.4s-0.1-.4-0.1-0.6a39.1,39.1,0,0,1,.5-5c0.3-2.1.3-2.1,2.4-2,5.5,0.4,11,.9,16.5.9l2.5,0.2a1.4,1.4,0,0,0,1.3-.3,0.8,0.8,0,0,1,1.1-.2,0.9,0.9,0,0,1,.2,1c-0.3,2.1-.6,4.1-0.9,6.2a1,1,0,0,1-.9,1c-0.7.2-.9,0-0.8-0.7s0.5-3.7.8-5.6,0.1-1-.9-0.9c-6.1.9-12.2,0.2-18.2-.7-1.1-.2-1.4-0.1-1.4,1.1a16.8,16.8,0,0,1-.5,3.8c-0.3,1.4.2,2,1.5,2.4a26.3,26.3,0,0,0,10.4,1C381.4,348.7,383.6,347.9,386,348.2Z"/><path class="cls-7" d="M283.6,321a6.4,6.4,0,0,1,0,1,0.9,0.9,0,0,1-.6.9,0.8,0.8,0,0,1-.8-0.7l-1.7-3.9A30.1,30.1,0,0,0,270.3,305c-0.7-.5-2-1.2-1.3-2.2s1.6,0.1,2.3.5a28.3,28.3,0,0,1,11.7,14.8,6.2,6.2,0,0,1,.3,1.1C283.5,319.8,283.6,320.5,283.6,321Z"/><path class="cls-8" d="M257.1,298.2a4.9,4.9,0,0,1-3.3-1.6,0.9,0.9,0,0,1-.1-1.3,0.8,0.8,0,0,1,1.2.1c1.3,1.2,2.9,1.2,4.5.9a1.3,1.3,0,0,1,1.4.3c-0.2,1.1-1.2,1.1-2,1.3Z"/><path class="cls-7" d="M441.5,353.8a9.5,9.5,0,0,0-1.1-4.6,4.7,4.7,0,0,1-.6-2c0-.5-0.1-1.1.5-1.3a1.2,1.2,0,0,1,1.4.4,10.2,10.2,0,0,1,2.7,5.5c1,7.9-1.9,14.4-7.4,19.9l-3.2,3.2a1,1,0,0,1-1.6.2c-0.6-.5-0.3-1,0.1-1.5a114.3,114.3,0,0,0,6.5-9.6A19.8,19.8,0,0,0,441.5,353.8Z"/><path class="cls-8" d="M446.7,217.2h0.4v0.3Z"/><path class="cls-8" d="M447.7,218l-0.3-.3Z"/><path class="cls-14" d="M336.3,198.9a8.6,8.6,0,0,1,3.4.1A9.3,9.3,0,0,1,336.3,198.9Z"/><path class="cls-11" d="M293.8,258.2a1.4,1.4,0,0,1,.8,1.2c0.8,2.9,1.1,5.7-.9,8.3a12.9,12.9,0,0,1-3.2,2.1c-0.4.2-.8,0.3-1.1-0.2s0.2-.6.5-0.8l2.7-2.5a3,3,0,0,0,.8-2.2,15.4,15.4,0,0,0-.2-4.1A1.2,1.2,0,0,1,293.8,258.2Z"/><path class="cls-8" d="M446.4,216.9l0.3,0.3Z"/><path class="cls-8" d="M406.4,513l0.3-.2h-0.3Z"/><path class="cls-9" d="M196.3,312.3a16.6,16.6,0,0,1-4,1.7,7.3,7.3,0,0,1-.6-3.8,3.6,3.6,0,0,1,1-2c1-1.1,1.4-1,2,.3Z"/><path class="cls-7" d="M351.3,264.3c8.6,3.6,17.2,4.1,25.8-.2-1,2.6-1.5,3.3-3.7,4.1a69.7,69.7,0,0,1-7.1,2.5,22.6,22.6,0,0,1-12.9-.4c-2.3-.7-2.2-0.7-2.1-3S351.3,265.5,351.3,264.3Z"/><polygon class="cls-7" points="377.4 264.2 377.4 264.2 377.5 264.2 377.4 264.2"/><path class="cls-22" d="M382.2,234.7a2.1,2.1,0,0,0-.2-1.9c2.2-1.1,3.4-.5,4.3,2-0.3.9-.5,1.9-1.5,2.4S382.3,237,382.2,234.7Z"/><path class="cls-20" d="M382.2,234.7c0,2.3.9,3.1,2.5,2.4s1.3-1.4,1.5-2.4c-0.1.8,0.4,1.5,0.3,2.3a1.1,1.1,0,0,1-1.2,1.2l-3.2-.6a1.7,1.7,0,0,1-1.4-1.8Z"/><path class="cls-22" d="M341.7,209.4a7.2,7.2,0,0,1-1.4,2.5,0.8,0.8,0,0,1-1,.3c-0.5-.2-0.1-0.7,0-0.9S340.2,209.3,341.7,209.4Z"/><path class="cls-22" d="M338.7,210.5a5.3,5.3,0,0,1-1.7,2.3c-0.2,0-.6,0-0.6-0.2a4.1,4.1,0,0,1,.7-1.7,1.6,1.6,0,0,1,1.3-.7C338.5,210.1,338.7,210.3,338.7,210.5Z"/><path class="cls-22" d="M341.8,211.8l1.2-2.4a0.5,0.5,0,0,1,.6-0.4c0.4,0.2.2,0.5,0,.7s-0.6,1.9-1.5,2.3Z"/><path class="cls-22" d="M335.5,211.4c-0.4,1.3-.8,2.2-2.1,2.5C333.4,212.6,334.2,211.9,335.5,211.4Z"/><path class="cls-22" d="M332.9,213.1c-0.1,1.2-.9,1.5-1.8,1.9A2.2,2.2,0,0,1,332.9,213.1Z"/><path class="cls-22" d="M345.1,209.7c0.2,0.7.7,1.1,0.3,1.6a0.6,0.6,0,0,1-.9,0C344.1,210.7,344.6,210.3,345.1,209.7Z"/><path class="cls-22" d="M342.3,228.2c1.4-.6,1.6-1.1,1-2.8,1.7-.9,2-0.8,2.9.5s0.6,3.3-.3,4.1a1.6,1.6,0,0,1-1.9,0A3.5,3.5,0,0,1,342.3,228.2Z"/></svg>