<?xml version="1.0" encoding="utf-8"?>
<!-- Generator: Adobe Illustrator 16.0.0, SVG Export Plug-In . SVG Version: 6.00 Build 0)  -->
<!DOCTYPE svg PUBLIC "-//W3C//DTD SVG 1.1//EN" "http://www.w3.org/Graphics/SVG/1.1/DTD/svg11.dtd">
<svg version="1.1" id="Layer_1" xmlns="http://www.w3.org/2000/svg" xmlns:xlink="http://www.w3.org/1999/xlink" x="0px" y="0px"
	 width="612px" height="792px" viewBox="0 0 612 792" enable-background="new 0 0 612 792" xml:space="preserve">
<polygon points="366.59,163.6 309.12,130.5 306.52,129 303.91,130.5 246.63,163.6 244.19,165.1 244.19,168.11 244.19,234.311 
	244.19,237.32 246.63,238.82 304,271.92 306.56,273.41 309.14,271.92 366.6,238.82 369.22,237.32 369.22,234.311 369.22,168.11 
	369.22,165.1 "/>
<polyline fill="none" stroke="#FFFFFF" stroke-miterlimit="10" points="297.4,138.801 306.5,133.54 315.57,138.78 "/>
<polyline fill="none" stroke="#FFFFFF" stroke-miterlimit="10" points="248,177.4 248,167.37 256.68,162.35 "/>
<polyline fill="none" stroke="#FFFFFF" stroke-miterlimit="10" points="356.2,162.29 365,167.37 365,177.53 "/>
<polyline fill="none" stroke="#FFFFFF" stroke-miterlimit="10" points="365,224.98 365,235.04 356.25,240.101 "/>
<polyline fill="none" stroke="#FFFFFF" stroke-miterlimit="10" points="256.77,240.11 248,235.04 248,224.93 "/>
<polyline fill="none" stroke="#FFFFFF" stroke-miterlimit="10" points="315.15,263.87 306.5,268.87 297.86,263.88 "/>
<polyline fill="none" stroke="#FFFFFF" stroke-width="3.22" stroke-linecap="square" stroke-miterlimit="10" points="
	284.78,246.641 277.52,239.37 277.52,188.52 299.31,188.52 299.31,203.05 292.05,210.32 284.78,210.32 "/>
<polyline fill="none" stroke="#FFFFFF" stroke-width="3.22" stroke-linecap="square" stroke-miterlimit="10" points="320.97,195.79 
	328.24,188.52 335.5,188.52 335.5,210.32 313.71,210.32 313.71,159.471 320.97,152.2 "/>
<polyline fill="none" stroke="#A7A9AC" stroke-width="3.22" stroke-linejoin="bevel" stroke-miterlimit="10" points="306.58,173.99 
	277.52,173.99 262.99,188.52 262.99,224.851 270.25,232.11 "/>
<polyline fill="none" stroke="#A7A9AC" stroke-width="3.22" stroke-linejoin="bevel" stroke-miterlimit="10" points="284.78,232.11 
	335.63,232.11 350.16,217.58 350.16,188.52 335.63,173.99 321.11,173.99 "/>
<polygon fill="#D1D3D4" stroke="#D1D3D4" stroke-width="0.2" stroke-linejoin="bevel" stroke-miterlimit="10" points="
	271.49,166.721 271.49,159.641 272.58,159.641 272.58,162.73 275.58,162.73 275.58,159.641 276.67,159.641 276.67,166.721 
	275.58,166.721 275.58,163.551 272.58,163.551 272.58,166.721 "/>
<path fill="#D1D3D4" stroke="#D1D3D4" stroke-width="0.2" stroke-linejoin="bevel" stroke-miterlimit="10" d="M284.54,166.5
	c-0.73,0.26-1.42,0.391-2.06,0.391c-1.13,0-2.03-0.34-2.72-1.01c-0.69-0.681-1.03-1.57-1.03-2.671c0-1.11,0.34-2.01,1.02-2.71
	c0.69-0.689,1.58-1.029,2.68-1.029c0.63,0,1.3,0.1,2.01,0.319v0.99c-0.72-0.33-1.4-0.5-2.04-0.5c-0.73,0-1.33,0.271-1.8,0.81
	c-0.48,0.541-0.71,1.221-0.71,2.051c0,0.84,0.26,1.529,0.8,2.06c0.53,0.53,1.22,0.8,2.05,0.8c0.51,0,1.11-0.13,1.8-0.4V166.5z"/>
<polygon fill="#D1D3D4" stroke="#D1D3D4" stroke-width="0.2" stroke-linejoin="bevel" stroke-miterlimit="10" points="
	291.11,166.721 291.11,159.641 292.2,159.641 292.2,163.11 295.16,159.641 296.26,159.641 293.4,162.98 296.8,166.721 
	295.5,166.721 292.2,163.11 292.2,166.721 "/>
<path fill="#D1D3D4" stroke="#D1D3D4" stroke-width="0.2" stroke-linejoin="bevel" stroke-miterlimit="10" d="M300.95,166.721v-7.08
	h1.98c0.83,0,1.4,0.06,1.72,0.199c0.69,0.28,1.03,0.791,1.03,1.5c0,0.5-0.12,0.91-0.36,1.23c-0.24,0.33-0.63,0.64-1.19,0.92
	l2.45,3.23h-1.32l-2.24-2.951h-0.98v2.951H300.95z M302.04,162.95h0.57c0.59,0,1.05-0.13,1.39-0.39c0.35-0.26,0.52-0.601,0.52-1.041
	c0-0.409-0.13-0.689-0.39-0.84c-0.26-0.149-0.73-0.229-1.42-0.229h-0.67V162.95z"/>
<path fill="#D1D3D4" stroke="#D1D3D4" stroke-width="0.2" stroke-linejoin="bevel" stroke-miterlimit="10" d="M296.72,239.55v0.95
	c-0.8-0.31-1.51-0.47-2.13-0.47c-0.99,0-1.48,0.34-1.48,1c0,0.27,0.09,0.479,0.28,0.649c0.18,0.16,0.52,0.33,1.02,0.5l0.7,0.24
	l0.66,0.23c1.02,0.359,1.54,0.97,1.54,1.83c0,0.66-0.27,1.18-0.79,1.569c-0.52,0.391-1.23,0.591-2.11,0.591
	c-0.61,0-1.4-0.131-2.36-0.391v-1.08c0.96,0.44,1.76,0.65,2.4,0.65c0.53,0,0.96-0.101,1.28-0.311c0.32-0.22,0.48-0.5,0.48-0.859
	c0-0.271-0.09-0.48-0.28-0.641c-0.19-0.159-0.58-0.35-1.17-0.569l-0.73-0.261c-0.73-0.27-1.23-0.55-1.51-0.829
	c-0.28-0.28-0.42-0.66-0.42-1.131c0-0.64,0.21-1.13,0.65-1.479c0.43-0.35,1.04-0.521,1.82-0.521
	C295.21,239.22,295.92,239.33,296.72,239.55z"/>
<path fill="#D1D3D4" stroke="#D1D3D4" stroke-width="0.2" stroke-linejoin="bevel" stroke-miterlimit="10" d="M307.4,246.47v-7.079
	h2.3c0.819,0,1.41,0.069,1.75,0.22c0.72,0.31,1.08,0.899,1.08,1.79c0,0.74-0.29,1.319-0.87,1.75c-0.57,0.42-1.37,0.63-2.38,0.63
	h-0.79v2.689H307.4z M308.49,242.96h0.68c1.47,0,2.2-0.51,2.2-1.54c0-0.439-0.14-0.75-0.41-0.93c-0.28-0.19-0.74-0.28-1.39-0.28
	h-1.08V242.96z"/>
<path fill="#D1D3D4" stroke="#D1D3D4" stroke-width="0.2" stroke-linejoin="bevel" stroke-miterlimit="10" d="M326.75,246.25
	c-0.73,0.26-1.42,0.391-2.06,0.391c-1.131,0-2.03-0.341-2.721-1.011c-0.689-0.68-1.029-1.569-1.029-2.67
	c0-1.109,0.34-2.01,1.02-2.71c0.69-0.689,1.58-1.03,2.68-1.03c0.63,0,1.301,0.101,2.011,0.32v1c-0.721-0.34-1.41-0.51-2.04-0.51
	c-0.73,0-1.33,0.27-1.811,0.81c-0.47,0.54-0.7,1.221-0.7,2.051c0,0.84,0.261,1.529,0.801,2.06c0.529,0.53,1.21,0.8,2.05,0.8
	c0.51,0,1.109-0.13,1.8-0.399V246.25z"/>
<line fill="none" stroke="#E9E9EA" stroke-width="0.8" stroke-linejoin="bevel" stroke-miterlimit="10" x1="284.78" y1="217.58" x2="284.78" y2="224.851"/>
<line fill="none" stroke="#E9E9EA" stroke-width="0.8" stroke-linejoin="bevel" stroke-miterlimit="10" x1="292.05" y1="217.58" x2="292.05" y2="224.851"/>
<line fill="none" stroke="#E9E9EA" stroke-width="0.8" stroke-linejoin="bevel" stroke-miterlimit="10" x1="299.31" y1="217.58" x2="299.31" y2="224.851"/>
<line fill="none" stroke="#E9E9EA" stroke-width="0.8" stroke-linejoin="bevel" stroke-miterlimit="10" x1="306.4" y1="217.58" x2="306.4" y2="224.851"/>
<line fill="none" stroke="#E9E9EA" stroke-width="0.8" stroke-linejoin="bevel" stroke-miterlimit="10" x1="313.2" y1="217.58" x2="335.63" y2="217.58"/>
<line fill="none" stroke="#E9E9EA" stroke-width="0.8" stroke-linejoin="bevel" stroke-miterlimit="10" x1="313.2" y1="224.851" x2="335.63" y2="224.851"/>
</svg>
