<?xml version="1.0" encoding="utf-8"?>
<!-- Generator: Adobe Illustrator 18.1.0, SVG Export Plug-In . SVG Version: 6.00 Build 0)  -->
<svg version="1.1" xmlns="http://www.w3.org/2000/svg" xmlns:xlink="http://www.w3.org/1999/xlink" x="0px" y="0px"
	 viewBox="0 0 126 144" enable-background="new 0 0 126 144" xml:space="preserve">
<g id="Layer_4">
</g>
<g id="Layer_2">
	<polygon fill="#FFFFFF" points="126,108 63,144 0,108 0,36 63,0 126,36 	"/>
	<polygon fill="#CE1126" points="119,103.9 63.5,136 8,103.9 8,39.9 63.5,7.9 119,39.9 	"/>
	<g>
		<g id="XMLID_4_">
			<g>
				<path fill="#FFFFFF" d="M81.3,126.4c-0.3,0.8-0.7,1.6-1.2,2.3c-1.1,1.7-2.6,3.2-4.2,4.5c-1.1,0.9-2.3,1.4-3.6,2
					c-1.9,0.8-3.9,1.2-5.9,1.3c-1.9,0.1-3.8-0.2-5.6-0.8c-0.7-0.2-1.4-0.5-2.1-0.7c-0.4-0.2-0.9-0.4-1.3-0.7
					c-2.2-1.3-4.4-2.5-6.6-3.8c0,0,0,0,0,0c-2.4-1.4-4.7-2.7-7.1-4.1c-11-6.4-22.1-12.7-33.1-19.1c-0.2-0.1-0.3-0.2-0.5-0.3
					c-1.1-0.6-2-1.4-2.9-2.3c-1.9-1.7-2.9-3.9-3.4-6.3c-0.3-1.3-0.4-2.6-0.1-3.9c0.2-1,0.5-2,0.8-3c0.3-1,0.8-1.9,1.4-2.7
					c0.7-0.9,1.5-1.7,2.3-2.4c1-0.9,2.2-1.5,3.4-2c1.5-0.7,3.2-0.8,4.8-0.8c0.2,0,0.3-0.1,0.4-0.2c0.3-0.4,0.6-0.8,0.9-1.1
					c0.9-0.9,1.7-1.8,2.6-2.7c0.8-0.7,1.7-1.3,2.6-1.7c1.5-0.8,3.1-1.5,4.8-1.8c0.9-0.2,1.7-0.3,2.6-0.3c1.3-0.1,2.6-0.1,3.8,0.1
					c1.1,0.2,2.2,0.5,3.3,0.9c0.6,0.2,1.1,0.4,1.7,0.6c0.8,0.4,1.6,0.8,2.4,1.3c0.6,0.4,1.1,0.9,1.7,1.3c0.1,0,0.2,0,0.3,0
					c0.8-0.3,1.5-0.6,2.3-0.9c1.1-0.3,2.1-0.6,3.2-0.8c2-0.3,4-0.5,6.1-0.3c1.9,0.1,3.8,0.6,5.7,1.2c0.9,0.3,1.8,0.6,2.7,1
					c1.1,0.5,2.2,1.1,3.3,1.7c2,1.3,3.8,3,5.4,4.8c0.9,1,1.7,2,2.4,3.2c1.3,2.1,2.3,4.4,2.9,6.8c0.4,1.5,0.6,3,0.7,4.5
					c0.1,1.5,0.1,3-0.1,4.5c-0.1,0.6-0.2,1.3-0.3,1.9c0,0.1,0,0.2,0.1,0.3c1.7,1.5,2.8,3.4,3.6,5.4c0.8,1.8,1.1,3.7,1.2,5.6
					c0,0.8,0,1.6,0,2.4c-0.1,0.9-0.3,1.9-0.6,2.8C81.8,124.8,81.6,125.7,81.3,126.4z M61.3,132.1c7.7,2.8,16.3-2.2,17.6-10.3
					c0.8-4.9-0.9-9.1-4.6-12.3c-0.2-0.2-0.5-0.3-0.5-0.5c-0.1-0.2,0.1-0.5,0.1-0.7c2.3-8.6-1-18.3-9.4-23.6
					c-2.7-1.7-5.6-2.7-8.7-3.1c-4.6-0.5-9,0.4-13,2.6c-0.1,0.1-0.2,0.1-0.4,0c-1.4-1.7-3.1-3-5.2-3.8c-2.7-1.2-5.6-1.5-8.5-0.9
					c-4.6,1-7.9,3.6-10,7.8c-0.1,0.2-0.2,0.3-0.5,0.2c-4.3-1.1-8.7,1-10.4,5.2c-1.4,3.4-0.7,6.6,1.7,9.3c0.8,0.9,1.9,1.5,2.9,2.1
					c7.7,4.4,15.4,8.9,23.1,13.3c0,0,0,0,0,0c3.1,1.8,6.3,3.6,9.4,5.4c4.8,2.8,9.5,5.5,14.3,8.3C59.9,131.5,60.6,131.8,61.3,132.1z"
					/>
				<path fill="#FFFFFF" d="M78.9,121.8c-1.2,8.1-9.8,13.2-17.6,10.3c-0.7-0.3-1.4-0.6-2.1-1c-4.8-2.7-9.6-5.5-14.3-8.3
					c-3.1-1.8-6.3-3.6-9.4-5.4c0,0,0,0,0,0c-7.7-4.4-15.4-8.9-23.1-13.3c-1.1-0.6-2.1-1.2-2.9-2.1c-2.4-2.8-3.1-5.9-1.7-9.3
					c1.7-4.1,6.1-6.3,10.4-5.2c0.2,0.1,0.3,0,0.5-0.2c2.1-4.2,5.4-6.8,10-7.8c2.9-0.6,5.8-0.3,8.5,0.9c2,0.9,3.7,2.2,5.2,3.8
					c0.1,0.2,0.2,0.1,0.4,0c4.1-2.3,8.4-3.2,13-2.6c3.1,0.4,6.1,1.4,8.7,3.1c8.3,5.2,11.7,14.9,9.4,23.6c-0.1,0.2-0.2,0.5-0.1,0.7
					c0.1,0.2,0.3,0.3,0.5,0.5C78,112.7,79.6,116.8,78.9,121.8z"/>
			</g>
			<g>
			</g>
		</g>
	</g>
	<g>
		<path fill="#CE2028" d="M35.2,109.6c-0.2-0.1-0.4-0.3-0.5-0.4c-0.9-0.7-1.8-1.5-2.5-2.3c-0.1-0.1-0.1-0.2,0-0.3
			c2.4-4.1,4.8-8.3,7.2-12.4c0-0.1,0.1-0.1,0.1-0.2c0.6,0.4,1.3,0.7,1.9,1.1c-0.8,1.4-1.6,2.8-2.5,4.3c0.1,0,0.2,0,0.4,0.1
			c1.1,0.2,2.2,0.6,3.2,1.2c1.5,1,2.2,2.5,1.9,4.3c-0.1,0.8-0.4,1.6-0.8,2.3c-0.5,0.9-1.1,1.7-1.8,2.4c-1.3,1.3-2.8,1.6-4.5,1
			c-0.3-0.1-0.5-0.2-0.8-0.3c0,0-0.1,0-0.1,0C35.9,110,35.6,109.8,35.2,109.6z M36.3,103.7c-0.6,1-1.1,2-1.7,2.9
			c-0.1,0.1-0.1,0.2,0,0.3c0.5,0.5,1,1,1.6,1.4c0.4,0.3,0.8,0.5,1.3,0.7c0.9,0.2,1.7,0,2.4-0.7c1-1,1.7-2.1,2.1-3.4
			c0.2-0.5,0.3-1.1,0.2-1.6c-0.2-0.8-0.7-1.4-1.4-1.8c-0.8-0.5-1.7-0.8-2.6-0.9c-0.1,0-0.2,0-0.3,0.1
			C37.4,101.7,36.9,102.7,36.3,103.7z"/>
		<path fill="#CE2028" d="M67.4,128.2c-0.2-0.1-0.4-0.3-0.5-0.4c-0.9-0.7-1.8-1.5-2.5-2.3c-0.1-0.1-0.1-0.2,0-0.4
			c2.4-4.1,4.8-8.3,7.2-12.4c0-0.1,0.1-0.1,0.1-0.2c0.6,0.4,1.3,0.7,1.9,1.1c-0.8,1.4-1.6,2.8-2.5,4.3c0.2,0,0.3,0.1,0.4,0.1
			c1.1,0.2,2.1,0.6,3.1,1.2c1.6,1,2.2,2.5,1.9,4.4c-0.2,1-0.6,1.9-1.1,2.8c-0.5,0.8-1,1.5-1.7,2.1c-1.2,1.1-2.6,1.3-4.1,0.9
			c-0.3-0.1-0.6-0.2-0.9-0.4c0,0-0.1,0-0.1,0C68.1,128.6,67.8,128.4,67.4,128.2z M68.5,122.2c-0.6,1-1.1,2-1.7,3
			c0,0.1-0.1,0.1,0,0.2c0.6,0.8,1.4,1.4,2.3,1.9c0.5,0.3,1.1,0.4,1.7,0.3c0.6-0.1,1-0.4,1.4-0.8c0.9-0.9,1.6-2,2-3.2
			c0.2-0.5,0.3-1.1,0.2-1.6c-0.1-0.9-0.7-1.5-1.4-1.9c-0.8-0.5-1.7-0.8-2.6-0.9c-0.1,0-0.2,0-0.2,0.1
			C69.6,120.3,69.1,121.2,68.5,122.2z"/>
		<path fill="#CE2028" d="M19.7,83.6c0.1,0,0.1,0.1,0.2,0.1c1.4,0.8,2.8,1.6,4.2,2.4c0.7,0.4,1.3,0.8,1.8,1.4c0.9,1,1.1,2.3,0.6,3.6
			c-0.3,0.7-0.7,1.3-1.2,1.8c-0.9,1-2,1.3-3.2,1c-0.7-0.1-1.4-0.4-2-0.8c-0.8-0.5-1.6-0.9-2.4-1.4c-0.1,0-0.1-0.1-0.2-0.1
			c-1.1,1.8-2.1,3.7-3.2,5.5c-0.6-0.4-1.3-0.7-1.9-1.1C14.8,92,17.2,87.8,19.7,83.6z M18.3,90.4C18.3,90.4,18.4,90.4,18.3,90.4
			c0.8,0.5,1.5,0.9,2.3,1.3c0.3,0.2,0.6,0.3,1,0.4c0.7,0.2,1.4,0.1,1.9-0.4c0.4-0.5,0.8-1,1-1.6c0.3-0.7,0.1-1.3-0.4-1.9
			c-0.3-0.3-0.7-0.6-1.1-0.8c-0.7-0.4-1.4-0.8-2.1-1.2c-0.1,0-0.1-0.1-0.2-0.1C19.9,87.5,19.1,88.9,18.3,90.4z"/>
		<path fill="#CE2028" d="M25.2,103.9c-0.2-0.2-0.4-0.3-0.6-0.5c-0.5-0.4-0.9-0.9-1.2-1.4c-0.5-0.9-0.5-1.8-0.1-2.7
			c0.1-0.3,0.3-0.5,0.4-0.8c1.2-2,2.3-4.1,3.5-6.1c0-0.1,0.1-0.1,0.1-0.2c0.6,0.4,1.3,0.7,1.9,1.1c0,0.1-0.1,0.1-0.1,0.2
			C28.1,95.3,27,97.1,26,99c-0.3,0.5-0.5,0.9-0.6,1.5c-0.2,0.9,0.1,1.6,0.8,2.1c0.8,0.6,1.8,1,2.8,1.3c0.1,0,0.2,0,0.3-0.1
			c1.5-2.5,2.9-5.1,4.4-7.6c0-0.1,0.1-0.1,0.1-0.2c0.6,0.4,1.3,0.7,1.9,1.1c0,0.1-0.1,0.1-0.1,0.2c-1.7,2.9-3.3,5.8-5,8.7
			c-0.1,0.1-0.2,0.2-0.3,0.1c-1.3-0.3-2.5-0.8-3.7-1.4c0,0-0.1,0-0.1,0C26,104.3,25.6,104.1,25.2,103.9z"/>
		<path fill="#CE2028" d="M57.4,122.4c-0.2-0.2-0.4-0.3-0.6-0.5c-0.5-0.4-0.9-0.9-1.2-1.4c-0.5-0.9-0.5-1.8-0.1-2.7
			c0.1-0.2,0.2-0.5,0.4-0.7c1.2-2.1,2.4-4.1,3.6-6.2c0-0.1,0.1-0.1,0.1-0.2c0.6,0.4,1.3,0.7,1.9,1.1c0,0.1-0.1,0.1-0.1,0.2
			c-1.1,1.9-2.2,3.7-3.2,5.6c-0.3,0.4-0.5,0.9-0.6,1.4c-0.2,0.8,0.1,1.5,0.8,2c0.8,0.6,1.8,1,2.8,1.3c0.2,0,0.3,0,0.4-0.2
			c1.4-2.5,2.9-5,4.4-7.6c0-0.1,0.1-0.1,0.1-0.2c0.6,0.4,1.3,0.7,1.9,1.1c0,0.1-0.1,0.1-0.1,0.2c-1.7,2.9-3.3,5.8-5,8.7
			c-0.1,0.1-0.1,0.1-0.3,0.1c-1.3-0.3-2.6-0.8-3.8-1.4c0,0-0.1,0-0.1,0C58.2,122.9,57.8,122.6,57.4,122.4z"/>
		<path fill="#CE2028" d="M52.2,119.1c-0.6-0.3-1.2-0.7-1.8-1c-0.3-0.2-0.7-0.4-1-0.6c-0.1-0.1-0.2-0.1-0.1-0.3
			c0.1-2,0.2-3.9,0.3-5.9c0.1-2.7,0.2-5.3,0.4-8c0,0,0-0.1,0-0.2c-2.1,3.6-4.2,7.3-6.3,10.9c-0.6-0.3-1.1-0.6-1.7-1
			c2.4-4.2,4.8-8.4,7.2-12.6c0,0,0.1,0,0.1,0.1c0.9,0.5,1.7,1,2.6,1.5c0.1,0.1,0.1,0.1,0.1,0.2c-0.2,4.6-0.4,9.3-0.6,13.9
			c0,0,0,0.1,0,0.2c2.1-3.6,4.2-7.3,6.3-10.9c0.6,0.3,1.1,0.6,1.7,1C57.1,110.8,54.6,114.9,52.2,119.1z"/>
	</g>
</g>
<g id="Layer_3">
	<polygon fill="#CE2028" points="8,86 1,86 1,108 63,144 85.2,131.1 81.5,125.8 63.5,136 8,103.9 	"/>
	<text transform="matrix(1 0 0 1 39.8549 48.2277)" fill="#FFFFFF" font-family="'Montserrat-Regular'" font-size="31.6911">1/4</text>
	<text transform="matrix(1 0 0 1 16.1098 71.6438)" fill="#FFFFFF" font-family="'Montserrat-Regular'" font-size="21.504">SECOND</text>
	<polyline fill="#CE2028" points="1,86 0,86 0,108 63,144 8,103.9 	"/>
</g>
</svg>
