<?xml version="1.0" standalone="no"?>
<!DOCTYPE svg PUBLIC "-//W3C//DTD SVG 20010904//EN"
 "http://www.w3.org/TR/2001/REC-SVG-20010904/DTD/svg10.dtd">
<svg version="1.0" xmlns="http://www.w3.org/2000/svg"
 width="290.000000pt" height="290.000000pt" viewBox="0 0 290.000000 290.000000"
 preserveAspectRatio="xMidYMid meet">

<g transform="translate(0.000000,290.000000) scale(0.100000,-0.100000)"
fill="#000000" stroke="none">
<path d="M0 1450 l0 -1450 1450 0 1450 0 0 1450 0 1450 -1450 0 -1450 0 0
-1450z m1881 820 c233 -133 440 -253 461 -266 l36 -23 1 -528 c1 -480 -2 -557
-23 -554 -3 1 -16 -4 -29 -12 -46 -26 -65 -37 -177 -103 -63 -38 -203 -119
-310 -182 -107 -63 -236 -139 -287 -169 l-92 -55 -443 253 c-244 139 -455 261
-470 271 l-26 18 -1 528 c0 324 3 533 9 542 5 8 10 11 10 6 0 -5 8 -2 18 7 9
8 28 20 42 26 14 6 37 19 52 29 22 14 139 83 305 179 17 10 105 61 195 114 90
53 186 109 213 124 28 15 54 32 60 36 5 5 15 7 21 5 6 -2 202 -113 435 -246z"/>
<path d="M1370 2205 l0 -105 25 0 c23 0 25 4 25 40 0 26 4 40 13 40 7 0 23
-18 36 -40 18 -33 28 -40 52 -40 l29 0 -20 39 c-11 22 -24 42 -30 46 -7 4 -5
14 5 28 39 56 6 97 -78 97 l-57 0 0 -105z m90 45 c0 -13 -7 -20 -20 -20 -13 0
-20 7 -20 20 0 13 7 20 20 20 13 0 20 -7 20 -20z"/>
<path d="M1425 1998 c-2 -7 -6 -24 -8 -38 -4 -24 -4 -24 -6 3 -1 31 -11 34
-34 9 -28 -31 -47 -90 -47 -146 0 -68 12 -99 55 -148 41 -44 39 -18 20 -343
-23 -388 -22 -422 2 -447 30 -29 70 -18 88 25 7 17 12 34 10 37 -2 3 -6 131
-10 285 -3 154 -8 306 -10 338 -4 57 -2 60 36 102 45 49 59 87 59 163 0 54
-24 116 -54 141 -13 11 -16 8 -23 -16 l-7 -28 -6 33 c-6 42 -23 46 -31 7 -7
-30 -7 -30 -8 -3 -1 29 -19 47 -26 26z"/>
<path d="M896 1513 c-9 -19 -12 -46 -9 -80 5 -43 9 -53 24 -53 15 0 19 8 19
40 0 22 4 40 10 40 5 0 7 -7 4 -15 -4 -8 1 -26 10 -40 22 -33 78 -35 100 -3
l16 22 0 -22 c0 -15 6 -22 19 -22 15 0 21 8 23 33 2 24 8 33 25 35 24 4 39 31
20 37 -6 2 -28 3 -47 2 -27 -2 -36 -7 -41 -27 -4 -15 -7 -18 -8 -8 -2 32 -73
52 -97 28 -8 -8 -15 -6 -24 4 -10 13 -9 17 4 22 25 10 19 34 -9 34 -17 0 -29
-9 -39 -27z m128 -69 c7 -19 -1 -34 -19 -34 -8 0 -16 4 -19 9 -9 14 4 41 19
41 7 0 16 -7 19 -16z"/>
<path d="M2090 1515 c0 -18 -5 -25 -19 -25 -27 0 -51 -27 -51 -56 0 -13 -4
-24 -10 -24 -5 0 -10 15 -10 34 0 43 -3 44 -147 44 -126 1 -138 -5 -130 -63 3
-19 1 -38 -4 -41 -5 -3 -9 -14 -9 -24 0 -22 31 -33 76 -28 23 2 29 8 29 28 0
16 -8 29 -23 36 -22 11 -22 12 -3 17 10 2 21 15 24 28 2 14 5 7 6 -18 1 -36 4
-43 21 -43 16 0 20 7 20 30 0 33 4 35 65 44 l40 5 -27 -15 c-19 -10 -28 -23
-28 -39 0 -24 3 -25 55 -25 36 0 55 4 55 12 0 9 3 9 12 0 7 -7 31 -12 55 -12
l43 0 0 80 c0 73 -2 80 -20 80 -15 0 -20 -7 -20 -25z m-316 -76 c-3 -5 -10 -7
-15 -3 -5 3 -7 10 -3 15 3 5 10 7 15 3 5 -3 7 -10 3 -15z m316 -4 c0 -26 -14
-33 -25 -15 -9 14 1 40 15 40 5 0 10 -11 10 -25z m-120 -19 c0 -3 -4 -8 -10
-11 -5 -3 -10 -1 -10 4 0 6 5 11 10 11 6 0 10 -2 10 -4z m-193 -52 c-3 -3 -12
-4 -19 -1 -8 3 -5 6 6 6 11 1 17 -2 13 -5z"/>
<path d="M1770 770 c0 -73 2 -80 20 -80 18 0 20 7 20 80 0 73 -2 80 -20 80
-18 0 -20 -7 -20 -80z"/>
<path d="M1502 818 c2 -19 -1 -22 -19 -20 -14 2 -26 -5 -34 -20 l-12 -22 -8
22 c-8 20 -14 22 -66 20 l-58 -3 -3 -52 c-3 -47 -1 -53 17 -53 15 0 20 8 23
33 2 26 8 33 30 35 22 3 28 -2 39 -32 7 -20 19 -36 26 -36 7 0 24 21 37 48
l25 47 1 -47 c0 -41 3 -48 20 -48 17 0 20 7 21 48 l1 47 21 -47 c12 -26 28
-48 34 -48 7 0 24 21 37 48 16 29 25 40 26 27 0 -15 3 -16 12 -7 7 7 19 12 28
12 8 0 0 -9 -18 -20 -50 -31 -40 -54 26 -58 l52 -3 -6 43 c-9 61 -18 68 -81
66 -43 -1 -56 -6 -65 -22 -11 -20 -11 -20 -19 2 -6 16 -17 22 -41 23 -18 0
-27 3 -20 6 20 8 14 33 -9 33 -15 0 -20 -5 -17 -22z m208 -92 c0 -3 -4 -8 -10
-11 -5 -3 -10 -1 -10 4 0 6 5 11 10 11 6 0 10 -2 10 -4z"/>
<path d="M1101 786 c-14 -16 -1 -50 21 -60 7 -3 4 -4 -7 -3 -12 1 -20 -4 -20
-13 0 -22 66 -26 81 -5 10 14 12 14 18 0 4 -10 19 -15 51 -15 l45 0 0 55 c0
48 -2 55 -20 55 -17 0 -20 -7 -20 -40 0 -29 -4 -40 -15 -40 -11 0 -15 11 -15
40 0 33 -3 40 -19 40 -14 0 -21 -8 -23 -29 -3 -28 -4 -29 -23 -14 -16 13 -17
15 -2 10 12 -5 17 -1 17 13 0 15 -7 20 -29 20 -16 0 -34 -6 -40 -14z"/>
</g>
</svg>
