<?xml version="1.0" encoding="utf-8"?>
<!-- Generator: Adobe Illustrator 19.1.0, SVG Export Plug-In . SVG Version: 6.00 Build 0)  -->
<svg version="1.1" id="Layer_1" xmlns="http://www.w3.org/2000/svg" xmlns:xlink="http://www.w3.org/1999/xlink" x="0px" y="0px"
	 viewBox="-145 277 320 240" style="enable-background:new -145 277 320 240;" xml:space="preserve">
<style type="text/css">
	.st0{fill:#E23130;}
	.st1{fill:#422D51;}
</style>
<polygon class="st0" points="-75.5,344.7 15,292.5 105.5,344.7 105.5,449.2 15,501.5 -75.5,449.2 "/>
<path class="st1" d="M55.6,355.2c-1.2,6.1-2.4,12.4-3.7,18.8c-4.4,21.9-8.8,43.9-13.2,65.8c-1,5.1-2.2,5.8-7.2,4.1
	c-22.1-7.6-44.1-15.2-66.2-22.8c-0.5-0.2-1-0.4-1.5-0.5c-1.7-0.5-3.2-1.2-3.4-3.3c-0.2-1.9,1-2.9,2.4-3.8
	c6.9-4.8,13.7-9.6,20.6-14.5c21.7-15.2,43.4-30.5,65.1-45.7c0.7-0.5,1.4-1,2.1-1.4C53.2,350.6,55.6,352.1,55.6,355.2z"/>
</svg>
