<?xml version="1.0" encoding="utf-8"?>
<!-- Generator: Adobe Illustrator 21.0.2, SVG Export Plug-In . SVG Version: 6.00 Build 0)  -->
<svg version="1.1" xmlns="http://www.w3.org/2000/svg" xmlns:xlink="http://www.w3.org/1999/xlink" x="0px" y="0px"
	 viewBox="0 0 595.3 841.9" style="enable-background:new 0 0 595.3 841.9;" xml:space="preserve">
<style type="text/css">
	.st0{display:none;}
	.st1{display:inline;fill:url(#SVGID_1_);}
	.st2{display:inline;fill:url(#SVGID_2_);}
	.st3{fill:url(#SVGID_3_);}
	.st4{fill:none;}
	.st5{display:inline;}
	.st6{fill:#55A7DD;}
	.st7{fill:url(#SVGID_4_);}
	.st8{display:inline;fill:url(#SVGID_5_);}
	.st9{font-family:'Skia-Regular';}
	.st10{font-size:70px;}
	.st11{font-size:55px;}
	.st12{font-size:150px;}
</style>
<g id="BackBG" class="st0">
	
		<linearGradient id="SVGID_1_" gradientUnits="userSpaceOnUse" x1="145.9689" y1="327.9277" x2="444.7396" y2="500.423" gradientTransform="matrix(4.489700e-11 -1 1 4.489700e-11 -118.8211 709.5297)">
		<stop  offset="0" style="stop-color:#0D3558"/>
		<stop  offset="1" style="stop-color:#93D5F6"/>
	</linearGradient>
	<polygon class="st1" points="122.9,314.6 122.9,513.8 295.4,613.4 467.8,513.8 467.8,314.6 295.4,215 	"/>
	
		<linearGradient id="SVGID_2_" gradientUnits="userSpaceOnUse" x1="155.0133" y1="333.1495" x2="435.6952" y2="495.2012" gradientTransform="matrix(4.489700e-11 -1 1 4.489700e-11 -118.8211 709.5297)">
		<stop  offset="0" style="stop-color:#41A1DA"/>
		<stop  offset="1" style="stop-color:#FFFFFF"/>
	</linearGradient>
	<polygon class="st2" points="133.3,320.6 133.3,507.7 295.4,601.3 457.4,507.7 457.4,320.6 295.4,227.1 	"/>
</g>
<g id="FrontBG">
	
		<linearGradient id="SVGID_3_" gradientUnits="userSpaceOnUse" x1="155.0133" y1="333.1495" x2="435.6952" y2="495.2012" gradientTransform="matrix(4.489700e-11 -1 1 4.489700e-11 -118.8211 709.5297)">
		<stop  offset="0" style="stop-color:#41A1DA"/>
		<stop  offset="1" style="stop-color:#FFFFFF"/>
	</linearGradient>
	<polygon class="st3" points="133.3,320.6 133.3,507.7 295.4,601.3 457.4,507.7 457.4,320.6 295.4,227.1 	"/>
</g>
<g id="Mur_bkp">
	<polyline class="st4" points="612.2,321 612.2,363.7 569.5,363.7 569.5,321 526.7,321 526.7,363.7 484,363.7 484,321 441.2,321 
		441.2,363.7 398.5,363.7 398.5,321 355.7,321 355.7,363.7 313,363.7 313,321 270.3,321 270.3,363.7 227.5,363.7 227.5,321 
		184.8,321 184.8,363.7 142,363.7 142,321 99.3,321 99.3,363.7 56.5,363.7 56.5,321 13.8,321 13.8,363.7 -28.9,363.7 -28.9,321 
		-71.7,321 	"/>
</g>
<g id="Rauk_shadow" class="st0">
	<g id="mQNGoU_2_" class="st5">
		<g>
			<path class="st6" d="M278.3,552.7c-1.6-0.4-1.3-2-1-3.3c0.5-1.7,1.4-3.2,1.8-4.9c0.4-1.8,1.5-3.2,1.2-5.5
				c-0.2-1.3,0.4-2.9,0.4-4.3c0-0.8-0.3-1.7-0.6-2.4c-0.6-1.5-1.2-3-1.9-4.3c-0.7-1.1-1.6-1.9-2.4-2.9c-0.4-0.6-0.9-1.3-1.1-2.1
				c-0.6-3.1-0.9-6.2-1.5-9.3c-0.5-2.5-1.1-5-1.7-7.5c-0.1-0.3-0.3-0.8-0.5-0.8c-1.8,0.1-1.9-2.1-2.5-3.6c-0.7-1.5-1.4-3.1-2.2-4.4
				c-0.4-0.7-1.1-1.1-1.8-1.3c-1.5-0.5-3-0.6-4.5-1.2c-4.2-1.6-8.8-11.8-5.7-18.8c0.6-1.3,1.1-2.6,2.3-0.7c0.2,0.3,1.4,0,1.6-0.5
				c1.5-3.7,4.5-4.1,6.9-5.2c2.6-1.2,4.1-3.6,5.1-6.5c1.3-3.8,1.8-7.9,1-12.2c-0.5-2.8-0.1-5.8-0.2-8.7c0-1.6-0.6-3.5-0.2-4.9
				c0.9-2.9-0.4-4.9-0.8-7.3c-1.4-8.4-4.5-15.7-7.5-23c-0.5-1.1-0.4-2.9-0.2-4.2c0.4-2,0.7-3.7-0.8-5.2c-0.4-0.4-0.5-1.4-0.6-2.2
				c-0.2-4.7-0.5-9.4-0.5-14.1c0-2.3,0.5-4.5,0.7-6.8c0.3-3.9,0.5-7.9,0.9-11.8c0.1-1.5,0.6-2.9,1.9-3.6c0.7-0.3,1.3-1.6,1.6-2.6
				c0.1-0.2-0.8-1.3-1.3-1.8c-0.6-0.6-1.4-1-1.8-1.8c-1.3-2.2-1.1-4,0.2-6.3c1.3-2.1,1.2-2.8-0.3-4.6c-3.4-3.9-6.3-8.4-8.7-13.5
				c-1.2-2.6-2.3-5.3-3.3-8.1c-1.2-3.5-1.5-7.2,0-10.7c-2.1-2.4-3-5.8-2.1-8.8c1-3.1,2.9-4.2,5.4-3.3c0.1-0.2,0.2-0.4,0.3-0.6
				c-0.3-0.9-0.5-1.9-0.9-2.7c-0.7-1.5-1.5-3-2.4-4.5c-0.4-0.7-0.8-1.5-1.3-1.8c-3.8-2-4.2-6.7-4.9-11.3c0-0.1,0-0.3,0-0.4
				c-0.1-5.3-0.1-5.3,3.7-6.7c0.5-0.2,0.9-0.5,1.3-0.8c0.9-0.7,1.6-0.5,2.7-0.2c2,0.7,4.2,0.4,6.3,0.4c1.3,0,2.6,0.2,3.9-0.1
				c1.6-0.3,3.2-1,4.8-1.6c0.4-0.1,0.9-0.5,1-0.3c1.2,2,2.9,1.4,4.4,1.5c3.2,0.3,6.3,1.2,9.3-1.5c0.9-0.8,2.4-0.1,3.6-0.1
				c1.1,0,2.3,0,3.4,0.2c1.1,0.2,2.3,0.5,3.4,0.7c0.5,0.1,1.1,0.3,1.6,0.2c1.5-0.2,3-0.5,4.5-0.7c0.3,0,0.7,0.4,0.9,0.8
				c1.2,1.7,2.7,2.4,4.4,2.1c0.4-0.1,0.9,0,1.3,0.1c3.5,0.7,6.9,1.6,10.4,2.2c1.8,0.3,3.6,0.5,5.4,0.2c1.6-0.3,3,0,4.4,0.8
				c1.6,0.9,3.3,1.5,4.6,2.2c0.7,1.3,1.2,2.4,1.9,3.4c1.9,2.9,1.2,8.5-1.4,10.3c-1.3,0.9-2.6,1.8-3.9,2.7c-1.8,1.2-1.8,3.9-1.7,5.9
				c0.1,1.3,1.6,2.5,2.6,3.5c1.4,1.4,3,2.4,4.3,3.9c0.4,0.5,0.6,2,0.4,2.8c-0.9,2.9-2.1,5.7-3.1,8.5c-0.2,0.6-0.5,1.4-0.5,2.1
				c0,2.2,0,4.5,0.4,6.6c0.3,1.8,1,3.6,1.8,5.1c1.4,2.6,3.2,4.8,2.5,8.7c-0.3,1.8-0.2,3.9-0.1,5.8c0,0.7,0.5,1.7,1,1.9
				c1.4,0.7,3.2,0.5,4.4,1.5c2,1.7,4.3,3.3,5.1,6.8c0.7,3.4,0.7,6.5-1.1,9.5c-0.6,1-0.7,2.7-0.9,4.2c-0.7,3.4-1.3,6.8-2,10.2
				c-0.1,0.3-0.2,0.5-0.3,0.8c-0.8,4.5-1.5,9.1-2.2,13.6c-0.1,0.5,0.2,1.1,0.3,1.7c0.4,2.4,0.7,4.8,1.3,7.1c0.7,2.8,0.8,5.5,0.3,8.3
				c-0.1,0.7-0.4,1.7-0.8,2.1c-1.5,1.1-1.8,3.2-2.1,5.1c-0.5,2.9-0.6,5.9-1.1,8.8c-0.2,1.2-0.6,2.6-1.2,3.5c-2,2.8-3.8,5.7-4.8,9.5
				c-0.6,2.2-1.9,3.7-3.7,4.4c-1.2,0.5-2.3,1.3-3.4,2.2c-0.7,0.6-1.4,1.4-1.7,2.3c-1.7,5.5-3.4,11.1-4.9,16.7
				c-0.4,1.7-0.3,3.7-0.1,5.6c0.9,12,1.3,24,3.1,35.9c0.7,4.6,2,8.7,3.3,12.9c1.2,3.6,2.2,7.3,3.2,11c1.1,4.1,3.7,5.3,6.5,5.8
				c2.3,0.3,3.7,1.9,4,5c0.1,1.2-0.2,1.9-1,2.1c-1.1,0.2-2.1,0.4-3.2,0.6c-1.6,0.3-3.2,0.5-4.8,0.7c-1.8,0.3-3.6,0.5-5.3,0.9
				c-1.2,0.3-2.3,0.8-3.4,1.3c-0.2,0.1-0.4,0.1-0.6,0.1c-2.6,0.3-5.3,0.5-7.9,0.7c-2.2,0.2-4.5,0.3-6.7,0.5c-0.8,0.1-1.5,1-2.3,1
				c-3,0.2-6,1.9-9.1,0.7c-2-0.7-3.9,1.1-5.9,1.7c-0.9,0.3-1.5,0.7-2.2-0.8C281.6,549.1,279.1,550.1,278.3,552.7z"/>
		</g>
	</g>
</g>
<g id="frame">
	<linearGradient id="SVGID_4_" gradientUnits="userSpaceOnUse" x1="122.8589" y1="414.1753" x2="467.8496" y2="414.1753">
		<stop  offset="0" style="stop-color:#0D3558"/>
		<stop  offset="1" style="stop-color:#93D5F6"/>
	</linearGradient>
	<path class="st7" d="M295.4,215l-172.5,99.6v199.2l172.5,99.6l172.5-99.6V314.6L295.4,215z M457.4,491.9l-11.1,0v-42.7h-42.7v42.7
		h-42.7v-42.7H318v42.7h-42.7v-42.7h-42.7v42.7h-42.7v-42.7h-42.7v42.7h-13.8c0,0,0,7.5,0,12.1V320.6l162.1-93.6l162.1,93.6V491.9z"
		/>
</g>
<g id="Mur" class="st0">
	<linearGradient id="SVGID_5_" gradientUnits="userSpaceOnUse" x1="133.3025" y1="525.2496" x2="457.4061" y2="525.2496">
		<stop  offset="0" style="stop-color:#0D3558"/>
		<stop  offset="1" style="stop-color:#93D5F6"/>
	</linearGradient>
	<polygon class="st8" points="457.4,491.9 457.4,507.7 295.4,601.3 133.3,507.7 133.3,491.9 147.1,491.9 147.1,449.2 189.8,449.2 
		189.8,491.9 232.5,491.9 232.5,449.2 275.3,449.2 275.3,491.9 318,491.9 318,449.2 360.8,449.2 360.8,491.9 403.5,491.9 
		403.5,449.2 446.3,449.2 446.3,491.9 	"/>
</g>
<g id="auk">
	<g>
		<text transform="matrix(1 0 0 1 237.501 390.9452)" class="st9 st10">auk</text>
	</g>
	<g>
		<text transform="matrix(1 0 0 1 237.8343 544.2784)" class="st9 st11">2018</text>
	</g>
</g>
<g id="Ren">
	<g>
		<text transform="matrix(1 0 0 1 150.5907 431.4292)" class="st9 st12">R</text>
	</g>
	<g>
		<text transform="matrix(1 0 0 1 341.5907 429.9023)" class="st9 st12">R</text>
	</g>
</g>
<g id="Rauk" class="st0">
	<g id="mQNGoU_1_" class="st5">
		<g>
			<path d="M282.6,497.1c-1.2-0.2-1.1-1.1-0.8-1.9c0.4-1,1.2-1.8,1.4-2.8c0.3-1.1,1.2-1.9,0.9-3.2c-0.2-0.8,0.3-1.7,0.4-2.5
				c0-0.5-0.3-1-0.5-1.4c-0.5-0.9-0.9-1.7-1.6-2.5c-0.5-0.6-1.3-1.1-1.9-1.7c-0.4-0.3-0.7-0.8-0.9-1.2c-0.5-1.8-0.7-3.6-1.2-5.4
				c-0.4-1.5-0.9-2.9-1.4-4.4c-0.1-0.2-0.3-0.5-0.4-0.5c-1.4,0-1.5-1.2-2-2.1c-0.5-0.9-1.1-1.8-1.8-2.6c-0.3-0.4-0.9-0.6-1.4-0.8
				c-1.2-0.3-2.4-0.4-3.6-0.7c-3.3-0.9-7.1-6.8-4.5-10.9c0.5-0.7,0.9-1.5,1.8-0.4c0.1,0.2,1.1,0,1.3-0.3c1.2-2.2,3.6-2.4,5.5-3
				c2-0.7,3.3-2.1,4.1-3.8c1.1-2.2,1.4-4.6,0.8-7.1c-0.4-1.6-0.1-3.4-0.2-5.1c0-1-0.5-2-0.1-2.8c0.7-1.7-0.3-2.8-0.7-4.2
				c-1.1-4.9-3.6-9.1-6-13.3c-0.4-0.6-0.3-1.7-0.1-2.4c0.3-1.2,0.6-2.2-0.6-3c-0.3-0.2-0.4-0.8-0.5-1.3c-0.2-2.7-0.4-5.5-0.4-8.2
				c0-1.3,0.4-2.6,0.6-4c0.3-2.3,0.4-4.6,0.7-6.8c0.1-0.9,0.5-1.7,1.5-2.1c0.6-0.2,1-0.9,1.3-1.5c0.1-0.1-0.7-0.7-1.1-1.1
				c-0.5-0.4-1.1-0.6-1.5-1c-1-1.3-0.9-2.3,0.2-3.6c1-1.2,0.9-1.7-0.2-2.6c-2.7-2.3-5-4.9-6.9-7.9c-1-1.5-1.9-3.1-2.7-4.7
				c-1-2-1.2-4.2,0-6.2c-1.6-1.4-2.4-3.4-1.7-5.1c0.8-1.8,2.3-2.4,4.3-1.9c0.1-0.1,0.2-0.2,0.3-0.3c-0.2-0.5-0.4-1.1-0.7-1.6
				c-0.6-0.9-1.2-1.8-1.9-2.6c-0.3-0.4-0.6-0.9-1.1-1.1c-3-1.2-3.4-3.9-4-6.5c0-0.1,0-0.2,0-0.3c-0.1-3.1-0.1-3.1,2.9-3.9
				c0.4-0.1,0.7-0.3,1.1-0.5c0.7-0.4,1.3-0.3,2.1-0.1c1.6,0.4,3.3,0.2,5,0.2c1,0,2.1,0.1,3.1-0.1c1.3-0.2,2.6-0.6,3.9-0.9
				c0.3-0.1,0.7-0.3,0.8-0.2c1,1.1,2.3,0.8,3.5,0.9c2.5,0.1,5.1,0.7,7.5-0.9c0.7-0.4,1.9-0.1,2.9-0.1c0.9,0,1.8,0,2.7,0.1
				c0.9,0.1,1.8,0.3,2.7,0.4c0.4,0.1,0.8,0.2,1.3,0.1c1.2-0.1,2.4-0.3,3.6-0.4c0.2,0,0.5,0.3,0.7,0.5c1,1,2.1,1.4,3.5,1.2
				c0.3,0,0.7,0,1,0c2.8,0.4,5.5,0.9,8.3,1.3c1.4,0.2,2.9,0.3,4.3,0.1c1.3-0.2,2.4,0,3.5,0.4c1.3,0.5,2.6,0.9,3.7,1.3
				c0.5,0.7,1,1.4,1.5,2c1.5,1.7,0.9,5-1.1,6c-1,0.5-2.1,1.1-3.1,1.6c-1.5,0.7-1.5,2.2-1.4,3.4c0.1,0.7,1.3,1.4,2.1,2
				c1.1,0.8,2.4,1.4,3.4,2.3c0.3,0.3,0.5,1.2,0.3,1.6c-0.7,1.7-1.7,3.3-2.5,5c-0.2,0.4-0.4,0.8-0.4,1.2c0,1.3,0,2.6,0.3,3.8
				c0.2,1,0.8,2.1,1.4,2.9c1.1,1.5,2.6,2.8,2,5.1c-0.3,1.1-0.1,2.3,0,3.4c0,0.4,0.4,1,0.8,1.1c1.2,0.4,2.5,0.3,3.5,0.9
				c1.6,1,3.5,1.9,4.1,4c0.6,2,0.6,3.8-0.9,5.5c-0.5,0.6-0.5,1.6-0.7,2.4c-0.5,2-1,4-1.6,5.9c0,0.2-0.2,0.3-0.2,0.5
				c-0.6,2.6-1.2,5.3-1.8,7.9c-0.1,0.3,0.1,0.7,0.2,1c0.3,1.4,0.6,2.8,1,4.1c0.5,1.6,0.7,3.2,0.3,4.8c-0.1,0.4-0.3,1-0.6,1.2
				c-1.2,0.7-1.4,1.8-1.7,3c-0.4,1.7-0.5,3.4-0.9,5.1c-0.2,0.7-0.5,1.5-1,2c-1.6,1.6-3,3.3-3.9,5.5c-0.5,1.3-1.5,2.2-2.9,2.6
				c-0.9,0.3-1.9,0.7-2.7,1.3c-0.5,0.3-1.1,0.8-1.4,1.4c-1.4,3.2-2.7,6.4-3.9,9.7c-0.3,1-0.2,2.2-0.1,3.2c0.7,7,1,13.9,2.5,20.8
				c0.6,2.7,1.6,5,2.6,7.5c0.9,2.1,1.8,4.3,2.6,6.4c0.9,2.4,2.9,3.1,5.2,3.3c1.9,0.2,2.9,1.1,3.2,2.9c0.1,0.7-0.1,1.1-0.8,1.2
				c-0.9,0.1-1.7,0.3-2.6,0.4c-1.3,0.2-2.6,0.3-3.9,0.4c-1.4,0.2-2.9,0.3-4.3,0.5c-0.9,0.2-1.8,0.5-2.7,0.7c-0.2,0-0.3,0-0.5,0.1
				c-2.1,0.1-4.2,0.3-6.3,0.4c-1.8,0.1-3.6,0.1-5.4,0.3c-0.6,0.1-1.2,0.6-1.8,0.6c-2.4,0.1-4.8,1.1-7.3,0.4c-1.6-0.4-3.1,0.6-4.7,1
				c-0.7,0.2-1.2,0.4-1.7-0.5C285.2,495,283.2,495.6,282.6,497.1z"/>
		</g>
	</g>
</g>
</svg>
