<?xml version="1.0" encoding="UTF-8" standalone="no"?>
<svg
   xmlns:dc="http://purl.org/dc/elements/1.1/"
   xmlns:cc="http://creativecommons.org/ns#"
   xmlns:rdf="http://www.w3.org/1999/02/22-rdf-syntax-ns#"
   xmlns:svg="http://www.w3.org/2000/svg"
   xmlns="http://www.w3.org/2000/svg"
   xmlns:sodipodi="http://sodipodi.sourceforge.net/DTD/sodipodi-0.dtd"
   xmlns:inkscape="http://www.inkscape.org/namespaces/inkscape"
   version="1.1"
   id="Layer_2"
   x="0px"
   y="0px"
   width="180.72066"
   height="209.35744"
   viewBox="0 0 180.72066 209.35744"
   enable-background="new 0 0 600 600"
   xml:space="preserve"
   inkscape:version="0.91 r13725"
   sodipodi:docname="react_complete.svg"><metadata
     id="metadata17"><rdf:RDF><cc:Work
         rdf:about=""><dc:format>image/svg+xml</dc:format><dc:type
           rdf:resource="http://purl.org/dc/dcmitype/StillImage" /><dc:title></dc:title></cc:Work></rdf:RDF></metadata><defs
     id="defs15"><clipPath
       clipPathUnits="userSpaceOnUse"
       id="clipPath4169"><path
         style="color:#000000;display:inline;overflow:visible;visibility:visible;fill:none;fill-opacity:1;fill-rule:nonzero;stroke:#0093d9;stroke-width:0.99999994;stroke-linecap:round;stroke-linejoin:miter;stroke-miterlimit:4;stroke-dasharray:1.99999991, 3.99999982;stroke-dashoffset:7.51718092;stroke-opacity:1;marker:none;enable-background:accumulate"
         d="m 232.91992,253.31055 c -28.93593,16.75501 -57.87241,33.50908 -86.80859,50.26367 -0.008,34.88607 -0.0198,69.77213 -0.0312,104.6582 30.10956,17.45866 60.21743,34.92024 90.32812,52.37696 30.12093,-17.43992 60.2407,-34.88184 90.36133,-52.32227 0.008,-34.88477 0.0198,-69.76953 0.0312,-104.6543 -30.10937,-17.4603 -60.21904,-34.92007 -90.32812,-52.38086 -1.18425,0.6862 -2.36849,1.3724 -3.55274,2.0586 z"
         id="path4171"
         inkscape:connector-curvature="0" /></clipPath></defs><sodipodi:namedview
     pagecolor="#ffffff"
     bordercolor="#666666"
     borderopacity="1"
     objecttolerance="10"
     gridtolerance="10"
     guidetolerance="10"
     inkscape:pageopacity="0"
     inkscape:pageshadow="2"
     inkscape:window-width="1366"
     inkscape:window-height="704"
     id="namedview13"
     showgrid="false"
     inkscape:zoom="2.2250293"
     inkscape:cx="68.353914"
     inkscape:cy="116.10641"
     inkscape:window-x="0"
     inkscape:window-y="27"
     inkscape:window-maximized="1"
     inkscape:current-layer="Layer_2"
     fit-margin-top="0"
     fit-margin-left="0"
     fit-margin-right="0"
     fit-margin-bottom="0" /><rect
     style="fill:#222222"
     y="236.41422"
     x="127.55485"
     width="224.52638"
     height="225.87469"
     id="rect3"
     clip-path="url(#clipPath4169)"
     transform="translate(-146.08013,-251.25195)" /><circle
     style="fill:#00d8ff"
     cx="90.360542"
     cy="101.95175"
     r="12.535113"
     id="circle5" /><path
     style="fill:none;stroke:#00d8ff;stroke-width:5.99682474;stroke-miterlimit:10"
     inkscape:connector-curvature="0"
     stroke-miterlimit="10"
     d="m 90.36054,76.34032 c 16.83009,0 32.46481,2.41498 44.25332,6.47333 14.20348,4.88966 22.93636,12.30173 22.93636,19.01318 0,6.99405 -9.25535,14.86788 -24.50778,19.92145 -11.53164,3.82073 -26.70561,5.81492 -42.6819,5.81492 -16.37982,0 -31.89061,-1.87201 -43.54944,-5.85715 -14.75369,-5.04283 -23.64023,-13.01885 -23.64023,-19.87922 0,-6.65698 8.33808,-14.01158 22.34192,-18.894 11.83248,-4.12506 27.85325,-6.59251 44.84775,-6.59251 z"
     id="path7" /><path
     style="fill:none;stroke:#00d8ff;stroke-width:5.99682474;stroke-miterlimit:10"
     inkscape:connector-curvature="0"
     stroke-miterlimit="10"
     d="m 68.22474,89.18886 c 8.4078,-14.57928 18.31055,-26.91675 27.71532,-35.10142 11.33151,-9.86128 22.11505,-13.72348 27.92897,-10.37076 6.05879,3.4939 8.25613,15.44533 5.01409,31.18249 -2.4512,11.8982 -8.3041,26.03922 -16.28538,39.87914 -8.18291,14.18949 -17.5532,26.69062 -26.83004,34.79957 -11.73903,10.26157 -23.08777,13.97485 -29.03088,10.54767 -5.76669,-3.32574 -7.97228,-14.22272 -5.20574,-28.79301 2.33751,-12.31098 8.20365,-27.42173 16.69366,-42.14368 z"
     id="path9" /><path
     style="fill:none;stroke:#00d8ff;stroke-width:5.99682474;stroke-miterlimit:10"
     inkscape:connector-curvature="0"
     stroke-miterlimit="10"
     d="M 68.10378,114.72582 C 59.67174,100.16053 53.92853,85.41959 51.53455,73.18406 48.65008,58.44212 50.6895,47.17059 56.49792,43.80812 c 6.0528,-3.50415 17.50449,0.5607 29.51937,11.22905 9.08419,8.06573 18.41225,20.19856 26.41677,34.02524 8.20665,14.17574 14.35764,28.53714 16.75013,40.62399 3.02764,15.29515 0.57694,26.98171 -5.36041,30.41889 -5.7612,3.33524 -16.30362,-0.19589 -27.54517,-9.86952 -9.49822,-8.17343 -19.66009,-20.80224 -28.17483,-35.50995 z"
     id="path11" /><path
     inkscape:transform-center-y="-1.5566024"
     inkscape:transform-center-x="0.34789098"
     d="m 211.60827,74.824 -0.0332,103.56153 -89.70351,51.75202 -89.670315,-51.80951 0.03319,-103.561527 89.703505,-51.752019 z"
     inkscape:randomized="0"
     inkscape:rounded="0"
     inkscape:flatsided="true"
     sodipodi:arg2="0.0003204856"
     sodipodi:arg1="-0.52327829"
     sodipodi:r2="103.56153"
     sodipodi:r1="103.56153"
     sodipodi:cy="126.57602"
     sodipodi:cx="121.90476"
     sodipodi:sides="6"
     id="path7936"
     style="color:#000000;display:inline;overflow:visible;visibility:visible;fill:none;fill-opacity:1;fill-rule:nonzero;stroke:#0093d9;stroke-width:1.16022968;stroke-linecap:round;stroke-linejoin:miter;stroke-miterlimit:4;stroke-dasharray:2.32045933, 4.64091866;stroke-dashoffset:7.51718092;stroke-opacity:1;marker:none;enable-background:accumulate"
     sodipodi:type="star"
     transform="matrix(0.86033583,0,0,0.86346357,-14.51849,-4.61353)" /></svg>