<svg id="Layer_1" data-name="Layer 1" xmlns="http://www.w3.org/2000/svg" xmlns:xlink="http://www.w3.org/1999/xlink" viewBox="0 0 735 852"><defs><style>.cls-1{fill:#ba6f38;}.cls-2{clip-path:url(#clip-path);}.cls-3{fill:#164f86;}.cls-4{fill:#14275b;}.cls-5{fill:#e6b35a;}.cls-6{fill:#fff;}.cls-7{fill:#ba3224;}.cls-8{fill:#b13728;}.cls-9{fill:#aa3729;}.cls-10{fill:#221819;}.cls-11{fill:#1a171b;opacity:0.1;}.cls-12{opacity:0.94;}</style><clipPath id="clip-path"><polygon class="cls-1" points="369.5 8 728.2 215.1 728.2 637.2 369.5 845.6 2.8 637.2 2.8 215.1 369.5 8"/></clipPath></defs><title>RStudio_Hex 2016 v7 outlines</title><polygon class="cls-1" points="369.5 8 728.2 215.1 728.2 637.2 369.5 845.6 2.8 637.2 2.8 215.1 369.5 8"/><g class="cls-2"><circle class="cls-3" cx="365.5" cy="438" r="442.1"/></g><path class="cls-4" d="M705.6,196.8L427.8,36.4,367.5,1.6,307.2,36.4,29.3,196.8,0.1,213.7V638l29.3,16.9L310.6,817.3l56.9,32.8,56.9-32.8L705.6,654.9,734.9,638V213.7Zm0,425.3L367.5,817.3,29.3,622.1V231.6L367.5,36.4h0L705.6,231.6V622.1Z"/><path class="cls-5" d="M367,637.9l0.9-.9h-0.3Z"/><path class="cls-6" d="M298.1,262.2q0-41.4,0-82.8a11.1,11.1,0,0,1,2.9-8,9.3,9.3,0,0,1,5.5-2.9,37.9,37.9,0,0,1,6.1-.3h72.6c2,0,2,0,2,2,0,12.2.2,24.3-.1,36.5a13.5,13.5,0,0,0,13.3,13.3h35.1a1,1,0,0,1,1.2,1.2c0,0.5,0,1,0,1.4q0,61,0,122a13.5,13.5,0,0,1-1,5.6c-1.7,3.9-4.8,5.7-8.9,6H309a11.2,11.2,0,0,1-5.7-1.3c-3.4-1.9-4.9-5-5.2-8.7,0-.6,0-1.2,0-1.8Q298.1,303.3,298.1,262.2Z"/><path class="cls-6" d="M394.3,168.6c14,14.7,28.2,29.2,42,44.2-0.2.7-.8,0.4-1.2,0.4H401.3a9.6,9.6,0,0,1-3-.4,6,6,0,0,1-4.5-6.1q0-17.3,0-34.7c0-.8,0-1.6,0-2.4A1,1,0,0,1,394.3,168.6Z"/><path class="cls-4" d="M367.6,291.8h47.7a2.7,2.7,0,0,1,2.7,2,12.2,12.2,0,0,1,.1,6.6,3,3,0,0,1-3.1,2.4H321.4c-4.1,0-5-1.5-5-4.9,0-.8,0-1.6,0-2.4,0.2-2.7,1.3-3.7,4-3.7h47.1Z"/><path class="cls-4" d="M415.3,317.5c1.8,0.2,2.6.8,2.9,2.5a13.1,13.1,0,0,1,0,6,3,3,0,0,1-3.1,2.5H319.5a3.1,3.1,0,0,1-2.8-2.5,17.2,17.2,0,0,1,0-5.9c0.3-1.7,1.2-2.4,3.1-2.5a3.8,3.8,0,0,0,2,.2h91.5A4,4,0,0,0,415.3,317.5Z"/><path class="cls-4" d="M319.4,277.1a2.7,2.7,0,0,1-2.7-2.5,15.4,15.4,0,0,1,0-5.7,3.2,3.2,0,0,1,3.3-2.8h94.6c2.4,0,3.6.9,3.9,3.3a13,13,0,0,1-.2,5.4c-0.5,1.6-1.1,2.1-2.9,2.3a4.2,4.2,0,0,0-2-.2H321.4A4.6,4.6,0,0,0,319.4,277.1Z"/><path class="cls-4" d="M349.2,251.6H320.8c-3.3-.1-4.3-1.1-4.4-4.5a26.5,26.5,0,0,1,.1-3.5c0.3-2.1,1.4-3.1,3.5-3.2H378c2.3,0.1,3.4,1.2,3.4,3.4s0.1,3,0,4.5a3.1,3.1,0,0,1-3.1,3.2H349.2Z"/><path class="cls-4" d="M379,215.1a2.7,2.7,0,0,1,2.4,2.8,43.2,43.2,0,0,1,0,5.1,3.1,3.1,0,0,1-2.8,3H321.3c-3.8,0-4.8-1-4.8-4.8a14,14,0,0,1,.2-3.9c0.3-1.2.9-2.1,2.3-2.2a3.5,3.5,0,0,0,1.8.2h56.4A3.1,3.1,0,0,0,379,215.1Z"/><path class="cls-7" d="M319.4,277.1a2.3,2.3,0,0,1,1.9-.4h92c0.7,0,1.4-.2,1.9.4H319.4Z"/><path class="cls-8" d="M415.3,317.5c-0.5.6-1.3,0.4-1.9,0.4H321.7c-0.7,0-1.4.2-1.9-.4h95.5Z"/><path class="cls-9" d="M379,215.1c-0.5.6-1.3,0.4-1.9,0.4H320.9a2.2,2.2,0,0,1-1.9-.4,5.6,5.6,0,0,1,2.2-.2h55.6A6.1,6.1,0,0,1,379,215.1Z"/><path class="cls-6" d="M268.2,625.1h46.3c0.9,0.2.8,0.9,0.8,1.6,0,8.2,0,16.5,0,24.7a1.7,1.7,0,0,1-2,2H270.6c-2.9,0-3.1-.2-3.1-3q0-11.4,0-22.7C267.6,626.7,267.3,625.7,268.2,625.1Z"/><path class="cls-6" d="M392.6,684.7H370.2a0.9,0.9,0,0,1-1.1-1.1c0-.1,0-0.2,0-0.4q0-12.4,0-24.9c0-1.4.1-1.4,1.4-1.5H414c2,0,2,0,2,2q0,12,0,24c0,1.8,0,1.8-1.8,1.8H392.6Z"/><path class="cls-6" d="M392.4,652.9H370.1a0.8,0.8,0,0,1-.9-1c0-.3,0-0.6,0-0.9q0-11.9,0-23.8c0-.2,0-0.5,0-0.7a1,1,0,0,1,1.2-1.3h44.7a0.9,0.9,0,0,1,.9,1c0,0.3,0,.6,0,0.9q0,11.8,0,23.6c0,1.9.5,2.2-2.1,2.2H392.4Z"/><path class="cls-6" d="M268.5,593.3h45.7a1.3,1.3,0,0,1,1.2,1.5q0,12.5,0,25.1a1.5,1.5,0,0,1-1.6,1.7H269.2a1.5,1.5,0,0,1-1.6-1.6q0-.5,0-1.1c0-7.7,0-15.4,0-23.1C267.5,594.9,267.3,593.8,268.5,593.3Z"/><path class="cls-6" d="M370.3,593.3h45.3a1.3,1.3,0,0,1,1.2,1.5q0,12.5,0,25.1c0,1.3-.7,1.4-1.7,1.4h-44c-1.5,0-2-.5-2-1.9,0.1-8,0-16,0-24C369.1,594.4,369,593.5,370.3,593.3Z"/><path class="cls-6" d="M443.7,656.9H466a0.8,0.8,0,0,1,.8.8c0,0.2,0,.5,0,0.7,0,8,0,16,0,24,0,2.2-.1,2.2-2.3,2.2H422c-2,0-2,0-2-2q0-11.9,0-23.8c0-.4,0-0.7,0-1.1a0.8,0.8,0,0,1,.9-0.9h22.7Z"/><path class="cls-6" d="M420.9,625.1h46c0.6,0.2.6,0.6,0.6,1.1-0.2,8.3-.1,16.6-0.1,24.9,0,2-.2,2.2-2.2,2.3H422.9c-2.7,0-2.8-.1-2.8-2.9q0-11.6,0-23.3C420.1,626.4,419.7,625.4,420.9,625.1Z"/><path class="cls-6" d="M421.2,593.3h45.3c0.8,0.2.8,0.9,0.8,1.6,0,8.3,0,16.6,0,24.9a1.5,1.5,0,0,1-1.7,1.8h-44a1.5,1.5,0,0,1-1.7-1.7q0-12.5,0-25.1A1.3,1.3,0,0,1,421.2,593.3Z"/><path class="cls-6" d="M319.4,593.3h45.3c1.3,0.2,1.3,1.2,1.3,2.2,0,3.7,0,7.3,0,11s0,8.4,0,12.6c0,2-.1,2.1-2.1,2.1H320.5c-1.4,0-1.9-.4-1.9-1.8,0-8.1,0-16.2,0-24.3C318.6,594.4,318.5,593.6,319.4,593.3Z"/><path class="cls-4" d="M268.1,561.5h43.1c3.7,0,3.7,0,3.7,3.6q0,11.1,0,22.2c0,2.2,0,2.2-2.1,2.2H270.4a3.8,3.8,0,0,0-1.9.2h-0.3c-0.7-.3-0.6-1-0.6-1.6q0-12.5,0-25C267.5,562.5,267.4,561.8,268.1,561.5Z"/><path class="cls-4" d="M392.5,589.3H370.1a0.8,0.8,0,0,1-1-1c0-.4,0-0.7,0-1.1q0-11.7,0-23.5c0-.4,0-0.7,0-1.1a0.8,0.8,0,0,1,.9-0.9h43.8c2.2,0,2.2,0,2.2,2.1q0,11.6,0,23.3c0,0.4,0,.8,0,1.3a0.7,0.7,0,0,1-.8.8H392.5Z"/><path class="cls-4" d="M341.7,561.8h22.4a0.9,0.9,0,0,1,1.1,1.1c0,0.3,0,.6,0,0.9q0,11.7,0,23.5c0,0.4,0,.7,0,1.1a0.8,0.8,0,0,1-1,1H319.9c-1.3-.1-1.3-0.1-1.4-1.3s0-3,0-4.5q0-9.7,0-19.3c0-.5,0-1,0-1.4a0.8,0.8,0,0,1,.9-0.9h22.2Z"/><path class="cls-4" d="M466.8,562.1a11.5,11.5,0,0,0-.2,3.2c0.1,7.7-.1,15.4.1,23.1a0.7,0.7,0,0,1-.7.8H422.2c-2.3,0-2.2.1-2.2-2.1q0-11.6,0-23.3c0-.4,0-0.8,0-1.3a0.7,0.7,0,0,1,.8-0.8h44.4A2.7,2.7,0,0,1,466.8,562.1Z"/><path class="cls-6" d="M341.8,684.7H319.9c-1.3,0-1.3,0-1.3-1.3,0-3.1,0-6.3,0-9.4q0-7.8,0-15.5c0-1.5,0-1.5,1.5-1.5h43.5c1.7,0,1.7,0,1.7,1.7q0,12.2,0,24.4c0,1.7,0,1.7-1.7,1.7H341.8Z"/><path class="cls-6" d="M341.9,652.9H319.6a0.8,0.8,0,0,1-1-.9c0-.3,0-0.6,0-0.9q0-12,0-24c0-.3,0-0.6,0-0.9a0.9,0.9,0,0,1,.9-1h44.2c1.5,0,1.6.1,1.6,1.5q0,12.4,0,24.7c0,1.5,0,1.5-1.7,1.5H341.9Z"/><path class="cls-6" d="M267.6,656.9H312c2.8,0,2.4,0,2.4,2.4q0,11.5,0,23.1c0,0.4,0,.8,0,1.3a0.8,0.8,0,0,1-1,1H269.2c-1.7,0-1.7,0-1.7-1.7s0-5.2,0-7.8q0-8.2,0-16.4c0-.7.1-1.3,0.1-2h0Z"/><path class="cls-10" d="M397,503.4a6,6,0,0,0-2.1,4.5v44.9H340.1V507.9a6,6,0,0,0-2.1-4.5L211.5,326H523.4Z"/><path class="cls-4" d="M337.9,503.4a6,6,0,0,1,2.1,4.5v44.9h54.9V507.9a6,6,0,0,1,2.1-4.5L523.4,326H211.5Z"/><path class="cls-11" d="M499.6,326L373.3,503.4a6,6,0,0,0-2.1,4.5v7.2l-31.1,16v21.8h54.9V507.9a6,6,0,0,1,2.1-4.5L523.4,326H499.6Z"/><g class="cls-12"><path class="cls-6" d="M208.8,419.4c0-10.1-.2-18.8-0.7-26.8H221l0.5,16.9h0.7c3.7-11.6,12.6-18.8,22.5-18.8a15.1,15.1,0,0,1,4.2.5v14.8a21,21,0,0,0-5-.5c-10.4,0-17.8,8.4-19.8,20.1a46.6,46.6,0,0,0-.7,7.3v45.9H208.8V419.4Z"/><path class="cls-6" d="M266.8,438.4c0.3,21.2,13.1,29.9,27.8,29.9,10.6,0,16.9-2,22.5-4.4l2.5,11.2c-5.2,2.5-14.1,5.5-27,5.5-25,0-39.9-17.6-39.9-43.6s14.4-46.4,38.1-46.4c26.5,0,33.5,24.7,33.5,40.5a62.4,62.4,0,0,1-.5,7.3h-57Zm43.3-11.2c0.2-10-3.9-25.4-20.5-25.4-14.9,0-21.5,14.6-22.6,25.4h43.1Z"/><path class="cls-6" d="M394.2,458a128.3,128.3,0,0,0,1.3,20.6H382.2L381,467.8h-0.5a29.7,29.7,0,0,1-24.8,12.8c-16.4,0-24.8-12.3-24.8-24.7,0-20.8,17.4-32.2,48.8-32v-1.8c0-7.1-1.8-19.9-18.4-19.9a38.8,38.8,0,0,0-21.1,6.4l-3.4-10.3c6.7-4.6,16.4-7.6,26.7-7.6,24.8,0,30.9,18,30.9,35.2V458ZM380,434.7c-16.1-.4-34.4,2.7-34.4,19.4,0,10.1,6.4,14.9,13.9,14.9a20.3,20.3,0,0,0,19.6-14.4,17.2,17.2,0,0,0,.8-5V434.7Z"/><path class="cls-6" d="M482.8,352.4v104c0,7.6.2,16.4,0.7,22.2H470.2l-0.7-14.9h-0.3c-4.5,9.6-14.4,16.9-27.7,16.9-19.6,0-34.7-17.6-34.7-43.7-0.2-28.6,16.6-46.2,36.4-46.2,12.4,0,20.8,6.2,24.5,13.2H468V352.4h14.8ZM468,427.6a29.3,29.3,0,0,0-.7-6.6c-2.2-10-10.2-18.1-21.3-18.1-15.3,0-24.3,14.2-24.3,33.2,0,17.4,8.1,31.8,24,31.8,9.9,0,19-6.9,21.6-18.7a28.8,28.8,0,0,0,.7-6.8V427.6Z"/><path class="cls-6" d="M501.9,419.4c0-10.1-.2-18.8-0.7-26.8h12.9l0.5,16.9h0.7c3.7-11.6,12.6-18.8,22.5-18.8a15.1,15.1,0,0,1,4.2.5v14.8a21,21,0,0,0-5-.5c-10.4,0-17.8,8.4-19.8,20.1a46.8,46.8,0,0,0-.7,7.3v45.9H501.9V419.4Z"/></g><path class="cls-6" d="M365.5,797.9l4.5,4.5,2.7,2.9h0.1c-0.4-1.2-.7-2.5-1-3.9l-1.4-6.3,1.6-.9,4.7,4.3,2.9,2.9h0.1a36.7,36.7,0,0,1-1.2-3.9l-1.6-6.1,1.9-1.1,2.7,12.4-1.7,1-4.5-4.1a40.3,40.3,0,0,1-2.9-2.9h0a35.8,35.8,0,0,1,1.1,4l1.2,5.9-1.7,1-9.2-8.6Z"/><path class="cls-6" d="M381.7,788.5l4.5,4.5,2.7,2.9h0.1c-0.4-1.2-.7-2.5-1-3.9l-1.4-6.3,1.6-.9,4.7,4.3,2.9,2.9h0.1a36.5,36.5,0,0,1-1.2-3.9l-1.6-6.1,1.9-1.1,2.7,12.4-1.7,1-4.5-4.1a40.9,40.9,0,0,1-2.9-2.9h0a35.4,35.4,0,0,1,1.1,4l1.2,5.9-1.7,1-9.2-8.6Z"/><path class="cls-6" d="M397.8,779.1l4.5,4.5,2.7,2.9h0.1c-0.4-1.2-.7-2.5-1-3.9l-1.4-6.3,1.6-.9,4.7,4.3,2.9,2.9h0.1a36.3,36.3,0,0,1-1.2-3.9l-1.6-6.1,1.9-1.1,2.7,12.4-1.7,1-4.5-4.1a40.5,40.5,0,0,1-2.9-2.9h0a35.4,35.4,0,0,1,1.1,4l1.2,5.9-1.7,1-9.2-8.6Z"/><path class="cls-6" d="M419.2,781a1.6,1.6,0,1,1,.5-2.1,1.5,1.5,0,0,1-.5,2.1h0Z"/><path class="cls-6" d="M418.5,771.4l-2-3.2,1.7-1,1.3,2h0.1a3.6,3.6,0,0,1,1.6-4l0.6-.2,1,1.8-0.7.3a3.1,3.1,0,0,0-1.1,3.9l0.4,0.9,3.2,5.6-1.9,1.1Z"/><path class="cls-6" d="M428.4,772.7a5.8,5.8,0,0,0,2.9-.7c1.4-.8,1.6-1.9,1.1-2.7s-1.4-1.1-3.1-.8-3.8-.1-4.5-1.4-0.4-3.9,1.8-5.2a6,6,0,0,1,2.9-.8l0.3,1.7a4.7,4.7,0,0,0-2.5.6,1.8,1.8,0,0,0-.9,2.4c0.5,0.9,1.4.9,3,.6s3.7,0,4.6,1.6,0.4,4-2.1,5.4a6.9,6.9,0,0,1-3.4,1Z"/><path class="cls-6" d="M433.1,755.2l1.5,2.5,2.7-1.6,0.8,1.4-2.7,1.6,3.3,5.6c0.8,1.3,1.6,1.8,2.6,1.2l1-.8,0.9,1.4a5.3,5.3,0,0,1-1.5,1.3,3.1,3.1,0,0,1-2.5.4,4.5,4.5,0,0,1-2.3-2.3l-3.3-5.7-1.6.9-0.8-1.4,1.6-.9-1.1-1.9Z"/><path class="cls-6" d="M452.5,757.4l1.7,2.8-1.7,1-1.1-1.6h0a4.6,4.6,0,0,1-2.3,4c-1.6,1-4.1,1.2-6.3-2.5l-3.6-6.1,1.9-1.1,3.4,5.8c1.2,2,2.5,3,4.3,2a3.2,3.2,0,0,0,1.5-3.2,3.2,3.2,0,0,0-.4-1.1l-3.7-6.4,1.9-1.1Z"/><path class="cls-6" d="M457.5,737.8l7.4,12.6,1.7,2.6-1.7,1-1.1-1.8h0a4.5,4.5,0,0,1-2.4,4.1c-2.5,1.5-5.7.5-7.6-2.7s-1.1-6.9,1.4-8.3a4,4,0,0,1,4.1-.2h0l-3.6-6.2Zm3.4,10.2-0.6-.7a3.2,3.2,0,0,0-4-.6c-2,1.1-2.1,3.6-.8,5.9s3.3,3.3,5.3,2.1a3.3,3.3,0,0,0,1.5-3.9,3.7,3.7,0,0,0-.4-0.9Z"/><path class="cls-6" d="M463.9,736.7a1.4,1.4,0,0,1-2.4,1.4,1.3,1.3,0,0,1,.5-1.9A1.3,1.3,0,0,1,463.9,736.7Zm5.7,14.6-6.1-10.5,1.9-1.1,6.1,10.5Z"/><path class="cls-6" d="M481,737.5c2.3,3.9.6,7.1-2,8.6s-6.2.8-8.1-2.5-0.9-6.9,1.9-8.6S479.1,734.3,481,737.5Zm-8.2,4.9c1.3,2.3,3.7,3.3,5.5,2.2s2.2-3.6.8-5.9-3.2-3.5-5.5-2.2S471.6,740.5,472.7,742.5Z"/><path class="cls-6" d="M486.9,741.5a1.6,1.6,0,1,1,.5-2.1,1.5,1.5,0,0,1-.5,2.1h0Z"/><path class="cls-6" d="M497.6,734.4a8.1,8.1,0,0,1-2.6,2.4c-3.2,1.8-6.5.9-8.3-2.3a6.1,6.1,0,0,1,2.4-8.8,7.3,7.3,0,0,1,2.9-1l0.4,1.7a5.1,5.1,0,0,0-2.5.8c-2.4,1.4-2.7,3.9-1.4,6.1s3.8,3,5.9,1.8a6.2,6.2,0,0,0,2-1.9Z"/><path class="cls-6" d="M506.3,722.8c2.3,3.9.6,7.1-2,8.6s-6.2.8-8.1-2.5-0.9-6.9,2-8.6S504.5,719.6,506.3,722.8Zm-8.2,4.9c1.3,2.3,3.7,3.2,5.5,2.2s2.2-3.6.8-5.9-3.2-3.5-5.5-2.2S496.9,725.7,498.1,727.7Z"/><path class="cls-6" d="M507.4,719.1l-1.7-2.8,1.7-1,1.1,1.6h0.1a4.2,4.2,0,0,1,2.2-3.8,3.6,3.6,0,0,1,4.2.4h0a5,5,0,0,1,.4-2,4.1,4.1,0,0,1,1.9-2.1c1.4-.8,4-1.1,6.1,2.5l3.6,6.2-1.9,1.1-3.4-5.9c-1.2-2-2.6-2.8-4.1-1.9a2.9,2.9,0,0,0-1.2,3,3.7,3.7,0,0,0,.4,1l3.8,6.5-1.9,1.1-3.6-6.3c-1-1.7-2.4-2.4-3.9-1.6a3,3,0,0,0-1.2,3.3,3,3,0,0,0,.4,1l3.7,6.3-1.9,1.1Z"/></svg>