<?xml version="1.0" encoding="utf-8"?>
<!-- Generator: Adobe Illustrator 19.1.0, SVG Export Plug-In . SVG Version: 6.00 Build 0)  -->
<svg version="1.1" id="Layer_1" xmlns="http://www.w3.org/2000/svg" xmlns:xlink="http://www.w3.org/1999/xlink" x="0px" y="0px"
	 viewBox="0 0 181 209" style="enable-background:new 0 0 181 209;" xml:space="preserve">
<style type="text/css">
	.st0{fill:#FFFFFF;}
	.st1{fill:#00B0D0;}
</style>
<polygon class="st0" points="0,52.2 90.5,0 181,52.2 181,156.8 90.5,209 0,156.8 "/>
<polygon class="st1" points="7.5,56.6 90.5,8.7 173.5,56.6 173.5,152.4 90.5,200.3 7.5,152.4 "/>
<g>
	<path class="st0" d="M98.5,142.1c-6.2-3.4-13.6-2.3-18.6,2.2l-17.3-9.5c1.1-6.6-2-13.4-8.2-16.8c-7.8-4.3-17.6-1.4-21.9,6.4
		c-4.3,7.8-1.4,17.6,6.4,21.9c6.2,3.4,13.6,2.3,18.6-2.2l17.3,9.5c-1.1,6.6,2,13.4,8.2,16.8c7.8,4.3,17.6,1.4,21.9-6.4
		S106.3,146.4,98.5,142.1z M87,163c-3.7-2-5.1-6.7-3.1-10.5s6.7-5.1,10.5-3.1c3.7,2,5.1,6.7,3.1,10.5S90.8,165.1,87,163z"/>
	<path class="st0" d="M138,112.1c-6.2-3.4-13.7-2.3-18.6,2.2L66.7,85.5c1.2-6.6-1.9-13.6-8.1-17c-7.8-4.3-17.6-1.4-21.9,6.4
		c-4.3,7.8-1.4,17.6,6.4,21.9c6.1,3.4,13.5,2.3,18.4-2.1l52.9,28.9c-1.1,6.6,2,13.4,8.2,16.7c7.8,4.3,17.6,1.4,21.9-6.4
		C148.7,126.2,145.8,116.4,138,112.1z M47.1,89.4c-3.7-2-5.1-6.7-3.1-10.5c2-3.7,6.7-5.1,10.5-3.1c3.7,2,5.1,6.7,3.1,10.5
		C55.5,90.1,50.8,91.5,47.1,89.4z"/>
	<path class="st0" d="M142,62.6c-6.2-3.4-13.6-2.3-18.6,2.2l-17.3-9.5c1.1-6.6-2-13.4-8.2-16.8c-7.8-4.3-17.6-1.4-21.9,6.4
		c-4.3,7.8-1.4,17.6,6.4,21.9c6.2,3.4,13.6,2.3,18.6-2.2l17.3,9.5c-1.1,6.6,2,13.4,8.2,16.8c7.8,4.3,17.6,1.4,21.9-6.4
		C152.7,76.7,149.8,66.9,142,62.6z M130.5,83.5c-3.7-2-5.1-6.7-3.1-10.5c2-3.7,6.7-5.1,10.5-3.1c3.7,2,5.1,6.7,3.1,10.5
		S134.2,85.5,130.5,83.5z"/>
</g>
<g>
	<path class="st1" d="M492.9,133.1c0-0.2,0.1-0.3,0.2-0.4c0.1-0.1,0.3-0.2,0.4-0.2c0.2,0,0.3,0.1,0.4,0.2c0.1,0.1,0.2,0.2,0.2,0.4
		v0.4l0.1-0.3c0.2-0.2,0.3-0.4,0.5-0.5c0.2-0.1,0.4-0.2,0.8-0.2c0.2,0,0.4,0.1,0.5,0.2s0.2,0.3,0.2,0.5c0,0.2-0.1,0.4-0.3,0.5
		l-0.2,0.1l-0.1,0.1l-0.3,0.1c-0.2,0-0.4,0.1-0.5,0.2c-0.2,0.2-0.4,0.4-0.6,0.7c-0.1,0.2-0.2,0.5-0.2,0.9v2.9c0,0.2-0.1,0.3-0.2,0.4
		c-0.1,0.1-0.3,0.2-0.4,0.2c-0.2,0-0.3-0.1-0.4-0.2c-0.1-0.1-0.2-0.3-0.2-0.4V133.1z"/>
	<path class="st1" d="M499.2,136.2c0,0.1,0,0.1,0,0.2c0,0.1,0.1,0.2,0.2,0.5c0.1,0.3,0.4,0.5,0.7,0.8c0.3,0.2,0.6,0.3,1,0.3
		c0.3,0,0.6-0.1,0.8-0.2c0.1-0.1,0.3-0.2,0.5-0.3l0.4-0.3c0.1,0,0.2-0.1,0.3-0.1h0.1c0.3,0.1,0.4,0.2,0.4,0.5c0,0.2-0.1,0.4-0.4,0.6
		c-0.3,0.3-0.7,0.4-1.1,0.6c-0.1,0.1-0.3,0.1-0.6,0.2h-0.6c-0.6,0-1.1-0.2-1.7-0.6c-0.6-0.4-0.9-0.9-1.1-1.4
		c-0.2-0.4-0.3-0.9-0.3-1.4c0-0.7,0.2-1.4,0.7-2c0.4-0.5,0.8-0.8,1.4-1c0.4-0.2,0.8-0.2,1.2-0.2c0.7,0,1.3,0.2,1.8,0.6
		c0.5,0.4,0.9,0.9,1,1.3c0.2,0.5,0.2,0.8,0.2,1.1c0,0.3,0,0.5-0.1,0.6s-0.3,0.2-0.6,0.2H499.2z M503,135.3l-0.1-0.3
		c-0.1-0.4-0.3-0.7-0.6-1s-0.6-0.5-1.1-0.6c-0.1,0-0.4,0-0.8,0.1c-0.3,0.1-0.6,0.4-1,0.8c0,0.1-0.1,0.3-0.2,0.6l-0.1,0.3H503z"/>
	<path class="st1" d="M512.6,135.8c0,0.9-0.3,1.7-1,2.4c-0.7,0.7-1.5,1-2.4,1c-0.1,0-0.4,0-0.7-0.1c-0.6-0.1-1-0.3-1.4-0.8v2.7
		c0,0.2-0.1,0.3-0.2,0.4s-0.3,0.2-0.4,0.2c-0.2,0-0.3-0.1-0.4-0.2s-0.2-0.3-0.2-0.4v-2.4c0,0,0-0.1,0-0.1v-5.4
		c0-0.2,0.1-0.3,0.2-0.4c0.1-0.1,0.3-0.2,0.4-0.2h0h0c0.2,0,0.3,0,0.4,0.1c0.1,0.1,0.2,0.2,0.2,0.4v0.3c0,0,0.1-0.1,0.1-0.1
		c0.4-0.5,1-0.7,1.7-0.7c0.1,0,0.1,0,0.2,0c0.1,0,0.1,0,0.2,0c0.9,0,1.7,0.3,2.4,1C512.2,134.1,512.6,134.9,512.6,135.8z
		 M511.3,135.7c0-0.6-0.2-1.1-0.6-1.6s-0.9-0.6-1.5-0.6c-0.6,0-1.2,0.2-1.6,0.6c-0.4,0.4-0.6,0.9-0.6,1.6c0,0.7,0.2,1.3,0.6,1.7
		c0.4,0.4,0.9,0.7,1.6,0.7c0.6,0,1.1-0.2,1.5-0.7S511.3,136.3,511.3,135.7z"/>
	<path class="st1" d="M517.2,132.4c1,0,1.8,0.3,2.4,1c0.6,0.6,0.9,1.4,0.9,2.4c0,0.9-0.3,1.7-0.9,2.4s-1.4,0.9-2.3,0.9
		c-1,0-1.8-0.3-2.4-0.9s-0.9-1.4-0.9-2.4c0-1,0.3-1.8,0.9-2.4S516.3,132.4,517.2,132.4z M517.2,138c0.6,0,1.1-0.2,1.5-0.6
		c0.4-0.4,0.6-0.9,0.6-1.6c0-0.7-0.2-1.3-0.6-1.7c-0.4-0.4-0.9-0.6-1.5-0.6c-0.6,0-1.1,0.2-1.5,0.6c-0.4,0.4-0.6,0.9-0.6,1.6
		c0,0.7,0.2,1.3,0.6,1.7S516.6,138,517.2,138z"/>
	<path class="st1" d="M522.1,137.7c0.1-0.3,0.3-0.5,0.5-0.5c0.1,0,0.3,0,0.4,0.1l0.2,0.1l0.2,0.1c0.4,0.3,0.8,0.4,1.2,0.4
		c0.3,0,0.5-0.1,0.7-0.2c0.2-0.2,0.4-0.4,0.4-0.6c0-0.3-0.3-0.6-0.9-0.9L524,136l-0.4-0.2c-0.8-0.4-1.2-0.8-1.2-1.5v-0.2
		c0.1-0.5,0.2-0.7,0.2-0.7c0.1-0.2,0.3-0.3,0.6-0.6c0.4-0.3,0.9-0.4,1.5-0.4h0.2c0.2,0,0.5,0.1,0.9,0.2c0.7,0.3,1,0.6,1,0.8
		c0,0.2,0,0.3-0.1,0.4c-0.1,0.1-0.2,0.2-0.4,0.2c-0.1,0-0.2,0-0.4-0.1l-0.1,0l-0.2-0.1l-0.2-0.1c-0.2-0.1-0.5-0.2-0.8-0.2
		c-0.2,0-0.4,0-0.5,0.1c-0.2,0.1-0.3,0.2-0.4,0.4c0,0.1-0.1,0.2-0.1,0.3c0,0.2,0.2,0.5,0.7,0.7c0.1,0,0.2,0.1,0.5,0.2l0.2,0.1
		l0.4,0.2c0.3,0.1,0.6,0.3,0.9,0.5c0.4,0.2,0.6,0.7,0.6,1.3c0,0.5-0.3,1-0.9,1.5c-0.4,0.3-0.9,0.4-1.6,0.4c-0.1,0-0.2,0-0.5,0
		c-0.2,0-0.5-0.1-0.8-0.2c-0.3-0.1-0.5-0.3-0.7-0.4c-0.2-0.2-0.3-0.3-0.3-0.5C522.1,137.8,522.1,137.7,522.1,137.7z"/>
	<path class="st1" d="M529.6,130.2c0.2,0,0.4,0.1,0.5,0.2c0.1,0.2,0.2,0.3,0.2,0.6c0,0.2-0.1,0.4-0.2,0.5c-0.1,0.1-0.3,0.2-0.5,0.2
		c-0.2,0-0.4-0.1-0.5-0.2c-0.1-0.1-0.2-0.3-0.2-0.5c0-0.2,0.1-0.4,0.2-0.6C529.2,130.3,529.4,130.2,529.6,130.2z M529,133.1
		c0-0.2,0.1-0.3,0.2-0.5s0.3-0.2,0.5-0.2c0.2,0,0.3,0.1,0.4,0.2s0.2,0.3,0.2,0.4v5.4c0,0.2-0.1,0.3-0.2,0.4
		c-0.1,0.1-0.3,0.2-0.5,0.2c-0.2,0-0.3-0.1-0.4-0.2c-0.1-0.1-0.2-0.3-0.2-0.4V133.1z"/>
	<path class="st1" d="M533.2,132.5v-1.3c0-0.2,0.1-0.3,0.2-0.5c0.1-0.1,0.3-0.2,0.4-0.2s0.3,0.1,0.4,0.2c0.1,0.1,0.2,0.3,0.2,0.5
		v1.3h0.6c0.2,0,0.3,0.1,0.4,0.2c0.1,0.1,0.2,0.2,0.2,0.4c0,0.2-0.1,0.3-0.2,0.4c-0.1,0.1-0.3,0.2-0.4,0.2h-0.5v4.8
		c0,0.2-0.1,0.3-0.2,0.4c-0.1,0.1-0.3,0.2-0.4,0.2c-0.2,0-0.3-0.1-0.4-0.2c-0.1-0.1-0.2-0.3-0.2-0.4v-4.8h-0.4
		c-0.2,0-0.3-0.1-0.4-0.2c-0.1-0.1-0.2-0.2-0.2-0.4c0-0.2,0.1-0.3,0.2-0.4c0.1-0.1,0.3-0.2,0.4-0.2H533.2z"/>
	<path class="st1" d="M538.4,130.2c0.2,0,0.4,0.1,0.5,0.2c0.1,0.2,0.2,0.3,0.2,0.6c0,0.2-0.1,0.4-0.2,0.5c-0.1,0.1-0.3,0.2-0.5,0.2
		c-0.2,0-0.4-0.1-0.5-0.2c-0.1-0.1-0.2-0.3-0.2-0.5c0-0.2,0.1-0.4,0.2-0.6C538,130.3,538.2,130.2,538.4,130.2z M537.7,133.1
		c0-0.2,0.1-0.3,0.2-0.5s0.3-0.2,0.5-0.2c0.2,0,0.3,0.1,0.4,0.2s0.2,0.3,0.2,0.4v5.4c0,0.2-0.1,0.3-0.2,0.4
		c-0.1,0.1-0.3,0.2-0.5,0.2c-0.2,0-0.3-0.1-0.4-0.2c-0.1-0.1-0.2-0.3-0.2-0.4V133.1z"/>
	<path class="st1" d="M543.6,137.1l1.4-4.2l0.1-0.2c0.1-0.1,0.3-0.2,0.5-0.2c0.2,0,0.3,0.1,0.5,0.2s0.2,0.3,0.2,0.5
		c0,0.1,0,0.2,0,0.2l-1.9,5.2c-0.1,0.3-0.3,0.5-0.6,0.5c-0.4,0-0.6-0.2-0.7-0.5l-1.9-5.2c0-0.1,0-0.1,0-0.2c0-0.2,0.1-0.3,0.2-0.5
		s0.3-0.2,0.5-0.2c0.2,0,0.3,0.1,0.4,0.2l0.1,0.3L543.6,137.1z"/>
	<path class="st1" d="M549.2,136.2c0,0.1,0,0.1,0,0.2c0,0.1,0.1,0.2,0.2,0.5c0.1,0.3,0.4,0.5,0.7,0.8c0.3,0.2,0.6,0.3,1,0.3
		c0.3,0,0.6-0.1,0.8-0.2c0.1-0.1,0.3-0.2,0.5-0.3l0.4-0.3c0.1,0,0.2-0.1,0.3-0.1h0.1c0.3,0.1,0.4,0.2,0.4,0.5c0,0.2-0.1,0.4-0.4,0.6
		c-0.3,0.3-0.7,0.4-1.1,0.6c-0.1,0.1-0.3,0.1-0.6,0.2h-0.6c-0.6,0-1.1-0.2-1.7-0.6c-0.6-0.4-0.9-0.9-1.1-1.4
		c-0.2-0.4-0.3-0.9-0.3-1.4c0-0.7,0.2-1.4,0.7-2c0.4-0.5,0.8-0.8,1.4-1c0.4-0.2,0.8-0.2,1.2-0.2c0.7,0,1.3,0.2,1.8,0.6
		c0.5,0.4,0.9,0.9,1,1.3c0.2,0.5,0.2,0.8,0.2,1.1c0,0.3,0,0.5-0.1,0.6s-0.3,0.2-0.6,0.2H549.2z M552.9,135.3l-0.1-0.3
		c-0.1-0.4-0.3-0.7-0.6-1s-0.6-0.5-1.1-0.6c-0.1,0-0.4,0-0.8,0.1c-0.3,0.1-0.6,0.4-1,0.8c0,0.1-0.1,0.3-0.2,0.6l-0.1,0.3H552.9z"/>
	<path class="st1" d="M556.5,137.6c0.2,0,0.4,0.1,0.5,0.2c0.1,0.1,0.2,0.3,0.2,0.5c0,0.2-0.1,0.4-0.2,0.5c-0.1,0.1-0.3,0.2-0.5,0.2
		c-0.2,0-0.4-0.1-0.5-0.2c-0.1-0.1-0.2-0.3-0.2-0.5s0.1-0.4,0.2-0.5C556.1,137.7,556.3,137.6,556.5,137.6z"/>
	<path class="st1" d="M560.3,130.2c0.2,0,0.4,0.1,0.5,0.2c0.1,0.2,0.2,0.3,0.2,0.6c0,0.2-0.1,0.4-0.2,0.5c-0.1,0.1-0.3,0.2-0.5,0.2
		c-0.2,0-0.4-0.1-0.5-0.2c-0.1-0.1-0.2-0.3-0.2-0.5c0-0.2,0.1-0.4,0.2-0.6C559.9,130.3,560.1,130.2,560.3,130.2z M559.6,133.1
		c0-0.2,0.1-0.3,0.2-0.5s0.3-0.2,0.5-0.2c0.2,0,0.3,0.1,0.4,0.2s0.2,0.3,0.2,0.4v5.4c0,0.2-0.1,0.3-0.2,0.4
		c-0.1,0.1-0.3,0.2-0.5,0.2c-0.2,0-0.3-0.1-0.4-0.2c-0.1-0.1-0.2-0.3-0.2-0.4V133.1z"/>
	<path class="st1" d="M566.1,132.4c1,0,1.8,0.3,2.4,1c0.6,0.6,0.9,1.4,0.9,2.4c0,0.9-0.3,1.7-0.9,2.4s-1.4,0.9-2.3,0.9
		c-1,0-1.8-0.3-2.4-0.9s-0.9-1.4-0.9-2.4c0-1,0.3-1.8,0.9-2.4S565.1,132.4,566.1,132.4z M566.1,138c0.6,0,1.1-0.2,1.5-0.6
		c0.4-0.4,0.6-0.9,0.6-1.6c0-0.7-0.2-1.3-0.6-1.7c-0.4-0.4-0.9-0.6-1.5-0.6c-0.6,0-1.1,0.2-1.5,0.6c-0.4,0.4-0.6,0.9-0.6,1.6
		c0,0.7,0.2,1.3,0.6,1.7S565.5,138,566.1,138z"/>
</g>
<g>
	<path class="st1" d="M474.3,206.2c0-0.2,0.1-0.3,0.2-0.4c0.1-0.1,0.3-0.2,0.4-0.2c0.2,0,0.3,0.1,0.4,0.2c0.1,0.1,0.2,0.2,0.2,0.4
		v0.4l0.1-0.3c0.2-0.2,0.3-0.4,0.5-0.5c0.2-0.1,0.4-0.2,0.8-0.2c0.2,0,0.4,0.1,0.5,0.2s0.2,0.3,0.2,0.5c0,0.2-0.1,0.4-0.3,0.5
		l-0.2,0.1l-0.1,0.1l-0.3,0.1c-0.2,0-0.4,0.1-0.5,0.2c-0.2,0.2-0.4,0.4-0.6,0.7c-0.1,0.2-0.2,0.5-0.2,0.9v2.9c0,0.2-0.1,0.3-0.2,0.4
		c-0.1,0.1-0.3,0.2-0.4,0.2c-0.2,0-0.3-0.1-0.4-0.2c-0.1-0.1-0.2-0.3-0.2-0.4V206.2z"/>
	<path class="st1" d="M480.7,209.3c0,0.1,0,0.1,0,0.2c0,0.1,0.1,0.2,0.2,0.5c0.1,0.3,0.4,0.5,0.7,0.8c0.3,0.2,0.6,0.3,1,0.3
		c0.3,0,0.6-0.1,0.8-0.2c0.1-0.1,0.3-0.2,0.5-0.3l0.4-0.3c0.1,0,0.2-0.1,0.3-0.1h0.1c0.3,0.1,0.4,0.2,0.4,0.5c0,0.2-0.1,0.4-0.4,0.6
		c-0.3,0.3-0.7,0.4-1.1,0.6c-0.1,0.1-0.3,0.1-0.6,0.2h-0.6c-0.6,0-1.1-0.2-1.7-0.6c-0.6-0.4-0.9-0.9-1.1-1.4
		c-0.2-0.4-0.3-0.9-0.3-1.4c0-0.7,0.2-1.4,0.7-2c0.4-0.5,0.8-0.8,1.4-1c0.4-0.2,0.8-0.2,1.2-0.2c0.7,0,1.3,0.2,1.8,0.6
		c0.5,0.4,0.9,0.9,1,1.3c0.2,0.5,0.2,0.8,0.2,1.1c0,0.3,0,0.5-0.1,0.6s-0.3,0.2-0.6,0.2H480.7z M484.4,208.4l-0.1-0.3
		c-0.1-0.4-0.3-0.7-0.6-1s-0.6-0.5-1.1-0.6c-0.1,0-0.4,0-0.8,0.1c-0.3,0.1-0.6,0.4-1,0.8c0,0.1-0.1,0.3-0.2,0.6l-0.1,0.3H484.4z"/>
	<path class="st1" d="M494,208.9c0,0.9-0.3,1.7-1,2.4c-0.7,0.7-1.5,1-2.4,1c-0.1,0-0.4,0-0.7-0.1c-0.6-0.1-1-0.3-1.4-0.8v2.7
		c0,0.2-0.1,0.3-0.2,0.4s-0.3,0.2-0.4,0.2c-0.2,0-0.3-0.1-0.4-0.2s-0.2-0.3-0.2-0.4v-2.4c0,0,0-0.1,0-0.1v-5.4
		c0-0.2,0.1-0.3,0.2-0.4c0.1-0.1,0.3-0.2,0.4-0.2h0h0c0.2,0,0.3,0,0.4,0.1c0.1,0.1,0.2,0.2,0.2,0.4v0.3c0,0,0.1-0.1,0.1-0.1
		c0.4-0.5,1-0.7,1.7-0.7c0.1,0,0.1,0,0.2,0c0.1,0,0.1,0,0.2,0c0.9,0,1.7,0.3,2.4,1C493.7,207.2,494,208,494,208.9z M492.8,208.8
		c0-0.6-0.2-1.1-0.6-1.6s-0.9-0.6-1.5-0.6c-0.6,0-1.2,0.2-1.6,0.6c-0.4,0.4-0.6,0.9-0.6,1.6c0,0.7,0.2,1.3,0.6,1.7
		c0.4,0.4,0.9,0.7,1.6,0.7c0.6,0,1.1-0.2,1.5-0.7S492.8,209.4,492.8,208.8z"/>
	<path class="st1" d="M498.6,205.5c1,0,1.8,0.3,2.4,1c0.6,0.6,0.9,1.4,0.9,2.4c0,0.9-0.3,1.7-0.9,2.4s-1.4,0.9-2.3,0.9
		c-1,0-1.8-0.3-2.4-0.9s-0.9-1.4-0.9-2.4c0-1,0.3-1.8,0.9-2.4S497.7,205.5,498.6,205.5z M498.6,211.1c0.6,0,1.1-0.2,1.5-0.6
		c0.4-0.4,0.6-0.9,0.6-1.6c0-0.7-0.2-1.3-0.6-1.7c-0.4-0.4-0.9-0.6-1.5-0.6c-0.6,0-1.1,0.2-1.5,0.6c-0.4,0.4-0.6,0.9-0.6,1.6
		c0,0.7,0.2,1.3,0.6,1.7S498,211.1,498.6,211.1z"/>
	<path class="st1" d="M503.5,210.8c0.1-0.3,0.3-0.5,0.5-0.5c0.1,0,0.3,0,0.4,0.1l0.2,0.1l0.2,0.1c0.4,0.3,0.8,0.4,1.2,0.4
		c0.3,0,0.5-0.1,0.7-0.2c0.2-0.2,0.4-0.4,0.4-0.6c0-0.3-0.3-0.6-0.9-0.9l-0.8-0.3l-0.4-0.2c-0.8-0.4-1.2-0.8-1.2-1.5v-0.2
		c0.1-0.5,0.2-0.7,0.2-0.7c0.1-0.2,0.3-0.3,0.6-0.6c0.4-0.3,0.9-0.4,1.5-0.4h0.2c0.2,0,0.5,0.1,0.9,0.2c0.7,0.3,1,0.6,1,0.8
		c0,0.2,0,0.3-0.1,0.4c-0.1,0.1-0.2,0.2-0.4,0.2c-0.1,0-0.2,0-0.4-0.1l-0.1,0l-0.2-0.1l-0.2-0.1c-0.2-0.1-0.5-0.2-0.8-0.2
		c-0.2,0-0.4,0-0.5,0.1c-0.2,0.1-0.3,0.2-0.4,0.4c0,0.1-0.1,0.2-0.1,0.3c0,0.2,0.2,0.5,0.7,0.7c0.1,0,0.2,0.1,0.5,0.2l0.2,0.1
		l0.4,0.2c0.3,0.1,0.6,0.3,0.9,0.5c0.4,0.2,0.6,0.7,0.6,1.3c0,0.5-0.3,1-0.9,1.5c-0.4,0.3-0.9,0.4-1.6,0.4c-0.1,0-0.2,0-0.5,0
		c-0.2,0-0.5-0.1-0.8-0.2c-0.3-0.1-0.5-0.3-0.7-0.4c-0.2-0.2-0.3-0.3-0.3-0.5C503.5,210.9,503.5,210.8,503.5,210.8z"/>
	<path class="st1" d="M511.1,203.3c0.2,0,0.4,0.1,0.5,0.2c0.1,0.2,0.2,0.3,0.2,0.6c0,0.2-0.1,0.4-0.2,0.5c-0.1,0.1-0.3,0.2-0.5,0.2
		c-0.2,0-0.4-0.1-0.5-0.2c-0.1-0.1-0.2-0.3-0.2-0.5c0-0.2,0.1-0.4,0.2-0.6C510.6,203.4,510.8,203.3,511.1,203.3z M510.4,206.2
		c0-0.2,0.1-0.3,0.2-0.5s0.3-0.2,0.5-0.2c0.2,0,0.3,0.1,0.4,0.2s0.2,0.3,0.2,0.4v5.4c0,0.2-0.1,0.3-0.2,0.4
		c-0.1,0.1-0.3,0.2-0.5,0.2c-0.2,0-0.3-0.1-0.4-0.2c-0.1-0.1-0.2-0.3-0.2-0.4V206.2z"/>
	<path class="st1" d="M514.6,205.6v-1.3c0-0.2,0.1-0.3,0.2-0.5c0.1-0.1,0.3-0.2,0.4-0.2s0.3,0.1,0.4,0.2c0.1,0.1,0.2,0.3,0.2,0.5
		v1.3h0.6c0.2,0,0.3,0.1,0.4,0.2c0.1,0.1,0.2,0.2,0.2,0.4c0,0.2-0.1,0.3-0.2,0.4c-0.1,0.1-0.3,0.2-0.4,0.2h-0.5v4.8
		c0,0.2-0.1,0.3-0.2,0.4c-0.1,0.1-0.3,0.2-0.4,0.2c-0.2,0-0.3-0.1-0.4-0.2c-0.1-0.1-0.2-0.3-0.2-0.4v-4.8h-0.4
		c-0.2,0-0.3-0.1-0.4-0.2c-0.1-0.1-0.2-0.2-0.2-0.4c0-0.2,0.1-0.3,0.2-0.4c0.1-0.1,0.3-0.2,0.4-0.2H514.6z"/>
	<path class="st1" d="M519.8,203.3c0.2,0,0.4,0.1,0.5,0.2c0.1,0.2,0.2,0.3,0.2,0.6c0,0.2-0.1,0.4-0.2,0.5c-0.1,0.1-0.3,0.2-0.5,0.2
		c-0.2,0-0.4-0.1-0.5-0.2c-0.1-0.1-0.2-0.3-0.2-0.5c0-0.2,0.1-0.4,0.2-0.6C519.4,203.4,519.6,203.3,519.8,203.3z M519.2,206.2
		c0-0.2,0.1-0.3,0.2-0.5s0.3-0.2,0.5-0.2c0.2,0,0.3,0.1,0.4,0.2s0.2,0.3,0.2,0.4v5.4c0,0.2-0.1,0.3-0.2,0.4
		c-0.1,0.1-0.3,0.2-0.5,0.2c-0.2,0-0.3-0.1-0.4-0.2c-0.1-0.1-0.2-0.3-0.2-0.4V206.2z"/>
	<path class="st1" d="M525,210.2l1.4-4.2l0.1-0.2c0.1-0.1,0.3-0.2,0.5-0.2c0.2,0,0.3,0.1,0.5,0.2s0.2,0.3,0.2,0.5c0,0.1,0,0.2,0,0.2
		l-1.9,5.2c-0.1,0.3-0.3,0.5-0.6,0.5c-0.4,0-0.6-0.2-0.7-0.5l-1.9-5.2c0-0.1,0-0.1,0-0.2c0-0.2,0.1-0.3,0.2-0.5s0.3-0.2,0.5-0.2
		c0.2,0,0.3,0.1,0.4,0.2l0.1,0.3L525,210.2z"/>
	<path class="st1" d="M530.6,209.3c0,0.1,0,0.1,0,0.2c0,0.1,0.1,0.2,0.2,0.5c0.1,0.3,0.4,0.5,0.7,0.8c0.3,0.2,0.6,0.3,1,0.3
		c0.3,0,0.6-0.1,0.8-0.2c0.1-0.1,0.3-0.2,0.5-0.3l0.4-0.3c0.1,0,0.2-0.1,0.3-0.1h0.1c0.3,0.1,0.4,0.2,0.4,0.5c0,0.2-0.1,0.4-0.4,0.6
		c-0.3,0.3-0.7,0.4-1.1,0.6c-0.1,0.1-0.3,0.1-0.6,0.2h-0.6c-0.6,0-1.1-0.2-1.7-0.6c-0.6-0.4-0.9-0.9-1.1-1.4
		c-0.2-0.4-0.3-0.9-0.3-1.4c0-0.7,0.2-1.4,0.7-2c0.4-0.5,0.8-0.8,1.4-1c0.4-0.2,0.8-0.2,1.2-0.2c0.7,0,1.3,0.2,1.8,0.6
		c0.5,0.4,0.9,0.9,1,1.3c0.2,0.5,0.2,0.8,0.2,1.1c0,0.3,0,0.5-0.1,0.6s-0.3,0.2-0.6,0.2H530.6z M534.3,208.4l-0.1-0.3
		c-0.1-0.4-0.3-0.7-0.6-1s-0.6-0.5-1.1-0.6c-0.1,0-0.4,0-0.8,0.1c-0.3,0.1-0.6,0.4-1,0.8c0,0.1-0.1,0.3-0.2,0.6l-0.1,0.3H534.3z"/>
	<path class="st1" d="M537.9,210.7c0.2,0,0.4,0.1,0.5,0.2c0.1,0.1,0.2,0.3,0.2,0.5c0,0.2-0.1,0.4-0.2,0.5c-0.1,0.1-0.3,0.2-0.5,0.2
		c-0.2,0-0.4-0.1-0.5-0.2c-0.1-0.1-0.2-0.3-0.2-0.5s0.1-0.4,0.2-0.5C537.5,210.8,537.7,210.7,537.9,210.7z"/>
	<path class="st1" d="M541.7,203.3c0.2,0,0.4,0.1,0.5,0.2c0.1,0.2,0.2,0.3,0.2,0.6c0,0.2-0.1,0.4-0.2,0.5c-0.1,0.1-0.3,0.2-0.5,0.2
		c-0.2,0-0.4-0.1-0.5-0.2c-0.1-0.1-0.2-0.3-0.2-0.5c0-0.2,0.1-0.4,0.2-0.6C541.3,203.4,541.5,203.3,541.7,203.3z M541,206.2
		c0-0.2,0.1-0.3,0.2-0.5s0.3-0.2,0.5-0.2c0.2,0,0.3,0.1,0.4,0.2s0.2,0.3,0.2,0.4v5.4c0,0.2-0.1,0.3-0.2,0.4
		c-0.1,0.1-0.3,0.2-0.5,0.2c-0.2,0-0.3-0.1-0.4-0.2c-0.1-0.1-0.2-0.3-0.2-0.4V206.2z"/>
	<path class="st1" d="M547.5,205.5c1,0,1.8,0.3,2.4,1c0.6,0.6,0.9,1.4,0.9,2.4c0,0.9-0.3,1.7-0.9,2.4s-1.4,0.9-2.3,0.9
		c-1,0-1.8-0.3-2.4-0.9s-0.9-1.4-0.9-2.4c0-1,0.3-1.8,0.9-2.4S546.5,205.5,547.5,205.5z M547.5,211.1c0.6,0,1.1-0.2,1.5-0.6
		c0.4-0.4,0.6-0.9,0.6-1.6c0-0.7-0.2-1.3-0.6-1.7c-0.4-0.4-0.9-0.6-1.5-0.6c-0.6,0-1.1,0.2-1.5,0.6c-0.4,0.4-0.6,0.9-0.6,1.6
		c0,0.7,0.2,1.3,0.6,1.7S546.9,211.1,547.5,211.1z"/>
</g>
<g>
	<path class="st1" d="M115.4,188.9c0-0.1-0.1-0.1,0-0.2c0-0.1,0.1-0.1,0.1-0.2c0.1,0,0.1-0.1,0.2,0c0.1,0,0.1,0.1,0.2,0.1l0.1,0.2
		l0-0.1c0-0.1,0-0.3,0.1-0.3c0-0.1,0.1-0.2,0.3-0.3c0.1,0,0.2-0.1,0.2,0c0.1,0,0.1,0.1,0.2,0.1c0.1,0.1,0.1,0.2,0,0.3l-0.1,0.1
		l0,0.1l-0.1,0.1c-0.1,0.1-0.1,0.1-0.1,0.2c0,0.1-0.1,0.3-0.1,0.4c0,0.1,0,0.2,0.1,0.4l0.7,1.2c0,0.1,0.1,0.1,0,0.2
		c0,0.1-0.1,0.1-0.1,0.2c-0.1,0-0.1,0-0.2,0c-0.1,0-0.1-0.1-0.2-0.1L115.4,188.9z"/>
	<path class="st1" d="M118.7,188.7C118.8,188.7,118.8,188.7,118.7,188.7c0.1,0.1,0.1,0.2,0.2,0.2c0.1,0.1,0.3,0.1,0.5,0.2
		c0.2,0,0.3,0,0.5-0.1c0.1-0.1,0.2-0.2,0.3-0.3c0-0.1,0.1-0.1,0.1-0.2l0.1-0.2c0,0,0-0.1,0.1-0.1l0,0c0.1,0,0.2,0,0.3,0.1
		c0,0.1,0,0.2,0,0.4c-0.1,0.2-0.2,0.3-0.3,0.5c0,0.1-0.1,0.1-0.2,0.2l-0.3,0.1c-0.2,0.1-0.5,0.2-0.8,0.2c-0.3,0-0.6-0.1-0.8-0.3
		c-0.2-0.1-0.3-0.3-0.4-0.5c-0.2-0.3-0.2-0.6-0.2-1c0-0.3,0.1-0.5,0.3-0.8c0.1-0.2,0.3-0.3,0.5-0.4c0.3-0.2,0.6-0.2,0.9-0.2
		c0.3,0,0.6,0.1,0.7,0.3c0.2,0.2,0.3,0.3,0.4,0.4c0.1,0.1,0.1,0.2,0.1,0.3c0,0.1-0.1,0.1-0.2,0.2L118.7,188.7z M120.1,187.4
		L120.1,187.4c-0.2-0.2-0.4-0.3-0.6-0.4c-0.2-0.1-0.4,0-0.6,0c-0.1,0-0.2,0.1-0.3,0.2c-0.1,0.1-0.2,0.3-0.2,0.6c0,0,0,0.1,0.1,0.3
		l0,0.1L120.1,187.4z"/>
	<path class="st1" d="M124.2,185.3c0.2,0.4,0.3,0.8,0.2,1.2c-0.1,0.4-0.4,0.8-0.8,1c0,0-0.2,0.1-0.3,0.1c-0.3,0.1-0.5,0.1-0.8,0
		l0.7,1.1c0,0.1,0.1,0.1,0,0.2c0,0.1-0.1,0.1-0.1,0.2c-0.1,0-0.1,0-0.2,0c-0.1,0-0.1-0.1-0.2-0.1l-0.6-1c0,0,0,0,0-0.1l-1.3-2.2
		c0-0.1-0.1-0.1,0-0.2c0-0.1,0.1-0.1,0.1-0.2l0,0l0,0c0.1,0,0.1-0.1,0.2,0c0.1,0,0.1,0,0.2,0.1l0.1,0.1c0,0,0-0.1,0-0.1
		c0.1-0.3,0.2-0.5,0.5-0.7c0,0,0,0,0.1,0c0,0,0,0,0.1,0c0.4-0.2,0.8-0.3,1.2-0.2C123.6,184.7,124,184.9,124.2,185.3z M123.7,185.6
		c-0.1-0.3-0.4-0.4-0.6-0.5c-0.3-0.1-0.5-0.1-0.8,0.1c-0.3,0.2-0.4,0.4-0.5,0.6c-0.1,0.3,0,0.5,0.1,0.8c0.2,0.3,0.4,0.5,0.7,0.6
		c0.3,0.1,0.5,0,0.8-0.1c0.2-0.1,0.4-0.4,0.5-0.6C123.9,186.1,123.8,185.8,123.7,185.6z"/>
	<path class="st1" d="M125.3,182.8c0.4-0.2,0.8-0.3,1.2-0.2c0.4,0.1,0.7,0.4,1,0.8c0.2,0.4,0.3,0.8,0.2,1.2
		c-0.1,0.4-0.3,0.7-0.7,0.9c-0.4,0.2-0.8,0.3-1.2,0.2c-0.4-0.1-0.7-0.4-1-0.8c-0.2-0.4-0.3-0.8-0.2-1.2
		C124.7,183.4,124.9,183,125.3,182.8z M126.6,185.1c0.3-0.1,0.4-0.3,0.5-0.6c0.1-0.2,0-0.5-0.1-0.8c-0.2-0.3-0.4-0.5-0.6-0.6
		c-0.2-0.1-0.5,0-0.8,0.1c-0.3,0.1-0.4,0.3-0.5,0.6c-0.1,0.3,0,0.5,0.1,0.8c0.2,0.3,0.4,0.5,0.6,0.6S126.4,185.3,126.6,185.1z"/>
	<path class="st1" d="M128.6,183.8c0-0.1,0-0.2,0.1-0.3c0.1,0,0.1,0,0.2,0l0.1,0l0.1,0c0.2,0,0.4,0,0.6-0.1c0.1-0.1,0.2-0.2,0.3-0.3
		c0.1-0.1,0.1-0.2,0-0.4c-0.1-0.1-0.3-0.2-0.6-0.1l-0.4,0.1l-0.2,0c-0.4,0.1-0.7-0.1-0.9-0.3l-0.1-0.1c-0.1-0.2-0.1-0.3-0.1-0.3
		c0-0.1,0-0.2,0.1-0.4c0.1-0.2,0.3-0.4,0.5-0.5l0.1,0c0.1,0,0.2-0.1,0.4-0.1c0.4-0.1,0.6,0,0.6,0.1c0,0.1,0.1,0.1,0.1,0.2
		c0,0.1,0,0.1-0.1,0.2c0,0-0.1,0-0.2,0l-0.1,0l-0.1,0l-0.1,0c-0.1,0-0.3,0-0.4,0.1c-0.1,0-0.1,0.1-0.2,0.2c-0.1,0.1-0.1,0.2-0.1,0.2
		c0,0.1,0,0.1,0,0.1c0.1,0.1,0.2,0.1,0.5,0.1c0,0,0.1,0,0.2,0l0.1,0l0.2,0c0.1,0,0.3,0,0.5,0c0.2,0,0.4,0.1,0.6,0.4
		c0.1,0.2,0.1,0.5,0,0.8c-0.1,0.2-0.3,0.4-0.6,0.6c0,0-0.1,0.1-0.2,0.1c-0.1,0-0.2,0.1-0.4,0.1c-0.2,0-0.3,0-0.4,0
		C128.8,184,128.7,184,128.6,183.8C128.6,183.9,128.6,183.8,128.6,183.8z"/>
	<path class="st1" d="M129.9,178.9c0.1-0.1,0.2-0.1,0.3,0c0.1,0,0.2,0.1,0.2,0.2c0.1,0.1,0.1,0.2,0,0.3c0,0.1-0.1,0.2-0.2,0.2
		c-0.1,0.1-0.2,0.1-0.3,0c-0.1,0-0.2-0.1-0.2-0.2c-0.1-0.1-0.1-0.2,0-0.3C129.8,179,129.8,179,129.9,178.9z M130.4,180.3
		c0-0.1-0.1-0.2,0-0.2c0-0.1,0.1-0.1,0.1-0.2c0.1,0,0.1-0.1,0.2,0c0.1,0,0.1,0.1,0.2,0.1l1.3,2.2c0,0.1,0.1,0.2,0,0.2
		c0,0.1-0.1,0.1-0.1,0.2c-0.1,0-0.1,0.1-0.2,0c-0.1,0-0.1-0.1-0.2-0.1L130.4,180.3z"/>
	<path class="st1" d="M132,179l-0.3-0.6c0-0.1-0.1-0.2,0-0.2c0-0.1,0.1-0.1,0.1-0.2c0.1,0,0.1,0,0.2,0c0.1,0,0.1,0.1,0.2,0.1
		l0.3,0.6l0.2-0.1c0.1,0,0.1-0.1,0.2,0c0.1,0,0.1,0.1,0.2,0.1c0,0.1,0,0.1,0,0.2c0,0.1-0.1,0.1-0.1,0.2l-0.2,0.1l1.1,2
		c0,0.1,0.1,0.1,0,0.2c0,0.1-0.1,0.1-0.1,0.2c-0.1,0-0.1,0.1-0.2,0c-0.1,0-0.1-0.1-0.2-0.1l-1.1-2l-0.2,0.1c-0.1,0-0.1,0.1-0.2,0
		c-0.1,0-0.1-0.1-0.2-0.1c0-0.1,0-0.1,0-0.2c0-0.1,0.1-0.1,0.1-0.2L132,179z"/>
	<path class="st1" d="M133.6,176.8c0.1-0.1,0.2-0.1,0.3,0c0.1,0,0.2,0.1,0.2,0.2c0.1,0.1,0.1,0.2,0,0.3c0,0.1-0.1,0.2-0.2,0.2
		c-0.1,0.1-0.2,0.1-0.3,0c-0.1,0-0.2-0.1-0.2-0.2c-0.1-0.1-0.1-0.2,0-0.3C133.4,176.9,133.5,176.9,133.6,176.8z M134,178.2
		c0-0.1-0.1-0.2,0-0.2c0-0.1,0.1-0.1,0.1-0.2c0.1,0,0.1-0.1,0.2,0s0.1,0.1,0.2,0.1l1.3,2.2c0,0.1,0.1,0.2,0,0.2
		c0,0.1-0.1,0.1-0.1,0.2c-0.1,0-0.1,0.1-0.2,0c-0.1,0-0.1-0.1-0.2-0.1L134,178.2z"/>
	<path class="st1" d="M137.4,178.4l-0.4-2.1l0-0.1c0-0.1,0.1-0.2,0.1-0.2c0.1,0,0.2-0.1,0.2,0c0.1,0,0.1,0.1,0.2,0.2
		c0,0,0,0.1,0,0.1l0.5,2.6c0,0.2,0,0.3-0.1,0.4c-0.1,0.1-0.3,0.1-0.4,0l-2-1.7c0,0,0-0.1-0.1-0.1c0-0.1-0.1-0.2,0-0.2
		c0-0.1,0.1-0.1,0.1-0.2c0.1,0,0.2-0.1,0.2,0l0.1,0.1L137.4,178.4z"/>
	<path class="st1" d="M139.5,176.7C139.5,176.8,139.5,176.8,139.5,176.7c0.1,0.1,0.1,0.2,0.2,0.2c0.1,0.1,0.3,0.1,0.5,0.2
		c0.2,0,0.3,0,0.5-0.1c0.1-0.1,0.2-0.2,0.3-0.3c0-0.1,0.1-0.1,0.1-0.2l0.1-0.2c0,0,0-0.1,0.1-0.1l0,0c0.1,0,0.2,0,0.3,0.1
		c0,0.1,0,0.2,0,0.4c-0.1,0.2-0.2,0.3-0.3,0.5c0,0.1-0.1,0.1-0.2,0.2l-0.3,0.1c-0.2,0.1-0.5,0.2-0.8,0.2c-0.3,0-0.6-0.1-0.8-0.3
		c-0.2-0.1-0.3-0.3-0.4-0.5c-0.2-0.3-0.2-0.6-0.2-1c0-0.3,0.1-0.5,0.3-0.8c0.1-0.2,0.3-0.3,0.5-0.4c0.3-0.2,0.6-0.2,0.9-0.2
		c0.3,0,0.6,0.1,0.7,0.3c0.2,0.2,0.3,0.3,0.4,0.4c0.1,0.1,0.1,0.2,0.1,0.3s-0.1,0.1-0.2,0.2L139.5,176.7z M140.8,175.5L140.8,175.5
		c-0.2-0.2-0.4-0.3-0.6-0.4c-0.2-0.1-0.4,0-0.6,0c-0.1,0-0.2,0.1-0.3,0.2c-0.1,0.1-0.2,0.3-0.2,0.6c0,0,0,0.1,0.1,0.3l0,0.1
		L140.8,175.5z"/>
	<path class="st1" d="M142.9,175.6c0.1-0.1,0.2-0.1,0.3,0c0.1,0,0.2,0.1,0.2,0.2c0,0.1,0.1,0.2,0,0.3c0,0.1-0.1,0.2-0.2,0.2
		c-0.1,0-0.2,0.1-0.3,0c-0.1,0-0.2-0.1-0.2-0.2s-0.1-0.2,0-0.3C142.7,175.7,142.8,175.6,142.9,175.6z"/>
	<path class="st1" d="M142.7,171.6c0.1-0.1,0.2-0.1,0.3,0c0.1,0,0.2,0.1,0.2,0.2c0.1,0.1,0.1,0.2,0,0.3c0,0.1-0.1,0.2-0.2,0.2
		c-0.1,0.1-0.2,0.1-0.3,0c-0.1,0-0.2-0.1-0.2-0.2c-0.1-0.1-0.1-0.2,0-0.3C142.5,171.7,142.6,171.6,142.7,171.6z M143.1,172.9
		c0-0.1-0.1-0.2,0-0.2c0-0.1,0.1-0.1,0.1-0.2c0.1,0,0.1-0.1,0.2,0c0.1,0,0.1,0.1,0.2,0.1l1.3,2.2c0,0.1,0.1,0.2,0,0.2
		c0,0.1-0.1,0.1-0.1,0.2c-0.1,0-0.1,0.1-0.2,0c-0.1,0-0.1-0.1-0.2-0.1L143.1,172.9z"/>
	<path class="st1" d="M145.6,171.1c0.4-0.2,0.8-0.3,1.2-0.2c0.4,0.1,0.7,0.4,1,0.8c0.2,0.4,0.3,0.8,0.2,1.2s-0.3,0.7-0.7,0.9
		c-0.4,0.2-0.8,0.3-1.2,0.2s-0.7-0.4-1-0.8c-0.2-0.4-0.3-0.8-0.2-1.2C145,171.6,145.2,171.3,145.6,171.1z M147,173.4
		c0.3-0.1,0.4-0.3,0.5-0.6c0.1-0.2,0-0.5-0.1-0.8c-0.2-0.3-0.4-0.5-0.6-0.6c-0.2-0.1-0.5,0-0.8,0.1c-0.3,0.1-0.4,0.3-0.5,0.6
		c-0.1,0.3,0,0.5,0.1,0.8c0.2,0.3,0.4,0.5,0.6,0.6C146.4,173.6,146.7,173.6,147,173.4z"/>
</g>
</svg>
