<?xml version="1.0" encoding="UTF-8" standalone="no"?>
<!-- Created with Inkscape (http://www.inkscape.org/) -->

<svg
   xmlns:dc="http://purl.org/dc/elements/1.1/"
   xmlns:cc="http://creativecommons.org/ns#"
   xmlns:rdf="http://www.w3.org/1999/02/22-rdf-syntax-ns#"
   xmlns:svg="http://www.w3.org/2000/svg"
   xmlns="http://www.w3.org/2000/svg"
   xmlns:sodipodi="http://sodipodi.sourceforge.net/DTD/sodipodi-0.dtd"
   xmlns:inkscape="http://www.inkscape.org/namespaces/inkscape"
   width="4.3899999cm"
   height="5.0799999cm"
   viewBox="0 0 155.55118 180"
   id="svg4159"
   version="1.1"
   inkscape:version="0.91 r13725"
   sodipodi:docname="rhodyrstats.svg"
   inkscape:export-filename="R:\DataInformatics\rhodyrstats\logos\rhodyrstats_hex.png"
   inkscape:export-xdpi="90"
   inkscape:export-ydpi="90">
  <defs
     id="defs4161">
    <clipPath
       id="_clip1">
      <ellipse
         cx="332.88501"
         cy="288.85699"
         rx="165.761"
         ry="98.400002"
         id="ellipse30" />
    </clipPath>
    <clipPath
       id="_clip1-9">
      <ellipse
         cx="332.88501"
         cy="288.85699"
         rx="165.761"
         ry="98.400002"
         id="ellipse30-2" />
    </clipPath>
  </defs>
  <sodipodi:namedview
     id="base"
     pagecolor="#ffffff"
     bordercolor="#666666"
     borderopacity="1.0"
     inkscape:pageopacity="0.0"
     inkscape:pageshadow="2"
     inkscape:zoom="3.3806471"
     inkscape:cx="73.81248"
     inkscape:cy="60.162843"
     inkscape:document-units="px"
     inkscape:current-layer="layer1"
     showgrid="false"
     inkscape:window-width="1600"
     inkscape:window-height="1138"
     inkscape:window-x="-8"
     inkscape:window-y="-8"
     inkscape:window-maximized="1"
     units="cm"
     showguides="false" />
  <metadata
     id="metadata4164">
    <rdf:RDF>
      <cc:Work
         rdf:about="">
        <dc:format>image/svg+xml</dc:format>
        <dc:type
           rdf:resource="http://purl.org/dc/dcmitype/StillImage" />
        <dc:title></dc:title>
      </cc:Work>
    </rdf:RDF>
  </metadata>
  <g
     inkscape:label="Layer 1"
     inkscape:groupmode="layer"
     id="layer1"
     transform="translate(0,-872.36215)">
    <g
       id="g4206"
       transform="translate(0,-1.3516642e-6)">
      <g
         id="g8967"
         transform="matrix(-1,0,0,-1,155.55118,1924.7243)">
        <polygon
           points="629.902,74.984 629.902,225.016 500.032,300 370.098,225.016 370.098,74.984 500.032,0 "
           id="polygon11"
           style="fill:#000000"
           transform="matrix(0.59872512,0,0,0.6,-221.58697,872.36215)" />
        <polygon
           points="370.098,225.016 370.098,74.984 500.032,0 629.902,74.984 629.902,225.016 500.032,300 "
           id="polygon11-7"
           style="fill:#ffffff;fill-opacity:1"
           transform="matrix(0.56435855,0,0,0.56556026,-204.40369,877.52811)" />
      </g>
      <g
         id="g19"
         transform="matrix(0.30839659,0,0,0.30839659,-104.21976,846.25289)"
         style="clip-rule:evenodd;fill-rule:evenodd;stroke-linejoin:round;stroke-miterlimit:1.41420996">
        <g
           id="g21"
           transform="matrix(1.77492,0,0,1.77492,-960.607,3.20999)">
          <path
             id="path23"
             style="fill:#1c98b9"
             d="m 944.789,215.956 c 0.658,-1.429 0.062,-3.285 -1.268,-4.464 3.298,-0.761 9.389,-1.861 10.226,-1.861 1.877,0 2.755,1.32 2.815,3.957 0.092,3.984 -3.1,16.661 -3.162,21.226 -0.043,3.145 1.347,4.433 3.995,4.718 8.362,0.898 17.386,-9.47 20.682,-17.696 -2.82,14.946 -11.177,25.404 -23.46,25.207 -2.84,-0.045 -6.027,-1.051 -7.765,-2.903 -1.737,-1.852 -2.606,-4.286 -2.606,-7.305 0,-3.718 0.781,-5.452 0.947,-6.321 -2.842,5.986 -13.819,16.5 -26.132,16.403 -4.667,-0.036 -8.983,-3.159 -11.128,-5.764 14.773,3.724 30.396,-11.163 36.856,-25.197 z m 5.797,-20.286 0.532,0.038 c 1.7,-0.076 6.359,-0.932 9.542,-2.568 3.184,-1.636 5.676,-3.303 7.476,-5.003 -0.777,2.929 -2.162,6.754 -5.747,9.821 -4.269,3.652 -9.447,5.402 -10.969,5.402 -1.015,0 -1.868,-1.639 -1.868,-2.882 0,-1.776 0.45,-3.387 1.034,-4.808 z"
             inkscape:connector-curvature="0" />
        </g>
        <g
           id="g25"
           transform="matrix(0.986051,0,0,1.19872,240.074,-54.7958)">
          <ellipse
             id="ellipse27"
             style="fill:#96d190"
             ry="98.400002"
             rx="165.761"
             cy="288.85699"
             cx="332.88501" />
          <clipPath
             id="clipPath4201">
            <ellipse
               id="ellipse4203"
               ry="98.400002"
               rx="165.761"
               cy="288.85699"
               cx="332.88501" />
          </clipPath>
          <g
             id="g32"
             clip-path="url(#_clip1-9)">
            <ellipse
               id="ellipse34"
               style="fill:#ffffff"
               ry="68.154999"
               rx="121.915"
               cy="288.85699"
               cx="364.73401" />
          </g>
        </g>
        <g
           id="g36"
           transform="matrix(2.10151,0,0,2.11318,-363.563,-773.274)">
          <path
             id="path38"
             style="fill:#1c98b9;fill-rule:nonzero"
             d="m 425.129,565.263 0,-84.109 43.317,0 c 8.032,0 14.171,0.688 18.417,2.065 4.245,1.377 7.669,3.93 10.269,7.659 2.601,3.73 3.902,7.508 3.902,12.863 0,4.666 -0.995,9.456 -2.984,12.841 -1.989,3.385 -4.723,6.129 -8.204,8.233 -2.218,1.338 -5.259,2.448 -9.122,3.327 3.098,1.033 8.501,3.8 14.573,12.737 4.305,6.338 12.564,24.384 12.564,24.384 l -27.554,0 -14.499,-25.704 c -1.759,-3.327 -6.956,-8.433 -12.279,-8.433 l -2.295,0 0,34.137 -26.105,0 z m 26.105,-50.03 11.417,0 c 4.261,0 7.561,-0.63 9.696,-2.773 1.535,-1.54 2.582,-3.093 2.582,-5.89 0,-2.716 -0.861,-4.8 -2.582,-6.254 -1.721,-1.453 -4.953,-2.18 -9.696,-2.18 l -11.417,0 0,17.097 z"
             inkscape:connector-curvature="0" />
        </g>
      </g>
      <g
         transform="matrix(0.38807832,0,0,0.38807832,-86.780986,817.83513)"
         id="Layer1"
         style="clip-rule:evenodd;fill-rule:evenodd;stroke-linejoin:round;stroke-miterlimit:1.41420996">
        <g
           id="g5"
           transform="matrix(0.333545,0,0,0.333545,116.84,301.251)">
          <text
             id="text7"
             style="font-weight:700;font-size:77.91699982px;font-family:Arial;fill:#1c98b9"
             y="566.78101"
             x="433.48401">c<tspan
   id="tspan9"
   y="566.78101 566.78101 566.78101 566.78101 566.78101 566.78101 566.78101 566.78101 566.78101 566.78101 566.78101 566.78101 566.78101 566.78101 566.78101 566.78101 566.78101 566.78101 566.78101"
   x="489.362 549.50098 592.36798 635.23499 695.37402 755.513 794.00403 828.19702 888.336 948.47498 982.66699 1021.16 1064.03 1119.9 1175.78 1209.97 1270.11 1325.99 1364.48">orruption free data</tspan>
</text>
        </g>
        <g
           id="g11"
           transform="matrix(0.550393,0,0,0.550393,75.0301,190.335)">
          <text
             id="text13"
             style="font-weight:900;font-size:77.91699982px;font-family:'Arial Black';fill:#000000"
             y="487.138"
             x="338.659">r<tspan
   id="tspan15"
   y="487.138 487.138 487.138 487.138 487.138 487.138 487.138 487.138 487.138"
   x="381.034 440.79599 500.55701 560.31897 615.70502 684.10303 739.48901 781.86401 840.29401">hodyRstat</tspan>
</text>
          <text
             id="text17"
             style="font-weight:900;font-size:77.91699982px;font-family:'Arial Black';fill:#000000"
             y="487.138"
             x="882.66803">s</text>
        </g>
      </g>
    </g>
  </g>
</svg>
