<?xml version="1.0" encoding="UTF-8"?>
<svg width="44px" height="51px" viewBox="0 0 44 51" version="1.1" xmlns="http://www.w3.org/2000/svg" xmlns:xlink="http://www.w3.org/1999/xlink">
    <!-- Generator: Sketch 58 (84663) - https://sketch.com -->
    <title>riot_hex riot-x</title>
    <desc>Created with Sketch.</desc>
    <defs>
        <polygon id="path-1" points="45.2861436 40.1105047 22.7697063 51.7723272 1.43355644 38.0618253 2.61384402 12.6894966 25.1302814 1.02767636 46.4664312 14.7381804"/>
    </defs>
    <g id="Page-1" stroke="none" stroke-width="1" fill="none" fill-rule="evenodd">
        <g id="riot_hex-riot-x" transform="translate(-2.000000, -1.000000)">
            <mask id="mask-2" fill="white">
                <use xlink:href="#path-1"/>
            </mask>
            <use id="path4596" fill="#181B21" fill-rule="nonzero" transform="translate(23.949994, 26.400002) rotate(-2.663394) translate(-23.949994, -26.400002) " xlink:href="#path-1"/>
            <g id="Group-17" mask="url(#mask-2)">
                <g transform="translate(13.000000, 13.000000)">
                    <rect id="Rectangle" stroke="none" fill="#14161C" fill-rule="evenodd" transform="translate(22.750000, 21.557368) rotate(120.000000) translate(-22.750000, -21.557368) " x="8" y="5.55736835" width="29.5" height="32"/>
                    <path d="M7.83834183,7.64055964 L7.83834183,11.5143846 L11.7718953,11.5103346 C11.8218474,11.5103346 11.8674258,11.5089846 11.912774,11.5060596 C12.9470352,11.4378846 13.7554762,10.5898596 13.7554762,9.57555964 C13.7554762,8.50838464 12.8676183,7.64055964 11.7758086,7.64055964 L7.83834183,7.64055964 Z M3.94806482,26.7741096 C1.7996651,26.7741096 0.0577878116,25.0717596 0.0577878116,22.9716096 L0.0577878116,15.7245846 C0.0437459834,15.5931846 0.0361443512,15.4595346 0.0361443512,15.3243096 C0.0359193906,15.1866096 0.0432855956,15.0507096 0.0577878116,14.9166096 L0.0577878116,3.83805964 C0.0577878116,1.73790964 1.7996651,0.0353346429 3.94806482,0.0353346429 L11.7758086,0.0353346429 C17.1577421,0.0353346429 21.5362604,4.31505964 21.5362604,9.57555964 C21.5362604,14.5770846 17.5396338,18.7578096 12.4376161,19.0935096 C12.2207734,19.1081346 11.9972551,19.1155596 11.7758086,19.1155596 L7.83834183,19.1193846 L7.83834183,22.9716096 C7.83834183,25.0717596 6.09669474,26.7741096 3.94806482,26.7741096 Z" id="Fill-1" stroke="none" fill="#A2DDEF" fill-rule="nonzero"/>
                    <path d="M7.83834183,7.64055964 L7.83834183,11.5143846 L11.7718953,11.5103346 C11.8218474,11.5103346 11.8674258,11.5089846 11.912774,11.5060596 C12.9470352,11.4378846 13.7554762,10.5898596 13.7554762,9.57555964 C13.7554762,8.50838464 12.8676183,7.64055964 11.7758086,7.64055964 L7.83834183,7.64055964 Z M3.94806482,26.7741096 C1.7996651,26.7741096 0.0577878116,25.0717596 0.0577878116,22.9716096 L0.0577878116,15.7245846 C0.0437459834,15.5931846 0.0361443512,15.4595346 0.0361443512,15.3243096 C0.0359193906,15.1866096 0.0432855956,15.0507096 0.0577878116,14.9166096 L0.0577878116,3.83805964 C0.0577878116,1.73790964 1.7996651,0.0353346429 3.94806482,0.0353346429 L11.7758086,0.0353346429 C17.1577421,0.0353346429 21.5362604,4.31505964 21.5362604,9.57555964 C21.5362604,14.5770846 17.5396338,18.7578096 12.4376161,19.0935096 C12.2207734,19.1081346 11.9972551,19.1155596 11.7758086,19.1155596 L7.83834183,19.1193846 L7.83834183,22.9716096 C7.83834183,25.0717596 6.09669474,26.7741096 3.94806482,26.7741096 Z" id="Stroke-3" stroke="#368BD6" stroke-width="0.686025408" fill="none"/>
                    <path d="M3.94808784,22.9715421 L3.94808784,3.83799214 L11.7758316,3.83799214 C15.0176524,3.83799214 17.6457762,6.40681714 17.6457762,9.57549214 C17.6457762,12.6127671 15.2312723,15.0987921 12.176369,15.2997171 C12.0437773,15.3084921 11.910495,15.3129921 11.7758316,15.3129921 L3.92644961,15.3206421" id="Stroke-5" stroke="#368BD6" stroke-width="0.686025408" fill="none" stroke-linecap="round"/>
                    <path d="M7.15372213,1.65717964 C7.75015454,2.48900464 7.97919748,3.49835464 7.79872546,4.49802964 C7.61802324,5.49837964 7.04944429,6.36980464 6.19772684,6.95232964 C4.4392756,8.15495464 2.00681659,7.73622964 0.775509391,6.01880464 C0.179076981,5.18697964 -0.0499659557,4.17785464 0.13073626,3.17772964 C0.311208283,2.17760464 0.87978723,1.30595464 1.73173488,0.723654643 C3.49018612,-0.478970357 5.92241493,-0.0602453571 7.15372213,1.65717964 Z M17.6777962,26.7719271 C16.4517834,26.7719271 15.2455674,26.2071771 14.4884596,25.1512521 L8.99027817,17.4819021 C7.75735961,15.7620021 8.18436931,13.3907271 9.94374133,12.1858521 C11.7031134,10.9800771 14.1291269,11.3976771 15.3620455,13.1175771 L20.8602269,20.7869271 C22.0933757,22.5068271 21.666366,24.8781021 19.906994,26.0829771 C19.2274616,26.5485021 18.4487156,26.7719271 17.6777962,26.7719271 Z" id="Combined-Shape" stroke="none" fill="#368BD6" fill-rule="nonzero"/>
                </g>
            </g>
        </g>
    </g>
</svg>