<svg id="Layer_1" data-name="Layer 1" xmlns="http://www.w3.org/2000/svg" xmlns:xlink="http://www.w3.org/1999/xlink" viewBox="0 0 735 852"><defs><style>.cls-1{fill:#ba6f38;}.cls-2{clip-path:url(#clip-path);}.cls-3{fill:#db1f26;}.cls-4{opacity:0.25;fill:url(#linear-gradient);}.cls-5{fill:#a51d21;}.cls-6{fill:#e6b35a;}.cls-7{opacity:0.94;}.cls-8{fill:#fff;}</style><clipPath id="clip-path"><polygon class="cls-1" points="369.5 7.4 728.2 214.5 728.2 636.6 369.5 845 2.8 636.6 2.8 214.5 369.5 7.4"/></clipPath><linearGradient id="linear-gradient" x1="367.33" y1="-121.12" x2="368.63" y2="342.4" gradientUnits="userSpaceOnUse"><stop offset="0" stop-color="#fff" stop-opacity="0.83"/><stop offset="0.56" stop-color="#fff" stop-opacity="0.37"/><stop offset="1" stop-color="#fff" stop-opacity="0"/></linearGradient></defs><title>RStudio_Hex 2016 v7 outlines</title><polygon class="cls-1" points="369.5 7.4 728.2 214.5 728.2 636.6 369.5 845 2.8 636.6 2.8 214.5 369.5 7.4"/><g class="cls-2"><circle class="cls-3" cx="365.5" cy="437.4" r="442.1"/><ellipse class="cls-4" cx="368" cy="107.1" rx="315.2" ry="234.6"/></g><path class="cls-5" d="M705.6,196.2L427.8,35.8,367.5,1,307.2,35.8,29.4,196.2,0.1,213.1V637.4l29.3,16.9L310.6,816.7l56.9,32.8,56.9-32.8L705.6,654.3l29.3-16.9V213.1Zm0,425.3L367.5,816.7,29.4,621.5V231L367.5,35.8h0L705.6,231V621.5Z"/><path class="cls-6" d="M367,633.9l0.9-.9h-0.3Z"/><g class="cls-7"><path class="cls-8" d="M67.7,573.5c0-7.7-.1-14.3-0.5-20.4H77.5l0.4,12.8h0.5c3-8.8,10.1-14.3,18.1-14.3a12.9,12.9,0,0,1,3.4.4v11.2a17.9,17.9,0,0,0-4-.4c-8.4,0-14.3,6.3-15.9,15.3a33.5,33.5,0,0,0-.5,5.5v34.8H67.7v-45Z"/><path class="cls-8" d="M108,570.8c0-6.7-.1-12.3-0.5-17.7h10.4l0.5,10.5h0.4c3.6-6.2,9.7-12,20.5-12a19.3,19.3,0,0,1,18.5,13.1h0.3a26.9,26.9,0,0,1,7.3-8.5c3.9-3,8.2-4.6,14.4-4.6,8.6,0,21.5,5.7,21.5,28.3v38.5H189.7v-37c0-12.6-4.6-20.1-14.2-20.1-6.7,0-12,5-14,10.8a19.6,19.6,0,0,0-.9,5.9v40.4H148.9V579.3c0-10.4-4.6-18-13.6-18-7.4,0-12.8,5.9-14.7,11.9a16.4,16.4,0,0,0-.9,5.8v39.4H108V570.8Z"/><path class="cls-8" d="M262.2,602.8a92,92,0,0,0,1.1,15.7H252.5l-0.9-8.2h-0.4a24.3,24.3,0,0,1-20,9.7c-13.2,0-20-9.3-20-18.8,0-15.8,14-24.4,39.3-24.3v-1.3c0-5.4-1.5-15.1-14.8-15.1a32.5,32.5,0,0,0-17,4.9l-2.7-7.8c5.4-3.5,13.2-5.8,21.5-5.8,20,0,24.8,13.6,24.8,26.7v24.4Zm-11.5-17.7c-13-.3-27.7,2-27.7,14.7,0,7.7,5.1,11.3,11.2,11.3A16.3,16.3,0,0,0,250,600.2a12.4,12.4,0,0,0,.7-3.8V585.1Z"/><path class="cls-8" d="M277,573.5c0-7.7-.1-14.3-0.5-20.4h10.4l0.4,12.8h0.5c3-8.8,10.1-14.3,18.1-14.3a12.9,12.9,0,0,1,3.4.4v11.2a17.9,17.9,0,0,0-4-.4c-8.4,0-14.3,6.3-15.9,15.3a33.4,33.4,0,0,0-.5,5.5v34.8H277v-45Z"/><path class="cls-8" d="M329.2,583.1h0.3c1.6-2.3,3.9-5.1,5.8-7.4l19.2-22.5h14.3L343.5,580l28.8,38.5H357.8l-22.5-31.3-6.1,6.8v24.6H317.4V522.6h11.7v60.5Z"/><path class="cls-8" d="M432.8,522.6v79c0,5.8.1,12.4,0.5,16.9H422.7l-0.5-11.3h-0.3c-3.6,7.3-11.6,12.8-22.3,12.8-15.8,0-27.9-13.4-27.9-33.2C371.5,565,385,551.6,401,551.6c10,0,16.7,4.7,19.7,10H421v-39h11.9ZM421,579.7a21,21,0,0,0-.5-5,17.5,17.5,0,0,0-17.1-13.8c-12.3,0-19.6,10.8-19.6,25.2s6.5,24.2,19.3,24.2c8,0,15.3-5.3,17.4-14.2a20.7,20.7,0,0,0,.5-5.1V579.7Z"/><path class="cls-8" d="M507.4,585.2c0,24.2-16.7,34.7-32.5,34.7-17.7,0-31.3-13-31.3-33.6s14.3-34.7,32.4-34.7S507.4,565.3,507.4,585.2Zm-51.8.7c0,14.3,8.2,25.1,19.8,25.1s19.8-10.7,19.8-25.4c0-11.1-5.5-25.1-19.6-25.1S455.5,573.5,455.5,585.9Z"/><path class="cls-8" d="M521.8,553.1l8.6,33.2c1.9,7.3,3.6,14,4.9,20.8h0.4c1.5-6.6,3.6-13.6,5.8-20.8l10.7-33.2h10l10.1,32.7c2.4,7.8,4.3,14.7,5.8,21.3h0.4a196.7,196.7,0,0,1,5-21.2l9.3-32.8h11.7l-21.1,65.3H572.7l-10-31.2a217.8,217.8,0,0,1-5.8-21.5h-0.3a193.3,193.3,0,0,1-5.9,21.6l-10.5,31H529.4l-19.7-65.3h12.1Z"/><path class="cls-8" d="M612.1,570.8c0-6.7-.1-12.3-0.5-17.7h10.5l0.7,10.8h0.3c3.2-6.2,10.8-12.3,21.6-12.3,9,0,23.1,5.4,23.1,27.8v39H655.9V580.8c0-10.5-3.9-19.3-15.1-19.3a16.9,16.9,0,0,0-15.9,12.1,17.1,17.1,0,0,0-.8,5.5v39.3H612.1V570.8Z"/></g><path class="cls-5" d="M507.5,199.5c-21.8,2.7-41.8,10.4-60.3,22.1-23.8,15.1-43.2,34.7-59.4,57.6s-27.1,44.7-33.6,70.4c-1,4.1-1.7,8.3-2.6,12.5l0.7,0.2,1.9-2.5a609.5,609.5,0,0,1,61.3-73.1c20.2-20.5,41.9-39.4,66.3-54.9l1.7-.9a3.7,3.7,0,0,1-1.3,1.6,487.8,487.8,0,0,0-50.3,43.9,589,589,0,0,0-87.9,110.6,3,3,0,0,1-3.1,1.5H303.4c-3.3,0-4.9,1.3-5,4.2s-0.1,7,0,10.5,1.6,4.1,4.3,4.2h4.6v15.3H288.4c-9.1,0-13.3,4-14.2,13.1q-1.9,17.6-4.2,35.1c-1.1,8.2,2.4,12.4,10.6,12.4h121a9.1,9.1,0,0,0,8.7-10.5q-2.4-19.4-4.7-38.8c-0.9-7-5.4-11.1-12.6-11.2H372.6V407.3h3.7c3.7,0,5.2-1.4,5.2-5.1s0-5.8,0-8.7-1.4-5.1-5.1-5.1H352.5c2.2-3.7,4.2-6.8,6-10.1a4.1,4.1,0,0,1,4.1-2.4c25-.2,49.3-4.4,71.9-15.5,5.1-2.5,10-5.5,15.6-8.6a266.9,266.9,0,0,0-53.1-19l1.4-.2c20.6,0.2,40.9,2.6,60.5,9.4a4.7,4.7,0,0,0,5.3-1.1,163.7,163.7,0,0,0,23.5-25.8c13.3-18.1,23-38,30.9-58.9,1.8-4.6,3.4-9.3,5.3-14.5l-31.7-3.3,1-.3c10.2-1.2,20.4-2.5,30.7-3.6,1.9-.2,2.7-0.7,3.2-2.5,1.2-4.6,2.7-9.1,4.1-13.6,1.8-6.2,3.5-12.4,5.3-18.6C529.8,198.5,515.1,198.6,507.5,199.5ZM360.6,391h5.6v13.5h-5.6V391Zm-5.9,36.5a12.7,12.7,0,0,1,.3,4.4,13,13,0,0,1-2.4,6.7,17.5,17.5,0,0,1-4.3,4,29.5,29.5,0,0,1-11.9,4.9l-4.9.7h0a34.1,34.1,0,0,0,9.1,7.2A23.3,23.3,0,0,0,348,458a20.4,20.4,0,0,0,8.4-.4h0.4l-0.9,1.3a8.3,8.3,0,0,1-3.8,2.5,12.9,12.9,0,0,1-5.8.6,16.9,16.9,0,0,1-8.5-3.5,29.6,29.6,0,0,1-8.9-10.4l-0.2-.4a0.3,0.3,0,0,1,0-.1l1.6-.3a30.1,30.1,0,0,0,14.1-6.1,17.7,17.7,0,0,0,5.5-7.4,7.8,7.8,0,0,0,.2-4.8,5.3,5.3,0,0,0-4.1-3.4,13.2,13.2,0,0,0-3.9.3,18.9,18.9,0,0,0-6.3,2.4,2,2,0,0,0-.8.8,92.7,92.7,0,0,0-7.3,17,74.2,74.2,0,0,0-2.5,10.7c-0.3,2-.5,4-0.7,6v0.2a3.6,3.6,0,0,1-1.4-.8,5.5,5.5,0,0,1-1.6-3,14.3,14.3,0,0,1-.3-3.5,34.1,34.1,0,0,1,1.5-9.4,32.6,32.6,0,0,1,4.6-9.3c1.5-2.2,3-4.3,4.7-6.4a27.7,27.7,0,0,1,6.2-5.9,16.8,16.8,0,0,1,7.4-2.9,7.8,7.8,0,0,1,5.9,1.3A8.4,8.4,0,0,1,354.7,427.5Z"/><path class="cls-8" d="M502.5,190.5c-21.8,2.7-41.8,10.4-60.3,22.1-23.8,15.1-43.2,34.7-59.4,57.6s-27.1,44.7-33.6,70.4c-1,4.1-1.7,8.3-2.6,12.5l0.7,0.2,1.9-2.5a609.5,609.5,0,0,1,61.3-73.1c20.2-20.5,41.9-39.4,66.3-54.9l1.7-.9a3.7,3.7,0,0,1-1.3,1.6,487.8,487.8,0,0,0-50.3,43.9,589,589,0,0,0-87.9,110.6,3,3,0,0,1-3.1,1.5H298.4c-3.3,0-4.9,1.3-5,4.2s-0.1,7,0,10.5,1.6,4.1,4.3,4.2h4.6v15.3H283.4c-9.1,0-13.3,4-14.2,13.1q-1.9,17.6-4.2,35.1c-1.1,8.2,2.4,12.4,10.6,12.4h121a9.1,9.1,0,0,0,8.7-10.5q-2.4-19.4-4.7-38.8c-0.9-7-5.4-11.1-12.6-11.2H367.6V398.3h3.7c3.7,0,5.2-1.4,5.2-5.1s0-5.8,0-8.7-1.4-5.1-5.1-5.1H347.5c2.2-3.7,4.2-6.8,6-10.1a4.1,4.1,0,0,1,4.1-2.4c25-.2,49.3-4.4,71.9-15.5,5.1-2.5,10-5.5,15.6-8.6a266.9,266.9,0,0,0-53.1-19l1.4-.2c20.6,0.2,40.9,2.6,60.5,9.4a4.7,4.7,0,0,0,5.3-1.1,163.7,163.7,0,0,0,23.5-25.8c13.3-18.1,23-38,30.9-58.9,1.8-4.6,3.4-9.3,5.3-14.5l-31.7-3.3,1-.3c10.2-1.2,20.4-2.5,30.7-3.6,1.9-.2,2.7-0.7,3.2-2.5,1.2-4.6,2.7-9.1,4.1-13.6,1.8-6.2,3.5-12.4,5.3-18.6C524.8,189.5,510.1,189.6,502.5,190.5ZM355.6,382h5.6v13.5h-5.6V382Zm-5.9,36.5a12.7,12.7,0,0,1,.3,4.4,13,13,0,0,1-2.4,6.7,17.5,17.5,0,0,1-4.3,4,29.5,29.5,0,0,1-11.9,4.9l-4.9.7h0a34.1,34.1,0,0,0,9.1,7.2A23.3,23.3,0,0,0,343,449a20.4,20.4,0,0,0,8.4-.4h0.4l-0.9,1.3a8.3,8.3,0,0,1-3.8,2.5,12.9,12.9,0,0,1-5.8.6,16.9,16.9,0,0,1-8.5-3.5,29.6,29.6,0,0,1-8.9-10.4l-0.2-.4a0.3,0.3,0,0,1,0-.1l1.6-.3a30.1,30.1,0,0,0,14.1-6.1,17.7,17.7,0,0,0,5.5-7.4,7.8,7.8,0,0,0,.2-4.8,5.3,5.3,0,0,0-4.1-3.4,13.2,13.2,0,0,0-3.9.3,18.9,18.9,0,0,0-6.3,2.4,2,2,0,0,0-.8.8,92.7,92.7,0,0,0-7.3,17,74.2,74.2,0,0,0-2.5,10.7c-0.3,2-.5,4-0.7,6v0.2a3.6,3.6,0,0,1-1.4-.8,5.5,5.5,0,0,1-1.6-3,14.3,14.3,0,0,1-.3-3.5,34.1,34.1,0,0,1,1.5-9.4,32.6,32.6,0,0,1,4.6-9.3c1.5-2.2,3-4.3,4.7-6.4a27.7,27.7,0,0,1,6.2-5.9,16.8,16.8,0,0,1,7.4-2.9,7.8,7.8,0,0,1,5.9,1.3A8.4,8.4,0,0,1,349.7,418.5Z"/><path class="cls-8" d="M365.5,797.3l4.5,4.5,2.7,2.9h0.1c-0.4-1.2-.7-2.5-1-3.9l-1.4-6.3,1.6-.9,4.7,4.3,2.9,2.9h0.1a36.5,36.5,0,0,1-1.2-3.9l-1.6-6.1,1.9-1.1,2.7,12.4-1.7,1-4.5-4.1a40.4,40.4,0,0,1-2.9-2.9h0a35.6,35.6,0,0,1,1.1,4l1.2,5.9-1.7,1-9.2-8.6Z"/><path class="cls-8" d="M381.6,787.9l4.5,4.5,2.7,2.9h0.1c-0.4-1.2-.7-2.5-1-3.9l-1.4-6.3,1.6-.9,4.7,4.3,2.9,2.9h0.1a36.5,36.5,0,0,1-1.2-3.9l-1.6-6.1,1.9-1.1,2.7,12.4-1.7,1-4.5-4.1a40.7,40.7,0,0,1-2.9-2.9h0a35.4,35.4,0,0,1,1.1,4l1.2,5.9-1.7,1-9.2-8.6Z"/><path class="cls-8" d="M397.8,778.5l4.5,4.5,2.7,2.9H405c-0.4-1.2-.7-2.5-1-3.9l-1.4-6.3,1.6-.9,4.7,4.3,2.9,2.9h0.1a36.3,36.3,0,0,1-1.2-3.9l-1.6-6.1,1.9-1.1,2.7,12.4-1.7,1-4.5-4.1a40.3,40.3,0,0,1-2.9-2.9h0a35.2,35.2,0,0,1,1.1,4l1.2,5.9-1.7,1-9.2-8.6Z"/><path class="cls-8" d="M419.1,780.4a1.6,1.6,0,1,1,.5-2.1,1.5,1.5,0,0,1-.5,2.1h0Z"/><path class="cls-8" d="M418.5,770.8l-2-3.2,1.7-1,1.3,2h0.1a3.6,3.6,0,0,1,1.6-4l0.6-.2,1,1.8-0.7.3a3.1,3.1,0,0,0-1.1,3.9l0.4,0.9,3.2,5.6-1.9,1.1Z"/><path class="cls-8" d="M428.3,772.1a5.8,5.8,0,0,0,2.9-.7c1.4-.8,1.6-1.9,1.1-2.7s-1.4-1.1-3.1-.8-3.8-.1-4.5-1.4-0.4-3.9,1.8-5.2a6,6,0,0,1,2.9-.8l0.3,1.7a4.7,4.7,0,0,0-2.5.6,1.8,1.8,0,0,0-.9,2.4c0.5,0.9,1.4.9,3,.6s3.7,0,4.6,1.6,0.4,4-2.1,5.4a6.9,6.9,0,0,1-3.4,1Z"/><path class="cls-8" d="M433,754.6l1.5,2.5,2.7-1.6L438,757l-2.7,1.6,3.3,5.6c0.8,1.3,1.6,1.8,2.6,1.2l1-.8,0.9,1.4a5.3,5.3,0,0,1-1.5,1.3,3.1,3.1,0,0,1-2.5.4,4.5,4.5,0,0,1-2.3-2.3l-3.3-5.7-1.6.9-0.8-1.4,1.6-.9-1.1-1.9Z"/><path class="cls-8" d="M452.5,756.8l1.7,2.8-1.7,1-1.1-1.6h0a4.6,4.6,0,0,1-2.3,4c-1.6,1-4.1,1.2-6.3-2.5l-3.6-6.1,1.9-1.1,3.4,5.8c1.2,2,2.5,3,4.3,2a3.2,3.2,0,0,0,1.5-3.2,3.2,3.2,0,0,0-.4-1.1l-3.7-6.4,1.9-1.1Z"/><path class="cls-8" d="M457.4,737.2l7.4,12.6,1.7,2.6-1.7,1-1.1-1.8h0a4.5,4.5,0,0,1-2.4,4.1c-2.5,1.5-5.7.5-7.6-2.7s-1.1-6.9,1.4-8.3a4,4,0,0,1,4.1-.2h0l-3.6-6.2Zm3.4,10.2-0.6-.7a3.2,3.2,0,0,0-4-.6c-2,1.1-2.1,3.6-.8,5.9s3.3,3.3,5.3,2.1a3.3,3.3,0,0,0,1.5-3.9,3.8,3.8,0,0,0-.4-0.9Z"/><path class="cls-8" d="M463.8,736.1a1.4,1.4,0,0,1-2.4,1.4,1.3,1.3,0,0,1,.5-1.9A1.3,1.3,0,0,1,463.8,736.1Zm5.7,14.6-6.1-10.5,1.9-1.1,6.1,10.5Z"/><path class="cls-8" d="M480.9,736.9c2.3,3.9.6,7.1-2,8.6s-6.2.8-8.1-2.5-0.9-6.9,2-8.6S479.1,733.7,480.9,736.9Zm-8.2,4.9c1.3,2.3,3.7,3.3,5.5,2.2s2.2-3.6.8-5.9-3.2-3.5-5.5-2.2S471.5,739.9,472.7,741.9Z"/><path class="cls-8" d="M486.8,740.9a1.6,1.6,0,1,1,.5-2.1,1.5,1.5,0,0,1-.5,2.1h0Z"/><path class="cls-8" d="M497.6,733.8a8.1,8.1,0,0,1-2.6,2.4c-3.2,1.8-6.5.9-8.3-2.3a6.1,6.1,0,0,1,2.4-8.8,7.3,7.3,0,0,1,2.9-1l0.4,1.7a5.1,5.1,0,0,0-2.5.8c-2.4,1.4-2.7,3.9-1.4,6.1s3.8,3,5.9,1.8a6.2,6.2,0,0,0,2-1.9Z"/><path class="cls-8" d="M506.3,722.2c2.3,3.9.6,7.1-2,8.6s-6.2.8-8.1-2.5-0.9-6.9,2-8.6S504.4,719,506.3,722.2Zm-8.2,4.9c1.3,2.3,3.7,3.2,5.5,2.2s2.2-3.6.8-5.9-3.2-3.5-5.5-2.2S496.9,725.1,498.1,727.1Z"/><path class="cls-8" d="M507.4,718.5l-1.7-2.8,1.7-1,1.1,1.6h0.1a4.2,4.2,0,0,1,2.2-3.8,3.6,3.6,0,0,1,4.2.4h0a5,5,0,0,1,.4-2,4.1,4.1,0,0,1,1.9-2.1c1.4-.8,4-1.1,6.1,2.5l3.6,6.2-1.9,1.1-3.4-5.9c-1.2-2-2.6-2.8-4.1-1.9a2.9,2.9,0,0,0-1.2,3,3.6,3.6,0,0,0,.4,1l3.8,6.5-1.9,1.1-3.6-6.3c-1-1.7-2.4-2.4-3.9-1.6a3,3,0,0,0-1.2,3.3,3.1,3.1,0,0,0,.4,1l3.7,6.3-1.9,1.1Z"/></svg>