<svg id="rmedicine" data-name="rmedicine" xmlns="http://www.w3.org/2000/svg" xmlns:xlink="http://www.w3.org/1999/xlink" viewBox="0 0 433.01 500">
  <defs>
    <style>
      .cls-1 {
        fill: #46a86e;
      }

      .cls-2 {
        fill: url(#linear-gradient);
      }

      .cls-3 {
        fill: #45a56c;
      }

      .cls-4 {
        fill: #d7d7d7;
      }
    </style>
    <linearGradient id="linear-gradient" x1="216.5" y1="26.83" x2="216.5" y2="460.51" gradientUnits="userSpaceOnUse">
      <stop offset="0" stop-color="#337c51"/>
      <stop offset="0.31" stop-color="#29613f"/>
      <stop offset="0.76" stop-color="#1c4029"/>
      <stop offset="1" stop-color="#173320"/>
    </linearGradient>
  </defs>
  <polygon class="cls-1" points="216.5 500 0 375 0 125 216.5 0 433.01 125 433.01 375 216.5 500"/>
  <path class="cls-2" d="M28,355.86a5.79,5.79,0,0,0,2.59,4.5L213.91,466.22a5.74,5.74,0,0,0,5.2,0L402.46,360.36a5.79,5.79,0,0,0,2.59-4.5V144.14a5.77,5.77,0,0,0-2.59-4.5L219.11,33.78a5.74,5.74,0,0,0-5.2,0L30.55,139.64a5.77,5.77,0,0,0-2.59,4.5Z" transform="translate(0)"/>
  <g>
    <path class="cls-3" d="M183.68,250.26A18.76,18.76,0,0,1,178,265.87c-5.58,5.48-13.28,8-20.2,11.32-4.12,1.95-10.27,5-10.36,9.81-.12,3.3,4.3,5.55,6.88,6.93l.21,8.65c-4.14-1.73-8.16-3.64-11.42-6.75-5.7-5.45-5.1-13.66,0-19.29,6.53-7.18,16.8-9.31,24.69-14.53,7.28-4.82,8.39-12,.8-16.92-.51-.33-1-.64-1.54-.94q.15-6,.31-11.94a58.26,58.26,0,0,1,6.6,3.89C178.9,239.48,183,244.16,183.68,250.26ZM166.29,300l-.65-.35c-.06,2.6-.12,5.21-.19,7.81.79.45,1.56.91,2.3,1.43,3.15,2.17,6.14,5.93,3.94,9.86-2.08,3.71-7.28,5.44-10.9,7.17-6.61,3.18-17.57,8.8-14.66,18,4.66-14.69,30.63-10,32.32-26.93C179.26,308.82,172.73,303.57,166.29,300Zm28.9-99.58c-1.53,3.6-16.6,2.57-22.43.17a12.64,12.64,0,0,1-4.08-3.26c-10.9-.29-27.28,2.38-24.91,16.38.83,4.93,4.64,8.25,8.76,10.81q.16,6.53.33,13a54.08,54.08,0,0,1-10.74-6c-7.57-5.67-11.93-14.48-10.53-24,3-20.34,25.42-23.64,42.57-22.32a15.77,15.77,0,0,1,8.23-.12C188.42,186.92,196.39,197.59,195.19,200.42Zm-9.72-8.35A1.54,1.54,0,1,0,184,193.7,1.54,1.54,0,0,0,185.47,192.07Zm16.73,13.78a4.3,4.3,0,0,0-2.4-1,6.06,6.06,0,0,1-2.45-1.11c-.68-.51-1.27-1.14-2-1.64a4.84,4.84,0,0,0,2.86,4.18c1,.38,2,.23,3,.53.71.22,1.12.87,1.62,1.37A3,3,0,0,0,202.2,205.85ZM164,262c-2.12,1.16-4.37,2.2-6.71,3.28l-1,.47-.66-24.53-.09-3.58q-.47-18-.89-36a40.86,40.86,0,0,1,11-1.7Q164.83,231,164,262Zm-10-91.19c.08,4.25.18,8.49.26,12.74A66.65,66.65,0,0,1,166,182.35q.12-5.76.23-11.52a16.41,16.41,0,0,1-12.22,0Zm4,164.72q.18,9.09.33,18.17c0,1.61.09,2.88,1.78,2.88h.06c1.68,0,1.74-1.27,1.77-2.88q.16-9.95.37-19.89C160.75,334.39,159.3,335,157.92,335.55ZM162,323.2l.46-.2q.5-23.13,1.12-46.24l-.4.17c-1.5.66-3,1.35-4.52,2l-2,1q.58,22.63,1.09,45.27c.82-.42,1.58-.78,2.23-1.1S161.26,323.52,162,323.2Zm-1.91-157.85a19.1,19.1,0,0,1-13.72-5.5,14.76,14.76,0,0,0,13.72,9.44h0a14.76,14.76,0,0,0,13.73-9.44A19.11,19.11,0,0,1,160.07,165.35Zm0-24.77a11,11,0,1,0,11,11A11,11,0,0,0,160.07,140.58Z" transform="translate(0)"/>
    <g>
      <path class="cls-4" d="M108.53,220.65a15.44,15.44,0,0,1,5.82,4.35,19.27,19.27,0,0,1,3.13,5.23,17.58,17.58,0,0,1,1.15,6.54,18.66,18.66,0,0,1-2.24,8.71,12.5,12.5,0,0,1-7.38,6.05,11.64,11.64,0,0,1,6.1,4.92q1.78,3.18,1.79,9.72v4.18a31.47,31.47,0,0,0,.34,5.78,5.17,5.17,0,0,0,2.4,3.54v1.56H105.3c-.4-1.38-.68-2.49-.85-3.33a30.53,30.53,0,0,1-.54-5.36l-.09-5.78c0-4-.74-6.61-2-7.93s-3.79-2-7.41-2H81.67v24.38H69V219.05H98.72A27.09,27.09,0,0,1,108.53,220.65Zm-26.86,9.2v16.71h14a14.78,14.78,0,0,0,6.25-1q3.68-1.77,3.68-7,0-5.65-3.56-7.59a12.91,12.91,0,0,0-6-1.1Z" transform="translate(0)"/>
      <path class="cls-4" d="M244.33,219.05H263v62.18H250.92V239.17c0-1.21,0-2.9.05-5.08s0-3.86,0-5l-11.79,52.18H226.6l-11.7-52.18c0,1.18,0,2.86,0,5s0,3.87,0,5.08v42.06H202.87V219.05h18.91l11.32,48.89Z" transform="translate(0)"/>
      <path class="cls-4" d="M304.05,236.18A18.69,18.69,0,0,1,312,243a22.57,22.57,0,0,1,3.67,9.51,59.28,59.28,0,0,1,.39,9.13H282.56q.29,6.92,4.81,9.7a12.26,12.26,0,0,0,6.63,1.73,10.22,10.22,0,0,0,6.68-2.11,10.1,10.1,0,0,0,2.47-3.17h12.28q-.49,4.1-4.46,8.31-6.18,6.72-17.3,6.71a25,25,0,0,1-16.2-5.66q-7-5.65-7-18.4,0-12,6.33-18.33T293.23,234A26.13,26.13,0,0,1,304.05,236.18Zm-18,10.39a12.49,12.49,0,0,0-3.2,7.11h20.71c-.22-3.19-1.28-5.61-3.2-7.26a10.55,10.55,0,0,0-7.13-2.48A9.55,9.55,0,0,0,286.06,246.57Z" transform="translate(0)"/>
      <path class="cls-4" d="M346.52,236a14.65,14.65,0,0,1,5.27,5.08V219.13H364v62.1H352.3v-6.37a17,17,0,0,1-5.87,5.95,16.42,16.42,0,0,1-8.18,1.86,17.1,17.1,0,0,1-13.56-6.52q-5.51-6.52-5.51-16.73,0-11.78,5.42-18.52a17.65,17.65,0,0,1,14.49-6.75A14.78,14.78,0,0,1,346.52,236Zm3,32.75a16.76,16.76,0,0,0,2.66-9.82q0-8.45-4.26-12.07a9.2,9.2,0,0,0-6.08-2.19q-5.27,0-7.74,4a18.54,18.54,0,0,0-2.47,9.9q0,6.36,2.51,10.18a8.5,8.5,0,0,0,7.62,3.82A8.86,8.86,0,0,0,349.47,268.74Z" transform="translate(0)"/>
    </g>
  </g>
</svg>
