<svg id="Layer_1" data-name="Layer 1" xmlns="http://www.w3.org/2000/svg" viewBox="0 0 565.29 603.44"><defs><style>.cls-1,.cls-10,.cls-16,.cls-19,.cls-8{fill:#010101;}.cls-1{stroke:#231f20;stroke-width:0.67px;}.cls-1,.cls-13{stroke-miterlimit:10;}.cls-2{fill:#ed2225;}.cls-13,.cls-17,.cls-3,.cls-7{fill:none;}.cls-13,.cls-17,.cls-3,.cls-5,.cls-7,.cls-8{stroke:#010101;}.cls-17,.cls-3,.cls-5,.cls-7,.cls-8{stroke-linecap:round;stroke-linejoin:round;}.cls-3{stroke-width:5.54px;}.cls-4{fill:#f9d508;}.cls-5{fill:#bbbdbf;}.cls-5,.cls-7,.cls-8{stroke-width:2.77px;}.cls-6{fill:#939598;}.cls-9{fill:#754d29;}.cls-11{fill:#c3996b;}.cls-12{fill:#603a17;}.cls-13{stroke-width:0.55px;}.cls-14{fill:#ffdfae;}.cls-15,.cls-18{fill:#fff;}.cls-16,.cls-17,.cls-18{font-size:65.12px;font-family:Stratum2-Medium, Stratum2;font-weight:500;}.cls-17{stroke-width:8.89px;}.cls-19{font-size:10.02px;font-family:MyriadPro-Regular, Myriad Pro;letter-spacing:0.03em;}.cls-20{letter-spacing:0.04em;}.cls-21{letter-spacing:0.03em;}</style></defs><title>rockstar</title><polygon class="cls-1" points="34.69 151.05 34.69 452.39 295.65 603.06 556.62 452.39 556.62 151.05 295.65 0.39 34.69 151.05"/><path class="cls-2" d="M297.7,85.51a490,490,0,0,1,50.23,86.54,488,488,0,0,1,23,61.81,598.75,598.75,0,0,1,163.71,23.79,436.05,436.05,0,0,1-49.81,59.55,437,437,0,0,1-68.65,55.92,604.39,604.39,0,0,1,19,77.14,605.12,605.12,0,0,1,9,85.91,587,587,0,0,1-80.28-35.62,586.51,586.51,0,0,1-66.15-41.36c-22.68,14.36-47.74,29-75.18,43.27-24.79,12.91-48.66,24.06-71.25,33.71a585,585,0,0,1,28-163,517,517,0,0,1-64.94-54,517.12,517.12,0,0,1-53.52-61.46,531.69,531.69,0,0,1,163.71-23.79A483.37,483.37,0,0,1,297.7,85.51Z" transform="translate(-1.98 -33.36)"/><path class="cls-3" d="M297.7,85.51a490,490,0,0,1,50.23,86.54,488,488,0,0,1,23,61.81,598.75,598.75,0,0,1,163.71,23.79,436.05,436.05,0,0,1-49.81,59.55,437,437,0,0,1-68.65,55.92,604.39,604.39,0,0,1,19,77.14,605.12,605.12,0,0,1,9,85.91,587,587,0,0,1-80.28-35.62,586.51,586.51,0,0,1-66.15-41.36c-22.68,14.36-47.74,29-75.18,43.27-24.79,12.91-48.66,24.06-71.25,33.71a585,585,0,0,1,28-163,517,517,0,0,1-64.94-54,517.12,517.12,0,0,1-53.52-61.46,531.69,531.69,0,0,1,163.71-23.79A483.37,483.37,0,0,1,297.7,85.51Z" transform="translate(-1.98 -33.36)"/><path class="cls-4" d="M297.68,99.88a481.41,481.41,0,0,1,42.67,75.59,482,482,0,0,1,22.59,60.76,8.3,8.3,0,0,0,7.92,5.94A590,590,0,0,1,521,262.46a430.26,430.26,0,0,1-42,48.86,429.2,429.2,0,0,1-67.34,54.86,8.31,8.31,0,0,0-3.35,9.46A599.29,599.29,0,0,1,427,451.71a600.36,600.36,0,0,1,8.31,72.34,582.79,582.79,0,0,1-67.5-30.82,582.25,582.25,0,0,1-65.22-40.78,8.31,8.31,0,0,0-9.31-.28c-24.14,15.28-49.23,29.72-74.57,42.92-19.13,10-38.79,19.42-58.58,28.18a576.25,576.25,0,0,1,27-147.6,8.3,8.3,0,0,0-3.13-9.35,510.83,510.83,0,0,1-63.9-53.14,510.53,510.53,0,0,1-45.46-51,523.38,523.38,0,0,1,143.47-20.06c2.08,0,4.19,0,6.26,0h.1a8.3,8.3,0,0,0,8-6A475,475,0,0,1,297.68,99.88m0-14.37a483.37,483.37,0,0,0-73.22,148.35c-2.09,0-4.21,0-6.36,0A531.81,531.81,0,0,0,60.77,257.65a517.12,517.12,0,0,0,53.52,61.46,517,517,0,0,0,64.94,54,585,585,0,0,0-28,163c22.59-9.65,46.46-20.8,71.25-33.71C250,488.17,275,473.55,297.7,459.19a586.51,586.51,0,0,0,66.15,41.36,587,587,0,0,0,80.28,35.62,605.12,605.12,0,0,0-9-85.91,604.39,604.39,0,0,0-19-77.14,437,437,0,0,0,68.65-55.92,436.05,436.05,0,0,0,49.81-59.55,598.75,598.75,0,0,0-163.71-23.79,488,488,0,0,0-23-61.81A490,490,0,0,0,297.7,85.51Z" transform="translate(-1.98 -33.36)"/><path class="cls-5" d="M247.82,498.46l-16.57,1.6-4.35-12.5-9.18,3.87L219.9,481l-18.37,4.48,1.67-8-4.27-9.58,6.77-12.34,6.07-35.35a93.59,93.59,0,0,1,42.82,5.06,94.87,94.87,0,0,1,34.87,22.51Z" transform="translate(-1.98 -33.36)"/><path class="cls-5" d="M305.56,502.6l6.73-2.21,6.74-19.8,3,8.81,4.66-12.06,9,6.75,5.56-9.48,3.93.82,7.84-4.14,8.55,22.42,16.67-65.65a135.81,135.81,0,0,0-45.2,2.12,139.57,139.57,0,0,0-43.62,17.64Q297.52,475.21,305.56,502.6Z" transform="translate(-1.98 -33.36)"/><path class="cls-5" d="M170.18,405.44l-16.82-12.93,7.84-9.95.72-3.46,5.45-6.83L164.25,368l1.6-7.63-2.84-.59,17.35-18.09a151.43,151.43,0,0,1,19.48,36.52A155.75,155.75,0,0,1,209,420.12Z" transform="translate(-1.98 -33.36)"/><path class="cls-5" d="M148.12,287.73l9.36,2-21.36,8.7,4.27,9.59-.51,5.76L146,324.36l34.34,17.33a113.86,113.86,0,0,0,11.86-71.36Z" transform="translate(-1.98 -33.36)"/><path class="cls-5" d="M206.4,217.44l1.58-7.53,13.64-14.5,4.48,22.16L241.15,190l7.5,14.71L260.52,194l1.91,14.26,24.09,43.9a137.93,137.93,0,0,1-46.83,17.95,134.15,134.15,0,0,1-47.47.18Q199.32,243.89,206.4,217.44Z" transform="translate(-1.98 -33.36)"/><path class="cls-5" d="M476.3,279.31l-19.25,8.63,16.7,3.5-15.21,9.37,7.35,1.54-9.35,8,10.77,11.83-1.16,5.55L433,341.57a131.37,131.37,0,0,1-23.84-35.44,136.21,136.21,0,0,1-11.46-41.08l49.07-4.48-10,12.67,20.05-10.56,6,1.25Z" transform="translate(-1.98 -33.36)"/><path class="cls-5" d="M325.38,176.33l9.95,2.09,6.89-3.72L343.29,191l6.84,1.43,7.18,7.69,5-7.14,6.13,9.48,29.21,62.58a544,544,0,0,1-57.07-3.69,540,540,0,0,1-54.09-9.16q2.1-17.89,4.19-35.8l7.25,5,10.56-12.54L311.19,220Z" transform="translate(-1.98 -33.36)"/><path class="cls-5" d="M471.36,402.69,456,399.47l2.32,5.55-18.81,9.09,7,7.51-10.6,9.85-57.59-3.41a114.78,114.78,0,0,1,17.47-50.63A110.72,110.72,0,0,1,433,341.57Z" transform="translate(-1.98 -33.36)"/><path class="cls-6" d="M458.32,405.27l-18.81,9.09,7,7.52-10.6,9.84-57.6-3.4L361.61,494l-8.55-22.43-7.84,4.15-3.93-.83-5.56,9.49-9.05-6.75-4.65,12-3-8.8-6.74,19.79-6.73,2.21q-8-27.39-16.1-54.77-20.83,25.31-41.64,50.63l-16.57,1.6-4.35-12.5-9.18,3.87,2.18-10.4-18.38,4.47,1.67-8-4.27-9.59,6.78-12.33,6.06-35.35c-1-.06-1.9-.09-2.82-.13L170.18,405.7l-16.82-12.94,7.83-9.94.73-3.47,5.44-6.82-3.11-4.27,1.59-7.63L163,360,180.36,342,146,324.62,139.87,314l.52-5.77-4.27-9.58,21.36-8.7-9.36-2,44.1-17.4q7.09-26.44,14.18-52.9l1.58-7.52,13.64-14.51,4.47,22.16,15-27.58,7.51,14.7,11.87-10.64,1.9,14.26,24.1,43.9q2.09-17.91,4.18-35.8l7.26,5,10.55-12.54,2.68,11.11,14.18-43.64,9.95,2.08,6.9-3.71,1.06,16.3,6.85,1.44,7.18,7.68,5-7.13,6.12,9.47,29.22,62.58,49.06-4.47-10,12.66,20-10.55,6,1.25,13.52,15.37-19.25,8.64,16.7,3.5-15.21,9.37,7.35,1.54-9.36,8,10.78,11.82L466.14,328,433,341.82l38.39,61.12L456,399.72Z" transform="translate(-1.98 -33.36)"/><path class="cls-7" d="M458.32,405.27l-18.81,9.09,7,7.52-10.6,9.84-57.6-3.4L361.61,494l-8.55-22.43-7.84,4.15-3.93-.83-5.56,9.49-9.05-6.75-4.65,12-3-8.8-6.74,19.79-6.73,2.21q-8-27.39-16.1-54.77-20.83,25.31-41.64,50.63l-16.57,1.6-4.35-12.5-9.18,3.87,2.18-10.4-18.38,4.47,1.67-8-4.27-9.59,6.78-12.33,6.06-35.35c-1-.06-1.9-.09-2.82-.13L170.18,405.7l-16.82-12.94,7.83-9.94.73-3.47,5.44-6.82-3.11-4.27,1.59-7.63L163,360,180.36,342,146,324.62,139.87,314l.52-5.77-4.27-9.58,21.36-8.7-9.36-2,44.1-17.4q7.09-26.44,14.18-52.9l1.58-7.52,13.64-14.51,4.47,22.16,15-27.58,7.51,14.7,11.87-10.64,1.9,14.26,24.1,43.9q2.09-17.91,4.18-35.8l7.26,5,10.55-12.54,2.68,11.11,14.18-43.64,9.95,2.08,6.9-3.71,1.06,16.3,6.85,1.44,7.18,7.68,5-7.13,6.12,9.47,29.22,62.58,49.06-4.47-10,12.66,20-10.55,6,1.25,13.52,15.37-19.25,8.64,16.7,3.5-15.21,9.37,7.35,1.54-9.36,8,10.78,11.82L466.14,328,433,341.82l38.39,61.12L456,399.72Z" transform="translate(-1.98 -33.36)"/><path class="cls-8" d="M286.52,252.2a137.93,137.93,0,0,1-46.83,17.95,134.15,134.15,0,0,1-47.47.18,113.78,113.78,0,0,1-11.86,71.36A151.3,151.3,0,0,1,201,381.5,155.43,155.43,0,0,1,209,420.12a146,146,0,0,1,80.51,27.7,305.65,305.65,0,0,1,88.82-19.76,407.82,407.82,0,0,1,27.78-49.92A403.16,403.16,0,0,1,433,341.57a239.9,239.9,0,0,1-20.25-35.16,245.93,245.93,0,0,1-15.05-41.36,541.9,541.9,0,0,1-59.83-4C319.3,258.75,302.14,255.67,286.52,252.2Z" transform="translate(-1.98 -33.36)"/><path class="cls-9" d="M332.35,448.93l-.2,0a190.94,190.94,0,0,1-54.09-19.34H276.4a118.3,118.3,0,0,1-42.14-7.74l-.09,0a75.49,75.49,0,0,1-27.88-23.31c-13.57-18.7-14.7-38.66-14.16-48.89a200.42,200.42,0,0,1,3.62-24.93c2.13-10.11,6.58-21.79,9.82-30.32l.84-2.2c-16.42-26.57-28.18-51.8-34.95-75-2.32-7.93-21.66-78,12.29-94.06a18.88,18.88,0,0,1,8-2c18.75,0,24.34,36.11,28.42,62.49,1.19,7.72,2.22,14.39,3.4,19a130.9,130.9,0,0,0,16.9,38.26c6.33-10,16.83-16.18,27.81-16.18.53,0,1.05,0,1.58,0,9.89.53,16.95,6,20.16,9.07,3.12-3.09,14-12.62,29.65-12.62a39.88,39.88,0,0,1,5.65.41c14.88,2.18,23.84,12.21,27.32,16.95C358.88,215,361,191,362.91,169.68c3.14-35.32,5.62-63.21,26.39-63.21.48,0,1,0,1.49,0s14.24,1,19.87,8.16c20.81,26.61,11,65.17-1.41,114-7,27.5-14.92,58.66-18.54,92.66,14.75,14.17,21.89,29.76,21.24,46.34-.93,23.65-18.1,45.73-33.86,58.51-21.22,17.2-39.88,22.76-45.59,22.76Z" transform="translate(-1.98 -33.36)"/><path class="cls-10" d="M389.29,107.58c.47,0,.95,0,1.43,0,3.71.23,14.5,1.9,19.06,7.73,32.22,41.2-10.33,112.29-20.23,206.39,45,42.78,7.87,87.33-12.16,103.57-20.57,16.67-38.87,22.51-44.89,22.51h-.14a190.32,190.32,0,0,1-54-19.36h-1.94a117,117,0,0,1-41.73-7.67,74.19,74.19,0,0,1-27.47-23c-14.55-20-14.31-41.37-14-48.18a199.61,199.61,0,0,1,3.6-24.76c2.36-11.17,7.68-24.58,10.81-32.87-10.87-17.55-26.35-45.14-35.12-75.2-5.38-18.43-18.4-78.52,11.71-92.75a17.58,17.58,0,0,1,7.52-1.89c23.1,0,25.54,60.28,30.75,80.69a131.27,131.27,0,0,0,18,40.07c6-10.58,16.64-17.16,27.77-17.16.51,0,1,0,1.52,0,11.07.6,18.29,7.54,20.24,9.55,1-1.14,12.4-13.1,29.63-13.1a37.42,37.42,0,0,1,5.49.41c17.71,2.59,26.66,16.44,27.92,18.46,17.74-64,4.32-133.58,36.21-133.57m0-2.22h0c-21.77,0-24.29,28.34-27.48,64.22-1.83,20.59-3.89,43.76-9.68,66.5-4.29-5.25-13.07-13.59-26.65-15.59a40.55,40.55,0,0,0-5.81-.42c-14.94,0-25.67,8.48-29.66,12.21a33.19,33.19,0,0,0-20.09-8.66c-.54,0-1.09-.05-1.64-.05-10.82,0-21.19,5.76-27.79,15.25a129,129,0,0,1-15.84-36.49c-1.17-4.58-2.2-11.23-3.39-18.92-4.14-26.77-9.81-63.43-29.51-63.43a19.9,19.9,0,0,0-8.47,2.09c-13.77,6.51-20.64,22.27-20.43,46.83.19,22.28,6.32,44.36,7.54,48.55,6.76,23.17,18.47,48.34,34.79,74.81l-.64,1.69c-3.26,8.56-7.73,20.3-9.88,30.49a203,203,0,0,0-3.64,25v.07c-.54,10.37.61,30.61,14.38,49.59a76.4,76.4,0,0,0,28.28,23.65l.19.08a119.37,119.37,0,0,0,42.52,7.82h1.4A191.12,191.12,0,0,0,331.94,450a2.6,2.6,0,0,0,.39.05h.17c6.92,0,25.61-6.25,46.29-23,15.94-12.93,33.32-35.3,34.27-59.32.66-16.77-6.47-32.52-21.19-46.81,3.64-33.71,11.51-64.64,18.46-92,12.48-49.11,22.35-87.9,1.2-114.94-5.93-7.59-20.07-8.54-20.67-8.58s-1.05,0-1.57,0Z" transform="translate(-1.98 -33.36)"/><path class="cls-11" d="M184.23,124.08c-30.56,13.23-17.09,74.32-11.71,92.75,8.77,30.06,24.25,57.65,35.12,75.2-3.13,8.29-13.34,67.45,1.2,87.5,9.47,13.05,30.47,31.67,71.15,30.62,7.6,4.11,56.74,48.83,99.05-3.16,19.06-23.41,38.06-41.72,10.51-85.25,9.9-94.1,52.45-165.19,20.23-206.39-4.56-5.83-15.35-7.44-19.06-7.73-32-2.51-21.44,67.34-37.64,133.53-1.26-2-10.21-15.87-27.92-18.46-20.28-3-34,11.44-35.12,12.69-2-2-9.17-8.95-20.24-9.55-11.68-.63-23,6.06-29.29,17.12a131.27,131.27,0,0,1-18-40.07C216.78,180.44,214.39,111,184.23,124.08Z" transform="translate(-1.98 -33.36)"/><path class="cls-12" d="M367.26,383.43c.82.22-25.52-10.89-24.77-27.69a18.49,18.49,0,0,1,4.13-10.36,1,1,0,0,0-1.29-1.58,88.74,88.74,0,0,1-38.65,9.26,86.15,86.15,0,0,1-20-2.27c-1.32-.22-11.07-2-16.46-11.38a15.6,15.6,0,0,1-2.29-7.24,21.61,21.61,0,0,1,3-11.55c4.83-8.32,13.87-13.39,52-12.16,48.6,1.58,56.48,21.46,64.58,34.34a1.05,1.05,0,0,0,1.89-.88c-4.62-14.23-15.4-35.77-47.26-38.77a1.06,1.06,0,0,1-.93-1.31c1.86-6.84,3.75-20.34,7.17-40.37a1.05,1.05,0,0,0-2-.53c-4.54,13.24-8.06,26.69-11.92,41a1,1,0,0,1-1.17.76c-10.77-1.69-36.47-.21-44.46.69a1,1,0,0,1-1.13-.84,145.3,145.3,0,0,1-2.34-27.38,143.43,143.43,0,0,1,1.39-18.74,1.05,1.05,0,0,0-2-.51,95.07,95.07,0,0,0-4.18,47.74,1,1,0,0,1-.7,1.15,27.26,27.26,0,0,0-6.19,3c-8.56,5.63-11.42,18.5-12.37,25.78a2.92,2.92,0,0,1-4.8,1.84c-7.11-6.08-18.23-12.82-21.47-30.17-4.23-22.58,4.81-46.31,6.9-49.23-2.51,3.39-18.08,25.17-11.93,53.35,5,22.73,25.92,39,48.87,46.48a1,1,0,0,1,.64,1.42c-13.71,31.84-3.53,43.85-2.68,44,1.62.2-4.46-26.54,15.53-39,13.45-8.35,6.75-4.5,28.63-6.18C346.61,354.13,333.94,374.43,367.26,383.43Z" transform="translate(-1.98 -33.36)"/><path class="cls-13" d="M441.33,270.41" transform="translate(-1.98 -33.36)"/><path class="cls-13" d="M322.76,272.22" transform="translate(-1.98 -33.36)"/><path class="cls-14" d="M184.1,135.57c-18.26,12-10.82,46.44-4.72,69,8.13,30.06,18.37,54.22,27.73,70.31a5.69,5.69,0,0,0,10.18-.65c1.11-2.67,2.38-5.46,3.86-8.33a114,114,0,0,1,8.48-14,5.67,5.67,0,0,0,.12-6.37c-7.87-12.23-14-29.49-19.26-49.61C201.43,161.5,205.73,121.37,184.1,135.57Z" transform="translate(-1.98 -33.36)"/><path class="cls-14" d="M243.35,256.28a1.15,1.15,0,0,0,1.93,1c3.76-3.68,11.67-9.75,21.94-8.51a24.46,24.46,0,0,1,11.39,4.57,1.14,1.14,0,0,0,1.81-.84,16.7,16.7,0,0,1,1.81-6.43,16.52,16.52,0,0,1,3.52-4.57,1.14,1.14,0,0,0,0-1.73c-2.91-2.39-11-8.1-21.19-6.31C254.08,235.34,245.47,244.44,243.35,256.28Z" transform="translate(-1.98 -33.36)"/><path class="cls-14" d="M293.37,251.61a1.86,1.86,0,0,0,2.37,1.39,41.46,41.46,0,0,1,41.72,10.11,1.86,1.86,0,0,0,3-.6c1.87-4.43,4.72-13.95-.33-23A24.07,24.07,0,0,0,327.56,229c-14.09-5.24-27.1,5.12-27.88,5.75a17.09,17.09,0,0,0-6.34,9.86A16.63,16.63,0,0,0,293.37,251.61Z" transform="translate(-1.98 -33.36)"/><path class="cls-14" d="M384.26,314.1a.71.71,0,0,1-1.41,0c-1-11.23-4.94-20.69-13.28-26.07-5-3.22-9.59-6-13.2-7.21a3.47,3.47,0,0,1-2.19-4.36c10.64-33.4,9.7-53.17,12.39-71.28,4.8-32.42-.45-96.07,28.07-89.32,33.18,7.86,17.1,68.08,6.45,109.73A732.89,732.89,0,0,0,384.26,314.1Z" transform="translate(-1.98 -33.36)"/><path class="cls-12" d="M253.25,312.09c5.77-4.17,48.53-8.19,55.17-6.82,7.79-.28,10.5,34.15-3.88,34.28-14.62-.48-15.4-1.21-39.9,5.35C256.64,343.44,244.2,315.8,253.25,312.09Z" transform="translate(-1.98 -33.36)"/><path class="cls-10" d="M253.25,312.09c5.53-3.85,37.93-10.21,51.72-6.84,9.83,2.4,7.73,31.48-.14,30.3-11.67-1.29-23.85,1.77-48,7.51C244.9,346.19,239.05,317.11,253.25,312.09Z" transform="translate(-1.98 -33.36)"/><path class="cls-15" d="M275.17,308.06c9.54-2,20.52-3.19,27.51-1.06a9.17,9.17,0,0,1,4.89,4.37c2.11,3.9,1.56,12.62-2.46,17.87-4.6-1.67,1.81-13.32-2.81-16-4.28-2.45-12.81-2.69-27.5.36-13.73,2.85-23.38,8.85-23.41,11.95C249.63,315,256.07,312,275.17,308.06Z" transform="translate(-1.98 -33.36)"/><text class="cls-16" transform="matrix(0.04, 1, -1, 0.04, 50.4, 295.83)">c</text><text class="cls-16" transform="matrix(0.21, 0.98, -0.98, 0.21, 52.84, 337.44)">o</text><text class="cls-16" transform="matrix(0.38, 0.92, -0.92, 0.38, 62.89, 379.51)">d</text><text class="cls-16" transform="matrix(0.53, 0.85, -0.85, 0.53, 79.99, 418.67)">e</text><text class="cls-16" transform="matrix(0.69, 0.73, -0.73, 0.69, 103.51, 454.81)">w</text><text class="cls-16" transform="matrix(0.79, 0.61, -0.61, 0.79, 140.08, 490.93)">i</text><text class="cls-16" transform="matrix(0.86, 0.52, -0.52, 0.86, 160.29, 506.02)">t</text><text class="cls-16" transform="matrix(0.93, 0.38, -0.38, 0.93, 187.37, 521.99)">h</text><text class="cls-16" transform="matrix(0.97, 0.24, -0.24, 0.97, 226.9, 536.93)">r</text><text class="cls-16" transform="matrix(1, 0.09, -0.09, 1, 258.05, 544.18)">o</text><text class="cls-16" transform="matrix(1, -0.09, 0.09, 1, 301.02, 547)">c</text><text class="cls-16" transform="matrix(0.97, -0.25, 0.25, 0.97, 341.86, 542.67)">k</text><text class="cls-16" transform="matrix(0.91, -0.41, 0.41, 0.91, 380.88, 531.76)">s</text><text class="cls-16" transform="matrix(0.84, -0.54, 0.54, 0.84, 418.01, 514.02)">t</text><text class="cls-16" transform="matrix(0.75, -0.66, 0.66, 0.75, 444.67, 496.6)">a</text><text class="cls-16" transform="matrix(0.65, -0.76, 0.76, 0.65, 474.74, 468.96)">r</text><text class="cls-16" transform="matrix(0.58, -0.82, 0.82, 0.58, 490.9, 449.67)">.</text><text class="cls-16" transform="matrix(0.46, -0.89, 0.89, 0.46, 505.15, 429.45)">c</text><text class="cls-16" transform="matrix(0.3, -0.95, 0.95, 0.3, 523.8, 392.19)">o</text><text class="cls-16" transform="matrix(0.09, -1, 1, 0.09, 537.04, 349.99)">m</text><text class="cls-17" transform="matrix(0.04, 1, -1, 0.04, 50.4, 295.83)">c</text><text class="cls-17" transform="matrix(0.21, 0.98, -0.98, 0.21, 52.84, 337.44)">o</text><text class="cls-17" transform="matrix(0.38, 0.92, -0.92, 0.38, 62.89, 379.51)">d</text><text class="cls-17" transform="matrix(0.53, 0.85, -0.85, 0.53, 79.99, 418.67)">e</text><text class="cls-17" transform="matrix(0.69, 0.73, -0.73, 0.69, 103.51, 454.81)">w</text><text class="cls-17" transform="matrix(0.79, 0.61, -0.61, 0.79, 140.08, 490.93)">i</text><text class="cls-17" transform="matrix(0.86, 0.52, -0.52, 0.86, 160.29, 506.02)">t</text><text class="cls-17" transform="matrix(0.93, 0.38, -0.38, 0.93, 187.37, 521.99)">h</text><text class="cls-17" transform="matrix(0.97, 0.24, -0.24, 0.97, 226.9, 536.93)">r</text><text class="cls-17" transform="matrix(1, 0.09, -0.09, 1, 258.05, 544.18)">o</text><text class="cls-17" transform="matrix(1, -0.09, 0.09, 1, 301.02, 547)">c</text><text class="cls-17" transform="matrix(0.97, -0.25, 0.25, 0.97, 341.86, 542.67)">k</text><text class="cls-17" transform="matrix(0.91, -0.41, 0.41, 0.91, 380.88, 531.76)">s</text><text class="cls-17" transform="matrix(0.84, -0.54, 0.54, 0.84, 418.01, 514.02)">t</text><text class="cls-17" transform="matrix(0.75, -0.66, 0.66, 0.75, 444.67, 496.6)">a</text><text class="cls-17" transform="matrix(0.65, -0.76, 0.76, 0.65, 474.74, 468.96)">r</text><text class="cls-17" transform="matrix(0.58, -0.82, 0.82, 0.58, 490.9, 449.67)">.</text><text class="cls-17" transform="matrix(0.46, -0.89, 0.89, 0.46, 505.15, 429.45)">c</text><text class="cls-17" transform="matrix(0.3, -0.95, 0.95, 0.3, 523.8, 392.19)">o</text><text class="cls-17" transform="matrix(0.09, -1, 1, 0.09, 537.04, 349.99)">m</text><text class="cls-18" transform="matrix(0.04, 1, -1, 0.04, 50.4, 295.83)">c</text><text class="cls-18" transform="matrix(0.21, 0.98, -0.98, 0.21, 52.84, 337.44)">o</text><text class="cls-18" transform="matrix(0.38, 0.92, -0.92, 0.38, 62.89, 379.51)">d</text><text class="cls-18" transform="matrix(0.53, 0.85, -0.85, 0.53, 79.99, 418.67)">e</text><text class="cls-18" transform="matrix(0.69, 0.73, -0.73, 0.69, 103.51, 454.81)">w</text><text class="cls-18" transform="matrix(0.79, 0.61, -0.61, 0.79, 140.08, 490.93)">i</text><text class="cls-18" transform="matrix(0.86, 0.52, -0.52, 0.86, 160.29, 506.02)">t</text><text class="cls-18" transform="matrix(0.93, 0.38, -0.38, 0.93, 187.37, 521.99)">h</text><text class="cls-18" transform="matrix(0.97, 0.24, -0.24, 0.97, 226.9, 536.93)">r</text><text class="cls-18" transform="matrix(1, 0.09, -0.09, 1, 258.05, 544.18)">o</text><text class="cls-18" transform="matrix(1, -0.09, 0.09, 1, 301.02, 547)">c</text><text class="cls-18" transform="matrix(0.97, -0.25, 0.25, 0.97, 341.86, 542.67)">k</text><text class="cls-18" transform="matrix(0.91, -0.41, 0.41, 0.91, 380.88, 531.76)">s</text><text class="cls-18" transform="matrix(0.84, -0.54, 0.54, 0.84, 418.01, 514.02)">t</text><text class="cls-18" transform="matrix(0.75, -0.66, 0.66, 0.75, 444.67, 496.6)">a</text><text class="cls-18" transform="matrix(0.65, -0.76, 0.76, 0.65, 474.74, 468.96)">r</text><text class="cls-18" transform="matrix(0.58, -0.82, 0.82, 0.58, 490.9, 449.67)">.</text><text class="cls-18" transform="matrix(0.46, -0.89, 0.89, 0.46, 505.15, 429.45)">c</text><text class="cls-18" transform="matrix(0.3, -0.95, 0.95, 0.3, 523.8, 392.19)">o</text><text class="cls-18" transform="matrix(0.09, -1, 1, 0.09, 537.04, 349.99)">m</text><text class="cls-19" transform="translate(484.84 460.57)">L<tspan class="cls-20" x="5.01" y="0">o</tspan><tspan class="cls-21" x="10.93" y="0">r</tspan><tspan class="cls-20" x="14.53" y="0">em ipsum</tspan></text></svg>