<?xml version="1.0" encoding="utf-8"?>
<!-- Generator: Adobe Illustrator 16.0.4, SVG Export Plug-In . SVG Version: 6.00 Build 0)  -->
<!DOCTYPE svg PUBLIC "-//W3C//DTD SVG 1.1//EN" "http://www.w3.org/Graphics/SVG/1.1/DTD/svg11.dtd">
<svg version="1.1" xmlns="http://www.w3.org/2000/svg" xmlns:xlink="http://www.w3.org/1999/xlink" x="0px" y="0px"
	 width="1067.743px" height="990px" viewBox="0 0 1067.743 990" enable-background="new 0 0 1067.743 990" xml:space="preserve">
<g id="Layer_1">
</g>
<g id="Hex">
	<g>
		<path fill="#DF5943" d="M514.188,164.771l-258.95,149.504c-9.907,5.72-18.013,19.758-18.013,31.199v299.008
			c0,11.44,8.105,25.479,18.013,31.198l258.95,149.504c4.954,2.859,11.482,4.291,18.013,4.291V160.48
			C525.671,160.48,519.142,161.913,514.188,164.771z"/>
		<path fill="#C9503D" d="M809.162,675.681c9.907-5.72,18.013-19.758,18.013-31.198V345.474c0-11.44-8.105-25.479-18.013-31.199
			L550.214,164.771c-4.954-2.859-11.482-4.291-18.013-4.291v668.995c6.53,0,13.059-1.432,18.013-4.291L809.162,675.681z"/>
	</g>
</g>
<g id="ROpenSci">
	<g>
		<path fill="#FFFFFF" d="M267.719,490.545l1.419-10.583c0.125-0.045,0.26-0.087,0.412-0.126c0.151-0.039,0.318-0.075,0.506-0.106
			c0.187-0.033,0.392-0.062,0.621-0.084c0.23-0.023,0.481-0.041,0.759-0.052c0.595-0.024,1.16,0.036,1.672,0.192
			c0.513,0.155,0.974,0.405,1.358,0.757c0.387,0.352,0.698,0.806,0.913,1.37c0.215,0.563,0.333,1.234,0.333,2.023
			c0,0.945-0.148,1.828-0.422,2.62c-0.274,0.789-0.674,1.489-1.174,2.071c-0.499,0.582-1.098,1.045-1.775,1.366
			c-0.674,0.321-1.423,0.5-2.226,0.513L267.719,490.545 M271.478,473.192c-0.691,0.04-1.38,0.098-2.054,0.177
			c-0.673,0.079-1.331,0.177-1.958,0.292c-0.625,0.114-1.221,0.246-1.772,0.395c-0.55,0.148-1.057,0.312-1.504,0.491l-4.958,36.731
			l5.592,0.186l2.001-14.846l1.778-0.004c0.582-0.001,1.09,0.087,1.531,0.29c0.441,0.204,0.814,0.525,1.123,0.992
			c0.31,0.469,0.555,1.083,0.74,1.87c0.185,0.79,0.311,1.753,0.383,2.92c0.063,1.181,0.129,2.272,0.197,3.261
			c0.067,0.99,0.134,1.878,0.202,2.649c0.067,0.772,0.135,1.429,0.199,1.957c0.066,0.527,0.129,0.928,0.19,1.187l6.24,0.206
			c-0.13-0.409-0.239-1.032-0.338-1.807c-0.098-0.774-0.186-1.7-0.268-2.709c-0.083-1.011-0.163-2.106-0.245-3.222
			c-0.084-1.116-0.171-2.254-0.271-3.346c-0.062-0.884-0.157-1.703-0.291-2.452s-0.305-1.429-0.521-2.029s-0.478-1.122-0.789-1.556
			c-0.311-0.436-0.673-0.783-1.09-1.037v-0.16c0.914-0.41,1.776-0.946,2.557-1.612c0.785-0.668,1.485-1.464,2.072-2.392
			c0.588-0.931,1.06-1.992,1.386-3.183c0.326-1.194,0.504-2.518,0.504-3.971c0-0.9-0.083-1.729-0.24-2.488
			c-0.155-0.76-0.383-1.447-0.669-2.068c-0.286-0.619-0.631-1.169-1.021-1.652c-0.39-0.482-0.826-0.899-1.294-1.25
			c-0.501-0.403-1.051-0.729-1.637-0.986c-0.584-0.258-1.202-0.448-1.839-0.584c-0.636-0.136-1.292-0.217-1.954-0.254
			C272.801,473.15,272.135,473.156,271.478,473.192"/>
		<path fill="#FFFFFF" d="M296.442,508.98c-1.515-0.038-2.784-0.448-3.835-1.14c-1.047-0.688-1.881-1.658-2.527-2.825
			c-0.644-1.164-1.102-2.524-1.399-3.998c-0.297-1.475-0.434-3.062-0.434-4.684c0-1.381,0.103-2.856,0.303-4.354
			c0.199-1.498,0.497-3.02,0.885-4.494c0.39-1.475,0.871-2.901,1.437-4.209c0.569-1.311,1.225-2.5,1.961-3.495
			c0.476-0.626,0.981-1.199,1.515-1.71c0.536-0.512,1.099-0.96,1.691-1.334c0.593-0.375,1.213-0.675,1.862-0.891
			c0.65-0.216,1.328-0.345,2.031-0.378c1.735-0.084,3.138,0.283,4.265,0.973c1.134,0.693,1.986,1.712,2.618,2.928
			c0.634,1.217,1.046,2.63,1.3,4.108c0.252,1.479,0.348,3.021,0.348,4.497c0,1.449-0.113,3.002-0.329,4.579
			c-0.216,1.574-0.536,3.17-0.95,4.706c-0.413,1.532-0.92,3.005-1.513,4.335c-0.59,1.328-1.266,2.514-2.016,3.478
			c-0.501,0.629-1.04,1.192-1.604,1.683s-1.157,0.906-1.769,1.242c-0.61,0.335-1.241,0.589-1.885,0.755
			C297.756,508.918,297.101,508.997,296.442,508.98 M300.435,471.192c-0.993,0.057-1.977,0.244-2.932,0.547
			c-0.954,0.304-1.881,0.721-2.767,1.24c-0.882,0.517-1.724,1.134-2.507,1.838c-0.781,0.701-1.506,1.488-2.158,2.348
			c-0.914,1.237-1.724,2.649-2.426,4.181c-0.699,1.524-1.292,3.169-1.77,4.876c-0.477,1.702-0.842,3.468-1.086,5.241
			c-0.245,1.771-0.371,3.551-0.371,5.285c0,2.092,0.221,4.141,0.673,6.04c0.452,1.904,1.136,3.662,2.063,5.169
			c0.931,1.513,2.107,2.774,3.542,3.677c1.445,0.906,3.153,1.452,5.142,1.521c1.074,0.037,2.11-0.059,3.105-0.277
			c1-0.222,1.96-0.565,2.873-1.026c0.917-0.462,1.786-1.039,2.604-1.725c0.821-0.688,1.59-1.48,2.303-2.37
			c0.965-1.208,1.823-2.61,2.565-4.147c0.746-1.544,1.375-3.224,1.883-4.979c0.51-1.759,0.897-3.594,1.158-5.442
			c0.26-1.852,0.394-3.716,0.394-5.533c0-2.237-0.226-4.42-0.705-6.432c-0.477-2.007-1.205-3.836-2.209-5.369
			c-0.999-1.527-2.27-2.758-3.833-3.572C304.419,471.47,302.579,471.07,300.435,471.192"/>
		<path fill="#FFFFFF" d="M324.418,509.999c-0.517-0.015-1.003-0.066-1.461-0.155c-0.457-0.088-0.885-0.212-1.282-0.368
			s-0.766-0.346-1.103-0.563c-0.338-0.217-0.645-0.465-0.923-0.739l1.272-8.504c0.318-2.149,0.819-4.056,1.441-5.709
			c0.625-1.656,1.375-3.062,2.191-4.2c0.82-1.145,1.708-2.021,2.606-2.617c0.901-0.599,1.812-0.915,2.675-0.934
			c0.943-0.021,1.728,0.205,2.373,0.611c0.647,0.409,1.154,0.994,1.542,1.688c0.388,0.694,0.659,1.494,0.83,2.328
			c0.173,0.834,0.248,1.702,0.248,2.53c0,2.063-0.302,4.153-0.844,6.121c-0.542,1.965-1.323,3.805-2.279,5.38
			c-0.953,1.569-2.079,2.873-3.318,3.774C327.152,509.538,325.811,510.034,324.418,509.999 M331.474,481.699
			c-0.89,0.029-1.769,0.21-2.62,0.531c-0.848,0.319-1.669,0.776-2.448,1.36c-0.777,0.581-1.513,1.287-2.192,2.104
			c-0.678,0.815-1.301,1.742-1.854,2.77l-0.106,0.001l0.676-5.856l-3.897,0.119c-0.075,0.776-0.163,1.614-0.26,2.491
			c-0.099,0.877-0.208,1.795-0.325,2.731c-0.118,0.938-0.242,1.894-0.375,2.848c-0.131,0.953-0.268,1.907-0.407,2.838l-4.843,31.719
			l4.146,0.245l1.959-13.043l0.105,0.003c0.242,0.183,0.532,0.367,0.871,0.541c0.339,0.175,0.728,0.341,1.168,0.487
			c0.442,0.146,0.935,0.272,1.481,0.368c0.548,0.097,1.151,0.161,1.812,0.184c2.103,0.072,4.093-0.5,5.899-1.579
			c1.82-1.085,3.452-2.683,4.821-4.644c1.376-1.973,2.484-4.309,3.249-6.856c0.767-2.554,1.187-5.314,1.187-8.121
			c0-1.46-0.151-2.905-0.468-4.251c-0.316-1.345-0.797-2.586-1.456-3.64c-0.656-1.05-1.489-1.912-2.51-2.499
			C334.071,481.966,332.87,481.655,331.474,481.699"/>
		<path fill="#FFFFFF" d="M349.491,495.734c-0.091,0.002-0.182,0.002-0.273,0.002s-0.183,0-0.275-0.002
			c-0.091,0-0.183-0.001-0.275-0.002c-0.093,0-0.186-0.002-0.278-0.003c0.302-1.274,0.74-2.554,1.299-3.758
			c0.559-1.207,1.24-2.341,2.029-3.318c0.791-0.981,1.691-1.807,2.684-2.394c0.997-0.591,2.088-0.942,3.261-0.969
			c0.651-0.016,1.254,0.064,1.791,0.234c0.539,0.172,1.011,0.434,1.4,0.781c0.392,0.347,0.701,0.779,0.913,1.291
			c0.211,0.513,0.325,1.104,0.325,1.77c0,1.241-0.348,2.262-0.982,3.093c-0.634,0.83-1.551,1.47-2.693,1.954
			c-1.136,0.482-2.491,0.811-4.005,1.02C352.906,495.641,351.246,495.729,349.491,495.734 M358.358,480.841
			c-2.304,0.074-4.414,0.838-6.279,2.091c-1.851,1.243-3.464,2.97-4.791,4.984c-1.32,2.003-2.357,4.297-3.066,6.691
			c-0.704,2.387-1.083,4.881-1.083,7.296c0,1.769,0.194,3.46,0.6,5.008c0.406,1.552,1.023,2.958,1.869,4.154
			c0.848,1.199,1.927,2.187,3.255,2.892c1.334,0.708,2.922,1.131,4.785,1.195c0.952,0.033,1.884-0.011,2.781-0.116
			c0.9-0.105,1.765-0.271,2.578-0.483c0.816-0.213,1.581-0.47,2.276-0.757c0.698-0.288,1.328-0.604,1.873-0.934l-0.712-4.274
			c-0.454,0.263-0.956,0.529-1.505,0.78c-0.548,0.248-1.146,0.482-1.792,0.679c-0.645,0.197-1.336,0.358-2.079,0.463
			c-0.74,0.107-1.529,0.158-2.366,0.137c-0.73-0.019-1.418-0.123-2.057-0.317c-0.637-0.193-1.227-0.476-1.757-0.847
			c-0.53-0.371-1.004-0.832-1.414-1.386c-0.409-0.552-0.754-1.197-1.025-1.937c-0.159-0.436-0.287-0.951-0.387-1.5
			c-0.101-0.55-0.173-1.132-0.219-1.705c-0.045-0.57-0.064-1.133-0.058-1.64c0.005-0.507,0.037-0.958,0.091-1.311
			c0.105,0.003,0.211,0.006,0.316,0.007c0.107,0.003,0.212,0.004,0.317,0.006c0.104,0.002,0.209,0.003,0.315,0.004
			c0.105,0.002,0.209,0.002,0.315,0.003c2.427,0.012,4.744-0.126,6.857-0.471c2.133-0.349,4.055-0.905,5.675-1.729
			c1.63-0.827,2.95-1.922,3.864-3.337c0.917-1.421,1.422-3.16,1.422-5.269c0-1.21-0.193-2.353-0.57-3.382
			c-0.377-1.028-0.936-1.942-1.671-2.699c-0.731-0.755-1.635-1.352-2.701-1.749C360.953,480.993,359.731,480.798,358.358,480.841"/>
		<path fill="#FFFFFF" d="M390.9,479.803c-1.17,0.037-2.321,0.245-3.432,0.613c-1.104,0.367-2.169,0.893-3.176,1.566
			c-1.002,0.67-1.945,1.489-2.811,2.443c-0.863,0.952-1.649,2.041-2.341,3.257l-0.133,0.002l0.779-6.742l-4.732,0.146
			c-0.076,0.708-0.163,1.444-0.26,2.211c-0.096,0.767-0.205,1.562-0.322,2.39c-0.12,0.825-0.25,1.682-0.394,2.569
			c-0.142,0.886-0.298,1.804-0.467,2.753l-4.004,23.923l5.14,0.17l2.796-16.511c0.348-2.116,0.947-4.021,1.71-5.688
			c0.764-1.675,1.694-3.113,2.704-4.293c1.013-1.184,2.105-2.105,3.188-2.738c1.086-0.635,2.164-0.978,3.141-1
			c0.952-0.021,1.747,0.122,2.404,0.403c0.66,0.282,1.181,0.704,1.582,1.237c0.401,0.534,0.683,1.181,0.865,1.911
			c0.18,0.732,0.262,1.551,0.262,2.425c0,0.384-0.013,0.771-0.036,1.156c-0.023,0.388-0.056,0.773-0.094,1.154
			s-0.081,0.757-0.127,1.125c-0.047,0.367-0.095,0.726-0.142,1.071l-3.56,20.233l5.511,0.183l3.703-20.64
			c0.09-0.478,0.174-0.974,0.249-1.475c0.075-0.502,0.142-1.008,0.197-1.506c0.056-0.499,0.1-0.987,0.129-1.455
			c0.03-0.466,0.047-0.91,0.047-1.317c0-1.856-0.279-3.395-0.762-4.654c-0.481-1.258-1.163-2.235-1.968-2.977
			c-0.802-0.739-1.725-1.241-2.694-1.552C392.888,479.888,391.879,479.771,390.9,479.803"/>
		<path fill="#FFFFFF" d="M428.488,463.986c-2.804,0.159-5.445,0.702-7.822,1.585c-2.36,0.877-4.464,2.09-6.218,3.602
			c-1.743,1.502-3.145,3.302-4.106,5.366c-0.961,2.057-1.489,4.38-1.489,6.942c0,1.623,0.305,3.082,0.843,4.399
			c0.54,1.321,1.313,2.505,2.25,3.575c0.939,1.074,2.043,2.033,3.239,2.904c1.201,0.874,2.496,1.658,3.808,2.374
			c1.151,0.622,2.153,1.205,3.009,1.776c0.858,0.573,1.569,1.135,2.135,1.711c0.567,0.577,0.989,1.169,1.268,1.804
			c0.281,0.635,0.419,1.312,0.419,2.058c0,1.007-0.244,1.885-0.674,2.632c-0.429,0.747-1.043,1.363-1.789,1.852
			c-0.744,0.487-1.616,0.845-2.561,1.076c-0.942,0.23-1.955,0.336-2.986,0.317c-1.143-0.021-2.257-0.131-3.333-0.313
			c-1.071-0.182-2.102-0.436-3.081-0.743c-0.975-0.306-1.898-0.666-2.755-1.064c-0.855-0.396-1.646-0.83-2.358-1.284l-3.368,8.742
			c0.557,0.444,1.273,0.897,2.137,1.333c0.866,0.437,1.881,0.855,3.039,1.228c1.162,0.374,2.468,0.703,3.911,0.958
			c1.451,0.257,3.041,0.439,4.761,0.519c2.777,0.096,5.458-0.178,7.924-0.829c2.487-0.655,4.752-1.692,6.67-3.111
			c1.931-1.43,3.508-3.242,4.602-5.438c1.099-2.204,1.711-4.784,1.711-7.735c0-1.589-0.256-3.053-0.741-4.402
			c-0.483-1.347-1.196-2.579-2.106-3.711c-0.908-1.128-2.012-2.155-3.286-3.097c-1.267-0.938-2.7-1.789-4.269-2.569
			c-1.087-0.594-2.093-1.154-2.991-1.708c-0.894-0.551-1.681-1.097-2.331-1.66c-0.65-0.562-1.164-1.145-1.516-1.77
			c-0.353-0.624-0.542-1.293-0.542-2.031c0-0.706,0.162-1.399,0.486-2.044c0.322-0.646,0.807-1.247,1.451-1.765
			c0.646-0.52,1.452-0.957,2.418-1.28c0.97-0.322,2.101-0.526,3.395-0.58c0.028-0.001,0.057-0.002,0.086-0.005
			c0.028-0.001,0.057-0.002,0.085-0.004c0.029-0.001,0.057-0.002,0.086-0.004c0.028-0.001,0.057-0.002,0.085-0.003
			c1.018-0.041,2.006,0.005,2.941,0.108c0.939,0.105,1.824,0.271,2.634,0.466c0.813,0.197,1.55,0.426,2.187,0.656
			c0.64,0.231,1.18,0.467,1.599,0.676l3.572-9.616c-0.579-0.263-1.252-0.536-2.034-0.792c-0.781-0.255-1.671-0.493-2.688-0.686
			c-1.015-0.193-2.154-0.342-3.437-0.419C431.483,463.904,430.064,463.896,428.488,463.986"/>
		<path fill="#FFFFFF" d="M470.85,476.849c-4.065,0.132-7.794,0.949-11.091,2.313c-3.264,1.349-6.113,3.235-8.455,5.532
			c-2.326,2.278-4.16,4.966-5.411,7.943c-1.246,2.964-1.917,6.228-1.917,9.676c0,2.499,0.429,4.749,1.225,6.723
			c0.798,1.979,1.97,3.687,3.456,5.095c1.493,1.414,3.307,2.53,5.384,3.314c2.092,0.79,4.453,1.245,7.028,1.334
			c1.243,0.044,2.446,0.028,3.595-0.036c1.154-0.066,2.252-0.181,3.282-0.338c1.032-0.156,1.993-0.354,2.869-0.585
			c0.878-0.231,1.669-0.495,2.36-0.783l-0.092-9.074c-0.56,0.199-1.144,0.398-1.762,0.582c-0.616,0.185-1.267,0.354-1.964,0.496
			c-0.694,0.144-1.435,0.26-2.229,0.334c-0.793,0.076-1.64,0.11-2.553,0.095c-1.141-0.023-2.224-0.218-3.204-0.582
			c-0.979-0.361-1.857-0.894-2.594-1.593c-0.733-0.697-1.326-1.561-1.735-2.59c-0.409-1.027-0.635-2.222-0.635-3.581
			c0-1.865,0.338-3.703,0.978-5.415c0.641-1.715,1.59-3.306,2.811-4.669c1.226-1.369,2.732-2.514,4.485-3.324
			c1.763-0.816,3.779-1.299,6.019-1.339c0.64-0.011,1.23,0.004,1.779,0.041c0.549,0.038,1.057,0.1,1.532,0.179
			c0.475,0.08,0.917,0.181,1.335,0.296c0.42,0.117,0.815,0.25,1.194,0.396l3.244-9.393c-0.494-0.152-1.066-0.302-1.708-0.438
			c-0.639-0.136-1.346-0.26-2.107-0.36c-0.759-0.101-1.574-0.178-2.432-0.223C472.679,476.83,471.779,476.818,470.85,476.849"/>
		<path fill="#FFFFFF" d="M502.298,476.758l-13.684,0.426l-8.551,41.407l13.321,0.44L502.298,476.758 M498.326,458.467
			c-1.052,0.062-2.072,0.301-3.01,0.69c-0.935,0.387-1.786,0.924-2.507,1.583c-0.72,0.658-1.308,1.437-1.716,2.313
			s-0.637,1.847-0.637,2.889c0,0.895,0.17,1.709,0.485,2.422c0.315,0.716,0.773,1.332,1.351,1.832
			c0.58,0.501,1.278,0.886,2.071,1.136c0.793,0.251,1.682,0.368,2.639,0.33l0.198-0.008c1.093-0.043,2.15-0.245,3.123-0.595
			c0.975-0.352,1.864-0.85,2.615-1.484c0.754-0.635,1.37-1.405,1.797-2.297c0.429-0.893,0.669-1.907,0.669-3.027
			c0-0.938-0.184-1.785-0.527-2.523c-0.342-0.739-0.839-1.369-1.468-1.873c-0.627-0.504-1.382-0.882-2.241-1.118
			C500.313,458.501,499.357,458.406,498.326,458.467"/>
	</g>
</g>
<g id="R_with_Open_Circle">
	<path fill="#FFFFFF" d="M724.113,373.687c-0.786-3.644-1.938-7.086-3.402-10.327c-1.47-3.26-3.26-6.323-5.309-9.185
		c-2.067-2.884-4.404-5.571-6.952-8.047c-2.745-2.835-5.804-5.427-9.107-7.805c-3.345-2.407-6.946-4.598-10.729-6.598
		c-3.839-2.027-7.87-3.86-12.017-5.523c-4.21-1.687-8.54-3.199-12.903-4.559c-4.648-1.447-9.393-2.813-14.124-4.063
		c-4.812-1.272-9.611-2.428-14.28-3.43c-4.746-1.02-9.353-1.883-13.693-2.553c-4.407-0.679-8.53-1.159-12.234-1.404L564.54,525.638
		l50.088-2.343l15.83-83.534l13.297,1.246c4.173,0.39,7.766,1.197,10.837,2.565c3.036,1.354,5.571,3.264,7.652,5.874
		c2.065,2.591,3.69,5.88,4.915,10.019c1.219,4.118,2.045,9.089,2.517,15.065c0.399,6.038,0.816,11.614,1.241,16.662
		c0.424,5.04,0.855,9.552,1.29,13.469c0.432,3.911,0.863,7.23,1.287,9.891c0.424,2.656,0.839,4.656,1.239,5.935l36.488-1.706
		c-0.689-1.851-1.281-4.721-1.812-8.309c-0.533-3.595-1.005-7.907-1.456-12.633c-0.453-4.733-0.885-9.881-1.336-15.137
		c-0.451-5.266-0.924-10.643-1.456-15.826c-0.35-4.161-0.879-8.055-1.626-11.645c-0.747-3.601-1.715-6.904-2.939-9.874
		c-1.231-2.986-2.726-5.642-4.527-7.935c-1.812-2.309-3.94-4.255-6.429-5.801v-0.844c5.382-1.289,10.339-3.193,14.729-5.729
		c4.316-2.495,8.101-5.609,11.216-9.373c3.076-3.717,5.515-8.086,7.179-13.15c1.654-5.031,2.553-10.778,2.553-17.304
		C725.316,381.163,724.896,377.32,724.113,373.687z M687.858,395.873c-1.655,3.547-4.088,6.526-7.172,8.843
		c-3.119,2.345-6.92,4.021-11.279,4.917c-4.43,0.91-9.453,1.017-14.942,0.19l-17.296-2.604l10.376-54.979
		c0.871-0.01,1.83,0.024,2.901,0.111c1.066,0.086,2.241,0.225,3.546,0.425c1.298,0.199,2.722,0.458,4.291,0.786
		c1.561,0.326,3.263,0.72,5.126,1.189c3.965,0.999,7.655,2.362,10.949,4.084c3.255,1.701,6.133,3.757,8.515,6.167
		c2.361,2.388,4.245,5.131,5.535,8.238c1.283,3.09,1.985,6.553,1.985,10.402C690.394,388.244,689.505,392.348,687.858,395.873z"/>
	<path fill="#652820" d="M759.148,457.577l-27.465,14.369l-5.637,2.925l14.321,12.605l15.851,13.923l0.953-14.164
		c5.385,1.209,9.645,3.605,13.009,6.818c3.315,3.166,5.787,7.147,7.611,11.597c1.809,4.414,2.991,9.313,3.721,14.36
		c0.727,5.03,1.007,10.226,1.007,15.241c0,5.425-0.394,11.287-1.152,17.296c-0.764,6.03-1.898,12.227-3.381,18.297
		c-1.493,6.11-3.343,12.109-5.528,17.695c-2.208,5.641-4.765,10.874-7.651,15.382c-1.941,2.991-4.051,5.791-6.302,8.358
		c-2.273,2.594-4.693,4.954-7.229,7.04c-2.564,2.108-5.251,3.938-8.027,5.443c-2.81,1.523-5.713,2.715-8.678,3.529
		c-7.009,1.924-13.077,1.93-18.244,0.357c-5.275-1.604-9.571-4.838-12.96-9.304c-3.434-4.523-5.91-10.276-7.532-16.82
		c-1.631-6.584-2.385-13.924-2.385-21.565c0-2.527,0.088-5.132,0.259-7.794c0.173-2.66,0.428-5.374,0.765-8.122
		c0.335-2.746,0.751-5.522,1.242-8.31c0.491-2.782,1.058-5.572,1.696-8.352l-22.088,2.256c-0.671,2.996-1.27,6.01-1.79,9.028
		c-0.521,3.025-0.965,6.053-1.324,9.072c-0.358,3.021-0.634,6.032-0.819,9.019c-0.186,2.988-0.281,5.949-0.281,8.871
		c0,10.351,1.353,20.212,4.084,28.967c2.705,8.669,6.738,16.167,12.087,21.928c5.243,5.646,11.699,9.569,19.321,11.28
		c7.402,1.662,15.836,1.224,25.229-1.702c4.876-1.519,9.477-3.505,13.797-5.899c4.242-2.353,8.223-5.102,11.935-8.195
		c3.653-3.045,7.055-6.428,10.195-10.1c3.097-3.62,5.95-7.53,8.548-11.684c3.473-5.556,6.498-11.638,9.078-18.028
		c2.552-6.315,4.677-12.957,6.376-19.723c1.685-6.71,2.955-13.566,3.802-20.374c0.845-6.777,1.273-13.532,1.273-20.07
		c0-7.533-0.64-14.882-1.997-21.73c-1.366-6.895-3.468-13.33-6.404-18.982c-2.978-5.732-6.835-10.703-11.698-14.569
		c-4.974-3.951-11.043-6.781-18.384-8.094L759.148,457.577"/>
</g>
</svg>
