<svg id="Layer_1" data-name="Layer 1" xmlns="http://www.w3.org/2000/svg" xmlns:xlink="http://www.w3.org/1999/xlink" viewBox="0 0 735 852"><defs><style>.cls-1{fill:none;}.cls-2{clip-path:url(#clip-path);}.cls-3{fill:#428bca;}.cls-4{opacity:0.25;fill:url(#linear-gradient);}.cls-5{fill:#3674a8;}.cls-6{fill:#e6b35a;}.cls-7,.cls-9{fill:#fff;}.cls-8,.cls-9{opacity:0.9;}</style><clipPath id="clip-path"><polygon class="cls-1" points="369.5 9.1 728.2 216.2 728.2 638.3 369.5 846.7 2.8 638.3 2.8 216.2 369.5 9.1"/></clipPath><linearGradient id="linear-gradient" x1="366.25" y1="-120.69" x2="367.55" y2="342.84" gradientUnits="userSpaceOnUse"><stop offset="0" stop-color="#fff" stop-opacity="0.83"/><stop offset="0.56" stop-color="#fff" stop-opacity="0.37"/><stop offset="1" stop-color="#fff" stop-opacity="0"/></linearGradient></defs><title>RStudio_Hex 2016 v7 outlines</title><g class="cls-2"><circle class="cls-3" cx="365.5" cy="439.2" r="442.1"/><ellipse class="cls-4" cx="366.9" cy="107.5" rx="315.2" ry="234.6"/></g><path class="cls-5" d="M705.6,197.9L427.8,37.5,367.5,2.7,307.2,37.5,29.4,197.9,0.1,214.8V639.1L29.4,656,310.6,818.4l56.9,32.8,56.9-32.8L705.6,656l29.3-16.9V214.8Zm0,425.3L367.5,818.4,29.4,623.2V232.7L367.5,37.5h0L705.6,232.7V623.2Z"/><path class="cls-6" d="M182.4,633.9l0.9-.9h-0.3Z"/><path class="cls-7" d="M365.5,798l4.5,4.5,2.7,2.9h0.1c-0.4-1.2-.7-2.5-1-3.9l-1.4-6.3,1.6-.9,4.7,4.3,2.9,2.9h0.1a36.6,36.6,0,0,1-1.2-3.9l-1.6-6.1,1.9-1.1,2.7,12.4-1.7,1-4.5-4.1a40.5,40.5,0,0,1-2.9-2.9h0a35.5,35.5,0,0,1,1.1,4l1.2,5.9-1.7,1-9.2-8.6Z"/><path class="cls-7" d="M381.7,788.6l4.5,4.5,2.7,2.9h0.1c-0.4-1.2-.7-2.5-1-3.9l-1.4-6.3,1.6-.9,4.7,4.3,2.9,2.9h0.1a36.4,36.4,0,0,1-1.2-3.9L393,782l1.9-1.1,2.7,12.4-1.7,1-4.5-4.1a40.5,40.5,0,0,1-2.9-2.9h0a35.4,35.4,0,0,1,1.1,4l1.2,5.9-1.7,1-9.2-8.6Z"/><path class="cls-7" d="M397.8,779.2l4.5,4.5,2.7,2.9h0.1c-0.4-1.2-.7-2.5-1-3.9l-1.4-6.3,1.6-.9,4.7,4.3,2.9,2.9h0.1a36.3,36.3,0,0,1-1.2-3.9l-1.6-6.1,1.9-1.1,2.7,12.4-1.7,1-4.5-4.1a40,40,0,0,1-2.9-2.9h0a35.2,35.2,0,0,1,1.1,4l1.2,5.9-1.7,1-9.2-8.6Z"/><path class="cls-7" d="M419.2,781.1a1.6,1.6,0,1,1,.5-2.1,1.5,1.5,0,0,1-.5,2.1h0Z"/><path class="cls-7" d="M418.5,771.5l-2-3.2,1.7-1,1.3,2h0.1a3.6,3.6,0,0,1,1.6-4l0.6-.2,1,1.8-0.7.3a3.1,3.1,0,0,0-1.1,3.9l0.4,0.9,3.2,5.6-1.9,1.1Z"/><path class="cls-7" d="M428.4,772.8a5.8,5.8,0,0,0,2.9-.7c1.4-.8,1.6-1.9,1.1-2.7s-1.4-1.1-3.1-.8-3.8-.1-4.5-1.3-0.4-3.9,1.8-5.2a6,6,0,0,1,2.9-.8l0.3,1.7a4.7,4.7,0,0,0-2.5.6,1.8,1.8,0,0,0-.9,2.4c0.5,0.9,1.4.9,3,.6s3.7,0,4.6,1.6,0.4,4-2.1,5.4a6.9,6.9,0,0,1-3.4,1Z"/><path class="cls-7" d="M433.1,755.4l1.5,2.5,2.7-1.6,0.8,1.4-2.7,1.6,3.3,5.6c0.8,1.3,1.6,1.8,2.6,1.2l1-.8,0.9,1.4a5.3,5.3,0,0,1-1.5,1.3,3.1,3.1,0,0,1-2.5.4,4.5,4.5,0,0,1-2.3-2.3l-3.3-5.7-1.6.9-0.8-1.4,1.6-.9-1.1-1.9Z"/><path class="cls-7" d="M452.6,757.5l1.7,2.8-1.7,1-1.1-1.6h0a4.6,4.6,0,0,1-2.3,4c-1.6,1-4.1,1.2-6.3-2.5l-3.6-6.1,1.9-1.1,3.4,5.8c1.2,2,2.5,3,4.3,2a3.2,3.2,0,0,0,1.5-3.2,3.2,3.2,0,0,0-.4-1.1l-3.7-6.4,1.9-1.1Z"/><path class="cls-7" d="M457.5,738l7.4,12.6,1.7,2.6-1.7,1-1.1-1.8h0a4.5,4.5,0,0,1-2.4,4.1c-2.5,1.5-5.7.5-7.6-2.7s-1.1-6.9,1.4-8.3a4,4,0,0,1,4.1-.2h0l-3.6-6.2Zm3.4,10.2-0.6-.7a3.2,3.2,0,0,0-4-.6c-2,1.1-2.1,3.6-.8,5.9s3.3,3.3,5.3,2.1a3.3,3.3,0,0,0,1.5-3.9,3.8,3.8,0,0,0-.4-0.9Z"/><path class="cls-7" d="M463.9,736.8a1.4,1.4,0,0,1-2.4,1.4,1.3,1.3,0,0,1,.5-1.9A1.3,1.3,0,0,1,463.9,736.8Zm5.7,14.6L463.5,741l1.9-1.1,6.1,10.5Z"/><path class="cls-7" d="M481,737.7c2.3,3.9.6,7.1-2,8.6s-6.2.8-8.1-2.5-0.9-6.9,2-8.6S479.1,734.5,481,737.7Zm-8.2,4.9c1.3,2.3,3.7,3.2,5.5,2.2s2.2-3.6.8-5.9-3.2-3.5-5.5-2.2S471.6,740.6,472.8,742.6Z"/><path class="cls-7" d="M486.9,741.7a1.6,1.6,0,1,1,.5-2.1,1.5,1.5,0,0,1-.5,2.1h0Z"/><path class="cls-7" d="M497.7,734.6a8,8,0,0,1-2.6,2.4c-3.2,1.8-6.5.9-8.3-2.3a6.1,6.1,0,0,1,2.4-8.8,7.3,7.3,0,0,1,2.9-1l0.4,1.7a5.1,5.1,0,0,0-2.5.8c-2.4,1.4-2.7,3.9-1.4,6.1s3.8,3,5.9,1.8a6.2,6.2,0,0,0,2-1.9Z"/><path class="cls-7" d="M506.3,722.9c2.3,3.9.6,7.1-2,8.6s-6.2.8-8.1-2.5-0.9-6.9,2-8.6S504.5,719.7,506.3,722.9Zm-8.2,4.9c1.3,2.3,3.7,3.3,5.5,2.2s2.2-3.6.8-5.9-3.2-3.5-5.5-2.2S497,725.9,498.1,727.9Z"/><path class="cls-7" d="M507.4,719.2l-1.7-2.8,1.7-1,1.1,1.6h0.1a4.2,4.2,0,0,1,2.2-3.8,3.6,3.6,0,0,1,4.2.4h0a5,5,0,0,1,.4-2,4.1,4.1,0,0,1,1.9-2.1c1.4-.8,4-1.1,6.1,2.5l3.6,6.2-1.9,1.1-3.4-5.9c-1.2-2-2.6-2.8-4.1-1.9a2.9,2.9,0,0,0-1.2,3,3.6,3.6,0,0,0,.4,1l3.8,6.5-1.9,1.1-3.6-6.3c-1-1.7-2.4-2.4-3.9-1.6a3,3,0,0,0-1.2,3.3,3.1,3.1,0,0,0,.4,1l3.7,6.3-1.9,1.1Z"/><g class="cls-8"><path class="cls-7" d="M126.2,553.6c0-7.8-.1-14.4-0.5-20.5h10.5l0.4,12.9H137c3-8.8,10.2-14.4,18.2-14.4a13,13,0,0,1,3.4.4v11.3a18,18,0,0,0-4.1-.4c-8.4,0-14.4,6.4-16,15.4a33.7,33.7,0,0,0-.5,5.6v35.1H126.2V553.6Z"/><path class="cls-7" d="M224.5,565.4c0,24.3-16.9,35-32.8,35-17.8,0-31.6-13.1-31.6-33.9s14.4-35,32.6-35S224.5,545.3,224.5,565.4Zm-52.2.7c0,14.4,8.3,25.3,20,25.3s20-10.7,20-25.6c0-11.2-5.6-25.3-19.7-25.3S172.3,553.6,172.3,566.1Z"/><path class="cls-7" d="M238.9,533l9.4,14.1c2.4,3.7,4.5,7.1,6.7,10.7h0.4c2.2-3.9,4.4-7.3,6.5-10.9l9.2-14h12.9l-22.4,31.8,23.1,34H271.1L261.5,584c-2.6-3.8-4.8-7.5-7.1-11.4h-0.3c-2.2,4.1-4.5,7.5-6.9,11.4l-9.5,14.8H224.5l23.4-33.6L225.6,533h13.3Z"/><path class="cls-7" d="M298.3,533l14.4,38.9c1.5,4.4,3.1,9.5,4.2,13.5h0.3c1.2-3.9,2.6-9,4.2-13.7L334.5,533h12.6l-18,46.9c-8.6,22.6-14.4,34.1-22.6,41.2a32.4,32.4,0,0,1-14.7,7.8l-3-10.1a31.6,31.6,0,0,0,10.5-5.8,36.3,36.3,0,0,0,10.1-13.3,8.6,8.6,0,0,0,1-2.9,10.4,10.4,0,0,0-.8-3.1L285.3,533h13.1Z"/><path class="cls-7" d="M408.5,589.3c0,15.1-3,24.3-9.4,30.1s-15.6,7.9-23.9,7.9-16.6-1.9-21.9-5.4l3-9.1a37.1,37.1,0,0,0,19.3,5.2c12.2,0,21.2-6.4,21.2-23v-7.3h-0.3c-3.7,6.1-10.7,11-20.9,11-16.3,0-28-13.9-28-32.1,0-22.3,14.6-35,29.6-35,11.4,0,17.7,6,20.5,11.4H398l0.5-9.9H409c-0.3,4.8-.5,10.1-0.5,18.1v38.2ZM396.7,559a17,17,0,0,0-.7-5.4c-2.2-6.9-8-12.6-16.7-12.6-11.4,0-19.6,9.7-19.6,24.9,0,12.9,6.5,23.7,19.4,23.7a17.5,17.5,0,0,0,16.6-12.2,20.8,20.8,0,0,0,1-6.4V559Z"/><path class="cls-7" d="M430.7,568.1c0.3,16.2,10.6,22.8,22.6,22.8,8.6,0,13.7-1.5,18.2-3.4l2,8.6c-4.2,1.9-11.4,4.2-21.9,4.2-20.3,0-32.4-13.5-32.4-33.3s11.7-35.5,30.9-35.5c21.5,0,27.2,18.9,27.2,31a45.2,45.2,0,0,1-.4,5.6H430.7Zm35.1-8.6c0.1-7.6-3.1-19.4-16.6-19.4s-17.4,11.2-18.4,19.4h35Z"/><path class="cls-7" d="M487.8,550.8c0-6.8-.1-12.4-0.5-17.8h10.6l0.7,10.9h0.3c3.3-6.3,10.9-12.4,21.8-12.4,9.1,0,23.3,5.4,23.3,28v39.3h-12V560.9c0-10.6-3.9-19.4-15.2-19.4a17,17,0,0,0-16,12.2,17.2,17.2,0,0,0-.8,5.6v39.6h-12v-48Z"/><path class="cls-7" d="M555.1,598.8v-7.3l9.4-9.1c22.6-21.5,32.8-32.9,32.9-46.2,0-9-4.4-17.3-17.5-17.3-8,0-14.7,4.1-18.8,7.5l-3.8-8.4a38.8,38.8,0,0,1,25-9c19,0,27.1,13.1,27.1,25.7,0,16.3-11.8,29.5-30.5,47.5l-7.1,6.5v0.3h39.7v9.9H555.1Z"/></g><path class="cls-9" d="M387.3,276.2c0-14.5-10.5-20.2-23.8-20.2a178.5,178.5,0,0,0-19.6,1.3v39.9l9.9,0.2C378,297.9,387.3,288.6,387.3,276.2Z"/><path class="cls-7" d="M387.3,276.2c0-14.5-10.5-20.2-23.8-20.2a178.5,178.5,0,0,0-19.6,1.3v39.9l9.9,0.2C378,297.9,387.3,288.6,387.3,276.2Z"/><path class="cls-1" d="M374.9,305.7c15-4.4,24.7-14.6,24.7-30.8,0-20.9-17.5-29.5-36.3-29.5-9.7,0-19.6,2.3-29.3,2.3a74.7,74.7,0,0,1-17.5-2.3v10.1l15.6,1.9v91.5H316.5v10.7H362V348.9H343.9V307.6h18.5L397,359.5h20.9V348.9H404.2Z"/><path class="cls-7" d="M464.5,353.8c-7.4,0-13.5,3.7-17.2,6.9l-3.5-7.7a35.5,35.5,0,0,1,22.9-8.2,27.1,27.1,0,0,1,14.2,3.5,126.3,126.3,0,1,0-3.9,10.3C474.5,355.7,470.5,353.8,464.5,353.8Zm-46.6,5.7H397l-34.6-51.9H343.9v41.3H362v10.7H316.5V348.9h15.6V257.4l-15.6-1.9V245.4a74.7,74.7,0,0,0,17.5,2.3c9.7,0,19.6-2.3,29.3-2.3,18.8,0,36.3,8.6,36.3,29.5,0,16.2-9.7,26.4-24.7,30.8l29.3,43.2h13.7v10.7Z"/><path class="cls-7" d="M457.2,418v-0.2l6.5-6c17.1-16.5,27.9-28.5,27.9-43.5,0-7.7-3.3-15.6-10.6-20q-1.7,5.3-3.9,10.3c2.6,2.9,3.6,6.9,3.6,11.1-0.1,12.2-9.5,22.7-30.2,42.4l-8.6,8.4v6.7h51.7V418H457.2Z"/></svg>