<?xml version="1.0" standalone="no"?>
<!DOCTYPE svg PUBLIC "-//W3C//DTD SVG 20010904//EN"
 "http://www.w3.org/TR/2001/REC-SVG-20010904/DTD/svg10.dtd">
<svg version="1.0" xmlns="http://www.w3.org/2000/svg"
 width="290.000000pt" height="290.000000pt" viewBox="0 0 290.000000 290.000000"
 preserveAspectRatio="xMidYMid meet">

<g transform="translate(0.000000,290.000000) scale(0.100000,-0.100000)"
fill="#000000" stroke="none">
<path d="M0 1450 l0 -1450 1450 0 1450 0 0 1450 0 1450 -1450 0 -1450 0 0
-1450z m1562 693 c97 -34 192 -132 220 -226 7 -23 13 -76 12 -117 0 -95 -35
-177 -102 -243 -65 -63 -136 -94 -252 -107 -116 -13 -191 -45 -253 -108 -181
-184 -115 -486 126 -584 53 -21 40 -22 -43 -2 -147 34 -305 136 -395 256 -100
131 -148 277 -147 443 0 171 53 317 161 451 163 201 470 309 673 237z m-82
-968 c88 -46 57 -175 -42 -175 -52 0 -88 35 -88 85 0 46 13 71 48 89 35 19 46
19 82 1z m340 -25 c11 0 20 -7 20 -15 0 -9 -9 -15 -25 -15 -22 0 -25 -4 -25
-34 0 -45 16 -54 48 -27 15 12 39 27 55 34 15 6 27 15 27 19 0 12 -38 10 -45
-2 -10 -17 -25 -11 -25 10 0 10 9 24 19 30 52 28 101 -6 101 -69 0 -22 5 -41
12 -43 6 -2 8 -10 4 -16 -10 -16 -118 -16 -134 0 -9 9 -12 9 -12 0 0 -7 -14
-12 -33 -12 -44 0 -57 15 -57 66 0 25 -5 44 -12 47 -9 3 -3 15 17 36 28 30 30
31 37 11 4 -11 16 -20 28 -20z m230 20 c0 -15 7 -20 25 -20 14 0 25 -5 25 -10
0 -6 11 -3 25 6 32 21 75 12 75 -16 0 -17 -5 -19 -25 -14 -34 8 -31 -2 5 -21
32 -17 41 -54 17 -73 -7 -6 -50 -11 -95 -11 -92 0 -102 7 -102 73 0 19 -5 36
-11 38 -12 4 37 68 52 68 5 0 9 -9 9 -20z m-346 -16 c9 -3 16 -15 16 -25 0
-15 -5 -18 -32 -13 l-33 6 33 -21 c39 -25 47 -43 32 -70 -8 -16 -20 -21 -55
-21 -39 0 -45 3 -45 21 0 18 4 20 30 14 38 -8 38 5 0 27 -64 37 -16 109 54 82z"/>
<path d="M1070 1815 c0 -97 1 -105 19 -105 16 0 20 8 23 42 2 23 9 43 15 46 7
2 25 -17 40 -42 20 -32 35 -45 51 -46 12 0 22 2 22 4 0 2 -12 25 -26 50 -20
35 -24 50 -15 59 6 6 11 23 11 38 0 38 -33 59 -92 59 l-48 0 0 -105z m90 60
c10 -12 10 -18 0 -30 -25 -30 -61 -7 -46 30 3 8 12 15 19 15 8 0 20 -7 27 -15z"/>
<path d="M1375 1875 c-29 -28 -34 -88 -10 -121 23 -34 69 -49 105 -34 41 17
60 46 60 93 0 53 -35 87 -90 87 -30 0 -47 -6 -65 -25z"/>
<path d="M1897 1063 c-12 -11 -8 -23 8 -23 8 0 15 7 15 15 0 16 -12 20 -23 8z"/>
<path d="M2052 1084 l3 -36 53 -2 c28 -1 52 1 52 4 0 3 -14 13 -30 22 -17 9
-30 24 -30 33 0 9 -9 15 -26 15 -23 0 -25 -3 -22 -36z"/>
</g>
</svg>
