<svg id="Layer_1" data-name="Layer 1" xmlns="http://www.w3.org/2000/svg" xmlns:xlink="http://www.w3.org/1999/xlink" viewBox="0 0 735 852"><defs><style>.cls-1{fill:none;}.cls-2{clip-path:url(#clip-path);}.cls-3{fill:url(#New_Gradient_Swatch_1);}.cls-4{opacity:0.25;fill:url(#linear-gradient);}.cls-5{fill:#fff;}.cls-6{fill:#e6b35a;}</style><clipPath id="clip-path"><polygon class="cls-1" points="369.5 8.1 728.2 215.2 728.2 637.4 369.5 845.8 2.8 637.4 2.8 215.2 369.5 8.1"/></clipPath><radialGradient id="New_Gradient_Swatch_1" cx="378.44" cy="632.3" r="442.13" gradientUnits="userSpaceOnUse"><stop offset="0" stop-color="#77e8f9"/><stop offset="0.7" stop-color="#2972cb"/><stop offset="1" stop-color="#073fb7"/></radialGradient><linearGradient id="linear-gradient" x1="366.25" y1="-121.65" x2="367.55" y2="341.88" gradientUnits="userSpaceOnUse"><stop offset="0" stop-color="#fff" stop-opacity="0.83"/><stop offset="0.56" stop-color="#fff" stop-opacity="0.37"/><stop offset="1" stop-color="#fff" stop-opacity="0"/></linearGradient></defs><title>RStudio_Hex 2016 v7 outlines</title><g class="cls-2"><circle class="cls-3" cx="365.5" cy="438.2" r="442.1"/><ellipse class="cls-4" cx="366.9" cy="106.5" rx="315.2" ry="234.6"/></g><path class="cls-5" d="M705.6,197L427.8,36.6,367.5,1.7,307.2,36.6,29.4,197,0.1,213.9V638.1L29.4,655,310.6,817.4l56.9,32.8,56.9-32.8L705.6,655l29.3-16.9V213.9Zm0,425.3L367.5,817.4,29.4,622.2V231.8L367.5,36.6h0L705.6,231.8V622.2Z"/><path class="cls-6" d="M182.4,633.9l0.9-.9h-0.3Z"/><path class="cls-5" d="M299.3,459.8a42,42,0,0,0,22.1,6.3c12.7,0,20.1-6.7,20.1-16.4s-5.1-14.1-18.1-18.9c-15.7-5.7-25.3-14-25.3-27.3,0-15,12.4-26.1,31-26.1,9.7,0,16.9,2.3,21.1,4.7l-3.4,10.1a35.5,35.5,0,0,0-18.1-4.6c-13.1,0-18.1,7.8-18.1,14.4,0,9,5.8,13.4,19.1,18.5,16.2,6.3,24.3,14.1,24.3,28.2s-10.8,27.8-33.5,27.8c-9.3,0-19.4-2.8-24.5-6.3Z"/><path class="cls-5" d="M385.3,389.4v16.5h17.9v9.5H385.3v37.2c0,8.5,2.4,13.4,9.4,13.4a23.4,23.4,0,0,0,7.3-.9l0.6,9.5a34.2,34.2,0,0,1-11.1,1.7c-5.8,0-10.5-2-13.5-5.3s-4.8-10-4.8-18.1V415.5H362.4v-9.5h10.7V393.1Z"/><path class="cls-5" d="M475,455.9c0,7.3.1,13.5,0.6,18.9H464.5l-0.7-11.2h-0.3a25.7,25.7,0,0,1-22.8,12.8c-10.8,0-23.8-6.1-23.8-30.2V405.9h12.5v38c0,13.1,4.1,22.1,15.4,22.1,8.4,0,14.2-5.8,16.5-11.5a17.2,17.2,0,0,0,1.1-6.4V405.9H475v50Z"/><path class="cls-5" d="M555.2,373.8v83.3c0,6.1.3,13.1,0.6,17.8H544.7l-0.6-12h-0.4c-3.7,7.7-12,13.5-23.2,13.5-16.7,0-29.6-14.1-29.6-35-0.1-22.9,14.2-36.9,30.9-36.9,10.7,0,17.7,5,20.8,10.4h0.3V373.8h12.4ZM542.8,434a22.1,22.1,0,0,0-.6-5.3,18.5,18.5,0,0,0-18.1-14.4c-13,0-20.6,11.4-20.6,26.5s7,25.5,20.4,25.5c8.4,0,16.1-5.7,18.4-15a21.8,21.8,0,0,0,.6-5.4V434Z"/><path class="cls-5" d="M590.1,386.6c0,4.3-3,7.7-8,7.7a7.4,7.4,0,0,1-7.5-7.7,7.6,7.6,0,0,1,7.8-7.8A7.5,7.5,0,0,1,590.1,386.6Zm-14,88.3V405.9h12.5v68.9H576.1Z"/><path class="cls-5" d="M671.8,439.8c0,25.5-17.8,36.6-34.3,36.6-18.5,0-33-13.7-33-35.5s15.2-36.5,34.2-36.5S671.8,418.9,671.8,439.8Zm-54.5.7c0,15.1,8.5,26.5,20.8,26.5S659,455.8,659,440.3c0-11.7-5.8-26.3-20.6-26.3S617.3,427.6,617.3,440.5Z"/><path class="cls-5" d="M169.5,320.9A107.1,107.1,0,1,0,276.5,428,107.1,107.1,0,0,0,169.5,320.9Zm48.2,150.3H200l-29.4-44H155v35h15.3v9H131.7v-9H145V384.6L131.7,383v-8.5a63.4,63.4,0,0,0,14.8,1.9c8.2,0,16.6-1.9,24.8-1.9,16,0,30.8,7.3,30.8,25,0,13.7-8.2,22.4-21,26.1l24.8,36.6h11.6v9Z"/><path class="cls-5" d="M191.7,400.6c0-12.3-8.9-17.1-20.2-17.1a151.4,151.4,0,0,0-16.6,1.1v33.9l8.4,0.2C183.8,419,191.7,411,191.7,400.6Z"/><path class="cls-5" d="M664.8,379.1a7.8,7.8,0,1,0,7.8,7.8A7.8,7.8,0,0,0,664.8,379.1Zm6.5,7.8a6.5,6.5,0,1,1-6.5-6.5A6.5,6.5,0,0,1,671.3,386.8Z"/><path class="cls-5" d="M667.6,390l-1.9-2.8a2.3,2.3,0,0,0,1.7-2.3c0-1.7-1.4-2.3-2.8-2.3h-2.1l-1.2-.2H661v1.1h1.1V390H661v1.1h3.6V390h-1.3v-2.6h1.1l2.4,3.7h1.8V390h-1.1Zm-1.5-5a1.1,1.1,0,0,1-.5,1,2.8,2.8,0,0,1-1.7.4h-0.6v-2.5h1.2A1.3,1.3,0,0,1,666.1,385Z"/><path class="cls-5" d="M365.5,798l4.5,4.5,2.7,2.9h0.1c-0.4-1.2-.7-2.5-1-3.9l-1.4-6.3,1.6-.9,4.7,4.3,2.9,2.9h0.1a36.6,36.6,0,0,1-1.2-3.9l-1.6-6.1,1.9-1.1,2.7,12.4-1.7,1-4.5-4.1a40.7,40.7,0,0,1-2.9-2.9h0a35.6,35.6,0,0,1,1.1,4l1.2,5.9-1.7,1-9.2-8.6Z"/><path class="cls-5" d="M381.7,788.6l4.5,4.5,2.7,2.9h0.1c-0.4-1.2-.7-2.5-1-3.9l-1.4-6.3,1.6-.9,4.7,4.3,2.9,2.9h0.1a36.3,36.3,0,0,1-1.2-3.9L393,782l1.9-1.1,2.7,12.4-1.7,1-4.5-4.1a40.5,40.5,0,0,1-2.9-2.9h0a35.3,35.3,0,0,1,1.1,4l1.2,5.9-1.7,1-9.2-8.6Z"/><path class="cls-5" d="M397.8,779.2l4.5,4.5,2.7,2.9h0.1c-0.4-1.2-.7-2.5-1-3.9l-1.4-6.3,1.6-.9,4.7,4.3,2.9,2.9h0.1a36.4,36.4,0,0,1-1.2-3.9l-1.6-6.1,1.9-1.1,2.7,12.4-1.7,1-4.5-4.1a40.7,40.7,0,0,1-2.9-2.9h0a35.2,35.2,0,0,1,1.1,4l1.2,5.9-1.7,1-9.2-8.6Z"/><path class="cls-5" d="M419.2,781.1a1.6,1.6,0,1,1,.5-2.1,1.5,1.5,0,0,1-.5,2.1h0Z"/><path class="cls-5" d="M418.5,771.5l-2-3.2,1.7-1,1.3,2h0.1a3.6,3.6,0,0,1,1.6-4l0.6-.2,1,1.8-0.7.3a3.1,3.1,0,0,0-1.1,3.9l0.4,0.9,3.2,5.6-1.9,1.1Z"/><path class="cls-5" d="M428.4,772.8a5.8,5.8,0,0,0,2.9-.7c1.4-.8,1.6-1.9,1.1-2.7s-1.4-1.1-3.1-.8-3.8-.1-4.5-1.4-0.4-3.9,1.8-5.2a6,6,0,0,1,2.9-.8l0.3,1.7a4.7,4.7,0,0,0-2.5.6,1.8,1.8,0,0,0-.9,2.4c0.5,0.9,1.4.9,3,.6s3.7,0,4.6,1.6,0.4,4-2.1,5.4a6.9,6.9,0,0,1-3.4,1Z"/><path class="cls-5" d="M433.1,755.3l1.5,2.5,2.7-1.6,0.8,1.4-2.7,1.6,3.3,5.6c0.8,1.3,1.6,1.8,2.6,1.2l1-.8,0.9,1.4a5.3,5.3,0,0,1-1.5,1.3,3.1,3.1,0,0,1-2.5.4,4.5,4.5,0,0,1-2.3-2.3l-3.3-5.7-1.6.9-0.8-1.4,1.6-.9-1.1-1.9Z"/><path class="cls-5" d="M452.6,757.5l1.7,2.8-1.7,1-1.1-1.6h0a4.6,4.6,0,0,1-2.3,4c-1.6,1-4.1,1.2-6.3-2.5l-3.6-6.1,1.9-1.1,3.4,5.8c1.2,2,2.5,3,4.3,2a3.2,3.2,0,0,0,1.5-3.2,3.2,3.2,0,0,0-.4-1.1l-3.7-6.4,1.9-1.1Z"/><path class="cls-5" d="M457.5,738l7.4,12.6,1.7,2.7-1.7,1-1.1-1.8h0a4.5,4.5,0,0,1-2.4,4.1c-2.5,1.5-5.7.5-7.6-2.7s-1.1-6.9,1.4-8.3a4,4,0,0,1,4.1-.2h0l-3.6-6.2Zm3.4,10.2-0.6-.7a3.2,3.2,0,0,0-4-.6c-2,1.1-2.1,3.6-.8,5.9s3.3,3.3,5.3,2.1a3.3,3.3,0,0,0,1.5-3.9,3.8,3.8,0,0,0-.4-0.9Z"/><path class="cls-5" d="M463.9,736.8a1.4,1.4,0,0,1-2.4,1.4,1.3,1.3,0,0,1,.5-1.9A1.3,1.3,0,0,1,463.9,736.8Zm5.7,14.6L463.5,741l1.9-1.1,6.1,10.5Z"/><path class="cls-5" d="M481,737.7c2.3,3.9.6,7.1-2,8.6s-6.2.8-8.1-2.5-0.9-6.9,2-8.6S479.1,734.5,481,737.7Zm-8.2,4.9c1.3,2.3,3.7,3.2,5.5,2.2s2.2-3.6.8-5.9-3.2-3.5-5.5-2.2S471.6,740.6,472.8,742.6Z"/><path class="cls-5" d="M486.9,741.7a1.6,1.6,0,1,1,.5-2.1,1.5,1.5,0,0,1-.5,2.1h0Z"/><path class="cls-5" d="M497.7,734.6a8,8,0,0,1-2.6,2.4c-3.2,1.8-6.5.9-8.3-2.3a6.1,6.1,0,0,1,2.4-8.8,7.3,7.3,0,0,1,2.9-1l0.4,1.7a5.1,5.1,0,0,0-2.5.8c-2.4,1.4-2.7,3.9-1.4,6.1s3.8,3,5.9,1.8a6.2,6.2,0,0,0,2-1.9Z"/><path class="cls-5" d="M506.3,722.9c2.3,3.9.6,7.1-2,8.6s-6.2.8-8.1-2.5-0.9-6.9,2-8.6S504.5,719.7,506.3,722.9Zm-8.2,4.9c1.3,2.3,3.7,3.2,5.5,2.2s2.2-3.6.8-5.9-3.2-3.5-5.5-2.2S497,725.9,498.1,727.9Z"/><path class="cls-5" d="M507.4,719.2l-1.7-2.8,1.7-1,1.1,1.6h0.1a4.2,4.2,0,0,1,2.2-3.8,3.6,3.6,0,0,1,4.2.4h0a5,5,0,0,1,.4-2,4.1,4.1,0,0,1,1.9-2.1c1.4-.8,4-1.1,6.1,2.5l3.6,6.2-1.9,1.1-3.4-5.9c-1.2-2-2.6-2.8-4.1-1.9a2.8,2.8,0,0,0-1.2,3,3.6,3.6,0,0,0,.4,1l3.8,6.5-1.9,1.1-3.6-6.3c-1-1.7-2.4-2.4-3.9-1.6a3,3,0,0,0-1.2,3.3,3.1,3.1,0,0,0,.4,1l3.7,6.3-1.9,1.1Z"/></svg>