<?xml version="1.0" encoding="utf-8"?>
<!-- Generator: Adobe Illustrator 18.1.1, SVG Export Plug-In . SVG Version: 6.00 Build 0)  -->
<!DOCTYPE svg PUBLIC "-//W3C//DTD SVG 1.1//EN" "http://www.w3.org/Graphics/SVG/1.1/DTD/svg11.dtd">
<svg version="1.1" id="Layer_1" xmlns="http://www.w3.org/2000/svg" xmlns:xlink="http://www.w3.org/1999/xlink" x="0px" y="0px"
	 viewBox="21 0 312 360" enable-background="new 21 0 312 360" xml:space="preserve">
<g id="Background">
	<polygon fill="#5BC0BC" points="21.2,89.5 21.2,269.5 177.2,359.5 333,269.5 333,89.5 177.2,-0.5 	"/>
</g>
<g id="Cut_Path" display="none">
	<polygon display="inline" fill="none" stroke="#EA0A8A" stroke-miterlimit="10" points="336.2,270.5 180,360.8 23.8,270.5 23.8,90 
		180,-0.2 336.2,90 	"/>
</g>
<path fill="#FFFFFF" d="M128.2,98.9c0.3-2.8,1.3-5.3,3.3-7c0.8-1,0.8-2,0-3c-0.8-1-1.8-1-3-0.3c-2.8,3.3-4.3,6.5-4.5,10.3
	c0.3,3.8,1.8,7.3,4.5,10.3c0.5,0.3,1,0.5,1.5,0.5c0.8,0,1.3-0.3,1.5-0.5c0.8-1.3,0.8-2.3,0-3C129.2,103.9,128.2,101.4,128.2,98.9z
	 M235.3,131.3c0-8.8-3.8-14.8-11.6-18.3c-1.8-0.8-3.8-1.5-5.5-1.8h-1.8c-2,0-5.3,0.8-9.5,2.3c-3.3,1.3-5.5,2-6.5,2
	c-0.8,0-2.8-0.5-5.5-1.8c-0.3-0.3-0.8-0.5-1.3-0.8c-0.8-0.3-1.3-0.3-1.5-0.5c2.3-4.3,3.3-7.8,3.3-10.6c0-9.5-4.3-16.3-12.8-20.6
	c-2.3-0.8-4.3-1.5-6.5-2c-2.8-0.5-7,0.3-12.8,2.5c-3.3,1.5-5.8,2.3-7.5,2.3c-1.3,0-3.3-0.8-6.5-2c-6.3-2.5-11.1-3.5-14.6-2.8
	c-12.1,2.8-18.1,9.8-18.3,21.6c0,10.1,8.3,22.4,25.1,36.9c1.3,1.3,0.8,1.1,3,2.8c2.2,1.7,7.8,4.3,9.5,4.3c4.5,3.8,7,6.8,7.5,9.5
	c0,0.3,0,0.3,0,0.5c-0.8,2-4,3.8-10.3,5c-5.8,1.3-9.3,3.5-10.6,6.8c-0.8,2.8-0.3,5,2,6.8c1.3,1.3,2,2.8,1.8,4
	c-0.3,1-1.5,1.8-3.8,2.5c-0.3,0.3-0.3,0.3-0.5,0.3l-16.3,4.8c-1.3,0.5-1.8,1.5-1.5,2.8c0.5,0.8,1.3,1.3,2,1.5
	c0.3-0.3,0.5-0.3,0.5-0.3l16.6-4.8c4-1.5,6.5-3.5,7.3-5.8c0.3-3.3-0.8-6-3-8.3c-0.3-0.3-0.5-0.8-0.8-1s-0.3-0.8-0.3-1
	c0-0.3,0-0.3,0.3-0.3c0.5-1.8,2.8-3,7-3.8c8.3-2.3,12.8-5.3,13.6-8.8c0.3-3.3-1.8-7-6.3-11.6c2.3-0.8,4.5-2,6.5-3.3
	c0.3-0.3,1-0.8,2.3-1.8c0.8,2,2,4,3.5,6.3c1.5,2.3,3,4.3,4.8,6c1.5,1.8,3,3.5,4.8,5.3s3.3,3.3,4.5,4.3c1.3,1.3,2.3,2.3,3.3,3.3
	c0,0,6.6,5,9.3,4.5c2.6,1.7,5.8,5,7,8c0.3,0.3,0.3,0.8,0.3,1c0,1.3-2.5,2.5-7.3,3.8c-0.5,0.3-1,0.3-1.3,0.3c-5,0.8-8.3,2.8-9.5,6
	c-0.5,2.3,0.3,4.5,2,6.3c1.3,1.3,1.5,2.3,1.3,3.3c0,0.8-1,1.3-2.8,1.8c-0.3,0.3-0.3,0.3-0.5,0.3l-14.6,4.3c-1,0.8-1.5,1.8-1.3,2.8
	c0.5,0.8,1.3,1.3,2,1.5h0.5l14.3-4.3c3.8-1.5,5.8-3.3,6.5-5.3c0.3-3-0.5-5.5-2.8-7.5c-0.3-1.3-0.5-1.8-0.5-1.8c0.8-1.3,2.8-2.3,6-3
	c7.3-1.8,11.3-4.3,12.1-7.8c0.3-2.8-1.5-6-5.5-10.1c2.8-1.5,4.5-2.5,5.3-3c12.1-9,20.1-17.8,23.9-26.1
	C234.5,136.1,235.3,133.6,235.3,131.3z M166.4,134.6c0,0-1.5,1.5-3.3,2.5c-1.8,1-5,2.6-6.5,3.3c-1.5,0.7-3.8,0-3.8,0
	c-2.8-1.3-3.7-1.7-6-3.3c-2.3-1.6-4-3-10.1-9c-10.8-11.1-16.3-20.1-16.3-27.1c0-9.3,4.5-15.1,13.8-17.1c0.5-0.3,0.8-0.3,1-0.3
	c3.3-0.5,7.3,0.3,12.1,2.5c3.8,1.5,6.5,2.3,8.3,2.3s4.8-0.8,9-2.5c5.3-1.8,8.8-2.5,10.6-2.3c8.5,1.5,13.6,6,15.3,13.8
	c0.3,1.5,0.5,3,0.5,4.5c-0.3,2.5-1.3,5.8-3.3,9.5c-1.3-0.3-2.3-0.5-3-0.5c-0.3,0-0.8,0-1.5,0.3c-0.8,0-1,0-1.3,0
	c-10.6,2.5-15.8,8.8-16.1,19.1C165.9,131.3,166.2,132.8,166.4,134.6z M201.6,164.2c0,0-3.3,1.7-8.5-2.5
	c-10.3-8.3-17.1-16.6-20.9-24.4c-0.5-0.8-0.8-1.5-1-2.3c-0.3-0.3-0.3-0.5-0.5-1c-0.3-1.8-0.5-3-0.5-3.8c0.3-8.3,4.5-13.1,12.6-14.8
	c0.3,0,0.5,0,1-0.3c0.3,0,0.5,0,0.8,0c2.3,0,5,0.8,8.5,2.5c3.8,1.3,6,2,7.3,2c2.3,0,4.8-0.8,8-2.3c4.3-1.8,7.3-2.3,9-2
	c7.3,1.3,11.8,5.3,13.1,12.1c0.3,1.3,0.5,2.5,0.5,3.8c0,7-7,16.3-21.4,28.1c-1,0.8-2,1.5-2.8,2.3
	C205.6,162.5,203.8,163.5,201.6,164.2z M180,121c-1-0.8-2-0.8-3,0c-2.8,2.5-4,5.5-4,9c0.3,3.8,1.5,7,4,9.3c0.5,0.3,1,0.5,1.5,0.5
	c0.5,0,1-0.3,1.5-0.8c0.8-1,0.8-2-0.3-3c-1.8-1.8-2.5-3.8-2.5-6c0.3-2.3,1-4.3,2.5-6C180.5,123.3,180.7,122.3,180,121z"/>
<text transform="matrix(0.9042 0 0 1 48.3345 254.5537)"><tspan x="0" y="0" fill="#FFFFFF" font-family="'Ubuntu-Bold'" font-size="37.4603">RUBY</tspan><tspan x="101.4" y="0" fill="#297B7D" font-family="'Ubuntu-Bold'" font-size="37.4603">FOR</tspan><tspan x="177.5" y="0" fill="#FFFFFF" font-family="'Ubuntu-Bold'" font-size="37.4603">GOOD</tspan></text>
</svg>
