<?xml version="1.0" encoding="utf-8"?>
<!DOCTYPE svg PUBLIC "-//W3C//DTD SVG 1.1//EN" "http://www.w3.org/Graphics/SVG/1.1/DTD/svg11.dtd">
<svg xmlns="http://www.w3.org/2000/svg" xmlns:xlink="http://www.w3.org/1999/xlink" version="1.1" baseProfile="full" width="308.255" height="354.996" viewBox="0 0 308.25 355.00" enable-background="new 0 0 308.25 355.00" xml:space="preserve">
	<g>
		<path fill="#706CF5" fill-opacity="1" stroke-width="0.2" stroke-linejoin="round" d="M 154.127,348.01L 301.795,262.754L 301.795,92.2417L 154.127,6.98584L 6.45938,92.2417L 6.45938,262.754L 154.127,348.01 Z "/>
		<g>
			<path fill="#FFFFFF" fill-opacity="1" stroke-width="0.2" stroke-linejoin="round" d="M 196.252,241.305C 184.171,249.298 169.689,253.952 154.119,253.952C 124.146,253.952 98.2014,236.705 85.669,211.593C 79.3394,208.257 73.5388,204.774 68.3564,201.211C 78.7348,238.83 113.201,266.456 154.119,266.456C 178.416,266.456 200.438,256.715 216.493,240.925C 210.224,241.449 203.439,241.579 196.252,241.305 Z "/>
			<path fill="#FFFFFF" fill-opacity="1" stroke-width="0.2" stroke-linejoin="round" d="M 79.3134,193.367C 74.1698,190.216 69.5011,186.977 65.3734,183.698C 50.0623,171.533 42.1941,158.815 45.1329,148.018C 48.0634,137.252 61.2254,130.286 80.5007,127.543C 96.5058,104.002 123.507,88.5398 154.119,88.5398C 201.295,88.5398 239.894,125.262 242.89,171.681C 258.195,183.844 266.06,196.559 263.122,207.354C 260.176,218.176 246.891,225.159 227.451,227.871C 222.222,228.601 216.548,229.022 210.511,229.125C 190.828,229.462 167.279,226.428 142.682,219.733C 118.018,213.02 96.1278,203.667 79.3134,193.367 Z M 220.379,215.666C 226.789,204.562 230.488,191.697 230.572,177.974L 230.573,177.498C 230.573,135.273 196.343,101.044 154.119,101.044C 126.045,101.044 101.506,116.174 88.2109,138.726C 81.5185,150.077 77.6752,163.309 77.6643,177.438C 93.5911,188.097 117.661,198.607 145.503,206.186C 174.242,214.008 201.099,217.101 220.379,215.666 Z M 235.657,213.121C 243.325,210.87 248.269,207.311 249.585,202.476C 250.924,197.556 248.356,191.871 242.682,185.933L 242.564,187.112C 241.579,196.269 239.206,205.011 235.657,213.121 Z M 73.2734,140.331L 73.9176,138.963C 64.8725,141.189 59.0981,144.95 57.6593,150.236C 56.2357,155.466 59.228,161.561 65.6718,167.905C 66.7171,158.156 69.3376,148.878 73.2734,140.331 Z "/>
		</g>
		<path fill="#FFFFFF" fill-opacity="1" stroke-width="0.2" stroke-linejoin="round" d="M 154.029,14.1997L 295.83,95.8489L 295.83,259.147L 154.029,340.796L 12.4248,259.147L 12.4248,95.8489L 154.029,14.1997 Z M 154.029,0L 0,88.749L 0,266.247L 154.029,354.996L 308.255,266.247L 308.255,88.749L 154.029,0 Z "/>
	</g>
</svg>
