<?xml version="1.0" encoding="utf-8"?>
<!DOCTYPE svg PUBLIC "-//W3C//DTD SVG 1.1//EN" "http://www.w3.org/Graphics/SVG/1.1/DTD/svg11.dtd">
<svg xmlns="http://www.w3.org/2000/svg" xmlns:xlink="http://www.w3.org/1999/xlink" version="1.1" baseProfile="full" width="308.255" height="354.996" viewBox="0 0 308.25 355.00" enable-background="new 0 0 308.25 355.00" xml:space="preserve">
	<g>
		<g>
			<path fill="#FFFFFF" fill-opacity="1" stroke-width="0.2" stroke-linejoin="round" d="M 118.808,161.221C 112.191,165.599 104.257,168.149 95.7286,168.149C 79.3101,168.149 65.0983,158.701 58.2334,144.945C 54.7662,143.118 51.5887,141.21 48.7499,139.259C 54.4351,159.865 73.3145,174.998 95.7286,174.998C 109.038,174.998 121.101,169.662 129.896,161.013C 126.462,161.3 122.745,161.371 118.808,161.221 Z "/>
			<path fill="#FFFFFF" fill-opacity="1" stroke-width="0.2" stroke-linejoin="round" d="M 54.752,134.962C 51.9344,133.236 49.377,131.461 47.116,129.665C 38.7289,123.001 34.4189,116.035 36.0287,110.121C 37.6339,104.223 44.8438,100.407 55.4023,98.905C 64.1695,86.01 78.9598,77.5399 95.7286,77.5399C 121.57,77.5399 142.714,97.6556 144.355,123.083C 152.739,129.745 157.047,136.71 155.438,142.623C 153.824,148.551 146.547,152.376 135.898,153.862C 133.034,154.262 129.926,154.492 126.618,154.549C 115.837,154.734 102.937,153.072 89.4639,149.404C 75.9535,145.727 63.9625,140.604 54.752,134.962 Z M 132.024,147.176C 135.536,141.094 137.562,134.047 137.608,126.53L 137.608,126.269C 137.608,103.139 118.858,84.3892 95.7285,84.3892C 80.3506,84.3892 66.9085,92.6775 59.6257,105.031C 55.9598,111.249 53.8546,118.497 53.8486,126.236C 62.5729,132.075 75.7576,137.832 91.0089,141.984C 106.751,146.268 121.463,147.962 132.024,147.176 Z M 140.393,145.783C 144.594,144.55 147.302,142.6 148.022,139.951C 148.756,137.256 147.349,134.142 144.241,130.889L 144.176,131.535C 143.637,136.552 142.337,141.34 140.393,145.783 Z M 51.4434,105.91L 51.7963,105.16C 46.8416,106.38 43.6785,108.44 42.8904,111.335C 42.1105,114.2 43.7496,117.539 47.2794,121.014C 47.8521,115.674 49.2874,110.592 51.4434,105.91 Z "/>
		</g>
		<path fill="#38548C" fill-opacity="1" stroke-width="0.2" stroke-linejoin="round" d="M 154.127,348.01L 301.795,262.754L 301.795,92.2416L 154.127,6.9856L 6.45947,92.2416L 6.45947,262.754L 154.127,348.01 Z "/>
		<path fill="#706CF5" fill-opacity="1" stroke-width="0.2" stroke-linejoin="round" d="M 154.029,14.1998L 295.83,95.8489L 295.83,259.147L 154.029,340.796L 12.4249,259.147L 12.4249,95.8489L 154.029,14.1998 Z M 154.029,0L 0,88.749L 0,266.247L 154.029,354.996L 308.255,266.247L 308.255,88.749L 154.029,0 Z "/>
		<g>
			<path fill="#626B71" fill-opacity="1" stroke-width="0.2" stroke-linejoin="round" d="M 192.95,187.435C 199.47,187.435 204.756,192.721 204.756,199.241C 204.756,205.761 199.47,211.047 192.95,211.047C 186.43,211.047 181.144,205.761 181.144,199.241C 181.144,192.721 186.43,187.435 192.95,187.435 Z "/>
			<path fill="#626B71" fill-opacity="1" stroke-width="0.2" stroke-linejoin="round" d="M 219.617,213.396C 227.022,198.82 265.335,203.419 265.335,203.419C 265.335,203.419 242.158,206.509 234.753,221.085C 227.348,235.661 238.519,256.202 238.519,256.202C 238.519,256.202 212.212,227.972 219.617,213.396 Z "/>
			<g>
				<path fill="#FFC806" fill-opacity="1" stroke-width="0.2" stroke-linejoin="round" d="M 240.216,213.798C 240.207,213.463 249.369,210.943 262.791,217.959C 262.791,217.959 257.754,217.375 253.655,218.058C 253.655,218.058 272.653,227.314 277.295,240.338C 277.295,240.338 263.571,243.636 244.339,234.063C 244.339,234.063 246.097,242.264 250.573,244.34C 250.573,244.34 234.727,234.71 232.876,228.635C 231.025,222.559 235.16,216.364 240.216,213.798 Z "/>
				<path fill="#F9991C" fill-opacity="1" stroke-width="0.2" stroke-linejoin="round" d="M 238.855,215.098C 238.848,214.838 245.979,212.876 256.424,218.337C 256.424,218.337 252.505,217.883 249.314,218.414C 249.314,218.414 264.101,225.618 267.713,235.755C 267.713,235.755 257.032,238.322 242.063,230.871C 242.063,230.871 243.432,237.254 246.915,238.87C 246.915,238.87 234.583,231.375 233.142,226.646C 231.701,221.917 234.919,217.096 238.855,215.098 Z "/>
				<path fill="#F57921" fill-opacity="1" stroke-width="0.2" stroke-linejoin="round" d="M 236.856,217.008C 236.852,216.856 241.001,215.715 247.078,218.892C 247.078,218.892 244.798,218.628 242.941,218.937C 242.941,218.937 251.544,223.129 253.646,229.026C 253.646,229.026 247.432,230.52 238.723,226.185C 238.723,226.185 239.519,229.898 241.546,230.839C 241.546,230.839 234.37,226.478 233.532,223.726C 232.694,220.975 234.566,218.17 236.856,217.008 Z "/>
			</g>
			<path fill="#626B71" fill-opacity="1" stroke-width="0.2" stroke-linejoin="round" d="M 210.738,243.395L 213.593,237.775L 247.072,254.783L 244.216,260.403L 210.738,243.395 Z "/>
			<path fill="#626B71" fill-opacity="1" stroke-width="0.2" stroke-linejoin="round" d="M 236.219,193.238L 239.074,187.618L 272.553,204.626L 269.698,210.246L 236.219,193.238 Z "/>
			<path fill="#FFC806" fill-opacity="1" stroke-width="0.2" stroke-linejoin="round" d="M 270.376,208.77C 270.283,208.788 272.645,211.406 278.986,214.588C 278.986,214.588 277.158,213.269 275.981,212.125C 275.981,212.125 284.776,216.671 289.819,217.126C 289.819,217.126 286.152,213.234 277.194,208.644C 277.194,208.644 279.984,208.618 282.027,209.695C 282.027,209.695 274.179,206.02 271.93,205.892C 269.682,205.764 269.388,207.254 270.376,208.77 Z "/>
			<path fill="#FFC806" fill-opacity="1" stroke-width="0.2" stroke-linejoin="round" d="M 244.689,259.164C 244.596,259.182 246.959,261.799 253.299,264.982C 253.299,264.982 251.471,263.663 250.294,262.519C 250.294,262.519 259.089,267.064 264.132,267.52C 264.132,267.52 260.465,263.628 251.507,259.038C 251.507,259.038 254.297,259.012 256.34,260.089C 256.34,260.089 248.492,256.414 246.243,256.286C 243.995,256.158 243.701,257.647 244.689,259.164 Z "/>
			<g>
				<path fill="#A7A7A7" fill-opacity="1" stroke-width="0.2" stroke-linejoin="round" d="M 205.077,190.483C 183.049,179.292 159.233,181.95 159.233,181.95C 159.233,181.95 171.131,202.752 193.159,213.943C 215.187,225.134 239.004,222.476 239.004,222.476C 239.004,222.476 227.105,201.674 205.077,190.483 Z M 188.179,209.222C 182.662,206.419 180.462,199.676 183.265,194.159C 186.067,188.643 192.811,186.443 198.328,189.245C 203.844,192.048 206.044,198.792 203.242,204.308C 200.439,209.824 193.695,212.025 188.179,209.222 Z "/>
				<defs>
					<path id="SVG_CLIPPER1_" d="M 205.077,190.483C 183.049,179.292 159.233,181.95 159.233,181.95C 159.233,181.95 171.131,202.752 193.159,213.943C 215.187,225.134 239.004,222.476 239.004,222.476C 239.004,222.476 227.105,201.674 205.077,190.483 Z M 188.179,209.222C 182.662,206.419 180.462,199.676 183.265,194.159C 186.067,188.643 192.811,186.443 198.328,189.245C 203.844,192.048 206.044,198.792 203.242,204.308C 200.439,209.824 193.695,212.025 188.179,209.222 Z "/>
				</defs>
				<clipPath id="SVG_CLIPPER2_">
					<use xlink:href="#SVG_CLIPPER1_" overflow="visible"/>
				</clipPath>
				<g clip-path="url(#SVG_CLIPPER2_)">
					<path fill="#FFFFFF" fill-opacity="0.298039" stroke-width="0.2" stroke-linejoin="round" d="M 158.825,180.756C 159.199,180.477 192.045,210.357 235.477,218.63C 278.909,226.903 232.504,230.135 217.122,230.005C 201.74,229.876 159.73,196.397 158.825,180.756 Z "/>
				</g>
			</g>
			<path fill="#FFFFFF" fill-opacity="0.152941" stroke-width="0.2" stroke-linejoin="round" d="M 197.785,192.852C 200.6,195.667 194.678,194.32 191.644,197.354C 188.61,200.388 189.613,206.655 186.797,203.839C 183.982,201.023 184.159,196.281 187.193,193.247C 190.227,190.213 194.969,190.036 197.785,192.852 Z "/>
		</g>
		<path fill="#FFFFFF" fill-opacity="1" stroke-width="0.2" stroke-linejoin="round" d="M 187.038,56.1953C 188.648,56.1953 189.954,57.5007 189.954,59.1113C 189.954,60.7218 188.648,62.0273 187.038,62.0273C 185.427,62.0273 184.121,60.7218 184.121,59.1113C 184.121,57.5007 185.427,56.1953 187.038,56.1953 Z "/>
		<path fill="#FFC800" fill-opacity="1" stroke-width="0.2" stroke-linejoin="round" d="M 40.5958,233.837L 38.9466,238.038L 34.8577,239.949L 38.3436,242.816L 38.8975,247.295L 42.7012,244.866L 47.1324,245.723L 45.9972,241.355L 48.182,237.405L 43.6768,237.135L 40.5958,233.837 Z "/>
		<path fill="#FFFFFF" fill-opacity="1" stroke-width="0.2" stroke-linejoin="round" d="M 166.164,322.83C 167.176,322.83 167.997,323.651 167.997,324.664C 167.997,325.676 167.176,326.497 166.164,326.497C 165.152,326.497 164.331,325.676 164.331,324.664C 164.331,323.651 165.152,322.83 166.164,322.83 Z "/>
		<path fill="#FFFFFF" fill-opacity="1" stroke-width="0.2" stroke-linejoin="round" d="M 268.143,163.777C 269.155,163.777 269.976,164.598 269.976,165.611C 269.976,166.623 269.155,167.444 268.143,167.444C 267.13,167.444 266.31,166.623 266.31,165.611C 266.31,164.598 267.13,163.777 268.143,163.777 Z "/>
		<path fill="#FFFFFF" fill-opacity="1" stroke-width="0.2" stroke-linejoin="round" d="M 149.726,49.4441C 150.739,49.4441 151.56,50.265 151.56,51.2775C 151.56,52.29 150.739,53.1108 149.726,53.1108C 148.714,53.1108 147.893,52.29 147.893,51.2775C 147.893,50.265 148.714,49.4441 149.726,49.4441 Z "/>
		<path fill="#FFFFFF" fill-opacity="1" stroke-width="0.2" stroke-linejoin="round" d="M 141.226,245.507C 142.239,245.507 143.06,246.328 143.06,247.34C 143.06,248.353 142.239,249.173 141.226,249.173C 140.214,249.173 139.393,248.353 139.393,247.34C 139.393,246.328 140.214,245.507 141.226,245.507 Z "/>
		<path fill="#FFFFFF" fill-opacity="1" stroke-width="0.2" stroke-linejoin="round" d="M 155.748,215.7C 156.76,215.7 157.581,216.521 157.581,217.533C 157.581,218.546 156.76,219.367 155.748,219.367C 154.736,219.367 153.915,218.546 153.915,217.533C 153.915,216.521 154.736,215.7 155.748,215.7 Z "/>
		<path fill="#FFFFFF" fill-opacity="1" stroke-width="0.2" stroke-linejoin="round" d="M 186.976,255.944C 187.989,255.944 188.81,256.765 188.81,257.777C 188.81,258.79 187.989,259.611 186.976,259.611C 185.964,259.611 185.143,258.79 185.143,257.777C 185.143,256.765 185.964,255.944 186.976,255.944 Z "/>
		<path fill="#FFC800" fill-opacity="1" stroke-width="0.2" stroke-linejoin="round" d="M 215.226,143.673L 211.483,146.195L 207.032,145.447L 208.274,149.786L 206.187,153.787L 210.697,153.947L 213.858,157.169L 215.404,152.928L 219.445,150.918L 215.889,148.137L 215.226,143.673 Z "/>
		<path fill="#FFC800" fill-opacity="1" stroke-width="0.2" stroke-linejoin="round" d="M 197.999,285.553L 200.869,289.036L 200.552,293.539L 204.752,291.885L 208.936,293.578L 208.661,289.073L 211.563,285.617L 207.194,284.486L 204.804,280.657L 202.378,284.464L 197.999,285.553 Z "/>
		<path fill="#FFC800" fill-opacity="1" stroke-width="0.2" stroke-linejoin="round" d="M 158.925,36.541L 159.142,41.0492L 156.195,44.4675L 160.549,45.6545L 162.889,49.5139L 165.364,45.7393L 169.758,44.7062L 166.932,41.1863L 167.308,36.6885L 163.087,38.2877L 158.925,36.541 Z "/>
		<path fill="#FFFFFF" fill-opacity="1" stroke-width="0.2" stroke-linejoin="round" d="M 54.5959,198.106C 56.2064,198.106 57.512,199.412 57.512,201.022C 57.512,202.633 56.2064,203.938 54.5959,203.938C 52.9855,203.938 51.6799,202.633 51.6799,201.022C 51.6799,199.412 52.9855,198.106 54.5959,198.106 Z "/>
		<path fill="#FFFFFF" fill-opacity="1" stroke-width="0.2" stroke-linejoin="round" d="M 186.976,254.861C 188.587,254.861 189.892,256.167 189.892,257.777C 189.892,259.388 188.587,260.693 186.976,260.693C 185.366,260.693 184.06,259.388 184.06,257.777C 184.06,256.167 185.366,254.861 186.976,254.861 Z "/>
		<path fill="#FFFFFF" fill-opacity="1" stroke-width="0.2" stroke-linejoin="round" d="M 186.976,118.361C 188.587,118.361 189.892,119.667 189.892,121.278C 189.892,122.888 188.587,124.194 186.976,124.194C 185.366,124.194 184.06,122.888 184.06,121.278C 184.06,119.667 185.366,118.361 186.976,118.361 Z "/>
		<path fill="#FFFFFF" fill-opacity="1" stroke-width="0.2" stroke-linejoin="round" d="M 76.4762,270.861C 78.0867,270.861 79.3923,272.167 79.3923,273.778C 79.3923,275.388 78.0867,276.694 76.4762,276.694C 74.8658,276.694 73.5602,275.388 73.5602,273.778C 73.5602,272.167 74.8658,270.861 76.4762,270.861 Z "/>
		<path fill="#FFFFFF" fill-opacity="1" stroke-width="0.2" stroke-linejoin="round" d="M 247.976,164.361C 249.587,164.361 250.892,165.667 250.892,167.278C 250.892,168.888 249.587,170.194 247.976,170.194C 246.366,170.194 245.06,168.888 245.06,167.278C 245.06,165.667 246.366,164.361 247.976,164.361 Z "/>
		<g>
			<path fill="#50CD00" fill-opacity="1" stroke-width="0.2" stroke-linejoin="round" d="M 264.733,95.1757C 275.872,95.1757 284.901,104.205 284.901,115.344C 284.901,126.482 275.872,135.512 264.733,135.512C 253.594,135.512 244.565,126.482 244.565,115.344C 244.565,104.205 253.594,95.1757 264.733,95.1757 Z "/>
			<defs>
				<path id="SVG_CLIPPER3_" d="M 264.733,95.1757C 275.872,95.1757 284.901,104.205 284.901,115.344C 284.901,126.482 275.872,135.512 264.733,135.512C 253.594,135.512 244.565,126.482 244.565,115.344C 244.565,104.205 253.594,95.1757 264.733,95.1757 Z "/>
			</defs>
			<clipPath id="SVG_CLIPPER4_">
				<use xlink:href="#SVG_CLIPPER3_" overflow="visible"/>
			</clipPath>
			<g clip-path="url(#SVG_CLIPPER4_)">
				<path fill="#3B9700" fill-opacity="1" stroke-width="14" stroke-linejoin="round" stroke="#64FF00" stroke-opacity="0.415686" d="M 245.203,100.254C 245.203,100.254 254.644,109.408 259.793,108.836C 264.943,108.264 274.24,102.542 279.247,111.411C 284.253,120.28 292.55,119.993 292.55,119.993L 292.979,122.282C 292.979,122.282 285.684,120.28 278.961,122.854C 272.238,125.429 263.655,136.157 253.213,113.986C 242.771,91.8142 241.77,107.263 241.77,107.263"/>
			</g>
		</g>
		<path fill="#FF0064" fill-opacity="1" stroke-width="14" stroke-linejoin="round" stroke="#FF0064" stroke-opacity="0.415686" d="M 137.31,280.521C 144.213,280.521 149.81,286.117 149.81,293.021C 149.81,299.925 144.213,305.521 137.31,305.521C 130.406,305.521 124.81,299.925 124.81,293.021C 124.81,286.117 130.406,280.521 137.31,280.521 Z "/>
		<g>
			<path fill="#FFDF68" fill-opacity="1" stroke-width="0.2" stroke-linejoin="round" d="M 91.6515,201.925C 101.271,201.925 109.068,209.722 109.068,219.341C 109.068,228.96 101.271,236.758 91.6515,236.758C 82.0325,236.758 74.2349,228.96 74.2349,219.341C 74.2349,209.722 82.0325,201.925 91.6515,201.925 Z "/>
			<path fill="#CBAF4A" fill-opacity="1" stroke-width="0.2" stroke-linejoin="round" d="M 80.4854,214.677C 81.9053,215.084 82.4578,217.502 81.7194,220.078C 80.981,222.654 79.2314,224.412 77.8115,224.005C 76.3916,223.598 75.8391,221.18 76.5775,218.604C 77.3159,216.028 79.0655,214.27 80.4854,214.677 Z "/>
			<path fill="#CBAF4A" fill-opacity="1" stroke-width="0.2" stroke-linejoin="round" d="M 83.2969,207.201C 83.939,207.646 83.7139,209.082 82.7944,210.407C 81.8749,211.733 80.609,212.447 79.967,212.002C 79.325,211.556 79.55,210.121 80.4695,208.795C 81.3892,207.469 82.655,206.755 83.2969,207.201 Z "/>
			<path fill="#CBAF4A" fill-opacity="1" stroke-width="0.2" stroke-linejoin="round" d="M 96.2522,207.233C 103.352,207.233 109.107,212.988 109.107,220.088C 109.107,227.188 103.352,232.943 96.2522,232.943C 89.1525,232.943 83.397,227.188 83.397,220.088C 83.397,212.988 89.1525,207.233 96.2522,207.233 Z "/>
		</g>
		<g>
			<path fill="#FFFFFF" fill-opacity="1" stroke-width="0.2" stroke-linejoin="round" d="M 130.723,162.398C 123.32,167.296 114.445,170.148 104.904,170.148C 86.5364,170.148 70.6378,159.579 62.9579,144.19C 59.0792,142.146 55.5247,140.012 52.3489,137.829C 58.7087,160.881 79.8292,177.81 104.904,177.81C 119.793,177.81 133.288,171.841 143.126,162.165C 139.285,162.486 135.127,162.566 130.723,162.398 Z "/>
			<path fill="#FFFFFF" fill-opacity="1" stroke-width="0.2" stroke-linejoin="round" d="M 59.0633,133.022C 55.9113,131.091 53.0504,129.106 50.5209,127.096C 41.1383,119.642 36.3167,111.848 38.1176,105.232C 39.9134,98.6348 47.979,94.366 59.7908,92.6853C 69.5987,78.2595 86.1447,68.7841 104.904,68.7841C 133.813,68.7841 157.466,91.2875 159.302,119.733C 168.681,127.186 173.501,134.978 171.7,141.593C 169.895,148.224 161.754,152.503 149.841,154.166C 146.637,154.613 143.16,154.871 139.46,154.934C 127.399,155.141 112.968,153.281 97.8955,149.179C 82.7814,145.065 69.3671,139.333 59.0633,133.022 Z M 145.508,146.686C 149.436,139.882 151.703,131.998 151.754,123.589L 151.755,123.297C 151.755,97.4221 130.779,76.4463 104.904,76.4463C 87.7004,76.4463 72.6628,85.7184 64.5156,99.5376C 60.4146,106.494 58.0594,114.603 58.0527,123.26C 67.8126,129.792 82.5623,136.233 99.6238,140.877C 117.235,145.671 133.693,147.566 145.508,146.686 Z M 154.87,145.127C 159.569,143.748 162.598,141.567 163.405,138.604C 164.226,135.589 162.652,132.105 159.175,128.466L 159.102,129.188C 158.499,134.8 157.045,140.157 154.87,145.127 Z M 55.3619,100.521L 55.7567,99.683C 50.2139,101.047 46.6754,103.352 45.7937,106.591C 44.9213,109.796 46.755,113.531 50.7037,117.419C 51.3443,111.444 52.9501,105.759 55.3619,100.521 Z "/>
		</g>
	</g>
</svg>
