<?xml version="1.0" standalone="no"?>
<!DOCTYPE svg PUBLIC "-//W3C//DTD SVG 20010904//EN"
 "http://www.w3.org/TR/2001/REC-SVG-20010904/DTD/svg10.dtd">
<svg version="1.0" xmlns="http://www.w3.org/2000/svg"
 width="3456.000000pt" height="4000.000000pt" viewBox="0 0 3456.000000 4000.000000"
 preserveAspectRatio="xMidYMid meet">
<metadata>
Created by potrace 1.16, written by Peter Selinger 2001-2019
</metadata>
<g transform="translate(0.000000,4000.000000) scale(0.100000,-0.100000)"
fill="#000000" stroke="none">
<path d="M6850 29285 c0 -12 -13 -15 -60 -15 -47 0 -60 -3 -60 -15 0 -11 -11
-15 -40 -15 -29 0 -40 -4 -40 -15 0 -9 -9 -15 -25 -15 -14 0 -25 -4 -25 -10 0
-5 -11 -10 -25 -10 -16 0 -25 -6 -25 -15 0 -8 -7 -15 -15 -15 -8 0 -15 -7 -15
-15 0 -8 -4 -15 -10 -15 -5 0 -10 -7 -10 -15 0 -8 -7 -15 -15 -15 -8 0 -15 -7
-15 -15 0 -8 -4 -15 -10 -15 -5 0 -10 -7 -10 -15 0 -8 -7 -15 -15 -15 -10 0
-15 -10 -15 -30 0 -20 -5 -30 -15 -30 -10 0 -15 -10 -15 -30 0 -16 -4 -30 -10
-30 -5 0 -10 -13 -10 -30 0 -20 -5 -30 -15 -30 -12 0 -15 -13 -15 -55 0 -30
-4 -55 -10 -55 -7 0 -10 -360 -10 -1060 0 -700 3 -1060 10 -1060 6 0 10 -30
10 -70 0 -56 3 -70 15 -70 11 0 15 -12 15 -45 0 -25 5 -45 10 -45 6 0 10 -13
10 -30 0 -20 5 -30 15 -30 10 0 15 -10 15 -30 0 -20 5 -30 15 -30 9 0 15 -10
15 -26 0 -26 20 -54 39 -54 6 0 11 -13 11 -30 0 -16 5 -30 10 -30 6 0 10 -7
10 -15 0 -8 7 -15 15 -15 8 0 15 -7 15 -15 0 -8 5 -15 10 -15 6 0 10 -7 10
-15 0 -8 7 -15 15 -15 10 0 15 -10 15 -30 0 -16 5 -30 10 -30 6 0 10 -7 10
-15 0 -8 7 -15 15 -15 8 0 15 -7 15 -15 0 -8 5 -15 10 -15 6 0 10 -7 10 -15 0
-8 7 -15 15 -15 8 0 15 -7 15 -15 0 -8 7 -15 15 -15 10 0 15 -10 15 -30 0 -16
5 -30 10 -30 6 0 10 -7 10 -15 0 -8 5 -15 11 -15 19 0 39 -28 39 -54 0 -16 6
-26 15 -26 8 0 15 -7 15 -15 0 -8 5 -15 10 -15 6 0 10 -7 10 -15 0 -8 7 -15
15 -15 8 0 15 -7 15 -15 0 -8 5 -15 10 -15 6 0 10 -7 10 -15 0 -8 7 -15 15
-15 8 0 15 -7 15 -15 0 -8 5 -15 10 -15 6 0 10 -13 10 -30 0 -20 5 -30 15 -30
8 0 15 -7 15 -15 0 -8 5 -15 10 -15 6 0 10 -7 10 -15 0 -8 7 -15 15 -15 8 0
15 -7 15 -15 0 -8 7 -15 15 -15 8 0 15 -7 15 -15 0 -8 5 -15 10 -15 6 0 10
-11 10 -25 0 -16 6 -25 15 -25 8 0 15 -7 15 -15 0 -8 5 -15 10 -15 6 0 10 -7
10 -15 0 -8 7 -15 15 -15 8 0 15 -7 15 -15 0 -8 5 -15 10 -15 6 0 10 -7 10
-15 0 -8 7 -15 15 -15 10 0 15 -10 15 -30 0 -16 5 -30 10 -30 6 0 10 -7 10
-15 0 -8 7 -15 15 -15 8 0 15 -7 15 -15 0 -8 5 -15 10 -15 6 0 10 -7 10 -15 0
-8 7 -15 15 -15 8 0 15 -7 15 -15 0 -8 5 -15 10 -15 6 0 10 -13 10 -30 0 -20
5 -30 15 -30 8 0 15 -7 15 -15 0 -8 5 -15 11 -15 14 0 39 -25 39 -39 0 -6 7
-11 15 -11 10 0 15 -10 15 -30 0 -16 5 -30 10 -30 6 0 10 -7 10 -15 0 -8 7
-15 15 -15 8 0 15 -7 15 -15 0 -8 5 -15 10 -15 6 0 10 -7 10 -15 0 -8 7 -15
15 -15 8 0 15 -7 15 -15 0 -8 5 -15 10 -15 6 0 10 -13 10 -30 0 -20 5 -30 15
-30 8 0 15 -7 15 -15 0 -8 5 -15 10 -15 6 0 10 -7 10 -15 0 -8 7 -15 15 -15 8
0 15 -7 15 -15 0 -8 5 -15 10 -15 6 0 10 -7 10 -15 0 -8 7 -15 15 -15 9 0 15
-9 15 -25 0 -16 6 -25 15 -25 8 0 15 -7 15 -15 0 -8 5 -15 10 -15 6 0 10 -7
10 -15 0 -8 7 -15 15 -15 8 0 15 -7 15 -15 0 -8 5 -15 10 -15 6 0 10 -13 10
-30 0 -20 5 -30 15 -30 8 0 15 -7 15 -15 0 -8 5 -15 10 -15 6 0 10 -7 10 -15
0 -8 7 -15 15 -15 8 0 15 -7 15 -15 0 -8 5 -15 10 -15 6 0 10 -7 10 -15 0 -8
7 -15 15 -15 10 0 15 -10 15 -30 0 -16 5 -30 10 -30 6 0 10 -7 10 -15 0 -8 7
-15 15 -15 8 0 15 -5 15 -11 0 -14 25 -39 39 -39 6 0 11 -7 11 -15 0 -8 7 -15
15 -15 10 0 15 -10 15 -30 0 -16 5 -30 10 -30 6 0 10 -7 10 -15 0 -8 7 -15 15
-15 8 0 15 -7 15 -15 0 -8 5 -15 10 -15 6 0 10 -7 10 -15 0 -8 7 -15 15 -15 8
0 15 -7 15 -15 0 -8 5 -15 10 -15 6 0 10 -13 10 -30 0 -20 5 -30 15 -30 8 0
15 -7 15 -15 0 -8 5 -15 10 -15 6 0 10 -7 10 -15 0 -8 7 -15 15 -15 8 0 15 -7
15 -15 0 -8 5 -15 10 -15 6 0 10 -7 10 -15 0 -8 7 -15 15 -15 9 0 15 -9 15
-25 0 -14 5 -25 10 -25 6 0 10 -7 10 -15 0 -8 7 -15 15 -15 8 0 15 -7 15 -15
0 -8 7 -15 15 -15 8 0 15 -7 15 -15 0 -8 5 -15 10 -15 6 0 10 -13 10 -30 0
-20 5 -30 15 -30 8 0 15 -7 15 -15 0 -8 5 -15 10 -15 6 0 10 -7 10 -15 0 -8 7
-15 15 -15 8 0 15 -7 15 -15 0 -8 5 -15 10 -15 6 0 10 -7 10 -15 0 -8 7 -15
15 -15 8 0 15 -7 15 -15 0 -8 5 -15 10 -15 6 0 10 -13 10 -30 0 -20 5 -30 15
-30 8 0 15 -5 15 -11 0 -14 25 -39 39 -39 6 0 11 -7 11 -15 0 -8 5 -15 10 -15
6 0 10 -13 10 -30 0 -20 5 -30 15 -30 8 0 15 -7 15 -15 0 -8 7 -15 15 -15 8 0
15 -7 15 -15 0 -8 5 -15 10 -15 7 0 10 -373 10 -1100 l0 -1100 -835 0 -835 0
0 30 c0 20 -5 30 -15 30 -13 0 -15 129 -15 1100 l0 1100 -355 0 -355 0 0
-3415 0 -3415 25 0 c16 0 25 -6 25 -15 0 -8 -7 -15 -15 -15 -10 0 -15 -10 -15
-30 0 -20 5 -30 15 -30 8 0 15 -7 15 -15 0 -8 -7 -15 -15 -15 -8 0 -15 -7 -15
-15 0 -8 7 -15 15 -15 8 0 15 -7 15 -15 0 -13 1163 -15 10410 -15 l10410 0 0
3795 c0 2523 3 3795 10 3795 6 0 10 27 10 60 0 47 3 60 15 60 12 0 15 13 15
60 0 33 4 60 10 60 6 0 10 20 10 45 0 33 4 45 15 45 12 0 15 13 15 55 0 30 5
55 10 55 6 0 10 20 10 45 0 33 4 45 15 45 12 0 15 13 15 60 0 33 4 60 10 60 6
0 10 27 10 60 0 47 3 60 15 60 11 0 15 11 15 40 0 29 4 40 15 40 11 0 15 12
15 45 0 25 5 45 10 45 6 0 10 27 10 60 0 47 3 60 15 60 11 0 15 12 15 45 0 25
5 45 10 45 6 0 10 18 10 40 0 29 4 40 15 40 12 0 15 13 15 60 0 33 4 60 10 60
6 0 10 20 10 45 0 33 4 45 15 45 11 0 15 12 15 45 0 25 5 45 10 45 6 0 10 20
10 45 0 33 4 45 15 45 11 0 15 11 15 40 0 22 5 40 10 40 6 0 10 14 10 30 0 20
5 30 15 30 12 0 15 13 15 60 0 33 4 60 10 60 6 0 10 20 10 45 0 33 4 45 15 45
11 0 15 12 15 45 0 33 4 45 15 45 12 0 15 13 15 55 0 30 5 55 10 55 6 0 10 20
10 45 0 33 4 45 15 45 11 0 15 12 15 45 0 25 5 45 10 45 6 0 10 27 10 60 0 47
3 60 15 60 11 0 15 11 15 40 0 22 5 40 10 40 6 0 10 20 10 45 0 33 4 45 15 45
12 0 15 13 15 60 0 33 4 60 10 60 6 0 10 20 10 45 0 33 4 45 15 45 11 0 15 11
15 40 0 22 5 40 10 40 6 0 10 20 10 45 0 33 4 45 15 45 12 0 15 13 15 60 0 33
4 60 10 60 6 0 10 20 10 45 0 33 4 45 15 45 12 0 15 13 15 60 0 47 3 60 15 60
11 0 15 11 15 40 0 22 5 40 10 40 6 0 10 20 10 45 0 33 4 45 15 45 12 0 15 13
15 60 0 33 4 60 10 60 6 0 10 20 10 45 0 33 4 45 15 45 11 0 15 11 15 40 0 22
5 40 10 40 6 0 10 27 10 60 0 47 3 60 15 60 11 0 15 12 15 45 0 25 5 45 10 45
6 0 10 20 10 45 0 33 4 45 15 45 12 0 15 13 15 55 0 30 5 55 10 55 6 0 10 20
10 45 0 33 4 45 15 45 11 0 15 12 15 45 0 25 5 45 10 45 6 0 10 27 10 60 0 47
3 60 15 60 11 0 15 12 15 45 0 33 4 45 15 45 11 0 15 11 15 40 0 22 5 40 10
40 6 0 10 27 10 60 0 47 3 60 15 60 11 0 15 12 15 45 0 25 5 45 10 45 6 0 10
20 10 45 0 33 4 45 15 45 12 0 15 13 15 55 0 30 5 55 10 55 6 0 10 20 10 45 0
33 4 45 15 45 11 0 15 12 15 45 0 25 5 45 10 45 6 0 10 27 10 60 0 47 3 60 15
60 11 0 15 12 15 45 0 25 5 45 10 45 6 0 10 18 10 40 l0 40 -60 0 c-47 0 -60
3 -60 15 0 13 -32 15 -230 15 -198 0 -230 -2 -230 -15 0 -9 -9 -15 -25 -15
-16 0 -25 6 -25 15 0 9 -9 15 -25 15 -16 0 -25 -6 -25 -15 0 -8 -7 -15 -15
-15 -8 0 -15 -7 -15 -15 0 -8 -4 -15 -10 -15 -5 0 -10 -25 -10 -55 0 -42 -3
-55 -15 -55 -12 0 -15 -13 -15 -60 0 -33 -4 -60 -10 -60 -5 0 -10 -20 -10 -45
0 -33 -4 -45 -15 -45 -12 0 -15 -13 -15 -60 0 -33 -4 -60 -10 -60 -5 0 -10
-25 -10 -55 0 -42 -3 -55 -15 -55 -11 0 -15 -12 -15 -45 0 -25 -4 -45 -10 -45
-6 0 -10 -27 -10 -60 0 -47 -3 -60 -15 -60 -12 0 -15 -13 -15 -60 0 -47 -3
-60 -15 -60 -11 0 -15 -11 -15 -40 0 -22 -4 -40 -10 -40 -6 0 -10 -27 -10 -60
0 -47 -3 -60 -15 -60 -11 0 -15 -12 -15 -45 0 -25 -4 -45 -10 -45 -6 0 -10
-27 -10 -60 0 -47 -3 -60 -15 -60 -12 0 -15 -13 -15 -55 0 -30 -4 -55 -10 -55
-5 0 -10 -20 -10 -45 0 -33 -4 -45 -15 -45 -12 0 -15 -13 -15 -60 0 -33 -4
-60 -10 -60 -6 0 -10 -27 -10 -60 0 -47 -3 -60 -15 -60 -12 0 -15 -13 -15 -55
0 -30 -4 -55 -10 -55 -5 0 -10 -20 -10 -45 0 -33 -4 -45 -15 -45 -12 0 -15
-13 -15 -60 0 -33 -4 -60 -10 -60 -5 0 -10 -20 -10 -45 0 -33 -4 -45 -15 -45
-12 0 -15 -13 -15 -55 0 -42 -3 -55 -15 -55 -12 0 -15 -13 -15 -60 0 -33 -4
-60 -10 -60 -6 0 -10 -27 -10 -60 0 -47 -3 -60 -15 -60 -11 0 -15 -12 -15 -45
0 -25 -4 -45 -10 -45 -5 0 -10 -25 -10 -55 0 -42 -3 -55 -15 -55 -12 0 -15
-13 -15 -60 0 -33 -4 -60 -10 -60 -5 0 -10 -20 -10 -45 0 -33 -4 -45 -15 -45
-12 0 -15 -13 -15 -60 0 -33 -4 -60 -10 -60 -5 0 -10 -25 -10 -55 0 -42 -3
-55 -15 -55 -11 0 -15 -12 -15 -45 0 -25 -4 -45 -10 -45 -6 0 -10 -27 -10 -60
0 -47 -3 -60 -15 -60 -12 0 -15 -13 -15 -60 0 -33 -4 -60 -10 -60 -5 0 -10
-18 -10 -40 0 -29 -4 -40 -15 -40 -12 0 -15 -13 -15 -60 0 -47 -3 -60 -15 -60
-11 0 -15 -12 -15 -45 0 -25 -4 -45 -10 -45 -6 0 -10 -27 -10 -60 0 -47 -3
-60 -15 -60 -12 0 -15 -13 -15 -55 0 -30 -4 -55 -10 -55 -5 0 -10 -20 -10 -45
0 -33 -4 -45 -15 -45 -12 0 -15 -13 -15 -60 0 -33 -4 -60 -10 -60 -6 0 -10
-27 -10 -60 0 -47 -3 -60 -15 -60 -12 0 -15 -13 -15 -55 0 -30 -4 -55 -10 -55
-5 0 -10 -13 -10 -30 0 -20 -5 -30 -15 -30 -11 0 -15 12 -15 45 0 25 -4 45
-10 45 -5 0 -10 18 -10 40 0 29 -4 40 -15 40 -12 0 -15 13 -15 60 0 33 -4 60
-10 60 -6 0 -10 27 -10 60 0 47 -3 60 -15 60 -11 0 -15 12 -15 45 0 33 -4 45
-15 45 -12 0 -15 13 -15 55 0 30 -4 55 -10 55 -6 0 -10 27 -10 60 0 47 -3 60
-15 60 -11 0 -15 12 -15 45 0 25 -4 45 -10 45 -6 0 -10 27 -10 60 0 47 -3 60
-15 60 -11 0 -15 11 -15 40 0 22 -4 40 -10 40 -6 0 -10 27 -10 60 0 47 -3 60
-15 60 -12 0 -15 13 -15 60 0 33 -4 60 -10 60 -5 0 -10 20 -10 45 0 33 -4 45
-15 45 -12 0 -15 13 -15 55 0 30 -4 55 -10 55 -6 0 -10 27 -10 60 0 47 -3 60
-15 60 -11 0 -15 12 -15 45 0 25 -4 45 -10 45 -6 0 -10 27 -10 60 0 47 -3 60
-15 60 -11 0 -15 11 -15 40 0 29 -4 40 -15 40 -12 0 -15 13 -15 60 0 33 -4 60
-10 60 -6 0 -10 27 -10 60 0 47 -3 60 -15 60 -11 0 -15 12 -15 45 0 25 -4 45
-10 45 -5 0 -10 25 -10 55 0 42 -3 55 -15 55 -12 0 -15 13 -15 60 0 33 -4 60
-10 60 -5 0 -10 20 -10 45 0 33 -4 45 -15 45 -12 0 -15 13 -15 60 0 33 -4 60
-10 60 -5 0 -10 25 -10 55 0 42 -3 55 -15 55 -11 0 -15 12 -15 45 0 25 -4 45
-10 45 -6 0 -10 27 -10 60 0 47 -3 60 -15 60 -11 0 -15 12 -15 45 0 25 -4 45
-10 45 -5 0 -10 25 -10 55 0 42 -3 55 -15 55 -12 0 -15 13 -15 60 0 47 -3 60
-15 60 -12 0 -15 13 -15 60 0 33 -4 60 -10 60 -5 0 -10 20 -10 45 0 33 -4 45
-15 45 -12 0 -15 13 -15 55 0 30 -4 55 -10 55 -5 0 -10 20 -10 45 0 33 -4 45
-15 45 -12 0 -15 13 -15 60 0 33 -4 60 -10 60 -6 0 -10 27 -10 60 0 47 -3 60
-15 60 -11 0 -15 11 -15 40 0 22 -4 40 -10 40 -6 0 -10 27 -10 60 0 47 -3 60
-15 60 -11 0 -15 12 -15 45 0 25 -4 45 -10 45 -6 0 -10 27 -10 60 0 47 -3 60
-15 60 -12 0 -15 13 -15 55 0 30 -4 55 -10 55 -5 0 -10 14 -10 30 0 27 -3 30
-30 30 -20 0 -30 5 -30 15 0 8 -4 15 -10 15 -5 0 -10 -7 -10 -15 0 -8 -7 -15
-15 -15 -8 0 -15 7 -15 15 0 13 -41 15 -305 15 l-305 0 0 -30 c0 -16 -4 -30
-10 -30 -5 0 -10 -7 -10 -15 0 -8 5 -15 10 -15 6 0 10 -18 10 -40 0 -29 4 -40
15 -40 11 0 15 -12 15 -45 0 -33 4 -45 15 -45 12 0 15 -13 15 -60 0 -33 4 -60
10 -60 6 0 10 -20 10 -45 0 -33 4 -45 15 -45 11 0 15 -11 15 -40 0 -22 5 -40
10 -40 6 0 10 -27 10 -60 0 -47 3 -60 15 -60 11 0 15 -12 15 -45 0 -25 5 -45
10 -45 6 0 10 -20 10 -45 0 -33 4 -45 15 -45 12 0 15 -13 15 -55 0 -30 5 -55
10 -55 6 0 10 -20 10 -45 0 -33 4 -45 15 -45 11 0 15 -12 15 -45 0 -25 5 -45
10 -45 6 0 10 -27 10 -60 0 -47 3 -60 15 -60 11 0 15 -12 15 -45 0 -25 5 -45
10 -45 6 0 10 -18 10 -40 0 -29 4 -40 15 -40 12 0 15 -13 15 -60 0 -47 3 -60
15 -60 11 0 15 -12 15 -45 0 -25 5 -45 10 -45 6 0 10 -20 10 -45 0 -33 4 -45
15 -45 12 0 15 -13 15 -55 0 -30 5 -55 10 -55 6 0 10 -20 10 -45 0 -33 4 -45
15 -45 11 0 15 -12 15 -45 0 -25 5 -45 10 -45 6 0 10 -27 10 -60 0 -47 3 -60
15 -60 11 0 15 -12 15 -45 0 -25 5 -45 10 -45 6 0 10 -18 10 -40 0 -29 4 -40
15 -40 12 0 15 -13 15 -60 0 -33 4 -60 10 -60 6 0 10 -20 10 -45 0 -33 4 -45
15 -45 11 0 15 -12 15 -45 0 -25 5 -45 10 -45 6 0 10 -25 10 -55 0 -42 3 -55
15 -55 11 0 15 -12 15 -45 0 -33 4 -45 15 -45 11 0 15 -12 15 -45 0 -25 5 -45
10 -45 6 0 10 -27 10 -60 0 -47 3 -60 15 -60 11 0 15 -11 15 -40 0 -22 5 -40
10 -40 6 0 10 -20 10 -45 0 -33 4 -45 15 -45 12 0 15 -13 15 -60 0 -33 4 -60
10 -60 6 0 10 -20 10 -45 0 -33 4 -45 15 -45 11 0 15 -12 15 -45 0 -25 5 -45
10 -45 6 0 10 -25 10 -55 0 -42 3 -55 15 -55 11 0 15 -12 15 -45 0 -25 5 -45
10 -45 6 0 10 -20 10 -45 0 -33 4 -45 15 -45 11 0 15 -12 15 -45 0 -25 5 -45
10 -45 6 0 10 -18 10 -40 0 -29 4 -40 15 -40 11 0 15 -12 15 -45 0 -33 4 -45
15 -45 11 0 15 -12 15 -45 0 -25 5 -45 10 -45 6 0 10 -20 10 -45 0 -33 4 -45
15 -45 11 0 15 -12 15 -45 0 -25 5 -45 10 -45 6 0 10 -18 10 -40 0 -29 4 -40
15 -40 11 0 15 -12 15 -45 0 -25 5 -45 10 -45 6 0 10 -20 10 -45 0 -33 4 -45
15 -45 11 0 15 -12 15 -45 0 -25 5 -45 10 -45 6 0 10 -20 10 -45 0 -33 4 -45
15 -45 11 0 15 -11 15 -40 0 -22 5 -40 10 -40 6 0 10 -27 10 -60 0 -47 3 -60
15 -60 11 0 15 -12 15 -45 0 -25 5 -45 10 -45 6 0 10 -27 10 -60 0 -47 3 -60
15 -60 11 0 15 -11 15 -40 0 -29 4 -40 15 -40 12 0 15 -13 15 -60 0 -33 4 -60
10 -60 6 0 10 -32 10 -75 0 -60 3 -75 15 -75 13 0 15 -166 15 -1435 0 -1269
-2 -1435 -15 -1435 -13 0 -15 -228 -15 -1995 0 -1323 -3 -1995 -10 -1995 -5 0
-10 7 -10 15 0 8 -7 15 -15 15 -8 0 -15 -7 -15 -15 0 -8 -7 -15 -15 -15 -8 0
-15 7 -15 15 0 10 -11 15 -35 15 -24 0 -35 -5 -35 -15 0 -13 -76 -15 -625 -15
-549 0 -625 2 -625 15 0 8 -4 15 -10 15 -5 0 -10 -7 -10 -15 0 -9 -9 -15 -25
-15 -16 0 -25 6 -25 15 0 8 -7 15 -15 15 -8 0 -15 -7 -15 -15 0 -9 -9 -15 -25
-15 -16 0 -25 6 -25 15 0 8 -4 15 -10 15 -7 0 -10 193 -10 560 l0 560 -330 0
-330 0 0 -560 0 -560 -295 0 c-256 0 -295 -2 -295 -15 0 -9 -9 -15 -25 -15
-16 0 -25 6 -25 15 0 12 -15 15 -75 15 -60 0 -75 -3 -75 -15 0 -13 -153 -15
-1320 -15 -1167 0 -1320 2 -1320 15 0 12 -19 15 -115 15 -96 0 -115 -3 -115
-15 0 -8 -4 -15 -10 -15 -5 0 -10 -7 -10 -15 0 -13 -38 -15 -280 -15 l-280 0
0 30 0 30 -90 0 c-73 0 -90 -3 -90 -15 0 -8 -7 -15 -15 -15 -8 0 -15 7 -15 15
0 12 -18 15 -100 15 -82 0 -100 -3 -100 -15 0 -13 -109 -15 -925 -15 -816 0
-925 2 -925 15 0 8 -7 15 -15 15 -13 0 -15 389 -15 3445 l0 3445 -280 0 -280
0 0 -3445 c0 -2290 -3 -3445 -10 -3445 -5 0 -10 -7 -10 -15 0 -13 -107 -15
-900 -15 -793 0 -900 2 -900 15 0 8 -7 15 -15 15 -8 0 -15 -7 -15 -15 0 -12
-17 -15 -90 -15 -73 0 -90 3 -90 15 0 10 -11 15 -35 15 -24 0 -35 5 -35 15 0
8 5 15 10 15 6 0 10 14 10 30 0 17 -4 30 -10 30 -6 0 -10 40 -10 100 0 82 -3
100 -15 100 -13 0 -15 -23 -15 -145 0 -90 -4 -145 -10 -145 -5 0 -10 14 -10
30 0 20 -5 30 -15 30 -10 0 -15 -10 -15 -30 l0 -30 -240 0 c-207 0 -240 -2
-240 -15 0 -8 -7 -15 -15 -15 -8 0 -15 7 -15 15 0 9 -9 15 -25 15 -16 0 -25
-6 -25 -15 0 -9 -9 -15 -25 -15 -16 0 -25 6 -25 15 0 9 -9 15 -25 15 -16 0
-25 -6 -25 -15 0 -13 -204 -15 -1775 -15 -1571 0 -1775 2 -1775 15 0 9 -9 15
-25 15 l-25 0 0 720 0 720 -280 0 -280 0 0 -720 0 -720 -25 0 c-16 0 -25 -6
-25 -15 0 -8 -7 -15 -15 -15 -8 0 -15 7 -15 15 0 8 -4 15 -10 15 -5 0 -10 -7
-10 -15 0 -13 -165 -15 -1425 -15 -1260 0 -1425 2 -1425 15 0 12 -13 15 -60
15 l-60 0 0 1585 0 1585 935 0 c824 0 935 2 935 15 0 12 14 15 65 15 51 0 65
3 65 15 0 11 11 15 40 15 22 0 40 5 40 11 0 17 27 39 49 39 12 0 21 6 21 15 0
8 7 15 15 15 8 0 15 7 15 15 0 8 5 15 10 15 6 0 10 7 10 15 0 8 7 15 15 15 8
0 15 7 15 15 0 8 5 15 10 15 6 0 10 7 10 15 0 8 7 15 15 15 8 0 15 7 15 15 0
8 7 15 15 15 10 0 15 10 15 30 0 17 5 30 10 30 6 0 10 14 10 30 0 20 5 30 15
30 11 0 15 12 15 45 0 25 5 45 10 45 7 0 10 422 10 1245 0 823 -3 1245 -10
1245 -5 0 -10 25 -10 55 0 42 -3 55 -15 55 -10 0 -15 10 -15 30 0 17 -4 30
-10 30 -5 0 -10 20 -10 45 0 33 -4 45 -15 45 -10 0 -15 10 -15 30 0 20 -5 30
-15 30 -8 0 -15 7 -15 15 0 8 -4 15 -10 15 -5 0 -10 14 -10 30 0 20 -5 30 -15
30 -8 0 -15 7 -15 15 0 8 -4 15 -10 15 -5 0 -10 7 -10 15 0 8 -7 15 -15 15 -8
0 -15 7 -15 15 0 8 -4 15 -10 15 -5 0 -10 11 -10 25 0 16 -6 25 -15 25 -8 0
-15 7 -15 15 0 8 -4 15 -10 15 -5 0 -10 7 -10 15 0 8 -7 15 -15 15 -8 0 -15 7
-15 15 0 8 -4 15 -10 15 -5 0 -10 14 -10 30 0 20 -5 30 -15 30 -8 0 -15 7 -15
15 0 8 -4 15 -10 15 -5 0 -10 7 -10 15 0 8 -7 15 -15 15 -8 0 -15 7 -15 15 0
8 -7 15 -15 15 -8 0 -15 7 -15 15 0 8 -4 15 -10 15 -5 0 -10 14 -10 30 0 20
-5 30 -15 30 -8 0 -15 7 -15 15 0 8 -4 15 -10 15 -5 0 -10 7 -10 15 0 8 -5 15
-11 15 -14 0 -39 25 -39 39 0 6 -7 11 -15 11 -10 0 -15 10 -15 30 0 17 -4 30
-10 30 -5 0 -10 7 -10 15 0 8 -7 15 -15 15 -8 0 -15 7 -15 15 0 8 -4 15 -10
15 -5 0 -10 7 -10 15 0 8 -7 15 -15 15 -8 0 -15 7 -15 15 0 8 -4 15 -10 15 -5
0 -10 14 -10 30 0 20 -5 30 -15 30 -8 0 -15 7 -15 15 0 8 -7 15 -15 15 -8 0
-15 7 -15 15 0 8 -4 15 -10 15 -5 0 -10 7 -10 15 0 8 -7 15 -15 15 -8 0 -15 7
-15 15 0 8 -4 15 -10 15 -5 0 -10 11 -10 25 0 16 -6 25 -15 25 -8 0 -15 7 -15
15 0 8 -4 15 -10 15 -5 0 -10 7 -10 15 0 8 -7 15 -15 15 -8 0 -15 7 -15 15 0
8 -4 15 -10 15 -5 0 -10 7 -10 15 0 8 -7 15 -15 15 -10 0 -15 10 -15 30 0 17
-4 30 -10 30 -5 0 -10 7 -10 15 0 8 -7 15 -15 15 -8 0 -15 7 -15 15 0 8 -4 15
-10 15 -5 0 -10 7 -10 15 0 8 -7 15 -15 15 -8 0 -15 7 -15 15 0 8 -7 15 -15
15 -10 0 -15 10 -15 30 0 17 -4 30 -10 30 -5 0 -10 7 -10 15 0 8 -5 15 -11 15
-14 0 -39 25 -39 39 0 6 -7 11 -15 11 -8 0 -15 7 -15 15 0 8 -4 15 -10 15 -5
0 -10 14 -10 30 0 20 -5 30 -15 30 -8 0 -15 7 -15 15 0 8 -4 15 -10 15 -5 0
-10 7 -10 15 0 8 -7 15 -15 15 -8 0 -15 7 -15 15 0 8 -4 15 -10 15 -5 0 -10 7
-10 15 0 8 -7 15 -15 15 -10 0 -15 10 -15 30 0 17 -4 30 -10 30 -5 0 -10 7
-10 15 0 8 -7 15 -15 15 -8 0 -15 7 -15 15 0 8 -7 15 -15 15 -8 0 -15 7 -15
15 0 8 -4 15 -10 15 -5 0 -10 7 -10 15 0 8 -7 15 -15 15 -9 0 -15 9 -15 25 0
14 -4 25 -10 25 -5 0 -10 7 -10 15 0 8 -7 15 -15 15 -8 0 -15 7 -15 15 0 8 -4
15 -10 15 -5 0 -10 7 -10 15 0 8 -7 15 -15 15 -10 0 -15 10 -15 30 0 17 -4 30
-10 30 -5 0 -10 7 -10 15 0 8 -7 15 -15 15 -8 0 -15 7 -15 15 0 8 -4 15 -10
15 -5 0 -10 7 -10 15 0 8 -7 15 -15 15 -8 0 -15 7 -15 15 0 8 -4 15 -10 15 -5
0 -10 14 -10 30 0 20 -5 30 -15 30 -8 0 -15 7 -15 15 0 8 -5 15 -11 15 -14 0
-39 25 -39 39 0 6 -7 11 -15 11 -8 0 -15 7 -15 15 0 8 -4 15 -10 15 -5 0 -10
14 -10 30 0 20 -5 30 -15 30 -8 0 -15 7 -15 15 0 8 -4 15 -10 15 -5 0 -10 7
-10 15 0 8 -7 15 -15 15 -8 0 -15 7 -15 15 0 8 -4 15 -10 15 -5 0 -10 7 -10
15 0 8 -7 15 -15 15 -10 0 -15 10 -15 30 0 17 -4 30 -10 30 -5 0 -10 7 -10 15
0 8 -7 15 -15 15 -8 0 -15 7 -15 15 0 8 -4 15 -10 15 -5 0 -10 7 -10 15 0 8
-7 15 -15 15 -8 0 -15 7 -15 15 0 8 -7 15 -15 15 -9 0 -15 9 -15 25 0 14 -4
25 -10 25 -5 0 -10 7 -10 15 0 8 -7 15 -15 15 -8 0 -15 7 -15 15 0 8 -4 15
-10 15 -5 0 -10 7 -10 15 0 8 -7 15 -15 15 -8 0 -15 7 -15 15 0 8 -4 15 -10
15 -5 0 -10 14 -10 30 0 20 -5 30 -15 30 -8 0 -15 7 -15 15 0 8 -4 15 -10 15
-5 0 -10 7 -10 15 0 8 -7 15 -15 15 -8 0 -15 7 -15 15 0 8 -4 15 -10 15 -5 0
-10 7 -10 15 0 8 -7 15 -15 15 -9 0 -15 10 -15 26 0 26 -20 54 -39 54 -8 0
-11 287 -11 970 l0 970 850 0 850 0 0 -1025 0 -1025 25 0 c16 0 25 -6 25 -15
0 -13 42 -15 320 -15 278 0 320 2 320 15 0 8 5 15 10 15 7 0 10 387 10 1140 0
753 -3 1140 -10 1140 -5 0 -10 20 -10 45 0 33 -4 45 -15 45 -10 0 -15 10 -15
30 0 17 -4 30 -10 30 -5 0 -10 14 -10 30 0 20 -5 30 -15 30 -8 0 -15 7 -15 15
0 8 -7 15 -15 15 -8 0 -15 7 -15 15 0 8 -4 15 -10 15 -5 0 -10 7 -10 15 0 8
-7 15 -15 15 -8 0 -15 7 -15 15 0 8 -4 15 -10 15 -5 0 -10 7 -10 15 0 8 -7 15
-15 15 -8 0 -15 5 -15 11 0 21 -29 39 -64 39 -25 0 -36 4 -36 15 0 9 -9 15
-25 15 -16 0 -25 6 -25 15 0 12 -14 15 -65 15 -51 0 -65 3 -65 15 0 9 -9 15
-25 15 -16 0 -25 -6 -25 -15 0 -9 -9 -15 -25 -15 -16 0 -25 6 -25 15 0 13
-117 15 -990 15 -873 0 -990 -2 -990 -15z"/>
<path d="M11850 29285 c0 -10 -11 -15 -35 -15 l-35 0 0 -4570 0 -4570 355 0
355 0 0 2195 0 2195 940 0 940 0 0 -2110 c0 -1400 3 -2110 10 -2110 6 0 10 -7
10 -15 0 -8 -4 -15 -10 -15 -5 0 -10 -18 -10 -40 0 -22 5 -40 10 -40 6 0 10
-13 10 -30 l0 -30 345 0 c300 0 345 2 345 15 0 8 5 15 10 15 15 0 12 57 -2 64
-10 5 -10 7 0 12 16 7 18 8974 2 8974 -5 0 -10 7 -10 15 0 8 5 15 10 15 6 0
10 7 10 15 0 8 -4 15 -10 15 -5 0 -10 7 -10 15 0 9 -9 15 -25 15 -16 0 -25 -6
-25 -15 0 -8 -7 -15 -15 -15 -8 0 -15 7 -15 15 0 11 -11 15 -40 15 -29 0 -40
-4 -40 -15 0 -8 -4 -15 -10 -15 -5 0 -10 7 -10 15 0 13 -29 15 -205 15 -176 0
-205 -2 -205 -15 0 -10 -11 -15 -35 -15 -24 0 -35 5 -35 15 0 8 -7 15 -15 15
-8 0 -15 -7 -15 -15 0 -8 -4 -15 -10 -15 -7 0 -10 -647 -10 -1920 0 -1273 3
-1920 10 -1920 6 0 10 -18 10 -40 0 -22 -4 -40 -10 -40 -5 0 -10 -20 -10 -45
l0 -45 -940 0 -940 0 0 2005 c0 1776 -2 2005 -15 2005 -8 0 -15 7 -15 15 0 13
-41 15 -305 15 -264 0 -305 -2 -305 -15z"/>
<path d="M19980 29285 c0 -11 -12 -15 -50 -15 l-50 0 0 -4570 0 -4570 330 0
330 0 0 3325 c0 2210 3 3325 10 3325 6 0 10 -13 10 -30 0 -20 5 -30 15 -30 11
0 15 -12 15 -45 0 -25 5 -45 10 -45 6 0 10 -18 10 -40 0 -29 4 -40 15 -40 11
0 15 -12 15 -45 0 -25 5 -45 10 -45 6 0 10 -13 10 -30 0 -20 5 -30 15 -30 11
0 15 -12 15 -45 0 -25 5 -45 10 -45 6 0 10 -20 10 -45 0 -33 4 -45 15 -45 11
0 15 -11 15 -40 0 -22 5 -40 10 -40 6 0 10 -13 10 -30 0 -20 5 -30 15 -30 11
0 15 -12 15 -45 0 -25 5 -45 10 -45 6 0 10 -20 10 -45 0 -33 4 -45 15 -45 11
0 15 -12 15 -45 0 -33 4 -45 15 -45 9 0 15 -9 15 -25 0 -14 5 -25 10 -25 6 0
10 -20 10 -45 0 -33 4 -45 15 -45 11 0 15 -12 15 -45 0 -25 5 -45 10 -45 6 0
10 -20 10 -45 0 -33 4 -45 15 -45 10 0 15 -10 15 -30 0 -16 5 -30 10 -30 6 0
10 -18 10 -40 0 -29 4 -40 15 -40 11 0 15 -12 15 -45 0 -25 5 -45 10 -45 6 0
10 -20 10 -45 0 -33 4 -45 15 -45 10 0 15 -10 15 -30 0 -16 5 -30 10 -30 6 0
10 -20 10 -45 0 -33 4 -45 15 -45 11 0 15 -12 15 -45 0 -25 5 -45 10 -45 6 0
10 -18 10 -40 0 -29 4 -40 15 -40 11 0 15 -12 15 -45 0 -33 4 -45 15 -45 10 0
15 -10 15 -30 0 -16 5 -30 10 -30 6 0 10 -20 10 -45 0 -33 4 -45 15 -45 11 0
15 -12 15 -45 0 -25 5 -45 10 -45 6 0 10 -18 10 -40 0 -29 4 -40 15 -40 10 0
15 -10 15 -30 0 -16 5 -30 10 -30 6 0 10 -20 10 -45 0 -33 4 -45 15 -45 11 0
15 -12 15 -45 0 -25 5 -45 10 -45 6 0 10 -20 10 -45 0 -33 4 -45 15 -45 9 0
15 -9 15 -25 0 -14 5 -25 10 -25 6 0 10 -20 10 -45 0 -33 4 -45 15 -45 11 0
15 -12 15 -45 0 -25 5 -45 10 -45 6 0 10 -20 10 -45 0 -33 4 -45 15 -45 10 0
15 -10 15 -30 0 -20 5 -30 15 -30 11 0 15 -12 15 -45 0 -25 5 -45 10 -45 6 0
10 -18 10 -40 0 -29 4 -40 15 -40 11 0 15 -12 15 -45 0 -25 5 -45 10 -45 6 0
10 -13 10 -30 0 -20 5 -30 15 -30 11 0 15 -12 15 -45 0 -25 5 -45 10 -45 6 0
10 -20 10 -45 0 -33 4 -45 15 -45 11 0 15 -11 15 -40 0 -22 5 -40 10 -40 6 0
10 -13 10 -30 0 -20 5 -30 15 -30 11 0 15 -12 15 -45 0 -25 5 -45 10 -45 6 0
10 -20 10 -45 0 -33 4 -45 15 -45 11 0 15 -12 15 -45 0 -25 5 -45 10 -45 6 0
10 -11 10 -25 0 -16 6 -25 15 -25 11 0 15 -12 15 -45 0 -33 4 -45 15 -45 11 0
15 -12 15 -45 0 -25 5 -45 10 -45 6 0 10 -20 10 -45 0 -33 4 -45 15 -45 11 0
15 -12 15 -45 0 -25 5 -45 10 -45 6 0 10 -11 10 -25 0 -16 6 -25 15 -25 11 0
15 -12 15 -45 0 -25 5 -45 10 -45 6 0 10 -20 10 -45 0 -33 4 -45 15 -45 10 0
15 -10 15 -30 0 -16 5 -30 10 -30 6 0 10 -20 10 -45 0 -33 4 -45 15 -45 11 0
15 -12 15 -45 0 -25 5 -45 10 -45 6 0 10 -18 10 -40 0 -29 4 -40 15 -40 10 0
15 -10 15 -30 0 -16 5 -30 10 -30 6 0 10 -20 10 -45 0 -33 4 -45 15 -45 11 0
15 -12 15 -45 0 -33 4 -45 15 -45 11 0 15 -12 15 -45 0 -25 5 -45 10 -45 6 0
10 -18 10 -40 0 -29 4 -40 15 -40 10 0 15 -10 15 -30 0 -16 5 -30 10 -30 6 0
10 -20 10 -45 0 -33 4 -45 15 -45 11 0 15 -12 15 -45 0 -25 5 -45 10 -45 6 0
10 -20 10 -45 0 -33 4 -45 15 -45 9 0 15 -9 15 -25 0 -14 5 -25 10 -25 6 0 10
-20 10 -45 0 -33 4 -45 15 -45 11 0 15 -12 15 -45 0 -25 5 -45 10 -45 6 0 10
-20 10 -45 0 -33 4 -45 15 -45 10 0 15 -10 15 -30 0 -16 5 -30 10 -30 6 0 10
-20 10 -45 0 -33 4 -45 15 -45 11 0 15 -11 15 -40 0 -29 4 -40 15 -40 11 0 15
-12 15 -45 0 -25 5 -45 10 -45 6 0 10 -13 10 -30 0 -20 5 -30 15 -30 11 0 15
-12 15 -45 0 -25 5 -45 10 -45 6 0 10 -20 10 -45 0 -33 4 -45 15 -45 11 0 15
-11 15 -40 0 -22 5 -40 10 -40 6 0 10 -7 10 -15 0 -13 33 -15 240 -15 l240 0
0 4570 0 4570 -50 0 c-38 0 -50 4 -50 15 0 13 -29 15 -200 15 -171 0 -200 -2
-200 -15 0 -8 -7 -15 -15 -15 -8 0 -15 7 -15 15 0 9 -9 15 -25 15 -16 0 -25
-6 -25 -15 0 -8 -4 -15 -10 -15 -5 0 -10 7 -10 15 0 10 -10 15 -30 15 l-30 0
0 -3280 c0 -2180 -3 -3280 -10 -3280 -5 0 -10 18 -10 40 0 29 -4 40 -15 40
-10 0 -15 10 -15 30 0 17 -4 30 -10 30 -5 0 -10 20 -10 45 0 33 -4 45 -15 45
-11 0 -15 12 -15 45 0 25 -4 45 -10 45 -5 0 -10 20 -10 45 0 33 -4 45 -15 45
-10 0 -15 10 -15 30 0 17 -4 30 -10 30 -5 0 -10 18 -10 40 0 29 -4 40 -15 40
-11 0 -15 12 -15 45 0 25 -4 45 -10 45 -5 0 -10 20 -10 45 0 33 -4 45 -15 45
-10 0 -15 10 -15 30 0 17 -4 30 -10 30 -5 0 -10 20 -10 45 0 33 -4 45 -15 45
-11 0 -15 11 -15 40 0 29 -4 40 -15 40 -11 0 -15 12 -15 45 0 25 -4 45 -10 45
-5 0 -10 20 -10 45 0 33 -4 45 -15 45 -10 0 -15 10 -15 30 0 17 -4 30 -10 30
-5 0 -10 20 -10 45 0 33 -4 45 -15 45 -11 0 -15 11 -15 40 0 22 -4 40 -10 40
-5 0 -10 20 -10 45 0 33 -4 45 -15 45 -10 0 -15 10 -15 30 0 17 -4 30 -10 30
-5 0 -10 20 -10 45 0 33 -4 45 -15 45 -11 0 -15 12 -15 45 0 25 -4 45 -10 45
-5 0 -10 18 -10 40 0 29 -4 40 -15 40 -10 0 -15 10 -15 30 0 17 -4 30 -10 30
-5 0 -10 20 -10 45 0 33 -4 45 -15 45 -11 0 -15 12 -15 45 0 33 -4 45 -15 45
-11 0 -15 12 -15 45 0 25 -4 45 -10 45 -5 0 -10 18 -10 40 0 29 -4 40 -15 40
-10 0 -15 10 -15 30 0 17 -4 30 -10 30 -5 0 -10 20 -10 45 0 33 -4 45 -15 45
-11 0 -15 12 -15 45 0 25 -4 45 -10 45 -5 0 -10 14 -10 30 0 20 -5 30 -15 30
-11 0 -15 12 -15 45 0 25 -4 45 -10 45 -5 0 -10 18 -10 40 0 29 -4 40 -15 40
-11 0 -15 12 -15 45 0 25 -4 45 -10 45 -5 0 -10 20 -10 45 0 33 -4 45 -15 45
-10 0 -15 10 -15 30 0 17 -4 30 -10 30 -5 0 -10 20 -10 45 0 33 -4 45 -15 45
-11 0 -15 11 -15 40 0 29 -4 40 -15 40 -11 0 -15 12 -15 45 0 25 -4 45 -10 45
-5 0 -10 14 -10 30 0 20 -5 30 -15 30 -11 0 -15 12 -15 45 0 25 -4 45 -10 45
-5 0 -10 20 -10 45 0 33 -4 45 -15 45 -11 0 -15 11 -15 40 0 22 -4 40 -10 40
-5 0 -10 14 -10 30 0 20 -5 30 -15 30 -11 0 -15 12 -15 45 0 25 -4 45 -10 45
-5 0 -10 20 -10 45 0 33 -4 45 -15 45 -11 0 -15 12 -15 45 0 25 -4 45 -10 45
-5 0 -10 18 -10 40 0 29 -4 40 -15 40 -10 0 -15 10 -15 30 0 17 -4 30 -10 30
-5 0 -10 20 -10 45 0 33 -4 45 -15 45 -11 0 -15 12 -15 45 0 33 -4 45 -15 45
-11 0 -15 12 -15 45 0 25 -4 45 -10 45 -5 0 -10 14 -10 30 0 20 -5 30 -15 30
-11 0 -15 11 -15 40 0 22 -4 40 -10 40 -5 0 -10 20 -10 45 0 33 -4 45 -15 45
-10 0 -15 10 -15 30 0 17 -4 30 -10 30 -5 0 -10 20 -10 45 0 33 -4 45 -15 45
-11 0 -15 12 -15 45 0 25 -4 45 -10 45 -5 0 -10 18 -10 40 0 29 -4 40 -15 40
-11 0 -15 12 -15 45 0 25 -4 45 -10 45 -5 0 -10 14 -10 30 0 20 -5 30 -15 30
-11 0 -15 12 -15 45 0 25 -4 45 -10 45 -5 0 -10 20 -10 45 0 33 -4 45 -15 45
-11 0 -15 11 -15 40 0 29 -4 40 -15 40 -10 0 -15 10 -15 30 0 17 -4 30 -10 30
-5 0 -10 20 -10 45 0 33 -4 45 -15 45 -11 0 -15 12 -15 45 0 25 -4 45 -10 45
-5 0 -10 20 -10 45 0 33 -4 45 -15 45 -10 0 -15 10 -15 30 0 17 -4 30 -10 30
-5 0 -10 18 -10 40 0 29 -4 40 -15 40 -11 0 -15 12 -15 45 0 25 -4 45 -10 45
-5 0 -10 20 -10 45 0 33 -4 45 -15 45 -11 0 -15 12 -15 45 0 25 -4 45 -10 45
-5 0 -10 14 -10 30 0 20 -5 30 -15 30 -11 0 -15 11 -15 40 0 22 -4 40 -10 40
-5 0 -10 20 -10 45 0 33 -4 45 -15 45 -11 0 -15 12 -15 45 0 33 -4 45 -15 45
-10 0 -15 10 -15 30 0 17 -4 30 -10 30 -5 0 -10 20 -10 45 0 33 -4 45 -15 45
-11 0 -15 11 -15 40 0 22 -4 40 -10 40 -5 0 -10 14 -10 30 0 20 -5 30 -15 30
-8 0 -15 7 -15 15 0 13 -29 15 -200 15 -171 0 -200 -2 -200 -15z"/>
<path d="M17340 29255 c0 -8 -7 -15 -15 -15 -8 0 -15 -7 -15 -15 0 -9 -9 -15
-25 -15 -20 0 -25 -5 -25 -25 0 -14 -4 -25 -10 -25 -5 0 -10 -7 -10 -15 0 -8
-7 -15 -15 -15 -10 0 -15 -10 -15 -30 0 -20 -5 -30 -15 -30 -10 0 -15 -10 -15
-30 0 -16 -4 -30 -10 -30 -5 0 -10 -13 -10 -30 0 -20 -5 -30 -15 -30 -11 0
-15 -12 -15 -45 0 -25 -4 -45 -10 -45 -5 0 -10 -20 -10 -45 0 -33 -4 -45 -15
-45 -12 0 -15 -13 -15 -55 0 -30 -4 -55 -10 -55 -6 0 -10 -27 -10 -60 0 -47
-3 -60 -15 -60 -12 0 -15 -15 -15 -75 0 -43 -4 -75 -10 -75 -6 0 -10 -30 -10
-70 0 -56 -3 -70 -15 -70 -12 0 -15 -17 -15 -90 0 -53 -4 -90 -10 -90 -6 0
-10 -32 -10 -75 0 -60 -3 -75 -15 -75 -12 0 -15 -16 -15 -85 0 -50 -4 -85 -10
-85 -6 0 -10 -37 -10 -90 0 -73 -3 -90 -15 -90 -12 0 -15 -18 -15 -100 0 -82
-3 -100 -15 -100 -12 0 -15 -17 -15 -90 0 -53 -4 -90 -10 -90 -6 0 -10 -40
-10 -100 0 -82 -3 -100 -15 -100 -12 0 -15 -18 -15 -105 0 -63 -4 -105 -10
-105 -6 0 -10 -40 -10 -100 0 -82 -3 -100 -15 -100 -12 0 -15 -18 -15 -105 0
-63 -4 -105 -10 -105 -6 0 -10 -40 -10 -100 0 -82 -3 -100 -15 -100 -12 0 -15
-18 -15 -105 0 -63 -4 -105 -10 -105 -6 0 -10 -40 -10 -100 0 -82 -3 -100 -15
-100 -12 0 -15 -17 -15 -90 0 -53 -4 -90 -10 -90 -6 0 -10 -42 -10 -105 0 -87
-3 -105 -15 -105 -12 0 -15 -14 -15 -70 0 -40 -4 -70 -10 -70 -6 0 -10 -47
-10 -120 0 -100 -2 -120 -15 -120 -12 0 -15 -14 -15 -70 0 -56 -3 -70 -15 -70
-12 0 -15 -17 -15 -90 0 -53 -4 -90 -10 -90 -6 0 -10 -32 -10 -75 0 -60 -3
-75 -15 -75 -12 0 -15 -14 -15 -70 0 -40 -4 -70 -10 -70 -6 0 -10 -27 -10 -60
0 -47 -3 -60 -15 -60 -12 0 -15 -13 -15 -60 0 -33 -4 -60 -10 -60 -5 0 -10
-18 -10 -40 0 -29 -4 -40 -15 -40 -12 0 -15 -13 -15 -60 0 -33 -4 -60 -10 -60
-5 0 -10 -13 -10 -30 0 -20 -5 -30 -15 -30 -8 0 -15 -7 -15 -15 0 -8 -4 -15
-10 -15 -5 0 -10 -7 -10 -15 0 -8 -7 -15 -15 -15 -8 0 -15 -7 -15 -15 0 -8 -4
-15 -10 -15 -5 0 -10 -7 -10 -15 0 -10 -10 -15 -30 -15 -20 0 -30 -5 -30 -15
0 -9 -9 -15 -25 -15 -16 0 -25 -6 -25 -15 0 -11 -12 -15 -50 -15 -38 0 -50 -4
-50 -15 0 -12 -18 -15 -100 -15 -82 0 -100 -3 -100 -15 0 -12 -17 -15 -90 -15
-53 0 -90 -4 -90 -10 0 -5 -16 -10 -35 -10 -24 0 -35 -5 -35 -15 0 -10 -10
-15 -30 -15 -20 0 -30 -5 -30 -15 0 -8 -4 -15 -10 -15 -5 0 -10 -13 -10 -30 0
-20 -5 -30 -15 -30 -10 0 -15 -10 -15 -30 0 -16 -4 -30 -10 -30 -5 0 -10 -20
-10 -45 0 -25 5 -45 10 -45 6 0 10 -20 10 -45 0 -33 4 -45 15 -45 8 0 15 -5
15 -11 0 -14 25 -39 39 -39 6 0 11 -7 11 -15 0 -11 11 -15 40 -15 29 0 40 -4
40 -15 0 -9 9 -15 25 -15 16 0 25 6 25 15 0 10 11 15 35 15 24 0 35 5 35 15 0
12 19 15 115 15 70 0 115 4 115 10 0 6 32 10 75 10 60 0 75 3 75 15 0 12 13
15 55 15 42 0 55 3 55 15 0 10 11 15 35 15 24 0 35 5 35 15 0 9 9 15 25 15 16
0 25 6 25 15 0 9 9 15 25 15 16 0 25 6 25 15 0 8 7 15 15 15 8 0 15 7 15 15 0
9 9 15 25 15 16 0 25 6 25 15 0 8 5 15 10 15 6 0 10 7 10 15 0 8 7 15 15 15 8
0 15 7 15 15 0 8 7 15 15 15 8 0 15 7 15 15 0 8 5 15 10 15 6 0 10 7 10 15 0
8 7 15 15 15 8 0 15 7 15 15 0 8 5 15 10 15 6 0 10 11 10 25 0 16 6 25 15 25
10 0 15 10 15 30 0 17 5 30 10 30 6 0 10 7 10 15 0 8 7 15 15 15 11 0 15 12
15 45 0 25 5 45 10 45 6 0 10 20 10 45 0 33 4 45 15 45 12 0 15 13 15 60 0 33
4 60 10 60 6 0 10 25 10 55 0 42 3 55 15 55 12 0 15 13 15 60 0 33 4 60 10 60
6 0 10 32 10 75 0 60 3 75 15 75 12 0 15 14 15 70 0 56 3 70 15 70 12 0 15 15
15 75 0 43 4 75 10 75 6 0 10 37 10 90 0 73 3 90 15 90 12 0 15 16 15 85 0 50
4 85 10 85 6 0 10 37 10 90 0 73 3 90 15 90 12 0 15 19 15 115 0 70 4 115 10
115 6 0 10 37 10 90 0 73 3 90 15 90 12 0 15 18 15 100 0 60 4 100 10 100 6 0
10 37 10 90 0 73 3 90 15 90 12 0 15 18 15 100 0 60 4 100 10 100 6 0 10 42
10 105 0 87 3 105 15 105 12 0 15 18 15 100 0 60 4 100 10 100 6 0 10 47 10
120 0 100 3 120 15 120 12 0 15 17 15 90 0 73 3 90 15 90 12 0 15 18 15 100 0
60 4 100 10 100 6 0 10 37 10 90 0 73 3 90 15 90 12 0 15 16 15 85 0 50 4 85
10 85 6 0 10 37 10 90 0 73 3 90 15 90 12 0 15 16 15 85 0 50 4 85 10 85 6 0
10 37 10 90 0 73 3 90 15 90 12 0 15 15 15 75 0 43 4 75 10 75 6 0 10 25 10
55 0 42 3 55 15 55 8 0 15 7 15 15 0 8 5 15 10 15 6 0 10 -30 10 -70 0 -56 3
-70 15 -70 12 0 15 -15 15 -75 0 -43 4 -75 10 -75 6 0 10 -32 10 -75 0 -60 3
-75 15 -75 12 0 15 -16 15 -85 0 -69 3 -85 15 -85 12 0 15 -17 15 -90 0 -53 4
-90 10 -90 6 0 10 -35 10 -85 0 -69 3 -85 15 -85 12 0 15 -18 15 -105 0 -63 4
-105 10 -105 6 0 10 -32 10 -75 0 -60 3 -75 15 -75 12 0 15 -19 15 -115 0 -70
4 -115 10 -115 6 0 10 -37 10 -90 0 -73 3 -90 15 -90 12 0 15 -18 15 -100 0
-60 4 -100 10 -100 6 0 10 -42 10 -105 0 -87 3 -105 15 -105 12 0 15 -18 15
-100 0 -60 4 -100 10 -100 6 0 10 -42 10 -105 0 -87 3 -105 15 -105 12 0 15
-16 15 -85 0 -50 4 -85 10 -85 6 0 10 -47 10 -120 0 -100 3 -120 15 -120 12 0
15 -16 15 -85 0 -69 3 -85 15 -85 12 0 15 -18 15 -105 0 -63 4 -105 10 -105 6
0 10 -32 10 -75 0 -60 3 -75 15 -75 12 0 15 -16 15 -85 0 -50 4 -85 10 -85 6
0 10 -37 10 -90 0 -73 3 -90 15 -90 12 0 15 -14 15 -70 0 -40 4 -70 10 -70 6
0 10 -32 10 -75 0 -60 3 -75 15 -75 12 0 15 -15 15 -75 0 -43 4 -75 10 -75 6
0 10 -18 10 -40 0 -29 4 -40 15 -40 12 0 15 -13 15 -60 0 -33 4 -60 10 -60 6
0 10 -27 10 -60 0 -47 3 -60 15 -60 10 0 15 -10 15 -30 0 -16 5 -30 10 -30 6
0 10 -13 10 -30 0 -20 5 -30 15 -30 10 0 15 -10 15 -30 0 -16 5 -30 11 -30 19
0 39 -28 39 -54 0 -16 6 -26 15 -26 8 0 15 -7 15 -15 0 -8 5 -15 10 -15 6 0
10 -7 10 -15 0 -8 7 -15 15 -15 8 0 15 -7 15 -15 0 -8 5 -15 10 -15 6 0 10 -7
10 -15 0 -9 9 -15 25 -15 16 0 25 -6 25 -15 0 -8 7 -15 15 -15 8 0 15 -7 15
-15 0 -8 5 -15 10 -15 6 0 10 -7 10 -15 0 -11 11 -15 40 -15 29 0 40 -4 40
-15 0 -8 7 -15 15 -15 8 0 15 -7 15 -15 0 -11 12 -15 50 -15 38 0 50 -4 50
-15 0 -10 11 -15 35 -15 24 0 35 -5 35 -15 0 -12 17 -15 90 -15 53 0 90 -4 90
-10 0 -6 40 -10 100 -10 82 0 100 -3 100 -15 0 -12 18 -15 105 -15 87 0 105 3
105 15 0 9 9 15 25 15 20 0 25 5 25 25 0 14 5 25 10 25 6 0 10 14 10 30 0 20
5 30 15 30 12 0 15 15 15 75 0 60 -3 75 -15 75 -10 0 -15 10 -15 30 0 17 -4
30 -10 30 -5 0 -10 7 -10 15 0 8 -7 15 -15 15 -8 0 -15 7 -15 15 0 9 -9 15
-25 15 -16 0 -25 6 -25 15 0 10 -11 15 -35 15 -19 0 -35 5 -35 10 0 6 -37 10
-90 10 -73 0 -90 3 -90 15 0 12 -17 15 -90 15 -73 0 -90 3 -90 15 0 11 -12 15
-50 15 -38 0 -50 4 -50 15 0 11 -11 15 -40 15 -29 0 -40 4 -40 15 0 9 -9 15
-25 15 -16 0 -25 6 -25 15 0 8 -4 15 -10 15 -5 0 -10 7 -10 15 0 8 -7 15 -15
15 -8 0 -15 7 -15 15 0 8 -4 15 -10 15 -5 0 -10 14 -10 30 0 20 -5 30 -15 30
-10 0 -15 10 -15 30 0 20 -5 30 -15 30 -11 0 -15 12 -15 45 0 25 -4 45 -10 45
-5 0 -10 18 -10 40 0 29 -4 40 -15 40 -12 0 -15 15 -15 75 0 43 -4 75 -10 75
-6 0 -10 27 -10 60 0 47 -3 60 -15 60 -12 0 -15 14 -15 70 0 40 -4 70 -10 70
-6 0 -10 32 -10 75 0 60 -3 75 -15 75 -12 0 -15 17 -15 90 0 53 -4 90 -10 90
-6 0 -10 35 -10 85 0 69 -3 85 -15 85 -12 0 -15 17 -15 90 0 53 -4 90 -10 90
-6 0 -10 35 -10 85 0 69 -3 85 -15 85 -12 0 -15 18 -15 105 0 63 -4 105 -10
105 -6 0 -10 40 -10 100 0 82 -3 100 -15 100 -12 0 -15 17 -15 90 0 73 -3 90
-15 90 -12 0 -15 19 -15 115 0 70 -4 115 -10 115 -6 0 -10 37 -10 90 0 73 -3
90 -15 90 -12 0 -15 19 -15 115 0 70 -4 115 -10 115 -6 0 -10 37 -10 90 0 73
-3 90 -15 90 -12 0 -15 18 -15 105 0 63 -4 105 -10 105 -6 0 -10 40 -10 100 0
82 -3 100 -15 100 -12 0 -15 17 -15 90 0 53 -4 90 -10 90 -6 0 -10 35 -10 85
0 69 -3 85 -15 85 -12 0 -15 18 -15 105 0 63 -4 105 -10 105 -6 0 -10 35 -10
85 0 69 -3 85 -15 85 -12 0 -15 15 -15 75 0 43 -4 75 -10 75 -6 0 -10 37 -10
90 0 73 -3 90 -15 90 -12 0 -15 14 -15 70 0 56 -3 70 -15 70 -12 0 -15 15 -15
75 0 43 -4 75 -10 75 -6 0 -10 27 -10 60 0 47 -3 60 -15 60 -12 0 -15 13 -15
55 0 30 -4 55 -10 55 -5 0 -10 20 -10 45 0 33 -4 45 -15 45 -11 0 -15 12 -15
45 0 25 -4 45 -10 45 -5 0 -10 14 -10 30 0 20 -5 30 -15 30 -10 0 -15 10 -15
30 0 17 -4 30 -10 30 -5 0 -10 7 -10 15 0 8 -7 15 -15 15 -9 0 -15 10 -15 26
0 31 -21 54 -49 54 -12 0 -21 6 -21 15 0 8 -7 15 -15 15 -8 0 -15 7 -15 15 0
12 -18 15 -100 15 -82 0 -100 -3 -100 -15z"/>
<path d="M14490 18165 c0 -851 2 -965 15 -965 13 0 15 112 15 950 l0 950 25 0
c16 0 25 6 25 15 0 11 -11 15 -40 15 l-40 0 0 -965z"/>
<path d="M15410 15365 c0 -12 -19 -15 -115 -15 -96 0 -115 -3 -115 -15 0 -12
-18 -15 -100 -15 -82 0 -100 -3 -100 -15 0 -12 -16 -15 -80 -15 -64 0 -80 -3
-80 -15 0 -12 -15 -15 -75 -15 -60 0 -75 -3 -75 -15 0 -12 -17 -15 -90 -15
-73 0 -90 -3 -90 -15 0 -12 -15 -15 -75 -15 l-75 0 0 60 c0 33 -4 60 -10 60
-5 0 -10 7 -10 15 0 13 -32 15 -230 15 -198 0 -230 -2 -230 -15 0 -11 -11 -15
-40 -15 -29 0 -40 4 -40 15 0 8 -4 15 -10 15 -5 0 -10 -7 -10 -15 0 -11 -11
-15 -40 -15 l-40 0 0 -2725 0 -2725 330 0 330 0 0 2375 0 2375 155 0 c131 0
155 2 155 15 0 13 50 15 390 15 253 0 390 4 390 10 0 6 7 10 15 10 8 0 15 -4
15 -10 0 -5 16 -10 35 -10 l35 0 0 -560 0 -560 320 0 320 0 0 690 c0 607 -2
690 -15 690 -12 0 -15 13 -15 60 0 33 -4 60 -10 60 -5 0 -10 11 -10 25 0 16
-6 25 -15 25 -10 0 -15 10 -15 30 0 17 -4 30 -10 30 -5 0 -10 7 -10 15 0 8 -7
15 -15 15 -8 0 -15 7 -15 15 0 8 -4 15 -10 15 -5 0 -10 7 -10 15 0 8 -7 15
-15 15 -8 0 -15 7 -15 15 0 8 -4 15 -10 15 -5 0 -10 7 -10 15 0 9 -9 15 -25
15 -16 0 -25 6 -25 15 0 10 -10 15 -30 15 -20 0 -30 5 -30 15 0 11 -12 15 -50
15 -38 0 -50 4 -50 15 0 13 -26 15 -175 15 -149 0 -175 -2 -175 -15z"/>
<path d="M26320 15365 c0 -13 -22 -15 -140 -15 -118 0 -140 -2 -140 -15 0 -12
-18 -15 -100 -15 -82 0 -100 -3 -100 -15 0 -12 -17 -15 -90 -15 -73 0 -90 -3
-90 -15 0 -12 -18 -15 -100 -15 -82 0 -100 -3 -100 -15 0 -12 -18 -15 -100
-15 -82 0 -100 -3 -100 -15 0 -12 -17 -15 -90 -15 l-90 0 0 75 0 75 -320 0
c-278 0 -320 -2 -320 -15 0 -8 -4 -15 -10 -15 -7 0 -10 -915 -10 -2725 l0
-2725 330 0 330 0 0 2375 0 2375 190 0 c162 0 190 2 190 15 0 13 56 15 445 15
290 0 445 3 445 10 0 6 11 10 25 10 14 0 25 -4 25 -10 0 -5 11 -10 25 -10 14
0 25 5 25 10 0 15 19 12 36 -4 12 -13 14 -346 14 -2400 l0 -2386 320 0 320 0
0 55 c0 30 5 55 10 55 7 0 10 788 10 2345 0 1557 -3 2345 -10 2345 -5 0 -10
14 -10 30 0 17 5 30 10 30 6 0 10 14 10 30 0 17 -4 30 -10 30 -6 0 -10 37 -10
90 0 73 -3 90 -15 90 -11 0 -15 12 -15 45 0 25 -4 45 -10 45 -5 0 -10 11 -10
25 0 16 -6 25 -15 25 -10 0 -15 10 -15 30 0 20 -5 30 -15 30 -8 0 -15 7 -15
15 0 8 -4 15 -10 15 -5 0 -10 7 -10 15 0 8 -7 15 -15 15 -8 0 -15 7 -15 15 0
9 -9 15 -25 15 -16 0 -25 6 -25 15 0 8 -4 15 -10 15 -5 0 -10 7 -10 15 0 11
-11 15 -40 15 -29 0 -40 4 -40 15 0 11 -12 15 -50 15 -38 0 -50 4 -50 15 0 13
-27 15 -180 15 -153 0 -180 -2 -180 -15 0 -8 -4 -15 -10 -15 -5 0 -10 7 -10
15 0 8 -7 15 -15 15 -8 0 -15 -7 -15 -15z"/>
<path d="M6730 15335 c0 -12 -16 -15 -80 -15 -64 0 -80 -3 -80 -15 0 -9 -9
-15 -25 -15 -16 0 -25 -6 -25 -15 0 -9 -9 -15 -25 -15 -16 0 -25 -6 -25 -15 0
-9 -9 -15 -25 -15 -16 0 -25 -6 -25 -15 0 -8 -7 -15 -15 -15 -8 0 -15 -7 -15
-15 0 -8 -4 -15 -10 -15 -5 0 -10 -7 -10 -15 0 -8 -7 -15 -15 -15 -8 0 -15 -7
-15 -15 0 -8 -4 -15 -10 -15 -5 0 -10 -11 -10 -25 0 -16 -6 -25 -15 -25 -10 0
-15 -10 -15 -30 0 -16 -4 -30 -10 -30 -5 0 -10 -20 -10 -45 0 -33 -4 -45 -15
-45 -13 0 -15 -80 -15 -660 0 -580 2 -660 15 -660 11 0 15 -12 15 -45 0 -25 5
-45 10 -45 6 0 10 -13 10 -30 0 -20 5 -30 15 -30 9 0 15 -10 15 -26 0 -26 20
-54 39 -54 6 0 11 -13 11 -30 0 -16 5 -30 10 -30 6 0 10 -7 10 -15 0 -8 7 -15
15 -15 8 0 15 -7 15 -15 0 -8 7 -15 15 -15 8 0 15 -7 15 -15 0 -9 9 -15 25
-15 16 0 25 -6 25 -15 0 -8 5 -15 10 -15 6 0 10 -7 10 -15 0 -8 7 -15 15 -15
8 0 15 -7 15 -15 0 -8 5 -15 10 -15 6 0 10 -7 10 -15 0 -8 7 -15 15 -15 8 0
15 -7 15 -15 0 -9 9 -15 25 -15 16 0 25 -6 25 -15 0 -8 5 -15 10 -15 6 0 10
-7 10 -15 0 -8 7 -15 15 -15 8 0 15 -7 15 -15 0 -8 7 -15 15 -15 8 0 15 -4 15
-10 0 -5 11 -10 25 -10 16 0 25 -6 25 -15 0 -8 5 -15 10 -15 6 0 10 -7 10 -15
0 -8 7 -15 15 -15 8 0 15 -7 15 -15 0 -8 5 -15 10 -15 6 0 10 -7 10 -15 0 -8
7 -15 15 -15 8 0 15 -7 15 -15 0 -9 9 -15 25 -15 16 0 25 -6 25 -15 0 -8 5
-15 10 -15 6 0 10 -7 10 -15 0 -8 7 -15 15 -15 8 0 15 -7 15 -15 0 -8 5 -15
10 -15 6 0 10 -7 10 -15 0 -10 10 -15 30 -15 20 0 30 -5 30 -15 0 -8 5 -15 10
-15 6 0 10 -7 10 -15 0 -8 7 -15 15 -15 8 0 15 -7 15 -15 0 -8 5 -15 10 -15 6
0 10 -7 10 -15 0 -9 9 -15 25 -15 16 0 25 -6 25 -15 0 -8 5 -15 11 -15 14 0
39 -25 39 -39 0 -6 7 -11 15 -11 8 0 15 -7 15 -15 0 -8 5 -15 10 -15 6 0 10
-7 10 -15 0 -8 7 -15 15 -15 8 0 15 -7 15 -15 0 -9 9 -15 25 -15 16 0 25 -6
25 -15 0 -8 7 -15 15 -15 8 0 15 -7 15 -15 0 -8 5 -15 10 -15 6 0 10 -7 10
-15 0 -8 7 -15 15 -15 8 0 15 -7 15 -15 0 -9 9 -15 25 -15 16 0 25 -6 25 -15
0 -8 5 -15 10 -15 6 0 10 -7 10 -15 0 -8 7 -15 15 -15 8 0 15 -7 15 -15 0 -8
5 -15 10 -15 6 0 10 -7 10 -15 0 -8 7 -15 15 -15 8 0 15 -7 15 -15 0 -9 9 -15
25 -15 14 0 25 -5 25 -11 0 -14 25 -39 39 -39 6 0 11 -7 11 -15 0 -8 7 -15 15
-15 8 0 15 -7 15 -15 0 -9 9 -15 25 -15 16 0 25 -6 25 -15 0 -8 5 -15 10 -15
6 0 10 -7 10 -15 0 -8 7 -15 15 -15 8 0 15 -7 15 -15 0 -8 5 -15 10 -15 6 0
10 -7 10 -15 0 -9 9 -15 25 -15 16 0 25 -6 25 -15 0 -8 7 -15 15 -15 8 0 15
-7 15 -15 0 -8 5 -15 10 -15 6 0 10 -7 10 -15 0 -8 7 -15 15 -15 8 0 15 -7 15
-15 0 -8 5 -15 10 -15 6 0 10 -7 10 -15 0 -10 10 -15 30 -15 20 0 30 -5 30
-15 0 -8 5 -15 10 -15 6 0 10 -7 10 -15 0 -8 5 -15 11 -15 14 0 39 -25 39 -39
0 -6 7 -11 15 -11 8 0 15 -7 15 -15 0 -8 5 -15 10 -15 7 0 10 -188 10 -545 l0
-545 -645 0 -645 0 0 30 c0 20 -5 30 -15 30 -8 0 -15 7 -15 15 0 8 7 15 15 15
8 0 15 7 15 15 0 8 -7 15 -15 15 -8 0 -15 7 -15 15 0 8 7 15 15 15 13 0 15 63
15 510 0 447 -2 510 -15 510 -10 0 -15 10 -15 30 l0 30 -315 0 -315 0 0 -675
c0 -443 3 -675 10 -675 6 0 10 -30 10 -70 0 -56 3 -70 15 -70 10 0 15 -10 15
-30 0 -16 5 -30 10 -30 6 0 10 -13 10 -30 0 -20 5 -30 15 -30 10 0 15 -10 15
-30 0 -16 5 -30 10 -30 6 0 10 -7 10 -15 0 -8 7 -15 15 -15 8 0 15 -7 15 -15
0 -8 5 -15 10 -15 6 0 10 -7 10 -15 0 -10 10 -15 30 -15 17 0 30 -5 30 -11 0
-21 29 -39 64 -39 25 0 36 -4 36 -15 0 -11 12 -15 50 -15 38 0 50 -4 50 -15 0
-13 104 -15 875 -15 771 0 875 2 875 15 0 11 11 15 40 15 29 0 40 4 40 15 0
10 11 15 35 15 19 0 35 5 35 10 0 6 11 10 25 10 16 0 25 6 25 15 0 8 7 15 15
15 8 0 15 7 15 15 0 8 5 15 10 15 6 0 10 7 10 15 0 8 7 15 15 15 8 0 15 7 15
15 0 8 7 15 15 15 8 0 15 7 15 15 0 8 5 15 10 15 6 0 10 14 10 30 0 20 5 30
15 30 10 0 15 10 15 30 0 17 5 30 10 30 6 0 10 27 10 60 0 47 3 60 15 60 13 0
15 83 15 685 0 602 -2 685 -15 685 -12 0 -15 13 -15 60 0 33 -4 60 -10 60 -5
0 -10 14 -10 30 0 20 -5 30 -15 30 -10 0 -15 10 -15 30 0 17 -4 30 -10 30 -5
0 -10 7 -10 15 0 8 -7 15 -15 15 -10 0 -15 10 -15 30 0 20 -5 30 -15 30 -8 0
-15 5 -15 11 0 14 -25 39 -39 39 -6 0 -11 7 -11 15 0 8 -4 15 -10 15 -5 0 -10
7 -10 15 0 9 -9 15 -25 15 -16 0 -25 6 -25 15 0 8 -7 15 -15 15 -8 0 -15 7
-15 15 0 8 -4 15 -10 15 -5 0 -10 7 -10 15 0 8 -7 15 -15 15 -8 0 -15 7 -15
15 0 8 -4 15 -10 15 -5 0 -10 7 -10 15 0 9 -9 15 -25 15 -16 0 -25 6 -25 15 0
8 -7 15 -15 15 -8 0 -15 7 -15 15 0 8 -7 15 -15 15 -8 0 -15 7 -15 15 0 8 -4
15 -10 15 -5 0 -10 7 -10 15 0 9 -9 15 -25 15 -16 0 -25 6 -25 15 0 8 -7 15
-15 15 -8 0 -15 7 -15 15 0 8 -4 15 -10 15 -5 0 -10 7 -10 15 0 8 -7 15 -15
15 -8 0 -15 5 -15 10 0 6 -11 10 -25 10 -16 0 -25 6 -25 15 0 8 -4 15 -10 15
-5 0 -10 7 -10 15 0 8 -7 15 -15 15 -8 0 -15 7 -15 15 0 8 -4 15 -10 15 -5 0
-10 7 -10 15 0 8 -7 15 -15 15 -8 0 -15 7 -15 15 0 9 -9 15 -25 15 -16 0 -25
6 -25 15 0 8 -7 15 -15 15 -8 0 -15 7 -15 15 0 8 -4 15 -10 15 -5 0 -10 7 -10
15 0 8 -7 15 -15 15 -8 0 -15 7 -15 15 0 9 -9 15 -25 15 -16 0 -25 6 -25 15 0
8 -4 15 -10 15 -5 0 -10 7 -10 15 0 8 -7 15 -15 15 -8 0 -15 7 -15 15 0 8 -4
15 -10 15 -5 0 -10 7 -10 15 0 8 -7 15 -15 15 -8 0 -15 7 -15 15 0 9 -9 15
-25 15 -14 0 -25 5 -25 10 0 6 -7 10 -15 10 -8 0 -15 7 -15 15 0 8 -4 15 -10
15 -5 0 -10 7 -10 15 0 8 -7 15 -15 15 -8 0 -15 7 -15 15 0 9 -9 15 -25 15
-16 0 -25 6 -25 15 0 8 -4 15 -10 15 -5 0 -10 7 -10 15 0 8 -7 15 -15 15 -8 0
-15 7 -15 15 0 8 -4 15 -10 15 -5 0 -10 7 -10 15 0 9 -9 15 -25 15 -16 0 -25
6 -25 15 0 8 -7 15 -15 15 -8 0 -15 7 -15 15 0 8 -4 15 -10 15 -5 0 -10 7 -10
15 0 8 -7 15 -15 15 -8 0 -15 7 -15 15 0 8 -7 15 -15 15 -8 0 -15 7 -15 15 0
9 -9 15 -25 15 -14 0 -25 5 -25 11 0 14 -25 39 -39 39 -6 0 -11 7 -11 15 0 8
-4 15 -10 15 -5 0 -10 7 -10 15 0 8 -7 15 -15 15 -8 0 -15 7 -15 15 0 9 -9 15
-25 15 -16 0 -25 6 -25 15 0 8 -4 15 -10 15 -5 0 -10 7 -10 15 0 8 -7 15 -15
15 -8 0 -15 7 -15 15 0 9 -9 15 -25 15 -16 0 -25 6 -25 15 0 8 -7 15 -15 15
-8 0 -15 7 -15 15 0 8 -4 15 -10 15 -5 0 -10 7 -10 15 0 8 -7 15 -15 15 -8 0
-15 7 -15 15 0 8 -4 15 -10 15 -5 0 -10 7 -10 15 0 9 -9 15 -25 15 l-25 0 0
480 0 480 635 0 635 0 0 -480 c0 -313 3 -480 10 -480 6 0 10 -27 10 -60 l0
-60 215 0 c184 0 215 2 215 15 0 8 7 15 15 15 8 0 15 -7 15 -15 0 -12 14 -15
65 -15 51 0 65 3 65 15 0 9 9 15 25 15 16 0 25 6 25 15 0 8 -7 15 -15 15 -10
0 -15 10 -15 30 0 20 5 30 15 30 13 0 15 63 15 510 0 447 -2 510 -15 510 -12
0 -15 18 -15 105 0 63 -4 105 -10 105 -5 0 -10 20 -10 45 0 33 -4 45 -15 45
-9 0 -15 9 -15 25 0 14 -4 25 -10 25 -5 0 -10 7 -10 15 0 8 -7 15 -15 15 -8 0
-15 7 -15 15 0 8 -7 15 -15 15 -8 0 -15 7 -15 15 0 8 -4 15 -10 15 -5 0 -10 7
-10 15 0 8 -7 15 -15 15 -8 0 -15 7 -15 15 0 8 -4 15 -10 15 -5 0 -10 7 -10
15 0 9 -9 15 -25 15 -16 0 -25 6 -25 15 0 11 -11 15 -40 15 -29 0 -40 4 -40
15 0 12 -15 15 -75 15 -60 0 -75 3 -75 15 0 11 -11 15 -40 15 -29 0 -40 -4
-40 -15 0 -8 -4 -15 -10 -15 -5 0 -10 7 -10 15 0 13 -86 15 -710 15 -624 0
-710 -2 -710 -15 0 -8 -7 -15 -15 -15 -8 0 -15 7 -15 15 0 8 -4 15 -10 15 -5
0 -10 -7 -10 -15z"/>
<path d="M10630 15335 c0 -13 -23 -15 -150 -15 -127 0 -150 -2 -150 -15 0 -11
-11 -15 -40 -15 -29 0 -40 -4 -40 -15 0 -9 -9 -15 -25 -15 -16 0 -25 -6 -25
-15 0 -9 -9 -15 -25 -15 -16 0 -25 -6 -25 -15 0 -8 -4 -15 -10 -15 -5 0 -10
-7 -10 -15 0 -8 -7 -15 -15 -15 -8 0 -15 -7 -15 -15 0 -8 -4 -15 -10 -15 -5 0
-10 -13 -10 -30 0 -16 -5 -30 -11 -30 -22 0 -39 -30 -39 -69 0 -30 -4 -41 -15
-41 -12 0 -15 -13 -15 -60 0 -47 -3 -60 -15 -60 -13 0 -15 -257 -15 -2255 0
-1998 2 -2255 15 -2255 12 0 15 -13 15 -60 0 -47 3 -60 15 -60 10 0 15 -10 15
-30 0 -16 5 -30 10 -30 6 0 10 -13 10 -30 0 -20 5 -30 15 -30 8 0 15 -7 15
-15 0 -8 5 -15 10 -15 6 0 10 -7 10 -15 0 -8 7 -15 15 -15 8 0 15 -7 15 -15 0
-8 5 -15 10 -15 6 0 10 -7 10 -15 0 -8 7 -15 15 -15 8 0 15 -7 15 -15 0 -9 9
-15 25 -15 14 0 25 -4 25 -10 0 -5 11 -10 25 -10 16 0 25 -6 25 -15 0 -12 14
-15 65 -15 51 0 65 -3 65 -15 0 -13 105 -15 885 -15 780 0 885 2 885 15 0 11
12 15 50 15 38 0 50 4 50 15 0 10 10 15 30 15 17 0 30 5 30 10 0 6 11 10 25
10 16 0 25 6 25 15 0 9 9 15 25 15 16 0 25 6 25 15 0 8 5 15 10 15 6 0 10 7
10 15 0 8 7 15 15 15 8 0 15 7 15 15 0 8 5 15 10 15 6 0 10 14 10 30 0 20 5
30 15 30 10 0 15 10 15 30 0 17 5 30 10 30 6 0 10 20 10 45 0 33 4 45 15 45
13 0 15 82 15 675 0 443 3 675 10 675 14 0 12 27 -2 34 -10 5 -10 7 0 12 14 7
16 34 2 34 -5 0 -10 7 -10 15 0 13 -42 15 -320 15 l-320 0 0 -600 0 -600 -660
0 -660 0 0 2065 0 2065 660 0 660 0 0 -540 0 -540 320 0 c278 0 320 2 320 15
0 8 5 15 10 15 6 0 10 27 10 60 0 33 -4 60 -10 60 -7 0 -10 162 -10 465 0 303
3 465 10 465 6 0 10 14 10 30 0 17 -4 30 -10 30 -6 0 -10 42 -10 105 0 87 -3
105 -15 105 -11 0 -15 12 -15 45 0 25 -4 45 -10 45 -5 0 -10 11 -10 25 0 16
-6 25 -15 25 -8 0 -15 7 -15 15 0 8 -4 15 -10 15 -5 0 -10 7 -10 15 0 8 -7 15
-15 15 -8 0 -15 7 -15 15 0 8 -4 15 -10 15 -5 0 -10 7 -10 15 0 8 -7 15 -15
15 -8 0 -15 7 -15 15 0 8 -4 15 -10 15 -5 0 -10 7 -10 15 0 9 -9 15 -25 15
-16 0 -25 6 -25 15 0 11 -11 15 -40 15 -29 0 -40 4 -40 15 0 12 -15 15 -75 15
-60 0 -75 3 -75 15 0 8 -7 15 -15 15 -8 0 -15 -7 -15 -15 0 -8 -4 -15 -10 -15
-5 0 -10 7 -10 15 0 13 -86 15 -715 15 -629 0 -715 -2 -715 -15z"/>
<path d="M17490 15335 c0 -12 -15 -15 -75 -15 -60 0 -75 -3 -75 -15 0 -9 -9
-15 -25 -15 -16 0 -25 -6 -25 -15 0 -9 -9 -15 -25 -15 -16 0 -25 -6 -25 -15 0
-10 -10 -15 -30 -15 -20 0 -30 -5 -30 -15 0 -8 -4 -15 -10 -15 -5 0 -10 -7
-10 -15 0 -8 -7 -15 -15 -15 -8 0 -15 -7 -15 -15 0 -8 -4 -15 -10 -15 -5 0
-10 -7 -10 -15 0 -8 -7 -15 -15 -15 -9 0 -15 -9 -15 -25 0 -14 -4 -25 -10 -25
-5 0 -10 -13 -10 -30 0 -20 -5 -30 -15 -30 -11 0 -15 -12 -15 -45 0 -25 -4
-45 -10 -45 -7 0 -10 -768 -10 -2285 0 -1517 3 -2285 10 -2285 6 0 10 -27 10
-60 0 -47 3 -60 15 -60 10 0 15 -10 15 -30 0 -16 5 -30 10 -30 6 0 10 -13 10
-30 0 -20 5 -30 15 -30 8 0 15 -7 15 -15 0 -8 5 -15 10 -15 6 0 10 -13 10 -30
0 -25 4 -30 25 -30 16 0 25 -6 25 -15 0 -8 7 -15 15 -15 8 0 15 -7 15 -15 0
-9 9 -15 25 -15 14 0 25 -4 25 -10 0 -5 11 -10 25 -10 16 0 25 -6 25 -15 0
-12 14 -15 65 -15 51 0 65 -3 65 -15 0 -13 107 -15 900 -15 793 0 900 2 900
15 0 11 12 15 50 15 38 0 50 4 50 15 0 9 9 15 25 15 14 0 25 5 25 10 0 6 11
10 25 10 16 0 25 6 25 15 0 9 9 15 25 15 16 0 25 6 25 15 0 8 7 15 15 15 8 0
15 7 15 15 0 8 7 15 15 15 10 0 15 10 15 30 0 17 5 30 10 30 6 0 10 7 10 15 0
8 7 15 15 15 10 0 15 10 15 30 0 17 5 30 10 30 6 0 10 20 10 45 0 33 4 45 15
45 13 0 15 75 15 615 l0 615 -320 0 -320 0 0 -500 c0 -327 -3 -500 -10 -500
-5 0 -10 -7 -10 -15 0 -8 -7 -15 -15 -15 -8 0 -15 7 -15 15 0 13 -76 15 -620
15 -544 0 -620 -2 -620 -15 0 -8 -7 -15 -15 -15 -8 0 -15 7 -15 15 0 9 -9 15
-25 15 l-25 0 0 985 0 985 915 0 915 0 0 25 c0 14 5 25 10 25 6 0 10 7 10 15
0 8 7 15 15 15 8 0 15 7 15 15 0 8 7 15 15 15 8 0 15 7 15 15 0 8 5 15 10 15
6 0 10 7 10 15 0 8 7 15 15 15 8 0 15 7 15 15 0 8 5 15 10 15 6 0 10 7 10 15
0 8 7 15 15 15 13 0 15 129 15 1100 0 971 -2 1100 -15 1100 -11 0 -15 12 -15
45 0 25 -4 45 -10 45 -5 0 -10 14 -10 30 0 20 -5 30 -15 30 -9 0 -15 9 -15 25
0 14 -4 25 -10 25 -5 0 -10 7 -10 15 0 8 -7 15 -15 15 -8 0 -15 7 -15 15 0 8
-7 15 -15 15 -8 0 -15 7 -15 15 0 8 -4 15 -10 15 -5 0 -10 7 -10 15 0 8 -7 15
-15 15 -8 0 -15 7 -15 15 0 9 -9 15 -25 15 -16 0 -25 6 -25 15 0 10 -11 15
-35 15 -24 0 -35 5 -35 15 0 12 -16 15 -80 15 -64 0 -80 3 -80 15 0 13 -97 15
-810 15 -713 0 -810 -2 -810 -15 0 -8 -7 -15 -15 -15 -8 0 -15 7 -15 15 0 8
-4 15 -10 15 -5 0 -10 -7 -10 -15z m1520 -1455 l0 -820 -685 0 -685 0 0 820 0
820 685 0 685 0 0 -820z"/>
<path d="M21200 15335 c0 -12 -14 -15 -65 -15 -51 0 -65 -3 -65 -15 0 -11 -11
-15 -40 -15 -29 0 -40 -4 -40 -15 0 -9 -9 -15 -25 -15 -16 0 -25 -6 -25 -15 0
-9 -9 -15 -25 -15 -16 0 -25 -6 -25 -15 0 -8 -4 -15 -10 -15 -5 0 -10 -7 -10
-15 0 -8 -7 -15 -15 -15 -8 0 -15 -7 -15 -15 0 -8 -7 -15 -15 -15 -9 0 -15
-10 -15 -26 0 -26 -20 -54 -39 -54 -6 0 -11 -20 -11 -45 0 -25 -4 -45 -10 -45
-6 0 -10 -27 -10 -60 0 -47 -3 -60 -15 -60 -13 0 -15 -257 -15 -2255 0 -1998
2 -2255 15 -2255 12 0 15 -13 15 -60 0 -33 4 -60 10 -60 6 0 10 -13 10 -30 0
-20 5 -30 15 -30 10 0 15 -10 15 -30 0 -16 5 -30 10 -30 6 0 10 -7 10 -15 0
-8 7 -15 15 -15 8 0 15 -7 15 -15 0 -8 7 -15 15 -15 8 0 15 -7 15 -15 0 -8 5
-15 10 -15 6 0 10 -7 10 -15 0 -8 7 -15 15 -15 8 0 15 -7 15 -15 0 -9 9 -15
25 -15 14 0 25 -4 25 -10 0 -5 16 -10 35 -10 24 0 35 -5 35 -15 0 -11 11 -15
40 -15 29 0 40 -4 40 -15 0 -13 108 -15 915 -15 807 0 915 2 915 15 0 11 12
15 50 15 38 0 50 4 50 15 0 9 9 15 25 15 14 0 25 5 25 10 0 6 11 10 25 10 16
0 25 6 25 15 0 9 9 15 25 15 16 0 25 6 25 15 0 8 7 15 15 15 8 0 15 7 15 15 0
8 5 15 10 15 6 0 10 7 10 15 0 8 7 15 15 15 10 0 15 10 15 30 0 17 5 30 10 30
6 0 10 14 10 30 0 20 5 30 15 30 11 0 15 12 15 45 0 25 5 45 10 45 7 0 10 192
10 555 0 487 2 555 15 555 11 0 15 12 15 45 0 33 -4 45 -15 45 -8 0 -15 7 -15
15 0 13 -41 15 -305 15 -264 0 -305 -2 -305 -15 0 -8 -4 -15 -10 -15 -5 0 -10
-13 -10 -30 0 -16 5 -30 10 -30 6 0 10 -7 10 -15 0 -8 -4 -15 -10 -15 -6 0
-10 -123 -10 -350 0 -227 4 -350 10 -350 6 0 10 -37 10 -90 0 -53 -4 -90 -10
-90 -5 0 -10 -7 -10 -15 0 -11 -11 -15 -40 -15 -29 0 -40 4 -40 15 0 13 -76
15 -620 15 -544 0 -620 -2 -620 -15 0 -9 -9 -15 -25 -15 l-25 0 0 1000 0 1000
915 0 c807 0 915 2 915 15 0 8 5 15 10 15 6 0 10 11 10 25 0 16 6 25 15 25 8
0 15 7 15 15 0 8 5 15 10 15 6 0 10 7 10 15 0 8 7 15 15 15 8 0 15 7 15 15 0
8 5 15 10 15 6 0 10 7 10 15 0 8 7 15 15 15 8 0 15 7 15 15 0 8 5 15 10 15 6
0 10 7 10 15 0 8 7 15 15 15 8 0 15 7 15 15 0 8 -7 15 -15 15 -13 0 -15 112
-15 950 0 838 2 950 15 950 10 0 15 10 15 30 0 20 -5 30 -15 30 -12 0 -15 18
-15 105 0 63 -4 105 -10 105 -5 0 -10 20 -10 45 0 33 -4 45 -15 45 -9 0 -15 9
-15 25 0 14 -4 25 -10 25 -5 0 -10 7 -10 15 0 8 -7 15 -15 15 -8 0 -15 7 -15
15 0 8 -4 15 -10 15 -5 0 -10 7 -10 15 0 8 -7 15 -15 15 -8 0 -15 7 -15 15 0
8 -4 15 -10 15 -5 0 -10 7 -10 15 0 8 -7 15 -15 15 -8 0 -15 7 -15 15 0 9 -9
15 -25 15 -16 0 -25 6 -25 15 0 11 -11 15 -40 15 -29 0 -40 4 -40 15 0 12 -15
15 -75 15 -60 0 -75 3 -75 15 0 8 -4 15 -10 15 -5 0 -10 -7 -10 -15 0 -8 -7
-15 -15 -15 -8 0 -15 7 -15 15 0 13 -97 15 -810 15 -713 0 -810 -2 -810 -15z
m1540 -650 c0 -8 -4 -15 -10 -15 -7 0 -10 -245 -10 -715 0 -470 3 -715 10
-715 6 0 10 -7 10 -15 0 -8 -4 -15 -10 -15 -5 0 -10 -13 -10 -30 0 -16 5 -30
10 -30 6 0 10 -13 10 -30 0 -16 -4 -30 -10 -30 -5 0 -10 -7 -10 -15 0 -13 -83
-15 -685 -15 l-685 0 0 820 0 820 695 0 c611 0 695 -2 695 -15z"/>
</g>
</svg>
