<svg id="Layer_1" data-name="Layer 1" xmlns="http://www.w3.org/2000/svg" xmlns:xlink="http://www.w3.org/1999/xlink" viewBox="0 0 735 852"><defs><style>.cls-1{fill:none;}.cls-2{clip-path:url(#clip-path);}.cls-3{fill:#f9ecc6;}.cls-4{clip-path:url(#clip-path-2);}.cls-5{fill:#428bca;}.cls-6{opacity:0.25;fill:url(#linear-gradient);}.cls-7{fill:#3674a8;}.cls-8{fill:#e6b35a;}.cls-10,.cls-9{fill:#fff;}.cls-10{opacity:0.9;}</style><clipPath id="clip-path"><polygon class="cls-1" points="-434.3 9.2 -75.6 216.3 -75.6 638.4 -434.3 846.8 -801 638.4 -801 216.3 -434.3 9.2"/></clipPath><clipPath id="clip-path-2"><polygon class="cls-1" points="369.5 7.4 728.2 214.5 728.2 636.6 369.5 845 2.8 636.6 2.8 214.5 369.5 7.4"/></clipPath><linearGradient id="linear-gradient" x1="366.25" y1="-122.39" x2="367.55" y2="341.13" gradientUnits="userSpaceOnUse"><stop offset="0" stop-color="#fff" stop-opacity="0.83"/><stop offset="0.56" stop-color="#fff" stop-opacity="0.37"/><stop offset="1" stop-color="#fff" stop-opacity="0"/></linearGradient></defs><title>RStudio_Hex 2016 v7 outlines</title><g class="cls-2"><circle class="cls-3" cx="-438.3" cy="439.2" r="442.1"/></g><g class="cls-4"><circle class="cls-5" cx="365.5" cy="437.4" r="442.1"/><ellipse class="cls-6" cx="366.9" cy="105.8" rx="315.2" ry="234.6"/></g><path class="cls-7" d="M705.6,196.2L427.8,35.8,367.5,1,307.2,35.8,29.4,196.2,0.1,213.1V637.4l29.3,16.9L310.6,816.7l56.9,32.8,56.9-32.8L705.6,654.3l29.3-16.9V213.1Zm0,425.3L367.5,816.7,29.4,621.5V231L367.5,35.8h0L705.6,231V621.5Z"/><path class="cls-8" d="M367,633.9l0.9-.9h-0.3Z"/><path class="cls-9" d="M365.5,797.3l4.5,4.5,2.7,2.9h0.1c-0.4-1.2-.7-2.5-1-3.9l-1.4-6.3,1.6-.9,4.7,4.3,2.9,2.9h0.1a36.6,36.6,0,0,1-1.2-3.9l-1.6-6.1,1.9-1.1,2.7,12.4-1.7,1-4.5-4.1a40.7,40.7,0,0,1-2.9-2.9h0a35.6,35.6,0,0,1,1.1,4l1.2,5.9-1.7,1-9.2-8.6Z"/><path class="cls-9" d="M381.7,787.9l4.5,4.5,2.7,2.9h0.1c-0.4-1.2-.7-2.5-1-3.9l-1.4-6.3,1.6-.9,4.7,4.3,2.9,2.9h0.1a36.3,36.3,0,0,1-1.2-3.9l-1.6-6.1,1.9-1.1,2.7,12.4-1.7,1-4.5-4.1a40.5,40.5,0,0,1-2.9-2.9h0a35.3,35.3,0,0,1,1.1,4l1.2,5.9-1.7,1-9.2-8.6Z"/><path class="cls-9" d="M397.8,778.5l4.5,4.5,2.7,2.9h0.1c-0.4-1.2-.7-2.5-1-3.9l-1.4-6.3,1.6-.9L409,779l2.9,2.9H412a36.4,36.4,0,0,1-1.2-3.9l-1.6-6.1,1.9-1.1,2.7,12.4-1.7,1-4.5-4.1a40.7,40.7,0,0,1-2.9-2.9h0a35.2,35.2,0,0,1,1.1,4l1.2,5.9-1.7,1-9.2-8.6Z"/><path class="cls-9" d="M419.2,780.4a1.6,1.6,0,1,1,.5-2.1,1.5,1.5,0,0,1-.5,2.1h0Z"/><path class="cls-9" d="M418.5,770.8l-2-3.2,1.7-1,1.3,2h0.1a3.6,3.6,0,0,1,1.6-4l0.6-.2,1,1.8-0.7.3a3.1,3.1,0,0,0-1.1,3.9l0.4,0.9,3.2,5.6-1.9,1.1Z"/><path class="cls-9" d="M428.4,772.1a5.8,5.8,0,0,0,2.9-.7c1.4-.8,1.6-1.9,1.1-2.7s-1.4-1.1-3.1-.8-3.8-.1-4.5-1.4-0.4-3.9,1.8-5.2a6,6,0,0,1,2.9-.8l0.3,1.7a4.7,4.7,0,0,0-2.5.6,1.8,1.8,0,0,0-.9,2.4c0.5,0.9,1.4.9,3,.6s3.7,0,4.6,1.6,0.4,4-2.1,5.4a6.9,6.9,0,0,1-3.4,1Z"/><path class="cls-9" d="M433.1,754.6l1.5,2.5,2.7-1.6,0.8,1.4-2.7,1.6,3.3,5.6c0.8,1.3,1.6,1.8,2.6,1.2l1-.8,0.9,1.4a5.3,5.3,0,0,1-1.5,1.3,3.1,3.1,0,0,1-2.5.4,4.5,4.5,0,0,1-2.3-2.3l-3.3-5.7-1.6.9-0.8-1.4,1.6-.9-1.1-1.9Z"/><path class="cls-9" d="M452.6,756.8l1.7,2.8-1.7,1-1.1-1.6h0a4.6,4.6,0,0,1-2.3,4c-1.6,1-4.1,1.2-6.3-2.5l-3.6-6.1,1.9-1.1,3.4,5.8c1.2,2,2.5,3,4.3,2a3.2,3.2,0,0,0,1.5-3.2,3.2,3.2,0,0,0-.4-1.1l-3.7-6.4,1.9-1.1Z"/><path class="cls-9" d="M457.5,737.2l7.4,12.6,1.7,2.7-1.7,1-1.1-1.8h0a4.5,4.5,0,0,1-2.4,4.1c-2.5,1.5-5.7.5-7.6-2.7s-1.1-6.9,1.4-8.3a4,4,0,0,1,4.1-.2h0l-3.6-6.2Zm3.4,10.2-0.6-.7a3.2,3.2,0,0,0-4-.6c-2,1.1-2.1,3.6-.8,5.9s3.3,3.3,5.3,2.1a3.3,3.3,0,0,0,1.5-3.9,3.8,3.8,0,0,0-.4-0.9Z"/><path class="cls-9" d="M463.9,736.1a1.4,1.4,0,0,1-2.4,1.4,1.3,1.3,0,0,1,.5-1.9A1.3,1.3,0,0,1,463.9,736.1Zm5.7,14.6-6.1-10.5,1.9-1.1,6.1,10.5Z"/><path class="cls-9" d="M481,736.9c2.3,3.9.6,7.1-2,8.6s-6.2.8-8.1-2.5-0.9-6.9,2-8.6S479.1,733.7,481,736.9Zm-8.2,4.9c1.3,2.3,3.7,3.2,5.5,2.2s2.2-3.6.8-5.9-3.2-3.5-5.5-2.2S471.6,739.9,472.8,741.9Z"/><path class="cls-9" d="M486.9,740.9a1.6,1.6,0,1,1,.5-2.1,1.5,1.5,0,0,1-.5,2.1h0Z"/><path class="cls-9" d="M497.7,733.8a8,8,0,0,1-2.6,2.4c-3.2,1.8-6.5.9-8.3-2.3a6.1,6.1,0,0,1,2.4-8.8,7.3,7.3,0,0,1,2.9-1l0.4,1.7a5.1,5.1,0,0,0-2.5.8c-2.4,1.4-2.7,3.9-1.4,6.1s3.8,3,5.9,1.8a6.2,6.2,0,0,0,2-1.9Z"/><path class="cls-9" d="M506.4,722.2c2.3,3.9.6,7.1-2,8.6s-6.2.8-8.1-2.5-0.9-6.9,2-8.6S504.5,719,506.4,722.2Zm-8.2,4.9c1.3,2.3,3.7,3.2,5.5,2.2s2.2-3.6.8-5.9-3.2-3.5-5.5-2.2S497,725.1,498.1,727.1Z"/><path class="cls-9" d="M507.4,718.5l-1.7-2.8,1.7-1,1.1,1.6h0.1a4.2,4.2,0,0,1,2.2-3.8,3.6,3.6,0,0,1,4.2.4h0a5,5,0,0,1,.4-2,4.1,4.1,0,0,1,1.9-2.1c1.4-.8,4-1.1,6.1,2.5l3.6,6.2-1.9,1.1-3.4-5.9c-1.2-2-2.6-2.8-4.1-1.9a2.8,2.8,0,0,0-1.2,3,3.6,3.6,0,0,0,.4,1l3.8,6.5-1.9,1.1-3.6-6.3c-1-1.7-2.4-2.4-3.9-1.6a3,3,0,0,0-1.2,3.3,3.1,3.1,0,0,0,.4,1l3.7,6.3-1.9,1.1Z"/><path class="cls-10" d="M123.2,458h0Zm-0.1,0h0Zm0.9,0c34.9,0.8,71.4-7.3,82-48.8,6.9-26.8-10.3-46.3-25.5-65.9l-0.2-.4c-0.6-2.5-17.1-17.7-21.7-23.4l-0.2-.2c-2.2-1.6-4.5-9.7-5.6-14.2a13.1,13.1,0,0,1-.1-5.7c4-20.4,6.2-35.3,33.3-30.9,19.5,3.2,9.4,31.8,19.8,34.6H206c6.3,0.6,18.6-14.5,20.4-19.6,7-19.8-33.4-31.9-45.7-31.1-24.7,1.5-40.9,14.9-50.8,37-18.2,40.7,15.8,67.8,36.4,95.7,15.6,21.1,14.9,39.9-4.3,58-21,19.9-45.4-7.5-48.2-26.8-2.5-17.7-2.3-30-17.1-7.5C83.2,429.7,97.3,456.9,124,458Zm549.5-96.6a1.2,1.2,0,0,1,0,.2,47.3,47.3,0,0,1-2.8,12.6,99.7,99.7,0,0,1-9.9,19.5c-4.9,7.5-7.5,10.5-12.6,17.1-9.6,12.5-17,21.8-28.2,33.7-15.6,16.5-33,35.4-52,48.9-27.2,19.3-61.3,24.7-93.7,27.7-94.8,8.6-234.3,21.4-263.7,124a1.1,1.1,0,0,1-1.9.2c-28.8-49.2-90.6-85.3-148.1-83.6a1,1,0,0,1-.5-2c147.8-73.4,298.8-38.2,458.4-66.7,39.9-7.1,73.4-33.3,97.5-64.8,9.2-11.9,21-22,29.1-34.7,1.3-2.1,8-18.8-2.4-11.7-16.1,10.9-29.7,24.4-47.2,32.9l-2.6,1.1a1.1,1.1,0,0,0-.6.7,101.2,101.2,0,0,1-10.5,23.4,67.4,67.4,0,0,1-20.8,20.7,55.5,55.5,0,0,1-26.2,8.9h-3.8c-7.4,0-12.2-.6-17.9-3.6-7.3-3.8-9.6-10-10.1-17.5-0.3-4.5,2.5-9.4,4.8-13.1s6-7.8,8.6-8.9h0.2c13-9.6,35.1-10.3,50.1-14.3a1,1,0,0,0,.7-0.7l7.5-27.5a1.1,1.1,0,0,0-1.9-.9,144.2,144.2,0,0,1-12.5,15.9c-5.9,6.3-10.5,10-14,11.4a39.5,39.5,0,0,1-12.4,2.6c-5.1.3-9.3-1.7-12.6-5.9s-5.1-10.4-5.5-18.6c-0.1-1.3-.1-2.8-0.1-4.3a1.1,1.1,0,0,0-2-.5q-2.5,4.6-4.8,8.6A107.5,107.5,0,0,1,492,414.4c-6.6,6.6-13,10.1-18.9,10.5-11.1.7-17.1-5.6-17.9-18.8s4.3-38.5,15-77.1a13.6,13.6,0,0,0,.7-5.2c-0.2-3.5-2.2-4.9-6.3-4.6a22.7,22.7,0,0,0-12.8,5.4,46.3,46.3,0,0,0-11.2,14.1,199.4,199.4,0,0,0-8.9,18.5,155.6,155.6,0,0,0-6.9,21.4c-2.1,8.1-3.7,14.8-4.8,20.2s-2.3,11.3-3.4,17.3c-0.8,4.2-1.7,9.4-1.9,10.2l-0.2.8-27.5,1.8v-1c-0.2-2.4,1.8-10.9,5.8-25.8l-2.4,4.2a107.6,107.6,0,0,1-17.2,22.4c-6.6,6.6-13,10.1-18.9,10.5h-1.2c-9.7,0-15.2-7.6-16.1-22.6q-0.3-4.5-.2-9.1a1,1,0,0,0-2-.5c-15.1,27.7-28.7,41.7-41.3,42.5-11.1.7-17.1-5.9-18-19.7-1-15.3,3.2-37.7,12.5-66.5,2-7.1,2.9-12,2.7-14.6s-2.1-4.5-3.6-4.5h-0.4c-1.3.1-4.1,0.9-10,4.6a52,52,0,0,0-13.4,12.5,71.1,71.1,0,0,0-10.2,18.5c-2.6,7-4.7,13.1-6.2,18.2s-3,11.4-4.5,18.6-2.8,13.4-4,18-2.4,9.9-3.6,16l-0.2.8-26.4,1.7a1.1,1.1,0,0,1-1.1-1.3h0c3.9-13.5,9.4-35.4,16.4-65S237,333,242.2,315.9a383.2,383.2,0,0,1,16-43.5A118.2,118.2,0,0,1,277.4,242c7.5-8.4,15.8-12.9,24.8-13.5s14.4,4,15.1,13.7c0.4,6.5-1.5,15.3-5.6,26.1-7.5,19.3-20.1,41.8-37.3,66.8a1,1,0,0,0,1.5,1.4,64.6,64.6,0,0,1,9.6-6.1,42.8,42.8,0,0,1,16.2-4.6c10.7-.7,16.4,4.2,17.1,14.5a31.5,31.5,0,0,1-1.2,11.2q-1.5,5-3.4,11.5l-3,10.7c-0.8,2.8-1.8,6.5-3.1,11.2s-2.3,8.8-2.9,12c-1.7,8.1-2.5,14.6-2.2,19.3s2.8,6,3.6,6h0.3c10.1-.6,22-18.2,35.5-52.2l0.2-.5a233.5,233.5,0,0,1,11.7-32.8c5.6-12.3,12.4-18.8,20.4-19.3l15.9-.8a1.1,1.1,0,0,1,.8,1.8h-0.1c-2.5,2.4-5.8,8.8-9.8,19.1s-7.1,18.7-9,23.8-4.1,12.5-6.4,21.5-3.3,16.2-2.9,21.6c0.5,7.1,3.2,7.1,4.1,7.1h0.3c1.4-.1,4-1.1,8.7-5.4a53.2,53.2,0,0,0,9.3-11.1c2.4-3.8,5-8.8,7.9-14.8l7.5-15.6c2.3-4.7,3.2-6.3,3.8-6.9l1.3-2.4c4.9-19.8,7.2-33.7,6.7-41.4a8.4,8.4,0,0,0-.9-3.8h0a1.1,1.1,0,0,1,.8-1.6l11.1-.7c6.5-.4,10.6.1,12.7,1.4a7.6,7.6,0,0,1,3.5,6.1,37.3,37.3,0,0,1-.7,7.3,1.1,1.1,0,0,0,1.8.9c12.5-13,25.5-20,38.9-20.8,10.7-.7,16.5,4.4,17.1,15.1a39.4,39.4,0,0,1-.7,10.2c-0.7,3.4-2.4,10-5.4,20.2-6.3,21.9-9.3,36.6-8.8,43.8,0.3,5.1,2.3,5.7,3.8,5.7h0.3c1.4-.1,4-1.1,8.7-5.5a60.7,60.7,0,0,0,9.5-11.3,161,161,0,0,0,8-14.6c2.9-5.8,5.3-11,7.4-15.4l1.8-3.8v-0.2c2.9-12.2,6.3-22.3,10.2-30.1s9.6-15.3,15-18.3,12.8-4.7,22.3-5.3h0a2.1,2.1,0,0,1,2.3,2.2c0.1,1.1-.5,2.3-1.7,3.8-6.7,7.3-13.2,20.2-19.5,38.4s-9,33.5-8.3,45.7c0.4,5.6,1.8,8.5,4.2,8.5h0.2c5.9-.4,13.4-7.7,22.1-21.8a187.4,187.4,0,0,0,19.9-42.8l2.5-8.6,2.3-7.7c0.5-1.5,1.2-3.4,2.2-5.9a19.1,19.1,0,0,1,2.9-5.4l3.4-3.6a12,12,0,0,1,4.9-3.2,66.5,66.5,0,0,1,14.4-2.7l11.1-.7a1.1,1.1,0,0,1,.7,1.9l-0.2.2c-5,3.9-9.9,13.2-14.5,27.7-3.8,12.3-7,23.7-9.5,33.8l-4.7,18.5c-0.6,2.2-1.9,7.6-3.9,15.8-1.5,6.2-2.8,11.3-3.9,15.4a1,1,0,0,0,1.6,1.2,165.1,165.1,0,0,0,30-23.2c5.1-5.1,43.8-48.1,45.6-20.8v1.8ZM303.2,237.8c-3.9.3-10.8,6.2-21.2,33-7.2,18.6-14.2,39.6-20.9,62.8a1.1,1.1,0,0,0,1.9.9c18-27.5,30.5-50.4,37.1-68.3,4.1-12.3,6-20.3,5.8-23.9s-1.9-4.4-2.5-4.4h-0.2ZM562.9,426.3a1.1,1.1,0,0,0-1.2-1.4c-5.4,1.1-10.8,2-16.1,3.3-7.5,1.8-18.9,3.6-24.7,9.9l-0.2.3c-1,2.2-1.2,5.7-1,10.1s3.2,5.9,5.8,8.1a11.7,11.7,0,0,0,8.5,2.5C545.8,458.3,555.5,447.3,562.9,426.3ZM384.1,297.6h0.1c6.4-.3,14.3-2.7,16.2-12.2,0.9-4.3-1.7-9.2-3.3-10.6s-3.8-2-6.7-1.8-6.4,2-9.7,5.1-4.3,10-2.8,13.9S381.5,297.5,384.1,297.6Z"/></svg>