<?xml version="1.0" encoding="UTF-8" standalone="no"?>
<svg
   xmlns:dc="http://purl.org/dc/elements/1.1/"
   xmlns:cc="http://creativecommons.org/ns#"
   xmlns:rdf="http://www.w3.org/1999/02/22-rdf-syntax-ns#"
   xmlns:svg="http://www.w3.org/2000/svg"
   xmlns="http://www.w3.org/2000/svg"
   width="181"
   height="209"
   viewBox="0 0 181 209"
   id="svg4338"
   version="1.1">
  <defs
     id="defs4340" />
  <metadata
     id="metadata4343">
    <rdf:RDF>
      <cc:Work
         rdf:about="">
        <dc:format>image/svg+xml</dc:format>
        <dc:type
           rdf:resource="http://purl.org/dc/dcmitype/StillImage" />
        <dc:title></dc:title>
      </cc:Work>
    </rdf:RDF>
  </metadata>
  <g
     id="layer1"
     transform="matrix(1.1942904,0,0,1.1942857,-589.62569,-507.76728)">
    <g
       transform="matrix(2.734375,0,0,2.734375,-255.1315,-843.05261)"
       id="g4292">
      <path
         d="m 329.28538,511.80493 -27.71281,16 -27.71281,-16 0,-32 27.71281,-16 27.71281,16 z"
         id="path6283"
         style="opacity:1;fill:#ffb216;fill-opacity:1;stroke:none;stroke-width:5;stroke-linecap:butt;stroke-linejoin:miter;stroke-miterlimit:4;stroke-dasharray:none;stroke-dashoffset:0;stroke-opacity:1" />
      <path
         id="path6285"
         d="m 306.38867,474.76172 c -1.09425,0.0186 -2.12047,0.33571 -2.98437,0.82031 -3.26999,1.83393 -5.63008,6.75691 -4.54297,11.66406 -0.32982,0.14269 -0.64086,0.29757 -0.92578,0.46289 -0.30466,0.17573 -0.58758,0.37258 -0.86133,0.58399 -3.7611,-3.37978 -9.51881,-3.62732 -13.03906,-1.54297 -3.10415,1.83927 -4.15167,5.17691 -2.73633,8.71094 0.38917,0.96977 1.49188,1.44156 2.46289,1.05273 0.97135,-0.39005 1.44034,-1.49222 1.05273,-2.46289 -0.73525,-1.82733 -0.35494,-3.14921 1.15235,-4.04101 2.29569,-1.35972 6.31228,-1.03241 8.72461,1.27148 -0.27354,0.57091 -0.50414,1.18739 -0.6836,1.85547 -0.78609,2.9271 -0.47586,6.13676 -0.28906,8.05469 l 0.0371,0.40234 c 0.16064,1.72797 0.37073,3.39456 0.625,5.00781 -2.00686,3.52073 -3.82021,7.39509 -4.79883,11.03906 -0.27207,1.01305 -0.45875,1.97464 -0.58984,2.9004 l 3.59961,2.07812 c 0.0401,-1.18613 0.24997,-2.51427 0.64843,-3.99805 0.53466,-1.99083 1.35573,-4.07773 2.33008,-6.13867 2.03957,-4.30925 4.75206,-8.48817 6.93164,-11.37695 l 0.0859,-0.0508 c 0.42381,1.74109 0.9277,4.00131 1.37891,6.49219 0.31077,1.70942 0.59299,3.5257 0.80664,5.36328 0.28043,2.39663 0.43312,4.81756 0.375,7.06836 -0.04,1.52116 -0.18281,2.95734 -0.45313,4.25586 -0.0606,0.2935 -0.11878,0.59505 -0.19336,0.87304 -0.12219,0.45497 -0.26198,0.86088 -0.41211,1.24414 l 4.54102,-2.62109 c 0.26735,-1.8445 0.34757,-3.85607 0.29297,-5.92969 l 9.69336,-5.58789 c 1.76094,1.0741 3.54303,2.00788 5.28515,2.69922 l 4.53321,-2.61719 c -0.80224,-0.1086 -1.65171,-0.3209 -2.54493,-0.64258 -1.1241,-0.4038 -2.2997,-0.94402 -3.51171,-1.60937 -1.93963,-1.06595 -3.95056,-2.41562 -5.91211,-3.87695 -1.46032,-1.08886 -2.88881,-2.23445 -4.24219,-3.38086 -1.82836,-1.5484 -3.51608,-3.08553 -4.93164,-4.44336 l 0.125,-0.0723 c 3.75571,-0.4644 8.7525,-0.6637 13.44922,-0.25195 3.09177,0.27108 6.03794,0.81499 8.41797,1.71875 l 0,-4.00586 c -3.83571,-1.20653 -8.39184,-1.66505 -12.69141,-1.71289 -1.5719,-1.34493 -3.28318,-2.69709 -5.16016,-4.05469 -3.52415,-2.54889 -6.46504,-3.42835 -8.83984,-3.45312 -0.76082,-3.22622 0.66387,-6.49933 2.66797,-7.625 1.28202,-0.71962 2.54039,-0.31004 3.73828,1.2207 0.64556,0.82296 1.83751,0.96657 2.66016,0.32226 0.33498,-0.26423 0.55766,-0.61647 0.66015,-0.99804 0.14932,-0.55594 0.0448,-1.17183 -0.33789,-1.66016 -1.75768,-2.23984 -3.77,-3.03887 -5.59375,-3.00781 z m -3.53125,15.53516 c 1.85038,0.10204 3.97571,1.01305 6.35352,2.73242 0.53281,0.3862 1.04804,0.77041 1.55273,1.15429 -3.06652,0.20515 -5.66333,0.56246 -7.28125,0.89258 -0.36561,-0.003 -0.72028,0.0981 -1.0293,0.29492 -0.32474,0.16774 -0.59047,0.42939 -0.77148,0.74805 -1.12164,1.25157 -2.58286,3.1278 -4.12695,5.39258 -0.009,-0.0911 -0.0216,-0.18039 -0.0293,-0.27149 l -0.0391,-0.41601 c -0.16127,-1.66275 -0.43026,-4.44312 0.17773,-6.70703 0.40206,-1.49706 1.10931,-2.52076 2.16406,-3.12891 0.90807,-0.52319 1.91908,-0.75263 3.0293,-0.6914 z m 5.86914,14.5039 c 1.2789,1.11723 2.68194,2.28326 4.16211,3.42969 l -4.55859,2.62695 c -0.25221,-1.85445 -0.55799,-3.65599 -0.88086,-5.32031 l 1.27734,-0.73633 z"
         style="opacity:1;fill:#101314;fill-opacity:1;stroke:none;stroke-width:1;stroke-linejoin:round;stroke-miterlimit:4;stroke-dasharray:none;stroke-dashoffset:0;stroke-opacity:1" />
    </g>
  </g>
</svg>
