<?xml version="1.0" encoding="UTF-8" standalone="no"?>
<svg
   xmlns:dc="http://purl.org/dc/elements/1.1/"
   xmlns:cc="http://creativecommons.org/ns#"
   xmlns:rdf="http://www.w3.org/1999/02/22-rdf-syntax-ns#"
   xmlns:svg="http://www.w3.org/2000/svg"
   xmlns="http://www.w3.org/2000/svg"
   width="43.994209mm"
   height="50.799999mm"
   viewBox="0 0 43.994209 50.799999"
   version="1.1"
   id="svg1015">
  <defs
     id="defs1009" />
  <metadata
     id="metadata1012">
    <rdf:RDF>
      <cc:Work
         rdf:about="">
        <dc:format>image/svg+xml</dc:format>
        <dc:type
           rdf:resource="http://purl.org/dc/dcmitype/StillImage" />
        <dc:title></dc:title>
      </cc:Work>
    </rdf:RDF>
  </metadata>
  <g
     id="g888">
    <g
       id="g871">
      <path
         id="path11286"
         style="fill:#ffffff;fill-opacity:1;fill-rule:nonzero;stroke:none;stroke-width:0.35277778"
         d="M 0.70555415,13.107632 V 37.692717 L 21.997104,49.985258 43.288656,37.692717 V 13.107632 L 21.997104,0.81473841 Z" />
      <path
         d="M 21.99746,-2e-6 0,12.699998 v 25.4 l 21.99746,12.7 21.99675,-12.7 v -25.4 z M 1.76424,37.081881 V 13.718467 L 21.99746,2.036584 42.23032,13.718467 V 37.081881 L 21.99746,48.763413 Z"
         style="fill:#ef2e32;fill-opacity:1;fill-rule:nonzero;stroke:none;stroke-width:0.35277775"
         id="path850" />
    </g>
    <g
       id="g862">
      <path
         d="m 6.1440876,34.483565 c 0.3390194,0.301273 1.0643306,0.602544 1.6009056,0.602544 0.4335637,0 0.6120694,-0.141111 0.6120694,-0.338667 0,-0.235654 -0.3104446,-0.320321 -0.7814027,-0.395817 -0.7722306,-0.131937 -1.8647833,-0.291745 -1.8647833,-1.450268 0,-0.800452 0.6875637,-1.49719 1.94945,-1.49719 0.763058,0 1.4128747,0.244829 1.9021776,0.602546 l -0.555625,0.960612 C 8.7338292,32.7038 8.2159513,32.468498 7.6698516,32.468498 c -0.3390196,0 -0.574675,0.11289 -0.574675,0.310444 0,0.207081 0.2451804,0.282575 0.725311,0.367242 0.7718777,0.131939 1.920875,0.320323 1.920875,1.525764 0,0.866423 -0.7627057,1.506715 -2.071511,1.506715 -0.809978,0 -1.648178,-0.27305 -2.1283083,-0.696738 z"
         style="fill:#ef2e32;fill-opacity:1;fill-rule:nonzero;stroke:none;stroke-width:0.35277775"
         id="path862" />
      <path
         d="m 12.42519,32.684859 c -0.310798,0 -0.687211,0.169333 -0.866423,0.41416 v 1.384654 c 0.179212,0.235302 0.555625,0.414161 0.866423,0.414161 0.56515,0 0.998361,-0.423686 0.998361,-1.11125 0,-0.67804 -0.433211,-1.101725 -0.998361,-1.101725 m -2.316692,5.113514 v -6.281208 h 1.450269 v 0.527402 c 0.35807,-0.43321 0.829028,-0.640292 1.346553,-0.640292 1.139825,0 1.996722,0.847373 1.996722,2.382309 0,1.54446 -0.856897,2.392185 -1.996722,2.392185 -0.508353,0 -0.969786,-0.197908 -1.346553,-0.649817 v 2.269421 z"
         style="fill:#ef2e32;fill-opacity:1;fill-rule:nonzero;stroke:none;stroke-width:0.35277775"
         id="path866" />
      <path
         d="m 18.15991,34.492844 c -0.150636,-0.207082 -0.489656,-0.319969 -0.809978,-0.319969 -0.385939,0 -0.725311,0.169334 -0.725311,0.52705 0,0.358069 0.339372,0.527754 0.725311,0.527754 0.320322,0 0.659342,-0.113242 0.809978,-0.329845 z m 0,1.120775 c -0.282575,0.339018 -0.828675,0.56515 -1.412522,0.56515 -0.696736,0 -1.563511,-0.470958 -1.563511,-1.497542 0,-1.101725 0.866775,-1.431218 1.563511,-1.431218 0.602544,0 1.139472,0.188029 1.412522,0.527402 v -0.574675 c 0,-0.395465 -0.339019,-0.65899 -0.922867,-0.65899 -0.451908,0 -0.922866,0.169333 -1.290108,0.480131 l -0.517878,-0.913341 c 0.583848,-0.499182 1.365603,-0.706261 2.061986,-0.706261 1.092553,0 2.119136,0.404988 2.119136,1.817159 v 2.844093 H 18.15991 Z"
         style="fill:#ef2e32;fill-opacity:1;fill-rule:nonzero;stroke:none;stroke-width:0.35277775"
         id="path870" />
      <path
         d="m 20.099482,31.517163 h 1.450269 v 0.574323 c 0.301625,-0.367242 0.875948,-0.687213 1.4224,-0.687213 v 1.402998 c -0.08502,-0.02822 -0.207433,-0.04727 -0.358069,-0.04727 -0.376767,0 -0.875594,0.160515 -1.064331,0.42404 v 2.881841 h -1.450269 z"
         style="fill:#ef2e32;fill-opacity:1;fill-rule:nonzero;stroke:none;stroke-width:0.35277775"
         id="path874" />
      <path
         d="m 25.326026,34.455307 -0.433564,0.517877 v 1.092555 h -1.449917 v -6.281208 h 1.449917 v 3.550002 l 1.384653,-1.817511 h 1.75154 l -1.676399,2.071862 1.761066,2.476855 h -1.789288 z"
         style="fill:#ef2e32;fill-opacity:1;fill-rule:nonzero;stroke:none;stroke-width:0.35277775"
         id="path878" />
      <path
         d="m 30.712448,34.897831 c 0.574323,0 1.007182,-0.423685 1.007182,-1.11125 0,-0.67804 -0.432859,-1.101725 -1.007182,-1.101725 -0.31115,0 -0.687565,0.169685 -0.866423,0.41416 v 1.393825 c 0.178858,0.24483 0.555273,0.40499 0.866423,0.40499 m -2.316691,-5.113515 h 1.450268 v 2.269422 c 0.357717,-0.451909 0.847373,-0.649465 1.346555,-0.649465 1.129945,0 2.005893,0.894291 2.005893,2.382308 0,1.54446 -0.885118,2.392185 -2.005893,2.392185 -0.508355,0 -0.97014,-0.207433 -1.346555,-0.640643 v 0.527756 h -1.450268 z"
         style="fill:#f68712;fill-opacity:1;fill-rule:nonzero;stroke:none;stroke-width:0.35277775"
         id="path882" />
      <path
         d="m 37.012143,33.099125 c -0.17921,-0.244827 -0.565502,-0.41416 -0.866775,-0.41416 -0.564798,0 -0.998008,0.423685 -0.998008,1.101725 0,0.68721 0.43321,1.11125 0.998008,1.11125 0.301273,0 0.687565,-0.178859 0.866775,-0.414515 z m 0,4.699352 v -2.269771 c -0.376767,0.451909 -0.8382,0.649817 -1.346552,0.649817 -1.148998,0 -2.006248,-0.847373 -2.006248,-2.391833 0,-1.534938 0.85725,-2.382663 2.006248,-2.382663 0.517525,0 0.988483,0.207433 1.346552,0.640291 v -0.52705 h 1.440743 v 6.281209 z"
         style="fill:#f68712;fill-opacity:1;fill-rule:nonzero;stroke:none;stroke-width:0.35277775"
         id="path886" />
    </g>
    <g
       id="g867">
      <path
         d="m 14.536,22.048149 c 0.588081,5.283554 6.06037,7.017808 9.966678,7.017808 4.49721,0 7.521926,-3.133724 1.890183,-9.108721 -3.573991,-3.792714 -8.319911,-6.009217 -3.36303,-12.4230696 -4.09575,1.4880166 -5.788025,6.1623216 -3.339747,10.5325326 2.265186,4.042834 6.811433,6.762397 5.293077,8.402462 -0.356305,0.384879 -1.135239,0.581025 -2.118078,0.581025 -2.8194,0 -7.316963,-1.612901 -8.329083,-5.002037"
         style="fill:#ef2e32;fill-opacity:1;fill-rule:nonzero;stroke:none;stroke-width:0.35277775"
         id="path890" />
      <path
         d="m 18.245353,25.389025 c 1.408641,0.72637 3.107619,1.162051 4.5593,1.173693 -1.772003,-0.947915 -3.852686,-2.940051 -5.511095,-5.900562 -0.961319,-1.715558 -1.333852,-3.52813 -1.102077,-5.239808 -1.476728,1.823155 -1.927931,4.392436 -1.003653,6.989939 0.641703,1.473199 1.985786,2.424288 3.057525,2.976738"
         style="fill:#fddd10;fill-opacity:1;fill-rule:nonzero;stroke:none;stroke-width:0.35277775"
         id="path894" />
      <path
         d="m 22.668163,22.688582 c -1.14935,-1.261533 -2.452159,-2.690989 -3.401484,-4.385028 -1.17228,-2.09303 -1.490838,-4.329994 -0.927805,-6.370461 -0.565503,0.605014 -1.012119,1.316214 -1.309511,2.117725 -0.741892,1.995311 -0.49777,4.259086 0.687211,6.373989 1.688042,3.013075 3.7973,4.989689 5.518503,5.832122 0.185913,0.09066 0.9144,0.397581 1.392413,-0.117475 0.569384,-0.61348 -0.373944,-1.711325 -1.959327,-3.450872"
         style="fill:#f68712;fill-opacity:1;fill-rule:nonzero;stroke:none;stroke-width:0.35277775"
         id="path898" />
    </g>
  </g>
</svg>
