<svg id="Layer_1" data-name="Layer 1" xmlns="http://www.w3.org/2000/svg" xmlns:xlink="http://www.w3.org/1999/xlink" viewBox="0 0 735 852"><defs><style>.cls-1{fill:none;}.cls-2{fill:#ba6f38;}.cls-3{clip-path:url(#clip-path);}.cls-4{fill:#ed7d15;}.cls-5{opacity:0.25;fill:url(#linear-gradient);}.cls-6{fill:#ac5d12;}.cls-7{clip-path:url(#clip-path-2);}.cls-8{fill:#36a85d;}.cls-9{fill:#e6b35a;}.cls-10{fill:#fff;}.cls-11{opacity:0.94;}</style><clipPath id="clip-path"><polygon class="cls-1" points="369.5 7.4 728.2 214.5 728.2 636.6 369.5 845 2.8 636.6 2.8 214.5 369.5 7.4"/></clipPath><linearGradient id="linear-gradient" x1="366.25" y1="-122.39" x2="367.55" y2="341.13" gradientUnits="userSpaceOnUse"><stop offset="0" stop-color="#fff" stop-opacity="0.83"/><stop offset="0.56" stop-color="#fff" stop-opacity="0.37"/><stop offset="1" stop-color="#fff" stop-opacity="0"/></linearGradient><clipPath id="clip-path-2"><polygon class="cls-2" points="1173.3 7.4 1532 214.5 1532 636.6 1173.3 845 806.6 636.6 806.6 214.5 1173.3 7.4"/></clipPath></defs><title>RStudio_Hex 2016 v7 outlines</title><g class="cls-3"><circle class="cls-4" cx="365.5" cy="437.4" r="442.1"/><ellipse class="cls-5" cx="366.9" cy="105.8" rx="315.2" ry="234.6"/></g><path class="cls-6" d="M705.6,196.2L427.8,35.8,367.5,1,307.2,35.8,29.4,196.2,0.1,213.1V637.4l29.3,16.9L310.6,816.7l56.9,32.8,56.9-32.8L705.6,654.3l29.3-16.9V213.1Zm0,425.3L367.5,816.7,29.4,621.5V231L367.5,35.8h0L705.6,231V621.5Z"/><polygon class="cls-2" points="1173.3 7.4 1532 214.5 1532 636.6 1173.3 845 806.6 636.6 806.6 214.5 1173.3 7.4"/><g class="cls-7"><circle class="cls-8" cx="1169.3" cy="437.4" r="442.1"/></g><path class="cls-9" d="M367,633.9l0.9-.9h-0.3Z"/><path class="cls-10" d="M365.5,797.3l4.5,4.5,2.7,2.9h0.1c-0.4-1.2-.7-2.5-1-3.9l-1.4-6.3,1.6-.9,4.7,4.3,2.9,2.9h0.1a36.5,36.5,0,0,1-1.2-3.9l-1.6-6.1,1.9-1.1,2.7,12.4-1.7,1-4.5-4.1a40.4,40.4,0,0,1-2.9-2.9h0a35.6,35.6,0,0,1,1.1,4l1.2,5.9-1.7,1-9.2-8.6Z"/><path class="cls-10" d="M381.7,787.9l4.5,4.5,2.7,2.9h0.1c-0.4-1.2-.7-2.5-1-3.9l-1.4-6.3,1.6-.9,4.7,4.3,2.9,2.9h0.1a36.5,36.5,0,0,1-1.2-3.9l-1.6-6.1,1.9-1.1,2.7,12.4-1.7,1-4.5-4.1a40.7,40.7,0,0,1-2.9-2.9h0a35.4,35.4,0,0,1,1.1,4l1.2,5.9-1.7,1-9.2-8.6Z"/><path class="cls-10" d="M397.9,778.5l4.5,4.5,2.7,2.9h0.1c-0.4-1.2-.7-2.5-1-3.9l-1.4-6.3,1.6-.9L409,779l2.9,2.9H412a36.3,36.3,0,0,1-1.2-3.9l-1.6-6.1,1.9-1.1,2.7,12.4-1.7,1-4.5-4.1a40.3,40.3,0,0,1-2.9-2.9h0a35.2,35.2,0,0,1,1.1,4l1.2,5.9-1.7,1-9.2-8.6Z"/><path class="cls-10" d="M419.2,780.4a1.6,1.6,0,1,1,.5-2.1,1.5,1.5,0,0,1-.5,2.1h0Z"/><path class="cls-10" d="M418.5,770.8l-2-3.2,1.7-1,1.3,2h0.1a3.6,3.6,0,0,1,1.6-4l0.6-.2,1,1.8-0.7.3a3.1,3.1,0,0,0-1.1,3.9l0.4,0.9,3.2,5.6-1.9,1.1Z"/><path class="cls-10" d="M428.4,772.1a5.8,5.8,0,0,0,2.9-.7c1.4-.8,1.6-1.9,1.1-2.7s-1.4-1.1-3.1-.8-3.8-.1-4.5-1.4-0.4-3.9,1.8-5.2a6,6,0,0,1,2.9-.8l0.3,1.7a4.7,4.7,0,0,0-2.5.6,1.8,1.8,0,0,0-.9,2.4c0.5,0.9,1.4.9,3,.6s3.7,0,4.6,1.6,0.4,4-2.1,5.4a6.9,6.9,0,0,1-3.4,1Z"/><path class="cls-10" d="M433.1,754.6l1.5,2.5,2.7-1.6,0.8,1.4-2.7,1.6,3.3,5.6c0.8,1.3,1.6,1.8,2.6,1.2l1-.8,0.9,1.4a5.3,5.3,0,0,1-1.5,1.3,3.1,3.1,0,0,1-2.5.4,4.5,4.5,0,0,1-2.3-2.3l-3.3-5.7-1.6.9-0.8-1.4,1.6-.9-1.1-1.9Z"/><path class="cls-10" d="M452.6,756.8l1.7,2.8-1.7,1-1.1-1.6h0a4.6,4.6,0,0,1-2.3,4c-1.6,1-4.1,1.2-6.3-2.5l-3.6-6.1,1.9-1.1,3.4,5.8c1.2,2,2.5,3,4.3,2a3.2,3.2,0,0,0,1.5-3.2,3.2,3.2,0,0,0-.4-1.1l-3.7-6.4,1.9-1.1Z"/><path class="cls-10" d="M457.5,737.2l7.4,12.6,1.7,2.6-1.7,1-1.1-1.8h0a4.5,4.5,0,0,1-2.4,4.1c-2.5,1.5-5.7.5-7.6-2.7s-1.1-6.9,1.4-8.3a4,4,0,0,1,4.1-.2h0l-3.6-6.2Zm3.4,10.2-0.6-.7a3.2,3.2,0,0,0-4-.6c-2,1.1-2.1,3.6-.8,5.9s3.3,3.3,5.3,2.1a3.3,3.3,0,0,0,1.5-3.9,3.8,3.8,0,0,0-.4-0.9Z"/><path class="cls-10" d="M463.9,736.1a1.4,1.4,0,0,1-2.4,1.4,1.3,1.3,0,0,1,.5-1.9A1.3,1.3,0,0,1,463.9,736.1Zm5.7,14.6-6.1-10.5,1.9-1.1,6.1,10.5Z"/><path class="cls-10" d="M481,736.9c2.3,3.9.6,7.1-2,8.6s-6.2.8-8.1-2.5-0.9-6.9,2-8.6S479.1,733.7,481,736.9Zm-8.2,4.9c1.3,2.3,3.7,3.3,5.5,2.2s2.2-3.6.8-5.9-3.2-3.5-5.5-2.2S471.6,739.9,472.8,741.9Z"/><path class="cls-10" d="M486.9,740.9a1.6,1.6,0,1,1,.5-2.1,1.5,1.5,0,0,1-.5,2.1h0Z"/><path class="cls-10" d="M497.7,733.8a8.1,8.1,0,0,1-2.6,2.4c-3.2,1.8-6.5.9-8.3-2.3a6.1,6.1,0,0,1,2.4-8.8,7.3,7.3,0,0,1,2.9-1l0.4,1.7a5.1,5.1,0,0,0-2.5.8c-2.4,1.4-2.7,3.9-1.4,6.1s3.8,3,5.9,1.8a6.2,6.2,0,0,0,2-1.9Z"/><path class="cls-10" d="M506.4,722.2c2.3,3.9.6,7.1-2,8.6s-6.2.8-8.1-2.5-0.9-6.9,2-8.6S504.5,719,506.4,722.2Zm-8.2,4.9c1.3,2.3,3.7,3.2,5.5,2.2s2.2-3.6.8-5.9-3.2-3.5-5.5-2.2S497,725.1,498.1,727.1Z"/><path class="cls-10" d="M507.4,718.5l-1.7-2.8,1.7-1,1.1,1.6h0.1a4.2,4.2,0,0,1,2.2-3.8,3.6,3.6,0,0,1,4.2.4h0a5,5,0,0,1,.4-2,4.1,4.1,0,0,1,1.9-2.1c1.4-.8,4-1.1,6.1,2.5l3.6,6.2-1.9,1.1-3.4-5.9c-1.2-2-2.6-2.8-4.1-1.9a2.9,2.9,0,0,0-1.2,3,3.6,3.6,0,0,0,.4,1l3.8,6.5-1.9,1.1-3.6-6.3c-1-1.7-2.4-2.4-3.9-1.6a3,3,0,0,0-1.2,3.3,3.1,3.1,0,0,0,.4,1l3.7,6.3-1.9,1.1Z"/><g class="cls-11"><path class="cls-10" d="M126.3,571.1a35.4,35.4,0,0,0,18.6,5.9c10.2,0,15-5.4,15-12.2s-4-11-14.4-15.1c-13.9-5.3-20.5-13.4-20.5-23.2,0-13.2,10.1-24.1,26.7-24.1a37,37,0,0,1,19,5.1l-3.5,10.9a28.9,28.9,0,0,0-15.8-4.7c-8.3,0-13,5.1-13,11.2s4.6,9.8,14.7,13.9c13.4,5.4,20.3,12.6,20.3,24.8,0,14.4-10.6,24.8-29,24.8a42.2,42.2,0,0,1-21.8-5.8Z"/><path class="cls-10" d="M188.3,531.1c0-10.5-.3-19-0.6-26.8h12.6l0.6,14.1h0.3c5.8-10,14.9-15.9,27.5-15.9,18.7,0,32.8,16.8,32.8,41.7,0,29.5-17,44.1-35.2,44.1-10.2,0-19.2-4.7-23.8-12.9h-0.3V620H188.3V531.1ZM202.3,553a35.5,35.5,0,0,0,.6,6.1c2.6,10.3,11,17.5,21.1,17.5,14.9,0,23.5-12.9,23.5-31.7,0-16.5-8.2-30.5-23-30.5-9.6,0-18.6,7.3-21.3,18.5a25.5,25.5,0,0,0-1,6.1V553Z"/><path class="cls-10" d="M330.6,566.7a122.4,122.4,0,0,0,1.3,19.7H319.1L317.9,576h-0.5a28.3,28.3,0,0,1-23.7,12.2c-15.7,0-23.7-11.7-23.7-23.6,0-19.8,16.6-30.7,46.6-30.5v-1.7c0-6.8-1.8-19-17.6-19a37,37,0,0,0-20.2,6.1l-3.2-9.8c6.4-4.4,15.7-7.3,25.4-7.3,23.7,0,29.4,17.1,29.4,33.6v30.7ZM317,544.5c-15.4-.3-32.8,2.5-32.8,18.5,0,9.7,6.1,14.2,13.3,14.2a19.4,19.4,0,0,0,18.7-13.7,16.4,16.4,0,0,0,.8-4.7V544.5Z"/><path class="cls-10" d="M350.1,529.9c0-9.7-.2-18-0.6-25.6h12.3l0.5,16.1h0.6c3.5-11,12-18,21.4-18a14.4,14.4,0,0,1,4,.5V517a20,20,0,0,0-4.8-.5c-9.9,0-17,8-18.9,19.2a44.4,44.4,0,0,0-.6,7v43.8H350.1V529.9Z"/><path class="cls-10" d="M413.8,542h0.3c1.9-2.9,4.6-6.4,6.9-9.3l22.7-28.3h17l-29.9,33.7,34.1,48.3H447.7L421,547l-7.2,8.5v30.9H399.9V466h13.9v76Z"/><path class="cls-10" d="M474.4,466h14.1V586.4H474.4V466Z"/><path class="cls-10" d="M514.1,504.3l17,48.5c1.8,5.4,3.7,11.9,5,16.8h0.3c1.4-4.9,3-11.2,5-17.1l15.4-48.2h14.9l-21.1,58.5c-10.1,28.2-17,42.6-26.6,51.4-6.9,6.4-13.8,9-17.3,9.7l-3.5-12.5a36.7,36.7,0,0,0,12.3-7.3,45,45,0,0,0,11.8-16.6,11.2,11.2,0,0,0,1.1-3.6,13.7,13.7,0,0,0-1-3.9l-28.6-75.6h15.4Z"/><path class="cls-10" d="M581.1,529.9c0-9.7-.2-18-0.6-25.6h12.3l0.5,16.1h0.6c3.5-11,12-18,21.4-18a14.4,14.4,0,0,1,4,.5V517a20,20,0,0,0-4.8-.5c-9.9,0-17,8-18.9,19.2a44.5,44.5,0,0,0-.6,7v43.8H581.1V529.9Z"/></g><polygon class="cls-10" points="380.3 333.8 301.9 447.9 320 351.7 264.8 388.1 301.9 330.6 144.4 329.6 298.5 276.7 250.3 210.8 320.9 251.9 319.5 119.7 379.2 235.9 448.1 168 409.1 247.2 553.5 224.6 437 298.7 484.5 330.7 425.4 321.4 501.2 422.9 380.3 333.8"/><polygon class="cls-4" points="376.7 325.6 323.3 395.8 327.6 341 295 356.6 310.8 323.9 217.3 318.1 308.4 279.8 284.3 242.5 328 260.2 334.8 184.2 379.6 244.1 415.6 213.9 400.2 253.8 499 245 426.7 297.2 447.7 316.1 414.7 314.8 448.6 370.6 376.7 325.6"/></svg>