<?xml version="1.0" standalone="no"?><!DOCTYPE svg PUBLIC "-//W3C//DTD SVG 1.1//EN" "http://www.w3.org/Graphics/SVG/1.1/DTD/svg11.dtd"><svg width="100%" height="100%" viewBox="0 0 181 209" version="1.1" xmlns="http://www.w3.org/2000/svg" xmlns:xlink="http://www.w3.org/1999/xlink" xml:space="preserve" style="fill-rule:evenodd;clip-rule:evenodd;stroke-linejoin:round;stroke-miterlimit:1.41421;"><g id="logo"><path id="template" d="M0,51.944l90.197,-51.944l90.803,51.944l0,105.112l-90.197,51.944l-90.803,-51.944l0,-105.112Z" style="fill:#f3df49;"/><path d="M20.129,91.84c5.628,0 7.35,-2.688 7.35,-5.964c0,-3.78 -3.276,-4.998 -5.88,-5.586c-2.436,-0.546 -3.57,-0.672 -3.57,-1.68c0,-0.714 0.63,-1.05 1.932,-1.05c1.344,0 2.604,0.63 3.444,1.344l3.024,-3.234c-1.47,-1.512 -3.57,-2.478 -6.51,-2.478c-3.822,0 -6.93,1.638 -6.93,5.67c0,3.738 2.73,5.082 5.166,5.712c2.898,0.756 4.032,0.756 4.032,1.722c0,0.756 -0.588,1.092 -2.436,1.092c-1.68,0 -3.234,-0.714 -4.452,-1.89l-3.318,2.94c1.554,1.848 3.99,3.402 8.148,3.402Z" style="fill:#2e2e2c;fill-rule:nonzero;"/><path d="M38.273,91.924c2.604,0 4.116,-0.924 4.998,-1.638l-2.142,-3.948c-0.378,0.252 -1.05,0.756 -1.974,0.756c-0.882,0 -1.47,-0.378 -1.47,-2.184l0,-6.636l4.578,0l0,-4.704l-4.578,0l0,-9.324l-5.628,0l0,9.324l-2.646,0l0,4.704l2.646,0l0,6.468c0,5.376 2.604,7.182 6.216,7.182Z" style="fill:#2e2e2c;fill-rule:nonzero;"/><path d="M57.341,80.836l-4.158,0c-4.41,0 -7.308,1.554 -7.308,5.376c0,4.158 3.024,5.628 6.3,5.628c2.394,0 3.948,-0.798 5.292,-2.856l-0.126,2.478l5.628,0l0,-10.164c0,-5.628 -3.486,-8.106 -8.064,-8.106c-4.2,0 -6.09,1.302 -7.77,2.94l3.15,3.36c0.798,-0.714 1.932,-1.638 4.074,-1.638c1.89,0 2.898,0.924 2.982,2.982ZM57.341,84.196l0,0.714c0,1.512 -1.176,2.52 -3.486,2.52c-1.596,0 -2.436,-0.588 -2.436,-1.596c0,-1.008 0.63,-1.638 2.058,-1.638l3.864,0Z" style="fill:#2e2e2c;fill-rule:nonzero;"/><path d="M67.295,91.462l5.67,0l0,-9.576c0,-2.268 1.344,-3.528 3.612,-3.528c2.016,0 2.982,1.134 2.982,3.15l0,9.954l5.67,0l0,-10.332c0,-5.082 -2.814,-7.938 -6.72,-7.938c-2.478,0 -4.578,1.176 -5.67,3.318l0.126,-2.94l-5.67,0l0,17.892Z" style="fill:#2e2e2c;fill-rule:nonzero;"/><path d="M97.073,91.84c2.73,0 4.62,-1.092 5.628,-2.982l-0.126,2.604l5.67,0l0,-30.324l-5.67,0l0,14.952c-1.134,-1.764 -2.73,-2.898 -5.586,-2.898c-4.326,0 -8.022,3.78 -8.022,9.282c0,5.502 3.738,9.366 8.106,9.366ZM98.711,86.884c-2.394,0 -3.906,-1.596 -3.906,-4.41c0,-2.646 1.512,-4.284 3.906,-4.284c2.436,0 4.032,1.638 4.032,4.284c0,2.814 -1.596,4.41 -4.032,4.41Z" style="fill:#2e2e2c;fill-rule:nonzero;"/><path d="M123.239,80.836l-4.158,0c-4.41,0 -7.308,1.554 -7.308,5.376c0,4.158 3.024,5.628 6.3,5.628c2.394,0 3.948,-0.798 5.292,-2.856l-0.126,2.478l5.628,0l0,-10.164c0,-5.628 -3.486,-8.106 -8.064,-8.106c-4.2,0 -6.09,1.302 -7.77,2.94l3.15,3.36c0.798,-0.714 1.932,-1.638 4.074,-1.638c1.89,0 2.898,0.924 2.982,2.982ZM123.239,84.196l0,0.714c0,1.512 -1.176,2.52 -3.486,2.52c-1.596,0 -2.436,-0.588 -2.436,-1.596c0,-1.008 0.63,-1.638 2.058,-1.638l3.864,0Z" style="fill:#2e2e2c;fill-rule:nonzero;"/><path d="M133.193,91.462l5.67,0l0,-7.938c0,-3.822 1.386,-4.998 3.948,-4.998c0.798,0 1.47,0.21 2.184,0.546l1.806,-5.166c-0.714,-0.378 -1.596,-0.714 -2.772,-0.714c-1.848,0 -3.948,0.672 -5.25,3.612l0.084,-3.234l-5.67,0l0,17.892Z" style="fill:#2e2e2c;fill-rule:nonzero;"/><path d="M156.545,91.84c2.73,0 4.62,-1.092 5.628,-2.982l-0.126,2.604l5.67,0l0,-30.324l-5.67,0l0,14.952c-1.134,-1.764 -2.73,-2.898 -5.586,-2.898c-4.326,0 -8.022,3.78 -8.022,9.282c0,5.502 3.738,9.366 8.106,9.366ZM158.183,86.884c-2.394,0 -3.906,-1.596 -3.906,-4.41c0,-2.646 1.512,-4.284 3.906,-4.284c2.436,0 4.032,1.638 4.032,4.284c0,2.814 -1.596,4.41 -4.032,4.41Z" style="fill:#2e2e2c;fill-rule:nonzero;"/><path d="M68.488,158.055c9.299,0 15.674,-4.95 15.674,-15.825l0,-35.85l-10.5,0l0,35.7c0,5.25 -2.175,6.6 -5.625,6.6c-3.6,0 -5.1,-2.475 -6.75,-5.4l-8.55,5.175c2.475,5.25 7.35,9.6 15.75,9.6Z" style="fill:#2e2e2c;fill-rule:nonzero;"/><path d="M108.988,158.055c9.975,0 17.399,-5.175 17.399,-14.625c0,-8.775 -5.024,-12.675 -13.95,-16.5l-2.624,-1.125c-4.501,-1.95 -6.45,-3.225 -6.45,-6.375c0,-2.55 1.95,-4.5 5.024,-4.5c3,0 4.951,1.275 6.75,4.5l8.176,-5.25c-3.45,-6.075 -8.251,-8.4 -14.926,-8.4c-9.375,0 -15.375,6 -15.375,13.875c0,8.55 5.025,12.6 12.601,15.825l2.625,1.125c4.799,2.1 7.649,3.375 7.649,6.975c0,3 -2.774,5.175 -7.125,5.175c-5.174,0 -8.1,-2.7 -10.35,-6.375l-8.549,4.95c3.075,6.075 9.375,10.725 19.125,10.725Z" style="fill:#2e2e2c;fill-rule:nonzero;"/></g></svg>