<?xml version="1.0" encoding="utf-8"?>
<!-- Generator: Adobe Illustrator 16.0.0, SVG Export Plug-In . SVG Version: 6.00 Build 0)  -->
<!DOCTYPE svg PUBLIC "-//W3C//DTD SVG 1.1//EN" "http://www.w3.org/Graphics/SVG/1.1/DTD/svg11.dtd">
<svg version="1.1" id="Layer_1" xmlns="http://www.w3.org/2000/svg" xmlns:xlink="http://www.w3.org/1999/xlink" x="0px" y="0px"
	 width="611.834px" height="706.506px" viewBox="0.083 40.99 611.834 706.506" enable-background="new 0.083 40.99 611.834 706.506"
	 xml:space="preserve">
<pattern  x="0.417" y="749.753" width="81.594" height="103" patternUnits="userSpaceOnUse" id="New_Pattern_Swatch_3" viewBox="0 -103 81.594 103" overflow="visible">
	<g>
		<polygon fill="none" points="0,-103 81.594,-103 81.594,0 0,0 		"/>
		<polygon fill="#B16133" points="81.594,0 0,0 0,-103 81.594,-103 		"/>
		<path fill="#CE7E43" d="M14.002-10.066c-2.549-4.352-5.173-8.635-7.534-13.042c-0.437-0.815-0.249-2.563,0.401-3.138
			c3.283-2.895,6.816-5.542,10.953-8.824c2.296,4.455,4.366,8.166,6.056,12.024c0.318,0.729-0.689,2.173-1.412,3.056
			C19.83-16.757,17.056-13.621,14.002-10.066z"/>
		<path fill="#CE7E43" d="M2.579-59.633c3.698-4.465,6.996-8.826,10.779-12.785c1.151-1.204,4.107-2.249,5.416-1.69
			c2.459,1.052,4.441,3.367,3.347,6.393c-1.073,2.97-2.215,5.956-3.746,8.735c-2.891,5.24-5.503,5.825-10.932,2.725
			C5.852-57.165,4.431-58.336,2.579-59.633z"/>
		<path fill="#CE7E43" d="M10.405-75.203c-4.582-4.52-8.878-8.454-6.763-15.014c1.406-4.363,4.44-5.907,9.02-4.308
			c5.962,2.083,7.877,8.288,3.891,12.915C14.731-79.496,12.678-77.557,10.405-75.203z"/>
		<path fill="#CE7E43" d="M27.567-2.566c-10.642-4.682-10.707-8.615-0.514-16.976C38.371-13.203,36.974-13.068,27.567-2.566z"/>
		<path fill="#CE7E43" d="M27.952-90.272c9.476,9.45,9.449,15.05,2.43,19.119C20.297-76.085,19.682-80.524,27.952-90.272z"/>
		<path fill="#CE7E43" d="M40.995-33.478c6.714,8.476,6.546,12.015-0.906,19.021C31.526-18.59,30.855-23.128,40.995-33.478z"/>
		<path fill="#CE7E43" d="M37.167-60.187c-0.998-0.979-2.017-1.951-3.007-2.95c-2.606-2.631-3.73-4.971,0.223-7.729
			c2.475-1.725,4.209-4.371,6.296-6.629C45.668-72.59,44.074-65.238,37.167-60.187z"/>
		<path fill="#CE7E43" d="M43.121-97.769c8.192,6.43,8.308,10.06,0.813,17.241C37.056-90.838,37.056-90.838,43.121-97.769z"/>
		<path fill="#CE7E43" d="M28.602-44.38c6.714,6.995,6.603,8.562-1.085,18.618C20.919-34.922,21.012-36.822,28.602-44.38z"/>
		<path fill="#CE7E43" d="M40.42-55.772c6.431,6.03,6.431,6.03-0.217,16.858C32.492-43.099,32.488-49.396,40.42-55.772z"/>
		<path fill="#CE7E43" d="M27.026-49.687c-5.343-6.352-5.029-9.216,1.525-15.068C35.363-59.895,35.082-56.535,27.026-49.687z"/>
		<path fill="#CE7E43" d="M14.606-38.569c-1.147-3.762-2.295-7.524-3.737-12.252c3.927,0.289,6.804,0.244,9.516,0.848
			c0.882,0.196,2.18,2.483,1.832,3.135c-1.576,2.948-3.673,5.656-5.581,8.452C15.958-38.448,15.283-38.509,14.606-38.569z"/>
		<path fill="#CE7E43" d="M61.446-31.992c4.478,3.396,8.511,6.456,12.764,9.68c-3.151,5.361-6.087,10.357-8.921,15.177
			c-3.095-3.569-6.084-6.88-8.872-10.335c-0.649-0.803-1.164-2.303-0.8-3.113C57.246-24.212,59.214-27.706,61.446-31.992z"/>
		<path fill="#CE7E43" d="M75.692-54.328c-0.283,0.776-0.292,0.942-0.384,1.028c-7.756,7.324-12.181,6.644-16.435-2.771
			c-1.509-3.341-4.484-6.743-0.958-10.617c2.213-2.43,4.479-3.12,6.872-0.399C68.568-62.782,72.229-58.391,75.692-54.328z"/>
		<path fill="#CE7E43" d="M66.722-75.038c-3.106-3.299-5.648-5.45-7.399-8.064c-1.016-1.517-1.43-3.94-0.945-5.67
			c1.355-4.83,6.827-7.592,11.217-6.15c3.231,1.062,5.376,6.663,3.465,10.795C71.666-81.121,69.221-78.542,66.722-75.038z"/>
		<path fill="#CE7E43" d="M53.549-87.198c8.963,9.087,8.579,13.138-1.526,19.41c-6.105-3.604-6.998-6.825-3.328-12.565
			C50.18-82.674,51.889-84.871,53.549-87.198z"/>
		<path fill="#CE7E43" d="M49.34-40.773c10.149,5.917,5.517,12.428,1.846,19.541c-2.202-4.153-5.094-7.785-5.872-11.777
			C44.87-35.287,47.875-38.151,49.34-40.773z"/>
		<path fill="#CE7E43" d="M51.552-46.098c-7.79-6.199-8.164-9.528-1.675-14.977C57.089-55.634,56.687-50.371,51.552-46.098z"/>
		<path fill="#CE7E43" d="M54.869-45.186c3.421-0.57,7.437-1.439,9.605-0.49c2.169,0.947-0.095,7.354-1.104,11.23
			c-0.634,0.111-1.268,0.222-1.9,0.332c-2.314-3.146-4.63-6.293-6.945-9.441C54.639-44.098,54.754-44.642,54.869-45.186z"/>
		<path fill="#CE7E43" d="M43.333-12.566c2.966-1.797,5.933-3.592,10.243-6.201c0.637,5.08,1.133,9.054,1.631,13.029
			c-0.548,0.338-1.096,0.675-1.643,1.012c-3.314-2.064-6.631-4.131-9.948-6.197C43.521-11.471,43.428-12.02,43.333-12.566z"/>
		<path fill="#CE7E43" d="M67.577-3.666c1.854-3.469,3.71-6.938,6.041-11.296c2.566,2.985,4.629,4.991,6.115,7.339
			c0.484,0.763-0.22,3.297-0.927,3.51c-3.201,0.965-6.599,1.392-9.926,2.013C68.445-2.623,68.012-3.145,67.577-3.666z"/>
		<path fill="#CE7E43" d="M18.968-5.654c-5.743,5.361-7.124,5.391-16.389,0.521C10.228-10.563,11.9-10.629,18.968-5.654z"/>
		<path fill="#CE7E43" d="M39.831-1.555c-7.79-6.198-7.33-4.744-0.841-10.192C46.202-6.307,44.966-5.827,39.831-1.555z"/>
		<path fill="#CE7E43" d="M73.208-26.416c-0.998-0.979-2.017-1.951-3.007-2.95c-2.606-2.631-3.73-4.971,0.223-7.729
			c2.475-1.725,4.209-4.371,6.296-6.629C81.709-38.819,80.115-31.468,73.208-26.416z"/>
		<path fill="#CE7E43" d="M4.415-33.239c-5.343-6.352-5.029-9.216,1.525-15.068C12.752-43.447,12.471-40.088,4.415-33.239z"/>
		<path fill="#CE7E43" d="M75.218-63.046c-2.909-1.888-5.816-3.777-10.042-6.522c4.297-2.785,7.658-4.961,11.021-7.14
			c0.543,0.346,1.085,0.693,1.626,1.038c-0.416,3.883-0.833,7.769-1.249,11.654C76.122-63.692,75.669-63.369,75.218-63.046z"/>
		<path fill="#CE7E43" d="M5.36-11.248c-6.298-4.518-5.926-3.457-0.68-7.428C10.512-14.711,9.512-14.361,5.36-11.248z"/>
		<path fill="#CE7E43" d="M26.715-100.221c3.421-0.57,7.437-1.439,9.605-0.49c2.169,0.947-0.095,7.354-1.104,11.23
			c-0.634,0.111-1.268,0.222-1.9,0.332c-2.314-3.146-4.63-6.293-6.945-9.441C26.484-99.133,26.6-99.677,26.715-100.221z"/>
		<path fill="#CE7E43" d="M10.869-98.615c5.669-4.557,8.297-4.383,13.818,0.812C20.421-92.089,17.341-92.221,10.869-98.615z"/>
		<path fill="#CE7E43" d="M55.989-92.672c-7.79-6.199-7.33-4.745-0.841-10.193C62.36-97.425,61.124-96.945,55.989-92.672z"/>
		<path fill="#CE7E43" d="M76.476-92.672c-7.79-6.199-7.33-4.745-0.841-10.193C82.847-97.425,81.61-96.945,76.476-92.672z"/>
	</g>
</pattern>
<polygon id="fill" fill="#EFA367" points="611.917,570.892 305.999,747.496 0.083,570.889 0.083,217.595 305.999,40.99 
	611.917,217.595 "/>
<linearGradient id="gradient_1_" gradientUnits="userSpaceOnUse" x1="306" y1="405.0586" x2="306" y2="120.9907" gradientTransform="matrix(1 0 0 1 0 -80)">
	<stop  offset="0" style="stop-color:#FFFFFF;stop-opacity:0"/>
	<stop  offset="1" style="stop-color:#FFFFFF"/>
</linearGradient>
<path id="gradient" opacity="0.2" fill="url(#gradient_1_)" d="M305.917,40.99L47.004,190.882
	c38.861,78.329,140.077,134.176,258.816,134.176c119.105,0,220.579-56.192,259.174-134.9L305.917,40.99z"/>
<text transform="matrix(1 0 0 1 157.4341 549.7529)" fill="#3E2721" font-family="'Myriad-Roman'" font-size="112">taipan</text>
<path fill="url(#New_Pattern_Swatch_3)" d="M176.933,229.241c-1.899,1.909-22.516-16.988-33.234-22.216
	c-53.034-25.872-105.972,36.346-63.116,90.219c39.584,49.76,79.718-4.868,149.544,37.812
	c60.04,36.698,13.915,124.573-34.835,118.573S88.384,411.437,76.467,441.52c-14.253,35.982-13.114,71.446,3.95,93.733
	c24.5,32,125.25,94.75,143.75,89.75c25.953-7.015,44.59-21.488,92.917-29.917c31.38-5.473,81.722,10.91,122.667,2.001
	c37.431-8.145,95.578-89.664,104.666-119.305c20.5-66.864,4.037-159.917-16-159.917c-29.004,0-32.128,30.007-71,39.388
	c-47.535,11.472-83.5-18.316-86.5-49.5s46.5-88.375,38.5-105.125c-3.991-8.356-21.812-11.887-45-8.541s-42.373,2.095-45.773,8.968
	c-3.398,6.874-5.857,9.669-7.367,10.314c-1.512,0.647-17.465,5.834-33.114,6.016c-15.65,0.183-35.747,0.446-37.437-0.777
	c-1.692-1.225-6.239-8.505-5.691-12.801c0.551-4.301,5.794-8.503,15.235-14.017c9.443-5.514,40.213-19.809,48.245-19.537
	c8.029,0.271,10.295,5.223,13.273,4.596c2.979-0.629,63.909-16.221,82.862-12.811c18.951,3.41,42.15,13.142,45.252,36.038
	c4.765,35.177-34.894,85.994-34.216,103.518s28.841,29.007,50.833,19.954c21.993-9.051,47.897-49.795,75.897-46.295
	s63.667,71.532,52.02,168.067c-14.131,117.119-102.353,179.1-149.02,185.433c-26.264,3.564-88.238-7.154-112-5
	s-69.75,30.75-93.25,32.5s-147.75-68.834-179.75-109.167s-8.885-138.773,26-149.333s57.75,9.833,89.25,20.5
	s51.234,7.558,63.912-21.384c12.682-28.945-3.722-51.864-40.412-59.616c-36.688-7.757-72.246-2.318-85-5.5
	s-40.822-23.254-47.583-40.5s-9.651-40.878-0.333-65.667c9.318-24.79,36.803-34.381,53.51-35.92
	c16.71-1.536,40.93,9.509,53.529,21.325C169.167,218.503,177.667,228.503,176.933,229.241z"/>
<path fill="#47362C" d="M236.53,211.662c0,0-8.626,1.92-15.285,5.812c-2.619,1.531-5.247,5.197-5.891,6.404
	c-0.795,1.491-6.449,7.095-6.352,7.25c0.098,0.155,4.523-1.792,4.523-1.792s0.855,5.695,0.961,5.75
	c0.104,0.056,1.212-6.837,2.43-10.272c0.633-1.785,1.467-4.229,5.018-6.5c6-3.836,14.984-6.073,14.984-6.073L236.53,211.662z"/>
<path fill="#B16133" d="M278.901,219.373c-1.781-0.073-35.464,3.018-38.547-0.245c-1.435-1.518-5.868-9.109-5.32-13.405
	c0.551-4.301,5.794-8.503,15.235-14.017c9.443-5.514,26.6-12.739,31.022-14.484c0.454-0.179-17.458,18.946-16.875,23.197
	S278.999,219.199,278.901,219.373z"/>
<ellipse transform="matrix(0.9924 -0.1228 0.1228 0.9924 -24.6919 33.3477)" fill="#47362C" cx="258.145" cy="216.955" rx="4.5" ry="2.524"/>
<ellipse transform="matrix(0.935 -0.3547 0.3547 0.935 -53.1877 101.7431)" fill="#47362C" cx="250.894" cy="195.932" rx="4.5" ry="2.524"/>
</svg>
