<?xml version="1.0" standalone="no"?>
<!DOCTYPE svg PUBLIC "-//W3C//DTD SVG 20010904//EN"
 "http://www.w3.org/TR/2001/REC-SVG-20010904/DTD/svg10.dtd">
<svg version="1.0" xmlns="http://www.w3.org/2000/svg"
 width="518.000000pt" height="600.000000pt" viewBox="0 0 518.000000 600.000000"
 preserveAspectRatio="xMidYMid meet">
<metadata>
Created by potrace 1.15, written by Peter Selinger 2001-2017
</metadata>
<g transform="translate(0.000000,600.000000) scale(0.100000,-0.100000)"
fill="#000000" stroke="none">
<path d="M1352 5127 l-1232 -711 0 -1421 0 -1421 1202 -694 c660 -382 1215
-703 1233 -712 l32 -17 1224 707 1224 708 0 1429 0 1429 -1190 689 c-655 378
-1206 696 -1226 707 l-36 19 -1231 -712z m471 -566 c63 -31 102 -81 123 -157
23 -85 15 -176 -20 -249 -47 -95 -113 -125 -277 -125 l-109 0 0 274 c0 253 1
275 18 280 9 3 62 4 118 2 80 -2 110 -7 147 -25z m434 23 c20 -6 34 -41 108
-269 47 -144 85 -267 85 -274 0 -6 -16 -11 -39 -11 l-38 0 -18 65 -17 66 -105
-3 -105 -3 -20 -62 -19 -63 -38 0 -39 0 44 138 c24 75 63 197 87 271 31 100
47 135 62 142 25 10 26 10 52 3z m-807 -39 l0 -35 -75 0 -75 0 0 -240 0 -240
-40 0 -40 0 0 240 0 240 -70 0 -70 0 0 35 0 35 185 0 185 0 0 -35z m1530 -80
l0 -45 45 0 c43 0 45 -1 45 -30 0 -29 -2 -30 -45 -30 l-45 0 0 -119 c0 -135 7
-151 66 -151 33 0 35 -2 32 -27 -3 -25 -7 -28 -47 -31 -24 -2 -57 2 -73 9 -48
20 -58 53 -58 194 l0 125 -30 0 c-16 0 -30 3 -30 7 0 9 123 140 133 142 4 0 7
-19 7 -44z m680 0 l0 -45 45 0 c43 0 45 -1 45 -30 0 -29 -2 -30 -45 -30 l-45
0 0 -119 c0 -135 7 -151 66 -151 33 0 35 -2 32 -27 -3 -25 -7 -28 -47 -31 -24
-2 -57 2 -73 9 -48 20 -58 53 -58 194 l0 125 -30 0 c-16 0 -30 3 -30 7 0 9
123 140 133 142 4 0 7 -19 7 -44z m-906 -55 c21 -8 24 -13 17 -32 -8 -21 -14
-23 -81 -23 -58 0 -75 -3 -84 -17 -18 -29 4 -50 84 -83 53 -22 76 -38 87 -59
30 -57 -2 -129 -68 -156 -28 -12 -181 -11 -194 1 -3 4 -3 18 0 32 7 25 8 26
76 20 79 -7 119 10 119 51 0 30 -12 40 -84 67 -76 28 -106 57 -106 102 0 38
30 84 64 97 29 12 139 12 170 0z m658 -28 l33 -32 3 -154 4 -153 -39 -6 c-66
-11 -172 -8 -208 7 -38 16 -65 60 -65 106 0 76 72 130 173 130 50 0 57 2 57
20 0 11 -9 29 -21 41 -18 18 -30 20 -91 17 -63 -2 -72 -1 -79 17 -16 41 -8 44
113 42 85 -2 89 -3 120 -35z m652 28 c21 -8 24 -13 17 -32 -8 -21 -14 -23 -81
-23 -58 0 -75 -3 -84 -17 -18 -29 4 -50 84 -83 53 -22 76 -38 87 -59 30 -57
-2 -129 -68 -156 -28 -12 -181 -11 -194 1 -3 4 -3 18 0 32 7 25 8 26 76 20 79
-7 119 10 119 51 0 30 -12 40 -84 67 -76 28 -106 57 -106 102 0 38 30 84 64
97 29 12 139 12 170 0z m-174 -1060 c0 -7 -438 -10 -1295 -10 -857 0 -1295 3
-1295 10 0 7 438 10 1295 10 857 0 1295 -3 1295 -10z m-598 -87 c-393 -2
-1032 -2 -1420 0 -389 1 -68 2 713 2 781 0 1099 -1 707 -2z m-542 -73 c0 -7
-193 -10 -560 -10 -367 0 -560 3 -560 10 0 7 193 10 560 10 367 0 560 -3 560
-10z m300 -90 c0 -7 -147 -10 -420 -10 -273 0 -420 3 -420 10 0 7 147 10 420
10 273 0 420 -3 420 -10z m330 -170 c0 -7 -187 -10 -540 -10 -353 0 -540 3
-540 10 0 7 187 10 540 10 353 0 540 -3 540 -10z m90 -90 c0 -7 -147 -10 -420
-10 -273 0 -420 3 -420 10 0 7 147 10 420 10 273 0 420 -3 420 -10z m0 -90 c0
-7 -145 -10 -415 -10 -270 0 -415 3 -415 10 0 7 145 10 415 10 270 0 415 -3
415 -10z m170 -170 c0 -7 -275 -10 -805 -10 -530 0 -805 3 -805 10 0 7 275 10
805 10 530 0 805 -3 805 -10z m30 -80 c0 -7 -145 -10 -415 -10 -270 0 -415 3
-415 10 0 7 145 10 415 10 270 0 415 -3 415 -10z m100 -90 c0 -7 -145 -10
-415 -10 -270 0 -415 3 -415 10 0 7 145 10 415 10 270 0 415 -3 415 -10z
m-478 -87 c-393 -2 -1032 -2 -1420 0 -389 1 -68 2 713 2 781 0 1099 -1 707 -2z
m208 -83 c0 -7 -288 -10 -845 -10 -557 0 -845 3 -845 10 0 7 288 10 845 10
557 0 845 -3 845 -10z m-240 -80 c0 -7 -275 -10 -805 -10 -530 0 -805 3 -805
10 0 7 275 10 805 10 530 0 805 -3 805 -10z m-890 -90 c0 -7 -152 -10 -435
-10 -283 0 -435 3 -435 10 0 7 152 10 435 10 283 0 435 -3 435 -10z m-200 -90
c0 -6 -137 -10 -390 -10 -253 0 -390 4 -390 10 0 6 137 10 390 10 253 0 390
-4 390 -10z m-50 -80 c0 -7 -143 -10 -410 -10 -267 0 -410 3 -410 10 0 7 143
10 410 10 267 0 410 -3 410 -10z m-120 -90 c0 -7 -145 -10 -415 -10 -270 0
-415 3 -415 10 0 7 145 10 415 10 270 0 415 -3 415 -10z m-20 -80 c0 -7 -142
-10 -405 -10 -263 0 -405 3 -405 10 0 7 142 10 405 10 263 0 405 -3 405 -10z
m2020 -540 l0 -30 -1415 0 -1415 0 0 30 0 30 1415 0 1415 0 0 -30z"/>
<path d="M1620 4309 l0 -211 78 3 c123 6 171 53 180 179 11 158 -61 240 -210
240 l-48 0 0 -211z"/>
<path d="M2227 4490 c-3 -8 -20 -64 -38 -125 -17 -60 -34 -116 -37 -122 -3
-10 16 -13 77 -13 45 0 81 3 81 8 0 7 -65 233 -74 257 -2 6 -6 3 -9 -5z"/>
<path d="M3255 4208 c-27 -15 -35 -28 -35 -59 0 -41 28 -59 93 -59 l57 0 0 65
0 65 -47 0 c-27 0 -57 -6 -68 -12z"/>
</g>
</svg>
