<?xml version="1.0" encoding="utf-8"?>
<!-- Generator: Adobe Illustrator 19.2.0, SVG Export Plug-In . SVG Version: 6.00 Build 0)  -->
<svg version="1.1"
	 id="Layer_1" inkscape:export-filename="/home/mc/Papers/Projects/Forks/hexbin/hexagons/javascript.png" inkscape:export-xdpi="90" inkscape:export-ydpi="90" inkscape:version="0.91 r13725" sodipodi:docname="javascript.svg" xmlns:cc="http://creativecommons.org/ns#" xmlns:dc="http://purl.org/dc/elements/1.1/" xmlns:inkscape="http://www.inkscape.org/namespaces/inkscape" xmlns:rdf="http://www.w3.org/1999/02/22-rdf-syntax-ns#" xmlns:sodipodi="http://sodipodi.sourceforge.net/DTD/sodipodi-0.dtd" xmlns:svg="http://www.w3.org/2000/svg"
	 xmlns="http://www.w3.org/2000/svg" xmlns:xlink="http://www.w3.org/1999/xlink" x="0px" y="0px" viewBox="0 0 181 209"
	 style="enable-background:new 0 0 181 209;" xml:space="preserve">
<style type="text/css">
	.st0{fill:#FF4444;}
	.st1{fill:#FFFFFF;}
</style>
<polygon id="polygon3" class="st0" points="181,156.7 90.5,209 0,156.7 0,52.2 90.5,0 181,52.2 "/>
<g id="surface1">
	<path class="st1" d="M55.8,78.4V94h22.4v44.8h11.2V78.4H55.8z"/>
	<path class="st1" d="M126.2,78.4V94h-22.4v44.8H92.6V78.4H126.2z"/>
	<path class="st1" d="M91,21.8c-1.7,0-3.1,1.4-3.1,3.1c0,1.7,1.4,3.1,3.1,3.1s3.1-1.4,3.1-3.1C94.1,23.2,92.7,21.8,91,21.8
		 M23.1,110.2c-1.7,0-3.1-1.4-3.1-3.1V62.3L82,26.5c-0.1-0.5-0.2-1.1-0.2-1.7c0-5.1,4.1-9.2,9.2-9.2s9.2,4.1,9.2,9.2S96.1,34,91,34
		c-2.3,0-4.4-0.8-6-2.2l-58.8,34v41.3C26.2,108.8,24.8,110.2,23.1,110.2"/>
	<path class="st1" d="M158.9,139.4c-1.1,0-2.1,0.6-2.7,1.5c-0.8,1.5-0.3,3.3,1.1,4.2c1.5,0.8,3.3,0.3,4.2-1.1
		c0.8-1.5,0.3-3.3-1.1-4.2C159.9,139.5,159.4,139.4,158.9,139.4 M158.9,151.6c-1.6,0-3.1-0.4-4.6-1.2c-4.4-2.5-5.9-8.2-3.4-12.6
		c1.1-1.9,2.8-3.3,4.9-4.1V65.8L120,45.1c-1.5-0.8-2-2.7-1.1-4.2c0.9-1.5,2.7-2,4.2-1.1l38.9,22.4v71.5c0.5,0.2,1,0.4,1.5,0.7
		c4.4,2.5,5.9,8.2,3.4,12.6C165.1,150,162,151.6,158.9,151.6"/>
	<path class="st1" d="M23.1,139.4c-0.5,0-1,0.1-1.5,0.4c-1.5,0.8-2,2.7-1.1,4.2c0.8,1.5,2.7,2,4.2,1.1c1.5-0.8,2-2.7,1.1-4.2
		C25.2,139.9,24.2,139.4,23.1,139.4z M91,185.1l-61.9-35.7c-0.4,0.4-0.9,0.7-1.4,1c-4.4,2.5-10,1-12.6-3.4c-2.5-4.4-1-10,3.4-12.6
		c4.4-2.5,10-1,12.6,3.4c1.1,2,1.5,4.2,1.1,6.3l58.8,34l35.8-20.7c1.5-0.8,3.3-0.3,4.2,1.1c0.8,1.5,0.3,3.3-1.1,4.2L91,185.1z"/>
</g>
</svg>
