<?xml version="1.0" encoding="UTF-8" standalone="no"?>
<svg
   xmlns:dc="http://purl.org/dc/elements/1.1/"
   xmlns:cc="http://creativecommons.org/ns#"
   xmlns:rdf="http://www.w3.org/1999/02/22-rdf-syntax-ns#"
   xmlns:svg="http://www.w3.org/2000/svg"
   xmlns="http://www.w3.org/2000/svg"
   viewBox="0 0 138.66667 138.66667"
   height="138.66667"
   width="138.66667"
   xml:space="preserve"
   id="svg2"
   version="1.1"><metadata
     id="metadata8"><rdf:RDF><cc:Work
         rdf:about=""><dc:format>image/svg+xml</dc:format><dc:type
           rdf:resource="http://purl.org/dc/dcmitype/StillImage" /></cc:Work></rdf:RDF></metadata><defs
     id="defs6"><clipPath
       id="clipPath26"
       clipPathUnits="userSpaceOnUse"><path
         id="path24"
         d="M 0,104 H 104 V 0 H 0 Z" /></clipPath></defs><g
     transform="matrix(1.3333333,0,0,-1.3333333,0,138.66667)"
     id="g10"><g
       transform="translate(31.6882,65.3194)"
       id="g12"><path
         id="path14"
         style="fill:#ff4444;fill-opacity:1;fill-rule:nonzero;stroke:none"
         d="m 0,0 v -9.048 h 12.926 v -25.851 h 6.463 V 0 Z" /></g><g
       transform="translate(72.3118,65.3194)"
       id="g16"><path
         id="path18"
         style="fill:#ff4444;fill-opacity:1;fill-rule:nonzero;stroke:none"
         d="m 0,0 v -9.048 h -12.926 v -25.851 h -6.463 V 0 Z" /></g><g
       id="g20"><g
         clip-path="url(#clipPath26)"
         id="g22"><g
           transform="translate(52,97.968)"
           id="g28"><path
             id="path30"
             style="fill:#ff4444;fill-opacity:1;fill-rule:nonzero;stroke:none"
             d="m 0,0 c -0.975,0 -1.768,-0.793 -1.768,-1.768 0,-0.975 0.793,-1.768 1.768,-1.768 0.975,0 1.768,0.793 1.768,1.768 C 1.768,-0.793 0.975,0 0,0 m -39.179,-51.038 c -0.976,0 -1.768,0.792 -1.768,1.768 v 25.903 l 35.732,20.63 c -0.058,0.314 -0.089,0.638 -0.089,0.969 0,2.925 2.379,5.304 5.304,5.304 2.925,0 5.304,-2.379 5.304,-5.304 0,-2.925 -2.379,-5.304 -5.304,-5.304 -1.314,0 -2.517,0.48 -3.445,1.274 L -37.411,-25.409 V -49.27 c 0,-0.976 -0.792,-1.768 -1.768,-1.768" /></g><g
           transform="translate(91.182,30.1077)"
           id="g32"><path
             id="path34"
             style="fill:#ff4444;fill-opacity:1;fill-rule:nonzero;stroke:none"
             d="m 0,0 c -0.611,0 -1.207,-0.317 -1.534,-0.884 -0.488,-0.844 -0.197,-1.927 0.647,-2.415 0.844,-0.487 1.928,-0.197 2.415,0.647 0.488,0.845 0.197,1.928 -0.647,2.415 C 0.603,-0.076 0.3,0 0,0 m -0.012,-7.071 c -0.899,0 -1.81,0.229 -2.643,0.71 -2.533,1.462 -3.404,4.713 -1.941,7.245 0.639,1.107 1.632,1.93 2.825,2.349 v 39.219 l -20.664,11.93 c -0.846,0.488 -1.136,1.57 -0.648,2.415 0.489,0.846 1.57,1.135 2.416,0.647 L 1.765,44.493 V 3.235 C 2.068,3.127 2.364,2.99 2.649,2.826 5.182,1.363 6.053,-1.887 4.59,-4.42 3.609,-6.119 1.822,-7.071 -0.012,-7.071" /></g><g
           transform="translate(12.818,30.1077)"
           id="g36"><path
             id="path38"
             style="fill:#ff4444;fill-opacity:1;fill-rule:nonzero;stroke:none"
             d="m 0,0 c -0.3,0 -0.603,-0.076 -0.881,-0.237 -0.844,-0.487 -1.135,-1.57 -0.647,-2.415 0.487,-0.844 1.571,-1.134 2.415,-0.647 v 0 c 0.844,0.488 1.135,1.571 0.647,2.415 C 1.207,-0.317 0.611,0 0,0 M 1.771,-4.83 H 1.772 Z M 39.182,-26.429 3.45,-5.799 C 3.207,-6.007 2.942,-6.196 2.655,-6.361 v 0 c -2.533,-1.463 -5.783,-0.592 -7.245,1.941 -1.463,2.533 -0.592,5.783 1.941,7.246 2.533,1.462 5.783,0.591 7.245,-1.942 0.657,-1.137 0.843,-2.42 0.62,-3.62 l 33.966,-19.61 20.664,11.93 c 0.846,0.489 1.927,0.199 2.416,-0.647 0.488,-0.845 0.198,-1.927 -0.648,-2.415 z" /></g></g></g></g></svg>