<svg id="Layer_1" data-name="Layer 1" xmlns="http://www.w3.org/2000/svg" xmlns:xlink="http://www.w3.org/1999/xlink" viewBox="0 0 735 852"><defs><style>.cls-1,.cls-5{fill:#de5a27;}.cls-2{fill:#fff;}.cls-3{clip-path:url(#clip-path);}.cls-4{fill:#db1f26;}.cls-5{opacity:0.25;}.cls-6{fill:#e6b35a;}.cls-7{fill:#a51d21;}</style><clipPath id="clip-path"><polygon class="cls-1" points="369.5 7.4 728.2 214.5 728.2 636.6 369.5 845 2.8 636.6 2.8 214.5 35.3 222.2 367.5 35.8 369.5 7.4"/></clipPath></defs><title>RStudio_Hex 2016 v7 outlines</title><path class="cls-2" d="M705.6,196.2L427.8,35.8,367.5,1,307.2,35.8,29.4,196.2,0.1,213.1V637.4l29.3,16.9L310.6,816.7l56.9,32.8,56.9-32.8L705.6,654.3l29.3-16.9V213.1Zm0,425.3L367.5,816.7,29.4,621.5V231L367.5,35.8h0L705.6,231V621.5Z"/><polygon class="cls-1" points="369.5 7.4 728.2 214.5 728.2 636.6 369.5 845 2.8 636.6 2.8 214.5 35.3 222.2 367.5 35.8 369.5 7.4"/><g class="cls-3"><circle class="cls-4" cx="365.5" cy="437.4" r="442.1"/><ellipse class="cls-5" cx="366.9" cy="105.8" rx="315.2" ry="234.6"/></g><path class="cls-6" d="M367,633.9l0.9-.9h-0.3Z"/><path class="cls-2" d="M236,289.1v27.6h30v15.9H236v62.1c0,14.3,4,22.4,15.7,22.4,5.7,0,9-.5,12.1-1.4l1,15.7c-4,1.7-10.5,3.1-18.6,3.1-9.8,0-17.6-3.3-22.6-9s-8.1-16.4-8.1-30V332.6H197.7V316.7h17.9V295.5Z"/><path class="cls-2" d="M293.6,385.1c0.5,28.3,18.6,40,39.5,40,15,0,24-2.6,31.9-6l3.6,15c-7.4,3.3-20,7.4-38.3,7.4-35.5,0-56.6-23.6-56.6-58.3s20.5-62.1,54-62.1c37.6,0,47.6,33.1,47.6,54.3a78.9,78.9,0,0,1-.7,9.8H293.6Zm61.4-15c0.2-13.3-5.5-34-29-34-21.2,0-30.5,19.5-32.1,34H355Z"/><path class="cls-2" d="M390.7,442.4c6.2,4,17.1,8.3,27.6,8.3,15.2,0,22.4-7.6,22.4-17.1s-6-15.5-21.4-21.2c-20.7-7.4-30.5-18.8-30.5-32.6,0-18.6,15-33.8,39.7-33.8,11.7,0,21.9,3.3,28.3,7.1l-5.2,15.2a44.8,44.8,0,0,0-23.6-6.7c-12.4,0-19.3,7.1-19.3,15.7s6.9,13.8,21.9,19.5c20,7.6,30.2,17.6,30.2,34.7,0,20.2-15.7,34.7-43.1,34.7-12.6,0-24.3-3.3-32.4-8.1Z"/><path class="cls-2" d="M505.4,264.1v27.6h30v15.9h-30v62.1c0,14.3,4,22.4,15.7,22.4,5.7,0,9-.5,12.1-1.4l1,15.7c-4,1.7-10.5,3.1-18.6,3.1-9.8,0-17.6-3.3-22.6-9s-8.1-16.4-8.1-30V307.6H467.1V291.7h17.9V270.5Z"/><path class="cls-2" d="M219.8,475.3v27.6h30v15.9h-30v62.1c0,14.3,4,22.4,15.7,22.4,5.7,0,9-.5,12.1-1.4l1,15.7c-4,1.7-10.5,3.1-18.6,3.1-9.8,0-17.6-3.3-22.6-9s-8.1-16.4-8.1-30V518.8H181.5V502.9h17.9V481.7Z"/><path class="cls-2" d="M265.7,449.1h20.9V521h0.5a38.9,38.9,0,0,1,15-14.8,43.1,43.1,0,0,1,21.4-6c15.5,0,40.2,9.5,40.2,49.3v68.5H342.9V551.9c0-18.6-6.9-34.3-26.7-34.3-13.6,0-24.3,9.5-28.1,20.9-1.2,2.9-1.4,5.9-1.4,10v69.5H265.7v-169Z"/><path class="cls-2" d="M471.1,590.4c0,10,.5,19.8,1.9,27.6H454l-1.7-14.5h-0.7c-6.4,9-18.8,17.1-35.2,17.1-23.3,0-35.2-16.4-35.2-33.1,0-27.8,24.8-43.1,69.3-42.8v-2.4c0-9.5-2.6-26.7-26.2-26.7a57.4,57.4,0,0,0-30,8.6l-4.8-13.8c9.5-6.2,23.3-10.2,37.8-10.2,35.2,0,43.8,24,43.8,47.1v43.1Zm-20.2-31.2c-22.8-.5-48.8,3.6-48.8,25.9,0,13.6,9,20,19.8,20,15,0,24.5-9.5,27.8-19.3a21.9,21.9,0,0,0,1.2-6.7v-20Z"/><path class="cls-2" d="M521.6,475.3v27.6h30v15.9h-30v62.1c0,14.3,4,22.4,15.7,22.4,5.7,0,9-.5,12.1-1.4l1,15.7c-4,1.7-10.5,3.1-18.6,3.1-9.8,0-17.6-3.3-22.6-9s-8.1-16.4-8.1-30V518.8H483.3V502.9h17.9V481.7Z"/><path class="cls-7" d="M705.6,196.2L427.8,35.8,367.5,1h0V35.8h0L705.6,231V621.5L367.5,816.7,29.4,621.5V231l10.9-6.1c0.1-11.8-3.2-21.6-2.8-33.4l-8.1,4.7L0.1,213.1V637.4l29.3,16.9L310.6,816.7l56.9,32.8,56.9-32.8L705.6,654.3l29.3-16.9V213.1Z"/><path class="cls-2" d="M365.5,797.3l4.5,4.5,2.7,2.9h0.1c-0.4-1.2-.7-2.5-1-3.9l-1.4-6.3,1.6-.9,4.7,4.3,2.9,2.9h0.1a36.4,36.4,0,0,1-1.2-3.9l-1.6-6.1,1.9-1.1,2.7,12.4-1.7,1-4.5-4.1a40.8,40.8,0,0,1-2.9-2.9h0a35.4,35.4,0,0,1,1.1,4l1.2,5.9-1.7,1-9.2-8.6Z"/><path class="cls-2" d="M381.7,787.9l4.5,4.5,2.7,2.9h0.1c-0.4-1.2-.7-2.5-1-3.9l-1.4-6.3,1.6-.9,4.7,4.3,2.9,2.9h0.1a36.3,36.3,0,0,1-1.2-3.9l-1.6-6.1,1.9-1.1,2.7,12.4-1.7,1-4.5-4.1a40.3,40.3,0,0,1-2.9-2.9h0a35.3,35.3,0,0,1,1.1,4l1.2,5.9-1.7,1-9.2-8.6Z"/><path class="cls-2" d="M397.8,778.5l4.5,4.5,2.7,2.9h0.1c-0.4-1.2-.7-2.5-1-3.9l-1.4-6.3,1.6-.9L409,779l2.9,2.9h0.1a36.4,36.4,0,0,1-1.2-3.9l-1.6-6.1,1.9-1.1,2.7,12.4-1.7,1-4.5-4.1a40.5,40.5,0,0,1-2.9-2.9h0a35,35,0,0,1,1.1,4l1.2,5.9-1.7,1-9.2-8.6Z"/><path class="cls-2" d="M419.2,780.4a1.6,1.6,0,1,1,.5-2.1,1.5,1.5,0,0,1-.5,2.1h0Z"/><path class="cls-2" d="M418.5,770.8l-2-3.2,1.7-1,1.3,2h0.1a3.6,3.6,0,0,1,1.6-4l0.6-.2,1,1.8-0.7.3a3.1,3.1,0,0,0-1.1,3.9l0.4,0.9,3.2,5.6-1.9,1.1Z"/><path class="cls-2" d="M428.4,772.1a5.8,5.8,0,0,0,2.9-.7c1.4-.8,1.6-1.9,1.1-2.7s-1.4-1.1-3.1-.8-3.8-.1-4.5-1.4-0.4-3.9,1.8-5.2a6,6,0,0,1,2.9-.8l0.3,1.7a4.7,4.7,0,0,0-2.5.6,1.8,1.8,0,0,0-.9,2.4c0.5,0.9,1.4.9,3,.6s3.7,0,4.6,1.6,0.4,4-2.1,5.4a6.9,6.9,0,0,1-3.4,1Z"/><path class="cls-2" d="M433.1,754.6l1.5,2.5,2.7-1.6,0.8,1.4-2.7,1.6,3.3,5.6c0.8,1.3,1.6,1.8,2.6,1.2l1-.8,0.9,1.4a5.3,5.3,0,0,1-1.5,1.3,3.1,3.1,0,0,1-2.5.4,4.5,4.5,0,0,1-2.3-2.3l-3.3-5.7-1.6.9-0.8-1.4,1.6-.9-1.1-1.9Z"/><path class="cls-2" d="M452.6,756.8l1.7,2.8-1.7,1-1.1-1.6h0a4.6,4.6,0,0,1-2.3,4c-1.6,1-4.1,1.2-6.3-2.5l-3.6-6.1,1.9-1.1,3.4,5.8c1.2,2,2.5,3,4.3,2a3.2,3.2,0,0,0,1.5-3.2,3.2,3.2,0,0,0-.4-1.1l-3.7-6.4,1.9-1.1Z"/><path class="cls-2" d="M457.5,737.2l7.4,12.6,1.7,2.7-1.7,1-1.1-1.8h0a4.5,4.5,0,0,1-2.4,4.1c-2.5,1.5-5.7.5-7.6-2.7s-1.1-6.9,1.4-8.3a4,4,0,0,1,4.1-.2h0l-3.6-6.2Zm3.4,10.2-0.6-.7a3.2,3.2,0,0,0-4-.6c-2,1.1-2.1,3.6-.8,5.9s3.3,3.3,5.3,2.1a3.3,3.3,0,0,0,1.5-3.9,3.8,3.8,0,0,0-.4-0.9Z"/><path class="cls-2" d="M463.9,736.1a1.4,1.4,0,0,1-2.4,1.4,1.3,1.3,0,0,1,.5-1.9A1.3,1.3,0,0,1,463.9,736.1Zm5.7,14.6-6.1-10.5,1.9-1.1,6.1,10.5Z"/><path class="cls-2" d="M481,736.9c2.3,3.9.6,7.1-2,8.6s-6.2.8-8.1-2.5-0.9-6.9,2-8.6S479.1,733.7,481,736.9Zm-8.2,4.9c1.3,2.3,3.7,3.2,5.5,2.2s2.2-3.6.8-5.9-3.2-3.5-5.5-2.2S471.6,739.9,472.8,741.9Z"/><path class="cls-2" d="M486.9,740.9a1.6,1.6,0,1,1,.5-2.1,1.5,1.5,0,0,1-.5,2.1h0Z"/><path class="cls-2" d="M497.7,733.8a8,8,0,0,1-2.6,2.4c-3.2,1.8-6.5.9-8.3-2.3a6.1,6.1,0,0,1,2.4-8.8,7.3,7.3,0,0,1,2.9-1l0.4,1.7a5.1,5.1,0,0,0-2.5.8c-2.4,1.4-2.7,3.9-1.4,6.1s3.8,3,5.9,1.8a6.2,6.2,0,0,0,2-1.9Z"/><path class="cls-2" d="M506.4,722.2c2.3,3.9.6,7.1-2,8.6s-6.2.8-8.1-2.5-0.9-6.9,2-8.6S504.5,719,506.4,722.2Zm-8.2,4.9c1.3,2.3,3.7,3.2,5.5,2.2s2.2-3.6.8-5.9-3.2-3.5-5.5-2.2S497,725.1,498.1,727.1Z"/><path class="cls-2" d="M507.4,718.5l-1.7-2.8,1.7-1,1.1,1.6h0.1a4.2,4.2,0,0,1,2.2-3.8,3.6,3.6,0,0,1,4.2.4h0a5,5,0,0,1,.4-2,4.1,4.1,0,0,1,1.9-2.1c1.4-.8,4-1.1,6.1,2.5l3.6,6.2-1.9,1.1-3.4-5.9c-1.2-2-2.6-2.8-4.1-1.9a2.8,2.8,0,0,0-1.2,3,3.6,3.6,0,0,0,.4,1l3.8,6.5-1.9,1.1-3.6-6.3c-1-1.7-2.4-2.4-3.9-1.6a3,3,0,0,0-1.2,3.3,3.1,3.1,0,0,0,.4,1l3.7,6.3-1.9,1.1Z"/><path class="cls-7" d="M22.3,220.5l20.2,5.6L414,346.3h0l2.8,0.8,23.6-21.3-0.6-2.8-66.3-21.4L68.3,202.8,37.5,191.5,14,212.5C20.2,220,16.4,212.8,22.3,220.5Z"/></svg>