<svg id="Layer_1" data-name="Layer 1" xmlns="http://www.w3.org/2000/svg" xmlns:xlink="http://www.w3.org/1999/xlink" viewBox="0 0 735 852"><defs><style>.cls-1{fill:none;}.cls-2{fill:#dea449;}.cls-3{clip-path:url(#clip-path);}.cls-4{fill:#ed7d15;}.cls-5{opacity:0.25;fill:url(#linear-gradient);}.cls-6{fill:#ac5d12;}.cls-7{fill:#9e4a11;}.cls-8{fill:#d36015;}.cls-9{fill:#fff;}.cls-10{fill:#50280b;}.cls-11{fill:#6e350e;}</style><clipPath id="clip-path"><polygon class="cls-1" points="369.6 7 728.3 214.1 728.3 636.3 369.6 844.7 2.9 636.3 2.9 214.1 369.6 7"/></clipPath><linearGradient id="linear-gradient" x1="366.34" y1="-122.75" x2="367.64" y2="340.77" gradientUnits="userSpaceOnUse"><stop offset="0" stop-color="#fff" stop-opacity="0.83"/><stop offset="0.56" stop-color="#fff" stop-opacity="0.37"/><stop offset="1" stop-color="#fff" stop-opacity="0"/></linearGradient></defs><title>RStudio_Hex 2016 v7 outlines</title><path class="cls-2" d="M168.2,672.6l0.9-.9h-0.3Z"/><g class="cls-3"><circle class="cls-4" cx="365.6" cy="437.1" r="442.1"/><ellipse class="cls-5" cx="367" cy="105.4" rx="315.2" ry="234.6"/></g><path class="cls-6" d="M705.7,195.8L427.9,35.5,367.6,0.6,307.3,35.5,29.5,195.9,0.2,212.8V637l29.3,16.9L310.7,816.3l56.9,32.8,56.9-32.8L705.7,653.9,735,637V212.8Zm0,425.3L367.6,816.3,29.5,621.1V230.7L367.6,35.5h0L705.7,230.7V621.1Z"/><path class="cls-2" d="M367.1,603.9l0.9-.9h-0.3Z"/><path class="cls-7" d="M342.5,576.6h47.4a0.8,0.8,0,0,1,.2.8q0,8,0,16a1,1,0,0,1-.2.7h0a1.6,1.6,0,0,1-1.1.2H343.6a1.7,1.7,0,0,1-1.1-.2h-0.1c-0.2-5.7-.1-11.5-0.1-17.2Z"/><path class="cls-8" d="M440.5,573.6H393.3a0.8,0.8,0,0,1-.2-0.8q0-8,0-16a1.2,1.2,0,0,1,.1-0.7h0a2.5,2.5,0,0,1,1.3-.1h45a2,2,0,0,1,1.3.2h0a0.9,0.9,0,0,1,.2.4q0,8.2,0,16.4a1,1,0,0,1-.1.4h0Z"/><path class="cls-8" d="M339.1,573.6H291.9l-0.3-.3h0a5.6,5.6,0,0,1-.1-2.2q0-6.8,0-13.6a2.4,2.4,0,0,1,.2-1.4h0a2.1,2.1,0,0,1,1.3-.2h45a2.3,2.3,0,0,1,1.3.1h0a3.2,3.2,0,0,1,.1,1.6q0,7.3,0,14.5A1.7,1.7,0,0,1,339.1,573.6Z"/><path class="cls-8" d="M389.7,573.6H342.7a0.9,0.9,0,0,1-.5-1c0-5.4,0-10.7,0-16.1a1,1,0,0,1,.1-0.4h0a2.2,2.2,0,0,1,1.3-.1h45a2.2,2.2,0,0,1,1.3.1h0a2.1,2.1,0,0,1,.1,1.3q0,7.3,0,14.6C390.1,572.6,390.4,573.2,389.7,573.6Z"/><path class="cls-9" d="M393.3,594.1a22.7,22.7,0,0,1-.1-3.4q0-6.2,0-12.4a2.1,2.1,0,0,1,.3-1.7,1.9,1.9,0,0,1,1.5-.3h43.8a1.8,1.8,0,0,1,1.5.3,2,2,0,0,1,.3,1.4q0,7.3,0,14.7a2.3,2.3,0,0,1-.3,1.4,2,2,0,0,1-1.6.3H394.9A1.9,1.9,0,0,1,393.3,594.1Z"/><path class="cls-9" d="M291.6,577.5a1.5,1.5,0,0,1,.3-0.9,1.8,1.8,0,0,1,1.5-.3h43.8a1.9,1.9,0,0,1,1.5.3,1.5,1.5,0,0,1,.3,1.1q0,8,0,16.1v0.3a1.9,1.9,0,0,1-1.5.3H293.2c-1.7,0-1.9-.2-1.9-1.8,0-4.6,0-9.1,0-13.7A2,2,0,0,1,291.6,577.5Z"/><path class="cls-9" d="M292.8,638.4h45.2a0.2,0.2,0,0,1,.3,0h0.6a2,2,0,0,1,.3,1.4q0,7.3,0,14.6c0,1.5,0,1.5-1.5,1.5H293.8a7.5,7.5,0,0,0-1.9,0c-0.7-.3-0.6-1-0.6-1.5q0-7.2,0-14.4c0-.6-0.1-1.2.6-1.5h0.6A0.2,0.2,0,0,1,292.8,638.4Z"/><path class="cls-9" d="M393.6,638.4h46.9a2.7,2.7,0,0,1,.3,1.7q0,7.7,0,15.4a0.9,0.9,0,0,1-.3.5H396.4l-2.8-.2h0a1.5,1.5,0,0,1-.7-1.5q0-7.3,0-14.7a2.9,2.9,0,0,1,.3-1.1A0.3,0.3,0,0,1,393.6,638.4Z"/><path class="cls-9" d="M291.6,597.5h46.3c1.2,0,1.2,0,1.2,1.2q0,6.3,0,12.6c0,1.1,0,2.3,0,3.4a2.4,2.4,0,0,1-1.8.4H293.4c-2,0-2.2-.2-2.2-2.2q0-6.8,0-13.7A2.1,2.1,0,0,1,291.6,597.5Z"/><path class="cls-9" d="M393.3,597.4h46c1.5,0,1.5,0,1.5,1.5q0,7.2,0,14.4c0,1.4,0,1.4-1.4,1.4H394.7c-1.4,0-1.4,0-1.4-1.4q0-7.9,0-15.9h0Z"/><path class="cls-9" d="M339.1,676.4H293a1.8,1.8,0,0,1-1.4-.3,1.5,1.5,0,0,1-.3-1.3q0-7.1,0-14.2a1.6,1.6,0,0,1,.4-1.4h47.5v17.2h0Z"/><path class="cls-9" d="M339.1,618c0,1.9.1,3.7,0.1,5.6,0,3.8,0,7.7,0,11.5l-0.2.2a3.7,3.7,0,0,1-1.5.1H293.3a5,5,0,0,1-1.5-.1,1.3,1.3,0,0,1-.6-1.4q0-7.3,0-14.5c0-1.5.3-1.8,1.9-1.8h43.9A2.6,2.6,0,0,1,339.1,618Z"/><path class="cls-9" d="M440.8,659.3q0,7.6,0,15.1c0,0.3,0,.7,0,1a0.8,0.8,0,0,1-1,.9H393.3V659.2l0.2-.2a4.5,4.5,0,0,1,1.5-.1h44A2,2,0,0,1,440.8,659.3Z"/><path class="cls-9" d="M339.1,697H291.6a1.4,1.4,0,0,1-.4-1.2q0-7.3,0-14.6a1.3,1.3,0,0,1,.3-1.1,1.9,1.9,0,0,1,1.4-.3h46.1V697h0Z"/><path class="cls-9" d="M393.3,679.8h46.1c1.4,0,1.4,0,1.4,1.4q0,7.3,0,14.6c0,1.3,0,1.3-1.4,1.3H394.5c-1.3,0-1.3,0-1.3-1.2,0-5.3,0-10.7,0-16h0Z"/><path class="cls-9" d="M393.3,635.1c0-5.7-.1-11.5,0-17.2a1.9,1.9,0,0,1,1.5-.3h44.3c1.8,0,2,.2,2,1.9q0,7,0,14c0,1.7-.2,1.9-1.9,1.9H394.7A1.9,1.9,0,0,1,393.3,635.1Z"/><path class="cls-10" d="M366.1,676.7H343.7c-1.3,0-1.3-.1-1.3-1.4q0-7.5,0-15c0-1.2.1-1.3,1.2-1.3h45.3c1,0,1.1.1,1.1,1.1s0,4.9,0,7.3,0,4.9,0,7.3,0,2-1.9,2h-22Z"/><path class="cls-7" d="M390,597.4v17.2H344.3c-2,0-1.8.1-1.9-1.8q0-6.8,0-13.7c0-.3,0-0.7,0-1a0.7,0.7,0,0,1,.8-0.8H390Z"/><path class="cls-10" d="M389.9,697.2H342.5a34.1,34.1,0,0,1-.1-4.3c0-4,0-7.9,0-11.9,0-1.3,0-1.3,1.3-1.3h45c1.3,0,1.3,0,1.3,1,0,5.3,0,10.6,0,15.9A4.7,4.7,0,0,1,389.9,697.2Z"/><path class="cls-11" d="M342.5,635.4c0-.4-0.1-0.8-0.1-1.2q0-7.8,0-15.5c0-.2,0-0.5.1-0.7h47.5c0,5.4,0,10.9,0,16.3,0,1-.1,1.1-1.1,1.1H342.5Z"/><path class="cls-11" d="M389.9,638.5c0,3.6.1,7.1,0.1,10.7s0,4.5-.1,6.8H342.4c0-4.4-.1-8.9-0.1-13.3,0-1.4,0-2.8.1-4.1h47.5Z"/><path class="cls-9" d="M247,370v20.6h21.1v11.9H247v46.4c0,10.7,2.9,16.7,11.1,16.7a26.1,26.1,0,0,0,8.6-1.1l0.7,11.7a33.8,33.8,0,0,1-13.1,2.3c-6.9,0-12.4-2.5-15.9-6.8s-5.7-12.3-5.7-22.4V402.5H220V390.6h12.6V374.8Z"/><path class="cls-9" d="M295.8,366.4a9,9,0,0,1-9.4,9.6c-5.2,0-8.9-4.3-8.9-9.6s3.9-9.8,9.2-9.8S295.8,360.9,295.8,366.4ZM279.4,476.6v-86h14.8v86H279.4Z"/><path class="cls-9" d="M383.4,350.4v104c0,7.6.2,16.4,0.7,22.2H370.8l-0.7-14.9h-0.3c-4.5,9.6-14.4,16.9-27.7,16.9-19.6,0-34.7-17.6-34.7-43.7-0.2-28.6,16.6-46.2,36.4-46.2,12.4,0,20.8,6.2,24.5,13.2h0.3V350.4h14.8Zm-14.8,75.2a29.2,29.2,0,0,0-.7-6.6c-2.2-10-10.2-18.1-21.3-18.1-15.3,0-24.3,14.2-24.3,33.2,0,17.4,8.1,31.8,24,31.8,9.9,0,19-6.9,21.6-18.7a28.8,28.8,0,0,0,.7-6.8V425.6Z"/><path class="cls-9" d="M407.9,390.6l17.8,50.8c1.8,5.7,3.9,12.4,5.2,17.6h0.3c1.5-5.2,3.2-11.7,5.2-18l16.1-50.5h15.6l-22.1,61.3c-10.6,29.5-17.8,44.6-27.8,53.9-7.2,6.8-14.4,9.4-18.1,10.1l-3.7-13.2a38.5,38.5,0,0,0,12.9-7.6,47.2,47.2,0,0,0,12.4-17.4,11.7,11.7,0,0,0,1.2-3.7,14.3,14.3,0,0,0-1-4.1l-30-79.3h16.1Z"/><path class="cls-9" d="M476.1,417.5c0-10.1-.2-18.8-0.7-26.8h12.9l0.5,16.9h0.7c3.7-11.6,12.6-18.8,22.5-18.8a15.1,15.1,0,0,1,4.2.5v14.8a21,21,0,0,0-5-.5c-10.4,0-17.8,8.4-19.8,20.1a46.6,46.6,0,0,0-.7,7.3v45.9H476.1V417.5Z"/><path class="cls-8" d="M314.2,233.2h-0.5a2.8,2.8,0,0,1-1.3.1H268.3a2.2,2.2,0,0,1-1.3-.1h0l-0.3-.3q0-8.4,0-16.9l0.3-.3h47.2a0.8,0.8,0,0,1,.2.8q0,7.9,0,15.9A0.8,0.8,0,0,1,314.2,233.2Z"/><path class="cls-7" d="M317.6,215.7h46.9l0.3,0.3h0a2.6,2.6,0,0,1,.1,1.4q0,7,0,14a2.7,2.7,0,0,1-.1,1.4h0l-0.3.3h0a2.3,2.3,0,0,1-1.3.1H318.9a2.2,2.2,0,0,1-1.3-.1h0l-0.3-.3h0a0.4,0.4,0,0,1,0-.6v-0.3a12.4,12.4,0,0,1-.1-3.4c0-3.5,0-6.9,0-10.4a2.7,2.7,0,0,1,.1-1.4v-0.3a0.4,0.4,0,0,1,0-.6h0Z"/><path class="cls-9" d="M314,236.3l0.3,0.2a1.6,1.6,0,0,1,.4,1.4q0,7.1,0,14.2a1.6,1.6,0,0,1-.4,1.4l-0.3.2a0.9,0.9,0,0,1-.8.2H269a3.4,3.4,0,0,1-1.6-.2,1.6,1.6,0,0,1-.4-1.4q0-7.4,0-14.7a1.6,1.6,0,0,1,.4-1.4,3.4,3.4,0,0,1,1.6-.2h44.2A0.9,0.9,0,0,1,314,236.3Z"/><path class="cls-9" d="M367.9,236.6l0.3-.3a0.9,0.9,0,0,1,.8-0.2h44.3a2.9,2.9,0,0,1,1.5.2,1.5,1.5,0,0,1,.4,1.4q0,7.4,0,14.7a1.6,1.6,0,0,1-.4,1.4,2.9,2.9,0,0,1-1.5.2H368.9a0.9,0.9,0,0,1-.8-0.2l-0.3-.3a1.6,1.6,0,0,1-.3-1.4q0-7,0-14A1.6,1.6,0,0,1,367.9,236.6Z"/><path class="cls-9" d="M465.3,236.3a1.6,1.6,0,0,1,.4,1.4q0,7.4,0,14.7a1.6,1.6,0,0,1-.4,1.4,4.3,4.3,0,0,1-1.9.2H419.6a1,1,0,0,1-.8-0.2,1.8,1.8,0,0,1-.3-1.4q0-7.3,0-14.7a1.8,1.8,0,0,1,.3-1.4,1,1,0,0,1,.8-0.2h44A3.8,3.8,0,0,1,465.3,236.3Z"/><path class="cls-9" d="M314.2,274l-0.3.2a0.9,0.9,0,0,1-.8.2H269a3.4,3.4,0,0,1-1.6-.2,1.6,1.6,0,0,1-.4-1.4q0-7.4,0-14.7a1.6,1.6,0,0,1,.4-1.4,3.4,3.4,0,0,1,1.6-.2h44.2a0.9,0.9,0,0,1,.8.2l0.3,0.2a1.6,1.6,0,0,1,.4,1.4q0,7.1,0,14.2A1.6,1.6,0,0,1,314.2,274Z"/><path class="cls-9" d="M367.9,257.1l0.3-.3a0.9,0.9,0,0,1,.8-0.2h44.3a2.9,2.9,0,0,1,1.5.2,1.5,1.5,0,0,1,.4,1.4q0,7.4,0,14.7a1.6,1.6,0,0,1-.4,1.4,2.9,2.9,0,0,1-1.5.2H368.9a0.9,0.9,0,0,1-.8-0.2l-0.3-.3a1.6,1.6,0,0,1-.3-1.4q0-7,0-14A1.6,1.6,0,0,1,367.9,257.1Z"/><path class="cls-9" d="M418.7,274.2a1.8,1.8,0,0,1-.3-1.4q0-7.3,0-14.7a1.8,1.8,0,0,1,.3-1.4,1,1,0,0,1,.8-0.2h44a3.8,3.8,0,0,1,1.8.2,1.6,1.6,0,0,1,.4,1.4q0,7.4,0,14.7a1.6,1.6,0,0,1-.4,1.4,4.3,4.3,0,0,1-1.9.2H419.6A1,1,0,0,1,418.7,274.2Z"/><path class="cls-9" d="M317.6,274.2a21.3,21.3,0,0,1-.1-3.3q0-6.2,0-12.5c0-.5.1-1.1,0.1-1.6a0.9,0.9,0,0,1,.9-0.2h45a1,1,0,0,1,1,.2c0,0.7.1,1.5,0.1,2.2q0,6.8,0,13.7c0,0.5-.1,1-0.1,1.5a1,1,0,0,1-1,.2h-45A1,1,0,0,1,317.6,274.2Z"/><path class="cls-9" d="M317.6,253.7a17.8,17.8,0,0,1-.1-3q0-6.4,0-12.8c0-.5.1-1.1,0.1-1.6a0.9,0.9,0,0,1,.9-0.2h45a1,1,0,0,1,1,.2c0,0.7.1,1.5,0.1,2.2q0,6.8,0,13.7c0,0.5-.1,1-0.1,1.5a1,1,0,0,1-1,.2h-45A1,1,0,0,1,317.6,253.7Z"/><path class="cls-11" d="M415.1,215.8l0.3,0.3q0,8.4,0,16.9a1.7,1.7,0,0,1-1.3.3H367.9q0-8.2-.1-16.5a1.5,1.5,0,0,1,.3-1h46.9Z"/><path class="cls-10" d="M419.2,232.4c0-4.4,0-8.5,0-12.7,0-.6,0-1.3,0-1.9s0-1.1,1.2-1.2h43.1c1.5,0,1.5,0,1.5,1.5q0,6.4,0,12.8c0,0.3,0,.6,0,0.9a0.6,0.6,0,0,1-.6.6H419.2Z"/><path class="cls-7" d="M572.1,538.9c23.2-41.9,41.6-132.6-7.9-192.3l-12.9,11.6-10.9-49.4,47.9,16.4-12.9,11.6C633,424.8,586.4,527.1,572.1,538.9Z"/><path class="cls-7" d="M165.6,328.7c-23.2,41.9-41.6,132.6,7.9,192.3l12.9-11.6,10.9,49.4-47.9-16.4,12.9-11.6C104.7,442.8,151.3,340.5,165.6,328.7Z"/><path class="cls-9" d="M365.6,796.9l4.5,4.5,2.7,2.9h0.1c-0.4-1.2-.7-2.5-1-3.9l-1.4-6.3,1.6-.9,4.7,4.3,2.9,2.9h0.1a36.3,36.3,0,0,1-1.2-3.9l-1.6-6.1,1.9-1.1,2.7,12.4-1.7,1-4.5-4.1a40.6,40.6,0,0,1-2.9-2.9h0a35.3,35.3,0,0,1,1.1,4l1.2,5.9-1.7,1-9.2-8.6Z"/><path class="cls-9" d="M381.8,787.5l4.5,4.5,2.7,2.9H389c-0.4-1.2-.7-2.5-1-3.9l-1.4-6.3,1.6-.9,4.7,4.3,2.9,2.9h0.1a36.4,36.4,0,0,1-1.2-3.9l-1.6-6.1,1.9-1.1,2.7,12.4-1.7,1-4.5-4.1a40.3,40.3,0,0,1-2.9-2.9h0a35.5,35.5,0,0,1,1.1,4l1.2,5.9-1.7,1-9.2-8.6Z"/><path class="cls-9" d="M397.9,778.1l4.5,4.5,2.7,2.9h0.1c-0.4-1.2-.7-2.5-1-3.9l-1.4-6.3,1.6-.9,4.7,4.3,2.9,2.9H412a36.3,36.3,0,0,1-1.2-3.9l-1.6-6.1,1.9-1.1,2.7,12.4-1.7,1-4.5-4.1a39.9,39.9,0,0,1-2.9-2.9h0a35,35,0,0,1,1.1,4l1.2,5.9-1.7,1-9.2-8.6Z"/><path class="cls-9" d="M419.3,780a1.6,1.6,0,1,1,.5-2.1,1.5,1.5,0,0,1-.5,2.1h0Z"/><path class="cls-9" d="M418.6,770.4l-2-3.2,1.7-1,1.3,2h0.1a3.6,3.6,0,0,1,1.6-4l0.6-.2,1,1.8-0.7.3A3.1,3.1,0,0,0,421,770l0.4,0.9,3.2,5.6-1.9,1.1Z"/><path class="cls-9" d="M428.5,771.7a5.8,5.8,0,0,0,2.9-.7c1.4-.8,1.6-1.9,1.1-2.7s-1.4-1.1-3.1-.8-3.8-.1-4.5-1.3-0.4-3.9,1.8-5.2a6,6,0,0,1,2.9-.8l0.3,1.7a4.7,4.7,0,0,0-2.5.6,1.8,1.8,0,0,0-.9,2.4c0.5,0.9,1.4.9,3,.6s3.7,0,4.6,1.6,0.4,4-2.1,5.4a6.9,6.9,0,0,1-3.4,1Z"/><path class="cls-9" d="M433.2,754.2l1.5,2.5,2.7-1.6,0.8,1.4-2.7,1.6,3.3,5.6c0.8,1.3,1.6,1.8,2.6,1.2l1-.8,0.9,1.4a5.3,5.3,0,0,1-1.5,1.3,3.1,3.1,0,0,1-2.5.4,4.5,4.5,0,0,1-2.3-2.3l-3.3-5.7-1.6.9-0.8-1.4,1.6-.9-1.1-1.9Z"/><path class="cls-9" d="M452.7,756.4l1.7,2.8-1.7,1-1.1-1.6h0a4.6,4.6,0,0,1-2.3,4c-1.6,1-4.1,1.2-6.3-2.5l-3.6-6.1,1.9-1.1,3.4,5.8c1.2,2,2.5,3,4.3,2a3.2,3.2,0,0,0,1.5-3.2,3.2,3.2,0,0,0-.4-1.1l-3.7-6.4,1.9-1.1Z"/><path class="cls-9" d="M457.6,736.8l7.4,12.6,1.7,2.6-1.7,1-1.1-1.8h0a4.5,4.5,0,0,1-2.4,4.1c-2.5,1.5-5.7.5-7.6-2.7s-1.1-6.9,1.4-8.3a4,4,0,0,1,4.1-.2h0l-3.6-6.2Zm3.4,10.2-0.6-.7a3.2,3.2,0,0,0-4-.6c-2,1.1-2.1,3.6-.8,5.9s3.3,3.3,5.3,2.1a3.3,3.3,0,0,0,1.5-3.9,3.8,3.8,0,0,0-.4-0.9Z"/><path class="cls-9" d="M464,735.7a1.4,1.4,0,0,1-2.4,1.4,1.3,1.3,0,0,1,.5-1.9A1.3,1.3,0,0,1,464,735.7Zm5.7,14.6-6.1-10.5,1.9-1.1,6.1,10.5Z"/><path class="cls-9" d="M481.1,736.6c2.3,3.9.6,7.1-2,8.6s-6.2.8-8.1-2.5-0.9-6.9,2-8.6S479.2,733.4,481.1,736.6Zm-8.2,4.9c1.3,2.3,3.7,3.2,5.5,2.2s2.2-3.6.8-5.9-3.2-3.5-5.5-2.2S471.7,739.5,472.8,741.5Z"/><path class="cls-9" d="M487,740.6a1.6,1.6,0,1,1,.5-2.1,1.5,1.5,0,0,1-.5,2.1h0Z"/><path class="cls-9" d="M497.8,733.5a8,8,0,0,1-2.6,2.4c-3.2,1.8-6.5.9-8.3-2.3a6.1,6.1,0,0,1,2.4-8.8,7.3,7.3,0,0,1,2.9-1l0.4,1.7a5.1,5.1,0,0,0-2.5.8c-2.4,1.4-2.7,3.9-1.4,6.1s3.8,3,5.9,1.8a6.2,6.2,0,0,0,2-1.9Z"/><path class="cls-9" d="M506.4,721.8c2.3,3.9.6,7.1-2,8.6s-6.2.8-8.1-2.5-0.9-6.9,2-8.6S504.6,718.6,506.4,721.8Zm-8.2,4.9c1.3,2.3,3.7,3.3,5.5,2.2s2.2-3.6.8-5.9-3.2-3.5-5.5-2.2S497.1,724.8,498.2,726.8Z"/><path class="cls-9" d="M507.5,718.1l-1.7-2.8,1.7-1,1.1,1.6h0.1a4.2,4.2,0,0,1,2.2-3.8,3.6,3.6,0,0,1,4.2.4h0a5,5,0,0,1,.4-2,4.1,4.1,0,0,1,1.9-2.1c1.4-.8,4-1.1,6.1,2.5l3.6,6.2-1.9,1.1-3.4-5.9c-1.2-2-2.6-2.8-4.1-1.9a2.9,2.9,0,0,0-1.2,3,3.6,3.6,0,0,0,.4,1l3.8,6.5-1.9,1.1-3.6-6.3c-1-1.7-2.4-2.4-3.9-1.6a3,3,0,0,0-1.2,3.3,3.1,3.1,0,0,0,.4,1l3.7,6.3-1.9,1.1Z"/></svg>