<?xml version="1.0" encoding="UTF-8" standalone="no"?>
<!-- Generator: Adobe Illustrator 18.1.0, SVG Export Plug-In . SVG Version: 6.00 Build 0)  -->

<svg
   xmlns:dc="http://purl.org/dc/elements/1.1/"
   xmlns:cc="http://creativecommons.org/ns#"
   xmlns:rdf="http://www.w3.org/1999/02/22-rdf-syntax-ns#"
   xmlns:svg="http://www.w3.org/2000/svg"
   xmlns="http://www.w3.org/2000/svg"
   xmlns:sodipodi="http://sodipodi.sourceforge.net/DTD/sodipodi-0.dtd"
   xmlns:inkscape="http://www.inkscape.org/namespaces/inkscape"
   version="1.1"
   id="Layer_1"
   x="0px"
   y="0px"
   viewBox="0 0 181 209"
   enable-background="new 0 0 320 240"
   xml:space="preserve"
   inkscape:version="0.91 r13725"
   sodipodi:docname="ubuntu.svg"
   width="181"
   height="209"
   inkscape:export-filename="/home/mc/Papers/Projects/Forks/hexbin/hexagons/ubuntu.png"
   inkscape:export-xdpi="90"
   inkscape:export-ydpi="90"><metadata
     id="metadata65"><rdf:RDF><cc:Work
         rdf:about=""><dc:format>image/svg+xml</dc:format><dc:type
           rdf:resource="http://purl.org/dc/dcmitype/StillImage" /><dc:title /></cc:Work></rdf:RDF></metadata><defs
     id="defs63" /><sodipodi:namedview
     pagecolor="#ffffff"
     bordercolor="#666666"
     borderopacity="1"
     objecttolerance="10"
     gridtolerance="10"
     guidetolerance="10"
     inkscape:pageopacity="0"
     inkscape:pageshadow="2"
     inkscape:window-width="1920"
     inkscape:window-height="1030"
     id="namedview61"
     showgrid="false"
     fit-margin-top="0"
     fit-margin-left="0"
     fit-margin-right="0"
     fit-margin-bottom="0"
     inkscape:zoom="1.4243634"
     inkscape:cx="90.5"
     inkscape:cy="104.5"
     inkscape:window-x="0"
     inkscape:window-y="24"
     inkscape:window-maximized="1"
     inkscape:current-layer="Layer_1" /><polygon
     points="251,171.7 160.5,224 70,171.7 70,67.2 160.5,15 251,67.2 "
     id="polygon3"
     style="fill:#dd4814;fill-opacity:1"
     transform="translate(-70,-15)" /><path
     inkscape:connector-curvature="0"
     style="fill:#ffffff"
     d="m 25.100357,91.352117 c -7.265027,0 -13.150815,5.886368 -13.150815,13.150793 0,7.26098 5.885788,13.14678 13.150815,13.14678 7.260968,0 13.146752,-5.8858 13.146752,-13.14678 0,-7.264425 -5.885784,-13.150793 -13.146752,-13.150793 l 0,0 z m 93.876133,59.757673 c -6.28878,3.63222 -8.44508,11.66909 -4.81227,17.95439 3.62816,6.28879 11.66503,8.44451 17.95382,4.81228 6.2882,-3.62818 8.44449,-11.66503 4.81227,-17.9544 -3.62817,-6.28473 -11.66966,-8.44044 -17.95382,-4.81227 l 0,0 z M 53.659597,104.50291 c 0,-12.993299 6.453808,-24.472463 16.329074,-31.423662 L 60.376279,56.979467 c -11.50348,7.689453 -20.062628,19.439597 -23.619574,33.201284 4.150445,3.386718 6.807008,8.542351 6.807008,14.321589 0,5.77578 -2.656563,10.93141 -6.807008,14.31813 3.552311,13.76575 12.111458,25.51647 23.619574,33.20591 l 9.612392,-16.10383 C 60.113405,128.97541 53.659597,117.49682 53.659597,104.50291 l 0,0 z M 92.063426,66.095053 c 20.063194,0 36.523714,15.382954 38.251524,35.000887 l 18.73493,-0.27618 c -0.92181,-14.483156 -7.24882,-27.485157 -16.97065,-37.046018 -4.99928,1.888778 -10.7739,1.599848 -15.7651,-1.277323 -4.99988,-2.885286 -8.13472,-7.752567 -8.99167,-13.036168 -4.85919,-1.341024 -9.973114,-2.075227 -15.2602,-2.075227 -9.08895,0 -17.682257,2.134863 -25.312074,5.911268 l 9.135856,16.371348 c 4.914766,-2.28715 10.397552,-3.572587 16.177384,-3.572587 l 0,0 z m 0,76.811687 c -5.779833,0 -11.262619,-1.28601 -16.176808,-3.57259 l -9.135855,16.37077 c 7.629818,3.78104 16.223125,5.91649 25.312663,5.91649 5.287064,0 10.400994,-0.73479 15.259604,-2.07986 0.85695,-5.2836 3.99296,-10.14626 8.99168,-13.03674 4.99466,-2.88182 10.7658,-3.16555 15.76511,-1.27676 9.72183,-9.56086 16.04883,-22.56284 16.97063,-37.04599 l -18.73956,-0.27621 c -1.72375,19.62315 -18.18369,35.00089 -38.247464,35.00089 l 0,0 z M 118.97187,57.887956 c 6.28878,3.631645 14.32621,1.480564 17.95438,-4.808223 3.63223,-6.288786 1.48115,-14.326232 -4.80821,-17.959034 -6.28879,-3.628166 -14.32566,-1.472456 -17.95904,4.81633 -3.62759,6.285315 -1.47188,14.322761 4.81287,17.950927 l 0,0 z"
     id="path8" /></svg>