<?xml version="1.0" encoding="utf-8"?>
<!-- Generator: Adobe Illustrator 16.0.4, SVG Export Plug-In . SVG Version: 6.00 Build 0)  -->
<!DOCTYPE svg PUBLIC "-//W3C//DTD SVG 1.1//EN" "http://www.w3.org/Graphics/SVG/1.1/DTD/svg11.dtd">
<svg version="1.1" id="Artwork" xmlns="http://www.w3.org/2000/svg" xmlns:xlink="http://www.w3.org/1999/xlink" x="0px" y="0px"
	 width="1244.41px" height="1440px" viewBox="0 0 1244.41 1440" enable-background="new 0 0 1244.41 1440" xml:space="preserve">
<polygon id="background" points="622.746,14.869 13.059,365.07 13.159,1069.154 622.918,1423.066 1232.597,1072.86 
	1232.529,368.766 "/>
<g id="txt">
	<g id="utopiastadt">
		<path fill="#FFFFFF" d="M1162.672,1004.311h-30.226v8.891h30.226c6.551,0,10.171,4.289,10.171,9.865
			c0,5.597-3.62,9.875-10.171,9.875h-30.226v8.881h30.226c12.473,0,18.384-8.213,18.384-18.756
			C1181.056,1012.533,1175.145,1004.311,1162.672,1004.311"/>
		<polygon fill="#FFFFFF" points="1140.975,980.283 1140.975,970.064 1132.446,971.076 1132.446,998.39 1140.975,999.383 
			1140.975,989.174 1179.738,989.174 1179.738,980.283 		"/>
		<path fill="#FFFFFF" d="M1131.129,942.437c0,13.628,10.189,24.353,24.953,24.353c14.783,0,24.974-10.791,24.974-24.353
			c0-13.57-10.19-24.343-24.974-24.343C1141.318,918.094,1131.129,928.866,1131.129,942.437z M1172.527,942.437
			c0,8.489-6.389,15.462-16.445,15.462c-10.056,0-16.416-7.039-16.416-15.462c0-8.489,6.36-15.462,16.416-15.462
			C1166.139,926.975,1172.527,933.947,1172.527,942.437z"/>
		<path fill="#FFFFFF" d="M1132.446,896.367v14.479h47.292v-8.9h-18.394v-5.578c0-7.916-5.901-15.155-14.449-15.155
			C1138.357,881.212,1132.446,888.336,1132.446,896.367z M1154.125,897.656v4.289h-14.459v-4.289c0-3.924,2.636-7.238,7.229-7.238
			C1151.479,890.418,1154.125,893.732,1154.125,897.656z"/>
		<rect x="1132.446" y="866.4" fill="#FFFFFF" width="47.292" height="8.891"/>
		<path fill="#FFFFFF" d="M1132.446,836.127v9.215l47.292,15.796v-9.55l-10.516-3.161v-15.385l10.516-3.19v-9.502L1132.446,836.127z
			 M1161.345,846.068l-18.384-5.253v-0.134l18.384-5.291V846.068z"/>
		<path fill="#FFFFFF" d="M1142.302,808.813c-4.603,0-6.57-3.275-6.57-7.897c0-3.963,1.968-7.239,4.269-8.9l-3.609-2.941
			c-3.285,2.626-5.262,6.57-5.262,11.842c0,6.58,3.285,12.835,11.23,12.835c15.395,0,13.084-21.735,25.546-21.735
			c5.271,0,8.557,3.629,8.557,8.9c0,5.262-1.977,8.881-6.561,12.5l3.275,3.955c4.604-3.955,7.879-9.217,7.879-16.599
			c0-8.872-5.911-13.675-13.15-13.675C1151.174,787.098,1154.125,808.813,1142.302,808.813"/>
		<polygon fill="#FFFFFF" points="1137.365,767.663 1137.365,757.139 1132.446,757.807 1132.446,782.475 1137.365,783.134 
			1137.365,772.6 1179.738,772.6 1179.738,767.663 		"/>
		<path fill="#FFFFFF" d="M1132.446,734.43v4.603l47.292,16.14V749.9l-14.449-4.623v-17.113l14.449-4.584v-5.271L1132.446,734.43z
			 M1160.686,743.826l-22.328-7.105l22.328-7.086V743.826z"/>
		<path fill="#FFFFFF" d="M1132.446,700.737v10.982h47.292v-10.982c0-10.601-7.105-23.579-23.656-23.579
			C1139.475,677.158,1132.446,690.136,1132.446,700.737z M1175.145,700.852v5.945h-38.104v-5.945
			c0-7.697,5.854-18.742,19.042-18.742C1169.223,682.11,1175.145,693.154,1175.145,700.852z"/>
		<polygon fill="#FFFFFF" points="1137.365,657.094 1137.365,646.56 1132.446,647.2 1132.446,671.901 1137.365,672.55 
			1137.365,662.017 1179.738,662.017 1179.738,657.094 		"/>
	</g>
	<g id="pia">
		<path fill="#FFFFFF" d="M377.355,812.188l-44.552,77.046l251.711,146.135l27.345-47.279l-97.897-56.859l17.192-29.741
			c24.352-42.089,15.196-98.842-30.246-125.216C455.387,749.847,402.079,769.447,377.355,812.188z M488.666,886.161l-13.147,22.754
			l-76.899-44.631l13.161-22.754c12.135-20.999,36.287-30.38,60.758-16.182C496.97,839.521,500.802,865.176,488.666,886.161z"/>
		<polygon fill="#FFFFFF" points="469.425,672.787 496.771,625.508 748.52,771.669 721.175,818.962 		"/>
		<path fill="#FFFFFF" d="M610.369,437.201l-28.316,48.986l203.088,230.207l29.354-50.766l-46.148-49.345l47.411-81.996
			l65.617,15.682l29.367-50.795L610.369,437.201z M733.616,579.331l-81.65-84.857l0.386-0.669l114.066,28.822L733.616,579.331z"/>
	</g>
</g>
</svg>
