<?xml version="1.0" encoding="UTF-8" standalone="no"?>
<!DOCTYPE svg PUBLIC "-//W3C//DTD SVG 1.1//EN" "http://www.w3.org/Graphics/SVG/1.1/DTD/svg11.dtd">
<svg width="100%" height="100%" viewBox="0 0 520 600" version="1.1" xmlns="http://www.w3.org/2000/svg" xmlns:xlink="http://www.w3.org/1999/xlink" xml:space="preserve" xmlns:serif="http://www.serif.com/" style="fill-rule:evenodd;clip-rule:evenodd;stroke-linejoin:round;stroke-miterlimit:2;">
    <g transform="matrix(1,0,0,1,-4187.45,-4187.45)">
        <g transform="matrix(4.16667,0,0,4.16667,3172.26,3302.87)">
            <g id="Background" transform="matrix(0.999936,0,0,0.999936,368.35,248.301)">
                <path d="M0,72L-62.354,108L-124.708,72L-124.708,0L-62.354,-36L0,0L0,72Z" style="fill-rule:nonzero;"/>
            </g>
        </g>
        <g transform="matrix(4.16667,0,0,4.16667,3172.26,3302.87)">
            <g id="Border" transform="matrix(1,0,0,1,368.353,248.299)">
                <path d="M0,72L-62.354,108L-124.708,72L-124.708,0L-62.354,-36L0,0L0,72ZM-4,69.691L-62.354,103.381C-62.354,103.381 -120.708,69.691 -120.708,69.691C-120.708,69.691 -120.708,2.309 -120.708,2.309C-120.708,2.309 -72.81,-25.345 -62.354,-31.381C-62.354,-31.381 -4,2.309 -4,2.309L-4,69.691Z" style="fill:rgb(0,178,229);"/>
            </g>
        </g>
        <g transform="matrix(4.16667,0,0,4.16667,3172.26,3302.87)">
            <g id="_00B2E5" serif:id="00B2E5">
                <g id="_1" serif:id="1" transform="matrix(0.176203,0,0,0.176203,262.245,237.802)">
                    <path d="M337.005,84.754L442.005,84.754L442.005,369.759L382.005,369.759L382.005,141.754L337.005,141.754L337.005,84.754Z" style="fill:rgb(0,178,229);"/>
                </g>
                <g id="_0" serif:id="0" transform="matrix(0.176203,0,0,0.176203,262.234,237.724)">
                    <path d="M202.069,79.202C283.477,79.202 349.569,145.294 349.569,226.702C349.569,308.109 283.477,374.202 202.069,374.202C120.662,374.202 54.569,308.109 54.569,226.702C54.569,145.294 120.662,79.202 202.069,79.202ZM201.868,136.504C251.538,136.504 291.864,176.83 291.864,226.5C291.864,276.17 251.538,316.496 201.868,316.496C152.197,316.496 111.871,276.17 111.871,226.5C111.871,176.83 152.197,136.504 201.868,136.504Z" style="fill:rgb(0,178,229);"/>
                </g>
                <g transform="matrix(0.1905,0,0,0.1905,303.687,244.746)">
                    <g transform="matrix(1,0,0,1,-171.244,320.915)">
                        <path d="M250.82,4.21C236.108,4.243 224.02,16.358 224.02,31.07C224.02,45.805 236.145,57.93 250.88,57.93C265.562,57.93 277.663,45.892 277.74,31.21C277.74,31.187 277.74,31.163 277.74,31.14C277.74,16.37 265.59,4.215 250.82,4.21ZM250.82,47.58C239.82,47.58 234.82,37.92 234.82,31.07C234.82,24.22 239.82,14.56 250.82,14.56C262.45,14.56 266.82,24.81 266.82,31.27C266.8,38 261.84,47.58 250.82,47.58ZM283.88,57L283.88,15.48L275.71,15.48L275.71,5.12L294.82,5.12L294.82,57L283.88,57Z" style="fill:rgb(0,178,229);fill-rule:nonzero;"/>
                    </g>
                    <g transform="matrix(1,0,0,1,-171.244,320.915)">
                        <path d="M55.44,57L85.24,57L85.24,46.67L66.38,46.67L66.38,36L85.24,36L85.24,25.67L66.38,25.67L66.38,15.48L85.24,15.48L85.24,5.12L55.44,5.12L55.44,57ZM28.5,37.61C25.74,30.47 15.92,5.12 15.92,5.12L4.12,5.12L25,57L31.88,57L52.74,5.12L41.09,5.12C41.09,5.12 31.26,30.47 28.5,37.61ZM145.91,5.12L127.18,54.91L115.62,38.64C120.74,37.36 127.76,33.23 127.76,22.45C127.856,17.7 126.056,13.102 122.76,9.68C119.43,6.53 115.07,5.12 108.63,5.12L91.8,5.12L91.8,57L102.73,57L102.73,38.8L115.73,57.03L137.85,57.03L141.85,46.29L158.92,46.29L163,57L174.67,57L154.92,5.12L145.91,5.12ZM105.56,29.88L102.73,29.88L102.73,15.48L108.16,15.48C114.54,15.48 116.82,19.08 116.82,22.48C116.82,24.29 116.82,29.88 105.56,29.88ZM145.5,36.26C147.3,31.19 149.61,24.67 150.45,22.19L155.33,36.26L145.5,36.26Z" style="fill:white;fill-rule:nonzero;"/>
                    </g>
                    <g transform="matrix(1,0,0,1,-171.244,320.915)">
                        <path d="M362.65,15.48L362.65,5.12L332.85,5.12L332.85,57L362.65,57L362.65,46.67L343.78,46.67L343.78,36L362.65,36L362.65,25.67L343.78,25.67L343.78,15.48L362.65,15.48Z" style="fill:white;fill-rule:nonzero;"/>
                    </g>
                    <g transform="matrix(1,0,0,1,-171.244,320.915)">
                        <path d="M197.49,14.56C204.18,14.56 207.95,18.88 209.38,20.5L210.09,21.31L222.81,21.31L221,18.24C219.116,14.664 216.416,11.58 213.12,9.24C208.49,5.996 202.974,4.25 197.32,4.24C197.31,4.24 197.3,4.24 197.29,4.24C182.555,4.24 170.43,16.365 170.43,31.1C170.43,45.824 182.536,57.944 197.26,57.96C207.006,58.012 216.034,52.719 220.75,44.19L222.42,41.25L209.55,41.25L208.96,41.95C206.112,45.444 201.867,47.516 197.36,47.61C188.84,47.61 181.64,40 181.64,30.98C181.64,21.96 188.75,14.56 197.49,14.56Z" style="fill:white;fill-rule:nonzero;"/>
                    </g>
                    <g transform="matrix(1,0,0,1,-171.244,320.915)">
                        <path d="M302,5.12L299.17,5.12L299.17,15.48L302,15.48C314.31,15.48 317.6,25.37 317.6,31.2C317.6,45.2 306.6,46.67 301.87,46.67L299.23,46.67L299.23,57L301.81,57C310.35,57 316.75,54.61 321.92,49.5C325.92,45.61 328.54,38.25 328.54,31.17C328.468,25.284 326.624,19.554 323.25,14.73C318.55,8.36 311.42,5.12 302,5.12Z" style="fill:white;fill-rule:nonzero;"/>
                    </g>
                </g>
            </g>
        </g>
    </g>
</svg>
