<?xml version="1.0" encoding="UTF-8" standalone="no"?>
<svg
   xmlns:dc="http://purl.org/dc/elements/1.1/"
   xmlns:cc="http://creativecommons.org/ns#"
   xmlns:rdf="http://www.w3.org/1999/02/22-rdf-syntax-ns#"
   xmlns:svg="http://www.w3.org/2000/svg"
   xmlns="http://www.w3.org/2000/svg"
   viewBox="0 0 236 250.66667"
   height="250.66667"
   width="236"
   xml:space="preserve"
   id="svg2"
   version="1.1"><metadata
     id="metadata8"><rdf:RDF><cc:Work
         rdf:about=""><dc:format>image/svg+xml</dc:format><dc:type
           rdf:resource="http://purl.org/dc/dcmitype/StillImage" /></cc:Work></rdf:RDF></metadata><defs
     id="defs6"><clipPath
       id="clipPath48"
       clipPathUnits="userSpaceOnUse"><path
         id="path46"
         d="M 0,188 H 177 V 0 H 0 Z" /></clipPath></defs><g
     transform="matrix(1.3333333,0,0,-1.3333333,0,250.66667)"
     id="g10"><g
       transform="translate(27.5092,129.473)"
       id="g12"><path
         id="path14"
         style="fill:#ffffff;fill-opacity:1;fill-rule:nonzero;stroke:none"
         d="M 0,0 62.477,36.071 124.954,0 V -72.143 L 62.477,-108.214 0,-72.143 Z" /></g><g
       transform="translate(31.9836,126.8897)"
       id="g16"><path
         id="path18"
         style="fill:#e64461;fill-opacity:1;fill-rule:nonzero;stroke:none"
         d="M 0,0 58.003,33.488 116.006,0 V -66.976 L 58.003,-100.464 0,-66.976 Z" /></g><g
       transform="translate(61.8064,71.1133)"
       id="g20"><path
         id="path22"
         style="fill:#ffffff;fill-opacity:1;fill-rule:nonzero;stroke:none"
         d="M 0,0 -2.292,5.501 -4.629,0 Z m -2.618,6.419 h 0.651 L 2.47,-4.082 H 1.671 l -1.464,3.46 h -5.013 l -1.465,-3.46 h -0.813 z" /></g><g
       transform="translate(65.8731,67.031)"
       id="g24"><path
         id="path26"
         style="fill:#ffffff;fill-opacity:1;fill-rule:nonzero;stroke:none"
         d="M 0,0 V 10.501 H 0.754 V 0.68 H 7.025 V 0 Z" /></g><g
       transform="translate(74.4659,67.031)"
       id="g28"><path
         id="path30"
         style="fill:#ffffff;fill-opacity:1;fill-rule:nonzero;stroke:none"
         d="M 0,0 V 10.501 H 0.754 V 0.68 H 7.025 V 0 Z" /></g><path
       id="path32"
       style="fill:#ffffff;fill-opacity:1;fill-rule:nonzero;stroke:none"
       d="m 83.058,67.031 h 0.754 v 10.501 h -0.754 z" /><g
       transform="translate(92.4796,71.1133)"
       id="g34"><path
         id="path36"
         style="fill:#ffffff;fill-opacity:1;fill-rule:nonzero;stroke:none"
         d="M 0,0 -2.292,5.501 -4.629,0 Z m -2.618,6.419 h 0.651 L 2.47,-4.082 H 1.671 l -1.464,3.46 h -5.014 l -1.464,-3.46 h -0.813 z" /></g><g
       transform="translate(97.3005,76.112)"
       id="g38"><path
         id="path40"
         style="fill:#ffffff;fill-opacity:1;fill-rule:nonzero;stroke:none"
         d="M 0,0 V -9.081 H -0.754 V 1.42 h 0.577 L 7.188,-7.824 V 1.42 H 7.942 V -9.081 H 7.247 Z" /></g><g
       id="g42"><g
         clip-path="url(#clipPath48)"
         id="g44"><g
           transform="translate(107.254,72.355)"
           id="g50"><path
             id="path52"
             style="fill:#ffffff;fill-opacity:1;fill-rule:nonzero;stroke:none"
             d="M 0,0 C 0,0.632 0.111,1.26 0.333,1.886 0.555,2.512 0.878,3.071 1.302,3.565 1.725,4.058 2.246,4.459 2.862,4.77 3.478,5.081 4.18,5.236 4.969,5.236 5.906,5.236 6.704,5.022 7.365,4.592 8.026,4.163 8.519,3.614 8.844,2.943 L 8.223,2.588 C 8.036,2.953 7.816,3.259 7.565,3.506 7.313,3.752 7.042,3.952 6.752,4.104 6.461,4.257 6.158,4.368 5.842,4.437 5.526,4.506 5.215,4.54 4.91,4.54 4.24,4.54 3.648,4.405 3.135,4.134 2.622,3.863 2.189,3.511 1.834,3.076 1.479,2.643 1.21,2.152 1.028,1.605 0.846,1.058 0.754,0.508 0.754,-0.044 c 0,-0.621 0.109,-1.213 0.325,-1.775 0.217,-0.562 0.513,-1.057 0.888,-1.486 0.375,-0.429 0.818,-0.772 1.331,-1.028 0.513,-0.257 1.065,-0.385 1.656,-0.385 0.316,0 0.641,0.04 0.977,0.118 0.335,0.079 0.655,0.202 0.961,0.371 0.306,0.167 0.592,0.382 0.858,0.643 0.266,0.261 0.488,0.569 0.665,0.924 L 9.066,-2.973 C 8.888,-3.367 8.647,-3.717 8.342,-4.022 8.036,-4.328 7.696,-4.585 7.321,-4.792 6.946,-4.999 6.549,-5.154 6.13,-5.258 5.711,-5.361 5.3,-5.413 4.895,-5.413 4.176,-5.413 3.517,-5.255 2.921,-4.94 2.325,-4.624 1.809,-4.212 1.376,-3.704 0.942,-3.197 0.604,-2.62 0.363,-1.974 0.121,-1.329 0,-0.67 0,0" /></g><g
           transform="translate(125.1787,67.711)"
           id="g54"><path
             id="path56"
             style="fill:#ffffff;fill-opacity:1;fill-rule:nonzero;stroke:none"
             d="M 0,0 V -0.68 H -6.995 V 9.821 h 6.862 V 9.14 H -6.241 V 5.014 h 5.339 V 4.363 H -6.241 V 0 Z" /></g><g
           transform="translate(79.7158,129.3636)"
           id="g58"><path
             id="path60"
             style="fill:#ffffff;fill-opacity:1;fill-rule:nonzero;stroke:none"
             d="m 0,0 c -1.044,0 -1.89,-0.846 -1.89,-1.89 v -16.891 c 0,-1.043 0.846,-1.89 1.89,-1.89 1.044,0 1.89,0.847 1.89,1.89 V -1.89 C 1.89,-0.846 1.044,0 0,0" /></g><g
           transform="translate(84.7326,83.8667)"
           id="g62"><path
             id="path64"
             style="fill:#ffffff;fill-opacity:1;fill-rule:nonzero;stroke:none"
             d="m 0,0 h -10.433 c -0.998,0 -1.807,0.809 -1.807,1.806 0,0.997 0.809,1.806 1.807,1.806 H 0 C 0.998,3.612 1.806,2.803 1.806,1.806 1.806,0.809 0.998,0 0,0" /></g><g
           transform="translate(84.7326,91.9394)"
           id="g66"><path
             id="path68"
             style="fill:#ffffff;fill-opacity:1;fill-rule:nonzero;stroke:none"
             d="m 0,0 h -10.433 c -0.998,0 -1.807,0.809 -1.807,1.806 0,0.997 0.809,1.806 1.807,1.806 H 0 C 0.998,3.612 1.806,2.803 1.806,1.806 1.806,0.809 0.998,0 0,0" /></g><g
           transform="translate(103.1104,89.0936)"
           id="g70"><path
             id="path72"
             style="fill:#ffffff;fill-opacity:1;fill-rule:nonzero;stroke:none"
             d="m 0,0 c -1.155,-1.041 -2.649,-1.615 -4.206,-1.615 -3.465,0 -6.285,2.82 -6.285,6.286 0,3.465 2.82,6.285 6.285,6.285 1.471,0 2.901,-0.518 4.026,-1.459 0.766,-0.64 1.905,-0.537 2.544,0.228 0.64,0.765 0.538,1.904 -0.227,2.545 -1.774,1.482 -4.027,2.298 -6.343,2.298 -5.457,0 -9.897,-4.44 -9.897,-9.897 0,-5.458 4.44,-9.898 9.897,-9.898 2.452,0 4.805,0.903 6.625,2.544 0.741,0.668 0.8,1.809 0.132,2.55 C 1.883,0.608 0.743,0.668 0,0" /></g><g
           transform="translate(68.7578,103.6621)"
           id="g74"><path
             id="path76"
             style="fill:#ffffff;fill-opacity:1;fill-rule:nonzero;stroke:none"
             d="m 0,0 h -12.664 c -0.998,0 -1.806,-0.809 -1.806,-1.806 0,-0.997 0.808,-1.806 1.806,-1.806 h 4.525 v -14.34 c 0,-0.997 0.809,-1.806 1.807,-1.806 0.997,0 1.806,0.809 1.806,1.806 v 14.34 H 0 c 0.998,0 1.806,0.809 1.806,1.806 C 1.806,-0.809 0.998,0 0,0" /></g><g
           transform="translate(84.7326,103.6245)"
           id="g78"><path
             id="path80"
             style="fill:#ffffff;fill-opacity:1;fill-rule:nonzero;stroke:none"
             d="m 0,0 h -10.433 c -0.998,0 -1.807,-0.809 -1.807,-1.806 0,-0.997 0.809,-1.807 1.807,-1.807 H 0 c 0.998,0 1.806,0.81 1.806,1.807 C 1.806,-0.809 0.998,0 0,0" /></g><g
           transform="translate(123.3725,103.6621)"
           id="g82"><path
             id="path84"
             style="fill:#ffffff;fill-opacity:1;fill-rule:nonzero;stroke:none"
             d="m 0,0 c -0.998,0 -1.806,-0.809 -1.806,-1.806 v -6.267 h -9.118 v 6.267 c 0,0.997 -0.809,1.806 -1.806,1.806 -0.998,0 -1.807,-0.809 -1.807,-1.806 v -16.146 c 0,-0.997 0.809,-1.806 1.807,-1.806 0.997,0 1.806,0.809 1.806,1.806 v 6.267 h 9.118 v -6.267 c 0,-0.997 0.808,-1.806 1.806,-1.806 0.998,0 1.806,0.809 1.806,1.806 V -1.806 C 1.806,-0.809 0.998,0 0,0" /></g><g
           transform="translate(102.6554,118.9888)"
           id="g86"><path
             id="path88"
             style="fill:#ffffff;fill-opacity:1;fill-rule:nonzero;stroke:none"
             d="m 0,0 c 0,0.13 -0.013,0.258 -0.038,0.381 -0.05,0.24 -0.146,0.463 -0.277,0.66 -0.003,0.005 -0.005,0.011 -0.008,0.015 -0.045,0.067 -0.1,0.126 -0.153,0.186 -0.027,0.031 -0.049,0.065 -0.077,0.094 -0.029,0.029 -0.064,0.051 -0.094,0.078 -0.061,0.053 -0.119,0.108 -0.186,0.153 -0.005,0.003 -0.01,0.005 -0.015,0.008 -0.198,0.131 -0.421,0.227 -0.661,0.276 -0.123,0.025 -0.25,0.039 -0.381,0.039 h -6.469 c -1.043,0 -1.889,-0.847 -1.889,-1.89 0,-1.043 0.846,-1.89 1.889,-1.89 h 4.58 v -3.467 c -1.102,-0.774 -2.414,-1.199 -3.776,-1.199 -3.626,0 -6.576,2.95 -6.576,6.576 0,3.625 2.95,6.575 6.576,6.575 1.538,0 3.034,-0.542 4.212,-1.526 0.801,-0.668 1.992,-0.561 2.662,0.238 0.669,0.801 0.562,1.992 -0.239,2.663 -1.855,1.551 -4.212,2.405 -6.635,2.405 -5.71,0 -10.355,-4.646 -10.355,-10.355 0,-5.71 4.645,-10.355 10.355,-10.355 2.565,0 5.026,0.944 6.93,2.661 0.411,0.369 0.615,0.878 0.619,1.39 0,0.021 0.006,0.04 0.006,0.062 z" /></g><g
           transform="translate(110.8104,111.7755)"
           id="g90"><path
             id="path92"
             style="fill:#ffffff;fill-opacity:1;fill-rule:nonzero;stroke:none"
             d="m 0,0 c 1.054,-1.767 2.386,-3.35 3.937,-4.686 0.339,-0.292 0.849,-0.292 1.188,0 1.554,1.337 2.887,2.923 3.942,4.694 C 9.379,0.531 9.106,1.207 8.521,1.376 7.285,1.732 6.104,2.218 4.993,2.82 4.713,2.971 4.38,2.971 4.1,2.82 2.982,2.214 1.792,1.726 0.547,1.369 -0.039,1.201 -0.312,0.524 0,0 m 13.307,7.184 c -1.078,0 -2.121,0.153 -3.109,0.437 C 9.973,7.686 9.736,7.612 9.59,7.428 8.702,6.31 7.683,5.299 6.555,4.422 6.215,4.158 6.286,3.625 6.678,3.448 8.249,2.739 9.949,2.27 11.733,2.087 c 0.22,-0.023 0.439,0.083 0.553,0.273 0.809,1.351 1.275,2.931 1.275,4.62 0,0.071 -0.006,0.14 -0.008,0.21 C 13.471,7.188 13.389,7.184 13.307,7.184 M -0.378,7.28 c -0.22,0.271 -0.574,0.381 -0.911,0.29 -0.933,-0.251 -1.914,-0.386 -2.925,-0.386 -0.083,0 -0.164,0.004 -0.247,0.006 -10e-4,-0.07 -0.007,-0.139 -0.007,-0.21 0,-1.608 0.422,-3.117 1.161,-4.424 0.171,-0.303 0.503,-0.489 0.849,-0.45 1.556,0.178 3.046,0.573 4.44,1.154 C 2.577,3.509 2.668,4.307 2.17,4.716 1.236,5.483 0.383,6.342 -0.378,7.28 m 4.371,3.451 C 3.228,9.92 2.344,9.223 1.369,8.666 0.94,8.421 0.845,7.847 1.175,7.479 2.048,6.507 3.034,5.638 4.114,4.895 c 0.258,-0.178 0.607,-0.178 0.865,0 1.079,0.744 2.066,1.612 2.939,2.584 0.33,0.368 0.235,0.942 -0.194,1.187 -0.973,0.557 -1.856,1.255 -2.621,2.065 -0.302,0.32 -0.807,0.32 -1.11,0 m 9.314,-2.234 c 0.262,0 0.522,0.011 0.779,0.031 0.526,0.043 0.892,0.558 0.763,1.07 -1.061,4.188 -4.606,7.379 -8.977,7.924 l 0.083,-10e-4 c -1.285,0.177 -0.919,3.901 -0.662,5.718 0.073,0.518 -0.324,0.981 -0.847,0.985 -0.009,0 -0.018,0 -0.027,0 C 3.962,24.228 3.581,23.871 3.55,23.415 3.241,18.894 3.374,17.548 3.374,17.548 3.843,12.479 8.118,8.497 13.307,8.497 m -17.521,0 c -0.213,0 -0.425,0.007 -0.634,0.021 -0.621,0.041 -1.026,0.663 -0.863,1.263 0.91,3.341 3.407,6.026 6.632,7.196 0.58,0.211 1.197,-0.147 1.321,-0.751 C 2.474,15.091 2.878,14.018 3.424,13.034 3.625,12.671 3.564,12.22 3.29,11.908 1.46,9.819 -1.225,8.497 -4.214,8.497" /></g><g
           transform="translate(72.9664,129.1901)"
           id="g94"><path
             id="path96"
             style="fill:#ffffff;fill-opacity:1;fill-rule:nonzero;stroke:none"
             d="m 0,0 c -0.949,0.439 -2.071,0.022 -2.507,-0.925 l -6.065,-13.166 -6.066,13.166 c -0.436,0.947 -1.558,1.364 -2.507,0.925 -0.948,-0.437 -1.362,-1.559 -0.925,-2.507 l 7.781,-16.891 c 0.01,-0.021 0.026,-0.036 0.036,-0.056 0.067,-0.134 0.148,-0.261 0.246,-0.376 0.01,-0.013 0.018,-0.027 0.029,-0.039 0.104,-0.116 0.226,-0.216 0.36,-0.305 0.036,-0.024 0.074,-0.044 0.111,-0.065 0.049,-0.028 0.092,-0.061 0.144,-0.085 0.059,-0.027 0.12,-0.039 0.18,-0.06 0.046,-0.016 0.09,-0.034 0.137,-0.046 0.157,-0.041 0.315,-0.067 0.472,-0.067 h 0.002 10e-4 c 0.157,0 0.315,0.026 0.472,0.067 0.047,0.012 0.091,0.03 0.137,0.046 0.06,0.021 0.121,0.033 0.18,0.06 0.052,0.024 0.095,0.057 0.144,0.085 0.037,0.021 0.075,0.041 0.111,0.065 0.134,0.089 0.256,0.189 0.36,0.305 0.011,0.012 0.019,0.026 0.029,0.038 0.099,0.116 0.179,0.244 0.246,0.378 0.01,0.02 0.026,0.034 0.036,0.055 L 0.925,-2.507 C 1.362,-1.559 0.948,-0.437 0,0" /></g><g
           transform="translate(58.1167,56.981)"
           id="g98"><path
             id="path100"
             style="fill:#ffffff;fill-opacity:1;fill-rule:nonzero;stroke:none"
             d="M 0,0 H 0.699 L 1.139,-1.292 1.579,0 H 2.283 L 1.617,-1.776 2.112,-3.025 3.218,0.012 H 4.042 L 2.453,-3.894 H 1.815 L 1.139,-2.255 0.462,-3.894 h -0.638 l -1.578,3.906 h 0.814 l 1.11,-3.037 0.485,1.249 z" /></g><g
           transform="translate(64.458,56.981)"
           id="g102"><path
             id="path104"
             style="fill:#ffffff;fill-opacity:1;fill-rule:nonzero;stroke:none"
             d="M 0,0 H 0.699 L 1.139,-1.292 1.579,0 H 2.283 L 1.617,-1.776 2.112,-3.025 3.218,0.012 H 4.042 L 2.453,-3.894 H 1.815 L 1.139,-2.255 0.462,-3.894 h -0.638 l -1.578,3.906 h 0.814 l 1.11,-3.037 0.485,1.249 z" /></g><g
           transform="translate(70.7998,56.981)"
           id="g106"><path
             id="path108"
             style="fill:#ffffff;fill-opacity:1;fill-rule:nonzero;stroke:none"
             d="M 0,0 H 0.699 L 1.139,-1.292 1.579,0 H 2.283 L 1.617,-1.776 2.112,-3.025 3.218,0.012 H 4.042 L 2.453,-3.894 H 1.815 L 1.139,-2.255 0.462,-3.894 h -0.638 l -1.578,3.906 h 0.814 l 1.11,-3.037 0.485,1.249 z" /></g><path
           id="path110"
           style="fill:#ffffff;fill-opacity:1;fill-rule:nonzero;stroke:none"
           d="m 75.282,53.879 h 0.605 v -0.792 h -0.605 z" /><g
           transform="translate(77.1357,56.9927)"
           id="g112"><path
             id="path114"
             style="fill:#ffffff;fill-opacity:1;fill-rule:nonzero;stroke:none"
             d="M 0,0 1.056,-2.954 2.101,0 H 2.899 L 1.375,-3.905 H 0.737 L -0.797,0 Z" /></g><path
           id="path116"
           style="fill:#ffffff;fill-opacity:1;fill-rule:nonzero;stroke:none"
           d="m 81.002,56.993 h 0.759 v -3.905 h -0.759 z" /><g
           transform="translate(85.8369,53.5278)"
           id="g118"><path
             id="path120"
             style="fill:#ffffff;fill-opacity:1;fill-rule:nonzero;stroke:none"
             d="m 0,0 c -0.312,-0.312 -0.675,-0.468 -1.089,-0.468 -0.257,0 -0.498,0.051 -0.723,0.155 -0.226,0.102 -0.422,0.243 -0.589,0.422 -0.167,0.18 -0.299,0.392 -0.396,0.636 -0.097,0.243 -0.146,0.507 -0.146,0.789 0,0.268 0.049,0.52 0.146,0.756 0.097,0.236 0.231,0.444 0.402,0.622 0.17,0.178 0.371,0.318 0.602,0.423 0.231,0.104 0.482,0.157 0.754,0.157 0.366,0 0.681,-0.077 0.943,-0.231 C 0.166,3.107 0.363,2.899 0.495,2.64 L -0.072,2.222 C -0.17,2.416 -0.309,2.564 -0.487,2.667 -0.664,2.77 -0.858,2.821 -1.067,2.821 -1.232,2.821 -1.383,2.786 -1.521,2.717 -1.658,2.646 -1.776,2.552 -1.873,2.431 -1.97,2.31 -2.045,2.17 -2.099,2.013 -2.151,1.855 -2.178,1.689 -2.178,1.512 c 0,-0.183 0.029,-0.355 0.088,-0.514 0.058,-0.16 0.139,-0.298 0.242,-0.415 0.102,-0.118 0.225,-0.21 0.366,-0.278 0.141,-0.068 0.294,-0.102 0.459,-0.102 0.378,0 0.718,0.178 1.023,0.533 V 1.012 H -0.787 V 1.567 H 0.627 V -0.44 L 0,-0.44 Z" /></g><g
           transform="translate(88.1958,55.0396)"
           id="g122"><path
             id="path124"
             style="fill:#ffffff;fill-opacity:1;fill-rule:nonzero;stroke:none"
             d="m 0,0 c 0,-0.168 0.026,-0.331 0.077,-0.489 0.051,-0.157 0.126,-0.297 0.223,-0.418 0.097,-0.121 0.216,-0.218 0.357,-0.291 0.141,-0.074 0.302,-0.111 0.482,-0.111 0.183,0 0.345,0.038 0.487,0.113 0.141,0.075 0.26,0.175 0.357,0.3 0.097,0.125 0.17,0.265 0.22,0.42 0.049,0.157 0.074,0.315 0.074,0.476 0,0.169 -0.026,0.332 -0.08,0.49 C 2.144,0.647 2.069,0.787 1.972,0.908 1.874,1.029 1.755,1.125 1.614,1.196 1.473,1.269 1.314,1.304 1.139,1.304 0.955,1.304 0.792,1.267 0.649,1.191 0.506,1.116 0.387,1.017 0.292,0.895 0.196,0.771 0.124,0.632 0.074,0.477 0.025,0.32 0,0.162 0,0 m 1.133,-1.979 c -0.286,0 -0.546,0.055 -0.778,0.167 -0.233,0.112 -0.433,0.26 -0.6,0.446 -0.167,0.184 -0.296,0.396 -0.387,0.635 -0.092,0.238 -0.138,0.482 -0.138,0.731 0,0.261 0.049,0.51 0.146,0.748 0.097,0.238 0.231,0.449 0.401,0.633 C -0.052,1.564 0.15,1.71 0.385,1.818 0.62,1.926 0.874,1.98 1.149,1.98 1.432,1.98 1.689,1.923 1.922,1.807 2.155,1.691 2.354,1.54 2.519,1.354 2.684,1.166 2.813,0.954 2.904,0.716 2.996,0.477 3.042,0.235 3.042,-0.011 3.042,-0.271 2.994,-0.52 2.898,-0.756 2.803,-0.992 2.671,-1.201 2.502,-1.383 2.334,-1.564 2.132,-1.709 1.898,-1.817 1.663,-1.926 1.408,-1.979 1.133,-1.979" /></g><g
           transform="translate(95.1099,56.3267)"
           id="g126"><path
             id="path128"
             style="fill:#ffffff;fill-opacity:1;fill-rule:nonzero;stroke:none"
             d="M 0,0 H -1.249 V -3.239 H -2.002 V 0 H -3.251 V 0.666 H 0 Z" /></g><g
           transform="translate(98.855,53.7524)"
           id="g130"><path
             id="path132"
             style="fill:#ffffff;fill-opacity:1;fill-rule:nonzero;stroke:none"
             d="M 0,0 V -0.665 H -2.711 V 3.24 H -0.05 V 2.574 h -1.903 v -0.94 h 1.645 V 1.018 h -1.645 l 0,-1.018 z" /></g><g
           transform="translate(99.6797,55.0679)"
           id="g134"><path
             id="path136"
             style="fill:#ffffff;fill-opacity:1;fill-rule:nonzero;stroke:none"
             d="M 0,0 C 0,0.238 0.043,0.474 0.129,0.706 0.215,0.939 0.341,1.147 0.506,1.33 0.671,1.514 0.872,1.662 1.111,1.776 1.35,1.89 1.621,1.946 1.925,1.946 2.284,1.946 2.595,1.867 2.857,1.71 3.12,1.553 3.315,1.347 3.443,1.094 L 2.86,0.692 C 2.809,0.803 2.747,0.896 2.673,0.971 2.6,1.045 2.521,1.105 2.436,1.149 2.352,1.193 2.264,1.225 2.172,1.245 2.081,1.266 1.991,1.275 1.903,1.275 1.712,1.275 1.546,1.237 1.405,1.16 1.264,1.083 1.147,0.983 1.053,0.86 0.96,0.737 0.889,0.598 0.842,0.442 0.794,0.286 0.77,0.132 0.77,-0.023 c 0,-0.172 0.027,-0.337 0.082,-0.497 0.056,-0.16 0.133,-0.3 0.234,-0.421 0.101,-0.121 0.222,-0.218 0.363,-0.291 0.141,-0.074 0.297,-0.111 0.465,-0.111 0.088,0 0.18,0.012 0.275,0.033 0.095,0.023 0.186,0.057 0.272,0.105 0.086,0.048 0.166,0.109 0.24,0.185 0.073,0.075 0.132,0.166 0.175,0.272 L 3.498,-1.107 C 3.436,-1.253 3.347,-1.382 3.231,-1.494 3.116,-1.605 2.986,-1.7 2.841,-1.777 2.696,-1.854 2.541,-1.913 2.376,-1.953 2.211,-1.993 2.05,-2.014 1.892,-2.014 1.613,-2.014 1.358,-1.955 1.127,-1.838 0.896,-1.72 0.698,-1.567 0.531,-1.378 0.364,-1.189 0.234,-0.975 0.14,-0.734 0.047,-0.494 0,-0.25 0,0" /></g><g
           transform="translate(107.5229,56.9927)"
           id="g138"><path
             id="path140"
             style="fill:#ffffff;fill-opacity:1;fill-rule:nonzero;stroke:none"
             d="m 0,0 v -3.905 h -0.753 v 1.666 H -2.524 V -3.905 H -3.283 V 0 h 0.759 v -1.579 h 1.771 V 0 Z" /></g><path
           id="path142"
           style="fill:#ffffff;fill-opacity:1;fill-rule:nonzero;stroke:none"
           d="m 108.799,53.879 h 0.605 v -0.792 h -0.605 z" /><g
           transform="translate(111.0977,55.0396)"
           id="g144"><path
             id="path146"
             style="fill:#ffffff;fill-opacity:1;fill-rule:nonzero;stroke:none"
             d="m 0,0 c 0,-0.168 0.026,-0.331 0.077,-0.489 0.051,-0.157 0.126,-0.297 0.223,-0.418 0.097,-0.121 0.216,-0.218 0.357,-0.291 0.141,-0.074 0.302,-0.111 0.482,-0.111 0.183,0 0.345,0.038 0.486,0.113 0.142,0.075 0.261,0.175 0.358,0.3 0.097,0.125 0.17,0.265 0.22,0.42 C 2.252,-0.319 2.277,-0.161 2.277,0 2.277,0.169 2.25,0.332 2.197,0.49 2.144,0.647 2.069,0.787 1.972,0.908 1.874,1.029 1.755,1.125 1.614,1.196 1.473,1.269 1.314,1.304 1.139,1.304 0.955,1.304 0.792,1.267 0.649,1.191 0.506,1.116 0.387,1.017 0.292,0.895 0.196,0.771 0.124,0.632 0.074,0.477 0.025,0.32 0,0.162 0,0 m 1.133,-1.979 c -0.286,0 -0.546,0.055 -0.778,0.167 -0.233,0.112 -0.433,0.26 -0.6,0.446 -0.167,0.184 -0.296,0.396 -0.387,0.635 -0.092,0.238 -0.138,0.482 -0.138,0.731 0,0.261 0.049,0.51 0.146,0.748 0.097,0.238 0.231,0.449 0.401,0.633 C -0.052,1.564 0.15,1.71 0.385,1.818 0.62,1.926 0.874,1.98 1.149,1.98 1.432,1.98 1.689,1.923 1.922,1.807 2.155,1.691 2.354,1.54 2.519,1.354 2.684,1.166 2.813,0.954 2.904,0.716 2.996,0.477 3.042,0.235 3.042,-0.011 3.042,-0.271 2.994,-0.52 2.898,-0.756 2.803,-0.992 2.671,-1.201 2.502,-1.383 2.334,-1.564 2.132,-1.709 1.897,-1.817 1.663,-1.926 1.408,-1.979 1.133,-1.979" /></g><g
           transform="translate(116.0313,55.062)"
           id="g148"><path
             id="path150"
             style="fill:#ffffff;fill-opacity:1;fill-rule:nonzero;stroke:none"
             d="m 0,0 h 0.952 c 0.069,0 0.134,0.017 0.195,0.05 0.06,0.032 0.112,0.077 0.157,0.135 0.044,0.056 0.078,0.123 0.104,0.2 0.026,0.077 0.038,0.159 0.038,0.248 0,0.091 -0.014,0.176 -0.044,0.253 C 1.373,0.962 1.333,1.029 1.284,1.086 1.235,1.143 1.178,1.187 1.114,1.218 1.049,1.249 0.984,1.265 0.918,1.265 H 0 Z M -0.759,-1.975 V 1.931 H 0.968 C 1.147,1.931 1.313,1.893 1.466,1.817 1.618,1.742 1.749,1.644 1.859,1.521 1.969,1.398 2.055,1.259 2.118,1.103 2.18,0.946 2.211,0.79 2.211,0.633 2.211,0.379 2.148,0.149 2.021,-0.058 1.895,-0.265 1.723,-0.414 1.507,-0.506 L 2.398,-1.975 H 1.545 L 0.748,-0.666 H 0 v -1.309 z" /></g><g
           transform="translate(122.1914,53.5278)"
           id="g152"><path
             id="path154"
             style="fill:#ffffff;fill-opacity:1;fill-rule:nonzero;stroke:none"
             d="m 0,0 c -0.312,-0.312 -0.675,-0.468 -1.089,-0.468 -0.257,0 -0.498,0.051 -0.723,0.155 -0.226,0.102 -0.422,0.243 -0.589,0.422 -0.167,0.18 -0.299,0.392 -0.396,0.636 -0.097,0.243 -0.146,0.507 -0.146,0.789 0,0.268 0.049,0.52 0.146,0.756 0.097,0.236 0.231,0.444 0.401,0.622 0.171,0.178 0.372,0.318 0.603,0.423 0.231,0.104 0.482,0.157 0.753,0.157 0.367,0 0.682,-0.077 0.944,-0.231 C 0.165,3.107 0.363,2.899 0.495,2.64 L -0.072,2.222 C -0.17,2.416 -0.309,2.564 -0.487,2.667 -0.665,2.77 -0.858,2.821 -1.067,2.821 -1.232,2.821 -1.383,2.786 -1.521,2.717 -1.658,2.646 -1.776,2.552 -1.873,2.431 -1.97,2.31 -2.045,2.17 -2.099,2.013 -2.151,1.855 -2.178,1.689 -2.178,1.512 c 0,-0.183 0.029,-0.355 0.088,-0.514 0.058,-0.16 0.139,-0.298 0.242,-0.415 0.102,-0.118 0.224,-0.21 0.366,-0.278 0.141,-0.068 0.294,-0.102 0.459,-0.102 0.377,0 0.718,0.178 1.023,0.533 V 1.012 H -0.787 V 1.567 H 0.627 V -0.44 L 0,-0.44 Z" /></g><g
           transform="translate(27.5092,140.22)"
           id="g156"><path
             id="path158"
             style="fill:none;stroke:#000000;stroke-width:0.5;stroke-linecap:butt;stroke-linejoin:miter;stroke-miterlimit:10;stroke-dasharray:none;stroke-opacity:1"
             d="M 0,0 V -6.747" /></g><g
           transform="translate(27.5092,53.3303)"
           id="g160"><path
             id="path162"
             style="fill:none;stroke:#000000;stroke-width:0.5;stroke-linecap:butt;stroke-linejoin:miter;stroke-miterlimit:10;stroke-dasharray:none;stroke-opacity:1"
             d="M 0,0 V -6.747" /></g><g
           transform="translate(80.6793,170.9177)"
           id="g164"><path
             id="path166"
             style="fill:none;stroke:#000000;stroke-width:0.5;stroke-linecap:butt;stroke-linejoin:miter;stroke-miterlimit:10;stroke-dasharray:none;stroke-opacity:1"
             d="M 0,0 5.454,-3.149" /></g><g
           transform="translate(156.2157,127.3067)"
           id="g168"><path
             id="path170"
             style="fill:none;stroke:#000000;stroke-width:0.5;stroke-linecap:butt;stroke-linejoin:miter;stroke-miterlimit:10;stroke-dasharray:none;stroke-opacity:1"
             d="M 0,0 5.555,-3.207" /></g><g
           transform="translate(18.2021,62.704)"
           id="g172"><path
             id="path174"
             style="fill:none;stroke:#000000;stroke-width:0.5;stroke-linecap:butt;stroke-linejoin:miter;stroke-miterlimit:10;stroke-dasharray:none;stroke-opacity:1"
             d="M 0,0 6.515,-3.761" /></g><g
           transform="translate(93.0146,19.511)"
           id="g176"><path
             id="path178"
             style="fill:none;stroke:#000000;stroke-width:0.5;stroke-linecap:butt;stroke-linejoin:miter;stroke-miterlimit:10;stroke-dasharray:none;stroke-opacity:1"
             d="M 0,0 6.279,-3.625" /></g><g
           transform="translate(152.4636,140.22)"
           id="g180"><path
             id="path182"
             style="fill:none;stroke:#000000;stroke-width:0.5;stroke-linecap:butt;stroke-linejoin:miter;stroke-miterlimit:10;stroke-dasharray:none;stroke-opacity:1"
             d="M 0,0 V -6.747" /></g><g
           transform="translate(152.4636,53.3303)"
           id="g184"><path
             id="path186"
             style="fill:none;stroke:#000000;stroke-width:0.5;stroke-linecap:butt;stroke-linejoin:miter;stroke-miterlimit:10;stroke-dasharray:none;stroke-opacity:1"
             d="M 0,0 V -6.747" /></g><g
           transform="translate(18.2021,124.0995)"
           id="g188"><path
             id="path190"
             style="fill:none;stroke:#000000;stroke-width:0.5;stroke-linecap:butt;stroke-linejoin:miter;stroke-miterlimit:10;stroke-dasharray:none;stroke-opacity:1"
             d="M 0,0 6.771,3.909" /></g><g
           transform="translate(93.7008,167.6887)"
           id="g192"><path
             id="path194"
             style="fill:none;stroke:#000000;stroke-width:0.5;stroke-linecap:butt;stroke-linejoin:miter;stroke-miterlimit:10;stroke-dasharray:none;stroke-opacity:1"
             d="M 0,0 5.593,3.229" /></g><g
           transform="translate(80.6793,15.8858)"
           id="g196"><path
             id="path198"
             style="fill:none;stroke:#000000;stroke-width:0.5;stroke-linecap:butt;stroke-linejoin:miter;stroke-miterlimit:10;stroke-dasharray:none;stroke-opacity:1"
             d="M 0,0 6.092,3.517" /></g><g
           transform="translate(155.9475,59.3419)"
           id="g200"><path
             id="path202"
             style="fill:none;stroke:#000000;stroke-width:0.5;stroke-linecap:butt;stroke-linejoin:miter;stroke-miterlimit:10;stroke-dasharray:none;stroke-opacity:1"
             d="M 0,0 5.823,3.362" /></g></g></g></g></svg>