<?xml version="1.0" encoding="UTF-8" standalone="no"?>
<!-- Created with Inkscape (http://www.inkscape.org/) -->

<svg
   xmlns:dc="http://purl.org/dc/elements/1.1/"
   xmlns:cc="http://creativecommons.org/ns#"
   xmlns:rdf="http://www.w3.org/1999/02/22-rdf-syntax-ns#"
   xmlns:svg="http://www.w3.org/2000/svg"
   xmlns="http://www.w3.org/2000/svg"
   xmlns:sodipodi="http://sodipodi.sourceforge.net/DTD/sodipodi-0.dtd"
   xmlns:inkscape="http://www.inkscape.org/namespaces/inkscape"
   width="25.4mm"
   height="25.4mm"
   id="svg2"
   version="1.1"
   inkscape:version="0.91 r13725"
   sodipodi:docname="wavedrom.svg"
   inkscape:export-filename="/home/drom/work/github/wavedrom/wavedrom.github.io/images/icon_512.png"
   inkscape:export-xdpi="837.82001"
   inkscape:export-ydpi="837.82001">
  <defs
     id="defs4" />
  <sodipodi:namedview
     id="base"
     pagecolor="#ffffff"
     bordercolor="#666666"
     borderopacity="1.0"
     inkscape:pageopacity="0.0"
     inkscape:pageshadow="2"
     inkscape:zoom="5.6568542"
     inkscape:cx="62.068202"
     inkscape:cy="21.51438"
     inkscape:document-units="px"
     inkscape:current-layer="layer1"
     showgrid="true"
     showguides="true"
     inkscape:guide-bbox="true"
     inkscape:window-width="1912"
     inkscape:window-height="2083"
     inkscape:window-x="1922"
     inkscape:window-y="0"
     inkscape:window-maximized="0"
     units="mm"
     gridtolerance="10000"
     inkscape:snap-text-baseline="true"
     objecttolerance="10000"
     guidetolerance="10000"
     inkscape:snap-perpendicular="true"
     inkscape:snap-tangential="true"
     inkscape:object-nodes="true">
    <inkscape:grid
       type="axonomgrid"
       id="grid4009"
       units="px"
       empspacing="8"
       snapvisiblegridlinesonly="true"
       spacingy="4"
       enabled="true"
       visible="true" />
    <sodipodi:guide
       position="13.856406,40"
       orientation="1,0"
       id="guide4146" />
    <sodipodi:guide
       position="69.282032,28"
       orientation="1,0"
       id="guide4148" />
    <sodipodi:guide
       position="6.9282032,68"
       orientation="0,1"
       id="guide4150" />
    <sodipodi:guide
       position="6.9282032,20"
       orientation="0,1"
       id="guide4152" />
  </sodipodi:namedview>
  <metadata
     id="metadata7">
    <rdf:RDF>
      <cc:Work
         rdf:about="">
        <dc:format>image/svg+xml</dc:format>
        <dc:type
           rdf:resource="http://purl.org/dc/dcmitype/StillImage" />
        <dc:title></dc:title>
      </cc:Work>
    </rdf:RDF>
  </metadata>
  <g
     inkscape:label="Layer 1"
     inkscape:groupmode="layer"
     id="layer1"
     transform="translate(0,-962.36222)">
    <path
       style="fill:#c7c7c7;fill-opacity:1;fill-rule:evenodd;stroke:none;stroke-width:1px;stroke-linecap:butt;stroke-linejoin:miter;stroke-opacity:1"
       d="m 3.4641013,986.36222 38.1051177,-22 38.105118,22 0,43.99998 -38.105118,22 -38.1051177,-22 z"
       id="path4011"
       inkscape:connector-curvature="0"
       sodipodi:nodetypes="ccccccc" />
    <path
       style="fill:#eaeaea;fill-opacity:1;fill-rule:evenodd;stroke:none;stroke-width:1px;stroke-linecap:butt;stroke-linejoin:miter;stroke-opacity:1"
       d="m 6.9282032,988.36222 34.6410158,-20 34.641017,20 0,39.99998 -34.641017,20 -34.6410158,-20 z"
       id="path4011-9"
       inkscape:connector-curvature="0"
       sodipodi:nodetypes="ccccccc" />
    <g
       id="g4015"
       transform="translate(1.8445717,-3.3112824)">
      <path
         id="path4881-8-5"
         d="m 24.644038,1013.0095 0,2.5 5.03125,0 -4.375,4.375 a 0.50005,0.50005 0 1 0 0.6875,0.7187 l 5.09375,-5.0937 3.59375,0 -8.375,8.375 a 0.50005,0.50005 0 1 0 0.6875,0.7187 l 9.09375,-9.0937 3.59375,0 -12.375,12.375 a 0.50005,0.50005 0 1 0 0.6875,0.7187 l 12.84375,-12.8437 0.8125,2.7812 -13.34375,13.3438 a 0.50005,0.50005 0 1 0 0.6875,0.7187 l 12.96875,-12.9687 0.84375,2.75 -10.625,10.625 -4.53125,0 0,2.5 14,0 a 1.250125,1.250125 0 0 0 1.1875,-0.9063 l 5.71875,-19.0937 8.09375,0 0,-2.5 -9,0 a 1.250125,1.250125 0 0 0 -0.25,0 1.250125,1.250125 0 0 0 -0.9375,0.875 l -1.8125,6.0312 -1.8125,-6.0312 a 1.250125,1.250125 0 0 0 -1.1875,-0.875 l -17,0 z m 18.46875,10.4687 0.21875,0.75 -1.09375,3.7188 -5.0625,5.0625 -3.59375,0 9.53125,-9.5313 z m -1.5,6.5 -0.90625,3.0313 -2.125,0 3.03125,-3.0313 z"
         style="color:#000000;font-style:normal;font-variant:normal;font-weight:normal;font-stretch:normal;font-size:medium;line-height:normal;font-family:Sans;-inkscape-font-specification:Sans;text-indent:0;text-align:start;text-decoration:none;text-decoration-line:none;letter-spacing:normal;word-spacing:normal;text-transform:none;direction:ltr;block-progression:tb;writing-mode:lr-tb;baseline-shift:baseline;text-anchor:start;display:inline;overflow:visible;visibility:visible;fill:#e1e1e1;fill-opacity:1;stroke:none;stroke-width:2.5;marker:none;enable-background:accumulate"
         inkscape:connector-curvature="0" />
      <path
         sodipodi:nodetypes="cccccccccccccccccccccc"
         inkscape:connector-curvature="0"
         id="path4879-5-2"
         d="m 31.394038,988.0034 c -0.567391,0.1158 -1.011627,0.6711 -1,1.25 l 0,4.7813 -2.9375,8.8125 -0.53125,1.6563 1.71875,0 1.75,0 0,3.5 -5.75,0 0,2.5 7,0 c 0.654481,-10e-5 1.249935,-0.5956 1.25,-1.25 l 0,-4.75 1.75,0 1.71875,0 -0.53125,-1.6563 -2.9375,-8.8125 0,-3.5313 18.75,0 0,-2.5 -20,0 c -0.08305,-0.01 -0.166946,-0.01 -0.25,0 z"
         style="color:#000000;font-style:normal;font-variant:normal;font-weight:normal;font-stretch:normal;font-size:medium;line-height:normal;font-family:Sans;-inkscape-font-specification:Sans;text-indent:0;text-align:start;text-decoration:none;text-decoration-line:none;letter-spacing:normal;word-spacing:normal;text-transform:none;direction:ltr;block-progression:tb;writing-mode:lr-tb;baseline-shift:baseline;text-anchor:start;display:inline;overflow:visible;visibility:visible;fill:#e1e1e1;fill-opacity:1;stroke:none;stroke-width:2.5;marker:none;enable-background:accumulate" />
      <path
         id="path4881-8"
         d="m 25.044038,1013.4125 0,2.5 5.03125,0 -4.375,4.375 a 0.50005,0.50005 0 1 0 0.6875,0.7187 l 5.09375,-5.0937 3.59375,0 -8.375,8.375 a 0.50005,0.50005 0 1 0 0.6875,0.7187 l 9.09375,-9.0937 3.59375,0 -12.375,12.375 a 0.50005,0.50005 0 1 0 0.6875,0.7187 l 12.84375,-12.8437 0.8125,2.7812 -13.34375,13.3438 a 0.50005,0.50005 0 1 0 0.6875,0.7187 l 12.96875,-12.9687 0.84375,2.75 -10.625,10.625 -4.53125,0 0,2.5 14,0 a 1.250125,1.250125 0 0 0 1.1875,-0.9063 l 5.71875,-19.0937 8.09375,0 0,-2.5 -9,0 a 1.250125,1.250125 0 0 0 -0.25,0 1.250125,1.250125 0 0 0 -0.9375,0.875 l -1.8125,6.0312 -1.8125,-6.0312 a 1.250125,1.250125 0 0 0 -1.1875,-0.875 l -17,0 z m 18.46875,10.4687 0.21875,0.75 -1.09375,3.7188 -5.0625,5.0625 -3.59375,0 9.53125,-9.5313 z m -1.5,6.5 -0.90625,3.0313 -2.125,0 3.03125,-3.0313 z"
         style="color:#000000;font-style:normal;font-variant:normal;font-weight:normal;font-stretch:normal;font-size:medium;line-height:normal;font-family:Sans;-inkscape-font-specification:Sans;text-indent:0;text-align:start;text-decoration:none;text-decoration-line:none;letter-spacing:normal;word-spacing:normal;text-transform:none;direction:ltr;block-progression:tb;writing-mode:lr-tb;baseline-shift:baseline;text-anchor:start;display:inline;overflow:visible;visibility:visible;fill:#e1e1e1;fill-opacity:1;stroke:none;stroke-width:2.5;marker:none;enable-background:accumulate"
         inkscape:connector-curvature="0" />
      <path
         sodipodi:nodetypes="cccccccccccccccccccccc"
         inkscape:connector-curvature="0"
         id="path4879-5"
         d="m 31.794038,988.4144 c -0.567391,0.1158 -1.011627,0.6711 -1,1.25 l 0,4.7813 -2.9375,8.8125 -0.53125,1.6563 1.71875,0 1.75,0 0,3.5 -5.75,0 0,2.5 7,0 c 0.654481,-10e-5 1.249935,-0.5956 1.25,-1.25 l 0,-4.75 1.75,0 1.71875,0 -0.53125,-1.6563 -2.9375,-8.8125 0,-3.5313 18.75,0 0,-2.5 -20,0 c -0.08305,-0.01 -0.166946,-0.01 -0.25,0 z"
         style="color:#000000;font-style:normal;font-variant:normal;font-weight:normal;font-stretch:normal;font-size:medium;line-height:normal;font-family:Sans;-inkscape-font-specification:Sans;text-indent:0;text-align:start;text-decoration:none;text-decoration-line:none;letter-spacing:normal;word-spacing:normal;text-transform:none;direction:ltr;block-progression:tb;writing-mode:lr-tb;baseline-shift:baseline;text-anchor:start;display:inline;overflow:visible;visibility:visible;fill:#e1e1e1;fill-opacity:1;stroke:none;stroke-width:2.5;marker:none;enable-background:accumulate" />
      <path
         sodipodi:nodetypes="cccccccccccccccccccccc"
         inkscape:connector-curvature="0"
         id="path4879"
         d="m 31.594038,988.2075 c -0.567391,0.11575 -1.011627,0.67104 -1,1.25 l 0,4.78125 -2.9375,8.81245 -0.53125,1.6563 1.71875,0 1.75,0 0,3.5 -5.75,0 0,2.5 7,0 c 0.654481,-10e-5 1.249935,-0.5956 1.25,-1.25 l 0,-4.75 1.75,0 1.71875,0 -0.53125,-1.6563 -2.9375,-8.81245 0,-3.53125 18.75,0 0,-2.5 -20,0 c -0.08305,-0.008 -0.166946,-0.008 -0.25,0 z"
         style="color:#000000;font-style:normal;font-variant:normal;font-weight:normal;font-stretch:normal;font-size:medium;line-height:normal;font-family:Sans;-inkscape-font-specification:Sans;text-indent:0;text-align:start;text-decoration:none;text-decoration-line:none;letter-spacing:normal;word-spacing:normal;text-transform:none;direction:ltr;block-progression:tb;writing-mode:lr-tb;baseline-shift:baseline;text-anchor:start;display:inline;overflow:visible;visibility:visible;fill:#3c3c3c;fill-opacity:1;stroke:none;stroke-width:2.5;marker:none;enable-background:accumulate" />
      <path
         inkscape:connector-curvature="0"
         id="path4881"
         d="m 24.844038,1013.2075 0,2.5 5.03125,0 -4.375,4.375 a 0.50005,0.50005 0 1 0 0.6875,0.7187 l 5.09375,-5.0937 3.59375,0 -8.375,8.375 a 0.50005,0.50005 0 1 0 0.6875,0.7187 l 9.09375,-9.0937 3.59375,0 -12.375,12.375 a 0.50005,0.50005 0 1 0 0.6875,0.7187 l 12.84375,-12.8437 0.8125,2.7812 -13.34375,13.3438 a 0.50005,0.50005 0 1 0 0.6875,0.7187 l 12.96875,-12.9687 0.84375,2.75 -10.625,10.625 -4.53125,0 0,2.5 14,0 a 1.250125,1.250125 0 0 0 1.1875,-0.9063 l 5.71875,-19.0937 8.09375,0 0,-2.5 -9,0 a 1.250125,1.250125 0 0 0 -0.25,0 1.250125,1.250125 0 0 0 -0.9375,0.875 l -1.8125,6.0312 -1.8125,-6.0312 a 1.250125,1.250125 0 0 0 -1.1875,-0.875 l -17,0 z m 18.46875,10.4687 0.21875,0.75 -1.09375,3.7188 -5.0625,5.0625 -3.59375,0 9.53125,-9.5313 z m -1.5,6.5 -0.90625,3.0313 -2.125,0 3.03125,-3.0313 z"
         style="color:#000000;font-style:normal;font-variant:normal;font-weight:normal;font-stretch:normal;font-size:medium;line-height:normal;font-family:Sans;-inkscape-font-specification:Sans;text-indent:0;text-align:start;text-decoration:none;text-decoration-line:none;letter-spacing:normal;word-spacing:normal;text-transform:none;direction:ltr;block-progression:tb;writing-mode:lr-tb;baseline-shift:baseline;text-anchor:start;display:inline;overflow:visible;visibility:visible;fill:#3c3c3c;fill-opacity:1;stroke:none;stroke-width:2.5;marker:none;enable-background:accumulate" />
      <g
         transform="translate(11.844038,-12.904699)"
         id="text4927"
         style="font-style:normal;font-weight:normal;font-size:40px;line-height:125%;font-family:'Bitstream Vera Sans';letter-spacing:0px;word-spacing:0px;fill:#004855;fill-opacity:1;stroke:none">
        <path
           inkscape:connector-curvature="0"
           id="path2996"
           style="font-variant:normal;font-stretch:normal;font-size:56px;line-height:125%;font-family:'Nimbus Sans L Condensed';-inkscape-font-specification:'Nimbus Sans L Condensed,';text-align:start;writing-mode:lr-tb;text-anchor:start;fill:#004855"
           d="m 1.904,1026.2582 c 1.0639989,0.168 1.4560006,0.392 2.016,1.12 1.0639989,1.4 1.68,3.584 1.68,6.16 l 0,9.576 c 0,4.088 2.0160027,7.224 4.704,7.224 l 3.08,0 0,-3.64 -2.016,0 c -1.3999986,0 -2.128,-1.568 -2.128,-4.592 l 0,-9.464 c 0,-3.752 -1.5680026,-6.832 -4.144,-8.064 2.4079976,-1.064 4.144,-4.312 4.144,-7.896 l 0,-9.52 c 0,-3.024 0.7280014,-4.592 2.128,-4.592 l 2.016,0 0,-3.64002 -3.08,0 c -2.6879973,0 -4.704,3.13602 -4.704,7.22402 l 0,9.632 c 0,2.464 -0.5600011,4.592 -1.624,5.992 -0.5599994,0.728 -1.0080011,0.952 -2.072,1.12 l 0,3.36" />
        <path
           inkscape:connector-curvature="0"
           id="path2998"
           style="font-variant:normal;font-stretch:normal;font-size:56px;line-height:125%;font-family:'Nimbus Sans L Condensed';-inkscape-font-specification:'Nimbus Sans L Condensed,';text-align:start;writing-mode:lr-tb;text-anchor:start;fill:#004855"
           d="m 54.29025,1022.8982 c -1.063999,-0.168 -1.512001,-0.392 -2.072,-1.12 -1.063999,-1.4 -1.624,-3.472 -1.624,-5.992 l 0,-9.632 c 0,-4.088 -2.016003,-7.22402 -4.704,-7.22402 l -3.08,0 0,3.64002 2.016,0 c 1.399999,0 2.128,1.568 2.128,4.592 l 0,9.52 c 0,3.584 1.736002,6.832 4.144,7.896 -2.575997,1.232 -4.144,4.312 -4.144,8.064 l 0,9.464 c 0,2.968 -0.728001,4.592 -2.128,4.592 l -2.016,0 0,3.64 3.08,0 c 2.687997,0 4.704,-3.136 4.704,-7.224 l 0,-9.576 c 0,-2.632 0.560001,-4.76 1.68,-6.16 0.559999,-0.728 0.952001,-0.952 2.016,-1.12 l 0,-3.36" />
      </g>
    </g>
  </g>
</svg>
