<?xml version="1.0" standalone="no"?><!DOCTYPE svg PUBLIC "-//W3C//DTD SVG 1.1//EN" "http://www.w3.org/Graphics/SVG/1.1/DTD/svg11.dtd"><svg width="100%" height="100%" viewBox="0 0 609 609" version="1.1" xmlns="http://www.w3.org/2000/svg" xmlns:xlink="http://www.w3.org/1999/xlink" xml:space="preserve" style="fill-rule:evenodd;clip-rule:evenodd;stroke-linejoin:round;stroke-miterlimit:1.41421;"><g><path d="M48.333,150l250.417,-144.583c3.333,-2.084 7.5,-2.084 10.833,0l250.417,144.583c3.333,2.083 5.417,5.417 5.417,9.583l0,289.167c0,3.75 -2.084,7.5 -5.417,9.583l-250.417,144.584c-3.333,2.083 -7.5,2.083 -10.833,0l-250.417,-144.584c-3.333,-2.083 -5.416,-5.416 -5.416,-9.583l0,-289.167c0,-3.75 2.083,-7.5 5.416,-9.583Z" style="fill:#ef334c;fill-rule:nonzero;"/><path d="M68.333,162.083l230.834,-133.333c2.916,-1.667 7.083,-1.667 10,0l230.833,133.333c2.917,1.667 5,5 5,8.75l0,266.667c0,3.75 -2.083,7.083 -5,8.75l-230.833,133.333c-2.917,1.667 -7.084,1.667 -10,0l-230.834,-133.333c-2.916,-1.667 -5,-5 -5,-8.75l0,-266.667c0,-3.75 1.667,-6.666 5,-8.75Z" style="fill:#242930;fill-rule:nonzero;"/><g><clipPath id="_clip1"><rect x="58.258" y="20.852" width="491.825" height="566.29"/></clipPath><g clip-path="url(#_clip1)"><g opacity="0.35"><path d="M141.802,212.527c-0.356,0 -0.707,-0.091 -1.023,-0.266l-81.176,-46.866c-0.638,-0.374 -1.034,-1.052 -1.034,-1.787c0,-0.741 0.396,-1.419 1.034,-1.787l81.215,-46.895c0.639,-0.367 1.425,-0.367 2.07,0c0.639,0.368 1.029,1.058 1.029,1.787l0,93.739c0,0.74 -0.396,1.425 -1.046,1.792c-0.323,0.181 -0.701,0.283 -1.069,0.283ZM64.766,163.608l75.023,43.31l0,-86.626l-75.023,43.316Z" style="fill:#ef334c;fill-rule:nonzero;"/><path d="M60.638,259.405c-0.356,0 -0.707,-0.097 -1.035,-0.277c-0.638,-0.374 -1.034,-1.052 -1.034,-1.787l0,-93.733c0,-0.741 0.396,-1.419 1.034,-1.787c0.639,-0.373 1.425,-0.373 2.07,0l81.175,46.867c0.639,0.367 1.029,1.051 1.029,1.786c0,0.735 -0.39,1.42 -1.029,1.787l-81.175,46.872c-0.322,0.175 -0.679,0.272 -1.035,0.272ZM62.702,167.181l0,86.581l74.984,-43.293l-74.984,-43.288Z" style="fill:#ef334c;fill-rule:nonzero;"/><path d="M223.068,165.672c-0.362,0 -0.712,-0.096 -1.035,-0.277l-81.215,-46.895c-0.639,-0.368 -1.034,-1.052 -1.034,-1.787c0,-0.735 0.395,-1.47 1.034,-1.837l81.215,-46.89c0.639,-0.373 1.425,-0.373 2.064,0c0.639,0.362 1.035,1.052 1.035,1.787l0,93.829c0,0.735 -0.396,1.414 -1.035,1.787c-0.317,0.187 -0.673,0.283 -1.029,0.283ZM145.941,116.691l75.063,43.338l0,-86.677l-75.063,43.339Z" style="fill:#ef334c;fill-rule:nonzero;"/><path d="M223.068,165.672c-0.362,0 -0.712,-0.096 -1.035,-0.277c-0.639,-0.374 -1.029,-1.052 -1.029,-1.787l0,-93.829c0,-0.741 0.39,-1.425 1.029,-1.787c0.639,-0.373 1.425,-0.373 2.064,0l81.215,46.889c0.644,0.368 1.04,1.052 1.04,1.787c0,0.735 -0.39,1.464 -1.04,1.832l-81.215,46.895c-0.317,0.181 -0.673,0.277 -1.029,0.277ZM225.132,73.352l0,86.677l75.057,-43.338l-75.057,-43.339Z" style="fill:#ef334c;fill-rule:nonzero;"/><path d="M141.893,212.538c-0.357,0 -0.707,-0.096 -1.018,-0.271l-0.04,-0.023c-0.644,-0.367 -1.046,-1.057 -1.046,-1.792l0,-93.739c0,-0.735 0.396,-1.419 1.035,-1.787c0.639,-0.373 1.425,-0.373 2.069,0l81.215,46.89c0.639,0.367 1.035,1.051 1.035,1.786c0,0.735 -0.396,1.414 -1.035,1.787l-81.175,46.866c-0.328,0.187 -0.684,0.283 -1.04,0.283ZM143.917,120.292l0,86.626l75.023,-43.31l-75.023,-43.316Z" style="fill:#ef334c;fill-rule:nonzero;"/><path d="M304.238,212.527c-0.362,0 -0.718,-0.091 -1.024,-0.266l-81.181,-46.866c-0.639,-0.374 -1.029,-1.052 -1.029,-1.787c0,-0.741 0.39,-1.419 1.029,-1.787l81.221,-46.895c0.639,-0.367 1.425,-0.367 2.058,0c0.644,0.368 1.04,1.052 1.04,1.787l0,93.739c0,0.74 -0.396,1.425 -1.051,1.792c-0.328,0.181 -0.696,0.283 -1.063,0.283ZM227.195,163.608l75.018,43.31l0,-86.626l-75.018,43.316Z" style="fill:#ef334c;fill-rule:nonzero;"/><path d="M304.238,118.732c-0.362,0 -0.718,-0.09 -1.024,-0.266l-81.181,-46.866c-0.639,-0.373 -1.029,-1.052 -1.029,-1.787c0,-0.741 0.39,-1.419 1.029,-1.787l81.221,-46.894c0.639,-0.368 1.425,-0.368 2.058,0c0.644,0.367 1.04,1.051 1.04,1.786l0,93.739c0,0.741 -0.396,1.425 -1.051,1.792c-0.328,0.181 -0.696,0.283 -1.063,0.283ZM227.195,69.813l75.018,43.31l0,-86.626l-75.018,43.316Z" style="fill:#ef334c;fill-rule:nonzero;"/><path d="M223.068,259.405c-0.362,0 -0.712,-0.097 -1.035,-0.277c-0.639,-0.374 -1.029,-1.052 -1.029,-1.787l0,-93.733c0,-0.741 0.39,-1.419 1.029,-1.787c0.639,-0.373 1.425,-0.373 2.064,0l81.181,46.867c0.633,0.367 1.035,1.051 1.035,1.786c0,0.735 -0.396,1.42 -1.035,1.787l-81.181,46.872c-0.317,0.175 -0.673,0.272 -1.029,0.272ZM225.132,167.181l0,86.581l74.984,-43.293l-74.984,-43.288Z" style="fill:#ef334c;fill-rule:nonzero;"/><path d="M223.068,259.405c-0.362,0 -0.712,-0.097 -1.035,-0.277l-81.175,-46.873c-0.639,-0.367 -1.035,-1.051 -1.035,-1.786c0,-0.735 0.396,-1.419 1.035,-1.787l81.175,-46.866c0.639,-0.374 1.425,-0.374 2.064,0c0.639,0.367 1.035,1.051 1.035,1.786l0,93.733c0,0.741 -0.396,1.414 -1.035,1.787c-0.317,0.186 -0.673,0.283 -1.029,0.283ZM146.02,210.469l74.984,43.293l0,-86.581l-74.984,43.288Z" style="fill:#ef334c;fill-rule:nonzero;"/><path d="M141.542,306.288c-0.356,0 -0.712,-0.09 -1.035,-0.271l-81.215,-46.895c-0.638,-0.368 -1.034,-1.052 -1.034,-1.787c0,-0.74 0.39,-1.47 1.034,-1.837l81.215,-46.889c0.639,-0.374 1.425,-0.374 2.064,0c0.639,0.361 1.035,1.051 1.035,1.786l0,93.835c0,0.735 -0.396,1.414 -1.035,1.787c-0.311,0.181 -0.673,0.271 -1.029,0.271ZM64.415,257.313l75.063,43.338l0,-86.677l-75.063,43.339Z" style="fill:#ef334c;fill-rule:nonzero;"/><path d="M141.542,306.288c-0.356,0 -0.712,-0.09 -1.035,-0.271c-0.639,-0.373 -1.034,-1.058 -1.034,-1.787l0,-93.829c0,-0.735 0.395,-1.419 1.034,-1.787c0.639,-0.373 1.425,-0.373 2.064,0l81.215,46.889c0.639,0.368 1.035,1.052 1.035,1.787c0,0.741 -0.396,1.464 -1.035,1.838l-81.215,46.894c-0.311,0.176 -0.673,0.266 -1.029,0.266ZM143.606,213.974l0,86.677l75.063,-43.338l-75.063,-43.339Z" style="fill:#ef334c;fill-rule:nonzero;"/><path d="M60.367,353.155c-0.351,0 -0.701,-0.085 -1.018,-0.266l-0.04,-0.023c-0.644,-0.367 -1.046,-1.057 -1.046,-1.798l0,-93.733c0,-0.74 0.391,-1.419 1.035,-1.786c0.639,-0.374 1.425,-0.374 2.064,0l81.215,46.889c0.639,0.367 1.034,1.051 1.034,1.786c0,0.735 -0.395,1.414 -1.034,1.787l-81.176,46.861c-0.322,0.192 -0.678,0.283 -1.034,0.283ZM62.391,260.914l0,86.626l75.024,-43.31l-75.024,-43.316Z" style="fill:#ef334c;fill-rule:nonzero;"/><path d="M222.7,353.143c-0.356,0 -0.706,-0.085 -1.017,-0.265l-81.176,-46.861c-0.639,-0.373 -1.034,-1.058 -1.034,-1.787c0,-0.741 0.395,-1.419 1.034,-1.787l81.215,-46.894c0.639,-0.368 1.425,-0.368 2.064,0c0.639,0.367 1.035,1.051 1.035,1.786l0,93.733c0,0.747 -0.402,1.431 -1.046,1.798c-0.323,0.192 -0.696,0.277 -1.075,0.277ZM145.67,304.23l75.023,43.31l0,-86.626l-75.023,43.316Z" style="fill:#ef334c;fill-rule:nonzero;"/><path d="M141.542,400.027c-0.356,0 -0.712,-0.096 -1.035,-0.283c-0.639,-0.362 -1.034,-1.052 -1.034,-1.781l0,-93.733c0,-0.741 0.395,-1.419 1.034,-1.787c0.639,-0.373 1.425,-0.373 2.064,0l81.175,46.867c0.639,0.362 1.035,1.051 1.035,1.781c0,0.741 -0.396,1.419 -1.035,1.787l-81.175,46.866c-0.311,0.192 -0.673,0.283 -1.029,0.283ZM143.606,307.803l0,86.581l74.984,-43.293l-74.984,-43.288Z" style="fill:#ef334c;fill-rule:nonzero;"/><path d="M141.542,400.027c-0.356,0 -0.712,-0.096 -1.035,-0.283l-81.175,-46.866c-0.639,-0.368 -1.035,-1.052 -1.035,-1.787c0,-0.735 0.396,-1.419 1.035,-1.781l81.175,-46.867c0.639,-0.373 1.425,-0.373 2.064,0c0.639,0.368 1.035,1.052 1.035,1.787l0,93.733c0,0.735 -0.396,1.419 -1.035,1.781c-0.311,0.192 -0.673,0.283 -1.029,0.283ZM64.494,351.091l74.984,43.293l0,-86.581l-74.984,43.288Z" style="fill:#ef334c;fill-rule:nonzero;"/><path d="M303.966,306.288c-0.356,0 -0.707,-0.09 -1.029,-0.271l-81.215,-46.895c-0.639,-0.368 -1.034,-1.052 -1.034,-1.787c0,-0.74 0.395,-1.47 1.034,-1.837l81.215,-46.889c0.639,-0.374 1.425,-0.374 2.064,0c0.633,0.361 1.035,1.051 1.035,1.786l0,93.835c0,0.735 -0.396,1.414 -1.035,1.787c-0.311,0.181 -0.679,0.271 -1.035,0.271ZM226.839,257.313l75.063,43.338l0,-86.677l-75.063,43.339Z" style="fill:#ef334c;fill-rule:nonzero;"/><path d="M303.966,306.288c-0.356,0 -0.707,-0.09 -1.029,-0.271c-0.639,-0.373 -1.035,-1.058 -1.035,-1.787l0,-93.829c0,-0.735 0.391,-1.419 1.035,-1.787c0.639,-0.373 1.425,-0.373 2.064,0l81.215,46.889c0.644,0.368 1.035,1.052 1.035,1.787c0,0.741 -0.385,1.464 -1.035,1.838l-81.215,46.894c-0.311,0.176 -0.679,0.266 -1.035,0.266ZM306.036,213.974l0,86.677l75.057,-43.338l-75.057,-43.339Z" style="fill:#ef334c;fill-rule:nonzero;"/><path d="M222.797,353.155c-0.357,0 -0.707,-0.085 -1.024,-0.266l-0.039,-0.023c-0.645,-0.367 -1.046,-1.057 -1.046,-1.798l0,-93.733c0,-0.74 0.395,-1.419 1.034,-1.786c0.639,-0.374 1.425,-0.374 2.064,0l81.221,46.889c0.633,0.367 1.034,1.051 1.034,1.786c0,0.735 -0.396,1.414 -1.034,1.787l-81.181,46.867c-0.323,0.186 -0.673,0.277 -1.029,0.277ZM224.821,260.914l0,86.626l75.029,-43.31l-75.029,-43.316Z" style="fill:#ef334c;fill-rule:nonzero;"/><path d="M385.136,353.143c-0.356,0 -0.713,-0.085 -1.024,-0.265l-81.175,-46.861c-0.639,-0.373 -1.035,-1.058 -1.035,-1.787c0,-0.741 0.391,-1.419 1.035,-1.787l81.215,-46.894c0.645,-0.368 1.431,-0.368 2.064,0c0.644,0.367 1.035,1.051 1.035,1.786l-0.006,93.733c0,0.747 -0.396,1.431 -1.046,1.798c-0.322,0.192 -0.696,0.277 -1.063,0.277ZM308.099,304.23l75.03,43.31l0,-86.626l-75.03,43.316Z" style="fill:#ef334c;fill-rule:nonzero;"/><path d="M303.966,400.027c-0.356,0 -0.707,-0.096 -1.029,-0.283c-0.639,-0.362 -1.035,-1.052 -1.035,-1.781l0,-93.733c0,-0.741 0.391,-1.419 1.035,-1.787c0.639,-0.373 1.425,-0.373 2.064,0l81.17,46.867c0.644,0.362 1.04,1.051 1.04,1.781c0,0.741 -0.39,1.419 -1.04,1.787l-81.17,46.866c-0.311,0.192 -0.679,0.283 -1.035,0.283ZM306.036,307.803l0,86.581l74.978,-43.293l-74.978,-43.288Z" style="fill:#ef334c;fill-rule:nonzero;"/><path d="M303.966,400.027c-0.356,0 -0.707,-0.096 -1.029,-0.283l-81.175,-46.866c-0.639,-0.368 -1.035,-1.052 -1.035,-1.787c0,-0.735 0.396,-1.419 1.035,-1.781l81.175,-46.867c0.639,-0.373 1.425,-0.373 2.064,0c0.633,0.368 1.035,1.052 1.035,1.787l0,93.733c0,0.735 -0.396,1.419 -1.035,1.781c-0.311,0.192 -0.679,0.283 -1.035,0.283ZM226.924,351.091l74.984,43.293l0,-86.581l-74.984,43.288Z" style="fill:#ef334c;fill-rule:nonzero;"/><path d="M385.498,165.672c-0.356,0 -0.713,-0.096 -1.035,-0.277l-81.215,-46.895c-0.633,-0.368 -1.035,-1.052 -1.035,-1.787c0,-0.735 0.396,-1.47 1.035,-1.837l81.215,-46.89c0.639,-0.373 1.425,-0.373 2.064,0c0.639,0.362 1.034,1.052 1.034,1.787l0,93.829c0,0.735 -0.39,1.414 -1.034,1.787c-0.317,0.187 -0.679,0.283 -1.029,0.283ZM308.365,116.691l75.058,43.338l0,-86.677l-75.058,43.339Z" style="fill:#ef334c;fill-rule:nonzero;"/><path d="M385.498,165.672c-0.356,0 -0.713,-0.096 -1.035,-0.277c-0.633,-0.374 -1.04,-1.052 -1.04,-1.787l0,-93.829c0,-0.741 0.401,-1.425 1.04,-1.787c0.639,-0.373 1.425,-0.373 2.064,0l81.215,46.889c0.639,0.368 1.034,1.052 1.034,1.787c0,0.735 -0.39,1.464 -1.034,1.832l-81.215,46.895c-0.317,0.181 -0.679,0.277 -1.029,0.277ZM387.561,73.352l0,86.677l75.058,-43.338l-75.058,-43.339Z" style="fill:#ef334c;fill-rule:nonzero;"/><path d="M304.311,212.538c-0.35,0 -0.695,-0.096 -1.012,-0.271l-0.04,-0.023c-0.644,-0.367 -1.051,-1.057 -1.051,-1.792l0,-93.739c0,-0.735 0.396,-1.419 1.034,-1.787c0.639,-0.373 1.425,-0.373 2.059,0l81.22,46.89c0.639,0.367 1.035,1.051 1.035,1.786c0,0.735 -0.39,1.414 -1.035,1.787l-81.175,46.866c-0.311,0.187 -0.673,0.283 -1.035,0.283ZM306.347,120.292l0,86.626l75.023,-43.31l-75.023,-43.316Z" style="fill:#ef334c;fill-rule:nonzero;"/><path d="M304.311,118.743c-0.35,0 -0.695,-0.096 -1.012,-0.271l-0.04,-0.023c-0.644,-0.367 -1.051,-1.057 -1.051,-1.792l0,-93.739c0,-0.735 0.396,-1.419 1.034,-1.786c0.639,-0.374 1.425,-0.374 2.059,0l81.22,46.889c0.639,0.367 1.035,1.051 1.035,1.786c0,0.735 -0.39,1.414 -1.035,1.787l-81.175,46.867c-0.311,0.186 -0.673,0.282 -1.035,0.282ZM306.347,26.497l0,86.626l75.023,-43.31l-75.023,-43.316Z" style="fill:#ef334c;fill-rule:nonzero;"/><path d="M466.662,212.527c-0.356,0 -0.713,-0.091 -1.024,-0.266l-81.175,-46.866c-0.633,-0.374 -1.04,-1.052 -1.04,-1.787c0,-0.741 0.401,-1.419 1.04,-1.787l81.215,-46.895c0.645,-0.367 1.43,-0.367 2.064,0c0.639,0.368 1.034,1.052 1.034,1.787l0,93.739c0,0.74 -0.395,1.425 -1.051,1.792c-0.317,0.181 -0.696,0.283 -1.063,0.283ZM389.625,163.608l75.018,43.31l0,-86.626l-75.018,43.316Z" style="fill:#ef334c;fill-rule:nonzero;"/><path d="M385.498,259.405c-0.356,0 -0.713,-0.097 -1.035,-0.277c-0.633,-0.374 -1.04,-1.052 -1.04,-1.787l0,-93.733c0,-0.741 0.401,-1.419 1.04,-1.787c0.639,-0.373 1.425,-0.373 2.064,0l81.175,46.867c0.633,0.367 1.04,1.051 1.04,1.786c0,0.735 -0.401,1.42 -1.04,1.787l-81.175,46.872c-0.317,0.175 -0.679,0.272 -1.029,0.272ZM387.561,167.181l0,86.581l74.985,-43.293l-74.985,-43.288Z" style="fill:#ef334c;fill-rule:nonzero;"/><path d="M385.498,259.405c-0.356,0 -0.713,-0.097 -1.035,-0.277l-81.175,-46.873c-0.639,-0.367 -1.035,-1.051 -1.035,-1.786c0,-0.735 0.39,-1.419 1.035,-1.787l81.175,-46.866c0.639,-0.374 1.425,-0.374 2.064,0c0.639,0.367 1.034,1.051 1.034,1.786l0,93.733c0,0.741 -0.39,1.414 -1.034,1.787c-0.317,0.186 -0.679,0.283 -1.029,0.283ZM308.45,210.469l74.978,43.293l0,-86.581l-74.978,43.288Z" style="fill:#ef334c;fill-rule:nonzero;"/><path d="M60.638,446.475c-0.356,0 -0.707,-0.091 -1.035,-0.277c-0.638,-0.362 -1.034,-1.052 -1.034,-1.781l0,-93.835c0,-0.741 0.396,-1.419 1.034,-1.781c0.639,-0.373 1.425,-0.373 2.07,0l81.215,46.889c0.639,0.362 1.029,1.046 1.029,1.787c0,0.735 -0.39,1.464 -1.029,1.832l-81.215,46.889c-0.322,0.186 -0.679,0.277 -1.035,0.277ZM62.702,354.161l0,86.682l75.063,-43.349l-75.063,-43.333Z" style="fill:#ef334c;fill-rule:nonzero;"/><path d="M141.802,493.336c-0.356,0 -0.707,-0.091 -1.023,-0.277l-81.176,-46.861c-0.638,-0.362 -1.034,-1.052 -1.034,-1.781c0,-0.741 0.396,-1.419 1.034,-1.787l81.215,-46.895c0.639,-0.367 1.425,-0.367 2.07,0c0.639,0.368 1.029,1.058 1.029,1.787l0,93.739c0,0.74 -0.396,1.424 -1.046,1.786c-0.323,0.193 -0.701,0.289 -1.069,0.289ZM64.766,444.417l75.023,43.304l0,-86.62l-75.023,43.316Z" style="fill:#ef334c;fill-rule:nonzero;"/><path d="M223.068,446.475c-0.362,0 -0.712,-0.091 -1.035,-0.277l-81.215,-46.889c-0.639,-0.368 -1.034,-1.052 -1.034,-1.787c0,-0.735 0.395,-1.47 1.034,-1.832l81.215,-46.889c0.639,-0.373 1.425,-0.373 2.064,0c0.639,0.362 1.035,1.046 1.035,1.781l0,93.835c0,0.735 -0.396,1.419 -1.035,1.781c-0.317,0.186 -0.673,0.277 -1.029,0.277ZM145.941,397.499l75.063,43.344l0,-86.682l-75.063,43.338Z" style="fill:#ef334c;fill-rule:nonzero;"/><path d="M223.068,446.475c-0.362,0 -0.712,-0.091 -1.035,-0.277c-0.639,-0.362 -1.029,-1.052 -1.029,-1.781l0,-93.835c0,-0.741 0.39,-1.419 1.029,-1.781c0.639,-0.373 1.425,-0.373 2.064,0l81.215,46.889c0.644,0.362 1.04,1.046 1.04,1.787c0,0.735 -0.39,1.464 -1.04,1.832l-81.215,46.889c-0.317,0.186 -0.673,0.277 -1.029,0.277ZM225.132,354.161l0,86.682l75.057,-43.349l-75.057,-43.333Z" style="fill:#ef334c;fill-rule:nonzero;"/><path d="M141.893,493.347c-0.357,0 -0.707,-0.091 -1.018,-0.271l-0.04,-0.029c-0.644,-0.362 -1.046,-1.051 -1.046,-1.786l0,-93.739c0,-0.735 0.396,-1.414 1.035,-1.787c0.639,-0.367 1.425,-0.367 2.069,0l81.215,46.895c0.639,0.368 1.035,1.052 1.035,1.787c0,0.735 -0.396,1.419 -1.035,1.781l-81.175,46.861c-0.328,0.192 -0.684,0.288 -1.04,0.288ZM143.917,401.101l0,86.62l75.023,-43.304l-75.023,-43.316Z" style="fill:#ef334c;fill-rule:nonzero;"/><path d="M304.238,493.336c-0.362,0 -0.718,-0.091 -1.024,-0.277l-81.181,-46.861c-0.639,-0.362 -1.029,-1.052 -1.029,-1.781c0,-0.741 0.39,-1.419 1.029,-1.787l81.221,-46.895c0.639,-0.367 1.425,-0.367 2.058,0c0.644,0.368 1.04,1.058 1.04,1.787l0,93.739c0,0.74 -0.396,1.424 -1.051,1.786c-0.328,0.193 -0.696,0.289 -1.063,0.289ZM227.195,444.417l75.018,43.304l0,-86.62l-75.018,43.316Z" style="fill:#ef334c;fill-rule:nonzero;"/><path d="M223.068,540.208c-0.362,0 -0.712,-0.096 -1.035,-0.272c-0.639,-0.367 -1.029,-1.057 -1.029,-1.786l0,-93.733c0,-0.741 0.39,-1.419 1.029,-1.787c0.639,-0.367 1.425,-0.367 2.064,0l81.181,46.867c0.633,0.367 1.035,1.046 1.035,1.781c0,0.735 -0.396,1.419 -1.035,1.781l-81.181,46.877c-0.317,0.176 -0.673,0.272 -1.029,0.272ZM225.132,447.99l0,86.581l74.984,-43.293l-74.984,-43.288Z" style="fill:#ef334c;fill-rule:nonzero;"/><path d="M223.068,540.208c-0.362,0 -0.712,-0.096 -1.035,-0.272l-81.175,-46.877c-0.639,-0.362 -1.035,-1.046 -1.035,-1.781c0,-0.735 0.396,-1.414 1.035,-1.781l81.175,-46.867c0.639,-0.367 1.425,-0.367 2.064,0c0.639,0.368 1.035,1.052 1.035,1.787l0,93.733c0,0.735 -0.396,1.419 -1.035,1.786c-0.317,0.176 -0.673,0.272 -1.029,0.272ZM146.02,491.278l74.984,43.293l0,-86.581l-74.984,43.288Z" style="fill:#ef334c;fill-rule:nonzero;"/><path d="M385.498,446.475c-0.356,0 -0.713,-0.091 -1.035,-0.277l-81.215,-46.889c-0.633,-0.368 -1.035,-1.052 -1.035,-1.787c0,-0.735 0.396,-1.47 1.035,-1.832l81.215,-46.889c0.639,-0.373 1.425,-0.373 2.064,0c0.639,0.362 1.034,1.046 1.034,1.781l0,93.835c0,0.735 -0.39,1.419 -1.034,1.781c-0.317,0.186 -0.679,0.277 -1.029,0.277ZM308.365,397.499l75.058,43.344l0,-86.682l-75.058,43.338Z" style="fill:#ef334c;fill-rule:nonzero;"/><path d="M385.498,446.475c-0.356,0 -0.713,-0.091 -1.035,-0.277c-0.633,-0.362 -1.04,-1.052 -1.04,-1.781l0,-93.835c0,-0.741 0.401,-1.419 1.04,-1.781c0.639,-0.373 1.425,-0.373 2.064,0l81.215,46.889c0.639,0.362 1.034,1.046 1.034,1.787c0,0.735 -0.39,1.464 -1.034,1.832l-81.215,46.889c-0.317,0.186 -0.679,0.277 -1.029,0.277ZM387.561,354.161l0,86.682l75.058,-43.349l-75.058,-43.333Z" style="fill:#ef334c;fill-rule:nonzero;"/><path d="M304.311,493.347c-0.35,0 -0.695,-0.091 -1.012,-0.271l-0.04,-0.029c-0.644,-0.362 -1.051,-1.051 -1.051,-1.786l0,-93.739c0,-0.735 0.396,-1.414 1.034,-1.787c0.639,-0.367 1.425,-0.367 2.059,0l81.22,46.895c0.639,0.368 1.035,1.052 1.035,1.787c0,0.735 -0.39,1.419 -1.035,1.781l-81.175,46.861c-0.311,0.192 -0.673,0.288 -1.035,0.288ZM306.347,401.101l0,86.62l75.023,-43.304l-75.023,-43.316Z" style="fill:#ef334c;fill-rule:nonzero;"/><path d="M466.662,493.336c-0.356,0 -0.713,-0.091 -1.024,-0.277l-81.175,-46.861c-0.633,-0.362 -1.04,-1.052 -1.04,-1.781c0,-0.741 0.401,-1.419 1.04,-1.787l81.215,-46.895c0.645,-0.367 1.43,-0.367 2.064,0c0.639,0.368 1.034,1.058 1.034,1.787l0,93.739c0,0.74 -0.395,1.424 -1.051,1.786c-0.317,0.193 -0.696,0.289 -1.063,0.289ZM389.625,444.417l75.018,43.304l0,-86.62l-75.018,43.316Z" style="fill:#ef334c;fill-rule:nonzero;"/><path d="M385.498,540.208c-0.356,0 -0.713,-0.096 -1.035,-0.272c-0.633,-0.367 -1.04,-1.057 -1.04,-1.786l0,-93.733c0,-0.741 0.401,-1.419 1.04,-1.787c0.639,-0.367 1.425,-0.367 2.064,0l81.175,46.867c0.633,0.367 1.04,1.046 1.04,1.781c0,0.735 -0.401,1.419 -1.04,1.781l-81.175,46.877c-0.317,0.176 -0.679,0.272 -1.029,0.272ZM387.561,447.99l0,86.581l74.985,-43.293l-74.985,-43.288Z" style="fill:#ef334c;fill-rule:nonzero;"/><path d="M385.498,540.208c-0.356,0 -0.713,-0.096 -1.035,-0.272l-81.175,-46.877c-0.639,-0.362 -1.035,-1.046 -1.035,-1.781c0,-0.735 0.39,-1.414 1.035,-1.781l81.175,-46.867c0.639,-0.367 1.425,-0.367 2.064,0c0.639,0.368 1.034,1.052 1.034,1.787l0,93.733c0,0.735 -0.39,1.419 -1.034,1.786c-0.317,0.176 -0.679,0.272 -1.029,0.272ZM308.45,491.278l74.978,43.293l0,-86.581l-74.978,43.288Z" style="fill:#ef334c;fill-rule:nonzero;"/><path d="M466.488,306.288c-0.357,0 -0.707,-0.09 -1.029,-0.271l-81.215,-46.895c-0.639,-0.368 -1.035,-1.052 -1.035,-1.787c0,-0.74 0.396,-1.47 1.035,-1.837l81.215,-46.889c0.638,-0.374 1.424,-0.374 2.063,0c0.634,0.361 1.035,1.051 1.035,1.786l0,93.835c0,0.735 -0.396,1.414 -1.035,1.787c-0.311,0.181 -0.678,0.271 -1.034,0.271ZM389.361,257.313l75.063,43.338l0,-86.677l-75.063,43.339Z" style="fill:#ef334c;fill-rule:nonzero;"/><path d="M385.318,353.155c-0.356,0 -0.707,-0.085 -1.023,-0.266l-0.04,-0.023c-0.645,-0.367 -1.046,-1.057 -1.046,-1.798l0,-93.733c0,-0.74 0.396,-1.419 1.035,-1.786c0.639,-0.374 1.424,-0.374 2.063,0l81.221,46.889c0.633,0.367 1.035,1.051 1.035,1.786c0,0.735 -0.396,1.414 -1.035,1.787l-81.181,46.867c-0.322,0.186 -0.673,0.277 -1.029,0.277ZM387.342,260.914l0,86.626l75.029,-43.31l-75.029,-43.316Z" style="fill:#ef334c;fill-rule:nonzero;"/><path d="M547.657,353.143c-0.356,0 -0.712,-0.085 -1.023,-0.265l-81.175,-46.861c-0.639,-0.373 -1.035,-1.058 -1.035,-1.787c0,-0.741 0.39,-1.419 1.035,-1.787l81.214,-46.894c0.645,-0.368 1.431,-0.368 2.064,0c0.645,0.367 1.035,1.051 1.035,1.786l-0.006,93.733c0,0.747 -0.396,1.431 -1.046,1.798c-0.322,0.192 -0.695,0.277 -1.063,0.277ZM470.621,304.23l75.029,43.31l0,-86.626l-75.029,43.316Z" style="fill:#ef334c;fill-rule:nonzero;"/><path d="M466.488,400.027c-0.357,0 -0.707,-0.096 -1.029,-0.283c-0.639,-0.362 -1.035,-1.052 -1.035,-1.781l0,-93.733c0,-0.741 0.39,-1.419 1.035,-1.787c0.638,-0.373 1.424,-0.373 2.063,0l81.17,46.867c0.644,0.362 1.04,1.051 1.04,1.781c0,0.741 -0.39,1.419 -1.04,1.787l-81.17,46.866c-0.311,0.192 -0.678,0.283 -1.034,0.283ZM468.557,307.803l0,86.581l74.978,-43.293l-74.978,-43.288Z" style="fill:#ef334c;fill-rule:nonzero;"/><path d="M466.488,493.258c-0.357,0 -0.707,-0.096 -1.029,-0.283c-0.639,-0.361 -1.035,-1.051 -1.035,-1.781l0,-93.733c0,-0.74 0.39,-1.419 1.035,-1.786c0.638,-0.373 1.424,-0.373 2.063,0l81.17,46.866c0.644,0.362 1.04,1.052 1.04,1.781c0,0.741 -0.39,1.419 -1.04,1.787l-81.17,46.866c-0.311,0.193 -0.678,0.283 -1.034,0.283ZM468.557,401.035l0,86.58l74.978,-43.293l-74.978,-43.287Z" style="fill:#ef334c;fill-rule:nonzero;"/><path d="M466.488,400.027c-0.357,0 -0.707,-0.096 -1.029,-0.283l-81.176,-46.866c-0.639,-0.368 -1.034,-1.052 -1.034,-1.787c0,-0.735 0.395,-1.419 1.034,-1.781l81.176,-46.867c0.638,-0.373 1.424,-0.373 2.063,0c0.634,0.368 1.035,1.052 1.035,1.787l0,93.733c0,0.735 -0.396,1.419 -1.035,1.781c-0.311,0.192 -0.678,0.283 -1.034,0.283ZM389.445,351.091l74.984,43.293l0,-86.581l-74.984,43.288Z" style="fill:#ef334c;fill-rule:nonzero;"/><path d="M548.019,259.405c-0.356,0 -0.712,-0.097 -1.035,-0.277l-81.175,-46.873c-0.639,-0.367 -1.035,-1.051 -1.035,-1.786c0,-0.735 0.391,-1.419 1.035,-1.787l81.175,-46.866c0.639,-0.374 1.425,-0.374 2.064,0c0.639,0.367 1.035,1.051 1.035,1.786l0,93.733c0,0.741 -0.39,1.414 -1.035,1.787c-0.317,0.186 -0.678,0.283 -1.029,0.283ZM470.971,210.469l74.979,43.293l0,-86.581l-74.979,43.288Z" style="fill:#ef334c;fill-rule:nonzero;"/><path d="M548.019,446.475c-0.356,0 -0.712,-0.091 -1.035,-0.277l-81.215,-46.889c-0.633,-0.368 -1.034,-1.052 -1.034,-1.787c0,-0.735 0.396,-1.47 1.034,-1.832l81.215,-46.889c0.639,-0.373 1.425,-0.373 2.064,0c0.639,0.362 1.035,1.046 1.035,1.781l0,93.835c0,0.735 -0.39,1.419 -1.035,1.781c-0.317,0.186 -0.678,0.277 -1.029,0.277ZM470.886,397.499l75.058,43.344l0,-86.682l-75.058,43.338Z" style="fill:#ef334c;fill-rule:nonzero;"/><path d="M466.832,212.538c-0.35,0 -0.695,-0.096 -1.012,-0.271l-0.039,-0.023c-0.645,-0.367 -1.052,-1.057 -1.052,-1.792l0,-93.739c0,-0.735 0.396,-1.419 1.035,-1.787c0.639,-0.373 1.425,-0.373 2.058,0l81.22,46.89c0.639,0.367 1.035,1.051 1.035,1.786c0,0.735 -0.39,1.414 -1.035,1.787l-81.175,46.866c-0.311,0.187 -0.673,0.283 -1.035,0.283ZM468.868,120.292l0,86.626l75.024,-43.31l-75.024,-43.316Z" style="fill:#ef334c;fill-rule:nonzero;"/><path d="M304.238,587.13c-0.362,0 -0.718,-0.09 -1.024,-0.277l-81.181,-46.86c-0.639,-0.362 -1.029,-1.052 -1.029,-1.781c0,-0.741 0.39,-1.42 1.029,-1.787l81.221,-46.895c0.639,-0.367 1.425,-0.367 2.058,0c0.644,0.368 1.04,1.057 1.04,1.787l0,93.738c0,0.741 -0.396,1.425 -1.051,1.787c-0.328,0.192 -0.696,0.288 -1.063,0.288ZM227.195,538.212l75.018,43.304l0,-86.62l-75.018,43.316Z" style="fill:#ef334c;fill-rule:nonzero;"/><path d="M304.311,587.142c-0.35,0 -0.695,-0.091 -1.012,-0.272l-0.04,-0.028c-0.644,-0.362 -1.051,-1.052 -1.051,-1.787l0,-93.738c0,-0.735 0.396,-1.414 1.034,-1.787c0.639,-0.367 1.425,-0.367 2.059,0l81.22,46.895c0.639,0.367 1.035,1.052 1.035,1.787c0,0.735 -0.39,1.419 -1.035,1.781l-81.175,46.86c-0.311,0.193 -0.673,0.289 -1.035,0.289ZM306.347,494.896l0,86.62l75.023,-43.304l-75.023,-43.316Z" style="fill:#ef334c;fill-rule:nonzero;"/><path d="M324.336,106.704c-0.537,-5.285 -5,-9.409 -10.427,-9.409c-4.349,0 -8.078,2.649 -9.665,6.421c-1.586,-3.772 -5.315,-6.421 -9.665,-6.421c-5.426,0 -9.89,4.124 -10.427,9.409c-0.036,0.352 -0.054,0.71 -0.054,1.072c0,12.735 15.629,18.745 20.146,27.239c4.518,-8.494 20.146,-14.504 20.146,-27.239c0,-0.362 -0.018,-0.72 -0.054,-1.072Z" style="fill:#ef334c;fill-rule:nonzero;"/><path d="M324.336,201.079c-0.537,-5.285 -5,-9.409 -10.427,-9.409c-4.349,0 -8.078,2.649 -9.665,6.421c-1.586,-3.772 -5.315,-6.421 -9.665,-6.421c-5.426,0 -9.89,4.124 -10.427,9.409c-0.036,0.352 -0.054,0.71 -0.054,1.072c0,12.735 15.629,18.745 20.146,27.239c4.518,-8.494 20.146,-14.504 20.146,-27.239c0,-0.362 -0.018,-0.72 -0.054,-1.072Z" style="fill:#ef334c;fill-rule:nonzero;"/><path d="M324.128,295.246c-0.537,-5.285 -5,-9.409 -10.427,-9.409c-4.349,0 -8.078,2.649 -9.665,6.421c-1.587,-3.772 -5.316,-6.421 -9.665,-6.421c-5.427,0 -9.89,4.124 -10.427,9.409c-0.036,0.352 -0.054,0.71 -0.054,1.072c0,12.734 15.628,18.745 20.146,27.238c4.517,-8.493 20.146,-14.503 20.146,-27.238c0,-0.362 -0.018,-0.72 -0.054,-1.072Z" style="fill:#ef334c;fill-rule:nonzero;"/><path d="M324.128,387.954c-0.537,-5.285 -5,-9.409 -10.427,-9.409c-4.349,0 -8.078,2.649 -9.665,6.421c-1.587,-3.772 -5.316,-6.421 -9.665,-6.421c-5.427,0 -9.89,4.124 -10.427,9.409c-0.036,0.352 -0.054,0.71 -0.054,1.072c0,12.735 15.628,18.745 20.146,27.239c4.517,-8.494 20.146,-14.504 20.146,-27.239c0,-0.362 -0.018,-0.72 -0.054,-1.072Z" style="fill:#ef334c;fill-rule:nonzero;"/><path d="M243.294,153.996c-0.537,-5.285 -5,-9.409 -10.426,-9.409c-4.35,0 -8.079,2.649 -9.665,6.421c-1.587,-3.772 -5.316,-6.421 -9.665,-6.421c-5.427,0 -9.891,4.124 -10.427,9.409c-0.036,0.352 -0.054,0.71 -0.054,1.072c0,12.734 15.628,18.745 20.146,27.238c4.517,-8.493 20.145,-14.503 20.145,-27.238c0,-0.362 -0.018,-0.72 -0.054,-1.072Z" style="fill:#ef334c;fill-rule:nonzero;"/><path d="M243.294,248.371c-0.537,-5.285 -5,-9.409 -10.426,-9.409c-4.35,0 -8.079,2.649 -9.665,6.421c-1.587,-3.772 -5.316,-6.421 -9.665,-6.421c-5.427,0 -9.891,4.124 -10.427,9.409c-0.036,0.352 -0.054,0.71 -0.054,1.072c0,12.734 15.628,18.745 20.146,27.238c4.517,-8.493 20.145,-14.503 20.145,-27.238c0,-0.362 -0.018,-0.72 -0.054,-1.072Z" style="fill:#ef334c;fill-rule:nonzero;"/><path d="M243.086,342.538c-0.537,-5.286 -5,-9.41 -10.427,-9.41c-4.349,0 -8.078,2.65 -9.665,6.422c-1.586,-3.772 -5.315,-6.422 -9.665,-6.422c-5.426,0 -9.89,4.124 -10.427,9.41c-0.036,0.352 -0.054,0.71 -0.054,1.071c0,12.735 15.629,18.745 20.146,27.239c4.518,-8.493 20.146,-14.504 20.146,-27.239c0,-0.361 -0.018,-0.719 -0.054,-1.071Z" style="fill:#ef334c;fill-rule:nonzero;"/><path d="M243.086,435.246c-0.537,-5.285 -5,-9.409 -10.427,-9.409c-4.349,0 -8.078,2.649 -9.665,6.421c-1.586,-3.772 -5.315,-6.421 -9.665,-6.421c-5.426,0 -9.89,4.124 -10.427,9.409c-0.036,0.352 -0.054,0.71 -0.054,1.072c0,12.734 15.629,18.745 20.146,27.238c4.518,-8.493 20.146,-14.503 20.146,-27.238c0,-0.362 -0.018,-0.72 -0.054,-1.072Z" style="fill:#ef334c;fill-rule:nonzero;"/><path d="M405.586,153.996c-0.537,-5.285 -5,-9.409 -10.427,-9.409c-4.349,0 -8.078,2.649 -9.665,6.421c-1.586,-3.772 -5.315,-6.421 -9.665,-6.421c-5.426,0 -9.89,4.124 -10.427,9.409c-0.036,0.352 -0.054,0.71 -0.054,1.072c0,12.734 15.629,18.745 20.146,27.238c4.518,-8.493 20.146,-14.503 20.146,-27.238c0,-0.362 -0.018,-0.72 -0.054,-1.072Z" style="fill:#ef334c;fill-rule:nonzero;"/><path d="M405.586,248.371c-0.537,-5.285 -5,-9.409 -10.427,-9.409c-4.349,0 -8.078,2.649 -9.665,6.421c-1.586,-3.772 -5.315,-6.421 -9.665,-6.421c-5.426,0 -9.89,4.124 -10.427,9.409c-0.036,0.352 -0.054,0.71 -0.054,1.072c0,12.734 15.629,18.745 20.146,27.238c4.518,-8.493 20.146,-14.503 20.146,-27.238c0,-0.362 -0.018,-0.72 -0.054,-1.072Z" style="fill:#ef334c;fill-rule:nonzero;"/><path d="M405.378,342.538c-0.537,-5.286 -5,-9.41 -10.427,-9.41c-4.349,0 -8.078,2.65 -9.665,6.422c-1.587,-3.772 -5.316,-6.422 -9.665,-6.422c-5.427,0 -9.89,4.124 -10.427,9.41c-0.036,0.352 -0.054,0.71 -0.054,1.071c0,12.735 15.628,18.745 20.146,27.239c4.517,-8.493 20.146,-14.504 20.146,-27.239c0,-0.361 -0.018,-0.719 -0.054,-1.071Z" style="fill:#ef334c;fill-rule:nonzero;"/><path d="M405.378,435.246c-0.537,-5.285 -5,-9.409 -10.427,-9.409c-4.349,0 -8.078,2.649 -9.665,6.421c-1.587,-3.772 -5.316,-6.421 -9.665,-6.421c-5.427,0 -9.89,4.124 -10.427,9.409c-0.036,0.352 -0.054,0.71 -0.054,1.072c0,12.734 15.628,18.745 20.146,27.238c4.517,-8.493 20.146,-14.503 20.146,-27.238c0,-0.362 -0.018,-0.72 -0.054,-1.072Z" style="fill:#ef334c;fill-rule:nonzero;"/><path d="M486.836,201.079c-0.537,-5.285 -5,-9.409 -10.427,-9.409c-4.349,0 -8.078,2.649 -9.665,6.421c-1.586,-3.772 -5.315,-6.421 -9.665,-6.421c-5.426,0 -9.89,4.124 -10.427,9.409c-0.036,0.352 -0.054,0.71 -0.054,1.072c0,12.735 15.629,18.745 20.146,27.239c4.518,-8.494 20.146,-14.504 20.146,-27.239c0,-0.362 -0.018,-0.72 -0.054,-1.072Z" style="fill:#ef334c;fill-rule:nonzero;"/><path d="M486.628,295.246c-0.537,-5.285 -5,-9.409 -10.427,-9.409c-4.349,0 -8.078,2.649 -9.665,6.421c-1.587,-3.772 -5.316,-6.421 -9.665,-6.421c-5.427,0 -9.89,4.124 -10.427,9.409c-0.036,0.352 -0.054,0.71 -0.054,1.072c0,12.734 15.628,18.745 20.146,27.238c4.517,-8.493 20.146,-14.503 20.146,-27.238c0,-0.362 -0.018,-0.72 -0.054,-1.072Z" style="fill:#ef334c;fill-rule:nonzero;"/><path d="M486.628,387.954c-0.537,-5.285 -5,-9.409 -10.427,-9.409c-4.349,0 -8.078,2.649 -9.665,6.421c-1.587,-3.772 -5.316,-6.421 -9.665,-6.421c-5.427,0 -9.89,4.124 -10.427,9.409c-0.036,0.352 -0.054,0.71 -0.054,1.072c0,12.735 15.628,18.745 20.146,27.239c4.517,-8.494 20.146,-14.504 20.146,-27.239c0,-0.362 -0.018,-0.72 -0.054,-1.072Z" style="fill:#ef334c;fill-rule:nonzero;"/><path d="M162.044,201.079c-0.537,-5.285 -5,-9.409 -10.426,-9.409c-4.35,0 -8.079,2.649 -9.665,6.421c-1.587,-3.772 -5.316,-6.421 -9.665,-6.421c-5.427,0 -9.891,4.124 -10.427,9.409c-0.036,0.352 -0.054,0.71 -0.054,1.072c0,12.735 15.628,18.745 20.146,27.239c4.517,-8.494 20.145,-14.504 20.145,-27.239c0,-0.362 -0.018,-0.72 -0.054,-1.072Z" style="fill:#ef334c;fill-rule:nonzero;"/><path d="M161.836,295.246c-0.537,-5.285 -5,-9.409 -10.427,-9.409c-4.349,0 -8.078,2.649 -9.665,6.421c-1.586,-3.772 -5.315,-6.421 -9.665,-6.421c-5.426,0 -9.89,4.124 -10.427,9.409c-0.036,0.352 -0.054,0.71 -0.054,1.072c0,12.734 15.629,18.745 20.146,27.238c4.518,-8.493 20.146,-14.503 20.146,-27.238c0,-0.362 -0.018,-0.72 -0.054,-1.072Z" style="fill:#ef334c;fill-rule:nonzero;"/><path d="M161.836,387.954c-0.537,-5.285 -5,-9.409 -10.427,-9.409c-4.349,0 -8.078,2.649 -9.665,6.421c-1.586,-3.772 -5.315,-6.421 -9.665,-6.421c-5.426,0 -9.89,4.124 -10.427,9.409c-0.036,0.352 -0.054,0.71 -0.054,1.072c0,12.735 15.629,18.745 20.146,27.239c4.518,-8.494 20.146,-14.504 20.146,-27.239c0,-0.362 -0.018,-0.72 -0.054,-1.072Z" style="fill:#ef334c;fill-rule:nonzero;"/><path d="M324.128,481.704c-0.537,-5.285 -5,-9.409 -10.427,-9.409c-4.349,0 -8.078,2.649 -9.665,6.421c-1.587,-3.772 -5.316,-6.421 -9.665,-6.421c-5.427,0 -9.89,4.124 -10.427,9.409c-0.036,0.352 -0.054,0.71 -0.054,1.072c0,12.735 15.628,18.745 20.146,27.239c4.517,-8.494 20.146,-14.504 20.146,-27.239c0,-0.362 -0.018,-0.72 -0.054,-1.072Z" style="fill:#ef334c;fill-rule:nonzero;"/></g></g></g><g id="(WEB¶T   RRENT)" transform="matrix(4.16667,0,0,4.16667,38.9395,84.9935)"><path d="M39.369,50.252l-4.629,-17.168l-4.688,17.168c-0.364,1.302 -0.654,2.236 -0.869,2.803c-0.215,0.566 -0.589,1.074 -1.123,1.523c-0.534,0.449 -1.243,0.674 -2.129,0.674c-0.716,0 -1.305,-0.134 -1.767,-0.4c-0.463,-0.267 -0.837,-0.645 -1.124,-1.133c-0.286,-0.489 -0.52,-1.068 -0.703,-1.739c-0.182,-0.67 -0.345,-1.292 -0.488,-1.865l-4.766,-19.277c-0.286,-1.12 -0.429,-1.973 -0.429,-2.559c0,-0.742 0.26,-1.367 0.781,-1.875c0.521,-0.508 1.165,-0.761 1.934,-0.761c1.054,0 1.764,0.338 2.128,1.015c0.365,0.677 0.684,1.66 0.958,2.949l3.75,16.719l4.199,-15.644c0.312,-1.198 0.592,-2.11 0.84,-2.735c0.247,-0.625 0.651,-1.165 1.211,-1.621c0.559,-0.456 1.321,-0.683 2.285,-0.683c0.976,0 1.735,0.237 2.275,0.712c0.54,0.476 0.915,0.993 1.123,1.553c0.208,0.56 0.488,1.485 0.84,2.774l4.238,15.644l3.75,-16.719c0.183,-0.872 0.355,-1.556 0.518,-2.05c0.163,-0.495 0.443,-0.938 0.84,-1.328c0.397,-0.391 0.973,-0.586 1.728,-0.586c0.755,0 1.397,0.25 1.924,0.752c0.527,0.501 0.791,1.129 0.791,1.884c0,0.534 -0.143,1.387 -0.43,2.559l-4.765,19.277c-0.326,1.302 -0.596,2.256 -0.811,2.862c-0.215,0.605 -0.579,1.136 -1.094,1.591c-0.514,0.456 -1.24,0.684 -2.177,0.684c-0.886,0 -1.595,-0.221 -2.129,-0.664c-0.534,-0.443 -0.905,-0.941 -1.114,-1.494c-0.208,-0.554 -0.501,-1.501 -0.878,-2.842Z" style="fill:#fff;fill-rule:nonzero;"/><path d="M76.682,30.604l-13.067,0l0,7.031l12.032,0c0.885,0 1.546,0.198 1.982,0.595c0.436,0.398 0.654,0.922 0.654,1.573c0,0.651 -0.214,1.181 -0.644,1.592c-0.43,0.41 -1.094,0.615 -1.992,0.615l-12.032,0l0,8.144l13.516,0c0.912,0 1.598,0.212 2.061,0.635c0.462,0.423 0.693,0.986 0.693,1.69c0,0.677 -0.231,1.227 -0.693,1.65c-0.463,0.423 -1.149,0.635 -2.061,0.635l-15.762,0c-1.263,0 -2.171,-0.28 -2.724,-0.84c-0.554,-0.56 -0.83,-1.465 -0.83,-2.715l0,-21.523c0,-0.834 0.123,-1.514 0.371,-2.041c0.247,-0.528 0.635,-0.912 1.162,-1.153c0.527,-0.241 1.201,-0.361 2.021,-0.361l15.313,0c0.924,0 1.611,0.205 2.06,0.615c0.45,0.41 0.674,0.947 0.674,1.611c0,0.678 -0.224,1.221 -0.674,1.631c-0.449,0.41 -1.136,0.616 -2.06,0.616Z" style="fill:#fff;fill-rule:nonzero;"/><path d="M97.921,54.764l-8.75,0c-1.263,0 -2.165,-0.284 -2.705,-0.85c-0.541,-0.566 -0.811,-1.468 -0.811,-2.705l0,-21.523c0,-1.263 0.277,-2.172 0.83,-2.725c0.554,-0.553 1.449,-0.83 2.686,-0.83l9.277,0c1.367,0 2.552,0.084 3.555,0.254c1.003,0.169 1.901,0.495 2.695,0.976c0.677,0.404 1.276,0.915 1.797,1.534c0.521,0.618 0.918,1.302 1.192,2.05c0.273,0.749 0.41,1.54 0.41,2.373c0,2.865 -1.433,4.961 -4.297,6.289c3.763,1.198 5.644,3.529 5.644,6.993c0,1.601 -0.41,3.043 -1.23,4.326c-0.82,1.282 -1.927,2.23 -3.32,2.842c-0.873,0.364 -1.875,0.621 -3.008,0.771c-1.133,0.15 -2.455,0.225 -3.965,0.225ZM97.491,42.049l-6.035,0l0,8.359l6.231,0c3.919,0 5.878,-1.413 5.878,-4.238c0,-1.445 -0.507,-2.494 -1.523,-3.145c-1.016,-0.651 -2.533,-0.976 -4.551,-0.976ZM91.456,30.486l0,7.403l5.313,0c1.445,0 2.561,-0.137 3.349,-0.41c0.788,-0.274 1.39,-0.795 1.807,-1.563c0.325,-0.547 0.488,-1.159 0.488,-1.836c0,-1.445 -0.514,-2.406 -1.543,-2.881c-1.028,-0.475 -2.598,-0.713 -4.707,-0.713l-4.707,0Z" style="fill:#fff;fill-rule:nonzero;"/><path d="M26.682,67.032l-2.848,0l0,9.361c0,0.539 -0.12,0.939 -0.36,1.199c-0.241,0.261 -0.551,0.391 -0.932,0.391c-0.387,0 -0.702,-0.131 -0.945,-0.395c-0.243,-0.264 -0.365,-0.662 -0.365,-1.195l0,-9.361l-2.847,0c-0.446,0 -0.777,-0.098 -0.993,-0.294c-0.217,-0.196 -0.326,-0.456 -0.326,-0.778c0,-0.334 0.113,-0.598 0.339,-0.791c0.225,-0.193 0.552,-0.29 0.98,-0.29l8.297,0c0.451,0 0.786,0.1 1.006,0.299c0.22,0.199 0.33,0.46 0.33,0.782c0,0.322 -0.112,0.582 -0.334,0.778c-0.223,0.196 -0.557,0.294 -1.002,0.294Z" style="fill:#fff;fill-rule:nonzero;"/><path d="M35.896,64.659c1.336,0 2.483,0.271 3.441,0.813c0.958,0.542 1.683,1.313 2.175,2.312c0.492,0.999 0.739,2.172 0.739,3.52c0,0.996 -0.135,1.901 -0.405,2.716c-0.269,0.814 -0.674,1.52 -1.213,2.118c-0.539,0.597 -1.201,1.054 -1.986,1.371c-0.785,0.316 -1.685,0.474 -2.698,0.474c-1.008,0 -1.91,-0.162 -2.707,-0.487c-0.797,-0.326 -1.462,-0.784 -1.995,-1.376c-0.534,-0.592 -0.936,-1.304 -1.209,-2.136c-0.272,-0.832 -0.409,-1.731 -0.409,-2.698c0,-0.99 0.143,-1.898 0.427,-2.724c0.284,-0.827 0.696,-1.53 1.235,-2.11c0.539,-0.58 1.195,-1.024 1.968,-1.331c0.774,-0.308 1.653,-0.462 2.637,-0.462ZM39.605,71.286c0,-0.943 -0.152,-1.761 -0.457,-2.452c-0.305,-0.691 -0.74,-1.214 -1.305,-1.569c-0.566,-0.354 -1.215,-0.532 -1.947,-0.532c-0.521,0 -1.003,0.099 -1.446,0.295c-0.442,0.196 -0.823,0.482 -1.142,0.857c-0.32,0.375 -0.572,0.854 -0.756,1.437c-0.185,0.583 -0.277,1.238 -0.277,1.964c0,0.733 0.092,1.395 0.277,1.986c0.184,0.592 0.445,1.083 0.782,1.473c0.337,0.389 0.724,0.681 1.16,0.874c0.437,0.194 0.916,0.29 1.437,0.29c0.668,0 1.282,-0.167 1.841,-0.501c0.56,-0.334 1.005,-0.849 1.336,-1.547c0.331,-0.697 0.497,-1.555 0.497,-2.575Z" style="fill:#fff;fill-rule:nonzero;"/><path d="M48.89,72.253l-0.914,0l0,4.14c0,0.544 -0.12,0.946 -0.361,1.204c-0.24,0.257 -0.553,0.386 -0.94,0.386c-0.416,0 -0.738,-0.134 -0.967,-0.404c-0.228,-0.269 -0.343,-0.665 -0.343,-1.186l0,-9.914c0,-0.563 0.126,-0.97 0.378,-1.222c0.252,-0.252 0.659,-0.378 1.222,-0.378l4.245,0c0.586,0 1.087,0.025 1.503,0.075c0.416,0.049 0.791,0.15 1.125,0.303c0.404,0.17 0.762,0.413 1.072,0.729c0.311,0.317 0.547,0.684 0.708,1.103c0.161,0.419 0.242,0.863 0.242,1.332c0,0.961 -0.271,1.728 -0.813,2.303c-0.542,0.574 -1.364,0.981 -2.466,1.221c0.463,0.246 0.905,0.61 1.327,1.09c0.422,0.481 0.799,0.992 1.13,1.534c0.331,0.542 0.589,1.031 0.773,1.468c0.185,0.436 0.277,0.736 0.277,0.9c0,0.17 -0.054,0.339 -0.163,0.506c-0.108,0.167 -0.256,0.299 -0.443,0.395c-0.188,0.097 -0.405,0.145 -0.651,0.145c-0.293,0 -0.539,-0.068 -0.738,-0.206c-0.199,-0.138 -0.371,-0.312 -0.514,-0.523c-0.144,-0.211 -0.339,-0.522 -0.585,-0.932l-1.046,-1.74c-0.375,-0.639 -0.71,-1.125 -1.006,-1.459c-0.296,-0.334 -0.596,-0.562 -0.901,-0.686c-0.305,-0.123 -0.688,-0.184 -1.151,-0.184ZM50.384,66.839l-2.408,0l0,3.542l2.338,0c0.627,0 1.154,-0.054 1.582,-0.163c0.427,-0.108 0.754,-0.293 0.98,-0.553c0.225,-0.261 0.338,-0.62 0.338,-1.077c0,-0.358 -0.091,-0.672 -0.272,-0.945c-0.182,-0.272 -0.434,-0.476 -0.756,-0.611c-0.305,-0.129 -0.906,-0.193 -1.802,-0.193Z" style="fill:#fff;fill-rule:nonzero;"/><path d="M62.736,72.253l-0.914,0l0,4.14c0,0.544 -0.12,0.946 -0.36,1.204c-0.241,0.257 -0.554,0.386 -0.941,0.386c-0.416,0 -0.738,-0.134 -0.967,-0.404c-0.228,-0.269 -0.342,-0.665 -0.342,-1.186l0,-9.914c0,-0.563 0.126,-0.97 0.378,-1.222c0.252,-0.252 0.659,-0.378 1.221,-0.378l4.245,0c0.586,0 1.087,0.025 1.503,0.075c0.416,0.049 0.791,0.15 1.125,0.303c0.405,0.17 0.762,0.413 1.073,0.729c0.31,0.317 0.546,0.684 0.707,1.103c0.161,0.419 0.242,0.863 0.242,1.332c0,0.961 -0.271,1.728 -0.813,2.303c-0.542,0.574 -1.364,0.981 -2.466,1.221c0.463,0.246 0.906,0.61 1.328,1.09c0.422,0.481 0.798,0.992 1.129,1.534c0.331,0.542 0.589,1.031 0.773,1.468c0.185,0.436 0.277,0.736 0.277,0.9c0,0.17 -0.054,0.339 -0.162,0.506c-0.109,0.167 -0.257,0.299 -0.444,0.395c-0.188,0.097 -0.404,0.145 -0.651,0.145c-0.292,0 -0.539,-0.068 -0.738,-0.206c-0.199,-0.138 -0.37,-0.312 -0.514,-0.523c-0.144,-0.211 -0.338,-0.522 -0.584,-0.932l-1.046,-1.74c-0.375,-0.639 -0.711,-1.125 -1.007,-1.459c-0.296,-0.334 -0.596,-0.562 -0.901,-0.686c-0.304,-0.123 -0.688,-0.184 -1.151,-0.184ZM64.23,66.839l-2.408,0l0,3.542l2.338,0c0.627,0 1.154,-0.054 1.582,-0.163c0.428,-0.108 0.754,-0.293 0.98,-0.553c0.225,-0.261 0.338,-0.62 0.338,-1.077c0,-0.358 -0.091,-0.672 -0.272,-0.945c-0.182,-0.272 -0.434,-0.476 -0.756,-0.611c-0.305,-0.129 -0.905,-0.193 -1.802,-0.193Z" style="fill:#fff;fill-rule:nonzero;"/><path d="M81.566,66.892l-5.88,0l0,3.164l5.414,0c0.398,0 0.696,0.089 0.892,0.268c0.196,0.178 0.294,0.414 0.294,0.707c0,0.293 -0.096,0.532 -0.29,0.717c-0.193,0.184 -0.492,0.276 -0.896,0.276l-5.414,0l0,3.665l6.082,0c0.41,0 0.719,0.096 0.927,0.286c0.208,0.191 0.312,0.444 0.312,0.76c0,0.305 -0.104,0.553 -0.312,0.743c-0.208,0.19 -0.517,0.286 -0.927,0.286l-7.093,0c-0.568,0 -0.977,-0.126 -1.226,-0.378c-0.249,-0.252 -0.373,-0.659 -0.373,-1.222l0,-9.685c0,-0.375 0.055,-0.682 0.167,-0.919c0.111,-0.237 0.285,-0.41 0.522,-0.518c0.238,-0.109 0.541,-0.163 0.91,-0.163l6.891,0c0.416,0 0.725,0.092 0.927,0.277c0.202,0.184 0.303,0.426 0.303,0.725c0,0.305 -0.101,0.549 -0.303,0.734c-0.202,0.184 -0.511,0.277 -0.927,0.277Z" style="fill:#fff;fill-rule:nonzero;"/><path d="M89.383,66.224l5.018,7.593l0,-7.664c0,-0.498 0.107,-0.871 0.321,-1.12c0.214,-0.249 0.503,-0.374 0.866,-0.374c0.375,0 0.671,0.125 0.888,0.374c0.216,0.249 0.325,0.622 0.325,1.12l0,10.134c0,1.131 -0.469,1.696 -1.407,1.696c-0.234,0 -0.445,-0.033 -0.632,-0.101c-0.188,-0.067 -0.364,-0.174 -0.528,-0.32c-0.164,-0.147 -0.316,-0.318 -0.457,-0.515c-0.14,-0.196 -0.281,-0.397 -0.422,-0.602l-4.895,-7.506l0,7.55c0,0.492 -0.114,0.865 -0.343,1.116c-0.228,0.252 -0.521,0.378 -0.879,0.378c-0.369,0 -0.665,-0.127 -0.887,-0.382c-0.223,-0.255 -0.334,-0.625 -0.334,-1.112l0,-9.94c0,-0.422 0.046,-0.753 0.14,-0.993c0.111,-0.264 0.296,-0.479 0.554,-0.646c0.258,-0.167 0.536,-0.251 0.835,-0.251c0.234,0 0.435,0.038 0.602,0.114c0.167,0.077 0.313,0.179 0.439,0.308c0.126,0.129 0.255,0.296 0.387,0.501c0.132,0.205 0.268,0.419 0.409,0.642Z" style="fill:#fff;fill-rule:nonzero;"/><path d="M108.924,67.032l-2.847,0l0,9.361c0,0.539 -0.12,0.939 -0.361,1.199c-0.24,0.261 -0.55,0.391 -0.931,0.391c-0.387,0 -0.702,-0.131 -0.945,-0.395c-0.243,-0.264 -0.365,-0.662 -0.365,-1.195l0,-9.361l-2.848,0c-0.445,0 -0.776,-0.098 -0.993,-0.294c-0.216,-0.196 -0.325,-0.456 -0.325,-0.778c0,-0.334 0.113,-0.598 0.338,-0.791c0.226,-0.193 0.553,-0.29 0.98,-0.29l8.297,0c0.452,0 0.787,0.1 1.007,0.299c0.219,0.199 0.329,0.46 0.329,0.782c0,0.322 -0.111,0.582 -0.334,0.778c-0.222,0.196 -0.556,0.294 -1.002,0.294Z" style="fill:#fff;fill-rule:nonzero;"/></g></g></svg>