<?xml version="1.0" standalone="no"?><!DOCTYPE svg PUBLIC "-//W3C//DTD SVG 1.1//EN" "http://www.w3.org/Graphics/SVG/1.1/DTD/svg11.dtd"><svg width="100%" height="100%" viewBox="0 0 1334 1534" version="1.1" xmlns="http://www.w3.org/2000/svg" xmlns:xlink="http://www.w3.org/1999/xlink" xml:space="preserve" style="fill-rule:evenodd;clip-rule:evenodd;stroke-linejoin:round;stroke-miterlimit:1.41421;"><g><g><path d="M15.096,374.2l637.493,-368.069c8.485,-5.304 19.093,-5.304 27.578,0l637.493,368.069c8.485,5.304 13.789,13.79 13.789,24.397l0,736.139c0,9.547 -5.304,19.093 -13.789,24.397l-637.493,368.07c-8.485,5.303 -19.093,5.303 -27.578,0l-637.493,-368.07c-8.486,-5.304 -13.789,-13.789 -13.789,-24.397l0,-736.139c0,-9.546 5.303,-19.093 13.789,-24.397Z" style="fill:#ef334c;fill-rule:nonzero;"/><path d="M98.355,424.448l555.98,-321.144c7.025,-4.014 17.061,-4.014 24.086,0l555.98,321.144c7.025,4.014 12.043,12.043 12.043,21.075l0,642.287c0,9.032 -5.018,17.061 -12.043,21.075l-555.98,321.144c-7.025,4.014 -17.061,4.014 -24.086,0l-555.98,-321.144c-7.025,-4.014 -12.043,-12.043 -12.043,-21.075l0,-642.287c0,-9.032 4.015,-16.057 12.043,-21.075Z" style="fill:#343b45;fill-rule:nonzero;"/></g><path d="M666.378,1078l241.866,219.137c0,0 268.888,-155.177 327.151,-188.801c6.837,-3.946 11.049,-11.24 11.049,-19.133c0,-54.004 0,-261.04 0,-261.04l-320.877,-298.147l-259.189,547.984Z" style="fill:#262b33;"/><path id="(Curve)" d="M980.294,635.68c-8.392,-82.581 -78.123,-147.012 -162.907,-147.012c-67.957,0 -126.219,41.391 -151.009,100.326c-24.791,-58.935 -83.053,-100.326 -151.003,-100.326c-84.79,0 -154.528,64.431 -162.913,147.012c-0.56,5.502 -0.844,11.092 -0.844,16.745c0,198.966 244.178,292.871 314.76,425.574c70.582,-132.697 314.76,-226.602 314.76,-425.574c0,-5.653 -0.284,-11.243 -0.844,-16.745Z" style="fill:#ef334c;fill-rule:nonzero;"/></g></svg>