<?xml version="1.0" encoding="UTF-8" standalone="no"?>
<!-- Generator: Adobe Illustrator 18.1.0, SVG Export Plug-In . SVG Version: 6.00 Build 0)  -->

<svg
   xmlns:dc="http://purl.org/dc/elements/1.1/"
   xmlns:cc="http://creativecommons.org/ns#"
   xmlns:rdf="http://www.w3.org/1999/02/22-rdf-syntax-ns#"
   xmlns:svg="http://www.w3.org/2000/svg"
   xmlns="http://www.w3.org/2000/svg"
   xmlns:sodipodi="http://sodipodi.sourceforge.net/DTD/sodipodi-0.dtd"
   xmlns:inkscape="http://www.inkscape.org/namespaces/inkscape"
   version="1.1"
   id="Layer_1"
   x="0px"
   y="0px"
   viewBox="0 0 181 209"
   enable-background="new 0 0 320 240"
   xml:space="preserve"
   inkscape:version="0.91 r13725"
   sodipodi:docname="wireshark.svg"
   width="181"
   height="209"
   inkscape:export-filename="/home/mc/Papers/Projects/Forks/hexbin/hexagons/wireshark.png"
   inkscape:export-xdpi="90"
   inkscape:export-ydpi="90"><metadata
     id="metadata65"><rdf:RDF><cc:Work
         rdf:about=""><dc:format>image/svg+xml</dc:format><dc:type
           rdf:resource="http://purl.org/dc/dcmitype/StillImage" /><dc:title /></cc:Work></rdf:RDF></metadata><defs
     id="defs63" /><sodipodi:namedview
     pagecolor="#ffffff"
     bordercolor="#666666"
     borderopacity="1"
     objecttolerance="10"
     gridtolerance="10"
     guidetolerance="10"
     inkscape:pageopacity="0"
     inkscape:pageshadow="2"
     inkscape:window-width="1920"
     inkscape:window-height="1030"
     id="namedview61"
     showgrid="false"
     fit-margin-top="0"
     fit-margin-left="0"
     fit-margin-right="0"
     fit-margin-bottom="0"
     inkscape:zoom="4.0287081"
     inkscape:cx="90.5"
     inkscape:cy="104.5"
     inkscape:window-x="0"
     inkscape:window-y="24"
     inkscape:window-maximized="1"
     inkscape:current-layer="Layer_1" /><polygon
     points="251,171.7 160.5,224 70,171.7 70,67.2 160.5,15 251,67.2 "
     id="polygon3"
     style="fill:#1679a8;fill-opacity:1"
     transform="translate(-70,-15)" /><polygon
     points="70,171.7 70,67.2 160.5,15 251,67.2 251,171.7 160.5,224 "
     id="polygon3-3"
     style="fill:#ffffff;fill-opacity:1"
     transform="matrix(0.88665879,0,0,0.88665879,-51.808736,-1.4557254)" /><path
     style="fill:#1679a8;fill-opacity:1"
     d="m 45.604366,173.41786 -44.5929755,-26.49122 -0.0719392,-14.88222 -0.0719393,-14.8822 29.88267802,0 29.882674,0 0.670668,-0.68898 c 0.729549,-0.74948 0.780709,-0.92554 1.251118,-4.30595 0.900315,-6.46969 3.617504,-15.540214 6.49818,-21.692195 6.757885,-14.432145 16.373982,-23.287966 29.299921,-26.983379 2.566239,-0.733666 8.100779,-1.784649 8.308939,-1.577824 0.0396,0.0393 -0.28981,0.894484 -0.73189,1.900402 -4.02563,9.159645 -5.16618,21.650463 -3.077,33.697868 1.27812,7.370308 4.36881,17.335608 5.85094,18.865148 l 0.76058,0.78491 35.30925,0 35.30927,0 -0.0719,14.89849 -0.0719,14.89849 -44.59298,26.48243 c -24.52613,14.56533 -44.717994,26.47905 -44.870805,26.47493 -0.152811,-0.005 -20.344677,-11.92854 -44.870812,-26.4987 z"
     id="path4170"
     inkscape:connector-curvature="0" /><path
     inkscape:connector-curvature="0"
     style="font-style:normal;font-weight:bold;font-size:96.08611298px;line-height:125%;font-family:'Luxi Sans';writing-mode:lr-tb;text-anchor:start;fill:#000000;fill-opacity:1;stroke:none;stroke-width:1pt;stroke-linecap:butt;stroke-linejoin:miter;stroke-opacity:1"
     d="m 16.174969,146.74551 -4.888813,-20.505 2.500961,0 2.802584,13.44154 c 0.301617,1.40803 0.561348,2.80674 0.779193,4.19612 0.469186,-2.1913 0.745674,-3.4548 0.829465,-3.7905 l 3.506372,-13.84716 2.940828,0 2.639203,10.37838 c 0.66188,2.57362 1.13945,4.99338 1.432713,7.25928 0.234577,-1.29613 0.540389,-2.78342 0.917437,-4.46187 l 2.890558,-13.17579 2.450689,0 -5.052191,20.505 -2.350149,0 -3.883401,-15.62352 c -0.326771,-1.30545 -0.519475,-2.10737 -0.578111,-2.40578 -0.192717,0.94181 -0.372853,1.74373 -0.54041,2.40578 l -3.908535,15.62352 -2.488393,0 z m 21.478098,0 0,-20.505 2.438122,0 0,20.505 -2.438122,0 z m 6.761391,0 0,-20.505 8.168966,0 c 1.642163,1e-5 2.890545,0.18417 3.745156,0.55249 0.854585,0.36834 1.537428,1.01874 2.04853,1.95119 0.511064,0.93248 0.766609,1.96286 0.766626,3.09113 -1.7e-5,1.45467 -0.423127,2.68087 -1.269333,3.6786 -0.846236,0.99775 -2.153272,1.63182 -3.921106,1.90223 0.645128,0.34502 1.135267,0.68538 1.470413,1.02106 0.712155,0.72733 1.386617,1.63649 2.023392,2.72747 l 3.204749,5.58083 -3.066505,0 -2.438122,-4.26605 c -0.712176,-1.23085 -1.298666,-2.17264 -1.75947,-2.82538 -0.460824,-0.65273 -0.873462,-1.10963 -1.237911,-1.37073 -0.364473,-0.26109 -0.735217,-0.44292 -1.112238,-0.54549 -0.276497,-0.0653 -0.72893,-0.0979 -1.357305,-0.0979 l -2.827719,0 0,9.10557 -2.438123,0 z m 2.438123,-11.45539 5.240706,0 c 1.114321,1e-5 1.985674,-0.1282 2.614069,-0.38465 0.62837,-0.25641 1.105943,-0.6667 1.432709,-1.23085 0.32675,-0.56414 0.490127,-1.17723 0.490139,-1.8393 -1.2e-5,-0.96975 -0.316295,-1.76701 -0.948852,-2.39178 -0.632588,-0.62474 -1.631713,-0.93711 -2.997386,-0.93714 l -5.831385,0 0,6.78372 z m 16.174553,11.45539 0,-20.505 13.321698,0 0,2.41976 -10.883572,0 0,6.28018 10.192351,0 0,2.40576 -10.192351,0 0,6.97954 11.310874,0 0,2.41976 -13.749,0 z m 16.086583,-6.67183 3.619482,-0.39163 c 0.217831,1.35208 0.659795,2.34517 1.325883,2.97924 0.666078,0.63409 1.564664,0.95113 2.695759,0.95112 1.198111,10e-6 2.100884,-0.28207 2.70833,-0.84621 0.607423,-0.56414 0.911139,-1.22387 0.911152,-1.97917 -1.3e-5,-0.48488 -0.127781,-0.8975 -0.383313,-1.23785 -0.255553,-0.34035 -0.701705,-0.63641 -1.338454,-0.88818 -0.435685,-0.16784 -1.42853,-0.46623 -2.978534,-0.89517 -1.994066,-0.55015 -3.393262,-1.22619 -4.197589,-2.02812 -1.131088,-1.12828 -1.696634,-2.50367 -1.696629,-4.12618 -5e-6,-1.04435 0.266011,-2.02111 0.798043,-2.93028 0.532027,-0.90915 1.298654,-1.6015 2.299879,-2.07708 1.001216,-0.47554 2.209802,-0.71332 3.625762,-0.71334 2.312441,2e-5 4.053054,0.56416 5.221856,1.69243 1.168777,1.1283 1.782497,2.63424 1.84116,4.51782 l -3.720021,0.18183 c -0.159202,-1.05368 -0.500623,-1.81131 -1.024262,-2.2729 -0.523661,-0.46155 -1.309137,-0.69233 -2.356434,-0.69235 -1.080822,2e-5 -1.927045,0.24712 -2.538661,0.74131 -0.393792,0.31705 -0.590687,0.74133 -0.590678,1.27282 -9e-6,0.4849 0.184319,0.89984 0.552973,1.24485 0.469185,0.43827 1.608649,0.89518 3.418398,1.37072 1.809731,0.47558 3.148184,0.96745 4.015361,1.47564 0.867153,0.5082 1.545807,1.2029 2.035959,2.08406 0.490123,0.8812 0.735188,1.96986 0.735205,3.26598 -1.7e-5,1.17492 -0.293258,2.27523 -0.879735,3.30095 -0.586504,1.02571 -1.415965,1.78801 -2.488394,2.28687 -1.072447,0.49887 -2.408805,0.74831 -4.009074,0.74831 -2.329214,0 -4.118002,-0.59911 -5.366384,-1.79734 -1.248386,-1.19821 -1.994066,-2.94426 -2.23704,-5.23815 l 0,0 z m 18.147678,6.67183 0,-20.505 3.720015,0 0,8.07052 7.28923,0 0,-8.07052 3.72002,0 0,20.505 -3.72002,0 0,-8.9657 -7.28923,0 0,8.9657 -3.720015,0 z m 35.201955,0 -4.04678,0 -1.60865,-4.65769 -7.36465,0 -1.52068,4.65769 -3.94624,0 7.17612,-20.505 3.93367,0 7.37721,20.505 z m -6.84936,-8.11248 -2.53867,-7.60896 -2.48839,7.60896 5.02706,0 z m 8.84761,8.11248 0,-20.505 7.82965,0 c 1.96892,1e-5 3.39953,0.18417 4.29184,0.55249 0.8923,0.36834 1.60655,1.02339 2.14279,1.96517 0.5362,0.94182 0.80431,2.01881 0.80433,3.23101 -2e-5,1.53859 -0.40637,2.80907 -1.21906,3.81147 -0.81272,1.00241 -2.02759,1.63416 -3.64462,1.89524 0.80431,0.52219 1.46831,1.09566 1.99197,1.72041 0.52364,0.62476 1.22952,1.7344 2.11765,3.32892 l 2.24961,4.00029 -4.44895,0 -2.68948,-4.46187 c -0.95515,-1.59451 -1.60867,-2.59925 -1.96054,-3.0142 -0.35191,-0.41495 -0.72475,-0.69935 -1.11853,-0.85322 -0.39379,-0.15385 -1.01798,-0.23077 -1.87257,-0.23078 l -0.75406,0 0,8.56007 -3.72003,0 z m 3.72003,-11.83304 2.75231,0 c 1.78459,2e-5 2.89893,-0.0839 3.34299,-0.25176 0.44405,-0.16784 0.79176,-0.4569 1.04312,-0.8672 0.25134,-0.41028 0.37702,-0.92313 0.37703,-1.53858 -1e-5,-0.69001 -0.16549,-1.24715 -0.49642,-1.67145 -0.33096,-0.42426 -0.79806,-0.69234 -1.4013,-0.80425 -0.30163,-0.0466 -1.20651,-0.0699 -2.71461,-0.0699 l -2.90312,0 0,5.20318 z m 14.91778,11.83304 0,-20.505 3.72003,0 0,9.10556 7.51545,-9.10556 5.00192,0 -6.93734,7.98659 7.31437,12.51841 -4.81341,0 -5.06475,-9.62309 -3.01624,3.42683 0,6.19626 -3.72003,0 z"
     id="text555" /></svg>