<?xml version="1.0" encoding="utf-8"?>
<svg width="198.425" height="198.425" viewBox="36.427 27.198 125.001 144.021" xmlns="http://www.w3.org/2000/svg">
  <defs>
    <style>.cls-1,.cls-12,.cls-8{fill:none;}.cls-2{fill:#dcddde;}.cls-3{fill:#ba6f38;}.cls-4{clip-path:url(#clip-path);}.cls-5{fill:#ed7d15;}.cls-6{clip-path:url(#clip-path-2);}.cls-7{fill:#f2f2f2;}.cls-8{stroke:#fff;stroke-width:3.5px;}.cls-12,.cls-8{stroke-miterlimit:10;}.cls-9{fill:#000643;}.cls-10{fill:#e6b35a;}.cls-11{fill:#424242;}.cls-12{stroke:#424242;stroke-width:12px;}.cls-13{fill:#51a7f9;}.cls-14{fill:#a8d6ff;}.cls-15{fill:#0365c0;}.cls-16{fill:#164f86;}.cls-17{fill:#002452;}.cls-18{clip-path:url(#clip-path-3);}.cls-19{fill:#36a85d;}</style>
  </defs>
  <path d="M39.425 133.768v-69.11l60-34.561 60 34.561v69.11l-60 34.56z" style="fill: rgb(255, 255, 255);"/>
  <defs>
    <style id="bx-google-fonts">@import url(https://fonts.googleapis.com/css?family=Ubuntu:300,300italic,400,400italic,500,500italic,700,700italic);</style>
  </defs>
  <g class="cls-18" transform="matrix(0.229694, 0, 0, 0.229694, 157.129517, -307.328949)"/>
  <path style="stroke: none; fill-rule: nonzero; fill: rgb(0, 154, 205); fill-opacity: 1;" d="M 41.701 132.895 L 44.031 126.881 L 48.986 101.547 C 48.986 101.547 51.45 90.336 53.936 85.223 C 55.195 82.636 56.592 79.887 58.886 78.152 C 60.28 77.097 62.104 76.657 63.836 76.426 C 65.476 76.208 67.18 76.378 68.784 76.775 C 70.536 77.21 72.104 78.138 73.735 78.91 C 77.079 80.496 83.638 83.988 83.638 83.988 L 88.587 86.794 L 93.538 89.429 L 98.487 92.266 L 103.44 94.714 L 108.389 97.178 L 113.341 99.275 L 118.29 101.414 L 123.241 103.539 L 128.189 105.419 L 133.143 107.313 L 138.092 108.993 L 143.043 110.578 L 147.993 112.075 L 152.943 113.406 L 156.763 114.508 L 156.763 121.582 L 152.943 120.786 L 147.993 119.643 L 143.043 118.368 L 138.092 116.982 L 133.143 115.576 L 128.189 114.067 L 123.241 112.5 L 118.29 110.725 L 113.341 108.954 L 108.389 107.13 L 103.44 104.971 L 98.487 102.774 L 93.538 100.622 L 88.587 98.276 L 83.638 96.206 L 78.688 93.833 C 78.688 93.833 75.43 92.235 73.735 91.597 C 72.12 90.991 70.483 90.391 68.784 90.092 C 67.157 89.807 65.443 89.447 63.836 89.828 C 61.986 90.267 60.284 91.375 58.886 92.664 C 56.745 94.637 55.253 97.265 53.936 99.863 C 51.674 104.326 48.986 114.037 48.986 114.037 L 44.809 127.22 L 42.244 133.21 L 41.701 132.895 Z"/>
  <path style="stroke: none; fill-rule: nonzero; fill: rgb(0, 154, 205); fill-opacity: 0.8;" d="M 42.5 133.356 L 42.244 133.209 L 48.986 114.037 C 48.986 114.037 51.674 104.326 53.936 99.863 C 55.253 97.265 56.745 94.637 58.886 92.664 C 60.284 91.375 61.986 90.267 63.836 89.828 C 65.443 89.447 67.157 89.807 68.784 90.092 C 70.483 90.391 72.12 90.991 73.735 91.597 C 75.43 92.235 78.688 93.833 78.688 93.833 L 83.638 96.206 L 88.587 98.276 L 93.538 100.622 L 98.487 102.774 L 103.44 104.971 L 108.389 107.13 L 113.341 108.954 L 118.29 110.725 L 123.241 112.5 L 128.189 114.067 L 133.143 115.576 L 138.092 116.982 L 143.043 118.368 L 147.993 119.643 L 152.943 120.786 L 156.763 121.582 L 156.763 123.743 L 152.943 123.075 L 147.993 121.983 L 143.043 120.821 L 138.092 119.552 L 133.143 118.147 L 128.189 116.723 L 123.241 115.128 L 118.29 113.541 L 113.341 111.818 L 108.389 110.089 L 103.44 108.148 L 98.487 106.081 L 93.538 104.067 L 88.587 101.831 L 83.638 99.635 L 78.688 97.606 C 78.688 97.606 75.426 96.21 73.735 95.679 C 72.115 95.172 70.469 94.686 68.784 94.483 C 67.147 94.284 65.442 94.084 63.836 94.465 C 62.035 94.893 60.265 95.742 58.886 96.977 C 56.643 98.987 55.278 101.841 53.936 104.538 C 51.751 108.934 48.986 118.41 48.986 118.41 L 42.5 133.356 Z"/>
  <path style="stroke: none; fill-rule: nonzero; fill: rgb(0, 154, 205); fill-opacity: 0.6;" d="M 42.5 133.356 L 48.986 118.41 C 48.986 118.41 51.751 108.934 53.936 104.538 C 55.278 101.841 56.643 98.987 58.886 96.977 C 60.265 95.742 62.035 94.893 63.836 94.465 C 65.442 94.084 67.147 94.284 68.784 94.483 C 70.469 94.686 72.115 95.172 73.735 95.679 C 75.426 96.21 78.688 97.606 78.688 97.606 L 83.638 99.635 L 88.587 101.831 L 93.538 104.067 L 98.487 106.081 L 103.44 108.148 L 108.389 110.089 L 113.341 111.818 L 118.29 113.541 L 123.241 115.128 L 128.189 116.723 L 133.143 118.147 L 138.092 119.552 L 143.043 120.821 L 147.993 121.983 L 152.943 123.075 L 156.763 123.743 L 156.763 126.025 L 152.943 125.48 L 147.993 124.463 L 143.043 123.447 L 138.092 122.353 L 133.143 121.186 L 128.189 119.872 L 123.241 118.414 L 118.29 116.955 L 113.341 115.326 L 108.389 113.71 L 103.44 111.91 L 98.487 110.055 L 93.538 108.004 L 88.587 105.918 L 83.638 104.051 L 78.688 102.071 C 78.688 102.071 75.419 100.852 73.735 100.417 C 72.109 99.996 70.462 99.553 68.784 99.493 C 67.125 99.434 65.415 99.545 63.836 100.054 C 62.034 100.637 60.27 101.544 58.886 102.836 C 56.685 104.892 55.326 107.72 53.936 110.393 C 51.879 114.345 48.986 122.81 48.986 122.81 L 43.093 133.701 L 42.5 133.356 Z"/>
  <path style="stroke: none; fill-rule: nonzero; fill: rgb(0, 154, 205); fill-opacity: 0.4;" d="M 43.415 133.887 L 43.094 133.701 L 48.986 122.81 C 48.986 122.81 51.879 114.345 53.936 110.393 C 55.326 107.72 56.685 104.892 58.886 102.836 C 60.27 101.544 62.034 100.637 63.836 100.054 C 65.415 99.545 67.125 99.434 68.784 99.493 C 70.462 99.553 72.109 99.996 73.735 100.417 C 75.419 100.852 78.688 102.071 78.688 102.071 L 83.638 104.051 L 88.587 105.918 L 93.538 108.004 L 98.487 110.055 L 103.44 111.91 L 108.389 113.71 L 113.341 115.326 L 118.29 116.955 L 123.241 118.414 L 128.189 119.872 L 133.143 121.186 L 138.092 122.353 L 143.043 123.447 L 147.993 124.463 L 152.943 125.48 L 156.763 126.025 L 156.763 129.588 L 152.943 129.207 L 147.993 128.375 L 143.043 127.488 L 138.092 126.459 L 133.143 125.419 L 128.189 124.377 L 123.241 123.19 L 118.29 121.973 L 113.341 120.685 L 108.389 119.198 L 103.44 117.585 L 98.487 116.031 L 93.538 114.223 L 88.587 112.383 L 83.638 110.622 C 83.638 110.622 80.347 109.45 78.688 108.902 C 77.046 108.357 75.434 107.673 73.735 107.345 C 72.109 107.032 70.437 106.851 68.784 106.962 C 67.1 107.077 65.375 107.342 63.836 108.035 C 61.972 108.873 60.305 110.185 58.886 111.659 C 56.843 113.78 53.936 118.98 53.936 118.98 C 53.936 118.98 48.911 126.571 46.234 130.249 C 45.33 131.489 43.415 133.887 43.415 133.887 Z"/>
  <path style="stroke: none; fill-rule: nonzero; fill: rgb(0, 154, 205); fill-opacity: 0.8;" d="M 41.517 132.79 L 44.026 124.516 C 44.026 124.516 44.821 118.879 45.925 112.216 C 46.53 108.556 47.211 104.587 47.899 101.074 C 48.275 99.153 48.671 97.369 49.02 95.845 C 50.364 89.974 51.43 84.142 53.936 78.667 C 55.428 75.409 56.63 73.546 58.886 71.894 C 60.291 70.867 62.099 70.348 63.836 70.234 C 65.512 70.124 67.169 70.738 68.784 71.198 C 70.481 71.683 72.13 72.346 73.735 73.081 C 75.441 73.863 77.069 74.809 78.688 75.758 C 80.373 76.745 83.638 78.886 83.638 78.886 L 88.587 81.758 L 93.538 84.864 L 98.487 87.721 L 103.44 90.261 L 108.389 92.838 L 113.341 95.323 L 118.29 97.633 L 123.241 99.809 L 128.189 101.947 L 133.143 103.893 L 138.092 105.748 L 143.043 107.523 L 147.993 109.203 L 152.943 110.578 L 156.763 111.677 L 156.763 114.508 L 152.943 113.406 L 147.993 112.075 L 143.043 110.578 L 138.092 108.993 L 133.143 107.313 L 128.189 105.419 L 123.241 103.539 L 118.29 101.414 L 113.341 99.275 L 108.389 97.178 L 103.44 94.714 L 98.487 92.266 L 93.538 89.429 L 88.587 86.794 L 83.638 83.988 C 83.638 83.988 75.426 79.803 73.735 78.961 C 72.119 78.159 70.536 77.21 68.784 76.775 C 67.18 76.378 65.476 76.208 63.836 76.426 C 62.104 76.657 60.28 77.097 58.886 78.152 C 56.592 79.887 55.195 82.636 53.936 85.223 C 51.45 90.336 48.986 101.547 48.986 101.547 L 44.031 126.881 L 41.701 132.897 L 41.517 132.79 Z"/>
  <path style="stroke: none; fill-rule: nonzero; fill: rgb(0, 154, 205); fill-opacity: 0.6;" d="M 41.201 132.609 L 44.031 120.428 C 44.031 120.428 46.741 99.233 48.986 88.803 C 50.295 82.721 51.351 76.469 53.936 70.81 C 55.17 68.108 56.478 65.137 58.886 63.396 C 60.274 62.393 62.124 62.06 63.836 62.027 C 65.531 61.995 67.194 62.608 68.784 63.191 C 70.523 63.83 73.735 65.713 73.735 65.713 L 78.688 69.049 L 83.638 72.286 L 88.587 75.562 L 93.538 78.69 L 98.487 81.807 L 103.44 84.652 L 108.389 87.49 L 113.341 90.031 L 118.29 92.505 L 123.241 94.673 L 128.189 96.911 L 133.143 98.831 L 138.092 101.013 L 143.043 102.868 L 147.993 104.629 L 152.943 106.235 L 156.763 107.648 L 156.763 111.677 L 152.943 110.578 L 147.993 109.203 L 143.043 107.523 L 138.092 105.748 L 133.143 103.893 L 128.189 101.947 L 123.241 99.809 L 118.29 97.633 L 113.341 95.323 L 108.389 92.838 L 103.44 90.261 L 98.487 87.721 L 93.538 84.864 L 88.587 81.758 L 83.638 78.886 C 83.638 78.886 80.373 76.745 78.688 75.758 C 77.069 74.809 75.441 73.863 73.735 73.081 C 72.13 72.346 70.481 71.683 68.784 71.198 C 67.169 70.738 65.512 70.124 63.836 70.234 C 62.099 70.348 60.297 70.874 58.886 71.894 C 56.507 73.615 55.098 76.098 53.936 78.667 C 51.494 84.067 50.382 90.178 48.986 96.043 C 46.754 105.41 44.031 124.501 44.031 124.501 L 41.517 132.793 L 41.201 132.609 Z"/>
  <path style="stroke: none; fill-rule: nonzero; fill: rgb(0, 154, 205); fill-opacity: 0.4;" d="M 40.923 132.452 C 40.923 132.452 43.087 119.285 44.031 112.682 C 46.255 97.133 46.042 81.131 50.054 65.944 C 50.748 63.312 53.152 58.47 53.152 58.47 L 67.332 50.287 C 67.332 50.287 70.972 51.423 72.691 52.169 C 74.762 53.068 76.737 54.183 78.688 55.322 C 80.383 56.31 83.638 58.512 83.638 58.512 L 88.587 61.727 L 93.538 65.191 L 98.487 68.78 L 103.44 72.333 L 108.389 75.54 C 108.389 75.54 111.7 77.51 113.341 78.52 C 115.001 79.541 116.606 80.651 118.29 81.635 C 119.91 82.581 121.579 83.442 123.241 84.313 C 124.878 85.172 126.533 86.002 128.189 86.824 C 131.476 88.457 134.746 90.131 138.092 91.637 C 139.723 92.37 143.043 93.693 143.043 93.693 L 147.993 95.571 L 152.943 97.584 L 156.763 98.966 L 156.763 107.648 L 152.943 106.235 L 147.993 104.629 L 143.043 102.868 L 138.092 101.013 L 133.143 98.831 L 128.189 96.911 L 123.241 94.673 L 118.29 92.505 L 113.341 90.031 L 108.389 87.49 L 103.44 84.652 L 98.487 81.807 L 93.538 78.69 L 88.587 75.562 L 83.638 72.286 L 78.688 69.049 L 73.735 65.713 C 73.735 65.713 70.523 63.83 68.784 63.191 C 67.194 62.608 65.531 61.995 63.836 62.027 C 62.124 62.06 60.274 62.393 58.886 63.396 C 56.478 65.137 55.17 68.108 53.936 70.81 C 51.351 76.469 50.295 82.721 48.986 88.803 C 46.741 99.233 44.031 120.428 44.031 120.428 L 41.202 132.61 L 40.923 132.452 Z"/>
  <path style="fill: none; stroke-linecap: butt; stroke-linejoin: round; stroke-miterlimit: 1; stroke: rgb(0, 92, 123);" d="M 41.96 133.05 C 41.96 133.05 43.742 128.953 44.422 126.829 C 46.352 120.796 47.279 114.485 48.986 108.386 C 50.476 103.057 51.468 97.495 53.936 92.544 C 55.2 90.01 56.691 87.43 58.886 85.64 C 60.287 84.499 62.054 83.725 63.836 83.435 C 65.471 83.168 67.166 83.56 68.784 83.911 C 70.489 84.282 72.104 84.986 73.735 85.609 C 75.408 86.25 78.688 87.701 78.688 87.701 L 83.638 90.121 C 83.638 90.121 86.925 91.836 88.587 92.651 C 90.226 93.454 91.909 94.16 93.538 94.98 C 95.209 95.821 96.81 96.8 98.487 97.635 C 100.113 98.443 103.44 99.912 103.44 99.912 C 103.44 99.912 106.731 101.396 108.389 102.104 C 110.031 102.805 111.69 103.463 113.341 104.139 C 114.99 104.817 116.633 105.511 118.29 106.166 C 119.932 106.816 121.584 107.444 123.241 108.058 C 124.884 108.666 126.533 109.258 128.189 109.83 C 129.834 110.395 131.488 110.934 133.143 111.472 C 134.79 112.006 136.437 112.539 138.092 113.042 C 139.738 113.546 141.392 114.013 143.043 114.495 C 144.693 114.975 146.337 115.47 147.993 115.93 C 149.638 116.388 151.286 116.831 152.943 117.247 C 154.586 117.662 156.763 118.076 156.763 118.076"/>
  <g transform="matrix(0.171324, 0, 0, 0.171324, 35.887291, 25.970207)">
    <ellipse cx="345.542" cy="442.253" rx="11.487" ry="11.487" style="fill: rgb(53, 53, 53);"/>
    <ellipse cx="181.886" cy="392.389" rx="11.487" ry="11.487" style="fill: rgb(53, 53, 53);"/>
    <ellipse cx="504.421" cy="447.88" rx="11.487" ry="11.487" style="fill: rgb(53, 53, 53);"/>
    <ellipse cx="129.686" cy="269.784" rx="11.487" ry="11.487" style="fill: rgb(53, 53, 53);"/>
    <ellipse cx="277.059" cy="315.613" rx="11.487" ry="11.487" style="fill: rgb(53, 53, 53);"/>
  </g>
  <path d="M98.925 32.983l57.5 33.119v66.221l-57.5 33.119-57.5-33.119V66.102l57.5-33.119zm0-5.771l-62.5 36v72.001l62.5 36 62.5-36V63.212l-62.5-36z" style="fill: rgb(53, 53, 53);"/>
  <text x="57.411" y="151.401" transform="matrix(1.011344, 0, 0, 1.011345, 0.447883, -17.577501)" style="fill: rgb(53, 53, 53); font-family: Ubuntu; font-size: 29.6635px; text-transform: lowercase; white-space: pre;">xpose</text>
</svg>