<?xml version="1.0" encoding="UTF-8" ?>
<!DOCTYPE svg PUBLIC "-//W3C//DTD SVG 1.1//EN" "http://www.w3.org/Graphics/SVG/1.1/DTD/svg11.dtd">
<svg width="500pt" height="500pt" viewBox="0 0 500 500" version="1.1" xmlns="http://www.w3.org/2000/svg">
<path fill="#ffffff" d=" M 0.00 0.00 L 500.00 0.00 L 500.00 500.00 L 0.00 500.00 L 0.00 0.00 Z" />
<path fill="#514f87" d=" M 247.58 18.51 C 248.81 18.27 250.05 18.09 251.30 17.92 C 253.18 19.45 255.29 20.66 257.45 21.75 C 259.46 22.99 261.46 24.25 263.60 25.27 C 266.19 26.80 268.73 28.44 271.45 29.73 C 273.11 30.73 274.74 31.79 276.43 32.75 C 278.77 34.09 281.06 35.49 283.45 36.75 C 285.45 37.99 287.46 39.24 289.59 40.27 C 291.91 41.62 294.16 43.11 296.58 44.27 C 298.56 45.38 300.46 46.61 302.43 47.74 C 304.76 49.09 307.06 50.49 309.44 51.74 C 311.44 52.99 313.45 54.25 315.58 55.27 C 317.91 56.62 320.16 58.11 322.58 59.27 C 324.56 60.38 326.46 61.61 328.43 62.74 C 330.76 64.09 333.06 65.49 335.44 66.74 C 337.45 67.99 339.45 69.25 341.59 70.27 C 344.18 71.80 346.72 73.44 349.45 74.73 C 351.12 75.73 352.75 76.79 354.44 77.76 C 356.45 78.99 358.46 80.24 360.59 81.27 C 362.91 82.62 365.16 84.10 367.59 85.27 C 369.57 86.38 371.48 87.62 373.45 88.75 C 375.72 90.18 378.03 91.55 380.45 92.74 C 382.45 93.99 384.45 95.25 386.59 96.27 C 388.91 97.62 391.16 99.10 393.59 100.27 C 395.91 101.62 398.15 103.11 400.58 104.27 C 402.56 105.38 404.47 106.62 406.44 107.76 C 408.73 109.17 411.04 110.55 413.45 111.74 C 415.45 112.99 417.46 114.24 419.59 115.27 C 422.18 116.79 424.72 118.43 427.45 119.73 C 429.11 120.73 430.75 121.78 432.44 122.76 C 434.73 124.17 437.04 125.55 439.45 126.74 C 441.45 127.99 443.45 129.25 445.58 130.28 C 447.41 131.29 449.18 132.41 451.01 133.44 C 451.09 211.15 451.10 288.87 451.00 366.59 C 448.71 367.61 446.56 368.91 444.44 370.24 C 442.47 371.38 440.56 372.62 438.58 373.73 C 436.16 374.89 433.91 376.38 431.59 377.73 C 429.16 378.90 426.91 380.38 424.59 381.73 C 422.46 382.76 420.45 384.01 418.44 385.24 C 416.47 386.38 414.56 387.61 412.58 388.73 C 410.15 389.89 407.91 391.38 405.59 392.73 C 403.46 393.75 401.45 395.00 399.45 396.25 C 397.06 397.51 394.76 398.91 392.43 400.26 C 390.11 401.62 387.85 403.10 385.42 404.27 C 383.45 405.38 381.56 406.62 379.59 407.73 C 377.46 408.75 375.45 410.01 373.45 411.26 C 371.06 412.51 368.76 413.91 366.43 415.26 C 364.11 416.62 361.85 418.10 359.42 419.27 C 357.45 420.38 355.56 421.62 353.59 422.73 C 351.46 423.75 349.45 425.01 347.45 426.25 C 345.06 427.51 342.76 428.91 340.43 430.26 C 338.46 431.38 336.55 432.61 334.58 433.72 C 332.15 434.89 329.91 436.38 327.59 437.73 C 325.45 438.75 323.45 440.01 321.45 441.26 C 319.06 442.51 316.76 443.91 314.43 445.26 C 312.11 446.62 309.85 448.10 307.42 449.27 C 305.45 450.39 303.55 451.62 301.58 452.73 C 299.45 453.75 297.45 455.01 295.45 456.26 C 293.06 457.51 290.76 458.91 288.43 460.26 C 286.46 461.38 284.55 462.61 282.58 463.73 C 280.15 464.90 277.91 466.38 275.59 467.73 C 273.46 468.76 271.45 470.01 269.45 471.26 C 267.06 472.51 264.77 473.91 262.43 475.25 C 260.46 476.38 258.56 477.61 256.58 478.72 C 254.72 479.58 252.94 480.62 251.36 481.95 C 250.45 481.94 249.54 481.94 248.63 481.95 C 247.34 480.96 245.99 480.06 244.60 479.23 C 242.14 478.12 239.88 476.63 237.57 475.25 C 235.23 473.91 232.93 472.51 230.56 471.26 C 228.55 470.01 226.54 468.76 224.42 467.73 C 222.09 466.38 219.84 464.90 217.42 463.73 C 215.45 462.61 213.54 461.38 211.57 460.26 C 209.23 458.91 206.93 457.51 204.55 456.25 C 202.54 455.01 200.54 453.75 198.41 452.73 C 196.44 451.62 194.54 450.39 192.58 449.27 C 190.15 448.10 187.89 446.63 185.57 445.26 C 183.24 443.91 180.94 442.51 178.55 441.26 C 176.55 440.01 174.54 438.75 172.41 437.73 C 170.44 436.62 168.54 435.38 166.58 434.27 C 164.15 433.10 161.89 431.62 159.57 430.26 C 157.24 428.91 154.93 427.51 152.55 426.25 C 150.55 425.01 148.54 423.75 146.41 422.73 C 144.09 421.38 141.84 419.89 139.42 418.73 C 137.44 417.61 135.54 416.38 133.57 415.26 C 131.23 413.91 128.93 412.51 126.56 411.25 C 124.55 410.01 122.54 408.75 120.41 407.73 C 118.44 406.62 116.55 405.39 114.58 404.27 C 112.15 403.10 109.89 401.63 107.57 400.26 C 105.24 398.91 102.93 397.51 100.55 396.25 C 98.54 395.00 96.54 393.75 94.40 392.73 C 92.09 391.38 89.84 389.89 87.42 388.73 C 85.45 387.61 83.54 386.38 81.57 385.26 C 79.23 383.91 76.93 382.51 74.55 381.25 C 72.55 380.01 70.54 378.75 68.41 377.73 C 66.09 376.38 63.84 374.89 61.42 373.73 C 59.44 372.62 57.53 371.38 55.57 370.25 C 53.39 369.00 51.24 367.69 49.00 366.57 C 48.93 288.87 48.96 211.15 49.00 133.45 C 50.54 132.58 52.03 131.63 53.56 130.74 C 55.98 129.57 58.28 128.18 60.55 126.74 C 62.97 125.56 65.27 124.18 67.56 122.76 C 69.24 121.79 70.88 120.74 72.55 119.74 C 75.27 118.44 77.81 116.80 80.41 115.27 C 82.54 114.25 84.54 112.99 86.55 111.74 C 88.97 110.55 91.28 109.18 93.56 107.75 C 95.53 106.62 97.43 105.38 99.42 104.27 C 101.84 103.11 104.09 101.62 106.41 100.27 C 108.84 99.10 111.09 97.62 113.42 96.27 C 115.54 95.24 117.55 93.99 119.56 92.76 C 121.53 91.62 123.43 90.38 125.42 89.27 C 127.84 88.11 130.09 86.62 132.41 85.27 C 134.54 84.25 136.55 83.00 138.55 81.74 C 140.94 80.50 143.24 79.10 145.57 77.75 C 147.25 76.78 148.89 75.73 150.55 74.73 C 153.28 73.43 155.82 71.80 158.41 70.27 C 160.84 69.10 163.09 67.62 165.41 66.27 C 167.54 65.24 169.55 64.00 171.56 62.76 C 173.52 61.62 175.43 60.38 177.41 59.28 C 179.84 58.11 182.09 56.63 184.41 55.27 C 186.83 54.10 189.09 52.63 191.41 51.27 C 193.54 50.24 195.55 48.99 197.56 47.76 C 199.52 46.62 201.43 45.38 203.41 44.27 C 205.55 43.25 207.55 41.99 209.55 40.74 C 211.97 39.56 214.28 38.18 216.56 36.76 C 218.53 35.62 220.43 34.38 222.41 33.28 C 224.55 32.26 226.55 30.99 228.55 29.74 C 231.27 28.43 233.82 26.80 236.41 25.27 C 238.54 24.24 240.54 22.99 242.57 21.78 C 244.30 20.79 245.95 19.66 247.58 18.51 Z" />
<path fill="#010102" d=" M 227.14 64.20 C 238.12 61.00 249.72 61.67 260.97 62.72 C 261.38 63.02 262.21 63.63 262.62 63.93 C 262.77 63.77 263.07 63.46 263.22 63.30 C 264.93 63.82 266.66 64.26 268.41 64.66 C 276.15 67.35 283.59 71.01 289.71 76.55 C 290.14 76.72 291.01 77.06 291.45 77.23 C 293.59 81.38 297.33 84.34 299.71 88.32 C 306.57 99.02 311.42 110.82 316.69 122.33 C 321.06 131.06 326.71 139.55 334.98 145.02 C 338.97 147.22 343.38 148.95 347.96 149.24 C 355.46 149.83 362.32 146.22 369.46 144.62 C 371.43 143.89 373.38 143.12 375.33 142.32 C 375.70 142.41 376.45 142.60 376.82 142.69 C 378.34 142.04 379.91 141.46 381.59 141.42 C 381.91 141.31 382.57 141.11 382.90 141.01 C 383.44 141.32 384.50 141.96 385.03 142.28 C 385.56 141.96 386.63 141.32 387.16 141.01 C 389.35 141.83 391.55 142.65 393.76 143.45 C 394.66 146.00 395.69 148.50 396.76 150.98 C 395.90 152.93 395.06 154.90 394.75 157.03 C 394.20 160.70 392.35 163.98 391.44 167.56 C 389.17 171.06 387.51 174.90 385.55 178.58 C 377.65 192.66 368.39 205.89 359.59 219.41 C 354.68 219.59 349.84 218.55 345.10 217.43 C 342.25 217.49 339.44 216.94 336.73 216.14 C 336.42 216.21 335.80 216.36 335.49 216.43 C 332.54 215.60 329.54 214.99 326.57 214.26 C 319.27 212.19 311.66 211.44 304.39 209.30 C 303.88 209.46 303.37 209.62 302.88 209.79 C 297.20 207.84 291.09 207.72 285.20 206.79 C 284.93 208.25 284.67 209.73 284.39 211.20 C 284.50 211.56 284.72 212.28 284.83 212.64 C 283.09 216.64 281.80 220.88 279.43 224.57 C 275.82 229.53 271.27 233.80 266.12 237.15 C 259.84 241.08 252.52 242.73 245.35 244.16 C 242.14 244.72 238.74 244.15 235.64 245.21 C 235.48 246.46 235.46 247.72 235.39 248.98 C 235.50 249.35 235.73 250.09 235.84 250.46 C 235.39 251.76 234.97 253.07 234.55 254.39 C 230.69 267.00 223.34 278.85 212.63 286.74 C 204.56 292.47 193.74 296.09 184.19 291.88 C 168.76 285.12 157.56 270.51 153.32 254.38 C 152.86 252.04 152.25 249.73 151.43 247.49 C 152.66 243.91 152.75 240.08 153.81 236.47 C 156.04 231.13 161.57 228.39 166.61 226.26 C 169.53 225.61 172.48 225.17 175.44 224.72 C 180.78 223.05 186.50 224.17 191.97 223.14 C 201.53 223.40 211.22 223.86 220.50 226.42 C 224.42 227.83 228.54 229.44 231.25 232.77 C 232.69 234.33 233.67 236.31 235.34 237.68 C 237.78 238.57 240.42 237.88 242.80 237.10 L 243.07 237.83 C 251.40 236.33 260.02 234.33 266.64 228.68 C 270.43 225.15 274.39 221.47 276.31 216.53 C 277.81 213.39 277.80 209.85 278.14 206.46 C 277.00 205.99 275.87 205.52 274.74 205.05 C 274.40 205.12 273.72 205.26 273.38 205.33 C 265.85 205.05 258.37 203.95 250.83 204.17 C 245.90 203.90 240.99 204.63 236.06 204.49 C 228.19 204.04 220.30 204.04 212.44 204.54 C 210.29 204.61 208.19 205.10 206.16 205.79 C 205.99 205.53 205.65 205.02 205.48 204.77 C 205.31 205.02 204.99 205.53 204.83 205.79 C 202.90 204.65 200.80 205.54 198.82 205.90 C 194.98 206.86 190.79 205.79 187.19 207.76 C 186.86 207.59 186.21 207.25 185.88 207.07 C 181.81 208.47 177.53 208.81 173.30 209.40 C 168.74 210.46 164.13 211.36 159.52 212.23 C 156.83 212.96 154.14 213.67 151.43 214.31 C 150.21 214.72 149.01 215.14 147.80 215.55 C 145.50 212.34 143.65 208.69 140.42 206.27 C 140.58 206.09 140.89 205.73 141.05 205.55 C 137.14 201.92 134.23 197.42 130.82 193.35 C 120.57 180.12 109.14 167.52 101.74 152.36 C 101.22 150.92 100.67 149.49 100.10 148.06 L 101.31 147.71 C 100.99 147.44 100.34 146.90 100.01 146.63 C 100.91 144.74 101.32 142.15 103.60 141.42 C 106.47 140.67 109.49 141.26 112.41 141.30 C 113.38 141.76 114.36 142.23 115.34 142.70 C 115.68 142.59 116.35 142.37 116.68 142.26 C 119.87 143.58 123.18 144.56 126.43 145.70 C 134.65 148.21 143.94 151.36 152.20 147.33 C 162.76 143.60 169.14 133.83 174.44 124.58 C 181.08 110.97 185.88 96.24 195.27 84.15 C 202.95 73.82 214.97 67.61 227.14 64.20 Z" />
<path fill="#ffffff" d=" M 222.45 96.66 C 224.60 95.78 227.50 95.96 229.07 97.86 C 233.19 102.04 229.67 108.59 232.59 113.37 C 236.48 119.40 240.71 125.21 244.95 131.00 C 248.67 137.45 258.03 131.15 262.37 136.73 C 265.62 140.02 264.74 145.54 261.46 148.42 C 259.47 149.11 257.29 148.87 255.25 149.35 C 252.77 152.00 252.53 156.18 249.62 158.51 C 247.18 160.36 244.35 158.14 242.45 156.56 C 238.54 152.77 239.07 146.84 239.31 141.85 C 239.55 138.60 237.27 135.95 235.27 133.66 C 231.91 129.96 229.18 125.75 225.99 121.91 C 223.15 118.77 218.77 119.56 215.02 119.25 C 212.45 118.31 209.90 116.88 208.19 114.69 C 206.58 112.15 206.87 108.21 209.48 106.41 C 211.81 104.43 214.97 103.99 217.52 102.40 C 219.12 100.47 220.05 97.80 222.45 96.66 Z" />
<path fill="#ffffff" d=" M 263.85 102.81 C 265.65 99.36 269.73 98.64 273.27 98.90 C 276.11 100.54 277.11 103.64 277.97 106.60 C 281.16 107.59 284.58 107.97 287.62 109.43 C 290.23 111.80 289.37 115.89 287.26 118.29 C 283.75 122.84 277.51 123.10 272.31 124.05 C 269.25 127.37 266.37 130.86 263.45 134.31 C 260.59 132.61 257.30 132.25 254.09 131.67 C 257.40 126.99 261.50 122.84 264.45 117.93 C 265.51 112.98 261.16 107.67 263.85 102.81 Z" />
<path fill="#ffffff" d=" M 224.94 162.09 C 230.90 161.54 232.91 154.82 237.28 151.66 C 238.75 154.81 240.63 157.74 242.99 160.31 C 241.14 163.24 237.35 166.05 238.83 169.95 C 240.07 174.46 239.63 179.69 236.68 183.47 C 234.90 185.27 232.37 185.33 230.01 185.27 C 227.56 183.28 225.58 180.81 223.75 178.26 C 221.97 175.72 218.25 175.91 216.19 173.70 C 214.44 171.37 214.39 167.66 216.55 165.57 C 218.95 163.65 221.93 162.59 224.94 162.09 Z" />
<path fill="#ffffff" d=" M 180.55 230.76 C 192.99 229.87 205.70 229.75 217.92 232.59 C 222.54 233.93 227.80 236.71 228.74 241.89 C 229.76 249.99 226.59 257.95 222.89 265.00 C 217.99 273.43 210.85 280.89 201.99 285.14 C 194.63 288.83 185.67 286.64 179.53 281.57 C 167.83 273.39 159.92 260.06 158.36 245.87 C 157.84 241.74 159.72 237.40 163.36 235.28 C 168.65 232.43 174.74 231.85 180.55 230.76 Z" />
<path fill="#010102" d=" M 168.89 236.84 C 180.54 233.02 192.97 234.36 205.02 234.30 C 211.25 235.21 218.17 235.55 223.29 239.64 C 226.55 242.55 225.35 247.23 224.39 250.91 C 220.96 264.62 211.61 277.24 198.36 282.75 C 195.58 283.04 192.74 283.43 189.99 282.83 C 184.80 281.37 180.39 278.04 176.58 274.34 C 168.40 266.69 163.20 256.04 162.01 244.92 C 162.04 240.88 165.27 237.98 168.89 236.84 Z" />
<path fill="#e99bbf" d=" M 192.00 242.00 C 192.79 242.00 194.36 242.00 195.14 242.00 C 195.14 242.68 195.14 244.04 195.14 244.72 C 197.49 245.52 199.80 246.43 202.07 247.45 C 201.78 249.05 201.46 250.65 201.17 252.26 C 199.18 251.52 197.17 250.83 195.14 250.22 C 195.13 251.94 195.13 253.66 195.13 255.38 C 198.97 256.12 204.12 258.18 203.42 263.02 C 204.29 267.56 200.34 271.06 196.12 271.48 C 196.06 272.64 195.99 273.80 195.94 274.97 C 194.81 274.93 193.69 274.91 192.58 274.88 C 192.59 274.15 192.62 272.67 192.63 271.94 C 189.89 271.14 187.19 270.20 184.71 268.76 C 185.07 267.01 185.52 265.29 186.05 263.59 C 188.06 264.92 190.19 266.09 192.55 266.67 C 192.61 264.88 192.65 263.11 192.70 261.33 C 190.04 260.28 186.48 259.75 185.44 256.64 C 183.54 251.64 186.85 246.06 192.00 244.97 C 192.00 244.23 192.00 242.74 192.00 242.00 Z" />
<path fill="#514f87" d=" M 190.04 251.60 C 190.87 251.08 191.69 250.57 192.52 250.06 C 192.55 251.90 192.56 253.74 192.53 255.58 C 191.19 254.61 190.52 253.13 190.04 251.60 Z" />
<path fill="#514f87" d=" M 195.11 261.43 C 196.10 261.88 197.09 262.34 198.07 262.80 C 198.05 263.59 198.01 265.17 197.99 265.96 C 197.11 266.15 196.24 266.35 195.37 266.54 C 195.27 264.84 195.19 263.13 195.11 261.43 Z" />
<path fill="#e99bbf" d=" M 184.39 311.46 C 193.91 307.77 205.22 307.90 214.40 312.54 C 219.18 314.71 221.87 319.85 222.31 324.91 C 222.73 333.69 221.95 342.52 222.62 351.29 C 223.21 355.69 228.69 354.53 231.84 354.73 C 231.89 358.57 231.90 362.42 231.93 366.27 C 228.30 366.76 224.54 367.96 220.95 366.57 C 216.53 365.59 213.59 361.59 212.36 357.45 C 210.29 358.59 208.57 360.22 206.87 361.84 C 200.14 368.05 189.72 368.90 181.43 365.71 C 173.03 362.22 171.11 351.03 174.62 343.43 C 176.70 340.02 179.74 336.85 183.73 335.82 C 191.35 333.47 199.41 335.03 207.24 334.49 C 207.23 330.01 207.66 323.53 202.52 321.60 C 197.82 320.73 192.00 320.50 189.08 325.04 C 188.52 326.82 187.88 328.57 187.21 330.31 C 186.75 329.93 185.82 329.16 185.35 328.77 C 183.57 328.59 181.79 328.39 180.01 328.16 C 178.01 327.77 176.02 327.34 174.04 326.87 C 175.51 320.77 178.11 314.01 184.39 311.46 Z" />
<path fill="#e99bbf" d=" M 260.38 312.31 C 266.84 307.83 276.99 307.35 282.69 313.33 C 287.61 319.54 287.10 328.19 286.16 335.61 C 281.56 335.50 276.95 335.51 272.35 335.57 C 272.01 335.16 271.34 334.35 271.01 333.95 C 270.83 330.54 271.93 326.41 269.26 323.70 C 267.27 321.59 264.20 322.22 261.62 322.17 C 260.58 322.54 259.54 322.91 258.49 323.27 C 255.75 325.01 252.43 327.20 252.69 330.93 C 252.54 342.79 252.85 354.65 252.56 366.52 C 247.10 366.36 241.63 366.44 236.16 366.39 C 236.30 347.59 236.18 328.80 236.23 310.00 C 241.72 309.95 247.22 309.97 252.71 309.98 C 252.66 313.61 252.60 317.24 252.82 320.86 C 255.93 318.54 257.01 314.38 260.38 312.31 Z" />
<path fill="#e99bbf" d=" M 364.19 311.16 C 375.91 306.34 389.18 310.05 399.79 315.95 C 398.66 319.42 397.42 322.86 396.07 326.26 C 388.71 322.05 380.20 318.54 371.57 320.50 C 370.58 321.56 369.59 322.61 368.61 323.67 C 368.61 325.22 368.61 326.78 368.60 328.35 C 373.95 332.33 380.82 331.39 386.95 332.98 C 391.13 333.96 395.58 335.16 398.63 338.39 C 405.06 344.40 404.21 355.96 397.48 361.41 C 392.53 366.00 385.44 366.86 379.01 367.38 C 369.11 367.33 358.91 365.39 350.44 360.02 C 351.74 356.41 353.17 352.84 354.74 349.34 C 361.89 353.26 369.70 356.72 378.01 356.69 C 380.95 356.76 383.59 355.30 386.14 354.01 C 386.13 351.99 386.14 349.98 386.17 347.98 C 380.70 344.08 373.66 345.03 367.47 343.30 C 362.79 341.98 357.60 340.52 354.62 336.36 C 352.16 333.14 352.33 328.86 352.55 325.03 C 352.73 318.41 358.39 313.37 364.19 311.16 Z" />
<path fill="#e99bbf" d=" M 112.87 309.97 C 118.46 310.10 124.07 309.71 129.65 310.10 C 130.69 311.03 130.78 312.54 131.23 313.79 C 134.57 326.11 137.93 338.42 141.36 350.72 C 141.67 351.00 142.28 351.56 142.59 351.84 C 145.82 340.35 149.28 328.93 152.55 317.45 C 153.49 315.02 153.64 312.17 155.28 310.08 C 160.60 309.73 165.93 310.07 171.26 309.99 C 165.94 325.07 161.84 340.55 156.43 355.60 C 153.29 363.06 152.46 371.69 147.09 378.04 C 143.01 383.11 136.51 386.23 129.98 386.03 C 124.64 386.07 119.27 386.18 113.99 385.20 C 114.36 381.03 114.75 376.86 115.47 372.74 C 121.16 373.86 127.62 376.09 133.03 372.88 C 136.31 371.00 137.67 367.23 138.45 363.74 C 135.50 363.71 132.53 363.95 129.60 363.53 C 123.27 345.92 119.01 327.64 112.87 309.97 Z" />
<path fill="#e99bbf" d=" M 298.52 314.53 C 302.90 311.23 308.55 309.86 313.97 309.94 C 324.98 310.01 335.99 309.95 347.00 309.98 C 346.97 313.17 346.97 316.36 347.00 319.56 C 341.77 319.74 336.64 318.54 331.43 318.33 C 334.03 320.45 337.66 321.87 338.87 325.28 C 340.05 328.30 340.04 331.81 339.01 334.87 C 336.12 341.32 328.82 344.66 322.03 344.75 C 316.18 344.85 310.27 344.36 304.51 345.64 C 303.69 347.35 303.06 349.14 302.57 350.98 C 304.53 352.21 306.45 353.90 308.91 353.90 C 315.95 354.20 323.01 353.84 330.07 354.01 C 335.65 354.30 341.56 356.28 344.99 360.95 C 348.73 365.43 348.64 372.13 345.90 377.07 C 342.33 382.69 335.66 386.22 329.01 386.04 C 321.69 386.00 314.38 385.99 307.06 386.04 C 302.17 386.19 297.30 384.63 293.34 381.79 C 288.13 377.95 287.16 369.39 291.74 364.70 C 293.76 362.84 296.53 362.18 298.99 361.11 C 296.78 359.66 294.34 358.47 292.46 356.59 C 289.94 352.50 290.27 346.91 293.03 343.02 C 295.53 339.71 299.56 338.18 303.51 337.45 C 300.53 335.14 296.46 333.97 294.67 330.39 C 292.07 325.09 293.76 318.06 298.52 314.53 Z" />
<path fill="#514f87" d=" M 309.41 322.20 C 311.46 319.66 314.99 319.35 318.02 319.47 C 320.84 319.26 322.70 321.70 324.66 323.32 C 324.57 327.42 325.45 332.10 322.15 335.26 C 318.70 336.08 315.17 336.00 311.70 335.40 C 307.61 332.35 309.41 326.57 309.41 322.20 Z" />
<path fill="#514f87" d=" M 190.07 344.80 C 195.58 343.48 201.35 344.47 206.96 344.18 C 207.12 346.78 207.40 349.41 207.07 352.01 C 202.66 356.90 194.59 358.55 188.84 355.09 C 188.11 351.69 187.26 347.52 190.07 344.80 Z" />
<path fill="#514f87" d=" M 304.68 365.50 C 311.79 365.60 318.90 365.45 326.01 365.53 C 328.79 365.45 331.33 366.73 333.76 367.93 C 333.74 370.02 333.75 372.11 333.77 374.21 C 327.99 377.40 321.29 376.12 314.99 376.39 C 311.52 376.45 307.37 376.87 305.01 373.70 C 304.51 371.00 304.71 368.23 304.68 365.50 Z" />
</svg>
