<?xml version="1.0" encoding="UTF-8" standalone="no"?>
<!-- Created with Inkscape (http://www.inkscape.org/) -->

<svg
   xmlns:dc="http://purl.org/dc/elements/1.1/"
   xmlns:cc="http://creativecommons.org/ns#"
   xmlns:rdf="http://www.w3.org/1999/02/22-rdf-syntax-ns#"
   xmlns:svg="http://www.w3.org/2000/svg"
   xmlns="http://www.w3.org/2000/svg"
   xmlns:sodipodi="http://sodipodi.sourceforge.net/DTD/sodipodi-0.dtd"
   xmlns:inkscape="http://www.inkscape.org/namespaces/inkscape"
   width="181"
   height="209"
   viewBox="0 0 47.889582 55.297918"
   version="1.1"
   id="svg2267"
   inkscape:version="0.92.4 (5da689c313, 2019-01-14)"
   sodipodi:docname="ymy.svg">
  <defs
     id="defs2261" />
  <sodipodi:namedview
     id="base"
     pagecolor="#ffffff"
     bordercolor="#666666"
     borderopacity="1.0"
     inkscape:pageopacity="0.0"
     inkscape:pageshadow="2"
     inkscape:zoom="1.8174854"
     inkscape:cx="66.202823"
     inkscape:cy="105.3356"
     inkscape:document-units="px"
     inkscape:current-layer="layer1"
     showgrid="false"
     units="px"
     inkscape:window-width="1366"
     inkscape:window-height="718"
     inkscape:window-x="0"
     inkscape:window-y="22"
     inkscape:window-maximized="1" />
  <metadata
     id="metadata2264">
    <rdf:RDF>
      <cc:Work
         rdf:about="">
        <dc:format>image/svg+xml</dc:format>
        <dc:type
           rdf:resource="http://purl.org/dc/dcmitype/StillImage" />
        <dc:title></dc:title>
      </cc:Work>
    </rdf:RDF>
  </metadata>
  <g
     inkscape:label="Layer 1"
     inkscape:groupmode="layer"
     id="layer1"
     transform="translate(0,-241.70207)">
    <path
       sodipodi:type="star"
       style="opacity:1;fill:#252525;fill-opacity:1;fill-rule:nonzero;stroke:none;stroke-width:0.31532297;stroke-linecap:round;stroke-linejoin:round;stroke-miterlimit:4;stroke-dasharray:none;stroke-dashoffset:0;stroke-opacity:1;paint-order:normal"
       id="path2090"
       sodipodi:sides="6"
       sodipodi:cx="-264.79211"
       sodipodi:cy="318.14914"
       sodipodi:r1="27.649063"
       sodipodi:r2="23.944794"
       sodipodi:arg1="1.5707963"
       sodipodi:arg2="2.0943951"
       inkscape:flatsided="true"
       inkscape:rounded="0"
       inkscape:randomized="0"
       d="m -264.79211,345.7982 -23.94479,-13.82453 -1e-5,-27.64906 23.9448,-13.82453 23.94479,13.82453 0,27.64906 z"
       inkscape:transform-center-y="6.0555826e-06"
       transform="matrix(0.99999998,0,0,0.9999962,288.7369,-48.796902)"
       inkscape:export-filename="/home/adil/Masaüstü/ymy.png"
       inkscape:export-xdpi="96"
       inkscape:export-ydpi="96" />
    <g
       id="g2202"
       transform="matrix(0.18741153,0,0,0.18741153,-1.4432252,239.17671)">
      <g
         id="g2134"
         transform="translate(-1.3751216,15.291466)">
        <path
           inkscape:connector-curvature="0"
           id="path2092"
           style="fill:#e7b35a;fill-opacity:1;fill-rule:nonzero;stroke:none;stroke-width:0.10329597"
           d="m 52.284239,176.86403 c -0.393558,-1.30153 -0.807775,-2.60306 -1.099068,-3.93558 l -0.488593,-1.99361 -0.240678,-0.99164 -0.184899,-1.0123 -0.540239,-2.83032 -0.135318,-0.70241 -0.09193,-0.71274 -0.18077,-1.42548 c -0.113624,-0.95032 -0.261337,-1.89032 -0.345008,-2.84064 -0.05784,-0.95032 -0.115689,-1.90065 -0.173538,-2.84064 l -0.0062,-0.10329 c 1.603156,-0.42352 2.973891,-0.99165 4.142168,-1.64241 1.210631,-0.65077 2.238424,-1.37384 3.094749,-2.13823 0.863552,-0.75406 1.541175,-1.55976 2.120663,-2.36547 0.628041,-0.79538 1.120761,-1.60109 1.507087,-2.38614 0.71068,-1.5701 1.266411,-3.02657 1.499861,-4.13184 0.124985,-0.54747 0.193164,-1.0123 0.229314,-1.33252 0.01447,-0.16527 0.03203,-0.28923 0.04959,-0.37186 l 0.02168,-0.13429 0.09607,-0.062 c 0,0 -0.495822,-0.1756 -1.327353,-0.3099 -0.820173,-0.13427 -2.02047,-0.21691 -3.32923,0.0207 -1.311859,0.24791 -2.784861,0.82637 -4.263026,2.06593 -1.544273,1.22921 -2.82308,3.16085 -3.922145,6.05314 0.102263,-1.42549 0.205558,-2.84065 0.305755,-4.23515 0.197294,-1.78701 0.504085,-3.53271 0.731336,-5.25775 0.326415,-1.69819 0.72307,-3.34886 1.066014,-4.97164 0.0723,-0.36463 0.170435,-0.71688 0.281999,-1.06911 0.108458,-0.34501 0.212788,-0.69518 0.317117,-1.04019 3.005914,0.24275 5.400314,-0.25411 7.27204,-1.07532 1.947125,-0.80261 3.477972,-1.92646 4.574973,-3.11024 0.522678,-0.60014 1.089776,-1.16621 1.515355,-1.72917 0.433841,-0.55676 0.784014,-1.08874 1.057749,-1.55047 0.543338,-0.9338 0.784015,-1.58869 0.784015,-1.58869 l 0.101231,-0.0341 c 0,0 -0.381162,-0.30059 -1.071177,-0.63837 -0.696218,-0.33984 -1.679596,-0.72308 -2.900552,-0.85116 -1.223024,-0.12912 -2.678466,-0.003 -4.318803,0.69415 -0.821204,0.34914 -1.69199,0.84083 -2.592733,1.51742 -0.833595,0.70654 -1.695086,1.60419 -2.570003,2.72701 0.144616,-0.38322 0.292332,-0.76542 0.432813,-1.13523 0.240678,-0.62803 0.475162,-1.24161 0.70551,-1.84279 0.215891,-0.60841 0.524744,-1.15588 0.773688,-1.72194 0.520612,-1.11664 1.014367,-2.18368 1.485394,-3.19289 1.319091,0.40906 2.50286,0.59499 3.637053,0.65284 1.140386,0.0589 2.18471,-0.031 3.132969,-0.22312 1.912004,-0.3853 3.381905,-1.22715 4.630753,-2.12376 1.2912,-0.88112 2.248756,-1.88309 2.889189,-2.67434 0.640438,-0.79228 0.963752,-1.3728 0.963752,-1.3728 l -0.09193,0.0237 c 0,0 -0.322285,-0.33777 -0.922436,-0.74063 -0.600151,-0.40182 -1.480231,-0.87284 -2.61752,-1.12076 -1.13729,-0.23758 -2.532814,-0.2572 -4.17832,0.26858 -0.82327,0.26547 -1.708515,0.65902 -2.653675,1.23231 -0.938958,0.5733 -1.830403,1.39243 -2.821011,2.39027 0.439007,-0.79745 0.848061,-1.54014 1.218893,-2.21156 0.198326,-0.38013 0.409049,-0.72308 0.62184,-1.0402 0.204526,-0.32227 0.396654,-0.62184 0.577426,-0.89971 0.356372,-0.55882 0.661092,-1.03812 0.909004,-1.42134 0.490658,-0.77886 0.751994,-1.19204 0.751994,-1.19204 0,0 -0.30679,0.38323 -0.882145,1.09907 -0.287164,0.35843 -0.640439,0.80467 -1.055688,1.32528 -0.207625,0.26031 -0.431776,0.54128 -0.670388,0.84084 -0.243783,0.29852 -0.486525,0.62183 -0.716876,0.98544 -0.661094,0.98957 -1.428583,2.12893 -2.274577,3.39327 0.548503,-1.43994 0.9214,-2.75284 1.155881,-3.95933 0.106396,-0.58673 0.206593,-1.14969 0.303691,-1.69199 0.08264,-0.52681 0.134286,-1.02676 0.15701,-1.50502 0.0847,-1.91615 -0.271669,-3.43976 -0.799511,-4.60907 -0.522676,-1.17034 -1.216826,-1.98535 -1.783922,-2.49976 -0.568128,-0.51648 -1.009201,-0.73134 -1.009201,-0.73134 l 0.0062,-0.11259 c 0,0 -0.545403,0.63321 -1.243681,1.71988 -0.694147,1.08667 -1.553568,2.61751 -2.123764,4.39524 -0.982345,3.71969 -0.886282,8.23166 3.637052,11.77678 -1.006103,1.85416 -2.232229,3.83434 -3.183585,6.16057 -0.303689,0.67452 -0.615642,1.36557 -0.931727,2.06902 -0.157012,0.35327 -0.318154,0.70757 -0.477228,1.07014 -0.133251,0.3698 -0.265469,0.74373 -0.399755,1.1187 -0.267538,0.75613 -0.539205,1.52465 -0.816041,2.30452 -0.135318,0.3915 -0.273732,0.78609 -0.412151,1.17965 -0.141512,0.39666 -0.27993,0.80054 -0.377027,1.21373 -0.218988,0.82947 -0.440041,1.66719 -0.666262,2.52042 -0.0155,-0.81397 -0.06301,-1.58353 -0.136349,-2.31589 -0.03616,-0.36774 -0.08264,-0.72515 -0.126023,-1.06809 -0.02582,-0.34191 -0.05991,-0.67348 -0.101229,-0.99474 -0.158042,-1.28913 -0.421448,-2.42952 -0.755092,-3.44801 -0.326417,-1.01231 -0.758192,-1.90685 -1.16518,-2.65987 -0.408019,-0.752 -0.863553,-1.39244 -1.333552,-1.92338 -0.937925,-1.07427 -1.93473,-1.73227 -2.704287,-2.1093 -0.769554,-0.37703 -1.307727,-0.47723 -1.307727,-0.47723 l -0.02375,-0.14461 c 0,0 -0.491692,0.95961 -1.051556,2.51628 -0.4576,1.60212 -0.937925,3.83435 -1.024696,6.23598 0.02066,2.43573 0.504087,5.06047 1.762229,7.31749 1.371773,2.29007 3.495538,4.20104 6.660526,5.34763 -0.08987,0.56813 -0.222088,1.12592 -0.256174,1.69406 -0.0909,0.93999 -0.181799,1.86965 -0.272701,2.80964 -0.08677,0.95033 -0.21279,1.90065 -0.206593,2.86131 -0.02272,0.96065 -0.04648,1.9213 -0.06921,2.89228 -0.0011,0.48549 -0.03822,0.97098 -0.0082,1.4668 l 0.07644,1.45648 c 0.05991,1.10527 0.122919,2.22086 0.185931,3.33646 0.133252,1.10527 0.266503,2.22086 0.401821,3.32613 -0.602213,-1.37384 -1.289131,-2.56175 -1.933699,-3.5947 -0.616678,-1.04329 -1.272607,-1.92131 -1.941967,-2.66504 -0.668324,-0.74373 -1.349044,-1.35317 -2.022532,-1.849 -0.66213,-0.49582 -1.286036,-0.88834 -1.902714,-1.17757 -1.227148,-0.57845 -2.346879,-0.78504 -3.159817,-0.83669 -0.815005,-0.0516 -1.322191,0.062 -1.322191,0.062 l -0.0754,-0.1343 c 0,0 -0.02479,0.26858 -0.04236,0.74374 -0.0042,0.47516 -0.05474,1.16724 0.04545,1.98328 0.0816,0.81604 0.211755,1.78702 0.420414,2.83031 0.220022,1.04329 0.463801,2.16922 0.950324,3.26415 0.921401,2.22087 2.215698,4.45207 4.305378,6.06348 2.03183,1.61142 4.625593,2.63405 8.009566,2.5824 0.750964,3.16086 1.669268,6.25974 2.740445,9.25532 0.33881,0.91933 0.674523,1.82833 1.010235,2.73734 0.350171,0.89867 0.750961,1.77669 1.12386,2.65471 0.725138,1.77669 1.589722,3.45008 2.383038,5.13381 0.543337,1.13625 1.15898,2.2002 1.729173,3.28481 -4.678276,-5.90853 -8.658267,-8.00544 -11.820158,-8.43929 -1.53911,-0.23758 -2.834442,-0.062 -3.736216,0.19627 -0.904874,0.24791 -1.419285,0.56813 -1.419285,0.56813 l -0.112593,-0.093 c 0,0 0.07024,0.26858 0.22002,0.71275 0.144616,0.46483 0.393558,1.09494 0.75303,1.83867 0.711708,1.48746 1.769459,3.47074 3.392239,5.22678 1.5608,1.78702 3.663906,3.34679 6.146108,4.16283 2.502864,0.81603 5.448864,0.82636 8.762596,-0.37187 0.436944,0.75406 0.913139,1.47713 1.372808,2.20021 1.784952,2.89228 3.687662,5.47469 5.451958,7.85049 1.801482,2.34482 3.513095,4.44173 5.111085,6.22874 1.566999,1.81801 3.02657,3.3158 4.224804,4.54503 1.211662,1.21889 2.196072,2.14855 2.875761,2.76833 0.680723,0.60944 1.052587,0.91933 1.052587,0.91933 0,0 -0.33468,-0.34087 -0.938964,-1.03296 -0.616674,-0.68175 -1.480229,-1.71472 -2.581363,-3.01625 -1.082542,-1.33251 -2.383038,-2.94393 -3.81369,-4.84457 -1.445105,-1.89032 -2.981119,-4.09052 -4.636956,-6.49731 -0.348106,-0.52682 -0.704477,-1.07429 -1.066012,-1.63209 1.202367,-1.22921 2.113436,-2.46876 2.793123,-3.68766 0.696212,-1.22922 1.166212,-2.44811 1.459573,-3.60502 0.287161,-1.16725 0.415249,-2.29318 0.445204,-3.37778 0.02685,-1.07428 -0.101228,-2.08658 -0.254107,-3.03691 -0.304726,-1.90065 -0.941026,-3.50173 -1.421351,-4.65865 -0.507186,-1.15691 -0.961689,-1.83866 -0.961689,-1.83866 l 0.02893,-0.11363 c 0,0 -0.53404,0.16528 -1.303593,0.59911 -0.771623,0.43385 -1.763262,1.13626 -2.665039,2.24153 -0.900739,1.10526 -1.706449,2.60306 -2.077279,4.66898 -0.312987,2.03493 -0.208659,4.64831 0.851157,7.84016 -0.267534,-0.46483 -0.534039,-0.91933 -0.806742,-1.3945 -0.861488,-1.42548 -1.639309,-2.95426 -2.476005,-4.49337 -0.422476,-0.76439 -0.787113,-1.55977 -1.192035,-2.36547 -0.38736,-0.80571 -0.82327,-1.59076 -1.186869,-2.41714 -0.499953,-1.10526 -1.006103,-2.23119 -1.51432,-3.35711 -0.460697,-1.14658 -0.925529,-2.3035 -1.394494,-3.47075 2.735276,-1.85932 4.519196,-3.98722 5.568686,-6.04281 0.270635,-0.51648 0.481356,-1.03296 0.68072,-1.53911 0.209691,-0.50615 0.380126,-1.0123 0.519577,-1.51845 0.275801,-0.99164 0.421449,-1.9523 0.475161,-2.85097 0.234481,-1.82834 0.02171,-3.4191 -0.127053,-4.58634 -0.138418,-1.15692 -0.365667,-1.87999 -0.365667,-1.87999 l 0.05992,-0.10329 c 0,0 -0.521644,0.0206 -1.32942,0.20659 -0.807776,0.18593 -1.899611,0.53713 -3.034834,1.24988 -2.260117,1.41515 -4.786733,4.35909 -4.740252,10.40191" />
        <path
           inkscape:connector-curvature="0"
           id="path2094"
           style="fill:#e7b35a;fill-opacity:1;fill-rule:nonzero;stroke:none;stroke-width:0.10329597"
           d="m 225.0736,177.84535 c 0.42145,-1.35318 0.86149,-2.69603 1.17861,-4.0802 l 0.52164,-2.07624 0.25927,-1.03297 0.20247,-1.04329 0.54333,-2.96459 0.13635,-0.7334 0.0909,-0.75406 0.17974,-1.47713 c 0.11156,-1.00198 0.25824,-1.98329 0.33984,-2.97493 0.0527,-0.99164 0.10639,-1.98328 0.16114,-2.97493 l 0.004,-0.10329 c 1.64654,-0.29956 3.07718,-0.81604 4.32501,-1.51845 1.20339,-0.70241 2.20538,-1.58043 3.04414,-2.5824 0.83257,-1.00197 1.51844,-2.11757 2.03079,-3.29514 0.46174,-1.16725 0.78299,-2.38613 0.99886,-3.58437 0.49892,-2.4068 0.29544,-4.66898 0.11158,-6.33515 -0.0981,-0.83256 -0.21382,-1.50811 -0.30577,-1.97605 -0.0413,-0.23654 -0.0878,-0.41731 -0.12705,-0.5392 -0.0361,-0.11879 -0.0558,-0.18697 -0.0558,-0.18697 l 0.0445,-0.13324 c 0,0 -0.5351,0 -1.34388,0.22518 -0.81813,0.23035 -1.86243,0.67968 -2.99559,1.55357 -1.13005,0.87491 -2.30143,2.15475 -3.28483,3.99342 -0.91623,1.81801 -1.91819,4.21448 -2.49975,7.33402 -0.14669,-1.4978 -0.2882,-2.97493 -0.43075,-4.4314 -0.24068,-1.85933 -0.61874,-3.67734 -0.92347,-5.45919 -0.40698,-1.76327 -0.89661,-3.46868 -1.32321,-5.12865 -0.0888,-0.376 -0.20453,-0.74166 -0.33675,-1.097 -0.12395,-0.35431 -0.24894,-0.71274 -0.37289,-1.06601 2.59169,-1.50606 4.17005,-3.50484 5.0522,-5.72053 0.81189,-2.17542 0.8305,-4.50371 0.56915,-6.64193 -0.10948,-1.08358 -0.42557,-2.04011 -0.71789,-2.93568 -0.29957,-0.88525 -0.62908,-1.67959 -0.93174,-2.34068 -0.60428,-1.32426 -1.1032,-2.11861 -1.1032,-2.11861 l 0.009,-0.12705 c 0,0 -0.46896,0.14978 -1.11147,0.56916 -0.63836,0.41835 -1.4637,1.11662 -2.20847,2.17851 -0.74475,1.06395 -1.40689,2.49357 -1.7457,4.35083 -0.17044,0.92967 -0.25307,1.96469 -0.23241,3.1185 -0.0444,1.18997 0.0113,2.4977 0.20246,3.94074 -0.17148,-0.38219 -0.34501,-0.76852 -0.51442,-1.14038 -0.28199,-0.63115 -0.55986,-1.24679 -0.8305,-1.8521 -0.26031,-0.60841 -0.61358,-1.15278 -0.9059,-1.71264 -0.61255,-1.10321 -1.1972,-2.15166 -1.75191,-3.15054 1.05673,-0.88317 1.90169,-1.85002 2.49047,-2.82617 0.58569,-0.96995 0.95756,-1.97605 1.16932,-2.99352 0.40904,-2.01943 0.20763,-4.12151 -0.34812,-5.90853 -0.59498,-1.75189 -1.43994,-3.27447 -2.13409,-4.34669 -0.69518,-1.07428 -1.23438,-1.70232 -1.23438,-1.70232 l 0.007,0.1126 c 0,0 -0.41628,0.20452 -0.95446,0.69208 -0.54334,0.48859 -1.20959,1.25711 -1.73227,2.35928 -0.52165,1.10423 -0.90178,2.54004 -0.88318,4.3405 0.007,0.90176 0.11672,1.89444 0.35843,2.98834 0.23449,1.09288 0.49686,2.35206 0.96892,3.69387 -0.51338,-0.76543 -0.99268,-1.48127 -1.42651,-2.1248 -0.23139,-0.36773 -0.47723,-0.69415 -0.72205,-0.99267 -0.23964,-0.30059 -0.4638,-0.58363 -0.67245,-0.85013 -0.41835,-0.52165 -0.77473,-0.96995 -1.06189,-1.32941 -0.58052,-0.72205 -0.88938,-1.10838 -0.88938,-1.10838 0,0 0.26341,0.41835 0.7582,1.19824 0.24894,0.38942 0.5547,0.87078 0.9152,1.42858 0.18077,0.28613 0.37497,0.58569 0.58052,0.91107 0.21486,0.31505 0.42868,0.66007 0.62908,1.04225 0.57329,1.04123 1.23749,2.24773 1.96985,3.57405 -1.02883,-1.15278 -2.01633,-2.0618 -2.9491,-2.77454 -0.45243,-0.36772 -0.93483,-0.65488 -1.41102,-0.89453 -0.46999,-0.24378 -0.92243,-0.44624 -1.35937,-0.60841 -1.74777,-0.6518 -3.22904,-0.69725 -4.43656,-0.48034 -1.20651,0.21383 -2.14237,0.69208 -2.7797,1.10527 -0.6394,0.41835 -0.98131,0.77369 -0.98131,0.77369 l -0.0919,-0.0268 c 0,0 0.32952,0.59292 0.98132,1.3945 0.65179,0.80468 1.63827,1.81594 2.94083,2.71152 2.39337,1.87482 6.28143,3.30754 11.56708,1.68578 0.86252,1.91511 1.93164,3.94798 2.74974,6.29176 0.26134,0.68485 0.52578,1.38004 0.79745,2.09071 0.13635,0.35431 0.27167,0.71584 0.41008,1.07634 0.10949,0.36774 0.22105,0.74684 0.33364,1.12284 0.22622,0.74993 0.45451,1.51741 0.68796,2.29523 0.11879,0.38737 0.23758,0.78092 0.35637,1.17551 0.12395,0.39459 0.24481,0.78815 0.32435,1.2003 0.1787,0.81913 0.36154,1.65067 0.54644,2.49356 -0.38323,-0.70447 -0.77059,-1.34078 -1.16208,-1.91924 -0.19524,-0.28922 -0.3884,-0.56399 -0.59085,-0.8212 -0.22003,-0.25617 -0.43798,-0.49169 -0.658,-0.71894 -0.87492,-0.90177 -1.73744,-1.59075 -2.57104,-2.10827 -0.84393,-0.51441 -1.62484,-0.87078 -2.42952,-1.07841 -0.80571,-0.21072 -1.56183,-0.29543 -2.25908,-0.30473 -1.3914,-0.0196 -2.54212,0.27271 -3.35402,0.55161 -0.80882,0.27786 -1.27158,0.55367 -1.27158,0.55367 l -0.10639,-0.0486 c 0,0 0.20763,0.7272 0.7365,1.77772 0.42661,1.07738 1.12799,2.48427 2.28697,3.886 1.04226,1.42548 2.47601,2.86646 4.53366,4.04403 1.93473,1.1879 4.51817,2.11757 7.90524,2.35515 0.0734,0.54747 0.18593,1.0846 0.20866,1.65273 0.0661,0.90901 0.13222,1.81801 0.1973,2.73734 0.062,0.91934 0.15907,1.84901 0.12808,2.77866 0,0.94001 0,1.86966 0,2.81999 -0.007,0.46483 0.0227,0.93999 -0.0144,1.41516 l -0.0888,1.42548 c -0.0671,1.07427 -0.13428,2.14856 -0.20349,3.23316 -0.13738,1.07428 -0.2758,2.14856 -0.41215,3.23316 -0.26754,-1.45647 -0.59808,-2.69602 -1.06396,-3.74963 -0.4958,-1.06396 -1.05051,-1.94197 -1.6331,-2.65471 -0.58465,-0.72307 -1.19926,-1.2912 -1.818,-1.73538 -0.62908,-0.45449 -1.29224,-0.77472 -1.90582,-1.02262 -1.23852,-0.47517 -2.36341,-0.63011 -3.17841,-0.6611 -0.81501,-0.031 -1.31909,0.0413 -1.31909,0.0413 l -0.0796,-0.0827 c 0,0 -0.0197,0.18594 -0.0259,0.50616 -0.0196,0.33055 0.0268,0.8057 0.006,1.38416 0,0.57846 0.0361,1.26021 0.14255,2.01428 0.094,0.74373 0.31505,1.57009 0.49582,2.43778 0.41835,1.73537 1.29843,3.63602 2.63198,5.49535 1.3914,1.84899 3.45938,3.67733 6.43534,5.10281 -0.70758,3.07823 -1.5763,6.11513 -2.60202,9.04873 -0.32126,0.89868 -0.63941,1.79735 -0.95757,2.6857 -0.32744,0.88835 -0.70034,1.76636 -1.04122,2.63404 -0.66522,1.75604 -1.46473,3.42943 -2.21157,5.0925 -0.51131,1.12592 -1.08667,2.18987 -1.61037,3.28481 2.12272,-7.1894 0.251,-11.33157 -1.77463,-13.49045 -1.05258,-1.10527 -2.17541,-1.75604 -3.02863,-2.13823 -0.85427,-0.39253 -1.44202,-0.51648 -1.44202,-0.51648 l -0.0424,-0.11363 c 0,0 -0.0899,0.18594 -0.22105,0.51648 -0.12395,0.34088 -0.31505,0.81604 -0.52577,1.40483 -0.41939,1.19823 -0.78815,2.87163 -0.95859,4.78261 -0.10226,1.93162 0.0144,4.10084 0.88525,6.40434 0.85115,2.29317 2.36651,4.68964 5.09765,6.97248 -0.39975,0.76439 -0.8398,1.49779 -1.26433,2.22086 -1.65998,2.91295 -3.38915,5.58832 -4.99953,8.03643 -1.66617,2.41713 -3.20941,4.62766 -4.66278,6.5283 -1.43685,1.91098 -2.74354,3.53273 -3.83228,4.86524 -1.10837,1.31186 -1.97709,2.35515 -2.60099,3.02657 -0.60842,0.70241 -0.95343,1.06396 -0.95343,1.06396 0,0 0.38323,-0.32022 1.06809,-0.95033 0.68691,-0.61977 1.67545,-1.54944 2.89331,-2.77866 1.20443,-1.22922 2.67124,-2.73734 4.2465,-4.56568 1.60419,-1.79735 3.32303,-3.90459 5.13484,-6.25973 0.38323,-0.51649 0.77678,-1.05363 1.17654,-1.59077 1.58147,0.69209 3.08959,1.07428 4.52127,1.20857 1.41825,0.13428 2.75903,0.0104 4.01614,-0.29956 1.26434,-0.30989 2.42953,-0.80571 3.47901,-1.43581 1.05362,-0.63011 2.03803,-1.35318 2.87679,-2.14856 1.6765,-1.61142 2.95943,-3.36745 3.74242,-4.77228 0.80467,-1.38416 1.19823,-2.34481 1.19823,-2.34481 l 0.12293,-0.0723 c 0,0 -0.45038,-0.34088 -1.26951,-0.67142 -0.81603,-0.33055 -2.01427,-0.65076 -3.4914,-0.63011 -1.47817,0.0104 -3.23731,0.36153 -5.1803,1.33252 -1.99878,0.93999 -4.15766,2.51009 -6.59648,4.91689 0.29336,-0.45451 0.58362,-0.91934 0.88111,-1.37384 0.93896,-1.43581 1.80562,-2.95427 2.72288,-4.50371 0.46174,-0.76439 0.86666,-1.58042 1.30773,-2.38613 0.42248,-0.80571 0.89041,-1.61142 1.27984,-2.45845 0.5423,-1.12593 1.0908,-2.26218 1.6455,-3.40876 0.50512,-1.17758 1.01541,-2.35515 1.52775,-3.55338 3.33233,0.53714 6.02526,-0.0827 8.30191,-1.33252 0.56296,-0.32022 1.11146,-0.67143 1.60316,-1.05363 0.48549,-0.39252 0.94308,-0.82636 1.37073,-1.27053 0.85632,-0.89868 1.59902,-1.89032 2.23532,-2.88196 1.16209,-2.04526 1.96467,-4.12151 2.3531,-5.71227 0.37908,-1.59075 0.48549,-2.64437 0.48549,-2.64437 l 0.0981,-0.1033 c 0,0 -0.48859,-0.19626 -1.31188,-0.28923 -0.82429,-0.093 -1.98637,-0.0827 -3.32406,0.28923 -2.68362,0.74373 -5.97463,2.92327 -9.35861,8.1294" />
        <path
           inkscape:connector-curvature="0"
           id="path2096"
           style="fill:#e7b35a;fill-opacity:1;fill-rule:nonzero;stroke:none;stroke-width:0.10329597"
           d="m 135.31973,28.085225 4.30125,8.713012 9.61169,1.395538 -6.95492,6.78242 1.64137,9.572433 -8.59939,-4.519211 -8.59836,4.519211 1.64448,-9.572433 -6.95905,-6.78242 9.61479,-1.395538 4.29814,-8.713012" />
        <path
           inkscape:connector-curvature="0"
           id="path2098"
           style="fill:#e7b35a;fill-opacity:1;fill-rule:nonzero;stroke:none;stroke-width:0.10329597"
           d="m 113.18341,42.5142 2.45225,4.976787 5.48915,0.794357 -3.9738,3.87358 0.93999,5.465399 -4.90759,-2.58343 -4.91276,2.58343 0.93793,-5.465399 -3.97172,-3.87358 5.48811,-0.794357 2.45844,-4.976787" />
        <path
           inkscape:connector-curvature="0"
           id="path2100"
           style="fill:#ffffff;fill-opacity:1;fill-rule:nonzero;stroke:none;stroke-width:0.10329597"
           d="m 142.32837,46.326838 -0.0506,-0.292309 h 8.8e-4 l 0.0496,0.292309 m -19.28423,-5.478829 -1.63828,-1.5959 9.61583,-1.398642 4.29814,-8.71299 2.35722,4.77949 -2.35722,-4.776408 -4.29814,8.713012 -9.61479,1.395538 1.63724,1.5959 m 26.18862,-1.5959 -9.61168,-1.395538 -0.002,-0.0031 9.61375,1.398643" />
        <path
           inkscape:connector-curvature="0"
           id="path2102"
           style="fill:#e7b35a;fill-opacity:1;fill-rule:nonzero;stroke:none;stroke-width:0.10329597"
           d="m 142.39758,45.677555 c -1.37901,-0.653854 -3.0555,-1.236458 -5.40755,-1.665126 -1.30567,-0.239642 -2.6671,-0.347071 -4.05953,-0.347071 -1.7736,0 -3.5978,0.174557 -5.42511,0.469992 l -4.46135,-4.345675 -1.63724,-1.5959 9.61479,-1.395538 4.29814,-8.713012 2.35722,4.776408 1.94093,3.9335 h 8.8e-4 l 0.002,0.0031 9.61168,1.395539 -6.95491,6.780357 8.8e-4,0.0021 h -8.8e-4 l 0.0506,0.292313 0.0692,0.40905" />
        <path
           inkscape:connector-curvature="0"
           id="path2104"
           style="fill:#e7b35a;fill-opacity:1;fill-rule:nonzero;stroke:none;stroke-width:0.10329597"
           d="m 156.89516,41.843788 2.45431,4.974724 5.48709,0.799524 -3.97174,3.868454 0.9369,5.46746 -4.90656,-2.583449 -4.91172,2.583449 0.93896,-5.46746 -3.97173,-3.868454 5.48915,-0.799524 2.45534,-4.974724" />
        <path
           inkscape:connector-curvature="0"
           id="path2106"
           style="fill:#ffffff;fill-opacity:1;fill-rule:nonzero;stroke:none;stroke-width:0.10329597"
           d="m 161.07039,52.667152 c -8.9e-4,0 -0.002,0 -0.004,0 l -0.20245,-1.180662 0.20556,1.180662 m -8.18207,-0.982342 c -8.9e-4,0 -8.9e-4,0 -8.9e-4,0 l 0.0351,-0.19832 -0.0341,0.19832 m -3.93248,-4.067797 -0.005,-0.0051 5.48915,-0.796417 2.45225,-4.974727 0.002,0.0042 -2.45432,4.973683 -5.48397,0.798501 m 15.87452,0 -5.48089,-0.798501 -8.8e-4,-0.0021 5.48708,0.795397 -0.005,0.0051" />
        <path
           inkscape:connector-curvature="0"
           id="path2108"
           style="fill:#e7b35a;fill-opacity:1;fill-rule:nonzero;stroke:none;stroke-width:0.10329597"
           d="m 161.06729,52.667152 c -3.49038,-0.162179 -6.11512,-0.514412 -8.17898,-0.982342 l 0.0341,-0.19832 -3.96657,-3.869477 5.48399,-0.798501 2.4543,-4.973683 2.45329,4.970601 8.8e-4,0.0011 8.9e-4,0.0021 5.48088,0.79846 -3.96553,3.86948 0.20245,1.180659" />
        <path
           inkscape:connector-curvature="0"
           id="path2110"
           style="fill:#ffffff;fill-opacity:1;fill-rule:nonzero;stroke:none;stroke-width:0.10329597"
           d="m 106.38343,49.404025 -1.14865,-1.118681 5.49019,-0.798482 2.45638,-4.975765 0.002,0.0031 -2.45845,4.976786 -5.48812,0.794357 1.14659,1.11868 m 11.30781,-1.615539 -2.05559,-0.297498 -0.002,-0.0031 2.0649,0.297498 c -0.002,0.0011 -0.005,0.0021 -0.007,0.0031" />
        <path
           inkscape:connector-curvature="0"
           id="path2112"
           style="fill:#e7b35a;fill-opacity:1;fill-rule:nonzero;stroke:none;stroke-width:0.10329597"
           d="m 108.63736,51.599083 -2.25393,-2.195058 -1.14657,-1.118681 5.48811,-0.794357 2.45844,-4.976787 2.45017,4.972662 v 0.0011 l 0.002,0.0031 2.05559,0.297499 c -3.62259,1.274678 -6.80927,2.712538 -9.05388,3.8106" />
        <path
           inkscape:connector-curvature="0"
           id="path2114"
           style="fill:#ffffff;fill-opacity:1;fill-rule:nonzero;stroke:none;stroke-width:0.10329597"
           d="m 124.71537,263.15758 h -18.4373 v -1.04349 h 18.4373 v 1.04349" />
        <path
           inkscape:connector-curvature="0"
           id="path2116"
           style="fill:#ffffff;fill-opacity:1;fill-rule:nonzero;stroke:none;stroke-width:0.10329597"
           d="m 124.59472,250.66879 h -18.4373 v -1.04297 h 18.4373 v 1.04297" />
        <path
           inkscape:connector-curvature="0"
           id="path2118"
           style="fill:#ffffff;fill-opacity:1;fill-rule:nonzero;stroke:none;stroke-width:0.10329597"
           d="m 171.85758,263.15758 h -18.4373 v -1.04349 h 18.4373 v 1.04349" />
        <path
           inkscape:connector-curvature="0"
           id="path2120"
           style="fill:#ffffff;fill-opacity:1;fill-rule:nonzero;stroke:none;stroke-width:0.10329597"
           d="m 171.81152,250.66879 h -18.4373 v -1.04297 h 18.4373 v 1.04297" />
        <path
           inkscape:connector-curvature="0"
           id="path2122"
           style="fill:#ffffff;fill-opacity:1;fill-rule:nonzero;stroke:none;stroke-width:0.10329597"
           d="m 170.83393,180.58269 c 3.6577,-7.42698 5.76081,-16.10385 5.76081,-25.3695 l -0.002,-0.22725 c 2.05145,-0.14461 4.30743,0.0723 6.18432,1.19824 2.60306,1.55976 4.14114,4.77227 4.57395,9.54455 1.11352,12.26122 -3.68974,13.22188 -16.51702,14.85396 z m 22.12392,-15.37045 c -0.60635,-6.67292 -3.0679,-11.3419 -7.31335,-13.87264 -2.99456,-1.78703 -6.3713,-2.14856 -9.33279,-1.96263 -0.16941,-1.72504 -0.40802,-3.4191 -0.71688,-5.08216 H 95.191317 c -0.652831,3.51207 -0.998875,7.16874 -0.998875,10.91838 0,27.4664 18.445568,49.72668 41.201658,49.72668 12.84899,0 24.3262,-7.10676 31.88231,-18.23173 1.05981,-0.13429 2.0907,-0.26858 3.09268,-0.39253 13.5328,-1.71471 24.22497,-3.05756 22.58876,-21.10337" />
        <path
           inkscape:connector-curvature="0"
           id="path2124"
           style="fill:#ffffff;fill-opacity:1;fill-rule:nonzero;stroke:none;stroke-width:0.10329597"
           d="m 111.12679,141.87945 c 0,0 0.58672,-0.45863 1.49262,-1.34492 0.44934,-0.45036 0.97409,-1.01023 1.53291,-1.67648 0.54334,-0.68072 1.13832,-1.45132 1.67443,-2.35412 0.53094,-0.90177 1.04433,-1.90167 1.42755,-3.01108 0.36051,-1.10939 0.66316,-2.29834 0.74373,-3.55957 l 0.0175,-0.23552 0.007,-0.0909 0.003,-0.12913 c 0.004,-0.1694 0.0166,-0.36153 0.009,-0.49581 -0.004,-0.28406 -0.0196,-0.60221 -0.0486,-0.90591 -0.0599,-0.61357 -0.17664,-1.22302 -0.37599,-1.80975 -0.3791,-1.1848 -1.06602,-2.29626 -1.90892,-3.3757 -0.84496,-1.07429 -1.83763,-2.1186 -2.81068,-3.21251 -0.96065,-1.1063 -1.90478,-2.27148 -2.65368,-3.55132 -0.76438,-1.26227 -1.25607,-2.6609 -1.50502,-3.99962 -0.26133,-1.34078 -0.20968,-2.62785 -0.0796,-3.76927 0.13016,-1.14244 0.41319,-2.15165 0.69003,-3.02347 0.2758,-0.86975 0.58775,-1.59798 0.85632,-2.18884 0.26444,-0.59293 0.50614,-1.03813 0.67039,-1.34285 0.16734,-0.30163 0.25721,-0.46381 0.25721,-0.46381 0,0 -0.0434,0.17974 -0.12602,0.51236 -0.0888,0.33467 -0.19523,0.82947 -0.33675,1.44821 -0.14461,0.62082 -0.27166,1.38624 -0.40079,2.24875 -0.12291,0.86666 -0.19523,1.8459 -0.188,2.89023 0.0124,1.04845 0.16218,2.16095 0.47516,3.26931 0.31093,1.11353 0.86046,2.19091 1.56598,3.24143 0.70241,1.05362 1.60728,2.04733 2.59169,3.05963 0.97098,1.02779 2.0339,2.07108 3.00385,3.29513 0.97717,1.19721 1.83764,2.63302 2.31692,4.20209 0.23965,0.78298 0.37084,1.59075 0.42248,2.38201 0.029,0.39665 0.0217,0.77885 8.9e-4,1.19202 -0.006,0.21796 -0.0259,0.37084 -0.0413,0.54644 l -0.0113,0.13016 -0.0217,0.16217 -0.0393,0.27477 c -0.20556,1.473 -0.6239,2.8613 -1.20752,4.07709 -0.58466,1.20753 -1.26848,2.27871 -2.0215,3.15466 -1.47817,1.77049 -3.03174,2.88196 -4.1525,3.54925 -1.12283,0.66936 -1.8304,0.90487 -1.8304,0.90487" />
        <path
           inkscape:connector-curvature="0"
           id="path2126"
           style="fill:#ffffff;fill-opacity:1;fill-rule:nonzero;stroke:none;stroke-width:0.10329597"
           d="m 152.10753,138.8852 c 0,0 0.5795,-0.41318 1.48747,-1.21683 0.45037,-0.40698 0.98131,-0.9121 1.54737,-1.51741 0.55367,-0.62081 1.16519,-1.32632 1.71575,-2.15786 0.54747,-0.83669 1.0877,-1.75706 1.47506,-2.79622 0.19317,-0.51751 0.34708,-1.06394 0.48653,-1.61658 0.12913,-0.55367 0.20659,-1.13419 0.24791,-1.72194 0.065,-1.15692 -0.0858,-2.31486 -0.54437,-3.41806 -0.4328,-1.11767 -1.15898,-2.18058 -1.98328,-3.21974 -0.83153,-1.03607 -1.76326,-2.06592 -2.67226,-3.1309 -0.89248,-1.07944 -1.76327,-2.20021 -2.47292,-3.40877 -0.7117,-1.20237 -1.21062,-2.50596 -1.47919,-3.77237 -0.28097,-1.2695 -0.27787,-2.50699 -0.16114,-3.6009 0.10743,-1.1032 0.37909,-2.06694 0.65283,-2.89951 0.26857,-0.83464 0.58879,-1.51949 0.85736,-2.08039 0.2665,-0.55986 0.51544,-0.97924 0.67969,-1.2664 0.16836,-0.28096 0.26133,-0.43591 0.26133,-0.43591 0,0 -0.0486,0.1725 -0.13945,0.48755 -0.0971,0.31403 -0.21898,0.78403 -0.36773,1.37074 -0.15495,0.58982 -0.29852,1.31289 -0.42765,2.13307 -0.13119,0.82223 -0.1973,1.75292 -0.1787,2.7487 0.0155,0.9968 0.20143,2.04629 0.52164,3.10094 0.32642,1.05672 0.87492,2.09175 1.55667,3.10405 1.35731,2.04732 3.4129,3.8643 5.25983,6.12752 0.92348,1.12799 1.78497,2.41195 2.34275,3.86946 0.55367,1.45441 0.73134,3.05343 0.53922,4.50474 -0.19627,1.42548 -0.59189,2.77452 -1.20031,3.92215 -0.60015,1.15071 -1.30152,2.14855 -2.06385,2.95013 -1.50502,1.61762 -3.04516,2.58963 -4.14734,3.16705 -1.10629,0.58465 -1.79322,0.77369 -1.79322,0.77369" />
        <path
           inkscape:connector-curvature="0"
           id="path2128"
           style="fill:#ffffff;fill-opacity:1;fill-rule:nonzero;stroke:none;stroke-width:0.10329597"
           d="m 129.92547,126.7795 c 0,0 0.54953,-0.45141 1.41928,-1.2974 0.86459,-0.85942 2.05353,-2.1155 3.20838,-3.76927 0.55573,-0.83359 1.13316,-1.7488 1.59282,-2.7704 0.4638,-1.02262 0.83876,-2.13306 1.06189,-3.29824 l 0.0785,-0.44211 0.0516,-0.43383 0.0537,-0.49686 0.003,-0.40802 c 0.031,-0.5423 -0.0372,-1.16104 -0.12602,-1.73848 -0.21692,-1.17654 -0.67968,-2.33551 -1.28397,-3.49862 -1.22405,-2.31073 -2.94083,-4.65556 -3.9366,-7.29789 -0.50512,-1.31186 -0.77989,-2.684662 -0.86356,-3.97483 -0.0888,-1.294296 0.0589,-2.518353 0.31299,-3.590568 0.10226,-0.542302 0.27993,-1.038124 0.42248,-1.515351 0.1849,-0.456565 0.34397,-0.898673 0.52164,-1.300496 0.18491,-0.395622 0.35741,-0.766455 0.52888,-1.100103 0.18697,-0.327448 0.3605,-0.624937 0.51442,-0.897642 0.29749,-0.541266 0.60841,-0.925531 0.78195,-1.204432 0.18903,-0.272699 0.29129,-0.417313 0.29129,-0.417313 0,0 -0.0558,0.169403 -0.16114,0.485492 -0.10123,0.31505 -0.27477,0.761289 -0.4452,1.346979 -0.0889,0.288193 -0.18491,0.613575 -0.29027,0.961684 -0.0888,0.353271 -0.18386,0.731334 -0.28613,1.139354 -0.094,0.402857 -0.16114,0.841861 -0.24997,1.294301 -0.0372,0.458631 -0.14462,0.933795 -0.16115,1.431682 -0.0919,0.99164 -0.0248,2.061784 0.14978,3.14846 0.18078,1.093906 0.564,2.190907 1.07221,3.292043 0.52268,1.10321 1.18997,2.20021 1.92647,3.33235 0.72824,1.13626 1.52568,2.31797 2.22397,3.62673 0.70138,1.29739 1.27054,2.76935 1.52051,4.3095 0.0981,0.78195 0.15598,1.52568 0.093,2.33139 l -0.0485,0.59602 -0.0836,0.49478 -0.0961,0.54851 -0.12705,0.52371 c -0.36567,1.38417 -0.92967,2.64851 -1.60833,3.73518 -0.66625,1.1001 -1.41721,2.0401 -2.18264,2.82205 -0.76335,0.78711 -1.51328,1.43891 -2.22603,1.9523 -0.70034,0.5268 -1.34491,0.93069 -1.89134,1.23334 -1.08564,0.61564 -1.7612,0.846 -1.7612,0.846" />
        <path
           inkscape:connector-curvature="0"
           id="path2130"
           style="fill:#8a5d3b;fill-opacity:1;fill-rule:nonzero;stroke:none;stroke-width:0.10329597"
           d="m 138.68925,257.34192 c -0.74889,1.80768 -0.57847,4.10075 -0.19523,6.00129 2.88092,-0.23728 5.16274,-3.46041 5.16274,-7.39579 0,-3.89415 -2.22913,-7.08631 -5.06048,-7.38566 0.51751,2.21033 1.17344,6.14611 0.093,8.78016" />
        <path
           inkscape:connector-curvature="0"
           id="path2132"
           style="fill:#a87c4f;fill-opacity:1;fill-rule:nonzero;stroke:none;stroke-width:0.10329597"
           d="m 137.5406,257.34192 c 1.05878,-2.5824 0.45037,-6.41489 -0.0589,-8.64577 -2.49253,0.71253 -4.36219,3.68756 -4.36219,7.25127 0,3.48098 1.78289,6.40436 4.18762,7.19963 -0.35431,-1.85933 -0.48756,-4.05964 0.23345,-5.80513" />
      </g>
      <g
         id="g2152"
         style="font-style:normal;font-variant:normal;font-weight:normal;font-stretch:normal;font-size:40px;line-height:1.25;font-family:Righteous;-inkscape-font-specification:Righteous;letter-spacing:0px;word-spacing:0px;fill:#ffffff;fill-opacity:1;stroke:none"
         transform="matrix(0.26458333,0,0,0.26458333,32.856442,194.35269)"
         aria-label="MOLA YERi">
        <path
           inkscape:connector-curvature="0"
           id="path2136"
           style="font-size:85.33333588px"
           d="m 231.24935,211.4393 h -11.91667 v -42.66667 q 0,-1.25 -0.5,-2.33333 -0.45833,-1.08333 -1.29166,-1.875 -0.79167,-0.83333 -1.875,-1.29167 -1.08334,-0.45833 -2.33334,-0.45833 -1.25,0 -2.33333,0.45833 -1.08333,0.45834 -1.91667,1.29167 -0.79166,0.79167 -1.25,1.875 -0.45833,1.08333 -0.45833,2.33333 v 42.66667 h -11.95833 v -42.66667 q 0,-1.25 -0.45834,-2.33333 -0.45833,-1.08333 -1.29166,-1.875 -0.79167,-0.83333 -1.875,-1.29167 -1.08334,-0.45833 -2.33334,-0.45833 -1.25,0 -2.33333,0.45833 -1.08333,0.45834 -1.91667,1.29167 -0.79166,0.79167 -1.25,1.875 -0.45833,1.08333 -0.45833,2.33333 v 42.66667 h -11.95833 v -42.66667 q 0,-3.70833 1.375,-6.95833 1.41666,-3.29167 3.83333,-5.70833 2.45833,-2.45834 5.70833,-3.83334 3.29167,-1.41666 7,-1.41666 3.33334,0 6.41667,1.20833 3.08333,1.16667 5.54167,3.41667 2.45833,-2.25 5.5,-3.41667 3.08333,-1.20833 6.41666,-1.20833 3.70834,0 6.95834,1.41666 3.29166,1.375 5.70833,3.83334 2.45833,2.41666 3.83333,5.70833 1.41667,3.25 1.41667,6.95833 z" />
        <path
           inkscape:connector-curvature="0"
           id="path2138"
           style="font-size:85.33333588px"
           d="m 300.49935,181.8143 q 0,4.25 -1.125,8.20833 -1.08333,3.91667 -3.08333,7.37501 -2,3.41666 -4.83334,6.25 -2.83333,2.83333 -6.25,4.875 -3.41666,2 -7.375,3.08333 -3.95833,1.125 -8.20833,1.125 -4.25,0 -8.20833,-1.125 -3.91667,-1.08333 -7.375,-3.08333 -3.41667,-2.04167 -6.25,-4.875 -2.83334,-2.83334 -4.875,-6.25 -2,-3.45834 -3.125,-7.37501 -1.08334,-3.95833 -1.08334,-8.20833 0,-4.25 1.08334,-8.20833 1.125,-3.95834 3.125,-7.375 2.04166,-3.41667 4.875,-6.25 2.83333,-2.83334 6.25,-4.83334 3.45833,-2 7.375,-3.08333 3.95833,-1.125 8.20833,-1.125 4.25,0 8.20833,1.125 3.95834,1.08333 7.375,3.08333 3.41667,2 6.25,4.83334 2.83334,2.83333 4.83334,6.25 2,3.41666 3.08333,7.375 1.125,3.95833 1.125,8.20833 z m -11.875,0 q 0,-3.91667 -1.5,-7.375 -1.5,-3.5 -4.08333,-6.04167 -2.54167,-2.58333 -6.04167,-4.08333 -3.45833,-1.5 -7.375,-1.5 -3.95833,0 -7.41667,1.5 -3.45833,1.5 -6.04166,4.08333 -2.58334,2.54167 -4.08334,6.04167 -1.5,3.45833 -1.5,7.375 0,3.91667 1.5,7.375 1.5,3.41667 4.08334,6 2.58333,2.58334 6.04166,4.08334 3.45834,1.5 7.41667,1.5 3.91667,0 7.375,-1.5 3.5,-1.5 6.04167,-4.08334 2.58333,-2.58333 4.08333,-6 1.5,-3.45833 1.5,-7.375 z" />
        <path
           inkscape:connector-curvature="0"
           id="path2140"
           style="font-size:85.33333588px"
           d="m 350.12436,211.4393 h -41.83333 v -59.75 h 11.95833 v 47.79167 h 29.875 z" />
        <path
           inkscape:connector-curvature="0"
           id="path2142"
           style="font-size:85.33333588px"
           d="m 391.45769,187.5643 v -11.95833 q 0,-2.45834 -0.95833,-4.625 -0.91667,-2.20834 -2.54167,-3.83334 -1.625,-1.625 -3.83333,-2.54166 -2.16667,-0.95834 -4.625,-0.95834 -2.45833,0 -4.66667,0.95834 -2.16666,0.91666 -3.79166,2.54166 -1.625,1.625 -2.58334,3.83334 -0.91666,2.16666 -0.91666,4.625 v 11.95833 z m 11.95834,23.875 h -11.95834 v -11.95833 h -23.91666 v 11.95833 h -11.91667 v -35.83333 q 0,-4.95834 1.875,-9.29167 1.875,-4.375 5.08333,-7.625 3.25,-3.25 7.58334,-5.125 4.375,-1.875 9.33333,-1.875 4.95833,0 9.29167,1.875 4.375,1.875 7.625,5.125 3.25,3.25 5.125,7.625 1.875,4.33333 1.875,9.29167 z" />
        <path
           inkscape:connector-curvature="0"
           id="path2144"
           style="font-size:85.33333588px"
           d="m 464.49934,211.4393 h -11.91667 v -18.70833 q -3.95833,-1 -7.29166,-3.20834 -3.29167,-2.20833 -5.66667,-5.25 -2.375,-3.08333 -3.70833,-6.79166 -1.29167,-3.75 -1.29167,-7.875 V 151.6893 h 11.95833 v 17.91667 q 0,2.45833 0.91667,4.66666 0.95833,2.16667 2.58333,3.79167 1.625,1.625 3.79167,2.58333 2.20833,0.91667 4.66667,0.91667 2.45833,0 4.625,-0.91667 2.20833,-0.95833 3.83333,-2.58333 1.625,-1.625 2.54167,-3.79167 0.95833,-2.20833 0.95833,-4.66666 V 151.6893 h 11.91667 v 17.91667 q 0,4.125 -1.33334,7.875 -1.29166,3.70833 -3.66666,6.79166 -2.375,3.04167 -5.66667,5.25 -3.29167,2.20834 -7.25,3.20834 z" />
        <path
           inkscape:connector-curvature="0"
           id="path2146"
           style="font-size:85.33333588px"
           d="m 531.58267,211.4393 h -40.95833 v -59.75 h 40.95833 v 11.95833 h -29 v 11.95834 h 19.625 v 11.95833 h -19.625 v 11.91667 h 29 z" />
        <path
           inkscape:connector-curvature="0"
           id="path2148"
           style="font-size:85.33333588px"
           d="m 551.91602,163.64763 v 23.91667 h 11.95833 q 2.45833,0 4.625,-0.91667 2.16667,-0.95833 3.79167,-2.58333 1.625,-1.625 2.54166,-3.79167 0.95834,-2.20833 0.95834,-4.66666 0,-2.45834 -0.95834,-4.625 -0.91666,-2.20834 -2.54166,-3.83334 -1.625,-1.625 -3.79167,-2.54166 -2.16667,-0.95834 -4.625,-0.95834 z m 0,47.79167 h -11.95834 v -59.75 h 23.91667 q 3.29167,0 6.33333,0.875 3.04167,0.83333 5.66667,2.41667 2.66667,1.54166 4.83333,3.75 2.20834,2.16666 3.75,4.83333 1.58334,2.66667 2.41667,5.70833 0.875,3.04167 0.875,6.33334 0,3.08333 -0.79167,6 -0.75,2.91666 -2.20833,5.54166 -1.41667,2.625 -3.5,4.83334 -2.08333,2.20833 -4.66667,3.83333 l 6.625,15.625 h -12.70833 l -5.20833,-12.04166 -13.375,0.0833 z" />
        <path
           inkscape:connector-curvature="0"
           id="path2150"
           style="font-size:85.33333588px"
           d="m 607.8327,154.6893 q 0,1.58333 -0.625,2.95833 -0.58333,1.375 -1.625,2.41667 -1.04166,1 -2.45833,1.625 -1.375,0.58333 -2.95833,0.58333 -1.58334,0 -3,-0.58333 -1.375,-0.625 -2.41667,-1.625 -1,-1.04167 -1.625,-2.41667 -0.58333,-1.375 -0.58333,-2.95833 0,-1.54167 0.58333,-2.91667 0.625,-1.41666 1.625,-2.41666 1.04167,-1.04167 2.41667,-1.625 1.41666,-0.625 3,-0.625 1.58333,0 2.95833,0.625 1.41667,0.58333 2.45833,1.625 1.04167,1 1.625,2.41666 0.625,1.375 0.625,2.91667 z m -1.95833,56.75 h -11.45833 v -44.625 h 11.45833 z" />
      </g>
      <g
         id="g2160"
         style="font-style:normal;font-variant:normal;font-weight:normal;font-stretch:normal;font-size:40px;line-height:1.25;font-family:Righteous;-inkscape-font-specification:Righteous;letter-spacing:0px;word-spacing:0px;fill:#ffffff;fill-opacity:1;stroke:none"
         transform="matrix(0.26458333,0,0,0.26458333,58.262842,230.11191)"
         aria-label="YMY">
        <path
           inkscape:connector-curvature="0"
           id="path2154"
           style="font-size:42.66666794px"
           d="m 182.62435,172.26457 h -5.95833 v -9.35416 q -1.97917,-0.5 -3.64584,-1.60417 -1.64583,-1.10417 -2.83333,-2.625 -1.1875,-1.54167 -1.85417,-3.39583 -0.64583,-1.875 -0.64583,-3.9375 v -8.95834 h 5.97917 v 8.95834 q 0,1.22916 0.45833,2.33333 0.47917,1.08333 1.29167,1.89583 0.8125,0.8125 1.89583,1.29167 1.10417,0.45833 2.33333,0.45833 1.22917,0 2.3125,-0.45833 1.10417,-0.47917 1.91667,-1.29167 0.8125,-0.8125 1.27083,-1.89583 0.47917,-1.10417 0.47917,-2.33333 v -8.95834 h 5.95833 v 8.95834 q 0,2.0625 -0.66666,3.9375 -0.64584,1.85416 -1.83334,3.39583 -1.1875,1.52083 -2.83333,2.625 -1.64583,1.10417 -3.625,1.60417 z" />
        <path
           inkscape:connector-curvature="0"
           id="path2156"
           style="font-size:42.66666794px"
           d="m 225.14519,172.26457 h -5.95834 v -21.33333 q 0,-0.625 -0.25,-1.16667 -0.22917,-0.54166 -0.64583,-0.9375 -0.39584,-0.41666 -0.9375,-0.64583 -0.54167,-0.22917 -1.16667,-0.22917 -0.625,0 -1.16667,0.22917 -0.54166,0.22917 -0.95833,0.64583 -0.39583,0.39584 -0.625,0.9375 -0.22917,0.54167 -0.22917,1.16667 v 21.33333 h -5.97916 v -21.33333 q 0,-0.625 -0.22917,-1.16667 -0.22917,-0.54166 -0.64583,-0.9375 -0.39584,-0.41666 -0.9375,-0.64583 -0.54167,-0.22917 -1.16667,-0.22917 -0.625,0 -1.16667,0.22917 -0.54166,0.22917 -0.95833,0.64583 -0.39583,0.39584 -0.625,0.9375 -0.22917,0.54167 -0.22917,1.16667 v 21.33333 h -5.97916 v -21.33333 q 0,-1.85417 0.6875,-3.47917 0.70833,-1.64583 1.91666,-2.85416 1.22917,-1.22917 2.85417,-1.91667 1.64583,-0.70833 3.5,-0.70833 1.66667,0 3.20833,0.60416 1.54167,0.58334 2.77084,1.70834 1.22916,-1.125 2.75,-1.70834 1.54166,-0.60416 3.20833,-0.60416 1.85417,0 3.47917,0.70833 1.64583,0.6875 2.85417,1.91667 1.22916,1.20833 1.91666,2.85416 0.70834,1.625 0.70834,3.47917 z" />
        <path
           inkscape:connector-curvature="0"
           id="path2158"
           style="font-size:42.66666794px"
           d="m 243.77019,172.26457 h -5.95834 v -9.35416 q -1.97916,-0.5 -3.64583,-1.60417 -1.64584,-1.10417 -2.83334,-2.625 -1.1875,-1.54167 -1.85416,-3.39583 -0.64584,-1.875 -0.64584,-3.9375 v -8.95834 h 5.97917 v 8.95834 q 0,1.22916 0.45834,2.33333 0.47916,1.08333 1.29166,1.89583 0.8125,0.8125 1.89584,1.29167 1.10416,0.45833 2.33333,0.45833 1.22917,0 2.3125,-0.45833 1.10417,-0.47917 1.91667,-1.29167 0.8125,-0.8125 1.27083,-1.89583 0.47917,-1.10417 0.47917,-2.33333 v -8.95834 h 5.95833 v 8.95834 q 0,2.0625 -0.66667,3.9375 -0.64583,1.85416 -1.83333,3.39583 -1.1875,1.52083 -2.83333,2.625 -1.64584,1.10417 -3.625,1.60417 z" />
      </g>
      <g
         id="g2170"
         style="font-style:normal;font-variant:normal;font-weight:normal;font-stretch:normal;font-size:40px;line-height:1.25;font-family:Righteous;-inkscape-font-specification:Righteous;letter-spacing:0px;word-spacing:0px;fill:#ffffff;fill-opacity:1;stroke:none"
         transform="matrix(0.26458333,0,0,0.26458333,104.96445,230.07896)"
         aria-label="2018">
        <path
           inkscape:connector-curvature="0"
           id="path2162"
           style="font-size:42.66666794px"
           d="m 189.16602,151.34791 q 0,1.85416 -0.70834,3.5 -0.70833,1.625 -1.9375,2.85416 -1.20833,1.20834 -2.83333,1.91667 -1.625,0.70833 -3.47917,0.70833 h -3 q -0.625,0 -1.16666,0.22917 -0.54167,0.22917 -0.95834,0.64583 -0.39583,0.39584 -0.625,0.9375 -0.22916,0.54167 -0.22916,1.16667 v 2.97917 h 14.125 v 5.97916 h -20.10417 v -8.95833 q 0,-1.85417 0.70833,-3.47917 0.70834,-1.64583 1.91667,-2.85416 1.22917,-1.22917 2.85417,-1.91667 1.625,-0.70833 3.47916,-0.70833 h 3 q 0.625,0 1.16667,-0.22917 0.54167,-0.22917 0.9375,-0.625 0.41667,-0.41667 0.64583,-0.95833 0.22917,-0.5625 0.22917,-1.1875 0,-0.625 -0.22917,-1.16667 -0.22916,-0.54167 -0.64583,-0.9375 -0.39583,-0.41667 -0.9375,-0.64583 -0.54167,-0.22917 -1.16667,-0.22917 h -10.66666 v -5.97917 h 10.66666 q 1.85417,0 3.47917,0.70834 1.625,0.70833 2.83333,1.9375 1.22917,1.20833 1.9375,2.83333 0.70834,1.625 0.70834,3.47917 z" />
        <path
           inkscape:connector-curvature="0"
           id="path2164"
           style="font-size:42.66666794px"
           d="m 210.70768,157.32707 q 0,-4.97916 -1.66666,-7.39583 -1.64584,-2.41667 -4.60417,-2.41667 -2.9375,0 -4.5625,2.39584 -1.625,2.39583 -1.625,7.41666 0,4.97917 1.625,7.39584 1.625,2.41666 4.5625,2.41666 1.47917,0 2.64583,-0.58333 1.16667,-0.60417 1.95834,-1.8125 0.8125,-1.20833 1.22916,-3.04167 0.4375,-1.85416 0.4375,-4.375 z m 5.6875,0 q 0,4.25 -0.9375,7.1875 -0.9375,2.9375 -2.5625,4.75 -1.625,1.8125 -3.8125,2.625 -2.16666,0.79167 -4.64583,0.79167 -2.47917,0 -4.66667,-0.8125 -2.16666,-0.83333 -3.79166,-2.64583 -1.60417,-1.83334 -2.54167,-4.75 -0.9375,-2.9375 -0.9375,-7.14584 0,-4.25 0.9375,-7.16666 0.9375,-2.9375 2.54167,-4.75 1.625,-1.8125 3.79166,-2.625 2.1875,-0.8125 4.66667,-0.8125 2.47917,0 4.64583,0.83333 2.1875,0.8125 3.8125,2.64583 1.625,1.83334 2.5625,4.75 0.9375,2.91667 0.9375,7.125 z" />
        <path
           inkscape:connector-curvature="0"
           id="path2166"
           style="font-size:42.66666794px"
           d="m 228.74935,172.26457 h -5.97917 v -23.89583 h -2.97916 v -5.97917 h 8.95833 z" />
        <path
           inkscape:connector-curvature="0"
           id="path2168"
           style="font-size:42.66666794px"
           d="m 256.62435,163.72291 q 0,2.02083 -0.91666,3.72916 -0.91667,1.70834 -2.52084,2.95834 -1.58333,1.22916 -3.70833,1.91666 -2.125,0.70834 -4.54167,0.70834 -2.41666,0 -4.54166,-0.70834 -2.125,-0.6875 -3.72917,-1.91666 -1.58334,-1.25 -2.5,-2.95834 -0.91667,-1.70833 -0.91667,-3.72916 0,-1.16667 0.3125,-2.27084 0.3125,-1.125 0.89583,-2.10416 0.60417,-0.97917 1.4375,-1.79167 0.83334,-0.83333 1.87501,-1.41667 -0.64584,-0.5625 -1.16667,-1.29166 -0.5,-0.72917 -0.875,-1.54167 -0.35417,-0.8125 -0.54167,-1.66667 -0.1875,-0.875 -0.1875,-1.72916 0,-1.75 0.77083,-3.27084 0.79167,-1.54166 2.14584,-2.6875 1.35417,-1.16666 3.16667,-1.83333 1.8125,-0.66667 3.85416,-0.66667 2.0625,0 3.875,0.66667 1.8125,0.66667 3.16667,1.83333 1.375,1.14584 2.14583,2.6875 0.79167,1.52084 0.79167,3.27084 0,0.85416 -0.20833,1.72916 -0.1875,0.85417 -0.54167,1.6875 -0.35417,0.8125 -0.875,1.54167 -0.5,0.72917 -1.14583,1.3125 1.02083,0.58333 1.85416,1.39583 0.83334,0.8125 1.41667,1.79167 0.58333,0.97917 0.89583,2.08333 0.3125,1.10417 0.3125,2.27084 z m -7.5625,-13.16667 q 0,-0.72917 -0.33333,-1.35417 -0.3125,-0.64583 -0.875,-1.125 -0.54167,-0.47916 -1.29167,-0.75 -0.75,-0.27083 -1.58333,-0.27083 -0.85417,0 -1.60417,0.27083 -0.75,0.27084 -1.3125,0.75 -0.54166,0.47917 -0.875,1.125 -0.3125,0.625 -0.3125,1.35417 0,0.72917 0.3125,1.35417 0.33334,0.625 0.875,1.08333 0.5625,0.45833 1.3125,0.72917 0.75,0.27083 1.60417,0.27083 0.83333,0 1.58333,-0.27083 0.75,-0.27084 1.29167,-0.72917 0.5625,-0.45833 0.875,-1.08333 0.33333,-0.625 0.33333,-1.35417 z m 1.625,13 q 0,-1 -0.45833,-1.85417 -0.4375,-0.875 -1.22917,-1.52083 -0.77083,-0.64583 -1.83333,-1.02083 -1.04167,-0.375 -2.22917,-0.375 -1.1875,0 -2.22916,0.375 -1.04167,0.375 -1.83334,1.02083 -0.77083,0.64583 -1.22916,1.52083 -0.4375,0.85417 -0.4375,1.85417 0,1 0.4375,1.83333 0.45833,0.83334 1.22916,1.4375 0.79167,0.60417 1.83334,0.95834 1.04166,0.33333 2.22916,0.33333 1.1875,0 2.22917,-0.33333 1.0625,-0.35417 1.83333,-0.95834 0.79167,-0.60416 1.22917,-1.4375 0.45833,-0.83333 0.45833,-1.83333 z" />
      </g>
      <g
         id="g2200"
         style="font-style:normal;font-weight:normal;font-size:10.58333302px;line-height:1.25;font-family:sans-serif;letter-spacing:0px;word-spacing:0px;fill:#ffffff;fill-opacity:1;stroke:none;stroke-width:0.26458332"
         aria-label="YAZILIMCILARIN">
        <path
           id="path2172"
           style="font-style:normal;font-variant:normal;font-weight:normal;font-stretch:normal;font-size:21.16666603px;font-family:Righteous;-inkscape-font-specification:Righteous;text-align:center;letter-spacing:-0.26458332px;text-anchor:middle;fill:#ffffff;stroke-width:0.26458332"
           d="m 74.146121,119.57358 -1.83518,2.3172 -3.63784,-2.88111 q -0.804038,0.6157 -1.746786,0.92378 -0.936331,0.29998 -1.893537,0.29338 -0.965308,-0.013 -1.891729,-0.32484 -0.928106,-0.32634 -1.730213,-0.96159 l -3.4839,-2.75919 1.841597,-2.3253 3.4839,2.75919 q 0.478023,0.37858 1.048602,0.54042 0.568893,0.14732 1.135127,0.0816 0.566233,-0.0657 1.086251,-0.33945 0.518332,-0.28824 0.896918,-0.76627 0.378586,-0.47802 0.534009,-1.0405 0.153738,-0.57699 0.08801,-1.14323 -0.06573,-0.56623 -0.34587,-1.07814 -0.281827,-0.52644 -0.75985,-0.90503 l -3.4839,-2.75918 1.835181,-2.3172 3.483899,2.75919 q 0.802107,0.63525 1.325961,1.47202 0.522168,0.82226 0.75597,1.75891 0.2257,0.93024 0.14819,1.91039 -0.07751,0.98015 -0.492647,1.90385 z"
           inkscape:connector-curvature="0" />
        <path
           id="path2174"
           style="font-style:normal;font-variant:normal;font-weight:normal;font-stretch:normal;font-size:21.16666603px;font-family:Righteous;-inkscape-font-specification:Righteous;text-align:center;letter-spacing:-0.26458332px;text-anchor:middle;fill:#ffffff;stroke-width:0.26458332"
           d="m 80.54364,104.67001 -1.986631,-2.20268 q -0.408402,-0.45282 -0.94487,-0.6927 -0.535716,-0.25449 -1.104995,-0.28384 -0.56928,-0.0294 -1.128332,0.16866 -0.558299,0.18343 -1.011115,0.59183 -0.452815,0.4084 -0.700375,0.95179 -0.246806,0.52879 -0.276165,1.09807 -0.02936,0.56928 0.16099,1.13526 0.1911,0.55137 0.599502,1.00419 l 1.986631,2.20268 z m 6.169021,2.41105 -2.20268,1.98663 -1.986632,-2.20268 -4.40536,3.97326 1.986632,2.20268 -2.195005,1.97971 -5.952972,-6.60036 q -0.823726,-0.91331 -1.198252,-2.02299 -0.381448,-1.11735 -0.330406,-2.24898 0.05872,-1.13856 0.545408,-2.20382 0.494366,-1.07219 1.407672,-1.89591 0.913306,-0.823729 2.022983,-1.198255 1.117351,-0.381448 2.25591,-0.322731 1.138558,0.05872 2.210742,0.553083 1.065263,0.486691 1.888988,1.399993 z"
           inkscape:connector-curvature="0" />
        <path
           id="path2176"
           style="font-style:normal;font-variant:normal;font-weight:normal;font-stretch:normal;font-size:21.16666603px;font-family:Righteous;-inkscape-font-specification:Righteous;text-align:center;letter-spacing:-0.26458332px;text-anchor:middle;fill:#ffffff;stroke-width:0.26458332"
           d="m 97.447753,100.07227 -9.65457,6.19677 -1.080264,-13.392984 -5.32306,3.416594 -1.602227,-2.496271 9.65457,-6.196766 1.09766,13.381817 5.305664,-3.405427 z"
           inkscape:connector-curvature="0" />
        <path
           id="path2178"
           style="font-style:normal;font-variant:normal;font-weight:normal;font-stretch:normal;font-size:21.16666603px;font-family:Righteous;-inkscape-font-specification:Righteous;text-align:center;letter-spacing:-0.26458332px;text-anchor:middle;fill:#ffffff;stroke-width:0.26458332"
           d="m 101.62436,98.164751 -2.658208,1.31622 -6.576515,-13.281775 2.658207,-1.316221 z"
           inkscape:connector-curvature="0" />
        <path
           id="path2180"
           style="font-style:normal;font-variant:normal;font-weight:normal;font-stretch:normal;font-size:21.16666603px;font-family:Righteous;-inkscape-font-specification:Righteous;text-align:center;letter-spacing:-0.26458332px;text-anchor:middle;fill:#ffffff;stroke-width:0.26458332"
           d="m 113.57828,93.459678 -9.74213,3.572848 -5.103051,-13.914561 2.784851,-1.021322 4.08173,11.129708 6.95728,-2.551526 z"
           inkscape:connector-curvature="0" />
        <path
           id="path2182"
           style="font-style:normal;font-variant:normal;font-weight:normal;font-stretch:normal;font-size:21.16666603px;font-family:Righteous;-inkscape-font-specification:Righteous;text-align:center;letter-spacing:-0.26458332px;text-anchor:middle;fill:#ffffff;stroke-width:0.26458332"
           d="m 117.74153,92.597008 -2.87902,0.713993 -3.56748,-14.385034 2.87902,-0.713994 z"
           inkscape:connector-curvature="0" />
        <path
           id="path2184"
           style="font-style:normal;font-variant:normal;font-weight:normal;font-stretch:normal;font-size:21.16666603px;font-family:Righteous;-inkscape-font-specification:Righteous;text-align:center;letter-spacing:-0.26458332px;text-anchor:middle;fill:#ffffff;stroke-width:0.26458332"
           d="m 134.75389,90.284785 -2.94084,0.29792 -1.06668,-10.529441 q -0.0312,-0.30848 -0.18173,-0.563328 -0.14019,-0.255891 -0.36563,-0.430428 -0.21621,-0.185861 -0.49502,-0.271887 -0.2788,-0.08603 -0.58728,-0.05478 -0.30848,0.03125 -0.56437,0.171444 -0.25589,0.140192 -0.44071,0.366679 -0.17558,0.215163 -0.26161,0.49397 -0.086,0.278808 -0.0548,0.587288 l 1.06668,10.529441 -2.95113,0.298962 -1.06668,-10.529441 q -0.0312,-0.30848 -0.17144,-0.56437 -0.14019,-0.255891 -0.36564,-0.430428 -0.2162,-0.185861 -0.49501,-0.271887 -0.27881,-0.08603 -0.58729,-0.05478 -0.30848,0.03125 -0.56437,0.171444 -0.25589,0.140192 -0.44071,0.366679 -0.17558,0.215163 -0.2616,0.49397 -0.086,0.278808 -0.0548,0.587288 l 1.06668,10.529441 -2.95112,0.298962 -1.06668,-10.529441 q -0.0927,-0.915157 0.16537,-1.751579 0.26732,-0.847747 0.80329,-1.504559 0.54522,-0.668136 1.31289,-1.088715 0.77691,-0.431903 1.69207,-0.524612 0.82261,-0.08334 1.61374,0.137778 0.79008,0.21083 1.45301,0.704634 0.55043,-0.616722 1.27189,-0.98068 0.73071,-0.375281 1.55332,-0.458615 0.91516,-0.09271 1.75262,0.175649 0.84671,0.257035 1.50456,0.803294 0.6671,0.534935 1.08872,1.31289 0.43086,0.76663 0.52357,1.681787 z"
           inkscape:connector-curvature="0" />
        <path
           id="path2186"
           style="font-style:normal;font-variant:normal;font-weight:normal;font-stretch:normal;font-size:21.16666603px;font-family:Righteous;-inkscape-font-specification:Righteous;text-align:center;letter-spacing:-0.26458332px;text-anchor:middle;fill:#ffffff;stroke-width:0.26458332"
           d="m 149.10366,89.993304 q -1.1081,0.793925 -2.42671,1.154117 -1.31861,0.360192 -2.68781,0.238596 -1.05007,-0.09325 -2.00339,-0.458067 -0.94394,-0.353604 -1.75452,-0.923636 -0.79937,-0.579412 -1.43725,-1.341626 -0.63787,-0.762213 -1.06735,-1.651183 -0.41826,-0.89835 -0.61028,-1.890743 -0.18081,-1.001774 -0.0876,-2.05184 0.0933,-1.050067 0.44778,-2.004299 0.36481,-0.953319 0.93393,-1.753606 0.58032,-0.809667 1.34254,-1.447542 0.76221,-0.637875 1.65027,-1.057055 0.89926,-0.428561 1.89074,-0.610285 1.00269,-0.191105 2.05275,-0.09785 1.36921,0.121596 2.6037,0.708523 1.23541,0.576632 2.18535,1.563702 l -1.79337,2.434726 q -0.5864,-0.757642 -1.43884,-1.20688 -0.85152,-0.459532 -1.81923,-0.545472 -0.978,-0.08685 -1.86538,0.207875 -0.88738,0.294728 -1.58234,0.87632 -0.69404,0.571297 -1.14145,1.403145 -0.4465,0.821553 -0.53244,1.789261 -0.0859,0.967708 0.20879,1.855087 0.29564,0.877085 0.87724,1.572044 0.58159,0.694959 1.40314,1.141454 0.82155,0.446495 1.79956,0.533349 0.96771,0.08594 1.88597,-0.206046 0.91918,-0.30228 1.62992,-0.944727 z"
           inkscape:connector-curvature="0" />
        <path
           id="path2188"
           style="font-style:normal;font-variant:normal;font-weight:normal;font-stretch:normal;font-size:21.16666603px;font-family:Righteous;-inkscape-font-specification:Righteous;text-align:center;letter-spacing:-0.26458332px;text-anchor:middle;fill:#ffffff;stroke-width:0.26458332"
           d="m 153.28379,92.617997 -2.90317,-0.608365 3.0397,-14.505734 2.90317,0.608365 z"
           inkscape:connector-curvature="0" />
        <path
           id="path2190"
           style="font-style:normal;font-variant:normal;font-weight:normal;font-stretch:normal;font-size:21.16666603px;font-family:Righteous;-inkscape-font-specification:Righteous;text-align:center;letter-spacing:-0.26458332px;text-anchor:middle;fill:#ffffff;stroke-width:0.26458332"
           d="m 165.58833,96.309445 -9.86625,-3.214277 4.59091,-14.09183 2.82034,0.918822 -3.67209,11.271499 7.04591,2.295455 z"
           inkscape:connector-curvature="0" />
        <path
           id="path2192"
           style="font-style:normal;font-variant:normal;font-weight:normal;font-stretch:normal;font-size:21.16666603px;font-family:Righteous;-inkscape-font-specification:Righteous;text-align:center;letter-spacing:-0.26458332px;text-anchor:middle;fill:#ffffff;stroke-width:0.26458332"
           d="m 177.24454,95.558902 1.36284,-2.634611 q 0.28016,-0.54161 0.31595,-1.128178 0.0497,-0.590999 -0.1231,-1.134207 -0.17282,-0.543207 -0.55488,-0.996837 -0.36814,-0.458062 -0.90975,-0.738227 -0.54161,-0.280165 -1.13735,-0.320703 -0.58182,-0.04497 -1.12503,0.12785 -0.54321,0.172819 -1.00602,0.550133 -0.44888,0.372883 -0.72904,0.914493 l -1.36284,2.634611 z m -0.0863,6.622878 -2.63461,-1.36284 1.36284,-2.634607 -5.26922,-2.725676 -1.36284,2.634611 -2.62543,-1.35809 4.08376,-7.894653 q 0.56508,-1.0924 1.47203,-1.833417 0.91169,-0.750196 1.98892,-1.100583 1.08642,-0.345639 2.25481,-0.26488 1.17756,0.08551 2.26996,0.650586 1.0924,0.565079 1.83342,1.472022 0.7502,0.911692 1.09583,1.998107 0.34564,1.086415 0.26014,2.263982 -0.0808,1.168388 -0.64584,2.260788 z"
           inkscape:connector-curvature="0" />
        <path
           id="path2194"
           style="font-style:normal;font-variant:normal;font-weight:normal;font-stretch:normal;font-size:21.16666603px;font-family:Righteous;-inkscape-font-specification:Righteous;text-align:center;letter-spacing:-0.26458332px;text-anchor:middle;fill:#ffffff;stroke-width:0.26458332"
           d="m 188.65297,95.826581 -3.5939,4.719949 2.35997,1.79695 q 0.48515,0.36941 1.05049,0.51408 0.5716,0.13645 1.13647,0.0599 0.56488,-0.0765 1.07136,-0.36636 0.52097,-0.29181 0.89038,-0.77696 0.36941,-0.48515 0.50586,-1.05675 0.15094,-0.57356 0.0744,-1.138433 -0.0765,-0.564878 -0.36635,-1.071362 -0.28359,-0.514706 -0.76874,-0.884114 z m -7.18154,9.431669 -2.35998,-1.79695 8.97849,-11.791642 4.71995,3.593899 q 0.64961,0.494631 1.1184,1.124376 0.47505,0.621522 0.75516,1.328445 0.29461,0.704961 0.39036,1.466354 0.11023,0.759432 0.0138,1.517358 -0.0883,0.76419 -0.38085,1.48969 -0.28439,0.73175 -0.77902,1.38136 -0.46332,0.6085 -1.05784,1.06514 -0.58629,0.4629 -1.26854,0.7618 -0.67403,0.30517 -1.41702,0.42792 -0.74299,0.12276 -1.49699,0.0553 l -1.04049,4.07912 -2.50799,-1.90965 0.78161,-3.15907 -2.65207,-1.99338 z"
           inkscape:connector-curvature="0" />
        <path
           id="path2196"
           style="font-style:normal;font-variant:normal;font-weight:normal;font-stretch:normal;font-size:21.16666603px;font-family:Righteous;-inkscape-font-specification:Righteous;text-align:center;letter-spacing:-0.26458332px;text-anchor:middle;fill:#ffffff;stroke-width:0.26458332"
           d="m 191.77163,114.03253 -2.13,-2.06437 10.31463,-10.64258 2.13,2.06436 z"
           inkscape:connector-curvature="0" />
        <path
           id="path2198"
           style="font-style:normal;font-variant:normal;font-weight:normal;font-stretch:normal;font-size:21.16666603px;font-family:Righteous;-inkscape-font-specification:Righteous;text-align:center;letter-spacing:-0.26458332px;text-anchor:middle;fill:#ffffff;stroke-width:0.26458332"
           d="m 201.07502,124.9206 -1.98821,-2.47277 4.0222,-10.56775 -7.60355,6.11356 -1.85867,-2.31168 11.5503,-9.2869 1.9882,2.47276 -4.03025,10.57423 7.6116,-6.12003 1.85868,2.31167 z"
           inkscape:connector-curvature="0" />
      </g>
    </g>
  </g>
</svg>
