<?xml version="1.0" encoding="utf-8"?>
<!-- Generator: Adobe Illustrator 16.0.0, SVG Export Plug-In . SVG Version: 6.00 Build 0)  -->
<!DOCTYPE svg PUBLIC "-//W3C//DTD SVG 1.1//EN" "http://www.w3.org/Graphics/SVG/1.1/DTD/svg11.dtd">
<svg version="1.1" id="レイヤー_1" xmlns="http://www.w3.org/2000/svg" xmlns:xlink="http://www.w3.org/1999/xlink" x="0px"
	 y="0px" width="960px" height="560px" viewBox="0 0 960 560" enable-background="new 0 0 960 560" xml:space="preserve">
<g>
	<g>
		<path fill="#023B81" d="M738.534,224.969c0-12.132,9.842-21.979,22.007-21.979c12.132,0,21.985,9.847,21.985,21.979
			c0,12.161-9.854,21.996-21.985,21.996C748.376,246.965,738.534,237.13,738.534,224.969z"/>
		<path fill="#568EDA" d="M701.829,161.157c0-12.144,9.843-21.996,21.974-21.996c12.149,0,22.02,9.853,22.02,21.996
			c0,12.138-9.87,21.999-22.02,21.999C711.672,183.156,701.829,173.295,701.829,161.157z"/>
		<path fill="#9EC5F0" d="M775.167,161.157c0-12.144,9.843-21.996,21.995-21.996c12.133,0,21.984,9.853,21.984,21.996
			c0,12.138-9.852,21.999-21.984,21.999C785.01,183.156,775.167,173.295,775.167,161.157z"/>
		<g>
			<g>
				<g>
					<g>
						<path fill="#B5B6B6" d="M80,348.861l74.525-108.225v-0.644H86.698V217.95h102.396v15.562l-73.444,107.142v0.856h74.523v22.032
							H80V348.861z"/>
						<path fill="#B5B6B6" d="M229.733,318.402c0.644,19.018,15.55,27.212,32.405,27.212c12.297,0,21.165-1.718,29.152-4.74
							l3.895,18.355c-9.08,3.674-21.603,6.476-36.732,6.476c-34.125,0-54.211-20.941-54.211-53.141
							c0-29.154,17.711-56.584,51.407-56.584c34.139,0,45.368,28.065,45.368,51.182c0,4.979-0.432,8.865-0.863,11.24H229.733z
							 M275.96,299.822c0.209-9.724-4.112-25.704-21.828-25.704c-16.406,0-23.334,14.901-24.399,25.704H275.96z"/>
						<path fill="#B5B6B6" d="M322.427,289.678c0-11.682-0.196-14.164-0.804-22.547c-0.016-0.295,0.135-0.9,0.713-0.846
							c0.768,0.092,2.208,0.297,4.767,0.812c5.642,1.124,14.251-0.38,19.321-2.741c10.662-4.946,18.347-8.375,35.846-8.375
							c18.373,0,35.424,11.871,35.424,45.141v62.421h-26.57v-59.396c0-15.127-5.621-26.573-20.09-26.573
							c-10.585,0-17.933,7.563-20.74,15.563c-0.876,2.363-1.079,5.602-1.079,8.623v61.782h-26.788V289.678z"/>
						<path fill="#B5B6B6" d="M601.477,309.985c0,38.655-27.215,55.935-54.006,55.935c-29.804,0-52.722-20.519-52.722-54.213
							c0-34.558,22.694-55.727,54.451-55.727C580.526,255.98,601.477,278.013,601.477,309.985z M522.203,311.059
							c0,20.313,9.933,35.64,26.139,35.64c15.126,0,25.706-14.901,25.706-36.074c0-16.409-7.35-35.207-25.491-35.207
							C529.774,275.417,522.203,293.562,522.203,311.059z"/>
						<path fill="#B5B6B6" d="M719.847,264.346c-0.457,6.368-1.26,10.844-1.26,24.255v68.534c0,22.109-4.758,39.468-15.541,49.678
							c-10.128,9.593-24.869,14.026-39.341,14.026c-13.393,0-27.004-5.355-36.087-10.982l5.84-20.089
							c6.693,3.879,15.369,9.269,28.118,9.269c20.695,0,30.873-17.541,30.873-33.702v-10.321h-0.435
							c-8.389,7.554-16.859,10.445-30.021,10.445c-26.141,0-45.353-24.162-45.353-53.98c0-34.541,22.458-55.497,47.729-55.497
							c15.986,0,19.288,3.204,31.718,6.353c9.941,2.507,19.243,1.583,22.568,0.801C719.477,262.938,719.861,263.828,719.847,264.346
							z M692.015,300.479c0-2.38-0.22-4.979-0.858-7.145c-2.813-9.708-10.371-17.063-21.6-17.063
							c-14.912,0-25.921,12.969-25.921,34.353c0,17.929,9.071,32.408,25.694,32.408c9.941,0,18.59-6.485,21.617-15.981
							c0.644-2.819,1.067-6.479,1.067-9.504V300.479z"/>
						<path fill="#B5B6B6" d="M879.785,360.303c-5.625,2.601-16.65,5.402-29.813,5.402c-32.834,0-54.219-20.941-54.219-53.564
							c0-31.544,21.584-56.16,58.545-56.16c9.717,0,19.642,2.149,25.701,4.966l-4.762,19.869
							c-4.315-1.944-10.585-4.104-20.086-4.104c-20.301,0-32.405,14.909-32.189,34.134c0,21.608,14.048,33.919,32.189,33.919
							c9.286,0,15.771-1.952,20.951-4.11L879.785,360.303z"/>
					</g>
				</g>
			</g>
		</g>
	</g>
	<g>
		<path fill="#B5B6B6" d="M446.662,217.934h26.834v145.529h-26.834V217.934z"/>
	</g>
	<path fill="#B5B6B6" d="M747.131,363.542V267.32h26.786v96.222H747.131z"/>
</g>
</svg>
